<?xml version="1.0" encoding="UTF-8" standalone="no"?>
<!DOCTYPE svg PUBLIC "-//W3C//DTD SVG 1.1//EN"
 "http://www.w3.org/Graphics/SVG/1.1/DTD/svg11.dtd">
<!-- Generated by graphviz version 2.38.0 (20140413.2041)
 -->
<!-- Title: include/tvm/relay/attrs/annotation.h Pages: 1 -->
<svg width="2428pt" height="856pt"
 viewBox="0.00 0.00 2427.69 856.00" xmlns="http://www.w3.org/2000/svg" xmlns:xlink="http://www.w3.org/1999/xlink">
<g id="graph0" class="graph" transform="scale(1 1) rotate(0) translate(4 852)">
<title>include/tvm/relay/attrs/annotation.h</title>
<polygon fill="white" stroke="none" points="-4,4 -4,-852 2423.69,-852 2423.69,4 -4,4"/>
<!-- Node1 -->
<g id="node1" class="node"><title>Node1</title>
<polygon fill="#bfbfbf" stroke="black" points="1002,-817.5 1002,-847.5 1126,-847.5 1126,-817.5 1002,-817.5"/>
<text text-anchor="start" x="1010" y="-835.5" font-family="Helvetica,sans-Serif" font-size="10.00">include/tvm/relay/attrs</text>
<text text-anchor="middle" x="1064" y="-824.5" font-family="Helvetica,sans-Serif" font-size="10.00">/annotation.h</text>
</g>
<!-- Node2 -->
<g id="node2" class="node"><title>Node2</title>
<g id="a_node2"><a xlink:href="ir_2attrs_8h.html" target="_top" xlink:title="Helpers for attribute objects. ">
<polygon fill="white" stroke="black" points="2089.5,-761.5 2089.5,-780.5 2168.5,-780.5 2168.5,-761.5 2089.5,-761.5"/>
<text text-anchor="middle" x="2129" y="-768.5" font-family="Helvetica,sans-Serif" font-size="10.00">tvm/ir/attrs.h</text>
</a>
</g>
</g>
<!-- Node1&#45;&gt;Node2 -->
<g id="edge1" class="edge"><title>Node1&#45;&gt;Node2</title>
<path fill="none" stroke="midnightblue" d="M1126.25,-828.022C1319.18,-817.243 1904.61,-784.536 2079.29,-774.777"/>
<polygon fill="midnightblue" stroke="midnightblue" points="2079.68,-778.261 2089.47,-774.209 2079.29,-771.272 2079.68,-778.261"/>
</g>
<!-- Node12 -->
<g id="node12" class="node"><title>Node12</title>
<polygon fill="white" stroke="#bfbfbf" points="261,-62 261,-81 305,-81 305,-62 261,-62"/>
<text text-anchor="middle" x="283" y="-69" font-family="Helvetica,sans-Serif" font-size="10.00">string</text>
</g>
<!-- Node1&#45;&gt;Node12 -->
<g id="edge126" class="edge"><title>Node1&#45;&gt;Node12</title>
<path fill="none" stroke="midnightblue" d="M1001.81,-831.322C774.226,-829.862 0,-817.439 0,-716 0,-716 0,-716 0,-188 0,-151.28 19.8873,-142.503 51,-123 113.861,-83.5966 203.006,-74.6372 250.406,-72.7908"/>
<polygon fill="midnightblue" stroke="midnightblue" points="250.802,-76.2805 260.69,-72.4778 250.589,-69.2837 250.802,-76.2805"/>
</g>
<!-- Node3 -->
<g id="node3" class="node"><title>Node3</title>
<polygon fill="white" stroke="#bfbfbf" points="2295.5,-705.5 2295.5,-724.5 2390.5,-724.5 2390.5,-705.5 2295.5,-705.5"/>
<text text-anchor="middle" x="2343" y="-712.5" font-family="Helvetica,sans-Serif" font-size="10.00">dmlc/common.h</text>
</g>
<!-- Node2&#45;&gt;Node3 -->
<g id="edge2" class="edge"><title>Node2&#45;&gt;Node3</title>
<path fill="none" stroke="midnightblue" d="M2162.91,-761.444C2199.85,-752.122 2259.05,-737.183 2299.42,-726.997"/>
<polygon fill="midnightblue" stroke="midnightblue" points="2300.41,-730.357 2309.25,-724.516 2298.7,-723.57 2300.41,-730.357"/>
</g>
<!-- Node4 -->
<g id="node4" class="node"><title>Node4</title>
<g id="a_node4"><a xlink:href="ir_2expr_8h.html" target="_top" xlink:title="Base expr nodes in TVM. ">
<polygon fill="white" stroke="black" points="304.5,-705.5 304.5,-724.5 381.5,-724.5 381.5,-705.5 304.5,-705.5"/>
<text text-anchor="middle" x="343" y="-712.5" font-family="Helvetica,sans-Serif" font-size="10.00">tvm/ir/expr.h</text>
</a>
</g>
</g>
<!-- Node2&#45;&gt;Node4 -->
<g id="edge3" class="edge"><title>Node2&#45;&gt;Node4</title>
<path fill="none" stroke="midnightblue" d="M2089.19,-768.796C1854.28,-761.694 650.518,-725.298 391.954,-717.48"/>
<polygon fill="midnightblue" stroke="midnightblue" points="391.853,-713.976 381.752,-717.172 391.641,-720.972 391.853,-713.976"/>
</g>
<!-- Node11 -->
<g id="node11" class="node"><title>Node11</title>
<polygon fill="white" stroke="#bfbfbf" points="610,-62 610,-81 678,-81 678,-62 610,-62"/>
<text text-anchor="middle" x="644" y="-69" font-family="Helvetica,sans-Serif" font-size="10.00">type_traits</text>
</g>
<!-- Node2&#45;&gt;Node11 -->
<g id="edge123" class="edge"><title>Node2&#45;&gt;Node11</title>
<path fill="none" stroke="midnightblue" d="M2089.29,-769.654C1838.39,-767.387 477.667,-753.828 295,-725 194.711,-709.173 76,-761.53 76,-660 76,-660 76,-660 76,-602 76,-523.929 114,-508.571 114,-430.5 114,-430.5 114,-430.5 114,-367 114,-145.589 471.789,-89.2042 599.428,-76.1337"/>
<polygon fill="midnightblue" stroke="midnightblue" points="600.024,-79.5921 609.634,-75.1313 599.339,-72.6256 600.024,-79.5921"/>
</g>
<!-- Node2&#45;&gt;Node12 -->
<g id="edge124" class="edge"><title>Node2&#45;&gt;Node12</title>
<path fill="none" stroke="midnightblue" d="M2089.31,-770.096C1812.66,-770.642 180.594,-771.869 88,-725 55.4813,-708.54 38,-696.447 38,-660 38,-660 38,-660 38,-188 38,-95.1246 183.828,-76.809 250.471,-73.2879"/>
<polygon fill="midnightblue" stroke="midnightblue" points="250.991,-76.7683 260.826,-72.8271 250.68,-69.7752 250.991,-76.7683"/>
</g>
<!-- Node13 -->
<g id="node13" class="node"><title>Node13</title>
<polygon fill="white" stroke="#bfbfbf" points="1905,-62 1905,-81 1947,-81 1947,-62 1905,-62"/>
<text text-anchor="middle" x="1926" y="-69" font-family="Helvetica,sans-Serif" font-size="10.00">utility</text>
</g>
<!-- Node2&#45;&gt;Node13 -->
<g id="edge125" class="edge"><title>Node2&#45;&gt;Node13</title>
<path fill="none" stroke="midnightblue" d="M2168.65,-768.401C2235.18,-764.922 2365.33,-754.451 2399,-725 2421.75,-705.099 2419,-690.225 2419,-660 2419,-660 2419,-660 2419,-188 2419,-92.8123 2066.2,-76.0173 1957.5,-73.1016"/>
<polygon fill="midnightblue" stroke="midnightblue" points="1957.27,-69.595 1947.18,-72.8477 1957.09,-76.5929 1957.27,-69.595"/>
</g>
<!-- Node19 -->
<g id="node19" class="node"><title>Node19</title>
<g id="a_node19"><a xlink:href="packed__func_8h.html" target="_top" xlink:title="Type&#45;erased function used across TVM API. ">
<polygon fill="white" stroke="black" points="1452.5,-291.5 1452.5,-321.5 1565.5,-321.5 1565.5,-291.5 1452.5,-291.5"/>
<text text-anchor="start" x="1460.5" y="-309.5" font-family="Helvetica,sans-Serif" font-size="10.00">tvm/runtime/packed</text>
<text text-anchor="middle" x="1509" y="-298.5" font-family="Helvetica,sans-Serif" font-size="10.00">_func.h</text>
</a>
</g>
</g>
<!-- Node2&#45;&gt;Node19 -->
<g id="edge119" class="edge"><title>Node2&#45;&gt;Node19</title>
<path fill="none" stroke="midnightblue" d="M2123.02,-761.328C2111.21,-743.318 2086,-700.189 2086,-660 2086,-660 2086,-660 2086,-546 2086,-436.663 1727.67,-351.539 1575.78,-320.366"/>
<polygon fill="midnightblue" stroke="midnightblue" points="1576.14,-316.868 1565.64,-318.303 1574.74,-323.727 1576.14,-316.868"/>
</g>
<!-- Node23 -->
<g id="node23" class="node"><title>Node23</title>
<polygon fill="white" stroke="#bfbfbf" points="1973.5,-179.5 1973.5,-198.5 2020.5,-198.5 2020.5,-179.5 1973.5,-179.5"/>
<text text-anchor="middle" x="1997" y="-186.5" font-family="Helvetica,sans-Serif" font-size="10.00">vector</text>
</g>
<!-- Node2&#45;&gt;Node23 -->
<g id="edge121" class="edge"><title>Node2&#45;&gt;Node23</title>
<path fill="none" stroke="midnightblue" d="M2141.66,-761.35C2164.44,-744.643 2210,-705.535 2210,-660 2210,-660 2210,-660 2210,-305.5 2210,-265.138 2090.31,-220.387 2030.38,-200.507"/>
<polygon fill="midnightblue" stroke="midnightblue" points="2031.2,-197.094 2020.61,-197.312 2029.02,-203.747 2031.2,-197.094"/>
</g>
<!-- Node24 -->
<g id="node24" class="node"><title>Node24</title>
<polygon fill="white" stroke="#bfbfbf" points="2038.5,-179.5 2038.5,-198.5 2131.5,-198.5 2131.5,-179.5 2038.5,-179.5"/>
<text text-anchor="middle" x="2085" y="-186.5" font-family="Helvetica,sans-Serif" font-size="10.00">unordered_map</text>
</g>
<!-- Node2&#45;&gt;Node24 -->
<g id="edge120" class="edge"><title>Node2&#45;&gt;Node24</title>
<path fill="none" stroke="midnightblue" d="M2165.18,-761.41C2185.41,-754.765 2209.42,-743.483 2224,-725 2306.85,-619.988 2286,-564.258 2286,-430.5 2286,-430.5 2286,-430.5 2286,-305.5 2286,-238.539 2201.1,-209.83 2141.66,-197.936"/>
<polygon fill="midnightblue" stroke="midnightblue" points="2142.1,-194.456 2131.62,-196.036 2140.79,-201.334 2142.1,-194.456"/>
</g>
<!-- Node29 -->
<g id="node29" class="node"><title>Node29</title>
<polygon fill="white" stroke="#bfbfbf" points="1966.5,-235.5 1966.5,-254.5 2029.5,-254.5 2029.5,-235.5 1966.5,-235.5"/>
<text text-anchor="middle" x="1998" y="-242.5" font-family="Helvetica,sans-Serif" font-size="10.00">functional</text>
</g>
<!-- Node2&#45;&gt;Node29 -->
<g id="edge122" class="edge"><title>Node2&#45;&gt;Node29</title>
<path fill="none" stroke="midnightblue" d="M2134.98,-761.328C2146.79,-743.318 2172,-700.189 2172,-660 2172,-660 2172,-660 2172,-367 2172,-302.667 2090.83,-269.768 2039.37,-255.375"/>
<polygon fill="midnightblue" stroke="midnightblue" points="2040.07,-251.94 2029.51,-252.739 2038.27,-258.702 2040.07,-251.94"/>
</g>
<!-- Node5 -->
<g id="node5" class="node"><title>Node5</title>
<g id="a_node5"><a xlink:href="object_8h.html" target="_top" xlink:title="A managed object in the TVM runtime. ">
<polygon fill="white" stroke="black" points="1130.5,-123.5 1130.5,-142.5 1247.5,-142.5 1247.5,-123.5 1130.5,-123.5"/>
<text text-anchor="middle" x="1189" y="-130.5" font-family="Helvetica,sans-Serif" font-size="10.00">tvm/runtime/object.h</text>
</a>
</g>
</g>
<!-- Node4&#45;&gt;Node5 -->
<g id="edge4" class="edge"><title>Node4&#45;&gt;Node5</title>
<path fill="none" stroke="midnightblue" d="M381.815,-713.588C635.605,-710.646 2048,-690.391 2048,-604 2048,-604 2048,-604 2048,-490 2048,-261.521 1789.79,-366.077 1574,-291 1517.78,-271.441 1500.43,-276.691 1445,-255 1426.86,-247.901 1423.66,-243.212 1406,-235 1368.43,-217.533 1357.69,-216.218 1320,-199 1282.77,-181.994 1240.49,-160.631 1214.27,-147.142"/>
<polygon fill="midnightblue" stroke="midnightblue" points="1215.87,-144.029 1205.38,-142.551 1212.66,-150.249 1215.87,-144.029"/>
</g>
<!-- Node4&#45;&gt;Node11 -->
<g id="edge118" class="edge"><title>Node4&#45;&gt;Node11</title>
<path fill="none" stroke="midnightblue" d="M317.496,-705.486C300.138,-698.394 278.032,-686.584 265,-669 249.786,-648.473 254.908,-638.385 252,-613 232.261,-440.684 243.375,-372.571 349,-235 414.066,-150.256 536.54,-103.699 601.321,-83.9898"/>
<polygon fill="midnightblue" stroke="midnightblue" points="602.615,-87.2568 611.205,-81.0554 600.623,-80.5463 602.615,-87.2568"/>
</g>
<!-- Node4&#45;&gt;Node12 -->
<g id="edge115" class="edge"><title>Node4&#45;&gt;Node12</title>
<path fill="none" stroke="midnightblue" d="M304.363,-710.611C250.552,-705.099 156.939,-692.383 133,-669 55.0357,-592.847 76,-539.485 76,-430.5 76,-430.5 76,-430.5 76,-188 76,-108.966 192.494,-83.5117 250.699,-75.726"/>
<polygon fill="midnightblue" stroke="midnightblue" points="251.353,-79.1718 260.847,-74.4689 250.493,-72.2248 251.353,-79.1718"/>
</g>
<!-- Node15 -->
<g id="node15" class="node"><title>Node15</title>
<g id="a_node15"><a xlink:href="node_8h.html" target="_top" xlink:title="Definitions and helper macros for IR/AST nodes. ">
<polygon fill="white" stroke="black" points="794,-537.5 794,-556.5 892,-556.5 892,-537.5 794,-537.5"/>
<text text-anchor="middle" x="843" y="-544.5" font-family="Helvetica,sans-Serif" font-size="10.00">tvm/node/node.h</text>
</a>
</g>
</g>
<!-- Node4&#45;&gt;Node15 -->
<g id="edge14" class="edge"><title>Node4&#45;&gt;Node15</title>
<path fill="none" stroke="midnightblue" d="M368.829,-705.425C451.891,-677.848 712.256,-591.407 807.579,-559.76"/>
<polygon fill="midnightblue" stroke="midnightblue" points="808.937,-562.997 817.325,-556.524 806.732,-556.353 808.937,-562.997"/>
</g>
<!-- Node31 -->
<g id="node31" class="node"><title>Node31</title>
<polygon fill="white" stroke="#bfbfbf" points="866,-235.5 866,-254.5 908,-254.5 908,-235.5 866,-235.5"/>
<text text-anchor="middle" x="887" y="-242.5" font-family="Helvetica,sans-Serif" font-size="10.00">limits</text>
</g>
<!-- Node4&#45;&gt;Node31 -->
<g id="edge117" class="edge"><title>Node4&#45;&gt;Node31</title>
<path fill="none" stroke="midnightblue" d="M328.913,-705.242C300.127,-686.159 238.982,-638.851 260,-593 372.513,-347.556 744.87,-268.88 855.647,-250.613"/>
<polygon fill="midnightblue" stroke="midnightblue" points="856.502,-254.021 865.824,-248.985 855.397,-247.109 856.502,-254.021"/>
</g>
<!-- Node34 -->
<g id="node34" class="node"><title>Node34</title>
<g id="a_node34"><a xlink:href="node_2container_8h.html" target="_top" xlink:title="Array/Map container in the DSL graph. ">
<polygon fill="white" stroke="black" points="1283.5,-358.5 1283.5,-377.5 1402.5,-377.5 1402.5,-358.5 1283.5,-358.5"/>
<text text-anchor="middle" x="1343" y="-365.5" font-family="Helvetica,sans-Serif" font-size="10.00">tvm/node/container.h</text>
</a>
</g>
</g>
<!-- Node4&#45;&gt;Node34 -->
<g id="edge103" class="edge"><title>Node4&#45;&gt;Node34</title>
<path fill="none" stroke="midnightblue" d="M381.776,-713.341C621.912,-709.01 1896,-682.343 1896,-604 1896,-604 1896,-604 1896,-490 1896,-392.226 1561.93,-373.343 1413.09,-369.783"/>
<polygon fill="midnightblue" stroke="midnightblue" points="1412.78,-366.275 1402.71,-369.552 1412.63,-373.273 1412.78,-366.275"/>
</g>
<!-- Node39 -->
<g id="node39" class="node"><title>Node39</title>
<g id="a_node39"><a xlink:href="span_8h.html" target="_top" xlink:title="Span information for debugging purposes. ">
<polygon fill="white" stroke="black" points="269,-593.5 269,-612.5 349,-612.5 349,-593.5 269,-593.5"/>
<text text-anchor="middle" x="309" y="-600.5" font-family="Helvetica,sans-Serif" font-size="10.00">tvm/ir/span.h</text>
</a>
</g>
</g>
<!-- Node4&#45;&gt;Node39 -->
<g id="edge104" class="edge"><title>Node4&#45;&gt;Node39</title>
<path fill="none" stroke="midnightblue" d="M340.308,-705.376C337.483,-696.319 332.918,-681.662 329,-669 324.147,-653.315 318.665,-635.49 314.669,-622.479"/>
<polygon fill="midnightblue" stroke="midnightblue" points="317.989,-621.367 311.709,-612.834 311.297,-623.421 317.989,-621.367"/>
</g>
<!-- Node40 -->
<g id="node40" class="node"><title>Node40</title>
<g id="a_node40"><a xlink:href="ir_2type_8h.html" target="_top" xlink:title="IR/AST nodes for the unified type system in TVM. ">
<polygon fill="white" stroke="black" points="338.5,-649.5 338.5,-668.5 415.5,-668.5 415.5,-649.5 338.5,-649.5"/>
<text text-anchor="middle" x="377" y="-656.5" font-family="Helvetica,sans-Serif" font-size="10.00">tvm/ir/type.h</text>
</a>
</g>
</g>
<!-- Node4&#45;&gt;Node40 -->
<g id="edge108" class="edge"><title>Node4&#45;&gt;Node40</title>
<path fill="none" stroke="midnightblue" d="M348.614,-705.083C353.367,-697.534 360.318,-686.495 366.152,-677.23"/>
<polygon fill="midnightblue" stroke="midnightblue" points="369.124,-679.078 371.49,-668.751 363.2,-675.349 369.124,-679.078"/>
</g>
<!-- Node41 -->
<g id="node41" class="node"><title>Node41</title>
<polygon fill="white" stroke="#bfbfbf" points="142,-649.5 142,-668.5 204,-668.5 204,-649.5 142,-649.5"/>
<text text-anchor="middle" x="173" y="-656.5" font-family="Helvetica,sans-Serif" font-size="10.00">algorithm</text>
</g>
<!-- Node4&#45;&gt;Node41 -->
<g id="edge116" class="edge"><title>Node4&#45;&gt;Node41</title>
<path fill="none" stroke="midnightblue" d="M316.063,-705.444C287.34,-696.32 241.671,-681.813 209.679,-671.651"/>
<polygon fill="midnightblue" stroke="midnightblue" points="210.401,-668.208 199.811,-668.516 208.282,-674.88 210.401,-668.208"/>
</g>
<!-- Node6 -->
<g id="node6" class="node"><title>Node6</title>
<polygon fill="white" stroke="#bfbfbf" points="1016,-62 1016,-81 1102,-81 1102,-62 1016,-62"/>
<text text-anchor="middle" x="1059" y="-69" font-family="Helvetica,sans-Serif" font-size="10.00">dmlc/logging.h</text>
</g>
<!-- Node5&#45;&gt;Node6 -->
<g id="edge5" class="edge"><title>Node5&#45;&gt;Node6</title>
<path fill="none" stroke="midnightblue" d="M1170.37,-123.475C1148.56,-113.49 1112.2,-96.8476 1086.98,-85.3075"/>
<polygon fill="midnightblue" stroke="midnightblue" points="1088.14,-81.9884 1077.59,-81.0091 1085.23,-88.3534 1088.14,-81.9884"/>
</g>
<!-- Node7 -->
<g id="node7" class="node"><title>Node7</title>
<g id="a_node7"><a xlink:href="c__runtime__api_8h.html" target="_top" xlink:title="tvm/runtime/c_runtime\l_api.h">
<polygon fill="white" stroke="black" points="1725.5,-56.5 1725.5,-86.5 1852.5,-86.5 1852.5,-56.5 1725.5,-56.5"/>
<text text-anchor="start" x="1733.5" y="-74.5" font-family="Helvetica,sans-Serif" font-size="10.00">tvm/runtime/c_runtime</text>
<text text-anchor="middle" x="1789" y="-63.5" font-family="Helvetica,sans-Serif" font-size="10.00">_api.h</text>
</a>
</g>
</g>
<!-- Node5&#45;&gt;Node7 -->
<g id="edge6" class="edge"><title>Node5&#45;&gt;Node7</title>
<path fill="none" stroke="midnightblue" d="M1247.62,-126.187C1357.5,-115.29 1594.21,-91.8165 1714.93,-79.8453"/>
<polygon fill="midnightblue" stroke="midnightblue" points="1715.58,-83.2983 1725.18,-78.8285 1714.89,-76.3325 1715.58,-83.2983"/>
</g>
<!-- Node5&#45;&gt;Node11 -->
<g id="edge10" class="edge"><title>Node5&#45;&gt;Node11</title>
<path fill="none" stroke="midnightblue" d="M1130.42,-125.604C1020.6,-113.615 786.072,-88.0106 688.264,-77.3325"/>
<polygon fill="midnightblue" stroke="midnightblue" points="688.451,-73.8322 678.13,-76.2261 687.691,-80.7908 688.451,-73.8322"/>
</g>
<!-- Node5&#45;&gt;Node12 -->
<g id="edge11" class="edge"><title>Node5&#45;&gt;Node12</title>
<path fill="none" stroke="midnightblue" d="M1130.43,-128.116C1106.43,-126.527 1078.38,-124.672 1053,-123 766.735,-104.141 420.593,-81.4963 315.061,-74.5959"/>
<polygon fill="midnightblue" stroke="midnightblue" points="315.259,-71.1014 305.051,-73.9415 314.802,-78.0865 315.259,-71.1014"/>
</g>
<!-- Node5&#45;&gt;Node13 -->
<g id="edge12" class="edge"><title>Node5&#45;&gt;Node13</title>
<path fill="none" stroke="midnightblue" d="M1247.6,-129.228C1388.5,-122.376 1743.32,-103.965 1861,-87 1872.19,-85.3873 1884.31,-82.8918 1895.02,-80.423"/>
<polygon fill="midnightblue" stroke="midnightblue" points="1895.87,-83.8194 1904.78,-78.0938 1894.24,-77.0106 1895.87,-83.8194"/>
</g>
<!-- Node14 -->
<g id="node14" class="node"><title>Node14</title>
<polygon fill="white" stroke="#bfbfbf" points="1353,-62 1353,-81 1403,-81 1403,-62 1353,-62"/>
<text text-anchor="middle" x="1378" y="-69" font-family="Helvetica,sans-Serif" font-size="10.00">atomic</text>
</g>
<!-- Node5&#45;&gt;Node14 -->
<g id="edge13" class="edge"><title>Node5&#45;&gt;Node14</title>
<path fill="none" stroke="midnightblue" d="M1216.08,-123.475C1249.48,-112.96 1306.33,-95.0632 1343.01,-83.5158"/>
<polygon fill="midnightblue" stroke="midnightblue" points="1344.3,-86.78 1352.78,-80.4386 1342.19,-80.1031 1344.3,-86.78"/>
</g>
<!-- Node8 -->
<g id="node8" class="node"><title>Node8</title>
<polygon fill="white" stroke="#bfbfbf" points="1654,-0.5 1654,-19.5 1744,-19.5 1744,-0.5 1654,-0.5"/>
<text text-anchor="middle" x="1699" y="-7.5" font-family="Helvetica,sans-Serif" font-size="10.00">dlpack/dlpack.h</text>
</g>
<!-- Node7&#45;&gt;Node8 -->
<g id="edge7" class="edge"><title>Node7&#45;&gt;Node8</title>
<path fill="none" stroke="midnightblue" d="M1767.67,-56.3993C1753.51,-47.0402 1734.99,-34.7924 1720.75,-25.3771"/>
<polygon fill="midnightblue" stroke="midnightblue" points="1722.37,-22.2531 1712.1,-19.6578 1718.51,-28.0923 1722.37,-22.2531"/>
</g>
<!-- Node9 -->
<g id="node9" class="node"><title>Node9</title>
<polygon fill="white" stroke="#bfbfbf" points="1762.5,-0.5 1762.5,-19.5 1815.5,-19.5 1815.5,-0.5 1762.5,-0.5"/>
<text text-anchor="middle" x="1789" y="-7.5" font-family="Helvetica,sans-Serif" font-size="10.00">stdint.h</text>
</g>
<!-- Node7&#45;&gt;Node9 -->
<g id="edge8" class="edge"><title>Node7&#45;&gt;Node9</title>
<path fill="none" stroke="midnightblue" d="M1789,-56.3993C1789,-48.4664 1789,-38.458 1789,-29.8583"/>
<polygon fill="midnightblue" stroke="midnightblue" points="1792.5,-29.6577 1789,-19.6578 1785.5,-29.6578 1792.5,-29.6577"/>
</g>
<!-- Node10 -->
<g id="node10" class="node"><title>Node10</title>
<polygon fill="white" stroke="#bfbfbf" points="1833.5,-0.5 1833.5,-19.5 1888.5,-19.5 1888.5,-0.5 1833.5,-0.5"/>
<text text-anchor="middle" x="1861" y="-7.5" font-family="Helvetica,sans-Serif" font-size="10.00">stddef.h</text>
</g>
<!-- Node7&#45;&gt;Node10 -->
<g id="edge9" class="edge"><title>Node7&#45;&gt;Node10</title>
<path fill="none" stroke="midnightblue" d="M1806.06,-56.3993C1817.06,-47.3076 1831.37,-35.4899 1842.62,-26.1909"/>
<polygon fill="midnightblue" stroke="midnightblue" points="1845.04,-28.726 1850.52,-19.6578 1840.59,-23.33 1845.04,-28.726"/>
</g>
<!-- Node15&#45;&gt;Node5 -->
<g id="edge16" class="edge"><title>Node15&#45;&gt;Node5</title>
<path fill="none" stroke="midnightblue" d="M892.246,-543.639C955.507,-537.65 1063.09,-516.817 1113,-445 1178.92,-350.15 1187.9,-204.354 1188.94,-152.827"/>
<polygon fill="midnightblue" stroke="midnightblue" points="1192.44,-152.612 1189.06,-142.571 1185.45,-152.528 1192.44,-152.612"/>
</g>
<!-- Node15&#45;&gt;Node7 -->
<g id="edge15" class="edge"><title>Node15&#45;&gt;Node7</title>
<path fill="none" stroke="midnightblue" d="M892.213,-546.785C1036.45,-547.838 1469.49,-542.078 1811,-445 1932.03,-410.595 1967.02,-399.69 2066,-322 2125.45,-275.339 2194.02,-245.437 2158,-179 2136.26,-138.903 2114.41,-139.786 2072,-123 2034.85,-108.294 1933.45,-92.2278 1862.72,-82.2561"/>
<polygon fill="midnightblue" stroke="midnightblue" points="1862.9,-78.7481 1852.51,-80.8299 1861.93,-85.6807 1862.9,-78.7481"/>
</g>
<!-- Node15&#45;&gt;Node11 -->
<g id="edge102" class="edge"><title>Node15&#45;&gt;Node11</title>
<path fill="none" stroke="midnightblue" d="M793.749,-543.482C720.144,-538.906 585.826,-527.166 546,-501 521.47,-484.884 519.72,-473.025 511,-445 468.029,-306.904 473.41,-240.31 558,-123 570.475,-105.7 590.858,-93.3556 608.649,-85.204"/>
<polygon fill="midnightblue" stroke="midnightblue" points="610.393,-88.2642 618.2,-81.1018 607.63,-81.8324 610.393,-88.2642"/>
</g>
<!-- Node15&#45;&gt;Node12 -->
<g id="edge99" class="edge"><title>Node15&#45;&gt;Node12</title>
<path fill="none" stroke="midnightblue" d="M793.688,-543.84C715.119,-539.624 565.811,-528.207 521,-501 382.119,-416.678 384.198,-346.002 315,-199 303.611,-174.806 299.813,-168.858 293,-143 288.477,-125.833 285.882,-105.74 284.475,-91.4073"/>
<polygon fill="midnightblue" stroke="midnightblue" points="287.949,-90.9679 283.587,-81.313 280.976,-91.5812 287.949,-90.9679"/>
</g>
<!-- Node15&#45;&gt;Node13 -->
<g id="edge101" class="edge"><title>Node15&#45;&gt;Node13</title>
<path fill="none" stroke="midnightblue" d="M892.34,-545.525C1111.41,-542.598 1995.31,-521.914 2224,-378 2286.29,-338.8 2324,-319.601 2324,-246 2324,-246 2324,-246 2324,-188 2324,-111.708 2050.86,-82.554 1957.13,-74.7958"/>
<polygon fill="midnightblue" stroke="midnightblue" points="1957.37,-71.3037 1947.12,-73.9927 1956.81,-78.2812 1957.37,-71.3037"/>
</g>
<!-- Node16 -->
<g id="node16" class="node"><title>Node16</title>
<g id="a_node16"><a xlink:href="runtime_2memory_8h.html" target="_top" xlink:title="Runtime memory management. ">
<polygon fill="white" stroke="black" points="957.5,-179.5 957.5,-198.5 1084.5,-198.5 1084.5,-179.5 957.5,-179.5"/>
<text text-anchor="middle" x="1021" y="-186.5" font-family="Helvetica,sans-Serif" font-size="10.00">tvm/runtime/memory.h</text>
</a>
</g>
</g>
<!-- Node15&#45;&gt;Node16 -->
<g id="edge17" class="edge"><title>Node15&#45;&gt;Node16</title>
<path fill="none" stroke="midnightblue" d="M793.939,-543.534C725.145,-539.149 604.651,-527.798 571,-501 478.309,-427.184 500.286,-313.551 589,-235 615.202,-211.8 830.586,-198.583 946.99,-193.071"/>
<polygon fill="midnightblue" stroke="midnightblue" points="947.425,-196.555 957.251,-192.593 947.099,-189.562 947.425,-196.555"/>
</g>
<!-- Node18 -->
<g id="node18" class="node"><title>Node18</title>
<g id="a_node18"><a xlink:href="reflection_8h.html" target="_top" xlink:title="Reflection and serialization of compiler IR/AST nodes. ">
<polygon fill="white" stroke="black" points="879.5,-481.5 879.5,-500.5 998.5,-500.5 998.5,-481.5 879.5,-481.5"/>
<text text-anchor="middle" x="939" y="-488.5" font-family="Helvetica,sans-Serif" font-size="10.00">tvm/node/reflection.h</text>
</a>
</g>
</g>
<!-- Node15&#45;&gt;Node18 -->
<g id="edge22" class="edge"><title>Node15&#45;&gt;Node18</title>
<path fill="none" stroke="midnightblue" d="M858.424,-537.324C873.54,-528.822 896.815,-515.729 914.471,-505.797"/>
<polygon fill="midnightblue" stroke="midnightblue" points="916.614,-508.608 923.614,-500.655 913.183,-502.507 916.614,-508.608"/>
</g>
<!-- Node15&#45;&gt;Node23 -->
<g id="edge100" class="edge"><title>Node15&#45;&gt;Node23</title>
<path fill="none" stroke="midnightblue" d="M892.249,-543.416C981.763,-538.303 1176.96,-525.237 1340,-501 1605.81,-461.486 1686.97,-488.34 1932,-378 2002.49,-346.257 2031.35,-328.606 2055,-255 2057.72,-246.537 2058.91,-242.983 2055,-235 2048.48,-221.684 2035.9,-211.177 2024.13,-203.676"/>
<polygon fill="midnightblue" stroke="midnightblue" points="2025.78,-200.589 2015.39,-198.529 2022.23,-206.621 2025.78,-200.589"/>
</g>
<!-- Node32 -->
<g id="node32" class="node"><title>Node32</title>
<g id="a_node32"><a xlink:href="structural__equal_8h.html" target="_top" xlink:title="Structural equality comparison. ">
<polygon fill="white" stroke="black" points="787.5,-414.5 787.5,-444.5 898.5,-444.5 898.5,-414.5 787.5,-414.5"/>
<text text-anchor="start" x="795.5" y="-432.5" font-family="Helvetica,sans-Serif" font-size="10.00">tvm/node/structural</text>
<text text-anchor="middle" x="843" y="-421.5" font-family="Helvetica,sans-Serif" font-size="10.00">_equal.h</text>
</a>
</g>
</g>
<!-- Node15&#45;&gt;Node32 -->
<g id="edge97" class="edge"><title>Node15&#45;&gt;Node32</title>
<path fill="none" stroke="midnightblue" d="M843,-537.319C843,-519.967 843,-480.457 843,-454.658"/>
<polygon fill="midnightblue" stroke="midnightblue" points="846.5,-454.545 843,-444.545 839.5,-454.545 846.5,-454.545"/>
</g>
<!-- Node15&#45;&gt;Node34 -->
<g id="edge96" class="edge"><title>Node15&#45;&gt;Node34</title>
<path fill="none" stroke="midnightblue" d="M892.194,-544.662C1007.53,-541.062 1288,-529.451 1319,-501 1350.51,-472.078 1349.16,-416.733 1345.89,-387.751"/>
<polygon fill="midnightblue" stroke="midnightblue" points="1349.34,-387.176 1344.55,-377.726 1342.4,-388.101 1349.34,-387.176"/>
</g>
<!-- Node36 -->
<g id="node36" class="node"><title>Node36</title>
<g id="a_node36"><a xlink:href="structural__hash_8h.html" target="_top" xlink:title="tvm/node/structural\l_hash.h">
<polygon fill="white" stroke="black" points="993.5,-414.5 993.5,-444.5 1104.5,-444.5 1104.5,-414.5 993.5,-414.5"/>
<text text-anchor="start" x="1001.5" y="-432.5" font-family="Helvetica,sans-Serif" font-size="10.00">tvm/node/structural</text>
<text text-anchor="middle" x="1049" y="-421.5" font-family="Helvetica,sans-Serif" font-size="10.00">_hash.h</text>
</a>
</g>
</g>
<!-- Node15&#45;&gt;Node36 -->
<g id="edge98" class="edge"><title>Node15&#45;&gt;Node36</title>
<path fill="none" stroke="midnightblue" d="M892.126,-542.233C927.16,-537.384 973.758,-526.305 1007,-501 1022.62,-489.107 1033.6,-469.588 1040.4,-454.1"/>
<polygon fill="midnightblue" stroke="midnightblue" points="1043.73,-455.206 1044.27,-444.625 1037.25,-452.556 1043.73,-455.206"/>
</g>
<!-- Node37 -->
<g id="node37" class="node"><title>Node37</title>
<g id="a_node37"><a xlink:href="repr__printer_8h.html" target="_top" xlink:title="Printer class to print repr string of each AST/IR nodes. ">
<polygon fill="white" stroke="black" points="580,-481.5 580,-500.5 710,-500.5 710,-481.5 580,-481.5"/>
<text text-anchor="middle" x="645" y="-488.5" font-family="Helvetica,sans-Serif" font-size="10.00">tvm/node/repr_printer.h</text>
</a>
</g>
</g>
<!-- Node15&#45;&gt;Node37 -->
<g id="edge93" class="edge"><title>Node15&#45;&gt;Node37</title>
<path fill="none" stroke="midnightblue" d="M811.626,-537.444C777.737,-528.201 723.597,-513.436 686.276,-503.257"/>
<polygon fill="midnightblue" stroke="midnightblue" points="686.795,-499.771 676.227,-500.516 684.954,-506.524 686.795,-499.771"/>
</g>
<!-- Node16&#45;&gt;Node5 -->
<g id="edge18" class="edge"><title>Node16&#45;&gt;Node5</title>
<path fill="none" stroke="midnightblue" d="M1047.62,-179.444C1076.01,-170.32 1121.14,-155.813 1152.75,-145.651"/>
<polygon fill="midnightblue" stroke="midnightblue" points="1154.06,-148.909 1162.5,-142.516 1151.91,-142.244 1154.06,-148.909"/>
</g>
<!-- Node16&#45;&gt;Node11 -->
<g id="edge21" class="edge"><title>Node16&#45;&gt;Node11</title>
<path fill="none" stroke="midnightblue" d="M1003.37,-179.345C975.151,-165.772 917.835,-139.342 867,-123 806.171,-103.445 733.676,-88.516 688.232,-80.1268"/>
<polygon fill="midnightblue" stroke="midnightblue" points="688.589,-76.6342 678.124,-78.2863 687.335,-83.521 688.589,-76.6342"/>
</g>
<!-- Node16&#45;&gt;Node13 -->
<g id="edge20" class="edge"><title>Node16&#45;&gt;Node13</title>
<path fill="none" stroke="midnightblue" d="M1030.31,-179.446C1047,-164.727 1083.76,-135.031 1121,-123 1277.67,-72.3848 1697.84,-109.003 1861,-87 1872.2,-85.4894 1884.33,-83.0181 1895.04,-80.5401"/>
<polygon fill="midnightblue" stroke="midnightblue" points="1895.89,-83.9346 1904.79,-78.1933 1894.25,-77.1287 1895.89,-83.9346"/>
</g>
<!-- Node17 -->
<g id="node17" class="node"><title>Node17</title>
<polygon fill="white" stroke="#bfbfbf" points="997.5,-123.5 997.5,-142.5 1044.5,-142.5 1044.5,-123.5 997.5,-123.5"/>
<text text-anchor="middle" x="1021" y="-130.5" font-family="Helvetica,sans-Serif" font-size="10.00">cstdlib</text>
</g>
<!-- Node16&#45;&gt;Node17 -->
<g id="edge19" class="edge"><title>Node16&#45;&gt;Node17</title>
<path fill="none" stroke="midnightblue" d="M1021,-179.083C1021,-172.006 1021,-161.861 1021,-152.986"/>
<polygon fill="midnightblue" stroke="midnightblue" points="1024.5,-152.751 1021,-142.751 1017.5,-152.751 1024.5,-152.751"/>
</g>
<!-- Node18&#45;&gt;Node5 -->
<g id="edge24" class="edge"><title>Node18&#45;&gt;Node5</title>
<path fill="none" stroke="midnightblue" d="M943.55,-481.277C951.215,-466.837 967.488,-437.255 984,-414 1037.5,-338.648 1064.65,-330.458 1118,-255 1142.85,-219.849 1167.23,-175.557 1179.95,-151.502"/>
<polygon fill="midnightblue" stroke="midnightblue" points="1183.11,-153.001 1184.65,-142.518 1176.91,-149.756 1183.11,-153.001"/>
</g>
<!-- Node18&#45;&gt;Node7 -->
<g id="edge23" class="edge"><title>Node18&#45;&gt;Node7</title>
<path fill="none" stroke="midnightblue" d="M998.573,-487.703C1186.06,-479.788 1761.63,-450.071 1932,-378 2018.55,-341.385 2039.21,-323.077 2104,-255 2129.77,-227.926 2162.26,-209.021 2140,-179 2106.83,-134.275 1955.19,-100.957 1862.41,-84.3317"/>
<polygon fill="midnightblue" stroke="midnightblue" points="1862.97,-80.8762 1852.51,-82.5812 1861.75,-87.7692 1862.97,-80.8762"/>
</g>
<!-- Node18&#45;&gt;Node11 -->
<g id="edge92" class="edge"><title>Node18&#45;&gt;Node11</title>
<path fill="none" stroke="midnightblue" d="M879.178,-482.285C845.355,-475.975 803.304,-464.735 770,-445 669.665,-385.544 654.652,-351.395 589,-255 555.703,-206.111 540.618,-173.14 572,-123 582.129,-106.816 599.542,-94.3937 614.706,-85.9193"/>
<polygon fill="midnightblue" stroke="midnightblue" points="616.548,-88.9052 623.772,-81.1547 613.292,-82.7088 616.548,-88.9052"/>
</g>
<!-- Node18&#45;&gt;Node12 -->
<g id="edge91" class="edge"><title>Node18&#45;&gt;Node12</title>
<path fill="none" stroke="midnightblue" d="M879.163,-482.49C834.404,-475.734 772.186,-463.909 720,-445 552.118,-384.17 488.044,-385.345 366,-255 320.062,-205.937 296.201,-127.053 287.25,-91.2519"/>
<polygon fill="midnightblue" stroke="midnightblue" points="290.585,-90.1482 284.858,-81.2344 283.776,-91.7738 290.585,-90.1482"/>
</g>
<!-- Node18&#45;&gt;Node16 -->
<g id="edge25" class="edge"><title>Node18&#45;&gt;Node16</title>
<path fill="none" stroke="midnightblue" d="M882.04,-481.487C841.026,-474.057 790.763,-461.82 778,-445 769.671,-434.024 775.157,-427.481 778,-414 795.942,-328.912 791.138,-291.781 857,-235 882.021,-213.429 916.499,-202.118 947.388,-196.219"/>
<polygon fill="midnightblue" stroke="midnightblue" points="948.028,-199.66 957.274,-194.487 946.82,-192.765 948.028,-199.66"/>
</g>
<!-- Node18&#45;&gt;Node19 -->
<g id="edge26" class="edge"><title>Node18&#45;&gt;Node19</title>
<path fill="none" stroke="midnightblue" d="M973.812,-481.412C1031.7,-467.168 1151.44,-437.859 1253,-414 1323.11,-397.528 1345.35,-407.619 1411,-378 1438.96,-365.386 1466.98,-344.155 1485.85,-328.281"/>
<polygon fill="midnightblue" stroke="midnightblue" points="1488.29,-330.8 1493.6,-321.631 1483.73,-325.488 1488.29,-330.8"/>
</g>
<!-- Node18&#45;&gt;Node23 -->
<g id="edge90" class="edge"><title>Node18&#45;&gt;Node23</title>
<path fill="none" stroke="midnightblue" d="M998.515,-484.626C1068.79,-477.766 1189.02,-464.413 1291,-445 1627.53,-380.938 1827.73,-525.447 2038,-255 2050.62,-238.765 2033.18,-218.517 2017.31,-204.973"/>
<polygon fill="midnightblue" stroke="midnightblue" points="2019.3,-202.088 2009.31,-198.559 2014.92,-207.548 2019.3,-202.088"/>
</g>
<!-- Node25 -->
<g id="node25" class="node"><title>Node25</title>
<g id="a_node25"><a xlink:href="ndarray_8h.html" target="_top" xlink:title="A device&#45;independent managed NDArray abstraction. ">
<polygon fill="white" stroke="black" points="1634.5,-235.5 1634.5,-254.5 1757.5,-254.5 1757.5,-235.5 1634.5,-235.5"/>
<text text-anchor="middle" x="1696" y="-242.5" font-family="Helvetica,sans-Serif" font-size="10.00">tvm/runtime/ndarray.h</text>
</a>
</g>
</g>
<!-- Node18&#45;&gt;Node25 -->
<g id="edge63" class="edge"><title>Node18&#45;&gt;Node25</title>
<path fill="none" stroke="midnightblue" d="M998.627,-483.147C1114.99,-467.902 1378.08,-424.135 1574,-322 1610.73,-302.855 1651.11,-276.59 1674.97,-260.484"/>
<polygon fill="midnightblue" stroke="midnightblue" points="1677.25,-263.165 1683.55,-254.648 1673.32,-257.377 1677.25,-263.165"/>
</g>
<!-- Node28 -->
<g id="node28" class="node"><title>Node28</title>
<g id="a_node28"><a xlink:href="data__type_8h.html" target="_top" xlink:title="tvm/runtime/data_type.h">
<polygon fill="white" stroke="black" points="598,-235.5 598,-254.5 734,-254.5 734,-235.5 598,-235.5"/>
<text text-anchor="middle" x="666" y="-242.5" font-family="Helvetica,sans-Serif" font-size="10.00">tvm/runtime/data_type.h</text>
</a>
</g>
</g>
<!-- Node18&#45;&gt;Node28 -->
<g id="edge64" class="edge"><title>Node18&#45;&gt;Node28</title>
<path fill="none" stroke="midnightblue" d="M936.952,-481.237C933.106,-466.219 923.656,-435.142 907,-414 847.377,-338.316 744.519,-282.85 694.699,-258.974"/>
<polygon fill="midnightblue" stroke="midnightblue" points="696.008,-255.722 685.47,-254.624 693.023,-262.054 696.008,-255.722"/>
</g>
<!-- Node18&#45;&gt;Node32 -->
<g id="edge65" class="edge"><title>Node18&#45;&gt;Node32</title>
<path fill="none" stroke="midnightblue" d="M925.246,-481.475C912.001,-473.266 891.497,-460.558 874.276,-449.885"/>
<polygon fill="midnightblue" stroke="midnightblue" points="875.969,-446.816 865.625,-444.523 872.281,-452.766 875.969,-446.816"/>
</g>
<!-- Node18&#45;&gt;Node36 -->
<g id="edge84" class="edge"><title>Node18&#45;&gt;Node36</title>
<path fill="none" stroke="midnightblue" d="M954.76,-481.475C970.215,-473.115 994.295,-460.09 1014.25,-449.299"/>
<polygon fill="midnightblue" stroke="midnightblue" points="1015.94,-452.359 1023.08,-444.523 1012.61,-446.202 1015.94,-452.359"/>
</g>
<!-- Node19&#45;&gt;Node5 -->
<g id="edge54" class="edge"><title>Node19&#45;&gt;Node5</title>
<path fill="none" stroke="midnightblue" d="M1452.5,-299.229C1411.78,-292.786 1356.71,-279.993 1314,-255 1273.58,-231.344 1274.97,-211.247 1241,-179 1230.18,-168.725 1217.53,-157.755 1207.41,-149.219"/>
<polygon fill="midnightblue" stroke="midnightblue" points="1209.52,-146.423 1199.61,-142.69 1205.03,-151.791 1209.52,-146.423"/>
</g>
<!-- Node19&#45;&gt;Node6 -->
<g id="edge27" class="edge"><title>Node19&#45;&gt;Node6</title>
<path fill="none" stroke="midnightblue" d="M1452.31,-297.345C1419.13,-290.376 1377.84,-277.708 1347,-255 1289.62,-212.749 1314.44,-163.767 1256,-123 1213.33,-93.2354 1154.51,-81.0044 1112.28,-75.9838"/>
<polygon fill="midnightblue" stroke="midnightblue" points="1112.51,-72.4881 1102.18,-74.8831 1111.75,-79.4468 1112.51,-72.4881"/>
</g>
<!-- Node19&#45;&gt;Node7 -->
<g id="edge28" class="edge"><title>Node19&#45;&gt;Node7</title>
<path fill="none" stroke="midnightblue" d="M1565.59,-297.278C1636.5,-286.534 1750.65,-267.608 1766,-255 1813.18,-216.255 1812.78,-183.414 1804,-123 1802.72,-114.218 1800.26,-104.838 1797.69,-96.5755"/>
<polygon fill="midnightblue" stroke="midnightblue" points="1800.93,-95.2281 1794.47,-86.836 1794.29,-97.4293 1800.93,-95.2281"/>
</g>
<!-- Node19&#45;&gt;Node11 -->
<g id="edge62" class="edge"><title>Node19&#45;&gt;Node11</title>
<path fill="none" stroke="midnightblue" d="M1452.44,-298.247C1432.7,-295.812 1410.39,-293.166 1390,-291 1213.82,-272.283 1163.86,-301.845 993,-255 989.513,-254.044 761.174,-144.731 758,-143 724.782,-124.883 687.772,-101.339 665.187,-86.5712"/>
<polygon fill="midnightblue" stroke="midnightblue" points="666.999,-83.5741 656.721,-81.0039 663.153,-89.4228 666.999,-83.5741"/>
</g>
<!-- Node19&#45;&gt;Node12 -->
<g id="edge58" class="edge"><title>Node19&#45;&gt;Node12</title>
<path fill="none" stroke="midnightblue" d="M1452.45,-298.145C1432.71,-295.701 1410.39,-293.076 1390,-291 1194.8,-271.13 1136.66,-315.462 950,-255 933.685,-249.715 932.81,-241.645 917,-235 902.561,-228.931 442.433,-112.708 315.275,-80.6361"/>
<polygon fill="midnightblue" stroke="midnightblue" points="315.91,-77.1867 305.358,-78.1351 314.198,-83.9742 315.91,-77.1867"/>
</g>
<!-- Node19&#45;&gt;Node13 -->
<g id="edge61" class="edge"><title>Node19&#45;&gt;Node13</title>
<path fill="none" stroke="midnightblue" d="M1565.74,-297.447C1642.19,-286.271 1770.95,-266.175 1790,-255 1857.29,-215.529 1901.68,-128.388 1918.47,-90.585"/>
<polygon fill="midnightblue" stroke="midnightblue" points="1921.72,-91.8801 1922.47,-81.3116 1915.3,-89.1082 1921.72,-91.8801"/>
</g>
<!-- Node20 -->
<g id="node20" class="node"><title>Node20</title>
<g id="a_node20"><a xlink:href="runtime_2module_8h.html" target="_top" xlink:title="Runtime container of the functions generated by TVM, This is used to support dynamically link...">
<polygon fill="white" stroke="black" points="1454,-235.5 1454,-254.5 1578,-254.5 1578,-235.5 1454,-235.5"/>
<text text-anchor="middle" x="1516" y="-242.5" font-family="Helvetica,sans-Serif" font-size="10.00">tvm/runtime/module.h</text>
</a>
</g>
</g>
<!-- Node19&#45;&gt;Node20 -->
<g id="edge29" class="edge"><title>Node19&#45;&gt;Node20</title>
<path fill="none" stroke="midnightblue" d="M1504.82,-291.399C1504.73,-283.377 1505.77,-273.233 1507.51,-264.569"/>
<polygon fill="midnightblue" stroke="midnightblue" points="1510.96,-265.214 1510.05,-254.658 1504.18,-263.474 1510.96,-265.214"/>
</g>
<!-- Node22 -->
<g id="node22" class="node"><title>Node22</title>
<polygon fill="white" stroke="#bfbfbf" points="1445.5,-179.5 1445.5,-198.5 1502.5,-198.5 1502.5,-179.5 1445.5,-179.5"/>
<text text-anchor="middle" x="1474" y="-186.5" font-family="Helvetica,sans-Serif" font-size="10.00">memory</text>
</g>
<!-- Node19&#45;&gt;Node22 -->
<g id="edge60" class="edge"><title>Node19&#45;&gt;Node22</title>
<path fill="none" stroke="midnightblue" d="M1544.87,-291.417C1572.15,-278.511 1602.57,-257.963 1587,-235 1578.23,-222.063 1541.81,-209.04 1512.66,-200.356"/>
<polygon fill="midnightblue" stroke="midnightblue" points="1513.28,-196.894 1502.7,-197.473 1511.34,-203.618 1513.28,-196.894"/>
</g>
<!-- Node19&#45;&gt;Node23 -->
<g id="edge57" class="edge"><title>Node19&#45;&gt;Node23</title>
<path fill="none" stroke="midnightblue" d="M1565.77,-300.998C1632.05,-294.779 1744.53,-281.227 1838,-255 1860.25,-248.757 1864.62,-243.786 1886,-235 1913.14,-223.844 1944.09,-211.314 1966.4,-202.314"/>
<polygon fill="midnightblue" stroke="midnightblue" points="1967.73,-205.551 1975.7,-198.566 1965.11,-199.059 1967.73,-205.551"/>
</g>
<!-- Node19&#45;&gt;Node25 -->
<g id="edge39" class="edge"><title>Node19&#45;&gt;Node25</title>
<path fill="none" stroke="midnightblue" d="M1553.32,-291.399C1585.63,-281.118 1628.9,-267.351 1659.29,-257.682"/>
<polygon fill="midnightblue" stroke="midnightblue" points="1660.59,-260.938 1669.06,-254.571 1658.47,-254.268 1660.59,-260.938"/>
</g>
<!-- Node19&#45;&gt;Node28 -->
<g id="edge50" class="edge"><title>Node19&#45;&gt;Node28</title>
<path fill="none" stroke="midnightblue" d="M1452.48,-297.919C1432.74,-295.456 1410.41,-292.876 1390,-291 1266.6,-279.657 905.045,-259.159 744.437,-250.286"/>
<polygon fill="midnightblue" stroke="midnightblue" points="744.331,-246.775 734.154,-249.719 743.946,-253.764 744.331,-246.775"/>
</g>
<!-- Node19&#45;&gt;Node29 -->
<g id="edge55" class="edge"><title>Node19&#45;&gt;Node29</title>
<path fill="none" stroke="midnightblue" d="M1565.57,-298.616C1664.86,-286.535 1868.28,-261.784 1956.1,-251.099"/>
<polygon fill="midnightblue" stroke="midnightblue" points="1956.72,-254.549 1966.22,-249.867 1955.87,-247.601 1956.72,-254.549"/>
</g>
<!-- Node30 -->
<g id="node30" class="node"><title>Node30</title>
<polygon fill="white" stroke="#bfbfbf" points="1356.5,-235.5 1356.5,-254.5 1397.5,-254.5 1397.5,-235.5 1356.5,-235.5"/>
<text text-anchor="middle" x="1377" y="-242.5" font-family="Helvetica,sans-Serif" font-size="10.00">tuple</text>
</g>
<!-- Node19&#45;&gt;Node30 -->
<g id="edge56" class="edge"><title>Node19&#45;&gt;Node30</title>
<path fill="none" stroke="midnightblue" d="M1477.72,-291.399C1455.77,-281.505 1426.66,-268.383 1405.38,-258.792"/>
<polygon fill="midnightblue" stroke="midnightblue" points="1406.76,-255.576 1396.21,-254.658 1403.89,-261.958 1406.76,-255.576"/>
</g>
<!-- Node19&#45;&gt;Node31 -->
<g id="edge59" class="edge"><title>Node19&#45;&gt;Node31</title>
<path fill="none" stroke="midnightblue" d="M1452.46,-298.089C1432.72,-295.64 1410.4,-293.026 1390,-291 1182.41,-270.379 1127.81,-289.107 922,-255 920.747,-254.792 919.472,-254.561 918.189,-254.311"/>
<polygon fill="midnightblue" stroke="midnightblue" points="918.866,-250.877 908.345,-252.12 917.345,-257.71 918.866,-250.877"/>
</g>
<!-- Node20&#45;&gt;Node5 -->
<g id="edge32" class="edge"><title>Node20&#45;&gt;Node5</title>
<path fill="none" stroke="midnightblue" d="M1490.61,-235.46C1432.66,-215.966 1290.55,-168.159 1224.19,-145.839"/>
<polygon fill="midnightblue" stroke="midnightblue" points="1225.19,-142.481 1214.6,-142.61 1222.96,-149.116 1225.19,-142.481"/>
</g>
<!-- Node20&#45;&gt;Node7 -->
<g id="edge31" class="edge"><title>Node20&#45;&gt;Node7</title>
<path fill="none" stroke="midnightblue" d="M1578.11,-237.798C1634.47,-231.033 1712.28,-218.493 1736,-199 1767.32,-173.261 1780.42,-125.809 1785.69,-96.9075"/>
<polygon fill="midnightblue" stroke="midnightblue" points="1789.18,-97.2579 1787.34,-86.823 1782.27,-96.1241 1789.18,-97.2579"/>
</g>
<!-- Node20&#45;&gt;Node12 -->
<g id="edge36" class="edge"><title>Node20&#45;&gt;Node12</title>
<path fill="none" stroke="midnightblue" d="M1453.76,-238.873C1438.16,-237.598 1421.47,-236.241 1406,-235 1202.47,-218.675 1150.28,-226.819 948,-199 775.213,-175.237 734.383,-155.369 563,-123 473.317,-106.062 367.231,-87.267 315.139,-78.1192"/>
<polygon fill="midnightblue" stroke="midnightblue" points="315.619,-74.65 305.164,-76.3697 314.409,-81.5448 315.619,-74.65"/>
</g>
<!-- Node20&#45;&gt;Node16 -->
<g id="edge33" class="edge"><title>Node20&#45;&gt;Node16</title>
<path fill="none" stroke="midnightblue" d="M1453.81,-237.216C1362.52,-227.257 1192.54,-208.714 1094.97,-198.07"/>
<polygon fill="midnightblue" stroke="midnightblue" points="1095.21,-194.575 1084.89,-196.97 1094.45,-201.534 1095.21,-194.575"/>
</g>
<!-- Node20&#45;&gt;Node19 -->
<g id="edge38" class="edge"><title>Node20&#45;&gt;Node19</title>
<path fill="none" stroke="midnightblue" d="M1519.91,-254.658C1520.59,-261.655 1519.96,-271.857 1518.49,-281.289"/>
<polygon fill="midnightblue" stroke="midnightblue" points="1515,-280.911 1516.5,-291.399 1521.87,-282.266 1515,-280.911"/>
</g>
<!-- Node21 -->
<g id="node21" class="node"><title>Node21</title>
<polygon fill="white" stroke="#bfbfbf" points="1433,-123.5 1433,-142.5 1493,-142.5 1493,-123.5 1433,-123.5"/>
<text text-anchor="middle" x="1463" y="-130.5" font-family="Helvetica,sans-Serif" font-size="10.00">dmlc/io.h</text>
</g>
<!-- Node20&#45;&gt;Node21 -->
<g id="edge30" class="edge"><title>Node20&#45;&gt;Node21</title>
<path fill="none" stroke="midnightblue" d="M1485.75,-235.488C1467.87,-228.726 1446.7,-217.295 1436,-199 1426.89,-183.425 1437.27,-164.193 1447.69,-150.704"/>
<polygon fill="midnightblue" stroke="midnightblue" points="1450.6,-152.679 1454.34,-142.765 1445.23,-148.185 1450.6,-152.679"/>
</g>
<!-- Node20&#45;&gt;Node22 -->
<g id="edge34" class="edge"><title>Node20&#45;&gt;Node22</title>
<path fill="none" stroke="midnightblue" d="M1509.06,-235.083C1503.07,-227.377 1494.25,-216.033 1486.95,-206.653"/>
<polygon fill="midnightblue" stroke="midnightblue" points="1489.71,-204.496 1480.81,-198.751 1484.18,-208.793 1489.71,-204.496"/>
</g>
<!-- Node20&#45;&gt;Node23 -->
<g id="edge35" class="edge"><title>Node20&#45;&gt;Node23</title>
<path fill="none" stroke="midnightblue" d="M1578.39,-236.996C1681.41,-225.43 1883.65,-202.726 1963.46,-193.765"/>
<polygon fill="midnightblue" stroke="midnightblue" points="1963.9,-197.238 1973.45,-192.644 1963.12,-190.281 1963.9,-197.238"/>
</g>
<!-- Node20&#45;&gt;Node24 -->
<g id="edge37" class="edge"><title>Node20&#45;&gt;Node24</title>
<path fill="none" stroke="midnightblue" d="M1578.22,-238.795C1698.38,-228.708 1956.17,-206.887 2028.06,-198.956"/>
<polygon fill="midnightblue" stroke="midnightblue" points="2028.76,-202.399 2038.28,-197.765 2027.95,-195.446 2028.76,-202.399"/>
</g>
<!-- Node25&#45;&gt;Node5 -->
<g id="edge41" class="edge"><title>Node25&#45;&gt;Node5</title>
<path fill="none" stroke="midnightblue" d="M1665.66,-235.443C1636.86,-227.057 1592.52,-213.459 1555,-199 1534.96,-191.277 1531.63,-184.993 1511,-179 1425.85,-154.261 1323.95,-142.939 1257.92,-137.883"/>
<polygon fill="midnightblue" stroke="midnightblue" points="1257.87,-134.369 1247.64,-137.124 1257.35,-141.35 1257.87,-134.369"/>
</g>
<!-- Node25&#45;&gt;Node7 -->
<g id="edge40" class="edge"><title>Node25&#45;&gt;Node7</title>
<path fill="none" stroke="midnightblue" d="M1719.91,-235.493C1736.4,-228.348 1757.36,-216.471 1769,-199 1789.47,-168.26 1791.8,-124.151 1790.91,-96.9656"/>
<polygon fill="midnightblue" stroke="midnightblue" points="1794.39,-96.5834 1790.39,-86.772 1787.4,-96.9352 1794.39,-96.5834"/>
</g>
<!-- Node25&#45;&gt;Node13 -->
<g id="edge49" class="edge"><title>Node25&#45;&gt;Node13</title>
<path fill="none" stroke="midnightblue" d="M1718.42,-235.355C1737.91,-227.338 1766.47,-214.352 1789,-199 1838.49,-165.28 1887.99,-114.242 1911.64,-88.5198"/>
<polygon fill="midnightblue" stroke="midnightblue" points="1914.24,-90.8641 1918.38,-81.1119 1909.07,-86.1534 1914.24,-90.8641"/>
</g>
<!-- Node25&#45;&gt;Node14 -->
<g id="edge47" class="edge"><title>Node25&#45;&gt;Node14</title>
<path fill="none" stroke="midnightblue" d="M1668.62,-235.403C1646.03,-227.668 1613.65,-215.058 1588,-199 1544.76,-171.937 1545.35,-149.889 1502,-123 1473.93,-105.584 1438.8,-91.9399 1413.11,-83.2482"/>
<polygon fill="midnightblue" stroke="midnightblue" points="1414.01,-79.8594 1403.42,-80.0514 1411.82,-86.5072 1414.01,-79.8594"/>
</g>
<!-- Node25&#45;&gt;Node23 -->
<g id="edge48" class="edge"><title>Node25&#45;&gt;Node23</title>
<path fill="none" stroke="midnightblue" d="M1743.69,-235.444C1804.93,-224.459 1909.65,-205.672 1963.24,-196.057"/>
<polygon fill="midnightblue" stroke="midnightblue" points="1964.02,-199.473 1973.25,-194.262 1962.78,-192.583 1964.02,-199.473"/>
</g>
<!-- Node26 -->
<g id="node26" class="node"><title>Node26</title>
<g id="a_node26"><a xlink:href="serializer_8h.html" target="_top" xlink:title="Serializer extension to support TVM data types Include this file to enable serialization of DLDataTyp...">
<polygon fill="white" stroke="black" points="1597,-179.5 1597,-198.5 1727,-198.5 1727,-179.5 1597,-179.5"/>
<text text-anchor="middle" x="1662" y="-186.5" font-family="Helvetica,sans-Serif" font-size="10.00">tvm/runtime/serializer.h</text>
</a>
</g>
</g>
<!-- Node25&#45;&gt;Node26 -->
<g id="edge42" class="edge"><title>Node25&#45;&gt;Node26</title>
<path fill="none" stroke="midnightblue" d="M1685.22,-235.083C1679.01,-227.691 1671.84,-216.953 1666.82,-207.811"/>
<polygon fill="midnightblue" stroke="midnightblue" points="1669.93,-206.187 1662.38,-198.751 1663.64,-209.27 1669.93,-206.187"/>
</g>
<!-- Node26&#45;&gt;Node7 -->
<g id="edge45" class="edge"><title>Node26&#45;&gt;Node7</title>
<path fill="none" stroke="midnightblue" d="M1671.55,-179.319C1691.48,-161.192 1738,-118.885 1766.14,-93.2879"/>
<polygon fill="midnightblue" stroke="midnightblue" points="1768.51,-95.8628 1773.56,-86.5453 1763.8,-90.6842 1768.51,-95.8628"/>
</g>
<!-- Node26&#45;&gt;Node21 -->
<g id="edge43" class="edge"><title>Node26&#45;&gt;Node21</title>
<path fill="none" stroke="midnightblue" d="M1630.47,-179.444C1596.01,-170.092 1540.71,-155.087 1503.17,-144.9"/>
<polygon fill="midnightblue" stroke="midnightblue" points="1503.65,-141.404 1493.08,-142.163 1501.82,-148.16 1503.65,-141.404"/>
</g>
<!-- Node26&#45;&gt;Node25 -->
<g id="edge46" class="edge"><title>Node26&#45;&gt;Node25</title>
<path fill="none" stroke="midnightblue" d="M1672.64,-198.751C1678.84,-206.092 1686.02,-216.817 1691.06,-225.983"/>
<polygon fill="midnightblue" stroke="midnightblue" points="1687.99,-227.664 1695.55,-235.083 1694.27,-224.566 1687.99,-227.664"/>
</g>
<!-- Node27 -->
<g id="node27" class="node"><title>Node27</title>
<polygon fill="white" stroke="#bfbfbf" points="1595,-123.5 1595,-142.5 1689,-142.5 1689,-123.5 1595,-123.5"/>
<text text-anchor="middle" x="1642" y="-130.5" font-family="Helvetica,sans-Serif" font-size="10.00">dmlc/serializer.h</text>
</g>
<!-- Node26&#45;&gt;Node27 -->
<g id="edge44" class="edge"><title>Node26&#45;&gt;Node27</title>
<path fill="none" stroke="midnightblue" d="M1658.7,-179.083C1656.02,-171.849 1652.15,-161.409 1648.81,-152.397"/>
<polygon fill="midnightblue" stroke="midnightblue" points="1652,-150.913 1645.24,-142.751 1645.43,-153.344 1652,-150.913"/>
</g>
<!-- Node28&#45;&gt;Node6 -->
<g id="edge52" class="edge"><title>Node28&#45;&gt;Node6</title>
<path fill="none" stroke="midnightblue" d="M672.796,-235.263C690.913,-212.64 742.962,-151.902 801,-123 866.634,-90.3157 951.491,-78.7656 1005.6,-74.6958"/>
<polygon fill="midnightblue" stroke="midnightblue" points="1005.93,-78.1814 1015.66,-73.9985 1005.45,-71.1981 1005.93,-78.1814"/>
</g>
<!-- Node28&#45;&gt;Node7 -->
<g id="edge51" class="edge"><title>Node28&#45;&gt;Node7</title>
<path fill="none" stroke="midnightblue" d="M683.246,-235.414C730.541,-212.339 866.836,-148.978 988,-123 1057.91,-108.011 1530.59,-84.5962 1715.27,-75.9005"/>
<polygon fill="midnightblue" stroke="midnightblue" points="1715.61,-79.3887 1725.43,-75.4233 1715.28,-72.3964 1715.61,-79.3887"/>
</g>
<!-- Node28&#45;&gt;Node11 -->
<g id="edge53" class="edge"><title>Node28&#45;&gt;Node11</title>
<path fill="none" stroke="midnightblue" d="M626.745,-235.475C607.004,-228.99 584.816,-217.843 573,-199 548.402,-159.772 595.755,-111.644 624.399,-87.6321"/>
<polygon fill="midnightblue" stroke="midnightblue" points="626.692,-90.2791 632.248,-81.258 622.279,-84.8453 626.692,-90.2791"/>
</g>
<!-- Node32&#45;&gt;Node12 -->
<g id="edge83" class="edge"><title>Node32&#45;&gt;Node12</title>
<path fill="none" stroke="midnightblue" d="M802.949,-414.402C752.691,-396.035 664.535,-361.557 594,-322 511.715,-275.853 494.357,-258.322 421,-199 374.708,-161.565 324.009,-112.936 298.91,-88.2982"/>
<polygon fill="midnightblue" stroke="midnightblue" points="301.277,-85.7162 291.699,-81.1865 296.361,-90.7003 301.277,-85.7162"/>
</g>
<!-- Node32&#45;&gt;Node28 -->
<g id="edge66" class="edge"><title>Node32&#45;&gt;Node28</title>
<path fill="none" stroke="midnightblue" d="M829.405,-414.483C797.18,-381.256 716.283,-297.846 681.881,-262.375"/>
<polygon fill="midnightblue" stroke="midnightblue" points="684.028,-259.56 674.553,-254.819 679.003,-264.434 684.028,-259.56"/>
</g>
<!-- Node33 -->
<g id="node33" class="node"><title>Node33</title>
<g id="a_node33"><a xlink:href="functor_8h.html" target="_top" xlink:title="Defines the Functor data structures. ">
<polygon fill="white" stroke="black" points="1002.5,-235.5 1002.5,-254.5 1109.5,-254.5 1109.5,-235.5 1002.5,-235.5"/>
<text text-anchor="middle" x="1056" y="-242.5" font-family="Helvetica,sans-Serif" font-size="10.00">tvm/node/functor.h</text>
</a>
</g>
</g>
<!-- Node32&#45;&gt;Node33 -->
<g id="edge67" class="edge"><title>Node32&#45;&gt;Node33</title>
<path fill="none" stroke="midnightblue" d="M859.36,-414.483C898.467,-380.975 997.137,-296.434 1037.92,-261.487"/>
<polygon fill="midnightblue" stroke="midnightblue" points="1040.39,-263.983 1045.71,-254.819 1035.84,-258.667 1040.39,-263.983"/>
</g>
<!-- Node32&#45;&gt;Node34 -->
<g id="edge73" class="edge"><title>Node32&#45;&gt;Node34</title>
<path fill="none" stroke="midnightblue" d="M898.901,-421.848C990.674,-410.927 1173.06,-389.223 1273.18,-377.308"/>
<polygon fill="midnightblue" stroke="midnightblue" points="1273.69,-380.773 1283.2,-376.116 1272.86,-373.822 1273.69,-380.773"/>
</g>
<!-- Node33&#45;&gt;Node5 -->
<g id="edge69" class="edge"><title>Node33&#45;&gt;Node5</title>
<path fill="none" stroke="midnightblue" d="M1066.44,-235.368C1088.97,-216.733 1142.41,-172.532 1170.7,-149.134"/>
<polygon fill="midnightblue" stroke="midnightblue" points="1173.14,-151.662 1178.61,-142.591 1168.68,-146.268 1173.14,-151.662"/>
</g>
<!-- Node33&#45;&gt;Node6 -->
<g id="edge68" class="edge"><title>Node33&#45;&gt;Node6</title>
<path fill="none" stroke="midnightblue" d="M1004.47,-235.44C983.267,-229.104 960.732,-218.098 948,-199 917.928,-153.892 989.759,-107.718 1031.57,-85.7202"/>
<polygon fill="midnightblue" stroke="midnightblue" points="1033.43,-88.7027 1040.74,-81.0315 1030.24,-82.4712 1033.43,-88.7027"/>
</g>
<!-- Node33&#45;&gt;Node11 -->
<g id="edge71" class="edge"><title>Node33&#45;&gt;Node11</title>
<path fill="none" stroke="midnightblue" d="M1032.82,-235.49C1008.95,-226.646 970.711,-212.268 938,-199 839.801,-159.17 724.752,-108.481 672.454,-85.2156"/>
<polygon fill="midnightblue" stroke="midnightblue" points="673.705,-81.9412 663.146,-81.0694 670.856,-88.3355 673.705,-81.9412"/>
</g>
<!-- Node33&#45;&gt;Node13 -->
<g id="edge72" class="edge"><title>Node33&#45;&gt;Node13</title>
<path fill="none" stroke="midnightblue" d="M1109.62,-242.044C1259.77,-236.341 1677.35,-218.877 1736,-199 1754.79,-192.634 1860.4,-118.856 1905.54,-86.9995"/>
<polygon fill="midnightblue" stroke="midnightblue" points="1907.81,-89.678 1913.96,-81.0481 1903.77,-83.9616 1907.81,-89.678"/>
</g>
<!-- Node33&#45;&gt;Node23 -->
<g id="edge70" class="edge"><title>Node33&#45;&gt;Node23</title>
<path fill="none" stroke="midnightblue" d="M1109.63,-240.922C1282.61,-230.996 1822.74,-200 1963.29,-191.934"/>
<polygon fill="midnightblue" stroke="midnightblue" points="1963.67,-195.419 1973.45,-191.351 1963.27,-188.43 1963.67,-195.419"/>
</g>
<!-- Node34&#45;&gt;Node5 -->
<g id="edge74" class="edge"><title>Node34&#45;&gt;Node5</title>
<path fill="none" stroke="midnightblue" d="M1331.79,-358.181C1321.42,-349.661 1306,-336.017 1295,-322 1250.34,-265.107 1212.76,-187.123 1196.98,-152.201"/>
<polygon fill="midnightblue" stroke="midnightblue" points="1200.06,-150.526 1192.8,-142.817 1193.67,-153.376 1200.06,-150.526"/>
</g>
<!-- Node34&#45;&gt;Node11 -->
<g id="edge77" class="edge"><title>Node34&#45;&gt;Node11</title>
<path fill="none" stroke="midnightblue" d="M1305.12,-358.438C1276.96,-351.146 1238.18,-339.11 1207,-322 1187.89,-311.514 1189.08,-299.479 1169,-291 1040.41,-236.696 985.464,-309.602 857,-255 766.967,-216.733 687.069,-126.138 656.844,-88.9086"/>
<polygon fill="midnightblue" stroke="midnightblue" points="659.531,-86.664 650.553,-81.0382 654.063,-91.0347 659.531,-86.664"/>
</g>
<!-- Node34&#45;&gt;Node12 -->
<g id="edge82" class="edge"><title>Node34&#45;&gt;Node12</title>
<path fill="none" stroke="midnightblue" d="M1293.58,-358.496C1199.83,-341.92 990.044,-302.697 817,-255 668.09,-213.955 634.145,-193.005 488,-143 426.613,-121.996 354.941,-97.3104 314.673,-83.4266"/>
<polygon fill="midnightblue" stroke="midnightblue" points="315.732,-80.0896 305.137,-80.1383 313.45,-86.7072 315.732,-80.0896"/>
</g>
<!-- Node34&#45;&gt;Node13 -->
<g id="edge81" class="edge"><title>Node34&#45;&gt;Node13</title>
<path fill="none" stroke="midnightblue" d="M1402.7,-365.091C1574.77,-358.082 2064.25,-327.009 2140,-199 2184.22,-124.28 2026.79,-88.8771 1957.33,-77.1398"/>
<polygon fill="midnightblue" stroke="midnightblue" points="1957.8,-73.6703 1947.36,-75.5172 1956.67,-80.5793 1957.8,-73.6703"/>
</g>
<!-- Node34&#45;&gt;Node16 -->
<g id="edge75" class="edge"><title>Node34&#45;&gt;Node16</title>
<path fill="none" stroke="midnightblue" d="M1324.85,-358.384C1306.86,-349.687 1278.64,-335.629 1255,-322 1233,-309.314 1228.41,-304.651 1207,-291 1167.59,-265.878 1159.06,-257.323 1118,-235 1095.96,-223.014 1070.15,-211.141 1050.7,-202.602"/>
<polygon fill="midnightblue" stroke="midnightblue" points="1052,-199.351 1041.43,-198.575 1049.21,-205.771 1052,-199.351"/>
</g>
<!-- Node34&#45;&gt;Node19 -->
<g id="edge76" class="edge"><title>Node34&#45;&gt;Node19</title>
<path fill="none" stroke="midnightblue" d="M1366.78,-358.475C1391.05,-349.776 1429.41,-336.026 1460.18,-324.998"/>
<polygon fill="midnightblue" stroke="midnightblue" points="1461.64,-328.192 1469.88,-321.523 1459.28,-321.602 1461.64,-328.192"/>
</g>
<!-- Node34&#45;&gt;Node23 -->
<g id="edge78" class="edge"><title>Node34&#45;&gt;Node23</title>
<path fill="none" stroke="midnightblue" d="M1402.57,-360.344C1502.8,-347.865 1710.47,-316.484 1876,-255 1912.51,-241.44 1951.68,-218.726 1975.26,-204.057"/>
<polygon fill="midnightblue" stroke="midnightblue" points="1977.19,-206.977 1983.78,-198.681 1973.46,-201.056 1977.19,-206.977"/>
</g>
<!-- Node34&#45;&gt;Node24 -->
<g id="edge80" class="edge"><title>Node34&#45;&gt;Node24</title>
<path fill="none" stroke="midnightblue" d="M1402.58,-361.202C1491.48,-352.3 1654.55,-334.941 1712,-322 1803.86,-301.308 1825.35,-289.419 1913,-255 1932.99,-247.148 1937.07,-243.015 1957,-235 1987.48,-222.741 2022.75,-210.482 2048.53,-201.862"/>
<polygon fill="midnightblue" stroke="midnightblue" points="2049.88,-205.103 2058.27,-198.63 2047.68,-198.459 2049.88,-205.103"/>
</g>
<!-- Node35 -->
<g id="node35" class="node"><title>Node35</title>
<polygon fill="white" stroke="#bfbfbf" points="1304.5,-297 1304.5,-316 1381.5,-316 1381.5,-297 1304.5,-297"/>
<text text-anchor="middle" x="1343" y="-304" font-family="Helvetica,sans-Serif" font-size="10.00">initializer_list</text>
</g>
<!-- Node34&#45;&gt;Node35 -->
<g id="edge79" class="edge"><title>Node34&#45;&gt;Node35</title>
<path fill="none" stroke="midnightblue" d="M1343,-358.475C1343,-350.08 1343,-336.981 1343,-326.163"/>
<polygon fill="midnightblue" stroke="midnightblue" points="1346.5,-326.009 1343,-316.009 1339.5,-326.009 1346.5,-326.009"/>
</g>
<!-- Node36&#45;&gt;Node12 -->
<g id="edge88" class="edge"><title>Node36&#45;&gt;Node12</title>
<path fill="none" stroke="midnightblue" d="M1003.82,-414.421C920.115,-387.692 736.042,-325.888 589,-255 531.218,-227.144 366.211,-124.635 305.647,-86.7207"/>
<polygon fill="midnightblue" stroke="midnightblue" points="307.188,-83.5561 296.856,-81.2117 303.471,-89.4877 307.188,-83.5561"/>
</g>
<!-- Node36&#45;&gt;Node28 -->
<g id="edge85" class="edge"><title>Node36&#45;&gt;Node28</title>
<path fill="none" stroke="midnightblue" d="M1031.78,-414.466C997.162,-386.91 915.765,-325.422 838,-291 802.19,-275.149 759.628,-263.957 725.802,-256.698"/>
<polygon fill="midnightblue" stroke="midnightblue" points="726.106,-253.187 715.602,-254.571 724.677,-260.039 726.106,-253.187"/>
</g>
<!-- Node36&#45;&gt;Node29 -->
<g id="edge89" class="edge"><title>Node36&#45;&gt;Node29</title>
<path fill="none" stroke="midnightblue" d="M1104.82,-424.177C1228.23,-413.797 1532.98,-383.627 1781,-322 1849.53,-304.971 1926.98,-275.183 1968.29,-258.403"/>
<polygon fill="midnightblue" stroke="midnightblue" points="1969.82,-261.56 1977.74,-254.532 1967.16,-255.081 1969.82,-261.56"/>
</g>
<!-- Node36&#45;&gt;Node33 -->
<g id="edge86" class="edge"><title>Node36&#45;&gt;Node33</title>
<path fill="none" stroke="midnightblue" d="M1049.54,-414.483C1050.78,-382.097 1053.85,-302.037 1055.27,-265.159"/>
<polygon fill="midnightblue" stroke="midnightblue" points="1058.78,-264.946 1055.66,-254.819 1051.78,-264.677 1058.78,-264.946"/>
</g>
<!-- Node36&#45;&gt;Node34 -->
<g id="edge87" class="edge"><title>Node36&#45;&gt;Node34</title>
<path fill="none" stroke="midnightblue" d="M1104.64,-417.239C1158.18,-406.405 1238.49,-390.152 1290.82,-379.56"/>
<polygon fill="midnightblue" stroke="midnightblue" points="1291.79,-382.934 1300.9,-377.52 1290.4,-376.074 1291.79,-382.934"/>
</g>
<!-- Node37&#45;&gt;Node33 -->
<g id="edge94" class="edge"><title>Node37&#45;&gt;Node33</title>
<path fill="none" stroke="midnightblue" d="M657.778,-481.36C700.343,-452.726 841.554,-358.903 964,-291 984.957,-279.378 1009.35,-267.521 1027.75,-258.897"/>
<polygon fill="midnightblue" stroke="midnightblue" points="1029.44,-261.97 1037.03,-254.581 1026.49,-255.622 1029.44,-261.97"/>
</g>
<!-- Node38 -->
<g id="node38" class="node"><title>Node38</title>
<polygon fill="white" stroke="#bfbfbf" points="557.5,-420 557.5,-439 616.5,-439 616.5,-420 557.5,-420"/>
<text text-anchor="middle" x="587" y="-427" font-family="Helvetica,sans-Serif" font-size="10.00">iostream</text>
</g>
<!-- Node37&#45;&gt;Node38 -->
<g id="edge95" class="edge"><title>Node37&#45;&gt;Node38</title>
<path fill="none" stroke="midnightblue" d="M636.69,-481.475C627.818,-472.373 613.554,-457.741 602.58,-446.483"/>
<polygon fill="midnightblue" stroke="midnightblue" points="604.781,-443.727 595.295,-439.009 599.769,-448.613 604.781,-443.727"/>
</g>
<!-- Node39&#45;&gt;Node5 -->
<g id="edge105" class="edge"><title>Node39&#45;&gt;Node5</title>
<path fill="none" stroke="midnightblue" d="M309.035,-593.38C309.42,-543.093 313.945,-288.034 366,-235 467.446,-131.646 543.421,-197.926 687,-179 841.221,-158.671 1023.33,-144.876 1120.22,-138.343"/>
<polygon fill="midnightblue" stroke="midnightblue" points="1120.73,-141.817 1130.47,-137.658 1120.26,-134.833 1120.73,-141.817"/>
</g>
<!-- Node39&#45;&gt;Node12 -->
<g id="edge107" class="edge"><title>Node39&#45;&gt;Node12</title>
<path fill="none" stroke="midnightblue" d="M303.701,-593.274C279.808,-552.871 184.534,-379.787 214,-235 225.318,-179.387 256.363,-119.208 272.675,-90.1642"/>
<polygon fill="midnightblue" stroke="midnightblue" points="275.848,-91.6663 277.775,-81.2481 269.772,-88.1912 275.848,-91.6663"/>
</g>
<!-- Node39&#45;&gt;Node15 -->
<g id="edge106" class="edge"><title>Node39&#45;&gt;Node15</title>
<path fill="none" stroke="midnightblue" d="M349.137,-597.941C442.304,-588.52 673.637,-565.127 783.392,-554.028"/>
<polygon fill="midnightblue" stroke="midnightblue" points="784.028,-557.481 793.625,-552.993 783.323,-550.517 784.028,-557.481"/>
</g>
<!-- Node40&#45;&gt;Node5 -->
<g id="edge109" class="edge"><title>Node40&#45;&gt;Node5</title>
<path fill="none" stroke="midnightblue" d="M380.798,-649.436C384.749,-640.429 391.04,-625.811 396,-613 462.51,-441.218 406.813,-327.694 566,-235 659.301,-180.671 978.139,-150.135 1119.99,-138.956"/>
<polygon fill="midnightblue" stroke="midnightblue" points="1120.6,-142.419 1130.3,-138.153 1120.06,-135.44 1120.6,-142.419"/>
</g>
<!-- Node40&#45;&gt;Node12 -->
<g id="edge114" class="edge"><title>Node40&#45;&gt;Node12</title>
<path fill="none" stroke="midnightblue" d="M338.382,-652.766C312.521,-647.233 279.723,-635.937 260,-613 174.184,-513.199 212.021,-453.436 205,-322 200.197,-232.086 197.496,-200.698 243,-123 250.097,-110.882 259.855,-98.5023 267.956,-89.033"/>
<polygon fill="midnightblue" stroke="midnightblue" points="270.829,-91.066 274.807,-81.246 265.574,-86.4425 270.829,-91.066"/>
</g>
<!-- Node40&#45;&gt;Node15 -->
<g id="edge111" class="edge"><title>Node40&#45;&gt;Node15</title>
<path fill="none" stroke="midnightblue" d="M413.178,-649.46C496.966,-629.682 704.227,-580.758 796.916,-558.878"/>
<polygon fill="midnightblue" stroke="midnightblue" points="797.916,-562.238 806.845,-556.535 796.308,-555.426 797.916,-562.238"/>
</g>
<!-- Node40&#45;&gt;Node28 -->
<g id="edge110" class="edge"><title>Node40&#45;&gt;Node28</title>
<path fill="none" stroke="midnightblue" d="M377.152,-649.275C377.837,-628.631 381.514,-575.624 401,-537 464.294,-411.539 596.911,-299.858 646.626,-260.782"/>
<polygon fill="midnightblue" stroke="midnightblue" points="648.906,-263.442 654.652,-254.541 644.609,-257.917 648.906,-263.442"/>
</g>
<!-- Node40&#45;&gt;Node34 -->
<g id="edge112" class="edge"><title>Node40&#45;&gt;Node34</title>
<path fill="none" stroke="midnightblue" d="M415.597,-657.133C645.074,-651.734 1820,-620.548 1820,-548 1820,-548 1820,-548 1820,-490 1820,-407.046 1545.53,-380.318 1412.99,-372.248"/>
<polygon fill="midnightblue" stroke="midnightblue" points="1413.12,-368.749 1402.93,-371.654 1412.71,-375.737 1413.12,-368.749"/>
</g>
<!-- Node40&#45;&gt;Node39 -->
<g id="edge113" class="edge"><title>Node40&#45;&gt;Node39</title>
<path fill="none" stroke="midnightblue" d="M366.075,-649.324C355.825,-641.185 340.279,-628.839 327.999,-619.087"/>
<polygon fill="midnightblue" stroke="midnightblue" points="330.132,-616.312 320.124,-612.834 325.779,-621.794 330.132,-616.312"/>
</g>
</g>
</svg>
