<?xml version="1.0" encoding="UTF-8" standalone="no"?>
<!DOCTYPE svg PUBLIC "-//W3C//DTD SVG 1.1//EN"
 "http://www.w3.org/Graphics/SVG/1.1/DTD/svg11.dtd">
<!-- Generated by graphviz version 2.38.0 (20140413.2041)
 -->
<!-- Title: include/tvm/arith/bound.h Pages: 1 -->
<svg width="2522pt" height="901pt"
 viewBox="0.00 0.00 2522.00 901.00" xmlns="http://www.w3.org/2000/svg" xmlns:xlink="http://www.w3.org/1999/xlink">
<g id="graph0" class="graph" transform="scale(1 1) rotate(0) translate(4 897)">
<title>include/tvm/arith/bound.h</title>
<polygon fill="white" stroke="none" points="-4,4 -4,-897 2518,-897 2518,4 -4,4"/>
<!-- Node1 -->
<g id="node1" class="node"><title>Node1</title>
<polygon fill="#bfbfbf" stroke="black" points="1749.5,-873.5 1749.5,-892.5 1888.5,-892.5 1888.5,-873.5 1749.5,-873.5"/>
<text text-anchor="middle" x="1819" y="-880.5" font-family="Helvetica,sans-Serif" font-size="10.00">include/tvm/arith/bound.h</text>
</g>
<!-- Node2 -->
<g id="node2" class="node"><title>Node2</title>
<g id="a_node2"><a xlink:href="node_2container_8h.html" target="_top" xlink:title="Array/Map container in the DSL graph. ">
<polygon fill="white" stroke="black" points="1432.5,-358.5 1432.5,-377.5 1551.5,-377.5 1551.5,-358.5 1432.5,-358.5"/>
<text text-anchor="middle" x="1492" y="-365.5" font-family="Helvetica,sans-Serif" font-size="10.00">tvm/node/container.h</text>
</a>
</g>
</g>
<!-- Node1&#45;&gt;Node2 -->
<g id="edge1" class="edge"><title>Node1&#45;&gt;Node2</title>
<path fill="none" stroke="midnightblue" d="M1749.41,-882.76C1590.56,-880.243 1202,-849.071 1034,-613 1028.85,-605.758 1028.64,-600.09 1034,-593 1124.55,-473.262 1234.7,-585.169 1359,-501 1399.41,-473.637 1390.51,-447.497 1426,-414 1438.58,-402.128 1454.57,-391.142 1467.66,-382.997"/>
<polygon fill="midnightblue" stroke="midnightblue" points="1469.84,-385.767 1476.59,-377.597 1466.22,-379.778 1469.84,-385.767"/>
</g>
<!-- Node20 -->
<g id="node20" class="node"><title>Node20</title>
<polygon fill="white" stroke="#bfbfbf" points="2314.5,-179.5 2314.5,-198.5 2407.5,-198.5 2407.5,-179.5 2314.5,-179.5"/>
<text text-anchor="middle" x="2361" y="-186.5" font-family="Helvetica,sans-Serif" font-size="10.00">unordered_map</text>
</g>
<!-- Node1&#45;&gt;Node20 -->
<g id="edge141" class="edge"><title>Node1&#45;&gt;Node20</title>
<path fill="none" stroke="midnightblue" d="M1888.69,-877.572C2057.78,-865.898 2476,-831.054 2476,-772 2476,-772 2476,-772 2476,-305.5 2476,-256.615 2423.63,-221.11 2389.57,-203.188"/>
<polygon fill="midnightblue" stroke="midnightblue" points="2391.01,-199.995 2380.51,-198.603 2387.85,-206.241 2391.01,-199.995"/>
</g>
<!-- Node29 -->
<g id="node29" class="node"><title>Node29</title>
<g id="a_node29"><a xlink:href="ir_2expr_8h.html" target="_top" xlink:title="Base expr nodes in TVM. ">
<polygon fill="white" stroke="black" points="1416.5,-705.5 1416.5,-724.5 1493.5,-724.5 1493.5,-705.5 1416.5,-705.5"/>
<text text-anchor="middle" x="1455" y="-712.5" font-family="Helvetica,sans-Serif" font-size="10.00">tvm/ir/expr.h</text>
</a>
</g>
</g>
<!-- Node1&#45;&gt;Node29 -->
<g id="edge60" class="edge"><title>Node1&#45;&gt;Node29</title>
<path fill="none" stroke="midnightblue" d="M1800.2,-873.425C1740.41,-846.159 1554.44,-761.348 1483.18,-728.851"/>
<polygon fill="midnightblue" stroke="midnightblue" points="1484.46,-725.589 1473.91,-724.624 1481.56,-731.958 1484.46,-725.589"/>
</g>
<!-- Node40 -->
<g id="node40" class="node"><title>Node40</title>
<g id="a_node40"><a xlink:href="int__set_8h.html" target="_top" xlink:title="Integer set. ">
<polygon fill="white" stroke="black" points="1914,-817.5 1914,-836.5 2018,-836.5 2018,-817.5 1914,-817.5"/>
<text text-anchor="middle" x="1966" y="-824.5" font-family="Helvetica,sans-Serif" font-size="10.00">tvm/arith/int_set.h</text>
</a>
</g>
</g>
<!-- Node1&#45;&gt;Node40 -->
<g id="edge118" class="edge"><title>Node1&#45;&gt;Node40</title>
<path fill="none" stroke="midnightblue" d="M1842.29,-873.444C1866.81,-864.438 1905.6,-850.189 1933.2,-840.049"/>
<polygon fill="midnightblue" stroke="midnightblue" points="1934.64,-843.25 1942.82,-836.516 1932.22,-836.679 1934.64,-843.25"/>
</g>
<!-- Node41 -->
<g id="node41" class="node"><title>Node41</title>
<g id="a_node41"><a xlink:href="tir_2expr_8h.html" target="_top" xlink:title="TIR expressions. ">
<polygon fill="white" stroke="black" points="1870,-761.5 1870,-780.5 1950,-780.5 1950,-761.5 1870,-761.5"/>
<text text-anchor="middle" x="1910" y="-768.5" font-family="Helvetica,sans-Serif" font-size="10.00">tvm/tir/expr.h</text>
</a>
</g>
</g>
<!-- Node1&#45;&gt;Node41 -->
<g id="edge134" class="edge"><title>Node1&#45;&gt;Node41</title>
<path fill="none" stroke="midnightblue" d="M1812.83,-873.263C1804.32,-860.039 1791.3,-834.618 1803,-817 1815.86,-797.639 1838.85,-786.59 1860.23,-780.292"/>
<polygon fill="midnightblue" stroke="midnightblue" points="1861.14,-783.674 1869.9,-777.721 1859.34,-776.909 1861.14,-783.674"/>
</g>
<!-- Node42 -->
<g id="node42" class="node"><title>Node42</title>
<g id="a_node42"><a xlink:href="stmt_8h.html" target="_top" xlink:title="TIR statements. ">
<polygon fill="white" stroke="black" points="1812.5,-817.5 1812.5,-836.5 1895.5,-836.5 1895.5,-817.5 1812.5,-817.5"/>
<text text-anchor="middle" x="1854" y="-824.5" font-family="Helvetica,sans-Serif" font-size="10.00">tvm/tir/stmt.h</text>
</a>
</g>
</g>
<!-- Node1&#45;&gt;Node42 -->
<g id="edge135" class="edge"><title>Node1&#45;&gt;Node42</title>
<path fill="none" stroke="midnightblue" d="M1824.78,-873.083C1829.67,-865.534 1836.83,-854.495 1842.83,-845.23"/>
<polygon fill="midnightblue" stroke="midnightblue" points="1845.83,-847.046 1848.33,-836.751 1839.95,-843.239 1845.83,-847.046"/>
</g>
<!-- Node3 -->
<g id="node3" class="node"><title>Node3</title>
<g id="a_node3"><a xlink:href="object_8h.html" target="_top" xlink:title="A managed object in the TVM runtime. ">
<polygon fill="white" stroke="black" points="1317.5,-123.5 1317.5,-142.5 1434.5,-142.5 1434.5,-123.5 1317.5,-123.5"/>
<text text-anchor="middle" x="1376" y="-130.5" font-family="Helvetica,sans-Serif" font-size="10.00">tvm/runtime/object.h</text>
</a>
</g>
</g>
<!-- Node2&#45;&gt;Node3 -->
<g id="edge2" class="edge"><title>Node2&#45;&gt;Node3</title>
<path fill="none" stroke="midnightblue" d="M1474.5,-358.465C1461.21,-350.917 1443.92,-338.533 1436,-322 1430.05,-309.576 1427.35,-301.725 1436,-291 1484.88,-230.388 1644.36,-300.331 1602,-235 1567.46,-181.73 1497.52,-156.307 1444.55,-144.331"/>
<polygon fill="midnightblue" stroke="midnightblue" points="1445.04,-140.858 1434.53,-142.18 1443.57,-147.702 1445.04,-140.858"/>
</g>
<!-- Node9 -->
<g id="node9" class="node"><title>Node9</title>
<polygon fill="white" stroke="#bfbfbf" points="1963,-62 1963,-81 2031,-81 2031,-62 1963,-62"/>
<text text-anchor="middle" x="1997" y="-69" font-family="Helvetica,sans-Serif" font-size="10.00">type_traits</text>
</g>
<!-- Node2&#45;&gt;Node9 -->
<g id="edge54" class="edge"><title>Node2&#45;&gt;Node9</title>
<path fill="none" stroke="midnightblue" d="M1516.58,-358.355C1539.24,-350.057 1573.57,-336.65 1602,-322 1752.57,-244.408 1920.33,-127.382 1977.04,-86.8887"/>
<polygon fill="midnightblue" stroke="midnightblue" points="1979.08,-89.7339 1985.17,-81.0647 1975.01,-84.0435 1979.08,-89.7339"/>
</g>
<!-- Node10 -->
<g id="node10" class="node"><title>Node10</title>
<polygon fill="white" stroke="#bfbfbf" points="304,-62 304,-81 348,-81 348,-62 304,-62"/>
<text text-anchor="middle" x="326" y="-69" font-family="Helvetica,sans-Serif" font-size="10.00">string</text>
</g>
<!-- Node2&#45;&gt;Node10 -->
<g id="edge59" class="edge"><title>Node2&#45;&gt;Node10</title>
<path fill="none" stroke="midnightblue" d="M1432.43,-364.811C1254.31,-357.478 728.777,-329.877 577,-255 531.553,-232.579 530.802,-211.596 492,-179 461.227,-153.149 454.656,-144.965 421,-123 399.188,-108.765 372.952,-95.0549 353.583,-85.5208"/>
<polygon fill="midnightblue" stroke="midnightblue" points="354.933,-82.2853 344.408,-81.0637 351.874,-88.5816 354.933,-82.2853"/>
</g>
<!-- Node11 -->
<g id="node11" class="node"><title>Node11</title>
<polygon fill="white" stroke="#bfbfbf" points="2147,-62 2147,-81 2189,-81 2189,-62 2147,-62"/>
<text text-anchor="middle" x="2168" y="-69" font-family="Helvetica,sans-Serif" font-size="10.00">utility</text>
</g>
<!-- Node2&#45;&gt;Node11 -->
<g id="edge58" class="edge"><title>Node2&#45;&gt;Node11</title>
<path fill="none" stroke="midnightblue" d="M1521.43,-358.388C1582.7,-340.552 1722.33,-300.446 1771,-291 1838,-277.996 2020.09,-294.135 2076,-255 2132.9,-215.172 2156.58,-129.547 2164.57,-91.4498"/>
<polygon fill="midnightblue" stroke="midnightblue" points="2168.08,-91.7417 2166.56,-81.2555 2161.21,-90.3966 2168.08,-91.7417"/>
</g>
<!-- Node13 -->
<g id="node13" class="node"><title>Node13</title>
<g id="a_node13"><a xlink:href="runtime_2memory_8h.html" target="_top" xlink:title="Runtime memory management. ">
<polygon fill="white" stroke="black" points="1594.5,-179.5 1594.5,-198.5 1721.5,-198.5 1721.5,-179.5 1594.5,-179.5"/>
<text text-anchor="middle" x="1658" y="-186.5" font-family="Helvetica,sans-Serif" font-size="10.00">tvm/runtime/memory.h</text>
</a>
</g>
</g>
<!-- Node2&#45;&gt;Node13 -->
<g id="edge12" class="edge"><title>Node2&#45;&gt;Node13</title>
<path fill="none" stroke="midnightblue" d="M1505.28,-358.322C1527.4,-343.948 1573.27,-314.457 1613,-291 1641.44,-274.211 1661.23,-283.451 1678,-255 1686.86,-239.958 1678.81,-220.606 1670.43,-206.941"/>
<polygon fill="midnightblue" stroke="midnightblue" points="1673.26,-204.869 1664.78,-198.513 1667.44,-208.768 1673.26,-204.869"/>
</g>
<!-- Node15 -->
<g id="node15" class="node"><title>Node15</title>
<g id="a_node15"><a xlink:href="packed__func_8h.html" target="_top" xlink:title="Type&#45;erased function used across TVM API. ">
<polygon fill="white" stroke="black" points="1047.5,-291.5 1047.5,-321.5 1160.5,-321.5 1160.5,-291.5 1047.5,-291.5"/>
<text text-anchor="start" x="1055.5" y="-309.5" font-family="Helvetica,sans-Serif" font-size="10.00">tvm/runtime/packed</text>
<text text-anchor="middle" x="1104" y="-298.5" font-family="Helvetica,sans-Serif" font-size="10.00">_func.h</text>
</a>
</g>
</g>
<!-- Node2&#45;&gt;Node15 -->
<g id="edge17" class="edge"><title>Node2&#45;&gt;Node15</title>
<path fill="none" stroke="midnightblue" d="M1436.41,-358.475C1366.36,-347.734 1246.09,-329.289 1171.03,-317.779"/>
<polygon fill="midnightblue" stroke="midnightblue" points="1171.16,-314.259 1160.75,-316.203 1170.1,-321.178 1171.16,-314.259"/>
</g>
<!-- Node19 -->
<g id="node19" class="node"><title>Node19</title>
<polygon fill="white" stroke="#bfbfbf" points="920.5,-179.5 920.5,-198.5 967.5,-198.5 967.5,-179.5 920.5,-179.5"/>
<text text-anchor="middle" x="944" y="-186.5" font-family="Helvetica,sans-Serif" font-size="10.00">vector</text>
</g>
<!-- Node2&#45;&gt;Node19 -->
<g id="edge55" class="edge"><title>Node2&#45;&gt;Node19</title>
<path fill="none" stroke="midnightblue" d="M1432.33,-367.813C1344.31,-367.518 1175.28,-361.218 1038,-322 973.211,-303.491 937.593,-312.213 902,-255 891.281,-237.77 907.828,-218.247 923.2,-205.133"/>
<polygon fill="midnightblue" stroke="midnightblue" points="925.803,-207.533 931.439,-198.562 921.438,-202.061 925.803,-207.533"/>
</g>
<!-- Node2&#45;&gt;Node20 -->
<g id="edge57" class="edge"><title>Node2&#45;&gt;Node20</title>
<path fill="none" stroke="midnightblue" d="M1546.83,-358.464C1655.02,-341.314 1903.39,-300.408 2110,-255 2185.27,-238.457 2272.12,-214.97 2321.4,-201.225"/>
<polygon fill="midnightblue" stroke="midnightblue" points="2322.35,-204.594 2331.04,-198.528 2320.46,-197.853 2322.35,-204.594"/>
</g>
<!-- Node28 -->
<g id="node28" class="node"><title>Node28</title>
<polygon fill="white" stroke="#bfbfbf" points="1445.5,-297 1445.5,-316 1522.5,-316 1522.5,-297 1445.5,-297"/>
<text text-anchor="middle" x="1484" y="-304" font-family="Helvetica,sans-Serif" font-size="10.00">initializer_list</text>
</g>
<!-- Node2&#45;&gt;Node28 -->
<g id="edge56" class="edge"><title>Node2&#45;&gt;Node28</title>
<path fill="none" stroke="midnightblue" d="M1490.85,-358.475C1489.73,-350.08 1487.96,-336.981 1486.51,-326.163"/>
<polygon fill="midnightblue" stroke="midnightblue" points="1489.95,-325.453 1485.14,-316.009 1483.01,-326.386 1489.95,-325.453"/>
</g>
<!-- Node4 -->
<g id="node4" class="node"><title>Node4</title>
<polygon fill="white" stroke="#bfbfbf" points="1539,-62 1539,-81 1625,-81 1625,-62 1539,-62"/>
<text text-anchor="middle" x="1582" y="-69" font-family="Helvetica,sans-Serif" font-size="10.00">dmlc/logging.h</text>
</g>
<!-- Node3&#45;&gt;Node4 -->
<g id="edge3" class="edge"><title>Node3&#45;&gt;Node4</title>
<path fill="none" stroke="midnightblue" d="M1405.51,-123.475C1441.62,-113.048 1502.85,-95.3618 1542.85,-83.8066"/>
<polygon fill="midnightblue" stroke="midnightblue" points="1543.9,-87.1466 1552.54,-81.0091 1541.96,-80.4215 1543.9,-87.1466"/>
</g>
<!-- Node5 -->
<g id="node5" class="node"><title>Node5</title>
<g id="a_node5"><a xlink:href="c__runtime__api_8h.html" target="_top" xlink:title="tvm/runtime/c_runtime\l_api.h">
<polygon fill="white" stroke="black" points="763.5,-56.5 763.5,-86.5 890.5,-86.5 890.5,-56.5 763.5,-56.5"/>
<text text-anchor="start" x="771.5" y="-74.5" font-family="Helvetica,sans-Serif" font-size="10.00">tvm/runtime/c_runtime</text>
<text text-anchor="middle" x="827" y="-63.5" font-family="Helvetica,sans-Serif" font-size="10.00">_api.h</text>
</a>
</g>
</g>
<!-- Node3&#45;&gt;Node5 -->
<g id="edge4" class="edge"><title>Node3&#45;&gt;Node5</title>
<path fill="none" stroke="midnightblue" d="M1317.25,-125.632C1216.52,-114.716 1011.1,-92.4527 900.849,-80.5037"/>
<polygon fill="midnightblue" stroke="midnightblue" points="901.127,-77.0133 890.808,-79.4154 900.372,-83.9726 901.127,-77.0133"/>
</g>
<!-- Node3&#45;&gt;Node9 -->
<g id="edge8" class="edge"><title>Node3&#45;&gt;Node9</title>
<path fill="none" stroke="midnightblue" d="M1434.7,-126.376C1558.3,-114.533 1843.01,-87.2541 1952.75,-76.7398"/>
<polygon fill="midnightblue" stroke="midnightblue" points="1953.19,-80.2136 1962.81,-75.7757 1952.52,-73.2455 1953.19,-80.2136"/>
</g>
<!-- Node3&#45;&gt;Node10 -->
<g id="edge9" class="edge"><title>Node3&#45;&gt;Node10</title>
<path fill="none" stroke="midnightblue" d="M1317.3,-128.674C1123.27,-117.679 506.516,-82.7292 358.27,-74.3286"/>
<polygon fill="midnightblue" stroke="midnightblue" points="358.216,-70.8201 348.034,-73.7486 357.82,-77.8089 358.216,-70.8201"/>
</g>
<!-- Node3&#45;&gt;Node11 -->
<g id="edge10" class="edge"><title>Node3&#45;&gt;Node11</title>
<path fill="none" stroke="midnightblue" d="M1434.69,-128.914C1550.55,-122.626 1816.76,-107.199 2040,-87 2073.08,-84.0066 2110.87,-79.6054 2136.76,-76.4378"/>
<polygon fill="midnightblue" stroke="midnightblue" points="2137.24,-79.9045 2146.74,-75.2057 2136.39,-72.9572 2137.24,-79.9045"/>
</g>
<!-- Node12 -->
<g id="node12" class="node"><title>Node12</title>
<polygon fill="white" stroke="#bfbfbf" points="1218,-62 1218,-81 1268,-81 1268,-62 1218,-62"/>
<text text-anchor="middle" x="1243" y="-69" font-family="Helvetica,sans-Serif" font-size="10.00">atomic</text>
</g>
<!-- Node3&#45;&gt;Node12 -->
<g id="edge11" class="edge"><title>Node3&#45;&gt;Node12</title>
<path fill="none" stroke="midnightblue" d="M1356.94,-123.475C1334.53,-113.445 1297.09,-96.7002 1271.29,-85.1546"/>
<polygon fill="midnightblue" stroke="midnightblue" points="1272.58,-81.8979 1262.02,-81.0091 1269.72,-88.2877 1272.58,-81.8979"/>
</g>
<!-- Node6 -->
<g id="node6" class="node"><title>Node6</title>
<polygon fill="white" stroke="#bfbfbf" points="692,-0.5 692,-19.5 782,-19.5 782,-0.5 692,-0.5"/>
<text text-anchor="middle" x="737" y="-7.5" font-family="Helvetica,sans-Serif" font-size="10.00">dlpack/dlpack.h</text>
</g>
<!-- Node5&#45;&gt;Node6 -->
<g id="edge5" class="edge"><title>Node5&#45;&gt;Node6</title>
<path fill="none" stroke="midnightblue" d="M805.671,-56.3993C791.515,-47.0402 772.989,-34.7924 758.747,-25.3771"/>
<polygon fill="midnightblue" stroke="midnightblue" points="760.368,-22.2531 750.096,-19.6578 756.507,-28.0923 760.368,-22.2531"/>
</g>
<!-- Node7 -->
<g id="node7" class="node"><title>Node7</title>
<polygon fill="white" stroke="#bfbfbf" points="800.5,-0.5 800.5,-19.5 853.5,-19.5 853.5,-0.5 800.5,-0.5"/>
<text text-anchor="middle" x="827" y="-7.5" font-family="Helvetica,sans-Serif" font-size="10.00">stdint.h</text>
</g>
<!-- Node5&#45;&gt;Node7 -->
<g id="edge6" class="edge"><title>Node5&#45;&gt;Node7</title>
<path fill="none" stroke="midnightblue" d="M827,-56.3993C827,-48.4664 827,-38.458 827,-29.8583"/>
<polygon fill="midnightblue" stroke="midnightblue" points="830.5,-29.6577 827,-19.6578 823.5,-29.6578 830.5,-29.6577"/>
</g>
<!-- Node8 -->
<g id="node8" class="node"><title>Node8</title>
<polygon fill="white" stroke="#bfbfbf" points="871.5,-0.5 871.5,-19.5 926.5,-19.5 926.5,-0.5 871.5,-0.5"/>
<text text-anchor="middle" x="899" y="-7.5" font-family="Helvetica,sans-Serif" font-size="10.00">stddef.h</text>
</g>
<!-- Node5&#45;&gt;Node8 -->
<g id="edge7" class="edge"><title>Node5&#45;&gt;Node8</title>
<path fill="none" stroke="midnightblue" d="M844.063,-56.3993C855.065,-47.3076 869.365,-35.4899 880.618,-26.1909"/>
<polygon fill="midnightblue" stroke="midnightblue" points="883.044,-28.726 888.523,-19.6578 878.585,-23.33 883.044,-28.726"/>
</g>
<!-- Node13&#45;&gt;Node3 -->
<g id="edge13" class="edge"><title>Node13&#45;&gt;Node3</title>
<path fill="none" stroke="midnightblue" d="M1613.32,-179.444C1563.71,-169.944 1483.64,-154.611 1430.41,-144.42"/>
<polygon fill="midnightblue" stroke="midnightblue" points="1430.95,-140.96 1420.47,-142.516 1429.64,-147.835 1430.95,-140.96"/>
</g>
<!-- Node13&#45;&gt;Node9 -->
<g id="edge16" class="edge"><title>Node13&#45;&gt;Node9</title>
<path fill="none" stroke="midnightblue" d="M1683.2,-179.413C1743.02,-159.033 1893.66,-107.709 1962.14,-84.3759"/>
<polygon fill="midnightblue" stroke="midnightblue" points="1963.29,-87.6815 1971.63,-81.1434 1961.04,-81.0555 1963.29,-87.6815"/>
</g>
<!-- Node13&#45;&gt;Node11 -->
<g id="edge15" class="edge"><title>Node13&#45;&gt;Node11</title>
<path fill="none" stroke="midnightblue" d="M1695.92,-179.413C1792.74,-157.484 2047.76,-99.7306 2136.79,-79.5677"/>
<polygon fill="midnightblue" stroke="midnightblue" points="2137.82,-82.9225 2146.8,-77.3001 2136.28,-76.0954 2137.82,-82.9225"/>
</g>
<!-- Node14 -->
<g id="node14" class="node"><title>Node14</title>
<polygon fill="white" stroke="#bfbfbf" points="1634.5,-123.5 1634.5,-142.5 1681.5,-142.5 1681.5,-123.5 1634.5,-123.5"/>
<text text-anchor="middle" x="1658" y="-130.5" font-family="Helvetica,sans-Serif" font-size="10.00">cstdlib</text>
</g>
<!-- Node13&#45;&gt;Node14 -->
<g id="edge14" class="edge"><title>Node13&#45;&gt;Node14</title>
<path fill="none" stroke="midnightblue" d="M1658,-179.083C1658,-172.006 1658,-161.861 1658,-152.986"/>
<polygon fill="midnightblue" stroke="midnightblue" points="1661.5,-152.751 1658,-142.751 1654.5,-152.751 1661.5,-152.751"/>
</g>
<!-- Node15&#45;&gt;Node3 -->
<g id="edge45" class="edge"><title>Node15&#45;&gt;Node3</title>
<path fill="none" stroke="midnightblue" d="M1145.52,-291.41C1167.6,-282.808 1194.55,-270.476 1216,-255 1253.24,-228.13 1249.31,-206.61 1286,-179 1303.67,-165.707 1325.86,-154.559 1343.79,-146.684"/>
<polygon fill="midnightblue" stroke="midnightblue" points="1345.43,-149.791 1353.26,-142.653 1342.69,-143.351 1345.43,-149.791"/>
</g>
<!-- Node15&#45;&gt;Node4 -->
<g id="edge18" class="edge"><title>Node15&#45;&gt;Node4</title>
<path fill="none" stroke="midnightblue" d="M1128.92,-291.418C1144.76,-281.977 1165.35,-268.787 1182,-255 1244.47,-203.274 1236.65,-161.559 1308,-123 1377.91,-85.2216 1470.92,-75.1332 1528.6,-72.7538"/>
<polygon fill="midnightblue" stroke="midnightblue" points="1529.08,-76.2395 1538.95,-72.3942 1528.83,-69.2438 1529.08,-76.2395"/>
</g>
<!-- Node15&#45;&gt;Node5 -->
<g id="edge19" class="edge"><title>Node15&#45;&gt;Node5</title>
<path fill="none" stroke="midnightblue" d="M1047.38,-295.088C1006.24,-286.238 955.658,-272.236 943,-255 937.739,-247.836 939.778,-243.284 943,-235 950.869,-214.771 968.131,-219.229 976,-199 979.222,-190.716 980.066,-186.904 976,-179 954.37,-136.952 907.59,-107.818 872.179,-90.7825"/>
<polygon fill="midnightblue" stroke="midnightblue" points="873.527,-87.5496 862.984,-86.5049 870.574,-93.8964 873.527,-87.5496"/>
</g>
<!-- Node15&#45;&gt;Node9 -->
<g id="edge53" class="edge"><title>Node15&#45;&gt;Node9</title>
<path fill="none" stroke="midnightblue" d="M1142.88,-291.371C1255.31,-250.583 1575.96,-134.789 1625,-123 1741.48,-94.9966 1882.48,-81.1718 1952.73,-75.6017"/>
<polygon fill="midnightblue" stroke="midnightblue" points="1953.28,-79.0699 1962.98,-74.8084 1952.74,-72.0908 1953.28,-79.0699"/>
</g>
<!-- Node15&#45;&gt;Node10 -->
<g id="edge49" class="edge"><title>Node15&#45;&gt;Node10</title>
<path fill="none" stroke="midnightblue" d="M1047.35,-301.745C926.245,-293.424 649.946,-272.759 611,-255 566.084,-234.519 567.414,-211.204 530,-179 499.54,-152.782 493.97,-142.807 459,-123 426.27,-104.461 385.412,-90.1075 357.68,-81.5205"/>
<polygon fill="midnightblue" stroke="midnightblue" points="358.682,-78.1668 348.097,-78.6207 356.654,-84.8669 358.682,-78.1668"/>
</g>
<!-- Node15&#45;&gt;Node11 -->
<g id="edge52" class="edge"><title>Node15&#45;&gt;Node11</title>
<path fill="none" stroke="midnightblue" d="M1160.67,-294.428C1235.33,-279.989 1370.78,-254.299 1487,-235 1594.7,-217.115 1623.31,-222.199 1730,-199 1885.17,-165.257 2066.15,-106.705 2137.17,-82.9569"/>
<polygon fill="midnightblue" stroke="midnightblue" points="2138.47,-86.213 2146.84,-79.7127 2136.24,-79.5769 2138.47,-86.213"/>
</g>
<!-- Node16 -->
<g id="node16" class="node"><title>Node16</title>
<g id="a_node16"><a xlink:href="runtime_2module_8h.html" target="_top" xlink:title="Runtime container of the functions generated by TVM, This is used to support dynamically link...">
<polygon fill="white" stroke="black" points="952,-235.5 952,-254.5 1076,-254.5 1076,-235.5 952,-235.5"/>
<text text-anchor="middle" x="1014" y="-242.5" font-family="Helvetica,sans-Serif" font-size="10.00">tvm/runtime/module.h</text>
</a>
</g>
</g>
<!-- Node15&#45;&gt;Node16 -->
<g id="edge20" class="edge"><title>Node15&#45;&gt;Node16</title>
<path fill="none" stroke="midnightblue" d="M1076.83,-291.399C1061.62,-282.129 1043.29,-270.025 1030.25,-260.647"/>
<polygon fill="midnightblue" stroke="midnightblue" points="1032.28,-257.801 1022.17,-254.658 1028.12,-263.424 1032.28,-257.801"/>
</g>
<!-- Node18 -->
<g id="node18" class="node"><title>Node18</title>
<polygon fill="white" stroke="#bfbfbf" points="1138.5,-179.5 1138.5,-198.5 1195.5,-198.5 1195.5,-179.5 1138.5,-179.5"/>
<text text-anchor="middle" x="1167" y="-186.5" font-family="Helvetica,sans-Serif" font-size="10.00">memory</text>
</g>
<!-- Node15&#45;&gt;Node18 -->
<g id="edge51" class="edge"><title>Node15&#45;&gt;Node18</title>
<path fill="none" stroke="midnightblue" d="M1105.65,-291.452C1107.85,-276.619 1112.76,-252.944 1123,-235 1129.39,-223.812 1139.22,-213.384 1147.98,-205.389"/>
<polygon fill="midnightblue" stroke="midnightblue" points="1150.33,-207.981 1155.58,-198.779 1145.74,-202.697 1150.33,-207.981"/>
</g>
<!-- Node15&#45;&gt;Node19 -->
<g id="edge48" class="edge"><title>Node15&#45;&gt;Node19</title>
<path fill="none" stroke="midnightblue" d="M1047.38,-298.455C996.331,-290.801 926.762,-276.684 910,-255 898.039,-239.527 912.662,-219.229 926.28,-205.461"/>
<polygon fill="midnightblue" stroke="midnightblue" points="928.715,-207.976 933.566,-198.557 923.9,-202.894 928.715,-207.976"/>
</g>
<!-- Node21 -->
<g id="node21" class="node"><title>Node21</title>
<g id="a_node21"><a xlink:href="ndarray_8h.html" target="_top" xlink:title="A device&#45;independent managed NDArray abstraction. ">
<polygon fill="white" stroke="black" points="620.5,-235.5 620.5,-254.5 743.5,-254.5 743.5,-235.5 620.5,-235.5"/>
<text text-anchor="middle" x="682" y="-242.5" font-family="Helvetica,sans-Serif" font-size="10.00">tvm/runtime/ndarray.h</text>
</a>
</g>
</g>
<!-- Node15&#45;&gt;Node21 -->
<g id="edge30" class="edge"><title>Node15&#45;&gt;Node21</title>
<path fill="none" stroke="midnightblue" d="M1047.09,-297.476C970.742,-286.711 835.221,-267.603 752.503,-255.941"/>
<polygon fill="midnightblue" stroke="midnightblue" points="752.827,-252.452 742.436,-254.521 751.849,-259.383 752.827,-252.452"/>
</g>
<!-- Node24 -->
<g id="node24" class="node"><title>Node24</title>
<g id="a_node24"><a xlink:href="data__type_8h.html" target="_top" xlink:title="tvm/runtime/data_type.h">
<polygon fill="white" stroke="black" points="1806,-235.5 1806,-254.5 1942,-254.5 1942,-235.5 1806,-235.5"/>
<text text-anchor="middle" x="1874" y="-242.5" font-family="Helvetica,sans-Serif" font-size="10.00">tvm/runtime/data_type.h</text>
</a>
</g>
</g>
<!-- Node15&#45;&gt;Node24 -->
<g id="edge41" class="edge"><title>Node15&#45;&gt;Node24</title>
<path fill="none" stroke="midnightblue" d="M1160.62,-301.125C1296.25,-290.644 1640.01,-264.081 1795.49,-252.067"/>
<polygon fill="midnightblue" stroke="midnightblue" points="1796.21,-255.522 1805.91,-251.262 1795.67,-248.543 1796.21,-255.522"/>
</g>
<!-- Node25 -->
<g id="node25" class="node"><title>Node25</title>
<polygon fill="white" stroke="#bfbfbf" points="1496.5,-235.5 1496.5,-254.5 1559.5,-254.5 1559.5,-235.5 1496.5,-235.5"/>
<text text-anchor="middle" x="1528" y="-242.5" font-family="Helvetica,sans-Serif" font-size="10.00">functional</text>
</g>
<!-- Node15&#45;&gt;Node25 -->
<g id="edge46" class="edge"><title>Node15&#45;&gt;Node25</title>
<path fill="none" stroke="midnightblue" d="M1160.51,-299.03C1234.55,-290.307 1368.33,-273.696 1482,-255 1483.46,-254.761 1484.94,-254.51 1486.43,-254.251"/>
<polygon fill="midnightblue" stroke="midnightblue" points="1487.16,-257.676 1496.37,-252.449 1485.91,-250.789 1487.16,-257.676"/>
</g>
<!-- Node26 -->
<g id="node26" class="node"><title>Node26</title>
<polygon fill="white" stroke="#bfbfbf" points="1132.5,-235.5 1132.5,-254.5 1173.5,-254.5 1173.5,-235.5 1132.5,-235.5"/>
<text text-anchor="middle" x="1153" y="-242.5" font-family="Helvetica,sans-Serif" font-size="10.00">tuple</text>
</g>
<!-- Node15&#45;&gt;Node26 -->
<g id="edge47" class="edge"><title>Node15&#45;&gt;Node26</title>
<path fill="none" stroke="midnightblue" d="M1115.61,-291.399C1122.73,-282.753 1131.88,-271.642 1139.35,-262.576"/>
<polygon fill="midnightblue" stroke="midnightblue" points="1142.21,-264.602 1145.87,-254.658 1136.81,-260.152 1142.21,-264.602"/>
</g>
<!-- Node27 -->
<g id="node27" class="node"><title>Node27</title>
<polygon fill="white" stroke="#bfbfbf" points="104,-235.5 104,-254.5 146,-254.5 146,-235.5 104,-235.5"/>
<text text-anchor="middle" x="125" y="-242.5" font-family="Helvetica,sans-Serif" font-size="10.00">limits</text>
</g>
<!-- Node15&#45;&gt;Node27 -->
<g id="edge50" class="edge"><title>Node15&#45;&gt;Node27</title>
<path fill="none" stroke="midnightblue" d="M1047.49,-302.066C865.135,-290.983 296.027,-256.394 156.243,-247.899"/>
<polygon fill="midnightblue" stroke="midnightblue" points="156.401,-244.402 146.207,-247.289 155.976,-251.389 156.401,-244.402"/>
</g>
<!-- Node16&#45;&gt;Node3 -->
<g id="edge23" class="edge"><title>Node16&#45;&gt;Node3</title>
<path fill="none" stroke="midnightblue" d="M1027.69,-235.497C1053.39,-219.652 1108.19,-186.533 1129,-179 1187.19,-157.936 1256.8,-146.396 1307.27,-140.294"/>
<polygon fill="midnightblue" stroke="midnightblue" points="1307.89,-143.745 1317.42,-139.109 1307.08,-136.792 1307.89,-143.745"/>
</g>
<!-- Node16&#45;&gt;Node5 -->
<g id="edge22" class="edge"><title>Node16&#45;&gt;Node5</title>
<path fill="none" stroke="midnightblue" d="M1021.66,-235.4C1039.67,-214.111 1081.15,-158.138 1053,-123 1034.05,-99.3466 959.024,-86.0377 900.551,-79.0932"/>
<polygon fill="midnightblue" stroke="midnightblue" points="900.917,-75.6122 890.583,-77.951 900.12,-82.5667 900.917,-75.6122"/>
</g>
<!-- Node16&#45;&gt;Node10 -->
<g id="edge27" class="edge"><title>Node16&#45;&gt;Node10</title>
<path fill="none" stroke="midnightblue" d="M951.831,-241.472C885.065,-237.378 776.505,-226.707 687,-199 614.849,-176.665 605.941,-148.925 535,-123 474.202,-100.782 399.875,-85.4928 358.243,-77.9399"/>
<polygon fill="midnightblue" stroke="midnightblue" points="358.602,-74.4491 348.144,-76.1439 357.377,-81.3409 358.602,-74.4491"/>
</g>
<!-- Node16&#45;&gt;Node13 -->
<g id="edge24" class="edge"><title>Node16&#45;&gt;Node13</title>
<path fill="none" stroke="midnightblue" d="M1076.04,-238.798C1195.28,-228.799 1455.97,-206.94 1584.03,-196.203"/>
<polygon fill="midnightblue" stroke="midnightblue" points="1584.46,-199.679 1594.13,-195.355 1583.87,-192.703 1584.46,-199.679"/>
</g>
<!-- Node16&#45;&gt;Node15 -->
<g id="edge29" class="edge"><title>Node16&#45;&gt;Node15</title>
<path fill="none" stroke="midnightblue" d="M1032.03,-254.658C1045.93,-262.708 1065.03,-275.001 1080.14,-285.483"/>
<polygon fill="midnightblue" stroke="midnightblue" points="1078.32,-288.486 1088.51,-291.399 1082.37,-282.769 1078.32,-288.486"/>
</g>
<!-- Node17 -->
<g id="node17" class="node"><title>Node17</title>
<polygon fill="white" stroke="#bfbfbf" points="984,-123.5 984,-142.5 1044,-142.5 1044,-123.5 984,-123.5"/>
<text text-anchor="middle" x="1014" y="-130.5" font-family="Helvetica,sans-Serif" font-size="10.00">dmlc/io.h</text>
</g>
<!-- Node16&#45;&gt;Node17 -->
<g id="edge21" class="edge"><title>Node16&#45;&gt;Node17</title>
<path fill="none" stroke="midnightblue" d="M1014,-235.368C1014,-217.617 1014,-176.666 1014,-152.597"/>
<polygon fill="midnightblue" stroke="midnightblue" points="1017.5,-152.591 1014,-142.591 1010.5,-152.591 1017.5,-152.591"/>
</g>
<!-- Node16&#45;&gt;Node18 -->
<g id="edge25" class="edge"><title>Node16&#45;&gt;Node18</title>
<path fill="none" stroke="midnightblue" d="M1038.24,-235.444C1063.87,-226.399 1104.49,-212.064 1133.24,-201.916"/>
<polygon fill="midnightblue" stroke="midnightblue" points="1134.61,-205.145 1142.87,-198.516 1132.28,-198.544 1134.61,-205.145"/>
</g>
<!-- Node16&#45;&gt;Node19 -->
<g id="edge26" class="edge"><title>Node16&#45;&gt;Node19</title>
<path fill="none" stroke="midnightblue" d="M1002.75,-235.324C992.203,-227.185 976.199,-214.839 963.558,-205.087"/>
<polygon fill="midnightblue" stroke="midnightblue" points="965.507,-202.171 955.451,-198.834 961.231,-207.713 965.507,-202.171"/>
</g>
<!-- Node16&#45;&gt;Node20 -->
<g id="edge28" class="edge"><title>Node16&#45;&gt;Node20</title>
<path fill="none" stroke="midnightblue" d="M1076.22,-238.365C1091.51,-237.118 1107.84,-235.901 1123,-235 1578.21,-207.948 2128.6,-194.838 2304.26,-191.133"/>
<polygon fill="midnightblue" stroke="midnightblue" points="2304.38,-194.631 2314.31,-190.922 2304.23,-187.632 2304.38,-194.631"/>
</g>
<!-- Node21&#45;&gt;Node3 -->
<g id="edge32" class="edge"><title>Node21&#45;&gt;Node3</title>
<path fill="none" stroke="midnightblue" d="M728.213,-235.473C766.3,-227.818 821.428,-215.284 868,-199 887.896,-192.043 890.664,-184.539 911,-179 983.851,-159.158 1196.7,-144.375 1307.37,-137.788"/>
<polygon fill="midnightblue" stroke="midnightblue" points="1307.65,-141.277 1317.43,-137.195 1307.24,-134.289 1307.65,-141.277"/>
</g>
<!-- Node21&#45;&gt;Node5 -->
<g id="edge31" class="edge"><title>Node21&#45;&gt;Node5</title>
<path fill="none" stroke="midnightblue" d="M680.136,-235.199C676.075,-213.451 668.837,-156.515 696,-123 710.505,-105.103 732.156,-93.5375 753.699,-86.0679"/>
<polygon fill="midnightblue" stroke="midnightblue" points="754.777,-89.3979 763.232,-83.0136 752.641,-82.7316 754.777,-89.3979"/>
</g>
<!-- Node21&#45;&gt;Node11 -->
<g id="edge40" class="edge"><title>Node21&#45;&gt;Node11</title>
<path fill="none" stroke="midnightblue" d="M743.676,-240.539C841.547,-234.629 1038.32,-221.048 1204,-199 1392.47,-173.919 1436.53,-148.131 1625,-123 1808.51,-98.5292 1855.78,-105.421 2040,-87 2073.05,-83.6947 2110.84,-79.3435 2136.74,-76.2729"/>
<polygon fill="midnightblue" stroke="midnightblue" points="2137.21,-79.7418 2146.73,-75.0827 2136.38,-72.791 2137.21,-79.7418"/>
</g>
<!-- Node21&#45;&gt;Node12 -->
<g id="edge38" class="edge"><title>Node21&#45;&gt;Node12</title>
<path fill="none" stroke="midnightblue" d="M721.018,-235.484C752.535,-227.911 797.635,-215.483 835,-199 850.691,-192.078 852.001,-185.178 868,-179 946.14,-148.824 972.355,-165.645 1053,-143 1111.05,-126.698 1176.54,-100.626 1213.48,-85.1714"/>
<polygon fill="midnightblue" stroke="midnightblue" points="1215.26,-88.2203 1223.11,-81.111 1212.54,-81.7699 1215.26,-88.2203"/>
</g>
<!-- Node21&#45;&gt;Node19 -->
<g id="edge39" class="edge"><title>Node21&#45;&gt;Node19</title>
<path fill="none" stroke="midnightblue" d="M726.719,-235.485C772.001,-226.752 844.001,-212.565 906,-199 907.449,-198.683 908.927,-198.354 910.42,-198.019"/>
<polygon fill="midnightblue" stroke="midnightblue" points="911.351,-201.396 920.312,-195.743 909.782,-194.574 911.351,-201.396"/>
</g>
<!-- Node22 -->
<g id="node22" class="node"><title>Node22</title>
<g id="a_node22"><a xlink:href="serializer_8h.html" target="_top" xlink:title="Serializer extension to support TVM data types Include this file to enable serialization of DLDataTyp...">
<polygon fill="white" stroke="black" points="696,-179.5 696,-198.5 826,-198.5 826,-179.5 696,-179.5"/>
<text text-anchor="middle" x="761" y="-186.5" font-family="Helvetica,sans-Serif" font-size="10.00">tvm/runtime/serializer.h</text>
</a>
</g>
</g>
<!-- Node21&#45;&gt;Node22 -->
<g id="edge33" class="edge"><title>Node21&#45;&gt;Node22</title>
<path fill="none" stroke="midnightblue" d="M689.578,-235.324C700.078,-226.9 718.695,-213.971 734.401,-204.074"/>
<polygon fill="midnightblue" stroke="midnightblue" points="736.538,-206.869 743.229,-198.655 732.875,-200.904 736.538,-206.869"/>
</g>
<!-- Node22&#45;&gt;Node5 -->
<g id="edge36" class="edge"><title>Node22&#45;&gt;Node5</title>
<path fill="none" stroke="midnightblue" d="M773.213,-179.388C783.921,-171.209 799.127,-157.964 808,-143 816.397,-128.837 821.165,-110.897 823.824,-96.6583"/>
<polygon fill="midnightblue" stroke="midnightblue" points="827.306,-97.0503 825.472,-86.6156 820.399,-95.917 827.306,-97.0503"/>
</g>
<!-- Node22&#45;&gt;Node17 -->
<g id="edge34" class="edge"><title>Node22&#45;&gt;Node17</title>
<path fill="none" stroke="midnightblue" d="M801.089,-179.444C848.339,-169.358 926.401,-152.697 973.73,-142.595"/>
<polygon fill="midnightblue" stroke="midnightblue" points="974.579,-145.993 983.628,-140.483 973.117,-139.147 974.579,-145.993"/>
</g>
<!-- Node22&#45;&gt;Node21 -->
<g id="edge37" class="edge"><title>Node22&#45;&gt;Node21</title>
<path fill="none" stroke="midnightblue" d="M753.225,-198.834C742.687,-207.263 724.196,-220.099 708.585,-229.935"/>
<polygon fill="midnightblue" stroke="midnightblue" points="706.498,-227.109 699.808,-235.324 710.161,-233.074 706.498,-227.109"/>
</g>
<!-- Node23 -->
<g id="node23" class="node"><title>Node23</title>
<polygon fill="white" stroke="#bfbfbf" points="705,-123.5 705,-142.5 799,-142.5 799,-123.5 705,-123.5"/>
<text text-anchor="middle" x="752" y="-130.5" font-family="Helvetica,sans-Serif" font-size="10.00">dmlc/serializer.h</text>
</g>
<!-- Node22&#45;&gt;Node23 -->
<g id="edge35" class="edge"><title>Node22&#45;&gt;Node23</title>
<path fill="none" stroke="midnightblue" d="M759.514,-179.083C758.321,-171.927 756.606,-161.635 755.115,-152.691"/>
<polygon fill="midnightblue" stroke="midnightblue" points="758.555,-152.04 753.459,-142.751 751.65,-153.19 758.555,-152.04"/>
</g>
<!-- Node24&#45;&gt;Node4 -->
<g id="edge43" class="edge"><title>Node24&#45;&gt;Node4</title>
<path fill="none" stroke="midnightblue" d="M1868.75,-235.464C1854.68,-213.326 1813.8,-153.659 1764,-123 1724.52,-98.6985 1673.15,-85.8367 1635.05,-79.1909"/>
<polygon fill="midnightblue" stroke="midnightblue" points="1635.61,-75.7361 1625.17,-77.5544 1634.47,-82.642 1635.61,-75.7361"/>
</g>
<!-- Node24&#45;&gt;Node5 -->
<g id="edge42" class="edge"><title>Node24&#45;&gt;Node5</title>
<path fill="none" stroke="midnightblue" d="M1864.98,-235.472C1839.78,-212.262 1765.49,-148.021 1690,-123 1652.85,-110.686 1103.12,-84.9042 900.916,-75.7834"/>
<polygon fill="midnightblue" stroke="midnightblue" points="900.836,-72.2763 890.688,-75.3229 900.521,-79.2692 900.836,-72.2763"/>
</g>
<!-- Node24&#45;&gt;Node9 -->
<g id="edge44" class="edge"><title>Node24&#45;&gt;Node9</title>
<path fill="none" stroke="midnightblue" d="M1880.27,-235.26C1899.68,-208.191 1959.05,-125.413 1984.83,-89.4622"/>
<polygon fill="midnightblue" stroke="midnightblue" points="1987.91,-91.1853 1990.89,-81.0194 1982.22,-87.1057 1987.91,-91.1853"/>
</g>
<!-- Node29&#45;&gt;Node2 -->
<g id="edge102" class="edge"><title>Node29&#45;&gt;Node2</title>
<path fill="none" stroke="midnightblue" d="M1473.71,-705.378C1531.45,-677.582 1706.79,-583.984 1771,-445 1776.78,-432.493 1779.93,-424.489 1771,-414 1744.64,-383.052 1635.51,-373.314 1561.81,-370.295"/>
<polygon fill="midnightblue" stroke="midnightblue" points="1561.78,-366.792 1551.65,-369.912 1561.51,-373.787 1561.78,-366.792"/>
</g>
<!-- Node29&#45;&gt;Node3 -->
<g id="edge61" class="edge"><title>Node29&#45;&gt;Node3</title>
<path fill="none" stroke="midnightblue" d="M1416.46,-714.376C1218.59,-715.81 326,-716.068 326,-604 326,-604 326,-604 326,-490 326,-298.983 998.438,-408.002 1169,-322 1191.59,-310.608 1314.67,-193.085 1359.59,-149.85"/>
<polygon fill="midnightblue" stroke="midnightblue" points="1362.02,-152.364 1366.79,-142.904 1357.16,-147.324 1362.02,-152.364"/>
</g>
<!-- Node29&#45;&gt;Node9 -->
<g id="edge117" class="edge"><title>Node29&#45;&gt;Node9</title>
<path fill="none" stroke="midnightblue" d="M1493.63,-707.946C1641.43,-683.784 2165.79,-588.563 2226,-445 2274.03,-330.485 2395.37,-452.328 2087,-123 2071.25,-106.183 2048.62,-93.5192 2029.99,-85.0791"/>
<polygon fill="midnightblue" stroke="midnightblue" points="2031.24,-81.8058 2020.67,-81.0509 2028.46,-88.2313 2031.24,-81.8058"/>
</g>
<!-- Node29&#45;&gt;Node10 -->
<g id="edge114" class="edge"><title>Node29&#45;&gt;Node10</title>
<path fill="none" stroke="midnightblue" d="M1416.34,-713.872C1227.11,-713.062 403.317,-707.343 296,-669 212.042,-639.003 136,-637.156 136,-548 136,-548 136,-548 136,-367 136,-305.569 66.6935,-289.521 95,-235 137.345,-153.439 241.501,-104.203 294.266,-83.6774"/>
<polygon fill="midnightblue" stroke="midnightblue" points="295.687,-86.8821 303.797,-80.0655 293.206,-80.3363 295.687,-86.8821"/>
</g>
<!-- Node29&#45;&gt;Node27 -->
<g id="edge116" class="edge"><title>Node29&#45;&gt;Node27</title>
<path fill="none" stroke="midnightblue" d="M1416.44,-713.614C1222.25,-711.525 358.766,-700.493 312,-669 294.792,-657.412 158.967,-309.663 150,-291 145.549,-281.736 140.052,-271.714 135.347,-263.485"/>
<polygon fill="midnightblue" stroke="midnightblue" points="138.35,-261.686 130.298,-254.801 132.298,-265.205 138.35,-261.686"/>
</g>
<!-- Node30 -->
<g id="node30" class="node"><title>Node30</title>
<g id="a_node30"><a xlink:href="node_8h.html" target="_top" xlink:title="Definitions and helper macros for IR/AST nodes. ">
<polygon fill="white" stroke="black" points="1445,-537.5 1445,-556.5 1543,-556.5 1543,-537.5 1445,-537.5"/>
<text text-anchor="middle" x="1494" y="-544.5" font-family="Helvetica,sans-Serif" font-size="10.00">tvm/node/node.h</text>
</a>
</g>
</g>
<!-- Node29&#45;&gt;Node30 -->
<g id="edge62" class="edge"><title>Node29&#45;&gt;Node30</title>
<path fill="none" stroke="midnightblue" d="M1457.1,-705.075C1463.24,-678.945 1481.26,-602.211 1489.64,-566.577"/>
<polygon fill="midnightblue" stroke="midnightblue" points="1493.11,-567.104 1491.99,-556.568 1486.29,-565.503 1493.11,-567.104"/>
</g>
<!-- Node37 -->
<g id="node37" class="node"><title>Node37</title>
<g id="a_node37"><a xlink:href="span_8h.html" target="_top" xlink:title="Span information for debugging purposes. ">
<polygon fill="white" stroke="black" points="1043,-593.5 1043,-612.5 1123,-612.5 1123,-593.5 1043,-593.5"/>
<text text-anchor="middle" x="1083" y="-600.5" font-family="Helvetica,sans-Serif" font-size="10.00">tvm/ir/span.h</text>
</a>
</g>
</g>
<!-- Node29&#45;&gt;Node37 -->
<g id="edge103" class="edge"><title>Node29&#45;&gt;Node37</title>
<path fill="none" stroke="midnightblue" d="M1426.12,-705.46C1359.84,-685.862 1196.79,-637.647 1121.83,-615.483"/>
<polygon fill="midnightblue" stroke="midnightblue" points="1122.44,-612.014 1111.86,-612.535 1120.46,-618.727 1122.44,-612.014"/>
</g>
<!-- Node38 -->
<g id="node38" class="node"><title>Node38</title>
<g id="a_node38"><a xlink:href="ir_2type_8h.html" target="_top" xlink:title="IR/AST nodes for the unified type system in TVM. ">
<polygon fill="white" stroke="black" points="1378.5,-649.5 1378.5,-668.5 1455.5,-668.5 1455.5,-649.5 1378.5,-649.5"/>
<text text-anchor="middle" x="1417" y="-656.5" font-family="Helvetica,sans-Serif" font-size="10.00">tvm/ir/type.h</text>
</a>
</g>
</g>
<!-- Node29&#45;&gt;Node38 -->
<g id="edge107" class="edge"><title>Node29&#45;&gt;Node38</title>
<path fill="none" stroke="midnightblue" d="M1448.73,-705.083C1443.36,-697.455 1435.48,-686.264 1428.92,-676.941"/>
<polygon fill="midnightblue" stroke="midnightblue" points="1431.78,-674.915 1423.16,-668.751 1426.05,-678.943 1431.78,-674.915"/>
</g>
<!-- Node39 -->
<g id="node39" class="node"><title>Node39</title>
<polygon fill="white" stroke="#bfbfbf" points="1820,-649.5 1820,-668.5 1882,-668.5 1882,-649.5 1820,-649.5"/>
<text text-anchor="middle" x="1851" y="-656.5" font-family="Helvetica,sans-Serif" font-size="10.00">algorithm</text>
</g>
<!-- Node29&#45;&gt;Node39 -->
<g id="edge115" class="edge"><title>Node29&#45;&gt;Node39</title>
<path fill="none" stroke="midnightblue" d="M1493.56,-709.948C1558.32,-702.945 1692.93,-687.532 1806,-669 1807.1,-668.82 1808.22,-668.632 1809.34,-668.439"/>
<polygon fill="midnightblue" stroke="midnightblue" points="1810.37,-671.809 1819.58,-666.575 1809.11,-664.922 1810.37,-671.809"/>
</g>
<!-- Node30&#45;&gt;Node2 -->
<g id="edge95" class="edge"><title>Node30&#45;&gt;Node2</title>
<path fill="none" stroke="midnightblue" d="M1490.64,-537.31C1482.89,-516.132 1465.1,-460.203 1474,-414 1475.79,-404.705 1479.48,-394.889 1483.06,-386.805"/>
<polygon fill="midnightblue" stroke="midnightblue" points="1486.27,-388.198 1487.38,-377.661 1479.94,-385.209 1486.27,-388.198"/>
</g>
<!-- Node30&#45;&gt;Node3 -->
<g id="edge64" class="edge"><title>Node30&#45;&gt;Node3</title>
<path fill="none" stroke="midnightblue" d="M1444.86,-545.182C1374.39,-542.852 1250.02,-534.035 1222,-501 1216.25,-494.221 1219.49,-489.526 1222,-481 1255.83,-366.303 1313.42,-361.4 1368,-255 1384.05,-223.712 1395.28,-213.765 1390,-179 1388.63,-170.001 1385.81,-160.325 1383.05,-152.26"/>
<polygon fill="midnightblue" stroke="midnightblue" points="1386.31,-150.976 1379.6,-142.778 1379.73,-153.372 1386.31,-150.976"/>
</g>
<!-- Node30&#45;&gt;Node5 -->
<g id="edge63" class="edge"><title>Node30&#45;&gt;Node5</title>
<path fill="none" stroke="midnightblue" d="M1444.89,-546.452C1263.76,-546.854 638.977,-536.609 550,-378 492.831,-276.092 513.327,-182.317 614,-123 656.287,-98.0845 710.116,-85.4555 753.08,-79.0574"/>
<polygon fill="midnightblue" stroke="midnightblue" points="753.777,-82.4939 763.192,-77.6356 752.803,-75.5621 753.777,-82.4939"/>
</g>
<!-- Node30&#45;&gt;Node9 -->
<g id="edge101" class="edge"><title>Node30&#45;&gt;Node9</title>
<path fill="none" stroke="midnightblue" d="M1543.05,-541.833C1592.89,-536.465 1671.68,-524.827 1736,-501 1883.75,-446.265 1923.97,-426.37 2042,-322 2092.66,-277.203 2110,-244.706 2094,-179 2087.37,-151.768 2083.16,-144.348 2065,-123 2052.57,-108.392 2035.16,-95.56 2021.06,-86.4868"/>
<polygon fill="midnightblue" stroke="midnightblue" points="2022.71,-83.3883 2012.36,-81.0862 2019.01,-89.335 2022.71,-83.3883"/>
</g>
<!-- Node30&#45;&gt;Node10 -->
<g id="edge98" class="edge"><title>Node30&#45;&gt;Node10</title>
<path fill="none" stroke="midnightblue" d="M1444.83,-544.735C1299.22,-540.729 871.894,-527.022 735,-501 656.435,-486.066 634.152,-483.395 564,-445 438.905,-376.535 420.664,-327.099 358,-199 346.101,-174.676 340.934,-169.176 334,-143 329.47,-125.9 327.505,-105.799 326.653,-91.4461"/>
<polygon fill="midnightblue" stroke="midnightblue" points="330.143,-91.1599 326.18,-81.3343 323.151,-91.4869 330.143,-91.1599"/>
</g>
<!-- Node30&#45;&gt;Node11 -->
<g id="edge100" class="edge"><title>Node30&#45;&gt;Node11</title>
<path fill="none" stroke="midnightblue" d="M1543.08,-544.463C1692.38,-539.552 2132.22,-523.248 2153,-501 2159.07,-494.504 2153.49,-489.875 2153,-481 2152.11,-464.926 2149.89,-461.074 2149,-445 2148.24,-431.243 2148.52,-427.769 2149,-414 2153.22,-293.334 2163.78,-263.666 2168,-143 2168.61,-125.607 2168.54,-105.787 2168.36,-91.6004"/>
<polygon fill="midnightblue" stroke="midnightblue" points="2171.85,-91.1292 2168.2,-81.1862 2164.86,-91.2406 2171.85,-91.1292"/>
</g>
<!-- Node30&#45;&gt;Node13 -->
<g id="edge65" class="edge"><title>Node30&#45;&gt;Node13</title>
<path fill="none" stroke="midnightblue" d="M1543.11,-544.199C1607.79,-538.871 1719.35,-518.812 1771,-445 1828.5,-362.832 1719,-246.714 1675.08,-205.359"/>
<polygon fill="midnightblue" stroke="midnightblue" points="1677.42,-202.751 1667.7,-198.532 1672.66,-207.891 1677.42,-202.751"/>
</g>
<!-- Node30&#45;&gt;Node19 -->
<g id="edge99" class="edge"><title>Node30&#45;&gt;Node19</title>
<path fill="none" stroke="midnightblue" d="M1444.98,-545.196C1381.07,-542.788 1266.63,-533.779 1175,-501 1036.99,-451.628 975.031,-446.707 898,-322 877.487,-288.792 868.83,-270.053 886,-235 892.523,-221.684 905.096,-211.177 916.873,-203.676"/>
<polygon fill="midnightblue" stroke="midnightblue" points="918.771,-206.621 925.611,-198.529 915.218,-200.589 918.771,-206.621"/>
</g>
<!-- Node31 -->
<g id="node31" class="node"><title>Node31</title>
<g id="a_node31"><a xlink:href="reflection_8h.html" target="_top" xlink:title="Reflection and serialization of compiler IR/AST nodes. ">
<polygon fill="white" stroke="black" points="1231.5,-481.5 1231.5,-500.5 1350.5,-500.5 1350.5,-481.5 1231.5,-481.5"/>
<text text-anchor="middle" x="1291" y="-488.5" font-family="Helvetica,sans-Serif" font-size="10.00">tvm/node/reflection.h</text>
</a>
</g>
</g>
<!-- Node30&#45;&gt;Node31 -->
<g id="edge66" class="edge"><title>Node30&#45;&gt;Node31</title>
<path fill="none" stroke="midnightblue" d="M1461.83,-537.444C1426.94,-528.162 1371.11,-513.309 1332.83,-503.127"/>
<polygon fill="midnightblue" stroke="midnightblue" points="1333.58,-499.705 1323.02,-500.516 1331.78,-506.47 1333.58,-499.705"/>
</g>
<!-- Node32 -->
<g id="node32" class="node"><title>Node32</title>
<g id="a_node32"><a xlink:href="structural__equal_8h.html" target="_top" xlink:title="Structural equality comparison. ">
<polygon fill="white" stroke="black" points="1651.5,-414.5 1651.5,-444.5 1762.5,-444.5 1762.5,-414.5 1651.5,-414.5"/>
<text text-anchor="start" x="1659.5" y="-432.5" font-family="Helvetica,sans-Serif" font-size="10.00">tvm/node/structural</text>
<text text-anchor="middle" x="1707" y="-421.5" font-family="Helvetica,sans-Serif" font-size="10.00">_equal.h</text>
</a>
</g>
</g>
<!-- Node30&#45;&gt;Node32 -->
<g id="edge96" class="edge"><title>Node30&#45;&gt;Node32</title>
<path fill="none" stroke="midnightblue" d="M1510.01,-537.319C1544.3,-518.727 1625.49,-474.699 1672.23,-449.353"/>
<polygon fill="midnightblue" stroke="midnightblue" points="1673.98,-452.389 1681.1,-444.545 1670.64,-446.235 1673.98,-452.389"/>
</g>
<!-- Node34 -->
<g id="node34" class="node"><title>Node34</title>
<g id="a_node34"><a xlink:href="structural__hash_8h.html" target="_top" xlink:title="tvm/node/structural\l_hash.h">
<polygon fill="white" stroke="black" points="1483.5,-414.5 1483.5,-444.5 1594.5,-444.5 1594.5,-414.5 1483.5,-414.5"/>
<text text-anchor="start" x="1491.5" y="-432.5" font-family="Helvetica,sans-Serif" font-size="10.00">tvm/node/structural</text>
<text text-anchor="middle" x="1539" y="-421.5" font-family="Helvetica,sans-Serif" font-size="10.00">_hash.h</text>
</a>
</g>
</g>
<!-- Node30&#45;&gt;Node34 -->
<g id="edge97" class="edge"><title>Node30&#45;&gt;Node34</title>
<path fill="none" stroke="midnightblue" d="M1497.38,-537.319C1504.2,-519.812 1519.81,-479.749 1529.86,-453.97"/>
<polygon fill="midnightblue" stroke="midnightblue" points="1533.16,-455.134 1533.53,-444.545 1526.64,-452.592 1533.16,-455.134"/>
</g>
<!-- Node35 -->
<g id="node35" class="node"><title>Node35</title>
<g id="a_node35"><a xlink:href="repr__printer_8h.html" target="_top" xlink:title="Printer class to print repr string of each AST/IR nodes. ">
<polygon fill="white" stroke="black" points="2014,-481.5 2014,-500.5 2144,-500.5 2144,-481.5 2014,-481.5"/>
<text text-anchor="middle" x="2079" y="-488.5" font-family="Helvetica,sans-Serif" font-size="10.00">tvm/node/repr_printer.h</text>
</a>
</g>
</g>
<!-- Node30&#45;&gt;Node35 -->
<g id="edge92" class="edge"><title>Node30&#45;&gt;Node35</title>
<path fill="none" stroke="midnightblue" d="M1543.12,-541.466C1645.45,-532.02 1882.01,-510.183 2003.7,-498.951"/>
<polygon fill="midnightblue" stroke="midnightblue" points="2004.05,-502.433 2013.69,-498.029 2003.41,-495.463 2004.05,-502.433"/>
</g>
<!-- Node31&#45;&gt;Node3 -->
<g id="edge68" class="edge"><title>Node31&#45;&gt;Node3</title>
<path fill="none" stroke="midnightblue" d="M1292.83,-481.322C1300.03,-449.562 1329.59,-339.019 1401,-291 1464.01,-248.633 1520.3,-314.075 1568,-255 1573.58,-248.084 1572.59,-242.609 1568,-235 1550.02,-205.227 1458.05,-165.845 1408.21,-146.215"/>
<polygon fill="midnightblue" stroke="midnightblue" points="1409.43,-142.932 1398.84,-142.561 1406.88,-149.454 1409.43,-142.932"/>
</g>
<!-- Node31&#45;&gt;Node5 -->
<g id="edge67" class="edge"><title>Node31&#45;&gt;Node5</title>
<path fill="none" stroke="midnightblue" d="M1231.31,-486.478C1055.86,-475.336 554,-437.479 554,-369 554,-369 554,-369 554,-244 554,-149.664 672.33,-105.207 753.182,-85.8417"/>
<polygon fill="midnightblue" stroke="midnightblue" points="754.384,-89.1561 763.338,-83.4927 752.807,-82.3362 754.384,-89.1561"/>
</g>
<!-- Node31&#45;&gt;Node9 -->
<g id="edge91" class="edge"><title>Node31&#45;&gt;Node9</title>
<path fill="none" stroke="midnightblue" d="M1350.86,-487.82C1461.72,-483.217 1694.66,-470.746 1771,-445 1846.67,-419.479 2037.24,-324.814 2076,-255 2108.75,-196.008 2045.45,-120.723 2013.67,-88.4042"/>
<polygon fill="midnightblue" stroke="midnightblue" points="2015.92,-85.7004 2006.35,-81.1493 2010.99,-90.6735 2015.92,-85.7004"/>
</g>
<!-- Node31&#45;&gt;Node10 -->
<g id="edge90" class="edge"><title>Node31&#45;&gt;Node10</title>
<path fill="none" stroke="midnightblue" d="M1231.48,-489.766C1092.47,-488.594 750.08,-481.928 642,-445 488.692,-392.618 454.143,-339.225 373,-199 358.962,-174.741 353.976,-169.193 344,-143 337.543,-126.047 332.666,-105.929 329.628,-91.5312"/>
<polygon fill="midnightblue" stroke="midnightblue" points="332.991,-90.4969 327.591,-81.381 326.127,-91.8742 332.991,-90.4969"/>
</g>
<!-- Node31&#45;&gt;Node13 -->
<g id="edge69" class="edge"><title>Node31&#45;&gt;Node13</title>
<path fill="none" stroke="midnightblue" d="M1296.17,-481.304C1317.12,-446.355 1396.42,-316.781 1436,-291 1499.26,-249.797 1537.12,-293.593 1602,-255 1621.53,-243.382 1637.67,-222.523 1647.53,-207.566"/>
<polygon fill="midnightblue" stroke="midnightblue" points="1650.71,-209.075 1653.07,-198.745 1644.79,-205.351 1650.71,-209.075"/>
</g>
<!-- Node31&#45;&gt;Node15 -->
<g id="edge70" class="edge"><title>Node31&#45;&gt;Node15</title>
<path fill="none" stroke="midnightblue" d="M1286.56,-481.378C1278.67,-466.572 1261.15,-435.807 1241,-414 1208.94,-379.311 1164.77,-347.166 1135.34,-327.46"/>
<polygon fill="midnightblue" stroke="midnightblue" points="1136.98,-324.35 1126.71,-321.755 1133.12,-330.19 1136.98,-324.35"/>
</g>
<!-- Node31&#45;&gt;Node19 -->
<g id="edge89" class="edge"><title>Node31&#45;&gt;Node19</title>
<path fill="none" stroke="midnightblue" d="M1255.26,-481.454C1185.25,-463.123 1028.37,-414.025 931,-322 900.587,-293.257 878.168,-273.312 895,-235 900.39,-222.732 910.958,-212.341 920.904,-204.646"/>
<polygon fill="midnightblue" stroke="midnightblue" points="923.252,-207.27 929.339,-198.598 919.172,-201.581 923.252,-207.27"/>
</g>
<!-- Node31&#45;&gt;Node21 -->
<g id="edge71" class="edge"><title>Node31&#45;&gt;Node21</title>
<path fill="none" stroke="midnightblue" d="M1231.34,-488.351C1133.63,-483.183 936.336,-462.213 796,-378 747.691,-349.011 709.384,-292.432 692.06,-263.682"/>
<polygon fill="midnightblue" stroke="midnightblue" points="694.905,-261.616 686.825,-254.764 688.869,-265.159 694.905,-261.616"/>
</g>
<!-- Node31&#45;&gt;Node24 -->
<g id="edge72" class="edge"><title>Node31&#45;&gt;Node24</title>
<path fill="none" stroke="midnightblue" d="M1350.7,-490.528C1415.41,-489.055 1520.47,-480.618 1603,-445 1623.33,-436.226 1624.54,-427.611 1642,-414 1713.03,-358.648 1729.12,-342.486 1803,-291 1818.71,-280.048 1836.98,-268.498 1851.05,-259.841"/>
<polygon fill="midnightblue" stroke="midnightblue" points="1852.91,-262.806 1859.62,-254.606 1849.26,-256.832 1852.91,-262.806"/>
</g>
<!-- Node31&#45;&gt;Node32 -->
<g id="edge73" class="edge"><title>Node31&#45;&gt;Node32</title>
<path fill="none" stroke="midnightblue" d="M1350.59,-483.624C1419.7,-475.911 1536.94,-461.845 1637,-445 1638.45,-444.755 1639.92,-444.502 1641.4,-444.242"/>
<polygon fill="midnightblue" stroke="midnightblue" points="1642.08,-447.676 1651.29,-442.433 1640.82,-440.79 1642.08,-447.676"/>
</g>
<!-- Node31&#45;&gt;Node34 -->
<g id="edge83" class="edge"><title>Node31&#45;&gt;Node34</title>
<path fill="none" stroke="midnightblue" d="M1326.53,-481.475C1364.79,-472.295 1426.51,-457.49 1473.59,-446.194"/>
<polygon fill="midnightblue" stroke="midnightblue" points="1474.49,-449.577 1483.4,-443.84 1472.86,-442.77 1474.49,-449.577"/>
</g>
<!-- Node32&#45;&gt;Node2 -->
<g id="edge81" class="edge"><title>Node32&#45;&gt;Node2</title>
<path fill="none" stroke="midnightblue" d="M1656.32,-414.475C1618.58,-404.03 1567.73,-389.958 1532.64,-380.247"/>
<polygon fill="midnightblue" stroke="midnightblue" points="1533.31,-376.8 1522.74,-377.506 1531.44,-383.547 1533.31,-376.8"/>
</g>
<!-- Node32&#45;&gt;Node10 -->
<g id="edge82" class="edge"><title>Node32&#45;&gt;Node10</title>
<path fill="none" stroke="midnightblue" d="M1651.46,-420.361C1635.8,-418.174 1618.75,-415.893 1603,-414 1199.4,-365.48 1085.8,-426.669 693,-322 622.447,-303.2 604.875,-293.764 543,-255 460.354,-203.224 375.663,-122.285 341.589,-88.33"/>
<polygon fill="midnightblue" stroke="midnightblue" points="343.934,-85.7245 334.397,-81.1089 338.974,-90.6642 343.934,-85.7245"/>
</g>
<!-- Node32&#45;&gt;Node24 -->
<g id="edge74" class="edge"><title>Node32&#45;&gt;Node24</title>
<path fill="none" stroke="midnightblue" d="M1720.55,-414.445C1730.22,-404.365 1743.5,-390.427 1755,-378 1793.23,-336.704 1837.39,-287.251 1859.62,-262.224"/>
<polygon fill="midnightblue" stroke="midnightblue" points="1862.26,-264.523 1866.28,-254.72 1857.03,-259.876 1862.26,-264.523"/>
</g>
<!-- Node33 -->
<g id="node33" class="node"><title>Node33</title>
<g id="a_node33"><a xlink:href="functor_8h.html" target="_top" xlink:title="Defines the Functor data structures. ">
<polygon fill="white" stroke="black" points="1960.5,-235.5 1960.5,-254.5 2067.5,-254.5 2067.5,-235.5 1960.5,-235.5"/>
<text text-anchor="middle" x="2014" y="-242.5" font-family="Helvetica,sans-Serif" font-size="10.00">tvm/node/functor.h</text>
</a>
</g>
</g>
<!-- Node32&#45;&gt;Node33 -->
<g id="edge75" class="edge"><title>Node32&#45;&gt;Node33</title>
<path fill="none" stroke="midnightblue" d="M1730.58,-414.483C1787.9,-380.406 1934.02,-293.544 1990.87,-259.748"/>
<polygon fill="midnightblue" stroke="midnightblue" points="1992.7,-262.734 1999.51,-254.615 1989.12,-256.717 1992.7,-262.734"/>
</g>
<!-- Node33&#45;&gt;Node3 -->
<g id="edge77" class="edge"><title>Node33&#45;&gt;Node3</title>
<path fill="none" stroke="midnightblue" d="M1981.42,-235.439C1928.84,-221.875 1821.88,-195.314 1730,-179 1631.45,-161.503 1516.31,-148.168 1444.76,-140.711"/>
<polygon fill="midnightblue" stroke="midnightblue" points="1444.83,-137.2 1434.52,-139.653 1444.11,-144.163 1444.83,-137.2"/>
</g>
<!-- Node33&#45;&gt;Node4 -->
<g id="edge76" class="edge"><title>Node33&#45;&gt;Node4</title>
<path fill="none" stroke="midnightblue" d="M2001.01,-235.365C1967.58,-213.505 1875.28,-155.41 1791,-123 1739.55,-103.216 1677.92,-89.4534 1634.97,-81.3482"/>
<polygon fill="midnightblue" stroke="midnightblue" points="1635.48,-77.8841 1625.01,-79.5077 1634.21,-84.7674 1635.48,-77.8841"/>
</g>
<!-- Node33&#45;&gt;Node9 -->
<g id="edge79" class="edge"><title>Node33&#45;&gt;Node9</title>
<path fill="none" stroke="midnightblue" d="M2013.13,-235.26C2010.5,-208.651 2002.52,-128.215 1998.87,-91.3382"/>
<polygon fill="midnightblue" stroke="midnightblue" points="2002.31,-90.6253 1997.84,-81.0194 1995.35,-91.3159 2002.31,-90.6253"/>
</g>
<!-- Node33&#45;&gt;Node11 -->
<g id="edge80" class="edge"><title>Node33&#45;&gt;Node11</title>
<path fill="none" stroke="midnightblue" d="M2021.85,-235.26C2046.36,-207.96 2121.76,-124 2153.58,-88.5546"/>
<polygon fill="midnightblue" stroke="midnightblue" points="2156.27,-90.7983 2160.35,-81.0194 2151.06,-86.1214 2156.27,-90.7983"/>
</g>
<!-- Node33&#45;&gt;Node19 -->
<g id="edge78" class="edge"><title>Node33&#45;&gt;Node19</title>
<path fill="none" stroke="midnightblue" d="M1960.43,-235.982C1957.24,-235.618 1954.08,-235.287 1951,-235 1586.89,-201.101 1494.29,-215.885 1129,-199 1076.23,-196.561 1015,-193.546 977.903,-191.699"/>
<polygon fill="midnightblue" stroke="midnightblue" points="977.815,-188.19 967.653,-191.187 977.466,-195.181 977.815,-188.19"/>
</g>
<!-- Node34&#45;&gt;Node2 -->
<g id="edge86" class="edge"><title>Node34&#45;&gt;Node2</title>
<path fill="none" stroke="midnightblue" d="M1527.86,-414.399C1521.03,-405.753 1512.26,-394.642 1505.09,-385.576"/>
<polygon fill="midnightblue" stroke="midnightblue" points="1507.78,-383.335 1498.84,-377.658 1502.29,-387.674 1507.78,-383.335"/>
</g>
<!-- Node34&#45;&gt;Node10 -->
<g id="edge87" class="edge"><title>Node34&#45;&gt;Node10</title>
<path fill="none" stroke="midnightblue" d="M1483.19,-428.951C1292.44,-429.559 668.999,-423.568 502,-322 408.722,-265.269 351.616,-138.331 332.854,-90.8711"/>
<polygon fill="midnightblue" stroke="midnightblue" points="336.027,-89.3729 329.168,-81.298 329.495,-91.8878 336.027,-89.3729"/>
</g>
<!-- Node34&#45;&gt;Node24 -->
<g id="edge84" class="edge"><title>Node34&#45;&gt;Node24</title>
<path fill="none" stroke="midnightblue" d="M1559.56,-414.49C1598.55,-388.274 1686.34,-330.861 1765,-291 1789.7,-278.48 1818.74,-266.626 1840.63,-258.23"/>
<polygon fill="midnightblue" stroke="midnightblue" points="1842.03,-261.442 1850.14,-254.626 1839.55,-254.896 1842.03,-261.442"/>
</g>
<!-- Node34&#45;&gt;Node25 -->
<g id="edge88" class="edge"><title>Node34&#45;&gt;Node25</title>
<path fill="none" stroke="midnightblue" d="M1546.64,-414.393C1551.53,-404.521 1557.43,-390.85 1560,-378 1568.24,-336.742 1549.45,-288.877 1537.3,-263.654"/>
<polygon fill="midnightblue" stroke="midnightblue" points="1540.37,-261.958 1532.75,-254.595 1534.12,-265.101 1540.37,-261.958"/>
</g>
<!-- Node34&#45;&gt;Node33 -->
<g id="edge85" class="edge"><title>Node34&#45;&gt;Node33</title>
<path fill="none" stroke="midnightblue" d="M1572.48,-414.479C1633.74,-388.966 1768.14,-333.653 1883,-291 1914.98,-279.123 1951.75,-266.589 1978.18,-257.775"/>
<polygon fill="midnightblue" stroke="midnightblue" points="1979.38,-261.063 1987.77,-254.588 1977.17,-254.42 1979.38,-261.063"/>
</g>
<!-- Node35&#45;&gt;Node33 -->
<g id="edge93" class="edge"><title>Node35&#45;&gt;Node33</title>
<path fill="none" stroke="midnightblue" d="M2076.69,-481.316C2067.31,-446.11 2032,-313.561 2018.92,-264.452"/>
<polygon fill="midnightblue" stroke="midnightblue" points="2022.24,-263.342 2016.29,-254.58 2015.48,-265.144 2022.24,-263.342"/>
</g>
<!-- Node36 -->
<g id="node36" class="node"><title>Node36</title>
<polygon fill="white" stroke="#bfbfbf" points="2158.5,-420 2158.5,-439 2217.5,-439 2217.5,-420 2158.5,-420"/>
<text text-anchor="middle" x="2188" y="-427" font-family="Helvetica,sans-Serif" font-size="10.00">iostream</text>
</g>
<!-- Node35&#45;&gt;Node36 -->
<g id="edge94" class="edge"><title>Node35&#45;&gt;Node36</title>
<path fill="none" stroke="midnightblue" d="M2094.62,-481.475C2112.59,-471.666 2142.32,-455.435 2163.41,-443.925"/>
<polygon fill="midnightblue" stroke="midnightblue" points="2165.31,-446.873 2172.41,-439.009 2161.96,-440.728 2165.31,-446.873"/>
</g>
<!-- Node37&#45;&gt;Node3 -->
<g id="edge104" class="edge"><title>Node37&#45;&gt;Node3</title>
<path fill="none" stroke="midnightblue" d="M1084.46,-593.414C1089.31,-566.154 1106.33,-479.505 1137,-414 1149.76,-386.761 1155.12,-380.569 1175,-358 1204.77,-324.213 1217.19,-320.744 1251,-291 1269.21,-274.982 1275.86,-273.094 1292,-255 1322.23,-221.124 1350.93,-176.039 1365.68,-151.585"/>
<polygon fill="midnightblue" stroke="midnightblue" points="1368.84,-153.118 1370.95,-142.735 1362.83,-149.535 1368.84,-153.118"/>
</g>
<!-- Node37&#45;&gt;Node10 -->
<g id="edge106" class="edge"><title>Node37&#45;&gt;Node10</title>
<path fill="none" stroke="midnightblue" d="M1042.67,-598.302C944.931,-587.849 690.236,-551.572 510,-445 396.465,-377.868 392,-321.853 344,-199 334.486,-174.65 330.049,-168.828 326,-143 323.278,-125.635 323.61,-105.567 324.426,-91.2929"/>
<polygon fill="midnightblue" stroke="midnightblue" points="327.922,-91.4719 325.135,-81.2501 320.939,-90.9787 327.922,-91.4719"/>
</g>
<!-- Node37&#45;&gt;Node30 -->
<g id="edge105" class="edge"><title>Node37&#45;&gt;Node30</title>
<path fill="none" stroke="midnightblue" d="M1123.16,-596.724C1195.94,-587.161 1349.97,-566.923 1434.83,-555.774"/>
<polygon fill="midnightblue" stroke="midnightblue" points="1435.37,-559.234 1444.82,-554.461 1434.45,-552.294 1435.37,-559.234"/>
</g>
<!-- Node38&#45;&gt;Node2 -->
<g id="edge111" class="edge"><title>Node38&#45;&gt;Node2</title>
<path fill="none" stroke="midnightblue" d="M1417,-649.442C1417,-630.936 1417,-585.812 1417,-548 1417,-548 1417,-548 1417,-490 1417,-446.637 1452.23,-405.876 1474.4,-384.519"/>
<polygon fill="midnightblue" stroke="midnightblue" points="1476.94,-386.932 1481.89,-377.56 1472.18,-381.805 1476.94,-386.932"/>
</g>
<!-- Node38&#45;&gt;Node3 -->
<g id="edge108" class="edge"><title>Node38&#45;&gt;Node3</title>
<path fill="none" stroke="midnightblue" d="M1378.32,-650.419C1304.55,-634.847 1151,-596.599 1151,-548 1151,-548 1151,-548 1151,-490 1151,-331.797 1286.32,-341.031 1356,-199 1363.31,-184.094 1368.63,-165.951 1371.93,-152.624"/>
<polygon fill="midnightblue" stroke="midnightblue" points="1375.37,-153.273 1374.23,-142.74 1368.56,-151.685 1375.37,-153.273"/>
</g>
<!-- Node38&#45;&gt;Node10 -->
<g id="edge113" class="edge"><title>Node38&#45;&gt;Node10</title>
<path fill="none" stroke="midnightblue" d="M1378.17,-654.653C1175.68,-636.694 250,-548.158 250,-430.5 250,-430.5 250,-430.5 250,-367 250,-259.227 298.309,-136.106 317.896,-90.6153"/>
<polygon fill="midnightblue" stroke="midnightblue" points="321.108,-92.0059 321.914,-81.4418 314.696,-89.1975 321.108,-92.0059"/>
</g>
<!-- Node38&#45;&gt;Node24 -->
<g id="edge109" class="edge"><title>Node38&#45;&gt;Node24</title>
<path fill="none" stroke="midnightblue" d="M1441.48,-649.482C1497.28,-629.347 1636.72,-574.898 1736,-501 1818.99,-439.226 1857.67,-312.284 1869.7,-264.627"/>
<polygon fill="midnightblue" stroke="midnightblue" points="1873.14,-265.311 1872.09,-254.768 1866.33,-263.663 1873.14,-265.311"/>
</g>
<!-- Node38&#45;&gt;Node30 -->
<g id="edge110" class="edge"><title>Node38&#45;&gt;Node30</title>
<path fill="none" stroke="midnightblue" d="M1423.04,-649.368C1435.75,-631.215 1465.44,-588.802 1482.11,-564.99"/>
<polygon fill="midnightblue" stroke="midnightblue" points="1485.12,-566.791 1487.99,-556.591 1479.38,-562.777 1485.12,-566.791"/>
</g>
<!-- Node38&#45;&gt;Node37 -->
<g id="edge112" class="edge"><title>Node38&#45;&gt;Node37</title>
<path fill="none" stroke="midnightblue" d="M1378.49,-651.883C1324.5,-643.291 1223.24,-627.117 1137,-613 1135.73,-612.793 1134.45,-612.582 1133.16,-612.37"/>
<polygon fill="midnightblue" stroke="midnightblue" points="1133.54,-608.885 1123.1,-610.71 1132.4,-615.792 1133.54,-608.885"/>
</g>
<!-- Node40&#45;&gt;Node20 -->
<g id="edge133" class="edge"><title>Node40&#45;&gt;Node20</title>
<path fill="none" stroke="midnightblue" d="M2018.18,-820.957C2125.71,-807.395 2362,-759.859 2362,-604 2362,-604 2362,-604 2362,-305.5 2362,-271.362 2361.56,-231.551 2361.26,-208.709"/>
<polygon fill="midnightblue" stroke="midnightblue" points="2364.76,-208.645 2361.13,-198.693 2357.76,-208.739 2364.76,-208.645"/>
</g>
<!-- Node40&#45;&gt;Node29 -->
<g id="edge119" class="edge"><title>Node40&#45;&gt;Node29</title>
<path fill="none" stroke="midnightblue" d="M1926.33,-817.46C1833.83,-797.549 1604.1,-748.097 1503.5,-726.439"/>
<polygon fill="midnightblue" stroke="midnightblue" points="1504.11,-722.992 1493.6,-724.309 1502.64,-729.835 1504.11,-722.992"/>
</g>
<!-- Node40&#45;&gt;Node41 -->
<g id="edge120" class="edge"><title>Node40&#45;&gt;Node41</title>
<path fill="none" stroke="midnightblue" d="M1957,-817.324C1948.81,-809.42 1936.49,-797.548 1926.53,-787.938"/>
<polygon fill="midnightblue" stroke="midnightblue" points="1928.79,-785.256 1919.16,-780.834 1923.93,-790.295 1928.79,-785.256"/>
</g>
<!-- Node41&#45;&gt;Node2 -->
<g id="edge122" class="edge"><title>Node41&#45;&gt;Node2</title>
<path fill="none" stroke="midnightblue" d="M1915.28,-761.231C1925.73,-743.043 1948,-699.601 1948,-660 1948,-660 1948,-660 1948,-546 1948,-453.812 1872.16,-451.619 1788,-414 1715.29,-381.5 1623.58,-371.784 1561.66,-369.22"/>
<polygon fill="midnightblue" stroke="midnightblue" points="1561.73,-365.721 1551.61,-368.856 1561.48,-372.716 1561.73,-365.721"/>
</g>
<!-- Node41&#45;&gt;Node5 -->
<g id="edge124" class="edge"><title>Node41&#45;&gt;Node5</title>
<path fill="none" stroke="midnightblue" d="M1869.91,-769.439C1620.13,-765.689 288,-741.851 288,-660 288,-660 288,-660 288,-490 288,-281.282 401.162,-228.931 581,-123 633.475,-92.09 701.928,-79.8765 753.297,-75.159"/>
<polygon fill="midnightblue" stroke="midnightblue" points="753.663,-78.6407 763.333,-74.3122 753.074,-71.6655 753.663,-78.6407"/>
</g>
<!-- Node41&#45;&gt;Node10 -->
<g id="edge127" class="edge"><title>Node41&#45;&gt;Node10</title>
<path fill="none" stroke="midnightblue" d="M1869.99,-770.254C1628.83,-771.609 373.738,-776.147 211,-725 -3.51707,-657.579 27.8758,-452.486 85,-235 101.437,-172.421 122.231,-155.804 178,-123 215.108,-101.173 263.031,-87.0097 294.133,-79.3912"/>
<polygon fill="midnightblue" stroke="midnightblue" points="295.07,-82.766 303.995,-77.0568 293.458,-75.9542 295.07,-82.766"/>
</g>
<!-- Node41&#45;&gt;Node11 -->
<g id="edge132" class="edge"><title>Node41&#45;&gt;Node11</title>
<path fill="none" stroke="midnightblue" d="M1950.03,-768.169C2032.73,-763.891 2219.52,-751.527 2277,-725 2346.63,-692.869 2400,-680.684 2400,-604 2400,-604 2400,-604 2400,-305.5 2400,-248.83 2447.18,-226.322 2416,-179 2367.06,-104.718 2254.32,-82.0392 2199.32,-75.2787"/>
<polygon fill="midnightblue" stroke="midnightblue" points="2199.46,-71.7719 2189.13,-74.1283 2198.67,-78.7277 2199.46,-71.7719"/>
</g>
<!-- Node41&#45;&gt;Node20 -->
<g id="edge129" class="edge"><title>Node41&#45;&gt;Node20</title>
<path fill="none" stroke="midnightblue" d="M1950.07,-767.889C2053.97,-761.327 2324,-736.879 2324,-660 2324,-660 2324,-660 2324,-305.5 2324,-269.509 2340.5,-230.088 2351.46,-207.863"/>
<polygon fill="midnightblue" stroke="midnightblue" points="2354.72,-209.176 2356.16,-198.68 2348.49,-205.984 2354.72,-209.176"/>
</g>
<!-- Node41&#45;&gt;Node24 -->
<g id="edge125" class="edge"><title>Node41&#45;&gt;Node24</title>
<path fill="none" stroke="midnightblue" d="M1921.54,-761.433C1942.8,-744.571 1986,-704.799 1986,-660 1986,-660 1986,-660 1986,-546 1986,-432.053 1914.21,-308.263 1885.58,-263.431"/>
<polygon fill="midnightblue" stroke="midnightblue" points="1888.4,-261.353 1880.02,-254.873 1882.53,-265.166 1888.4,-261.353"/>
</g>
<!-- Node41&#45;&gt;Node27 -->
<g id="edge131" class="edge"><title>Node41&#45;&gt;Node27</title>
<path fill="none" stroke="midnightblue" d="M1870,-770.064C1634.32,-770.289 431.826,-769.245 274,-725 167.18,-695.054 98,-658.938 98,-548 98,-548 98,-548 98,-367 98,-329.838 110.281,-287.764 118.278,-264.308"/>
<polygon fill="midnightblue" stroke="midnightblue" points="121.656,-265.252 121.689,-254.657 115.057,-262.919 121.656,-265.252"/>
</g>
<!-- Node41&#45;&gt;Node29 -->
<g id="edge126" class="edge"><title>Node41&#45;&gt;Node29</title>
<path fill="none" stroke="midnightblue" d="M1869.62,-765.208C1785.96,-755.279 1593.97,-732.493 1503.65,-721.774"/>
<polygon fill="midnightblue" stroke="midnightblue" points="1504.01,-718.293 1493.67,-720.59 1503.19,-725.244 1504.01,-718.293"/>
</g>
<!-- Node41&#45;&gt;Node30 -->
<g id="edge121" class="edge"><title>Node41&#45;&gt;Node30</title>
<path fill="none" stroke="midnightblue" d="M1911.53,-761.344C1914.88,-739.433 1920.35,-681.229 1891,-649 1845.96,-599.549 1652.79,-568.241 1553.48,-555.111"/>
<polygon fill="midnightblue" stroke="midnightblue" points="1553.66,-551.606 1543.3,-553.786 1552.76,-558.548 1553.66,-551.606"/>
</g>
<!-- Node41&#45;&gt;Node33 -->
<g id="edge123" class="edge"><title>Node41&#45;&gt;Node33</title>
<path fill="none" stroke="midnightblue" d="M1950.24,-766.815C2047.24,-758.034 2286,-729.374 2286,-660 2286,-660 2286,-660 2286,-546 2286,-400.966 2109.37,-294.865 2040.78,-259.133"/>
<polygon fill="midnightblue" stroke="midnightblue" points="2042.34,-256.003 2031.85,-254.562 2039.15,-262.234 2042.34,-256.003"/>
</g>
<!-- Node41&#45;&gt;Node36 -->
<g id="edge130" class="edge"><title>Node41&#45;&gt;Node36</title>
<path fill="none" stroke="midnightblue" d="M1950.15,-763.923C2031.9,-750.417 2210,-714.711 2210,-660 2210,-660 2210,-660 2210,-546 2210,-511.091 2200.18,-471.279 2193.66,-448.693"/>
<polygon fill="midnightblue" stroke="midnightblue" points="2197.01,-447.662 2190.79,-439.087 2190.3,-449.67 2197.01,-447.662"/>
</g>
<!-- Node41&#45;&gt;Node39 -->
<g id="edge128" class="edge"><title>Node41&#45;&gt;Node39</title>
<path fill="none" stroke="midnightblue" d="M1905.37,-761.368C1895.72,-743.376 1873.29,-701.55 1860.45,-677.627"/>
<polygon fill="midnightblue" stroke="midnightblue" points="1863.42,-675.749 1855.61,-668.591 1857.25,-679.058 1863.42,-675.749"/>
</g>
<!-- Node42&#45;&gt;Node9 -->
<g id="edge137" class="edge"><title>Node42&#45;&gt;Node9</title>
<path fill="none" stroke="midnightblue" d="M1895.68,-818.324C1993.67,-800.044 2236.22,-753.346 2314,-725 2372.46,-703.694 2438,-722.224 2438,-660 2438,-660 2438,-660 2438,-305.5 2438,-248.434 2454.77,-220.87 2416,-179 2365.01,-123.941 2138.03,-89.9172 2041.11,-77.6602"/>
<polygon fill="midnightblue" stroke="midnightblue" points="2041.4,-74.1699 2031.05,-76.4071 2040.54,-81.1162 2041.4,-74.1699"/>
</g>
<!-- Node42&#45;&gt;Node10 -->
<g id="edge138" class="edge"><title>Node42&#45;&gt;Node10</title>
<path fill="none" stroke="midnightblue" d="M1812.34,-825.145C1619.16,-821.09 809.369,-803.071 557,-781 298.234,-758.369 0,-863.754 0,-604 0,-604 0,-604 0,-188 0,-126.091 211.525,-88.9767 293.803,-76.8819"/>
<polygon fill="midnightblue" stroke="midnightblue" points="294.45,-80.325 303.849,-75.4357 293.452,-73.3964 294.45,-80.325"/>
</g>
<!-- Node42&#45;&gt;Node11 -->
<g id="edge140" class="edge"><title>Node42&#45;&gt;Node11</title>
<path fill="none" stroke="midnightblue" d="M1895.73,-818.543C1898.87,-818.011 1901.98,-817.491 1905,-817 2114.65,-782.848 2173.58,-795.389 2374,-725 2438.73,-702.267 2514,-728.602 2514,-660 2514,-660 2514,-660 2514,-188 2514,-121.956 2284.31,-86.8589 2199.22,-76.1227"/>
<polygon fill="midnightblue" stroke="midnightblue" points="2199.48,-72.628 2189.12,-74.8783 2198.62,-79.5754 2199.48,-72.628"/>
</g>
<!-- Node42&#45;&gt;Node19 -->
<g id="edge139" class="edge"><title>Node42&#45;&gt;Node19</title>
<path fill="none" stroke="midnightblue" d="M1812.49,-824.461C1569.61,-815.316 341.128,-767.103 274,-725 197.456,-676.991 174,-638.353 174,-548 174,-548 174,-548 174,-428.5 174,-272.174 760.425,-207.057 909.739,-193.011"/>
<polygon fill="midnightblue" stroke="midnightblue" points="910.476,-196.458 920.111,-192.052 909.831,-189.488 910.476,-196.458"/>
</g>
<!-- Node42&#45;&gt;Node41 -->
<g id="edge136" class="edge"><title>Node42&#45;&gt;Node41</title>
<path fill="none" stroke="midnightblue" d="M1863,-817.324C1871.19,-809.42 1883.51,-797.548 1893.47,-787.938"/>
<polygon fill="midnightblue" stroke="midnightblue" points="1896.07,-790.295 1900.84,-780.834 1891.21,-785.256 1896.07,-790.295"/>
</g>
</g>
</svg>
