<?xml version="1.0" encoding="UTF-8" standalone="no"?>
<!DOCTYPE svg PUBLIC "-//W3C//DTD SVG 1.1//EN"
 "http://www.w3.org/Graphics/SVG/1.1/DTD/svg11.dtd">
<!-- Generated by graphviz version 2.38.0 (20140413.2041)
 -->
<!-- Title: tvm::tir::IterVarNode Pages: 1 -->
<svg width="289pt" height="787pt"
 viewBox="0.00 0.00 288.50 787.00" xmlns="http://www.w3.org/2000/svg" xmlns:xlink="http://www.w3.org/1999/xlink">
<g id="graph0" class="graph" transform="scale(1 1) rotate(0) translate(4 783)">
<title>tvm::tir::IterVarNode</title>
<polygon fill="white" stroke="none" points="-4,4 -4,-783 284.5,-783 284.5,4 -4,4"/>
<!-- Node1 -->
<g id="node1" class="node"><title>Node1</title>
<polygon fill="#bfbfbf" stroke="black" points="0,-0.5 0,-167.5 205,-167.5 205,-0.5 0,-0.5"/>
<text text-anchor="middle" x="102.5" y="-155.5" font-family="Helvetica,sans-Serif" font-size="10.00">tvm::tir::IterVarNode</text>
<polyline fill="none" stroke="black" points="0,-148.5 205,-148.5 "/>
<text text-anchor="start" x="8" y="-136.5" font-family="Helvetica,sans-Serif" font-size="10.00">+ iter_type</text>
<text text-anchor="start" x="8" y="-125.5" font-family="Helvetica,sans-Serif" font-size="10.00">+ thread_tag</text>
<text text-anchor="start" x="8" y="-114.5" font-family="Helvetica,sans-Serif" font-size="10.00">+ _type_key</text>
<text text-anchor="start" x="8" y="-103.5" font-family="Helvetica,sans-Serif" font-size="10.00">+ _type_has_method_sequal</text>
<text text-anchor="start" x="8" y="-92.5" font-family="Helvetica,sans-Serif" font-size="10.00">_reduce</text>
<text text-anchor="start" x="8" y="-81.5" font-family="Helvetica,sans-Serif" font-size="10.00">+ _type_has_method_shash</text>
<text text-anchor="start" x="8" y="-70.5" font-family="Helvetica,sans-Serif" font-size="10.00">_reduce</text>
<polyline fill="none" stroke="black" points="0,-63.5 205,-63.5 "/>
<text text-anchor="start" x="8" y="-51.5" font-family="Helvetica,sans-Serif" font-size="10.00">+ VisitAttrs()</text>
<text text-anchor="start" x="8" y="-40.5" font-family="Helvetica,sans-Serif" font-size="10.00">+ SEqualReduce()</text>
<text text-anchor="start" x="8" y="-29.5" font-family="Helvetica,sans-Serif" font-size="10.00">+ SHashReduce()</text>
<text text-anchor="start" x="8" y="-18.5" font-family="Helvetica,sans-Serif" font-size="10.00">+ TVM_DECLARE_FINAL_OBJECT_INFO()</text>
<text text-anchor="start" x="8" y="-7.5" font-family="Helvetica,sans-Serif" font-size="10.00">+ make()</text>
</g>
<!-- Node2 -->
<g id="node2" class="node"><title>Node2</title>
<polygon fill="white" stroke="#bfbfbf" points="27,-243 27,-300 74,-300 74,-243 27,-243"/>
<text text-anchor="middle" x="50.5" y="-288" font-family="Helvetica,sans-Serif" font-size="10.00">Object</text>
<polyline fill="none" stroke="#bfbfbf" points="27,-281 74,-281 "/>
<text text-anchor="middle" x="50.5" y="-269" font-family="Helvetica,sans-Serif" font-size="10.00"> </text>
<polyline fill="none" stroke="#bfbfbf" points="27,-262 74,-262 "/>
<text text-anchor="middle" x="50.5" y="-250" font-family="Helvetica,sans-Serif" font-size="10.00"> </text>
</g>
<!-- Node2&#45;&gt;Node1 -->
<g id="edge1" class="edge"><title>Node2&#45;&gt;Node1</title>
<path fill="none" stroke="midnightblue" d="M60.9979,-233.051C66.2892,-214.175 72.9298,-190.486 79.3377,-167.627"/>
<polygon fill="none" stroke="midnightblue" points="57.6141,-232.155 58.2849,-242.729 64.3543,-234.045 57.6141,-232.155"/>
</g>
<!-- Node3 -->
<g id="node3" class="node"><title>Node3</title>
<g id="a_node3"><a xlink:href="classtvm_1_1Range.html" target="_top" xlink:title="Range constainer. ">
<polygon fill="white" stroke="black" points="27.5,-506.5 27.5,-596.5 177.5,-596.5 177.5,-506.5 27.5,-506.5"/>
<text text-anchor="middle" x="102.5" y="-584.5" font-family="Helvetica,sans-Serif" font-size="10.00">tvm::Range</text>
<polyline fill="none" stroke="black" points="27.5,-577.5 177.5,-577.5 "/>
<text text-anchor="middle" x="102.5" y="-565.5" font-family="Helvetica,sans-Serif" font-size="10.00"> </text>
<polyline fill="none" stroke="black" points="27.5,-558.5 177.5,-558.5 "/>
<text text-anchor="start" x="35.5" y="-546.5" font-family="Helvetica,sans-Serif" font-size="10.00">+ Range()</text>
<text text-anchor="start" x="35.5" y="-535.5" font-family="Helvetica,sans-Serif" font-size="10.00">+ TVM_DEFINE_OBJECT_REF</text>
<text text-anchor="start" x="35.5" y="-524.5" font-family="Helvetica,sans-Serif" font-size="10.00">_METHODS()</text>
<text text-anchor="start" x="35.5" y="-513.5" font-family="Helvetica,sans-Serif" font-size="10.00">+ make_by_min_extent()</text>
</a>
</g>
</g>
<!-- Node3&#45;&gt;Node1 -->
<g id="edge2" class="edge"><title>Node3&#45;&gt;Node1</title>
<path fill="none" stroke="#404040" d="M102.5,-506.287C102.5,-431.779 102.5,-279.604 102.5,-180.001"/>
<polygon fill="none" stroke="#404040" points="102.5,-179.822 98.5,-173.822 102.5,-167.822 106.5,-173.822 102.5,-179.822"/>
<text text-anchor="middle" x="119.5" y="-349" font-family="Helvetica,sans-Serif" font-size="10.00"> +dom</text>
</g>
<!-- Node4 -->
<g id="node4" class="node"><title>Node4</title>
<polygon fill="white" stroke="#bfbfbf" points="103.5,-721.5 103.5,-778.5 165.5,-778.5 165.5,-721.5 103.5,-721.5"/>
<text text-anchor="middle" x="134.5" y="-766.5" font-family="Helvetica,sans-Serif" font-size="10.00">ObjectRef</text>
<polyline fill="none" stroke="#bfbfbf" points="103.5,-759.5 165.5,-759.5 "/>
<text text-anchor="middle" x="134.5" y="-747.5" font-family="Helvetica,sans-Serif" font-size="10.00"> </text>
<polyline fill="none" stroke="#bfbfbf" points="103.5,-740.5 165.5,-740.5 "/>
<text text-anchor="middle" x="134.5" y="-728.5" font-family="Helvetica,sans-Serif" font-size="10.00"> </text>
</g>
<!-- Node4&#45;&gt;Node3 -->
<g id="edge3" class="edge"><title>Node4&#45;&gt;Node3</title>
<path fill="none" stroke="midnightblue" d="M126.625,-711.417C124.846,-702.45 123.032,-692.899 121.5,-684 116.511,-655.016 111.779,-622.284 108.285,-596.727"/>
<polygon fill="none" stroke="midnightblue" points="123.196,-712.115 128.603,-721.226 130.058,-710.732 123.196,-712.115"/>
</g>
<!-- Node7 -->
<g id="node7" class="node"><title>Node7</title>
<g id="a_node7"><a xlink:href="classtvm_1_1BaseExpr.html" target="_top" xlink:title="Managed reference to BaseExprNode. ">
<polygon fill="white" stroke="black" points="130.5,-615.5 130.5,-683.5 280.5,-683.5 280.5,-615.5 130.5,-615.5"/>
<text text-anchor="middle" x="205.5" y="-671.5" font-family="Helvetica,sans-Serif" font-size="10.00">tvm::BaseExpr</text>
<polyline fill="none" stroke="black" points="130.5,-664.5 280.5,-664.5 "/>
<text text-anchor="middle" x="205.5" y="-652.5" font-family="Helvetica,sans-Serif" font-size="10.00"> </text>
<polyline fill="none" stroke="black" points="130.5,-645.5 280.5,-645.5 "/>
<text text-anchor="start" x="138.5" y="-633.5" font-family="Helvetica,sans-Serif" font-size="10.00">+ TVM_DEFINE_OBJECT_REF</text>
<text text-anchor="start" x="138.5" y="-622.5" font-family="Helvetica,sans-Serif" font-size="10.00">_METHODS()</text>
</a>
</g>
</g>
<!-- Node4&#45;&gt;Node7 -->
<g id="edge7" class="edge"><title>Node4&#45;&gt;Node7</title>
<path fill="none" stroke="midnightblue" d="M160.405,-713.062C167.351,-703.425 174.828,-693.053 181.657,-683.578"/>
<polygon fill="none" stroke="midnightblue" points="157.475,-711.141 154.466,-721.3 163.153,-715.234 157.475,-711.141"/>
</g>
<!-- Node5 -->
<g id="node5" class="node"><title>Node5</title>
<g id="a_node5"><a xlink:href="classtvm_1_1tir_1_1Var.html" target="_top" xlink:title="a named variable in TVM ">
<polygon fill="white" stroke="black" points="139.5,-215.5 139.5,-327.5 251.5,-327.5 251.5,-215.5 139.5,-215.5"/>
<text text-anchor="middle" x="195.5" y="-315.5" font-family="Helvetica,sans-Serif" font-size="10.00">tvm::tir::Var</text>
<polyline fill="none" stroke="black" points="139.5,-308.5 251.5,-308.5 "/>
<text text-anchor="middle" x="195.5" y="-296.5" font-family="Helvetica,sans-Serif" font-size="10.00"> </text>
<polyline fill="none" stroke="black" points="139.5,-289.5 251.5,-289.5 "/>
<text text-anchor="start" x="147.5" y="-277.5" font-family="Helvetica,sans-Serif" font-size="10.00">+ Var()</text>
<text text-anchor="start" x="147.5" y="-266.5" font-family="Helvetica,sans-Serif" font-size="10.00">+ Var()</text>
<text text-anchor="start" x="147.5" y="-255.5" font-family="Helvetica,sans-Serif" font-size="10.00">+ Var()</text>
<text text-anchor="start" x="147.5" y="-244.5" font-family="Helvetica,sans-Serif" font-size="10.00">+ copy_with_suffix()</text>
<text text-anchor="start" x="147.5" y="-233.5" font-family="Helvetica,sans-Serif" font-size="10.00">+ operator&#45;&gt;()</text>
<text text-anchor="start" x="147.5" y="-222.5" font-family="Helvetica,sans-Serif" font-size="10.00">+ get()</text>
</a>
</g>
</g>
<!-- Node5&#45;&gt;Node1 -->
<g id="edge4" class="edge"><title>Node5&#45;&gt;Node1</title>
<path fill="none" stroke="#404040" d="M167.849,-215.346C162.051,-203.782 155.783,-191.279 149.502,-178.752"/>
<polygon fill="none" stroke="#404040" points="149.37,-178.487 143.105,-174.916 143.992,-167.76 150.256,-171.331 149.37,-178.487"/>
<text text-anchor="middle" x="171" y="-189" font-family="Helvetica,sans-Serif" font-size="10.00"> +var</text>
</g>
<!-- Node6 -->
<g id="node6" class="node"><title>Node6</title>
<g id="a_node6"><a xlink:href="classtvm_1_1PrimExpr.html" target="_top" xlink:title="Reference to PrimExprNode. ">
<polygon fill="white" stroke="black" points="130.5,-375.5 130.5,-487.5 280.5,-487.5 280.5,-375.5 130.5,-375.5"/>
<text text-anchor="middle" x="205.5" y="-475.5" font-family="Helvetica,sans-Serif" font-size="10.00">tvm::PrimExpr</text>
<polyline fill="none" stroke="black" points="130.5,-468.5 280.5,-468.5 "/>
<text text-anchor="middle" x="205.5" y="-456.5" font-family="Helvetica,sans-Serif" font-size="10.00"> </text>
<polyline fill="none" stroke="black" points="130.5,-449.5 280.5,-449.5 "/>
<text text-anchor="start" x="138.5" y="-437.5" font-family="Helvetica,sans-Serif" font-size="10.00">+ PrimExpr()</text>
<text text-anchor="start" x="138.5" y="-426.5" font-family="Helvetica,sans-Serif" font-size="10.00">+ PrimExpr()</text>
<text text-anchor="start" x="138.5" y="-415.5" font-family="Helvetica,sans-Serif" font-size="10.00">+ PrimExpr()</text>
<text text-anchor="start" x="138.5" y="-404.5" font-family="Helvetica,sans-Serif" font-size="10.00">+ dtype()</text>
<text text-anchor="start" x="138.5" y="-393.5" font-family="Helvetica,sans-Serif" font-size="10.00">+ TVM_DEFINE_OBJECT_REF</text>
<text text-anchor="start" x="138.5" y="-382.5" font-family="Helvetica,sans-Serif" font-size="10.00">_METHODS()</text>
</a>
</g>
</g>
<!-- Node6&#45;&gt;Node5 -->
<g id="edge5" class="edge"><title>Node6&#45;&gt;Node5</title>
<path fill="none" stroke="midnightblue" d="M201.353,-364.974C200.569,-352.592 199.757,-339.756 198.996,-327.73"/>
<polygon fill="none" stroke="midnightblue" points="197.878,-365.48 202.002,-375.239 204.864,-365.038 197.878,-365.48"/>
</g>
<!-- Node7&#45;&gt;Node6 -->
<g id="edge6" class="edge"><title>Node7&#45;&gt;Node6</title>
<path fill="none" stroke="midnightblue" d="M205.5,-605.188C205.5,-571.38 205.5,-524.182 205.5,-487.671"/>
<polygon fill="none" stroke="midnightblue" points="202,-605.223 205.5,-615.223 209,-605.223 202,-605.223"/>
</g>
</g>
</svg>
