<?xml version="1.0" encoding="UTF-8" standalone="no"?>
<!DOCTYPE svg PUBLIC "-//W3C//DTD SVG 1.1//EN"
 "http://www.w3.org/Graphics/SVG/1.1/DTD/svg11.dtd">
<!-- Generated by graphviz version 2.38.0 (20140413.2041)
 -->
<!-- Title: tvm::te::TensorComputeOpNode Pages: 1 -->
<svg width="213pt" height="849pt"
 viewBox="0.00 0.00 213.00 849.00" xmlns="http://www.w3.org/2000/svg" xmlns:xlink="http://www.w3.org/1999/xlink">
<g id="graph0" class="graph" transform="scale(1 1) rotate(0) translate(4 845)">
<title>tvm::te::TensorComputeOpNode</title>
<polygon fill="white" stroke="none" points="-4,4 -4,-845 209,-845 209,4 -4,4"/>
<!-- Node1 -->
<g id="node1" class="node"><title>Node1</title>
<polygon fill="#bfbfbf" stroke="black" points="-1.42109e-14,-0.5 -1.42109e-14,-222.5 205,-222.5 205,-0.5 -1.42109e-14,-0.5"/>
<text text-anchor="middle" x="102.5" y="-210.5" font-family="Helvetica,sans-Serif" font-size="10.00">tvm::te::TensorComputeOpNode</text>
<polyline fill="none" stroke="black" points="-1.42109e-14,-203.5 205,-203.5 "/>
<text text-anchor="start" x="8" y="-191.5" font-family="Helvetica,sans-Serif" font-size="10.00">+ schedulable_ndim</text>
<text text-anchor="start" x="8" y="-180.5" font-family="Helvetica,sans-Serif" font-size="10.00">+ intrin</text>
<text text-anchor="start" x="8" y="-169.5" font-family="Helvetica,sans-Serif" font-size="10.00">+ inputs</text>
<text text-anchor="start" x="8" y="-158.5" font-family="Helvetica,sans-Serif" font-size="10.00">+ input_regions</text>
<text text-anchor="start" x="8" y="-147.5" font-family="Helvetica,sans-Serif" font-size="10.00">+ scalar_inputs</text>
<text text-anchor="start" x="8" y="-136.5" font-family="Helvetica,sans-Serif" font-size="10.00">+ _type_key</text>
<polyline fill="none" stroke="black" points="-1.42109e-14,-129.5 205,-129.5 "/>
<text text-anchor="start" x="8" y="-117.5" font-family="Helvetica,sans-Serif" font-size="10.00">+ TensorComputeOpNode()</text>
<text text-anchor="start" x="8" y="-106.5" font-family="Helvetica,sans-Serif" font-size="10.00">+ num_outputs()</text>
<text text-anchor="start" x="8" y="-95.5" font-family="Helvetica,sans-Serif" font-size="10.00">+ output_dtype()</text>
<text text-anchor="start" x="8" y="-84.5" font-family="Helvetica,sans-Serif" font-size="10.00">+ InputTensors()</text>
<text text-anchor="start" x="8" y="-73.5" font-family="Helvetica,sans-Serif" font-size="10.00">+ ReplaceInputs()</text>
<text text-anchor="start" x="8" y="-62.5" font-family="Helvetica,sans-Serif" font-size="10.00">+ PropBoundToInputs()</text>
<text text-anchor="start" x="8" y="-51.5" font-family="Helvetica,sans-Serif" font-size="10.00">+ BuildProvide()</text>
<text text-anchor="start" x="8" y="-40.5" font-family="Helvetica,sans-Serif" font-size="10.00">+ num_schedulable_dims()</text>
<text text-anchor="start" x="8" y="-29.5" font-family="Helvetica,sans-Serif" font-size="10.00">+ VisitAttrs()</text>
<text text-anchor="start" x="8" y="-18.5" font-family="Helvetica,sans-Serif" font-size="10.00">+ TVM_DECLARE_FINAL_OBJECT_INFO()</text>
<text text-anchor="start" x="8" y="-7.5" font-family="Helvetica,sans-Serif" font-size="10.00">+ make()</text>
</g>
<!-- Node2 -->
<g id="node2" class="node"><title>Node2</title>
<g id="a_node2"><a xlink:href="classtvm_1_1te_1_1BaseComputeOpNode.html" target="_top" xlink:title="A Compute op that compute a tensor on certain domain. This is the base class for ComputeOp (operating...">
<polygon fill="white" stroke="black" points="0.5,-259.5 0.5,-393.5 204.5,-393.5 204.5,-259.5 0.5,-259.5"/>
<text text-anchor="middle" x="102.5" y="-381.5" font-family="Helvetica,sans-Serif" font-size="10.00">tvm::te::BaseComputeOpNode</text>
<polyline fill="none" stroke="black" points="0.5,-374.5 204.5,-374.5 "/>
<text text-anchor="start" x="8.5" y="-362.5" font-family="Helvetica,sans-Serif" font-size="10.00">+ axis</text>
<text text-anchor="start" x="8.5" y="-351.5" font-family="Helvetica,sans-Serif" font-size="10.00">+ reduce_axis</text>
<text text-anchor="start" x="8.5" y="-340.5" font-family="Helvetica,sans-Serif" font-size="10.00">+ _type_key</text>
<polyline fill="none" stroke="black" points="0.5,-333.5 204.5,-333.5 "/>
<text text-anchor="start" x="8.5" y="-321.5" font-family="Helvetica,sans-Serif" font-size="10.00">+ root_iter_vars()</text>
<text text-anchor="start" x="8.5" y="-310.5" font-family="Helvetica,sans-Serif" font-size="10.00">+ output_shape()</text>
<text text-anchor="start" x="8.5" y="-299.5" font-family="Helvetica,sans-Serif" font-size="10.00">+ GatherBound()</text>
<text text-anchor="start" x="8.5" y="-288.5" font-family="Helvetica,sans-Serif" font-size="10.00">+ BuildRealize()</text>
<text text-anchor="start" x="8.5" y="-277.5" font-family="Helvetica,sans-Serif" font-size="10.00">+ num_schedulable_dims()</text>
<text text-anchor="start" x="8.5" y="-266.5" font-family="Helvetica,sans-Serif" font-size="10.00">+ TVM_DECLARE_BASE_OBJECT_INFO()</text>
</a>
</g>
</g>
<!-- Node2&#45;&gt;Node1 -->
<g id="edge1" class="edge"><title>Node2&#45;&gt;Node1</title>
<path fill="none" stroke="midnightblue" d="M102.5,-249.215C102.5,-240.52 102.5,-231.532 102.5,-222.51"/>
<polygon fill="none" stroke="midnightblue" points="99.0001,-249.273 102.5,-259.273 106,-249.273 99.0001,-249.273"/>
</g>
<!-- Node3 -->
<g id="node3" class="node"><title>Node3</title>
<g id="a_node3"><a xlink:href="classtvm_1_1te_1_1OperationNode.html" target="_top" xlink:title="Base class of all operation nodes. ">
<polygon fill="white" stroke="black" points="0.5,-430.5 0.5,-630.5 204.5,-630.5 204.5,-430.5 0.5,-430.5"/>
<text text-anchor="middle" x="102.5" y="-618.5" font-family="Helvetica,sans-Serif" font-size="10.00">tvm::te::OperationNode</text>
<polyline fill="none" stroke="black" points="0.5,-611.5 204.5,-611.5 "/>
<text text-anchor="start" x="8.5" y="-599.5" font-family="Helvetica,sans-Serif" font-size="10.00">+ name</text>
<text text-anchor="start" x="8.5" y="-588.5" font-family="Helvetica,sans-Serif" font-size="10.00">+ tag</text>
<text text-anchor="start" x="8.5" y="-577.5" font-family="Helvetica,sans-Serif" font-size="10.00">+ attrs</text>
<text text-anchor="start" x="8.5" y="-566.5" font-family="Helvetica,sans-Serif" font-size="10.00">+ _type_key</text>
<polyline fill="none" stroke="black" points="0.5,-559.5 204.5,-559.5 "/>
<text text-anchor="start" x="8.5" y="-547.5" font-family="Helvetica,sans-Serif" font-size="10.00">+ func_name()</text>
<text text-anchor="start" x="8.5" y="-536.5" font-family="Helvetica,sans-Serif" font-size="10.00">+ root_iter_vars()</text>
<text text-anchor="start" x="8.5" y="-525.5" font-family="Helvetica,sans-Serif" font-size="10.00">+ output_dtype()</text>
<text text-anchor="start" x="8.5" y="-514.5" font-family="Helvetica,sans-Serif" font-size="10.00">+ output_shape()</text>
<text text-anchor="start" x="8.5" y="-503.5" font-family="Helvetica,sans-Serif" font-size="10.00">+ InputTensors()</text>
<text text-anchor="start" x="8.5" y="-492.5" font-family="Helvetica,sans-Serif" font-size="10.00">+ ReplaceInputs()</text>
<text text-anchor="start" x="8.5" y="-481.5" font-family="Helvetica,sans-Serif" font-size="10.00">+ PropBoundToInputs()</text>
<text text-anchor="start" x="8.5" y="-470.5" font-family="Helvetica,sans-Serif" font-size="10.00">+ GatherBound()</text>
<text text-anchor="start" x="8.5" y="-459.5" font-family="Helvetica,sans-Serif" font-size="10.00">+ BuildRealize()</text>
<text text-anchor="start" x="8.5" y="-448.5" font-family="Helvetica,sans-Serif" font-size="10.00">+ BuildProvide()</text>
<text text-anchor="start" x="8.5" y="-437.5" font-family="Helvetica,sans-Serif" font-size="10.00">+ TVM_DECLARE_BASE_OBJECT_INFO()</text>
</a>
</g>
</g>
<!-- Node3&#45;&gt;Node2 -->
<g id="edge2" class="edge"><title>Node3&#45;&gt;Node2</title>
<path fill="none" stroke="midnightblue" d="M102.5,-420.052C102.5,-411.017 102.5,-402.074 102.5,-393.512"/>
<polygon fill="none" stroke="midnightblue" points="99.0001,-420.275 102.5,-430.275 106,-420.275 99.0001,-420.275"/>
</g>
<!-- Node4 -->
<g id="node4" class="node"><title>Node4</title>
<g id="a_node4"><a xlink:href="classtvm_1_1tir_1_1FunctionBaseNode.html" target="_top" xlink:title="Base node of internal functions. ">
<polygon fill="white" stroke="black" points="29.5,-667.5 29.5,-746.5 175.5,-746.5 175.5,-667.5 29.5,-667.5"/>
<text text-anchor="middle" x="102.5" y="-734.5" font-family="Helvetica,sans-Serif" font-size="10.00">tvm::tir::FunctionBaseNode</text>
<polyline fill="none" stroke="black" points="29.5,-727.5 175.5,-727.5 "/>
<text text-anchor="middle" x="102.5" y="-715.5" font-family="Helvetica,sans-Serif" font-size="10.00"> </text>
<polyline fill="none" stroke="black" points="29.5,-708.5 175.5,-708.5 "/>
<text text-anchor="start" x="37.5" y="-696.5" font-family="Helvetica,sans-Serif" font-size="10.00">+ ~FunctionBaseNode()</text>
<text text-anchor="start" x="37.5" y="-685.5" font-family="Helvetica,sans-Serif" font-size="10.00">+ func_name()</text>
<text text-anchor="start" x="37.5" y="-674.5" font-family="Helvetica,sans-Serif" font-size="10.00">+ num_outputs()</text>
</a>
</g>
</g>
<!-- Node4&#45;&gt;Node3 -->
<g id="edge3" class="edge"><title>Node4&#45;&gt;Node3</title>
<path fill="none" stroke="midnightblue" d="M102.5,-657.064C102.5,-648.735 102.5,-639.825 102.5,-630.738"/>
<polygon fill="none" stroke="midnightblue" points="99.0001,-657.273 102.5,-667.273 106,-657.273 99.0001,-657.273"/>
</g>
<!-- Node5 -->
<g id="node5" class="node"><title>Node5</title>
<polygon fill="white" stroke="#bfbfbf" points="79,-783.5 79,-840.5 126,-840.5 126,-783.5 79,-783.5"/>
<text text-anchor="middle" x="102.5" y="-828.5" font-family="Helvetica,sans-Serif" font-size="10.00">Object</text>
<polyline fill="none" stroke="#bfbfbf" points="79,-821.5 126,-821.5 "/>
<text text-anchor="middle" x="102.5" y="-809.5" font-family="Helvetica,sans-Serif" font-size="10.00"> </text>
<polyline fill="none" stroke="#bfbfbf" points="79,-802.5 126,-802.5 "/>
<text text-anchor="middle" x="102.5" y="-790.5" font-family="Helvetica,sans-Serif" font-size="10.00"> </text>
</g>
<!-- Node5&#45;&gt;Node4 -->
<g id="edge4" class="edge"><title>Node5&#45;&gt;Node4</title>
<path fill="none" stroke="midnightblue" d="M102.5,-773.156C102.5,-764.473 102.5,-755.232 102.5,-746.52"/>
<polygon fill="none" stroke="midnightblue" points="99.0001,-773.398 102.5,-783.398 106,-773.398 99.0001,-773.398"/>
</g>
</g>
</svg>
