<?xml version="1.0" encoding="UTF-8" standalone="no"?>
<!DOCTYPE svg PUBLIC "-//W3C//DTD SVG 1.1//EN"
 "http://www.w3.org/Graphics/SVG/1.1/DTD/svg11.dtd">
<!-- Generated by graphviz version 2.38.0 (20140413.2041)
 -->
<!-- Title: tvm::tir::NotNode Pages: 1 -->
<svg width="530pt" height="646pt"
 viewBox="0.00 0.00 530.00 646.00" xmlns="http://www.w3.org/2000/svg" xmlns:xlink="http://www.w3.org/1999/xlink">
<g id="graph0" class="graph" transform="scale(1 1) rotate(0) translate(4 642)">
<title>tvm::tir::NotNode</title>
<polygon fill="white" stroke="none" points="-4,4 -4,-642 526,-642 526,4 -4,4"/>
<!-- Node1 -->
<g id="node1" class="node"><title>Node1</title>
<polygon fill="#bfbfbf" stroke="black" points="266.5,-0.5 266.5,-101.5 471.5,-101.5 471.5,-0.5 266.5,-0.5"/>
<text text-anchor="middle" x="369" y="-89.5" font-family="Helvetica,sans-Serif" font-size="10.00">tvm::tir::NotNode</text>
<polyline fill="none" stroke="black" points="266.5,-82.5 471.5,-82.5 "/>
<text text-anchor="start" x="274.5" y="-70.5" font-family="Helvetica,sans-Serif" font-size="10.00">+ _type_key</text>
<polyline fill="none" stroke="black" points="266.5,-63.5 471.5,-63.5 "/>
<text text-anchor="start" x="274.5" y="-51.5" font-family="Helvetica,sans-Serif" font-size="10.00">+ VisitAttrs()</text>
<text text-anchor="start" x="274.5" y="-40.5" font-family="Helvetica,sans-Serif" font-size="10.00">+ SEqualReduce()</text>
<text text-anchor="start" x="274.5" y="-29.5" font-family="Helvetica,sans-Serif" font-size="10.00">+ SHashReduce()</text>
<text text-anchor="start" x="274.5" y="-18.5" font-family="Helvetica,sans-Serif" font-size="10.00">+ TVM_DECLARE_FINAL_OBJECT_INFO()</text>
<text text-anchor="start" x="274.5" y="-7.5" font-family="Helvetica,sans-Serif" font-size="10.00">+ make()</text>
</g>
<!-- Node2 -->
<g id="node2" class="node"><title>Node2</title>
<g id="a_node2"><a xlink:href="classtvm_1_1PrimExprNode.html" target="_top" xlink:title="Base node of all primitive expressions. ">
<polygon fill="white" stroke="black" points="150,-177 150,-234 354,-234 354,-177 150,-177"/>
<text text-anchor="middle" x="252" y="-222" font-family="Helvetica,sans-Serif" font-size="10.00">tvm::PrimExprNode</text>
<polyline fill="none" stroke="black" points="150,-215 354,-215 "/>
<text text-anchor="start" x="158" y="-203" font-family="Helvetica,sans-Serif" font-size="10.00">+ _type_key</text>
<polyline fill="none" stroke="black" points="150,-196 354,-196 "/>
<text text-anchor="start" x="158" y="-184" font-family="Helvetica,sans-Serif" font-size="10.00">+ TVM_DECLARE_BASE_OBJECT_INFO()</text>
</a>
</g>
</g>
<!-- Node2&#45;&gt;Node1 -->
<g id="edge1" class="edge"><title>Node2&#45;&gt;Node1</title>
<path fill="none" stroke="midnightblue" d="M279.291,-168.928C294.659,-148.897 314.09,-123.571 330.935,-101.614"/>
<polygon fill="none" stroke="midnightblue" points="276.498,-166.819 273.188,-176.883 282.052,-171.08 276.498,-166.819"/>
</g>
<!-- Node3 -->
<g id="node3" class="node"><title>Node3</title>
<g id="a_node3"><a xlink:href="classtvm_1_1BaseExprNode.html" target="_top" xlink:title="Base type of all the expressions. ">
<polygon fill="white" stroke="black" points="0,-375.5 0,-476.5 204,-476.5 204,-375.5 0,-375.5"/>
<text text-anchor="middle" x="102" y="-464.5" font-family="Helvetica,sans-Serif" font-size="10.00">tvm::BaseExprNode</text>
<polyline fill="none" stroke="black" points="0,-457.5 204,-457.5 "/>
<text text-anchor="start" x="8" y="-445.5" font-family="Helvetica,sans-Serif" font-size="10.00">+ _type_key</text>
<text text-anchor="start" x="8" y="-434.5" font-family="Helvetica,sans-Serif" font-size="10.00">+ _type_has_method_sequal</text>
<text text-anchor="start" x="8" y="-423.5" font-family="Helvetica,sans-Serif" font-size="10.00">_reduce</text>
<text text-anchor="start" x="8" y="-412.5" font-family="Helvetica,sans-Serif" font-size="10.00">+ _type_has_method_shash</text>
<text text-anchor="start" x="8" y="-401.5" font-family="Helvetica,sans-Serif" font-size="10.00">_reduce</text>
<polyline fill="none" stroke="black" points="0,-394.5 204,-394.5 "/>
<text text-anchor="start" x="8" y="-382.5" font-family="Helvetica,sans-Serif" font-size="10.00">+ TVM_DECLARE_BASE_OBJECT_INFO()</text>
</a>
</g>
</g>
<!-- Node3&#45;&gt;Node2 -->
<g id="edge2" class="edge"><title>Node3&#45;&gt;Node2</title>
<path fill="none" stroke="midnightblue" d="M141.801,-367.023C171.285,-324.074 210.155,-267.454 232.977,-234.21"/>
<polygon fill="none" stroke="midnightblue" points="138.812,-365.194 136.037,-375.419 144.583,-369.156 138.812,-365.194"/>
</g>
<!-- Node4 -->
<g id="node4" class="node"><title>Node4</title>
<polygon fill="white" stroke="#bfbfbf" points="78.5,-580.5 78.5,-637.5 125.5,-637.5 125.5,-580.5 78.5,-580.5"/>
<text text-anchor="middle" x="102" y="-625.5" font-family="Helvetica,sans-Serif" font-size="10.00">Object</text>
<polyline fill="none" stroke="#bfbfbf" points="78.5,-618.5 125.5,-618.5 "/>
<text text-anchor="middle" x="102" y="-606.5" font-family="Helvetica,sans-Serif" font-size="10.00"> </text>
<polyline fill="none" stroke="#bfbfbf" points="78.5,-599.5 125.5,-599.5 "/>
<text text-anchor="middle" x="102" y="-587.5" font-family="Helvetica,sans-Serif" font-size="10.00"> </text>
</g>
<!-- Node4&#45;&gt;Node3 -->
<g id="edge3" class="edge"><title>Node4&#45;&gt;Node3</title>
<path fill="none" stroke="midnightblue" d="M102,-569.876C102,-542.799 102,-506.183 102,-476.799"/>
<polygon fill="none" stroke="midnightblue" points="98.5001,-570.115 102,-580.115 105.5,-570.115 98.5001,-570.115"/>
</g>
<!-- Node5 -->
<g id="node5" class="node"><title>Node5</title>
<g id="a_node5"><a xlink:href="classtvm_1_1runtime_1_1DataType.html" target="_top" xlink:title="Runtime primitive data type. ">
<polygon fill="white" stroke="black" points="222.5,-309.5 222.5,-542.5 351.5,-542.5 351.5,-309.5 222.5,-309.5"/>
<text text-anchor="middle" x="287" y="-530.5" font-family="Helvetica,sans-Serif" font-size="10.00">tvm::runtime::DataType</text>
<polyline fill="none" stroke="black" points="222.5,-523.5 351.5,-523.5 "/>
<text text-anchor="middle" x="287" y="-511.5" font-family="Helvetica,sans-Serif" font-size="10.00"> </text>
<polyline fill="none" stroke="black" points="222.5,-504.5 351.5,-504.5 "/>
<text text-anchor="start" x="230.5" y="-492.5" font-family="Helvetica,sans-Serif" font-size="10.00">+ DataType()</text>
<text text-anchor="start" x="230.5" y="-481.5" font-family="Helvetica,sans-Serif" font-size="10.00">+ DataType()</text>
<text text-anchor="start" x="230.5" y="-470.5" font-family="Helvetica,sans-Serif" font-size="10.00">+ DataType()</text>
<text text-anchor="start" x="230.5" y="-459.5" font-family="Helvetica,sans-Serif" font-size="10.00">+ code()</text>
<text text-anchor="start" x="230.5" y="-448.5" font-family="Helvetica,sans-Serif" font-size="10.00">+ bits()</text>
<text text-anchor="start" x="230.5" y="-437.5" font-family="Helvetica,sans-Serif" font-size="10.00">+ bytes()</text>
<text text-anchor="start" x="230.5" y="-426.5" font-family="Helvetica,sans-Serif" font-size="10.00">+ lanes()</text>
<text text-anchor="start" x="230.5" y="-415.5" font-family="Helvetica,sans-Serif" font-size="10.00">+ is_scalar()</text>
<text text-anchor="start" x="230.5" y="-404.5" font-family="Helvetica,sans-Serif" font-size="10.00">+ is_bool()</text>
<text text-anchor="start" x="230.5" y="-393.5" font-family="Helvetica,sans-Serif" font-size="10.00">+ is_float()</text>
<text text-anchor="start" x="230.5" y="-382.5" font-family="Helvetica,sans-Serif" font-size="10.00">and 12 more...</text>
<text text-anchor="start" x="230.5" y="-371.5" font-family="Helvetica,sans-Serif" font-size="10.00">+ Int()</text>
<text text-anchor="start" x="230.5" y="-360.5" font-family="Helvetica,sans-Serif" font-size="10.00">+ UInt()</text>
<text text-anchor="start" x="230.5" y="-349.5" font-family="Helvetica,sans-Serif" font-size="10.00">+ Float()</text>
<text text-anchor="start" x="230.5" y="-338.5" font-family="Helvetica,sans-Serif" font-size="10.00">+ Bool()</text>
<text text-anchor="start" x="230.5" y="-327.5" font-family="Helvetica,sans-Serif" font-size="10.00">+ Handle()</text>
<text text-anchor="start" x="230.5" y="-316.5" font-family="Helvetica,sans-Serif" font-size="10.00">+ ShapeIndex()</text>
</a>
</g>
</g>
<!-- Node5&#45;&gt;Node2 -->
<g id="edge4" class="edge"><title>Node5&#45;&gt;Node2</title>
<path fill="none" stroke="#404040" d="M268.475,-309.352C264.842,-286.672 261.268,-264.362 258.383,-246.348"/>
<polygon fill="none" stroke="#404040" points="258.356,-246.178 253.457,-240.886 256.458,-234.329 261.356,-239.621 258.356,-246.178"/>
<text text-anchor="middle" x="285.5" y="-283" font-family="Helvetica,sans-Serif" font-size="10.00"> +dtype</text>
</g>
<!-- Node6 -->
<g id="node6" class="node"><title>Node6</title>
<g id="a_node6"><a xlink:href="classtvm_1_1PrimExpr.html" target="_top" xlink:title="Reference to PrimExprNode. ">
<polygon fill="white" stroke="black" points="372,-149.5 372,-261.5 522,-261.5 522,-149.5 372,-149.5"/>
<text text-anchor="middle" x="447" y="-249.5" font-family="Helvetica,sans-Serif" font-size="10.00">tvm::PrimExpr</text>
<polyline fill="none" stroke="black" points="372,-242.5 522,-242.5 "/>
<text text-anchor="middle" x="447" y="-230.5" font-family="Helvetica,sans-Serif" font-size="10.00"> </text>
<polyline fill="none" stroke="black" points="372,-223.5 522,-223.5 "/>
<text text-anchor="start" x="380" y="-211.5" font-family="Helvetica,sans-Serif" font-size="10.00">+ PrimExpr()</text>
<text text-anchor="start" x="380" y="-200.5" font-family="Helvetica,sans-Serif" font-size="10.00">+ PrimExpr()</text>
<text text-anchor="start" x="380" y="-189.5" font-family="Helvetica,sans-Serif" font-size="10.00">+ PrimExpr()</text>
<text text-anchor="start" x="380" y="-178.5" font-family="Helvetica,sans-Serif" font-size="10.00">+ dtype()</text>
<text text-anchor="start" x="380" y="-167.5" font-family="Helvetica,sans-Serif" font-size="10.00">+ TVM_DEFINE_OBJECT_REF</text>
<text text-anchor="start" x="380" y="-156.5" font-family="Helvetica,sans-Serif" font-size="10.00">_METHODS()</text>
</a>
</g>
</g>
<!-- Node6&#45;&gt;Node1 -->
<g id="edge5" class="edge"><title>Node6&#45;&gt;Node1</title>
<path fill="none" stroke="#404040" d="M418.84,-149.444C412.726,-137.49 406.226,-124.782 400.009,-112.627"/>
<polygon fill="none" stroke="#404040" points="399.863,-112.341 393.57,-108.821 394.398,-101.657 400.692,-105.178 399.863,-112.341"/>
<text text-anchor="middle" x="417" y="-123" font-family="Helvetica,sans-Serif" font-size="10.00"> +a</text>
</g>
<!-- Node7 -->
<g id="node7" class="node"><title>Node7</title>
<g id="a_node7"><a xlink:href="classtvm_1_1BaseExpr.html" target="_top" xlink:title="Managed reference to BaseExprNode. ">
<polygon fill="white" stroke="black" points="372,-392 372,-460 522,-460 522,-392 372,-392"/>
<text text-anchor="middle" x="447" y="-448" font-family="Helvetica,sans-Serif" font-size="10.00">tvm::BaseExpr</text>
<polyline fill="none" stroke="black" points="372,-441 522,-441 "/>
<text text-anchor="middle" x="447" y="-429" font-family="Helvetica,sans-Serif" font-size="10.00"> </text>
<polyline fill="none" stroke="black" points="372,-422 522,-422 "/>
<text text-anchor="start" x="380" y="-410" font-family="Helvetica,sans-Serif" font-size="10.00">+ TVM_DEFINE_OBJECT_REF</text>
<text text-anchor="start" x="380" y="-399" font-family="Helvetica,sans-Serif" font-size="10.00">_METHODS()</text>
</a>
</g>
</g>
<!-- Node7&#45;&gt;Node6 -->
<g id="edge6" class="edge"><title>Node7&#45;&gt;Node6</title>
<path fill="none" stroke="midnightblue" d="M447,-381.609C447,-347.195 447,-298.873 447,-261.705"/>
<polygon fill="none" stroke="midnightblue" points="443.5,-381.815 447,-391.815 450.5,-381.815 443.5,-381.815"/>
</g>
<!-- Node8 -->
<g id="node8" class="node"><title>Node8</title>
<polygon fill="white" stroke="#bfbfbf" points="416,-580.5 416,-637.5 478,-637.5 478,-580.5 416,-580.5"/>
<text text-anchor="middle" x="447" y="-625.5" font-family="Helvetica,sans-Serif" font-size="10.00">ObjectRef</text>
<polyline fill="none" stroke="#bfbfbf" points="416,-618.5 478,-618.5 "/>
<text text-anchor="middle" x="447" y="-606.5" font-family="Helvetica,sans-Serif" font-size="10.00"> </text>
<polyline fill="none" stroke="#bfbfbf" points="416,-599.5 478,-599.5 "/>
<text text-anchor="middle" x="447" y="-587.5" font-family="Helvetica,sans-Serif" font-size="10.00"> </text>
</g>
<!-- Node8&#45;&gt;Node7 -->
<g id="edge7" class="edge"><title>Node8&#45;&gt;Node7</title>
<path fill="none" stroke="midnightblue" d="M447,-570.083C447,-537.57 447,-491.192 447,-460.141"/>
<polygon fill="none" stroke="midnightblue" points="443.5,-570.115 447,-580.115 450.5,-570.115 443.5,-570.115"/>
</g>
</g>
</svg>
