<?xml version="1.0" encoding="UTF-8" standalone="no"?>
<!DOCTYPE svg PUBLIC "-//W3C//DTD SVG 1.1//EN"
 "http://www.w3.org/Graphics/SVG/1.1/DTD/svg11.dtd">
<!-- Generated by graphviz version 2.38.0 (20140413.2041)
 -->
<!-- Title: tvm::RelayExprNode Pages: 1 -->
<svg width="548pt" height="332pt"
 viewBox="0.00 0.00 548.00 332.00" xmlns="http://www.w3.org/2000/svg" xmlns:xlink="http://www.w3.org/1999/xlink">
<g id="graph0" class="graph" transform="scale(1 1) rotate(0) translate(4 328)">
<title>tvm::RelayExprNode</title>
<polygon fill="white" stroke="none" points="-4,4 -4,-328 544,-328 544,4 -4,4"/>
<!-- Node1 -->
<g id="node1" class="node"><title>Node1</title>
<polygon fill="#bfbfbf" stroke="black" points="195,-0.5 195,-79.5 399,-79.5 399,-0.5 195,-0.5"/>
<text text-anchor="middle" x="297" y="-67.5" font-family="Helvetica,sans-Serif" font-size="10.00">tvm::RelayExprNode</text>
<polyline fill="none" stroke="black" points="195,-60.5 399,-60.5 "/>
<text text-anchor="start" x="203" y="-48.5" font-family="Helvetica,sans-Serif" font-size="10.00">+ _type_key</text>
<polyline fill="none" stroke="black" points="195,-41.5 399,-41.5 "/>
<text text-anchor="start" x="203" y="-29.5" font-family="Helvetica,sans-Serif" font-size="10.00">+ checked_type()</text>
<text text-anchor="start" x="203" y="-18.5" font-family="Helvetica,sans-Serif" font-size="10.00">+ type_as()</text>
<text text-anchor="start" x="203" y="-7.5" font-family="Helvetica,sans-Serif" font-size="10.00">+ TVM_DECLARE_BASE_OBJECT_INFO()</text>
</g>
<!-- Node2 -->
<g id="node2" class="node"><title>Node2</title>
<g id="a_node2"><a xlink:href="classtvm_1_1BaseExprNode.html" target="_top" xlink:title="Base type of all the expressions. ">
<polygon fill="white" stroke="black" points="0,-127.5 0,-228.5 204,-228.5 204,-127.5 0,-127.5"/>
<text text-anchor="middle" x="102" y="-216.5" font-family="Helvetica,sans-Serif" font-size="10.00">tvm::BaseExprNode</text>
<polyline fill="none" stroke="black" points="0,-209.5 204,-209.5 "/>
<text text-anchor="start" x="8" y="-197.5" font-family="Helvetica,sans-Serif" font-size="10.00">+ _type_key</text>
<text text-anchor="start" x="8" y="-186.5" font-family="Helvetica,sans-Serif" font-size="10.00">+ _type_has_method_sequal</text>
<text text-anchor="start" x="8" y="-175.5" font-family="Helvetica,sans-Serif" font-size="10.00">_reduce</text>
<text text-anchor="start" x="8" y="-164.5" font-family="Helvetica,sans-Serif" font-size="10.00">+ _type_has_method_shash</text>
<text text-anchor="start" x="8" y="-153.5" font-family="Helvetica,sans-Serif" font-size="10.00">_reduce</text>
<polyline fill="none" stroke="black" points="0,-146.5 204,-146.5 "/>
<text text-anchor="start" x="8" y="-134.5" font-family="Helvetica,sans-Serif" font-size="10.00">+ TVM_DECLARE_BASE_OBJECT_INFO()</text>
</a>
</g>
</g>
<!-- Node2&#45;&gt;Node1 -->
<g id="edge1" class="edge"><title>Node2&#45;&gt;Node1</title>
<path fill="none" stroke="midnightblue" d="M181.488,-121.562C201.644,-107.505 222.863,-92.7055 241.538,-79.6811"/>
<polygon fill="none" stroke="midnightblue" points="179.427,-118.732 173.227,-127.324 183.432,-124.474 179.427,-118.732"/>
</g>
<!-- Node3 -->
<g id="node3" class="node"><title>Node3</title>
<polygon fill="white" stroke="#bfbfbf" points="78.5,-266.5 78.5,-323.5 125.5,-323.5 125.5,-266.5 78.5,-266.5"/>
<text text-anchor="middle" x="102" y="-311.5" font-family="Helvetica,sans-Serif" font-size="10.00">Object</text>
<polyline fill="none" stroke="#bfbfbf" points="78.5,-304.5 125.5,-304.5 "/>
<text text-anchor="middle" x="102" y="-292.5" font-family="Helvetica,sans-Serif" font-size="10.00"> </text>
<polyline fill="none" stroke="#bfbfbf" points="78.5,-285.5 125.5,-285.5 "/>
<text text-anchor="middle" x="102" y="-273.5" font-family="Helvetica,sans-Serif" font-size="10.00"> </text>
</g>
<!-- Node3&#45;&gt;Node2 -->
<g id="edge2" class="edge"><title>Node3&#45;&gt;Node2</title>
<path fill="none" stroke="midnightblue" d="M102,-256.187C102,-247.435 102,-237.99 102,-228.812"/>
<polygon fill="none" stroke="midnightblue" points="98.5001,-256.455 102,-266.455 105.5,-256.455 98.5001,-256.455"/>
</g>
<!-- Node4 -->
<g id="node4" class="node"><title>Node4</title>
<g id="a_node4"><a xlink:href="classtvm_1_1Span.html" target="_top" xlink:title="{tvm::Span\n||+ TVM_DEFINE_OBJECT_REF\l_METHODS()\l}">
<polygon fill="white" stroke="black" points="222,-144 222,-212 372,-212 372,-144 222,-144"/>
<text text-anchor="middle" x="297" y="-200" font-family="Helvetica,sans-Serif" font-size="10.00">tvm::Span</text>
<polyline fill="none" stroke="black" points="222,-193 372,-193 "/>
<text text-anchor="middle" x="297" y="-181" font-family="Helvetica,sans-Serif" font-size="10.00"> </text>
<polyline fill="none" stroke="black" points="222,-174 372,-174 "/>
<text text-anchor="start" x="230" y="-162" font-family="Helvetica,sans-Serif" font-size="10.00">+ TVM_DEFINE_OBJECT_REF</text>
<text text-anchor="start" x="230" y="-151" font-family="Helvetica,sans-Serif" font-size="10.00">_METHODS()</text>
</a>
</g>
</g>
<!-- Node4&#45;&gt;Node1 -->
<g id="edge3" class="edge"><title>Node4&#45;&gt;Node1</title>
<path fill="none" stroke="#404040" d="M297,-143.731C297,-128.088 297,-109.095 297,-91.7145"/>
<polygon fill="none" stroke="#404040" points="297,-91.7092 293,-85.7092 297,-79.7092 301,-85.7091 297,-91.7092"/>
<text text-anchor="middle" x="314.5" y="-101" font-family="Helvetica,sans-Serif" font-size="10.00"> +span</text>
</g>
<!-- Node5 -->
<g id="node5" class="node"><title>Node5</title>
<polygon fill="white" stroke="#bfbfbf" points="350,-266.5 350,-323.5 412,-323.5 412,-266.5 350,-266.5"/>
<text text-anchor="middle" x="381" y="-311.5" font-family="Helvetica,sans-Serif" font-size="10.00">ObjectRef</text>
<polyline fill="none" stroke="#bfbfbf" points="350,-304.5 412,-304.5 "/>
<text text-anchor="middle" x="381" y="-292.5" font-family="Helvetica,sans-Serif" font-size="10.00"> </text>
<polyline fill="none" stroke="#bfbfbf" points="350,-285.5 412,-285.5 "/>
<text text-anchor="middle" x="381" y="-273.5" font-family="Helvetica,sans-Serif" font-size="10.00"> </text>
</g>
<!-- Node5&#45;&gt;Node4 -->
<g id="edge4" class="edge"><title>Node5&#45;&gt;Node4</title>
<path fill="none" stroke="midnightblue" d="M354.765,-258.083C344.019,-243.371 331.662,-226.454 321.142,-212.052"/>
<polygon fill="none" stroke="midnightblue" points="352.155,-260.444 360.88,-266.455 357.808,-256.315 352.155,-260.444"/>
</g>
<!-- Node6 -->
<g id="node6" class="node"><title>Node6</title>
<g id="a_node6"><a xlink:href="classtvm_1_1Type.html" target="_top" xlink:title="Managed reference to TypeNode. ">
<polygon fill="white" stroke="black" points="390,-144 390,-212 540,-212 540,-144 390,-144"/>
<text text-anchor="middle" x="465" y="-200" font-family="Helvetica,sans-Serif" font-size="10.00">tvm::Type</text>
<polyline fill="none" stroke="black" points="390,-193 540,-193 "/>
<text text-anchor="middle" x="465" y="-181" font-family="Helvetica,sans-Serif" font-size="10.00"> </text>
<polyline fill="none" stroke="black" points="390,-174 540,-174 "/>
<text text-anchor="start" x="398" y="-162" font-family="Helvetica,sans-Serif" font-size="10.00">+ TVM_DEFINE_OBJECT_REF</text>
<text text-anchor="start" x="398" y="-151" font-family="Helvetica,sans-Serif" font-size="10.00">_METHODS()</text>
</a>
</g>
</g>
<!-- Node5&#45;&gt;Node6 -->
<g id="edge6" class="edge"><title>Node5&#45;&gt;Node6</title>
<path fill="none" stroke="midnightblue" d="M407.235,-258.083C417.981,-243.371 430.338,-226.454 440.858,-212.052"/>
<polygon fill="none" stroke="midnightblue" points="404.192,-256.315 401.12,-266.455 409.845,-260.444 404.192,-256.315"/>
</g>
<!-- Node6&#45;&gt;Node1 -->
<g id="edge5" class="edge"><title>Node6&#45;&gt;Node1</title>
<path fill="none" stroke="#404040" d="M423.903,-143.731C402.993,-126.804 377.235,-105.952 354.401,-87.4678"/>
<polygon fill="none" stroke="#404040" points="354.144,-87.2596 346.964,-86.5934 344.817,-79.7092 351.997,-80.3754 354.144,-87.2596"/>
<text text-anchor="middle" x="422.5" y="-101" font-family="Helvetica,sans-Serif" font-size="10.00"> +checked_type_</text>
</g>
</g>
</svg>
