<?xml version="1.0" encoding="UTF-8" standalone="no"?>
<!DOCTYPE svg PUBLIC "-//W3C//DTD SVG 1.1//EN"
 "http://www.w3.org/Graphics/SVG/1.1/DTD/svg11.dtd">
<!-- Generated by graphviz version 2.38.0 (20140413.2041)
 -->
<!-- Title: tvm::relay::TupleNode Pages: 1 -->
<svg width="621pt" height="628pt"
 viewBox="0.00 0.00 620.50 628.00" xmlns="http://www.w3.org/2000/svg" xmlns:xlink="http://www.w3.org/1999/xlink">
<g id="graph0" class="graph" transform="scale(1 1) rotate(0) translate(4 624)">
<title>tvm::relay::TupleNode</title>
<polygon fill="white" stroke="none" points="-4,4 -4,-624 616.5,-624 616.5,4 -4,4"/>
<!-- Node1 -->
<g id="node1" class="node"><title>Node1</title>
<polygon fill="#bfbfbf" stroke="black" points="348.5,-0.5 348.5,-90.5 553.5,-90.5 553.5,-0.5 348.5,-0.5"/>
<text text-anchor="middle" x="451" y="-78.5" font-family="Helvetica,sans-Serif" font-size="10.00">tvm::relay::TupleNode</text>
<polyline fill="none" stroke="black" points="348.5,-71.5 553.5,-71.5 "/>
<text text-anchor="start" x="356.5" y="-59.5" font-family="Helvetica,sans-Serif" font-size="10.00">+ _type_key</text>
<polyline fill="none" stroke="black" points="348.5,-52.5 553.5,-52.5 "/>
<text text-anchor="start" x="356.5" y="-40.5" font-family="Helvetica,sans-Serif" font-size="10.00">+ VisitAttrs()</text>
<text text-anchor="start" x="356.5" y="-29.5" font-family="Helvetica,sans-Serif" font-size="10.00">+ SEqualReduce()</text>
<text text-anchor="start" x="356.5" y="-18.5" font-family="Helvetica,sans-Serif" font-size="10.00">+ SHashReduce()</text>
<text text-anchor="start" x="356.5" y="-7.5" font-family="Helvetica,sans-Serif" font-size="10.00">+ TVM_DECLARE_FINAL_OBJECT_INFO()</text>
</g>
<!-- Node2 -->
<g id="node2" class="node"><title>Node2</title>
<g id="a_node2"><a xlink:href="classtvm_1_1RelayExprNode.html" target="_top" xlink:title="Base node of all non&#45;primitive expressions. ">
<polygon fill="white" stroke="black" points="246,-128.5 246,-207.5 450,-207.5 450,-128.5 246,-128.5"/>
<text text-anchor="middle" x="348" y="-195.5" font-family="Helvetica,sans-Serif" font-size="10.00">ExprNode</text>
<polyline fill="none" stroke="black" points="246,-188.5 450,-188.5 "/>
<text text-anchor="start" x="254" y="-176.5" font-family="Helvetica,sans-Serif" font-size="10.00">+ _type_key</text>
<polyline fill="none" stroke="black" points="246,-169.5 450,-169.5 "/>
<text text-anchor="start" x="254" y="-157.5" font-family="Helvetica,sans-Serif" font-size="10.00">+ checked_type()</text>
<text text-anchor="start" x="254" y="-146.5" font-family="Helvetica,sans-Serif" font-size="10.00">+ type_as()</text>
<text text-anchor="start" x="254" y="-135.5" font-family="Helvetica,sans-Serif" font-size="10.00">+ TVM_DECLARE_BASE_OBJECT_INFO()</text>
</a>
</g>
</g>
<!-- Node2&#45;&gt;Node1 -->
<g id="edge1" class="edge"><title>Node2&#45;&gt;Node1</title>
<path fill="none" stroke="midnightblue" d="M387.762,-120.482C396.139,-110.682 404.952,-100.371 413.252,-90.6615"/>
<polygon fill="none" stroke="midnightblue" points="384.994,-118.334 381.157,-128.21 390.315,-122.882 384.994,-118.334"/>
</g>
<!-- Node3 -->
<g id="node3" class="node"><title>Node3</title>
<g id="a_node3"><a xlink:href="classtvm_1_1BaseExprNode.html" target="_top" xlink:title="Base type of all the expressions. ">
<polygon fill="white" stroke="black" points="0,-423.5 0,-524.5 204,-524.5 204,-423.5 0,-423.5"/>
<text text-anchor="middle" x="102" y="-512.5" font-family="Helvetica,sans-Serif" font-size="10.00">tvm::BaseExprNode</text>
<polyline fill="none" stroke="black" points="0,-505.5 204,-505.5 "/>
<text text-anchor="start" x="8" y="-493.5" font-family="Helvetica,sans-Serif" font-size="10.00">+ _type_key</text>
<text text-anchor="start" x="8" y="-482.5" font-family="Helvetica,sans-Serif" font-size="10.00">+ _type_has_method_sequal</text>
<text text-anchor="start" x="8" y="-471.5" font-family="Helvetica,sans-Serif" font-size="10.00">_reduce</text>
<text text-anchor="start" x="8" y="-460.5" font-family="Helvetica,sans-Serif" font-size="10.00">+ _type_has_method_shash</text>
<text text-anchor="start" x="8" y="-449.5" font-family="Helvetica,sans-Serif" font-size="10.00">_reduce</text>
<polyline fill="none" stroke="black" points="0,-442.5 204,-442.5 "/>
<text text-anchor="start" x="8" y="-430.5" font-family="Helvetica,sans-Serif" font-size="10.00">+ TVM_DECLARE_BASE_OBJECT_INFO()</text>
</a>
</g>
</g>
<!-- Node3&#45;&gt;Node2 -->
<g id="edge2" class="edge"><title>Node3&#45;&gt;Node2</title>
<path fill="none" stroke="midnightblue" d="M148.529,-415.5C197.727,-354.703 273.983,-260.468 316.545,-207.871"/>
<polygon fill="none" stroke="midnightblue" points="145.641,-413.505 142.072,-423.481 151.083,-417.909 145.641,-413.505"/>
</g>
<!-- Node4 -->
<g id="node4" class="node"><title>Node4</title>
<polygon fill="white" stroke="#bfbfbf" points="78.5,-562.5 78.5,-619.5 125.5,-619.5 125.5,-562.5 78.5,-562.5"/>
<text text-anchor="middle" x="102" y="-607.5" font-family="Helvetica,sans-Serif" font-size="10.00">Object</text>
<polyline fill="none" stroke="#bfbfbf" points="78.5,-600.5 125.5,-600.5 "/>
<text text-anchor="middle" x="102" y="-588.5" font-family="Helvetica,sans-Serif" font-size="10.00"> </text>
<polyline fill="none" stroke="#bfbfbf" points="78.5,-581.5 125.5,-581.5 "/>
<text text-anchor="middle" x="102" y="-569.5" font-family="Helvetica,sans-Serif" font-size="10.00"> </text>
</g>
<!-- Node4&#45;&gt;Node3 -->
<g id="edge3" class="edge"><title>Node4&#45;&gt;Node3</title>
<path fill="none" stroke="midnightblue" d="M102,-552.187C102,-543.435 102,-533.99 102,-524.812"/>
<polygon fill="none" stroke="midnightblue" points="98.5001,-552.455 102,-562.455 105.5,-552.455 98.5001,-552.455"/>
</g>
<!-- Node5 -->
<g id="node5" class="node"><title>Node5</title>
<g id="a_node5"><a xlink:href="classtvm_1_1Span.html" target="_top" xlink:title="{tvm::Span\n||+ TVM_DEFINE_OBJECT_REF\l_METHODS()\l}">
<polygon fill="white" stroke="black" points="222,-440 222,-508 372,-508 372,-440 222,-440"/>
<text text-anchor="middle" x="297" y="-496" font-family="Helvetica,sans-Serif" font-size="10.00">tvm::Span</text>
<polyline fill="none" stroke="black" points="222,-489 372,-489 "/>
<text text-anchor="middle" x="297" y="-477" font-family="Helvetica,sans-Serif" font-size="10.00"> </text>
<polyline fill="none" stroke="black" points="222,-470 372,-470 "/>
<text text-anchor="start" x="230" y="-458" font-family="Helvetica,sans-Serif" font-size="10.00">+ TVM_DEFINE_OBJECT_REF</text>
<text text-anchor="start" x="230" y="-447" font-family="Helvetica,sans-Serif" font-size="10.00">_METHODS()</text>
</a>
</g>
</g>
<!-- Node5&#45;&gt;Node2 -->
<g id="edge4" class="edge"><title>Node5&#45;&gt;Node2</title>
<path fill="none" stroke="#404040" d="M302.555,-439.888C311.462,-386.797 328.999,-282.259 339.492,-219.713"/>
<polygon fill="none" stroke="#404040" points="339.507,-219.626 336.555,-213.047 341.492,-207.791 344.444,-214.37 339.507,-219.626"/>
<text text-anchor="middle" x="356.5" y="-313" font-family="Helvetica,sans-Serif" font-size="10.00"> +span</text>
</g>
<!-- Node6 -->
<g id="node6" class="node"><title>Node6</title>
<polygon fill="white" stroke="#bfbfbf" points="434,-562.5 434,-619.5 496,-619.5 496,-562.5 434,-562.5"/>
<text text-anchor="middle" x="465" y="-607.5" font-family="Helvetica,sans-Serif" font-size="10.00">ObjectRef</text>
<polyline fill="none" stroke="#bfbfbf" points="434,-600.5 496,-600.5 "/>
<text text-anchor="middle" x="465" y="-588.5" font-family="Helvetica,sans-Serif" font-size="10.00"> </text>
<polyline fill="none" stroke="#bfbfbf" points="434,-581.5 496,-581.5 "/>
<text text-anchor="middle" x="465" y="-569.5" font-family="Helvetica,sans-Serif" font-size="10.00"> </text>
</g>
<!-- Node6&#45;&gt;Node5 -->
<g id="edge5" class="edge"><title>Node6&#45;&gt;Node5</title>
<path fill="none" stroke="midnightblue" d="M425.287,-562.815C401.305,-546.399 370.58,-525.367 345.211,-508.001"/>
<polygon fill="none" stroke="midnightblue" points="423.565,-565.878 433.794,-568.639 427.519,-560.102 423.565,-565.878"/>
</g>
<!-- Node7 -->
<g id="node7" class="node"><title>Node7</title>
<g id="a_node7"><a xlink:href="classtvm_1_1Type.html" target="_top" xlink:title="Managed reference to TypeNode. ">
<polygon fill="white" stroke="black" points="390,-440 390,-508 540,-508 540,-440 390,-440"/>
<text text-anchor="middle" x="465" y="-496" font-family="Helvetica,sans-Serif" font-size="10.00">tvm::Type</text>
<polyline fill="none" stroke="black" points="390,-489 540,-489 "/>
<text text-anchor="middle" x="465" y="-477" font-family="Helvetica,sans-Serif" font-size="10.00"> </text>
<polyline fill="none" stroke="black" points="390,-470 540,-470 "/>
<text text-anchor="start" x="398" y="-458" font-family="Helvetica,sans-Serif" font-size="10.00">+ TVM_DEFINE_OBJECT_REF</text>
<text text-anchor="start" x="398" y="-447" font-family="Helvetica,sans-Serif" font-size="10.00">_METHODS()</text>
</a>
</g>
</g>
<!-- Node6&#45;&gt;Node7 -->
<g id="edge7" class="edge"><title>Node6&#45;&gt;Node7</title>
<path fill="none" stroke="midnightblue" d="M465,-552.424C465,-538.11 465,-521.916 465,-508.052"/>
<polygon fill="none" stroke="midnightblue" points="461.5,-552.455 465,-562.455 468.5,-552.455 461.5,-552.455"/>
</g>
<!-- Node8 -->
<g id="node8" class="node"><title>Node8</title>
<g id="a_node8"><a xlink:href="classtvm_1_1Array.html" target="_top" xlink:title="{tvm::Array\&lt; relay::\ltvm::RelayExpr \&gt;\n||+ Array()\l+ Array()\l+ Array()\l+ Array()\l+ Array()\l+ Array()\l+ Array()\l+ Array()\l+ operator=()\l+ operator=()\land 13 more...\l}">
<polygon fill="white" stroke="black" points="505.5,-226.5 505.5,-404.5 612.5,-404.5 612.5,-226.5 505.5,-226.5"/>
<text text-anchor="start" x="513.5" y="-392.5" font-family="Helvetica,sans-Serif" font-size="10.00">tvm::Array&lt; relay::</text>
<text text-anchor="middle" x="559" y="-381.5" font-family="Helvetica,sans-Serif" font-size="10.00">tvm::RelayExpr &gt;</text>
<polyline fill="none" stroke="black" points="505.5,-374.5 612.5,-374.5 "/>
<text text-anchor="middle" x="559" y="-362.5" font-family="Helvetica,sans-Serif" font-size="10.00"> </text>
<polyline fill="none" stroke="black" points="505.5,-355.5 612.5,-355.5 "/>
<text text-anchor="start" x="513.5" y="-343.5" font-family="Helvetica,sans-Serif" font-size="10.00">+ Array()</text>
<text text-anchor="start" x="513.5" y="-332.5" font-family="Helvetica,sans-Serif" font-size="10.00">+ Array()</text>
<text text-anchor="start" x="513.5" y="-321.5" font-family="Helvetica,sans-Serif" font-size="10.00">+ Array()</text>
<text text-anchor="start" x="513.5" y="-310.5" font-family="Helvetica,sans-Serif" font-size="10.00">+ Array()</text>
<text text-anchor="start" x="513.5" y="-299.5" font-family="Helvetica,sans-Serif" font-size="10.00">+ Array()</text>
<text text-anchor="start" x="513.5" y="-288.5" font-family="Helvetica,sans-Serif" font-size="10.00">+ Array()</text>
<text text-anchor="start" x="513.5" y="-277.5" font-family="Helvetica,sans-Serif" font-size="10.00">+ Array()</text>
<text text-anchor="start" x="513.5" y="-266.5" font-family="Helvetica,sans-Serif" font-size="10.00">+ Array()</text>
<text text-anchor="start" x="513.5" y="-255.5" font-family="Helvetica,sans-Serif" font-size="10.00">+ operator=()</text>
<text text-anchor="start" x="513.5" y="-244.5" font-family="Helvetica,sans-Serif" font-size="10.00">+ operator=()</text>
<text text-anchor="start" x="513.5" y="-233.5" font-family="Helvetica,sans-Serif" font-size="10.00">and 13 more...</text>
</a>
</g>
</g>
<!-- Node6&#45;&gt;Node8 -->
<g id="edge9" class="edge"><title>Node6&#45;&gt;Node8</title>
<path fill="none" stroke="midnightblue" d="M504.854,-569.43C521.538,-558.603 539.282,-543.663 549,-525 567.955,-488.598 572.096,-443.599 570.821,-404.734"/>
<polygon fill="none" stroke="midnightblue" points="502.952,-566.491 496.274,-574.716 506.624,-572.451 502.952,-566.491"/>
</g>
<!-- Node7&#45;&gt;Node2 -->
<g id="edge6" class="edge"><title>Node7&#45;&gt;Node2</title>
<path fill="none" stroke="#404040" d="M434.729,-439.671C426.59,-429.203 418.523,-417.182 413,-405 379.492,-331.093 403.645,-302.649 377,-226 376.174,-223.624 375.267,-221.222 374.3,-218.817"/>
<polygon fill="none" stroke="#404040" points="374.218,-218.629 368.15,-214.732 369.414,-207.632 375.481,-211.529 374.218,-218.629"/>
<text text-anchor="middle" x="454.5" y="-313" font-family="Helvetica,sans-Serif" font-size="10.00"> +checked_type_</text>
</g>
<!-- Node8&#45;&gt;Node1 -->
<g id="edge8" class="edge"><title>Node8&#45;&gt;Node1</title>
<path fill="none" stroke="#404040" d="M523.487,-226.376C506.955,-185.352 487.794,-137.804 473.326,-101.901"/>
<polygon fill="none" stroke="#404040" points="473.288,-101.806 467.335,-97.7364 468.802,-90.6761 474.755,-94.7461 473.288,-101.806"/>
<text text-anchor="middle" x="533.5" y="-165.5" font-family="Helvetica,sans-Serif" font-size="10.00"> +fields</text>
</g>
</g>
</svg>
