<?xml version="1.0" encoding="UTF-8" standalone="no"?>
<!DOCTYPE svg PUBLIC "-//W3C//DTD SVG 1.1//EN"
 "http://www.w3.org/Graphics/SVG/1.1/DTD/svg11.dtd">
<!-- Generated by graphviz version 2.38.0 (20140413.2041)
 -->
<!-- Title: tvm::TypeCallNode Pages: 1 -->
<svg width="456pt" height="606pt"
 viewBox="0.00 0.00 456.00 606.00" xmlns="http://www.w3.org/2000/svg" xmlns:xlink="http://www.w3.org/1999/xlink">
<g id="graph0" class="graph" transform="scale(1 1) rotate(0) translate(4 602)">
<title>tvm::TypeCallNode</title>
<polygon fill="white" stroke="none" points="-4,4 -4,-602 452,-602 452,4 -4,4"/>
<!-- Node1 -->
<g id="node1" class="node"><title>Node1</title>
<polygon fill="#bfbfbf" stroke="black" points="137.5,-0.5 137.5,-90.5 342.5,-90.5 342.5,-0.5 137.5,-0.5"/>
<text text-anchor="middle" x="240" y="-78.5" font-family="Helvetica,sans-Serif" font-size="10.00">tvm::TypeCallNode</text>
<polyline fill="none" stroke="black" points="137.5,-71.5 342.5,-71.5 "/>
<text text-anchor="start" x="145.5" y="-59.5" font-family="Helvetica,sans-Serif" font-size="10.00">+ _type_key</text>
<polyline fill="none" stroke="black" points="137.5,-52.5 342.5,-52.5 "/>
<text text-anchor="start" x="145.5" y="-40.5" font-family="Helvetica,sans-Serif" font-size="10.00">+ VisitAttrs()</text>
<text text-anchor="start" x="145.5" y="-29.5" font-family="Helvetica,sans-Serif" font-size="10.00">+ SEqualReduce()</text>
<text text-anchor="start" x="145.5" y="-18.5" font-family="Helvetica,sans-Serif" font-size="10.00">+ SHashReduce()</text>
<text text-anchor="start" x="145.5" y="-7.5" font-family="Helvetica,sans-Serif" font-size="10.00">+ TVM_DECLARE_FINAL_OBJECT_INFO()</text>
</g>
<!-- Node2 -->
<g id="node2" class="node"><title>Node2</title>
<g id="a_node2"><a xlink:href="classtvm_1_1TypeNode.html" target="_top" xlink:title="Type is the base type of all types. ">
<polygon fill="white" stroke="black" points="0,-128.5 0,-229.5 204,-229.5 204,-128.5 0,-128.5"/>
<text text-anchor="middle" x="102" y="-217.5" font-family="Helvetica,sans-Serif" font-size="10.00">tvm::TypeNode</text>
<polyline fill="none" stroke="black" points="0,-210.5 204,-210.5 "/>
<text text-anchor="start" x="8" y="-198.5" font-family="Helvetica,sans-Serif" font-size="10.00">+ _type_key</text>
<text text-anchor="start" x="8" y="-187.5" font-family="Helvetica,sans-Serif" font-size="10.00">+ _type_has_method_sequal</text>
<text text-anchor="start" x="8" y="-176.5" font-family="Helvetica,sans-Serif" font-size="10.00">_reduce</text>
<text text-anchor="start" x="8" y="-165.5" font-family="Helvetica,sans-Serif" font-size="10.00">+ _type_has_method_shash</text>
<text text-anchor="start" x="8" y="-154.5" font-family="Helvetica,sans-Serif" font-size="10.00">_reduce</text>
<polyline fill="none" stroke="black" points="0,-147.5 204,-147.5 "/>
<text text-anchor="start" x="8" y="-135.5" font-family="Helvetica,sans-Serif" font-size="10.00">+ TVM_DECLARE_BASE_OBJECT_INFO()</text>
</a>
</g>
</g>
<!-- Node2&#45;&gt;Node1 -->
<g id="edge1" class="edge"><title>Node2&#45;&gt;Node1</title>
<path fill="none" stroke="midnightblue" d="M161.547,-121.258C172.29,-111.021 183.345,-100.487 193.643,-90.6734"/>
<polygon fill="none" stroke="midnightblue" points="158.997,-118.853 154.172,-128.285 163.826,-123.921 158.997,-118.853"/>
</g>
<!-- Node3 -->
<g id="node3" class="node"><title>Node3</title>
<polygon fill="white" stroke="#bfbfbf" points="14.5,-440 14.5,-497 61.5,-497 61.5,-440 14.5,-440"/>
<text text-anchor="middle" x="38" y="-485" font-family="Helvetica,sans-Serif" font-size="10.00">Object</text>
<polyline fill="none" stroke="#bfbfbf" points="14.5,-478 61.5,-478 "/>
<text text-anchor="middle" x="38" y="-466" font-family="Helvetica,sans-Serif" font-size="10.00"> </text>
<polyline fill="none" stroke="#bfbfbf" points="14.5,-459 61.5,-459 "/>
<text text-anchor="middle" x="38" y="-447" font-family="Helvetica,sans-Serif" font-size="10.00"> </text>
</g>
<!-- Node3&#45;&gt;Node2 -->
<g id="edge2" class="edge"><title>Node3&#45;&gt;Node2</title>
<path fill="none" stroke="midnightblue" d="M46.3609,-429.941C57.7743,-378.67 78.2584,-286.652 90.934,-229.711"/>
<polygon fill="none" stroke="midnightblue" points="42.8932,-429.412 44.1366,-439.933 49.7259,-430.933 42.8932,-429.412"/>
</g>
<!-- Node4 -->
<g id="node4" class="node"><title>Node4</title>
<g id="a_node4"><a xlink:href="classtvm_1_1Span.html" target="_top" xlink:title="{tvm::Span\n||+ TVM_DEFINE_OBJECT_REF\l_METHODS()\l}">
<polygon fill="white" stroke="black" points="79,-434.5 79,-502.5 229,-502.5 229,-434.5 79,-434.5"/>
<text text-anchor="middle" x="154" y="-490.5" font-family="Helvetica,sans-Serif" font-size="10.00">tvm::Span</text>
<polyline fill="none" stroke="black" points="79,-483.5 229,-483.5 "/>
<text text-anchor="middle" x="154" y="-471.5" font-family="Helvetica,sans-Serif" font-size="10.00"> </text>
<polyline fill="none" stroke="black" points="79,-464.5 229,-464.5 "/>
<text text-anchor="start" x="87" y="-452.5" font-family="Helvetica,sans-Serif" font-size="10.00">+ TVM_DEFINE_OBJECT_REF</text>
<text text-anchor="start" x="87" y="-441.5" font-family="Helvetica,sans-Serif" font-size="10.00">_METHODS()</text>
</a>
</g>
</g>
<!-- Node4&#45;&gt;Node2 -->
<g id="edge3" class="edge"><title>Node4&#45;&gt;Node2</title>
<path fill="none" stroke="#404040" d="M122.943,-434.448C118.946,-428.658 115.412,-422.419 113,-416 91.8504,-359.721 91.3139,-290.52 94.7192,-241.645"/>
<polygon fill="none" stroke="#404040" points="94.7195,-241.64 91.2019,-235.345 95.6597,-229.677 99.1773,-235.972 94.7195,-241.64"/>
<text text-anchor="middle" x="130.5" y="-329.5" font-family="Helvetica,sans-Serif" font-size="10.00"> +span</text>
</g>
<!-- Node5 -->
<g id="node5" class="node"><title>Node5</title>
<polygon fill="white" stroke="#bfbfbf" points="226,-540.5 226,-597.5 288,-597.5 288,-540.5 226,-540.5"/>
<text text-anchor="middle" x="257" y="-585.5" font-family="Helvetica,sans-Serif" font-size="10.00">ObjectRef</text>
<polyline fill="none" stroke="#bfbfbf" points="226,-578.5 288,-578.5 "/>
<text text-anchor="middle" x="257" y="-566.5" font-family="Helvetica,sans-Serif" font-size="10.00"> </text>
<polyline fill="none" stroke="#bfbfbf" points="226,-559.5 288,-559.5 "/>
<text text-anchor="middle" x="257" y="-547.5" font-family="Helvetica,sans-Serif" font-size="10.00"> </text>
</g>
<!-- Node5&#45;&gt;Node4 -->
<g id="edge4" class="edge"><title>Node5&#45;&gt;Node4</title>
<path fill="none" stroke="midnightblue" d="M220.637,-533.226C210.22,-523.264 198.897,-512.435 188.59,-502.578"/>
<polygon fill="none" stroke="midnightblue" points="218.388,-535.918 228.035,-540.3 223.226,-530.859 218.388,-535.918"/>
</g>
<!-- Node6 -->
<g id="node6" class="node"><title>Node6</title>
<g id="a_node6"><a xlink:href="classtvm_1_1Array.html" target="_top" xlink:title="{tvm::Array\&lt; tvm::Type \&gt;\n||+ Array()\l+ Array()\l+ Array()\l+ Array()\l+ Array()\l+ Array()\l+ Array()\l+ Array()\l+ operator=()\l+ operator=()\land 13 more...\l}">
<polygon fill="white" stroke="black" points="157.5,-248.5 157.5,-415.5 292.5,-415.5 292.5,-248.5 157.5,-248.5"/>
<text text-anchor="middle" x="225" y="-403.5" font-family="Helvetica,sans-Serif" font-size="10.00">tvm::Array&lt; tvm::Type &gt;</text>
<polyline fill="none" stroke="black" points="157.5,-396.5 292.5,-396.5 "/>
<text text-anchor="middle" x="225" y="-384.5" font-family="Helvetica,sans-Serif" font-size="10.00"> </text>
<polyline fill="none" stroke="black" points="157.5,-377.5 292.5,-377.5 "/>
<text text-anchor="start" x="165.5" y="-365.5" font-family="Helvetica,sans-Serif" font-size="10.00">+ Array()</text>
<text text-anchor="start" x="165.5" y="-354.5" font-family="Helvetica,sans-Serif" font-size="10.00">+ Array()</text>
<text text-anchor="start" x="165.5" y="-343.5" font-family="Helvetica,sans-Serif" font-size="10.00">+ Array()</text>
<text text-anchor="start" x="165.5" y="-332.5" font-family="Helvetica,sans-Serif" font-size="10.00">+ Array()</text>
<text text-anchor="start" x="165.5" y="-321.5" font-family="Helvetica,sans-Serif" font-size="10.00">+ Array()</text>
<text text-anchor="start" x="165.5" y="-310.5" font-family="Helvetica,sans-Serif" font-size="10.00">+ Array()</text>
<text text-anchor="start" x="165.5" y="-299.5" font-family="Helvetica,sans-Serif" font-size="10.00">+ Array()</text>
<text text-anchor="start" x="165.5" y="-288.5" font-family="Helvetica,sans-Serif" font-size="10.00">+ Array()</text>
<text text-anchor="start" x="165.5" y="-277.5" font-family="Helvetica,sans-Serif" font-size="10.00">+ operator=()</text>
<text text-anchor="start" x="165.5" y="-266.5" font-family="Helvetica,sans-Serif" font-size="10.00">+ operator=()</text>
<text text-anchor="start" x="165.5" y="-255.5" font-family="Helvetica,sans-Serif" font-size="10.00">and 13 more...</text>
</a>
</g>
</g>
<!-- Node5&#45;&gt;Node6 -->
<g id="edge6" class="edge"><title>Node5&#45;&gt;Node6</title>
<path fill="none" stroke="midnightblue" d="M251.8,-529.811C247.6,-498.965 241.537,-454.443 236.24,-415.544"/>
<polygon fill="none" stroke="midnightblue" points="248.386,-530.683 253.204,-540.12 255.322,-529.739 248.386,-530.683"/>
</g>
<!-- Node7 -->
<g id="node7" class="node"><title>Node7</title>
<g id="a_node7"><a xlink:href="classtvm_1_1Type.html" target="_top" xlink:title="Managed reference to TypeNode. ">
<polygon fill="white" stroke="black" points="298,-298 298,-366 448,-366 448,-298 298,-298"/>
<text text-anchor="middle" x="373" y="-354" font-family="Helvetica,sans-Serif" font-size="10.00">tvm::Type</text>
<polyline fill="none" stroke="black" points="298,-347 448,-347 "/>
<text text-anchor="middle" x="373" y="-335" font-family="Helvetica,sans-Serif" font-size="10.00"> </text>
<polyline fill="none" stroke="black" points="298,-328 448,-328 "/>
<text text-anchor="start" x="306" y="-316" font-family="Helvetica,sans-Serif" font-size="10.00">+ TVM_DEFINE_OBJECT_REF</text>
<text text-anchor="start" x="306" y="-305" font-family="Helvetica,sans-Serif" font-size="10.00">_METHODS()</text>
</a>
</g>
</g>
<!-- Node5&#45;&gt;Node7 -->
<g id="edge8" class="edge"><title>Node5&#45;&gt;Node7</title>
<path fill="none" stroke="midnightblue" d="M275.295,-530.937C297.668,-485.613 335.197,-409.583 356.647,-366.129"/>
<polygon fill="none" stroke="midnightblue" points="272.05,-529.603 270.762,-540.12 278.327,-532.702 272.05,-529.603"/>
</g>
<!-- Node6&#45;&gt;Node1 -->
<g id="edge5" class="edge"><title>Node6&#45;&gt;Node1</title>
<path fill="none" stroke="#404040" d="M229.359,-248.329C231.826,-201.542 234.846,-144.261 237.037,-102.69"/>
<polygon fill="none" stroke="#404040" points="237.043,-102.577 233.365,-96.3745 237.675,-90.5935 241.354,-96.7958 237.043,-102.577"/>
<text text-anchor="middle" x="252.5" y="-176.5" font-family="Helvetica,sans-Serif" font-size="10.00"> +args</text>
</g>
<!-- Node7&#45;&gt;Node1 -->
<g id="edge7" class="edge"><title>Node7&#45;&gt;Node1</title>
<path fill="none" stroke="#404040" d="M357.483,-297.807C334.999,-249.712 293.082,-160.047 265.874,-101.847"/>
<polygon fill="none" stroke="#404040" points="265.721,-101.519 259.556,-97.7777 260.639,-90.6483 266.803,-94.3897 265.721,-101.519"/>
<text text-anchor="middle" x="342" y="-176.5" font-family="Helvetica,sans-Serif" font-size="10.00"> +func</text>
</g>
</g>
</svg>
