<?xml version="1.0" encoding="UTF-8" standalone="no"?>
<!DOCTYPE svg PUBLIC "-//W3C//DTD SVG 1.1//EN"
 "http://www.w3.org/Graphics/SVG/1.1/DTD/svg11.dtd">
<!-- Generated by graphviz version 2.38.0 (20140413.2041)
 -->
<!-- Title: tvm::runtime::TVMArgValue Pages: 1 -->
<svg width="166pt" height="541pt"
 viewBox="0.00 0.00 166.00 541.00" xmlns="http://www.w3.org/2000/svg" xmlns:xlink="http://www.w3.org/1999/xlink">
<g id="graph0" class="graph" transform="scale(1 1) rotate(0) translate(4 537)">
<title>tvm::runtime::TVMArgValue</title>
<polygon fill="white" stroke="none" points="-4,4 -4,-537 162,-537 162,4 -4,4"/>
<!-- Node1 -->
<g id="node1" class="node"><title>Node1</title>
<polygon fill="#bfbfbf" stroke="black" points="1.5,-0.5 1.5,-145.5 156.5,-145.5 156.5,-0.5 1.5,-0.5"/>
<text text-anchor="middle" x="79" y="-133.5" font-family="Helvetica,sans-Serif" font-size="10.00">tvm::runtime::TVMArgValue</text>
<polyline fill="none" stroke="black" points="1.5,-126.5 156.5,-126.5 "/>
<text text-anchor="middle" x="79" y="-114.5" font-family="Helvetica,sans-Serif" font-size="10.00"> </text>
<polyline fill="none" stroke="black" points="1.5,-107.5 156.5,-107.5 "/>
<text text-anchor="start" x="9.5" y="-95.5" font-family="Helvetica,sans-Serif" font-size="10.00">+ TVMArgValue()</text>
<text text-anchor="start" x="9.5" y="-84.5" font-family="Helvetica,sans-Serif" font-size="10.00">+ TVMArgValue()</text>
<text text-anchor="start" x="9.5" y="-73.5" font-family="Helvetica,sans-Serif" font-size="10.00">+ operator DLDataType()</text>
<text text-anchor="start" x="9.5" y="-62.5" font-family="Helvetica,sans-Serif" font-size="10.00">+ operator DataType()</text>
<text text-anchor="start" x="9.5" y="-51.5" font-family="Helvetica,sans-Serif" font-size="10.00">+ operator PackedFunc()</text>
<text text-anchor="start" x="9.5" y="-40.5" font-family="Helvetica,sans-Serif" font-size="10.00">+ operator TypedPackedFunc</text>
<text text-anchor="start" x="9.5" y="-29.5" font-family="Helvetica,sans-Serif" font-size="10.00">&lt; FType &gt;()</text>
<text text-anchor="start" x="9.5" y="-18.5" font-family="Helvetica,sans-Serif" font-size="10.00">+ value()</text>
<text text-anchor="start" x="9.5" y="-7.5" font-family="Helvetica,sans-Serif" font-size="10.00">+ operator T()</text>
</g>
<!-- Node2 -->
<g id="node2" class="node"><title>Node2</title>
<g id="a_node2"><a xlink:href="classtvm_1_1runtime_1_1TVMPODValue__.html" target="_top" xlink:title="Internal base class to handle conversion to POD values. ">
<polygon fill="white" stroke="black" points="-1.42109e-14,-183.5 -1.42109e-14,-372.5 158,-372.5 158,-183.5 -1.42109e-14,-183.5"/>
<text text-anchor="middle" x="79" y="-360.5" font-family="Helvetica,sans-Serif" font-size="10.00">tvm::runtime::TVMPODValue_</text>
<polyline fill="none" stroke="black" points="-1.42109e-14,-353.5 158,-353.5 "/>
<text text-anchor="start" x="8" y="-341.5" font-family="Helvetica,sans-Serif" font-size="10.00"># type_code_</text>
<polyline fill="none" stroke="black" points="-1.42109e-14,-334.5 158,-334.5 "/>
<text text-anchor="start" x="8" y="-322.5" font-family="Helvetica,sans-Serif" font-size="10.00">+ operator double()</text>
<text text-anchor="start" x="8" y="-311.5" font-family="Helvetica,sans-Serif" font-size="10.00">+ operator int64_t()</text>
<text text-anchor="start" x="8" y="-300.5" font-family="Helvetica,sans-Serif" font-size="10.00">+ operator uint64_t()</text>
<text text-anchor="start" x="8" y="-289.5" font-family="Helvetica,sans-Serif" font-size="10.00">+ operator int()</text>
<text text-anchor="start" x="8" y="-278.5" font-family="Helvetica,sans-Serif" font-size="10.00">+ operator bool()</text>
<text text-anchor="start" x="8" y="-267.5" font-family="Helvetica,sans-Serif" font-size="10.00">+ operator void *()</text>
<text text-anchor="start" x="8" y="-256.5" font-family="Helvetica,sans-Serif" font-size="10.00">+ operator DLTensor *()</text>
<text text-anchor="start" x="8" y="-245.5" font-family="Helvetica,sans-Serif" font-size="10.00">+ operator NDArray()</text>
<text text-anchor="start" x="8" y="-234.5" font-family="Helvetica,sans-Serif" font-size="10.00">+ operator Module()</text>
<text text-anchor="start" x="8" y="-223.5" font-family="Helvetica,sans-Serif" font-size="10.00">+ operator TVMContext()</text>
<text text-anchor="start" x="8" y="-212.5" font-family="Helvetica,sans-Serif" font-size="10.00">and 6 more...</text>
<text text-anchor="start" x="8" y="-201.5" font-family="Helvetica,sans-Serif" font-size="10.00"># TVMPODValue_()</text>
<text text-anchor="start" x="8" y="-190.5" font-family="Helvetica,sans-Serif" font-size="10.00"># TVMPODValue_()</text>
</a>
</g>
</g>
<!-- Node2&#45;&gt;Node1 -->
<g id="edge1" class="edge"><title>Node2&#45;&gt;Node1</title>
<path fill="none" stroke="midnightblue" d="M79,-173.106C79,-163.777 79,-154.474 79,-145.514"/>
<polygon fill="none" stroke="midnightblue" points="75.5001,-173.225 79,-183.225 82.5001,-173.225 75.5001,-173.225"/>
</g>
<!-- Node3 -->
<g id="node3" class="node"><title>Node3</title>
<g id="a_node3"><a xlink:href="unionTVMValue.html" target="_top" xlink:title="Union type of values being passed through API and function calls. ">
<polygon fill="white" stroke="black" points="43.5,-420.5 43.5,-532.5 114.5,-532.5 114.5,-420.5 43.5,-420.5"/>
<text text-anchor="middle" x="79" y="-520.5" font-family="Helvetica,sans-Serif" font-size="10.00">TVMValue</text>
<polyline fill="none" stroke="black" points="43.5,-513.5 114.5,-513.5 "/>
<text text-anchor="start" x="51.5" y="-501.5" font-family="Helvetica,sans-Serif" font-size="10.00">+ v_int64</text>
<text text-anchor="start" x="51.5" y="-490.5" font-family="Helvetica,sans-Serif" font-size="10.00">+ v_float64</text>
<text text-anchor="start" x="51.5" y="-479.5" font-family="Helvetica,sans-Serif" font-size="10.00">+ v_handle</text>
<text text-anchor="start" x="51.5" y="-468.5" font-family="Helvetica,sans-Serif" font-size="10.00">+ v_str</text>
<text text-anchor="start" x="51.5" y="-457.5" font-family="Helvetica,sans-Serif" font-size="10.00">+ v_type</text>
<text text-anchor="start" x="51.5" y="-446.5" font-family="Helvetica,sans-Serif" font-size="10.00">+ v_ctx</text>
<polyline fill="none" stroke="black" points="43.5,-439.5 114.5,-439.5 "/>
<text text-anchor="middle" x="79" y="-427.5" font-family="Helvetica,sans-Serif" font-size="10.00"> </text>
</a>
</g>
</g>
<!-- Node3&#45;&gt;Node2 -->
<g id="edge2" class="edge"><title>Node3&#45;&gt;Node2</title>
<path fill="none" stroke="#404040" d="M79,-420.241C79,-409.088 79,-397.014 79,-384.784"/>
<polygon fill="none" stroke="#404040" points="79.0001,-384.53 75,-378.53 79,-372.53 83,-378.53 79.0001,-384.53"/>
<text text-anchor="middle" x="100.5" y="-394" font-family="Helvetica,sans-Serif" font-size="10.00"> #value_</text>
</g>
</g>
</svg>
