<?xml version="1.0" encoding="UTF-8" standalone="no"?>
<!DOCTYPE svg PUBLIC "-//W3C//DTD SVG 1.1//EN"
 "http://www.w3.org/Graphics/SVG/1.1/DTD/svg11.dtd">
<!-- Generated by graphviz version 2.38.0 (20140413.2041)
 -->
<!-- Title: tvm::relay::OpSpecializationNode Pages: 1 -->
<svg width="374pt" height="398pt"
 viewBox="0.00 0.00 373.50 398.00" xmlns="http://www.w3.org/2000/svg" xmlns:xlink="http://www.w3.org/1999/xlink">
<g id="graph0" class="graph" transform="scale(1 1) rotate(0) translate(4 394)">
<title>tvm::relay::OpSpecializationNode</title>
<polygon fill="white" stroke="none" points="-4,4 -4,-394 369.5,-394 369.5,4 -4,4"/>
<!-- Node1 -->
<g id="node1" class="node"><title>Node1</title>
<polygon fill="#bfbfbf" stroke="black" points="26,-0.5 26,-68.5 231,-68.5 231,-0.5 26,-0.5"/>
<text text-anchor="middle" x="128.5" y="-56.5" font-family="Helvetica,sans-Serif" font-size="10.00">tvm::relay::OpSpecializationNode</text>
<polyline fill="none" stroke="black" points="26,-49.5 231,-49.5 "/>
<text text-anchor="start" x="34" y="-37.5" font-family="Helvetica,sans-Serif" font-size="10.00">+ _type_key</text>
<polyline fill="none" stroke="black" points="26,-30.5 231,-30.5 "/>
<text text-anchor="start" x="34" y="-18.5" font-family="Helvetica,sans-Serif" font-size="10.00">+ VisitAttrs()</text>
<text text-anchor="start" x="34" y="-7.5" font-family="Helvetica,sans-Serif" font-size="10.00">+ TVM_DECLARE_FINAL_OBJECT_INFO()</text>
</g>
<!-- Node2 -->
<g id="node2" class="node"><title>Node2</title>
<polygon fill="white" stroke="#bfbfbf" points="0,-177 0,-234 47,-234 47,-177 0,-177"/>
<text text-anchor="middle" x="23.5" y="-222" font-family="Helvetica,sans-Serif" font-size="10.00">Object</text>
<polyline fill="none" stroke="#bfbfbf" points="0,-215 47,-215 "/>
<text text-anchor="middle" x="23.5" y="-203" font-family="Helvetica,sans-Serif" font-size="10.00"> </text>
<polyline fill="none" stroke="#bfbfbf" points="0,-196 47,-196 "/>
<text text-anchor="middle" x="23.5" y="-184" font-family="Helvetica,sans-Serif" font-size="10.00"> </text>
</g>
<!-- Node2&#45;&gt;Node1 -->
<g id="edge1" class="edge"><title>Node2&#45;&gt;Node1</title>
<path fill="none" stroke="midnightblue" d="M33.9743,-167.192C39.4184,-150.837 46.9524,-131.809 56.5,-116 66.775,-98.9868 80.8853,-82.2611 93.8931,-68.5017"/>
<polygon fill="none" stroke="midnightblue" points="30.5576,-166.386 30.8553,-176.977 37.227,-168.512 30.5576,-166.386"/>
</g>
<!-- Node3 -->
<g id="node3" class="node"><title>Node3</title>
<g id="a_node3"><a xlink:href="classtvm_1_1Array.html" target="_top" xlink:title="{tvm::Array\&lt; tvm::relay\l::OpImplementation \&gt;\n||+ Array()\l+ Array()\l+ Array()\l+ Array()\l+ Array()\l+ Array()\l+ Array()\l+ Array()\l+ operator=()\l+ operator=()\land 13 more...\l}">
<polygon fill="white" stroke="black" points="65.5,-116.5 65.5,-294.5 191.5,-294.5 191.5,-116.5 65.5,-116.5"/>
<text text-anchor="start" x="73.5" y="-282.5" font-family="Helvetica,sans-Serif" font-size="10.00">tvm::Array&lt; tvm::relay</text>
<text text-anchor="middle" x="128.5" y="-271.5" font-family="Helvetica,sans-Serif" font-size="10.00">::OpImplementation &gt;</text>
<polyline fill="none" stroke="black" points="65.5,-264.5 191.5,-264.5 "/>
<text text-anchor="middle" x="128.5" y="-252.5" font-family="Helvetica,sans-Serif" font-size="10.00"> </text>
<polyline fill="none" stroke="black" points="65.5,-245.5 191.5,-245.5 "/>
<text text-anchor="start" x="73.5" y="-233.5" font-family="Helvetica,sans-Serif" font-size="10.00">+ Array()</text>
<text text-anchor="start" x="73.5" y="-222.5" font-family="Helvetica,sans-Serif" font-size="10.00">+ Array()</text>
<text text-anchor="start" x="73.5" y="-211.5" font-family="Helvetica,sans-Serif" font-size="10.00">+ Array()</text>
<text text-anchor="start" x="73.5" y="-200.5" font-family="Helvetica,sans-Serif" font-size="10.00">+ Array()</text>
<text text-anchor="start" x="73.5" y="-189.5" font-family="Helvetica,sans-Serif" font-size="10.00">+ Array()</text>
<text text-anchor="start" x="73.5" y="-178.5" font-family="Helvetica,sans-Serif" font-size="10.00">+ Array()</text>
<text text-anchor="start" x="73.5" y="-167.5" font-family="Helvetica,sans-Serif" font-size="10.00">+ Array()</text>
<text text-anchor="start" x="73.5" y="-156.5" font-family="Helvetica,sans-Serif" font-size="10.00">+ Array()</text>
<text text-anchor="start" x="73.5" y="-145.5" font-family="Helvetica,sans-Serif" font-size="10.00">+ operator=()</text>
<text text-anchor="start" x="73.5" y="-134.5" font-family="Helvetica,sans-Serif" font-size="10.00">+ operator=()</text>
<text text-anchor="start" x="73.5" y="-123.5" font-family="Helvetica,sans-Serif" font-size="10.00">and 13 more...</text>
</a>
</g>
</g>
<!-- Node3&#45;&gt;Node1 -->
<g id="edge2" class="edge"><title>Node3&#45;&gt;Node1</title>
<path fill="none" stroke="#404040" d="M128.5,-116.04C128.5,-103.871 128.5,-91.8119 128.5,-80.8748"/>
<polygon fill="none" stroke="#404040" points="128.5,-80.6118 124.5,-74.6118 128.5,-68.6118 132.5,-74.6118 128.5,-80.6118"/>
<text text-anchor="middle" x="175" y="-90" font-family="Helvetica,sans-Serif" font-size="10.00"> +implementations</text>
</g>
<!-- Node4 -->
<g id="node4" class="node"><title>Node4</title>
<polygon fill="white" stroke="#bfbfbf" points="193.5,-332.5 193.5,-389.5 255.5,-389.5 255.5,-332.5 193.5,-332.5"/>
<text text-anchor="middle" x="224.5" y="-377.5" font-family="Helvetica,sans-Serif" font-size="10.00">ObjectRef</text>
<polyline fill="none" stroke="#bfbfbf" points="193.5,-370.5 255.5,-370.5 "/>
<text text-anchor="middle" x="224.5" y="-358.5" font-family="Helvetica,sans-Serif" font-size="10.00"> </text>
<polyline fill="none" stroke="#bfbfbf" points="193.5,-351.5 255.5,-351.5 "/>
<text text-anchor="middle" x="224.5" y="-339.5" font-family="Helvetica,sans-Serif" font-size="10.00"> </text>
</g>
<!-- Node4&#45;&gt;Node3 -->
<g id="edge3" class="edge"><title>Node4&#45;&gt;Node3</title>
<path fill="none" stroke="midnightblue" d="M201.762,-323.643C196.179,-314.716 189.958,-304.769 183.567,-294.549"/>
<polygon fill="none" stroke="midnightblue" points="198.845,-325.58 207.115,-332.202 204.78,-321.868 198.845,-325.58"/>
</g>
<!-- Node5 -->
<g id="node5" class="node"><title>Node5</title>
<g id="a_node5"><a xlink:href="classtvm_1_1te_1_1SpecializedCondition.html" target="_top" xlink:title="Specialized condition to enable op specialization. ">
<polygon fill="white" stroke="black" points="209.5,-160.5 209.5,-250.5 365.5,-250.5 365.5,-160.5 209.5,-160.5"/>
<text text-anchor="middle" x="287.5" y="-238.5" font-family="Helvetica,sans-Serif" font-size="10.00">tvm::te::SpecializedCondition</text>
<polyline fill="none" stroke="black" points="209.5,-231.5 365.5,-231.5 "/>
<text text-anchor="middle" x="287.5" y="-219.5" font-family="Helvetica,sans-Serif" font-size="10.00"> </text>
<polyline fill="none" stroke="black" points="209.5,-212.5 365.5,-212.5 "/>
<text text-anchor="start" x="217.5" y="-200.5" font-family="Helvetica,sans-Serif" font-size="10.00">+ SpecializedCondition()</text>
<text text-anchor="start" x="217.5" y="-189.5" font-family="Helvetica,sans-Serif" font-size="10.00">+ TVM_DEFINE_OBJECT_REF</text>
<text text-anchor="start" x="217.5" y="-178.5" font-family="Helvetica,sans-Serif" font-size="10.00">_METHODS()</text>
<text text-anchor="start" x="217.5" y="-167.5" font-family="Helvetica,sans-Serif" font-size="10.00">+ Current()</text>
</a>
</g>
</g>
<!-- Node4&#45;&gt;Node5 -->
<g id="edge5" class="edge"><title>Node4&#45;&gt;Node5</title>
<path fill="none" stroke="midnightblue" d="M239.822,-322.667C248.737,-300.946 260.025,-273.443 269.379,-250.652"/>
<polygon fill="none" stroke="midnightblue" points="236.468,-321.622 235.909,-332.202 242.944,-324.28 236.468,-321.622"/>
</g>
<!-- Node5&#45;&gt;Node1 -->
<g id="edge4" class="edge"><title>Node5&#45;&gt;Node1</title>
<path fill="none" stroke="#404040" d="M271.651,-160.291C261.364,-136.362 246.024,-107.576 225.5,-87 221.608,-83.0978 217.358,-79.4203 212.881,-75.9664"/>
<polygon fill="none" stroke="#404040" points="212.54,-75.7241 205.333,-75.5011 202.766,-68.762 209.974,-68.9851 212.54,-75.7241"/>
<text text-anchor="middle" x="263" y="-90" font-family="Helvetica,sans-Serif" font-size="10.00"> +condition</text>
</g>
</g>
</svg>
