<?xml version="1.0" encoding="UTF-8" standalone="no"?>
<!DOCTYPE svg PUBLIC "-//W3C//DTD SVG 1.1//EN"
 "http://www.w3.org/Graphics/SVG/1.1/DTD/svg11.dtd">
<!-- Generated by graphviz version 2.38.0 (20140413.2041)
 -->
<!-- Title: tvm::relay::TupleGetItemNode Pages: 1 -->
<svg width="716pt" height="481pt"
 viewBox="0.00 0.00 716.00 481.00" xmlns="http://www.w3.org/2000/svg" xmlns:xlink="http://www.w3.org/1999/xlink">
<g id="graph0" class="graph" transform="scale(1 1) rotate(0) translate(4 477)">
<title>tvm::relay::TupleGetItemNode</title>
<polygon fill="white" stroke="none" points="-4,4 -4,-477 712,-477 712,4 -4,4"/>
<!-- Node1 -->
<g id="node1" class="node"><title>Node1</title>
<polygon fill="#bfbfbf" stroke="black" points="277.5,-0.5 277.5,-101.5 482.5,-101.5 482.5,-0.5 277.5,-0.5"/>
<text text-anchor="middle" x="380" y="-89.5" font-family="Helvetica,sans-Serif" font-size="10.00">tvm::relay::TupleGetItemNode</text>
<polyline fill="none" stroke="black" points="277.5,-82.5 482.5,-82.5 "/>
<text text-anchor="start" x="285.5" y="-70.5" font-family="Helvetica,sans-Serif" font-size="10.00">+ index</text>
<text text-anchor="start" x="285.5" y="-59.5" font-family="Helvetica,sans-Serif" font-size="10.00">+ _type_key</text>
<polyline fill="none" stroke="black" points="277.5,-52.5 482.5,-52.5 "/>
<text text-anchor="start" x="285.5" y="-40.5" font-family="Helvetica,sans-Serif" font-size="10.00">+ VisitAttrs()</text>
<text text-anchor="start" x="285.5" y="-29.5" font-family="Helvetica,sans-Serif" font-size="10.00">+ SEqualReduce()</text>
<text text-anchor="start" x="285.5" y="-18.5" font-family="Helvetica,sans-Serif" font-size="10.00">+ SHashReduce()</text>
<text text-anchor="start" x="285.5" y="-7.5" font-family="Helvetica,sans-Serif" font-size="10.00">+ TVM_DECLARE_FINAL_OBJECT_INFO()</text>
</g>
<!-- Node2 -->
<g id="node2" class="node"><title>Node2</title>
<g id="a_node2"><a xlink:href="classtvm_1_1RelayExprNode.html" target="_top" xlink:title="Base node of all non&#45;primitive expressions. ">
<polygon fill="white" stroke="black" points="222,-149.5 222,-228.5 426,-228.5 426,-149.5 222,-149.5"/>
<text text-anchor="middle" x="324" y="-216.5" font-family="Helvetica,sans-Serif" font-size="10.00">ExprNode</text>
<polyline fill="none" stroke="black" points="222,-209.5 426,-209.5 "/>
<text text-anchor="start" x="230" y="-197.5" font-family="Helvetica,sans-Serif" font-size="10.00">+ _type_key</text>
<polyline fill="none" stroke="black" points="222,-190.5 426,-190.5 "/>
<text text-anchor="start" x="230" y="-178.5" font-family="Helvetica,sans-Serif" font-size="10.00">+ checked_type()</text>
<text text-anchor="start" x="230" y="-167.5" font-family="Helvetica,sans-Serif" font-size="10.00">+ type_as()</text>
<text text-anchor="start" x="230" y="-156.5" font-family="Helvetica,sans-Serif" font-size="10.00">+ TVM_DECLARE_BASE_OBJECT_INFO()</text>
</a>
</g>
</g>
<!-- Node2&#45;&gt;Node1 -->
<g id="edge1" class="edge"><title>Node2&#45;&gt;Node1</title>
<path fill="none" stroke="midnightblue" d="M343.706,-140.142C348.806,-127.757 354.309,-114.392 359.451,-101.905"/>
<polygon fill="none" stroke="midnightblue" points="340.469,-138.812 339.898,-149.392 346.941,-141.477 340.469,-138.812"/>
</g>
<!-- Node3 -->
<g id="node3" class="node"><title>Node3</title>
<g id="a_node3"><a xlink:href="classtvm_1_1BaseExprNode.html" target="_top" xlink:title="Base type of all the expressions. ">
<polygon fill="white" stroke="black" points="0,-276.5 0,-377.5 204,-377.5 204,-276.5 0,-276.5"/>
<text text-anchor="middle" x="102" y="-365.5" font-family="Helvetica,sans-Serif" font-size="10.00">tvm::BaseExprNode</text>
<polyline fill="none" stroke="black" points="0,-358.5 204,-358.5 "/>
<text text-anchor="start" x="8" y="-346.5" font-family="Helvetica,sans-Serif" font-size="10.00">+ _type_key</text>
<text text-anchor="start" x="8" y="-335.5" font-family="Helvetica,sans-Serif" font-size="10.00">+ _type_has_method_sequal</text>
<text text-anchor="start" x="8" y="-324.5" font-family="Helvetica,sans-Serif" font-size="10.00">_reduce</text>
<text text-anchor="start" x="8" y="-313.5" font-family="Helvetica,sans-Serif" font-size="10.00">+ _type_has_method_shash</text>
<text text-anchor="start" x="8" y="-302.5" font-family="Helvetica,sans-Serif" font-size="10.00">_reduce</text>
<polyline fill="none" stroke="black" points="0,-295.5 204,-295.5 "/>
<text text-anchor="start" x="8" y="-283.5" font-family="Helvetica,sans-Serif" font-size="10.00">+ TVM_DECLARE_BASE_OBJECT_INFO()</text>
</a>
</g>
</g>
<!-- Node3&#45;&gt;Node2 -->
<g id="edge2" class="edge"><title>Node3&#45;&gt;Node2</title>
<path fill="none" stroke="midnightblue" d="M191.883,-270.937C215.011,-256.768 239.409,-241.821 260.859,-228.681"/>
<polygon fill="none" stroke="midnightblue" points="189.788,-268.115 183.089,-276.324 193.445,-274.084 189.788,-268.115"/>
</g>
<!-- Node4 -->
<g id="node4" class="node"><title>Node4</title>
<polygon fill="white" stroke="#bfbfbf" points="78.5,-415.5 78.5,-472.5 125.5,-472.5 125.5,-415.5 78.5,-415.5"/>
<text text-anchor="middle" x="102" y="-460.5" font-family="Helvetica,sans-Serif" font-size="10.00">Object</text>
<polyline fill="none" stroke="#bfbfbf" points="78.5,-453.5 125.5,-453.5 "/>
<text text-anchor="middle" x="102" y="-441.5" font-family="Helvetica,sans-Serif" font-size="10.00"> </text>
<polyline fill="none" stroke="#bfbfbf" points="78.5,-434.5 125.5,-434.5 "/>
<text text-anchor="middle" x="102" y="-422.5" font-family="Helvetica,sans-Serif" font-size="10.00"> </text>
</g>
<!-- Node4&#45;&gt;Node3 -->
<g id="edge3" class="edge"><title>Node4&#45;&gt;Node3</title>
<path fill="none" stroke="midnightblue" d="M102,-405.187C102,-396.435 102,-386.99 102,-377.812"/>
<polygon fill="none" stroke="midnightblue" points="98.5001,-405.455 102,-415.455 105.5,-405.455 98.5001,-405.455"/>
</g>
<!-- Node5 -->
<g id="node5" class="node"><title>Node5</title>
<g id="a_node5"><a xlink:href="classtvm_1_1Span.html" target="_top" xlink:title="{tvm::Span\n||+ TVM_DEFINE_OBJECT_REF\l_METHODS()\l}">
<polygon fill="white" stroke="black" points="222,-293 222,-361 372,-361 372,-293 222,-293"/>
<text text-anchor="middle" x="297" y="-349" font-family="Helvetica,sans-Serif" font-size="10.00">tvm::Span</text>
<polyline fill="none" stroke="black" points="222,-342 372,-342 "/>
<text text-anchor="middle" x="297" y="-330" font-family="Helvetica,sans-Serif" font-size="10.00"> </text>
<polyline fill="none" stroke="black" points="222,-323 372,-323 "/>
<text text-anchor="start" x="230" y="-311" font-family="Helvetica,sans-Serif" font-size="10.00">+ TVM_DEFINE_OBJECT_REF</text>
<text text-anchor="start" x="230" y="-300" font-family="Helvetica,sans-Serif" font-size="10.00">_METHODS()</text>
</a>
</g>
</g>
<!-- Node5&#45;&gt;Node2 -->
<g id="edge4" class="edge"><title>Node5&#45;&gt;Node2</title>
<path fill="none" stroke="#404040" d="M303.605,-292.731C306.71,-277.088 310.481,-258.095 313.932,-240.715"/>
<polygon fill="none" stroke="#404040" points="313.978,-240.479 311.223,-233.815 316.315,-228.709 319.07,-235.373 313.978,-240.479"/>
<text text-anchor="middle" x="330.5" y="-250" font-family="Helvetica,sans-Serif" font-size="10.00"> +span</text>
</g>
<!-- Node6 -->
<g id="node6" class="node"><title>Node6</title>
<polygon fill="white" stroke="#bfbfbf" points="434,-415.5 434,-472.5 496,-472.5 496,-415.5 434,-415.5"/>
<text text-anchor="middle" x="465" y="-460.5" font-family="Helvetica,sans-Serif" font-size="10.00">ObjectRef</text>
<polyline fill="none" stroke="#bfbfbf" points="434,-453.5 496,-453.5 "/>
<text text-anchor="middle" x="465" y="-441.5" font-family="Helvetica,sans-Serif" font-size="10.00"> </text>
<polyline fill="none" stroke="#bfbfbf" points="434,-434.5 496,-434.5 "/>
<text text-anchor="middle" x="465" y="-422.5" font-family="Helvetica,sans-Serif" font-size="10.00"> </text>
</g>
<!-- Node6&#45;&gt;Node5 -->
<g id="edge5" class="edge"><title>Node6&#45;&gt;Node5</title>
<path fill="none" stroke="midnightblue" d="M425.287,-415.815C401.305,-399.399 370.58,-378.367 345.211,-361.001"/>
<polygon fill="none" stroke="midnightblue" points="423.565,-418.878 433.794,-421.639 427.519,-413.102 423.565,-418.878"/>
</g>
<!-- Node7 -->
<g id="node7" class="node"><title>Node7</title>
<g id="a_node7"><a xlink:href="classtvm_1_1Type.html" target="_top" xlink:title="Managed reference to TypeNode. ">
<polygon fill="white" stroke="black" points="390,-293 390,-361 540,-361 540,-293 390,-293"/>
<text text-anchor="middle" x="465" y="-349" font-family="Helvetica,sans-Serif" font-size="10.00">tvm::Type</text>
<polyline fill="none" stroke="black" points="390,-342 540,-342 "/>
<text text-anchor="middle" x="465" y="-330" font-family="Helvetica,sans-Serif" font-size="10.00"> </text>
<polyline fill="none" stroke="black" points="390,-323 540,-323 "/>
<text text-anchor="start" x="398" y="-311" font-family="Helvetica,sans-Serif" font-size="10.00">+ TVM_DEFINE_OBJECT_REF</text>
<text text-anchor="start" x="398" y="-300" font-family="Helvetica,sans-Serif" font-size="10.00">_METHODS()</text>
</a>
</g>
</g>
<!-- Node6&#45;&gt;Node7 -->
<g id="edge7" class="edge"><title>Node6&#45;&gt;Node7</title>
<path fill="none" stroke="midnightblue" d="M465,-405.424C465,-391.11 465,-374.916 465,-361.052"/>
<polygon fill="none" stroke="midnightblue" points="461.5,-405.455 465,-415.455 468.5,-405.455 461.5,-405.455"/>
</g>
<!-- Node9 -->
<g id="node9" class="node"><title>Node9</title>
<g id="a_node9"><a xlink:href="classtvm_1_1BaseExpr.html" target="_top" xlink:title="Managed reference to BaseExprNode. ">
<polygon fill="white" stroke="black" points="558,-293 558,-361 708,-361 708,-293 558,-293"/>
<text text-anchor="middle" x="633" y="-349" font-family="Helvetica,sans-Serif" font-size="10.00">tvm::BaseExpr</text>
<polyline fill="none" stroke="black" points="558,-342 708,-342 "/>
<text text-anchor="middle" x="633" y="-330" font-family="Helvetica,sans-Serif" font-size="10.00"> </text>
<polyline fill="none" stroke="black" points="558,-323 708,-323 "/>
<text text-anchor="start" x="566" y="-311" font-family="Helvetica,sans-Serif" font-size="10.00">+ TVM_DEFINE_OBJECT_REF</text>
<text text-anchor="start" x="566" y="-300" font-family="Helvetica,sans-Serif" font-size="10.00">_METHODS()</text>
</a>
</g>
</g>
<!-- Node6&#45;&gt;Node9 -->
<g id="edge10" class="edge"><title>Node6&#45;&gt;Node9</title>
<path fill="none" stroke="midnightblue" d="M504.713,-415.815C528.695,-399.399 559.42,-378.367 584.789,-361.001"/>
<polygon fill="none" stroke="midnightblue" points="502.481,-413.102 496.206,-421.639 506.435,-418.878 502.481,-413.102"/>
</g>
<!-- Node7&#45;&gt;Node2 -->
<g id="edge6" class="edge"><title>Node7&#45;&gt;Node2</title>
<path fill="none" stroke="#404040" d="M430.508,-292.731C413.193,-276.031 391.919,-255.51 372.947,-237.212"/>
<polygon fill="none" stroke="#404040" points="372.769,-237.04 365.674,-235.754 364.132,-228.709 371.228,-229.996 372.769,-237.04"/>
<text text-anchor="middle" x="436.5" y="-250" font-family="Helvetica,sans-Serif" font-size="10.00"> +checked_type_</text>
</g>
<!-- Node8 -->
<g id="node8" class="node"><title>Node8</title>
<g id="a_node8"><a xlink:href="classtvm_1_1RelayExpr.html" target="_top" xlink:title="Managed reference to RelayExprNode. ">
<polygon fill="white" stroke="black" points="479,-155 479,-223 629,-223 629,-155 479,-155"/>
<text text-anchor="middle" x="554" y="-211" font-family="Helvetica,sans-Serif" font-size="10.00">tvm::RelayExpr</text>
<polyline fill="none" stroke="black" points="479,-204 629,-204 "/>
<text text-anchor="middle" x="554" y="-192" font-family="Helvetica,sans-Serif" font-size="10.00"> </text>
<polyline fill="none" stroke="black" points="479,-185 629,-185 "/>
<text text-anchor="start" x="487" y="-173" font-family="Helvetica,sans-Serif" font-size="10.00">+ TVM_DEFINE_OBJECT_REF</text>
<text text-anchor="start" x="487" y="-162" font-family="Helvetica,sans-Serif" font-size="10.00">_METHODS()</text>
</a>
</g>
</g>
<!-- Node8&#45;&gt;Node1 -->
<g id="edge8" class="edge"><title>Node8&#45;&gt;Node1</title>
<path fill="none" stroke="#404040" d="M511.435,-154.731C493.883,-141.012 473.033,-124.715 453.17,-109.19"/>
<polygon fill="none" stroke="#404040" points="452.972,-109.035 445.781,-108.492 443.517,-101.646 450.708,-102.189 452.972,-109.035"/>
<text text-anchor="middle" x="496" y="-123" font-family="Helvetica,sans-Serif" font-size="10.00"> +tuple</text>
</g>
<!-- Node9&#45;&gt;Node8 -->
<g id="edge9" class="edge"><title>Node9&#45;&gt;Node8</title>
<path fill="none" stroke="midnightblue" d="M608.626,-284.04C597.304,-264.548 584.028,-241.694 573.4,-223.397"/>
<polygon fill="none" stroke="midnightblue" points="605.625,-285.842 613.674,-292.731 611.678,-282.326 605.625,-285.842"/>
</g>
</g>
</svg>
