<?xml version="1.0" encoding="UTF-8" standalone="no"?>
<!DOCTYPE svg PUBLIC "-//W3C//DTD SVG 1.1//EN"
 "http://www.w3.org/Graphics/SVG/1.1/DTD/svg11.dtd">
<!-- Generated by graphviz version 2.38.0 (20140413.2041)
 -->
<!-- Title: tvm::tir::LayoutNode Pages: 1 -->
<svg width="233pt" height="420pt"
 viewBox="0.00 0.00 233.00 420.00" xmlns="http://www.w3.org/2000/svg" xmlns:xlink="http://www.w3.org/1999/xlink">
<g id="graph0" class="graph" transform="scale(1 1) rotate(0) translate(4 416)">
<title>tvm::tir::LayoutNode</title>
<polygon fill="white" stroke="none" points="-4,4 -4,-416 229,-416 229,4 -4,4"/>
<!-- Node1 -->
<g id="node1" class="node"><title>Node1</title>
<polygon fill="#bfbfbf" stroke="black" points="-1.42109e-14,-0.5 -1.42109e-14,-90.5 205,-90.5 205,-0.5 -1.42109e-14,-0.5"/>
<text text-anchor="middle" x="102.5" y="-78.5" font-family="Helvetica,sans-Serif" font-size="10.00">tvm::tir::LayoutNode</text>
<polyline fill="none" stroke="black" points="-1.42109e-14,-71.5 205,-71.5 "/>
<text text-anchor="start" x="8" y="-59.5" font-family="Helvetica,sans-Serif" font-size="10.00">+ name</text>
<text text-anchor="start" x="8" y="-48.5" font-family="Helvetica,sans-Serif" font-size="10.00">+ _type_key</text>
<polyline fill="none" stroke="black" points="-1.42109e-14,-41.5 205,-41.5 "/>
<text text-anchor="start" x="8" y="-29.5" font-family="Helvetica,sans-Serif" font-size="10.00">+ VisitAttrs()</text>
<text text-anchor="start" x="8" y="-18.5" font-family="Helvetica,sans-Serif" font-size="10.00">+ TVM_DECLARE_FINAL_OBJECT_INFO()</text>
<text text-anchor="start" x="8" y="-7.5" font-family="Helvetica,sans-Serif" font-size="10.00">+ make()</text>
</g>
<!-- Node2 -->
<g id="node2" class="node"><title>Node2</title>
<polygon fill="white" stroke="#bfbfbf" points="47,-199 47,-256 94,-256 94,-199 47,-199"/>
<text text-anchor="middle" x="70.5" y="-244" font-family="Helvetica,sans-Serif" font-size="10.00">Object</text>
<polyline fill="none" stroke="#bfbfbf" points="47,-237 94,-237 "/>
<text text-anchor="middle" x="70.5" y="-225" font-family="Helvetica,sans-Serif" font-size="10.00"> </text>
<polyline fill="none" stroke="#bfbfbf" points="47,-218 94,-218 "/>
<text text-anchor="middle" x="70.5" y="-206" font-family="Helvetica,sans-Serif" font-size="10.00"> </text>
</g>
<!-- Node2&#45;&gt;Node1 -->
<g id="edge1" class="edge"><title>Node2&#45;&gt;Node1</title>
<path fill="none" stroke="midnightblue" d="M77.2095,-188.759C82.2928,-160.166 89.2905,-120.803 94.6367,-90.731"/>
<polygon fill="none" stroke="midnightblue" points="73.7343,-188.311 75.4299,-198.769 80.6263,-189.536 73.7343,-188.311"/>
</g>
<!-- Node3 -->
<g id="node3" class="node"><title>Node3</title>
<g id="a_node3"><a xlink:href="classtvm_1_1Array.html" target="_top" xlink:title="{tvm::Array\&lt; tir::tvm\l::tir::IterVar \&gt;\n||+ Array()\l+ Array()\l+ Array()\l+ Array()\l+ Array()\l+ Array()\l+ Array()\l+ Array()\l+ operator=()\l+ operator=()\land 13 more...\l}">
<polygon fill="white" stroke="black" points="112,-138.5 112,-316.5 225,-316.5 225,-138.5 112,-138.5"/>
<text text-anchor="start" x="120" y="-304.5" font-family="Helvetica,sans-Serif" font-size="10.00">tvm::Array&lt; tir::tvm</text>
<text text-anchor="middle" x="168.5" y="-293.5" font-family="Helvetica,sans-Serif" font-size="10.00">::tir::IterVar &gt;</text>
<polyline fill="none" stroke="black" points="112,-286.5 225,-286.5 "/>
<text text-anchor="middle" x="168.5" y="-274.5" font-family="Helvetica,sans-Serif" font-size="10.00"> </text>
<polyline fill="none" stroke="black" points="112,-267.5 225,-267.5 "/>
<text text-anchor="start" x="120" y="-255.5" font-family="Helvetica,sans-Serif" font-size="10.00">+ Array()</text>
<text text-anchor="start" x="120" y="-244.5" font-family="Helvetica,sans-Serif" font-size="10.00">+ Array()</text>
<text text-anchor="start" x="120" y="-233.5" font-family="Helvetica,sans-Serif" font-size="10.00">+ Array()</text>
<text text-anchor="start" x="120" y="-222.5" font-family="Helvetica,sans-Serif" font-size="10.00">+ Array()</text>
<text text-anchor="start" x="120" y="-211.5" font-family="Helvetica,sans-Serif" font-size="10.00">+ Array()</text>
<text text-anchor="start" x="120" y="-200.5" font-family="Helvetica,sans-Serif" font-size="10.00">+ Array()</text>
<text text-anchor="start" x="120" y="-189.5" font-family="Helvetica,sans-Serif" font-size="10.00">+ Array()</text>
<text text-anchor="start" x="120" y="-178.5" font-family="Helvetica,sans-Serif" font-size="10.00">+ Array()</text>
<text text-anchor="start" x="120" y="-167.5" font-family="Helvetica,sans-Serif" font-size="10.00">+ operator=()</text>
<text text-anchor="start" x="120" y="-156.5" font-family="Helvetica,sans-Serif" font-size="10.00">+ operator=()</text>
<text text-anchor="start" x="120" y="-145.5" font-family="Helvetica,sans-Serif" font-size="10.00">and 13 more...</text>
</a>
</g>
</g>
<!-- Node3&#45;&gt;Node1 -->
<g id="edge2" class="edge"><title>Node3&#45;&gt;Node1</title>
<path fill="none" stroke="#404040" d="M136.177,-138.346C131.668,-126.049 127.142,-113.706 122.937,-102.237"/>
<polygon fill="none" stroke="#404040" points="122.815,-101.905 116.994,-97.6486 118.684,-90.6383 124.505,-94.8945 122.815,-101.905"/>
<text text-anchor="middle" x="144.5" y="-112" font-family="Helvetica,sans-Serif" font-size="10.00"> +axes</text>
</g>
<!-- Node4 -->
<g id="node4" class="node"><title>Node4</title>
<polygon fill="white" stroke="#bfbfbf" points="137.5,-354.5 137.5,-411.5 199.5,-411.5 199.5,-354.5 137.5,-354.5"/>
<text text-anchor="middle" x="168.5" y="-399.5" font-family="Helvetica,sans-Serif" font-size="10.00">ObjectRef</text>
<polyline fill="none" stroke="#bfbfbf" points="137.5,-392.5 199.5,-392.5 "/>
<text text-anchor="middle" x="168.5" y="-380.5" font-family="Helvetica,sans-Serif" font-size="10.00"> </text>
<polyline fill="none" stroke="#bfbfbf" points="137.5,-373.5 199.5,-373.5 "/>
<text text-anchor="middle" x="168.5" y="-361.5" font-family="Helvetica,sans-Serif" font-size="10.00"> </text>
</g>
<!-- Node4&#45;&gt;Node3 -->
<g id="edge3" class="edge"><title>Node4&#45;&gt;Node3</title>
<path fill="none" stroke="midnightblue" d="M168.5,-343.957C168.5,-335.471 168.5,-326.13 168.5,-316.549"/>
<polygon fill="none" stroke="midnightblue" points="165,-344.202 168.5,-354.202 172,-344.202 165,-344.202"/>
</g>
</g>
</svg>
