<?xml version="1.0" encoding="UTF-8" standalone="no"?>
<!DOCTYPE svg PUBLIC "-//W3C//DTD SVG 1.1//EN"
 "http://www.w3.org/Graphics/SVG/1.1/DTD/svg11.dtd">
<!-- Generated by graphviz version 2.38.0 (20140413.2041)
 -->
<!-- Title: tvm::BaseFuncNode Pages: 1 -->
<svg width="716pt" height="481pt"
 viewBox="0.00 0.00 716.00 481.00" xmlns="http://www.w3.org/2000/svg" xmlns:xlink="http://www.w3.org/1999/xlink">
<g id="graph0" class="graph" transform="scale(1 1) rotate(0) translate(4 477)">
<title>tvm::BaseFuncNode</title>
<polygon fill="white" stroke="none" points="-4,4 -4,-477 712,-477 712,4 -4,4"/>
<!-- Node1 -->
<g id="node1" class="node"><title>Node1</title>
<polygon fill="#bfbfbf" stroke="black" points="278,-0.5 278,-79.5 482,-79.5 482,-0.5 278,-0.5"/>
<text text-anchor="middle" x="380" y="-67.5" font-family="Helvetica,sans-Serif" font-size="10.00">tvm::BaseFuncNode</text>
<polyline fill="none" stroke="black" points="278,-60.5 482,-60.5 "/>
<text text-anchor="start" x="286" y="-48.5" font-family="Helvetica,sans-Serif" font-size="10.00">+ _type_key</text>
<polyline fill="none" stroke="black" points="278,-41.5 482,-41.5 "/>
<text text-anchor="start" x="286" y="-29.5" font-family="Helvetica,sans-Serif" font-size="10.00">+ GetAttr()</text>
<text text-anchor="start" x="286" y="-18.5" font-family="Helvetica,sans-Serif" font-size="10.00">+ HasNonzeroAttr()</text>
<text text-anchor="start" x="286" y="-7.5" font-family="Helvetica,sans-Serif" font-size="10.00">+ TVM_DECLARE_BASE_OBJECT_INFO()</text>
</g>
<!-- Node2 -->
<g id="node2" class="node"><title>Node2</title>
<g id="a_node2"><a xlink:href="classtvm_1_1RelayExprNode.html" target="_top" xlink:title="Base node of all non&#45;primitive expressions. ">
<polygon fill="white" stroke="black" points="222,-138.5 222,-217.5 426,-217.5 426,-138.5 222,-138.5"/>
<text text-anchor="middle" x="324" y="-205.5" font-family="Helvetica,sans-Serif" font-size="10.00">tvm::RelayExprNode</text>
<polyline fill="none" stroke="black" points="222,-198.5 426,-198.5 "/>
<text text-anchor="start" x="230" y="-186.5" font-family="Helvetica,sans-Serif" font-size="10.00">+ _type_key</text>
<polyline fill="none" stroke="black" points="222,-179.5 426,-179.5 "/>
<text text-anchor="start" x="230" y="-167.5" font-family="Helvetica,sans-Serif" font-size="10.00">+ checked_type()</text>
<text text-anchor="start" x="230" y="-156.5" font-family="Helvetica,sans-Serif" font-size="10.00">+ type_as()</text>
<text text-anchor="start" x="230" y="-145.5" font-family="Helvetica,sans-Serif" font-size="10.00">+ TVM_DECLARE_BASE_OBJECT_INFO()</text>
</a>
</g>
</g>
<!-- Node2&#45;&gt;Node1 -->
<g id="edge1" class="edge"><title>Node2&#45;&gt;Node1</title>
<path fill="none" stroke="midnightblue" d="M343.727,-129.092C350.387,-112.917 357.733,-95.0765 364.063,-79.7049"/>
<polygon fill="none" stroke="midnightblue" points="340.469,-127.812 339.898,-138.392 346.941,-130.477 340.469,-127.812"/>
</g>
<!-- Node3 -->
<g id="node3" class="node"><title>Node3</title>
<g id="a_node3"><a xlink:href="classtvm_1_1BaseExprNode.html" target="_top" xlink:title="Base type of all the expressions. ">
<polygon fill="white" stroke="black" points="0,-276.5 0,-377.5 204,-377.5 204,-276.5 0,-276.5"/>
<text text-anchor="middle" x="102" y="-365.5" font-family="Helvetica,sans-Serif" font-size="10.00">tvm::BaseExprNode</text>
<polyline fill="none" stroke="black" points="0,-358.5 204,-358.5 "/>
<text text-anchor="start" x="8" y="-346.5" font-family="Helvetica,sans-Serif" font-size="10.00">+ _type_key</text>
<text text-anchor="start" x="8" y="-335.5" font-family="Helvetica,sans-Serif" font-size="10.00">+ _type_has_method_sequal</text>
<text text-anchor="start" x="8" y="-324.5" font-family="Helvetica,sans-Serif" font-size="10.00">_reduce</text>
<text text-anchor="start" x="8" y="-313.5" font-family="Helvetica,sans-Serif" font-size="10.00">+ _type_has_method_shash</text>
<text text-anchor="start" x="8" y="-302.5" font-family="Helvetica,sans-Serif" font-size="10.00">_reduce</text>
<polyline fill="none" stroke="black" points="0,-295.5 204,-295.5 "/>
<text text-anchor="start" x="8" y="-283.5" font-family="Helvetica,sans-Serif" font-size="10.00">+ TVM_DECLARE_BASE_OBJECT_INFO()</text>
</a>
</g>
</g>
<!-- Node3&#45;&gt;Node2 -->
<g id="edge2" class="edge"><title>Node3&#45;&gt;Node2</title>
<path fill="none" stroke="midnightblue" d="M185.428,-270.757C212.123,-253.081 241.089,-233.9 265.603,-217.668"/>
<polygon fill="none" stroke="midnightblue" points="183.255,-267.998 176.85,-276.437 187.12,-273.835 183.255,-267.998"/>
</g>
<!-- Node4 -->
<g id="node4" class="node"><title>Node4</title>
<polygon fill="white" stroke="#bfbfbf" points="78.5,-415.5 78.5,-472.5 125.5,-472.5 125.5,-415.5 78.5,-415.5"/>
<text text-anchor="middle" x="102" y="-460.5" font-family="Helvetica,sans-Serif" font-size="10.00">Object</text>
<polyline fill="none" stroke="#bfbfbf" points="78.5,-453.5 125.5,-453.5 "/>
<text text-anchor="middle" x="102" y="-441.5" font-family="Helvetica,sans-Serif" font-size="10.00"> </text>
<polyline fill="none" stroke="#bfbfbf" points="78.5,-434.5 125.5,-434.5 "/>
<text text-anchor="middle" x="102" y="-422.5" font-family="Helvetica,sans-Serif" font-size="10.00"> </text>
</g>
<!-- Node4&#45;&gt;Node3 -->
<g id="edge3" class="edge"><title>Node4&#45;&gt;Node3</title>
<path fill="none" stroke="midnightblue" d="M102,-405.187C102,-396.435 102,-386.99 102,-377.812"/>
<polygon fill="none" stroke="midnightblue" points="98.5001,-405.455 102,-415.455 105.5,-405.455 98.5001,-405.455"/>
</g>
<!-- Node5 -->
<g id="node5" class="node"><title>Node5</title>
<g id="a_node5"><a xlink:href="classtvm_1_1Span.html" target="_top" xlink:title="{tvm::Span\n||+ TVM_DEFINE_OBJECT_REF\l_METHODS()\l}">
<polygon fill="white" stroke="black" points="222,-293 222,-361 372,-361 372,-293 222,-293"/>
<text text-anchor="middle" x="297" y="-349" font-family="Helvetica,sans-Serif" font-size="10.00">tvm::Span</text>
<polyline fill="none" stroke="black" points="222,-342 372,-342 "/>
<text text-anchor="middle" x="297" y="-330" font-family="Helvetica,sans-Serif" font-size="10.00"> </text>
<polyline fill="none" stroke="black" points="222,-323 372,-323 "/>
<text text-anchor="start" x="230" y="-311" font-family="Helvetica,sans-Serif" font-size="10.00">+ TVM_DEFINE_OBJECT_REF</text>
<text text-anchor="start" x="230" y="-300" font-family="Helvetica,sans-Serif" font-size="10.00">_METHODS()</text>
</a>
</g>
</g>
<!-- Node5&#45;&gt;Node2 -->
<g id="edge4" class="edge"><title>Node5&#45;&gt;Node2</title>
<path fill="none" stroke="#404040" d="M303.127,-292.643C306.547,-274.02 310.879,-250.436 314.709,-229.586"/>
<polygon fill="none" stroke="#404040" points="314.727,-229.487 311.877,-222.863 316.895,-217.684 319.745,-224.308 314.727,-229.487"/>
<text text-anchor="middle" x="329.5" y="-250" font-family="Helvetica,sans-Serif" font-size="10.00"> +span</text>
</g>
<!-- Node6 -->
<g id="node6" class="node"><title>Node6</title>
<polygon fill="white" stroke="#bfbfbf" points="434,-415.5 434,-472.5 496,-472.5 496,-415.5 434,-415.5"/>
<text text-anchor="middle" x="465" y="-460.5" font-family="Helvetica,sans-Serif" font-size="10.00">ObjectRef</text>
<polyline fill="none" stroke="#bfbfbf" points="434,-453.5 496,-453.5 "/>
<text text-anchor="middle" x="465" y="-441.5" font-family="Helvetica,sans-Serif" font-size="10.00"> </text>
<polyline fill="none" stroke="#bfbfbf" points="434,-434.5 496,-434.5 "/>
<text text-anchor="middle" x="465" y="-422.5" font-family="Helvetica,sans-Serif" font-size="10.00"> </text>
</g>
<!-- Node6&#45;&gt;Node5 -->
<g id="edge5" class="edge"><title>Node6&#45;&gt;Node5</title>
<path fill="none" stroke="midnightblue" d="M425.287,-415.815C401.305,-399.399 370.58,-378.367 345.211,-361.001"/>
<polygon fill="none" stroke="midnightblue" points="423.565,-418.878 433.794,-421.639 427.519,-413.102 423.565,-418.878"/>
</g>
<!-- Node7 -->
<g id="node7" class="node"><title>Node7</title>
<g id="a_node7"><a xlink:href="classtvm_1_1Type.html" target="_top" xlink:title="Managed reference to TypeNode. ">
<polygon fill="white" stroke="black" points="390,-293 390,-361 540,-361 540,-293 390,-293"/>
<text text-anchor="middle" x="465" y="-349" font-family="Helvetica,sans-Serif" font-size="10.00">tvm::Type</text>
<polyline fill="none" stroke="black" points="390,-342 540,-342 "/>
<text text-anchor="middle" x="465" y="-330" font-family="Helvetica,sans-Serif" font-size="10.00"> </text>
<polyline fill="none" stroke="black" points="390,-323 540,-323 "/>
<text text-anchor="start" x="398" y="-311" font-family="Helvetica,sans-Serif" font-size="10.00">+ TVM_DEFINE_OBJECT_REF</text>
<text text-anchor="start" x="398" y="-300" font-family="Helvetica,sans-Serif" font-size="10.00">_METHODS()</text>
</a>
</g>
</g>
<!-- Node6&#45;&gt;Node7 -->
<g id="edge7" class="edge"><title>Node6&#45;&gt;Node7</title>
<path fill="none" stroke="midnightblue" d="M465,-405.424C465,-391.11 465,-374.916 465,-361.052"/>
<polygon fill="none" stroke="midnightblue" points="461.5,-405.455 465,-415.455 468.5,-405.455 461.5,-405.455"/>
</g>
<!-- Node9 -->
<g id="node9" class="node"><title>Node9</title>
<g id="a_node9"><a xlink:href="classtvm_1_1Attrs.html" target="_top" xlink:title="Managed reference to BaseAttrsNode. ">
<polygon fill="white" stroke="black" points="558,-293 558,-361 708,-361 708,-293 558,-293"/>
<text text-anchor="middle" x="633" y="-349" font-family="Helvetica,sans-Serif" font-size="10.00">tvm::Attrs</text>
<polyline fill="none" stroke="black" points="558,-342 708,-342 "/>
<text text-anchor="middle" x="633" y="-330" font-family="Helvetica,sans-Serif" font-size="10.00"> </text>
<polyline fill="none" stroke="black" points="558,-323 708,-323 "/>
<text text-anchor="start" x="566" y="-311" font-family="Helvetica,sans-Serif" font-size="10.00">+ TVM_DEFINE_OBJECT_REF</text>
<text text-anchor="start" x="566" y="-300" font-family="Helvetica,sans-Serif" font-size="10.00">_METHODS()</text>
</a>
</g>
</g>
<!-- Node6&#45;&gt;Node9 -->
<g id="edge10" class="edge"><title>Node6&#45;&gt;Node9</title>
<path fill="none" stroke="midnightblue" d="M504.713,-415.815C528.695,-399.399 559.42,-378.367 584.789,-361.001"/>
<polygon fill="none" stroke="midnightblue" points="502.481,-413.102 496.206,-421.639 506.435,-418.878 502.481,-413.102"/>
</g>
<!-- Node7&#45;&gt;Node2 -->
<g id="edge6" class="edge"><title>Node7&#45;&gt;Node2</title>
<path fill="none" stroke="#404040" d="M433.005,-292.643C414.223,-273.063 390.183,-247.999 369.459,-226.394"/>
<polygon fill="none" stroke="#404040" points="369.412,-226.344 362.372,-224.783 361.105,-217.684 368.145,-219.245 369.412,-226.344"/>
<text text-anchor="middle" x="440.5" y="-250" font-family="Helvetica,sans-Serif" font-size="10.00"> +checked_type_</text>
</g>
<!-- Node8 -->
<g id="node8" class="node"><title>Node8</title>
<g id="a_node8"><a xlink:href="classtvm_1_1DictAttrs.html" target="_top" xlink:title="Managed reference to DictAttrsNode. ">
<polygon fill="white" stroke="black" points="479,-127.5 479,-228.5 629,-228.5 629,-127.5 479,-127.5"/>
<text text-anchor="middle" x="554" y="-216.5" font-family="Helvetica,sans-Serif" font-size="10.00">tvm::DictAttrs</text>
<polyline fill="none" stroke="black" points="479,-209.5 629,-209.5 "/>
<text text-anchor="middle" x="554" y="-197.5" font-family="Helvetica,sans-Serif" font-size="10.00"> </text>
<polyline fill="none" stroke="black" points="479,-190.5 629,-190.5 "/>
<text text-anchor="start" x="487" y="-178.5" font-family="Helvetica,sans-Serif" font-size="10.00">+ DictAttrs()</text>
<text text-anchor="start" x="487" y="-167.5" font-family="Helvetica,sans-Serif" font-size="10.00">+ TVM_DEFINE_OBJECT_REF</text>
<text text-anchor="start" x="487" y="-156.5" font-family="Helvetica,sans-Serif" font-size="10.00">_METHODS()</text>
<text text-anchor="start" x="487" y="-145.5" font-family="Helvetica,sans-Serif" font-size="10.00">+ TVM_DEFINE_OBJECT_REF</text>
<text text-anchor="start" x="487" y="-134.5" font-family="Helvetica,sans-Serif" font-size="10.00">_COW_METHOD()</text>
</a>
</g>
</g>
<!-- Node8&#45;&gt;Node1 -->
<g id="edge8" class="edge"><title>Node8&#45;&gt;Node1</title>
<path fill="none" stroke="#404040" d="M490.197,-127.131C473.414,-114.013 455.388,-99.9238 438.876,-87.0184"/>
<polygon fill="none" stroke="#404040" points="438.805,-86.9628 431.615,-86.4194 429.351,-79.5729 436.541,-80.1163 438.805,-86.9628"/>
<text text-anchor="middle" x="484" y="-101" font-family="Helvetica,sans-Serif" font-size="10.00"> +attrs</text>
</g>
<!-- Node9&#45;&gt;Node8 -->
<g id="edge9" class="edge"><title>Node9&#45;&gt;Node8</title>
<path fill="none" stroke="midnightblue" d="M610.131,-283.446C600.931,-266.327 590.258,-246.468 580.705,-228.692"/>
<polygon fill="none" stroke="midnightblue" points="607.257,-285.492 615.074,-292.643 613.423,-282.178 607.257,-285.492"/>
</g>
</g>
</svg>
