<?xml version="1.0" encoding="UTF-8" standalone="no"?>
<!DOCTYPE svg PUBLIC "-//W3C//DTD SVG 1.1//EN"
 "http://www.w3.org/Graphics/SVG/1.1/DTD/svg11.dtd">
<!-- Generated by graphviz version 2.38.0 (20140413.2041)
 -->
<!-- Title: tvm::te::ScanOpNode Pages: 1 -->
<svg width="547pt" height="869pt"
 viewBox="0.00 0.00 546.50 869.00" xmlns="http://www.w3.org/2000/svg" xmlns:xlink="http://www.w3.org/1999/xlink">
<g id="graph0" class="graph" transform="scale(1 1) rotate(0) translate(4 865)">
<title>tvm::te::ScanOpNode</title>
<polygon fill="white" stroke="none" points="-4,4 -4,-865 542.5,-865 542.5,4 -4,4"/>
<!-- Node1 -->
<g id="node1" class="node"><title>Node1</title>
<polygon fill="#bfbfbf" stroke="black" points="184.5,-0.5 184.5,-200.5 389.5,-200.5 389.5,-0.5 184.5,-0.5"/>
<text text-anchor="middle" x="287" y="-188.5" font-family="Helvetica,sans-Serif" font-size="10.00">tvm::te::ScanOpNode</text>
<polyline fill="none" stroke="black" points="184.5,-181.5 389.5,-181.5 "/>
<text text-anchor="start" x="192.5" y="-169.5" font-family="Helvetica,sans-Serif" font-size="10.00">+ _type_key</text>
<polyline fill="none" stroke="black" points="184.5,-162.5 389.5,-162.5 "/>
<text text-anchor="start" x="192.5" y="-150.5" font-family="Helvetica,sans-Serif" font-size="10.00">+ ScanOpNode()</text>
<text text-anchor="start" x="192.5" y="-139.5" font-family="Helvetica,sans-Serif" font-size="10.00">+ num_outputs()</text>
<text text-anchor="start" x="192.5" y="-128.5" font-family="Helvetica,sans-Serif" font-size="10.00">+ root_iter_vars()</text>
<text text-anchor="start" x="192.5" y="-117.5" font-family="Helvetica,sans-Serif" font-size="10.00">+ output_dtype()</text>
<text text-anchor="start" x="192.5" y="-106.5" font-family="Helvetica,sans-Serif" font-size="10.00">+ output_shape()</text>
<text text-anchor="start" x="192.5" y="-95.5" font-family="Helvetica,sans-Serif" font-size="10.00">+ InputTensors()</text>
<text text-anchor="start" x="192.5" y="-84.5" font-family="Helvetica,sans-Serif" font-size="10.00">+ ReplaceInputs()</text>
<text text-anchor="start" x="192.5" y="-73.5" font-family="Helvetica,sans-Serif" font-size="10.00">+ PropBoundToInputs()</text>
<text text-anchor="start" x="192.5" y="-62.5" font-family="Helvetica,sans-Serif" font-size="10.00">+ GatherBound()</text>
<text text-anchor="start" x="192.5" y="-51.5" font-family="Helvetica,sans-Serif" font-size="10.00">+ BuildRealize()</text>
<text text-anchor="start" x="192.5" y="-40.5" font-family="Helvetica,sans-Serif" font-size="10.00">+ BuildProvide()</text>
<text text-anchor="start" x="192.5" y="-29.5" font-family="Helvetica,sans-Serif" font-size="10.00">+ VisitAttrs()</text>
<text text-anchor="start" x="192.5" y="-18.5" font-family="Helvetica,sans-Serif" font-size="10.00">+ TVM_DECLARE_FINAL_OBJECT_INFO()</text>
<text text-anchor="start" x="192.5" y="-7.5" font-family="Helvetica,sans-Serif" font-size="10.00">+ make()</text>
</g>
<!-- Node2 -->
<g id="node2" class="node"><title>Node2</title>
<g id="a_node2"><a xlink:href="classtvm_1_1te_1_1OperationNode.html" target="_top" xlink:title="Base class of all operation nodes. ">
<polygon fill="white" stroke="black" points="0,-281.5 0,-470.5 204,-470.5 204,-281.5 0,-281.5"/>
<text text-anchor="middle" x="102" y="-458.5" font-family="Helvetica,sans-Serif" font-size="10.00">tvm::te::OperationNode</text>
<polyline fill="none" stroke="black" points="0,-451.5 204,-451.5 "/>
<text text-anchor="start" x="8" y="-439.5" font-family="Helvetica,sans-Serif" font-size="10.00">+ name</text>
<text text-anchor="start" x="8" y="-428.5" font-family="Helvetica,sans-Serif" font-size="10.00">+ tag</text>
<text text-anchor="start" x="8" y="-417.5" font-family="Helvetica,sans-Serif" font-size="10.00">+ _type_key</text>
<polyline fill="none" stroke="black" points="0,-410.5 204,-410.5 "/>
<text text-anchor="start" x="8" y="-398.5" font-family="Helvetica,sans-Serif" font-size="10.00">+ func_name()</text>
<text text-anchor="start" x="8" y="-387.5" font-family="Helvetica,sans-Serif" font-size="10.00">+ root_iter_vars()</text>
<text text-anchor="start" x="8" y="-376.5" font-family="Helvetica,sans-Serif" font-size="10.00">+ output_dtype()</text>
<text text-anchor="start" x="8" y="-365.5" font-family="Helvetica,sans-Serif" font-size="10.00">+ output_shape()</text>
<text text-anchor="start" x="8" y="-354.5" font-family="Helvetica,sans-Serif" font-size="10.00">+ InputTensors()</text>
<text text-anchor="start" x="8" y="-343.5" font-family="Helvetica,sans-Serif" font-size="10.00">+ ReplaceInputs()</text>
<text text-anchor="start" x="8" y="-332.5" font-family="Helvetica,sans-Serif" font-size="10.00">+ PropBoundToInputs()</text>
<text text-anchor="start" x="8" y="-321.5" font-family="Helvetica,sans-Serif" font-size="10.00">+ GatherBound()</text>
<text text-anchor="start" x="8" y="-310.5" font-family="Helvetica,sans-Serif" font-size="10.00">+ BuildRealize()</text>
<text text-anchor="start" x="8" y="-299.5" font-family="Helvetica,sans-Serif" font-size="10.00">+ BuildProvide()</text>
<text text-anchor="start" x="8" y="-288.5" font-family="Helvetica,sans-Serif" font-size="10.00">+ TVM_DECLARE_BASE_OBJECT_INFO()</text>
</a>
</g>
</g>
<!-- Node2&#45;&gt;Node1 -->
<g id="edge1" class="edge"><title>Node2&#45;&gt;Node1</title>
<path fill="none" stroke="midnightblue" d="M171.016,-272.968C187.001,-249.337 203.987,-224.225 219.888,-200.717"/>
<polygon fill="none" stroke="midnightblue" points="168.111,-271.015 165.408,-281.259 173.91,-274.937 168.111,-271.015"/>
</g>
<!-- Node3 -->
<g id="node3" class="node"><title>Node3</title>
<g id="a_node3"><a xlink:href="classtvm_1_1tir_1_1FunctionBaseNode.html" target="_top" xlink:title="Base node of internal functions. ">
<polygon fill="white" stroke="black" points="9,-686.5 9,-765.5 155,-765.5 155,-686.5 9,-686.5"/>
<text text-anchor="middle" x="82" y="-753.5" font-family="Helvetica,sans-Serif" font-size="10.00">tvm::tir::FunctionBaseNode</text>
<polyline fill="none" stroke="black" points="9,-746.5 155,-746.5 "/>
<text text-anchor="middle" x="82" y="-734.5" font-family="Helvetica,sans-Serif" font-size="10.00"> </text>
<polyline fill="none" stroke="black" points="9,-727.5 155,-727.5 "/>
<text text-anchor="start" x="17" y="-715.5" font-family="Helvetica,sans-Serif" font-size="10.00">+ ~FunctionBaseNode()</text>
<text text-anchor="start" x="17" y="-704.5" font-family="Helvetica,sans-Serif" font-size="10.00">+ func_name()</text>
<text text-anchor="start" x="17" y="-693.5" font-family="Helvetica,sans-Serif" font-size="10.00">+ num_outputs()</text>
</a>
</g>
</g>
<!-- Node3&#45;&gt;Node2 -->
<g id="edge2" class="edge"><title>Node3&#45;&gt;Node2</title>
<path fill="none" stroke="midnightblue" d="M84.8008,-676.266C87.8522,-623.171 92.807,-536.959 96.6165,-470.672"/>
<polygon fill="none" stroke="midnightblue" points="81.2964,-676.244 84.2168,-686.428 88.2849,-676.646 81.2964,-676.244"/>
</g>
<!-- Node4 -->
<g id="node4" class="node"><title>Node4</title>
<polygon fill="white" stroke="#bfbfbf" points="58.5,-803.5 58.5,-860.5 105.5,-860.5 105.5,-803.5 58.5,-803.5"/>
<text text-anchor="middle" x="82" y="-848.5" font-family="Helvetica,sans-Serif" font-size="10.00">Object</text>
<polyline fill="none" stroke="#bfbfbf" points="58.5,-841.5 105.5,-841.5 "/>
<text text-anchor="middle" x="82" y="-829.5" font-family="Helvetica,sans-Serif" font-size="10.00"> </text>
<polyline fill="none" stroke="#bfbfbf" points="58.5,-822.5 105.5,-822.5 "/>
<text text-anchor="middle" x="82" y="-810.5" font-family="Helvetica,sans-Serif" font-size="10.00"> </text>
</g>
<!-- Node4&#45;&gt;Node3 -->
<g id="edge3" class="edge"><title>Node4&#45;&gt;Node3</title>
<path fill="none" stroke="midnightblue" d="M82,-793.232C82,-784.268 82,-774.693 82,-765.689"/>
<polygon fill="none" stroke="midnightblue" points="78.5001,-793.403 82,-803.403 85.5001,-793.403 78.5001,-793.403"/>
</g>
<!-- Node5 -->
<g id="node5" class="node"><title>Node5</title>
<polygon fill="white" stroke="#bfbfbf" points="173,-692 173,-760 297,-760 297,-692 173,-692"/>
<text text-anchor="start" x="181" y="-748" font-family="Helvetica,sans-Serif" font-size="10.00">tvm::Map&lt; std::string,</text>
<text text-anchor="middle" x="235" y="-737" font-family="Helvetica,sans-Serif" font-size="10.00"> ObjectRef &gt;</text>
<polyline fill="none" stroke="#bfbfbf" points="173,-730 297,-730 "/>
<text text-anchor="middle" x="235" y="-718" font-family="Helvetica,sans-Serif" font-size="10.00"> </text>
<polyline fill="none" stroke="#bfbfbf" points="173,-711 297,-711 "/>
<text text-anchor="middle" x="235" y="-699" font-family="Helvetica,sans-Serif" font-size="10.00"> </text>
</g>
<!-- Node5&#45;&gt;Node2 -->
<g id="edge4" class="edge"><title>Node5&#45;&gt;Node2</title>
<path fill="none" stroke="#404040" d="M175.19,-691.959C155.158,-680.633 137.466,-670.226 136,-668 125.76,-652.45 116.111,-559.497 109.727,-482.767"/>
<polygon fill="none" stroke="#404040" points="109.711,-482.565 105.234,-476.912 108.731,-470.606 113.208,-476.259 109.711,-482.565"/>
<text text-anchor="middle" x="153" y="-576" font-family="Helvetica,sans-Serif" font-size="10.00"> +attrs</text>
</g>
<!-- Node6 -->
<g id="node6" class="node"><title>Node6</title>
<polygon fill="white" stroke="#bfbfbf" points="313,-803.5 313,-860.5 375,-860.5 375,-803.5 313,-803.5"/>
<text text-anchor="middle" x="344" y="-848.5" font-family="Helvetica,sans-Serif" font-size="10.00">ObjectRef</text>
<polyline fill="none" stroke="#bfbfbf" points="313,-841.5 375,-841.5 "/>
<text text-anchor="middle" x="344" y="-829.5" font-family="Helvetica,sans-Serif" font-size="10.00"> </text>
<polyline fill="none" stroke="#bfbfbf" points="313,-822.5 375,-822.5 "/>
<text text-anchor="middle" x="344" y="-810.5" font-family="Helvetica,sans-Serif" font-size="10.00"> </text>
</g>
<!-- Node6&#45;&gt;Node5 -->
<g id="edge5" class="edge"><title>Node6&#45;&gt;Node5</title>
<path fill="none" stroke="midnightblue" d="M307.694,-796.359C295.512,-784.736 281.96,-771.806 269.889,-760.288"/>
<polygon fill="none" stroke="midnightblue" points="305.425,-799.032 315.076,-803.403 310.257,-793.967 305.425,-799.032"/>
</g>
<!-- Node7 -->
<g id="node7" class="node"><title>Node7</title>
<g id="a_node7"><a xlink:href="classtvm_1_1tir_1_1IterVar.html" target="_top" xlink:title="Iteration Variable, represents an iteration over an integer interval. ">
<polygon fill="white" stroke="black" points="179,-533.5 179,-623.5 301,-623.5 301,-533.5 179,-533.5"/>
<text text-anchor="middle" x="240" y="-611.5" font-family="Helvetica,sans-Serif" font-size="10.00">tvm::tir::IterVar</text>
<polyline fill="none" stroke="black" points="179,-604.5 301,-604.5 "/>
<text text-anchor="middle" x="240" y="-592.5" font-family="Helvetica,sans-Serif" font-size="10.00"> </text>
<polyline fill="none" stroke="black" points="179,-585.5 301,-585.5 "/>
<text text-anchor="start" x="187" y="-573.5" font-family="Helvetica,sans-Serif" font-size="10.00">+ IterVar()</text>
<text text-anchor="start" x="187" y="-562.5" font-family="Helvetica,sans-Serif" font-size="10.00">+ IterVar()</text>
<text text-anchor="start" x="187" y="-551.5" font-family="Helvetica,sans-Serif" font-size="10.00">+ operator&#45;&gt;()</text>
<text text-anchor="start" x="187" y="-540.5" font-family="Helvetica,sans-Serif" font-size="10.00">+ operator PrimExpr()</text>
</a>
</g>
</g>
<!-- Node6&#45;&gt;Node7 -->
<g id="edge7" class="edge"><title>Node6&#45;&gt;Node7</title>
<path fill="none" stroke="midnightblue" d="M337.371,-793.461C331.34,-763.572 321.062,-721.081 306,-686 296.775,-664.513 283.659,-642.292 271.547,-623.743"/>
<polygon fill="none" stroke="midnightblue" points="333.975,-794.331 339.328,-803.474 340.845,-792.988 333.975,-794.331"/>
</g>
<!-- Node8 -->
<g id="node8" class="node"><title>Node8</title>
<g id="a_node8"><a xlink:href="classtvm_1_1Array.html" target="_top" xlink:title="{tvm::Array\&lt; tvm::tir\l::IterVar \&gt;\n||+ Array()\l+ Array()\l+ Array()\l+ Array()\l+ Array()\l+ Array()\l+ Array()\l+ Array()\l+ operator=()\l+ operator=()\land 13 more...\l}">
<polygon fill="white" stroke="black" points="306.5,-489.5 306.5,-667.5 419.5,-667.5 419.5,-489.5 306.5,-489.5"/>
<text text-anchor="start" x="314.5" y="-655.5" font-family="Helvetica,sans-Serif" font-size="10.00">tvm::Array&lt; tvm::tir</text>
<text text-anchor="middle" x="363" y="-644.5" font-family="Helvetica,sans-Serif" font-size="10.00">::IterVar &gt;</text>
<polyline fill="none" stroke="black" points="306.5,-637.5 419.5,-637.5 "/>
<text text-anchor="middle" x="363" y="-625.5" font-family="Helvetica,sans-Serif" font-size="10.00"> </text>
<polyline fill="none" stroke="black" points="306.5,-618.5 419.5,-618.5 "/>
<text text-anchor="start" x="314.5" y="-606.5" font-family="Helvetica,sans-Serif" font-size="10.00">+ Array()</text>
<text text-anchor="start" x="314.5" y="-595.5" font-family="Helvetica,sans-Serif" font-size="10.00">+ Array()</text>
<text text-anchor="start" x="314.5" y="-584.5" font-family="Helvetica,sans-Serif" font-size="10.00">+ Array()</text>
<text text-anchor="start" x="314.5" y="-573.5" font-family="Helvetica,sans-Serif" font-size="10.00">+ Array()</text>
<text text-anchor="start" x="314.5" y="-562.5" font-family="Helvetica,sans-Serif" font-size="10.00">+ Array()</text>
<text text-anchor="start" x="314.5" y="-551.5" font-family="Helvetica,sans-Serif" font-size="10.00">+ Array()</text>
<text text-anchor="start" x="314.5" y="-540.5" font-family="Helvetica,sans-Serif" font-size="10.00">+ Array()</text>
<text text-anchor="start" x="314.5" y="-529.5" font-family="Helvetica,sans-Serif" font-size="10.00">+ Array()</text>
<text text-anchor="start" x="314.5" y="-518.5" font-family="Helvetica,sans-Serif" font-size="10.00">+ operator=()</text>
<text text-anchor="start" x="314.5" y="-507.5" font-family="Helvetica,sans-Serif" font-size="10.00">+ operator=()</text>
<text text-anchor="start" x="314.5" y="-496.5" font-family="Helvetica,sans-Serif" font-size="10.00">and 13 more...</text>
</a>
</g>
</g>
<!-- Node6&#45;&gt;Node8 -->
<g id="edge9" class="edge"><title>Node6&#45;&gt;Node8</title>
<path fill="none" stroke="midnightblue" d="M346.874,-792.962C349.377,-759.822 353.104,-710.49 356.345,-667.596"/>
<polygon fill="none" stroke="midnightblue" points="343.369,-792.889 346.106,-803.124 350.349,-793.416 343.369,-792.889"/>
</g>
<!-- Node9 -->
<g id="node9" class="node"><title>Node9</title>
<g id="a_node9"><a xlink:href="classtvm_1_1Array.html" target="_top" xlink:title="{tvm::Array\&lt; tvm::te\l::Tensor \&gt;\n||+ Array()\l+ Array()\l+ Array()\l+ Array()\l+ Array()\l+ Array()\l+ Array()\l+ Array()\l+ operator=()\l+ operator=()\land 13 more...\l}">
<polygon fill="white" stroke="black" points="425.5,-287 425.5,-465 538.5,-465 538.5,-287 425.5,-287"/>
<text text-anchor="start" x="433.5" y="-453" font-family="Helvetica,sans-Serif" font-size="10.00">tvm::Array&lt; tvm::te</text>
<text text-anchor="middle" x="482" y="-442" font-family="Helvetica,sans-Serif" font-size="10.00">::Tensor &gt;</text>
<polyline fill="none" stroke="black" points="425.5,-435 538.5,-435 "/>
<text text-anchor="middle" x="482" y="-423" font-family="Helvetica,sans-Serif" font-size="10.00"> </text>
<polyline fill="none" stroke="black" points="425.5,-416 538.5,-416 "/>
<text text-anchor="start" x="433.5" y="-404" font-family="Helvetica,sans-Serif" font-size="10.00">+ Array()</text>
<text text-anchor="start" x="433.5" y="-393" font-family="Helvetica,sans-Serif" font-size="10.00">+ Array()</text>
<text text-anchor="start" x="433.5" y="-382" font-family="Helvetica,sans-Serif" font-size="10.00">+ Array()</text>
<text text-anchor="start" x="433.5" y="-371" font-family="Helvetica,sans-Serif" font-size="10.00">+ Array()</text>
<text text-anchor="start" x="433.5" y="-360" font-family="Helvetica,sans-Serif" font-size="10.00">+ Array()</text>
<text text-anchor="start" x="433.5" y="-349" font-family="Helvetica,sans-Serif" font-size="10.00">+ Array()</text>
<text text-anchor="start" x="433.5" y="-338" font-family="Helvetica,sans-Serif" font-size="10.00">+ Array()</text>
<text text-anchor="start" x="433.5" y="-327" font-family="Helvetica,sans-Serif" font-size="10.00">+ Array()</text>
<text text-anchor="start" x="433.5" y="-316" font-family="Helvetica,sans-Serif" font-size="10.00">+ operator=()</text>
<text text-anchor="start" x="433.5" y="-305" font-family="Helvetica,sans-Serif" font-size="10.00">+ operator=()</text>
<text text-anchor="start" x="433.5" y="-294" font-family="Helvetica,sans-Serif" font-size="10.00">and 13 more...</text>
</a>
</g>
</g>
<!-- Node6&#45;&gt;Node9 -->
<g id="edge11" class="edge"><title>Node6&#45;&gt;Node9</title>
<path fill="none" stroke="midnightblue" d="M366.67,-794.653C385.752,-762.492 412.363,-713.704 428,-668 450.622,-601.882 464.448,-523.886 472.44,-465.293"/>
<polygon fill="none" stroke="midnightblue" points="363.646,-792.891 361.503,-803.267 369.649,-796.492 363.646,-792.891"/>
</g>
<!-- Node7&#45;&gt;Node1 -->
<g id="edge6" class="edge"><title>Node7&#45;&gt;Node1</title>
<path fill="none" stroke="#404040" d="M240.236,-533.145C240.97,-475.043 243.756,-370.08 254,-281 256.547,-258.854 260.186,-235.322 264.125,-212.84"/>
<polygon fill="none" stroke="#404040" points="264.16,-212.647 261.279,-206.036 266.274,-200.835 269.154,-207.445 264.16,-212.647"/>
<text text-anchor="middle" x="283" y="-373.5" font-family="Helvetica,sans-Serif" font-size="10.00"> +scan_axis</text>
</g>
<!-- Node8&#45;&gt;Node1 -->
<g id="edge8" class="edge"><title>Node8&#45;&gt;Node1</title>
<path fill="none" stroke="#404040" d="M346.223,-489.498C345.108,-483.242 344.022,-477.028 343,-471 328.328,-384.501 313.531,-286.288 302.835,-212.87"/>
<polygon fill="none" stroke="#404040" points="302.814,-212.721 297.992,-207.358 301.088,-200.846 305.909,-206.208 302.814,-212.721"/>
<text text-anchor="middle" x="379.5" y="-373.5" font-family="Helvetica,sans-Serif" font-size="10.00"> +spatial_axis_</text>
</g>
<!-- Node9&#45;&gt;Node1 -->
<g id="edge10" class="edge"><title>Node9&#45;&gt;Node1</title>
<path fill="none" stroke="#404040" d="M425.336,-295.525C406.425,-269.001 385.013,-238.969 364.782,-210.594"/>
<polygon fill="none" stroke="#404040" points="364.648,-210.406 357.908,-207.843 357.682,-200.636 364.422,-203.199 364.648,-210.406"/>
<text text-anchor="middle" x="449" y="-255" font-family="Helvetica,sans-Serif" font-size="10.00"> +inputs</text>
<text text-anchor="middle" x="449" y="-244" font-family="Helvetica,sans-Serif" font-size="10.00">+update</text>
<text text-anchor="middle" x="449" y="-233" font-family="Helvetica,sans-Serif" font-size="10.00">+init</text>
<text text-anchor="middle" x="449" y="-222" font-family="Helvetica,sans-Serif" font-size="10.00">+state_placeholder</text>
</g>
</g>
</svg>
