<?xml version="1.0" encoding="UTF-8" standalone="no"?>
<!DOCTYPE svg PUBLIC "-//W3C//DTD SVG 1.1//EN"
 "http://www.w3.org/Graphics/SVG/1.1/DTD/svg11.dtd">
<!-- Generated by graphviz version 2.38.0 (20140413.2041)
 -->
<!-- Title: tvm::tir::ProducerConsumerNode Pages: 1 -->
<svg width="548pt" height="365pt"
 viewBox="0.00 0.00 548.00 365.00" xmlns="http://www.w3.org/2000/svg" xmlns:xlink="http://www.w3.org/1999/xlink">
<g id="graph0" class="graph" transform="scale(1 1) rotate(0) translate(4 361)">
<title>tvm::tir::ProducerConsumerNode</title>
<polygon fill="white" stroke="none" points="-4,4 -4,-361 544,-361 544,4 -4,4"/>
<!-- Node1 -->
<g id="node1" class="node"><title>Node1</title>
<polygon fill="#bfbfbf" stroke="black" points="194.5,-0.5 194.5,-112.5 399.5,-112.5 399.5,-0.5 194.5,-0.5"/>
<text text-anchor="middle" x="297" y="-100.5" font-family="Helvetica,sans-Serif" font-size="10.00">tvm::tir::ProducerConsumerNode</text>
<polyline fill="none" stroke="black" points="194.5,-93.5 399.5,-93.5 "/>
<text text-anchor="start" x="202.5" y="-81.5" font-family="Helvetica,sans-Serif" font-size="10.00">+ is_producer</text>
<text text-anchor="start" x="202.5" y="-70.5" font-family="Helvetica,sans-Serif" font-size="10.00">+ _type_key</text>
<polyline fill="none" stroke="black" points="194.5,-63.5 399.5,-63.5 "/>
<text text-anchor="start" x="202.5" y="-51.5" font-family="Helvetica,sans-Serif" font-size="10.00">+ VisitAttrs()</text>
<text text-anchor="start" x="202.5" y="-40.5" font-family="Helvetica,sans-Serif" font-size="10.00">+ SEqualReduce()</text>
<text text-anchor="start" x="202.5" y="-29.5" font-family="Helvetica,sans-Serif" font-size="10.00">+ SHashReduce()</text>
<text text-anchor="start" x="202.5" y="-18.5" font-family="Helvetica,sans-Serif" font-size="10.00">+ TVM_DECLARE_FINAL_OBJECT_INFO()</text>
<text text-anchor="start" x="202.5" y="-7.5" font-family="Helvetica,sans-Serif" font-size="10.00">+ make()</text>
</g>
<!-- Node2 -->
<g id="node2" class="node"><title>Node2</title>
<g id="a_node2"><a xlink:href="classtvm_1_1tir_1_1StmtNode.html" target="_top" xlink:title="Base node of all statements. ">
<polygon fill="white" stroke="black" points="0,-160.5 0,-261.5 204,-261.5 204,-160.5 0,-160.5"/>
<text text-anchor="middle" x="102" y="-249.5" font-family="Helvetica,sans-Serif" font-size="10.00">tvm::tir::StmtNode</text>
<polyline fill="none" stroke="black" points="0,-242.5 204,-242.5 "/>
<text text-anchor="start" x="8" y="-230.5" font-family="Helvetica,sans-Serif" font-size="10.00">+ _type_key</text>
<text text-anchor="start" x="8" y="-219.5" font-family="Helvetica,sans-Serif" font-size="10.00">+ _type_has_method_sequal</text>
<text text-anchor="start" x="8" y="-208.5" font-family="Helvetica,sans-Serif" font-size="10.00">_reduce</text>
<text text-anchor="start" x="8" y="-197.5" font-family="Helvetica,sans-Serif" font-size="10.00">+ _type_has_method_shash</text>
<text text-anchor="start" x="8" y="-186.5" font-family="Helvetica,sans-Serif" font-size="10.00">_reduce</text>
<polyline fill="none" stroke="black" points="0,-179.5 204,-179.5 "/>
<text text-anchor="start" x="8" y="-167.5" font-family="Helvetica,sans-Serif" font-size="10.00">+ TVM_DECLARE_BASE_OBJECT_INFO()</text>
</a>
</g>
</g>
<!-- Node2&#45;&gt;Node1 -->
<g id="edge1" class="edge"><title>Node2&#45;&gt;Node1</title>
<path fill="none" stroke="midnightblue" d="M173.212,-154.309C190.612,-140.701 209.22,-126.148 226.583,-112.569"/>
<polygon fill="none" stroke="midnightblue" points="171.032,-151.57 165.311,-160.488 175.344,-157.084 171.032,-151.57"/>
</g>
<!-- Node3 -->
<g id="node3" class="node"><title>Node3</title>
<polygon fill="white" stroke="#bfbfbf" points="78.5,-299.5 78.5,-356.5 125.5,-356.5 125.5,-299.5 78.5,-299.5"/>
<text text-anchor="middle" x="102" y="-344.5" font-family="Helvetica,sans-Serif" font-size="10.00">Object</text>
<polyline fill="none" stroke="#bfbfbf" points="78.5,-337.5 125.5,-337.5 "/>
<text text-anchor="middle" x="102" y="-325.5" font-family="Helvetica,sans-Serif" font-size="10.00"> </text>
<polyline fill="none" stroke="#bfbfbf" points="78.5,-318.5 125.5,-318.5 "/>
<text text-anchor="middle" x="102" y="-306.5" font-family="Helvetica,sans-Serif" font-size="10.00"> </text>
</g>
<!-- Node3&#45;&gt;Node2 -->
<g id="edge2" class="edge"><title>Node3&#45;&gt;Node2</title>
<path fill="none" stroke="midnightblue" d="M102,-289.187C102,-280.435 102,-270.99 102,-261.812"/>
<polygon fill="none" stroke="midnightblue" points="98.5001,-289.455 102,-299.455 105.5,-289.455 98.5001,-289.455"/>
</g>
<!-- Node4 -->
<g id="node4" class="node"><title>Node4</title>
<g id="a_node4"><a xlink:href="classtvm_1_1tir_1_1FunctionRef.html" target="_top" xlink:title="reference to a function ">
<polygon fill="white" stroke="black" points="222,-177 222,-245 372,-245 372,-177 222,-177"/>
<text text-anchor="middle" x="297" y="-233" font-family="Helvetica,sans-Serif" font-size="10.00">tvm::tir::FunctionRef</text>
<polyline fill="none" stroke="black" points="222,-226 372,-226 "/>
<text text-anchor="middle" x="297" y="-214" font-family="Helvetica,sans-Serif" font-size="10.00"> </text>
<polyline fill="none" stroke="black" points="222,-207 372,-207 "/>
<text text-anchor="start" x="230" y="-195" font-family="Helvetica,sans-Serif" font-size="10.00">+ TVM_DEFINE_OBJECT_REF</text>
<text text-anchor="start" x="230" y="-184" font-family="Helvetica,sans-Serif" font-size="10.00">_METHODS()</text>
</a>
</g>
</g>
<!-- Node4&#45;&gt;Node1 -->
<g id="edge3" class="edge"><title>Node4&#45;&gt;Node1</title>
<path fill="none" stroke="#404040" d="M297,-176.91C297,-161.605 297,-142.841 297,-124.761"/>
<polygon fill="none" stroke="#404040" points="297,-124.714 293,-118.714 297,-112.714 301,-118.714 297,-124.714"/>
<text text-anchor="middle" x="313" y="-134" font-family="Helvetica,sans-Serif" font-size="10.00"> +func</text>
</g>
<!-- Node5 -->
<g id="node5" class="node"><title>Node5</title>
<polygon fill="white" stroke="#bfbfbf" points="350,-299.5 350,-356.5 412,-356.5 412,-299.5 350,-299.5"/>
<text text-anchor="middle" x="381" y="-344.5" font-family="Helvetica,sans-Serif" font-size="10.00">ObjectRef</text>
<polyline fill="none" stroke="#bfbfbf" points="350,-337.5 412,-337.5 "/>
<text text-anchor="middle" x="381" y="-325.5" font-family="Helvetica,sans-Serif" font-size="10.00"> </text>
<polyline fill="none" stroke="#bfbfbf" points="350,-318.5 412,-318.5 "/>
<text text-anchor="middle" x="381" y="-306.5" font-family="Helvetica,sans-Serif" font-size="10.00"> </text>
</g>
<!-- Node5&#45;&gt;Node4 -->
<g id="edge4" class="edge"><title>Node5&#45;&gt;Node4</title>
<path fill="none" stroke="midnightblue" d="M354.765,-291.083C344.019,-276.371 331.662,-259.454 321.142,-245.052"/>
<polygon fill="none" stroke="midnightblue" points="352.155,-293.444 360.88,-299.455 357.808,-289.315 352.155,-293.444"/>
</g>
<!-- Node6 -->
<g id="node6" class="node"><title>Node6</title>
<g id="a_node6"><a xlink:href="classtvm_1_1tir_1_1Stmt.html" target="_top" xlink:title="Container of all statements. ">
<polygon fill="white" stroke="black" points="390,-177 390,-245 540,-245 540,-177 390,-177"/>
<text text-anchor="middle" x="465" y="-233" font-family="Helvetica,sans-Serif" font-size="10.00">tvm::tir::Stmt</text>
<polyline fill="none" stroke="black" points="390,-226 540,-226 "/>
<text text-anchor="middle" x="465" y="-214" font-family="Helvetica,sans-Serif" font-size="10.00"> </text>
<polyline fill="none" stroke="black" points="390,-207 540,-207 "/>
<text text-anchor="start" x="398" y="-195" font-family="Helvetica,sans-Serif" font-size="10.00">+ TVM_DEFINE_OBJECT_REF</text>
<text text-anchor="start" x="398" y="-184" font-family="Helvetica,sans-Serif" font-size="10.00">_METHODS()</text>
</a>
</g>
</g>
<!-- Node5&#45;&gt;Node6 -->
<g id="edge6" class="edge"><title>Node5&#45;&gt;Node6</title>
<path fill="none" stroke="midnightblue" d="M407.235,-291.083C417.981,-276.371 430.338,-259.454 440.858,-245.052"/>
<polygon fill="none" stroke="midnightblue" points="404.192,-289.315 401.12,-299.455 409.845,-293.444 404.192,-289.315"/>
</g>
<!-- Node6&#45;&gt;Node1 -->
<g id="edge5" class="edge"><title>Node6&#45;&gt;Node1</title>
<path fill="none" stroke="#404040" d="M428.547,-176.91C410.476,-160.507 388.028,-140.13 366.822,-120.88"/>
<polygon fill="none" stroke="#404040" points="366.712,-120.78 359.58,-119.709 357.826,-112.714 364.957,-113.785 366.712,-120.78"/>
<text text-anchor="middle" x="403.5" y="-134" font-family="Helvetica,sans-Serif" font-size="10.00"> +body</text>
</g>
</g>
</svg>
