<?xml version="1.0" encoding="UTF-8" standalone="no"?>
<!DOCTYPE svg PUBLIC "-//W3C//DTD SVG 1.1//EN"
 "http://www.w3.org/Graphics/SVG/1.1/DTD/svg11.dtd">
<!-- Generated by graphviz version 2.38.0 (20140413.2041)
 -->
<!-- Title: tvm::te::TensorIntrinCallNode Pages: 1 -->
<svg width="753pt" height="409pt"
 viewBox="0.00 0.00 752.50 409.00" xmlns="http://www.w3.org/2000/svg" xmlns:xlink="http://www.w3.org/1999/xlink">
<g id="graph0" class="graph" transform="scale(1 1) rotate(0) translate(4 405)">
<title>tvm::te::TensorIntrinCallNode</title>
<polygon fill="white" stroke="none" points="-4,4 -4,-405 748.5,-405 748.5,4 -4,4"/>
<!-- Node1 -->
<g id="node1" class="node"><title>Node1</title>
<polygon fill="#bfbfbf" stroke="black" points="248,-0.5 248,-79.5 453,-79.5 453,-0.5 248,-0.5"/>
<text text-anchor="middle" x="350.5" y="-67.5" font-family="Helvetica,sans-Serif" font-size="10.00">tvm::te::TensorIntrinCallNode</text>
<polyline fill="none" stroke="black" points="248,-60.5 453,-60.5 "/>
<text text-anchor="start" x="256" y="-48.5" font-family="Helvetica,sans-Serif" font-size="10.00">+ _type_key</text>
<polyline fill="none" stroke="black" points="248,-41.5 453,-41.5 "/>
<text text-anchor="start" x="256" y="-29.5" font-family="Helvetica,sans-Serif" font-size="10.00">+ VisitAttrs()</text>
<text text-anchor="start" x="256" y="-18.5" font-family="Helvetica,sans-Serif" font-size="10.00">+ TVM_DECLARE_FINAL_OBJECT_INFO()</text>
<text text-anchor="start" x="256" y="-7.5" font-family="Helvetica,sans-Serif" font-size="10.00">+ make()</text>
</g>
<!-- Node2 -->
<g id="node2" class="node"><title>Node2</title>
<polygon fill="white" stroke="#bfbfbf" points="0,-188 0,-245 47,-245 47,-188 0,-188"/>
<text text-anchor="middle" x="23.5" y="-233" font-family="Helvetica,sans-Serif" font-size="10.00">Object</text>
<polyline fill="none" stroke="#bfbfbf" points="0,-226 47,-226 "/>
<text text-anchor="middle" x="23.5" y="-214" font-family="Helvetica,sans-Serif" font-size="10.00"> </text>
<polyline fill="none" stroke="#bfbfbf" points="0,-207 47,-207 "/>
<text text-anchor="middle" x="23.5" y="-195" font-family="Helvetica,sans-Serif" font-size="10.00"> </text>
</g>
<!-- Node2&#45;&gt;Node1 -->
<g id="edge1" class="edge"><title>Node2&#45;&gt;Node1</title>
<path fill="none" stroke="midnightblue" d="M29.0381,-177.891C33.4523,-160.265 41.3594,-140.273 55.5,-127 107.33,-78.3508 185.128,-57.0463 247.819,-47.8007"/>
<polygon fill="none" stroke="midnightblue" points="25.5607,-177.407 26.8221,-187.927 32.396,-178.917 25.5607,-177.407"/>
</g>
<!-- Node3 -->
<g id="node3" class="node"><title>Node3</title>
<g id="a_node3"><a xlink:href="classtvm_1_1Array.html" target="_top" xlink:title="{tvm::Array\&lt; tvm::tir\l::IterVar \&gt;\n||+ Array()\l+ Array()\l+ Array()\l+ Array()\l+ Array()\l+ Array()\l+ Array()\l+ Array()\l+ operator=()\l+ operator=()\land 13 more...\l}">
<polygon fill="white" stroke="black" points="65,-127.5 65,-305.5 178,-305.5 178,-127.5 65,-127.5"/>
<text text-anchor="start" x="73" y="-293.5" font-family="Helvetica,sans-Serif" font-size="10.00">tvm::Array&lt; tvm::tir</text>
<text text-anchor="middle" x="121.5" y="-282.5" font-family="Helvetica,sans-Serif" font-size="10.00">::IterVar &gt;</text>
<polyline fill="none" stroke="black" points="65,-275.5 178,-275.5 "/>
<text text-anchor="middle" x="121.5" y="-263.5" font-family="Helvetica,sans-Serif" font-size="10.00"> </text>
<polyline fill="none" stroke="black" points="65,-256.5 178,-256.5 "/>
<text text-anchor="start" x="73" y="-244.5" font-family="Helvetica,sans-Serif" font-size="10.00">+ Array()</text>
<text text-anchor="start" x="73" y="-233.5" font-family="Helvetica,sans-Serif" font-size="10.00">+ Array()</text>
<text text-anchor="start" x="73" y="-222.5" font-family="Helvetica,sans-Serif" font-size="10.00">+ Array()</text>
<text text-anchor="start" x="73" y="-211.5" font-family="Helvetica,sans-Serif" font-size="10.00">+ Array()</text>
<text text-anchor="start" x="73" y="-200.5" font-family="Helvetica,sans-Serif" font-size="10.00">+ Array()</text>
<text text-anchor="start" x="73" y="-189.5" font-family="Helvetica,sans-Serif" font-size="10.00">+ Array()</text>
<text text-anchor="start" x="73" y="-178.5" font-family="Helvetica,sans-Serif" font-size="10.00">+ Array()</text>
<text text-anchor="start" x="73" y="-167.5" font-family="Helvetica,sans-Serif" font-size="10.00">+ Array()</text>
<text text-anchor="start" x="73" y="-156.5" font-family="Helvetica,sans-Serif" font-size="10.00">+ operator=()</text>
<text text-anchor="start" x="73" y="-145.5" font-family="Helvetica,sans-Serif" font-size="10.00">+ operator=()</text>
<text text-anchor="start" x="73" y="-134.5" font-family="Helvetica,sans-Serif" font-size="10.00">and 13 more...</text>
</a>
</g>
</g>
<!-- Node3&#45;&gt;Node1 -->
<g id="edge2" class="edge"><title>Node3&#45;&gt;Node1</title>
<path fill="none" stroke="#404040" d="M178.057,-134.938C180.814,-132.17 183.631,-129.511 186.5,-127 204.608,-111.15 226.148,-97.2166 247.565,-85.4337"/>
<polygon fill="none" stroke="#404040" points="247.809,-85.3033 251.215,-78.9473 258.392,-79.6469 254.986,-86.0029 247.809,-85.3033"/>
<text text-anchor="middle" x="262" y="-101" font-family="Helvetica,sans-Serif" font-size="10.00"> +reduce_axis</text>
</g>
<!-- Node4 -->
<g id="node4" class="node"><title>Node4</title>
<polygon fill="white" stroke="#bfbfbf" points="396.5,-343.5 396.5,-400.5 458.5,-400.5 458.5,-343.5 396.5,-343.5"/>
<text text-anchor="middle" x="427.5" y="-388.5" font-family="Helvetica,sans-Serif" font-size="10.00">ObjectRef</text>
<polyline fill="none" stroke="#bfbfbf" points="396.5,-381.5 458.5,-381.5 "/>
<text text-anchor="middle" x="427.5" y="-369.5" font-family="Helvetica,sans-Serif" font-size="10.00"> </text>
<polyline fill="none" stroke="#bfbfbf" points="396.5,-362.5 458.5,-362.5 "/>
<text text-anchor="middle" x="427.5" y="-350.5" font-family="Helvetica,sans-Serif" font-size="10.00"> </text>
</g>
<!-- Node4&#45;&gt;Node3 -->
<g id="edge3" class="edge"><title>Node4&#45;&gt;Node3</title>
<path fill="none" stroke="midnightblue" d="M386.26,-368.169C335.319,-362.92 247.885,-348.03 186.5,-306 183.669,-304.061 180.914,-301.958 178.24,-299.722"/>
<polygon fill="none" stroke="midnightblue" points="385.961,-371.657 396.248,-369.123 386.626,-364.688 385.961,-371.657"/>
</g>
<!-- Node5 -->
<g id="node5" class="node"><title>Node5</title>
<g id="a_node5"><a xlink:href="classtvm_1_1Array.html" target="_top" xlink:title="{tvm::Array\&lt; tvm::PrimExpr \&gt;\n||+ Array()\l+ Array()\l+ Array()\l+ Array()\l+ Array()\l+ Array()\l+ Array()\l+ Array()\l+ operator=()\l+ operator=()\land 13 more...\l}">
<polygon fill="white" stroke="black" points="196,-133 196,-300 353,-300 353,-133 196,-133"/>
<text text-anchor="middle" x="274.5" y="-288" font-family="Helvetica,sans-Serif" font-size="10.00">tvm::Array&lt; tvm::PrimExpr &gt;</text>
<polyline fill="none" stroke="black" points="196,-281 353,-281 "/>
<text text-anchor="middle" x="274.5" y="-269" font-family="Helvetica,sans-Serif" font-size="10.00"> </text>
<polyline fill="none" stroke="black" points="196,-262 353,-262 "/>
<text text-anchor="start" x="204" y="-250" font-family="Helvetica,sans-Serif" font-size="10.00">+ Array()</text>
<text text-anchor="start" x="204" y="-239" font-family="Helvetica,sans-Serif" font-size="10.00">+ Array()</text>
<text text-anchor="start" x="204" y="-228" font-family="Helvetica,sans-Serif" font-size="10.00">+ Array()</text>
<text text-anchor="start" x="204" y="-217" font-family="Helvetica,sans-Serif" font-size="10.00">+ Array()</text>
<text text-anchor="start" x="204" y="-206" font-family="Helvetica,sans-Serif" font-size="10.00">+ Array()</text>
<text text-anchor="start" x="204" y="-195" font-family="Helvetica,sans-Serif" font-size="10.00">+ Array()</text>
<text text-anchor="start" x="204" y="-184" font-family="Helvetica,sans-Serif" font-size="10.00">+ Array()</text>
<text text-anchor="start" x="204" y="-173" font-family="Helvetica,sans-Serif" font-size="10.00">+ Array()</text>
<text text-anchor="start" x="204" y="-162" font-family="Helvetica,sans-Serif" font-size="10.00">+ operator=()</text>
<text text-anchor="start" x="204" y="-151" font-family="Helvetica,sans-Serif" font-size="10.00">+ operator=()</text>
<text text-anchor="start" x="204" y="-140" font-family="Helvetica,sans-Serif" font-size="10.00">and 13 more...</text>
</a>
</g>
</g>
<!-- Node4&#45;&gt;Node5 -->
<g id="edge5" class="edge"><title>Node4&#45;&gt;Node5</title>
<path fill="none" stroke="midnightblue" d="M391.794,-336.043C381.947,-326.346 371.282,-315.791 361.5,-306 358.759,-303.256 355.973,-300.461 353.163,-297.635"/>
<polygon fill="none" stroke="midnightblue" points="389.554,-338.748 399.138,-343.265 394.462,-333.758 389.554,-338.748"/>
</g>
<!-- Node6 -->
<g id="node6" class="node"><title>Node6</title>
<g id="a_node6"><a xlink:href="classtvm_1_1Array.html" target="_top" xlink:title="{tvm::Array\&lt; tvm::te\l::Tensor \&gt;\n||+ Array()\l+ Array()\l+ Array()\l+ Array()\l+ Array()\l+ Array()\l+ Array()\l+ Array()\l+ operator=()\l+ operator=()\land 13 more...\l}">
<polygon fill="white" stroke="black" points="371,-127.5 371,-305.5 484,-305.5 484,-127.5 371,-127.5"/>
<text text-anchor="start" x="379" y="-293.5" font-family="Helvetica,sans-Serif" font-size="10.00">tvm::Array&lt; tvm::te</text>
<text text-anchor="middle" x="427.5" y="-282.5" font-family="Helvetica,sans-Serif" font-size="10.00">::Tensor &gt;</text>
<polyline fill="none" stroke="black" points="371,-275.5 484,-275.5 "/>
<text text-anchor="middle" x="427.5" y="-263.5" font-family="Helvetica,sans-Serif" font-size="10.00"> </text>
<polyline fill="none" stroke="black" points="371,-256.5 484,-256.5 "/>
<text text-anchor="start" x="379" y="-244.5" font-family="Helvetica,sans-Serif" font-size="10.00">+ Array()</text>
<text text-anchor="start" x="379" y="-233.5" font-family="Helvetica,sans-Serif" font-size="10.00">+ Array()</text>
<text text-anchor="start" x="379" y="-222.5" font-family="Helvetica,sans-Serif" font-size="10.00">+ Array()</text>
<text text-anchor="start" x="379" y="-211.5" font-family="Helvetica,sans-Serif" font-size="10.00">+ Array()</text>
<text text-anchor="start" x="379" y="-200.5" font-family="Helvetica,sans-Serif" font-size="10.00">+ Array()</text>
<text text-anchor="start" x="379" y="-189.5" font-family="Helvetica,sans-Serif" font-size="10.00">+ Array()</text>
<text text-anchor="start" x="379" y="-178.5" font-family="Helvetica,sans-Serif" font-size="10.00">+ Array()</text>
<text text-anchor="start" x="379" y="-167.5" font-family="Helvetica,sans-Serif" font-size="10.00">+ Array()</text>
<text text-anchor="start" x="379" y="-156.5" font-family="Helvetica,sans-Serif" font-size="10.00">+ operator=()</text>
<text text-anchor="start" x="379" y="-145.5" font-family="Helvetica,sans-Serif" font-size="10.00">+ operator=()</text>
<text text-anchor="start" x="379" y="-134.5" font-family="Helvetica,sans-Serif" font-size="10.00">and 13 more...</text>
</a>
</g>
</g>
<!-- Node4&#45;&gt;Node6 -->
<g id="edge7" class="edge"><title>Node4&#45;&gt;Node6</title>
<path fill="none" stroke="midnightblue" d="M427.5,-332.957C427.5,-324.471 427.5,-315.13 427.5,-305.549"/>
<polygon fill="none" stroke="midnightblue" points="424,-333.202 427.5,-343.202 431,-333.202 424,-333.202"/>
</g>
<!-- Node7 -->
<g id="node7" class="node"><title>Node7</title>
<g id="a_node7"><a xlink:href="classtvm_1_1Array.html" target="_top" xlink:title="{tvm::Array\&lt; Array\&lt;\l Range \&gt; \&gt;\n||+ Array()\l+ Array()\l+ Array()\l+ Array()\l+ Array()\l+ Array()\l+ Array()\l+ Array()\l+ operator=()\l+ operator=()\land 13 more...\l}">
<polygon fill="white" stroke="black" points="502.5,-127.5 502.5,-305.5 614.5,-305.5 614.5,-127.5 502.5,-127.5"/>
<text text-anchor="start" x="510.5" y="-293.5" font-family="Helvetica,sans-Serif" font-size="10.00">tvm::Array&lt; Array&lt;</text>
<text text-anchor="middle" x="558.5" y="-282.5" font-family="Helvetica,sans-Serif" font-size="10.00"> Range &gt; &gt;</text>
<polyline fill="none" stroke="black" points="502.5,-275.5 614.5,-275.5 "/>
<text text-anchor="middle" x="558.5" y="-263.5" font-family="Helvetica,sans-Serif" font-size="10.00"> </text>
<polyline fill="none" stroke="black" points="502.5,-256.5 614.5,-256.5 "/>
<text text-anchor="start" x="510.5" y="-244.5" font-family="Helvetica,sans-Serif" font-size="10.00">+ Array()</text>
<text text-anchor="start" x="510.5" y="-233.5" font-family="Helvetica,sans-Serif" font-size="10.00">+ Array()</text>
<text text-anchor="start" x="510.5" y="-222.5" font-family="Helvetica,sans-Serif" font-size="10.00">+ Array()</text>
<text text-anchor="start" x="510.5" y="-211.5" font-family="Helvetica,sans-Serif" font-size="10.00">+ Array()</text>
<text text-anchor="start" x="510.5" y="-200.5" font-family="Helvetica,sans-Serif" font-size="10.00">+ Array()</text>
<text text-anchor="start" x="510.5" y="-189.5" font-family="Helvetica,sans-Serif" font-size="10.00">+ Array()</text>
<text text-anchor="start" x="510.5" y="-178.5" font-family="Helvetica,sans-Serif" font-size="10.00">+ Array()</text>
<text text-anchor="start" x="510.5" y="-167.5" font-family="Helvetica,sans-Serif" font-size="10.00">+ Array()</text>
<text text-anchor="start" x="510.5" y="-156.5" font-family="Helvetica,sans-Serif" font-size="10.00">+ operator=()</text>
<text text-anchor="start" x="510.5" y="-145.5" font-family="Helvetica,sans-Serif" font-size="10.00">+ operator=()</text>
<text text-anchor="start" x="510.5" y="-134.5" font-family="Helvetica,sans-Serif" font-size="10.00">and 13 more...</text>
</a>
</g>
</g>
<!-- Node4&#45;&gt;Node7 -->
<g id="edge9" class="edge"><title>Node4&#45;&gt;Node7</title>
<path fill="none" stroke="midnightblue" d="M464.063,-336.292C473.606,-326.74 483.681,-316.196 492.5,-306 495.76,-302.231 499.039,-298.314 502.298,-294.32"/>
<polygon fill="none" stroke="midnightblue" points="461.545,-333.86 456.898,-343.382 466.468,-338.836 461.545,-333.86"/>
</g>
<!-- Node8 -->
<g id="node8" class="node"><title>Node8</title>
<g id="a_node8"><a xlink:href="classtvm_1_1te_1_1TensorIntrin.html" target="_top" xlink:title="Tensor intrinsic node. ">
<polygon fill="white" stroke="black" points="632.5,-177 632.5,-256 744.5,-256 744.5,-177 632.5,-177"/>
<text text-anchor="middle" x="688.5" y="-244" font-family="Helvetica,sans-Serif" font-size="10.00">tvm::te::TensorIntrin</text>
<polyline fill="none" stroke="black" points="632.5,-237 744.5,-237 "/>
<text text-anchor="middle" x="688.5" y="-225" font-family="Helvetica,sans-Serif" font-size="10.00"> </text>
<polyline fill="none" stroke="black" points="632.5,-218 744.5,-218 "/>
<text text-anchor="start" x="640.5" y="-206" font-family="Helvetica,sans-Serif" font-size="10.00">+ TensorIntrin()</text>
<text text-anchor="start" x="640.5" y="-195" font-family="Helvetica,sans-Serif" font-size="10.00">+ TensorIntrin()</text>
<text text-anchor="start" x="640.5" y="-184" font-family="Helvetica,sans-Serif" font-size="10.00">+ operator&#45;&gt;()</text>
</a>
</g>
</g>
<!-- Node4&#45;&gt;Node8 -->
<g id="edge11" class="edge"><title>Node4&#45;&gt;Node8</title>
<path fill="none" stroke="midnightblue" d="M468.631,-364.913C510.787,-357.045 576.625,-340.088 623.5,-306 641.384,-292.994 656.407,-273.604 667.489,-256.285"/>
<polygon fill="none" stroke="midnightblue" points="467.942,-361.48 458.71,-366.678 469.169,-368.372 467.942,-361.48"/>
</g>
<!-- Node5&#45;&gt;Node1 -->
<g id="edge4" class="edge"><title>Node5&#45;&gt;Node1</title>
<path fill="none" stroke="#404040" d="M301.756,-132.814C306.319,-120.979 311.28,-109.071 316.5,-98 317.702,-95.4498 318.985,-92.8663 320.323,-90.2793"/>
<polygon fill="none" stroke="#404040" points="320.339,-90.2488 319.683,-83.0676 326.06,-79.6999 326.716,-86.8811 320.339,-90.2488"/>
<text text-anchor="middle" x="354" y="-101" font-family="Helvetica,sans-Serif" font-size="10.00"> +scalar_inputs</text>
</g>
<!-- Node6&#45;&gt;Node1 -->
<g id="edge6" class="edge"><title>Node6&#45;&gt;Node1</title>
<path fill="none" stroke="#404040" d="M403.949,-127.325C400.246,-117.245 396.098,-107.27 391.5,-98 390.22,-95.42 388.828,-92.8308 387.354,-90.256"/>
<polygon fill="none" stroke="#404040" points="387.214,-90.029 380.661,-87.0194 380.919,-79.8129 387.472,-82.8225 387.214,-90.029"/>
<text text-anchor="middle" x="420.5" y="-101" font-family="Helvetica,sans-Serif" font-size="10.00"> +tensors</text>
</g>
<!-- Node7&#45;&gt;Node1 -->
<g id="edge8" class="edge"><title>Node7&#45;&gt;Node1</title>
<path fill="none" stroke="#404040" d="M502.375,-136.966C499.144,-133.5 495.846,-130.157 492.5,-127 476.33,-111.742 457.012,-97.8715 437.912,-85.9368"/>
<polygon fill="none" stroke="#404040" points="437.904,-85.9323 430.699,-86.2294 427.654,-79.6928 434.859,-79.3958 437.904,-85.9323"/>
<text text-anchor="middle" x="492" y="-101" font-family="Helvetica,sans-Serif" font-size="10.00"> +regions</text>
</g>
<!-- Node8&#45;&gt;Node1 -->
<g id="edge10" class="edge"><title>Node8&#45;&gt;Node1</title>
<path fill="none" stroke="#404040" d="M667.577,-176.594C656.514,-159.249 641.482,-139.871 623.5,-127 576.922,-93.6601 516.94,-72.9081 465.068,-60.1676"/>
<polygon fill="none" stroke="#404040" points="464.781,-60.0997 458.02,-62.6092 453.104,-57.334 459.864,-54.8245 464.781,-60.0997"/>
<text text-anchor="middle" x="609.5" y="-101" font-family="Helvetica,sans-Serif" font-size="10.00"> +intrin</text>
</g>
</g>
</svg>
