<?xml version="1.0" encoding="UTF-8" standalone="no"?>
<!DOCTYPE svg PUBLIC "-//W3C//DTD SVG 1.1//EN"
 "http://www.w3.org/Graphics/SVG/1.1/DTD/svg11.dtd">
<!-- Generated by graphviz version 2.38.0 (20140413.2041)
 -->
<!-- Title: tvm::relay::RefReadNode Pages: 1 -->
<svg width="716pt" height="470pt"
 viewBox="0.00 0.00 716.00 470.00" xmlns="http://www.w3.org/2000/svg" xmlns:xlink="http://www.w3.org/1999/xlink">
<g id="graph0" class="graph" transform="scale(1 1) rotate(0) translate(4 466)">
<title>tvm::relay::RefReadNode</title>
<polygon fill="white" stroke="none" points="-4,4 -4,-466 712,-466 712,4 -4,4"/>
<!-- Node1 -->
<g id="node1" class="node"><title>Node1</title>
<polygon fill="#bfbfbf" stroke="black" points="277.5,-0.5 277.5,-90.5 482.5,-90.5 482.5,-0.5 277.5,-0.5"/>
<text text-anchor="middle" x="380" y="-78.5" font-family="Helvetica,sans-Serif" font-size="10.00">tvm::relay::RefReadNode</text>
<polyline fill="none" stroke="black" points="277.5,-71.5 482.5,-71.5 "/>
<text text-anchor="start" x="285.5" y="-59.5" font-family="Helvetica,sans-Serif" font-size="10.00">+ _type_key</text>
<polyline fill="none" stroke="black" points="277.5,-52.5 482.5,-52.5 "/>
<text text-anchor="start" x="285.5" y="-40.5" font-family="Helvetica,sans-Serif" font-size="10.00">+ VisitAttrs()</text>
<text text-anchor="start" x="285.5" y="-29.5" font-family="Helvetica,sans-Serif" font-size="10.00">+ SEqualReduce()</text>
<text text-anchor="start" x="285.5" y="-18.5" font-family="Helvetica,sans-Serif" font-size="10.00">+ SHashReduce()</text>
<text text-anchor="start" x="285.5" y="-7.5" font-family="Helvetica,sans-Serif" font-size="10.00">+ TVM_DECLARE_FINAL_OBJECT_INFO()</text>
</g>
<!-- Node2 -->
<g id="node2" class="node"><title>Node2</title>
<g id="a_node2"><a xlink:href="classtvm_1_1RelayExprNode.html" target="_top" xlink:title="Base node of all non&#45;primitive expressions. ">
<polygon fill="white" stroke="black" points="222,-138.5 222,-217.5 426,-217.5 426,-138.5 222,-138.5"/>
<text text-anchor="middle" x="324" y="-205.5" font-family="Helvetica,sans-Serif" font-size="10.00">ExprNode</text>
<polyline fill="none" stroke="black" points="222,-198.5 426,-198.5 "/>
<text text-anchor="start" x="230" y="-186.5" font-family="Helvetica,sans-Serif" font-size="10.00">+ _type_key</text>
<polyline fill="none" stroke="black" points="222,-179.5 426,-179.5 "/>
<text text-anchor="start" x="230" y="-167.5" font-family="Helvetica,sans-Serif" font-size="10.00">+ checked_type()</text>
<text text-anchor="start" x="230" y="-156.5" font-family="Helvetica,sans-Serif" font-size="10.00">+ type_as()</text>
<text text-anchor="start" x="230" y="-145.5" font-family="Helvetica,sans-Serif" font-size="10.00">+ TVM_DECLARE_BASE_OBJECT_INFO()</text>
</a>
</g>
</g>
<!-- Node2&#45;&gt;Node1 -->
<g id="edge1" class="edge"><title>Node2&#45;&gt;Node1</title>
<path fill="none" stroke="midnightblue" d="M344.643,-128.893C349.982,-116.454 355.704,-103.119 360.956,-90.8791"/>
<polygon fill="none" stroke="midnightblue" points="341.377,-127.629 340.65,-138.199 347.81,-130.39 341.377,-127.629"/>
</g>
<!-- Node3 -->
<g id="node3" class="node"><title>Node3</title>
<g id="a_node3"><a xlink:href="classtvm_1_1BaseExprNode.html" target="_top" xlink:title="Base type of all the expressions. ">
<polygon fill="white" stroke="black" points="0,-265.5 0,-366.5 204,-366.5 204,-265.5 0,-265.5"/>
<text text-anchor="middle" x="102" y="-354.5" font-family="Helvetica,sans-Serif" font-size="10.00">tvm::BaseExprNode</text>
<polyline fill="none" stroke="black" points="0,-347.5 204,-347.5 "/>
<text text-anchor="start" x="8" y="-335.5" font-family="Helvetica,sans-Serif" font-size="10.00">+ _type_key</text>
<text text-anchor="start" x="8" y="-324.5" font-family="Helvetica,sans-Serif" font-size="10.00">+ _type_has_method_sequal</text>
<text text-anchor="start" x="8" y="-313.5" font-family="Helvetica,sans-Serif" font-size="10.00">_reduce</text>
<text text-anchor="start" x="8" y="-302.5" font-family="Helvetica,sans-Serif" font-size="10.00">+ _type_has_method_shash</text>
<text text-anchor="start" x="8" y="-291.5" font-family="Helvetica,sans-Serif" font-size="10.00">_reduce</text>
<polyline fill="none" stroke="black" points="0,-284.5 204,-284.5 "/>
<text text-anchor="start" x="8" y="-272.5" font-family="Helvetica,sans-Serif" font-size="10.00">+ TVM_DECLARE_BASE_OBJECT_INFO()</text>
</a>
</g>
</g>
<!-- Node3&#45;&gt;Node2 -->
<g id="edge2" class="edge"><title>Node3&#45;&gt;Node2</title>
<path fill="none" stroke="midnightblue" d="M191.883,-259.937C215.011,-245.768 239.409,-230.821 260.859,-217.681"/>
<polygon fill="none" stroke="midnightblue" points="189.788,-257.115 183.089,-265.324 193.445,-263.084 189.788,-257.115"/>
</g>
<!-- Node4 -->
<g id="node4" class="node"><title>Node4</title>
<polygon fill="white" stroke="#bfbfbf" points="78.5,-404.5 78.5,-461.5 125.5,-461.5 125.5,-404.5 78.5,-404.5"/>
<text text-anchor="middle" x="102" y="-449.5" font-family="Helvetica,sans-Serif" font-size="10.00">Object</text>
<polyline fill="none" stroke="#bfbfbf" points="78.5,-442.5 125.5,-442.5 "/>
<text text-anchor="middle" x="102" y="-430.5" font-family="Helvetica,sans-Serif" font-size="10.00"> </text>
<polyline fill="none" stroke="#bfbfbf" points="78.5,-423.5 125.5,-423.5 "/>
<text text-anchor="middle" x="102" y="-411.5" font-family="Helvetica,sans-Serif" font-size="10.00"> </text>
</g>
<!-- Node4&#45;&gt;Node3 -->
<g id="edge3" class="edge"><title>Node4&#45;&gt;Node3</title>
<path fill="none" stroke="midnightblue" d="M102,-394.187C102,-385.435 102,-375.99 102,-366.812"/>
<polygon fill="none" stroke="midnightblue" points="98.5001,-394.455 102,-404.455 105.5,-394.455 98.5001,-394.455"/>
</g>
<!-- Node5 -->
<g id="node5" class="node"><title>Node5</title>
<g id="a_node5"><a xlink:href="classtvm_1_1Span.html" target="_top" xlink:title="{tvm::Span\n||+ TVM_DEFINE_OBJECT_REF\l_METHODS()\l}">
<polygon fill="white" stroke="black" points="222,-282 222,-350 372,-350 372,-282 222,-282"/>
<text text-anchor="middle" x="297" y="-338" font-family="Helvetica,sans-Serif" font-size="10.00">tvm::Span</text>
<polyline fill="none" stroke="black" points="222,-331 372,-331 "/>
<text text-anchor="middle" x="297" y="-319" font-family="Helvetica,sans-Serif" font-size="10.00"> </text>
<polyline fill="none" stroke="black" points="222,-312 372,-312 "/>
<text text-anchor="start" x="230" y="-300" font-family="Helvetica,sans-Serif" font-size="10.00">+ TVM_DEFINE_OBJECT_REF</text>
<text text-anchor="start" x="230" y="-289" font-family="Helvetica,sans-Serif" font-size="10.00">_METHODS()</text>
</a>
</g>
</g>
<!-- Node5&#45;&gt;Node2 -->
<g id="edge4" class="edge"><title>Node5&#45;&gt;Node2</title>
<path fill="none" stroke="#404040" d="M303.605,-281.731C306.71,-266.088 310.481,-247.095 313.932,-229.715"/>
<polygon fill="none" stroke="#404040" points="313.978,-229.479 311.223,-222.815 316.315,-217.709 319.07,-224.373 313.978,-229.479"/>
<text text-anchor="middle" x="330.5" y="-239" font-family="Helvetica,sans-Serif" font-size="10.00"> +span</text>
</g>
<!-- Node6 -->
<g id="node6" class="node"><title>Node6</title>
<polygon fill="white" stroke="#bfbfbf" points="434,-404.5 434,-461.5 496,-461.5 496,-404.5 434,-404.5"/>
<text text-anchor="middle" x="465" y="-449.5" font-family="Helvetica,sans-Serif" font-size="10.00">ObjectRef</text>
<polyline fill="none" stroke="#bfbfbf" points="434,-442.5 496,-442.5 "/>
<text text-anchor="middle" x="465" y="-430.5" font-family="Helvetica,sans-Serif" font-size="10.00"> </text>
<polyline fill="none" stroke="#bfbfbf" points="434,-423.5 496,-423.5 "/>
<text text-anchor="middle" x="465" y="-411.5" font-family="Helvetica,sans-Serif" font-size="10.00"> </text>
</g>
<!-- Node6&#45;&gt;Node5 -->
<g id="edge5" class="edge"><title>Node6&#45;&gt;Node5</title>
<path fill="none" stroke="midnightblue" d="M425.287,-404.815C401.305,-388.399 370.58,-367.367 345.211,-350.001"/>
<polygon fill="none" stroke="midnightblue" points="423.565,-407.878 433.794,-410.639 427.519,-402.102 423.565,-407.878"/>
</g>
<!-- Node7 -->
<g id="node7" class="node"><title>Node7</title>
<g id="a_node7"><a xlink:href="classtvm_1_1Type.html" target="_top" xlink:title="Managed reference to TypeNode. ">
<polygon fill="white" stroke="black" points="390,-282 390,-350 540,-350 540,-282 390,-282"/>
<text text-anchor="middle" x="465" y="-338" font-family="Helvetica,sans-Serif" font-size="10.00">tvm::Type</text>
<polyline fill="none" stroke="black" points="390,-331 540,-331 "/>
<text text-anchor="middle" x="465" y="-319" font-family="Helvetica,sans-Serif" font-size="10.00"> </text>
<polyline fill="none" stroke="black" points="390,-312 540,-312 "/>
<text text-anchor="start" x="398" y="-300" font-family="Helvetica,sans-Serif" font-size="10.00">+ TVM_DEFINE_OBJECT_REF</text>
<text text-anchor="start" x="398" y="-289" font-family="Helvetica,sans-Serif" font-size="10.00">_METHODS()</text>
</a>
</g>
</g>
<!-- Node6&#45;&gt;Node7 -->
<g id="edge7" class="edge"><title>Node6&#45;&gt;Node7</title>
<path fill="none" stroke="midnightblue" d="M465,-394.424C465,-380.11 465,-363.916 465,-350.052"/>
<polygon fill="none" stroke="midnightblue" points="461.5,-394.455 465,-404.455 468.5,-394.455 461.5,-394.455"/>
</g>
<!-- Node9 -->
<g id="node9" class="node"><title>Node9</title>
<g id="a_node9"><a xlink:href="classtvm_1_1BaseExpr.html" target="_top" xlink:title="Managed reference to BaseExprNode. ">
<polygon fill="white" stroke="black" points="558,-282 558,-350 708,-350 708,-282 558,-282"/>
<text text-anchor="middle" x="633" y="-338" font-family="Helvetica,sans-Serif" font-size="10.00">tvm::BaseExpr</text>
<polyline fill="none" stroke="black" points="558,-331 708,-331 "/>
<text text-anchor="middle" x="633" y="-319" font-family="Helvetica,sans-Serif" font-size="10.00"> </text>
<polyline fill="none" stroke="black" points="558,-312 708,-312 "/>
<text text-anchor="start" x="566" y="-300" font-family="Helvetica,sans-Serif" font-size="10.00">+ TVM_DEFINE_OBJECT_REF</text>
<text text-anchor="start" x="566" y="-289" font-family="Helvetica,sans-Serif" font-size="10.00">_METHODS()</text>
</a>
</g>
</g>
<!-- Node6&#45;&gt;Node9 -->
<g id="edge10" class="edge"><title>Node6&#45;&gt;Node9</title>
<path fill="none" stroke="midnightblue" d="M504.713,-404.815C528.695,-388.399 559.42,-367.367 584.789,-350.001"/>
<polygon fill="none" stroke="midnightblue" points="502.481,-402.102 496.206,-410.639 506.435,-407.878 502.481,-402.102"/>
</g>
<!-- Node7&#45;&gt;Node2 -->
<g id="edge6" class="edge"><title>Node7&#45;&gt;Node2</title>
<path fill="none" stroke="#404040" d="M430.508,-281.731C413.193,-265.031 391.919,-244.51 372.947,-226.212"/>
<polygon fill="none" stroke="#404040" points="372.769,-226.04 365.674,-224.754 364.132,-217.709 371.228,-218.996 372.769,-226.04"/>
<text text-anchor="middle" x="436.5" y="-239" font-family="Helvetica,sans-Serif" font-size="10.00"> +checked_type_</text>
</g>
<!-- Node8 -->
<g id="node8" class="node"><title>Node8</title>
<g id="a_node8"><a xlink:href="classtvm_1_1RelayExpr.html" target="_top" xlink:title="Managed reference to RelayExprNode. ">
<polygon fill="white" stroke="black" points="479,-144 479,-212 629,-212 629,-144 479,-144"/>
<text text-anchor="middle" x="554" y="-200" font-family="Helvetica,sans-Serif" font-size="10.00">tvm::RelayExpr</text>
<polyline fill="none" stroke="black" points="479,-193 629,-193 "/>
<text text-anchor="middle" x="554" y="-181" font-family="Helvetica,sans-Serif" font-size="10.00"> </text>
<polyline fill="none" stroke="black" points="479,-174 629,-174 "/>
<text text-anchor="start" x="487" y="-162" font-family="Helvetica,sans-Serif" font-size="10.00">+ TVM_DEFINE_OBJECT_REF</text>
<text text-anchor="start" x="487" y="-151" font-family="Helvetica,sans-Serif" font-size="10.00">_METHODS()</text>
</a>
</g>
</g>
<!-- Node8&#45;&gt;Node1 -->
<g id="edge8" class="edge"><title>Node8&#45;&gt;Node1</title>
<path fill="none" stroke="#404040" d="M509.642,-143.732C491.041,-129.781 468.985,-113.239 448.388,-97.7913"/>
<polygon fill="none" stroke="#404040" points="448.332,-97.7492 441.132,-97.3492 438.732,-90.5491 445.932,-90.9492 448.332,-97.7492"/>
<text text-anchor="middle" x="490.5" y="-112" font-family="Helvetica,sans-Serif" font-size="10.00"> +ref</text>
</g>
<!-- Node9&#45;&gt;Node8 -->
<g id="edge9" class="edge"><title>Node9&#45;&gt;Node8</title>
<path fill="none" stroke="midnightblue" d="M608.626,-273.04C597.304,-253.548 584.028,-230.694 573.4,-212.397"/>
<polygon fill="none" stroke="midnightblue" points="605.625,-274.842 613.674,-281.731 611.678,-271.326 605.625,-274.842"/>
</g>
</g>
</svg>
