<?xml version="1.0" encoding="UTF-8" standalone="no"?>
<!DOCTYPE svg PUBLIC "-//W3C//DTD SVG 1.1//EN"
 "http://www.w3.org/Graphics/SVG/1.1/DTD/svg11.dtd">
<!-- Generated by graphviz version 2.38.0 (20140413.2041)
 -->
<!-- Title: tvm::runtime::vm::Closure Pages: 1 -->
<svg width="340pt" height="441pt"
 viewBox="0.00 0.00 340.00 441.00" xmlns="http://www.w3.org/2000/svg" xmlns:xlink="http://www.w3.org/1999/xlink">
<g id="graph0" class="graph" transform="scale(1 1) rotate(0) translate(4 437)">
<title>tvm::runtime::vm::Closure</title>
<polygon fill="white" stroke="none" points="-4,4 -4,-437 336,-437 336,4 -4,4"/>
<!-- Node1 -->
<g id="node1" class="node"><title>Node1</title>
<polygon fill="#bfbfbf" stroke="black" points="90.5,-116.5 90.5,-184.5 240.5,-184.5 240.5,-116.5 90.5,-116.5"/>
<text text-anchor="middle" x="165.5" y="-172.5" font-family="Helvetica,sans-Serif" font-size="10.00">tvm::runtime::vm::Closure</text>
<polyline fill="none" stroke="black" points="90.5,-165.5 240.5,-165.5 "/>
<text text-anchor="middle" x="165.5" y="-153.5" font-family="Helvetica,sans-Serif" font-size="10.00"> </text>
<polyline fill="none" stroke="black" points="90.5,-146.5 240.5,-146.5 "/>
<text text-anchor="start" x="98.5" y="-134.5" font-family="Helvetica,sans-Serif" font-size="10.00">+ TVM_DEFINE_OBJECT_REF</text>
<text text-anchor="start" x="98.5" y="-123.5" font-family="Helvetica,sans-Serif" font-size="10.00">_METHODS()</text>
</g>
<!-- Node3 -->
<g id="node3" class="node"><title>Node3</title>
<g id="a_node3"><a xlink:href="classtvm_1_1relay_1_1InterpreterClosure.html" target="_top" xlink:title="{tvm::relay::InterpreterClosure\n||+ InterpreterClosure()\l+ TVM_DEFINE_OBJECT_REF\l_METHODS()\l}">
<polygon fill="white" stroke="black" points="0,-0.5 0,-79.5 157,-79.5 157,-0.5 0,-0.5"/>
<text text-anchor="middle" x="78.5" y="-67.5" font-family="Helvetica,sans-Serif" font-size="10.00">tvm::relay::InterpreterClosure</text>
<polyline fill="none" stroke="black" points="0,-60.5 157,-60.5 "/>
<text text-anchor="middle" x="78.5" y="-48.5" font-family="Helvetica,sans-Serif" font-size="10.00"> </text>
<polyline fill="none" stroke="black" points="0,-41.5 157,-41.5 "/>
<text text-anchor="start" x="8" y="-29.5" font-family="Helvetica,sans-Serif" font-size="10.00">+ InterpreterClosure()</text>
<text text-anchor="start" x="8" y="-18.5" font-family="Helvetica,sans-Serif" font-size="10.00">+ TVM_DEFINE_OBJECT_REF</text>
<text text-anchor="start" x="8" y="-7.5" font-family="Helvetica,sans-Serif" font-size="10.00">_METHODS()</text>
</a>
</g>
</g>
<!-- Node1&#45;&gt;Node3 -->
<g id="edge2" class="edge"><title>Node1&#45;&gt;Node3</title>
<path fill="none" stroke="midnightblue" d="M132.443,-108.274C124.911,-98.8799 116.934,-88.9316 109.491,-79.6493"/>
<polygon fill="none" stroke="midnightblue" points="129.938,-110.745 138.924,-116.357 135.399,-106.366 129.938,-110.745"/>
</g>
<!-- Node4 -->
<g id="node4" class="node"><title>Node4</title>
<g id="a_node4"><a xlink:href="classtvm_1_1runtime_1_1vm_1_1VMClosure.html" target="_top" xlink:title="reference to closure. ">
<polygon fill="white" stroke="black" points="175,-0.5 175,-79.5 332,-79.5 332,-0.5 175,-0.5"/>
<text text-anchor="middle" x="253.5" y="-67.5" font-family="Helvetica,sans-Serif" font-size="10.00">tvm::runtime::vm::VMClosure</text>
<polyline fill="none" stroke="black" points="175,-60.5 332,-60.5 "/>
<text text-anchor="middle" x="253.5" y="-48.5" font-family="Helvetica,sans-Serif" font-size="10.00"> </text>
<polyline fill="none" stroke="black" points="175,-41.5 332,-41.5 "/>
<text text-anchor="start" x="183" y="-29.5" font-family="Helvetica,sans-Serif" font-size="10.00">+ VMClosure()</text>
<text text-anchor="start" x="183" y="-18.5" font-family="Helvetica,sans-Serif" font-size="10.00">+ TVM_DEFINE_OBJECT_REF</text>
<text text-anchor="start" x="183" y="-7.5" font-family="Helvetica,sans-Serif" font-size="10.00">_METHODS()</text>
</a>
</g>
</g>
<!-- Node1&#45;&gt;Node4 -->
<g id="edge3" class="edge"><title>Node1&#45;&gt;Node4</title>
<path fill="none" stroke="midnightblue" d="M198.706,-108.559C206.393,-99.081 214.549,-89.0254 222.153,-79.6493"/>
<polygon fill="none" stroke="midnightblue" points="195.962,-106.386 192.381,-116.357 201.399,-110.795 195.962,-106.386"/>
</g>
<!-- Node2 -->
<g id="node2" class="node"><title>Node2</title>
<g id="a_node2"><a xlink:href="classtvm_1_1runtime_1_1ObjectRef.html" target="_top" xlink:title="Base class of all object reference. ">
<polygon fill="white" stroke="black" points="100.5,-221.5 100.5,-432.5 230.5,-432.5 230.5,-221.5 100.5,-221.5"/>
<text text-anchor="middle" x="165.5" y="-420.5" font-family="Helvetica,sans-Serif" font-size="10.00">tvm::runtime::ObjectRef</text>
<polyline fill="none" stroke="black" points="100.5,-413.5 230.5,-413.5 "/>
<text text-anchor="start" x="108.5" y="-401.5" font-family="Helvetica,sans-Serif" font-size="10.00"># data_</text>
<polyline fill="none" stroke="black" points="100.5,-394.5 230.5,-394.5 "/>
<text text-anchor="start" x="108.5" y="-382.5" font-family="Helvetica,sans-Serif" font-size="10.00">+ ObjectRef()</text>
<text text-anchor="start" x="108.5" y="-371.5" font-family="Helvetica,sans-Serif" font-size="10.00">+ ObjectRef()</text>
<text text-anchor="start" x="108.5" y="-360.5" font-family="Helvetica,sans-Serif" font-size="10.00">+ same_as()</text>
<text text-anchor="start" x="108.5" y="-349.5" font-family="Helvetica,sans-Serif" font-size="10.00">+ operator==()</text>
<text text-anchor="start" x="108.5" y="-338.5" font-family="Helvetica,sans-Serif" font-size="10.00">+ operator!=()</text>
<text text-anchor="start" x="108.5" y="-327.5" font-family="Helvetica,sans-Serif" font-size="10.00">+ operator&lt;()</text>
<text text-anchor="start" x="108.5" y="-316.5" font-family="Helvetica,sans-Serif" font-size="10.00">+ defined()</text>
<text text-anchor="start" x="108.5" y="-305.5" font-family="Helvetica,sans-Serif" font-size="10.00">+ get()</text>
<text text-anchor="start" x="108.5" y="-294.5" font-family="Helvetica,sans-Serif" font-size="10.00">+ operator&#45;&gt;()</text>
<text text-anchor="start" x="108.5" y="-283.5" font-family="Helvetica,sans-Serif" font-size="10.00">+ unique()</text>
<text text-anchor="start" x="108.5" y="-272.5" font-family="Helvetica,sans-Serif" font-size="10.00">+ as()</text>
<text text-anchor="start" x="108.5" y="-261.5" font-family="Helvetica,sans-Serif" font-size="10.00"># get_mutable()</text>
<text text-anchor="start" x="108.5" y="-250.5" font-family="Helvetica,sans-Serif" font-size="10.00"># DowncastNoCheck()</text>
<text text-anchor="start" x="108.5" y="-239.5" font-family="Helvetica,sans-Serif" font-size="10.00"># FFIClearAfterMove()</text>
<text text-anchor="start" x="108.5" y="-228.5" font-family="Helvetica,sans-Serif" font-size="10.00"># GetDataPtr()</text>
</a>
</g>
</g>
<!-- Node2&#45;&gt;Node1 -->
<g id="edge1" class="edge"><title>Node2&#45;&gt;Node1</title>
<path fill="none" stroke="midnightblue" d="M165.5,-211.385C165.5,-201.854 165.5,-192.807 165.5,-184.768"/>
<polygon fill="none" stroke="midnightblue" points="162,-211.47 165.5,-221.47 169,-211.47 162,-211.47"/>
</g>
</g>
</svg>
