<?xml version="1.0" encoding="UTF-8" standalone="no"?>
<!DOCTYPE svg PUBLIC "-//W3C//DTD SVG 1.1//EN"
 "http://www.w3.org/Graphics/SVG/1.1/DTD/svg11.dtd">
<!-- Generated by graphviz version 2.38.0 (20140413.2041)
 -->
<!-- Title: tvm::arith::Analyzer Pages: 1 -->
<svg width="833pt" height="281pt"
 viewBox="0.00 0.00 832.50 281.00" xmlns="http://www.w3.org/2000/svg" xmlns:xlink="http://www.w3.org/1999/xlink">
<g id="graph0" class="graph" transform="scale(1 1) rotate(0) translate(4 277)">
<title>tvm::arith::Analyzer</title>
<polygon fill="white" stroke="none" points="-4,4 -4,-277 828.5,-277 828.5,4 -4,4"/>
<!-- Node1 -->
<g id="node1" class="node"><title>Node1</title>
<polygon fill="#bfbfbf" stroke="black" points="342,-0.5 342,-134.5 486,-134.5 486,-0.5 342,-0.5"/>
<text text-anchor="middle" x="414" y="-122.5" font-family="Helvetica,sans-Serif" font-size="10.00">tvm::arith::Analyzer</text>
<polyline fill="none" stroke="black" points="342,-115.5 486,-115.5 "/>
<text text-anchor="middle" x="414" y="-103.5" font-family="Helvetica,sans-Serif" font-size="10.00"> </text>
<polyline fill="none" stroke="black" points="342,-96.5 486,-96.5 "/>
<text text-anchor="start" x="350" y="-84.5" font-family="Helvetica,sans-Serif" font-size="10.00">+ Analyzer()</text>
<text text-anchor="start" x="350" y="-73.5" font-family="Helvetica,sans-Serif" font-size="10.00">+ operator=()</text>
<text text-anchor="start" x="350" y="-62.5" font-family="Helvetica,sans-Serif" font-size="10.00">+ Analyzer()</text>
<text text-anchor="start" x="350" y="-51.5" font-family="Helvetica,sans-Serif" font-size="10.00">+ Bind()</text>
<text text-anchor="start" x="350" y="-40.5" font-family="Helvetica,sans-Serif" font-size="10.00">+ Bind()</text>
<text text-anchor="start" x="350" y="-29.5" font-family="Helvetica,sans-Serif" font-size="10.00">+ CanProveGreaterEqual()</text>
<text text-anchor="start" x="350" y="-18.5" font-family="Helvetica,sans-Serif" font-size="10.00">+ CanProve()</text>
<text text-anchor="start" x="350" y="-7.5" font-family="Helvetica,sans-Serif" font-size="10.00">+ Simplify()</text>
</g>
<!-- Node2 -->
<g id="node2" class="node"><title>Node2</title>
<g id="a_node2"><a xlink:href="classtvm_1_1arith_1_1CanonicalSimplifier.html" target="_top" xlink:title="Canonical&#45;form based simplifier. ">
<polygon fill="white" stroke="black" points="0,-193.5 0,-261.5 160,-261.5 160,-193.5 0,-193.5"/>
<text text-anchor="middle" x="80" y="-249.5" font-family="Helvetica,sans-Serif" font-size="10.00">tvm::arith::CanonicalSimplifier</text>
<polyline fill="none" stroke="black" points="0,-242.5 160,-242.5 "/>
<text text-anchor="middle" x="80" y="-230.5" font-family="Helvetica,sans-Serif" font-size="10.00"> </text>
<polyline fill="none" stroke="black" points="0,-223.5 160,-223.5 "/>
<text text-anchor="start" x="8" y="-211.5" font-family="Helvetica,sans-Serif" font-size="10.00">+ operator()()</text>
<text text-anchor="start" x="8" y="-200.5" font-family="Helvetica,sans-Serif" font-size="10.00">+ Update()</text>
</a>
</g>
</g>
<!-- Node2&#45;&gt;Node1 -->
<g id="edge1" class="edge"><title>Node2&#45;&gt;Node1</title>
<path fill="none" stroke="#404040" d="M136.578,-193.486C159.941,-180.314 187.481,-165.372 213,-153 250.805,-134.672 293.61,-116.353 329.974,-101.481"/>
<polygon fill="none" stroke="#404040" points="330.424,-101.298 334.475,-95.3323 341.54,-96.7773 337.488,-102.743 330.424,-101.298"/>
<text text-anchor="middle" x="262" y="-156" font-family="Helvetica,sans-Serif" font-size="10.00"> +canonical_simplify</text>
</g>
<!-- Node3 -->
<g id="node3" class="node"><title>Node3</title>
<g id="a_node3"><a xlink:href="classtvm_1_1arith_1_1RewriteSimplifier.html" target="_top" xlink:title="Rewrite&#45;rule based simplifier. ">
<polygon fill="white" stroke="black" points="178.5,-188 178.5,-267 325.5,-267 325.5,-188 178.5,-188"/>
<text text-anchor="middle" x="252" y="-255" font-family="Helvetica,sans-Serif" font-size="10.00">tvm::arith::RewriteSimplifier</text>
<polyline fill="none" stroke="black" points="178.5,-248 325.5,-248 "/>
<text text-anchor="middle" x="252" y="-236" font-family="Helvetica,sans-Serif" font-size="10.00"> </text>
<polyline fill="none" stroke="black" points="178.5,-229 325.5,-229 "/>
<text text-anchor="start" x="186.5" y="-217" font-family="Helvetica,sans-Serif" font-size="10.00">+ operator()()</text>
<text text-anchor="start" x="186.5" y="-206" font-family="Helvetica,sans-Serif" font-size="10.00">+ Update()</text>
<text text-anchor="start" x="186.5" y="-195" font-family="Helvetica,sans-Serif" font-size="10.00">+ EnterConstraint()</text>
</a>
</g>
</g>
<!-- Node3&#45;&gt;Node1 -->
<g id="edge2" class="edge"><title>Node3&#45;&gt;Node1</title>
<path fill="none" stroke="#404040" d="M290.054,-187.76C301.245,-176.483 313.555,-164.19 325,-153 328.333,-149.742 331.745,-146.423 335.201,-143.079"/>
<polygon fill="none" stroke="#404040" points="335.218,-143.062 336.759,-136.018 343.854,-134.731 342.313,-141.775 335.218,-143.062"/>
<text text-anchor="middle" x="367.5" y="-156" font-family="Helvetica,sans-Serif" font-size="10.00"> +rewrite_simplify</text>
</g>
<!-- Node4 -->
<g id="node4" class="node"><title>Node4</title>
<g id="a_node4"><a xlink:href="classtvm_1_1arith_1_1ConstIntBoundAnalyzer.html" target="_top" xlink:title="Analyzer to get constant integer bound over expression. ">
<polygon fill="white" stroke="black" points="344,-182.5 344,-272.5 484,-272.5 484,-182.5 344,-182.5"/>
<text text-anchor="start" x="352" y="-260.5" font-family="Helvetica,sans-Serif" font-size="10.00">tvm::arith::ConstIntBound</text>
<text text-anchor="middle" x="414" y="-249.5" font-family="Helvetica,sans-Serif" font-size="10.00">Analyzer</text>
<polyline fill="none" stroke="black" points="344,-242.5 484,-242.5 "/>
<text text-anchor="middle" x="414" y="-230.5" font-family="Helvetica,sans-Serif" font-size="10.00"> </text>
<polyline fill="none" stroke="black" points="344,-223.5 484,-223.5 "/>
<text text-anchor="start" x="352" y="-211.5" font-family="Helvetica,sans-Serif" font-size="10.00">+ operator()()</text>
<text text-anchor="start" x="352" y="-200.5" font-family="Helvetica,sans-Serif" font-size="10.00">+ Update()</text>
<text text-anchor="start" x="352" y="-189.5" font-family="Helvetica,sans-Serif" font-size="10.00">+ Bind()</text>
</a>
</g>
</g>
<!-- Node4&#45;&gt;Node1 -->
<g id="edge3" class="edge"><title>Node4&#45;&gt;Node1</title>
<path fill="none" stroke="#404040" d="M414,-182.488C414,-171.394 414,-159.146 414,-146.917"/>
<polygon fill="none" stroke="#404040" points="414,-146.737 410,-140.737 414,-134.737 418,-140.737 414,-146.737"/>
<text text-anchor="middle" x="459.5" y="-156" font-family="Helvetica,sans-Serif" font-size="10.00"> +const_int_bound</text>
</g>
<!-- Node5 -->
<g id="node5" class="node"><title>Node5</title>
<g id="a_node5"><a xlink:href="classtvm_1_1arith_1_1IntSetAnalyzer.html" target="_top" xlink:title="Integer set analyzer. ">
<polygon fill="white" stroke="black" points="502.5,-199 502.5,-256 641.5,-256 641.5,-199 502.5,-199"/>
<text text-anchor="middle" x="572" y="-244" font-family="Helvetica,sans-Serif" font-size="10.00">tvm::arith::IntSetAnalyzer</text>
<polyline fill="none" stroke="black" points="502.5,-237 641.5,-237 "/>
<text text-anchor="middle" x="572" y="-225" font-family="Helvetica,sans-Serif" font-size="10.00"> </text>
<polyline fill="none" stroke="black" points="502.5,-218 641.5,-218 "/>
<text text-anchor="start" x="510.5" y="-206" font-family="Helvetica,sans-Serif" font-size="10.00">+ operator()()</text>
</a>
</g>
</g>
<!-- Node5&#45;&gt;Node1 -->
<g id="edge4" class="edge"><title>Node5&#45;&gt;Node1</title>
<path fill="none" stroke="#404040" d="M549.805,-198.844C538.101,-184.725 523.247,-167.511 509,-153 504.457,-148.373 499.706,-143.696 494.855,-139.04"/>
<polygon fill="none" stroke="#404040" points="494.754,-138.945 487.646,-137.728 486.036,-130.699 493.144,-131.916 494.754,-138.945"/>
<text text-anchor="middle" x="541" y="-156" font-family="Helvetica,sans-Serif" font-size="10.00"> +int_set</text>
</g>
<!-- Node6 -->
<g id="node6" class="node"><title>Node6</title>
<g id="a_node6"><a xlink:href="classtvm_1_1arith_1_1ModularSetAnalyzer.html" target="_top" xlink:title="Analyzer to get modular information over expression. ">
<polygon fill="white" stroke="black" points="659.5,-193.5 659.5,-261.5 824.5,-261.5 824.5,-193.5 659.5,-193.5"/>
<text text-anchor="middle" x="742" y="-249.5" font-family="Helvetica,sans-Serif" font-size="10.00">tvm::arith::ModularSetAnalyzer</text>
<polyline fill="none" stroke="black" points="659.5,-242.5 824.5,-242.5 "/>
<text text-anchor="middle" x="742" y="-230.5" font-family="Helvetica,sans-Serif" font-size="10.00"> </text>
<polyline fill="none" stroke="black" points="659.5,-223.5 824.5,-223.5 "/>
<text text-anchor="start" x="667.5" y="-211.5" font-family="Helvetica,sans-Serif" font-size="10.00">+ operator()()</text>
<text text-anchor="start" x="667.5" y="-200.5" font-family="Helvetica,sans-Serif" font-size="10.00">+ Update()</text>
</a>
</g>
</g>
<!-- Node6&#45;&gt;Node1 -->
<g id="edge5" class="edge"><title>Node6&#45;&gt;Node1</title>
<path fill="none" stroke="#404040" d="M673.682,-193.434C665.699,-189.577 657.671,-185.7 650,-182 599.212,-157.504 542.243,-130.104 497.002,-108.363"/>
<polygon fill="none" stroke="#404040" points="496.877,-108.302 489.736,-109.309 486.061,-103.105 493.201,-102.098 496.877,-108.302"/>
<text text-anchor="middle" x="648" y="-156" font-family="Helvetica,sans-Serif" font-size="10.00"> +modular_set</text>
</g>
</g>
</svg>
