<?xml version="1.0" encoding="UTF-8" standalone="no"?>
<!DOCTYPE svg PUBLIC "-//W3C//DTD SVG 1.1//EN"
 "http://www.w3.org/Graphics/SVG/1.1/DTD/svg11.dtd">
<!-- Generated by graphviz version 2.38.0 (20140413.2041)
 -->
<!-- Title: tvm::BaseExpr Pages: 1 -->
<svg width="3250pt" height="629pt"
 viewBox="0.00 0.00 3250.00 629.00" xmlns="http://www.w3.org/2000/svg" xmlns:xlink="http://www.w3.org/1999/xlink">
<g id="graph0" class="graph" transform="scale(1 1) rotate(0) translate(4 625)">
<title>tvm::BaseExpr</title>
<polygon fill="white" stroke="none" points="-4,4 -4,-625 3246,-625 3246,4 -4,4"/>
<!-- Node1 -->
<g id="node1" class="node"><title>Node1</title>
<polygon fill="#bfbfbf" stroke="black" points="1042,-458.5 1042,-526.5 1192,-526.5 1192,-458.5 1042,-458.5"/>
<text text-anchor="middle" x="1117" y="-514.5" font-family="Helvetica,sans-Serif" font-size="10.00">tvm::BaseExpr</text>
<polyline fill="none" stroke="black" points="1042,-507.5 1192,-507.5 "/>
<text text-anchor="middle" x="1117" y="-495.5" font-family="Helvetica,sans-Serif" font-size="10.00"> </text>
<polyline fill="none" stroke="black" points="1042,-488.5 1192,-488.5 "/>
<text text-anchor="start" x="1050" y="-476.5" font-family="Helvetica,sans-Serif" font-size="10.00">+ TVM_DEFINE_OBJECT_REF</text>
<text text-anchor="start" x="1050" y="-465.5" font-family="Helvetica,sans-Serif" font-size="10.00">_METHODS()</text>
</g>
<!-- Node3 -->
<g id="node3" class="node"><title>Node3</title>
<g id="a_node3"><a xlink:href="classtvm_1_1PrimExpr.html" target="_top" xlink:title="Reference to PrimExprNode. ">
<polygon fill="white" stroke="black" points="336,-309.5 336,-421.5 486,-421.5 486,-309.5 336,-309.5"/>
<text text-anchor="middle" x="411" y="-409.5" font-family="Helvetica,sans-Serif" font-size="10.00">tvm::PrimExpr</text>
<polyline fill="none" stroke="black" points="336,-402.5 486,-402.5 "/>
<text text-anchor="middle" x="411" y="-390.5" font-family="Helvetica,sans-Serif" font-size="10.00"> </text>
<polyline fill="none" stroke="black" points="336,-383.5 486,-383.5 "/>
<text text-anchor="start" x="344" y="-371.5" font-family="Helvetica,sans-Serif" font-size="10.00">+ PrimExpr()</text>
<text text-anchor="start" x="344" y="-360.5" font-family="Helvetica,sans-Serif" font-size="10.00">+ PrimExpr()</text>
<text text-anchor="start" x="344" y="-349.5" font-family="Helvetica,sans-Serif" font-size="10.00">+ PrimExpr()</text>
<text text-anchor="start" x="344" y="-338.5" font-family="Helvetica,sans-Serif" font-size="10.00">+ dtype()</text>
<text text-anchor="start" x="344" y="-327.5" font-family="Helvetica,sans-Serif" font-size="10.00">+ TVM_DEFINE_OBJECT_REF</text>
<text text-anchor="start" x="344" y="-316.5" font-family="Helvetica,sans-Serif" font-size="10.00">_METHODS()</text>
</a>
</g>
</g>
<!-- Node1&#45;&gt;Node3 -->
<g id="edge2" class="edge"><title>Node1&#45;&gt;Node3</title>
<path fill="none" stroke="midnightblue" d="M1031.58,-476.376C892.261,-451.709 618.419,-403.224 486.096,-379.796"/>
<polygon fill="none" stroke="midnightblue" points="1031.32,-479.885 1041.78,-478.182 1032.54,-472.992 1031.32,-479.885"/>
</g>
<!-- Node10 -->
<g id="node10" class="node"><title>Node10</title>
<g id="a_node10"><a xlink:href="classtvm_1_1RelayExpr.html" target="_top" xlink:title="Managed reference to RelayExprNode. ">
<polygon fill="white" stroke="black" points="1748,-331.5 1748,-399.5 1898,-399.5 1898,-331.5 1748,-331.5"/>
<text text-anchor="middle" x="1823" y="-387.5" font-family="Helvetica,sans-Serif" font-size="10.00">tvm::RelayExpr</text>
<polyline fill="none" stroke="black" points="1748,-380.5 1898,-380.5 "/>
<text text-anchor="middle" x="1823" y="-368.5" font-family="Helvetica,sans-Serif" font-size="10.00"> </text>
<polyline fill="none" stroke="black" points="1748,-361.5 1898,-361.5 "/>
<text text-anchor="start" x="1756" y="-349.5" font-family="Helvetica,sans-Serif" font-size="10.00">+ TVM_DEFINE_OBJECT_REF</text>
<text text-anchor="start" x="1756" y="-338.5" font-family="Helvetica,sans-Serif" font-size="10.00">_METHODS()</text>
</a>
</g>
</g>
<!-- Node1&#45;&gt;Node10 -->
<g id="edge9" class="edge"><title>Node1&#45;&gt;Node10</title>
<path fill="none" stroke="midnightblue" d="M1202.42,-476.376C1341.74,-451.709 1615.58,-403.224 1747.9,-379.796"/>
<polygon fill="none" stroke="midnightblue" points="1201.46,-472.992 1192.22,-478.182 1202.68,-479.885 1201.46,-472.992"/>
</g>
<!-- Node2 -->
<g id="node2" class="node"><title>Node2</title>
<polygon fill="white" stroke="#bfbfbf" points="1086,-563.5 1086,-620.5 1148,-620.5 1148,-563.5 1086,-563.5"/>
<text text-anchor="middle" x="1117" y="-608.5" font-family="Helvetica,sans-Serif" font-size="10.00">ObjectRef</text>
<polyline fill="none" stroke="#bfbfbf" points="1086,-601.5 1148,-601.5 "/>
<text text-anchor="middle" x="1117" y="-589.5" font-family="Helvetica,sans-Serif" font-size="10.00"> </text>
<polyline fill="none" stroke="#bfbfbf" points="1086,-582.5 1148,-582.5 "/>
<text text-anchor="middle" x="1117" y="-570.5" font-family="Helvetica,sans-Serif" font-size="10.00"> </text>
</g>
<!-- Node2&#45;&gt;Node1 -->
<g id="edge1" class="edge"><title>Node2&#45;&gt;Node1</title>
<path fill="none" stroke="midnightblue" d="M1117,-553.063C1117,-544.393 1117,-535.243 1117,-526.786"/>
<polygon fill="none" stroke="midnightblue" points="1113.5,-553.321 1117,-563.321 1120.5,-553.321 1113.5,-553.321"/>
</g>
<!-- Node4 -->
<g id="node4" class="node"><title>Node4</title>
<g id="a_node4"><a xlink:href="classtvm_1_1FloatImm.html" target="_top" xlink:title="Managed reference class to FloatImmNode. ">
<polygon fill="white" stroke="black" points="0,-177 0,-256 150,-256 150,-177 0,-177"/>
<text text-anchor="middle" x="75" y="-244" font-family="Helvetica,sans-Serif" font-size="10.00">tvm::FloatImm</text>
<polyline fill="none" stroke="black" points="0,-237 150,-237 "/>
<text text-anchor="middle" x="75" y="-225" font-family="Helvetica,sans-Serif" font-size="10.00"> </text>
<polyline fill="none" stroke="black" points="0,-218 150,-218 "/>
<text text-anchor="start" x="8" y="-206" font-family="Helvetica,sans-Serif" font-size="10.00">+ FloatImm()</text>
<text text-anchor="start" x="8" y="-195" font-family="Helvetica,sans-Serif" font-size="10.00">+ TVM_DEFINE_OBJECT_REF</text>
<text text-anchor="start" x="8" y="-184" font-family="Helvetica,sans-Serif" font-size="10.00">_METHODS()</text>
</a>
</g>
</g>
<!-- Node3&#45;&gt;Node4 -->
<g id="edge3" class="edge"><title>Node3&#45;&gt;Node4</title>
<path fill="none" stroke="midnightblue" d="M325.97,-339.173C276.115,-322.972 212.599,-299.963 159,-273 149.163,-268.051 139.08,-262.177 129.469,-256.133"/>
<polygon fill="none" stroke="midnightblue" points="325.161,-342.589 335.752,-342.321 327.306,-335.926 325.161,-342.589"/>
</g>
<!-- Node5 -->
<g id="node5" class="node"><title>Node5</title>
<g id="a_node5"><a xlink:href="classtvm_1_1IntImm.html" target="_top" xlink:title="Managed reference class to IntImmNode. ">
<polygon fill="white" stroke="black" points="168,-177 168,-256 318,-256 318,-177 168,-177"/>
<text text-anchor="middle" x="243" y="-244" font-family="Helvetica,sans-Serif" font-size="10.00">tvm::IntImm</text>
<polyline fill="none" stroke="black" points="168,-237 318,-237 "/>
<text text-anchor="middle" x="243" y="-225" font-family="Helvetica,sans-Serif" font-size="10.00"> </text>
<polyline fill="none" stroke="black" points="168,-218 318,-218 "/>
<text text-anchor="start" x="176" y="-206" font-family="Helvetica,sans-Serif" font-size="10.00">+ IntImm()</text>
<text text-anchor="start" x="176" y="-195" font-family="Helvetica,sans-Serif" font-size="10.00">+ TVM_DEFINE_OBJECT_REF</text>
<text text-anchor="start" x="176" y="-184" font-family="Helvetica,sans-Serif" font-size="10.00">_METHODS()</text>
</a>
</g>
</g>
<!-- Node3&#45;&gt;Node5 -->
<g id="edge4" class="edge"><title>Node3&#45;&gt;Node5</title>
<path fill="none" stroke="midnightblue" d="M340.282,-302.622C322.211,-286.809 303.298,-270.261 287.005,-256.004"/>
<polygon fill="none" stroke="midnightblue" points="338.134,-305.393 347.965,-309.344 342.744,-300.125 338.134,-305.393"/>
</g>
<!-- Node7 -->
<g id="node7" class="node"><title>Node7</title>
<g id="a_node7"><a xlink:href="classtvm_1_1tir_1_1StringImm.html" target="_top" xlink:title="{tvm::tir::StringImm\n||+ TVM_DEFINE_OBJECT_REF\l_METHODS()\l}">
<polygon fill="white" stroke="black" points="336,-182.5 336,-250.5 486,-250.5 486,-182.5 336,-182.5"/>
<text text-anchor="middle" x="411" y="-238.5" font-family="Helvetica,sans-Serif" font-size="10.00">tvm::tir::StringImm</text>
<polyline fill="none" stroke="black" points="336,-231.5 486,-231.5 "/>
<text text-anchor="middle" x="411" y="-219.5" font-family="Helvetica,sans-Serif" font-size="10.00"> </text>
<polyline fill="none" stroke="black" points="336,-212.5 486,-212.5 "/>
<text text-anchor="start" x="344" y="-200.5" font-family="Helvetica,sans-Serif" font-size="10.00">+ TVM_DEFINE_OBJECT_REF</text>
<text text-anchor="start" x="344" y="-189.5" font-family="Helvetica,sans-Serif" font-size="10.00">_METHODS()</text>
</a>
</g>
</g>
<!-- Node3&#45;&gt;Node7 -->
<g id="edge6" class="edge"><title>Node3&#45;&gt;Node7</title>
<path fill="none" stroke="midnightblue" d="M411,-299.043C411,-282.332 411,-265.06 411,-250.737"/>
<polygon fill="none" stroke="midnightblue" points="407.5,-299.344 411,-309.344 414.5,-299.344 407.5,-299.344"/>
</g>
<!-- Node8 -->
<g id="node8" class="node"><title>Node8</title>
<g id="a_node8"><a xlink:href="classtvm_1_1tir_1_1Var.html" target="_top" xlink:title="a named variable in TVM ">
<polygon fill="white" stroke="black" points="504,-160.5 504,-272.5 616,-272.5 616,-160.5 504,-160.5"/>
<text text-anchor="middle" x="560" y="-260.5" font-family="Helvetica,sans-Serif" font-size="10.00">tvm::tir::Var</text>
<polyline fill="none" stroke="black" points="504,-253.5 616,-253.5 "/>
<text text-anchor="middle" x="560" y="-241.5" font-family="Helvetica,sans-Serif" font-size="10.00"> </text>
<polyline fill="none" stroke="black" points="504,-234.5 616,-234.5 "/>
<text text-anchor="start" x="512" y="-222.5" font-family="Helvetica,sans-Serif" font-size="10.00">+ Var()</text>
<text text-anchor="start" x="512" y="-211.5" font-family="Helvetica,sans-Serif" font-size="10.00">+ Var()</text>
<text text-anchor="start" x="512" y="-200.5" font-family="Helvetica,sans-Serif" font-size="10.00">+ Var()</text>
<text text-anchor="start" x="512" y="-189.5" font-family="Helvetica,sans-Serif" font-size="10.00">+ copy_with_suffix()</text>
<text text-anchor="start" x="512" y="-178.5" font-family="Helvetica,sans-Serif" font-size="10.00">+ operator&#45;&gt;()</text>
<text text-anchor="start" x="512" y="-167.5" font-family="Helvetica,sans-Serif" font-size="10.00">+ get()</text>
</a>
</g>
</g>
<!-- Node3&#45;&gt;Node8 -->
<g id="edge7" class="edge"><title>Node3&#45;&gt;Node8</title>
<path fill="none" stroke="midnightblue" d="M474.039,-302.307C483.917,-292.562 494.07,-282.545 503.781,-272.965"/>
<polygon fill="none" stroke="midnightblue" points="471.567,-299.83 466.906,-309.344 476.483,-304.813 471.567,-299.83"/>
</g>
<!-- Node6 -->
<g id="node6" class="node"><title>Node6</title>
<g id="a_node6"><a xlink:href="classtvm_1_1Integer.html" target="_top" xlink:title="Container of constant int that adds more constructors. ">
<polygon fill="white" stroke="black" points="186.5,-0.5 186.5,-123.5 299.5,-123.5 299.5,-0.5 186.5,-0.5"/>
<text text-anchor="middle" x="243" y="-111.5" font-family="Helvetica,sans-Serif" font-size="10.00">tvm::Integer</text>
<polyline fill="none" stroke="black" points="186.5,-104.5 299.5,-104.5 "/>
<text text-anchor="middle" x="243" y="-92.5" font-family="Helvetica,sans-Serif" font-size="10.00"> </text>
<polyline fill="none" stroke="black" points="186.5,-85.5 299.5,-85.5 "/>
<text text-anchor="start" x="194.5" y="-73.5" font-family="Helvetica,sans-Serif" font-size="10.00">+ Integer()</text>
<text text-anchor="start" x="194.5" y="-62.5" font-family="Helvetica,sans-Serif" font-size="10.00">+ Integer()</text>
<text text-anchor="start" x="194.5" y="-51.5" font-family="Helvetica,sans-Serif" font-size="10.00">+ Integer()</text>
<text text-anchor="start" x="194.5" y="-40.5" font-family="Helvetica,sans-Serif" font-size="10.00">+ Integer()</text>
<text text-anchor="start" x="194.5" y="-29.5" font-family="Helvetica,sans-Serif" font-size="10.00">+ Integer()</text>
<text text-anchor="start" x="194.5" y="-18.5" font-family="Helvetica,sans-Serif" font-size="10.00">+ operator=()</text>
<text text-anchor="start" x="194.5" y="-7.5" font-family="Helvetica,sans-Serif" font-size="10.00">+ operator int64_t()</text>
</a>
</g>
</g>
<!-- Node5&#45;&gt;Node6 -->
<g id="edge5" class="edge"><title>Node5&#45;&gt;Node6</title>
<path fill="none" stroke="midnightblue" d="M243,-166.507C243,-152.892 243,-137.943 243,-123.743"/>
<polygon fill="none" stroke="midnightblue" points="239.5,-166.623 243,-176.623 246.5,-166.623 239.5,-166.623"/>
</g>
<!-- Node9 -->
<g id="node9" class="node"><title>Node9</title>
<g id="a_node9"><a xlink:href="classtvm_1_1tir_1_1SizeVar.html" target="_top" xlink:title="a named variable represents a tensor index size ">
<polygon fill="white" stroke="black" points="513.5,-17 513.5,-107 606.5,-107 606.5,-17 513.5,-17"/>
<text text-anchor="middle" x="560" y="-95" font-family="Helvetica,sans-Serif" font-size="10.00">tvm::tir::SizeVar</text>
<polyline fill="none" stroke="black" points="513.5,-88 606.5,-88 "/>
<text text-anchor="middle" x="560" y="-76" font-family="Helvetica,sans-Serif" font-size="10.00"> </text>
<polyline fill="none" stroke="black" points="513.5,-69 606.5,-69 "/>
<text text-anchor="start" x="521.5" y="-57" font-family="Helvetica,sans-Serif" font-size="10.00">+ SizeVar()</text>
<text text-anchor="start" x="521.5" y="-46" font-family="Helvetica,sans-Serif" font-size="10.00">+ SizeVar()</text>
<text text-anchor="start" x="521.5" y="-35" font-family="Helvetica,sans-Serif" font-size="10.00">+ operator&#45;&gt;()</text>
<text text-anchor="start" x="521.5" y="-24" font-family="Helvetica,sans-Serif" font-size="10.00">+ get()</text>
</a>
</g>
</g>
<!-- Node8&#45;&gt;Node9 -->
<g id="edge8" class="edge"><title>Node8&#45;&gt;Node9</title>
<path fill="none" stroke="midnightblue" d="M560,-150.093C560,-135.709 560,-120.799 560,-107.468"/>
<polygon fill="none" stroke="midnightblue" points="556.5,-150.444 560,-160.444 563.5,-150.444 556.5,-150.444"/>
</g>
<!-- Node11 -->
<g id="node11" class="node"><title>Node11</title>
<g id="a_node11"><a xlink:href="classtvm_1_1BaseFunc.html" target="_top" xlink:title="Managed reference to BaseFuncNode. ">
<polygon fill="white" stroke="black" points="634,-182.5 634,-250.5 784,-250.5 784,-182.5 634,-182.5"/>
<text text-anchor="middle" x="709" y="-238.5" font-family="Helvetica,sans-Serif" font-size="10.00">tvm::BaseFunc</text>
<polyline fill="none" stroke="black" points="634,-231.5 784,-231.5 "/>
<text text-anchor="middle" x="709" y="-219.5" font-family="Helvetica,sans-Serif" font-size="10.00"> </text>
<polyline fill="none" stroke="black" points="634,-212.5 784,-212.5 "/>
<text text-anchor="start" x="642" y="-200.5" font-family="Helvetica,sans-Serif" font-size="10.00">+ TVM_DEFINE_OBJECT_REF</text>
<text text-anchor="start" x="642" y="-189.5" font-family="Helvetica,sans-Serif" font-size="10.00">_METHODS()</text>
</a>
</g>
</g>
<!-- Node10&#45;&gt;Node11 -->
<g id="edge10" class="edge"><title>Node10&#45;&gt;Node11</title>
<path fill="none" stroke="midnightblue" d="M1737.39,-362.283C1522.79,-355.868 966.722,-333.717 793,-273 778.15,-267.81 763.359,-259.409 750.421,-250.697"/>
<polygon fill="none" stroke="midnightblue" points="1737.55,-365.789 1747.65,-362.585 1737.76,-358.792 1737.55,-365.789"/>
</g>
<!-- Node14 -->
<g id="node14" class="node"><title>Node14</title>
<g id="a_node14"><a xlink:href="classtvm_1_1Constructor.html" target="_top" xlink:title="Managed reference to ConstructorNode. ">
<polygon fill="white" stroke="black" points="802,-177 802,-256 952,-256 952,-177 802,-177"/>
<text text-anchor="middle" x="877" y="-244" font-family="Helvetica,sans-Serif" font-size="10.00">tvm::Constructor</text>
<polyline fill="none" stroke="black" points="802,-237 952,-237 "/>
<text text-anchor="middle" x="877" y="-225" font-family="Helvetica,sans-Serif" font-size="10.00"> </text>
<polyline fill="none" stroke="black" points="802,-218 952,-218 "/>
<text text-anchor="start" x="810" y="-206" font-family="Helvetica,sans-Serif" font-size="10.00">+ Constructor()</text>
<text text-anchor="start" x="810" y="-195" font-family="Helvetica,sans-Serif" font-size="10.00">+ TVM_DEFINE_OBJECT_REF</text>
<text text-anchor="start" x="810" y="-184" font-family="Helvetica,sans-Serif" font-size="10.00">_METHODS()</text>
</a>
</g>
</g>
<!-- Node10&#45;&gt;Node14 -->
<g id="edge13" class="edge"><title>Node10&#45;&gt;Node14</title>
<path fill="none" stroke="midnightblue" d="M1737.83,-360.593C1549.4,-351.121 1102.68,-323.887 961,-273 949.485,-268.864 937.987,-262.841 927.357,-256.271"/>
<polygon fill="none" stroke="midnightblue" points="1737.8,-364.096 1747.96,-361.097 1738.15,-357.104 1737.8,-364.096"/>
</g>
<!-- Node15 -->
<g id="node15" class="node"><title>Node15</title>
<g id="a_node15"><a xlink:href="classtvm_1_1GlobalVar.html" target="_top" xlink:title="Managed reference to GlobalVarNode. ">
<polygon fill="white" stroke="black" points="970,-177 970,-256 1120,-256 1120,-177 970,-177"/>
<text text-anchor="middle" x="1045" y="-244" font-family="Helvetica,sans-Serif" font-size="10.00">tvm::GlobalVar</text>
<polyline fill="none" stroke="black" points="970,-237 1120,-237 "/>
<text text-anchor="middle" x="1045" y="-225" font-family="Helvetica,sans-Serif" font-size="10.00"> </text>
<polyline fill="none" stroke="black" points="970,-218 1120,-218 "/>
<text text-anchor="start" x="978" y="-206" font-family="Helvetica,sans-Serif" font-size="10.00">+ GlobalVar()</text>
<text text-anchor="start" x="978" y="-195" font-family="Helvetica,sans-Serif" font-size="10.00">+ TVM_DEFINE_OBJECT_REF</text>
<text text-anchor="start" x="978" y="-184" font-family="Helvetica,sans-Serif" font-size="10.00">_METHODS()</text>
</a>
</g>
</g>
<!-- Node10&#45;&gt;Node15 -->
<g id="edge14" class="edge"><title>Node10&#45;&gt;Node15</title>
<path fill="none" stroke="midnightblue" d="M1737.59,-358.061C1577.57,-345.208 1238.87,-314.039 1129,-273 1117.54,-268.719 1106.06,-262.629 1095.44,-256.04"/>
<polygon fill="none" stroke="midnightblue" points="1737.62,-361.575 1747.86,-358.881 1738.17,-354.597 1737.62,-361.575"/>
</g>
<!-- Node16 -->
<g id="node16" class="node"><title>Node16</title>
<g id="a_node16"><a xlink:href="classtvm_1_1Op.html" target="_top" xlink:title="Managed reference class to OpNode. ">
<polygon fill="white" stroke="black" points="1138,-160.5 1138,-272.5 1226,-272.5 1226,-160.5 1138,-160.5"/>
<text text-anchor="middle" x="1182" y="-260.5" font-family="Helvetica,sans-Serif" font-size="10.00">tvm::Op</text>
<polyline fill="none" stroke="black" points="1138,-253.5 1226,-253.5 "/>
<text text-anchor="middle" x="1182" y="-241.5" font-family="Helvetica,sans-Serif" font-size="10.00"> </text>
<polyline fill="none" stroke="black" points="1138,-234.5 1226,-234.5 "/>
<text text-anchor="start" x="1146" y="-222.5" font-family="Helvetica,sans-Serif" font-size="10.00">+ Op()</text>
<text text-anchor="start" x="1146" y="-211.5" font-family="Helvetica,sans-Serif" font-size="10.00">+ Op()</text>
<text text-anchor="start" x="1146" y="-200.5" font-family="Helvetica,sans-Serif" font-size="10.00">+ operator&#45;&gt;()</text>
<text text-anchor="start" x="1146" y="-189.5" font-family="Helvetica,sans-Serif" font-size="10.00">+ GetAttr()</text>
<text text-anchor="start" x="1146" y="-178.5" font-family="Helvetica,sans-Serif" font-size="10.00">+ HasAttr()</text>
<text text-anchor="start" x="1146" y="-167.5" font-family="Helvetica,sans-Serif" font-size="10.00">+ Get()</text>
</a>
</g>
</g>
<!-- Node10&#45;&gt;Node16 -->
<g id="edge15" class="edge"><title>Node10&#45;&gt;Node16</title>
<path fill="none" stroke="midnightblue" d="M1737.52,-357.972C1596.18,-346.064 1320.82,-317.831 1235,-273 1231.93,-271.396 1228.94,-269.545 1226.04,-267.515"/>
<polygon fill="none" stroke="midnightblue" points="1737.62,-361.493 1747.88,-358.836 1738.2,-354.517 1737.62,-361.493"/>
</g>
<!-- Node17 -->
<g id="node17" class="node"><title>Node17</title>
<g id="a_node17"><a xlink:href="classtvm_1_1relay_1_1Call.html" target="_top" xlink:title="{tvm::relay::Call\n||+ Call()\l+ TVM_DEFINE_OBJECT_REF\l_METHODS()\l}">
<polygon fill="white" stroke="black" points="1244,-177 1244,-256 1394,-256 1394,-177 1244,-177"/>
<text text-anchor="middle" x="1319" y="-244" font-family="Helvetica,sans-Serif" font-size="10.00">tvm::relay::Call</text>
<polyline fill="none" stroke="black" points="1244,-237 1394,-237 "/>
<text text-anchor="middle" x="1319" y="-225" font-family="Helvetica,sans-Serif" font-size="10.00"> </text>
<polyline fill="none" stroke="black" points="1244,-218 1394,-218 "/>
<text text-anchor="start" x="1252" y="-206" font-family="Helvetica,sans-Serif" font-size="10.00">+ Call()</text>
<text text-anchor="start" x="1252" y="-195" font-family="Helvetica,sans-Serif" font-size="10.00">+ TVM_DEFINE_OBJECT_REF</text>
<text text-anchor="start" x="1252" y="-184" font-family="Helvetica,sans-Serif" font-size="10.00">_METHODS()</text>
</a>
</g>
</g>
<!-- Node10&#45;&gt;Node17 -->
<g id="edge16" class="edge"><title>Node10&#45;&gt;Node17</title>
<path fill="none" stroke="midnightblue" d="M1737.56,-355.266C1650.67,-343.741 1513.46,-319.594 1403,-273 1392.21,-268.448 1381.31,-262.478 1371.11,-256.142"/>
<polygon fill="none" stroke="midnightblue" points="1737.28,-358.758 1747.64,-356.576 1738.18,-351.816 1737.28,-358.758"/>
</g>
<!-- Node18 -->
<g id="node18" class="node"><title>Node18</title>
<g id="a_node18"><a xlink:href="classtvm_1_1relay_1_1Constant.html" target="_top" xlink:title="{tvm::relay::Constant\n||+ Constant()\l+ TVM_DEFINE_OBJECT_REF\l_METHODS()\l}">
<polygon fill="white" stroke="black" points="1412,-177 1412,-256 1562,-256 1562,-177 1412,-177"/>
<text text-anchor="middle" x="1487" y="-244" font-family="Helvetica,sans-Serif" font-size="10.00">tvm::relay::Constant</text>
<polyline fill="none" stroke="black" points="1412,-237 1562,-237 "/>
<text text-anchor="middle" x="1487" y="-225" font-family="Helvetica,sans-Serif" font-size="10.00"> </text>
<polyline fill="none" stroke="black" points="1412,-218 1562,-218 "/>
<text text-anchor="start" x="1420" y="-206" font-family="Helvetica,sans-Serif" font-size="10.00">+ Constant()</text>
<text text-anchor="start" x="1420" y="-195" font-family="Helvetica,sans-Serif" font-size="10.00">+ TVM_DEFINE_OBJECT_REF</text>
<text text-anchor="start" x="1420" y="-184" font-family="Helvetica,sans-Serif" font-size="10.00">_METHODS()</text>
</a>
</g>
</g>
<!-- Node10&#45;&gt;Node18 -->
<g id="edge17" class="edge"><title>Node10&#45;&gt;Node18</title>
<path fill="none" stroke="midnightblue" d="M1737.97,-339.173C1688.12,-322.972 1624.6,-299.963 1571,-273 1561.16,-268.051 1551.08,-262.177 1541.47,-256.133"/>
<polygon fill="none" stroke="midnightblue" points="1737.16,-342.589 1747.75,-342.321 1739.31,-335.926 1737.16,-342.589"/>
</g>
<!-- Node19 -->
<g id="node19" class="node"><title>Node19</title>
<g id="a_node19"><a xlink:href="classtvm_1_1relay_1_1If.html" target="_top" xlink:title="{tvm::relay::If\n||+ If()\l+ TVM_DEFINE_OBJECT_REF\l_METHODS()\l}">
<polygon fill="white" stroke="black" points="1580,-177 1580,-256 1730,-256 1730,-177 1580,-177"/>
<text text-anchor="middle" x="1655" y="-244" font-family="Helvetica,sans-Serif" font-size="10.00">tvm::relay::If</text>
<polyline fill="none" stroke="black" points="1580,-237 1730,-237 "/>
<text text-anchor="middle" x="1655" y="-225" font-family="Helvetica,sans-Serif" font-size="10.00"> </text>
<polyline fill="none" stroke="black" points="1580,-218 1730,-218 "/>
<text text-anchor="start" x="1588" y="-206" font-family="Helvetica,sans-Serif" font-size="10.00">+ If()</text>
<text text-anchor="start" x="1588" y="-195" font-family="Helvetica,sans-Serif" font-size="10.00">+ TVM_DEFINE_OBJECT_REF</text>
<text text-anchor="start" x="1588" y="-184" font-family="Helvetica,sans-Serif" font-size="10.00">_METHODS()</text>
</a>
</g>
</g>
<!-- Node10&#45;&gt;Node19 -->
<g id="edge18" class="edge"><title>Node10&#45;&gt;Node19</title>
<path fill="none" stroke="midnightblue" d="M1777.2,-324.426C1752.93,-303.185 1723.24,-277.212 1699.21,-256.184"/>
<polygon fill="none" stroke="midnightblue" points="1775.05,-327.192 1784.88,-331.143 1779.66,-321.924 1775.05,-327.192"/>
</g>
<!-- Node20 -->
<g id="node20" class="node"><title>Node20</title>
<g id="a_node20"><a xlink:href="classtvm_1_1relay_1_1Let.html" target="_top" xlink:title="{tvm::relay::Let\n||+ Let()\l+ TVM_DEFINE_OBJECT_REF\l_METHODS()\l}">
<polygon fill="white" stroke="black" points="1748,-177 1748,-256 1898,-256 1898,-177 1748,-177"/>
<text text-anchor="middle" x="1823" y="-244" font-family="Helvetica,sans-Serif" font-size="10.00">tvm::relay::Let</text>
<polyline fill="none" stroke="black" points="1748,-237 1898,-237 "/>
<text text-anchor="middle" x="1823" y="-225" font-family="Helvetica,sans-Serif" font-size="10.00"> </text>
<polyline fill="none" stroke="black" points="1748,-218 1898,-218 "/>
<text text-anchor="start" x="1756" y="-206" font-family="Helvetica,sans-Serif" font-size="10.00">+ Let()</text>
<text text-anchor="start" x="1756" y="-195" font-family="Helvetica,sans-Serif" font-size="10.00">+ TVM_DEFINE_OBJECT_REF</text>
<text text-anchor="start" x="1756" y="-184" font-family="Helvetica,sans-Serif" font-size="10.00">_METHODS()</text>
</a>
</g>
</g>
<!-- Node10&#45;&gt;Node20 -->
<g id="edge19" class="edge"><title>Node10&#45;&gt;Node20</title>
<path fill="none" stroke="midnightblue" d="M1823,-321.079C1823,-300.5 1823,-276.12 1823,-256.184"/>
<polygon fill="none" stroke="midnightblue" points="1819.5,-321.143 1823,-331.143 1826.5,-321.143 1819.5,-321.143"/>
</g>
<!-- Node21 -->
<g id="node21" class="node"><title>Node21</title>
<g id="a_node21"><a xlink:href="classtvm_1_1relay_1_1Match.html" target="_top" xlink:title="{tvm::relay::Match\n||+ Match()\l+ TVM_DEFINE_OBJECT_REF\l_METHODS()\l}">
<polygon fill="white" stroke="black" points="1916,-177 1916,-256 2066,-256 2066,-177 1916,-177"/>
<text text-anchor="middle" x="1991" y="-244" font-family="Helvetica,sans-Serif" font-size="10.00">tvm::relay::Match</text>
<polyline fill="none" stroke="black" points="1916,-237 2066,-237 "/>
<text text-anchor="middle" x="1991" y="-225" font-family="Helvetica,sans-Serif" font-size="10.00"> </text>
<polyline fill="none" stroke="black" points="1916,-218 2066,-218 "/>
<text text-anchor="start" x="1924" y="-206" font-family="Helvetica,sans-Serif" font-size="10.00">+ Match()</text>
<text text-anchor="start" x="1924" y="-195" font-family="Helvetica,sans-Serif" font-size="10.00">+ TVM_DEFINE_OBJECT_REF</text>
<text text-anchor="start" x="1924" y="-184" font-family="Helvetica,sans-Serif" font-size="10.00">_METHODS()</text>
</a>
</g>
</g>
<!-- Node10&#45;&gt;Node21 -->
<g id="edge20" class="edge"><title>Node10&#45;&gt;Node21</title>
<path fill="none" stroke="midnightblue" d="M1868.8,-324.426C1893.07,-303.185 1922.76,-277.212 1946.79,-256.184"/>
<polygon fill="none" stroke="midnightblue" points="1866.34,-321.924 1861.12,-331.143 1870.95,-327.192 1866.34,-321.924"/>
</g>
<!-- Node22 -->
<g id="node22" class="node"><title>Node22</title>
<g id="a_node22"><a xlink:href="classtvm_1_1relay_1_1RefCreate.html" target="_top" xlink:title="{tvm::relay::RefCreate\n||+ RefCreate()\l+ TVM_DEFINE_OBJECT_REF\l_METHODS()\l}">
<polygon fill="white" stroke="black" points="2084,-177 2084,-256 2234,-256 2234,-177 2084,-177"/>
<text text-anchor="middle" x="2159" y="-244" font-family="Helvetica,sans-Serif" font-size="10.00">tvm::relay::RefCreate</text>
<polyline fill="none" stroke="black" points="2084,-237 2234,-237 "/>
<text text-anchor="middle" x="2159" y="-225" font-family="Helvetica,sans-Serif" font-size="10.00"> </text>
<polyline fill="none" stroke="black" points="2084,-218 2234,-218 "/>
<text text-anchor="start" x="2092" y="-206" font-family="Helvetica,sans-Serif" font-size="10.00">+ RefCreate()</text>
<text text-anchor="start" x="2092" y="-195" font-family="Helvetica,sans-Serif" font-size="10.00">+ TVM_DEFINE_OBJECT_REF</text>
<text text-anchor="start" x="2092" y="-184" font-family="Helvetica,sans-Serif" font-size="10.00">_METHODS()</text>
</a>
</g>
</g>
<!-- Node10&#45;&gt;Node22 -->
<g id="edge21" class="edge"><title>Node10&#45;&gt;Node22</title>
<path fill="none" stroke="midnightblue" d="M1908.03,-339.173C1957.88,-322.972 2021.4,-299.963 2075,-273 2084.84,-268.051 2094.92,-262.177 2104.53,-256.133"/>
<polygon fill="none" stroke="midnightblue" points="1906.69,-335.926 1898.25,-342.321 1908.84,-342.589 1906.69,-335.926"/>
</g>
<!-- Node23 -->
<g id="node23" class="node"><title>Node23</title>
<g id="a_node23"><a xlink:href="classtvm_1_1relay_1_1RefRead.html" target="_top" xlink:title="{tvm::relay::RefRead\n||+ RefRead()\l+ TVM_DEFINE_OBJECT_REF\l_METHODS()\l}">
<polygon fill="white" stroke="black" points="2252,-177 2252,-256 2402,-256 2402,-177 2252,-177"/>
<text text-anchor="middle" x="2327" y="-244" font-family="Helvetica,sans-Serif" font-size="10.00">tvm::relay::RefRead</text>
<polyline fill="none" stroke="black" points="2252,-237 2402,-237 "/>
<text text-anchor="middle" x="2327" y="-225" font-family="Helvetica,sans-Serif" font-size="10.00"> </text>
<polyline fill="none" stroke="black" points="2252,-218 2402,-218 "/>
<text text-anchor="start" x="2260" y="-206" font-family="Helvetica,sans-Serif" font-size="10.00">+ RefRead()</text>
<text text-anchor="start" x="2260" y="-195" font-family="Helvetica,sans-Serif" font-size="10.00">+ TVM_DEFINE_OBJECT_REF</text>
<text text-anchor="start" x="2260" y="-184" font-family="Helvetica,sans-Serif" font-size="10.00">_METHODS()</text>
</a>
</g>
</g>
<!-- Node10&#45;&gt;Node23 -->
<g id="edge22" class="edge"><title>Node10&#45;&gt;Node23</title>
<path fill="none" stroke="midnightblue" d="M1908.44,-355.266C1995.33,-343.741 2132.54,-319.594 2243,-273 2253.79,-268.448 2264.69,-262.478 2274.89,-256.142"/>
<polygon fill="none" stroke="midnightblue" points="1907.82,-351.816 1898.36,-356.576 1908.72,-358.758 1907.82,-351.816"/>
</g>
<!-- Node24 -->
<g id="node24" class="node"><title>Node24</title>
<g id="a_node24"><a xlink:href="classtvm_1_1relay_1_1RefWrite.html" target="_top" xlink:title="{tvm::relay::RefWrite\n||+ RefWrite()\l+ TVM_DEFINE_OBJECT_REF\l_METHODS()\l}">
<polygon fill="white" stroke="black" points="2420,-177 2420,-256 2570,-256 2570,-177 2420,-177"/>
<text text-anchor="middle" x="2495" y="-244" font-family="Helvetica,sans-Serif" font-size="10.00">tvm::relay::RefWrite</text>
<polyline fill="none" stroke="black" points="2420,-237 2570,-237 "/>
<text text-anchor="middle" x="2495" y="-225" font-family="Helvetica,sans-Serif" font-size="10.00"> </text>
<polyline fill="none" stroke="black" points="2420,-218 2570,-218 "/>
<text text-anchor="start" x="2428" y="-206" font-family="Helvetica,sans-Serif" font-size="10.00">+ RefWrite()</text>
<text text-anchor="start" x="2428" y="-195" font-family="Helvetica,sans-Serif" font-size="10.00">+ TVM_DEFINE_OBJECT_REF</text>
<text text-anchor="start" x="2428" y="-184" font-family="Helvetica,sans-Serif" font-size="10.00">_METHODS()</text>
</a>
</g>
</g>
<!-- Node10&#45;&gt;Node24 -->
<g id="edge23" class="edge"><title>Node10&#45;&gt;Node24</title>
<path fill="none" stroke="midnightblue" d="M1908.36,-362.557C2025.46,-357.391 2240.77,-338.852 2411,-273 2422.25,-268.649 2433.54,-262.611 2444.02,-256.112"/>
<polygon fill="none" stroke="midnightblue" points="1907.88,-359.074 1898.03,-362.989 1908.17,-366.068 1907.88,-359.074"/>
</g>
<!-- Node25 -->
<g id="node25" class="node"><title>Node25</title>
<g id="a_node25"><a xlink:href="classtvm_1_1relay_1_1TempExpr.html" target="_top" xlink:title="{tvm::relay::TempExpr\n||+ TVM_DEFINE_OBJECT_REF\l_METHODS()\l}">
<polygon fill="white" stroke="black" points="2588,-182.5 2588,-250.5 2738,-250.5 2738,-182.5 2588,-182.5"/>
<text text-anchor="middle" x="2663" y="-238.5" font-family="Helvetica,sans-Serif" font-size="10.00">tvm::relay::TempExpr</text>
<polyline fill="none" stroke="black" points="2588,-231.5 2738,-231.5 "/>
<text text-anchor="middle" x="2663" y="-219.5" font-family="Helvetica,sans-Serif" font-size="10.00"> </text>
<polyline fill="none" stroke="black" points="2588,-212.5 2738,-212.5 "/>
<text text-anchor="start" x="2596" y="-200.5" font-family="Helvetica,sans-Serif" font-size="10.00">+ TVM_DEFINE_OBJECT_REF</text>
<text text-anchor="start" x="2596" y="-189.5" font-family="Helvetica,sans-Serif" font-size="10.00">_METHODS()</text>
</a>
</g>
</g>
<!-- Node10&#45;&gt;Node25 -->
<g id="edge24" class="edge"><title>Node10&#45;&gt;Node25</title>
<path fill="none" stroke="midnightblue" d="M1908.41,-359.12C2079.33,-347.545 2457.47,-317.661 2579,-273 2593.6,-267.634 2608.2,-259.291 2621.04,-250.69"/>
<polygon fill="none" stroke="midnightblue" points="1907.94,-355.643 1898.2,-359.806 1908.41,-362.627 1907.94,-355.643"/>
</g>
<!-- Node26 -->
<g id="node26" class="node"><title>Node26</title>
<g id="a_node26"><a xlink:href="classtvm_1_1relay_1_1Tuple.html" target="_top" xlink:title="{tvm::relay::Tuple\n||+ Tuple()\l+ TVM_DEFINE_OBJECT_REF\l_METHODS()\l}">
<polygon fill="white" stroke="black" points="2756,-177 2756,-256 2906,-256 2906,-177 2756,-177"/>
<text text-anchor="middle" x="2831" y="-244" font-family="Helvetica,sans-Serif" font-size="10.00">tvm::relay::Tuple</text>
<polyline fill="none" stroke="black" points="2756,-237 2906,-237 "/>
<text text-anchor="middle" x="2831" y="-225" font-family="Helvetica,sans-Serif" font-size="10.00"> </text>
<polyline fill="none" stroke="black" points="2756,-218 2906,-218 "/>
<text text-anchor="start" x="2764" y="-206" font-family="Helvetica,sans-Serif" font-size="10.00">+ Tuple()</text>
<text text-anchor="start" x="2764" y="-195" font-family="Helvetica,sans-Serif" font-size="10.00">+ TVM_DEFINE_OBJECT_REF</text>
<text text-anchor="start" x="2764" y="-184" font-family="Helvetica,sans-Serif" font-size="10.00">_METHODS()</text>
</a>
</g>
</g>
<!-- Node10&#45;&gt;Node26 -->
<g id="edge25" class="edge"><title>Node10&#45;&gt;Node26</title>
<path fill="none" stroke="midnightblue" d="M1908.19,-361.291C2106.44,-352.987 2593.49,-327.524 2747,-273 2758.69,-268.846 2770.36,-262.728 2781.12,-256.053"/>
<polygon fill="none" stroke="midnightblue" points="1907.96,-357.798 1898.11,-361.709 1908.25,-364.792 1907.96,-357.798"/>
</g>
<!-- Node27 -->
<g id="node27" class="node"><title>Node27</title>
<g id="a_node27"><a xlink:href="classtvm_1_1relay_1_1TupleGetItem.html" target="_top" xlink:title="{tvm::relay::TupleGetItem\n||+ TupleGetItem()\l+ TVM_DEFINE_OBJECT_REF\l_METHODS()\l}">
<polygon fill="white" stroke="black" points="2924,-177 2924,-256 3074,-256 3074,-177 2924,-177"/>
<text text-anchor="middle" x="2999" y="-244" font-family="Helvetica,sans-Serif" font-size="10.00">tvm::relay::TupleGetItem</text>
<polyline fill="none" stroke="black" points="2924,-237 3074,-237 "/>
<text text-anchor="middle" x="2999" y="-225" font-family="Helvetica,sans-Serif" font-size="10.00"> </text>
<polyline fill="none" stroke="black" points="2924,-218 3074,-218 "/>
<text text-anchor="start" x="2932" y="-206" font-family="Helvetica,sans-Serif" font-size="10.00">+ TupleGetItem()</text>
<text text-anchor="start" x="2932" y="-195" font-family="Helvetica,sans-Serif" font-size="10.00">+ TVM_DEFINE_OBJECT_REF</text>
<text text-anchor="start" x="2932" y="-184" font-family="Helvetica,sans-Serif" font-size="10.00">_METHODS()</text>
</a>
</g>
</g>
<!-- Node10&#45;&gt;Node27 -->
<g id="edge26" class="edge"><title>Node10&#45;&gt;Node27</title>
<path fill="none" stroke="midnightblue" d="M1908.23,-362.793C2131.55,-357.458 2729.23,-337.407 2915,-273 2926.73,-268.935 2938.41,-262.855 2949.17,-256.192"/>
<polygon fill="none" stroke="midnightblue" points="1908.12,-359.294 1898.21,-363.028 1908.28,-366.292 1908.12,-359.294"/>
</g>
<!-- Node28 -->
<g id="node28" class="node"><title>Node28</title>
<g id="a_node28"><a xlink:href="classtvm_1_1relay_1_1Var.html" target="_top" xlink:title="{tvm::relay::Var\n||+ Var()\l+ Var()\l+ TVM_DEFINE_OBJECT_REF\l_METHODS()\l}">
<polygon fill="white" stroke="black" points="3092,-171.5 3092,-261.5 3242,-261.5 3242,-171.5 3092,-171.5"/>
<text text-anchor="middle" x="3167" y="-249.5" font-family="Helvetica,sans-Serif" font-size="10.00">tvm::relay::Var</text>
<polyline fill="none" stroke="black" points="3092,-242.5 3242,-242.5 "/>
<text text-anchor="middle" x="3167" y="-230.5" font-family="Helvetica,sans-Serif" font-size="10.00"> </text>
<polyline fill="none" stroke="black" points="3092,-223.5 3242,-223.5 "/>
<text text-anchor="start" x="3100" y="-211.5" font-family="Helvetica,sans-Serif" font-size="10.00">+ Var()</text>
<text text-anchor="start" x="3100" y="-200.5" font-family="Helvetica,sans-Serif" font-size="10.00">+ Var()</text>
<text text-anchor="start" x="3100" y="-189.5" font-family="Helvetica,sans-Serif" font-size="10.00">+ TVM_DEFINE_OBJECT_REF</text>
<text text-anchor="start" x="3100" y="-178.5" font-family="Helvetica,sans-Serif" font-size="10.00">_METHODS()</text>
</a>
</g>
</g>
<!-- Node10&#45;&gt;Node28 -->
<g id="edge27" class="edge"><title>Node10&#45;&gt;Node28</title>
<path fill="none" stroke="midnightblue" d="M1908.5,-363.897C2155.23,-361.278 2864.76,-347.31 3083,-273 3091.44,-270.127 3099.85,-266.196 3107.91,-261.742"/>
<polygon fill="none" stroke="midnightblue" points="1908.12,-360.401 1898.16,-364.003 1908.19,-367.401 1908.12,-360.401"/>
</g>
<!-- Node12 -->
<g id="node12" class="node"><title>Node12</title>
<g id="a_node12"><a xlink:href="classtvm_1_1relay_1_1Function.html" target="_top" xlink:title="Managed reference to FunctionNode. ">
<polygon fill="white" stroke="black" points="629,-11.5 629,-112.5 779,-112.5 779,-11.5 629,-11.5"/>
<text text-anchor="middle" x="704" y="-100.5" font-family="Helvetica,sans-Serif" font-size="10.00">tvm::relay::Function</text>
<polyline fill="none" stroke="black" points="629,-93.5 779,-93.5 "/>
<text text-anchor="middle" x="704" y="-81.5" font-family="Helvetica,sans-Serif" font-size="10.00"> </text>
<polyline fill="none" stroke="black" points="629,-74.5 779,-74.5 "/>
<text text-anchor="start" x="637" y="-62.5" font-family="Helvetica,sans-Serif" font-size="10.00">+ Function()</text>
<text text-anchor="start" x="637" y="-51.5" font-family="Helvetica,sans-Serif" font-size="10.00">+ TVM_DEFINE_OBJECT_REF</text>
<text text-anchor="start" x="637" y="-40.5" font-family="Helvetica,sans-Serif" font-size="10.00">_METHODS()</text>
<text text-anchor="start" x="637" y="-29.5" font-family="Helvetica,sans-Serif" font-size="10.00">+ TVM_DEFINE_OBJECT_REF</text>
<text text-anchor="start" x="637" y="-18.5" font-family="Helvetica,sans-Serif" font-size="10.00">_COW_METHOD()</text>
</a>
</g>
</g>
<!-- Node11&#45;&gt;Node12 -->
<g id="edge11" class="edge"><title>Node11&#45;&gt;Node12</title>
<path fill="none" stroke="midnightblue" d="M707.579,-172.17C706.97,-153.585 706.255,-131.77 705.624,-112.547"/>
<polygon fill="none" stroke="midnightblue" points="704.089,-172.53 707.915,-182.41 711.085,-172.3 704.089,-172.53"/>
</g>
<!-- Node13 -->
<g id="node13" class="node"><title>Node13</title>
<g id="a_node13"><a xlink:href="classtvm_1_1tir_1_1PrimFunc.html" target="_top" xlink:title="Managed reference to PrimFuncNode. ">
<polygon fill="white" stroke="black" points="797,-11.5 797,-112.5 947,-112.5 947,-11.5 797,-11.5"/>
<text text-anchor="middle" x="872" y="-100.5" font-family="Helvetica,sans-Serif" font-size="10.00">tvm::tir::PrimFunc</text>
<polyline fill="none" stroke="black" points="797,-93.5 947,-93.5 "/>
<text text-anchor="middle" x="872" y="-81.5" font-family="Helvetica,sans-Serif" font-size="10.00"> </text>
<polyline fill="none" stroke="black" points="797,-74.5 947,-74.5 "/>
<text text-anchor="start" x="805" y="-62.5" font-family="Helvetica,sans-Serif" font-size="10.00">+ PrimFunc()</text>
<text text-anchor="start" x="805" y="-51.5" font-family="Helvetica,sans-Serif" font-size="10.00">+ TVM_DEFINE_OBJECT_REF</text>
<text text-anchor="start" x="805" y="-40.5" font-family="Helvetica,sans-Serif" font-size="10.00">_METHODS()</text>
<text text-anchor="start" x="805" y="-29.5" font-family="Helvetica,sans-Serif" font-size="10.00">+ TVM_DEFINE_OBJECT_REF</text>
<text text-anchor="start" x="805" y="-18.5" font-family="Helvetica,sans-Serif" font-size="10.00">_COW_METHOD()</text>
</a>
</g>
</g>
<!-- Node11&#45;&gt;Node13 -->
<g id="edge12" class="edge"><title>Node11&#45;&gt;Node13</title>
<path fill="none" stroke="midnightblue" d="M751.749,-175.505C772.349,-156.232 797.253,-132.932 819.042,-112.547"/>
<polygon fill="none" stroke="midnightblue" points="749.28,-173.022 744.369,-182.41 754.062,-178.134 749.28,-173.022"/>
</g>
</g>
</svg>
