<?xml version="1.0" encoding="UTF-8" standalone="no"?>
<!DOCTYPE svg PUBLIC "-//W3C//DTD SVG 1.1//EN"
 "http://www.w3.org/Graphics/SVG/1.1/DTD/svg11.dtd">
<!-- Generated by graphviz version 2.38.0 (20140413.2041)
 -->
<!-- Title: tvm::tir::ShuffleNode Pages: 1 -->
<svg width="213pt" height="491pt"
 viewBox="0.00 0.00 213.00 491.00" xmlns="http://www.w3.org/2000/svg" xmlns:xlink="http://www.w3.org/1999/xlink">
<g id="graph0" class="graph" transform="scale(1 1) rotate(0) translate(4 487)">
<title>tvm::tir::ShuffleNode</title>
<polygon fill="white" stroke="none" points="-4,4 -4,-487 209,-487 209,4 -4,4"/>
<!-- Node1 -->
<g id="node1" class="node"><title>Node1</title>
<polygon fill="#bfbfbf" stroke="black" points="-1.42109e-14,-0.5 -1.42109e-14,-145.5 205,-145.5 205,-0.5 -1.42109e-14,-0.5"/>
<text text-anchor="middle" x="102.5" y="-133.5" font-family="Helvetica,sans-Serif" font-size="10.00">tvm::tir::ShuffleNode</text>
<polyline fill="none" stroke="black" points="-1.42109e-14,-126.5 205,-126.5 "/>
<text text-anchor="start" x="8" y="-114.5" font-family="Helvetica,sans-Serif" font-size="10.00">+ vectors</text>
<text text-anchor="start" x="8" y="-103.5" font-family="Helvetica,sans-Serif" font-size="10.00">+ indices</text>
<text text-anchor="start" x="8" y="-92.5" font-family="Helvetica,sans-Serif" font-size="10.00">+ _type_key</text>
<polyline fill="none" stroke="black" points="-1.42109e-14,-85.5 205,-85.5 "/>
<text text-anchor="start" x="8" y="-73.5" font-family="Helvetica,sans-Serif" font-size="10.00">+ VisitAttrs()</text>
<text text-anchor="start" x="8" y="-62.5" font-family="Helvetica,sans-Serif" font-size="10.00">+ SEqualReduce()</text>
<text text-anchor="start" x="8" y="-51.5" font-family="Helvetica,sans-Serif" font-size="10.00">+ SHashReduce()</text>
<text text-anchor="start" x="8" y="-40.5" font-family="Helvetica,sans-Serif" font-size="10.00">+ TVM_DECLARE_FINAL_OBJECT_INFO()</text>
<text text-anchor="start" x="8" y="-29.5" font-family="Helvetica,sans-Serif" font-size="10.00">+ make()</text>
<text text-anchor="start" x="8" y="-18.5" font-family="Helvetica,sans-Serif" font-size="10.00">+ make_concat()</text>
<text text-anchor="start" x="8" y="-7.5" font-family="Helvetica,sans-Serif" font-size="10.00">+ make_extract_element()</text>
</g>
<!-- Node2 -->
<g id="node2" class="node"><title>Node2</title>
<g id="a_node2"><a xlink:href="classtvm_1_1PrimExprNode.html" target="_top" xlink:title="Base node of all primitive expressions. ">
<polygon fill="white" stroke="black" points="0.5,-182.5 0.5,-250.5 204.5,-250.5 204.5,-182.5 0.5,-182.5"/>
<text text-anchor="middle" x="102.5" y="-238.5" font-family="Helvetica,sans-Serif" font-size="10.00">tvm::PrimExprNode</text>
<polyline fill="none" stroke="black" points="0.5,-231.5 204.5,-231.5 "/>
<text text-anchor="start" x="8.5" y="-219.5" font-family="Helvetica,sans-Serif" font-size="10.00">+ dtype</text>
<text text-anchor="start" x="8.5" y="-208.5" font-family="Helvetica,sans-Serif" font-size="10.00">+ _type_key</text>
<polyline fill="none" stroke="black" points="0.5,-201.5 204.5,-201.5 "/>
<text text-anchor="start" x="8.5" y="-189.5" font-family="Helvetica,sans-Serif" font-size="10.00">+ TVM_DECLARE_BASE_OBJECT_INFO()</text>
</a>
</g>
</g>
<!-- Node2&#45;&gt;Node1 -->
<g id="edge1" class="edge"><title>Node2&#45;&gt;Node1</title>
<path fill="none" stroke="midnightblue" d="M102.5,-172.093C102.5,-163.727 102.5,-154.757 102.5,-145.766"/>
<polygon fill="none" stroke="midnightblue" points="99.0001,-172.325 102.5,-182.325 106,-172.325 99.0001,-172.325"/>
</g>
<!-- Node3 -->
<g id="node3" class="node"><title>Node3</title>
<g id="a_node3"><a xlink:href="classtvm_1_1BaseExprNode.html" target="_top" xlink:title="Base type of all the expressions. ">
<polygon fill="white" stroke="black" points="0.5,-287.5 0.5,-388.5 204.5,-388.5 204.5,-287.5 0.5,-287.5"/>
<text text-anchor="middle" x="102.5" y="-376.5" font-family="Helvetica,sans-Serif" font-size="10.00">tvm::BaseExprNode</text>
<polyline fill="none" stroke="black" points="0.5,-369.5 204.5,-369.5 "/>
<text text-anchor="start" x="8.5" y="-357.5" font-family="Helvetica,sans-Serif" font-size="10.00">+ _type_key</text>
<text text-anchor="start" x="8.5" y="-346.5" font-family="Helvetica,sans-Serif" font-size="10.00">+ _type_has_method_sequal</text>
<text text-anchor="start" x="8.5" y="-335.5" font-family="Helvetica,sans-Serif" font-size="10.00">_reduce</text>
<text text-anchor="start" x="8.5" y="-324.5" font-family="Helvetica,sans-Serif" font-size="10.00">+ _type_has_method_shash</text>
<text text-anchor="start" x="8.5" y="-313.5" font-family="Helvetica,sans-Serif" font-size="10.00">_reduce</text>
<polyline fill="none" stroke="black" points="0.5,-306.5 204.5,-306.5 "/>
<text text-anchor="start" x="8.5" y="-294.5" font-family="Helvetica,sans-Serif" font-size="10.00">+ TVM_DECLARE_BASE_OBJECT_INFO()</text>
</a>
</g>
</g>
<!-- Node3&#45;&gt;Node2 -->
<g id="edge2" class="edge"><title>Node3&#45;&gt;Node2</title>
<path fill="none" stroke="midnightblue" d="M102.5,-277.172C102.5,-268.11 102.5,-259.05 102.5,-250.827"/>
<polygon fill="none" stroke="midnightblue" points="99.0001,-277.359 102.5,-287.359 106,-277.359 99.0001,-277.359"/>
</g>
<!-- Node4 -->
<g id="node4" class="node"><title>Node4</title>
<polygon fill="white" stroke="#bfbfbf" points="79,-425.5 79,-482.5 126,-482.5 126,-425.5 79,-425.5"/>
<text text-anchor="middle" x="102.5" y="-470.5" font-family="Helvetica,sans-Serif" font-size="10.00">Object</text>
<polyline fill="none" stroke="#bfbfbf" points="79,-463.5 126,-463.5 "/>
<text text-anchor="middle" x="102.5" y="-451.5" font-family="Helvetica,sans-Serif" font-size="10.00"> </text>
<polyline fill="none" stroke="#bfbfbf" points="79,-444.5 126,-444.5 "/>
<text text-anchor="middle" x="102.5" y="-432.5" font-family="Helvetica,sans-Serif" font-size="10.00"> </text>
</g>
<!-- Node4&#45;&gt;Node3 -->
<g id="edge3" class="edge"><title>Node4&#45;&gt;Node3</title>
<path fill="none" stroke="midnightblue" d="M102.5,-415.354C102.5,-406.796 102.5,-397.578 102.5,-388.608"/>
<polygon fill="none" stroke="midnightblue" points="99.0001,-415.404 102.5,-425.404 106,-415.404 99.0001,-415.404"/>
</g>
</g>
</svg>
