<?xml version="1.0" encoding="UTF-8" standalone="no"?>
<!DOCTYPE svg PUBLIC "-//W3C//DTD SVG 1.1//EN"
 "http://www.w3.org/Graphics/SVG/1.1/DTD/svg11.dtd">
<!-- Generated by graphviz version 2.38.0 (20140413.2041)
 -->
<!-- Title: include/tvm/te Pages: 1 -->
<svg width="164pt" height="223pt"
 viewBox="0.00 0.00 164.20 223.00" xmlns="http://www.w3.org/2000/svg" xmlns:xlink="http://www.w3.org/1999/xlink">
<g id="graph0" class="graph" transform="scale(1 1) rotate(0) translate(4 219)">
<title>include/tvm/te</title>
<polygon fill="white" stroke="none" points="-4,4 -4,-219 160.199,-219 160.199,4 -4,4"/>
<g id="clust1" class="cluster"><title>clusterdir_b4c7d8e826c599ba55146c099a14beb5</title>
<g id="a_clust1"><a xlink:href="dir_b4c7d8e826c599ba55146c099a14beb5.html" target="_top" xlink:title="tvm">
<polygon fill="#ddddee" stroke="black" points="78.1994,-136 78.1994,-207 148.199,-207 148.199,-136 78.1994,-136"/>
<text text-anchor="middle" x="113.199" y="-195" font-family="Helvetica,sans-Serif" font-size="10.00">tvm</text>
</a>
</g>
</g>
<!-- dir_f97d855a3173728370e632aa77170e34 -->
<g id="node1" class="node"><title>dir_f97d855a3173728370e632aa77170e34</title>
<g id="a_node1"><a xlink:href="dir_f97d855a3173728370e632aa77170e34.html" target="_top" xlink:title="te">
<polygon fill="#eeeeff" stroke="black" points="140.199,-180 86.1994,-180 86.1994,-144 140.199,-144 140.199,-180"/>
<text text-anchor="middle" x="113.199" y="-159.5" font-family="Helvetica,sans-Serif" font-size="10.00">te</text>
</a>
</g>
</g>
<!-- dir_194ecda214f05a38134392ac6a69b970 -->
<g id="node2" class="node"><title>dir_194ecda214f05a38134392ac6a69b970</title>
<g id="a_node2"><a xlink:href="dir_194ecda214f05a38134392ac6a69b970.html" target="_top" xlink:title="arith">
<polygon fill="none" stroke="black" points="68.1994,-180 14.1994,-180 14.1994,-144 68.1994,-144 68.1994,-180"/>
<text text-anchor="middle" x="41.1994" y="-159.5" font-family="Helvetica,sans-Serif" font-size="10.00">arith</text>
</a>
</g>
</g>
<!-- dir_f97d855a3173728370e632aa77170e34&#45;&gt;dir_194ecda214f05a38134392ac6a69b970 -->
<g id="edge4" class="edge"><title>dir_f97d855a3173728370e632aa77170e34&#45;&gt;dir_194ecda214f05a38134392ac6a69b970</title>
<path fill="none" stroke="black" d="M85.9489,-162C83.4924,-162 81.036,-162 78.5795,-162"/>
<polygon fill="black" stroke="black" points="78.4807,-158.5 68.4807,-162 78.4806,-165.5 78.4807,-158.5"/>
<g id="a_edge4&#45;headlabel"><a xlink:href="dir_000018_000002.html" target="_top" xlink:title="2">
<text text-anchor="middle" x="82.0753" y="-153.161" font-family="Helvetica,sans-Serif" font-size="10.00">2</text>
</a>
</g>
</g>
<!-- dir_6cd4295f6ad5aa17e5b568d0e5b190e5 -->
<g id="node3" class="node"><title>dir_6cd4295f6ad5aa17e5b568d0e5b190e5</title>
<g id="a_node3"><a xlink:href="dir_6cd4295f6ad5aa17e5b568d0e5b190e5.html" target="_top" xlink:title="node">
<polygon fill="none" stroke="black" points="140.199,-36 86.1994,-36 86.1994,-0 140.199,-0 140.199,-36"/>
<text text-anchor="middle" x="113.199" y="-15.5" font-family="Helvetica,sans-Serif" font-size="10.00">node</text>
</a>
</g>
</g>
<!-- dir_f97d855a3173728370e632aa77170e34&#45;&gt;dir_6cd4295f6ad5aa17e5b568d0e5b190e5 -->
<g id="edge5" class="edge"><title>dir_f97d855a3173728370e632aa77170e34&#45;&gt;dir_6cd4295f6ad5aa17e5b568d0e5b190e5</title>
<path fill="none" stroke="black" d="M128.809,-143.774C136.572,-134.03 145.145,-121.184 149.199,-108 153.902,-92.7067 153.902,-87.2933 149.199,-72 146.191,-62.2153 140.692,-52.6161 134.884,-44.3336"/>
<polygon fill="black" stroke="black" points="137.607,-42.1306 128.809,-36.2264 132.005,-46.3279 137.607,-42.1306"/>
<g id="a_edge5&#45;headlabel"><a xlink:href="dir_000018_000013.html" target="_top" xlink:title="1">
<text text-anchor="middle" x="142.034" y="-40.8048" font-family="Helvetica,sans-Serif" font-size="10.00">1</text>
</a>
</g>
</g>
<!-- dir_72c2f11201cd7636dc7624de0754daa5 -->
<g id="node4" class="node"><title>dir_72c2f11201cd7636dc7624de0754daa5</title>
<g id="a_node4"><a xlink:href="dir_72c2f11201cd7636dc7624de0754daa5.html" target="_top" xlink:title="tir">
<polygon fill="none" stroke="black" points="140.199,-108 86.1994,-108 86.1994,-72 140.199,-72 140.199,-108"/>
<text text-anchor="middle" x="113.199" y="-87.5" font-family="Helvetica,sans-Serif" font-size="10.00">tir</text>
</a>
</g>
</g>
<!-- dir_f97d855a3173728370e632aa77170e34&#45;&gt;dir_72c2f11201cd7636dc7624de0754daa5 -->
<g id="edge6" class="edge"><title>dir_f97d855a3173728370e632aa77170e34&#45;&gt;dir_72c2f11201cd7636dc7624de0754daa5</title>
<path fill="none" stroke="black" d="M107.284,-143.697C106.488,-135.983 106.261,-126.712 106.604,-118.112"/>
<polygon fill="black" stroke="black" points="110.098,-118.324 107.304,-108.104 103.115,-117.836 110.098,-118.324"/>
<g id="a_edge6&#45;headlabel"><a xlink:href="dir_000018_000007.html" target="_top" xlink:title="7">
<text text-anchor="middle" x="112.679" y="-119.608" font-family="Helvetica,sans-Serif" font-size="10.00">7</text>
</a>
</g>
</g>
<!-- dir_fb1b1bc11a768ab8cf63a96a73170118 -->
<g id="node5" class="node"><title>dir_fb1b1bc11a768ab8cf63a96a73170118</title>
<g id="a_node5"><a xlink:href="dir_fb1b1bc11a768ab8cf63a96a73170118.html" target="_top" xlink:title="support">
<polygon fill="none" stroke="black" points="68.1994,-108 14.1994,-108 14.1994,-72 68.1994,-72 68.1994,-108"/>
<text text-anchor="middle" x="41.1994" y="-87.5" font-family="Helvetica,sans-Serif" font-size="10.00">support</text>
</a>
</g>
</g>
<!-- dir_f97d855a3173728370e632aa77170e34&#45;&gt;dir_fb1b1bc11a768ab8cf63a96a73170118 -->
<g id="edge7" class="edge"><title>dir_f97d855a3173728370e632aa77170e34&#45;&gt;dir_fb1b1bc11a768ab8cf63a96a73170118</title>
<path fill="none" stroke="black" d="M95.4016,-143.697C86.5954,-135.135 75.8173,-124.656 66.1983,-115.304"/>
<polygon fill="black" stroke="black" points="68.4022,-112.566 58.7924,-108.104 63.5226,-117.585 68.4022,-112.566"/>
<g id="a_edge7&#45;headlabel"><a xlink:href="dir_000018_000016.html" target="_top" xlink:title="1">
<text text-anchor="middle" x="72.9587" y="-110.536" font-family="Helvetica,sans-Serif" font-size="10.00">1</text>
</a>
</g>
</g>
<!-- dir_194ecda214f05a38134392ac6a69b970&#45;&gt;dir_6cd4295f6ad5aa17e5b568d0e5b190e5 -->
<g id="edge1" class="edge"><title>dir_194ecda214f05a38134392ac6a69b970&#45;&gt;dir_6cd4295f6ad5aa17e5b568d0e5b190e5</title>
<path fill="none" stroke="black" d="M24.9915,-143.767C9.58277,-125.2 -9.2577,-95.1988 5.1994,-72 20.6364,-47.2289 51.4025,-33.7086 76.1619,-26.5375"/>
<polygon fill="black" stroke="black" points="77.2331,-29.8743 85.998,-23.9221 75.4343,-23.1094 77.2331,-29.8743"/>
<g id="a_edge1&#45;headlabel"><a xlink:href="dir_000002_000013.html" target="_top" xlink:title="2">
<text text-anchor="middle" x="74.4888" y="-31.0419" font-family="Helvetica,sans-Serif" font-size="10.00">2</text>
</a>
</g>
</g>
<!-- dir_194ecda214f05a38134392ac6a69b970&#45;&gt;dir_72c2f11201cd7636dc7624de0754daa5 -->
<g id="edge2" class="edge"><title>dir_194ecda214f05a38134392ac6a69b970&#45;&gt;dir_72c2f11201cd7636dc7624de0754daa5</title>
<path fill="none" stroke="black" d="M58.9972,-143.697C67.8034,-135.135 78.5815,-124.656 88.2005,-115.304"/>
<polygon fill="black" stroke="black" points="90.8762,-117.585 95.6064,-108.104 85.9966,-112.566 90.8762,-117.585"/>
<g id="a_edge2&#45;headlabel"><a xlink:href="dir_000002_000007.html" target="_top" xlink:title="4">
<text text-anchor="middle" x="90.2781" y="-119.626" font-family="Helvetica,sans-Serif" font-size="10.00">4</text>
</a>
</g>
</g>
<!-- dir_194ecda214f05a38134392ac6a69b970&#45;&gt;dir_fb1b1bc11a768ab8cf63a96a73170118 -->
<g id="edge3" class="edge"><title>dir_194ecda214f05a38134392ac6a69b970&#45;&gt;dir_fb1b1bc11a768ab8cf63a96a73170118</title>
<path fill="none" stroke="black" d="M41.1994,-143.697C41.1994,-135.983 41.1994,-126.712 41.1994,-118.112"/>
<polygon fill="black" stroke="black" points="44.6995,-118.104 41.1994,-108.104 37.6995,-118.104 44.6995,-118.104"/>
<g id="a_edge3&#45;headlabel"><a xlink:href="dir_000002_000016.html" target="_top" xlink:title="1">
<text text-anchor="middle" x="47.5387" y="-119.199" font-family="Helvetica,sans-Serif" font-size="10.00">1</text>
</a>
</g>
</g>
<!-- dir_72c2f11201cd7636dc7624de0754daa5&#45;&gt;dir_f97d855a3173728370e632aa77170e34 -->
<g id="edge8" class="edge"><title>dir_72c2f11201cd7636dc7624de0754daa5&#45;&gt;dir_f97d855a3173728370e632aa77170e34</title>
<path fill="none" stroke="black" d="M119.094,-108.104C119.9,-115.791 120.136,-125.054 119.803,-133.665"/>
<polygon fill="black" stroke="black" points="116.308,-133.48 119.115,-143.697 123.292,-133.96 116.308,-133.48"/>
<g id="a_edge8&#45;headlabel"><a xlink:href="dir_000007_000018.html" target="_top" xlink:title="1">
<text text-anchor="middle" x="113.721" y="-127.2" font-family="Helvetica,sans-Serif" font-size="10.00">1</text>
</a>
</g>
</g>
<!-- dir_72c2f11201cd7636dc7624de0754daa5&#45;&gt;dir_6cd4295f6ad5aa17e5b568d0e5b190e5 -->
<g id="edge9" class="edge"><title>dir_72c2f11201cd7636dc7624de0754daa5&#45;&gt;dir_6cd4295f6ad5aa17e5b568d0e5b190e5</title>
<path fill="none" stroke="black" d="M113.199,-71.6966C113.199,-63.9827 113.199,-54.7125 113.199,-46.1124"/>
<polygon fill="black" stroke="black" points="116.7,-46.1043 113.199,-36.1043 109.7,-46.1044 116.7,-46.1043"/>
<g id="a_edge9&#45;headlabel"><a xlink:href="dir_000007_000013.html" target="_top" xlink:title="7">
<text text-anchor="middle" x="119.539" y="-47.199" font-family="Helvetica,sans-Serif" font-size="10.00">7</text>
</a>
</g>
</g>
</g>
</svg>
