<?xml version="1.0" encoding="UTF-8" standalone="no"?>
<!DOCTYPE svg PUBLIC "-//W3C//DTD SVG 1.1//EN"
 "http://www.w3.org/Graphics/SVG/1.1/DTD/svg11.dtd">
<!-- Generated by graphviz version 2.38.0 (20140413.2041)
 -->
<!-- Title: include/tvm/driver Pages: 1 -->
<svg width="203pt" height="295pt"
 viewBox="0.00 0.00 203.46 295.00" xmlns="http://www.w3.org/2000/svg" xmlns:xlink="http://www.w3.org/1999/xlink">
<g id="graph0" class="graph" transform="scale(1 1) rotate(0) translate(4 291)">
<title>include/tvm/driver</title>
<polygon fill="white" stroke="none" points="-4,4 -4,-291 199.46,-291 199.46,4 -4,4"/>
<g id="clust1" class="cluster"><title>clusterdir_b4c7d8e826c599ba55146c099a14beb5</title>
<g id="a_clust1"><a xlink:href="dir_b4c7d8e826c599ba55146c099a14beb5.html" target="_top" xlink:title="tvm">
<polygon fill="#ddddee" stroke="black" points="78.4605,-208 78.4605,-279 148.46,-279 148.46,-208 78.4605,-208"/>
<text text-anchor="middle" x="113.46" y="-267" font-family="Helvetica,sans-Serif" font-size="10.00">tvm</text>
</a>
</g>
</g>
<!-- dir_02be2c9d68e402f80df60bd528724ee5 -->
<g id="node1" class="node"><title>dir_02be2c9d68e402f80df60bd528724ee5</title>
<g id="a_node1"><a xlink:href="dir_02be2c9d68e402f80df60bd528724ee5.html" target="_top" xlink:title="driver">
<polygon fill="#eeeeff" stroke="black" points="140.46,-252 86.4605,-252 86.4605,-216 140.46,-216 140.46,-252"/>
<text text-anchor="middle" x="113.46" y="-231.5" font-family="Helvetica,sans-Serif" font-size="10.00">driver</text>
</a>
</g>
</g>
<!-- dir_f97d855a3173728370e632aa77170e34 -->
<g id="node2" class="node"><title>dir_f97d855a3173728370e632aa77170e34</title>
<g id="a_node2"><a xlink:href="dir_f97d855a3173728370e632aa77170e34.html" target="_top" xlink:title="te">
<polygon fill="none" stroke="black" points="68.4605,-180 14.4605,-180 14.4605,-144 68.4605,-144 68.4605,-180"/>
<text text-anchor="middle" x="41.4605" y="-159.5" font-family="Helvetica,sans-Serif" font-size="10.00">te</text>
</a>
</g>
</g>
<!-- dir_02be2c9d68e402f80df60bd528724ee5&#45;&gt;dir_f97d855a3173728370e632aa77170e34 -->
<g id="edge6" class="edge"><title>dir_02be2c9d68e402f80df60bd528724ee5&#45;&gt;dir_f97d855a3173728370e632aa77170e34</title>
<path fill="none" stroke="black" d="M95.6627,-215.697C86.8565,-207.135 76.0783,-196.656 66.4594,-187.304"/>
<polygon fill="black" stroke="black" points="68.6632,-184.566 59.0535,-180.104 63.7837,-189.585 68.6632,-184.566"/>
<g id="a_edge6&#45;headlabel"><a xlink:href="dir_000003_000018.html" target="_top" xlink:title="1">
<text text-anchor="middle" x="73.2197" y="-182.536" font-family="Helvetica,sans-Serif" font-size="10.00">1</text>
</a>
</g>
</g>
<!-- dir_5da96592f3a7c442b838b075c58254c2 -->
<g id="node3" class="node"><title>dir_5da96592f3a7c442b838b075c58254c2</title>
<g id="a_node3"><a xlink:href="dir_5da96592f3a7c442b838b075c58254c2.html" target="_top" xlink:title="target">
<polygon fill="none" stroke="black" points="140.46,-180 86.4605,-180 86.4605,-144 140.46,-144 140.46,-180"/>
<text text-anchor="middle" x="113.46" y="-159.5" font-family="Helvetica,sans-Serif" font-size="10.00">target</text>
</a>
</g>
</g>
<!-- dir_02be2c9d68e402f80df60bd528724ee5&#45;&gt;dir_5da96592f3a7c442b838b075c58254c2 -->
<g id="edge7" class="edge"><title>dir_02be2c9d68e402f80df60bd528724ee5&#45;&gt;dir_5da96592f3a7c442b838b075c58254c2</title>
<path fill="none" stroke="black" d="M113.46,-215.697C113.46,-207.983 113.46,-198.712 113.46,-190.112"/>
<polygon fill="black" stroke="black" points="116.961,-190.104 113.46,-180.104 109.961,-190.104 116.961,-190.104"/>
<g id="a_edge7&#45;headlabel"><a xlink:href="dir_000003_000017.html" target="_top" xlink:title="1">
<text text-anchor="middle" x="119.8" y="-191.199" font-family="Helvetica,sans-Serif" font-size="10.00">1</text>
</a>
</g>
</g>
<!-- dir_404558507ed35459f0d7a6d81d8c508d -->
<g id="node4" class="node"><title>dir_404558507ed35459f0d7a6d81d8c508d</title>
<g id="a_node4"><a xlink:href="dir_404558507ed35459f0d7a6d81d8c508d.html" target="_top" xlink:title="runtime">
<polygon fill="white" stroke="red" points="195.46,-36 141.46,-36 141.46,-0 195.46,-0 195.46,-36"/>
<text text-anchor="middle" x="168.46" y="-15.5" font-family="Helvetica,sans-Serif" font-size="10.00">runtime</text>
</a>
</g>
</g>
<!-- dir_02be2c9d68e402f80df60bd528724ee5&#45;&gt;dir_404558507ed35459f0d7a6d81d8c508d -->
<g id="edge8" class="edge"><title>dir_02be2c9d68e402f80df60bd528724ee5&#45;&gt;dir_404558507ed35459f0d7a6d81d8c508d</title>
<path fill="none" stroke="black" d="M136.876,-215.767C147.594,-206.472 159.266,-194.033 165.46,-180 184.713,-136.383 179.646,-79.4279 174.117,-46.2633"/>
<polygon fill="black" stroke="black" points="177.554,-45.5994 172.336,-36.3785 170.665,-46.8407 177.554,-45.5994"/>
<g id="a_edge8&#45;headlabel"><a xlink:href="dir_000003_000008.html" target="_top" xlink:title="1">
<text text-anchor="middle" x="180.985" y="-46.1336" font-family="Helvetica,sans-Serif" font-size="10.00">1</text>
</a>
</g>
</g>
<!-- dir_72c2f11201cd7636dc7624de0754daa5 -->
<g id="node5" class="node"><title>dir_72c2f11201cd7636dc7624de0754daa5</title>
<g id="a_node5"><a xlink:href="dir_72c2f11201cd7636dc7624de0754daa5.html" target="_top" xlink:title="tir">
<polygon fill="none" stroke="black" points="68.4605,-108 14.4605,-108 14.4605,-72 68.4605,-72 68.4605,-108"/>
<text text-anchor="middle" x="41.4605" y="-87.5" font-family="Helvetica,sans-Serif" font-size="10.00">tir</text>
</a>
</g>
</g>
<!-- dir_02be2c9d68e402f80df60bd528724ee5&#45;&gt;dir_72c2f11201cd7636dc7624de0754daa5 -->
<g id="edge9" class="edge"><title>dir_02be2c9d68e402f80df60bd528724ee5&#45;&gt;dir_72c2f11201cd7636dc7624de0754daa5</title>
<path fill="none" stroke="black" d="M86.259,-228.078C60.4323,-221.803 23.0243,-208.184 5.46046,-180 -7.07656,-159.882 5.42667,-134.649 19.0176,-116.193"/>
<polygon fill="black" stroke="black" points="21.8416,-118.264 25.2526,-108.233 16.3308,-113.947 21.8416,-118.264"/>
<g id="a_edge9&#45;headlabel"><a xlink:href="dir_000003_000007.html" target="_top" xlink:title="1">
<text text-anchor="middle" x="21.8603" y="-120.345" font-family="Helvetica,sans-Serif" font-size="10.00">1</text>
</a>
</g>
</g>
<!-- dir_fb1b1bc11a768ab8cf63a96a73170118 -->
<g id="node6" class="node"><title>dir_fb1b1bc11a768ab8cf63a96a73170118</title>
<g id="a_node6"><a xlink:href="dir_fb1b1bc11a768ab8cf63a96a73170118.html" target="_top" xlink:title="support">
<polygon fill="none" stroke="black" points="140.46,-108 86.4605,-108 86.4605,-72 140.46,-72 140.46,-108"/>
<text text-anchor="middle" x="113.46" y="-87.5" font-family="Helvetica,sans-Serif" font-size="10.00">support</text>
</a>
</g>
</g>
<!-- dir_02be2c9d68e402f80df60bd528724ee5&#45;&gt;dir_fb1b1bc11a768ab8cf63a96a73170118 -->
<g id="edge10" class="edge"><title>dir_02be2c9d68e402f80df60bd528724ee5&#45;&gt;dir_fb1b1bc11a768ab8cf63a96a73170118</title>
<path fill="none" stroke="black" d="M129.07,-215.774C136.833,-206.03 145.406,-193.184 149.46,-180 154.163,-164.707 154.163,-159.293 149.46,-144 146.452,-134.215 140.953,-124.616 135.145,-116.334"/>
<polygon fill="black" stroke="black" points="137.868,-114.131 129.07,-108.226 132.266,-118.328 137.868,-114.131"/>
<g id="a_edge10&#45;headlabel"><a xlink:href="dir_000003_000016.html" target="_top" xlink:title="1">
<text text-anchor="middle" x="142.295" y="-112.805" font-family="Helvetica,sans-Serif" font-size="10.00">1</text>
</a>
</g>
</g>
<!-- dir_f97d855a3173728370e632aa77170e34&#45;&gt;dir_72c2f11201cd7636dc7624de0754daa5 -->
<g id="edge1" class="edge"><title>dir_f97d855a3173728370e632aa77170e34&#45;&gt;dir_72c2f11201cd7636dc7624de0754daa5</title>
<path fill="none" stroke="black" d="M35.5447,-143.697C34.749,-135.983 34.5225,-126.712 34.8652,-118.112"/>
<polygon fill="black" stroke="black" points="38.3588,-118.324 35.5654,-108.104 31.3759,-117.836 38.3588,-118.324"/>
<g id="a_edge1&#45;headlabel"><a xlink:href="dir_000018_000007.html" target="_top" xlink:title="7">
<text text-anchor="middle" x="40.9404" y="-119.608" font-family="Helvetica,sans-Serif" font-size="10.00">7</text>
</a>
</g>
</g>
<!-- dir_f97d855a3173728370e632aa77170e34&#45;&gt;dir_fb1b1bc11a768ab8cf63a96a73170118 -->
<g id="edge2" class="edge"><title>dir_f97d855a3173728370e632aa77170e34&#45;&gt;dir_fb1b1bc11a768ab8cf63a96a73170118</title>
<path fill="none" stroke="black" d="M59.2582,-143.697C68.0644,-135.135 78.8426,-124.656 88.4616,-115.304"/>
<polygon fill="black" stroke="black" points="91.1372,-117.585 95.8674,-108.104 86.2577,-112.566 91.1372,-117.585"/>
<g id="a_edge2&#45;headlabel"><a xlink:href="dir_000018_000016.html" target="_top" xlink:title="1">
<text text-anchor="middle" x="90.5391" y="-119.626" font-family="Helvetica,sans-Serif" font-size="10.00">1</text>
</a>
</g>
</g>
<!-- dir_5da96592f3a7c442b838b075c58254c2&#45;&gt;dir_404558507ed35459f0d7a6d81d8c508d -->
<g id="edge3" class="edge"><title>dir_5da96592f3a7c442b838b075c58254c2&#45;&gt;dir_404558507ed35459f0d7a6d81d8c508d</title>
<path fill="none" stroke="black" d="M127.625,-143.851C135.151,-133.93 143.958,-120.89 149.46,-108 157.874,-88.2932 162.705,-64.4881 165.389,-46.4579"/>
<polygon fill="black" stroke="black" points="168.887,-46.7052 166.763,-36.3255 161.951,-45.7643 168.887,-46.7052"/>
<g id="a_edge3&#45;headlabel"><a xlink:href="dir_000017_000008.html" target="_top" xlink:title="2">
<text text-anchor="middle" x="171.218" y="-48.1489" font-family="Helvetica,sans-Serif" font-size="10.00">2</text>
</a>
</g>
</g>
<!-- dir_5da96592f3a7c442b838b075c58254c2&#45;&gt;dir_72c2f11201cd7636dc7624de0754daa5 -->
<g id="edge4" class="edge"><title>dir_5da96592f3a7c442b838b075c58254c2&#45;&gt;dir_72c2f11201cd7636dc7624de0754daa5</title>
<path fill="none" stroke="black" d="M95.6627,-143.697C86.8565,-135.135 76.0783,-124.656 66.4594,-115.304"/>
<polygon fill="black" stroke="black" points="68.6632,-112.566 59.0535,-108.104 63.7837,-117.585 68.6632,-112.566"/>
<g id="a_edge4&#45;headlabel"><a xlink:href="dir_000017_000007.html" target="_top" xlink:title="2">
<text text-anchor="middle" x="73.2197" y="-110.536" font-family="Helvetica,sans-Serif" font-size="10.00">2</text>
</a>
</g>
</g>
<!-- dir_5da96592f3a7c442b838b075c58254c2&#45;&gt;dir_fb1b1bc11a768ab8cf63a96a73170118 -->
<g id="edge5" class="edge"><title>dir_5da96592f3a7c442b838b075c58254c2&#45;&gt;dir_fb1b1bc11a768ab8cf63a96a73170118</title>
<path fill="none" stroke="black" d="M113.46,-143.697C113.46,-135.983 113.46,-126.712 113.46,-118.112"/>
<polygon fill="black" stroke="black" points="116.961,-118.104 113.46,-108.104 109.961,-118.104 116.961,-118.104"/>
<g id="a_edge5&#45;headlabel"><a xlink:href="dir_000017_000016.html" target="_top" xlink:title="2">
<text text-anchor="middle" x="119.8" y="-119.199" font-family="Helvetica,sans-Serif" font-size="10.00">2</text>
</a>
</g>
</g>
<!-- dir_72c2f11201cd7636dc7624de0754daa5&#45;&gt;dir_f97d855a3173728370e632aa77170e34 -->
<g id="edge11" class="edge"><title>dir_72c2f11201cd7636dc7624de0754daa5&#45;&gt;dir_f97d855a3173728370e632aa77170e34</title>
<path fill="none" stroke="black" d="M47.3555,-108.104C48.161,-115.791 48.3973,-125.054 48.0645,-133.665"/>
<polygon fill="black" stroke="black" points="44.569,-133.48 47.3762,-143.697 51.5526,-133.96 44.569,-133.48"/>
<g id="a_edge11&#45;headlabel"><a xlink:href="dir_000007_000018.html" target="_top" xlink:title="1">
<text text-anchor="middle" x="41.9824" y="-127.2" font-family="Helvetica,sans-Serif" font-size="10.00">1</text>
</a>
</g>
</g>
<!-- dir_72c2f11201cd7636dc7624de0754daa5&#45;&gt;dir_404558507ed35459f0d7a6d81d8c508d -->
<g id="edge12" class="edge"><title>dir_72c2f11201cd7636dc7624de0754daa5&#45;&gt;dir_404558507ed35459f0d7a6d81d8c508d</title>
<path fill="none" stroke="black" d="M68.7051,-73.9832C87.2872,-63.7411 112.099,-50.0656 132.328,-38.9157"/>
<polygon fill="black" stroke="black" points="134.193,-41.8843 141.261,-33.9919 130.814,-35.7539 134.193,-41.8843"/>
<g id="a_edge12&#45;headlabel"><a xlink:href="dir_000007_000008.html" target="_top" xlink:title="2">
<text text-anchor="middle" x="132.415" y="-43.606" font-family="Helvetica,sans-Serif" font-size="10.00">2</text>
</a>
</g>
</g>
</g>
</svg>
