<?xml version="1.0" encoding="UTF-8" standalone="no"?>
<!DOCTYPE svg PUBLIC "-//W3C//DTD SVG 1.1//EN"
 "http://www.w3.org/Graphics/SVG/1.1/DTD/svg11.dtd">
<!-- Generated by graphviz version 2.38.0 (20140413.2041)
 -->
<!-- Title: include/tvm/ir/error.h Pages: 1 -->
<svg width="2795pt" height="957pt"
 viewBox="0.00 0.00 2795.00 957.00" xmlns="http://www.w3.org/2000/svg" xmlns:xlink="http://www.w3.org/1999/xlink">
<g id="graph0" class="graph" transform="scale(1 1) rotate(0) translate(4 953)">
<title>include/tvm/ir/error.h</title>
<polygon fill="white" stroke="none" points="-4,4 -4,-953 2791,-953 2791,4 -4,4"/>
<!-- Node1 -->
<g id="node1" class="node"><title>Node1</title>
<polygon fill="#bfbfbf" stroke="black" points="2531,-929.5 2531,-948.5 2647,-948.5 2647,-929.5 2531,-929.5"/>
<text text-anchor="middle" x="2589" y="-936.5" font-family="Helvetica,sans-Serif" font-size="10.00">include/tvm/ir/error.h</text>
</g>
<!-- Node2 -->
<g id="node2" class="node"><title>Node2</title>
<g id="a_node2"><a xlink:href="span_8h.html" target="_top" xlink:title="Span information for debugging purposes. ">
<polygon fill="white" stroke="black" points="1529,-593.5 1529,-612.5 1609,-612.5 1609,-593.5 1529,-593.5"/>
<text text-anchor="middle" x="1569" y="-600.5" font-family="Helvetica,sans-Serif" font-size="10.00">tvm/ir/span.h</text>
</a>
</g>
</g>
<!-- Node1&#45;&gt;Node2 -->
<g id="edge1" class="edge"><title>Node1&#45;&gt;Node2</title>
<path fill="none" stroke="midnightblue" d="M2577.46,-929.433C2556.2,-912.571 2513,-872.799 2513,-828 2513,-828 2513,-828 2513,-770 2513,-678.401 1814.66,-621.569 1619.26,-607.46"/>
<polygon fill="midnightblue" stroke="midnightblue" points="1619.49,-603.967 1609.26,-606.743 1618.98,-610.949 1619.49,-603.967"/>
</g>
<!-- Node10 -->
<g id="node10" class="node"><title>Node10</title>
<polygon fill="white" stroke="#bfbfbf" points="2244,-62 2244,-81 2288,-81 2288,-62 2244,-62"/>
<text text-anchor="middle" x="2266" y="-69" font-family="Helvetica,sans-Serif" font-size="10.00">string</text>
</g>
<!-- Node1&#45;&gt;Node10 -->
<g id="edge145" class="edge"><title>Node1&#45;&gt;Node10</title>
<path fill="none" stroke="midnightblue" d="M2609.64,-929.421C2642.5,-914.231 2703,-879.293 2703,-828 2703,-828 2703,-828 2703,-188 2703,-104.336 2399.82,-79.9136 2298.52,-74.0886"/>
<polygon fill="midnightblue" stroke="midnightblue" points="2298.45,-70.5796 2288.27,-73.5239 2298.06,-77.569 2298.45,-70.5796"/>
</g>
<!-- Node21 -->
<g id="node21" class="node"><title>Node21</title>
<polygon fill="white" stroke="#bfbfbf" points="986.5,-179.5 986.5,-198.5 1033.5,-198.5 1033.5,-179.5 986.5,-179.5"/>
<text text-anchor="middle" x="1010" y="-186.5" font-family="Helvetica,sans-Serif" font-size="10.00">vector</text>
</g>
<!-- Node1&#45;&gt;Node21 -->
<g id="edge146" class="edge"><title>Node1&#45;&gt;Node21</title>
<path fill="none" stroke="midnightblue" d="M2530.91,-934.634C2273.32,-918.951 1247,-848.172 1247,-716 1247,-716 1247,-716 1247,-658 1247,-498.227 1601.59,-545.608 1511,-414 1496.97,-393.62 1116.61,-267.056 1095,-255 1069.58,-240.816 1043.44,-219.645 1026.98,-205.353"/>
<polygon fill="midnightblue" stroke="midnightblue" points="1029.12,-202.576 1019.31,-198.58 1024.48,-207.823 1029.12,-202.576"/>
</g>
<!-- Node22 -->
<g id="node22" class="node"><title>Node22</title>
<polygon fill="white" stroke="#bfbfbf" points="2465.5,-179.5 2465.5,-198.5 2558.5,-198.5 2558.5,-179.5 2465.5,-179.5"/>
<text text-anchor="middle" x="2512" y="-186.5" font-family="Helvetica,sans-Serif" font-size="10.00">unordered_map</text>
</g>
<!-- Node1&#45;&gt;Node22 -->
<g id="edge148" class="edge"><title>Node1&#45;&gt;Node22</title>
<path fill="none" stroke="midnightblue" d="M2600.54,-929.433C2621.8,-912.571 2665,-872.799 2665,-828 2665,-828 2665,-828 2665,-602 2665,-439.328 2558.88,-261.854 2523.4,-207.057"/>
<polygon fill="midnightblue" stroke="midnightblue" points="2526.22,-204.982 2517.81,-198.544 2520.37,-208.824 2526.22,-204.982"/>
</g>
<!-- Node37 -->
<g id="node37" class="node"><title>Node37</title>
<g id="a_node37"><a xlink:href="ir_2module_8h.html" target="_top" xlink:title="IRModule that holds the functions and type definitions. ">
<polygon fill="white" stroke="black" points="2296,-873.5 2296,-892.5 2388,-892.5 2388,-873.5 2296,-873.5"/>
<text text-anchor="middle" x="2342" y="-880.5" font-family="Helvetica,sans-Serif" font-size="10.00">tvm/ir/module.h</text>
</a>
</g>
</g>
<!-- Node1&#45;&gt;Node37 -->
<g id="edge102" class="edge"><title>Node1&#45;&gt;Node37</title>
<path fill="none" stroke="midnightblue" d="M2549.86,-929.444C2506.77,-920.023 2437.44,-904.866 2390.83,-894.675"/>
<polygon fill="midnightblue" stroke="midnightblue" points="2391.47,-891.233 2380.95,-892.516 2389.98,-898.072 2391.47,-891.233"/>
</g>
<!-- Node46 -->
<g id="node46" class="node"><title>Node46</title>
<polygon fill="white" stroke="#bfbfbf" points="2731,-873.5 2731,-892.5 2787,-892.5 2787,-873.5 2731,-873.5"/>
<text text-anchor="middle" x="2759" y="-880.5" font-family="Helvetica,sans-Serif" font-size="10.00">sstream</text>
</g>
<!-- Node1&#45;&gt;Node46 -->
<g id="edge147" class="edge"><title>Node1&#45;&gt;Node46</title>
<path fill="none" stroke="midnightblue" d="M2615.94,-929.444C2644.66,-920.32 2690.33,-905.813 2722.32,-895.651"/>
<polygon fill="midnightblue" stroke="midnightblue" points="2723.72,-898.88 2732.19,-892.516 2721.6,-892.208 2723.72,-898.88"/>
</g>
<!-- Node3 -->
<g id="node3" class="node"><title>Node3</title>
<g id="a_node3"><a xlink:href="object_8h.html" target="_top" xlink:title="A managed object in the TVM runtime. ">
<polygon fill="white" stroke="black" points="951.5,-123.5 951.5,-142.5 1068.5,-142.5 1068.5,-123.5 951.5,-123.5"/>
<text text-anchor="middle" x="1010" y="-130.5" font-family="Helvetica,sans-Serif" font-size="10.00">tvm/runtime/object.h</text>
</a>
</g>
</g>
<!-- Node2&#45;&gt;Node3 -->
<g id="edge2" class="edge"><title>Node2&#45;&gt;Node3</title>
<path fill="none" stroke="midnightblue" d="M1569,-593.442C1569,-574.936 1569,-529.812 1569,-492 1569,-492 1569,-492 1569,-428.5 1569,-420.374 1613.99,-436.898 1442,-358 1400.96,-339.173 1387.3,-342.362 1347,-322 1324.33,-310.548 1322.52,-300.586 1299,-291 1224.66,-260.699 1191.97,-294.353 1122,-255 1098.04,-241.526 1047,-180.175 1022.99,-150.36"/>
<polygon fill="midnightblue" stroke="midnightblue" points="1025.71,-148.15 1016.73,-142.53 1020.24,-152.524 1025.71,-148.15"/>
</g>
<!-- Node2&#45;&gt;Node10 -->
<g id="edge101" class="edge"><title>Node2&#45;&gt;Node10</title>
<path fill="none" stroke="midnightblue" d="M1609.03,-601.075C1759.82,-596.526 2285,-570.625 2285,-430.5 2285,-430.5 2285,-430.5 2285,-188 2285,-153.405 2276.6,-113.745 2270.97,-91.0547"/>
<polygon fill="midnightblue" stroke="midnightblue" points="2274.29,-89.9237 2268.41,-81.1136 2267.51,-91.6707 2274.29,-89.9237"/>
</g>
<!-- Node13 -->
<g id="node13" class="node"><title>Node13</title>
<g id="a_node13"><a xlink:href="node_8h.html" target="_top" xlink:title="Definitions and helper macros for IR/AST nodes. ">
<polygon fill="white" stroke="black" points="983,-537.5 983,-556.5 1081,-556.5 1081,-537.5 983,-537.5"/>
<text text-anchor="middle" x="1032" y="-544.5" font-family="Helvetica,sans-Serif" font-size="10.00">tvm/node/node.h</text>
</a>
</g>
</g>
<!-- Node2&#45;&gt;Node13 -->
<g id="edge12" class="edge"><title>Node2&#45;&gt;Node13</title>
<path fill="none" stroke="midnightblue" d="M1528.64,-597.941C1434.83,-588.508 1201.73,-565.068 1091.53,-553.986"/>
<polygon fill="midnightblue" stroke="midnightblue" points="1091.55,-550.471 1081.25,-552.953 1090.85,-557.436 1091.55,-550.471"/>
</g>
<!-- Node4 -->
<g id="node4" class="node"><title>Node4</title>
<polygon fill="white" stroke="#bfbfbf" points="1293,-62 1293,-81 1379,-81 1379,-62 1293,-62"/>
<text text-anchor="middle" x="1336" y="-69" font-family="Helvetica,sans-Serif" font-size="10.00">dmlc/logging.h</text>
</g>
<!-- Node3&#45;&gt;Node4 -->
<g id="edge3" class="edge"><title>Node3&#45;&gt;Node4</title>
<path fill="none" stroke="midnightblue" d="M1056.71,-123.475C1116.5,-112.563 1219.84,-93.7007 1282.66,-82.2352"/>
<polygon fill="midnightblue" stroke="midnightblue" points="1283.55,-85.6305 1292.76,-80.3918 1282.3,-78.7442 1283.55,-85.6305"/>
</g>
<!-- Node5 -->
<g id="node5" class="node"><title>Node5</title>
<g id="a_node5"><a xlink:href="c__runtime__api_8h.html" target="_top" xlink:title="tvm/runtime/c_runtime\l_api.h">
<polygon fill="white" stroke="black" points="1747.5,-56.5 1747.5,-86.5 1874.5,-86.5 1874.5,-56.5 1747.5,-56.5"/>
<text text-anchor="start" x="1755.5" y="-74.5" font-family="Helvetica,sans-Serif" font-size="10.00">tvm/runtime/c_runtime</text>
<text text-anchor="middle" x="1811" y="-63.5" font-family="Helvetica,sans-Serif" font-size="10.00">_api.h</text>
</a>
</g>
</g>
<!-- Node3&#45;&gt;Node5 -->
<g id="edge4" class="edge"><title>Node3&#45;&gt;Node5</title>
<path fill="none" stroke="midnightblue" d="M1068.57,-127.649C1211.76,-117.012 1579.32,-89.7095 1737.17,-77.9843"/>
<polygon fill="midnightblue" stroke="midnightblue" points="1737.55,-81.4661 1747.26,-77.2348 1737.03,-74.4853 1737.55,-81.4661"/>
</g>
<!-- Node9 -->
<g id="node9" class="node"><title>Node9</title>
<polygon fill="white" stroke="#bfbfbf" points="232,-62 232,-81 300,-81 300,-62 232,-62"/>
<text text-anchor="middle" x="266" y="-69" font-family="Helvetica,sans-Serif" font-size="10.00">type_traits</text>
</g>
<!-- Node3&#45;&gt;Node9 -->
<g id="edge8" class="edge"><title>Node3&#45;&gt;Node9</title>
<path fill="none" stroke="midnightblue" d="M951.309,-127.306C807.131,-115.776 438.036,-86.2582 310.299,-76.0427"/>
<polygon fill="midnightblue" stroke="midnightblue" points="310.355,-72.5362 300.108,-75.2277 309.797,-79.5139 310.355,-72.5362"/>
</g>
<!-- Node3&#45;&gt;Node10 -->
<g id="edge9" class="edge"><title>Node3&#45;&gt;Node10</title>
<path fill="none" stroke="midnightblue" d="M1068.89,-129.21C1289.81,-118.745 2065.13,-82.0159 2233.55,-74.0371"/>
<polygon fill="midnightblue" stroke="midnightblue" points="2233.93,-77.523 2243.76,-73.5537 2233.6,-70.5309 2233.93,-77.523"/>
</g>
<!-- Node11 -->
<g id="node11" class="node"><title>Node11</title>
<polygon fill="white" stroke="#bfbfbf" points="600,-62 600,-81 642,-81 642,-62 600,-62"/>
<text text-anchor="middle" x="621" y="-69" font-family="Helvetica,sans-Serif" font-size="10.00">utility</text>
</g>
<!-- Node3&#45;&gt;Node11 -->
<g id="edge10" class="edge"><title>Node3&#45;&gt;Node11</title>
<path fill="none" stroke="midnightblue" d="M954.266,-123.475C871.281,-110.782 717.977,-87.3332 652.25,-77.2799"/>
<polygon fill="midnightblue" stroke="midnightblue" points="652.529,-73.782 642.115,-75.7297 651.471,-80.7015 652.529,-73.782"/>
</g>
<!-- Node12 -->
<g id="node12" class="node"><title>Node12</title>
<polygon fill="white" stroke="#bfbfbf" points="1065,-62 1065,-81 1115,-81 1115,-62 1065,-62"/>
<text text-anchor="middle" x="1090" y="-69" font-family="Helvetica,sans-Serif" font-size="10.00">atomic</text>
</g>
<!-- Node3&#45;&gt;Node12 -->
<g id="edge11" class="edge"><title>Node3&#45;&gt;Node12</title>
<path fill="none" stroke="midnightblue" d="M1021.46,-123.475C1034.17,-114.02 1054.91,-98.5961 1070.25,-87.1871"/>
<polygon fill="midnightblue" stroke="midnightblue" points="1072.62,-89.7854 1078.56,-81.0091 1068.45,-84.1686 1072.62,-89.7854"/>
</g>
<!-- Node6 -->
<g id="node6" class="node"><title>Node6</title>
<polygon fill="white" stroke="#bfbfbf" points="1676,-0.5 1676,-19.5 1766,-19.5 1766,-0.5 1676,-0.5"/>
<text text-anchor="middle" x="1721" y="-7.5" font-family="Helvetica,sans-Serif" font-size="10.00">dlpack/dlpack.h</text>
</g>
<!-- Node5&#45;&gt;Node6 -->
<g id="edge5" class="edge"><title>Node5&#45;&gt;Node6</title>
<path fill="none" stroke="midnightblue" d="M1789.67,-56.3993C1775.51,-47.0402 1756.99,-34.7924 1742.75,-25.3771"/>
<polygon fill="midnightblue" stroke="midnightblue" points="1744.37,-22.2531 1734.1,-19.6578 1740.51,-28.0923 1744.37,-22.2531"/>
</g>
<!-- Node7 -->
<g id="node7" class="node"><title>Node7</title>
<polygon fill="white" stroke="#bfbfbf" points="1784.5,-0.5 1784.5,-19.5 1837.5,-19.5 1837.5,-0.5 1784.5,-0.5"/>
<text text-anchor="middle" x="1811" y="-7.5" font-family="Helvetica,sans-Serif" font-size="10.00">stdint.h</text>
</g>
<!-- Node5&#45;&gt;Node7 -->
<g id="edge6" class="edge"><title>Node5&#45;&gt;Node7</title>
<path fill="none" stroke="midnightblue" d="M1811,-56.3993C1811,-48.4664 1811,-38.458 1811,-29.8583"/>
<polygon fill="midnightblue" stroke="midnightblue" points="1814.5,-29.6577 1811,-19.6578 1807.5,-29.6578 1814.5,-29.6577"/>
</g>
<!-- Node8 -->
<g id="node8" class="node"><title>Node8</title>
<polygon fill="white" stroke="#bfbfbf" points="1855.5,-0.5 1855.5,-19.5 1910.5,-19.5 1910.5,-0.5 1855.5,-0.5"/>
<text text-anchor="middle" x="1883" y="-7.5" font-family="Helvetica,sans-Serif" font-size="10.00">stddef.h</text>
</g>
<!-- Node5&#45;&gt;Node8 -->
<g id="edge7" class="edge"><title>Node5&#45;&gt;Node8</title>
<path fill="none" stroke="midnightblue" d="M1828.06,-56.3993C1839.06,-47.3076 1853.37,-35.4899 1864.62,-26.1909"/>
<polygon fill="midnightblue" stroke="midnightblue" points="1867.04,-28.726 1872.52,-19.6578 1862.59,-23.33 1867.04,-28.726"/>
</g>
<!-- Node13&#45;&gt;Node3 -->
<g id="edge14" class="edge"><title>Node13&#45;&gt;Node3</title>
<path fill="none" stroke="midnightblue" d="M1027.54,-537.36C1018.91,-520.242 1000.01,-480.591 991,-445 967.989,-354.067 964.172,-328.618 970,-235 971.559,-209.966 967.73,-202.307 977,-179 981.102,-168.687 988.141,-158.592 994.668,-150.586"/>
<polygon fill="midnightblue" stroke="midnightblue" points="997.498,-152.663 1001.38,-142.806 992.2,-148.088 997.498,-152.663"/>
</g>
<!-- Node13&#45;&gt;Node5 -->
<g id="edge13" class="edge"><title>Node13&#45;&gt;Node5</title>
<path fill="none" stroke="midnightblue" d="M1081.04,-543.08C1268.29,-530.829 1934.07,-476.831 2062,-322 2102.96,-272.428 2115.08,-235.291 2084,-179 2045.4,-109.104 1951.53,-84.882 1884.65,-76.6017"/>
<polygon fill="midnightblue" stroke="midnightblue" points="1884.91,-73.1086 1874.58,-75.4485 1884.12,-80.0632 1884.91,-73.1086"/>
</g>
<!-- Node13&#45;&gt;Node9 -->
<g id="edge100" class="edge"><title>Node13&#45;&gt;Node9</title>
<path fill="none" stroke="midnightblue" d="M982.986,-544.899C848.111,-541.527 473.568,-529.771 354,-501 276.863,-482.439 190,-509.838 190,-430.5 190,-430.5 190,-430.5 190,-305.5 190,-221.134 235.593,-127.679 256.152,-89.826"/>
<polygon fill="midnightblue" stroke="midnightblue" points="259.226,-91.4994 261.013,-81.0564 253.104,-88.1055 259.226,-91.4994"/>
</g>
<!-- Node13&#45;&gt;Node10 -->
<g id="edge97" class="edge"><title>Node13&#45;&gt;Node10</title>
<path fill="none" stroke="midnightblue" d="M1081.36,-543.171C1176.64,-537.427 1392.44,-523.046 1573,-501 1728.07,-482.067 1767.1,-477.041 1920,-445 2074.31,-412.663 2247,-465.159 2247,-307.5 2247,-307.5 2247,-307.5 2247,-188 2247,-153.405 2255.4,-113.745 2261.03,-91.0547"/>
<polygon fill="midnightblue" stroke="midnightblue" points="2264.49,-91.6707 2263.59,-81.1136 2257.71,-89.9237 2264.49,-91.6707"/>
</g>
<!-- Node13&#45;&gt;Node11 -->
<g id="edge99" class="edge"><title>Node13&#45;&gt;Node11</title>
<path fill="none" stroke="midnightblue" d="M982.987,-545.622C839.896,-544.106 429.796,-536.662 382,-501 281.739,-426.193 253.26,-354.576 290,-235 328.261,-110.476 514.838,-81.2421 589.766,-74.4885"/>
<polygon fill="midnightblue" stroke="midnightblue" points="590.301,-77.9564 599.98,-73.6466 589.726,-70.98 590.301,-77.9564"/>
</g>
<!-- Node14 -->
<g id="node14" class="node"><title>Node14</title>
<g id="a_node14"><a xlink:href="runtime_2memory_8h.html" target="_top" xlink:title="Runtime memory management. ">
<polygon fill="white" stroke="black" points="446.5,-179.5 446.5,-198.5 573.5,-198.5 573.5,-179.5 446.5,-179.5"/>
<text text-anchor="middle" x="510" y="-186.5" font-family="Helvetica,sans-Serif" font-size="10.00">tvm/runtime/memory.h</text>
</a>
</g>
</g>
<!-- Node13&#45;&gt;Node14 -->
<g id="edge15" class="edge"><title>Node13&#45;&gt;Node14</title>
<path fill="none" stroke="midnightblue" d="M982.963,-546.273C840.909,-546.556 436.669,-543.58 397,-501 342.287,-442.272 437.497,-268.74 460,-235 467.718,-223.428 479.078,-212.882 489.02,-204.914"/>
<polygon fill="midnightblue" stroke="midnightblue" points="491.445,-207.466 497.265,-198.613 487.194,-201.904 491.445,-207.466"/>
</g>
<!-- Node16 -->
<g id="node16" class="node"><title>Node16</title>
<g id="a_node16"><a xlink:href="reflection_8h.html" target="_top" xlink:title="Reflection and serialization of compiler IR/AST nodes. ">
<polygon fill="white" stroke="black" points="1208.5,-481.5 1208.5,-500.5 1327.5,-500.5 1327.5,-481.5 1208.5,-481.5"/>
<text text-anchor="middle" x="1268" y="-488.5" font-family="Helvetica,sans-Serif" font-size="10.00">tvm/node/reflection.h</text>
</a>
</g>
</g>
<!-- Node13&#45;&gt;Node16 -->
<g id="edge20" class="edge"><title>Node13&#45;&gt;Node16</title>
<path fill="none" stroke="midnightblue" d="M1069.39,-537.444C1110.39,-528.063 1176.25,-512.993 1220.78,-502.804"/>
<polygon fill="midnightblue" stroke="midnightblue" points="1221.81,-506.159 1230.78,-500.516 1220.25,-499.335 1221.81,-506.159"/>
</g>
<!-- Node13&#45;&gt;Node21 -->
<g id="edge98" class="edge"><title>Node13&#45;&gt;Node21</title>
<path fill="none" stroke="midnightblue" d="M1002.12,-537.387C984.46,-530.587 963.549,-519.15 953,-501 930.332,-462.001 949.474,-282.139 970,-235 974.82,-223.931 983.433,-213.69 991.435,-205.783"/>
<polygon fill="midnightblue" stroke="midnightblue" points="994.113,-208.073 999.071,-198.71 989.356,-202.938 994.113,-208.073"/>
</g>
<!-- Node30 -->
<g id="node30" class="node"><title>Node30</title>
<g id="a_node30"><a xlink:href="structural__equal_8h.html" target="_top" xlink:title="Structural equality comparison. ">
<polygon fill="white" stroke="black" points="1071.5,-414.5 1071.5,-444.5 1182.5,-444.5 1182.5,-414.5 1071.5,-414.5"/>
<text text-anchor="start" x="1079.5" y="-432.5" font-family="Helvetica,sans-Serif" font-size="10.00">tvm/node/structural</text>
<text text-anchor="middle" x="1127" y="-421.5" font-family="Helvetica,sans-Serif" font-size="10.00">_equal.h</text>
</a>
</g>
</g>
<!-- Node13&#45;&gt;Node30 -->
<g id="edge95" class="edge"><title>Node13&#45;&gt;Node30</title>
<path fill="none" stroke="midnightblue" d="M1039.14,-537.319C1053.86,-519.424 1087.96,-477.966 1109.09,-452.281"/>
<polygon fill="midnightblue" stroke="midnightblue" points="1111.8,-454.492 1115.45,-444.545 1106.39,-450.045 1111.8,-454.492"/>
</g>
<!-- Node32 -->
<g id="node32" class="node"><title>Node32</title>
<g id="a_node32"><a xlink:href="node_2container_8h.html" target="_top" xlink:title="Array/Map container in the DSL graph. ">
<polygon fill="white" stroke="black" points="679.5,-358.5 679.5,-377.5 798.5,-377.5 798.5,-358.5 679.5,-358.5"/>
<text text-anchor="middle" x="739" y="-365.5" font-family="Helvetica,sans-Serif" font-size="10.00">tvm/node/container.h</text>
</a>
</g>
</g>
<!-- Node13&#45;&gt;Node32 -->
<g id="edge94" class="edge"><title>Node13&#45;&gt;Node32</title>
<path fill="none" stroke="midnightblue" d="M1003.13,-537.372C978.824,-529.537 943.564,-516.803 915,-501 882.203,-482.855 796.247,-414.946 757.919,-384.243"/>
<polygon fill="midnightblue" stroke="midnightblue" points="759.66,-381.152 749.671,-377.621 755.277,-386.611 759.66,-381.152"/>
</g>
<!-- Node34 -->
<g id="node34" class="node"><title>Node34</title>
<g id="a_node34"><a xlink:href="structural__hash_8h.html" target="_top" xlink:title="tvm/node/structural\l_hash.h">
<polygon fill="white" stroke="black" points="1391.5,-414.5 1391.5,-444.5 1502.5,-444.5 1502.5,-414.5 1391.5,-414.5"/>
<text text-anchor="start" x="1399.5" y="-432.5" font-family="Helvetica,sans-Serif" font-size="10.00">tvm/node/structural</text>
<text text-anchor="middle" x="1447" y="-421.5" font-family="Helvetica,sans-Serif" font-size="10.00">_hash.h</text>
</a>
</g>
</g>
<!-- Node13&#45;&gt;Node34 -->
<g id="edge96" class="edge"><title>Node13&#45;&gt;Node34</title>
<path fill="none" stroke="midnightblue" d="M1081.2,-544.975C1142.64,-542.299 1250.13,-532.972 1336,-501 1367.92,-489.116 1400.34,-467.139 1421.83,-450.869"/>
<polygon fill="midnightblue" stroke="midnightblue" points="1424,-453.61 1429.78,-444.729 1419.73,-448.069 1424,-453.61"/>
</g>
<!-- Node35 -->
<g id="node35" class="node"><title>Node35</title>
<g id="a_node35"><a xlink:href="repr__printer_8h.html" target="_top" xlink:title="Printer class to print repr string of each AST/IR nodes. ">
<polygon fill="white" stroke="black" points="406,-481.5 406,-500.5 536,-500.5 536,-481.5 406,-481.5"/>
<text text-anchor="middle" x="471" y="-488.5" font-family="Helvetica,sans-Serif" font-size="10.00">tvm/node/repr_printer.h</text>
</a>
</g>
</g>
<!-- Node13&#45;&gt;Node35 -->
<g id="edge91" class="edge"><title>Node13&#45;&gt;Node35</title>
<path fill="none" stroke="midnightblue" d="M982.707,-541.255C884.342,-531.787 663.137,-510.494 546.412,-499.259"/>
<polygon fill="midnightblue" stroke="midnightblue" points="546.424,-495.744 536.135,-498.27 545.753,-502.712 546.424,-495.744"/>
</g>
<!-- Node14&#45;&gt;Node3 -->
<g id="edge16" class="edge"><title>Node14&#45;&gt;Node3</title>
<path fill="none" stroke="midnightblue" d="M573.579,-181.133C667.826,-170.955 843.907,-151.938 941.12,-141.439"/>
<polygon fill="midnightblue" stroke="midnightblue" points="941.571,-144.911 951.137,-140.357 940.819,-137.951 941.571,-144.911"/>
</g>
<!-- Node14&#45;&gt;Node9 -->
<g id="edge19" class="edge"><title>Node14&#45;&gt;Node9</title>
<path fill="none" stroke="midnightblue" d="M501.734,-179.124C488.349,-165.246 460.541,-138.408 432,-123 393.278,-102.095 344.696,-88.6047 310.115,-80.8736"/>
<polygon fill="midnightblue" stroke="midnightblue" points="310.82,-77.4453 300.306,-78.7509 309.34,-84.287 310.82,-77.4453"/>
</g>
<!-- Node14&#45;&gt;Node11 -->
<g id="edge18" class="edge"><title>Node14&#45;&gt;Node11</title>
<path fill="none" stroke="midnightblue" d="M518.343,-179.319C536.825,-160.088 581.462,-113.641 605.33,-88.8054"/>
<polygon fill="midnightblue" stroke="midnightblue" points="608.154,-90.9174 612.56,-81.282 603.107,-86.0669 608.154,-90.9174"/>
</g>
<!-- Node15 -->
<g id="node15" class="node"><title>Node15</title>
<polygon fill="white" stroke="#bfbfbf" points="486.5,-123.5 486.5,-142.5 533.5,-142.5 533.5,-123.5 486.5,-123.5"/>
<text text-anchor="middle" x="510" y="-130.5" font-family="Helvetica,sans-Serif" font-size="10.00">cstdlib</text>
</g>
<!-- Node14&#45;&gt;Node15 -->
<g id="edge17" class="edge"><title>Node14&#45;&gt;Node15</title>
<path fill="none" stroke="midnightblue" d="M510,-179.083C510,-172.006 510,-161.861 510,-152.986"/>
<polygon fill="midnightblue" stroke="midnightblue" points="513.5,-152.751 510,-142.751 506.5,-152.751 513.5,-152.751"/>
</g>
<!-- Node16&#45;&gt;Node3 -->
<g id="edge22" class="edge"><title>Node16&#45;&gt;Node3</title>
<path fill="none" stroke="midnightblue" d="M1259.68,-481.304C1242.93,-463.872 1205.49,-425.354 1191,-414 1084.69,-330.683 997.952,-372.876 932,-255 915.507,-225.522 915.106,-208.25 932,-179 940.677,-163.977 956.487,-153.523 971.617,-146.499"/>
<polygon fill="midnightblue" stroke="midnightblue" points="973.047,-149.694 980.879,-142.559 970.307,-143.253 973.047,-149.694"/>
</g>
<!-- Node16&#45;&gt;Node5 -->
<g id="edge21" class="edge"><title>Node16&#45;&gt;Node5</title>
<path fill="none" stroke="midnightblue" d="M1327.67,-484.464C1472.34,-470.362 1837.98,-430.462 1948,-378 2018.93,-344.18 2045.76,-327.936 2075,-255 2111.27,-164.523 1974.68,-112.479 1884.55,-88.5911"/>
<polygon fill="midnightblue" stroke="midnightblue" points="1885.18,-85.1386 1874.62,-86.0228 1883.43,-91.9156 1885.18,-85.1386"/>
</g>
<!-- Node16&#45;&gt;Node9 -->
<g id="edge90" class="edge"><title>Node16&#45;&gt;Node9</title>
<path fill="none" stroke="midnightblue" d="M1208.42,-483.811C1136.36,-476.051 1011.49,-461.718 905,-445 692.538,-411.647 614.124,-443.982 437,-322 350.328,-262.311 323.322,-239.785 282,-143 274.845,-126.241 270.659,-105.816 268.376,-91.2726"/>
<polygon fill="midnightblue" stroke="midnightblue" points="271.797,-90.4653 266.933,-81.0531 264.866,-91.4443 271.797,-90.4653"/>
</g>
<!-- Node16&#45;&gt;Node10 -->
<g id="edge89" class="edge"><title>Node16&#45;&gt;Node10</title>
<path fill="none" stroke="midnightblue" d="M1327.59,-488.042C1419.73,-484.218 1602,-473.471 1754,-445 1970.94,-404.365 2209,-466.718 2209,-246 2209,-246 2209,-246 2209,-188 2209,-149.283 2235.07,-110.104 2251.95,-88.7979"/>
<polygon fill="midnightblue" stroke="midnightblue" points="2254.67,-91.0057 2258.31,-81.0574 2249.26,-86.5616 2254.67,-91.0057"/>
</g>
<!-- Node16&#45;&gt;Node14 -->
<g id="edge23" class="edge"><title>Node16&#45;&gt;Node14</title>
<path fill="none" stroke="midnightblue" d="M1228.68,-481.486C1148.27,-464.117 967.327,-425.29 905,-414 801.029,-395.167 772.798,-402.437 670,-378 591.785,-359.407 557.448,-376.122 498,-322 467.861,-294.561 454.282,-273.008 469,-235 473.454,-223.498 482.368,-213.131 490.749,-205.255"/>
<polygon fill="midnightblue" stroke="midnightblue" points="493.237,-207.729 498.459,-198.51 488.628,-202.46 493.237,-207.729"/>
</g>
<!-- Node17 -->
<g id="node17" class="node"><title>Node17</title>
<g id="a_node17"><a xlink:href="packed__func_8h.html" target="_top" xlink:title="Type&#45;erased function used across TVM API. ">
<polygon fill="white" stroke="black" points="1389.5,-291.5 1389.5,-321.5 1502.5,-321.5 1502.5,-291.5 1389.5,-291.5"/>
<text text-anchor="start" x="1397.5" y="-309.5" font-family="Helvetica,sans-Serif" font-size="10.00">tvm/runtime/packed</text>
<text text-anchor="middle" x="1446" y="-298.5" font-family="Helvetica,sans-Serif" font-size="10.00">_func.h</text>
</a>
</g>
</g>
<!-- Node16&#45;&gt;Node17 -->
<g id="edge24" class="edge"><title>Node16&#45;&gt;Node17</title>
<path fill="none" stroke="midnightblue" d="M1276.59,-481.198C1303.34,-453.763 1385.78,-369.247 1424.93,-329.102"/>
<polygon fill="midnightblue" stroke="midnightblue" points="1427.68,-331.297 1432.16,-321.695 1422.67,-326.41 1427.68,-331.297"/>
</g>
<!-- Node16&#45;&gt;Node21 -->
<g id="edge88" class="edge"><title>Node16&#45;&gt;Node21</title>
<path fill="none" stroke="midnightblue" d="M1264.3,-481.454C1257.71,-466.763 1242.91,-436.167 1225,-414 1158.12,-331.239 1112.51,-338.064 1046,-255 1034.31,-240.396 1024.31,-221.477 1017.84,-207.819"/>
<polygon fill="midnightblue" stroke="midnightblue" points="1020.95,-206.201 1013.61,-198.56 1014.58,-209.11 1020.95,-206.201"/>
</g>
<!-- Node23 -->
<g id="node23" class="node"><title>Node23</title>
<g id="a_node23"><a xlink:href="ndarray_8h.html" target="_top" xlink:title="A device&#45;independent managed NDArray abstraction. ">
<polygon fill="white" stroke="black" points="1278.5,-235.5 1278.5,-254.5 1401.5,-254.5 1401.5,-235.5 1278.5,-235.5"/>
<text text-anchor="middle" x="1340" y="-242.5" font-family="Helvetica,sans-Serif" font-size="10.00">tvm/runtime/ndarray.h</text>
</a>
</g>
</g>
<!-- Node16&#45;&gt;Node23 -->
<g id="edge61" class="edge"><title>Node16&#45;&gt;Node23</title>
<path fill="none" stroke="midnightblue" d="M1270.56,-481.316C1280.95,-446.11 1320.06,-313.561 1334.56,-264.452"/>
<polygon fill="midnightblue" stroke="midnightblue" points="1337.99,-265.162 1337.47,-254.58 1331.28,-263.181 1337.99,-265.162"/>
</g>
<!-- Node26 -->
<g id="node26" class="node"><title>Node26</title>
<g id="a_node26"><a xlink:href="data__type_8h.html" target="_top" xlink:title="tvm/runtime/data_type.h">
<polygon fill="white" stroke="black" points="1811,-235.5 1811,-254.5 1947,-254.5 1947,-235.5 1811,-235.5"/>
<text text-anchor="middle" x="1879" y="-242.5" font-family="Helvetica,sans-Serif" font-size="10.00">tvm/runtime/data_type.h</text>
</a>
</g>
</g>
<!-- Node16&#45;&gt;Node26 -->
<g id="edge62" class="edge"><title>Node16&#45;&gt;Node26</title>
<path fill="none" stroke="midnightblue" d="M1283.34,-481.352C1298.53,-472.631 1322.31,-458.555 1342,-445 1360.53,-432.248 1362.2,-424.678 1382,-414 1535.56,-331.162 1737.61,-278.226 1829.58,-256.827"/>
<polygon fill="midnightblue" stroke="midnightblue" points="1830.49,-260.209 1839.45,-254.553 1828.92,-253.387 1830.49,-260.209"/>
</g>
<!-- Node16&#45;&gt;Node30 -->
<g id="edge63" class="edge"><title>Node16&#45;&gt;Node30</title>
<path fill="none" stroke="midnightblue" d="M1247.8,-481.475C1227.45,-472.889 1195.44,-459.383 1169.49,-448.429"/>
<polygon fill="midnightblue" stroke="midnightblue" points="1170.8,-445.186 1160.23,-444.523 1168.08,-451.636 1170.8,-445.186"/>
</g>
<!-- Node16&#45;&gt;Node34 -->
<g id="edge82" class="edge"><title>Node16&#45;&gt;Node34</title>
<path fill="none" stroke="midnightblue" d="M1293.65,-481.475C1320.04,-472.701 1361.9,-458.788 1395.22,-447.712"/>
<polygon fill="midnightblue" stroke="midnightblue" points="1396.43,-450.999 1404.81,-444.523 1394.22,-444.356 1396.43,-450.999"/>
</g>
<!-- Node17&#45;&gt;Node3 -->
<g id="edge52" class="edge"><title>Node17&#45;&gt;Node3</title>
<path fill="none" stroke="midnightblue" d="M1389.3,-292.993C1332.02,-280.176 1250.01,-261.264 1236,-255 1181.75,-230.754 1178.51,-206.826 1126,-179 1100.61,-165.547 1070.3,-153.926 1047.02,-145.865"/>
<polygon fill="midnightblue" stroke="midnightblue" points="1048.11,-142.538 1037.51,-142.634 1045.86,-149.166 1048.11,-142.538"/>
</g>
<!-- Node17&#45;&gt;Node4 -->
<g id="edge25" class="edge"><title>Node17&#45;&gt;Node4</title>
<path fill="none" stroke="midnightblue" d="M1456.2,-291.378C1465.21,-277.089 1475.93,-254.4 1469,-235 1456.86,-200.99 1383.85,-122.297 1351.46,-88.4497"/>
<polygon fill="midnightblue" stroke="midnightblue" points="1353.96,-86.0001 1344.51,-81.2201 1348.92,-90.8532 1353.96,-86.0001"/>
</g>
<!-- Node17&#45;&gt;Node5 -->
<g id="edge26" class="edge"><title>Node17&#45;&gt;Node5</title>
<path fill="none" stroke="midnightblue" d="M1502.7,-293.801C1573.54,-279.165 1685.83,-255.896 1688,-255 1709.08,-246.299 1758.13,-215.378 1774,-199 1794.26,-178.089 1799.56,-170.867 1808,-143 1812.51,-128.105 1813.28,-110.632 1812.92,-96.8074"/>
<polygon fill="midnightblue" stroke="midnightblue" points="1816.4,-96.4425 1812.43,-86.6216 1809.41,-96.7778 1816.4,-96.4425"/>
</g>
<!-- Node17&#45;&gt;Node9 -->
<g id="edge60" class="edge"><title>Node17&#45;&gt;Node9</title>
<path fill="none" stroke="midnightblue" d="M1389.16,-304.923C1258.05,-302.935 924.57,-294.107 649,-255 620.602,-250.97 423.217,-210.634 397,-199 357.662,-181.543 348.718,-173.144 318,-143 301.615,-126.922 286.475,-105.295 276.807,-90.2521"/>
<polygon fill="midnightblue" stroke="midnightblue" points="279.562,-88.0571 271.286,-81.4419 273.631,-91.7741 279.562,-88.0571"/>
</g>
<!-- Node17&#45;&gt;Node10 -->
<g id="edge56" class="edge"><title>Node17&#45;&gt;Node10</title>
<path fill="none" stroke="midnightblue" d="M1502.56,-293.812C1507.44,-292.845 1512.3,-291.896 1517,-291 1607.01,-273.831 1631.98,-280.456 1720,-255 1742.6,-248.465 1747.12,-243.644 1769,-235 1898.66,-183.766 1928.98,-164.717 2062,-123 2121.89,-104.219 2193.41,-87.8751 2233.88,-79.1739"/>
<polygon fill="midnightblue" stroke="midnightblue" points="2234.67,-82.5854 2243.72,-77.0788 2233.21,-75.739 2234.67,-82.5854"/>
</g>
<!-- Node17&#45;&gt;Node11 -->
<g id="edge59" class="edge"><title>Node17&#45;&gt;Node11</title>
<path fill="none" stroke="midnightblue" d="M1389.31,-294.269C1353.72,-286.03 1307.45,-273.107 1269,-255 1222.16,-232.941 1125.53,-141.06 1077,-123 998.632,-93.8335 742.07,-78.5396 652.331,-73.9823"/>
<polygon fill="midnightblue" stroke="midnightblue" points="652.399,-70.4814 642.238,-73.4795 652.051,-77.4728 652.399,-70.4814"/>
</g>
<!-- Node18 -->
<g id="node18" class="node"><title>Node18</title>
<g id="a_node18"><a xlink:href="runtime_2module_8h.html" target="_top" xlink:title="Runtime container of the functions generated by TVM, This is used to support dynamically link...">
<polygon fill="white" stroke="black" points="1555,-235.5 1555,-254.5 1679,-254.5 1679,-235.5 1555,-235.5"/>
<text text-anchor="middle" x="1617" y="-242.5" font-family="Helvetica,sans-Serif" font-size="10.00">tvm/runtime/module.h</text>
</a>
</g>
</g>
<!-- Node17&#45;&gt;Node18 -->
<g id="edge27" class="edge"><title>Node17&#45;&gt;Node18</title>
<path fill="none" stroke="midnightblue" d="M1480.68,-291.399C1508.91,-281.118 1548.6,-267.351 1577.94,-257.682"/>
<polygon fill="midnightblue" stroke="midnightblue" points="1579.04,-261.003 1587.46,-254.571 1576.86,-254.35 1579.04,-261.003"/>
</g>
<!-- Node20 -->
<g id="node20" class="node"><title>Node20</title>
<polygon fill="white" stroke="#bfbfbf" points="1668.5,-179.5 1668.5,-198.5 1725.5,-198.5 1725.5,-179.5 1668.5,-179.5"/>
<text text-anchor="middle" x="1697" y="-186.5" font-family="Helvetica,sans-Serif" font-size="10.00">memory</text>
</g>
<!-- Node17&#45;&gt;Node20 -->
<g id="edge58" class="edge"><title>Node17&#45;&gt;Node20</title>
<path fill="none" stroke="midnightblue" d="M1462.28,-291.478C1481.25,-275.771 1514.09,-250.489 1546,-235 1565.88,-225.352 1620.81,-209.958 1658.63,-199.914"/>
<polygon fill="midnightblue" stroke="midnightblue" points="1659.55,-203.293 1668.32,-197.358 1657.76,-196.524 1659.55,-203.293"/>
</g>
<!-- Node17&#45;&gt;Node21 -->
<g id="edge55" class="edge"><title>Node17&#45;&gt;Node21</title>
<path fill="none" stroke="midnightblue" d="M1389.36,-296.163C1338.77,-287.305 1262.85,-272.729 1198,-255 1141.97,-239.682 1078.42,-216.436 1041.41,-202.29"/>
<polygon fill="midnightblue" stroke="midnightblue" points="1042.29,-198.88 1031.7,-198.556 1039.78,-205.413 1042.29,-198.88"/>
</g>
<!-- Node17&#45;&gt;Node23 -->
<g id="edge37" class="edge"><title>Node17&#45;&gt;Node23</title>
<path fill="none" stroke="midnightblue" d="M1420.88,-291.399C1403.73,-281.773 1381.14,-269.09 1364.19,-259.577"/>
<polygon fill="midnightblue" stroke="midnightblue" points="1365.86,-256.501 1355.42,-254.658 1362.43,-262.605 1365.86,-256.501"/>
</g>
<!-- Node17&#45;&gt;Node26 -->
<g id="edge48" class="edge"><title>Node17&#45;&gt;Node26</title>
<path fill="none" stroke="midnightblue" d="M1502.61,-297.721C1580.7,-286.991 1721.49,-267.643 1806.99,-255.896"/>
<polygon fill="midnightblue" stroke="midnightblue" points="1807.7,-259.331 1817.13,-254.502 1806.75,-252.396 1807.7,-259.331"/>
</g>
<!-- Node27 -->
<g id="node27" class="node"><title>Node27</title>
<polygon fill="white" stroke="#bfbfbf" points="2003.5,-235.5 2003.5,-254.5 2066.5,-254.5 2066.5,-235.5 2003.5,-235.5"/>
<text text-anchor="middle" x="2035" y="-242.5" font-family="Helvetica,sans-Serif" font-size="10.00">functional</text>
</g>
<!-- Node17&#45;&gt;Node27 -->
<g id="edge53" class="edge"><title>Node17&#45;&gt;Node27</title>
<path fill="none" stroke="midnightblue" d="M1502.63,-300.167C1596.78,-291.24 1791.44,-272.52 1956,-255 1968.1,-253.711 1981.24,-252.243 1993.26,-250.871"/>
<polygon fill="midnightblue" stroke="midnightblue" points="1993.95,-254.315 2003.49,-249.698 1993.16,-247.361 1993.95,-254.315"/>
</g>
<!-- Node28 -->
<g id="node28" class="node"><title>Node28</title>
<polygon fill="white" stroke="#bfbfbf" points="1419.5,-235.5 1419.5,-254.5 1460.5,-254.5 1460.5,-235.5 1419.5,-235.5"/>
<text text-anchor="middle" x="1440" y="-242.5" font-family="Helvetica,sans-Serif" font-size="10.00">tuple</text>
</g>
<!-- Node17&#45;&gt;Node28 -->
<g id="edge54" class="edge"><title>Node17&#45;&gt;Node28</title>
<path fill="none" stroke="midnightblue" d="M1444.58,-291.399C1443.78,-283.466 1442.77,-273.458 1441.9,-264.858"/>
<polygon fill="midnightblue" stroke="midnightblue" points="1445.36,-264.256 1440.87,-254.658 1438.39,-264.959 1445.36,-264.256"/>
</g>
<!-- Node29 -->
<g id="node29" class="node"><title>Node29</title>
<polygon fill="white" stroke="#bfbfbf" points="484,-235.5 484,-254.5 526,-254.5 526,-235.5 484,-235.5"/>
<text text-anchor="middle" x="505" y="-242.5" font-family="Helvetica,sans-Serif" font-size="10.00">limits</text>
</g>
<!-- Node17&#45;&gt;Node29 -->
<g id="edge57" class="edge"><title>Node17&#45;&gt;Node29</title>
<path fill="none" stroke="midnightblue" d="M1389.37,-302.448C1255.06,-295.125 906.703,-275.627 616,-255 589.151,-253.095 558.677,-250.6 536.46,-248.721"/>
<polygon fill="midnightblue" stroke="midnightblue" points="536.531,-245.214 526.27,-247.853 535.937,-252.189 536.531,-245.214"/>
</g>
<!-- Node18&#45;&gt;Node3 -->
<g id="edge30" class="edge"><title>Node18&#45;&gt;Node3</title>
<path fill="none" stroke="midnightblue" d="M1568.48,-235.453C1517.54,-226.46 1435.12,-211.854 1364,-199 1258.65,-179.96 1135.76,-157.292 1065.99,-144.38"/>
<polygon fill="midnightblue" stroke="midnightblue" points="1066.56,-140.926 1056.09,-142.548 1065.29,-147.81 1066.56,-140.926"/>
</g>
<!-- Node18&#45;&gt;Node5 -->
<g id="edge29" class="edge"><title>Node18&#45;&gt;Node5</title>
<path fill="none" stroke="midnightblue" d="M1673.62,-235.465C1699.69,-229.098 1729.53,-218.061 1751,-199 1781.79,-171.671 1798.1,-125.136 1805.61,-96.7683"/>
<polygon fill="midnightblue" stroke="midnightblue" points="1809.06,-97.4126 1808.08,-86.8637 1802.27,-95.7245 1809.06,-97.4126"/>
</g>
<!-- Node18&#45;&gt;Node10 -->
<g id="edge34" class="edge"><title>Node18&#45;&gt;Node10</title>
<path fill="none" stroke="midnightblue" d="M1659.17,-235.455C1691.47,-228.075 1736.68,-215.919 1774,-199 1830.81,-173.241 1833.47,-144.578 1892,-123 2012.25,-78.6675 2167.1,-72.5996 2233.46,-72.2038"/>
<polygon fill="midnightblue" stroke="midnightblue" points="2233.7,-75.7034 2243.7,-72.1848 2233.69,-68.7034 2233.7,-75.7034"/>
</g>
<!-- Node18&#45;&gt;Node14 -->
<g id="edge31" class="edge"><title>Node18&#45;&gt;Node14</title>
<path fill="none" stroke="midnightblue" d="M1554.72,-240.021C1528.29,-238.382 1497.15,-236.516 1469,-235 1139.01,-217.225 744.917,-199.99 583.963,-193.121"/>
<polygon fill="midnightblue" stroke="midnightblue" points="583.841,-189.613 573.701,-192.684 583.543,-196.607 583.841,-189.613"/>
</g>
<!-- Node18&#45;&gt;Node17 -->
<g id="edge36" class="edge"><title>Node18&#45;&gt;Node17</title>
<path fill="none" stroke="midnightblue" d="M1597.05,-254.658C1573.84,-263.385 1534.85,-277.099 1502.25,-288.086"/>
<polygon fill="midnightblue" stroke="midnightblue" points="1500.73,-284.903 1492.36,-291.399 1502.96,-291.541 1500.73,-284.903"/>
</g>
<!-- Node19 -->
<g id="node19" class="node"><title>Node19</title>
<polygon fill="white" stroke="#bfbfbf" points="1687,-123.5 1687,-142.5 1747,-142.5 1747,-123.5 1687,-123.5"/>
<text text-anchor="middle" x="1717" y="-130.5" font-family="Helvetica,sans-Serif" font-size="10.00">dmlc/io.h</text>
</g>
<!-- Node18&#45;&gt;Node19 -->
<g id="edge28" class="edge"><title>Node18&#45;&gt;Node19</title>
<path fill="none" stroke="midnightblue" d="M1676.68,-235.432C1698.43,-229.103 1720.88,-218.106 1734,-199 1743.77,-184.782 1736.58,-165.301 1728.76,-151.382"/>
<polygon fill="midnightblue" stroke="midnightblue" points="1731.68,-149.444 1723.45,-142.767 1725.72,-153.117 1731.68,-149.444"/>
</g>
<!-- Node18&#45;&gt;Node20 -->
<g id="edge32" class="edge"><title>Node18&#45;&gt;Node20</title>
<path fill="none" stroke="midnightblue" d="M1629.85,-235.324C1642.22,-226.979 1661.13,-214.212 1675.74,-204.352"/>
<polygon fill="midnightblue" stroke="midnightblue" points="1677.85,-207.15 1684.18,-198.655 1673.93,-201.348 1677.85,-207.15"/>
</g>
<!-- Node18&#45;&gt;Node21 -->
<g id="edge33" class="edge"><title>Node18&#45;&gt;Node21</title>
<path fill="none" stroke="midnightblue" d="M1554.89,-238.475C1427.91,-227.178 1142.29,-201.768 1043.99,-193.024"/>
<polygon fill="midnightblue" stroke="midnightblue" points="1044.02,-189.512 1033.75,-192.112 1043.4,-196.485 1044.02,-189.512"/>
</g>
<!-- Node18&#45;&gt;Node22 -->
<g id="edge35" class="edge"><title>Node18&#45;&gt;Node22</title>
<path fill="none" stroke="midnightblue" d="M1679.22,-240.246C1845.05,-230.24 2295.81,-203.044 2455.21,-193.426"/>
<polygon fill="midnightblue" stroke="midnightblue" points="2455.51,-196.915 2465.29,-192.819 2455.09,-189.927 2455.51,-196.915"/>
</g>
<!-- Node23&#45;&gt;Node3 -->
<g id="edge39" class="edge"><title>Node23&#45;&gt;Node3</title>
<path fill="none" stroke="midnightblue" d="M1318.22,-235.401C1285.14,-222.465 1220.14,-197.543 1164,-179 1126.05,-166.465 1082.27,-153.846 1051.11,-145.175"/>
<polygon fill="midnightblue" stroke="midnightblue" points="1052.03,-141.798 1041.46,-142.503 1050.16,-148.544 1052.03,-141.798"/>
</g>
<!-- Node23&#45;&gt;Node5 -->
<g id="edge38" class="edge"><title>Node23&#45;&gt;Node5</title>
<path fill="none" stroke="midnightblue" d="M1400.41,-235.499C1480.15,-224.108 1611.61,-204.665 1621,-199 1657.15,-177.182 1644.26,-148.387 1678,-123 1697.34,-108.447 1721.36,-97.6353 1743.65,-89.8336"/>
<polygon fill="midnightblue" stroke="midnightblue" points="1745.04,-93.0598 1753.41,-86.5654 1742.81,-86.4222 1745.04,-93.0598"/>
</g>
<!-- Node23&#45;&gt;Node11 -->
<g id="edge47" class="edge"><title>Node23&#45;&gt;Node11</title>
<path fill="none" stroke="midnightblue" d="M1335.91,-235.265C1324.53,-212.1 1290.02,-149.089 1240,-123 1187.62,-95.6799 771.269,-78.1259 652.516,-73.6392"/>
<polygon fill="midnightblue" stroke="midnightblue" points="652.408,-70.1328 642.284,-73.2573 652.147,-77.128 652.408,-70.1328"/>
</g>
<!-- Node23&#45;&gt;Node12 -->
<g id="edge45" class="edge"><title>Node23&#45;&gt;Node12</title>
<path fill="none" stroke="midnightblue" d="M1341.17,-235.247C1343.61,-213.108 1346.67,-154.415 1316,-123 1289.83,-96.1886 1181.95,-81.648 1125.23,-75.7233"/>
<polygon fill="midnightblue" stroke="midnightblue" points="1125.57,-72.2396 1115.26,-74.7163 1124.86,-79.2041 1125.57,-72.2396"/>
</g>
<!-- Node23&#45;&gt;Node21 -->
<g id="edge46" class="edge"><title>Node23&#45;&gt;Node21</title>
<path fill="none" stroke="midnightblue" d="M1287.71,-235.444C1219.27,-224.245 1101.28,-204.937 1043.65,-195.506"/>
<polygon fill="midnightblue" stroke="midnightblue" points="1044.05,-192.025 1033.62,-193.865 1042.92,-198.934 1044.05,-192.025"/>
</g>
<!-- Node24 -->
<g id="node24" class="node"><title>Node24</title>
<g id="a_node24"><a xlink:href="serializer_8h.html" target="_top" xlink:title="Serializer extension to support TVM data types Include this file to enable serialization of DLDataTyp...">
<polygon fill="white" stroke="black" points="1482,-179.5 1482,-198.5 1612,-198.5 1612,-179.5 1482,-179.5"/>
<text text-anchor="middle" x="1547" y="-186.5" font-family="Helvetica,sans-Serif" font-size="10.00">tvm/runtime/serializer.h</text>
</a>
</g>
</g>
<!-- Node23&#45;&gt;Node24 -->
<g id="edge40" class="edge"><title>Node23&#45;&gt;Node24</title>
<path fill="none" stroke="midnightblue" d="M1367.71,-235.444C1401.47,-226.102 1458.75,-211.119 1499.54,-200.933"/>
<polygon fill="midnightblue" stroke="midnightblue" points="1500.41,-204.323 1509.27,-198.516 1498.72,-197.529 1500.41,-204.323"/>
</g>
<!-- Node24&#45;&gt;Node5 -->
<g id="edge43" class="edge"><title>Node24&#45;&gt;Node5</title>
<path fill="none" stroke="midnightblue" d="M1555.61,-179.052C1569.54,-165.076 1598.46,-138.106 1628,-123 1662.05,-105.585 1702.84,-93.5816 1737.25,-85.6622"/>
<polygon fill="midnightblue" stroke="midnightblue" points="1738.24,-89.0267 1747.24,-83.435 1736.72,-82.1943 1738.24,-89.0267"/>
</g>
<!-- Node24&#45;&gt;Node19 -->
<g id="edge41" class="edge"><title>Node24&#45;&gt;Node19</title>
<path fill="none" stroke="midnightblue" d="M1573.94,-179.444C1602.66,-170.32 1648.33,-155.813 1680.32,-145.651"/>
<polygon fill="midnightblue" stroke="midnightblue" points="1681.72,-148.88 1690.19,-142.516 1679.6,-142.208 1681.72,-148.88"/>
</g>
<!-- Node24&#45;&gt;Node23 -->
<g id="edge44" class="edge"><title>Node24&#45;&gt;Node23</title>
<path fill="none" stroke="midnightblue" d="M1519.43,-198.516C1485.74,-207.841 1428.47,-222.823 1387.63,-233.024"/>
<polygon fill="midnightblue" stroke="midnightblue" points="1386.75,-229.636 1377.89,-235.444 1388.44,-236.43 1386.75,-229.636"/>
</g>
<!-- Node25 -->
<g id="node25" class="node"><title>Node25</title>
<polygon fill="white" stroke="#bfbfbf" points="1482,-123.5 1482,-142.5 1576,-142.5 1576,-123.5 1482,-123.5"/>
<text text-anchor="middle" x="1529" y="-130.5" font-family="Helvetica,sans-Serif" font-size="10.00">dmlc/serializer.h</text>
</g>
<!-- Node24&#45;&gt;Node25 -->
<g id="edge42" class="edge"><title>Node24&#45;&gt;Node25</title>
<path fill="none" stroke="midnightblue" d="M1544.03,-179.083C1541.62,-171.849 1538.14,-161.409 1535.13,-152.397"/>
<polygon fill="midnightblue" stroke="midnightblue" points="1538.4,-151.131 1531.92,-142.751 1531.76,-153.345 1538.4,-151.131"/>
</g>
<!-- Node26&#45;&gt;Node4 -->
<g id="edge50" class="edge"><title>Node26&#45;&gt;Node4</title>
<path fill="none" stroke="midnightblue" d="M1810.71,-239.819C1702.38,-232.686 1500.53,-217.159 1473,-199 1440.6,-177.629 1457.74,-150.14 1430,-123 1412.89,-106.265 1389.12,-93.5607 1369.76,-85.0803"/>
<polygon fill="midnightblue" stroke="midnightblue" points="1370.95,-81.786 1360.38,-81.1447 1368.24,-88.2409 1370.95,-81.786"/>
</g>
<!-- Node26&#45;&gt;Node5 -->
<g id="edge49" class="edge"><title>Node26&#45;&gt;Node5</title>
<path fill="none" stroke="midnightblue" d="M1881.19,-235.361C1884.02,-222.69 1887.89,-198.462 1882,-179 1872.1,-146.288 1848.46,-114.439 1831.17,-94.2251"/>
<polygon fill="midnightblue" stroke="midnightblue" points="1833.67,-91.7639 1824.44,-86.5606 1828.41,-96.3835 1833.67,-91.7639"/>
</g>
<!-- Node26&#45;&gt;Node9 -->
<g id="edge51" class="edge"><title>Node26&#45;&gt;Node9</title>
<path fill="none" stroke="midnightblue" d="M1810.71,-238.815C1726.18,-231.935 1577.99,-218.361 1452,-199 1283.92,-173.171 1245.6,-145.226 1077,-123 926.738,-103.191 457.368,-81.0579 310.434,-74.4576"/>
<polygon fill="midnightblue" stroke="midnightblue" points="310.166,-70.9421 300.019,-73.9915 309.853,-77.9351 310.166,-70.9421"/>
</g>
<!-- Node30&#45;&gt;Node10 -->
<g id="edge81" class="edge"><title>Node30&#45;&gt;Node10</title>
<path fill="none" stroke="midnightblue" d="M1182.62,-423.924C1319.07,-411.214 1679.38,-368.623 1956,-255 1981.93,-244.349 2146.67,-136.919 2171,-123 2194.02,-109.829 2220.74,-95.7313 2239.96,-85.7874"/>
<polygon fill="midnightblue" stroke="midnightblue" points="2241.72,-88.8176 2249.01,-81.1276 2238.52,-82.5943 2241.72,-88.8176"/>
</g>
<!-- Node30&#45;&gt;Node26 -->
<g id="edge64" class="edge"><title>Node30&#45;&gt;Node26</title>
<path fill="none" stroke="midnightblue" d="M1182.64,-420.225C1264.56,-406.748 1421.28,-375.987 1545,-322 1568.28,-311.843 1569.28,-300.059 1593,-291 1629.92,-276.901 1729.41,-263.142 1800.67,-254.626"/>
<polygon fill="midnightblue" stroke="midnightblue" points="1801.44,-258.059 1810.96,-253.409 1800.62,-251.107 1801.44,-258.059"/>
</g>
<!-- Node31 -->
<g id="node31" class="node"><title>Node31</title>
<g id="a_node31"><a xlink:href="functor_8h.html" target="_top" xlink:title="Defines the Functor data structures. ">
<polygon fill="white" stroke="black" points="658.5,-235.5 658.5,-254.5 765.5,-254.5 765.5,-235.5 658.5,-235.5"/>
<text text-anchor="middle" x="712" y="-242.5" font-family="Helvetica,sans-Serif" font-size="10.00">tvm/node/functor.h</text>
</a>
</g>
</g>
<!-- Node30&#45;&gt;Node31 -->
<g id="edge65" class="edge"><title>Node30&#45;&gt;Node31</title>
<path fill="none" stroke="midnightblue" d="M1073.62,-414.463C1041.62,-405.409 1000.4,-392.615 965,-378 876.901,-341.628 778.333,-285.376 734.784,-259.665"/>
<polygon fill="midnightblue" stroke="midnightblue" points="736.499,-256.612 726.113,-254.518 732.926,-262.632 736.499,-256.612"/>
</g>
<!-- Node30&#45;&gt;Node32 -->
<g id="edge71" class="edge"><title>Node30&#45;&gt;Node32</title>
<path fill="none" stroke="midnightblue" d="M1071.28,-416.624C1066.46,-415.697 1061.65,-414.809 1057,-414 971.878,-399.176 873.291,-385.811 808.728,-377.569"/>
<polygon fill="midnightblue" stroke="midnightblue" points="809.027,-374.079 798.666,-376.291 808.145,-381.023 809.027,-374.079"/>
</g>
<!-- Node31&#45;&gt;Node3 -->
<g id="edge67" class="edge"><title>Node31&#45;&gt;Node3</title>
<path fill="none" stroke="midnightblue" d="M728.965,-235.404C755.566,-222.143 808.92,-196.407 856,-179 892.422,-165.533 934.846,-153.388 965.933,-145.12"/>
<polygon fill="midnightblue" stroke="midnightblue" points="966.826,-148.504 975.606,-142.574 965.045,-141.734 966.826,-148.504"/>
</g>
<!-- Node31&#45;&gt;Node4 -->
<g id="edge66" class="edge"><title>Node31&#45;&gt;Node4</title>
<path fill="none" stroke="midnightblue" d="M722.516,-235.346C739.079,-222.006 772.598,-196.167 804,-179 862.079,-147.249 877.974,-139.791 942,-123 1061.14,-91.7548 1205.81,-79.5268 1282.4,-74.9889"/>
<polygon fill="midnightblue" stroke="midnightblue" points="1282.96,-78.4627 1292.75,-74.3985 1282.56,-71.4741 1282.96,-78.4627"/>
</g>
<!-- Node31&#45;&gt;Node9 -->
<g id="edge69" class="edge"><title>Node31&#45;&gt;Node9</title>
<path fill="none" stroke="midnightblue" d="M658.363,-236.609C584.154,-226.171 457,-207.445 437,-199 372.597,-171.805 309.933,-115.653 281.655,-88.2439"/>
<polygon fill="midnightblue" stroke="midnightblue" points="283.9,-85.5425 274.318,-81.0227 278.99,-90.5316 283.9,-85.5425"/>
</g>
<!-- Node31&#45;&gt;Node11 -->
<g id="edge70" class="edge"><title>Node31&#45;&gt;Node11</title>
<path fill="none" stroke="midnightblue" d="M707.362,-235.26C693.06,-208.306 649.45,-126.116 630.245,-89.9237"/>
<polygon fill="midnightblue" stroke="midnightblue" points="633.299,-88.2123 625.52,-81.0194 627.116,-91.4934 633.299,-88.2123"/>
</g>
<!-- Node31&#45;&gt;Node21 -->
<g id="edge68" class="edge"><title>Node31&#45;&gt;Node21</title>
<path fill="none" stroke="midnightblue" d="M759.219,-235.444C819.84,-224.459 923.516,-205.672 976.574,-196.057"/>
<polygon fill="midnightblue" stroke="midnightblue" points="977.267,-199.489 986.482,-194.262 976.018,-192.601 977.267,-199.489"/>
</g>
<!-- Node32&#45;&gt;Node3 -->
<g id="edge72" class="edge"><title>Node32&#45;&gt;Node3</title>
<path fill="none" stroke="midnightblue" d="M733.284,-358.262C723.693,-343.803 703.49,-314.192 684,-291 669.643,-273.916 657.394,-275.676 649,-255 645.656,-246.764 643.893,-242.275 649,-235 682.507,-187.268 846.028,-156.867 941.101,-142.925"/>
<polygon fill="midnightblue" stroke="midnightblue" points="941.814,-146.359 951.212,-141.467 940.814,-139.43 941.814,-146.359"/>
</g>
<!-- Node32&#45;&gt;Node9 -->
<g id="edge75" class="edge"><title>Node32&#45;&gt;Node9</title>
<path fill="none" stroke="midnightblue" d="M679.345,-364.545C628.853,-360.48 555.703,-349.817 498,-322 390.245,-270.054 365.809,-240.851 297,-143 285.612,-126.806 277.027,-105.761 271.812,-90.8939"/>
<polygon fill="midnightblue" stroke="midnightblue" points="275.103,-89.6966 268.619,-81.3175 268.462,-91.9112 275.103,-89.6966"/>
</g>
<!-- Node32&#45;&gt;Node10 -->
<g id="edge80" class="edge"><title>Node32&#45;&gt;Node10</title>
<path fill="none" stroke="midnightblue" d="M798.529,-365.814C968.169,-362.116 1446.05,-349.367 1511,-322 1529.84,-314.06 1526.61,-299.949 1545,-291 1631.72,-248.791 1666.89,-283.595 1759,-255 1779.13,-248.751 1782.56,-243.155 1802,-235 1855.63,-212.498 1992.57,-163.489 2047,-143 2070.56,-134.13 2076.17,-131.113 2100,-123 2146.26,-107.254 2200.55,-91.1861 2234.11,-81.5267"/>
<polygon fill="midnightblue" stroke="midnightblue" points="2235.19,-84.8608 2243.83,-78.7421 2233.26,-78.1314 2235.19,-84.8608"/>
</g>
<!-- Node32&#45;&gt;Node11 -->
<g id="edge79" class="edge"><title>Node32&#45;&gt;Node11</title>
<path fill="none" stroke="midnightblue" d="M679.202,-365.39C646.981,-361.082 609.693,-349.812 589,-322 561.739,-285.36 600.382,-142.049 615.439,-90.8263"/>
<polygon fill="midnightblue" stroke="midnightblue" points="618.83,-91.7 618.337,-81.1167 612.123,-89.698 618.83,-91.7"/>
</g>
<!-- Node32&#45;&gt;Node14 -->
<g id="edge73" class="edge"><title>Node32&#45;&gt;Node14</title>
<path fill="none" stroke="midnightblue" d="M679.361,-359.288C642.388,-352.852 594.726,-341.482 556,-322 514.264,-301.004 494.894,-297.272 475,-255 466.955,-237.906 479.779,-218.947 492.107,-205.938"/>
<polygon fill="midnightblue" stroke="midnightblue" points="494.827,-208.172 499.527,-198.677 489.932,-203.169 494.827,-208.172"/>
</g>
<!-- Node32&#45;&gt;Node17 -->
<g id="edge74" class="edge"><title>Node32&#45;&gt;Node17</title>
<path fill="none" stroke="midnightblue" d="M798.669,-361.978C929.718,-350.95 1241.91,-324.676 1379.23,-313.119"/>
<polygon fill="midnightblue" stroke="midnightblue" points="1379.54,-316.606 1389.21,-312.28 1378.95,-309.631 1379.54,-316.606"/>
</g>
<!-- Node32&#45;&gt;Node21 -->
<g id="edge76" class="edge"><title>Node32&#45;&gt;Node21</title>
<path fill="none" stroke="midnightblue" d="M741.559,-358.274C749.026,-334.428 773.141,-267.766 818,-235 865.305,-200.447 935.147,-191.98 976.267,-190.164"/>
<polygon fill="midnightblue" stroke="midnightblue" points="976.441,-193.661 986.319,-189.829 976.207,-186.665 976.441,-193.661"/>
</g>
<!-- Node32&#45;&gt;Node22 -->
<g id="edge78" class="edge"><title>Node32&#45;&gt;Node22</title>
<path fill="none" stroke="midnightblue" d="M798.51,-365.103C932.187,-360.531 1266.38,-347.357 1545,-322 1781.45,-300.48 1839.78,-287.357 2075,-255 2211.77,-236.186 2372.24,-211.695 2455.48,-198.812"/>
<polygon fill="midnightblue" stroke="midnightblue" points="2456.14,-202.251 2465.48,-197.261 2455.06,-195.334 2456.14,-202.251"/>
</g>
<!-- Node33 -->
<g id="node33" class="node"><title>Node33</title>
<polygon fill="white" stroke="#bfbfbf" points="598.5,-297 598.5,-316 675.5,-316 675.5,-297 598.5,-297"/>
<text text-anchor="middle" x="637" y="-304" font-family="Helvetica,sans-Serif" font-size="10.00">initializer_list</text>
</g>
<!-- Node32&#45;&gt;Node33 -->
<g id="edge77" class="edge"><title>Node32&#45;&gt;Node33</title>
<path fill="none" stroke="midnightblue" d="M724.386,-358.475C707.647,-348.711 679.996,-332.581 660.281,-321.081"/>
<polygon fill="midnightblue" stroke="midnightblue" points="661.988,-318.025 651.587,-316.009 658.461,-324.071 661.988,-318.025"/>
</g>
<!-- Node34&#45;&gt;Node10 -->
<g id="edge86" class="edge"><title>Node34&#45;&gt;Node10</title>
<path fill="none" stroke="midnightblue" d="M1502.87,-427.178C1616.26,-423.798 1869.35,-412.516 1948,-378 2092.48,-314.593 2076.96,-227.704 2195,-123 2210.22,-109.496 2229.05,-96.2388 2243.5,-86.6983"/>
<polygon fill="midnightblue" stroke="midnightblue" points="2245.79,-89.3818 2252.27,-81.0003 2241.98,-83.5109 2245.79,-89.3818"/>
</g>
<!-- Node34&#45;&gt;Node26 -->
<g id="edge83" class="edge"><title>Node34&#45;&gt;Node26</title>
<path fill="none" stroke="midnightblue" d="M1502.76,-415.21C1537.35,-406.26 1582.41,-393.312 1621,-378 1710.97,-342.305 1811.42,-285.712 1855.79,-259.79"/>
<polygon fill="midnightblue" stroke="midnightblue" points="1857.78,-262.683 1864.62,-254.6 1854.23,-256.648 1857.78,-262.683"/>
</g>
<!-- Node34&#45;&gt;Node27 -->
<g id="edge87" class="edge"><title>Node34&#45;&gt;Node27</title>
<path fill="none" stroke="midnightblue" d="M1502.89,-427.553C1611.75,-424.897 1847.75,-414.929 1919,-378 1969.86,-351.638 2008.52,-292.931 2025.51,-263.512"/>
<polygon fill="midnightblue" stroke="midnightblue" points="2028.59,-265.181 2030.43,-254.747 2022.48,-261.755 2028.59,-265.181"/>
</g>
<!-- Node34&#45;&gt;Node31 -->
<g id="edge84" class="edge"><title>Node34&#45;&gt;Node31</title>
<path fill="none" stroke="midnightblue" d="M1391.45,-414.708C1250.95,-379.822 883.548,-288.595 756.213,-256.978"/>
<polygon fill="midnightblue" stroke="midnightblue" points="756.954,-253.556 746.405,-254.543 755.267,-260.35 756.954,-253.556"/>
</g>
<!-- Node34&#45;&gt;Node32 -->
<g id="edge85" class="edge"><title>Node34&#45;&gt;Node32</title>
<path fill="none" stroke="midnightblue" d="M1391.44,-423.831C1263.68,-413.094 949.187,-386.664 808.724,-374.86"/>
<polygon fill="midnightblue" stroke="midnightblue" points="808.769,-371.351 798.511,-374.001 808.183,-378.327 808.769,-371.351"/>
</g>
<!-- Node35&#45;&gt;Node31 -->
<g id="edge92" class="edge"><title>Node35&#45;&gt;Node31</title>
<path fill="none" stroke="midnightblue" d="M473.713,-481.429C483.786,-450.954 521.953,-346.692 589,-291 608.59,-274.728 634.582,-264.08 657.624,-257.251"/>
<polygon fill="midnightblue" stroke="midnightblue" points="658.601,-260.612 667.292,-254.552 656.719,-253.87 658.601,-260.612"/>
</g>
<!-- Node36 -->
<g id="node36" class="node"><title>Node36</title>
<polygon fill="white" stroke="#bfbfbf" points="406.5,-420 406.5,-439 465.5,-439 465.5,-420 406.5,-420"/>
<text text-anchor="middle" x="436" y="-427" font-family="Helvetica,sans-Serif" font-size="10.00">iostream</text>
</g>
<!-- Node35&#45;&gt;Node36 -->
<g id="edge93" class="edge"><title>Node35&#45;&gt;Node36</title>
<path fill="none" stroke="midnightblue" d="M465.985,-481.475C460.839,-472.727 452.688,-458.869 446.182,-447.809"/>
<polygon fill="midnightblue" stroke="midnightblue" points="449.092,-445.854 441.005,-439.009 443.059,-449.403 449.092,-445.854"/>
</g>
<!-- Node37&#45;&gt;Node10 -->
<g id="edge141" class="edge"><title>Node37&#45;&gt;Node10</title>
<path fill="none" stroke="midnightblue" d="M2388.08,-877.28C2447.76,-870.489 2547.84,-856.586 2579,-837 2609.4,-817.888 2627,-807.912 2627,-772 2627,-772 2627,-772 2627,-602 2627,-523.929 2665,-508.571 2665,-430.5 2665,-430.5 2665,-430.5 2665,-188 2665,-111.791 2393.03,-82.6916 2298.17,-74.8598"/>
<polygon fill="midnightblue" stroke="midnightblue" points="2298.27,-71.3562 2288.02,-74.0475 2297.71,-78.3339 2298.27,-71.3562"/>
</g>
<!-- Node37&#45;&gt;Node21 -->
<g id="edge142" class="edge"><title>Node37&#45;&gt;Node21</title>
<path fill="none" stroke="midnightblue" d="M2295.91,-876.158C2082.56,-848.364 1191.88,-723.916 974,-557 879.669,-484.735 928.22,-408.336 947,-291 951.038,-265.77 947.016,-257.006 960,-235 967.047,-223.056 978.315,-212.51 988.372,-204.635"/>
<polygon fill="midnightblue" stroke="midnightblue" points="990.463,-207.441 996.415,-198.676 986.296,-201.817 990.463,-207.441"/>
</g>
<!-- Node37&#45;&gt;Node22 -->
<g id="edge143" class="edge"><title>Node37&#45;&gt;Node22</title>
<path fill="none" stroke="midnightblue" d="M2388.17,-881.365C2459.66,-877.667 2589,-858.96 2589,-772 2589,-772 2589,-772 2589,-546 2589,-477.697 2534.17,-271.161 2517.05,-208.331"/>
<polygon fill="midnightblue" stroke="midnightblue" points="2520.41,-207.349 2514.39,-198.629 2513.65,-209.198 2520.41,-207.349"/>
</g>
<!-- Node38 -->
<g id="node38" class="node"><title>Node38</title>
<g id="a_node38"><a xlink:href="ir_2type_8h.html" target="_top" xlink:title="IR/AST nodes for the unified type system in TVM. ">
<polygon fill="white" stroke="black" points="1530.5,-649.5 1530.5,-668.5 1607.5,-668.5 1607.5,-649.5 1530.5,-649.5"/>
<text text-anchor="middle" x="1569" y="-656.5" font-family="Helvetica,sans-Serif" font-size="10.00">tvm/ir/type.h</text>
</a>
</g>
</g>
<!-- Node37&#45;&gt;Node38 -->
<g id="edge103" class="edge"><title>Node37&#45;&gt;Node38</title>
<path fill="none" stroke="midnightblue" d="M2357.78,-873.467C2370.2,-865.769 2386.61,-853.179 2394,-837 2397.7,-828.916 2396.97,-825.377 2394,-817 2372.54,-756.559 2360.04,-734.324 2303,-705 2242.37,-673.831 1771.95,-663.347 1617.76,-660.729"/>
<polygon fill="midnightblue" stroke="midnightblue" points="1617.7,-657.228 1607.64,-660.561 1617.58,-664.227 1617.7,-657.228"/>
</g>
<!-- Node39 -->
<g id="node39" class="node"><title>Node39</title>
<g id="a_node39"><a xlink:href="ir_2expr_8h.html" target="_top" xlink:title="Base expr nodes in TVM. ">
<polygon fill="white" stroke="black" points="1065.5,-705.5 1065.5,-724.5 1142.5,-724.5 1142.5,-705.5 1065.5,-705.5"/>
<text text-anchor="middle" x="1104" y="-712.5" font-family="Helvetica,sans-Serif" font-size="10.00">tvm/ir/expr.h</text>
</a>
</g>
</g>
<!-- Node37&#45;&gt;Node39 -->
<g id="edge110" class="edge"><title>Node37&#45;&gt;Node39</title>
<path fill="none" stroke="midnightblue" d="M2295.83,-881.627C2103.15,-879.858 1368.62,-870.928 1271,-837 1206.98,-814.748 1146.32,-759.236 1119.06,-731.825"/>
<polygon fill="midnightblue" stroke="midnightblue" points="1121.48,-729.297 1111.99,-724.588 1116.47,-734.188 1121.48,-729.297"/>
</g>
<!-- Node41 -->
<g id="node41" class="node"><title>Node41</title>
<g id="a_node41"><a xlink:href="ir_2function_8h.html" target="_top" xlink:title="Function nodes. ">
<polygon fill="white" stroke="black" points="2123.5,-817.5 2123.5,-836.5 2218.5,-836.5 2218.5,-817.5 2123.5,-817.5"/>
<text text-anchor="middle" x="2171" y="-824.5" font-family="Helvetica,sans-Serif" font-size="10.00">tvm/ir/function.h</text>
</a>
</g>
</g>
<!-- Node37&#45;&gt;Node41 -->
<g id="edge120" class="edge"><title>Node37&#45;&gt;Node41</title>
<path fill="none" stroke="midnightblue" d="M2314.9,-873.444C2286.01,-864.32 2240.08,-849.813 2207.89,-839.651"/>
<polygon fill="midnightblue" stroke="midnightblue" points="2208.56,-836.19 2197.97,-836.516 2206.45,-842.865 2208.56,-836.19"/>
</g>
<!-- Node44 -->
<g id="node44" class="node"><title>Node44</title>
<g id="a_node44"><a xlink:href="ir_2adt_8h.html" target="_top" xlink:title="Algebraic data type definitions. ">
<polygon fill="white" stroke="black" points="1068,-761.5 1068,-780.5 1140,-780.5 1140,-761.5 1068,-761.5"/>
<text text-anchor="middle" x="1104" y="-768.5" font-family="Helvetica,sans-Serif" font-size="10.00">tvm/ir/adt.h</text>
</a>
</g>
</g>
<!-- Node37&#45;&gt;Node44 -->
<g id="edge134" class="edge"><title>Node37&#45;&gt;Node44</title>
<path fill="none" stroke="midnightblue" d="M2295.99,-881.283C2099.61,-878.064 1336.87,-863.927 1233,-837 1192.32,-826.453 1149.61,-801.859 1124.97,-786.129"/>
<polygon fill="midnightblue" stroke="midnightblue" points="1126.74,-783.106 1116.45,-780.582 1122.92,-788.972 1126.74,-783.106"/>
</g>
<!-- Node45 -->
<g id="node45" class="node"><title>Node45</title>
<polygon fill="white" stroke="#bfbfbf" points="2299,-817.5 2299,-836.5 2385,-836.5 2385,-817.5 2299,-817.5"/>
<text text-anchor="middle" x="2342" y="-824.5" font-family="Helvetica,sans-Serif" font-size="10.00">unordered_set</text>
</g>
<!-- Node37&#45;&gt;Node45 -->
<g id="edge144" class="edge"><title>Node37&#45;&gt;Node45</title>
<path fill="none" stroke="midnightblue" d="M2342,-873.083C2342,-866.006 2342,-855.861 2342,-846.986"/>
<polygon fill="midnightblue" stroke="midnightblue" points="2345.5,-846.751 2342,-836.751 2338.5,-846.751 2345.5,-846.751"/>
</g>
<!-- Node38&#45;&gt;Node2 -->
<g id="edge108" class="edge"><title>Node38&#45;&gt;Node2</title>
<path fill="none" stroke="midnightblue" d="M1569,-649.083C1569,-642.006 1569,-631.861 1569,-622.986"/>
<polygon fill="midnightblue" stroke="midnightblue" points="1572.5,-622.751 1569,-612.751 1565.5,-622.751 1572.5,-622.751"/>
</g>
<!-- Node38&#45;&gt;Node3 -->
<g id="edge104" class="edge"><title>Node38&#45;&gt;Node3</title>
<path fill="none" stroke="midnightblue" d="M1607.76,-656.785C1716.91,-652.321 2019,-632.346 2019,-548 2019,-548 2019,-548 2019,-490 2019,-196.349 1645.57,-447.307 1380,-322 1358.69,-311.947 1358.33,-301.014 1337,-291 1279.24,-263.874 1256.46,-280.593 1198,-255 1163.21,-239.769 1071.75,-177.114 1030.59,-148.443"/>
<polygon fill="midnightblue" stroke="midnightblue" points="1032.36,-145.412 1022.16,-142.556 1028.35,-151.151 1032.36,-145.412"/>
</g>
<!-- Node38&#45;&gt;Node10 -->
<g id="edge109" class="edge"><title>Node38&#45;&gt;Node10</title>
<path fill="none" stroke="midnightblue" d="M1607.72,-656.712C1709.33,-652.982 1981.62,-640.629 2067,-613 2129.95,-592.63 2137.61,-569.92 2195,-537 2271.03,-493.384 2361,-518.156 2361,-430.5 2361,-430.5 2361,-430.5 2361,-188 2361,-143.018 2317.49,-106.021 2289.36,-86.8025"/>
<polygon fill="midnightblue" stroke="midnightblue" points="2291.12,-83.7713 2280.84,-81.2 2287.28,-89.6196 2291.12,-83.7713"/>
</g>
<!-- Node38&#45;&gt;Node13 -->
<g id="edge106" class="edge"><title>Node38&#45;&gt;Node13</title>
<path fill="none" stroke="midnightblue" d="M1536.74,-649.468C1486.27,-636.291 1385.44,-610.668 1299,-593 1228.04,-578.497 1145.78,-565.152 1091.53,-556.824"/>
<polygon fill="midnightblue" stroke="midnightblue" points="1091.81,-553.326 1081.4,-555.277 1090.76,-560.246 1091.81,-553.326"/>
</g>
<!-- Node38&#45;&gt;Node26 -->
<g id="edge105" class="edge"><title>Node38&#45;&gt;Node26</title>
<path fill="none" stroke="midnightblue" d="M1607.67,-657.68C1705.12,-656.335 1958.31,-649.34 2033,-613 2068.9,-595.532 2095,-587.923 2095,-548 2095,-548 2095,-548 2095,-428.5 2095,-335.957 1977.88,-280.748 1916.13,-258.07"/>
<polygon fill="midnightblue" stroke="midnightblue" points="1916.95,-254.648 1906.36,-254.584 1914.6,-261.241 1916.95,-254.648"/>
</g>
<!-- Node38&#45;&gt;Node32 -->
<g id="edge107" class="edge"><title>Node38&#45;&gt;Node32</title>
<path fill="none" stroke="midnightblue" d="M1530.43,-656.557C1433.7,-651.865 1174.2,-632.618 974,-557 885.856,-523.707 862.749,-509.431 794,-445 775.498,-427.66 759.159,-403.302 749.194,-386.876"/>
<polygon fill="midnightblue" stroke="midnightblue" points="751.943,-384.646 743.851,-377.806 745.911,-388.199 751.943,-384.646"/>
</g>
<!-- Node39&#45;&gt;Node2 -->
<g id="edge114" class="edge"><title>Node39&#45;&gt;Node2</title>
<path fill="none" stroke="midnightblue" d="M1140.1,-705.46C1223.71,-685.682 1430.52,-636.758 1523.02,-614.878"/>
<polygon fill="midnightblue" stroke="midnightblue" points="1524,-618.243 1532.92,-612.535 1522.38,-611.431 1524,-618.243"/>
</g>
<!-- Node39&#45;&gt;Node3 -->
<g id="edge111" class="edge"><title>Node39&#45;&gt;Node3</title>
<path fill="none" stroke="midnightblue" d="M1065.27,-713.751C940.567,-712.584 550.713,-705.993 431,-669 343.429,-641.939 264,-639.657 264,-548 264,-548 264,-548 264,-490 264,-331.831 303.903,-264.454 437,-179 478.522,-152.341 797.96,-140.013 941.057,-135.786"/>
<polygon fill="midnightblue" stroke="midnightblue" points="941.568,-139.273 951.462,-135.484 941.365,-132.276 941.568,-139.273"/>
</g>
<!-- Node39&#45;&gt;Node9 -->
<g id="edge119" class="edge"><title>Node39&#45;&gt;Node9</title>
<path fill="none" stroke="midnightblue" d="M1065.24,-714.009C931.582,-713.678 490.719,-709.471 356,-669 211.374,-625.553 114,-581.511 114,-430.5 114,-430.5 114,-430.5 114,-367 114,-308.004 77.1333,-289.384 100,-235 129.109,-165.77 203.706,-111.274 242.211,-86.7079"/>
<polygon fill="midnightblue" stroke="midnightblue" points="244.541,-89.3793 251.173,-81.1166 240.836,-83.4404 244.541,-89.3793"/>
</g>
<!-- Node39&#45;&gt;Node10 -->
<g id="edge116" class="edge"><title>Node39&#45;&gt;Node10</title>
<path fill="none" stroke="midnightblue" d="M1142.51,-710.077C1158.71,-708.456 1177.77,-706.589 1195,-705 1599.35,-667.718 1713.79,-725.347 2104,-613 2117.85,-609.012 2326.54,-509.745 2338,-501 2370.94,-475.86 2399,-471.934 2399,-430.5 2399,-430.5 2399,-430.5 2399,-188 2399,-134.575 2337.07,-100.279 2297.72,-83.8839"/>
<polygon fill="midnightblue" stroke="midnightblue" points="2298.85,-80.5629 2288.26,-80.1005 2296.25,-87.0627 2298.85,-80.5629"/>
</g>
<!-- Node39&#45;&gt;Node13 -->
<g id="edge112" class="edge"><title>Node39&#45;&gt;Node13</title>
<path fill="none" stroke="midnightblue" d="M1102.07,-705.404C1099.1,-692.786 1092.92,-668.623 1085,-649 1072.69,-618.527 1054.07,-585.117 1042.49,-565.385"/>
<polygon fill="midnightblue" stroke="midnightblue" points="1045.41,-563.443 1037.29,-556.635 1039.39,-567.019 1045.41,-563.443"/>
</g>
<!-- Node39&#45;&gt;Node29 -->
<g id="edge118" class="edge"><title>Node39&#45;&gt;Node29</title>
<path fill="none" stroke="midnightblue" d="M1065.33,-712.556C910.019,-706.255 340,-678.081 340,-604 340,-604 340,-604 340,-490 340,-387.166 441.813,-295.33 485.486,-260.666"/>
<polygon fill="midnightblue" stroke="midnightblue" points="487.655,-263.413 493.398,-254.51 483.356,-257.889 487.655,-263.413"/>
</g>
<!-- Node39&#45;&gt;Node32 -->
<g id="edge113" class="edge"><title>Node39&#45;&gt;Node32</title>
<path fill="none" stroke="midnightblue" d="M1065.28,-710.618C971.347,-701.349 739,-671.59 739,-604 739,-604 739,-604 739,-490 739,-453.714 739,-411.307 739,-387.559"/>
<polygon fill="midnightblue" stroke="midnightblue" points="742.5,-387.509 739,-377.509 735.5,-387.509 742.5,-387.509"/>
</g>
<!-- Node39&#45;&gt;Node38 -->
<g id="edge115" class="edge"><title>Node39&#45;&gt;Node38</title>
<path fill="none" stroke="midnightblue" d="M1142.75,-707.147C1147.54,-706.38 1152.38,-705.644 1157,-705 1287.68,-686.784 1442.54,-671.575 1519.89,-664.412"/>
<polygon fill="midnightblue" stroke="midnightblue" points="1520.64,-667.858 1530.28,-663.455 1520,-660.887 1520.64,-667.858"/>
</g>
<!-- Node40 -->
<g id="node40" class="node"><title>Node40</title>
<polygon fill="white" stroke="#bfbfbf" points="1014,-649.5 1014,-668.5 1076,-668.5 1076,-649.5 1014,-649.5"/>
<text text-anchor="middle" x="1045" y="-656.5" font-family="Helvetica,sans-Serif" font-size="10.00">algorithm</text>
</g>
<!-- Node39&#45;&gt;Node40 -->
<g id="edge117" class="edge"><title>Node39&#45;&gt;Node40</title>
<path fill="none" stroke="midnightblue" d="M1094.52,-705.324C1085.8,-697.341 1072.66,-685.313 1062.1,-675.653"/>
<polygon fill="midnightblue" stroke="midnightblue" points="1064.39,-673.004 1054.65,-668.834 1059.67,-678.167 1064.39,-673.004"/>
</g>
<!-- Node41&#45;&gt;Node9 -->
<g id="edge132" class="edge"><title>Node41&#45;&gt;Node9</title>
<path fill="none" stroke="midnightblue" d="M2123.38,-826.153C1805.18,-826.876 0,-826.122 0,-716 0,-716 0,-716 0,-188 0,-92.5523 145.882,-75.1305 221.577,-72.5152"/>
<polygon fill="midnightblue" stroke="midnightblue" points="221.869,-76.0087 231.77,-72.2379 221.678,-69.0113 221.869,-76.0087"/>
</g>
<!-- Node41&#45;&gt;Node10 -->
<g id="edge133" class="edge"><title>Node41&#45;&gt;Node10</title>
<path fill="none" stroke="midnightblue" d="M2218.74,-822.267C2320.8,-812.972 2551,-784.423 2551,-716 2551,-716 2551,-716 2551,-546 2551,-460.388 2627,-454.612 2627,-369 2627,-369 2627,-369 2627,-188 2627,-119.234 2386.38,-85.7664 2298.03,-75.7958"/>
<polygon fill="midnightblue" stroke="midnightblue" points="2298.36,-72.3111 2288.04,-74.6956 2297.6,-79.2691 2298.36,-72.3111"/>
</g>
<!-- Node41&#45;&gt;Node39 -->
<g id="edge121" class="edge"><title>Node41&#45;&gt;Node39</title>
<path fill="none" stroke="midnightblue" d="M2123.43,-821.096C1946.98,-802.905 1330.96,-739.398 1152.68,-721.019"/>
<polygon fill="midnightblue" stroke="midnightblue" points="1152.86,-717.519 1142.56,-719.975 1152.14,-724.482 1152.86,-717.519"/>
</g>
<!-- Node42 -->
<g id="node42" class="node"><title>Node42</title>
<g id="a_node42"><a xlink:href="ir_2attrs_8h.html" target="_top" xlink:title="Helpers for attribute objects. ">
<polygon fill="white" stroke="black" points="2131.5,-761.5 2131.5,-780.5 2210.5,-780.5 2210.5,-761.5 2131.5,-761.5"/>
<text text-anchor="middle" x="2171" y="-768.5" font-family="Helvetica,sans-Serif" font-size="10.00">tvm/ir/attrs.h</text>
</a>
</g>
</g>
<!-- Node41&#45;&gt;Node42 -->
<g id="edge122" class="edge"><title>Node41&#45;&gt;Node42</title>
<path fill="none" stroke="midnightblue" d="M2171,-817.083C2171,-810.006 2171,-799.861 2171,-790.986"/>
<polygon fill="midnightblue" stroke="midnightblue" points="2174.5,-790.751 2171,-780.751 2167.5,-790.751 2174.5,-790.751"/>
</g>
<!-- Node42&#45;&gt;Node9 -->
<g id="edge129" class="edge"><title>Node42&#45;&gt;Node9</title>
<path fill="none" stroke="midnightblue" d="M2131.32,-769.57C1920.93,-767.182 934.02,-754.561 630,-725 362.71,-699.01 38,-872.551 38,-604 38,-604 38,-604 38,-188 38,-106.499 155.368,-82.492 221.686,-75.4321"/>
<polygon fill="midnightblue" stroke="midnightblue" points="222.254,-78.8935 231.866,-74.4384 221.573,-71.9266 222.254,-78.8935"/>
</g>
<!-- Node42&#45;&gt;Node10 -->
<g id="edge130" class="edge"><title>Node42&#45;&gt;Node10</title>
<path fill="none" stroke="midnightblue" d="M2210.57,-768.734C2300.59,-763.534 2513,-737.154 2513,-604 2513,-604 2513,-604 2513,-428.5 2513,-314.949 2628.53,-275.074 2568,-179 2509.89,-86.7652 2363.62,-73.3436 2298.34,-72.1135"/>
<polygon fill="midnightblue" stroke="midnightblue" points="2298.25,-68.6125 2288.21,-72.0099 2298.18,-75.6121 2298.25,-68.6125"/>
</g>
<!-- Node42&#45;&gt;Node11 -->
<g id="edge131" class="edge"><title>Node42&#45;&gt;Node11</title>
<path fill="none" stroke="midnightblue" d="M2131.11,-769.058C1880.61,-762.976 529.503,-727.63 356,-669 223.855,-624.345 152,-569.986 152,-430.5 152,-430.5 152,-430.5 152,-367 152,-224.5 234.151,-189.845 360,-123 435.536,-82.8787 538.483,-74.3815 589.572,-72.7478"/>
<polygon fill="midnightblue" stroke="midnightblue" points="589.75,-76.2445 599.658,-72.4944 589.574,-69.2467 589.75,-76.2445"/>
</g>
<!-- Node42&#45;&gt;Node17 -->
<g id="edge125" class="edge"><title>Node42&#45;&gt;Node17</title>
<path fill="none" stroke="midnightblue" d="M2172.28,-761.09C2174.44,-748.082 2179.61,-723.437 2190,-705 2200.66,-686.091 2211.7,-687.529 2223,-669 2239.04,-642.711 2247,-634.795 2247,-604 2247,-604 2247,-604 2247,-490 2247,-339.884 1705.42,-313.247 1512.91,-308.52"/>
<polygon fill="midnightblue" stroke="midnightblue" points="1512.72,-305.015 1502.64,-308.28 1512.56,-312.013 1512.72,-305.015"/>
</g>
<!-- Node42&#45;&gt;Node21 -->
<g id="edge127" class="edge"><title>Node42&#45;&gt;Node21</title>
<path fill="none" stroke="midnightblue" d="M2131.24,-767.963C2028.19,-761.806 1744.92,-739.269 1521,-669 1304.42,-601.033 1200.99,-624.468 1062,-445 1005.76,-372.377 1006.05,-254.279 1008.55,-208.735"/>
<polygon fill="midnightblue" stroke="midnightblue" points="1012.06,-208.777 1009.22,-198.569 1005.07,-208.318 1012.06,-208.777"/>
</g>
<!-- Node42&#45;&gt;Node22 -->
<g id="edge126" class="edge"><title>Node42&#45;&gt;Node22</title>
<path fill="none" stroke="midnightblue" d="M2210.52,-766.749C2244.09,-762.19 2291.96,-751.25 2325,-725 2440.01,-633.629 2475,-577.389 2475,-430.5 2475,-430.5 2475,-430.5 2475,-305.5 2475,-269.509 2491.5,-230.088 2502.46,-207.863"/>
<polygon fill="midnightblue" stroke="midnightblue" points="2505.72,-209.176 2507.16,-198.68 2499.49,-205.984 2505.72,-209.176"/>
</g>
<!-- Node42&#45;&gt;Node27 -->
<g id="edge128" class="edge"><title>Node42&#45;&gt;Node27</title>
<path fill="none" stroke="midnightblue" d="M2210.75,-766.064C2239.99,-761.132 2278.72,-750.021 2303,-725 2324.05,-703.309 2323,-690.225 2323,-660 2323,-660 2323,-660 2323,-490 2323,-360.334 2150.95,-285.345 2072.81,-257.973"/>
<polygon fill="midnightblue" stroke="midnightblue" points="2073.47,-254.5 2062.88,-254.574 2071.2,-261.123 2073.47,-254.5"/>
</g>
<!-- Node42&#45;&gt;Node39 -->
<g id="edge124" class="edge"><title>Node42&#45;&gt;Node39</title>
<path fill="none" stroke="midnightblue" d="M2131.44,-767.998C1966.52,-759.652 1333.92,-727.636 1152.75,-718.467"/>
<polygon fill="midnightblue" stroke="midnightblue" points="1152.88,-714.969 1142.71,-717.959 1152.52,-721.96 1152.88,-714.969"/>
</g>
<!-- Node43 -->
<g id="node43" class="node"><title>Node43</title>
<polygon fill="white" stroke="#bfbfbf" points="2199.5,-705.5 2199.5,-724.5 2294.5,-724.5 2294.5,-705.5 2199.5,-705.5"/>
<text text-anchor="middle" x="2247" y="-712.5" font-family="Helvetica,sans-Serif" font-size="10.00">dmlc/common.h</text>
</g>
<!-- Node42&#45;&gt;Node43 -->
<g id="edge123" class="edge"><title>Node42&#45;&gt;Node43</title>
<path fill="none" stroke="midnightblue" d="M2183.21,-761.324C2194.78,-753.107 2212.38,-740.602 2226.16,-730.807"/>
<polygon fill="midnightblue" stroke="midnightblue" points="2228.44,-733.479 2234.57,-724.834 2224.39,-727.773 2228.44,-733.479"/>
</g>
<!-- Node44&#45;&gt;Node3 -->
<g id="edge135" class="edge"><title>Node44&#45;&gt;Node3</title>
<path fill="none" stroke="midnightblue" d="M1067.71,-770.007C885.176,-769.576 76,-761.917 76,-660 76,-660 76,-660 76,-367 76,-198.974 243.345,-228.22 404,-179 502.555,-148.806 803.74,-138.488 940.79,-135.295"/>
<polygon fill="midnightblue" stroke="midnightblue" points="941.243,-138.786 951.161,-135.06 941.084,-131.787 941.243,-138.786"/>
</g>
<!-- Node44&#45;&gt;Node10 -->
<g id="edge140" class="edge"><title>Node44&#45;&gt;Node10</title>
<path fill="none" stroke="midnightblue" d="M1140.35,-768.785C1353.99,-760.683 2437,-706.029 2437,-430.5 2437,-430.5 2437,-430.5 2437,-188 2437,-121.61 2347.39,-90.8136 2297.91,-78.8691"/>
<polygon fill="midnightblue" stroke="midnightblue" points="2298.53,-75.4219 2288.01,-76.6004 2296.97,-82.2451 2298.53,-75.4219"/>
</g>
<!-- Node44&#45;&gt;Node13 -->
<g id="edge136" class="edge"><title>Node44&#45;&gt;Node13</title>
<path fill="none" stroke="midnightblue" d="M1089.91,-761.275C1066.76,-745.974 1021.58,-711.819 1005,-669 991.334,-633.698 1009.19,-589.792 1021.7,-565.766"/>
<polygon fill="midnightblue" stroke="midnightblue" points="1024.9,-567.22 1026.63,-556.769 1018.76,-563.857 1024.9,-567.22"/>
</g>
<!-- Node44&#45;&gt;Node32 -->
<g id="edge137" class="edge"><title>Node44&#45;&gt;Node32</title>
<path fill="none" stroke="midnightblue" d="M1067.87,-762.453C988.696,-743.746 800.957,-687.017 725,-557 692.981,-502.193 717.51,-422.531 731.285,-387.127"/>
<polygon fill="midnightblue" stroke="midnightblue" points="734.619,-388.219 735.14,-377.637 728.134,-385.584 734.619,-388.219"/>
</g>
<!-- Node44&#45;&gt;Node38 -->
<g id="edge139" class="edge"><title>Node44&#45;&gt;Node38</title>
<path fill="none" stroke="midnightblue" d="M1112.65,-761.472C1127.84,-747.067 1160.97,-718.199 1195,-705 1253.23,-682.417 1432.73,-668.484 1520.15,-662.863"/>
<polygon fill="midnightblue" stroke="midnightblue" points="1520.58,-666.343 1530.34,-662.219 1520.14,-659.357 1520.58,-666.343"/>
</g>
<!-- Node44&#45;&gt;Node39 -->
<g id="edge138" class="edge"><title>Node44&#45;&gt;Node39</title>
<path fill="none" stroke="midnightblue" d="M1104,-761.083C1104,-754.006 1104,-743.861 1104,-734.986"/>
<polygon fill="midnightblue" stroke="midnightblue" points="1107.5,-734.751 1104,-724.751 1100.5,-734.751 1107.5,-734.751"/>
</g>
</g>
</svg>
