<?xml version="1.0" encoding="UTF-8" standalone="no"?>
<!DOCTYPE svg PUBLIC "-//W3C//DTD SVG 1.1//EN"
 "http://www.w3.org/Graphics/SVG/1.1/DTD/svg11.dtd">
<!-- Generated by graphviz version 2.38.0 (20140413.2041)
 -->
<!-- Title: topi/include/topi/nn/flatten.h Pages: 1 -->
<svg width="3311pt" height="1147pt"
 viewBox="0.00 0.00 3311.00 1147.00" xmlns="http://www.w3.org/2000/svg" xmlns:xlink="http://www.w3.org/1999/xlink">
<g id="graph0" class="graph" transform="scale(1 1) rotate(0) translate(4 1143)">
<title>topi/include/topi/nn/flatten.h</title>
<polygon fill="white" stroke="none" points="-4,4 -4,-1143 3307,-1143 3307,4 -4,4"/>
<!-- Node1 -->
<g id="node1" class="node"><title>Node1</title>
<polygon fill="#bfbfbf" stroke="black" points="3108.5,-1108.5 3108.5,-1138.5 3215.5,-1138.5 3215.5,-1108.5 3108.5,-1108.5"/>
<text text-anchor="start" x="3116.5" y="-1126.5" font-family="Helvetica,sans-Serif" font-size="10.00">topi/include/topi/nn</text>
<text text-anchor="middle" x="3162" y="-1115.5" font-family="Helvetica,sans-Serif" font-size="10.00">/flatten.h</text>
</g>
<!-- Node2 -->
<g id="node2" class="node"><title>Node2</title>
<g id="a_node2"><a xlink:href="operation_8h.html" target="_top" xlink:title="Operation node can generate one or multiple Tensors. ">
<polygon fill="white" stroke="black" points="1851,-985.5 1851,-1004.5 1957,-1004.5 1957,-985.5 1851,-985.5"/>
<text text-anchor="middle" x="1904" y="-992.5" font-family="Helvetica,sans-Serif" font-size="10.00">tvm/te/operation.h</text>
</a>
</g>
</g>
<!-- Node1&#45;&gt;Node2 -->
<g id="edge1" class="edge"><title>Node1&#45;&gt;Node2</title>
<path fill="none" stroke="midnightblue" d="M3108.35,-1117.1C2905.45,-1096.7 2185.54,-1024.31 1967.22,-1002.36"/>
<polygon fill="midnightblue" stroke="midnightblue" points="1967.51,-998.869 1957.21,-1001.35 1966.81,-1005.83 1967.51,-998.869"/>
</g>
<!-- Node14 -->
<g id="node14" class="node"><title>Node14</title>
<polygon fill="white" stroke="#bfbfbf" points="2786,-62 2786,-81 2830,-81 2830,-62 2786,-62"/>
<text text-anchor="middle" x="2808" y="-69" font-family="Helvetica,sans-Serif" font-size="10.00">string</text>
</g>
<!-- Node1&#45;&gt;Node14 -->
<g id="edge190" class="edge"><title>Node1&#45;&gt;Node14</title>
<path fill="none" stroke="midnightblue" d="M3170.68,-1108.29C3183.75,-1085.48 3207,-1038.89 3207,-996 3207,-996 3207,-996 3207,-193.5 3207,-154.828 3189.08,-143.026 3156,-123 3103.23,-91.0602 2916.96,-78.0793 2840.81,-74.0271"/>
<polygon fill="midnightblue" stroke="midnightblue" points="2840.57,-70.5102 2830.4,-73.4928 2840.21,-77.501 2840.57,-70.5102"/>
</g>
<!-- Node21 -->
<g id="node21" class="node"><title>Node21</title>
<polygon fill="white" stroke="#bfbfbf" points="2290.5,-123.5 2290.5,-142.5 2337.5,-142.5 2337.5,-123.5 2290.5,-123.5"/>
<text text-anchor="middle" x="2314" y="-130.5" font-family="Helvetica,sans-Serif" font-size="10.00">vector</text>
</g>
<!-- Node1&#45;&gt;Node21 -->
<g id="edge191" class="edge"><title>Node1&#45;&gt;Node21</title>
<path fill="none" stroke="midnightblue" d="M3158.69,-1108.32C3154.85,-1092.03 3148.25,-1064.52 3142,-1041 3090.14,-845.758 3017,-806.012 3017,-604 3017,-604 3017,-604 3017,-546 3017,-402.193 2614.66,-239.065 2484,-179 2439.13,-158.372 2383.08,-145.845 2347.91,-139.418"/>
<polygon fill="midnightblue" stroke="midnightblue" points="2348.15,-135.907 2337.69,-137.617 2346.93,-142.801 2348.15,-135.907"/>
</g>
<!-- Node44 -->
<g id="node44" class="node"><title>Node44</title>
<g id="a_node44"><a xlink:href="tags_8h.html" target="_top" xlink:title="External function interface to rocBLAS libraries. ">
<polygon fill="white" stroke="black" points="3235,-481.5 3235,-500.5 3303,-500.5 3303,-481.5 3235,-481.5"/>
<text text-anchor="middle" x="3269" y="-488.5" font-family="Helvetica,sans-Serif" font-size="10.00">topi/tags.h</text>
</a>
</g>
</g>
<!-- Node1&#45;&gt;Node44 -->
<g id="edge162" class="edge"><title>Node1&#45;&gt;Node44</title>
<path fill="none" stroke="midnightblue" d="M3182.61,-1108.39C3210.55,-1087.42 3257,-1045.16 3257,-996 3257,-996 3257,-996 3257,-602 3257,-569.758 3262.16,-532.512 3265.71,-510.681"/>
<polygon fill="midnightblue" stroke="midnightblue" points="3269.21,-510.967 3267.43,-500.523 3262.31,-509.798 3269.21,-510.967"/>
</g>
<!-- Node45 -->
<g id="node45" class="node"><title>Node45</title>
<g id="a_node45"><a xlink:href="constant__utils_8h.html" target="_top" xlink:title="Utility functions for handling constants in TVM expressions. ">
<polygon fill="white" stroke="black" points="3024.5,-1041.5 3024.5,-1071.5 3133.5,-1071.5 3133.5,-1041.5 3024.5,-1041.5"/>
<text text-anchor="start" x="3032.5" y="-1059.5" font-family="Helvetica,sans-Serif" font-size="10.00">topi/detail/constant</text>
<text text-anchor="middle" x="3079" y="-1048.5" font-family="Helvetica,sans-Serif" font-size="10.00">_utils.h</text>
</a>
</g>
</g>
<!-- Node1&#45;&gt;Node45 -->
<g id="edge164" class="edge"><title>Node1&#45;&gt;Node45</title>
<path fill="none" stroke="midnightblue" d="M3143.99,-1108.4C3132.57,-1099.45 3117.61,-1087.74 3104.92,-1077.8"/>
<polygon fill="midnightblue" stroke="midnightblue" points="3107.01,-1074.99 3096.97,-1071.58 3102.69,-1080.5 3107.01,-1074.99"/>
</g>
<!-- Node3 -->
<g id="node3" class="node"><title>Node3</title>
<g id="a_node3"><a xlink:href="analyzer_8h.html" target="_top" xlink:title="Algebra expression simplifications. ">
<polygon fill="white" stroke="black" points="577,-761.5 577,-780.5 689,-780.5 689,-761.5 577,-761.5"/>
<text text-anchor="middle" x="633" y="-768.5" font-family="Helvetica,sans-Serif" font-size="10.00">tvm/arith/analyzer.h</text>
</a>
</g>
</g>
<!-- Node2&#45;&gt;Node3 -->
<g id="edge2" class="edge"><title>Node2&#45;&gt;Node3</title>
<path fill="none" stroke="midnightblue" d="M1850.95,-987.1C1788.26,-978.789 1680.86,-964.058 1589,-949 1243.34,-892.335 829.881,-811.229 685.681,-782.543"/>
<polygon fill="midnightblue" stroke="midnightblue" points="686.259,-779.089 675.768,-780.569 684.892,-785.954 686.259,-779.089"/>
</g>
<!-- Node2&#45;&gt;Node14 -->
<g id="edge159" class="edge"><title>Node2&#45;&gt;Node14</title>
<path fill="none" stroke="midnightblue" d="M1957.07,-992.068C2120.8,-985.948 2611.26,-966.368 2681,-949 2738.89,-934.581 2750.34,-921.034 2803,-893 2936.29,-822.048 3093,-866.999 3093,-716 3093,-716 3093,-716 3093,-193.5 3093,-84.8836 2915.44,-72.3469 2840.62,-71.8857"/>
<polygon fill="midnightblue" stroke="midnightblue" points="2840.36,-68.3859 2830.36,-71.8953 2840.37,-75.3859 2840.36,-68.3859"/>
</g>
<!-- Node2&#45;&gt;Node21 -->
<g id="edge160" class="edge"><title>Node2&#45;&gt;Node21</title>
<path fill="none" stroke="midnightblue" d="M1957.04,-993.019C2147.97,-988.795 2789,-968.333 2789,-884 2789,-884 2789,-884 2789,-826 2789,-740.952 2439.09,-240.172 2380,-179 2368.14,-166.719 2352.42,-155.843 2339.3,-147.86"/>
<polygon fill="midnightblue" stroke="midnightblue" points="2340.69,-144.62 2330.3,-142.58 2337.15,-150.658 2340.69,-144.62"/>
</g>
<!-- Node28 -->
<g id="node28" class="node"><title>Node28</title>
<polygon fill="white" stroke="#bfbfbf" points="342.5,-185 342.5,-204 435.5,-204 435.5,-185 342.5,-185"/>
<text text-anchor="middle" x="389" y="-192" font-family="Helvetica,sans-Serif" font-size="10.00">unordered_map</text>
</g>
<!-- Node2&#45;&gt;Node28 -->
<g id="edge161" class="edge"><title>Node2&#45;&gt;Node28</title>
<path fill="none" stroke="midnightblue" d="M1850.84,-993.782C1542.74,-992.176 0,-979.374 0,-884 0,-884 0,-884 0,-658 0,-627.902 6.31513,-620.294 19,-593 41.7028,-544.15 86,-545.868 86,-492 86,-492 86,-492 86,-434 86,-302.605 264.105,-232.496 347.215,-206.933"/>
<polygon fill="midnightblue" stroke="midnightblue" points="348.29,-210.264 356.861,-204.035 346.276,-203.56 348.29,-210.264"/>
</g>
<!-- Node36 -->
<g id="node36" class="node"><title>Node36</title>
<g id="a_node36"><a xlink:href="tir_2expr_8h.html" target="_top" xlink:title="TIR expressions. ">
<polygon fill="white" stroke="black" points="1613,-649.5 1613,-668.5 1693,-668.5 1693,-649.5 1613,-649.5"/>
<text text-anchor="middle" x="1653" y="-656.5" font-family="Helvetica,sans-Serif" font-size="10.00">tvm/tir/expr.h</text>
</a>
</g>
</g>
<!-- Node2&#45;&gt;Node36 -->
<g id="edge156" class="edge"><title>Node2&#45;&gt;Node36</title>
<path fill="none" stroke="midnightblue" d="M1850.88,-985.791C1764.47,-970.922 1603,-936.16 1603,-884 1603,-884 1603,-884 1603,-770 1603,-734.184 1625.24,-697.214 1640.05,-676.56"/>
<polygon fill="midnightblue" stroke="midnightblue" points="1642.88,-678.629 1646.05,-668.519 1637.27,-674.446 1642.88,-678.629"/>
</g>
<!-- Node37 -->
<g id="node37" class="node"><title>Node37</title>
<g id="a_node37"><a xlink:href="tensor_8h.html" target="_top" xlink:title="Dataflow tensor object. ">
<polygon fill="white" stroke="black" points="1634,-817.5 1634,-836.5 1724,-836.5 1724,-817.5 1634,-817.5"/>
<text text-anchor="middle" x="1679" y="-824.5" font-family="Helvetica,sans-Serif" font-size="10.00">tvm/te/tensor.h</text>
</a>
</g>
</g>
<!-- Node2&#45;&gt;Node37 -->
<g id="edge116" class="edge"><title>Node2&#45;&gt;Node37</title>
<path fill="none" stroke="midnightblue" d="M1869.28,-985.486C1843.05,-978.156 1806.78,-966.049 1778,-949 1745.77,-929.905 1738.41,-922.248 1715,-893 1703.31,-878.394 1693.31,-859.475 1686.84,-845.818"/>
<polygon fill="midnightblue" stroke="midnightblue" points="1689.95,-844.2 1682.61,-836.559 1683.58,-847.109 1689.95,-844.2"/>
</g>
<!-- Node40 -->
<g id="node40" class="node"><title>Node40</title>
<g id="a_node40"><a xlink:href="tir_2op_8h.html" target="_top" xlink:title="Common operators defined for Expr. ">
<polygon fill="white" stroke="black" points="1985,-761.5 1985,-780.5 2057,-780.5 2057,-761.5 1985,-761.5"/>
<text text-anchor="middle" x="2021" y="-768.5" font-family="Helvetica,sans-Serif" font-size="10.00">tvm/tir/op.h</text>
</a>
</g>
</g>
<!-- Node2&#45;&gt;Node40 -->
<g id="edge157" class="edge"><title>Node2&#45;&gt;Node40</title>
<path fill="none" stroke="midnightblue" d="M1916.01,-985.483C1944.64,-964.33 2016.44,-906.092 2042,-837 2047.89,-821.069 2040.62,-802.617 2033.06,-789.452"/>
<polygon fill="midnightblue" stroke="midnightblue" points="2035.98,-787.518 2027.7,-780.912 2030.06,-791.242 2035.98,-787.518"/>
</g>
<!-- Node41 -->
<g id="node41" class="node"><title>Node41</title>
<g id="a_node41"><a xlink:href="schedule_8h.html" target="_top" xlink:title="Define a schedule. ">
<polygon fill="white" stroke="black" points="1787.5,-929.5 1787.5,-948.5 1890.5,-948.5 1890.5,-929.5 1787.5,-929.5"/>
<text text-anchor="middle" x="1839" y="-936.5" font-family="Helvetica,sans-Serif" font-size="10.00">tvm/te/schedule.h</text>
</a>
</g>
</g>
<!-- Node2&#45;&gt;Node41 -->
<g id="edge142" class="edge"><title>Node2&#45;&gt;Node41</title>
<path fill="none" stroke="midnightblue" d="M1893.56,-985.324C1883.85,-977.263 1869.18,-965.077 1857.5,-955.369"/>
<polygon fill="midnightblue" stroke="midnightblue" points="1859.56,-952.532 1849.63,-948.834 1855.09,-957.916 1859.56,-952.532"/>
</g>
<!-- Node43 -->
<g id="node43" class="node"><title>Node43</title>
<g id="a_node43"><a xlink:href="buffer_8h.html" target="_top" xlink:title="Symbolic n&#45;dimensional array, to represent a memory buffer. ">
<polygon fill="white" stroke="black" points="1946.5,-817.5 1946.5,-836.5 2033.5,-836.5 2033.5,-817.5 1946.5,-817.5"/>
<text text-anchor="middle" x="1990" y="-824.5" font-family="Helvetica,sans-Serif" font-size="10.00">tvm/tir/buffer.h</text>
</a>
</g>
</g>
<!-- Node2&#45;&gt;Node43 -->
<g id="edge158" class="edge"><title>Node2&#45;&gt;Node43</title>
<path fill="none" stroke="midnightblue" d="M1908.62,-985.075C1922.28,-958.719 1962.61,-880.878 1980.85,-845.661"/>
<polygon fill="midnightblue" stroke="midnightblue" points="1984.07,-847.057 1985.56,-836.568 1977.85,-843.837 1984.07,-847.057"/>
</g>
<!-- Node4 -->
<g id="node4" class="node"><title>Node4</title>
<g id="a_node4"><a xlink:href="with_8h.html" target="_top" xlink:title="RAII wrapper function to enter and exit a context object similar to python&#39;s with syntax...">
<polygon fill="white" stroke="black" points="28,-593.5 28,-612.5 134,-612.5 134,-593.5 28,-593.5"/>
<text text-anchor="middle" x="81" y="-600.5" font-family="Helvetica,sans-Serif" font-size="10.00">tvm/support/with.h</text>
</a>
</g>
</g>
<!-- Node3&#45;&gt;Node4 -->
<g id="edge3" class="edge"><title>Node3&#45;&gt;Node4</title>
<path fill="none" stroke="midnightblue" d="M603.647,-761.446C572.831,-752.447 522.978,-737.837 480,-725 347.125,-685.312 189.672,-637.262 118.841,-615.591"/>
<polygon fill="midnightblue" stroke="midnightblue" points="119.619,-612.169 109.033,-612.589 117.571,-618.863 119.619,-612.169"/>
</g>
<!-- Node7 -->
<g id="node7" class="node"><title>Node7</title>
<g id="a_node7"><a xlink:href="ir_2expr_8h.html" target="_top" xlink:title="Base expr nodes in TVM. ">
<polygon fill="white" stroke="black" points="1452.5,-593.5 1452.5,-612.5 1529.5,-612.5 1529.5,-593.5 1452.5,-593.5"/>
<text text-anchor="middle" x="1491" y="-600.5" font-family="Helvetica,sans-Serif" font-size="10.00">tvm/ir/expr.h</text>
</a>
</g>
</g>
<!-- Node3&#45;&gt;Node7 -->
<g id="edge6" class="edge"><title>Node3&#45;&gt;Node7</title>
<path fill="none" stroke="midnightblue" d="M637.449,-761.096C645.168,-746.671 662.496,-718.455 686,-705 816.4,-630.355 1288.56,-609.978 1442.27,-605.261"/>
<polygon fill="midnightblue" stroke="midnightblue" points="1442.46,-608.756 1452.35,-604.96 1442.25,-601.76 1442.46,-608.756"/>
</g>
<!-- Node3&#45;&gt;Node21 -->
<g id="edge112" class="edge"><title>Node3&#45;&gt;Node21</title>
<path fill="none" stroke="midnightblue" d="M689.055,-766.176C892.072,-750.636 1604.78,-681.311 2134,-445 2176.67,-425.945 2193.76,-425.457 2223,-389 2282.52,-314.789 2304.81,-198.544 2311.53,-153.106"/>
<polygon fill="midnightblue" stroke="midnightblue" points="2315.03,-153.311 2312.95,-142.924 2308.1,-152.346 2315.03,-153.311"/>
</g>
<!-- Node22 -->
<g id="node22" class="node"><title>Node22</title>
<polygon fill="white" stroke="#bfbfbf" points="2540,-123.5 2540,-142.5 2582,-142.5 2582,-123.5 2540,-123.5"/>
<text text-anchor="middle" x="2561" y="-130.5" font-family="Helvetica,sans-Serif" font-size="10.00">limits</text>
</g>
<!-- Node3&#45;&gt;Node22 -->
<g id="edge115" class="edge"><title>Node3&#45;&gt;Node22</title>
<path fill="none" stroke="midnightblue" d="M689.342,-767.635C932.964,-756.898 1896.33,-709.062 2182,-613 2384.89,-544.773 2405.55,-449.361 2516,-266 2530.79,-241.445 2538.32,-236.984 2548,-210 2554.76,-191.14 2558.06,-168.355 2559.63,-152.681"/>
<polygon fill="midnightblue" stroke="midnightblue" points="2563.12,-152.947 2560.5,-142.683 2556.15,-152.343 2563.12,-152.947"/>
</g>
<!-- Node23 -->
<g id="node23" class="node"><title>Node23</title>
<polygon fill="white" stroke="#bfbfbf" points="669.5,-123.5 669.5,-142.5 726.5,-142.5 726.5,-123.5 669.5,-123.5"/>
<text text-anchor="middle" x="698" y="-130.5" font-family="Helvetica,sans-Serif" font-size="10.00">memory</text>
</g>
<!-- Node3&#45;&gt;Node23 -->
<g id="edge114" class="edge"><title>Node3&#45;&gt;Node23</title>
<path fill="none" stroke="midnightblue" d="M613.128,-761.472C595.594,-753.441 569.818,-740.369 550,-725 497.5,-684.287 490.397,-666.495 451,-613 332.463,-452.048 200.585,-328.743 333,-179 354.385,-154.817 569.783,-140.758 659.303,-135.92"/>
<polygon fill="midnightblue" stroke="midnightblue" points="659.524,-139.414 669.325,-135.389 659.154,-132.424 659.524,-139.414"/>
</g>
<!-- Node3&#45;&gt;Node28 -->
<g id="edge113" class="edge"><title>Node3&#45;&gt;Node28</title>
<path fill="none" stroke="midnightblue" d="M620.863,-761.266C598.662,-744.898 550.782,-707.745 518,-669 442.623,-579.91 416.687,-556.109 381,-445 367.334,-402.452 372.574,-273.049 376,-246 377.357,-235.284 380.273,-223.587 383,-214.152"/>
<polygon fill="midnightblue" stroke="midnightblue" points="386.433,-214.894 386.01,-204.308 379.739,-212.848 386.433,-214.894"/>
</g>
<!-- Node35 -->
<g id="node35" class="node"><title>Node35</title>
<g id="a_node35"><a xlink:href="int__set_8h.html" target="_top" xlink:title="Integer set. ">
<polygon fill="white" stroke="black" points="695,-705.5 695,-724.5 799,-724.5 799,-705.5 695,-705.5"/>
<text text-anchor="middle" x="747" y="-712.5" font-family="Helvetica,sans-Serif" font-size="10.00">tvm/arith/int_set.h</text>
</a>
</g>
</g>
<!-- Node3&#45;&gt;Node35 -->
<g id="edge96" class="edge"><title>Node3&#45;&gt;Node35</title>
<path fill="none" stroke="midnightblue" d="M651.064,-761.444C669.575,-752.675 698.581,-738.935 719.855,-728.858"/>
<polygon fill="midnightblue" stroke="midnightblue" points="721.482,-731.96 729.021,-724.516 718.485,-725.634 721.482,-731.96"/>
</g>
<!-- Node5 -->
<g id="node5" class="node"><title>Node5</title>
<polygon fill="white" stroke="#bfbfbf" points="961,-62 961,-81 1047,-81 1047,-62 961,-62"/>
<text text-anchor="middle" x="1004" y="-69" font-family="Helvetica,sans-Serif" font-size="10.00">dmlc/logging.h</text>
</g>
<!-- Node4&#45;&gt;Node5 -->
<g id="edge4" class="edge"><title>Node4&#45;&gt;Node5</title>
<path fill="none" stroke="midnightblue" d="M76.5495,-593.424C67.5419,-575.244 48,-531.278 48,-492 48,-492 48,-492 48,-434 48,-339.359 75.3038,-306.598 148,-246 272.21,-142.461 783.623,-91.0166 950.831,-76.7315"/>
<polygon fill="midnightblue" stroke="midnightblue" points="951.204,-80.2125 960.874,-75.8829 950.615,-73.2373 951.204,-80.2125"/>
</g>
<!-- Node6 -->
<g id="node6" class="node"><title>Node6</title>
<polygon fill="white" stroke="#bfbfbf" points="487,-62 487,-81 529,-81 529,-62 487,-62"/>
<text text-anchor="middle" x="508" y="-69" font-family="Helvetica,sans-Serif" font-size="10.00">utility</text>
</g>
<!-- Node4&#45;&gt;Node6 -->
<g id="edge5" class="edge"><title>Node4&#45;&gt;Node6</title>
<path fill="none" stroke="midnightblue" d="M69.1052,-593.19C58.6105,-584.877 43.54,-571.548 34,-557 17.1127,-531.248 10,-522.795 10,-492 10,-492 10,-492 10,-193.5 10,-160.401 8.147,-143.668 34,-123 68.5749,-95.3589 376.442,-78.6465 476.639,-73.9024"/>
<polygon fill="midnightblue" stroke="midnightblue" points="476.915,-77.3934 486.741,-73.4315 476.589,-70.401 476.915,-77.3934"/>
</g>
<!-- Node8 -->
<g id="node8" class="node"><title>Node8</title>
<g id="a_node8"><a xlink:href="object_8h.html" target="_top" xlink:title="A managed object in the TVM runtime. ">
<polygon fill="white" stroke="black" points="744.5,-123.5 744.5,-142.5 861.5,-142.5 861.5,-123.5 744.5,-123.5"/>
<text text-anchor="middle" x="803" y="-130.5" font-family="Helvetica,sans-Serif" font-size="10.00">tvm/runtime/object.h</text>
</a>
</g>
</g>
<!-- Node7&#45;&gt;Node8 -->
<g id="edge7" class="edge"><title>Node7&#45;&gt;Node8</title>
<path fill="none" stroke="midnightblue" d="M1452.31,-599.095C1346.55,-591.045 1057.67,-568.305 1016,-557 995.658,-551.482 993.132,-543.241 973,-537 880.459,-508.31 847.452,-538.219 758,-501 641.965,-452.721 542,-444.178 542,-318.5 542,-318.5 542,-318.5 542,-255 542,-208.074 682.627,-164.843 757.432,-145.167"/>
<polygon fill="midnightblue" stroke="midnightblue" points="758.727,-148.447 767.529,-142.549 756.97,-141.671 758.727,-148.447"/>
</g>
<!-- Node13 -->
<g id="node13" class="node"><title>Node13</title>
<polygon fill="white" stroke="#bfbfbf" points="1233,-62 1233,-81 1301,-81 1301,-62 1233,-62"/>
<text text-anchor="middle" x="1267" y="-69" font-family="Helvetica,sans-Serif" font-size="10.00">type_traits</text>
</g>
<!-- Node7&#45;&gt;Node13 -->
<g id="edge95" class="edge"><title>Node7&#45;&gt;Node13</title>
<path fill="none" stroke="midnightblue" d="M1452.49,-598.211C1376.94,-590.546 1211.87,-572.604 1157,-557 946.311,-497.085 807.732,-532.819 718,-333 712.356,-320.431 709.481,-312.828 718,-302 771.724,-233.717 1021.27,-250.768 1098,-210 1116.06,-200.405 1116.41,-192.23 1132,-179 1172.08,-144.99 1220.9,-107.377 1247.47,-87.2101"/>
<polygon fill="midnightblue" stroke="midnightblue" points="1249.72,-89.8958 1255.58,-81.0701 1245.5,-84.3142 1249.72,-89.8958"/>
</g>
<!-- Node7&#45;&gt;Node14 -->
<g id="edge92" class="edge"><title>Node7&#45;&gt;Node14</title>
<path fill="none" stroke="midnightblue" d="M1529.64,-595.615C1596.63,-583.558 1737.54,-553.793 1846,-501 1936.89,-456.758 2057.45,-338.624 2195,-210 2234.71,-172.866 2231.89,-146.323 2281,-123 2369.42,-81.0114 2675.5,-73.9345 2775.86,-72.7418"/>
<polygon fill="midnightblue" stroke="midnightblue" points="2776.03,-76.2403 2785.99,-72.6334 2775.95,-69.2407 2776.03,-76.2403"/>
</g>
<!-- Node16 -->
<g id="node16" class="node"><title>Node16</title>
<g id="a_node16"><a xlink:href="node_8h.html" target="_top" xlink:title="Definitions and helper macros for IR/AST nodes. ">
<polygon fill="white" stroke="black" points="1445,-425.5 1445,-444.5 1543,-444.5 1543,-425.5 1445,-425.5"/>
<text text-anchor="middle" x="1494" y="-432.5" font-family="Helvetica,sans-Serif" font-size="10.00">tvm/node/node.h</text>
</a>
</g>
</g>
<!-- Node7&#45;&gt;Node16 -->
<g id="edge17" class="edge"><title>Node7&#45;&gt;Node16</title>
<path fill="none" stroke="midnightblue" d="M1482.56,-593.382C1464.07,-573.396 1423.06,-522.432 1442,-481 1447.78,-468.36 1459.05,-457.911 1469.63,-450.274"/>
<polygon fill="midnightblue" stroke="midnightblue" points="1471.85,-453.001 1478.22,-444.533 1467.96,-447.182 1471.85,-453.001"/>
</g>
<!-- Node7&#45;&gt;Node22 -->
<g id="edge94" class="edge"><title>Node7&#45;&gt;Node22</title>
<path fill="none" stroke="midnightblue" d="M1529.66,-599.076C1615.96,-591.526 1829.7,-567.127 1995,-501 2124.82,-449.064 2143.62,-408.985 2261,-333 2366.23,-264.878 2490.73,-181.344 2539.7,-148.366"/>
<polygon fill="midnightblue" stroke="midnightblue" points="2541.86,-151.128 2548.2,-142.637 2537.95,-145.322 2541.86,-151.128"/>
</g>
<!-- Node26 -->
<g id="node26" class="node"><title>Node26</title>
<g id="a_node26"><a xlink:href="node_2container_8h.html" target="_top" xlink:title="Array/Map container in the DSL graph. ">
<polygon fill="white" stroke="black" points="978.5,-246.5 978.5,-265.5 1097.5,-265.5 1097.5,-246.5 978.5,-246.5"/>
<text text-anchor="middle" x="1038" y="-253.5" font-family="Helvetica,sans-Serif" font-size="10.00">tvm/node/container.h</text>
</a>
</g>
</g>
<!-- Node7&#45;&gt;Node26 -->
<g id="edge80" class="edge"><title>Node7&#45;&gt;Node26</title>
<path fill="none" stroke="midnightblue" d="M1452.15,-595.992C1347.93,-579.348 1070,-531.283 1070,-492 1070,-492 1070,-492 1070,-434 1070,-403.205 1059.43,-396.714 1046,-369 1037.82,-352.125 1029.08,-351.05 1024,-333 1018.51,-313.482 1024.38,-290.523 1030.11,-274.987"/>
<polygon fill="midnightblue" stroke="midnightblue" points="1033.42,-276.135 1033.92,-265.551 1026.93,-273.517 1033.42,-276.135"/>
</g>
<!-- Node32 -->
<g id="node32" class="node"><title>Node32</title>
<g id="a_node32"><a xlink:href="span_8h.html" target="_top" xlink:title="Span information for debugging purposes. ">
<polygon fill="white" stroke="black" points="1451,-481.5 1451,-500.5 1531,-500.5 1531,-481.5 1451,-481.5"/>
<text text-anchor="middle" x="1491" y="-488.5" font-family="Helvetica,sans-Serif" font-size="10.00">tvm/ir/span.h</text>
</a>
</g>
</g>
<!-- Node7&#45;&gt;Node32 -->
<g id="edge81" class="edge"><title>Node7&#45;&gt;Node32</title>
<path fill="none" stroke="midnightblue" d="M1491,-593.368C1491,-575.617 1491,-534.666 1491,-510.597"/>
<polygon fill="midnightblue" stroke="midnightblue" points="1494.5,-510.591 1491,-500.591 1487.5,-510.591 1494.5,-510.591"/>
</g>
<!-- Node33 -->
<g id="node33" class="node"><title>Node33</title>
<g id="a_node33"><a xlink:href="ir_2type_8h.html" target="_top" xlink:title="IR/AST nodes for the unified type system in TVM. ">
<polygon fill="white" stroke="black" points="1520.5,-537.5 1520.5,-556.5 1597.5,-556.5 1597.5,-537.5 1520.5,-537.5"/>
<text text-anchor="middle" x="1559" y="-544.5" font-family="Helvetica,sans-Serif" font-size="10.00">tvm/ir/type.h</text>
</a>
</g>
</g>
<!-- Node7&#45;&gt;Node33 -->
<g id="edge85" class="edge"><title>Node7&#45;&gt;Node33</title>
<path fill="none" stroke="midnightblue" d="M1501.93,-593.324C1512.17,-585.185 1527.72,-572.839 1540,-563.087"/>
<polygon fill="midnightblue" stroke="midnightblue" points="1542.22,-565.794 1547.88,-556.834 1537.87,-560.312 1542.22,-565.794"/>
</g>
<!-- Node34 -->
<g id="node34" class="node"><title>Node34</title>
<polygon fill="white" stroke="#bfbfbf" points="902,-537.5 902,-556.5 964,-556.5 964,-537.5 902,-537.5"/>
<text text-anchor="middle" x="933" y="-544.5" font-family="Helvetica,sans-Serif" font-size="10.00">algorithm</text>
</g>
<!-- Node7&#45;&gt;Node34 -->
<g id="edge93" class="edge"><title>Node7&#45;&gt;Node34</title>
<path fill="none" stroke="midnightblue" d="M1452.27,-595.009C1447.48,-594.266 1442.63,-593.573 1438,-593 1234.48,-567.809 1181.13,-585.159 978,-557 976.895,-556.847 975.777,-556.684 974.649,-556.512"/>
<polygon fill="midnightblue" stroke="midnightblue" points="974.834,-552.993 964.39,-554.775 973.665,-559.895 974.834,-552.993"/>
</g>
<!-- Node8&#45;&gt;Node5 -->
<g id="edge8" class="edge"><title>Node8&#45;&gt;Node5</title>
<path fill="none" stroke="midnightblue" d="M831.798,-123.475C866.874,-113.092 926.263,-95.5116 965.307,-83.9538"/>
<polygon fill="midnightblue" stroke="midnightblue" points="966.66,-87.2036 975.255,-81.0091 964.673,-80.4916 966.66,-87.2036"/>
</g>
<!-- Node8&#45;&gt;Node6 -->
<g id="edge15" class="edge"><title>Node8&#45;&gt;Node6</title>
<path fill="none" stroke="midnightblue" d="M760.734,-123.475C700.691,-111.365 592.105,-89.4636 538.972,-78.7469"/>
<polygon fill="midnightblue" stroke="midnightblue" points="539.61,-75.3052 529.116,-76.7589 538.226,-82.1671 539.61,-75.3052"/>
</g>
<!-- Node9 -->
<g id="node9" class="node"><title>Node9</title>
<g id="a_node9"><a xlink:href="c__runtime__api_8h.html" target="_top" xlink:title="tvm/runtime/c_runtime\l_api.h">
<polygon fill="white" stroke="black" points="1480.5,-56.5 1480.5,-86.5 1607.5,-86.5 1607.5,-56.5 1480.5,-56.5"/>
<text text-anchor="start" x="1488.5" y="-74.5" font-family="Helvetica,sans-Serif" font-size="10.00">tvm/runtime/c_runtime</text>
<text text-anchor="middle" x="1544" y="-63.5" font-family="Helvetica,sans-Serif" font-size="10.00">_api.h</text>
</a>
</g>
</g>
<!-- Node8&#45;&gt;Node9 -->
<g id="edge9" class="edge"><title>Node8&#45;&gt;Node9</title>
<path fill="none" stroke="midnightblue" d="M861.764,-127.281C995.562,-116.538 1322.68,-90.2711 1469.98,-78.4438"/>
<polygon fill="midnightblue" stroke="midnightblue" points="1470.58,-81.9069 1480.27,-77.6176 1470.02,-74.9293 1470.58,-81.9069"/>
</g>
<!-- Node8&#45;&gt;Node13 -->
<g id="edge13" class="edge"><title>Node8&#45;&gt;Node13</title>
<path fill="none" stroke="midnightblue" d="M861.766,-124.464C955.989,-112.382 1138.78,-88.9415 1222.81,-78.167"/>
<polygon fill="midnightblue" stroke="midnightblue" points="1223.32,-81.6303 1232.79,-76.8867 1222.43,-74.6871 1223.32,-81.6303"/>
</g>
<!-- Node8&#45;&gt;Node14 -->
<g id="edge14" class="edge"><title>Node8&#45;&gt;Node14</title>
<path fill="none" stroke="midnightblue" d="M861.65,-130.26C1164.65,-121.268 2547.44,-80.2324 2775.97,-73.4505"/>
<polygon fill="midnightblue" stroke="midnightblue" points="2776.08,-76.9489 2785.97,-73.1537 2775.87,-69.952 2776.08,-76.9489"/>
</g>
<!-- Node15 -->
<g id="node15" class="node"><title>Node15</title>
<polygon fill="white" stroke="#bfbfbf" points="778,-62 778,-81 828,-81 828,-62 778,-62"/>
<text text-anchor="middle" x="803" y="-69" font-family="Helvetica,sans-Serif" font-size="10.00">atomic</text>
</g>
<!-- Node8&#45;&gt;Node15 -->
<g id="edge16" class="edge"><title>Node8&#45;&gt;Node15</title>
<path fill="none" stroke="midnightblue" d="M803,-123.475C803,-115.08 803,-101.981 803,-91.1631"/>
<polygon fill="midnightblue" stroke="midnightblue" points="806.5,-91.0091 803,-81.0091 799.5,-91.0091 806.5,-91.0091"/>
</g>
<!-- Node10 -->
<g id="node10" class="node"><title>Node10</title>
<polygon fill="white" stroke="#bfbfbf" points="1409,-0.5 1409,-19.5 1499,-19.5 1499,-0.5 1409,-0.5"/>
<text text-anchor="middle" x="1454" y="-7.5" font-family="Helvetica,sans-Serif" font-size="10.00">dlpack/dlpack.h</text>
</g>
<!-- Node9&#45;&gt;Node10 -->
<g id="edge10" class="edge"><title>Node9&#45;&gt;Node10</title>
<path fill="none" stroke="midnightblue" d="M1522.67,-56.3993C1508.51,-47.0402 1489.99,-34.7924 1475.75,-25.3771"/>
<polygon fill="midnightblue" stroke="midnightblue" points="1477.37,-22.2531 1467.1,-19.6578 1473.51,-28.0923 1477.37,-22.2531"/>
</g>
<!-- Node11 -->
<g id="node11" class="node"><title>Node11</title>
<polygon fill="white" stroke="#bfbfbf" points="1517.5,-0.5 1517.5,-19.5 1570.5,-19.5 1570.5,-0.5 1517.5,-0.5"/>
<text text-anchor="middle" x="1544" y="-7.5" font-family="Helvetica,sans-Serif" font-size="10.00">stdint.h</text>
</g>
<!-- Node9&#45;&gt;Node11 -->
<g id="edge11" class="edge"><title>Node9&#45;&gt;Node11</title>
<path fill="none" stroke="midnightblue" d="M1544,-56.3993C1544,-48.4664 1544,-38.458 1544,-29.8583"/>
<polygon fill="midnightblue" stroke="midnightblue" points="1547.5,-29.6577 1544,-19.6578 1540.5,-29.6578 1547.5,-29.6577"/>
</g>
<!-- Node12 -->
<g id="node12" class="node"><title>Node12</title>
<polygon fill="white" stroke="#bfbfbf" points="1588.5,-0.5 1588.5,-19.5 1643.5,-19.5 1643.5,-0.5 1588.5,-0.5"/>
<text text-anchor="middle" x="1616" y="-7.5" font-family="Helvetica,sans-Serif" font-size="10.00">stddef.h</text>
</g>
<!-- Node9&#45;&gt;Node12 -->
<g id="edge12" class="edge"><title>Node9&#45;&gt;Node12</title>
<path fill="none" stroke="midnightblue" d="M1561.06,-56.3993C1572.06,-47.3076 1586.37,-35.4899 1597.62,-26.1909"/>
<polygon fill="midnightblue" stroke="midnightblue" points="1600.04,-28.726 1605.52,-19.6578 1595.59,-23.33 1600.04,-28.726"/>
</g>
<!-- Node16&#45;&gt;Node6 -->
<g id="edge78" class="edge"><title>Node16&#45;&gt;Node6</title>
<path fill="none" stroke="midnightblue" d="M1444.75,-428.851C1385.82,-422.149 1284.4,-408.889 1199,-389 960.95,-333.56 895.607,-323.238 679,-210 629.276,-184.005 615.039,-178.999 572,-143 552.285,-126.51 532.909,-104.044 520.734,-88.9443"/>
<polygon fill="midnightblue" stroke="midnightblue" points="523.4,-86.6736 514.448,-81.006 517.912,-91.0188 523.4,-86.6736"/>
</g>
<!-- Node16&#45;&gt;Node8 -->
<g id="edge19" class="edge"><title>Node16&#45;&gt;Node8</title>
<path fill="none" stroke="midnightblue" d="M1444.76,-429.878C1393.82,-424.511 1312.53,-412.841 1246,-389 1171.27,-362.218 1163.19,-332.749 1090,-302 956.716,-246.003 864.571,-325.783 778,-210 764.806,-192.354 777.561,-167.397 789.174,-150.963"/>
<polygon fill="midnightblue" stroke="midnightblue" points="792.098,-152.899 795.335,-142.811 786.513,-148.679 792.098,-152.899"/>
</g>
<!-- Node16&#45;&gt;Node9 -->
<g id="edge18" class="edge"><title>Node16&#45;&gt;Node9</title>
<path fill="none" stroke="midnightblue" d="M1543.03,-433.22C1613.7,-430.94 1738.83,-422.191 1767,-389 1804.92,-344.32 1774.66,-162.342 1739,-123 1722.56,-104.856 1665.75,-91.4511 1617.66,-83.0297"/>
<polygon fill="midnightblue" stroke="midnightblue" points="1618,-79.5363 1607.55,-81.3084 1616.82,-86.437 1618,-79.5363"/>
</g>
<!-- Node16&#45;&gt;Node13 -->
<g id="edge79" class="edge"><title>Node16&#45;&gt;Node13</title>
<path fill="none" stroke="midnightblue" d="M1543.1,-430.592C1580.46,-425.939 1631.64,-414.949 1669,-389 1703.8,-364.827 1719.68,-342.732 1708,-302 1678.17,-197.995 1639.5,-171.939 1543,-123 1467.75,-84.8348 1367.97,-75.1967 1311.31,-72.9543"/>
<polygon fill="midnightblue" stroke="midnightblue" points="1311.36,-69.4541 1301.25,-72.6164 1311.12,-76.4501 1311.36,-69.4541"/>
</g>
<!-- Node16&#45;&gt;Node14 -->
<g id="edge76" class="edge"><title>Node16&#45;&gt;Node14</title>
<path fill="none" stroke="midnightblue" d="M1543.19,-433.501C1602.82,-431.323 1705.34,-422.467 1786,-389 1970.41,-312.484 1960.8,-192.405 2148,-123 2265.17,-79.5592 2659.6,-73.481 2775.63,-72.6354"/>
<polygon fill="midnightblue" stroke="midnightblue" points="2776,-76.1332 2785.97,-72.5688 2775.95,-69.1334 2776,-76.1332"/>
</g>
<!-- Node17 -->
<g id="node17" class="node"><title>Node17</title>
<g id="a_node17"><a xlink:href="runtime_2memory_8h.html" target="_top" xlink:title="Runtime memory management. ">
<polygon fill="white" stroke="red" points="798.5,-185 798.5,-204 925.5,-204 925.5,-185 798.5,-185"/>
<text text-anchor="middle" x="862" y="-192" font-family="Helvetica,sans-Serif" font-size="10.00">tvm/runtime/memory.h</text>
</a>
</g>
</g>
<!-- Node16&#45;&gt;Node17 -->
<g id="edge20" class="edge"><title>Node16&#45;&gt;Node17</title>
<path fill="none" stroke="midnightblue" d="M1472.89,-425.398C1432.18,-408.657 1340.22,-370.082 1265,-333 1192.75,-297.381 1181.6,-273.801 1106,-246 1088.43,-239.539 983.046,-218.723 916.647,-205.922"/>
<polygon fill="midnightblue" stroke="midnightblue" points="917.228,-202.469 906.746,-204.017 915.905,-209.343 917.228,-202.469"/>
</g>
<!-- Node18 -->
<g id="node18" class="node"><title>Node18</title>
<g id="a_node18"><a xlink:href="reflection_8h.html" target="_top" xlink:title="Reflection and serialization of compiler IR/AST nodes. ">
<polygon fill="white" stroke="red" points="1541.5,-369.5 1541.5,-388.5 1660.5,-388.5 1660.5,-369.5 1541.5,-369.5"/>
<text text-anchor="middle" x="1601" y="-376.5" font-family="Helvetica,sans-Serif" font-size="10.00">tvm/node/reflection.h</text>
</a>
</g>
</g>
<!-- Node16&#45;&gt;Node18 -->
<g id="edge24" class="edge"><title>Node16&#45;&gt;Node18</title>
<path fill="none" stroke="midnightblue" d="M1511.19,-425.324C1528.35,-416.664 1554.95,-403.242 1574.75,-393.249"/>
<polygon fill="midnightblue" stroke="midnightblue" points="1576.5,-396.285 1583.85,-388.655 1573.35,-390.035 1576.5,-396.285"/>
</g>
<!-- Node16&#45;&gt;Node21 -->
<g id="edge77" class="edge"><title>Node16&#45;&gt;Node21</title>
<path fill="none" stroke="midnightblue" d="M1543.25,-431.624C1605.46,-427.552 1715.23,-416.784 1805,-389 2005.64,-326.9 2223.91,-192.188 2292.29,-148.204"/>
<polygon fill="midnightblue" stroke="midnightblue" points="2294.43,-150.987 2300.92,-142.617 2290.63,-145.11 2294.43,-150.987"/>
</g>
<!-- Node24 -->
<g id="node24" class="node"><title>Node24</title>
<g id="a_node24"><a xlink:href="structural__equal_8h.html" target="_top" xlink:title="Structural equality comparison. ">
<polygon fill="white" stroke="black" points="1461.5,-302.5 1461.5,-332.5 1572.5,-332.5 1572.5,-302.5 1461.5,-302.5"/>
<text text-anchor="start" x="1469.5" y="-320.5" font-family="Helvetica,sans-Serif" font-size="10.00">tvm/node/structural</text>
<text text-anchor="middle" x="1517" y="-309.5" font-family="Helvetica,sans-Serif" font-size="10.00">_equal.h</text>
</a>
</g>
</g>
<!-- Node16&#45;&gt;Node24 -->
<g id="edge74" class="edge"><title>Node16&#45;&gt;Node24</title>
<path fill="none" stroke="midnightblue" d="M1495.73,-425.319C1499.18,-407.967 1507.05,-368.457 1512.19,-342.658"/>
<polygon fill="midnightblue" stroke="midnightblue" points="1515.68,-343.036 1514.2,-332.545 1508.82,-341.669 1515.68,-343.036"/>
</g>
<!-- Node16&#45;&gt;Node26 -->
<g id="edge73" class="edge"><title>Node16&#45;&gt;Node26</title>
<path fill="none" stroke="midnightblue" d="M1444.63,-429.386C1400.87,-423.926 1336.01,-412.429 1284,-389 1224.59,-362.241 1223.59,-332.475 1166,-302 1138.8,-287.606 1106.02,-276.183 1080.44,-268.447"/>
<polygon fill="midnightblue" stroke="midnightblue" points="1081.25,-265.036 1070.67,-265.564 1079.27,-271.75 1081.25,-265.036"/>
</g>
<!-- Node29 -->
<g id="node29" class="node"><title>Node29</title>
<g id="a_node29"><a xlink:href="structural__hash_8h.html" target="_top" xlink:title="tvm/node/structural\l_hash.h">
<polygon fill="white" stroke="red" points="1332.5,-302.5 1332.5,-332.5 1443.5,-332.5 1443.5,-302.5 1332.5,-302.5"/>
<text text-anchor="start" x="1340.5" y="-320.5" font-family="Helvetica,sans-Serif" font-size="10.00">tvm/node/structural</text>
<text text-anchor="middle" x="1388" y="-309.5" font-family="Helvetica,sans-Serif" font-size="10.00">_hash.h</text>
</a>
</g>
</g>
<!-- Node16&#45;&gt;Node29 -->
<g id="edge75" class="edge"><title>Node16&#45;&gt;Node29</title>
<path fill="none" stroke="midnightblue" d="M1486.03,-425.319C1469.54,-407.347 1431.23,-365.606 1407.68,-339.948"/>
<polygon fill="midnightblue" stroke="midnightblue" points="1410.23,-337.546 1400.89,-332.545 1405.07,-342.279 1410.23,-337.546"/>
</g>
<!-- Node30 -->
<g id="node30" class="node"><title>Node30</title>
<g id="a_node30"><a xlink:href="repr__printer_8h.html" target="_top" xlink:title="Printer class to print repr string of each AST/IR nodes. ">
<polygon fill="white" stroke="black" points="836,-369.5 836,-388.5 966,-388.5 966,-369.5 836,-369.5"/>
<text text-anchor="middle" x="901" y="-376.5" font-family="Helvetica,sans-Serif" font-size="10.00">tvm/node/repr_printer.h</text>
</a>
</g>
</g>
<!-- Node16&#45;&gt;Node30 -->
<g id="edge70" class="edge"><title>Node16&#45;&gt;Node30</title>
<path fill="none" stroke="midnightblue" d="M1444.97,-429.535C1341.33,-420.097 1099.42,-398.068 976.127,-386.841"/>
<polygon fill="midnightblue" stroke="midnightblue" points="976.292,-383.342 966.016,-385.92 975.657,-390.313 976.292,-383.342"/>
</g>
<!-- Node17&#45;&gt;Node6 -->
<g id="edge22" class="edge"><title>Node17&#45;&gt;Node6</title>
<path fill="none" stroke="midnightblue" d="M817.553,-184.92C776.144,-176.336 713,-161.726 660,-143 613.92,-126.719 562.855,-101.443 533.196,-85.991"/>
<polygon fill="midnightblue" stroke="midnightblue" points="534.477,-82.7099 523.996,-81.1545 531.219,-88.9059 534.477,-82.7099"/>
</g>
<!-- Node17&#45;&gt;Node8 -->
<g id="edge21" class="edge"><title>Node17&#45;&gt;Node8</title>
<path fill="none" stroke="midnightblue" d="M853.547,-184.975C844.434,-175.785 829.73,-160.956 818.524,-149.656"/>
<polygon fill="midnightblue" stroke="midnightblue" points="820.964,-147.146 811.438,-142.509 815.993,-152.074 820.964,-147.146"/>
</g>
<!-- Node17&#45;&gt;Node13 -->
<g id="edge23" class="edge"><title>Node17&#45;&gt;Node13</title>
<path fill="none" stroke="midnightblue" d="M886.122,-184.969C925.444,-171.187 1005.92,-143.497 1075,-123 1125.35,-108.061 1183.79,-93.0137 1222.85,-83.2802"/>
<polygon fill="midnightblue" stroke="midnightblue" points="1223.97,-86.6076 1232.83,-80.802 1222.28,-79.8136 1223.97,-86.6076"/>
</g>
<!-- Node18&#45;&gt;Node8 -->
<g id="edge26" class="edge"><title>Node18&#45;&gt;Node8</title>
<path fill="none" stroke="midnightblue" d="M1541.35,-373.917C1470.71,-368.133 1358.21,-355.649 1323,-333 1283.92,-307.858 1304.55,-270.398 1265,-246 1153.71,-177.349 1093.58,-260.576 973,-210 952.581,-201.436 953.418,-189.64 934,-179 906.791,-164.092 873.735,-152.781 847.635,-145.228"/>
<polygon fill="midnightblue" stroke="midnightblue" points="848.574,-141.856 838,-142.517 846.679,-148.594 848.574,-141.856"/>
</g>
<!-- Node18&#45;&gt;Node9 -->
<g id="edge25" class="edge"><title>Node18&#45;&gt;Node9</title>
<path fill="none" stroke="midnightblue" d="M1638.1,-369.458C1657.44,-362.918 1679.43,-351.724 1691,-333 1698.24,-321.28 1694.87,-315.223 1691,-302 1684.26,-278.981 1595.97,-148.445 1559.55,-95.1555"/>
<polygon fill="midnightblue" stroke="midnightblue" points="1562.31,-92.9935 1553.77,-86.7182 1556.53,-96.9472 1562.31,-92.9935"/>
</g>
<!-- Node18&#45;&gt;Node13 -->
<g id="edge69" class="edge"><title>Node18&#45;&gt;Node13</title>
<path fill="none" stroke="midnightblue" d="M1605.88,-369.372C1610.56,-360.552 1617.31,-346.299 1620,-333 1622.73,-319.496 1623.58,-315.303 1620,-302 1596.06,-213.159 1590.76,-176.631 1516,-123 1483.75,-99.8628 1373.77,-84.2978 1311.3,-77.0939"/>
<polygon fill="midnightblue" stroke="midnightblue" points="1311.66,-73.6123 1301.33,-75.9686 1310.87,-80.5681 1311.66,-73.6123"/>
</g>
<!-- Node18&#45;&gt;Node14 -->
<g id="edge68" class="edge"><title>Node18&#45;&gt;Node14</title>
<path fill="none" stroke="midnightblue" d="M1624.94,-369.345C1647,-361.04 1680.4,-347.629 1708,-333 1756.25,-307.424 1766.47,-297.614 1811,-266 1853.37,-235.92 1947.37,-141.308 1996,-123 2069.84,-95.2015 2633.31,-77.4591 2775.5,-73.3944"/>
<polygon fill="midnightblue" stroke="midnightblue" points="2775.84,-76.8862 2785.74,-73.1047 2775.64,-69.889 2775.84,-76.8862"/>
</g>
<!-- Node18&#45;&gt;Node17 -->
<g id="edge27" class="edge"><title>Node18&#45;&gt;Node17</title>
<path fill="none" stroke="midnightblue" d="M1541.44,-375.618C1462.8,-371.433 1329.65,-360.428 1290,-333 1253.68,-307.877 1278.63,-270.666 1242,-246 1185.94,-208.25 1006.81,-220.182 940,-210 931.965,-208.776 923.49,-207.345 915.205,-205.869"/>
<polygon fill="midnightblue" stroke="midnightblue" points="915.7,-202.402 905.235,-204.056 914.448,-209.289 915.7,-202.402"/>
</g>
<!-- Node19 -->
<g id="node19" class="node"><title>Node19</title>
<g id="a_node19"><a xlink:href="packed__func_8h.html" target="_top" xlink:title="Type&#45;erased function used across TVM API. ">
<polygon fill="white" stroke="red" points="1279.5,-179.5 1279.5,-209.5 1392.5,-209.5 1392.5,-179.5 1279.5,-179.5"/>
<text text-anchor="start" x="1287.5" y="-197.5" font-family="Helvetica,sans-Serif" font-size="10.00">tvm/runtime/packed</text>
<text text-anchor="middle" x="1336" y="-186.5" font-family="Helvetica,sans-Serif" font-size="10.00">_func.h</text>
</a>
</g>
</g>
<!-- Node18&#45;&gt;Node19 -->
<g id="edge28" class="edge"><title>Node18&#45;&gt;Node19</title>
<path fill="none" stroke="midnightblue" d="M1601.06,-369.373C1600.72,-354.009 1597.88,-321.675 1581,-302 1555.08,-271.782 1453.73,-234.195 1389.79,-212.714"/>
<polygon fill="midnightblue" stroke="midnightblue" points="1390.84,-209.377 1380.25,-209.536 1388.63,-216.018 1390.84,-209.377"/>
</g>
<!-- Node20 -->
<g id="node20" class="node"><title>Node20</title>
<g id="a_node20"><a xlink:href="data__type_8h.html" target="_top" xlink:title="tvm/runtime/data_type.h">
<polygon fill="white" stroke="black" points="1371,-123.5 1371,-142.5 1507,-142.5 1507,-123.5 1371,-123.5"/>
<text text-anchor="middle" x="1439" y="-130.5" font-family="Helvetica,sans-Serif" font-size="10.00">tvm/runtime/data_type.h</text>
</a>
</g>
</g>
<!-- Node18&#45;&gt;Node20 -->
<g id="edge42" class="edge"><title>Node18&#45;&gt;Node20</title>
<path fill="none" stroke="midnightblue" d="M1603.44,-369.161C1607.01,-354.554 1612.26,-324.738 1603,-302 1595.16,-282.752 1495.72,-187.544 1455.61,-149.624"/>
<polygon fill="midnightblue" stroke="midnightblue" points="1457.89,-146.963 1448.21,-142.646 1453.09,-152.054 1457.89,-146.963"/>
</g>
<!-- Node18&#45;&gt;Node21 -->
<g id="edge67" class="edge"><title>Node18&#45;&gt;Node21</title>
<path fill="none" stroke="midnightblue" d="M1625.96,-369.459C1733.6,-332.622 2158.21,-187.315 2280.73,-145.384"/>
<polygon fill="midnightblue" stroke="midnightblue" points="2282.01,-148.647 2290.34,-142.097 2279.74,-142.024 2282.01,-148.647"/>
</g>
<!-- Node18&#45;&gt;Node24 -->
<g id="edge43" class="edge"><title>Node18&#45;&gt;Node24</title>
<path fill="none" stroke="midnightblue" d="M1588.96,-369.475C1577.59,-361.417 1560.09,-349.023 1545.2,-338.474"/>
<polygon fill="midnightblue" stroke="midnightblue" points="1546.98,-335.447 1536.8,-332.523 1542.93,-341.159 1546.98,-335.447"/>
</g>
<!-- Node18&#45;&gt;Node29 -->
<g id="edge62" class="edge"><title>Node18&#45;&gt;Node29</title>
<path fill="none" stroke="midnightblue" d="M1570.48,-369.475C1538.6,-360.569 1487.77,-346.369 1447.84,-335.215"/>
<polygon fill="midnightblue" stroke="midnightblue" points="1448.77,-331.843 1438.2,-332.523 1446.89,-338.584 1448.77,-331.843"/>
</g>
<!-- Node19&#45;&gt;Node5 -->
<g id="edge29" class="edge"><title>Node19&#45;&gt;Node5</title>
<path fill="none" stroke="midnightblue" d="M1297.27,-179.383C1231.48,-155.407 1099.06,-107.144 1037.22,-84.6081"/>
<polygon fill="midnightblue" stroke="midnightblue" points="1038.17,-81.2281 1027.58,-81.0922 1035.77,-87.8049 1038.17,-81.2281"/>
</g>
<!-- Node19&#45;&gt;Node6 -->
<g id="edge40" class="edge"><title>Node19&#45;&gt;Node6</title>
<path fill="none" stroke="midnightblue" d="M1279.17,-180.773C1276.07,-180.155 1273,-179.559 1270,-179 988.135,-126.411 643.216,-87.1361 539.153,-75.8215"/>
<polygon fill="midnightblue" stroke="midnightblue" points="539.341,-72.3215 529.023,-74.7259 538.589,-79.281 539.341,-72.3215"/>
</g>
<!-- Node19&#45;&gt;Node8 -->
<g id="edge35" class="edge"><title>Node19&#45;&gt;Node8</title>
<path fill="none" stroke="midnightblue" d="M1279.2,-180.567C1276.09,-180.002 1273.01,-179.474 1270,-179 1195.19,-167.222 982.678,-148.813 871.969,-139.619"/>
<polygon fill="midnightblue" stroke="midnightblue" points="872.16,-136.123 861.905,-138.786 871.582,-143.099 872.16,-136.123"/>
</g>
<!-- Node19&#45;&gt;Node9 -->
<g id="edge30" class="edge"><title>Node19&#45;&gt;Node9</title>
<path fill="none" stroke="midnightblue" d="M1329.31,-179.42C1323.03,-163.895 1316.32,-139.003 1329,-123 1346.54,-100.862 1415.1,-87.4791 1470.15,-80.1063"/>
<polygon fill="midnightblue" stroke="midnightblue" points="1470.79,-83.5531 1480.25,-78.7989 1469.89,-76.611 1470.79,-83.5531"/>
</g>
<!-- Node19&#45;&gt;Node13 -->
<g id="edge41" class="edge"><title>Node19&#45;&gt;Node13</title>
<path fill="none" stroke="midnightblue" d="M1320.48,-179.285C1310.89,-169.792 1298.93,-156.593 1291,-143 1281.45,-126.624 1274.97,-105.88 1271.17,-91.1428"/>
<polygon fill="midnightblue" stroke="midnightblue" points="1274.52,-90.1215 1268.78,-81.2164 1267.72,-91.7575 1274.52,-90.1215"/>
</g>
<!-- Node19&#45;&gt;Node14 -->
<g id="edge37" class="edge"><title>Node19&#45;&gt;Node14</title>
<path fill="none" stroke="midnightblue" d="M1336.75,-179.377C1338.46,-162.822 1344.03,-135.997 1362,-123 1421.17,-80.199 2566.44,-73.4858 2775.42,-72.6159"/>
<polygon fill="midnightblue" stroke="midnightblue" points="2775.74,-76.1148 2785.72,-72.5747 2775.71,-69.1148 2775.74,-76.1148"/>
</g>
<!-- Node19&#45;&gt;Node20 -->
<g id="edge31" class="edge"><title>Node19&#45;&gt;Node20</title>
<path fill="none" stroke="midnightblue" d="M1360.41,-179.399C1376.92,-169.862 1398.62,-157.325 1415.04,-147.842"/>
<polygon fill="midnightblue" stroke="midnightblue" points="1417.1,-150.691 1424.01,-142.658 1413.6,-144.629 1417.1,-150.691"/>
</g>
<!-- Node19&#45;&gt;Node21 -->
<g id="edge36" class="edge"><title>Node19&#45;&gt;Node21</title>
<path fill="none" stroke="midnightblue" d="M1392.81,-190.044C1574.19,-179.009 2135.93,-144.833 2280.04,-136.066"/>
<polygon fill="midnightblue" stroke="midnightblue" points="2280.67,-139.535 2290.43,-135.434 2280.24,-132.548 2280.67,-139.535"/>
</g>
<!-- Node19&#45;&gt;Node22 -->
<g id="edge38" class="edge"><title>Node19&#45;&gt;Node22</title>
<path fill="none" stroke="midnightblue" d="M1392.63,-190.75C1606.98,-180.338 2364.78,-143.531 2529.32,-135.539"/>
<polygon fill="midnightblue" stroke="midnightblue" points="2529.89,-139.015 2539.71,-135.034 2529.55,-132.023 2529.89,-139.015"/>
</g>
<!-- Node19&#45;&gt;Node23 -->
<g id="edge39" class="edge"><title>Node19&#45;&gt;Node23</title>
<path fill="none" stroke="midnightblue" d="M1279.22,-180.462C1276.11,-179.924 1273.02,-179.431 1270,-179 1037.3,-145.798 972.305,-178.38 736.492,-142.978"/>
<polygon fill="midnightblue" stroke="midnightblue" points="737,-139.515 726.586,-141.466 735.944,-146.435 737,-139.515"/>
</g>
<!-- Node20&#45;&gt;Node5 -->
<g id="edge33" class="edge"><title>Node20&#45;&gt;Node5</title>
<path fill="none" stroke="midnightblue" d="M1376.68,-123.475C1290.84,-111.734 1137.73,-90.7913 1057.07,-79.7588"/>
<polygon fill="midnightblue" stroke="midnightblue" points="1057.51,-76.2867 1047.13,-78.3991 1056.56,-83.2221 1057.51,-76.2867"/>
</g>
<!-- Node20&#45;&gt;Node9 -->
<g id="edge32" class="edge"><title>Node20&#45;&gt;Node9</title>
<path fill="none" stroke="midnightblue" d="M1454.04,-123.475C1468.66,-115.191 1491.37,-102.325 1510.31,-91.5913"/>
<polygon fill="midnightblue" stroke="midnightblue" points="1512.28,-94.4982 1519.25,-86.523 1508.83,-88.4081 1512.28,-94.4982"/>
</g>
<!-- Node20&#45;&gt;Node13 -->
<g id="edge34" class="edge"><title>Node20&#45;&gt;Node13</title>
<path fill="none" stroke="midnightblue" d="M1414.36,-123.475C1384.72,-113.225 1334.82,-95.9593 1301.4,-84.3994"/>
<polygon fill="midnightblue" stroke="midnightblue" points="1302.19,-80.9707 1291.6,-81.0091 1299.9,-87.5861 1302.19,-80.9707"/>
</g>
<!-- Node24&#45;&gt;Node14 -->
<g id="edge61" class="edge"><title>Node24&#45;&gt;Node14</title>
<path fill="none" stroke="midnightblue" d="M1572.63,-312.821C1626.76,-307.623 1710.36,-295.235 1777,-266 1815.42,-249.143 1825.34,-241.544 1853,-210 1882.12,-176.798 1863.61,-146.5 1901,-123 1976.3,-75.6702 2623.18,-72.5405 2775.82,-72.4649"/>
<polygon fill="midnightblue" stroke="midnightblue" points="2775.95,-75.965 2785.95,-72.4641 2775.95,-68.965 2775.95,-75.965"/>
</g>
<!-- Node24&#45;&gt;Node20 -->
<g id="edge44" class="edge"><title>Node24&#45;&gt;Node20</title>
<path fill="none" stroke="midnightblue" d="M1511.01,-302.483C1497.05,-269.817 1462.36,-188.647 1446.78,-152.211"/>
<polygon fill="midnightblue" stroke="midnightblue" points="1449.92,-150.639 1442.77,-142.819 1443.48,-153.39 1449.92,-150.639"/>
</g>
<!-- Node25 -->
<g id="node25" class="node"><title>Node25</title>
<g id="a_node25"><a xlink:href="functor_8h.html" target="_top" xlink:title="Defines the Functor data structures. ">
<polygon fill="white" stroke="black" points="982.5,-185 982.5,-204 1089.5,-204 1089.5,-185 982.5,-185"/>
<text text-anchor="middle" x="1036" y="-192" font-family="Helvetica,sans-Serif" font-size="10.00">tvm/node/functor.h</text>
</a>
</g>
</g>
<!-- Node24&#45;&gt;Node25 -->
<g id="edge45" class="edge"><title>Node24&#45;&gt;Node25</title>
<path fill="none" stroke="midnightblue" d="M1485.3,-302.407C1443.82,-284.14 1373.19,-253.708 1346,-246 1262.64,-222.365 1163.32,-208.614 1099.98,-201.583"/>
<polygon fill="midnightblue" stroke="midnightblue" points="1100.06,-198.072 1089.74,-200.471 1099.31,-205.031 1100.06,-198.072"/>
</g>
<!-- Node24&#45;&gt;Node26 -->
<g id="edge51" class="edge"><title>Node24&#45;&gt;Node26</title>
<path fill="none" stroke="midnightblue" d="M1461.41,-303.672C1458.23,-303.072 1455.08,-302.509 1452,-302 1331.66,-282.1 1190.12,-268.885 1107.6,-262.187"/>
<polygon fill="midnightblue" stroke="midnightblue" points="1107.83,-258.694 1097.59,-261.382 1107.27,-265.672 1107.83,-258.694"/>
</g>
<!-- Node25&#45;&gt;Node5 -->
<g id="edge46" class="edge"><title>Node25&#45;&gt;Node5</title>
<path fill="none" stroke="midnightblue" d="M1033.7,-184.798C1028.53,-165.263 1015.92,-117.565 1008.91,-91.0471"/>
<polygon fill="midnightblue" stroke="midnightblue" points="1012.22,-89.8959 1006.28,-81.1232 1005.45,-91.6857 1012.22,-89.8959"/>
</g>
<!-- Node25&#45;&gt;Node6 -->
<g id="edge50" class="edge"><title>Node25&#45;&gt;Node6</title>
<path fill="none" stroke="midnightblue" d="M1014.75,-184.96C990.334,-175.089 949.116,-158.244 914,-143 894.295,-134.446 890.629,-128.99 870,-123 751.044,-88.4562 603.018,-77.2305 539.422,-73.8469"/>
<polygon fill="midnightblue" stroke="midnightblue" points="539.418,-70.3423 529.255,-73.3354 539.066,-77.3335 539.418,-70.3423"/>
</g>
<!-- Node25&#45;&gt;Node8 -->
<g id="edge47" class="edge"><title>Node25&#45;&gt;Node8</title>
<path fill="none" stroke="midnightblue" d="M1002.62,-184.975C961.438,-174.459 891.35,-156.562 846.131,-145.014"/>
<polygon fill="midnightblue" stroke="midnightblue" points="846.876,-141.592 836.321,-142.509 845.144,-148.375 846.876,-141.592"/>
</g>
<!-- Node25&#45;&gt;Node13 -->
<g id="edge49" class="edge"><title>Node25&#45;&gt;Node13</title>
<path fill="none" stroke="midnightblue" d="M1042.08,-184.768C1052.87,-169.927 1076.78,-139.763 1104,-123 1140.69,-100.405 1188.31,-87.1836 1222.59,-79.9779"/>
<polygon fill="midnightblue" stroke="midnightblue" points="1223.66,-83.3329 1232.78,-77.931 1222.28,-76.4701 1223.66,-83.3329"/>
</g>
<!-- Node25&#45;&gt;Node21 -->
<g id="edge48" class="edge"><title>Node25&#45;&gt;Node21</title>
<path fill="none" stroke="midnightblue" d="M1089.73,-187.08C1115.49,-184.21 1146.81,-181.025 1175,-179 1610.78,-147.695 2142.03,-136.917 2279.99,-134.543"/>
<polygon fill="midnightblue" stroke="midnightblue" points="2280.38,-138.037 2290.32,-134.369 2280.26,-131.038 2280.38,-138.037"/>
</g>
<!-- Node26&#45;&gt;Node6 -->
<g id="edge59" class="edge"><title>Node26&#45;&gt;Node6</title>
<path fill="none" stroke="midnightblue" d="M978.366,-248.232C925.16,-241.357 845.467,-228.993 778,-210 700.225,-188.105 680.161,-181.269 609,-143 578.623,-126.663 546.429,-102.926 526.768,-87.5987"/>
<polygon fill="midnightblue" stroke="midnightblue" points="528.686,-84.6535 518.668,-81.2052 524.349,-90.1482 528.686,-84.6535"/>
</g>
<!-- Node26&#45;&gt;Node8 -->
<g id="edge52" class="edge"><title>Node26&#45;&gt;Node8</title>
<path fill="none" stroke="midnightblue" d="M978.47,-248.253C908.722,-239.738 801.076,-224.454 789,-210 775.338,-193.647 784.017,-168.331 792.575,-151.469"/>
<polygon fill="midnightblue" stroke="midnightblue" points="795.673,-153.097 797.429,-142.649 789.541,-149.722 795.673,-153.097"/>
</g>
<!-- Node26&#45;&gt;Node13 -->
<g id="edge55" class="edge"><title>Node26&#45;&gt;Node13</title>
<path fill="none" stroke="midnightblue" d="M1061.65,-246.36C1081.44,-238.518 1109.92,-225.781 1132,-210 1182.84,-173.666 1231.36,-117.153 1253.88,-89.2506"/>
<polygon fill="midnightblue" stroke="midnightblue" points="1256.75,-91.2604 1260.25,-81.2585 1251.28,-86.8981 1256.75,-91.2604"/>
</g>
<!-- Node26&#45;&gt;Node14 -->
<g id="edge60" class="edge"><title>Node26&#45;&gt;Node14</title>
<path fill="none" stroke="midnightblue" d="M1097.63,-249.07C1169.72,-241.563 1294.63,-227.478 1401,-210 1590.83,-178.809 1634.18,-147.338 1825,-123 2196.05,-75.6767 2651.25,-72.3599 2775.42,-72.3927"/>
<polygon fill="midnightblue" stroke="midnightblue" points="2775.74,-75.8929 2785.74,-72.4036 2775.75,-68.8929 2775.74,-75.8929"/>
</g>
<!-- Node26&#45;&gt;Node17 -->
<g id="edge53" class="edge"><title>Node26&#45;&gt;Node17</title>
<path fill="none" stroke="midnightblue" d="M1012.78,-246.475C982.332,-236.18 930.951,-218.81 896.757,-207.25"/>
<polygon fill="midnightblue" stroke="midnightblue" points="897.764,-203.896 887.17,-204.009 895.522,-210.527 897.764,-203.896"/>
</g>
<!-- Node26&#45;&gt;Node19 -->
<g id="edge54" class="edge"><title>Node26&#45;&gt;Node19</title>
<path fill="none" stroke="midnightblue" d="M1083.85,-246.453C1128.59,-238.034 1198.85,-224.61 1269.52,-210.069"/>
<polygon fill="midnightblue" stroke="midnightblue" points="1270.41,-213.46 1279.49,-208.01 1268.99,-206.604 1270.41,-213.46"/>
</g>
<!-- Node26&#45;&gt;Node21 -->
<g id="edge56" class="edge"><title>Node26&#45;&gt;Node21</title>
<path fill="none" stroke="midnightblue" d="M1097.83,-249.326C1322.01,-228.068 2108.11,-153.524 2280.44,-137.182"/>
<polygon fill="midnightblue" stroke="midnightblue" points="2280.82,-140.662 2290.45,-136.233 2280.16,-133.693 2280.82,-140.662"/>
</g>
<!-- Node27 -->
<g id="node27" class="node"><title>Node27</title>
<polygon fill="white" stroke="#bfbfbf" points="1184.5,-185 1184.5,-204 1261.5,-204 1261.5,-185 1184.5,-185"/>
<text text-anchor="middle" x="1223" y="-192" font-family="Helvetica,sans-Serif" font-size="10.00">initializer_list</text>
</g>
<!-- Node26&#45;&gt;Node27 -->
<g id="edge57" class="edge"><title>Node26&#45;&gt;Node27</title>
<path fill="none" stroke="midnightblue" d="M1064.51,-246.475C1096.65,-236.136 1150.99,-218.661 1186.93,-207.102"/>
<polygon fill="midnightblue" stroke="midnightblue" points="1188.1,-210.403 1196.54,-204.009 1185.95,-203.739 1188.1,-210.403"/>
</g>
<!-- Node26&#45;&gt;Node28 -->
<g id="edge58" class="edge"><title>Node26&#45;&gt;Node28</title>
<path fill="none" stroke="midnightblue" d="M978.396,-249.536C854.014,-238.132 568.248,-211.933 446.082,-200.733"/>
<polygon fill="midnightblue" stroke="midnightblue" points="446.103,-197.221 435.825,-199.793 445.464,-204.191 446.103,-197.221"/>
</g>
<!-- Node29&#45;&gt;Node14 -->
<g id="edge66" class="edge"><title>Node29&#45;&gt;Node14</title>
<path fill="none" stroke="midnightblue" d="M1414.65,-302.389C1486.82,-264.99 1693.04,-163.425 1878,-123 2054.67,-84.3885 2632.57,-74.6972 2775.71,-72.8653"/>
<polygon fill="midnightblue" stroke="midnightblue" points="2776.04,-76.3616 2785.99,-72.7378 2775.95,-69.3621 2776.04,-76.3616"/>
</g>
<!-- Node29&#45;&gt;Node20 -->
<g id="edge63" class="edge"><title>Node29&#45;&gt;Node20</title>
<path fill="none" stroke="midnightblue" d="M1391.92,-302.483C1401.01,-269.957 1423.53,-189.343 1433.78,-152.683"/>
<polygon fill="midnightblue" stroke="midnightblue" points="1437.21,-153.392 1436.54,-142.819 1430.47,-151.508 1437.21,-153.392"/>
</g>
<!-- Node29&#45;&gt;Node25 -->
<g id="edge64" class="edge"><title>Node29&#45;&gt;Node25</title>
<path fill="none" stroke="midnightblue" d="M1378.19,-302.299C1366.05,-285.927 1343.81,-259.54 1318,-246 1281,-226.595 1171.13,-210.912 1099.96,-202.422"/>
<polygon fill="midnightblue" stroke="midnightblue" points="1100.09,-198.913 1089.75,-201.222 1099.27,-205.865 1100.09,-198.913"/>
</g>
<!-- Node29&#45;&gt;Node26 -->
<g id="edge65" class="edge"><title>Node29&#45;&gt;Node26</title>
<path fill="none" stroke="midnightblue" d="M1332.15,-307.006C1268.31,-296.153 1164.17,-278.449 1098.46,-267.278"/>
<polygon fill="midnightblue" stroke="midnightblue" points="1098.7,-263.769 1088.26,-265.543 1097.53,-270.67 1098.7,-263.769"/>
</g>
<!-- Node30&#45;&gt;Node25 -->
<g id="edge71" class="edge"><title>Node30&#45;&gt;Node25</title>
<path fill="none" stroke="midnightblue" d="M900.198,-369.488C899.2,-354.85 898.806,-324.33 910,-302 931.658,-258.794 979.507,-226.275 1009.61,-209.126"/>
<polygon fill="midnightblue" stroke="midnightblue" points="1011.64,-212.002 1018.7,-204.105 1008.26,-205.875 1011.64,-212.002"/>
</g>
<!-- Node31 -->
<g id="node31" class="node"><title>Node31</title>
<polygon fill="white" stroke="#bfbfbf" points="760.5,-308 760.5,-327 819.5,-327 819.5,-308 760.5,-308"/>
<text text-anchor="middle" x="790" y="-315" font-family="Helvetica,sans-Serif" font-size="10.00">iostream</text>
</g>
<!-- Node30&#45;&gt;Node31 -->
<g id="edge72" class="edge"><title>Node30&#45;&gt;Node31</title>
<path fill="none" stroke="midnightblue" d="M885.096,-369.475C866.715,-359.622 836.244,-343.288 814.755,-331.77"/>
<polygon fill="midnightblue" stroke="midnightblue" points="816.341,-328.649 805.874,-327.009 813.034,-334.818 816.341,-328.649"/>
</g>
<!-- Node32&#45;&gt;Node8 -->
<g id="edge82" class="edge"><title>Node32&#45;&gt;Node8</title>
<path fill="none" stroke="midnightblue" d="M1450.92,-486.909C1313.57,-475.917 868.087,-436.809 827,-389 821.206,-382.259 826.877,-377.888 827,-369 827.414,-339.222 836.377,-330.579 828,-302 814.337,-255.386 782.663,-256.614 769,-210 765.125,-196.778 764.62,-192.063 769,-179 772.604,-168.251 779.903,-158.02 786.817,-150.038"/>
<polygon fill="midnightblue" stroke="midnightblue" points="789.477,-152.317 793.712,-142.605 784.345,-147.556 789.477,-152.317"/>
</g>
<!-- Node32&#45;&gt;Node14 -->
<g id="edge84" class="edge"><title>Node32&#45;&gt;Node14</title>
<path fill="none" stroke="midnightblue" d="M1525.36,-481.451C1581.63,-466.752 1696.17,-433.883 1786,-389 1873.01,-345.528 1893.07,-329.204 1967,-266 2033.2,-209.4 2022.37,-160.46 2101,-123 2162.39,-93.7541 2644.84,-77.3637 2775.47,-73.4321"/>
<polygon fill="midnightblue" stroke="midnightblue" points="2775.75,-76.9256 2785.64,-73.13 2775.54,-69.9286 2775.75,-76.9256"/>
</g>
<!-- Node32&#45;&gt;Node16 -->
<g id="edge83" class="edge"><title>Node32&#45;&gt;Node16</title>
<path fill="none" stroke="midnightblue" d="M1491.5,-481.083C1491.89,-474.006 1492.45,-463.861 1492.95,-454.986"/>
<polygon fill="midnightblue" stroke="midnightblue" points="1496.45,-454.93 1493.51,-444.751 1489.46,-454.542 1496.45,-454.93"/>
</g>
<!-- Node33&#45;&gt;Node8 -->
<g id="edge86" class="edge"><title>Node33&#45;&gt;Node8</title>
<path fill="none" stroke="midnightblue" d="M1520.16,-544.016C1406.96,-536.949 1069.63,-506.71 821,-389 784.99,-371.951 768.259,-368.909 751,-333 737.069,-304.016 722.401,-269.109 762,-179 766.962,-167.708 775.921,-157.36 784.201,-149.441"/>
<polygon fill="midnightblue" stroke="midnightblue" points="786.673,-151.926 791.779,-142.642 781.998,-146.715 786.673,-151.926"/>
</g>
<!-- Node33&#45;&gt;Node14 -->
<g id="edge91" class="edge"><title>Node33&#45;&gt;Node14</title>
<path fill="none" stroke="midnightblue" d="M1597.94,-546.082C1649.95,-544.69 1743.72,-536.842 1814,-501 2029.33,-391.193 1984.9,-222.887 2205,-123 2308.23,-76.1535 2665.95,-72.4026 2775.72,-72.3794"/>
<polygon fill="midnightblue" stroke="midnightblue" points="2775.84,-75.8794 2785.84,-72.388 2775.84,-68.8794 2775.84,-75.8794"/>
</g>
<!-- Node33&#45;&gt;Node16 -->
<g id="edge88" class="edge"><title>Node33&#45;&gt;Node16</title>
<path fill="none" stroke="midnightblue" d="M1557.91,-537.446C1555.97,-524.461 1551.01,-499.349 1540,-481 1533.22,-469.704 1522.93,-459.268 1513.8,-451.295"/>
<polygon fill="midnightblue" stroke="midnightblue" points="1515.8,-448.409 1505.87,-444.712 1511.33,-453.794 1515.8,-448.409"/>
</g>
<!-- Node33&#45;&gt;Node20 -->
<g id="edge87" class="edge"><title>Node33&#45;&gt;Node20</title>
<path fill="none" stroke="midnightblue" d="M1597.7,-540.519C1680.42,-527.716 1867,-492.567 1867,-436 1867,-436 1867,-436 1867,-378 1867,-287.981 1577.65,-181.036 1474.77,-145.857"/>
<polygon fill="midnightblue" stroke="midnightblue" points="1475.72,-142.485 1465.13,-142.585 1473.47,-149.113 1475.72,-142.485"/>
</g>
<!-- Node33&#45;&gt;Node26 -->
<g id="edge89" class="edge"><title>Node33&#45;&gt;Node26</title>
<path fill="none" stroke="midnightblue" d="M1533.43,-537.429C1509.41,-529.084 1472.67,-515.558 1442,-501 1287.42,-427.628 1116.2,-311.597 1058.35,-271.327"/>
<polygon fill="midnightblue" stroke="midnightblue" points="1060.26,-268.392 1050.06,-265.533 1056.25,-274.13 1060.26,-268.392"/>
</g>
<!-- Node33&#45;&gt;Node32 -->
<g id="edge90" class="edge"><title>Node33&#45;&gt;Node32</title>
<path fill="none" stroke="midnightblue" d="M1548.07,-537.324C1537.83,-529.185 1522.28,-516.839 1510,-507.087"/>
<polygon fill="midnightblue" stroke="midnightblue" points="1512.13,-504.312 1502.12,-500.834 1507.78,-509.794 1512.13,-504.312"/>
</g>
<!-- Node35&#45;&gt;Node7 -->
<g id="edge97" class="edge"><title>Node35&#45;&gt;Node7</title>
<path fill="none" stroke="midnightblue" d="M799.021,-706.309C936.577,-685.971 1308.49,-630.984 1442.25,-611.208"/>
<polygon fill="midnightblue" stroke="midnightblue" points="1442.83,-614.66 1452.21,-609.735 1441.81,-607.735 1442.83,-614.66"/>
</g>
<!-- Node35&#45;&gt;Node28 -->
<g id="edge111" class="edge"><title>Node35&#45;&gt;Node28</title>
<path fill="none" stroke="midnightblue" d="M726.131,-705.353C709.453,-697.666 686.258,-685.149 670,-669 521.92,-521.911 422.023,-281.28 395.839,-213.673"/>
<polygon fill="midnightblue" stroke="midnightblue" points="398.995,-212.128 392.156,-204.036 392.457,-214.627 398.995,-212.128"/>
</g>
<!-- Node35&#45;&gt;Node36 -->
<g id="edge98" class="edge"><title>Node35&#45;&gt;Node36</title>
<path fill="none" stroke="midnightblue" d="M799.295,-710.883C959.812,-701.316 1444.14,-672.449 1602.38,-663.017"/>
<polygon fill="midnightblue" stroke="midnightblue" points="1602.99,-666.487 1612.76,-662.398 1602.57,-659.5 1602.99,-666.487"/>
</g>
<!-- Node36&#45;&gt;Node6 -->
<g id="edge110" class="edge"><title>Node36&#45;&gt;Node6</title>
<path fill="none" stroke="midnightblue" d="M1612.79,-657.486C1460.67,-655.311 920.504,-645.424 752,-613 525.925,-569.498 424.531,-608.052 262,-445 160.266,-342.94 131.451,-233.457 224,-123 255.914,-84.9111 409.015,-75.528 476.236,-73.2342"/>
<polygon fill="midnightblue" stroke="midnightblue" points="476.741,-76.7204 486.628,-72.9133 476.525,-69.7237 476.741,-76.7204"/>
</g>
<!-- Node36&#45;&gt;Node7 -->
<g id="edge104" class="edge"><title>Node36&#45;&gt;Node7</title>
<path fill="none" stroke="midnightblue" d="M1627.33,-649.444C1600.08,-640.359 1556.82,-625.939 1526.35,-615.783"/>
<polygon fill="midnightblue" stroke="midnightblue" points="1527.14,-612.358 1516.55,-612.516 1524.93,-618.999 1527.14,-612.358"/>
</g>
<!-- Node36&#45;&gt;Node9 -->
<g id="edge102" class="edge"><title>Node36&#45;&gt;Node9</title>
<path fill="none" stroke="midnightblue" d="M1693.24,-656.384C1781.54,-652.374 1989.56,-640.254 2054,-613 2095.88,-595.289 2133,-593.468 2133,-548 2133,-548 2133,-548 2133,-434 2133,-281.115 2110.3,-212.019 1986,-123 1928.61,-81.8979 1727.82,-73.7453 1617.68,-72.4437"/>
<polygon fill="midnightblue" stroke="midnightblue" points="1617.67,-68.9435 1607.64,-72.341 1617.6,-75.9432 1617.67,-68.9435"/>
</g>
<!-- Node36&#45;&gt;Node14 -->
<g id="edge105" class="edge"><title>Node36&#45;&gt;Node14</title>
<path fill="none" stroke="midnightblue" d="M1693.33,-656.85C1800.6,-653.429 2090.9,-641.713 2182,-613 2442.43,-530.915 2513.13,-474.878 2689,-266 2738.47,-207.239 2781.55,-125.882 2799.33,-90.3271"/>
<polygon fill="midnightblue" stroke="midnightblue" points="2802.54,-91.7188 2803.83,-81.2028 2796.27,-88.6193 2802.54,-91.7188"/>
</g>
<!-- Node36&#45;&gt;Node16 -->
<g id="edge99" class="edge"><title>Node36&#45;&gt;Node16</title>
<path fill="none" stroke="midnightblue" d="M1650.7,-649.349C1645.04,-628.865 1629.18,-576.177 1606,-537 1589.45,-509.037 1583.02,-502.887 1559,-481 1546.27,-469.395 1530.39,-458.35 1517.52,-450.108"/>
<polygon fill="midnightblue" stroke="midnightblue" points="1519.1,-446.967 1508.76,-444.633 1515.39,-452.902 1519.1,-446.967"/>
</g>
<!-- Node36&#45;&gt;Node20 -->
<g id="edge103" class="edge"><title>Node36&#45;&gt;Node20</title>
<path fill="none" stroke="midnightblue" d="M1693,-656.559C1801.81,-651.559 2095,-630.438 2095,-548 2095,-548 2095,-548 2095,-490 2095,-229.711 1691.1,-158.713 1517.16,-140.205"/>
<polygon fill="midnightblue" stroke="midnightblue" points="1517.35,-136.706 1507.04,-139.16 1516.63,-143.669 1517.35,-136.706"/>
</g>
<!-- Node36&#45;&gt;Node22 -->
<g id="edge109" class="edge"><title>Node36&#45;&gt;Node22</title>
<path fill="none" stroke="midnightblue" d="M1693.05,-657.115C1795.39,-654.416 2064.18,-644.453 2147,-613 2375.67,-526.162 2519.62,-228.348 2553.35,-151.966"/>
<polygon fill="midnightblue" stroke="midnightblue" points="2556.6,-153.269 2557.37,-142.703 2550.18,-150.479 2556.6,-153.269"/>
</g>
<!-- Node36&#45;&gt;Node25 -->
<g id="edge101" class="edge"><title>Node36&#45;&gt;Node25</title>
<path fill="none" stroke="midnightblue" d="M1612.8,-657.534C1458.27,-655.504 907.616,-646 837,-613 744.415,-569.733 743.773,-524.857 680,-445 638.963,-393.614 604.329,-355.902 642,-302 683.48,-242.646 725.383,-265.922 795,-246 855.241,-228.761 925.504,-214.708 974.564,-205.844"/>
<polygon fill="midnightblue" stroke="midnightblue" points="975.472,-209.237 984.7,-204.031 974.24,-202.346 975.472,-209.237"/>
</g>
<!-- Node36&#45;&gt;Node26 -->
<g id="edge100" class="edge"><title>Node36&#45;&gt;Node26</title>
<path fill="none" stroke="midnightblue" d="M1612.76,-656.605C1453.24,-650.551 874,-623.378 874,-548 874,-548 874,-548 874,-490 874,-415.422 970.965,-453.732 1008,-389 1027.33,-355.217 1007.76,-339.549 1018,-302 1020.53,-292.721 1024.7,-282.907 1028.58,-274.82"/>
<polygon fill="midnightblue" stroke="midnightblue" points="1031.81,-276.176 1033.19,-265.671 1025.56,-273.025 1031.81,-276.176"/>
</g>
<!-- Node36&#45;&gt;Node28 -->
<g id="edge107" class="edge"><title>Node36&#45;&gt;Node28</title>
<path fill="none" stroke="midnightblue" d="M1612.88,-657.444C1453.99,-655.029 873.842,-644.141 798,-613 659.379,-556.082 646.652,-500.016 546,-389 493.215,-330.78 493.77,-305.124 442,-246 431.058,-233.504 417.476,-220.605 406.8,-210.972"/>
<polygon fill="midnightblue" stroke="midnightblue" points="409.095,-208.329 399.295,-204.303 404.445,-213.562 409.095,-208.329"/>
</g>
<!-- Node36&#45;&gt;Node31 -->
<g id="edge108" class="edge"><title>Node36&#45;&gt;Node31</title>
<path fill="none" stroke="midnightblue" d="M1612.77,-658.479C1459.54,-659.935 918.019,-661.578 860,-613 775.536,-542.28 782.461,-389.92 787.743,-337.034"/>
<polygon fill="midnightblue" stroke="midnightblue" points="791.225,-337.394 788.842,-327.07 784.267,-336.626 791.225,-337.394"/>
</g>
<!-- Node36&#45;&gt;Node34 -->
<g id="edge106" class="edge"><title>Node36&#45;&gt;Node34</title>
<path fill="none" stroke="midnightblue" d="M1612.95,-652.703C1508.3,-638.713 1218.16,-598.958 978,-557 976.901,-556.808 975.788,-556.61 974.665,-556.408"/>
<polygon fill="midnightblue" stroke="midnightblue" points="974.908,-552.892 964.435,-554.49 973.619,-559.772 974.908,-552.892"/>
</g>
<!-- Node37&#45;&gt;Node6 -->
<g id="edge140" class="edge"><title>Node37&#45;&gt;Node6</title>
<path fill="none" stroke="midnightblue" d="M1633.86,-824.924C1410.07,-819.525 429.129,-795.096 401,-781 275.476,-718.098 48,-397.402 48,-257 48,-257 48,-257 48,-193.5 48,-104.673 372.867,-79.6879 476.58,-73.975"/>
<polygon fill="midnightblue" stroke="midnightblue" points="476.934,-77.4612 486.736,-73.4389 476.565,-70.471 476.934,-77.4612"/>
</g>
<!-- Node37&#45;&gt;Node13 -->
<g id="edge141" class="edge"><title>Node37&#45;&gt;Node13</title>
<path fill="none" stroke="midnightblue" d="M1633.88,-825.325C1433.2,-822.179 626.732,-807.953 517,-781 451.551,-764.924 380,-783.395 380,-716 380,-716 380,-716 380,-658 380,-463.433 432.742,-415.653 528,-246 567.26,-176.079 584.751,-150.71 660,-123 686.354,-113.295 1087.07,-84.9147 1222.59,-75.5427"/>
<polygon fill="midnightblue" stroke="midnightblue" points="1222.9,-79.03 1232.63,-74.8496 1222.42,-72.0466 1222.9,-79.03"/>
</g>
<!-- Node37&#45;&gt;Node14 -->
<g id="edge138" class="edge"><title>Node37&#45;&gt;Node14</title>
<path fill="none" stroke="midnightblue" d="M1724.27,-824.414C1862.73,-819.375 2279.27,-802.773 2413,-781 2515.63,-764.29 2865,-763.981 2865,-660 2865,-660 2865,-660 2865,-546 2865,-470.314 2903,-455.686 2903,-380 2903,-380 2903,-380 2903,-193.5 2903,-146.747 2858.58,-107.355 2830.49,-87.1189"/>
<polygon fill="midnightblue" stroke="midnightblue" points="2832.23,-84.0662 2822.02,-81.2367 2828.23,-89.8157 2832.23,-84.0662"/>
</g>
<!-- Node37&#45;&gt;Node21 -->
<g id="edge139" class="edge"><title>Node37&#45;&gt;Node21</title>
<path fill="none" stroke="midnightblue" d="M1724.14,-824.373C1867.59,-819.021 2307.19,-801.143 2368,-781 2454.95,-752.197 2497.24,-749.465 2541,-669 2596.61,-566.753 2418.12,-277.43 2356,-179 2349.26,-168.316 2339.79,-157.903 2331.54,-149.79"/>
<polygon fill="midnightblue" stroke="midnightblue" points="2333.81,-147.119 2324.15,-142.781 2329,-152.2 2333.81,-147.119"/>
</g>
<!-- Node37&#45;&gt;Node26 -->
<g id="edge117" class="edge"><title>Node37&#45;&gt;Node26</title>
<path fill="none" stroke="midnightblue" d="M1633.94,-825.074C1424.37,-820.663 554.383,-801.16 535,-781 407.968,-648.873 676.998,-336.782 729,-302 767.004,-276.581 889.076,-265.122 967.934,-260.263"/>
<polygon fill="midnightblue" stroke="midnightblue" points="968.508,-263.735 978.282,-259.648 968.092,-256.747 968.508,-263.735"/>
</g>
<!-- Node37&#45;&gt;Node36 -->
<g id="edge130" class="edge"><title>Node37&#45;&gt;Node36</title>
<path fill="none" stroke="midnightblue" d="M1677.6,-817.075C1673.51,-790.945 1661.49,-714.211 1655.91,-678.577"/>
<polygon fill="midnightblue" stroke="midnightblue" points="1659.35,-677.906 1654.34,-668.568 1652.43,-678.989 1659.35,-677.906"/>
</g>
<!-- Node38 -->
<g id="node38" class="node"><title>Node38</title>
<g id="a_node38"><a xlink:href="bound_8h.html" target="_top" xlink:title="Bound deducers. ">
<polygon fill="white" stroke="black" points="1435,-761.5 1435,-780.5 1537,-780.5 1537,-761.5 1435,-761.5"/>
<text text-anchor="middle" x="1486" y="-768.5" font-family="Helvetica,sans-Serif" font-size="10.00">tvm/arith/bound.h</text>
</a>
</g>
</g>
<!-- Node37&#45;&gt;Node38 -->
<g id="edge118" class="edge"><title>Node37&#45;&gt;Node38</title>
<path fill="none" stroke="midnightblue" d="M1648.42,-817.444C1615.39,-808.201 1562.61,-793.436 1526.23,-783.257"/>
<polygon fill="midnightblue" stroke="midnightblue" points="1527.01,-779.84 1516.44,-780.516 1525.13,-786.582 1527.01,-779.84"/>
</g>
<!-- Node37&#45;&gt;Node40 -->
<g id="edge131" class="edge"><title>Node37&#45;&gt;Node40</title>
<path fill="none" stroke="midnightblue" d="M1724.06,-818.885C1789.14,-808.609 1908.84,-789.71 1974.64,-779.321"/>
<polygon fill="midnightblue" stroke="midnightblue" points="1975.39,-782.746 1984.72,-777.729 1974.29,-775.831 1975.39,-782.746"/>
</g>
<!-- Node38&#45;&gt;Node7 -->
<g id="edge120" class="edge"><title>Node38&#45;&gt;Node7</title>
<path fill="none" stroke="midnightblue" d="M1486.27,-761.075C1487.06,-734.945 1489.37,-658.211 1490.44,-622.577"/>
<polygon fill="midnightblue" stroke="midnightblue" points="1493.94,-622.669 1490.74,-612.568 1486.94,-622.458 1493.94,-622.669"/>
</g>
<!-- Node38&#45;&gt;Node26 -->
<g id="edge119" class="edge"><title>Node38&#45;&gt;Node26</title>
<path fill="none" stroke="midnightblue" d="M1434.85,-768.052C1319.77,-761.559 1035.05,-733.533 837,-613 776.176,-575.983 732,-563.203 732,-492 732,-492 732,-492 732,-378 732,-343.183 725.304,-325.494 751,-302 781.928,-273.721 893.644,-263.194 968.228,-259.288"/>
<polygon fill="midnightblue" stroke="midnightblue" points="968.678,-262.77 978.493,-258.78 968.332,-255.779 968.678,-262.77"/>
</g>
<!-- Node38&#45;&gt;Node28 -->
<g id="edge129" class="edge"><title>Node38&#45;&gt;Node28</title>
<path fill="none" stroke="midnightblue" d="M1434.98,-769.516C1269.18,-767.616 752.399,-758.999 686,-725 514.984,-637.433 489.616,-565.626 414,-389 388.369,-329.13 387.136,-250.044 388.111,-214.376"/>
<polygon fill="midnightblue" stroke="midnightblue" points="391.621,-214.158 388.494,-204.035 384.626,-213.899 391.621,-214.158"/>
</g>
<!-- Node38&#45;&gt;Node35 -->
<g id="edge121" class="edge"><title>Node38&#45;&gt;Node35</title>
<path fill="none" stroke="midnightblue" d="M1434.82,-767.781C1322.21,-762.635 1044.55,-748.501 813,-725 811.738,-724.872 810.463,-724.738 809.178,-724.6"/>
<polygon fill="midnightblue" stroke="midnightblue" points="809.533,-721.118 799.199,-723.455 808.735,-728.072 809.533,-721.118"/>
</g>
<!-- Node38&#45;&gt;Node36 -->
<g id="edge122" class="edge"><title>Node38&#45;&gt;Node36</title>
<path fill="none" stroke="midnightblue" d="M1492.78,-761.405C1503.79,-747.912 1526.77,-721.591 1551,-705 1571.31,-691.091 1596.62,-679.895 1616.94,-672.15"/>
<polygon fill="midnightblue" stroke="midnightblue" points="1618.31,-675.376 1626.48,-668.628 1615.88,-668.81 1618.31,-675.376"/>
</g>
<!-- Node39 -->
<g id="node39" class="node"><title>Node39</title>
<g id="a_node39"><a xlink:href="stmt_8h.html" target="_top" xlink:title="TIR statements. ">
<polygon fill="white" stroke="black" points="2237.5,-705.5 2237.5,-724.5 2320.5,-724.5 2320.5,-705.5 2237.5,-705.5"/>
<text text-anchor="middle" x="2279" y="-712.5" font-family="Helvetica,sans-Serif" font-size="10.00">tvm/tir/stmt.h</text>
</a>
</g>
</g>
<!-- Node38&#45;&gt;Node39 -->
<g id="edge123" class="edge"><title>Node38&#45;&gt;Node39</title>
<path fill="none" stroke="midnightblue" d="M1537.12,-766.519C1680.14,-756.78 2083.3,-729.326 2227.18,-719.529"/>
<polygon fill="midnightblue" stroke="midnightblue" points="2227.74,-722.998 2237.48,-718.827 2227.27,-716.015 2227.74,-722.998"/>
</g>
<!-- Node39&#45;&gt;Node6 -->
<g id="edge128" class="edge"><title>Node39&#45;&gt;Node6</title>
<path fill="none" stroke="midnightblue" d="M2237.18,-713.819C2022.26,-712.497 1040.93,-701.626 752,-613 486.33,-531.509 238,-534.887 238,-257 238,-257 238,-257 238,-193.5 238,-89.9195 405.523,-74.4425 476.656,-72.5396"/>
<polygon fill="midnightblue" stroke="midnightblue" points="476.883,-76.036 486.814,-72.3438 476.748,-69.0373 476.883,-76.036"/>
</g>
<!-- Node39&#45;&gt;Node13 -->
<g id="edge125" class="edge"><title>Node39&#45;&gt;Node13</title>
<path fill="none" stroke="midnightblue" d="M2279.78,-705.451C2281.41,-686.962 2285,-641.869 2285,-604 2285,-604 2285,-604 2285,-434 2285,-376.624 2355.14,-295.392 1986,-123 1882.05,-74.4557 1585.44,-95.0669 1471,-87 1415.98,-83.1218 1352.62,-78.6114 1311.3,-75.6639"/>
<polygon fill="midnightblue" stroke="midnightblue" points="1311.51,-72.1702 1301.29,-74.9495 1311.01,-79.1524 1311.51,-72.1702"/>
</g>
<!-- Node39&#45;&gt;Node14 -->
<g id="edge126" class="edge"><title>Node39&#45;&gt;Node14</title>
<path fill="none" stroke="midnightblue" d="M2320.72,-707.168C2393.43,-695.218 2536.13,-671.539 2541,-669 2701.26,-585.496 2827,-560.708 2827,-380 2827,-380 2827,-380 2827,-193.5 2827,-156.786 2818.36,-114.556 2812.73,-90.9499"/>
<polygon fill="midnightblue" stroke="midnightblue" points="2816.13,-90.1007 2810.33,-81.2318 2809.33,-91.7793 2816.13,-90.1007"/>
</g>
<!-- Node39&#45;&gt;Node21 -->
<g id="edge127" class="edge"><title>Node39&#45;&gt;Node21</title>
<path fill="none" stroke="midnightblue" d="M2291.44,-705.44C2312.88,-689.888 2356.29,-654.719 2375,-613 2449.58,-446.71 2353.5,-217.416 2322.83,-152.046"/>
<polygon fill="midnightblue" stroke="midnightblue" points="2325.83,-150.204 2318.36,-142.692 2319.51,-153.224 2325.83,-150.204"/>
</g>
<!-- Node39&#45;&gt;Node36 -->
<g id="edge124" class="edge"><title>Node39&#45;&gt;Node36</title>
<path fill="none" stroke="midnightblue" d="M2237.44,-710.415C2126.53,-700.848 1823.8,-674.733 1703.38,-664.346"/>
<polygon fill="midnightblue" stroke="midnightblue" points="1703.59,-660.851 1693.32,-663.478 1702.99,-667.825 1703.59,-660.851"/>
</g>
<!-- Node40&#45;&gt;Node13 -->
<g id="edge136" class="edge"><title>Node40&#45;&gt;Node13</title>
<path fill="none" stroke="midnightblue" d="M2057.25,-765.303C2111.88,-755.965 2209,-729.58 2209,-660 2209,-660 2209,-660 2209,-434 2209,-255.153 1605.54,-130.25 1576,-123 1482.93,-100.159 1371.5,-84.827 1311.14,-77.4946"/>
<polygon fill="midnightblue" stroke="midnightblue" points="1311.53,-74.0171 1301.19,-76.3025 1310.7,-80.9674 1311.53,-74.0171"/>
</g>
<!-- Node40&#45;&gt;Node22 -->
<g id="edge137" class="edge"><title>Node40&#45;&gt;Node22</title>
<path fill="none" stroke="midnightblue" d="M2057.01,-767.455C2162.24,-759.35 2466.48,-730.949 2541,-669 2675.62,-557.095 2706.88,-475.555 2684,-302 2676.6,-245.885 2686.79,-222.845 2651,-179 2635.95,-160.562 2611.42,-149.003 2591.77,-142.224"/>
<polygon fill="midnightblue" stroke="midnightblue" points="2592.61,-138.817 2582.02,-139.104 2590.48,-145.484 2592.61,-138.817"/>
</g>
<!-- Node40&#45;&gt;Node33 -->
<g id="edge132" class="edge"><title>Node40&#45;&gt;Node33</title>
<path fill="none" stroke="midnightblue" d="M2010.22,-761.339C1983.15,-739.91 1909.56,-683.643 1841,-649 1759.51,-607.822 1657.15,-575.62 1600.88,-559.45"/>
<polygon fill="midnightblue" stroke="midnightblue" points="1601.5,-555.988 1590.93,-556.619 1599.59,-562.721 1601.5,-555.988"/>
</g>
<!-- Node40&#45;&gt;Node34 -->
<g id="edge135" class="edge"><title>Node40&#45;&gt;Node34</title>
<path fill="none" stroke="midnightblue" d="M2003.39,-761.326C1971.79,-745.828 1906.58,-714.149 1883,-705 1804.5,-674.54 1784.26,-667.021 1702,-649 1655.58,-638.83 1325.15,-598.942 1278,-593 1144.76,-576.208 1110.61,-578.184 978,-557 976.899,-556.824 975.783,-556.64 974.658,-556.45"/>
<polygon fill="midnightblue" stroke="midnightblue" points="974.877,-552.934 964.415,-554.608 973.637,-559.823 974.877,-552.934"/>
</g>
<!-- Node40&#45;&gt;Node36 -->
<g id="edge133" class="edge"><title>Node40&#45;&gt;Node36</title>
<path fill="none" stroke="midnightblue" d="M1995.34,-761.458C1969.39,-752.706 1928.19,-738.503 1893,-725 1871.42,-716.72 1866.99,-712.105 1845,-705 1797.75,-689.733 1742.41,-677.321 1703.31,-669.429"/>
<polygon fill="midnightblue" stroke="midnightblue" points="1703.73,-665.944 1693.24,-667.423 1702.36,-672.809 1703.73,-665.944"/>
</g>
<!-- Node40&#45;&gt;Node39 -->
<g id="edge134" class="edge"><title>Node40&#45;&gt;Node39</title>
<path fill="none" stroke="midnightblue" d="M2057.15,-762.435C2101.65,-753.12 2177.51,-737.241 2227.95,-726.685"/>
<polygon fill="midnightblue" stroke="midnightblue" points="2228.92,-730.058 2237.99,-724.583 2227.49,-723.206 2228.92,-730.058"/>
</g>
<!-- Node41&#45;&gt;Node4 -->
<g id="edge153" class="edge"><title>Node41&#45;&gt;Node4</title>
<path fill="none" stroke="midnightblue" d="M1787.38,-938.349C1508.07,-939.575 190,-936.636 190,-772 190,-772 190,-772 190,-714 190,-668.119 141.563,-634.527 109.266,-617.228"/>
<polygon fill="midnightblue" stroke="midnightblue" points="110.73,-614.045 100.236,-612.585 107.529,-620.27 110.73,-614.045"/>
</g>
<!-- Node41&#45;&gt;Node14 -->
<g id="edge154" class="edge"><title>Node41&#45;&gt;Node14</title>
<path fill="none" stroke="midnightblue" d="M1890.58,-937.902C2035.28,-936.489 2456.33,-924.557 2792,-837 2943.11,-797.585 3055,-760.163 3055,-604 3055,-604 3055,-604 3055,-193.5 3055,-98.9951 2907.37,-78.2939 2840.38,-73.7652"/>
<polygon fill="midnightblue" stroke="midnightblue" points="2840.55,-70.269 2830.36,-73.1684 2840.13,-77.2566 2840.55,-70.269"/>
</g>
<!-- Node41&#45;&gt;Node28 -->
<g id="edge155" class="edge"><title>Node41&#45;&gt;Node28</title>
<path fill="none" stroke="midnightblue" d="M1811.24,-929.407C1764.03,-915.173 1664.89,-886.894 1579,-873 1512.34,-862.217 423.216,-818.411 367,-781 205.639,-673.615 171.043,-555.453 224,-369 241.557,-307.185 253.72,-290.582 300,-246 316.779,-229.837 339.722,-216.981 358.112,-208.286"/>
<polygon fill="midnightblue" stroke="midnightblue" points="359.605,-211.452 367.256,-204.123 356.705,-205.081 359.605,-211.452"/>
</g>
<!-- Node41&#45;&gt;Node36 -->
<g id="edge143" class="edge"><title>Node41&#45;&gt;Node36</title>
<path fill="none" stroke="midnightblue" d="M1822.93,-929.455C1809.51,-921.588 1790.75,-908.765 1779,-893 1760.6,-868.308 1755,-858.795 1755,-828 1755,-828 1755,-828 1755,-770 1755,-725.392 1709.34,-691.234 1679.12,-673.511"/>
<polygon fill="midnightblue" stroke="midnightblue" points="1680.73,-670.404 1670.3,-668.545 1677.3,-676.503 1680.73,-670.404"/>
</g>
<!-- Node41&#45;&gt;Node37 -->
<g id="edge144" class="edge"><title>Node41&#45;&gt;Node37</title>
<path fill="none" stroke="midnightblue" d="M1813.85,-929.479C1793.18,-921.788 1763.71,-909.202 1741,-893 1721.66,-879.198 1703.37,-858.798 1691.74,-844.544"/>
<polygon fill="midnightblue" stroke="midnightblue" points="1694.37,-842.228 1685.41,-836.578 1688.89,-846.584 1694.37,-842.228"/>
</g>
<!-- Node42 -->
<g id="node42" class="node"><title>Node42</title>
<g id="a_node42"><a xlink:href="tensor__intrin_8h.html" target="_top" xlink:title="Tensor intrinsic operations. ">
<polygon fill="white" stroke="black" points="1821,-873.5 1821,-892.5 1941,-892.5 1941,-873.5 1821,-873.5"/>
<text text-anchor="middle" x="1881" y="-880.5" font-family="Helvetica,sans-Serif" font-size="10.00">tvm/te/tensor_intrin.h</text>
</a>
</g>
</g>
<!-- Node41&#45;&gt;Node42 -->
<g id="edge145" class="edge"><title>Node41&#45;&gt;Node42</title>
<path fill="none" stroke="midnightblue" d="M1845.94,-929.083C1851.93,-921.377 1860.75,-910.033 1868.05,-900.653"/>
<polygon fill="midnightblue" stroke="midnightblue" points="1870.82,-902.793 1874.19,-892.751 1865.29,-898.496 1870.82,-902.793"/>
</g>
<!-- Node42&#45;&gt;Node14 -->
<g id="edge152" class="edge"><title>Node42&#45;&gt;Node14</title>
<path fill="none" stroke="midnightblue" d="M1941.03,-882.33C2165.26,-881.978 2941,-865.882 2941,-660 2941,-660 2941,-660 2941,-546 2941,-470.314 2979,-455.686 2979,-380 2979,-380 2979,-380 2979,-193.5 2979,-157.475 2966.29,-146.519 2939,-123 2910.55,-98.4822 2868.89,-85.184 2840.23,-78.4814"/>
<polygon fill="midnightblue" stroke="midnightblue" points="2840.83,-75.0287 2830.31,-76.3019 2839.33,-81.8658 2840.83,-75.0287"/>
</g>
<!-- Node42&#45;&gt;Node37 -->
<g id="edge146" class="edge"><title>Node42&#45;&gt;Node37</title>
<path fill="none" stroke="midnightblue" d="M1848.99,-873.444C1814.27,-864.162 1758.71,-849.309 1720.62,-839.127"/>
<polygon fill="midnightblue" stroke="midnightblue" points="1721.42,-835.718 1710.86,-836.516 1719.61,-842.48 1721.42,-835.718"/>
</g>
<!-- Node42&#45;&gt;Node43 -->
<g id="edge147" class="edge"><title>Node42&#45;&gt;Node43</title>
<path fill="none" stroke="midnightblue" d="M1898.51,-873.324C1916.07,-864.625 1943.33,-851.12 1963.53,-841.113"/>
<polygon fill="midnightblue" stroke="midnightblue" points="1965.12,-844.23 1972.53,-836.655 1962.02,-837.958 1965.12,-844.23"/>
</g>
<!-- Node43&#45;&gt;Node14 -->
<g id="edge151" class="edge"><title>Node43&#45;&gt;Node14</title>
<path fill="none" stroke="midnightblue" d="M2033.83,-820.519C2045.26,-819.223 2057.58,-817.945 2069,-817 2223.35,-804.229 2615.1,-819.937 2765,-781 2843.95,-760.492 2903,-741.571 2903,-660 2903,-660 2903,-660 2903,-546 2903,-470.314 2941,-455.686 2941,-380 2941,-380 2941,-380 2941,-193.5 2941,-160.401 2939.14,-147.609 2917,-123 2896.74,-100.477 2864.38,-87.2555 2840.17,-80.0308"/>
<polygon fill="midnightblue" stroke="midnightblue" points="2840.93,-76.6083 2830.36,-77.292 2839.05,-83.3508 2840.93,-76.6083"/>
</g>
<!-- Node43&#45;&gt;Node26 -->
<g id="edge148" class="edge"><title>Node43&#45;&gt;Node26</title>
<path fill="none" stroke="midnightblue" d="M1946.35,-824.417C1895.22,-822.575 1807.96,-819.471 1733,-817 1700.64,-815.933 590.537,-804.245 568,-781 417.61,-625.891 722.868,-550.114 899,-425 929.471,-403.355 949.241,-416.081 975,-389 1003.84,-358.679 992.184,-339.377 1011,-302 1015.71,-292.641 1021.64,-282.61 1026.74,-274.399"/>
<polygon fill="midnightblue" stroke="midnightblue" points="1029.83,-276.065 1032.22,-265.745 1023.91,-272.318 1029.83,-276.065"/>
</g>
<!-- Node43&#45;&gt;Node36 -->
<g id="edge149" class="edge"><title>Node43&#45;&gt;Node36</title>
<path fill="none" stroke="midnightblue" d="M1977.91,-817.313C1943.18,-792.469 1843.28,-721.826 1807,-705 1773.74,-689.575 1733.97,-678.116 1703.18,-670.622"/>
<polygon fill="midnightblue" stroke="midnightblue" points="1703.64,-667.135 1693.1,-668.233 1702.03,-673.946 1703.64,-667.135"/>
</g>
<!-- Node43&#45;&gt;Node40 -->
<g id="edge150" class="edge"><title>Node43&#45;&gt;Node40</title>
<path fill="none" stroke="midnightblue" d="M1995.12,-817.083C1999.41,-809.613 2005.66,-798.724 2010.94,-789.52"/>
<polygon fill="midnightblue" stroke="midnightblue" points="2014.03,-791.166 2015.98,-780.751 2007.96,-787.681 2014.03,-791.166"/>
</g>
<!-- Node44&#45;&gt;Node14 -->
<g id="edge163" class="edge"><title>Node44&#45;&gt;Node14</title>
<path fill="none" stroke="midnightblue" d="M3267.43,-481.477C3264.18,-463.038 3257,-418.037 3257,-380 3257,-380 3257,-380 3257,-193.5 3257,-158.318 3249.83,-143.16 3221,-123 3159.61,-80.081 2926.66,-73.558 2840.39,-72.6284"/>
<polygon fill="midnightblue" stroke="midnightblue" points="2840.18,-69.1265 2830.15,-72.5375 2840.12,-76.1263 2840.18,-69.1265"/>
</g>
<!-- Node45&#45;&gt;Node14 -->
<g id="edge188" class="edge"><title>Node45&#45;&gt;Node14</title>
<path fill="none" stroke="midnightblue" d="M3086.99,-1041.25C3109.01,-1000.59 3169,-879.926 3169,-772 3169,-772 3169,-772 3169,-193.5 3169,-157.692 3159.34,-143.529 3130,-123 3083.59,-90.5229 2912.8,-77.9564 2840.59,-74.0221"/>
<polygon fill="midnightblue" stroke="midnightblue" points="2840.44,-70.5099 2830.28,-73.4829 2840.08,-77.5004 2840.44,-70.5099"/>
</g>
<!-- Node45&#45;&gt;Node21 -->
<g id="edge189" class="edge"><title>Node45&#45;&gt;Node21</title>
<path fill="none" stroke="midnightblue" d="M3074.39,-1041.28C3066.32,-1017.26 3048.33,-967.521 3026,-929 2920.66,-747.316 2622.28,-300.518 2451,-179 2419.9,-156.939 2377.32,-145.2 2347.92,-139.31"/>
<polygon fill="midnightblue" stroke="midnightblue" points="2348.21,-135.802 2337.73,-137.396 2346.92,-142.682 2348.21,-135.802"/>
</g>
<!-- Node45&#45;&gt;Node36 -->
<g id="edge165" class="edge"><title>Node45&#45;&gt;Node36</title>
<path fill="none" stroke="midnightblue" d="M3024.23,-1054.96C2816.15,-1052.66 2074.7,-1041.97 1842,-1005 1751.26,-990.583 1719.37,-1000.09 1643,-949 1570.74,-900.664 1573.49,-846.539 1589,-761 1593.74,-734.845 1595.86,-727.511 1610,-705 1616.79,-694.182 1626.48,-683.759 1634.94,-675.673"/>
<polygon fill="midnightblue" stroke="midnightblue" points="1637.54,-678.039 1642.55,-668.7 1632.81,-672.88 1637.54,-678.039"/>
</g>
<!-- Node46 -->
<g id="node46" class="node"><title>Node46</title>
<g id="a_node46"><a xlink:href="ir__pass_8h.html" target="_top" xlink:title="Collection of IR pass functions. ">
<polygon fill="white" stroke="black" points="2283,-985.5 2283,-1004.5 2377,-1004.5 2377,-985.5 2283,-985.5"/>
<text text-anchor="middle" x="2330" y="-992.5" font-family="Helvetica,sans-Serif" font-size="10.00">tvm/tir/ir_pass.h</text>
</a>
</g>
</g>
<!-- Node45&#45;&gt;Node46 -->
<g id="edge166" class="edge"><title>Node45&#45;&gt;Node46</title>
<path fill="none" stroke="midnightblue" d="M3024.23,-1051.15C2886.7,-1040.22 2527.85,-1011.72 2387.47,-1000.57"/>
<polygon fill="midnightblue" stroke="midnightblue" points="2387.6,-997.065 2377.35,-999.762 2387.05,-1004.04 2387.6,-997.065"/>
</g>
<!-- Node46&#45;&gt;Node14 -->
<g id="edge187" class="edge"><title>Node46&#45;&gt;Node14</title>
<path fill="none" stroke="midnightblue" d="M2377.14,-993.477C2524.66,-991.494 2970.97,-982.74 3026,-949 3103.98,-901.194 3131,-863.467 3131,-772 3131,-772 3131,-772 3131,-193.5 3131,-160.401 3132.21,-144.449 3107,-123 3067.23,-89.1596 2909.54,-77.4408 2840.57,-73.8801"/>
<polygon fill="midnightblue" stroke="midnightblue" points="2840.46,-70.3703 2830.3,-73.3765 2840.11,-77.3619 2840.46,-70.3703"/>
</g>
<!-- Node46&#45;&gt;Node21 -->
<g id="edge186" class="edge"><title>Node46&#45;&gt;Node21</title>
<path fill="none" stroke="midnightblue" d="M2377.12,-993.037C2491.14,-990.22 2774.7,-980.124 2803,-949 2859.22,-887.183 2824.26,-841.804 2803,-761 2782.75,-684.067 2464.07,-212.188 2423,-179 2400.81,-161.064 2370.47,-149.32 2347.44,-142.342"/>
<polygon fill="midnightblue" stroke="midnightblue" points="2348.32,-138.953 2337.74,-139.552 2346.38,-145.68 2348.32,-138.953"/>
</g>
<!-- Node46&#45;&gt;Node28 -->
<g id="edge184" class="edge"><title>Node46&#45;&gt;Node28</title>
<path fill="none" stroke="midnightblue" d="M2282.72,-990.442C2187.27,-983.193 1964.73,-965.963 1778,-949 1697.68,-941.703 399.122,-831.205 336,-781 248.076,-711.069 238,-660.343 238,-548 238,-548 238,-548 238,-434 238,-336.089 329.969,-245.741 370.357,-210.785"/>
<polygon fill="midnightblue" stroke="midnightblue" points="372.778,-213.321 378.14,-204.184 368.25,-207.982 372.778,-213.321"/>
</g>
<!-- Node46&#45;&gt;Node36 -->
<g id="edge168" class="edge"><title>Node46&#45;&gt;Node36</title>
<path fill="none" stroke="midnightblue" d="M2282.87,-987.647C2161.8,-970.933 1846.9,-924.838 1812,-893 1789.76,-872.717 1793,-858.098 1793,-828 1793,-828 1793,-828 1793,-770 1793,-718.347 1733.35,-687.258 1691.92,-671.895"/>
<polygon fill="midnightblue" stroke="midnightblue" points="1692.94,-668.544 1682.35,-668.501 1690.6,-675.142 1692.94,-668.544"/>
</g>
<!-- Node46&#45;&gt;Node41 -->
<g id="edge167" class="edge"><title>Node46&#45;&gt;Node41</title>
<path fill="none" stroke="midnightblue" d="M2282.92,-988.822C2193.79,-979.019 2000.42,-957.753 1900.91,-946.809"/>
<polygon fill="midnightblue" stroke="midnightblue" points="1901.03,-943.301 1890.71,-945.687 1900.26,-950.259 1901.03,-943.301"/>
</g>
<!-- Node46&#45;&gt;Node43 -->
<g id="edge169" class="edge"><title>Node46&#45;&gt;Node43</title>
<path fill="none" stroke="midnightblue" d="M2312.2,-985.309C2256.2,-957.968 2083.4,-873.601 2016.67,-841.023"/>
<polygon fill="midnightblue" stroke="midnightblue" points="2018.15,-837.847 2007.62,-836.605 2015.08,-844.138 2018.15,-837.847"/>
</g>
<!-- Node47 -->
<g id="node47" class="node"><title>Node47</title>
<g id="a_node47"><a xlink:href="tir_2function_8h.html" target="_top" xlink:title="TIR Function. ">
<polygon fill="white" stroke="black" points="2332,-873.5 2332,-892.5 2430,-892.5 2430,-873.5 2332,-873.5"/>
<text text-anchor="middle" x="2381" y="-880.5" font-family="Helvetica,sans-Serif" font-size="10.00">tvm/tir/function.h</text>
</a>
</g>
</g>
<!-- Node46&#45;&gt;Node47 -->
<g id="edge170" class="edge"><title>Node46&#45;&gt;Node47</title>
<path fill="none" stroke="midnightblue" d="M2334,-985.368C2342.31,-967.456 2361.56,-925.923 2372.68,-901.948"/>
<polygon fill="midnightblue" stroke="midnightblue" points="2375.99,-903.136 2377.02,-892.591 2369.64,-900.192 2375.99,-903.136"/>
</g>
<!-- Node49 -->
<g id="node49" class="node"><title>Node49</title>
<g id="a_node49"><a xlink:href="lowered__func_8h.html" target="_top" xlink:title="Information about a lowered TVM function. This data structure is final step toward codegen...">
<polygon fill="white" stroke="black" points="2237,-761.5 2237,-780.5 2359,-780.5 2359,-761.5 2237,-761.5"/>
<text text-anchor="middle" x="2298" y="-768.5" font-family="Helvetica,sans-Serif" font-size="10.00">tvm/tir/lowered_func.h</text>
</a>
</g>
</g>
<!-- Node46&#45;&gt;Node49 -->
<g id="edge179" class="edge"><title>Node46&#45;&gt;Node49</title>
<path fill="none" stroke="midnightblue" d="M2328.75,-985.297C2324.04,-952.633 2307.35,-836.866 2300.73,-790.957"/>
<polygon fill="midnightblue" stroke="midnightblue" points="2304.17,-790.282 2299.28,-780.884 2297.24,-791.281 2304.17,-790.282"/>
</g>
<!-- Node50 -->
<g id="node50" class="node"><title>Node50</title>
<polygon fill="white" stroke="#bfbfbf" points="2931,-929.5 2931,-948.5 3017,-948.5 3017,-929.5 2931,-929.5"/>
<text text-anchor="middle" x="2974" y="-936.5" font-family="Helvetica,sans-Serif" font-size="10.00">unordered_set</text>
</g>
<!-- Node46&#45;&gt;Node50 -->
<g id="edge185" class="edge"><title>Node46&#45;&gt;Node50</title>
<path fill="none" stroke="midnightblue" d="M2377.3,-991.662C2477.21,-986.441 2717.01,-972.416 2917,-949 2918.26,-948.853 2919.53,-948.698 2920.82,-948.536"/>
<polygon fill="midnightblue" stroke="midnightblue" points="2921.35,-951.997 2930.79,-947.195 2920.41,-945.06 2921.35,-951.997"/>
</g>
<!-- Node47&#45;&gt;Node14 -->
<g id="edge178" class="edge"><title>Node47&#45;&gt;Node14</title>
<path fill="none" stroke="midnightblue" d="M2430.07,-877.583C2546.68,-866.333 2836.63,-833.707 2917,-781 2967.53,-747.863 2979,-720.426 2979,-660 2979,-660 2979,-660 2979,-546 2979,-470.314 3017,-455.686 3017,-380 3017,-380 3017,-380 3017,-193.5 3017,-160.401 3017.11,-145.672 2993,-123 2951.03,-83.5385 2881.27,-74.3509 2840.47,-72.5403"/>
<polygon fill="midnightblue" stroke="midnightblue" points="2840.37,-69.0355 2830.27,-72.2153 2840.15,-76.032 2840.37,-69.0355"/>
</g>
<!-- Node47&#45;&gt;Node36 -->
<g id="edge175" class="edge"><title>Node47&#45;&gt;Node36</title>
<path fill="none" stroke="midnightblue" d="M2381.96,-873.309C2384.8,-842.598 2389.5,-739.199 2329,-705 2275,-674.478 1851.03,-663.703 1703.44,-660.855"/>
<polygon fill="midnightblue" stroke="midnightblue" points="1703.37,-657.353 1693.3,-660.663 1703.24,-664.352 1703.37,-657.353"/>
</g>
<!-- Node47&#45;&gt;Node39 -->
<g id="edge177" class="edge"><title>Node47&#45;&gt;Node39</title>
<path fill="none" stroke="midnightblue" d="M2354.52,-873.479C2318.33,-860.231 2254.85,-830.89 2228,-781 2217.72,-761.896 2237.39,-742.676 2255.21,-730.147"/>
<polygon fill="midnightblue" stroke="midnightblue" points="2257.25,-732.993 2263.67,-724.563 2253.39,-727.151 2257.25,-732.993"/>
</g>
<!-- Node47&#45;&gt;Node43 -->
<g id="edge176" class="edge"><title>Node47&#45;&gt;Node43</title>
<path fill="none" stroke="midnightblue" d="M2331.88,-875.216C2258.32,-865.057 2120.07,-845.964 2043.85,-835.437"/>
<polygon fill="midnightblue" stroke="midnightblue" points="2043.9,-831.911 2033.52,-834.01 2042.95,-838.846 2043.9,-831.911"/>
</g>
<!-- Node48 -->
<g id="node48" class="node"><title>Node48</title>
<g id="a_node48"><a xlink:href="ir_2function_8h.html" target="_top" xlink:title="Function nodes. ">
<polygon fill="white" stroke="red" points="2437.5,-649.5 2437.5,-668.5 2532.5,-668.5 2532.5,-649.5 2437.5,-649.5"/>
<text text-anchor="middle" x="2485" y="-656.5" font-family="Helvetica,sans-Serif" font-size="10.00">tvm/ir/function.h</text>
</a>
</g>
</g>
<!-- Node47&#45;&gt;Node48 -->
<g id="edge171" class="edge"><title>Node47&#45;&gt;Node48</title>
<path fill="none" stroke="midnightblue" d="M2385.08,-873.297C2400.48,-840.425 2455.3,-723.391 2476.53,-678.09"/>
<polygon fill="midnightblue" stroke="midnightblue" points="2479.77,-679.424 2480.84,-668.884 2473.43,-676.455 2479.77,-679.424"/>
</g>
<!-- Node48&#45;&gt;Node7 -->
<g id="edge172" class="edge"><title>Node48&#45;&gt;Node7</title>
<path fill="none" stroke="midnightblue" d="M2437.39,-655.414C2269.93,-646.316 1709,-615.843 1539.75,-606.649"/>
<polygon fill="midnightblue" stroke="midnightblue" points="1539.82,-603.147 1529.65,-606.099 1539.44,-610.137 1539.82,-603.147"/>
</g>
<!-- Node48&#45;&gt;Node13 -->
<g id="edge173" class="edge"><title>Node48&#45;&gt;Node13</title>
<path fill="none" stroke="midnightblue" d="M2492.68,-649.409C2528.23,-608.742 2675,-430.334 2675,-257 2675,-257 2675,-257 2675,-193.5 2675,2.32398 3221.24,-177.297 1471,-87 1415.92,-84.1583 1352.57,-79.4266 1311.27,-76.1447"/>
<polygon fill="midnightblue" stroke="midnightblue" points="1311.51,-72.6528 1301.27,-75.3436 1310.95,-79.6305 1311.51,-72.6528"/>
</g>
<!-- Node48&#45;&gt;Node14 -->
<g id="edge174" class="edge"><title>Node48&#45;&gt;Node14</title>
<path fill="none" stroke="midnightblue" d="M2498.85,-649.44C2558.32,-611.507 2789,-451.818 2789,-257 2789,-257 2789,-257 2789,-193.5 2789,-156.786 2797.64,-114.556 2803.27,-90.9499"/>
<polygon fill="midnightblue" stroke="midnightblue" points="2806.67,-91.7793 2805.67,-81.2318 2799.87,-90.1007 2806.67,-91.7793"/>
</g>
<!-- Node49&#45;&gt;Node14 -->
<g id="edge183" class="edge"><title>Node49&#45;&gt;Node14</title>
<path fill="none" stroke="midnightblue" d="M2344.4,-761.453C2479.82,-733.568 2865,-632.093 2865,-380 2865,-380 2865,-380 2865,-193.5 2865,-153.09 2838.66,-111.706 2821.79,-89.3451"/>
<polygon fill="midnightblue" stroke="midnightblue" points="2824.37,-86.9597 2815.45,-81.2384 2818.85,-91.2719 2824.37,-86.9597"/>
</g>
<!-- Node49&#45;&gt;Node26 -->
<g id="edge180" class="edge"><title>Node49&#45;&gt;Node26</title>
<path fill="none" stroke="midnightblue" d="M2307.93,-761.224C2321.76,-747.949 2343.59,-722.463 2329,-705 2092.15,-421.45 1860.91,-675.599 1511,-557 1409.7,-522.666 1391.58,-496.788 1298,-445 1209.88,-396.233 1178.17,-397.714 1101,-333 1080.36,-315.694 1061.32,-290.994 1049.69,-274.501"/>
<polygon fill="midnightblue" stroke="midnightblue" points="1052.3,-272.112 1043.75,-265.856 1046.53,-276.079 1052.3,-272.112"/>
</g>
<!-- Node49&#45;&gt;Node36 -->
<g id="edge181" class="edge"><title>Node49&#45;&gt;Node36</title>
<path fill="none" stroke="midnightblue" d="M2247.92,-761.46C2127.71,-740.958 1823.84,-689.135 1703.34,-668.586"/>
<polygon fill="midnightblue" stroke="midnightblue" points="1703.73,-665.101 1693.28,-666.87 1702.55,-672.002 1703.73,-665.101"/>
</g>
<!-- Node49&#45;&gt;Node39 -->
<g id="edge182" class="edge"><title>Node49&#45;&gt;Node39</title>
<path fill="none" stroke="midnightblue" d="M2294.86,-761.083C2292.32,-753.849 2288.64,-743.409 2285.47,-734.397"/>
<polygon fill="midnightblue" stroke="midnightblue" points="2288.7,-733.023 2282.08,-724.751 2282.1,-735.346 2288.7,-733.023"/>
</g>
</g>
</svg>
