<?xml version="1.0" encoding="UTF-8" standalone="no"?>
<!DOCTYPE svg PUBLIC "-//W3C//DTD SVG 1.1//EN"
 "http://www.w3.org/Graphics/SVG/1.1/DTD/svg11.dtd">
<!-- Generated by graphviz version 2.38.0 (20140413.2041)
 -->
<!-- Title: include/tvm/tir/transform.h Pages: 1 -->
<svg width="3243pt" height="1069pt"
 viewBox="0.00 0.00 3243.00 1069.00" xmlns="http://www.w3.org/2000/svg" xmlns:xlink="http://www.w3.org/1999/xlink">
<g id="graph0" class="graph" transform="scale(1 1) rotate(0) translate(4 1065)">
<title>include/tvm/tir/transform.h</title>
<polygon fill="white" stroke="none" points="-4,4 -4,-1065 3239,-1065 3239,4 -4,4"/>
<!-- Node1 -->
<g id="node1" class="node"><title>Node1</title>
<polygon fill="#bfbfbf" stroke="black" points="1818,-1041.5 1818,-1060.5 1962,-1060.5 1962,-1041.5 1818,-1041.5"/>
<text text-anchor="middle" x="1890" y="-1048.5" font-family="Helvetica,sans-Serif" font-size="10.00">include/tvm/tir/transform.h</text>
</g>
<!-- Node2 -->
<g id="node2" class="node"><title>Node2</title>
<g id="a_node2"><a xlink:href="include_2tvm_2ir_2transform_8h.html" target="_top" xlink:title="tvm/ir/transform.h">
<polygon fill="white" stroke="black" points="2794,-985.5 2794,-1004.5 2898,-1004.5 2898,-985.5 2794,-985.5"/>
<text text-anchor="middle" x="2846" y="-992.5" font-family="Helvetica,sans-Serif" font-size="10.00">tvm/ir/transform.h</text>
</a>
</g>
</g>
<!-- Node1&#45;&gt;Node2 -->
<g id="edge1" class="edge"><title>Node1&#45;&gt;Node2</title>
<path fill="none" stroke="midnightblue" d="M1962.25,-1045.92C2143.31,-1035.69 2614.08,-1009.1 2783.83,-999.512"/>
<polygon fill="midnightblue" stroke="midnightblue" points="2784.06,-1003 2793.85,-998.946 2783.67,-996.015 2784.06,-1003"/>
</g>
<!-- Node13 -->
<g id="node13" class="node"><title>Node13</title>
<polygon fill="white" stroke="#bfbfbf" points="2795,-62 2795,-81 2839,-81 2839,-62 2795,-62"/>
<text text-anchor="middle" x="2817" y="-69" font-family="Helvetica,sans-Serif" font-size="10.00">string</text>
</g>
<!-- Node1&#45;&gt;Node13 -->
<g id="edge184" class="edge"><title>Node1&#45;&gt;Node13</title>
<path fill="none" stroke="midnightblue" d="M1962.13,-1050.55C2129.03,-1051 2554.53,-1047.47 2907,-1005 3054.55,-987.22 3235,-1088.61 3235,-940 3235,-940 3235,-940 3235,-188 3235,-154.31 3224.15,-141.503 3196,-123 3139.19,-85.6674 2930.71,-75.7469 2849.59,-73.272"/>
<polygon fill="midnightblue" stroke="midnightblue" points="2849.56,-69.7697 2839.46,-72.9819 2849.36,-76.7668 2849.56,-69.7697"/>
</g>
<!-- Node46 -->
<g id="node46" class="node"><title>Node46</title>
<g id="a_node46"><a xlink:href="tir_2expr_8h.html" target="_top" xlink:title="TIR expressions. ">
<polygon fill="white" stroke="black" points="628,-761.5 628,-780.5 708,-780.5 708,-761.5 628,-761.5"/>
<text text-anchor="middle" x="668" y="-768.5" font-family="Helvetica,sans-Serif" font-size="10.00">tvm/tir/expr.h</text>
</a>
</g>
</g>
<!-- Node1&#45;&gt;Node46 -->
<g id="edge150" class="edge"><title>Node1&#45;&gt;Node46</title>
<path fill="none" stroke="midnightblue" d="M1817.84,-1049.55C1476.68,-1046.95 42,-1030.62 42,-940 42,-940 42,-940 42,-882 42,-823.675 468.983,-786.66 617.673,-775.539"/>
<polygon fill="midnightblue" stroke="midnightblue" points="618.174,-779.011 627.889,-774.783 617.658,-772.03 618.174,-779.011"/>
</g>
<!-- Node47 -->
<g id="node47" class="node"><title>Node47</title>
<g id="a_node47"><a xlink:href="tir_2function_8h.html" target="_top" xlink:title="TIR Function. ">
<polygon fill="white" stroke="black" points="885,-985.5 885,-1004.5 983,-1004.5 983,-985.5 885,-985.5"/>
<text text-anchor="middle" x="934" y="-992.5" font-family="Helvetica,sans-Serif" font-size="10.00">tvm/tir/function.h</text>
</a>
</g>
</g>
<!-- Node1&#45;&gt;Node47 -->
<g id="edge163" class="edge"><title>Node1&#45;&gt;Node47</title>
<path fill="none" stroke="midnightblue" d="M1817.75,-1045.92C1635.61,-1035.63 1160.29,-1008.78 993.161,-999.342"/>
<polygon fill="midnightblue" stroke="midnightblue" points="993.255,-995.842 983.074,-998.772 992.861,-1002.83 993.255,-995.842"/>
</g>
<!-- Node3 -->
<g id="node3" class="node"><title>Node3</title>
<g id="a_node3"><a xlink:href="with_8h.html" target="_top" xlink:title="RAII wrapper function to enter and exit a context object similar to python&#39;s with syntax...">
<polygon fill="white" stroke="black" points="1730,-123.5 1730,-142.5 1836,-142.5 1836,-123.5 1730,-123.5"/>
<text text-anchor="middle" x="1783" y="-130.5" font-family="Helvetica,sans-Serif" font-size="10.00">tvm/support/with.h</text>
</a>
</g>
</g>
<!-- Node2&#45;&gt;Node3 -->
<g id="edge2" class="edge"><title>Node2&#45;&gt;Node3</title>
<path fill="none" stroke="midnightblue" d="M2898.28,-986.027C2950.32,-975.014 3027.53,-949.642 3064,-893 3093.47,-847.228 3083,-826.437 3083,-772 3083,-772 3083,-772 3083,-714 3083,-599.398 2880.41,-358.777 2788,-291 2659.03,-196.408 2603,-209.54 2446,-179 2228.89,-136.767 1965.13,-132.552 1846.36,-133.098"/>
<polygon fill="midnightblue" stroke="midnightblue" points="1845.98,-129.6 1836,-133.16 1846.02,-136.6 1845.98,-129.6"/>
</g>
<!-- Node6 -->
<g id="node6" class="node"><title>Node6</title>
<g id="a_node6"><a xlink:href="node_2container_8h.html" target="_top" xlink:title="Array/Map container in the DSL graph. ">
<polygon fill="white" stroke="black" points="1140.5,-358.5 1140.5,-377.5 1259.5,-377.5 1259.5,-358.5 1140.5,-358.5"/>
<text text-anchor="middle" x="1200" y="-365.5" font-family="Helvetica,sans-Serif" font-size="10.00">tvm/node/container.h</text>
</a>
</g>
</g>
<!-- Node2&#45;&gt;Node6 -->
<g id="edge5" class="edge"><title>Node2&#45;&gt;Node6</title>
<path fill="none" stroke="midnightblue" d="M2793.92,-993.738C2491.26,-991.884 972,-977.902 972,-884 972,-884 972,-884 972,-770 972,-599.34 1129.99,-434.939 1182.94,-384.632"/>
<polygon fill="midnightblue" stroke="midnightblue" points="1185.59,-386.944 1190.49,-377.554 1180.8,-381.836 1185.59,-386.944"/>
</g>
<!-- Node2&#45;&gt;Node13 -->
<g id="edge149" class="edge"><title>Node2&#45;&gt;Node13</title>
<path fill="none" stroke="midnightblue" d="M2898.17,-988.625C2995.95,-977.094 3197,-945.864 3197,-884 3197,-884 3197,-884 3197,-188 3197,-157.205 3196.96,-142.34 3173,-123 3123.59,-83.1238 2927.9,-74.7337 2849.62,-72.9694"/>
<polygon fill="midnightblue" stroke="midnightblue" points="2849.45,-69.4653 2839.38,-72.7618 2849.31,-76.4639 2849.45,-69.4653"/>
</g>
<!-- Node28 -->
<g id="node28" class="node"><title>Node28</title>
<g id="a_node28"><a xlink:href="error_8h.html" target="_top" xlink:title="Utilities for error tracking and reporting. ">
<polygon fill="white" stroke="black" points="2891.5,-929.5 2891.5,-948.5 2970.5,-948.5 2970.5,-929.5 2891.5,-929.5"/>
<text text-anchor="middle" x="2931" y="-936.5" font-family="Helvetica,sans-Serif" font-size="10.00">tvm/ir/error.h</text>
</a>
</g>
</g>
<!-- Node2&#45;&gt;Node28 -->
<g id="edge58" class="edge"><title>Node2&#45;&gt;Node28</title>
<path fill="none" stroke="midnightblue" d="M2859.66,-985.324C2872.92,-976.9 2893.27,-963.971 2908.85,-954.074"/>
<polygon fill="midnightblue" stroke="midnightblue" points="2910.81,-956.971 2917.38,-948.655 2907.06,-951.063 2910.81,-956.971"/>
</g>
<!-- Node37 -->
<g id="node37" class="node"><title>Node37</title>
<g id="a_node37"><a xlink:href="ir_2module_8h.html" target="_top" xlink:title="IRModule that holds the functions and type definitions. ">
<polygon fill="white" stroke="black" points="2578,-873.5 2578,-892.5 2670,-892.5 2670,-873.5 2578,-873.5"/>
<text text-anchor="middle" x="2624" y="-880.5" font-family="Helvetica,sans-Serif" font-size="10.00">tvm/ir/module.h</text>
</a>
</g>
</g>
<!-- Node2&#45;&gt;Node37 -->
<g id="edge148" class="edge"><title>Node2&#45;&gt;Node37</title>
<path fill="none" stroke="midnightblue" d="M2828.58,-985.368C2789.84,-966.171 2696.34,-919.842 2650.39,-897.074"/>
<polygon fill="midnightblue" stroke="midnightblue" points="2651.85,-893.895 2641.34,-892.591 2648.75,-900.167 2651.85,-893.895"/>
</g>
<!-- Node4 -->
<g id="node4" class="node"><title>Node4</title>
<polygon fill="white" stroke="#bfbfbf" points="1740,-62 1740,-81 1826,-81 1826,-62 1740,-62"/>
<text text-anchor="middle" x="1783" y="-69" font-family="Helvetica,sans-Serif" font-size="10.00">dmlc/logging.h</text>
</g>
<!-- Node3&#45;&gt;Node4 -->
<g id="edge3" class="edge"><title>Node3&#45;&gt;Node4</title>
<path fill="none" stroke="midnightblue" d="M1783,-123.475C1783,-115.08 1783,-101.981 1783,-91.1631"/>
<polygon fill="midnightblue" stroke="midnightblue" points="1786.5,-91.0091 1783,-81.0091 1779.5,-91.0091 1786.5,-91.0091"/>
</g>
<!-- Node5 -->
<g id="node5" class="node"><title>Node5</title>
<polygon fill="white" stroke="#bfbfbf" points="875,-62 875,-81 917,-81 917,-62 875,-62"/>
<text text-anchor="middle" x="896" y="-69" font-family="Helvetica,sans-Serif" font-size="10.00">utility</text>
</g>
<!-- Node3&#45;&gt;Node5 -->
<g id="edge4" class="edge"><title>Node3&#45;&gt;Node5</title>
<path fill="none" stroke="midnightblue" d="M1729.76,-124.087C1726.46,-123.692 1723.19,-123.325 1720,-123 1561.72,-106.871 1058.26,-80.7371 927.352,-74.0815"/>
<polygon fill="midnightblue" stroke="midnightblue" points="927.376,-70.5782 917.211,-73.567 927.021,-77.5692 927.376,-70.5782"/>
</g>
<!-- Node6&#45;&gt;Node5 -->
<g id="edge56" class="edge"><title>Node6&#45;&gt;Node5</title>
<path fill="none" stroke="midnightblue" d="M1140.35,-364.141C1089.58,-359.829 1015.76,-349.029 957,-322 913.93,-302.189 894.443,-297.774 874,-255 847.551,-199.658 873.217,-124.546 887.653,-90.5439"/>
<polygon fill="midnightblue" stroke="midnightblue" points="891.019,-91.587 891.865,-81.0261 884.618,-88.7542 891.019,-91.587"/>
</g>
<!-- Node7 -->
<g id="node7" class="node"><title>Node7</title>
<g id="a_node7"><a xlink:href="object_8h.html" target="_top" xlink:title="A managed object in the TVM runtime. ">
<polygon fill="white" stroke="black" points="1594.5,-123.5 1594.5,-142.5 1711.5,-142.5 1711.5,-123.5 1594.5,-123.5"/>
<text text-anchor="middle" x="1653" y="-130.5" font-family="Helvetica,sans-Serif" font-size="10.00">tvm/runtime/object.h</text>
</a>
</g>
</g>
<!-- Node6&#45;&gt;Node7 -->
<g id="edge6" class="edge"><title>Node6&#45;&gt;Node7</title>
<path fill="none" stroke="midnightblue" d="M1259.64,-364.224C1347.51,-359.345 1506.9,-347.255 1558,-322 1595.47,-303.482 1599.45,-288.828 1624,-255 1640.46,-232.317 1646.37,-226.232 1653,-199 1656.72,-183.736 1656.39,-165.85 1655.32,-152.709"/>
<polygon fill="midnightblue" stroke="midnightblue" points="1658.78,-152.153 1654.27,-142.567 1651.82,-152.874 1658.78,-152.153"/>
</g>
<!-- Node12 -->
<g id="node12" class="node"><title>Node12</title>
<polygon fill="white" stroke="#bfbfbf" points="558,-62 558,-81 626,-81 626,-62 558,-62"/>
<text text-anchor="middle" x="592" y="-69" font-family="Helvetica,sans-Serif" font-size="10.00">type_traits</text>
</g>
<!-- Node6&#45;&gt;Node12 -->
<g id="edge52" class="edge"><title>Node6&#45;&gt;Node12</title>
<path fill="none" stroke="midnightblue" d="M1140.29,-366.703C1077.28,-364.465 976.182,-355.325 896,-322 764.507,-267.35 645.497,-136.15 605.904,-89.3992"/>
<polygon fill="midnightblue" stroke="midnightblue" points="608.358,-86.8782 599.256,-81.4556 602.99,-91.3707 608.358,-86.8782"/>
</g>
<!-- Node6&#45;&gt;Node13 -->
<g id="edge57" class="edge"><title>Node6&#45;&gt;Node13</title>
<path fill="none" stroke="midnightblue" d="M1259.68,-364.361C1354.42,-359.473 1534.47,-347.138 1593,-322 1612.71,-313.533 1611.83,-302.41 1630,-291 1668.41,-266.879 1957.98,-133.914 2002,-123 2154.24,-85.254 2652.21,-75.0307 2784.49,-72.9518"/>
<polygon fill="midnightblue" stroke="midnightblue" points="2784.82,-76.4474 2794.77,-72.7954 2784.71,-69.4482 2784.82,-76.4474"/>
</g>
<!-- Node15 -->
<g id="node15" class="node"><title>Node15</title>
<g id="a_node15"><a xlink:href="runtime_2memory_8h.html" target="_top" xlink:title="Runtime memory management. ">
<polygon fill="white" stroke="black" points="916.5,-179.5 916.5,-198.5 1043.5,-198.5 1043.5,-179.5 916.5,-179.5"/>
<text text-anchor="middle" x="980" y="-186.5" font-family="Helvetica,sans-Serif" font-size="10.00">tvm/runtime/memory.h</text>
</a>
</g>
</g>
<!-- Node6&#45;&gt;Node15 -->
<g id="edge16" class="edge"><title>Node6&#45;&gt;Node15</title>
<path fill="none" stroke="midnightblue" d="M1169.51,-358.43C1093.3,-336.714 899.355,-279.513 882,-255 864.391,-230.128 900.633,-212.163 933.916,-201.505"/>
<polygon fill="midnightblue" stroke="midnightblue" points="935.074,-204.811 943.631,-198.563 933.045,-198.112 935.074,-204.811"/>
</g>
<!-- Node17 -->
<g id="node17" class="node"><title>Node17</title>
<g id="a_node17"><a xlink:href="packed__func_8h.html" target="_top" xlink:title="Type&#45;erased function used across TVM API. ">
<polygon fill="white" stroke="black" points="1436.5,-291.5 1436.5,-321.5 1549.5,-321.5 1549.5,-291.5 1436.5,-291.5"/>
<text text-anchor="start" x="1444.5" y="-309.5" font-family="Helvetica,sans-Serif" font-size="10.00">tvm/runtime/packed</text>
<text text-anchor="middle" x="1493" y="-298.5" font-family="Helvetica,sans-Serif" font-size="10.00">_func.h</text>
</a>
</g>
</g>
<!-- Node6&#45;&gt;Node17 -->
<g id="edge21" class="edge"><title>Node6&#45;&gt;Node17</title>
<path fill="none" stroke="midnightblue" d="M1241.98,-358.475C1290.12,-348.699 1369.68,-332.543 1426.32,-321.04"/>
<polygon fill="midnightblue" stroke="midnightblue" points="1427.16,-324.441 1436.27,-319.021 1425.77,-317.581 1427.16,-324.441"/>
</g>
<!-- Node20 -->
<g id="node20" class="node"><title>Node20</title>
<polygon fill="white" stroke="#bfbfbf" points="2147.5,-179.5 2147.5,-198.5 2194.5,-198.5 2194.5,-179.5 2147.5,-179.5"/>
<text text-anchor="middle" x="2171" y="-186.5" font-family="Helvetica,sans-Serif" font-size="10.00">vector</text>
</g>
<!-- Node6&#45;&gt;Node20 -->
<g id="edge53" class="edge"><title>Node6&#45;&gt;Node20</title>
<path fill="none" stroke="midnightblue" d="M1259.57,-363.884C1342.99,-358.814 1499.09,-346.753 1630,-322 1772.71,-295.016 1803.68,-268.537 1945,-235 2012.93,-218.879 2093.27,-203.826 2137.53,-195.876"/>
<polygon fill="midnightblue" stroke="midnightblue" points="2138.22,-199.307 2147.45,-194.104 2136.99,-192.416 2138.22,-199.307"/>
</g>
<!-- Node21 -->
<g id="node21" class="node"><title>Node21</title>
<polygon fill="white" stroke="#bfbfbf" points="469.5,-179.5 469.5,-198.5 562.5,-198.5 562.5,-179.5 469.5,-179.5"/>
<text text-anchor="middle" x="516" y="-186.5" font-family="Helvetica,sans-Serif" font-size="10.00">unordered_map</text>
</g>
<!-- Node6&#45;&gt;Node21 -->
<g id="edge55" class="edge"><title>Node6&#45;&gt;Node21</title>
<path fill="none" stroke="midnightblue" d="M1140.22,-364.133C1068.77,-359.637 946.051,-348.512 844,-322 727.387,-291.705 596.772,-230.266 542.181,-203.252"/>
<polygon fill="midnightblue" stroke="midnightblue" points="543.404,-199.951 532.893,-198.623 540.282,-206.216 543.404,-199.951"/>
</g>
<!-- Node27 -->
<g id="node27" class="node"><title>Node27</title>
<polygon fill="white" stroke="#bfbfbf" points="1161.5,-297 1161.5,-316 1238.5,-316 1238.5,-297 1161.5,-297"/>
<text text-anchor="middle" x="1200" y="-304" font-family="Helvetica,sans-Serif" font-size="10.00">initializer_list</text>
</g>
<!-- Node6&#45;&gt;Node27 -->
<g id="edge54" class="edge"><title>Node6&#45;&gt;Node27</title>
<path fill="none" stroke="midnightblue" d="M1200,-358.475C1200,-350.08 1200,-336.981 1200,-326.163"/>
<polygon fill="midnightblue" stroke="midnightblue" points="1203.5,-326.009 1200,-316.009 1196.5,-326.009 1203.5,-326.009"/>
</g>
<!-- Node7&#45;&gt;Node4 -->
<g id="edge7" class="edge"><title>Node7&#45;&gt;Node4</title>
<path fill="none" stroke="midnightblue" d="M1671.63,-123.475C1693.44,-113.49 1729.8,-96.8476 1755.02,-85.3075"/>
<polygon fill="midnightblue" stroke="midnightblue" points="1756.77,-88.3534 1764.41,-81.0091 1753.86,-81.9884 1756.77,-88.3534"/>
</g>
<!-- Node7&#45;&gt;Node5 -->
<g id="edge14" class="edge"><title>Node7&#45;&gt;Node5</title>
<path fill="none" stroke="midnightblue" d="M1594.23,-127.381C1442.62,-115.464 1042.16,-83.9884 927.241,-74.9555"/>
<polygon fill="midnightblue" stroke="midnightblue" points="927.272,-71.4473 917.028,-74.1528 926.723,-78.4257 927.272,-71.4473"/>
</g>
<!-- Node8 -->
<g id="node8" class="node"><title>Node8</title>
<g id="a_node8"><a xlink:href="c__runtime__api_8h.html" target="_top" xlink:title="tvm/runtime/c_runtime\l_api.h">
<polygon fill="white" stroke="black" points="1198.5,-56.5 1198.5,-86.5 1325.5,-86.5 1325.5,-56.5 1198.5,-56.5"/>
<text text-anchor="start" x="1206.5" y="-74.5" font-family="Helvetica,sans-Serif" font-size="10.00">tvm/runtime/c_runtime</text>
<text text-anchor="middle" x="1262" y="-63.5" font-family="Helvetica,sans-Serif" font-size="10.00">_api.h</text>
</a>
</g>
</g>
<!-- Node7&#45;&gt;Node8 -->
<g id="edge8" class="edge"><title>Node7&#45;&gt;Node8</title>
<path fill="none" stroke="midnightblue" d="M1596.98,-123.475C1528.27,-113.019 1411.6,-95.2647 1335.68,-83.7116"/>
<polygon fill="midnightblue" stroke="midnightblue" points="1336.12,-80.2385 1325.7,-82.1942 1335.06,-87.1589 1336.12,-80.2385"/>
</g>
<!-- Node7&#45;&gt;Node12 -->
<g id="edge12" class="edge"><title>Node7&#45;&gt;Node12</title>
<path fill="none" stroke="midnightblue" d="M1594.44,-128.716C1404.01,-118.037 804.872,-84.4377 636.44,-74.9922"/>
<polygon fill="midnightblue" stroke="midnightblue" points="636.387,-71.4838 626.206,-74.4183 635.995,-78.4728 636.387,-71.4838"/>
</g>
<!-- Node7&#45;&gt;Node13 -->
<g id="edge13" class="edge"><title>Node7&#45;&gt;Node13</title>
<path fill="none" stroke="midnightblue" d="M1711.57,-123.925C1714.76,-123.586 1717.92,-123.275 1721,-123 2140.37,-85.655 2652.62,-75.1514 2784.72,-72.9788"/>
<polygon fill="midnightblue" stroke="midnightblue" points="2785.01,-76.4748 2794.95,-72.815 2784.89,-69.4757 2785.01,-76.4748"/>
</g>
<!-- Node14 -->
<g id="node14" class="node"><title>Node14</title>
<polygon fill="white" stroke="#bfbfbf" points="1584,-62 1584,-81 1634,-81 1634,-62 1584,-62"/>
<text text-anchor="middle" x="1609" y="-69" font-family="Helvetica,sans-Serif" font-size="10.00">atomic</text>
</g>
<!-- Node7&#45;&gt;Node14 -->
<g id="edge15" class="edge"><title>Node7&#45;&gt;Node14</title>
<path fill="none" stroke="midnightblue" d="M1646.7,-123.475C1640.1,-114.55 1629.56,-100.307 1621.31,-89.1425"/>
<polygon fill="midnightblue" stroke="midnightblue" points="1624.05,-86.9684 1615.29,-81.0091 1618.42,-91.1305 1624.05,-86.9684"/>
</g>
<!-- Node9 -->
<g id="node9" class="node"><title>Node9</title>
<polygon fill="white" stroke="#bfbfbf" points="1127,-0.5 1127,-19.5 1217,-19.5 1217,-0.5 1127,-0.5"/>
<text text-anchor="middle" x="1172" y="-7.5" font-family="Helvetica,sans-Serif" font-size="10.00">dlpack/dlpack.h</text>
</g>
<!-- Node8&#45;&gt;Node9 -->
<g id="edge9" class="edge"><title>Node8&#45;&gt;Node9</title>
<path fill="none" stroke="midnightblue" d="M1240.67,-56.3993C1226.51,-47.0402 1207.99,-34.7924 1193.75,-25.3771"/>
<polygon fill="midnightblue" stroke="midnightblue" points="1195.37,-22.2531 1185.1,-19.6578 1191.51,-28.0923 1195.37,-22.2531"/>
</g>
<!-- Node10 -->
<g id="node10" class="node"><title>Node10</title>
<polygon fill="white" stroke="#bfbfbf" points="1235.5,-0.5 1235.5,-19.5 1288.5,-19.5 1288.5,-0.5 1235.5,-0.5"/>
<text text-anchor="middle" x="1262" y="-7.5" font-family="Helvetica,sans-Serif" font-size="10.00">stdint.h</text>
</g>
<!-- Node8&#45;&gt;Node10 -->
<g id="edge10" class="edge"><title>Node8&#45;&gt;Node10</title>
<path fill="none" stroke="midnightblue" d="M1262,-56.3993C1262,-48.4664 1262,-38.458 1262,-29.8583"/>
<polygon fill="midnightblue" stroke="midnightblue" points="1265.5,-29.6577 1262,-19.6578 1258.5,-29.6578 1265.5,-29.6577"/>
</g>
<!-- Node11 -->
<g id="node11" class="node"><title>Node11</title>
<polygon fill="white" stroke="#bfbfbf" points="1306.5,-0.5 1306.5,-19.5 1361.5,-19.5 1361.5,-0.5 1306.5,-0.5"/>
<text text-anchor="middle" x="1334" y="-7.5" font-family="Helvetica,sans-Serif" font-size="10.00">stddef.h</text>
</g>
<!-- Node8&#45;&gt;Node11 -->
<g id="edge11" class="edge"><title>Node8&#45;&gt;Node11</title>
<path fill="none" stroke="midnightblue" d="M1279.06,-56.3993C1290.06,-47.3076 1304.37,-35.4899 1315.62,-26.1909"/>
<polygon fill="midnightblue" stroke="midnightblue" points="1318.04,-28.726 1323.52,-19.6578 1313.59,-23.33 1318.04,-28.726"/>
</g>
<!-- Node15&#45;&gt;Node5 -->
<g id="edge19" class="edge"><title>Node15&#45;&gt;Node5</title>
<path fill="none" stroke="midnightblue" d="M973.686,-179.319C959.822,-160.255 926.507,-114.447 908.333,-89.4582"/>
<polygon fill="midnightblue" stroke="midnightblue" points="911.099,-87.3108 902.387,-81.282 905.438,-91.428 911.099,-87.3108"/>
</g>
<!-- Node15&#45;&gt;Node7 -->
<g id="edge17" class="edge"><title>Node15&#45;&gt;Node7</title>
<path fill="none" stroke="midnightblue" d="M1043.62,-182.895C1170.27,-172.733 1453,-150.047 1583.97,-139.539"/>
<polygon fill="midnightblue" stroke="midnightblue" points="1584.58,-143.001 1594.27,-138.712 1584.02,-136.024 1584.58,-143.001"/>
</g>
<!-- Node15&#45;&gt;Node12 -->
<g id="edge20" class="edge"><title>Node15&#45;&gt;Node12</title>
<path fill="none" stroke="midnightblue" d="M951.154,-179.413C882.326,-158.924 708.438,-107.161 630.65,-84.0055"/>
<polygon fill="midnightblue" stroke="midnightblue" points="631.355,-80.5636 620.772,-81.065 629.358,-87.2726 631.355,-80.5636"/>
</g>
<!-- Node16 -->
<g id="node16" class="node"><title>Node16</title>
<polygon fill="white" stroke="#bfbfbf" points="962.5,-123.5 962.5,-142.5 1009.5,-142.5 1009.5,-123.5 962.5,-123.5"/>
<text text-anchor="middle" x="986" y="-130.5" font-family="Helvetica,sans-Serif" font-size="10.00">cstdlib</text>
</g>
<!-- Node15&#45;&gt;Node16 -->
<g id="edge18" class="edge"><title>Node15&#45;&gt;Node16</title>
<path fill="none" stroke="midnightblue" d="M980.991,-179.083C981.786,-171.927 982.929,-161.635 983.923,-152.691"/>
<polygon fill="midnightblue" stroke="midnightblue" points="987.402,-153.076 985.028,-142.751 980.445,-152.303 987.402,-153.076"/>
</g>
<!-- Node17&#45;&gt;Node4 -->
<g id="edge22" class="edge"><title>Node17&#45;&gt;Node4</title>
<path fill="none" stroke="midnightblue" d="M1549.51,-298.559C1631.67,-285.057 1781.23,-246.807 1845,-143 1858.42,-121.15 1831.93,-99.5305 1809.52,-86.1097"/>
<polygon fill="midnightblue" stroke="midnightblue" points="1811.02,-82.9406 1800.6,-81.0503 1807.57,-89.029 1811.02,-82.9406"/>
</g>
<!-- Node17&#45;&gt;Node5 -->
<g id="edge50" class="edge"><title>Node17&#45;&gt;Node5</title>
<path fill="none" stroke="midnightblue" d="M1436.49,-294.15C1430.59,-293.048 1424.68,-291.978 1419,-291 1311.84,-272.54 1276.28,-299.367 1177,-255 1093.15,-217.526 1096.65,-170.431 1018,-123 988.713,-105.338 952.125,-91.1103 926.694,-82.3129"/>
<polygon fill="midnightblue" stroke="midnightblue" points="927.794,-78.9901 917.199,-79.1012 925.551,-85.621 927.794,-78.9901"/>
</g>
<!-- Node17&#45;&gt;Node7 -->
<g id="edge43" class="edge"><title>Node17&#45;&gt;Node7</title>
<path fill="none" stroke="midnightblue" d="M1542.26,-291.49C1562.88,-283.57 1585.77,-271.803 1602,-255 1630.14,-225.858 1643.79,-178.871 1649.5,-152.854"/>
<polygon fill="midnightblue" stroke="midnightblue" points="1652.98,-153.304 1651.54,-142.808 1646.12,-151.913 1652.98,-153.304"/>
</g>
<!-- Node17&#45;&gt;Node8 -->
<g id="edge23" class="edge"><title>Node17&#45;&gt;Node8</title>
<path fill="none" stroke="midnightblue" d="M1436.47,-294.265C1430.57,-293.141 1424.67,-292.034 1419,-291 1324.55,-273.768 1287.09,-306.401 1206,-255 1173.93,-234.674 1153.48,-214.475 1167,-179 1180.52,-143.535 1211.88,-112.379 1234.88,-93.0745"/>
<polygon fill="midnightblue" stroke="midnightblue" points="1237.39,-95.5439 1242.93,-86.5124 1232.97,-90.1183 1237.39,-95.5439"/>
</g>
<!-- Node17&#45;&gt;Node12 -->
<g id="edge51" class="edge"><title>Node17&#45;&gt;Node12</title>
<path fill="none" stroke="midnightblue" d="M1436.1,-293.958C1430.34,-292.906 1424.56,-291.899 1419,-291 1294.71,-270.883 1261.28,-280.603 1138,-255 1106.74,-248.507 1099.93,-242.912 1069,-235 997.544,-216.724 977.672,-220.105 907,-199 839.612,-178.876 824.297,-169.125 759,-143 710.41,-123.559 654.478,-99.6264 621.246,-85.2412"/>
<polygon fill="midnightblue" stroke="midnightblue" points="622.262,-81.8667 611.695,-81.0989 619.477,-88.2888 622.262,-81.8667"/>
</g>
<!-- Node17&#45;&gt;Node13 -->
<g id="edge47" class="edge"><title>Node17&#45;&gt;Node13</title>
<path fill="none" stroke="midnightblue" d="M1529.72,-291.404C1556,-281.305 1592.19,-267.361 1624,-255 1710.31,-221.457 1731.66,-212.471 1818,-179 1882.8,-153.88 1896.07,-137.671 1964,-123 2125.13,-88.2032 2649.31,-75.7641 2784.8,-73.0879"/>
<polygon fill="midnightblue" stroke="midnightblue" points="2785.01,-76.5846 2794.94,-72.8917 2784.87,-69.5859 2785.01,-76.5846"/>
</g>
<!-- Node18 -->
<g id="node18" class="node"><title>Node18</title>
<g id="a_node18"><a xlink:href="runtime_2module_8h.html" target="_top" xlink:title="Runtime container of the functions generated by TVM, This is used to support dynamically link...">
<polygon fill="white" stroke="red" points="1230,-235.5 1230,-254.5 1354,-254.5 1354,-235.5 1230,-235.5"/>
<text text-anchor="middle" x="1292" y="-242.5" font-family="Helvetica,sans-Serif" font-size="10.00">tvm/runtime/module.h</text>
</a>
</g>
</g>
<!-- Node17&#45;&gt;Node18 -->
<g id="edge24" class="edge"><title>Node17&#45;&gt;Node18</title>
<path fill="none" stroke="midnightblue" d="M1439.79,-291.475C1403.63,-281.165 1356.97,-267.319 1325.79,-257.624"/>
<polygon fill="midnightblue" stroke="midnightblue" points="1326.43,-254.158 1315.84,-254.506 1324.33,-260.837 1326.43,-254.158"/>
</g>
<!-- Node19 -->
<g id="node19" class="node"><title>Node19</title>
<polygon fill="white" stroke="#bfbfbf" points="1176.5,-179.5 1176.5,-198.5 1233.5,-198.5 1233.5,-179.5 1176.5,-179.5"/>
<text text-anchor="middle" x="1205" y="-186.5" font-family="Helvetica,sans-Serif" font-size="10.00">memory</text>
</g>
<!-- Node17&#45;&gt;Node19 -->
<g id="edge49" class="edge"><title>Node17&#45;&gt;Node19</title>
<path fill="none" stroke="midnightblue" d="M1436.44,-293.821C1431.56,-292.852 1426.7,-291.9 1422,-291 1332.87,-273.919 1287.2,-317.083 1221,-255 1208.56,-243.332 1205.12,-223.679 1204.46,-209.031"/>
<polygon fill="midnightblue" stroke="midnightblue" points="1207.96,-208.585 1204.4,-198.605 1200.96,-208.625 1207.96,-208.585"/>
</g>
<!-- Node17&#45;&gt;Node20 -->
<g id="edge46" class="edge"><title>Node17&#45;&gt;Node20</title>
<path fill="none" stroke="midnightblue" d="M1549.56,-301.16C1616.53,-295.055 1730.97,-281.571 1826,-255 1848.26,-248.777 1851.74,-241.222 1874,-235 1967.43,-208.884 2081.89,-196.962 2137.49,-192.395"/>
<polygon fill="midnightblue" stroke="midnightblue" points="2137.79,-195.882 2147.49,-191.602 2137.24,-188.904 2137.79,-195.882"/>
</g>
<!-- Node22 -->
<g id="node22" class="node"><title>Node22</title>
<g id="a_node22"><a xlink:href="ndarray_8h.html" target="_top" xlink:title="A device&#45;independent managed NDArray abstraction. ">
<polygon fill="white" stroke="red" points="1470.5,-235.5 1470.5,-254.5 1593.5,-254.5 1593.5,-235.5 1470.5,-235.5"/>
<text text-anchor="middle" x="1532" y="-242.5" font-family="Helvetica,sans-Serif" font-size="10.00">tvm/runtime/ndarray.h</text>
</a>
</g>
</g>
<!-- Node17&#45;&gt;Node22 -->
<g id="edge33" class="edge"><title>Node17&#45;&gt;Node22</title>
<path fill="none" stroke="midnightblue" d="M1502.24,-291.399C1507.79,-282.932 1514.89,-272.099 1520.77,-263.139"/>
<polygon fill="midnightblue" stroke="midnightblue" points="1523.77,-264.94 1526.33,-254.658 1517.92,-261.103 1523.77,-264.94"/>
</g>
<!-- Node23 -->
<g id="node23" class="node"><title>Node23</title>
<g id="a_node23"><a xlink:href="data__type_8h.html" target="_top" xlink:title="tvm/runtime/data_type.h">
<polygon fill="white" stroke="black" points="924,-235.5 924,-254.5 1060,-254.5 1060,-235.5 924,-235.5"/>
<text text-anchor="middle" x="992" y="-242.5" font-family="Helvetica,sans-Serif" font-size="10.00">tvm/runtime/data_type.h</text>
</a>
</g>
</g>
<!-- Node17&#45;&gt;Node23 -->
<g id="edge39" class="edge"><title>Node17&#45;&gt;Node23</title>
<path fill="none" stroke="midnightblue" d="M1436.12,-293.371C1431.36,-292.511 1426.6,-291.706 1422,-291 1268.31,-267.415 1228.62,-271.482 1074,-255 1072.72,-254.863 1071.43,-254.725 1070.12,-254.586"/>
<polygon fill="midnightblue" stroke="midnightblue" points="1070.33,-251.088 1060.01,-253.497 1069.58,-258.047 1070.33,-251.088"/>
</g>
<!-- Node24 -->
<g id="node24" class="node"><title>Node24</title>
<polygon fill="white" stroke="#bfbfbf" points="1954.5,-235.5 1954.5,-254.5 2017.5,-254.5 2017.5,-235.5 1954.5,-235.5"/>
<text text-anchor="middle" x="1986" y="-242.5" font-family="Helvetica,sans-Serif" font-size="10.00">functional</text>
</g>
<!-- Node17&#45;&gt;Node24 -->
<g id="edge44" class="edge"><title>Node17&#45;&gt;Node24</title>
<path fill="none" stroke="midnightblue" d="M1549.55,-298.675C1649.69,-286.59 1855.92,-261.699 1944.3,-251.032"/>
<polygon fill="midnightblue" stroke="midnightblue" points="1944.97,-254.477 1954.48,-249.804 1944.13,-247.527 1944.97,-254.477"/>
</g>
<!-- Node25 -->
<g id="node25" class="node"><title>Node25</title>
<polygon fill="white" stroke="#bfbfbf" points="1372.5,-235.5 1372.5,-254.5 1413.5,-254.5 1413.5,-235.5 1372.5,-235.5"/>
<text text-anchor="middle" x="1393" y="-242.5" font-family="Helvetica,sans-Serif" font-size="10.00">tuple</text>
</g>
<!-- Node17&#45;&gt;Node25 -->
<g id="edge45" class="edge"><title>Node17&#45;&gt;Node25</title>
<path fill="none" stroke="midnightblue" d="M1469.3,-291.399C1453.27,-281.862 1432.2,-269.325 1416.26,-259.842"/>
<polygon fill="midnightblue" stroke="midnightblue" points="1417.93,-256.763 1407.55,-254.658 1414.36,-262.779 1417.93,-256.763"/>
</g>
<!-- Node26 -->
<g id="node26" class="node"><title>Node26</title>
<polygon fill="white" stroke="#bfbfbf" points="408,-235.5 408,-254.5 450,-254.5 450,-235.5 408,-235.5"/>
<text text-anchor="middle" x="429" y="-242.5" font-family="Helvetica,sans-Serif" font-size="10.00">limits</text>
</g>
<!-- Node17&#45;&gt;Node26 -->
<g id="edge48" class="edge"><title>Node17&#45;&gt;Node26</title>
<path fill="none" stroke="midnightblue" d="M1436.33,-302.097C1386.48,-299.117 1311.92,-294.699 1247,-291 940.515,-273.537 569.365,-253.533 460.452,-247.686"/>
<polygon fill="midnightblue" stroke="midnightblue" points="460.345,-244.175 450.172,-247.134 459.97,-251.165 460.345,-244.175"/>
</g>
<!-- Node18&#45;&gt;Node7 -->
<g id="edge26" class="edge"><title>Node18&#45;&gt;Node7</title>
<path fill="none" stroke="midnightblue" d="M1328.57,-235.461C1363.94,-226.985 1418.96,-213.232 1466,-199 1520.88,-182.396 1583.64,-159.831 1620.71,-146.124"/>
<polygon fill="midnightblue" stroke="midnightblue" points="1622.3,-149.267 1630.45,-142.505 1619.86,-142.705 1622.3,-149.267"/>
</g>
<!-- Node18&#45;&gt;Node8 -->
<g id="edge25" class="edge"><title>Node18&#45;&gt;Node8</title>
<path fill="none" stroke="midnightblue" d="M1290.47,-235.26C1286.03,-209.866 1273.01,-135.444 1266.22,-96.6497"/>
<polygon fill="midnightblue" stroke="midnightblue" points="1269.66,-95.9701 1264.49,-86.7228 1262.76,-97.1763 1269.66,-95.9701"/>
</g>
<!-- Node18&#45;&gt;Node13 -->
<g id="edge30" class="edge"><title>Node18&#45;&gt;Node13</title>
<path fill="none" stroke="midnightblue" d="M1307.25,-235.425C1349.65,-212.092 1473.19,-147.568 1585,-123 1823.46,-70.5999 2615.13,-71.4865 2784.8,-72.3017"/>
<polygon fill="midnightblue" stroke="midnightblue" points="2784.83,-75.8018 2794.85,-72.3535 2784.87,-68.8019 2784.83,-75.8018"/>
</g>
<!-- Node18&#45;&gt;Node15 -->
<g id="edge27" class="edge"><title>Node18&#45;&gt;Node15</title>
<path fill="none" stroke="midnightblue" d="M1242.56,-235.444C1187.34,-225.885 1097.98,-210.419 1039.11,-200.23"/>
<polygon fill="midnightblue" stroke="midnightblue" points="1039.66,-196.773 1029.21,-198.516 1038.46,-203.671 1039.66,-196.773"/>
</g>
<!-- Node18&#45;&gt;Node17 -->
<g id="edge32" class="edge"><title>Node18&#45;&gt;Node17</title>
<path fill="none" stroke="midnightblue" d="M1325.86,-254.571C1357.49,-263.367 1404.95,-277.292 1441.28,-288.36"/>
<polygon fill="midnightblue" stroke="midnightblue" points="1440.62,-291.819 1451.21,-291.399 1442.67,-285.125 1440.62,-291.819"/>
</g>
<!-- Node18&#45;&gt;Node19 -->
<g id="edge28" class="edge"><title>Node18&#45;&gt;Node19</title>
<path fill="none" stroke="midnightblue" d="M1278.02,-235.324C1264.45,-226.9 1243.62,-213.971 1227.68,-204.074"/>
<polygon fill="midnightblue" stroke="midnightblue" points="1229.29,-200.954 1218.94,-198.655 1225.59,-206.902 1229.29,-200.954"/>
</g>
<!-- Node18&#45;&gt;Node20 -->
<g id="edge29" class="edge"><title>Node18&#45;&gt;Node20</title>
<path fill="none" stroke="midnightblue" d="M1354.31,-235.849C1357.25,-235.545 1360.15,-235.259 1363,-235 1662.59,-207.704 2026.28,-194.588 2137.26,-191.027"/>
<polygon fill="midnightblue" stroke="midnightblue" points="2137.61,-194.518 2147.49,-190.703 2137.38,-187.522 2137.61,-194.518"/>
</g>
<!-- Node18&#45;&gt;Node21 -->
<g id="edge31" class="edge"><title>Node18&#45;&gt;Node21</title>
<path fill="none" stroke="midnightblue" d="M1229.81,-239.672C1082.62,-229.43 714.66,-203.824 572.913,-193.96"/>
<polygon fill="midnightblue" stroke="midnightblue" points="572.922,-190.453 562.703,-193.25 572.436,-197.436 572.922,-190.453"/>
</g>
<!-- Node22&#45;&gt;Node5 -->
<g id="edge38" class="edge"><title>Node22&#45;&gt;Node5</title>
<path fill="none" stroke="midnightblue" d="M1505.45,-235.419C1440.67,-214.638 1269.2,-160.562 1124,-123 1054.05,-104.905 970.998,-87.5302 926.985,-78.6422"/>
<polygon fill="midnightblue" stroke="midnightblue" points="927.672,-75.2104 917.179,-76.6722 926.294,-82.0733 927.672,-75.2104"/>
</g>
<!-- Node22&#45;&gt;Node7 -->
<g id="edge35" class="edge"><title>Node22&#45;&gt;Node7</title>
<path fill="none" stroke="midnightblue" d="M1541.49,-235.368C1561.9,-216.814 1610.2,-172.913 1636.02,-149.438"/>
<polygon fill="midnightblue" stroke="midnightblue" points="1638.5,-151.908 1643.55,-142.591 1633.8,-146.728 1638.5,-151.908"/>
</g>
<!-- Node22&#45;&gt;Node8 -->
<g id="edge34" class="edge"><title>Node22&#45;&gt;Node8</title>
<path fill="none" stroke="midnightblue" d="M1523.82,-235.261C1503.18,-213.654 1446.65,-157.013 1390,-123 1367.6,-109.549 1340.97,-98.374 1317.82,-89.9849"/>
<polygon fill="midnightblue" stroke="midnightblue" points="1318.73,-86.5939 1308.14,-86.5617 1316.4,-93.1939 1318.73,-86.5939"/>
</g>
<!-- Node22&#45;&gt;Node14 -->
<g id="edge36" class="edge"><title>Node22&#45;&gt;Node14</title>
<path fill="none" stroke="midnightblue" d="M1535.64,-235.451C1544.1,-215.611 1565.86,-164.934 1585,-123 1589.97,-112.105 1595.73,-99.9826 1600.35,-90.3458"/>
<polygon fill="midnightblue" stroke="midnightblue" points="1603.65,-91.568 1604.84,-81.0404 1597.35,-88.5269 1603.65,-91.568"/>
</g>
<!-- Node22&#45;&gt;Node20 -->
<g id="edge37" class="edge"><title>Node22&#45;&gt;Node20</title>
<path fill="none" stroke="midnightblue" d="M1593.56,-238.798C1726.03,-227.603 2034.44,-201.54 2137.09,-192.866"/>
<polygon fill="midnightblue" stroke="midnightblue" points="2137.53,-196.341 2147.2,-192.012 2136.94,-189.366 2137.53,-196.341"/>
</g>
<!-- Node23&#45;&gt;Node4 -->
<g id="edge41" class="edge"><title>Node23&#45;&gt;Node4</title>
<path fill="none" stroke="midnightblue" d="M1043.86,-235.468C1094.53,-226.944 1173.76,-213.109 1242,-199 1427.96,-160.549 1647.85,-106.426 1739.51,-83.4747"/>
<polygon fill="midnightblue" stroke="midnightblue" points="1740.42,-86.8548 1749.27,-81.0274 1738.72,-80.065 1740.42,-86.8548"/>
</g>
<!-- Node23&#45;&gt;Node8 -->
<g id="edge40" class="edge"><title>Node23&#45;&gt;Node8</title>
<path fill="none" stroke="midnightblue" d="M1005.39,-235.495C1046.68,-209.266 1172.8,-129.156 1231.44,-91.9135"/>
<polygon fill="midnightblue" stroke="midnightblue" points="1233.35,-94.8461 1239.91,-86.53 1229.59,-88.9373 1233.35,-94.8461"/>
</g>
<!-- Node23&#45;&gt;Node12 -->
<g id="edge42" class="edge"><title>Node23&#45;&gt;Node12</title>
<path fill="none" stroke="midnightblue" d="M953.383,-235.416C894.582,-221.389 780.133,-190.291 692,-143 661.647,-126.713 629.622,-102.771 610.223,-87.4077"/>
<polygon fill="midnightblue" stroke="midnightblue" points="612.24,-84.5387 602.25,-81.0108 607.859,-89.9987 612.24,-84.5387"/>
</g>
<!-- Node28&#45;&gt;Node13 -->
<g id="edge144" class="edge"><title>Node28&#45;&gt;Node13</title>
<path fill="none" stroke="midnightblue" d="M2970.66,-933C2999.54,-927.526 3037.99,-916.204 3064,-893 3108.36,-853.428 3121,-831.446 3121,-772 3121,-772 3121,-772 3121,-188 3121,-157.205 3120.6,-142.786 3097,-123 3059.8,-91.8093 2914.66,-78.7444 2849.26,-74.3588"/>
<polygon fill="midnightblue" stroke="midnightblue" points="2849.32,-70.8552 2839.11,-73.7054 2848.87,-77.8408 2849.32,-70.8552"/>
</g>
<!-- Node28&#45;&gt;Node20 -->
<g id="edge145" class="edge"><title>Node28&#45;&gt;Node20</title>
<path fill="none" stroke="midnightblue" d="M2928.38,-929.292C2915.02,-884.01 2855,-670.694 2855,-492 2855,-492 2855,-492 2855,-428.5 2855,-289.078 2341.9,-212.256 2204.5,-194.184"/>
<polygon fill="midnightblue" stroke="midnightblue" points="2204.91,-190.707 2194.54,-192.891 2204.01,-197.649 2204.91,-190.707"/>
</g>
<!-- Node28&#45;&gt;Node21 -->
<g id="edge147" class="edge"><title>Node28&#45;&gt;Node21</title>
<path fill="none" stroke="midnightblue" d="M2891.16,-937.331C2652.99,-933.112 1415.41,-908.041 1043,-837 664.046,-764.711 524.695,-619.736 399,-255 388.377,-224.176 424.545,-207.615 459.404,-198.941"/>
<polygon fill="midnightblue" stroke="midnightblue" points="460.199,-202.349 469.161,-196.698 458.631,-195.527 460.199,-202.349"/>
</g>
<!-- Node29 -->
<g id="node29" class="node"><title>Node29</title>
<g id="a_node29"><a xlink:href="span_8h.html" target="_top" xlink:title="Span information for debugging purposes. ">
<polygon fill="white" stroke="black" points="1990,-593.5 1990,-612.5 2070,-612.5 2070,-593.5 1990,-593.5"/>
<text text-anchor="middle" x="2030" y="-600.5" font-family="Helvetica,sans-Serif" font-size="10.00">tvm/ir/span.h</text>
</a>
</g>
</g>
<!-- Node28&#45;&gt;Node29 -->
<g id="edge59" class="edge"><title>Node28&#45;&gt;Node29</title>
<path fill="none" stroke="midnightblue" d="M2917.65,-929.36C2884.17,-907.979 2793.49,-851.813 2712,-817 2480.54,-718.115 2187.52,-642.168 2075.96,-614.922"/>
<polygon fill="midnightblue" stroke="midnightblue" points="2076.59,-611.474 2066.04,-612.514 2074.94,-618.276 2076.59,-611.474"/>
</g>
<!-- Node28&#45;&gt;Node37 -->
<g id="edge102" class="edge"><title>Node28&#45;&gt;Node37</title>
<path fill="none" stroke="midnightblue" d="M2891.49,-931.051C2837.73,-921.593 2741.21,-904.616 2679.99,-893.849"/>
<polygon fill="midnightblue" stroke="midnightblue" points="2680.57,-890.396 2670.11,-892.111 2679.35,-897.29 2680.57,-890.396"/>
</g>
<!-- Node45 -->
<g id="node45" class="node"><title>Node45</title>
<polygon fill="white" stroke="#bfbfbf" points="2999,-873.5 2999,-892.5 3055,-892.5 3055,-873.5 2999,-873.5"/>
<text text-anchor="middle" x="3027" y="-880.5" font-family="Helvetica,sans-Serif" font-size="10.00">sstream</text>
</g>
<!-- Node28&#45;&gt;Node45 -->
<g id="edge146" class="edge"><title>Node28&#45;&gt;Node45</title>
<path fill="none" stroke="midnightblue" d="M2946.42,-929.324C2961.54,-920.822 2984.82,-907.729 3002.47,-897.797"/>
<polygon fill="midnightblue" stroke="midnightblue" points="3004.61,-900.608 3011.61,-892.655 3001.18,-894.507 3004.61,-900.608"/>
</g>
<!-- Node29&#45;&gt;Node7 -->
<g id="edge60" class="edge"><title>Node29&#45;&gt;Node7</title>
<path fill="none" stroke="midnightblue" d="M2070.2,-599.361C2142.51,-594.085 2291.25,-580.663 2337,-557 2372.46,-538.661 2399,-531.923 2399,-492 2399,-492 2399,-492 2399,-367 2399,-279.018 2406.76,-232.617 2337,-179 2284.6,-138.728 1824.33,-148.685 1721.58,-142.765"/>
<polygon fill="midnightblue" stroke="midnightblue" points="1721.8,-139.272 1711.57,-142.029 1721.29,-146.254 1721.8,-139.272"/>
</g>
<!-- Node29&#45;&gt;Node13 -->
<g id="edge101" class="edge"><title>Node29&#45;&gt;Node13</title>
<path fill="none" stroke="midnightblue" d="M2070.25,-600.119C2148.65,-595.9 2318.62,-583.869 2370,-557 2495.18,-491.535 2495.08,-431.763 2584,-322 2652.56,-237.374 2645.81,-195.591 2727,-123 2744.74,-107.136 2768.31,-94.138 2786.87,-85.3031"/>
<polygon fill="midnightblue" stroke="midnightblue" points="2788.45,-88.4307 2796.07,-81.0693 2785.52,-82.0723 2788.45,-88.4307"/>
</g>
<!-- Node30 -->
<g id="node30" class="node"><title>Node30</title>
<g id="a_node30"><a xlink:href="node_8h.html" target="_top" xlink:title="Definitions and helper macros for IR/AST nodes. ">
<polygon fill="white" stroke="black" points="1524,-537.5 1524,-556.5 1622,-556.5 1622,-537.5 1524,-537.5"/>
<text text-anchor="middle" x="1573" y="-544.5" font-family="Helvetica,sans-Serif" font-size="10.00">tvm/node/node.h</text>
</a>
</g>
</g>
<!-- Node29&#45;&gt;Node30 -->
<g id="edge61" class="edge"><title>Node29&#45;&gt;Node30</title>
<path fill="none" stroke="midnightblue" d="M1989.84,-597.255C1909.04,-587.707 1726.49,-566.136 1632.06,-554.978"/>
<polygon fill="midnightblue" stroke="midnightblue" points="1632.44,-551.499 1622.09,-553.801 1631.61,-558.45 1632.44,-551.499"/>
</g>
<!-- Node30&#45;&gt;Node5 -->
<g id="edge99" class="edge"><title>Node30&#45;&gt;Node5</title>
<path fill="none" stroke="midnightblue" d="M1523.86,-543.629C1416.59,-538.106 1164.46,-523.151 1082,-501 1024.77,-485.627 1006.94,-482.429 961,-445 908.28,-402.049 896.014,-384.829 870,-322 849.003,-271.29 859.49,-253.883 859,-199 858.697,-165.037 855.943,-155.114 867,-123 871.048,-111.242 877.901,-99.1247 883.929,-89.7078"/>
<polygon fill="midnightblue" stroke="midnightblue" points="886.899,-91.5628 889.547,-81.3043 881.08,-87.6722 886.899,-91.5628"/>
</g>
<!-- Node30&#45;&gt;Node6 -->
<g id="edge94" class="edge"><title>Node30&#45;&gt;Node6</title>
<path fill="none" stroke="midnightblue" d="M1549.72,-537.488C1506.82,-521.481 1412.85,-484.893 1338,-445 1315.59,-433.055 1312.06,-426.586 1290,-414 1269.64,-402.385 1245.91,-390.585 1227.92,-381.984"/>
<polygon fill="midnightblue" stroke="midnightblue" points="1229.12,-378.677 1218.58,-377.557 1226.12,-385.002 1229.12,-378.677"/>
</g>
<!-- Node30&#45;&gt;Node7 -->
<g id="edge63" class="edge"><title>Node30&#45;&gt;Node7</title>
<path fill="none" stroke="midnightblue" d="M1622.24,-543.791C1758.28,-537.474 2130.57,-518.65 2150,-501 2176.84,-476.619 2227.67,-205.577 2203,-179 2168.07,-141.366 1808.19,-147.837 1721.71,-142.749"/>
<polygon fill="midnightblue" stroke="midnightblue" points="1721.82,-139.247 1711.58,-141.969 1721.28,-146.226 1721.82,-139.247"/>
</g>
<!-- Node30&#45;&gt;Node8 -->
<g id="edge62" class="edge"><title>Node30&#45;&gt;Node8</title>
<path fill="none" stroke="midnightblue" d="M1523.88,-545.039C1445.27,-542.535 1286.84,-533.513 1157,-501 1019.49,-466.564 968.002,-442.295 893,-322 871.715,-287.861 855.951,-273.385 868,-235 886.715,-175.379 898.85,-154.189 953,-123 991.994,-100.541 1109.8,-86.0094 1188.16,-78.5453"/>
<polygon fill="midnightblue" stroke="midnightblue" points="1188.84,-81.9976 1198.47,-77.5826 1188.18,-75.028 1188.84,-81.9976"/>
</g>
<!-- Node30&#45;&gt;Node12 -->
<g id="edge100" class="edge"><title>Node30&#45;&gt;Node12</title>
<path fill="none" stroke="midnightblue" d="M1523.6,-544.543C1405.25,-540.65 1108.26,-528.382 1013,-501 878.429,-462.32 524.663,-323.195 460,-199 433.19,-147.507 512.067,-105.022 559.299,-84.9572"/>
<polygon fill="midnightblue" stroke="midnightblue" points="560.657,-88.1834 568.566,-81.1339 557.987,-81.7126 560.657,-88.1834"/>
</g>
<!-- Node30&#45;&gt;Node13 -->
<g id="edge97" class="edge"><title>Node30&#45;&gt;Node13</title>
<path fill="none" stroke="midnightblue" d="M1622.08,-545.159C1745.89,-542.584 2068.22,-532.924 2170,-501 2429.43,-419.628 2411.85,-252.362 2651,-123 2694.46,-99.4906 2750.38,-85.3752 2784.95,-78.2674"/>
<polygon fill="midnightblue" stroke="midnightblue" points="2785.82,-81.6618 2794.95,-76.2839 2784.46,-74.7954 2785.82,-81.6618"/>
</g>
<!-- Node30&#45;&gt;Node15 -->
<g id="edge64" class="edge"><title>Node30&#45;&gt;Node15</title>
<path fill="none" stroke="midnightblue" d="M1523.94,-545.278C1385.27,-540.151 992.75,-503.47 874,-255 861.051,-227.906 893.474,-211.064 925.783,-201.333"/>
<polygon fill="midnightblue" stroke="midnightblue" points="927.072,-204.607 935.756,-198.538 925.183,-197.866 927.072,-204.607"/>
</g>
<!-- Node30&#45;&gt;Node20 -->
<g id="edge98" class="edge"><title>Node30&#45;&gt;Node20</title>
<path fill="none" stroke="midnightblue" d="M1619.85,-537.498C1688.1,-523.984 1817.75,-494 1919,-445 2045.26,-383.895 2116.37,-384.192 2171,-255 2177.18,-240.384 2176.57,-222.212 2174.77,-208.801"/>
<polygon fill="midnightblue" stroke="midnightblue" points="2178.2,-208.12 2173.09,-198.838 2171.3,-209.28 2178.2,-208.12"/>
</g>
<!-- Node31 -->
<g id="node31" class="node"><title>Node31</title>
<g id="a_node31"><a xlink:href="reflection_8h.html" target="_top" xlink:title="Reflection and serialization of compiler IR/AST nodes. ">
<polygon fill="white" stroke="black" points="1585.5,-481.5 1585.5,-500.5 1704.5,-500.5 1704.5,-481.5 1585.5,-481.5"/>
<text text-anchor="middle" x="1645" y="-488.5" font-family="Helvetica,sans-Serif" font-size="10.00">tvm/node/reflection.h</text>
</a>
</g>
</g>
<!-- Node30&#45;&gt;Node31 -->
<g id="edge65" class="edge"><title>Node30&#45;&gt;Node31</title>
<path fill="none" stroke="midnightblue" d="M1584.57,-537.324C1595.42,-529.185 1611.88,-516.839 1624.88,-507.087"/>
<polygon fill="midnightblue" stroke="midnightblue" points="1627.32,-509.634 1633.22,-500.834 1623.12,-504.034 1627.32,-509.634"/>
</g>
<!-- Node32 -->
<g id="node32" class="node"><title>Node32</title>
<g id="a_node32"><a xlink:href="structural__equal_8h.html" target="_top" xlink:title="Structural equality comparison. ">
<polygon fill="white" stroke="black" points="1476.5,-414.5 1476.5,-444.5 1587.5,-444.5 1587.5,-414.5 1476.5,-414.5"/>
<text text-anchor="start" x="1484.5" y="-432.5" font-family="Helvetica,sans-Serif" font-size="10.00">tvm/node/structural</text>
<text text-anchor="middle" x="1532" y="-421.5" font-family="Helvetica,sans-Serif" font-size="10.00">_equal.h</text>
</a>
</g>
</g>
<!-- Node30&#45;&gt;Node32 -->
<g id="edge95" class="edge"><title>Node30&#45;&gt;Node32</title>
<path fill="none" stroke="midnightblue" d="M1569.92,-537.319C1563.7,-519.812 1549.48,-479.749 1540.33,-453.97"/>
<polygon fill="midnightblue" stroke="midnightblue" points="1543.63,-452.798 1536.99,-444.545 1537.03,-455.14 1543.63,-452.798"/>
</g>
<!-- Node34 -->
<g id="node34" class="node"><title>Node34</title>
<g id="a_node34"><a xlink:href="structural__hash_8h.html" target="_top" xlink:title="tvm/node/structural\l_hash.h">
<polygon fill="white" stroke="black" points="1758.5,-414.5 1758.5,-444.5 1869.5,-444.5 1869.5,-414.5 1758.5,-414.5"/>
<text text-anchor="start" x="1766.5" y="-432.5" font-family="Helvetica,sans-Serif" font-size="10.00">tvm/node/structural</text>
<text text-anchor="middle" x="1814" y="-421.5" font-family="Helvetica,sans-Serif" font-size="10.00">_hash.h</text>
</a>
</g>
</g>
<!-- Node30&#45;&gt;Node34 -->
<g id="edge96" class="edge"><title>Node30&#45;&gt;Node34</title>
<path fill="none" stroke="midnightblue" d="M1609.54,-537.461C1638.48,-529.947 1679.49,-517.611 1713,-501 1740.83,-487.205 1769.59,-466.369 1789.27,-450.922"/>
<polygon fill="midnightblue" stroke="midnightblue" points="1791.48,-453.637 1797.12,-444.668 1787.12,-448.163 1791.48,-453.637"/>
</g>
<!-- Node35 -->
<g id="node35" class="node"><title>Node35</title>
<g id="a_node35"><a xlink:href="repr__printer_8h.html" target="_top" xlink:title="Printer class to print repr string of each AST/IR nodes. ">
<polygon fill="white" stroke="black" points="2011,-481.5 2011,-500.5 2141,-500.5 2141,-481.5 2011,-481.5"/>
<text text-anchor="middle" x="2076" y="-488.5" font-family="Helvetica,sans-Serif" font-size="10.00">tvm/node/repr_printer.h</text>
</a>
</g>
</g>
<!-- Node30&#45;&gt;Node35 -->
<g id="edge91" class="edge"><title>Node30&#45;&gt;Node35</title>
<path fill="none" stroke="midnightblue" d="M1622.15,-540.724C1710.42,-531.247 1896.35,-511.287 2000.76,-500.078"/>
<polygon fill="midnightblue" stroke="midnightblue" points="2001.34,-503.535 2010.91,-498.988 2000.6,-496.575 2001.34,-503.535"/>
</g>
<!-- Node31&#45;&gt;Node7 -->
<g id="edge67" class="edge"><title>Node31&#45;&gt;Node7</title>
<path fill="none" stroke="midnightblue" d="M1655.61,-481.489C1665.24,-473.186 1679.11,-459.688 1687,-445 1701.48,-418.026 1699.42,-408.405 1703,-378 1713.07,-292.455 1677.2,-192.303 1660.78,-152.072"/>
<polygon fill="midnightblue" stroke="midnightblue" points="1663.98,-150.65 1656.89,-142.775 1657.52,-153.351 1663.98,-150.65"/>
</g>
<!-- Node31&#45;&gt;Node8 -->
<g id="edge66" class="edge"><title>Node31&#45;&gt;Node8</title>
<path fill="none" stroke="midnightblue" d="M1643.82,-481.335C1639.15,-450.544 1619.17,-345.345 1558,-291 1523.62,-260.458 1500.23,-278.987 1461,-255 1385.89,-209.078 1313.89,-132.32 1280.86,-94.6802"/>
<polygon fill="midnightblue" stroke="midnightblue" points="1283.24,-92.0944 1274.04,-86.8416 1277.96,-96.6857 1283.24,-92.0944"/>
</g>
<!-- Node31&#45;&gt;Node12 -->
<g id="edge90" class="edge"><title>Node31&#45;&gt;Node12</title>
<path fill="none" stroke="midnightblue" d="M1585.28,-487.902C1446.07,-480.895 1092.12,-450.741 832,-322 725.087,-269.086 704.683,-237.591 632,-143 619.182,-126.318 607.693,-105.077 600.353,-90.2907"/>
<polygon fill="midnightblue" stroke="midnightblue" points="603.472,-88.7008 595.969,-81.2208 597.17,-91.7473 603.472,-88.7008"/>
</g>
<!-- Node31&#45;&gt;Node13 -->
<g id="edge89" class="edge"><title>Node31&#45;&gt;Node13</title>
<path fill="none" stroke="midnightblue" d="M1704.59,-484.921C1760.83,-479.032 1847.01,-467.159 1919,-445 2081.49,-394.985 2452.64,-179.464 2613,-123 2672.36,-102.099 2744.34,-86.4378 2784.99,-78.4437"/>
<polygon fill="midnightblue" stroke="midnightblue" points="2785.71,-81.8692 2794.86,-76.532 2784.38,-74.9969 2785.71,-81.8692"/>
</g>
<!-- Node31&#45;&gt;Node15 -->
<g id="edge68" class="edge"><title>Node31&#45;&gt;Node15</title>
<path fill="none" stroke="midnightblue" d="M1585.1,-486.723C1537.86,-482.148 1471.43,-471.197 1419,-445 1373.11,-422.068 1293.86,-311.879 1247,-291 1179.21,-260.799 964.566,-310.231 915,-255 898.176,-236.253 926.806,-215.914 951.236,-203.073"/>
<polygon fill="midnightblue" stroke="midnightblue" points="952.917,-206.146 960.29,-198.538 949.782,-199.887 952.917,-206.146"/>
</g>
<!-- Node31&#45;&gt;Node17 -->
<g id="edge69" class="edge"><title>Node31&#45;&gt;Node17</title>
<path fill="none" stroke="midnightblue" d="M1640.08,-481.191C1631.79,-466.63 1614.15,-436.876 1596,-414 1570.94,-382.414 1537.95,-349.58 1516.14,-328.868"/>
<polygon fill="midnightblue" stroke="midnightblue" points="1518.33,-326.118 1508.65,-321.811 1513.53,-331.214 1518.33,-326.118"/>
</g>
<!-- Node31&#45;&gt;Node20 -->
<g id="edge88" class="edge"><title>Node31&#45;&gt;Node20</title>
<path fill="none" stroke="midnightblue" d="M1704.91,-485.336C1753.19,-479.97 1822.01,-468.631 1878,-445 1912.05,-430.629 2129.21,-284.848 2151,-255 2160.9,-241.441 2165.97,-222.892 2168.53,-209.079"/>
<polygon fill="midnightblue" stroke="midnightblue" points="2172.05,-209.223 2170.13,-198.803 2165.13,-208.144 2172.05,-209.223"/>
</g>
<!-- Node31&#45;&gt;Node22 -->
<g id="edge70" class="edge"><title>Node31&#45;&gt;Node22</title>
<path fill="none" stroke="midnightblue" d="M1651.1,-481.191C1656.75,-472.46 1664.76,-458.478 1668,-445 1684.02,-378.457 1708.08,-346.481 1668,-291 1653.02,-270.269 1628.13,-258.932 1603.71,-252.787"/>
<polygon fill="midnightblue" stroke="midnightblue" points="1604.2,-249.309 1593.67,-250.532 1602.66,-256.139 1604.2,-249.309"/>
</g>
<!-- Node31&#45;&gt;Node23 -->
<g id="edge71" class="edge"><title>Node31&#45;&gt;Node23</title>
<path fill="none" stroke="midnightblue" d="M1585.16,-482.094C1549.37,-475.644 1503.83,-464.327 1467,-445 1374.96,-396.706 1385.3,-334.717 1291,-291 1271.28,-281.86 1151.97,-265.716 1070.16,-255.453"/>
<polygon fill="midnightblue" stroke="midnightblue" points="1070.48,-251.966 1060.12,-254.2 1069.61,-258.912 1070.48,-251.966"/>
</g>
<!-- Node31&#45;&gt;Node32 -->
<g id="edge72" class="edge"><title>Node31&#45;&gt;Node32</title>
<path fill="none" stroke="midnightblue" d="M1628.81,-481.475C1612.93,-473.115 1588.2,-460.09 1567.7,-449.299"/>
<polygon fill="midnightblue" stroke="midnightblue" points="1569.11,-446.085 1558.63,-444.523 1565.85,-452.279 1569.11,-446.085"/>
</g>
<!-- Node31&#45;&gt;Node34 -->
<g id="edge82" class="edge"><title>Node31&#45;&gt;Node34</title>
<path fill="none" stroke="midnightblue" d="M1669.21,-481.475C1694.03,-472.739 1733.31,-458.907 1764.71,-447.855"/>
<polygon fill="midnightblue" stroke="midnightblue" points="1765.9,-451.145 1774.17,-444.523 1763.58,-444.543 1765.9,-451.145"/>
</g>
<!-- Node32&#45;&gt;Node6 -->
<g id="edge80" class="edge"><title>Node32&#45;&gt;Node6</title>
<path fill="none" stroke="midnightblue" d="M1476.43,-418.541C1415.75,-407.667 1319.05,-390.336 1257.59,-379.321"/>
<polygon fill="midnightblue" stroke="midnightblue" points="1258.13,-375.861 1247.67,-377.542 1256.89,-382.752 1258.13,-375.861"/>
</g>
<!-- Node32&#45;&gt;Node13 -->
<g id="edge81" class="edge"><title>Node32&#45;&gt;Node13</title>
<path fill="none" stroke="midnightblue" d="M1558.43,-414.339C1623.02,-380.136 1794.58,-291.665 1945,-235 2258.03,-117.076 2667.66,-82.2763 2784.58,-74.439"/>
<polygon fill="midnightblue" stroke="midnightblue" points="2784.91,-77.9249 2794.66,-73.7822 2784.46,-70.9398 2784.91,-77.9249"/>
</g>
<!-- Node32&#45;&gt;Node23 -->
<g id="edge73" class="edge"><title>Node32&#45;&gt;Node23</title>
<path fill="none" stroke="midnightblue" d="M1514.13,-414.483C1471.31,-381.006 1364.96,-298.607 1346,-291 1333.35,-285.927 1170.85,-266.568 1070.47,-254.959"/>
<polygon fill="midnightblue" stroke="midnightblue" points="1070.69,-251.461 1060.36,-253.791 1069.89,-258.415 1070.69,-251.461"/>
</g>
<!-- Node33 -->
<g id="node33" class="node"><title>Node33</title>
<g id="a_node33"><a xlink:href="functor_8h.html" target="_top" xlink:title="Defines the Functor data structures. ">
<polygon fill="white" stroke="black" points="2035.5,-235.5 2035.5,-254.5 2142.5,-254.5 2142.5,-235.5 2035.5,-235.5"/>
<text text-anchor="middle" x="2089" y="-242.5" font-family="Helvetica,sans-Serif" font-size="10.00">tvm/node/functor.h</text>
</a>
</g>
</g>
<!-- Node32&#45;&gt;Node33 -->
<g id="edge74" class="edge"><title>Node32&#45;&gt;Node33</title>
<path fill="none" stroke="midnightblue" d="M1587.89,-417.298C1630.96,-408.16 1691.77,-394.153 1744,-378 1847.22,-346.079 1870.08,-329.583 1971,-291 2000.03,-279.902 2033.09,-267.297 2056.82,-258.257"/>
<polygon fill="midnightblue" stroke="midnightblue" points="2058.28,-261.446 2066.37,-254.616 2055.78,-254.905 2058.28,-261.446"/>
</g>
<!-- Node33&#45;&gt;Node4 -->
<g id="edge75" class="edge"><title>Node33&#45;&gt;Node4</title>
<path fill="none" stroke="midnightblue" d="M2074.51,-235.477C2040.44,-215.481 1952.48,-164.139 1878,-123 1854.64,-110.098 1827.77,-95.8692 1808.58,-85.8122"/>
<polygon fill="midnightblue" stroke="midnightblue" points="1810.05,-82.6305 1799.56,-81.0986 1806.8,-88.8338 1810.05,-82.6305"/>
</g>
<!-- Node33&#45;&gt;Node5 -->
<g id="edge79" class="edge"><title>Node33&#45;&gt;Node5</title>
<path fill="none" stroke="midnightblue" d="M2035.42,-236.298C1829.11,-206.639 1089.5,-100.317 927.504,-77.0288"/>
<polygon fill="midnightblue" stroke="midnightblue" points="927.662,-73.5156 917.265,-75.557 926.666,-80.4444 927.662,-73.5156"/>
</g>
<!-- Node33&#45;&gt;Node7 -->
<g id="edge76" class="edge"><title>Node33&#45;&gt;Node7</title>
<path fill="none" stroke="midnightblue" d="M2055.15,-235.46C1976.92,-215.722 1783.62,-166.956 1696.65,-145.012"/>
<polygon fill="midnightblue" stroke="midnightblue" points="1697.38,-141.587 1686.83,-142.535 1695.67,-148.375 1697.38,-141.587"/>
</g>
<!-- Node33&#45;&gt;Node12 -->
<g id="edge78" class="edge"><title>Node33&#45;&gt;Node12</title>
<path fill="none" stroke="midnightblue" d="M2035.41,-236.163C2032.23,-235.754 2029.07,-235.363 2026,-235 1855.33,-214.842 1811.87,-217.407 1641,-199 1363.66,-169.123 1294.95,-156.307 1018,-123 878.875,-106.268 714.141,-86.8521 636.592,-77.7357"/>
<polygon fill="midnightblue" stroke="midnightblue" points="636.581,-74.2103 626.24,-76.519 635.763,-81.1624 636.581,-74.2103"/>
</g>
<!-- Node33&#45;&gt;Node20 -->
<g id="edge77" class="edge"><title>Node33&#45;&gt;Node20</title>
<path fill="none" stroke="midnightblue" d="M2102.17,-235.324C2114.85,-226.979 2134.23,-214.212 2149.21,-204.352"/>
<polygon fill="midnightblue" stroke="midnightblue" points="2151.43,-207.078 2157.86,-198.655 2147.58,-201.231 2151.43,-207.078"/>
</g>
<!-- Node34&#45;&gt;Node6 -->
<g id="edge85" class="edge"><title>Node34&#45;&gt;Node6</title>
<path fill="none" stroke="midnightblue" d="M1758.43,-423.115C1646.31,-412.249 1393.22,-387.724 1270.02,-375.785"/>
<polygon fill="midnightblue" stroke="midnightblue" points="1270.23,-372.29 1259.94,-374.809 1269.56,-379.257 1270.23,-372.29"/>
</g>
<!-- Node34&#45;&gt;Node13 -->
<g id="edge86" class="edge"><title>Node34&#45;&gt;Node13</title>
<path fill="none" stroke="midnightblue" d="M1843.41,-414.486C1943.61,-367.229 2281.68,-211.726 2575,-123 2648.75,-100.692 2738.06,-84.8382 2784.85,-77.3559"/>
<polygon fill="midnightblue" stroke="midnightblue" points="2785.65,-80.7735 2794.98,-75.7608 2784.56,-73.8587 2785.65,-80.7735"/>
</g>
<!-- Node34&#45;&gt;Node23 -->
<g id="edge83" class="edge"><title>Node34&#45;&gt;Node23</title>
<path fill="none" stroke="midnightblue" d="M1758.45,-419.271C1681.41,-405.14 1538.97,-374.151 1427,-322 1404.98,-311.746 1404.74,-299.534 1382,-291 1378.37,-289.638 1182.77,-267.466 1070,-254.764"/>
<polygon fill="midnightblue" stroke="midnightblue" points="1070.35,-251.281 1060.02,-253.64 1069.57,-258.237 1070.35,-251.281"/>
</g>
<!-- Node34&#45;&gt;Node24 -->
<g id="edge87" class="edge"><title>Node34&#45;&gt;Node24</title>
<path fill="none" stroke="midnightblue" d="M1827.96,-414.156C1837.08,-404.401 1848.93,-390.958 1858,-378 1883.31,-341.815 1874.9,-322.355 1906,-291 1919.57,-277.32 1938.16,-266.525 1954.01,-258.94"/>
<polygon fill="midnightblue" stroke="midnightblue" points="1955.81,-261.968 1963.46,-254.636 1952.91,-255.598 1955.81,-261.968"/>
</g>
<!-- Node34&#45;&gt;Node33 -->
<g id="edge84" class="edge"><title>Node34&#45;&gt;Node33</title>
<path fill="none" stroke="midnightblue" d="M1835.12,-414.483C1886.26,-380.546 2016.28,-294.26 2067.65,-260.169"/>
<polygon fill="midnightblue" stroke="midnightblue" points="2069.62,-263.061 2076.02,-254.615 2065.75,-257.228 2069.62,-263.061"/>
</g>
<!-- Node35&#45;&gt;Node33 -->
<g id="edge92" class="edge"><title>Node35&#45;&gt;Node33</title>
<path fill="none" stroke="midnightblue" d="M2076.97,-481.301C2079.04,-462.486 2083.84,-416.593 2086,-378 2088.25,-337.71 2088.83,-290.413 2088.96,-264.797"/>
<polygon fill="midnightblue" stroke="midnightblue" points="2092.46,-264.669 2089,-254.657 2085.46,-264.644 2092.46,-264.669"/>
</g>
<!-- Node36 -->
<g id="node36" class="node"><title>Node36</title>
<polygon fill="white" stroke="#bfbfbf" points="2197.5,-420 2197.5,-439 2256.5,-439 2256.5,-420 2197.5,-420"/>
<text text-anchor="middle" x="2227" y="-427" font-family="Helvetica,sans-Serif" font-size="10.00">iostream</text>
</g>
<!-- Node35&#45;&gt;Node36 -->
<g id="edge93" class="edge"><title>Node35&#45;&gt;Node36</title>
<path fill="none" stroke="midnightblue" d="M2097.63,-481.475C2123.42,-471.313 2166.71,-454.256 2196.04,-442.7"/>
<polygon fill="midnightblue" stroke="midnightblue" points="2197.38,-445.932 2205.41,-439.009 2194.82,-439.419 2197.38,-445.932"/>
</g>
<!-- Node37&#45;&gt;Node13 -->
<g id="edge140" class="edge"><title>Node37&#45;&gt;Node13</title>
<path fill="none" stroke="midnightblue" d="M2656.68,-873.42C2755.6,-845.279 3045,-746.026 3045,-548 3045,-548 3045,-548 3045,-188 3045,-101.382 2912.43,-79.7038 2849.47,-74.2927"/>
<polygon fill="midnightblue" stroke="midnightblue" points="2849.52,-70.7862 2839.28,-73.5074 2848.98,-77.7655 2849.52,-70.7862"/>
</g>
<!-- Node37&#45;&gt;Node20 -->
<g id="edge141" class="edge"><title>Node37&#45;&gt;Node20</title>
<path fill="none" stroke="midnightblue" d="M2659.85,-873.397C2678.88,-866.81 2700.63,-855.589 2712,-837 2716.64,-829.418 2712.82,-825.851 2712,-817 2692.38,-605.886 2737.47,-502.161 2582,-358 2468.63,-252.878 2280.63,-209.354 2204.52,-195.433"/>
<polygon fill="midnightblue" stroke="midnightblue" points="2205,-191.964 2194.54,-193.662 2203.78,-198.856 2205,-191.964"/>
</g>
<!-- Node37&#45;&gt;Node21 -->
<g id="edge142" class="edge"><title>Node37&#45;&gt;Node21</title>
<path fill="none" stroke="midnightblue" d="M2577.7,-881.82C2340.57,-880.735 1267.53,-873.812 1124,-837 916.794,-783.858 840.136,-772.862 698,-613 583.48,-484.198 532.771,-272.354 519.614,-208.671"/>
<polygon fill="midnightblue" stroke="midnightblue" points="522.984,-207.675 517.587,-198.558 516.12,-209.05 522.984,-207.675"/>
</g>
<!-- Node38 -->
<g id="node38" class="node"><title>Node38</title>
<g id="a_node38"><a xlink:href="ir_2type_8h.html" target="_top" xlink:title="IR/AST nodes for the unified type system in TVM. ">
<polygon fill="white" stroke="black" points="1534.5,-649.5 1534.5,-668.5 1611.5,-668.5 1611.5,-649.5 1534.5,-649.5"/>
<text text-anchor="middle" x="1573" y="-656.5" font-family="Helvetica,sans-Serif" font-size="10.00">tvm/ir/type.h</text>
</a>
</g>
</g>
<!-- Node37&#45;&gt;Node38 -->
<g id="edge103" class="edge"><title>Node37&#45;&gt;Node38</title>
<path fill="none" stroke="midnightblue" d="M2583.44,-873.433C2418.77,-838.649 1800.39,-708.032 1621.66,-670.279"/>
<polygon fill="midnightblue" stroke="midnightblue" points="1622.26,-666.829 1611.76,-668.186 1620.82,-673.678 1622.26,-666.829"/>
</g>
<!-- Node39 -->
<g id="node39" class="node"><title>Node39</title>
<g id="a_node39"><a xlink:href="ir_2expr_8h.html" target="_top" xlink:title="Base expr nodes in TVM. ">
<polygon fill="white" stroke="black" points="1246.5,-705.5 1246.5,-724.5 1323.5,-724.5 1323.5,-705.5 1246.5,-705.5"/>
<text text-anchor="middle" x="1285" y="-712.5" font-family="Helvetica,sans-Serif" font-size="10.00">tvm/ir/expr.h</text>
</a>
</g>
</g>
<!-- Node37&#45;&gt;Node39 -->
<g id="edge110" class="edge"><title>Node37&#45;&gt;Node39</title>
<path fill="none" stroke="midnightblue" d="M2577.81,-879.713C2432.41,-872.037 1971.43,-844.042 1595,-781 1500.67,-765.202 1391.41,-740.865 1331.06,-726.885"/>
<polygon fill="midnightblue" stroke="midnightblue" points="1331.62,-723.423 1321.09,-724.567 1330.04,-730.241 1331.62,-723.423"/>
</g>
<!-- Node41 -->
<g id="node41" class="node"><title>Node41</title>
<g id="a_node41"><a xlink:href="ir_2function_8h.html" target="_top" xlink:title="Function nodes. ">
<polygon fill="white" stroke="black" points="1133.5,-817.5 1133.5,-836.5 1228.5,-836.5 1228.5,-817.5 1133.5,-817.5"/>
<text text-anchor="middle" x="1181" y="-824.5" font-family="Helvetica,sans-Serif" font-size="10.00">tvm/ir/function.h</text>
</a>
</g>
</g>
<!-- Node37&#45;&gt;Node41 -->
<g id="edge120" class="edge"><title>Node37&#45;&gt;Node41</title>
<path fill="none" stroke="midnightblue" d="M2577.81,-881.285C2406.75,-878.457 1793.05,-866.727 1288,-837 1272.05,-836.061 1254.78,-834.742 1238.87,-833.402"/>
<polygon fill="midnightblue" stroke="midnightblue" points="1238.9,-829.892 1228.64,-832.523 1238.3,-836.866 1238.9,-829.892"/>
</g>
<!-- Node43 -->
<g id="node43" class="node"><title>Node43</title>
<g id="a_node43"><a xlink:href="ir_2adt_8h.html" target="_top" xlink:title="Algebraic data type definitions. ">
<polygon fill="white" stroke="black" points="1604,-761.5 1604,-780.5 1676,-780.5 1676,-761.5 1604,-761.5"/>
<text text-anchor="middle" x="1640" y="-768.5" font-family="Helvetica,sans-Serif" font-size="10.00">tvm/ir/adt.h</text>
</a>
</g>
</g>
<!-- Node37&#45;&gt;Node43 -->
<g id="edge133" class="edge"><title>Node37&#45;&gt;Node43</title>
<path fill="none" stroke="midnightblue" d="M2577.86,-876.842C2412.69,-858.378 1851.92,-795.691 1686.38,-777.184"/>
<polygon fill="midnightblue" stroke="midnightblue" points="1686.38,-773.663 1676.05,-776.03 1685.6,-780.62 1686.38,-773.663"/>
</g>
<!-- Node44 -->
<g id="node44" class="node"><title>Node44</title>
<polygon fill="white" stroke="#bfbfbf" points="2617,-817.5 2617,-836.5 2703,-836.5 2703,-817.5 2617,-817.5"/>
<text text-anchor="middle" x="2660" y="-824.5" font-family="Helvetica,sans-Serif" font-size="10.00">unordered_set</text>
</g>
<!-- Node37&#45;&gt;Node44 -->
<g id="edge143" class="edge"><title>Node37&#45;&gt;Node44</title>
<path fill="none" stroke="midnightblue" d="M2629.94,-873.083C2634.98,-865.534 2642.34,-854.495 2648.51,-845.23"/>
<polygon fill="midnightblue" stroke="midnightblue" points="2651.53,-847.013 2654.17,-836.751 2645.71,-843.13 2651.53,-847.013"/>
</g>
<!-- Node38&#45;&gt;Node6 -->
<g id="edge107" class="edge"><title>Node38&#45;&gt;Node6</title>
<path fill="none" stroke="midnightblue" d="M1560.96,-649.307C1521.52,-620.766 1392.88,-527.051 1290,-445 1264.44,-424.618 1235.71,-400.059 1217.74,-384.485"/>
<polygon fill="midnightblue" stroke="midnightblue" points="1219.68,-381.538 1209.84,-377.62 1215.09,-386.821 1219.68,-381.538"/>
</g>
<!-- Node38&#45;&gt;Node7 -->
<g id="edge104" class="edge"><title>Node38&#45;&gt;Node7</title>
<path fill="none" stroke="midnightblue" d="M1611.6,-657.61C1788.49,-655.323 2513,-640.321 2513,-548 2513,-548 2513,-548 2513,-305.5 2513,-218.291 2444.04,-211.211 2363,-179 2233.07,-127.357 1878.92,-155.126 1721.64,-142.902"/>
<polygon fill="midnightblue" stroke="midnightblue" points="1721.84,-139.406 1711.57,-142.038 1721.24,-146.38 1721.84,-139.406"/>
</g>
<!-- Node38&#45;&gt;Node13 -->
<g id="edge109" class="edge"><title>Node38&#45;&gt;Node13</title>
<path fill="none" stroke="midnightblue" d="M1611.65,-657.9C1754.89,-657.221 2255.08,-652.046 2409,-613 2465.27,-598.726 2482.81,-594.645 2527,-557 2558.93,-529.798 2741,-287.946 2741,-246 2741,-246 2741,-246 2741,-188 2741,-157.205 2748.2,-148.812 2765,-123 2773.86,-109.383 2787.01,-96.6579 2797.87,-87.3876"/>
<polygon fill="midnightblue" stroke="midnightblue" points="2800.11,-90.0702 2805.61,-81.0144 2795.67,-84.6642 2800.11,-90.0702"/>
</g>
<!-- Node38&#45;&gt;Node23 -->
<g id="edge105" class="edge"><title>Node38&#45;&gt;Node23</title>
<path fill="none" stroke="midnightblue" d="M1534.3,-651.084C1407.11,-627.265 1010,-543.828 1010,-430.5 1010,-430.5 1010,-430.5 1010,-367 1010,-330.497 1001.89,-288.467 996.554,-264.786"/>
<polygon fill="midnightblue" stroke="midnightblue" points="999.89,-263.681 994.207,-254.739 993.073,-265.273 999.89,-263.681"/>
</g>
<!-- Node38&#45;&gt;Node29 -->
<g id="edge108" class="edge"><title>Node38&#45;&gt;Node29</title>
<path fill="none" stroke="midnightblue" d="M1611.57,-653.443C1694.04,-643.698 1887.48,-620.841 1979.56,-609.96"/>
<polygon fill="midnightblue" stroke="midnightblue" points="1980.22,-613.406 1989.74,-608.757 1979.4,-606.455 1980.22,-613.406"/>
</g>
<!-- Node38&#45;&gt;Node30 -->
<g id="edge106" class="edge"><title>Node38&#45;&gt;Node30</title>
<path fill="none" stroke="midnightblue" d="M1573,-649.368C1573,-631.617 1573,-590.666 1573,-566.597"/>
<polygon fill="midnightblue" stroke="midnightblue" points="1576.5,-566.591 1573,-556.591 1569.5,-566.591 1576.5,-566.591"/>
</g>
<!-- Node39&#45;&gt;Node6 -->
<g id="edge113" class="edge"><title>Node39&#45;&gt;Node6</title>
<path fill="none" stroke="midnightblue" d="M1271.84,-705.292C1240.11,-683.138 1162,-621.172 1162,-548 1162,-548 1162,-548 1162,-490 1162,-451.812 1179.44,-409.83 1190.69,-386.722"/>
<polygon fill="midnightblue" stroke="midnightblue" points="1193.96,-388.02 1195.34,-377.515 1187.71,-384.865 1193.96,-388.02"/>
</g>
<!-- Node39&#45;&gt;Node7 -->
<g id="edge111" class="edge"><title>Node39&#45;&gt;Node7</title>
<path fill="none" stroke="midnightblue" d="M1300.66,-705.422C1327.36,-691.21 1383.8,-662.963 1435,-649 1531.67,-622.64 2323,-592.197 2323,-492 2323,-492 2323,-492 2323,-244 2323,-189.869 2271.43,-195.899 2220,-179 2117.27,-145.242 1846.93,-153.785 1721.78,-142.94"/>
<polygon fill="midnightblue" stroke="midnightblue" points="1721.86,-139.432 1711.58,-141.978 1721.21,-146.402 1721.86,-139.432"/>
</g>
<!-- Node39&#45;&gt;Node12 -->
<g id="edge119" class="edge"><title>Node39&#45;&gt;Node12</title>
<path fill="none" stroke="midnightblue" d="M1248.83,-705.488C1084,-665.905 407.028,-494.45 290,-322 211.266,-205.979 455.222,-115.01 553.178,-83.9919"/>
<polygon fill="midnightblue" stroke="midnightblue" points="554.231,-87.3297 562.735,-81.0096 552.146,-80.6475 554.231,-87.3297"/>
</g>
<!-- Node39&#45;&gt;Node13 -->
<g id="edge116" class="edge"><title>Node39&#45;&gt;Node13</title>
<path fill="none" stroke="midnightblue" d="M1323.62,-712.965C1500.93,-707.862 2237.7,-682.769 2456,-613 2502.69,-598.079 2513.6,-588.672 2551,-557 2681.8,-446.248 2779,-417.388 2779,-246 2779,-246 2779,-246 2779,-188 2779,-151.754 2796.09,-112.171 2807.35,-90.0327"/>
<polygon fill="midnightblue" stroke="midnightblue" points="2810.46,-91.641 2812.03,-81.1633 2804.27,-88.3745 2810.46,-91.641"/>
</g>
<!-- Node39&#45;&gt;Node26 -->
<g id="edge118" class="edge"><title>Node39&#45;&gt;Node26</title>
<path fill="none" stroke="midnightblue" d="M1269.3,-705.346C1212.01,-673.833 1014.13,-565.563 948,-537 832.775,-487.231 791.14,-505.19 681,-445 680.796,-444.889 506.376,-307.119 447.872,-260.907"/>
<polygon fill="midnightblue" stroke="midnightblue" points="449.835,-257.997 439.818,-254.545 445.496,-263.49 449.835,-257.997"/>
</g>
<!-- Node39&#45;&gt;Node29 -->
<g id="edge114" class="edge"><title>Node39&#45;&gt;Node29</title>
<path fill="none" stroke="midnightblue" d="M1310.59,-705.472C1354.1,-691.331 1445.53,-663.188 1525,-649 1689.78,-619.579 1888.42,-609.037 1979.68,-605.56"/>
<polygon fill="midnightblue" stroke="midnightblue" points="1979.89,-609.055 1989.75,-605.189 1979.63,-602.06 1979.89,-609.055"/>
</g>
<!-- Node39&#45;&gt;Node30 -->
<g id="edge112" class="edge"><title>Node39&#45;&gt;Node30</title>
<path fill="none" stroke="midnightblue" d="M1284.55,-705.264C1284.33,-691.578 1285.92,-664.998 1300,-649 1354.79,-586.737 1451.52,-562.796 1513.91,-553.631"/>
<polygon fill="midnightblue" stroke="midnightblue" points="1514.57,-557.073 1524,-552.234 1513.61,-550.139 1514.57,-557.073"/>
</g>
<!-- Node39&#45;&gt;Node38 -->
<g id="edge115" class="edge"><title>Node39&#45;&gt;Node38</title>
<path fill="none" stroke="midnightblue" d="M1323.54,-706.773C1375.34,-697.06 1467.45,-679.79 1524.08,-669.172"/>
<polygon fill="midnightblue" stroke="midnightblue" points="1525.04,-672.553 1534.23,-667.27 1523.75,-665.673 1525.04,-672.553"/>
</g>
<!-- Node40 -->
<g id="node40" class="node"><title>Node40</title>
<polygon fill="white" stroke="#bfbfbf" points="180,-649.5 180,-668.5 242,-668.5 242,-649.5 180,-649.5"/>
<text text-anchor="middle" x="211" y="-656.5" font-family="Helvetica,sans-Serif" font-size="10.00">algorithm</text>
</g>
<!-- Node39&#45;&gt;Node40 -->
<g id="edge117" class="edge"><title>Node39&#45;&gt;Node40</title>
<path fill="none" stroke="midnightblue" d="M1246.46,-712.062C1080.03,-703.694 423.701,-670.694 252.187,-662.071"/>
<polygon fill="midnightblue" stroke="midnightblue" points="252.224,-658.568 242.06,-661.562 251.872,-665.56 252.224,-658.568"/>
</g>
<!-- Node41&#45;&gt;Node12 -->
<g id="edge131" class="edge"><title>Node41&#45;&gt;Node12</title>
<path fill="none" stroke="midnightblue" d="M1133.24,-825.056C964.014,-821.081 394.496,-802.136 232,-725 164.141,-692.788 114,-679.116 114,-604 114,-604 114,-604 114,-188 114,-99.3257 428.737,-78.5099 547.427,-73.8126"/>
<polygon fill="midnightblue" stroke="midnightblue" points="547.762,-77.3026 557.623,-73.43 547.499,-70.3075 547.762,-77.3026"/>
</g>
<!-- Node41&#45;&gt;Node13 -->
<g id="edge132" class="edge"><title>Node41&#45;&gt;Node13</title>
<path fill="none" stroke="midnightblue" d="M1228.75,-826.023C1495.95,-825.991 2796.46,-823.638 2869,-781 2920.88,-750.507 3007,-608.178 3007,-548 3007,-548 3007,-548 3007,-188 3007,-157.205 3005.4,-144.131 2983,-123 2946.2,-88.2905 2886.25,-77.3878 2849.36,-73.9941"/>
<polygon fill="midnightblue" stroke="midnightblue" points="2849.4,-70.4863 2839.15,-73.193 2848.85,-77.4648 2849.4,-70.4863"/>
</g>
<!-- Node41&#45;&gt;Node39 -->
<g id="edge121" class="edge"><title>Node41&#45;&gt;Node39</title>
<path fill="none" stroke="midnightblue" d="M1189.16,-817.368C1206.55,-798.974 1247.49,-755.671 1269.82,-732.052"/>
<polygon fill="midnightblue" stroke="midnightblue" points="1272.55,-734.262 1276.88,-724.591 1267.46,-729.453 1272.55,-734.262"/>
</g>
<!-- Node42 -->
<g id="node42" class="node"><title>Node42</title>
<g id="a_node42"><a xlink:href="ir_2attrs_8h.html" target="_top" xlink:title="Helpers for attribute objects. ">
<polygon fill="white" stroke="red" points="1046.5,-761.5 1046.5,-780.5 1125.5,-780.5 1125.5,-761.5 1046.5,-761.5"/>
<text text-anchor="middle" x="1086" y="-768.5" font-family="Helvetica,sans-Serif" font-size="10.00">tvm/ir/attrs.h</text>
</a>
</g>
</g>
<!-- Node41&#45;&gt;Node42 -->
<g id="edge122" class="edge"><title>Node41&#45;&gt;Node42</title>
<path fill="none" stroke="midnightblue" d="M1165.74,-817.324C1150.78,-808.822 1127.75,-795.729 1110.27,-785.797"/>
<polygon fill="midnightblue" stroke="midnightblue" points="1111.65,-782.553 1101.23,-780.655 1108.19,-788.639 1111.65,-782.553"/>
</g>
<!-- Node42&#45;&gt;Node5 -->
<g id="edge130" class="edge"><title>Node42&#45;&gt;Node5</title>
<path fill="none" stroke="midnightblue" d="M1059.17,-761.396C947.093,-723.783 515.245,-561.807 366,-255 319.151,-158.691 744.662,-93.0815 864.902,-76.577"/>
<polygon fill="midnightblue" stroke="midnightblue" points="865.494,-80.0288 874.934,-75.2173 864.554,-73.0923 865.494,-80.0288"/>
</g>
<!-- Node42&#45;&gt;Node12 -->
<g id="edge128" class="edge"><title>Node42&#45;&gt;Node12</title>
<path fill="none" stroke="midnightblue" d="M1046.24,-761.75C1010.78,-753.902 957.726,-740.942 913,-725 833.075,-696.511 323.385,-454.276 313,-445 235.455,-375.735 190,-349.975 190,-246 190,-246 190,-246 190,-188 190,-114.286 442.845,-84.8475 547.485,-75.8208"/>
<polygon fill="midnightblue" stroke="midnightblue" points="548.053,-79.2856 557.726,-74.9621 547.468,-72.3101 548.053,-79.2856"/>
</g>
<!-- Node42&#45;&gt;Node13 -->
<g id="edge129" class="edge"><title>Node42&#45;&gt;Node13</title>
<path fill="none" stroke="midnightblue" d="M1125.68,-769.153C1353.97,-764.236 2492.42,-739.087 2565,-725 2699.36,-698.923 2817,-684.867 2817,-548 2817,-548 2817,-548 2817,-428.5 2817,-340.637 2893,-333.863 2893,-246 2893,-246 2893,-246 2893,-188 2893,-157.205 2885.8,-148.812 2869,-123 2860.14,-109.383 2846.99,-96.6579 2836.13,-87.3876"/>
<polygon fill="midnightblue" stroke="midnightblue" points="2838.33,-84.6642 2828.39,-81.0144 2833.89,-90.0702 2838.33,-84.6642"/>
</g>
<!-- Node42&#45;&gt;Node17 -->
<g id="edge124" class="edge"><title>Node42&#45;&gt;Node17</title>
<path fill="none" stroke="midnightblue" d="M1081.37,-761.296C1064.65,-730.108 1005.43,-621.323 948,-537 932.337,-514 906.137,-505.128 920,-481 974.077,-386.881 1028.42,-393.502 1131,-358 1230.08,-323.708 1352.06,-312.645 1426.11,-309.111"/>
<polygon fill="midnightblue" stroke="midnightblue" points="1426.4,-312.602 1436.23,-308.661 1426.09,-305.609 1426.4,-312.602"/>
</g>
<!-- Node42&#45;&gt;Node20 -->
<g id="edge126" class="edge"><title>Node42&#45;&gt;Node20</title>
<path fill="none" stroke="midnightblue" d="M1102.41,-761.39C1145.7,-739.073 1267.04,-679.01 1375,-649 1627.31,-578.862 1699.74,-605.981 1957,-557 2069.28,-535.622 2106.64,-553.825 2208,-501 2249.15,-479.556 2285,-476.9 2285,-430.5 2285,-430.5 2285,-430.5 2285,-367 2285,-297.546 2222.19,-233.679 2189.81,-205.371"/>
<polygon fill="midnightblue" stroke="midnightblue" points="2191.81,-202.476 2181.93,-198.656 2187.27,-207.805 2191.81,-202.476"/>
</g>
<!-- Node42&#45;&gt;Node21 -->
<g id="edge125" class="edge"><title>Node42&#45;&gt;Node21</title>
<path fill="none" stroke="midnightblue" d="M1067.79,-761.391C1035.82,-745.764 968.42,-710.481 920,-669 827.312,-589.595 586.743,-281.408 528.727,-206.485"/>
<polygon fill="midnightblue" stroke="midnightblue" points="531.465,-204.304 522.579,-198.535 525.928,-208.587 531.465,-204.304"/>
</g>
<!-- Node42&#45;&gt;Node24 -->
<g id="edge127" class="edge"><title>Node42&#45;&gt;Node24</title>
<path fill="none" stroke="midnightblue" d="M1093.41,-761.206C1112.61,-738.973 1166.54,-680.074 1224,-649 1491.82,-504.152 1655.14,-652.464 1878,-445 1934.56,-392.345 1967.94,-303.204 1980.39,-264.668"/>
<polygon fill="midnightblue" stroke="midnightblue" points="1983.83,-265.408 1983.47,-254.82 1977.14,-263.321 1983.83,-265.408"/>
</g>
<!-- Node42&#45;&gt;Node39 -->
<g id="edge123" class="edge"><title>Node42&#45;&gt;Node39</title>
<path fill="none" stroke="midnightblue" d="M1117.53,-761.444C1151.59,-752.201 1206.01,-737.436 1243.52,-727.257"/>
<polygon fill="midnightblue" stroke="midnightblue" points="1244.88,-730.513 1253.62,-724.516 1243.05,-723.758 1244.88,-730.513"/>
</g>
<!-- Node43&#45;&gt;Node6 -->
<g id="edge136" class="edge"><title>Node43&#45;&gt;Node6</title>
<path fill="none" stroke="midnightblue" d="M1608.36,-761.427C1507.47,-733.172 1200,-639.551 1200,-548 1200,-548 1200,-548 1200,-490 1200,-453.714 1200,-411.307 1200,-387.559"/>
<polygon fill="midnightblue" stroke="midnightblue" points="1203.5,-387.509 1200,-377.509 1196.5,-387.509 1203.5,-387.509"/>
</g>
<!-- Node43&#45;&gt;Node7 -->
<g id="edge134" class="edge"><title>Node43&#45;&gt;Node7</title>
<path fill="none" stroke="midnightblue" d="M1676.08,-766.724C1827.61,-752.199 2409.98,-688.448 2527,-557 2586.87,-489.746 2584.09,-445.996 2565,-358 2542.32,-253.431 2507.09,-207.676 2404,-179 2260.57,-139.104 1888.04,-156.239 1721.74,-142.928"/>
<polygon fill="midnightblue" stroke="midnightblue" points="1721.84,-139.423 1711.57,-142.051 1721.23,-146.397 1721.84,-139.423"/>
</g>
<!-- Node43&#45;&gt;Node13 -->
<g id="edge139" class="edge"><title>Node43&#45;&gt;Node13</title>
<path fill="none" stroke="midnightblue" d="M1676.28,-769.451C1862.79,-766.516 2706.82,-751.788 2755,-725 2872.53,-659.648 2931,-323.207 2931,-307.5 2931,-307.5 2931,-307.5 2931,-188 2931,-157.205 2926.99,-146.422 2907,-123 2891.48,-104.814 2867.68,-91.8653 2848.45,-83.6354"/>
<polygon fill="midnightblue" stroke="midnightblue" points="2849.75,-80.3822 2839.16,-79.8657 2847.11,-86.8686 2849.75,-80.3822"/>
</g>
<!-- Node43&#45;&gt;Node30 -->
<g id="edge135" class="edge"><title>Node43&#45;&gt;Node30</title>
<path fill="none" stroke="midnightblue" d="M1639.38,-761.307C1637.76,-741.163 1632.63,-689.89 1620,-649 1610.57,-618.473 1593.74,-585.285 1582.98,-565.583"/>
<polygon fill="midnightblue" stroke="midnightblue" points="1585.9,-563.634 1577.99,-556.595 1579.79,-567.036 1585.9,-563.634"/>
</g>
<!-- Node43&#45;&gt;Node38 -->
<g id="edge138" class="edge"><title>Node43&#45;&gt;Node38</title>
<path fill="none" stroke="midnightblue" d="M1634.74,-761.368C1623.73,-743.296 1598.08,-701.176 1583.54,-677.307"/>
<polygon fill="midnightblue" stroke="midnightblue" points="1586.42,-675.311 1578.23,-668.591 1580.45,-678.953 1586.42,-675.311"/>
</g>
<!-- Node43&#45;&gt;Node39 -->
<g id="edge137" class="edge"><title>Node43&#45;&gt;Node39</title>
<path fill="none" stroke="midnightblue" d="M1603.7,-764.834C1546.96,-756.703 1433.8,-740.269 1338,-725 1336.7,-724.793 1335.39,-724.582 1334.06,-724.368"/>
<polygon fill="midnightblue" stroke="midnightblue" points="1334.21,-720.845 1323.77,-722.677 1333.07,-727.752 1334.21,-720.845"/>
</g>
<!-- Node46&#45;&gt;Node5 -->
<g id="edge162" class="edge"><title>Node46&#45;&gt;Node5</title>
<path fill="none" stroke="midnightblue" d="M627.807,-770C542.414,-769.243 346.433,-763.261 294,-725 277.413,-712.896 221.506,-577.033 217,-557 191.053,-441.653 179.275,-404.015 214,-291 232.593,-230.487 247.816,-211.735 302,-179 398.993,-120.403 756.201,-84.791 864.603,-75.1593"/>
<polygon fill="midnightblue" stroke="midnightblue" points="865.215,-78.6192 874.871,-74.259 864.604,-71.6459 865.215,-78.6192"/>
</g>
<!-- Node46&#45;&gt;Node6 -->
<g id="edge152" class="edge"><title>Node46&#45;&gt;Node6</title>
<path fill="none" stroke="midnightblue" d="M670.189,-761.238C673.591,-748.414 680.831,-723.996 691,-705 767.27,-562.531 770.447,-497.172 909,-414 945.263,-392.232 1056.22,-379.804 1130.17,-373.736"/>
<polygon fill="midnightblue" stroke="midnightblue" points="1130.65,-377.208 1140.34,-372.922 1130.09,-370.23 1130.65,-377.208"/>
</g>
<!-- Node46&#45;&gt;Node8 -->
<g id="edge154" class="edge"><title>Node46&#45;&gt;Node8</title>
<path fill="none" stroke="midnightblue" d="M627.892,-766.98C560.775,-761.363 429.11,-747.765 389,-725 360.741,-708.961 355.766,-698.433 342,-669 260.278,-494.269 220.173,-381.208 346,-235 455.443,-107.83 990.568,-80.0447 1188.35,-74.0889"/>
<polygon fill="midnightblue" stroke="midnightblue" points="1188.46,-77.5872 1198.35,-73.7976 1188.25,-70.5902 1188.46,-77.5872"/>
</g>
<!-- Node46&#45;&gt;Node13 -->
<g id="edge157" class="edge"><title>Node46&#45;&gt;Node13</title>
<path fill="none" stroke="midnightblue" d="M708.255,-769.214C885.427,-765.365 1613.25,-745.467 2205,-669 2334.75,-652.233 2373.11,-663.04 2494,-613 2663.87,-542.682 2732.95,-497.415 2788,-322 2814.02,-239.092 2817.1,-134.086 2817.19,-91.6149"/>
<polygon fill="midnightblue" stroke="midnightblue" points="2820.69,-91.3516 2817.15,-81.3646 2813.69,-91.3775 2820.69,-91.3516"/>
</g>
<!-- Node46&#45;&gt;Node21 -->
<g id="edge159" class="edge"><title>Node46&#45;&gt;Node21</title>
<path fill="none" stroke="midnightblue" d="M627.87,-764.902C541.552,-752.814 346,-718.927 346,-660 346,-660 346,-660 346,-602 346,-438.647 254.926,-354.778 366,-235 389.771,-209.366 427.506,-198.13 459.179,-193.295"/>
<polygon fill="midnightblue" stroke="midnightblue" points="459.782,-196.746 469.225,-191.941 458.847,-189.809 459.782,-196.746"/>
</g>
<!-- Node46&#45;&gt;Node23 -->
<g id="edge155" class="edge"><title>Node46&#45;&gt;Node23</title>
<path fill="none" stroke="midnightblue" d="M668.66,-761.399C669.806,-748.776 672.675,-724.606 679,-705 696.026,-652.222 709.377,-642.69 734,-593 746.355,-568.067 747.935,-561.01 762,-537 828.829,-422.921 936.402,-304.652 976.38,-262.29"/>
<polygon fill="midnightblue" stroke="midnightblue" points="979.094,-264.515 983.442,-254.854 974.018,-259.694 979.094,-264.515"/>
</g>
<!-- Node46&#45;&gt;Node26 -->
<g id="edge161" class="edge"><title>Node46&#45;&gt;Node26</title>
<path fill="none" stroke="midnightblue" d="M627.997,-769.111C559.959,-765.244 429,-746.558 429,-660 429,-660 429,-660 429,-367 429,-330.714 429,-288.307 429,-264.559"/>
<polygon fill="midnightblue" stroke="midnightblue" points="432.5,-264.509 429,-254.509 425.5,-264.509 432.5,-264.509"/>
</g>
<!-- Node46&#45;&gt;Node30 -->
<g id="edge151" class="edge"><title>Node46&#45;&gt;Node30</title>
<path fill="none" stroke="midnightblue" d="M672.218,-761.497C683.913,-738.906 719.139,-677.195 768,-649 895.211,-575.593 1349.38,-554.759 1513.39,-549.558"/>
<polygon fill="midnightblue" stroke="midnightblue" points="1513.88,-553.044 1523.76,-549.237 1513.66,-546.048 1513.88,-553.044"/>
</g>
<!-- Node46&#45;&gt;Node33 -->
<g id="edge153" class="edge"><title>Node46&#45;&gt;Node33</title>
<path fill="none" stroke="midnightblue" d="M686.975,-761.454C717.328,-748.03 778.898,-721.802 833,-705 1044.27,-639.388 1099.99,-630.587 1318,-593 1455.99,-569.209 1493.9,-585.502 1631,-557 1714.69,-539.601 1740.44,-542.808 1815,-501 1932.97,-434.853 2040.22,-307.717 2076.21,-262.479"/>
<polygon fill="midnightblue" stroke="midnightblue" points="2079.01,-264.588 2082.44,-254.566 2073.51,-260.258 2079.01,-264.588"/>
</g>
<!-- Node46&#45;&gt;Node36 -->
<g id="edge160" class="edge"><title>Node46&#45;&gt;Node36</title>
<path fill="none" stroke="midnightblue" d="M698.366,-761.44C800.188,-733.052 1139.17,-641.089 1425,-593 1577.47,-567.349 1617.49,-575.414 1771,-557 1954.48,-534.991 2027.82,-601.337 2183,-501 2201.88,-488.79 2214.08,-465.316 2220.74,-448.819"/>
<polygon fill="midnightblue" stroke="midnightblue" points="2224.12,-449.767 2224.32,-439.174 2217.56,-447.326 2224.12,-449.767"/>
</g>
<!-- Node46&#45;&gt;Node39 -->
<g id="edge156" class="edge"><title>Node46&#45;&gt;Node39</title>
<path fill="none" stroke="midnightblue" d="M708.008,-766.499C816.749,-756.981 1117.5,-730.66 1236.05,-720.284"/>
<polygon fill="midnightblue" stroke="midnightblue" points="1236.62,-723.748 1246.28,-719.389 1236.01,-716.774 1236.62,-723.748"/>
</g>
<!-- Node46&#45;&gt;Node40 -->
<g id="edge158" class="edge"><title>Node46&#45;&gt;Node40</title>
<path fill="none" stroke="midnightblue" d="M627.724,-769.784C536.684,-768.637 318.134,-761.994 256,-725 237.986,-714.275 225.448,-693.207 218.265,-677.957"/>
<polygon fill="midnightblue" stroke="midnightblue" points="221.356,-676.291 214.145,-668.528 214.941,-679.093 221.356,-676.291"/>
</g>
<!-- Node47&#45;&gt;Node13 -->
<g id="edge183" class="edge"><title>Node47&#45;&gt;Node13</title>
<path fill="none" stroke="midnightblue" d="M983.009,-994.228C1275.07,-995.412 2780.11,-999.032 2979,-949 3072.48,-925.483 3159,-924.395 3159,-828 3159,-828 3159,-828 3159,-188 3159,-154.31 3147.85,-141.961 3120,-123 3076.27,-93.2284 2918.35,-79.2722 2849.49,-74.4983"/>
<polygon fill="midnightblue" stroke="midnightblue" points="2849.44,-70.9875 2839.23,-73.81 2848.97,-77.9718 2849.44,-70.9875"/>
</g>
<!-- Node47&#45;&gt;Node41 -->
<g id="edge164" class="edge"><title>Node47&#45;&gt;Node41</title>
<path fill="none" stroke="midnightblue" d="M946.932,-985.309C987.114,-958.304 1110.07,-875.667 1159.8,-842.248"/>
<polygon fill="midnightblue" stroke="midnightblue" points="1161.85,-845.088 1168.2,-836.605 1157.94,-839.278 1161.85,-845.088"/>
</g>
<!-- Node47&#45;&gt;Node46 -->
<g id="edge165" class="edge"><title>Node47&#45;&gt;Node46</title>
<path fill="none" stroke="midnightblue" d="M887.117,-985.465C860.899,-978.884 828.807,-967.649 805,-949 749.879,-905.822 764.78,-869.98 719,-817 709.47,-805.971 697.273,-795.116 687.197,-786.831"/>
<polygon fill="midnightblue" stroke="midnightblue" points="689.328,-784.053 679.336,-780.529 684.949,-789.515 689.328,-784.053"/>
</g>
<!-- Node48 -->
<g id="node48" class="node"><title>Node48</title>
<g id="a_node48"><a xlink:href="buffer_8h.html" target="_top" xlink:title="Symbolic n&#45;dimensional array, to represent a memory buffer. ">
<polygon fill="white" stroke="black" points="814.5,-929.5 814.5,-948.5 901.5,-948.5 901.5,-929.5 814.5,-929.5"/>
<text text-anchor="middle" x="858" y="-936.5" font-family="Helvetica,sans-Serif" font-size="10.00">tvm/tir/buffer.h</text>
</a>
</g>
</g>
<!-- Node47&#45;&gt;Node48 -->
<g id="edge166" class="edge"><title>Node47&#45;&gt;Node48</title>
<path fill="none" stroke="midnightblue" d="M921.789,-985.324C910.224,-977.107 892.625,-964.602 878.839,-954.807"/>
<polygon fill="midnightblue" stroke="midnightblue" points="880.612,-951.773 870.433,-948.834 876.557,-957.479 880.612,-951.773"/>
</g>
<!-- Node50 -->
<g id="node50" class="node"><title>Node50</title>
<g id="a_node50"><a xlink:href="stmt_8h.html" target="_top" xlink:title="TIR statements. ">
<polygon fill="white" stroke="black" points="627.5,-817.5 627.5,-836.5 710.5,-836.5 710.5,-817.5 627.5,-817.5"/>
<text text-anchor="middle" x="669" y="-824.5" font-family="Helvetica,sans-Serif" font-size="10.00">tvm/tir/stmt.h</text>
</a>
</g>
</g>
<!-- Node47&#45;&gt;Node50 -->
<g id="edge182" class="edge"><title>Node47&#45;&gt;Node50</title>
<path fill="none" stroke="midnightblue" d="M884.816,-988.427C831.304,-981.501 750.146,-968.201 726,-949 693.239,-922.949 678.354,-873.596 672.413,-846.67"/>
<polygon fill="midnightblue" stroke="midnightblue" points="675.798,-845.747 670.389,-836.637 668.936,-847.132 675.798,-845.747"/>
</g>
<!-- Node48&#45;&gt;Node6 -->
<g id="edge167" class="edge"><title>Node48&#45;&gt;Node6</title>
<path fill="none" stroke="midnightblue" d="M860.043,-929.411C867.936,-895.451 896,-767.168 896,-660 896,-660 896,-660 896,-546 896,-438.13 1040.72,-394.852 1130.45,-378.385"/>
<polygon fill="midnightblue" stroke="midnightblue" points="1131.06,-381.831 1140.3,-376.644 1129.85,-374.938 1131.06,-381.831"/>
</g>
<!-- Node48&#45;&gt;Node13 -->
<g id="edge181" class="edge"><title>Node48&#45;&gt;Node13</title>
<path fill="none" stroke="midnightblue" d="M901.617,-937.975C1161.55,-937.686 2501.08,-934.194 2679,-893 2909.03,-839.742 3083,-784.117 3083,-548 3083,-548 3083,-548 3083,-188 3083,-87.1962 2920.29,-73.4209 2849.38,-72.2036"/>
<polygon fill="midnightblue" stroke="midnightblue" points="2849.25,-68.7024 2839.22,-72.1054 2849.19,-75.702 2849.25,-68.7024"/>
</g>
<!-- Node48&#45;&gt;Node46 -->
<g id="edge168" class="edge"><title>Node48&#45;&gt;Node46</title>
<path fill="none" stroke="midnightblue" d="M852.346,-929.402C838.014,-908.118 798.242,-852.155 754,-817 737.347,-803.767 716.208,-792.644 699.055,-784.766"/>
<polygon fill="midnightblue" stroke="midnightblue" points="700.041,-781.374 689.481,-780.512 697.198,-787.771 700.041,-781.374"/>
</g>
<!-- Node49 -->
<g id="node49" class="node"><title>Node49</title>
<g id="a_node49"><a xlink:href="tir_2op_8h.html" target="_top" xlink:title="Common operators defined for Expr. ">
<polygon fill="white" stroke="black" points="563,-873.5 563,-892.5 635,-892.5 635,-873.5 563,-873.5"/>
<text text-anchor="middle" x="599" y="-880.5" font-family="Helvetica,sans-Serif" font-size="10.00">tvm/tir/op.h</text>
</a>
</g>
</g>
<!-- Node48&#45;&gt;Node49 -->
<g id="edge169" class="edge"><title>Node48&#45;&gt;Node49</title>
<path fill="none" stroke="midnightblue" d="M816.961,-929.444C770.219,-919.698 694.026,-903.812 645.227,-893.638"/>
<polygon fill="midnightblue" stroke="midnightblue" points="645.754,-890.173 635.25,-891.558 644.325,-897.025 645.754,-890.173"/>
</g>
<!-- Node49&#45;&gt;Node12 -->
<g id="edge179" class="edge"><title>Node49&#45;&gt;Node12</title>
<path fill="none" stroke="midnightblue" d="M562.879,-879.222C433.374,-868.785 0,-829.558 0,-772 0,-772 0,-772 0,-188 0,-149.282 23.4502,-140.475 58,-123 143.331,-79.8406 435.431,-73.4284 547.622,-72.5801"/>
<polygon fill="midnightblue" stroke="midnightblue" points="547.927,-76.0783 557.904,-72.5144 547.882,-69.0785 547.927,-76.0783"/>
</g>
<!-- Node49&#45;&gt;Node26 -->
<g id="edge180" class="edge"><title>Node49&#45;&gt;Node26</title>
<path fill="none" stroke="midnightblue" d="M562.884,-878.732C516.221,-873.682 433.024,-861.843 366,-837 258.737,-797.241 209.563,-776.699 171,-669 168.004,-660.631 168.503,-657.531 171,-649 196.578,-561.608 367.539,-328.372 416.137,-263.155"/>
<polygon fill="midnightblue" stroke="midnightblue" points="419.206,-264.895 422.387,-254.789 413.598,-260.705 419.206,-264.895"/>
</g>
<!-- Node49&#45;&gt;Node38 -->
<g id="edge170" class="edge"><title>Node49&#45;&gt;Node38</title>
<path fill="none" stroke="midnightblue" d="M635.221,-876.221C721.87,-862.167 947.766,-824.167 1134,-781 1283.87,-746.261 1459.56,-694.419 1535.21,-671.549"/>
<polygon fill="midnightblue" stroke="midnightblue" points="1536.66,-674.768 1545.21,-668.519 1534.63,-668.069 1536.66,-674.768"/>
</g>
<!-- Node49&#45;&gt;Node40 -->
<g id="edge178" class="edge"><title>Node49&#45;&gt;Node40</title>
<path fill="none" stroke="midnightblue" d="M562.776,-876.658C489.614,-863.97 323.424,-825.221 232,-725 220.396,-712.28 215.2,-693.081 212.875,-678.843"/>
<polygon fill="midnightblue" stroke="midnightblue" points="216.318,-678.173 211.559,-668.707 209.376,-679.075 216.318,-678.173"/>
</g>
<!-- Node49&#45;&gt;Node46 -->
<g id="edge171" class="edge"><title>Node49&#45;&gt;Node46</title>
<path fill="none" stroke="midnightblue" d="M599.99,-873.387C601.813,-860.326 606.612,-835.116 618,-817 625.307,-805.376 636.447,-794.938 646.359,-787.048"/>
<polygon fill="midnightblue" stroke="midnightblue" points="648.755,-789.625 654.626,-780.805 644.537,-784.039 648.755,-789.625"/>
</g>
<!-- Node49&#45;&gt;Node50 -->
<g id="edge172" class="edge"><title>Node49&#45;&gt;Node50</title>
<path fill="none" stroke="midnightblue" d="M610.247,-873.324C620.797,-865.185 636.801,-852.839 649.442,-843.087"/>
<polygon fill="midnightblue" stroke="midnightblue" points="651.769,-845.713 657.549,-836.834 647.493,-840.171 651.769,-845.713"/>
</g>
<!-- Node50&#45;&gt;Node5 -->
<g id="edge177" class="edge"><title>Node50&#45;&gt;Node5</title>
<path fill="none" stroke="midnightblue" d="M627.126,-824.137C515.799,-818.908 218.355,-803.019 180,-781 100.872,-735.573 76,-695.241 76,-604 76,-604 76,-604 76,-244 76,-90.7021 249.734,-157.926 399,-123 488.446,-102.071 770.172,-81.2001 864.715,-74.6217"/>
<polygon fill="midnightblue" stroke="midnightblue" points="865.055,-78.1066 874.79,-73.9256 864.573,-71.1233 865.055,-78.1066"/>
</g>
<!-- Node50&#45;&gt;Node12 -->
<g id="edge174" class="edge"><title>Node50&#45;&gt;Node12</title>
<path fill="none" stroke="midnightblue" d="M627.205,-824.956C518.988,-821.853 231.832,-810.958 142,-781 90.2921,-763.756 38,-770.507 38,-716 38,-716 38,-716 38,-188 38,-148.077 64.1498,-140.568 100,-123 178.351,-84.6046 442.378,-75.3445 547.894,-73.1583"/>
<polygon fill="midnightblue" stroke="midnightblue" points="547.965,-76.6577 557.894,-72.9627 547.828,-69.6591 547.965,-76.6577"/>
</g>
<!-- Node50&#45;&gt;Node13 -->
<g id="edge175" class="edge"><title>Node50&#45;&gt;Node13</title>
<path fill="none" stroke="midnightblue" d="M710.527,-824.936C998.135,-817.456 2685.19,-771.689 2782,-725 2875.69,-679.817 2969,-525.666 2969,-430.5 2969,-430.5 2969,-430.5 2969,-188 2969,-128.195 2893.48,-95.3149 2848.91,-81.1157"/>
<polygon fill="midnightblue" stroke="midnightblue" points="2849.69,-77.6954 2839.1,-78.1337 2847.65,-84.3924 2849.69,-77.6954"/>
</g>
<!-- Node50&#45;&gt;Node20 -->
<g id="edge176" class="edge"><title>Node50&#45;&gt;Node20</title>
<path fill="none" stroke="midnightblue" d="M710.716,-825.627C849.454,-824.071 1307.93,-816.404 1685,-781 1858.91,-764.671 1903.51,-762.984 2074,-725 2157.44,-706.411 2177,-696.318 2258,-669 2380.71,-627.613 2457.79,-666.458 2527,-557 2629.37,-395.102 2306.21,-245.378 2202.17,-202.336"/>
<polygon fill="midnightblue" stroke="midnightblue" points="2203.39,-199.053 2192.8,-198.507 2200.74,-205.532 2203.39,-199.053"/>
</g>
<!-- Node50&#45;&gt;Node46 -->
<g id="edge173" class="edge"><title>Node50&#45;&gt;Node46</title>
<path fill="none" stroke="midnightblue" d="M668.835,-817.083C668.704,-810.006 668.516,-799.861 668.352,-790.986"/>
<polygon fill="midnightblue" stroke="midnightblue" points="671.847,-790.685 668.162,-780.751 664.848,-790.814 671.847,-790.685"/>
</g>
</g>
</svg>
