<?xml version="1.0" encoding="UTF-8" standalone="no"?>
<!DOCTYPE svg PUBLIC "-//W3C//DTD SVG 1.1//EN"
 "http://www.w3.org/Graphics/SVG/1.1/DTD/svg11.dtd">
<!-- Generated by graphviz version 2.38.0 (20140413.2041)
 -->
<!-- Title: include/tvm/ir/transform.h Pages: 1 -->
<svg width="328pt" height="151pt"
 viewBox="0.00 0.00 328.00 151.00" xmlns="http://www.w3.org/2000/svg" xmlns:xlink="http://www.w3.org/1999/xlink">
<g id="graph0" class="graph" transform="scale(1 1) rotate(0) translate(4 147)">
<title>include/tvm/ir/transform.h</title>
<polygon fill="white" stroke="none" points="-4,4 -4,-147 324,-147 324,4 -4,4"/>
<!-- Node1 -->
<g id="node1" class="node"><title>Node1</title>
<polygon fill="#bfbfbf" stroke="black" points="93,-123.5 93,-142.5 233,-142.5 233,-123.5 93,-123.5"/>
<text text-anchor="middle" x="163" y="-130.5" font-family="Helvetica,sans-Serif" font-size="10.00">include/tvm/ir/transform.h</text>
</g>
<!-- Node2 -->
<g id="node2" class="node"><title>Node2</title>
<g id="a_node2"><a xlink:href="include_2tvm_2relay_2transform_8h.html" target="_top" xlink:title="Relay specific transformation passes. ">
<polygon fill="white" stroke="black" points="-1.42109e-14,-67.5 -1.42109e-14,-86.5 158,-86.5 158,-67.5 -1.42109e-14,-67.5"/>
<text text-anchor="middle" x="79" y="-74.5" font-family="Helvetica,sans-Serif" font-size="10.00">include/tvm/relay/transform.h</text>
</a>
</g>
</g>
<!-- Node1&#45;&gt;Node2 -->
<g id="edge1" class="edge"><title>Node1&#45;&gt;Node2</title>
<path fill="none" stroke="midnightblue" d="M141.068,-117.901C125.665,-107.999 105.554,-95.0705 92.4626,-86.6545"/>
<polygon fill="midnightblue" stroke="midnightblue" points="139.199,-120.86 149.504,-123.324 142.985,-114.972 139.199,-120.86"/>
</g>
<!-- Node4 -->
<g id="node4" class="node"><title>Node4</title>
<g id="a_node4"><a xlink:href="include_2tvm_2tir_2transform_8h.html" target="_top" xlink:title="TIR specific transformation passes. ">
<polygon fill="white" stroke="black" points="176,-67.5 176,-86.5 320,-86.5 320,-67.5 176,-67.5"/>
<text text-anchor="middle" x="248" y="-74.5" font-family="Helvetica,sans-Serif" font-size="10.00">include/tvm/tir/transform.h</text>
</a>
</g>
</g>
<!-- Node1&#45;&gt;Node4 -->
<g id="edge3" class="edge"><title>Node1&#45;&gt;Node4</title>
<path fill="none" stroke="midnightblue" d="M185.194,-117.901C200.78,-107.999 221.13,-95.0705 234.377,-86.6545"/>
<polygon fill="midnightblue" stroke="midnightblue" points="183.221,-115.007 176.657,-123.324 186.974,-120.916 183.221,-115.007"/>
</g>
<!-- Node3 -->
<g id="node3" class="node"><title>Node3</title>
<g id="a_node3"><a xlink:href="include_2tvm_2relay_2qnn_2transform_8h.html" target="_top" xlink:title="include/tvm/relay/qnn\l/transform.h">
<polygon fill="white" stroke="black" points="19.5,-0.5 19.5,-30.5 138.5,-30.5 138.5,-0.5 19.5,-0.5"/>
<text text-anchor="start" x="27.5" y="-18.5" font-family="Helvetica,sans-Serif" font-size="10.00">include/tvm/relay/qnn</text>
<text text-anchor="middle" x="79" y="-7.5" font-family="Helvetica,sans-Serif" font-size="10.00">/transform.h</text>
</a>
</g>
</g>
<!-- Node2&#45;&gt;Node3 -->
<g id="edge2" class="edge"><title>Node2&#45;&gt;Node3</title>
<path fill="none" stroke="midnightblue" d="M79,-57.2349C79,-48.5864 79,-38.4969 79,-30.523"/>
<polygon fill="midnightblue" stroke="midnightblue" points="75.5001,-57.4751 79,-67.4751 82.5001,-57.4751 75.5001,-57.4751"/>
</g>
</g>
</svg>
