<?xml version="1.0" encoding="UTF-8" standalone="no"?>
<!DOCTYPE svg PUBLIC "-//W3C//DTD SVG 1.1//EN"
 "http://www.w3.org/Graphics/SVG/1.1/DTD/svg11.dtd">
<!-- Generated by graphviz version 2.38.0 (20140413.2041)
 -->
<!-- Title: include/tvm/ir/transform.h Pages: 1 -->
<svg width="2806pt" height="1013pt"
 viewBox="0.00 0.00 2806.00 1013.00" xmlns="http://www.w3.org/2000/svg" xmlns:xlink="http://www.w3.org/1999/xlink">
<g id="graph0" class="graph" transform="scale(1 1) rotate(0) translate(4 1009)">
<title>include/tvm/ir/transform.h</title>
<polygon fill="white" stroke="none" points="-4,4 -4,-1009 2802,-1009 2802,4 -4,4"/>
<!-- Node1 -->
<g id="node1" class="node"><title>Node1</title>
<polygon fill="#bfbfbf" stroke="black" points="371,-985.5 371,-1004.5 511,-1004.5 511,-985.5 371,-985.5"/>
<text text-anchor="middle" x="441" y="-992.5" font-family="Helvetica,sans-Serif" font-size="10.00">include/tvm/ir/transform.h</text>
</g>
<!-- Node2 -->
<g id="node2" class="node"><title>Node2</title>
<g id="a_node2"><a xlink:href="with_8h.html" target="_top" xlink:title="RAII wrapper function to enter and exit a context object similar to python&#39;s with syntax...">
<polygon fill="white" stroke="black" points="2180,-123.5 2180,-142.5 2286,-142.5 2286,-123.5 2180,-123.5"/>
<text text-anchor="middle" x="2233" y="-130.5" font-family="Helvetica,sans-Serif" font-size="10.00">tvm/support/with.h</text>
</a>
</g>
</g>
<!-- Node1&#45;&gt;Node2 -->
<g id="edge1" class="edge"><title>Node1&#45;&gt;Node2</title>
<path fill="none" stroke="midnightblue" d="M511.265,-994.285C889.471,-995.372 2666,-994.588 2666,-884 2666,-884 2666,-884 2666,-367 2666,-201.103 2416.47,-152.808 2296.27,-139.167"/>
<polygon fill="midnightblue" stroke="midnightblue" points="2296.41,-135.663 2286.09,-138.061 2295.66,-142.622 2296.41,-135.663"/>
</g>
<!-- Node5 -->
<g id="node5" class="node"><title>Node5</title>
<g id="a_node5"><a xlink:href="node_2container_8h.html" target="_top" xlink:title="Array/Map container in the DSL graph. ">
<polygon fill="white" stroke="black" points="1377.5,-358.5 1377.5,-377.5 1496.5,-377.5 1496.5,-358.5 1377.5,-358.5"/>
<text text-anchor="middle" x="1437" y="-365.5" font-family="Helvetica,sans-Serif" font-size="10.00">tvm/node/container.h</text>
</a>
</g>
</g>
<!-- Node1&#45;&gt;Node5 -->
<g id="edge4" class="edge"><title>Node1&#45;&gt;Node5</title>
<path fill="none" stroke="midnightblue" d="M443.932,-985.373C454.18,-956.576 491.277,-862.989 555,-817 607.096,-779.402 633.268,-798.798 695,-781 773.467,-758.377 798.375,-764.226 870,-725 1059.91,-620.995 1051.11,-510.377 1245,-414 1283.27,-394.975 1329.88,-383.804 1367.59,-377.351"/>
<polygon fill="midnightblue" stroke="midnightblue" points="1368.17,-380.802 1377.47,-375.732 1367.04,-373.895 1368.17,-380.802"/>
</g>
<!-- Node12 -->
<g id="node12" class="node"><title>Node12</title>
<polygon fill="white" stroke="#bfbfbf" points="434,-62 434,-81 478,-81 478,-62 434,-62"/>
<text text-anchor="middle" x="456" y="-69" font-family="Helvetica,sans-Serif" font-size="10.00">string</text>
</g>
<!-- Node1&#45;&gt;Node12 -->
<g id="edge155" class="edge"><title>Node1&#45;&gt;Node12</title>
<path fill="none" stroke="midnightblue" d="M370.635,-990.93C246.128,-983.563 0,-959.456 0,-884 0,-884 0,-884 0,-188 0,-147.769 27.0296,-141.019 63,-123 126.267,-91.3061 341.661,-77.9384 423.81,-73.9106"/>
<polygon fill="midnightblue" stroke="midnightblue" points="423.999,-77.4057 433.821,-73.4341 423.666,-70.4137 423.999,-77.4057"/>
</g>
<!-- Node30 -->
<g id="node30" class="node"><title>Node30</title>
<g id="a_node30"><a xlink:href="error_8h.html" target="_top" xlink:title="Utilities for error tracking and reporting. ">
<polygon fill="white" stroke="black" points="333.5,-929.5 333.5,-948.5 412.5,-948.5 412.5,-929.5 333.5,-929.5"/>
<text text-anchor="middle" x="373" y="-936.5" font-family="Helvetica,sans-Serif" font-size="10.00">tvm/ir/error.h</text>
</a>
</g>
</g>
<!-- Node1&#45;&gt;Node30 -->
<g id="edge63" class="edge"><title>Node1&#45;&gt;Node30</title>
<path fill="none" stroke="midnightblue" d="M430.075,-985.324C419.825,-977.185 404.279,-964.839 391.999,-955.087"/>
<polygon fill="midnightblue" stroke="midnightblue" points="394.132,-952.312 384.124,-948.834 389.779,-957.794 394.132,-952.312"/>
</g>
<!-- Node39 -->
<g id="node39" class="node"><title>Node39</title>
<g id="a_node39"><a xlink:href="ir_2module_8h.html" target="_top" xlink:title="IRModule that holds the functions and type definitions. ">
<polygon fill="white" stroke="black" points="528,-873.5 528,-892.5 620,-892.5 620,-873.5 528,-873.5"/>
<text text-anchor="middle" x="574" y="-880.5" font-family="Helvetica,sans-Serif" font-size="10.00">tvm/ir/module.h</text>
</a>
</g>
</g>
<!-- Node1&#45;&gt;Node39 -->
<g id="edge154" class="edge"><title>Node1&#45;&gt;Node39</title>
<path fill="none" stroke="midnightblue" d="M451.436,-985.368C473.968,-966.733 527.411,-922.532 555.702,-899.134"/>
<polygon fill="midnightblue" stroke="midnightblue" points="558.137,-901.662 563.612,-892.591 553.676,-896.268 558.137,-901.662"/>
</g>
<!-- Node3 -->
<g id="node3" class="node"><title>Node3</title>
<polygon fill="white" stroke="#bfbfbf" points="2190,-62 2190,-81 2276,-81 2276,-62 2190,-62"/>
<text text-anchor="middle" x="2233" y="-69" font-family="Helvetica,sans-Serif" font-size="10.00">dmlc/logging.h</text>
</g>
<!-- Node2&#45;&gt;Node3 -->
<g id="edge2" class="edge"><title>Node2&#45;&gt;Node3</title>
<path fill="none" stroke="midnightblue" d="M2233,-123.475C2233,-115.08 2233,-101.981 2233,-91.1631"/>
<polygon fill="midnightblue" stroke="midnightblue" points="2236.5,-91.0091 2233,-81.0091 2229.5,-91.0091 2236.5,-91.0091"/>
</g>
<!-- Node4 -->
<g id="node4" class="node"><title>Node4</title>
<polygon fill="white" stroke="#bfbfbf" points="1726,-62 1726,-81 1768,-81 1768,-62 1726,-62"/>
<text text-anchor="middle" x="1747" y="-69" font-family="Helvetica,sans-Serif" font-size="10.00">utility</text>
</g>
<!-- Node2&#45;&gt;Node4 -->
<g id="edge3" class="edge"><title>Node2&#45;&gt;Node4</title>
<path fill="none" stroke="midnightblue" d="M2179.98,-124.804C2175.25,-124.185 2170.54,-123.576 2166,-123 2031.9,-106.002 1998.18,-103.313 1864,-87 1834.93,-83.4657 1801.8,-79.3524 1778.24,-76.4115"/>
<polygon fill="midnightblue" stroke="midnightblue" points="1778.49,-72.9158 1768.13,-75.1491 1777.62,-79.8618 1778.49,-72.9158"/>
</g>
<!-- Node5&#45;&gt;Node4 -->
<g id="edge61" class="edge"><title>Node5&#45;&gt;Node4</title>
<path fill="none" stroke="midnightblue" d="M1476.7,-358.453C1529.55,-345.12 1622.73,-314.492 1678,-255 1701.12,-230.108 1730.38,-132.161 1741.95,-90.9396"/>
<polygon fill="midnightblue" stroke="midnightblue" points="1745.37,-91.7036 1744.67,-81.132 1738.63,-89.8328 1745.37,-91.7036"/>
</g>
<!-- Node6 -->
<g id="node6" class="node"><title>Node6</title>
<g id="a_node6"><a xlink:href="object_8h.html" target="_top" xlink:title="A managed object in the TVM runtime. ">
<polygon fill="white" stroke="black" points="1925.5,-123.5 1925.5,-142.5 2042.5,-142.5 2042.5,-123.5 1925.5,-123.5"/>
<text text-anchor="middle" x="1984" y="-130.5" font-family="Helvetica,sans-Serif" font-size="10.00">tvm/runtime/object.h</text>
</a>
</g>
</g>
<!-- Node5&#45;&gt;Node6 -->
<g id="edge5" class="edge"><title>Node5&#45;&gt;Node6</title>
<path fill="none" stroke="midnightblue" d="M1485.51,-358.459C1526.59,-350.677 1586.79,-337.972 1638,-322 1777.14,-278.599 1829.66,-291.866 1942,-199 1957.33,-186.325 1968.98,-166.569 1976.07,-152.162"/>
<polygon fill="midnightblue" stroke="midnightblue" points="1979.39,-153.339 1980.42,-142.795 1973.04,-150.391 1979.39,-153.339"/>
</g>
<!-- Node11 -->
<g id="node11" class="node"><title>Node11</title>
<polygon fill="white" stroke="#bfbfbf" points="2574,-62 2574,-81 2642,-81 2642,-62 2574,-62"/>
<text text-anchor="middle" x="2608" y="-69" font-family="Helvetica,sans-Serif" font-size="10.00">type_traits</text>
</g>
<!-- Node5&#45;&gt;Node11 -->
<g id="edge57" class="edge"><title>Node5&#45;&gt;Node11</title>
<path fill="none" stroke="midnightblue" d="M1496.54,-365.291C1650.97,-359.771 2076.2,-337.631 2419,-255 2487.78,-238.422 2516.13,-247.109 2568,-199 2598.59,-170.629 2605.92,-119.08 2607.59,-91.3532"/>
<polygon fill="midnightblue" stroke="midnightblue" points="2611.1,-91.2003 2608.01,-81.0657 2604.1,-90.9143 2611.1,-91.2003"/>
</g>
<!-- Node5&#45;&gt;Node12 -->
<g id="edge62" class="edge"><title>Node5&#45;&gt;Node12</title>
<path fill="none" stroke="midnightblue" d="M1387.42,-358.451C1335.82,-349.516 1252.71,-335.012 1181,-322 1101.36,-307.549 895.207,-291.563 823,-255 746.416,-216.221 757.897,-163.107 682,-123 618.653,-89.5247 533.98,-78.1835 488.372,-74.3821"/>
<polygon fill="midnightblue" stroke="midnightblue" points="488.424,-70.876 478.187,-73.6057 487.892,-77.8558 488.424,-70.876"/>
</g>
<!-- Node14 -->
<g id="node14" class="node"><title>Node14</title>
<g id="a_node14"><a xlink:href="runtime_2memory_8h.html" target="_top" xlink:title="Runtime memory management. ">
<polygon fill="white" stroke="black" points="1806.5,-179.5 1806.5,-198.5 1933.5,-198.5 1933.5,-179.5 1806.5,-179.5"/>
<text text-anchor="middle" x="1870" y="-186.5" font-family="Helvetica,sans-Serif" font-size="10.00">tvm/runtime/memory.h</text>
</a>
</g>
</g>
<!-- Node5&#45;&gt;Node14 -->
<g id="edge15" class="edge"><title>Node5&#45;&gt;Node14</title>
<path fill="none" stroke="midnightblue" d="M1466.5,-358.432C1523.32,-341.529 1651.38,-301.468 1754,-255 1787.82,-239.684 1824.94,-217.956 1847.85,-203.918"/>
<polygon fill="midnightblue" stroke="midnightblue" points="1849.8,-206.826 1856.47,-198.591 1846.12,-200.872 1849.8,-206.826"/>
</g>
<!-- Node16 -->
<g id="node16" class="node"><title>Node16</title>
<g id="a_node16"><a xlink:href="packed__func_8h.html" target="_top" xlink:title="Type&#45;erased function used across TVM API. ">
<polygon fill="white" stroke="black" points="1190.5,-291.5 1190.5,-321.5 1303.5,-321.5 1303.5,-291.5 1190.5,-291.5"/>
<text text-anchor="start" x="1198.5" y="-309.5" font-family="Helvetica,sans-Serif" font-size="10.00">tvm/runtime/packed</text>
<text text-anchor="middle" x="1247" y="-298.5" font-family="Helvetica,sans-Serif" font-size="10.00">_func.h</text>
</a>
</g>
</g>
<!-- Node5&#45;&gt;Node16 -->
<g id="edge20" class="edge"><title>Node5&#45;&gt;Node16</title>
<path fill="none" stroke="midnightblue" d="M1409.78,-358.475C1381.64,-349.664 1336.95,-335.668 1301.51,-324.57"/>
<polygon fill="midnightblue" stroke="midnightblue" points="1302.37,-321.171 1291.78,-321.523 1300.28,-327.852 1302.37,-321.171"/>
</g>
<!-- Node20 -->
<g id="node20" class="node"><title>Node20</title>
<polygon fill="white" stroke="#bfbfbf" points="1127.5,-179.5 1127.5,-198.5 1174.5,-198.5 1174.5,-179.5 1127.5,-179.5"/>
<text text-anchor="middle" x="1151" y="-186.5" font-family="Helvetica,sans-Serif" font-size="10.00">vector</text>
</g>
<!-- Node5&#45;&gt;Node20 -->
<g id="edge58" class="edge"><title>Node5&#45;&gt;Node20</title>
<path fill="none" stroke="midnightblue" d="M1425.49,-358.406C1414.91,-350.044 1399.35,-336.508 1389,-322 1364.4,-287.501 1382.79,-261.838 1350,-235 1337.25,-224.563 1237.88,-205.521 1184.56,-195.899"/>
<polygon fill="midnightblue" stroke="midnightblue" points="1185.01,-192.424 1174.55,-194.106 1183.78,-199.315 1185.01,-192.424"/>
</g>
<!-- Node21 -->
<g id="node21" class="node"><title>Node21</title>
<polygon fill="white" stroke="#bfbfbf" points="219.5,-179.5 219.5,-198.5 312.5,-198.5 312.5,-179.5 219.5,-179.5"/>
<text text-anchor="middle" x="266" y="-186.5" font-family="Helvetica,sans-Serif" font-size="10.00">unordered_map</text>
</g>
<!-- Node5&#45;&gt;Node21 -->
<g id="edge60" class="edge"><title>Node5&#45;&gt;Node21</title>
<path fill="none" stroke="midnightblue" d="M1377.23,-362.87C1288.83,-356.382 1118.13,-342.401 974,-322 724.639,-286.705 429.382,-225.235 314.819,-200.629"/>
<polygon fill="midnightblue" stroke="midnightblue" points="315.459,-197.186 304.946,-198.503 313.985,-204.029 315.459,-197.186"/>
</g>
<!-- Node29 -->
<g id="node29" class="node"><title>Node29</title>
<polygon fill="white" stroke="#bfbfbf" points="1398.5,-297 1398.5,-316 1475.5,-316 1475.5,-297 1398.5,-297"/>
<text text-anchor="middle" x="1437" y="-304" font-family="Helvetica,sans-Serif" font-size="10.00">initializer_list</text>
</g>
<!-- Node5&#45;&gt;Node29 -->
<g id="edge59" class="edge"><title>Node5&#45;&gt;Node29</title>
<path fill="none" stroke="midnightblue" d="M1437,-358.475C1437,-350.08 1437,-336.981 1437,-326.163"/>
<polygon fill="midnightblue" stroke="midnightblue" points="1440.5,-326.009 1437,-316.009 1433.5,-326.009 1440.5,-326.009"/>
</g>
<!-- Node6&#45;&gt;Node3 -->
<g id="edge6" class="edge"><title>Node6&#45;&gt;Node3</title>
<path fill="none" stroke="midnightblue" d="M2019.68,-123.475C2063.87,-112.915 2139.21,-94.911 2187.51,-83.3689"/>
<polygon fill="midnightblue" stroke="midnightblue" points="2188.48,-86.7374 2197.39,-81.0091 2186.85,-79.9291 2188.48,-86.7374"/>
</g>
<!-- Node6&#45;&gt;Node4 -->
<g id="edge13" class="edge"><title>Node6&#45;&gt;Node4</title>
<path fill="none" stroke="midnightblue" d="M1950.04,-123.475C1904.07,-111.933 1822.66,-91.496 1778.17,-80.3261"/>
<polygon fill="midnightblue" stroke="midnightblue" points="1778.77,-76.8681 1768.22,-77.8277 1777.07,-83.6574 1778.77,-76.8681"/>
</g>
<!-- Node7 -->
<g id="node7" class="node"><title>Node7</title>
<g id="a_node7"><a xlink:href="c__runtime__api_8h.html" target="_top" xlink:title="tvm/runtime/c_runtime\l_api.h">
<polygon fill="white" stroke="black" points="1164.5,-56.5 1164.5,-86.5 1291.5,-86.5 1291.5,-56.5 1164.5,-56.5"/>
<text text-anchor="start" x="1172.5" y="-74.5" font-family="Helvetica,sans-Serif" font-size="10.00">tvm/runtime/c_runtime</text>
<text text-anchor="middle" x="1228" y="-63.5" font-family="Helvetica,sans-Serif" font-size="10.00">_api.h</text>
</a>
</g>
</g>
<!-- Node6&#45;&gt;Node7 -->
<g id="edge7" class="edge"><title>Node6&#45;&gt;Node7</title>
<path fill="none" stroke="midnightblue" d="M1925.17,-124.866C1919.04,-124.199 1912.9,-123.563 1907,-123 1687.25,-101.995 1426.78,-84.7619 1301.94,-76.9756"/>
<polygon fill="midnightblue" stroke="midnightblue" points="1301.93,-73.4686 1291.73,-76.3415 1301.5,-80.4551 1301.93,-73.4686"/>
</g>
<!-- Node6&#45;&gt;Node11 -->
<g id="edge11" class="edge"><title>Node6&#45;&gt;Node11</title>
<path fill="none" stroke="midnightblue" d="M2042.7,-126.402C2166.88,-114.562 2453.78,-87.2056 2563.88,-76.7072"/>
<polygon fill="midnightblue" stroke="midnightblue" points="2564.35,-80.1785 2573.97,-75.745 2563.68,-73.2101 2564.35,-80.1785"/>
</g>
<!-- Node6&#45;&gt;Node12 -->
<g id="edge12" class="edge"><title>Node6&#45;&gt;Node12</title>
<path fill="none" stroke="midnightblue" d="M1925.19,-124.626C1919.05,-124.006 1912.91,-123.447 1907,-123 1617.6,-101.088 674.766,-77.7347 488.233,-73.2633"/>
<polygon fill="midnightblue" stroke="midnightblue" points="488.316,-69.7644 478.235,-73.0244 488.149,-76.7624 488.316,-69.7644"/>
</g>
<!-- Node13 -->
<g id="node13" class="node"><title>Node13</title>
<polygon fill="white" stroke="#bfbfbf" points="1873,-62 1873,-81 1923,-81 1923,-62 1873,-62"/>
<text text-anchor="middle" x="1898" y="-69" font-family="Helvetica,sans-Serif" font-size="10.00">atomic</text>
</g>
<!-- Node6&#45;&gt;Node13 -->
<g id="edge14" class="edge"><title>Node6&#45;&gt;Node13</title>
<path fill="none" stroke="midnightblue" d="M1971.68,-123.475C1957.88,-113.931 1935.3,-98.3073 1918.77,-86.8683"/>
<polygon fill="midnightblue" stroke="midnightblue" points="1920.51,-83.8205 1910.3,-81.0091 1916.53,-89.577 1920.51,-83.8205"/>
</g>
<!-- Node8 -->
<g id="node8" class="node"><title>Node8</title>
<polygon fill="white" stroke="#bfbfbf" points="1093,-0.5 1093,-19.5 1183,-19.5 1183,-0.5 1093,-0.5"/>
<text text-anchor="middle" x="1138" y="-7.5" font-family="Helvetica,sans-Serif" font-size="10.00">dlpack/dlpack.h</text>
</g>
<!-- Node7&#45;&gt;Node8 -->
<g id="edge8" class="edge"><title>Node7&#45;&gt;Node8</title>
<path fill="none" stroke="midnightblue" d="M1206.67,-56.3993C1192.51,-47.0402 1173.99,-34.7924 1159.75,-25.3771"/>
<polygon fill="midnightblue" stroke="midnightblue" points="1161.37,-22.2531 1151.1,-19.6578 1157.51,-28.0923 1161.37,-22.2531"/>
</g>
<!-- Node9 -->
<g id="node9" class="node"><title>Node9</title>
<polygon fill="white" stroke="#bfbfbf" points="1201.5,-0.5 1201.5,-19.5 1254.5,-19.5 1254.5,-0.5 1201.5,-0.5"/>
<text text-anchor="middle" x="1228" y="-7.5" font-family="Helvetica,sans-Serif" font-size="10.00">stdint.h</text>
</g>
<!-- Node7&#45;&gt;Node9 -->
<g id="edge9" class="edge"><title>Node7&#45;&gt;Node9</title>
<path fill="none" stroke="midnightblue" d="M1228,-56.3993C1228,-48.4664 1228,-38.458 1228,-29.8583"/>
<polygon fill="midnightblue" stroke="midnightblue" points="1231.5,-29.6577 1228,-19.6578 1224.5,-29.6578 1231.5,-29.6577"/>
</g>
<!-- Node10 -->
<g id="node10" class="node"><title>Node10</title>
<polygon fill="white" stroke="#bfbfbf" points="1272.5,-0.5 1272.5,-19.5 1327.5,-19.5 1327.5,-0.5 1272.5,-0.5"/>
<text text-anchor="middle" x="1300" y="-7.5" font-family="Helvetica,sans-Serif" font-size="10.00">stddef.h</text>
</g>
<!-- Node7&#45;&gt;Node10 -->
<g id="edge10" class="edge"><title>Node7&#45;&gt;Node10</title>
<path fill="none" stroke="midnightblue" d="M1245.06,-56.3993C1256.06,-47.3076 1270.37,-35.4899 1281.62,-26.1909"/>
<polygon fill="midnightblue" stroke="midnightblue" points="1284.04,-28.726 1289.52,-19.6578 1279.59,-23.33 1284.04,-28.726"/>
</g>
<!-- Node14&#45;&gt;Node4 -->
<g id="edge18" class="edge"><title>Node14&#45;&gt;Node4</title>
<path fill="none" stroke="midnightblue" d="M1860.76,-179.319C1840.1,-159.921 1789.95,-112.831 1763.68,-88.1625"/>
<polygon fill="midnightblue" stroke="midnightblue" points="1766.04,-85.5759 1756.35,-81.282 1761.25,-90.6788 1766.04,-85.5759"/>
</g>
<!-- Node14&#45;&gt;Node6 -->
<g id="edge16" class="edge"><title>Node14&#45;&gt;Node6</title>
<path fill="none" stroke="midnightblue" d="M1888.06,-179.444C1906.57,-170.675 1935.58,-156.935 1956.86,-146.858"/>
<polygon fill="midnightblue" stroke="midnightblue" points="1958.48,-149.96 1966.02,-142.516 1955.49,-143.634 1958.48,-149.96"/>
</g>
<!-- Node14&#45;&gt;Node11 -->
<g id="edge19" class="edge"><title>Node14&#45;&gt;Node11</title>
<path fill="none" stroke="midnightblue" d="M1933.74,-183.978C2017.2,-178.089 2167.84,-165.323 2295,-143 2331.52,-136.588 2339.88,-131.389 2376,-123 2441.28,-107.84 2517.21,-91.5688 2563.94,-81.7115"/>
<polygon fill="midnightblue" stroke="midnightblue" points="2564.67,-85.1337 2573.73,-79.6482 2563.23,-78.2839 2564.67,-85.1337"/>
</g>
<!-- Node15 -->
<g id="node15" class="node"><title>Node15</title>
<polygon fill="white" stroke="#bfbfbf" points="1851.5,-123.5 1851.5,-142.5 1898.5,-142.5 1898.5,-123.5 1851.5,-123.5"/>
<text text-anchor="middle" x="1875" y="-130.5" font-family="Helvetica,sans-Serif" font-size="10.00">cstdlib</text>
</g>
<!-- Node14&#45;&gt;Node15 -->
<g id="edge17" class="edge"><title>Node14&#45;&gt;Node15</title>
<path fill="none" stroke="midnightblue" d="M1870.83,-179.083C1871.48,-172.006 1872.42,-161.861 1873.24,-152.986"/>
<polygon fill="midnightblue" stroke="midnightblue" points="1876.75,-153.031 1874.19,-142.751 1869.78,-152.386 1876.75,-153.031"/>
</g>
<!-- Node16&#45;&gt;Node3 -->
<g id="edge21" class="edge"><title>Node16&#45;&gt;Node3</title>
<path fill="none" stroke="midnightblue" d="M1303.83,-299.525C1404,-288.881 1608.12,-266.662 1679,-255 1796.92,-235.596 1828.18,-235.449 1942,-199 2043.32,-166.552 2157.38,-111.069 2207.3,-85.772"/>
<polygon fill="midnightblue" stroke="midnightblue" points="2209.08,-88.7905 2216.4,-81.1309 2205.9,-82.554 2209.08,-88.7905"/>
</g>
<!-- Node16&#45;&gt;Node4 -->
<g id="edge55" class="edge"><title>Node16&#45;&gt;Node4</title>
<path fill="none" stroke="midnightblue" d="M1303.51,-293.55C1308.4,-292.64 1313.28,-291.775 1318,-291 1381.64,-280.539 1563.32,-303.353 1606,-255 1638.68,-217.98 1563.38,-243.876 1536,-199 1518.41,-170.166 1515.08,-149.519 1536,-123 1558.04,-95.0574 1662.53,-80.8497 1715.72,-75.3258"/>
<polygon fill="midnightblue" stroke="midnightblue" points="1716.34,-78.7817 1725.94,-74.3061 1715.64,-71.8163 1716.34,-78.7817"/>
</g>
<!-- Node16&#45;&gt;Node6 -->
<g id="edge48" class="edge"><title>Node16&#45;&gt;Node6</title>
<path fill="none" stroke="midnightblue" d="M1303.66,-299.243C1404.71,-287.931 1608.48,-264.383 1640,-255 1714.3,-232.883 1724.01,-205.108 1797,-179 1839.25,-163.89 1888.66,-152.244 1926.08,-144.589"/>
<polygon fill="midnightblue" stroke="midnightblue" points="1927.19,-147.937 1936.3,-142.536 1925.81,-141.074 1927.19,-147.937"/>
</g>
<!-- Node16&#45;&gt;Node7 -->
<g id="edge22" class="edge"><title>Node16&#45;&gt;Node7</title>
<path fill="none" stroke="midnightblue" d="M1190.3,-302.155C1088.29,-295.555 882.372,-279.35 861,-255 770.762,-152.188 1023.01,-100.873 1154.25,-81.6901"/>
<polygon fill="midnightblue" stroke="midnightblue" points="1154.85,-85.1398 1164.26,-80.2559 1153.86,-78.2106 1154.85,-85.1398"/>
</g>
<!-- Node16&#45;&gt;Node11 -->
<g id="edge56" class="edge"><title>Node16&#45;&gt;Node11</title>
<path fill="none" stroke="midnightblue" d="M1303.66,-299.666C1329.66,-297.001 1360.89,-293.818 1389,-291 1551.64,-274.698 1593.19,-278.141 1755,-255 2021.38,-216.904 2087.78,-203.403 2350,-143 2428.74,-124.863 2519.64,-98.8088 2569.79,-83.9808"/>
<polygon fill="midnightblue" stroke="midnightblue" points="2570.97,-87.2826 2579.56,-81.0822 2568.97,-80.5719 2570.97,-87.2826"/>
</g>
<!-- Node16&#45;&gt;Node12 -->
<g id="edge52" class="edge"><title>Node16&#45;&gt;Node12</title>
<path fill="none" stroke="midnightblue" d="M1190.16,-301.346C1085.98,-293.3 872.569,-274.644 845,-255 791.743,-217.052 832.688,-161.733 780,-123 733.972,-89.1627 560.978,-77.3425 488.384,-73.8146"/>
<polygon fill="midnightblue" stroke="midnightblue" points="488.18,-70.3015 478.029,-73.335 487.856,-77.294 488.18,-70.3015"/>
</g>
<!-- Node17 -->
<g id="node17" class="node"><title>Node17</title>
<g id="a_node17"><a xlink:href="runtime_2module_8h.html" target="_top" xlink:title="Runtime container of the functions generated by TVM, This is used to support dynamically link...">
<polygon fill="white" stroke="black" points="870,-235.5 870,-254.5 994,-254.5 994,-235.5 870,-235.5"/>
<text text-anchor="middle" x="932" y="-242.5" font-family="Helvetica,sans-Serif" font-size="10.00">tvm/runtime/module.h</text>
</a>
</g>
</g>
<!-- Node16&#45;&gt;Node17 -->
<g id="edge23" class="edge"><title>Node16&#45;&gt;Node17</title>
<path fill="none" stroke="midnightblue" d="M1190.18,-295.741C1130.8,-284.918 1038.67,-267.525 981.969,-256.436"/>
<polygon fill="midnightblue" stroke="midnightblue" points="982.64,-253.001 972.153,-254.51 981.292,-259.87 982.64,-253.001"/>
</g>
<!-- Node19 -->
<g id="node19" class="node"><title>Node19</title>
<polygon fill="white" stroke="#bfbfbf" points="1042.5,-179.5 1042.5,-198.5 1099.5,-198.5 1099.5,-179.5 1042.5,-179.5"/>
<text text-anchor="middle" x="1071" y="-186.5" font-family="Helvetica,sans-Serif" font-size="10.00">memory</text>
</g>
<!-- Node16&#45;&gt;Node19 -->
<g id="edge54" class="edge"><title>Node16&#45;&gt;Node19</title>
<path fill="none" stroke="midnightblue" d="M1244.18,-291.252C1240.31,-275.337 1231.82,-249.865 1215,-235 1199.26,-221.087 1146.7,-206.941 1109.65,-198.317"/>
<polygon fill="midnightblue" stroke="midnightblue" points="1110.18,-194.848 1099.65,-196.035 1108.62,-201.673 1110.18,-194.848"/>
</g>
<!-- Node16&#45;&gt;Node20 -->
<g id="edge51" class="edge"><title>Node16&#45;&gt;Node20</title>
<path fill="none" stroke="midnightblue" d="M1251.48,-291.285C1255.35,-276.095 1258.8,-251.92 1248,-235 1234.05,-213.154 1206.47,-201.752 1184.27,-195.9"/>
<polygon fill="midnightblue" stroke="midnightblue" points="1185.05,-192.489 1174.51,-193.584 1183.44,-199.3 1185.05,-192.489"/>
</g>
<!-- Node22 -->
<g id="node22" class="node"><title>Node22</title>
<g id="a_node22"><a xlink:href="ndarray_8h.html" target="_top" xlink:title="A device&#45;independent managed NDArray abstraction. ">
<polygon fill="white" stroke="black" points="1474.5,-235.5 1474.5,-254.5 1597.5,-254.5 1597.5,-235.5 1474.5,-235.5"/>
<text text-anchor="middle" x="1536" y="-242.5" font-family="Helvetica,sans-Serif" font-size="10.00">tvm/runtime/ndarray.h</text>
</a>
</g>
</g>
<!-- Node16&#45;&gt;Node22 -->
<g id="edge33" class="edge"><title>Node16&#45;&gt;Node22</title>
<path fill="none" stroke="midnightblue" d="M1303.75,-293.816C1356.19,-283.019 1433.45,-267.113 1484.24,-256.656"/>
<polygon fill="midnightblue" stroke="midnightblue" points="1485.26,-260.021 1494.34,-254.576 1483.84,-253.165 1485.26,-260.021"/>
</g>
<!-- Node25 -->
<g id="node25" class="node"><title>Node25</title>
<g id="a_node25"><a xlink:href="data__type_8h.html" target="_top" xlink:title="tvm/runtime/data_type.h">
<polygon fill="white" stroke="black" points="2274,-235.5 2274,-254.5 2410,-254.5 2410,-235.5 2274,-235.5"/>
<text text-anchor="middle" x="2342" y="-242.5" font-family="Helvetica,sans-Serif" font-size="10.00">tvm/runtime/data_type.h</text>
</a>
</g>
</g>
<!-- Node16&#45;&gt;Node25 -->
<g id="edge44" class="edge"><title>Node16&#45;&gt;Node25</title>
<path fill="none" stroke="midnightblue" d="M1303.59,-298.927C1329.58,-296.112 1360.82,-293.016 1389,-291 1777.23,-263.218 1875.97,-285.327 2264,-255 2264.1,-254.992 2264.2,-254.984 2264.31,-254.976"/>
<polygon fill="midnightblue" stroke="midnightblue" points="2264.3,-258.489 2273.96,-254.149 2263.7,-251.515 2264.3,-258.489"/>
</g>
<!-- Node26 -->
<g id="node26" class="node"><title>Node26</title>
<polygon fill="white" stroke="#bfbfbf" points="636.5,-235.5 636.5,-254.5 699.5,-254.5 699.5,-235.5 636.5,-235.5"/>
<text text-anchor="middle" x="668" y="-242.5" font-family="Helvetica,sans-Serif" font-size="10.00">functional</text>
</g>
<!-- Node16&#45;&gt;Node26 -->
<g id="edge49" class="edge"><title>Node16&#45;&gt;Node26</title>
<path fill="none" stroke="midnightblue" d="M1190.43,-299.687C1074.45,-287.768 812.063,-260.804 709.857,-250.301"/>
<polygon fill="midnightblue" stroke="midnightblue" points="709.927,-246.79 699.621,-249.25 709.211,-253.754 709.927,-246.79"/>
</g>
<!-- Node27 -->
<g id="node27" class="node"><title>Node27</title>
<polygon fill="white" stroke="#bfbfbf" points="1300.5,-235.5 1300.5,-254.5 1341.5,-254.5 1341.5,-235.5 1300.5,-235.5"/>
<text text-anchor="middle" x="1321" y="-242.5" font-family="Helvetica,sans-Serif" font-size="10.00">tuple</text>
</g>
<!-- Node16&#45;&gt;Node27 -->
<g id="edge50" class="edge"><title>Node16&#45;&gt;Node27</title>
<path fill="none" stroke="midnightblue" d="M1264.54,-291.399C1275.84,-282.308 1290.54,-270.49 1302.11,-261.191"/>
<polygon fill="midnightblue" stroke="midnightblue" points="1304.63,-263.652 1310.23,-254.658 1300.25,-258.196 1304.63,-263.652"/>
</g>
<!-- Node28 -->
<g id="node28" class="node"><title>Node28</title>
<polygon fill="white" stroke="#bfbfbf" points="1164,-235.5 1164,-254.5 1206,-254.5 1206,-235.5 1164,-235.5"/>
<text text-anchor="middle" x="1185" y="-242.5" font-family="Helvetica,sans-Serif" font-size="10.00">limits</text>
</g>
<!-- Node16&#45;&gt;Node28 -->
<g id="edge53" class="edge"><title>Node16&#45;&gt;Node28</title>
<path fill="none" stroke="midnightblue" d="M1232.31,-291.399C1223.02,-282.486 1211,-270.952 1201.4,-261.741"/>
<polygon fill="midnightblue" stroke="midnightblue" points="1203.66,-259.057 1194.02,-254.658 1198.81,-264.107 1203.66,-259.057"/>
</g>
<!-- Node17&#45;&gt;Node6 -->
<g id="edge26" class="edge"><title>Node17&#45;&gt;Node6</title>
<path fill="none" stroke="midnightblue" d="M994.061,-239.396C1092.08,-231.958 1288.67,-216.368 1455,-199 1620.49,-181.719 1814.51,-156.643 1915.32,-143.25"/>
<polygon fill="midnightblue" stroke="midnightblue" points="1915.92,-146.701 1925.37,-141.913 1914.99,-139.763 1915.92,-146.701"/>
</g>
<!-- Node17&#45;&gt;Node7 -->
<g id="edge25" class="edge"><title>Node17&#45;&gt;Node7</title>
<path fill="none" stroke="midnightblue" d="M938.129,-235.389C948.11,-221.875 969.078,-195.525 992,-179 1048.75,-138.09 1123.71,-107.561 1173.78,-89.9111"/>
<polygon fill="midnightblue" stroke="midnightblue" points="1175.15,-93.1405 1183.45,-86.5534 1172.85,-86.5279 1175.15,-93.1405"/>
</g>
<!-- Node17&#45;&gt;Node12 -->
<g id="edge30" class="edge"><title>Node17&#45;&gt;Node12</title>
<path fill="none" stroke="midnightblue" d="M926.903,-235.412C912.855,-212.611 871.078,-150.424 818,-123 760.657,-93.3727 565.855,-78.9428 488.27,-74.2659"/>
<polygon fill="midnightblue" stroke="midnightblue" points="488.315,-70.7626 478.127,-73.6701 487.905,-77.7505 488.315,-70.7626"/>
</g>
<!-- Node17&#45;&gt;Node14 -->
<g id="edge27" class="edge"><title>Node17&#45;&gt;Node14</title>
<path fill="none" stroke="midnightblue" d="M994.271,-240.415C1160.95,-230.82 1616.72,-204.581 1796.08,-194.256"/>
<polygon fill="midnightblue" stroke="midnightblue" points="1796.43,-197.741 1806.21,-193.672 1796.02,-190.753 1796.43,-197.741"/>
</g>
<!-- Node17&#45;&gt;Node16 -->
<g id="edge32" class="edge"><title>Node17&#45;&gt;Node16</title>
<path fill="none" stroke="midnightblue" d="M982.199,-254.555C1035.85,-264.289 1121.01,-280.32 1180.26,-291.8"/>
<polygon fill="midnightblue" stroke="midnightblue" points="1179.79,-295.274 1190.27,-293.745 1181.12,-288.402 1179.79,-295.274"/>
</g>
<!-- Node18 -->
<g id="node18" class="node"><title>Node18</title>
<polygon fill="white" stroke="#bfbfbf" points="1198,-123.5 1198,-142.5 1258,-142.5 1258,-123.5 1198,-123.5"/>
<text text-anchor="middle" x="1228" y="-130.5" font-family="Helvetica,sans-Serif" font-size="10.00">dmlc/io.h</text>
</g>
<!-- Node17&#45;&gt;Node18 -->
<g id="edge24" class="edge"><title>Node17&#45;&gt;Node18</title>
<path fill="none" stroke="midnightblue" d="M942.51,-235.46C960.141,-221.559 997.266,-194.079 1033,-179 1084.24,-157.378 1147.64,-145.202 1187.96,-139.113"/>
<polygon fill="midnightblue" stroke="midnightblue" points="1188.55,-142.564 1197.94,-137.659 1187.54,-135.637 1188.55,-142.564"/>
</g>
<!-- Node17&#45;&gt;Node19 -->
<g id="edge28" class="edge"><title>Node17&#45;&gt;Node19</title>
<path fill="none" stroke="midnightblue" d="M954.025,-235.444C977.104,-226.478 1013.56,-212.314 1039.64,-202.183"/>
<polygon fill="midnightblue" stroke="midnightblue" points="1041.02,-205.4 1049.08,-198.516 1038.49,-198.875 1041.02,-205.4"/>
</g>
<!-- Node17&#45;&gt;Node20 -->
<g id="edge29" class="edge"><title>Node17&#45;&gt;Node20</title>
<path fill="none" stroke="midnightblue" d="M966.701,-235.444C1008.06,-225.245 1076.7,-208.321 1117.52,-198.256"/>
<polygon fill="midnightblue" stroke="midnightblue" points="1118.39,-201.646 1127.26,-195.854 1116.71,-194.849 1118.39,-201.646"/>
</g>
<!-- Node17&#45;&gt;Node21 -->
<g id="edge31" class="edge"><title>Node17&#45;&gt;Node21</title>
<path fill="none" stroke="midnightblue" d="M869.942,-238.968C741.166,-228.527 446.605,-204.644 322.637,-194.592"/>
<polygon fill="midnightblue" stroke="midnightblue" points="322.844,-191.098 312.594,-193.778 322.278,-198.075 322.844,-191.098"/>
</g>
<!-- Node22&#45;&gt;Node4 -->
<g id="edge43" class="edge"><title>Node22&#45;&gt;Node4</title>
<path fill="none" stroke="midnightblue" d="M1525.29,-235.305C1516.06,-227.069 1503.41,-213.789 1498,-199 1486.4,-167.277 1476.62,-149.151 1498,-123 1525.19,-89.7379 1655.18,-77.8556 1715.78,-74.0755"/>
<polygon fill="midnightblue" stroke="midnightblue" points="1716.13,-77.561 1725.9,-73.4793 1715.72,-70.5731 1716.13,-77.561"/>
</g>
<!-- Node22&#45;&gt;Node6 -->
<g id="edge35" class="edge"><title>Node22&#45;&gt;Node6</title>
<path fill="none" stroke="midnightblue" d="M1565.63,-235.439C1594.53,-226.893 1639.63,-213.043 1678,-199 1699.7,-191.057 1703.81,-185.47 1726,-179 1760.8,-168.851 1852.36,-153.885 1916.46,-144.041"/>
<polygon fill="midnightblue" stroke="midnightblue" points="1917.14,-147.477 1926.5,-142.506 1916.08,-140.557 1917.14,-147.477"/>
</g>
<!-- Node22&#45;&gt;Node7 -->
<g id="edge34" class="edge"><title>Node22&#45;&gt;Node7</title>
<path fill="none" stroke="midnightblue" d="M1479.39,-235.484C1416.13,-225.561 1320.73,-209.226 1307,-199 1276.39,-176.199 1287.63,-155.114 1267,-123 1260.8,-113.354 1253.24,-103.253 1246.43,-94.6419"/>
<polygon fill="midnightblue" stroke="midnightblue" points="1248.95,-92.1903 1239.95,-86.5993 1243.5,-96.5821 1248.95,-92.1903"/>
</g>
<!-- Node22&#45;&gt;Node13 -->
<g id="edge41" class="edge"><title>Node22&#45;&gt;Node13</title>
<path fill="none" stroke="midnightblue" d="M1553.95,-235.495C1612.81,-207.609 1800.23,-118.819 1870.79,-85.3931"/>
<polygon fill="midnightblue" stroke="midnightblue" points="1872.4,-88.5005 1879.94,-81.056 1869.4,-82.1745 1872.4,-88.5005"/>
</g>
<!-- Node22&#45;&gt;Node20 -->
<g id="edge42" class="edge"><title>Node22&#45;&gt;Node20</title>
<path fill="none" stroke="midnightblue" d="M1475,-235.444C1392.85,-223.922 1249.5,-203.816 1184.62,-194.715"/>
<polygon fill="midnightblue" stroke="midnightblue" points="1184.92,-191.224 1174.53,-193.301 1183.95,-198.156 1184.92,-191.224"/>
</g>
<!-- Node23 -->
<g id="node23" class="node"><title>Node23</title>
<g id="a_node23"><a xlink:href="serializer_8h.html" target="_top" xlink:title="Serializer extension to support TVM data types Include this file to enable serialization of DLDataTyp...">
<polygon fill="white" stroke="black" points="1316,-179.5 1316,-198.5 1446,-198.5 1446,-179.5 1316,-179.5"/>
<text text-anchor="middle" x="1381" y="-186.5" font-family="Helvetica,sans-Serif" font-size="10.00">tvm/runtime/serializer.h</text>
</a>
</g>
</g>
<!-- Node22&#45;&gt;Node23 -->
<g id="edge36" class="edge"><title>Node22&#45;&gt;Node23</title>
<path fill="none" stroke="midnightblue" d="M1506.35,-235.444C1478.53,-226.438 1437.41,-212.189 1409.86,-202.049"/>
<polygon fill="midnightblue" stroke="midnightblue" points="1410.96,-198.725 1400.37,-198.516 1408.52,-205.285 1410.96,-198.725"/>
</g>
<!-- Node23&#45;&gt;Node7 -->
<g id="edge39" class="edge"><title>Node23&#45;&gt;Node7</title>
<path fill="none" stroke="midnightblue" d="M1370.68,-179.367C1355.46,-166.704 1325.96,-142.485 1300,-123 1286.08,-112.548 1270.27,-101.388 1257.03,-92.225"/>
<polygon fill="midnightblue" stroke="midnightblue" points="1258.96,-89.3053 1248.74,-86.519 1254.99,-95.0716 1258.96,-89.3053"/>
</g>
<!-- Node23&#45;&gt;Node18 -->
<g id="edge37" class="edge"><title>Node23&#45;&gt;Node18</title>
<path fill="none" stroke="midnightblue" d="M1356.76,-179.444C1331.13,-170.399 1290.51,-156.064 1261.76,-145.916"/>
<polygon fill="midnightblue" stroke="midnightblue" points="1262.72,-142.544 1252.13,-142.516 1260.39,-149.145 1262.72,-142.544"/>
</g>
<!-- Node23&#45;&gt;Node22 -->
<g id="edge40" class="edge"><title>Node23&#45;&gt;Node22</title>
<path fill="none" stroke="midnightblue" d="M1410.53,-198.516C1438.31,-207.506 1479.42,-221.754 1507.02,-231.906"/>
<polygon fill="midnightblue" stroke="midnightblue" points="1505.94,-235.236 1516.53,-235.444 1508.38,-228.676 1505.94,-235.236"/>
</g>
<!-- Node24 -->
<g id="node24" class="node"><title>Node24</title>
<polygon fill="white" stroke="#bfbfbf" points="1352,-123.5 1352,-142.5 1446,-142.5 1446,-123.5 1352,-123.5"/>
<text text-anchor="middle" x="1399" y="-130.5" font-family="Helvetica,sans-Serif" font-size="10.00">dmlc/serializer.h</text>
</g>
<!-- Node23&#45;&gt;Node24 -->
<g id="edge38" class="edge"><title>Node23&#45;&gt;Node24</title>
<path fill="none" stroke="midnightblue" d="M1383.97,-179.083C1386.38,-171.849 1389.86,-161.409 1392.87,-152.397"/>
<polygon fill="midnightblue" stroke="midnightblue" points="1396.24,-153.345 1396.08,-142.751 1389.6,-151.131 1396.24,-153.345"/>
</g>
<!-- Node25&#45;&gt;Node3 -->
<g id="edge46" class="edge"><title>Node25&#45;&gt;Node3</title>
<path fill="none" stroke="midnightblue" d="M2341.77,-235.19C2340.8,-213.903 2335.79,-158.786 2310,-123 2298.2,-106.629 2279.32,-94.1242 2263.2,-85.6536"/>
<polygon fill="midnightblue" stroke="midnightblue" points="2264.62,-82.4508 2254.11,-81.1336 2261.51,-88.7191 2264.62,-82.4508"/>
</g>
<!-- Node25&#45;&gt;Node7 -->
<g id="edge45" class="edge"><title>Node25&#45;&gt;Node7</title>
<path fill="none" stroke="midnightblue" d="M2326.85,-235.493C2284.72,-212.333 2161.98,-148.212 2051,-123 1909.51,-90.857 1476.06,-77.9541 1301.74,-73.9752"/>
<polygon fill="midnightblue" stroke="midnightblue" points="1301.71,-70.4738 1291.64,-73.748 1301.56,-77.472 1301.71,-70.4738"/>
</g>
<!-- Node25&#45;&gt;Node11 -->
<g id="edge47" class="edge"><title>Node25&#45;&gt;Node11</title>
<path fill="none" stroke="midnightblue" d="M2409.8,-235.47C2460.67,-227.907 2525.01,-215.5 2546,-199 2564.23,-184.67 2589.48,-122.153 2601.34,-90.7045"/>
<polygon fill="midnightblue" stroke="midnightblue" points="2604.74,-91.5994 2604.94,-81.0065 2598.18,-89.1609 2604.74,-91.5994"/>
</g>
<!-- Node30&#45;&gt;Node12 -->
<g id="edge150" class="edge"><title>Node30&#45;&gt;Node12</title>
<path fill="none" stroke="midnightblue" d="M333.272,-936.08C283.49,-932.483 196.408,-922.211 128,-893 82.6224,-873.624 38,-877.341 38,-828 38,-828 38,-828 38,-188 38,-144.225 72.2696,-141.378 112,-123 167.22,-97.4575 348.778,-80.8281 423.466,-74.9128"/>
<polygon fill="midnightblue" stroke="midnightblue" points="423.984,-78.3832 433.682,-74.118 423.441,-71.4043 423.984,-78.3832"/>
</g>
<!-- Node30&#45;&gt;Node20 -->
<g id="edge151" class="edge"><title>Node30&#45;&gt;Node20</title>
<path fill="none" stroke="midnightblue" d="M375.647,-929.175C393.993,-869.571 508.07,-523.225 729,-358 777.297,-321.881 790.808,-312.899 847,-291 913.299,-265.163 937.075,-281.778 1003,-255 1018.89,-248.546 1020.62,-242.597 1036,-235 1062.74,-221.787 1094.38,-209.645 1117.7,-201.312"/>
<polygon fill="midnightblue" stroke="midnightblue" points="1118.88,-204.608 1127.14,-197.982 1116.55,-198.006 1118.88,-204.608"/>
</g>
<!-- Node30&#45;&gt;Node21 -->
<g id="edge153" class="edge"><title>Node30&#45;&gt;Node21</title>
<path fill="none" stroke="midnightblue" d="M333.382,-938.418C260.828,-936.889 114,-922.163 114,-828 114,-828 114,-828 114,-367 114,-289.83 198.187,-229.489 241.254,-203.67"/>
<polygon fill="midnightblue" stroke="midnightblue" points="243.15,-206.616 250.021,-198.551 239.62,-200.571 243.15,-206.616"/>
</g>
<!-- Node31 -->
<g id="node31" class="node"><title>Node31</title>
<g id="a_node31"><a xlink:href="span_8h.html" target="_top" xlink:title="Span information for debugging purposes. ">
<polygon fill="white" stroke="black" points="1326,-593.5 1326,-612.5 1406,-612.5 1406,-593.5 1326,-593.5"/>
<text text-anchor="middle" x="1366" y="-600.5" font-family="Helvetica,sans-Serif" font-size="10.00">tvm/ir/span.h</text>
</a>
</g>
</g>
<!-- Node30&#45;&gt;Node31 -->
<g id="edge64" class="edge"><title>Node30&#45;&gt;Node31</title>
<path fill="none" stroke="midnightblue" d="M412.584,-935.986C560.453,-927.943 1072,-895.259 1072,-828 1072,-828 1072,-828 1072,-714 1072,-662.6 1231.62,-627.224 1315.64,-612.165"/>
<polygon fill="midnightblue" stroke="midnightblue" points="1316.5,-615.568 1325.74,-610.387 1315.28,-608.674 1316.5,-615.568"/>
</g>
<!-- Node30&#45;&gt;Node39 -->
<g id="edge107" class="edge"><title>Node30&#45;&gt;Node39</title>
<path fill="none" stroke="midnightblue" d="M404.849,-929.444C439.398,-920.162 494.682,-905.309 532.583,-895.127"/>
<polygon fill="midnightblue" stroke="midnightblue" points="533.551,-898.491 542.3,-892.516 531.734,-891.731 533.551,-898.491"/>
</g>
<!-- Node48 -->
<g id="node48" class="node"><title>Node48</title>
<polygon fill="white" stroke="#bfbfbf" points="319,-873.5 319,-892.5 375,-892.5 375,-873.5 319,-873.5"/>
<text text-anchor="middle" x="347" y="-880.5" font-family="Helvetica,sans-Serif" font-size="10.00">sstream</text>
</g>
<!-- Node30&#45;&gt;Node48 -->
<g id="edge152" class="edge"><title>Node30&#45;&gt;Node48</title>
<path fill="none" stroke="midnightblue" d="M368.707,-929.083C365.148,-921.691 359.978,-910.953 355.576,-901.811"/>
<polygon fill="midnightblue" stroke="midnightblue" points="358.705,-900.243 351.213,-892.751 352.398,-903.279 358.705,-900.243"/>
</g>
<!-- Node31&#45;&gt;Node6 -->
<g id="edge65" class="edge"><title>Node31&#45;&gt;Node6</title>
<path fill="none" stroke="midnightblue" d="M1406.38,-598.867C1523.68,-589.184 1862.03,-556.97 1956,-501 2060.38,-438.83 2030.85,-355.913 2019,-235 2016.55,-209.978 2019.41,-202.693 2011,-179 2007.54,-169.25 2001.83,-159.295 1996.56,-151.235"/>
<polygon fill="midnightblue" stroke="midnightblue" points="1999.28,-149.017 1990.72,-142.771 1993.52,-152.99 1999.28,-149.017"/>
</g>
<!-- Node31&#45;&gt;Node12 -->
<g id="edge106" class="edge"><title>Node31&#45;&gt;Node12</title>
<path fill="none" stroke="midnightblue" d="M1325.94,-601.193C1218.72,-598.621 927.18,-588.819 837,-557 664.462,-496.122 615.699,-462.914 499,-322 446.39,-258.474 452.94,-225.43 450,-143 449.683,-134.117 449.475,-131.873 450,-123 450.63,-112.358 452.001,-100.519 453.273,-90.9814"/>
<polygon fill="midnightblue" stroke="midnightblue" points="456.743,-91.4408 454.671,-81.0504 449.811,-90.4648 456.743,-91.4408"/>
</g>
<!-- Node32 -->
<g id="node32" class="node"><title>Node32</title>
<g id="a_node32"><a xlink:href="node_8h.html" target="_top" xlink:title="Definitions and helper macros for IR/AST nodes. ">
<polygon fill="white" stroke="black" points="1493,-537.5 1493,-556.5 1591,-556.5 1591,-537.5 1493,-537.5"/>
<text text-anchor="middle" x="1542" y="-544.5" font-family="Helvetica,sans-Serif" font-size="10.00">tvm/node/node.h</text>
</a>
</g>
</g>
<!-- Node31&#45;&gt;Node32 -->
<g id="edge66" class="edge"><title>Node31&#45;&gt;Node32</title>
<path fill="none" stroke="midnightblue" d="M1393.89,-593.444C1423.75,-584.28 1471.31,-569.688 1504.46,-559.519"/>
<polygon fill="midnightblue" stroke="midnightblue" points="1505.71,-562.796 1514.24,-556.516 1503.66,-556.104 1505.71,-562.796"/>
</g>
<!-- Node32&#45;&gt;Node4 -->
<g id="edge104" class="edge"><title>Node32&#45;&gt;Node4</title>
<path fill="none" stroke="midnightblue" d="M1591.21,-538.591C1675.8,-524.715 1842.93,-491.912 1876,-445 1883.94,-433.739 1878.62,-427.526 1876,-414 1861.51,-339.214 1839.01,-326.228 1812,-255 1789.4,-195.382 1764.63,-123.985 1753.29,-90.9454"/>
<polygon fill="midnightblue" stroke="midnightblue" points="1756.54,-89.6121 1749.99,-81.2836 1749.91,-91.8782 1756.54,-89.6121"/>
</g>
<!-- Node32&#45;&gt;Node5 -->
<g id="edge99" class="edge"><title>Node32&#45;&gt;Node5</title>
<path fill="none" stroke="midnightblue" d="M1502.95,-537.49C1458.21,-525.417 1386.94,-498.555 1355,-445 1347.94,-433.167 1347.98,-425.856 1355,-414 1363.97,-398.84 1380.07,-388.448 1395.63,-381.504"/>
<polygon fill="midnightblue" stroke="midnightblue" points="1397.25,-384.627 1405.19,-377.615 1394.61,-378.143 1397.25,-384.627"/>
</g>
<!-- Node32&#45;&gt;Node6 -->
<g id="edge68" class="edge"><title>Node32&#45;&gt;Node6</title>
<path fill="none" stroke="midnightblue" d="M1591.16,-546.291C1683.51,-545.889 1878.33,-540.258 1931,-501 2042.03,-418.24 2003.89,-215.436 1988.87,-152.763"/>
<polygon fill="midnightblue" stroke="midnightblue" points="1992.19,-151.609 1986.38,-142.752 1985.4,-153.301 1992.19,-151.609"/>
</g>
<!-- Node32&#45;&gt;Node7 -->
<g id="edge67" class="edge"><title>Node32&#45;&gt;Node7</title>
<path fill="none" stroke="midnightblue" d="M1492.91,-543.686C1422.19,-539.515 1287.94,-528.452 1177,-501 917.059,-436.678 738.766,-498.342 627,-255 580.921,-154.674 983.742,-98.8797 1154.16,-79.9378"/>
<polygon fill="midnightblue" stroke="midnightblue" points="1154.75,-83.3942 1164.31,-78.823 1153.98,-76.4361 1154.75,-83.3942"/>
</g>
<!-- Node32&#45;&gt;Node11 -->
<g id="edge105" class="edge"><title>Node32&#45;&gt;Node11</title>
<path fill="none" stroke="midnightblue" d="M1591.25,-545.296C1753.14,-542.692 2262.38,-532.088 2329,-501 2495.96,-423.087 2519.4,-357.706 2613,-199 2630.63,-169.1 2638.36,-156.923 2631,-123 2628.48,-111.401 2623.06,-99.2696 2618.11,-89.805"/>
<polygon fill="midnightblue" stroke="midnightblue" points="2621.17,-88.1014 2613.27,-81.0413 2615.04,-91.4868 2621.17,-88.1014"/>
</g>
<!-- Node32&#45;&gt;Node12 -->
<g id="edge102" class="edge"><title>Node32&#45;&gt;Node12</title>
<path fill="none" stroke="midnightblue" d="M1492.85,-545.387C1367.92,-542.61 1029.15,-527.423 762,-445 692.618,-423.594 673.557,-418.062 613,-378 545.85,-333.576 517.008,-326.505 480,-255 451.89,-200.688 452.395,-125.595 454.442,-91.139"/>
<polygon fill="midnightblue" stroke="midnightblue" points="457.937,-91.3237 455.156,-81.1005 450.955,-90.827 457.937,-91.3237"/>
</g>
<!-- Node32&#45;&gt;Node14 -->
<g id="edge69" class="edge"><title>Node32&#45;&gt;Node14</title>
<path fill="none" stroke="midnightblue" d="M1591.18,-543.555C1686.57,-538.307 1889.2,-524.495 1910,-501 1986.11,-415.016 1909.64,-259.581 1880.36,-207.524"/>
<polygon fill="midnightblue" stroke="midnightblue" points="1883.21,-205.464 1875.19,-198.542 1877.14,-208.955 1883.21,-205.464"/>
</g>
<!-- Node32&#45;&gt;Node20 -->
<g id="edge103" class="edge"><title>Node32&#45;&gt;Node20</title>
<path fill="none" stroke="midnightblue" d="M1492.63,-546.605C1389.4,-544.84 1151.9,-524.266 1050,-378 1024.14,-340.886 1043.83,-368.432 1112,-255 1121.62,-239 1132.55,-220.776 1140.39,-207.703"/>
<polygon fill="midnightblue" stroke="midnightblue" points="1143.56,-209.21 1145.71,-198.834 1137.56,-205.611 1143.56,-209.21"/>
</g>
<!-- Node33 -->
<g id="node33" class="node"><title>Node33</title>
<g id="a_node33"><a xlink:href="reflection_8h.html" target="_top" xlink:title="Reflection and serialization of compiler IR/AST nodes. ">
<polygon fill="white" stroke="black" points="1557.5,-481.5 1557.5,-500.5 1676.5,-500.5 1676.5,-481.5 1557.5,-481.5"/>
<text text-anchor="middle" x="1617" y="-488.5" font-family="Helvetica,sans-Serif" font-size="10.00">tvm/node/reflection.h</text>
</a>
</g>
</g>
<!-- Node32&#45;&gt;Node33 -->
<g id="edge70" class="edge"><title>Node32&#45;&gt;Node33</title>
<path fill="none" stroke="midnightblue" d="M1554.05,-537.324C1565.46,-529.107 1582.83,-516.602 1596.43,-506.807"/>
<polygon fill="midnightblue" stroke="midnightblue" points="1598.66,-509.517 1604.73,-500.834 1594.57,-503.837 1598.66,-509.517"/>
</g>
<!-- Node34 -->
<g id="node34" class="node"><title>Node34</title>
<g id="a_node34"><a xlink:href="structural__equal_8h.html" target="_top" xlink:title="Structural equality comparison. ">
<polygon fill="white" stroke="black" points="1756.5,-414.5 1756.5,-444.5 1867.5,-444.5 1867.5,-414.5 1756.5,-414.5"/>
<text text-anchor="start" x="1764.5" y="-432.5" font-family="Helvetica,sans-Serif" font-size="10.00">tvm/node/structural</text>
<text text-anchor="middle" x="1812" y="-421.5" font-family="Helvetica,sans-Serif" font-size="10.00">_equal.h</text>
</a>
</g>
</g>
<!-- Node32&#45;&gt;Node34 -->
<g id="edge100" class="edge"><title>Node32&#45;&gt;Node34</title>
<path fill="none" stroke="midnightblue" d="M1575.63,-537.486C1605.05,-529.553 1648.65,-516.617 1685,-501 1719.05,-486.37 1755.86,-465.306 1781.03,-450.014"/>
<polygon fill="midnightblue" stroke="midnightblue" points="1783.06,-452.876 1789.76,-444.665 1779.4,-446.909 1783.06,-452.876"/>
</g>
<!-- Node36 -->
<g id="node36" class="node"><title>Node36</title>
<g id="a_node36"><a xlink:href="structural__hash_8h.html" target="_top" xlink:title="tvm/node/structural\l_hash.h">
<polygon fill="white" stroke="black" points="1364.5,-414.5 1364.5,-444.5 1475.5,-444.5 1475.5,-414.5 1364.5,-414.5"/>
<text text-anchor="start" x="1372.5" y="-432.5" font-family="Helvetica,sans-Serif" font-size="10.00">tvm/node/structural</text>
<text text-anchor="middle" x="1420" y="-421.5" font-family="Helvetica,sans-Serif" font-size="10.00">_hash.h</text>
</a>
</g>
</g>
<!-- Node32&#45;&gt;Node36 -->
<g id="edge101" class="edge"><title>Node32&#45;&gt;Node36</title>
<path fill="none" stroke="midnightblue" d="M1532.83,-537.319C1513.77,-519.27 1469.38,-477.246 1442.31,-451.617"/>
<polygon fill="midnightblue" stroke="midnightblue" points="1444.5,-448.879 1434.84,-444.545 1439.69,-453.962 1444.5,-448.879"/>
</g>
<!-- Node37 -->
<g id="node37" class="node"><title>Node37</title>
<g id="a_node37"><a xlink:href="repr__printer_8h.html" target="_top" xlink:title="Printer class to print repr string of each AST/IR nodes. ">
<polygon fill="white" stroke="black" points="2190,-481.5 2190,-500.5 2320,-500.5 2320,-481.5 2190,-481.5"/>
<text text-anchor="middle" x="2255" y="-488.5" font-family="Helvetica,sans-Serif" font-size="10.00">tvm/node/repr_printer.h</text>
</a>
</g>
</g>
<!-- Node32&#45;&gt;Node37 -->
<g id="edge96" class="edge"><title>Node32&#45;&gt;Node37</title>
<path fill="none" stroke="midnightblue" d="M1591.01,-542.288C1713.37,-533.021 2032.96,-508.817 2179.54,-497.715"/>
<polygon fill="midnightblue" stroke="midnightblue" points="2180.09,-501.184 2189.79,-496.938 2179.56,-494.204 2180.09,-501.184"/>
</g>
<!-- Node33&#45;&gt;Node6 -->
<g id="edge72" class="edge"><title>Node33&#45;&gt;Node6</title>
<path fill="none" stroke="midnightblue" d="M1633.23,-481.457C1689.1,-451.183 1874.97,-343.05 1966,-199 1974.89,-184.925 1979.46,-166.433 1981.76,-152.773"/>
<polygon fill="midnightblue" stroke="midnightblue" points="1985.26,-153.032 1983.21,-142.638 1978.33,-152.043 1985.26,-153.032"/>
</g>
<!-- Node33&#45;&gt;Node7 -->
<g id="edge71" class="edge"><title>Node33&#45;&gt;Node7</title>
<path fill="none" stroke="midnightblue" d="M1614.37,-481.377C1604.91,-451.59 1570.02,-351.54 1511,-291 1475.71,-254.805 1458.63,-254.525 1412,-235 1358.28,-212.506 1339.62,-221.73 1286,-199 1240.17,-179.572 1213.89,-186.11 1189,-143 1179.56,-126.647 1190.92,-107.936 1203.77,-93.9012"/>
<polygon fill="midnightblue" stroke="midnightblue" points="1206.41,-96.2082 1210.94,-86.63 1201.43,-91.2935 1206.41,-96.2082"/>
</g>
<!-- Node33&#45;&gt;Node11 -->
<g id="edge95" class="edge"><title>Node33&#45;&gt;Node11</title>
<path fill="none" stroke="midnightblue" d="M1676.66,-485.011C1740.87,-478.836 1845.68,-466.422 1934,-445 2236.61,-371.605 2373.84,-423.131 2590,-199 2614.78,-173.303 2618.8,-158.59 2616,-123 2615.16,-112.314 2613.33,-100.474 2611.64,-90.9452"/>
<polygon fill="midnightblue" stroke="midnightblue" points="2615.06,-90.2104 2609.77,-81.0292 2608.18,-91.5037 2615.06,-90.2104"/>
</g>
<!-- Node33&#45;&gt;Node12 -->
<g id="edge94" class="edge"><title>Node33&#45;&gt;Node12</title>
<path fill="none" stroke="midnightblue" d="M1557.34,-488.638C1407.42,-483.219 1005.41,-456.247 705,-322 626.601,-286.965 607.004,-268.083 556,-199 532.271,-166.86 533.173,-154.022 508,-123 497.739,-110.354 484.564,-97.5894 474.044,-88.0569"/>
<polygon fill="midnightblue" stroke="midnightblue" points="476.085,-85.1886 466.282,-81.1692 471.439,-90.4244 476.085,-85.1886"/>
</g>
<!-- Node33&#45;&gt;Node14 -->
<g id="edge73" class="edge"><title>Node33&#45;&gt;Node14</title>
<path fill="none" stroke="midnightblue" d="M1624.3,-481.345C1659.21,-439.944 1809.42,-261.836 1856.1,-206.48"/>
<polygon fill="midnightblue" stroke="midnightblue" points="1858.9,-208.591 1862.67,-198.69 1853.55,-204.078 1858.9,-208.591"/>
</g>
<!-- Node33&#45;&gt;Node16 -->
<g id="edge74" class="edge"><title>Node33&#45;&gt;Node16</title>
<path fill="none" stroke="midnightblue" d="M1598.17,-481.459C1579.86,-472.927 1551.45,-459.087 1528,-445 1507.49,-432.681 1505.46,-424.563 1484,-414 1435.57,-390.164 1417.42,-399.727 1368,-378 1335.44,-363.683 1300.57,-342.703 1276.67,-327.353"/>
<polygon fill="midnightblue" stroke="midnightblue" points="1278.37,-324.282 1268.08,-321.771 1274.56,-330.153 1278.37,-324.282"/>
</g>
<!-- Node33&#45;&gt;Node20 -->
<g id="edge93" class="edge"><title>Node33&#45;&gt;Node20</title>
<path fill="none" stroke="midnightblue" d="M1604.96,-481.382C1593.86,-473.003 1577.42,-459.455 1566,-445 1517.94,-384.151 1539.43,-345.223 1484,-291 1464.25,-271.68 1399.1,-244.047 1373,-235 1338.6,-223.078 1237.83,-204.861 1184.69,-195.692"/>
<polygon fill="midnightblue" stroke="midnightblue" points="1185.18,-192.225 1174.73,-193.983 1184,-199.124 1185.18,-192.225"/>
</g>
<!-- Node33&#45;&gt;Node22 -->
<g id="edge75" class="edge"><title>Node33&#45;&gt;Node22</title>
<path fill="none" stroke="midnightblue" d="M1618.24,-481.335C1621.98,-452.23 1630.7,-356.149 1594,-291 1586.67,-277.993 1573.91,-267.467 1562.21,-259.875"/>
<polygon fill="midnightblue" stroke="midnightblue" points="1563.96,-256.838 1553.59,-254.649 1560.33,-262.825 1563.96,-256.838"/>
</g>
<!-- Node33&#45;&gt;Node25 -->
<g id="edge76" class="edge"><title>Node33&#45;&gt;Node25</title>
<path fill="none" stroke="midnightblue" d="M1676.53,-483.634C1729.61,-477.023 1809.04,-464.821 1876,-445 2050.46,-393.353 2247.2,-295.265 2316.34,-259.489"/>
<polygon fill="midnightblue" stroke="midnightblue" points="2318.34,-262.394 2325.59,-254.676 2315.11,-256.183 2318.34,-262.394"/>
</g>
<!-- Node33&#45;&gt;Node34 -->
<g id="edge77" class="edge"><title>Node33&#45;&gt;Node34</title>
<path fill="none" stroke="midnightblue" d="M1644.94,-481.475C1673.82,-472.664 1719.68,-458.668 1756.06,-447.57"/>
<polygon fill="midnightblue" stroke="midnightblue" points="1757.5,-450.789 1766.04,-444.523 1755.46,-444.094 1757.5,-450.789"/>
</g>
<!-- Node33&#45;&gt;Node36 -->
<g id="edge87" class="edge"><title>Node33&#45;&gt;Node36</title>
<path fill="none" stroke="midnightblue" d="M1588.77,-481.475C1559.48,-472.626 1512.87,-458.549 1476.05,-447.428"/>
<polygon fill="midnightblue" stroke="midnightblue" points="1477.01,-444.064 1466.43,-444.523 1474.99,-450.765 1477.01,-444.064"/>
</g>
<!-- Node34&#45;&gt;Node5 -->
<g id="edge85" class="edge"><title>Node34&#45;&gt;Node5</title>
<path fill="none" stroke="midnightblue" d="M1756.26,-419.656C1688.01,-408.826 1572.64,-390.522 1500.87,-379.134"/>
<polygon fill="midnightblue" stroke="midnightblue" points="1501.03,-375.616 1490.61,-377.506 1499.94,-382.53 1501.03,-375.616"/>
</g>
<!-- Node34&#45;&gt;Node12 -->
<g id="edge86" class="edge"><title>Node34&#45;&gt;Node12</title>
<path fill="none" stroke="midnightblue" d="M1756.23,-422.581C1672.04,-413.552 1507.52,-395.53 1368,-378 1107.41,-345.257 1025.81,-370.639 790,-255 687.278,-204.627 670.514,-175.765 569,-123 541.64,-108.779 509.447,-94.6331 486.436,-84.9468"/>
<polygon fill="midnightblue" stroke="midnightblue" points="487.754,-81.7042 477.177,-81.0813 485.057,-88.1639 487.754,-81.7042"/>
</g>
<!-- Node34&#45;&gt;Node25 -->
<g id="edge78" class="edge"><title>Node34&#45;&gt;Node25</title>
<path fill="none" stroke="midnightblue" d="M1853.68,-414.45C1881.7,-404.767 1919.33,-391.292 1952,-378 1971.9,-369.905 1975.97,-365.765 1996,-358 2104.69,-315.865 2236.56,-276.252 2301.65,-257.438"/>
<polygon fill="midnightblue" stroke="midnightblue" points="2302.87,-260.73 2311.51,-254.6 2300.93,-254.003 2302.87,-260.73"/>
</g>
<!-- Node35 -->
<g id="node35" class="node"><title>Node35</title>
<g id="a_node35"><a xlink:href="functor_8h.html" target="_top" xlink:title="Defines the Functor data structures. ">
<polygon fill="white" stroke="black" points="2148.5,-235.5 2148.5,-254.5 2255.5,-254.5 2255.5,-235.5 2148.5,-235.5"/>
<text text-anchor="middle" x="2202" y="-242.5" font-family="Helvetica,sans-Serif" font-size="10.00">tvm/node/functor.h</text>
</a>
</g>
</g>
<!-- Node34&#45;&gt;Node35 -->
<g id="edge79" class="edge"><title>Node34&#45;&gt;Node35</title>
<path fill="none" stroke="midnightblue" d="M1840.73,-414.422C1870.12,-400.071 1917.13,-377.246 1958,-358 2035.79,-321.371 2128.16,-279.377 2173.71,-258.768"/>
<polygon fill="midnightblue" stroke="midnightblue" points="2175.29,-261.897 2182.96,-254.588 2172.4,-255.518 2175.29,-261.897"/>
</g>
<!-- Node35&#45;&gt;Node3 -->
<g id="edge80" class="edge"><title>Node35&#45;&gt;Node3</title>
<path fill="none" stroke="midnightblue" d="M2214.41,-235.491C2235.74,-220.018 2278.62,-184.967 2295,-143 2304.09,-119.721 2280.05,-99.0395 2259.31,-86.1934"/>
<polygon fill="midnightblue" stroke="midnightblue" points="2260.84,-83.0329 2250.44,-81.0221 2257.31,-89.081 2260.84,-83.0329"/>
</g>
<!-- Node35&#45;&gt;Node4 -->
<g id="edge84" class="edge"><title>Node35&#45;&gt;Node4</title>
<path fill="none" stroke="midnightblue" d="M2202.7,-235.338C2203.31,-221.755 2202.5,-195.313 2189,-179 2146.8,-128.007 2114.7,-140.977 2051,-123 1999.8,-108.552 1844.71,-86.0776 1778.02,-76.765"/>
<polygon fill="midnightblue" stroke="midnightblue" points="1778.49,-73.2972 1768.11,-75.3866 1777.53,-80.2305 1778.49,-73.2972"/>
</g>
<!-- Node35&#45;&gt;Node6 -->
<g id="edge81" class="edge"><title>Node35&#45;&gt;Node6</title>
<path fill="none" stroke="midnightblue" d="M2199.67,-235.351C2195.42,-221.293 2185.05,-193.591 2166,-179 2133.76,-154.303 2089.72,-142.991 2053.03,-137.882"/>
<polygon fill="midnightblue" stroke="midnightblue" points="2053.25,-134.383 2042.89,-136.6 2052.37,-141.328 2053.25,-134.383"/>
</g>
<!-- Node35&#45;&gt;Node11 -->
<g id="edge83" class="edge"><title>Node35&#45;&gt;Node11</title>
<path fill="none" stroke="midnightblue" d="M2222.13,-235.495C2288.42,-207.495 2500.07,-118.092 2578.44,-84.9857"/>
<polygon fill="midnightblue" stroke="midnightblue" points="2579.89,-88.1715 2587.74,-81.056 2577.17,-81.7232 2579.89,-88.1715"/>
</g>
<!-- Node35&#45;&gt;Node20 -->
<g id="edge82" class="edge"><title>Node35&#45;&gt;Node20</title>
<path fill="none" stroke="midnightblue" d="M2148.27,-241.437C2009.21,-234.774 1626.05,-216.224 1307,-199 1264.77,-196.72 1216.13,-193.88 1184.54,-192.007"/>
<polygon fill="midnightblue" stroke="midnightblue" points="1184.71,-188.511 1174.52,-191.411 1184.29,-195.498 1184.71,-188.511"/>
</g>
<!-- Node36&#45;&gt;Node5 -->
<g id="edge90" class="edge"><title>Node36&#45;&gt;Node5</title>
<path fill="none" stroke="midnightblue" d="M1424.03,-414.399C1426.35,-406.288 1429.28,-396.007 1431.78,-387.281"/>
<polygon fill="midnightblue" stroke="midnightblue" points="1435.14,-388.235 1434.53,-377.658 1428.41,-386.311 1435.14,-388.235"/>
</g>
<!-- Node36&#45;&gt;Node12 -->
<g id="edge91" class="edge"><title>Node36&#45;&gt;Node12</title>
<path fill="none" stroke="midnightblue" d="M1364.44,-424.51C1284.72,-418.153 1133.53,-403.736 1007,-378 918.64,-360.027 897.773,-349.813 812,-322 770.408,-308.513 660.89,-282.627 627,-255 573.649,-211.509 595.612,-170.712 546,-123 529.065,-106.713 505.862,-93.8608 487.258,-85.198"/>
<polygon fill="midnightblue" stroke="midnightblue" points="488.563,-81.9474 478.006,-81.0537 485.702,-88.3359 488.563,-81.9474"/>
</g>
<!-- Node36&#45;&gt;Node25 -->
<g id="edge88" class="edge"><title>Node36&#45;&gt;Node25</title>
<path fill="none" stroke="midnightblue" d="M1475.76,-418.997C1531.97,-409.27 1621.17,-393.433 1698,-378 1874.24,-342.596 1916.74,-326.324 2093,-291 2157.07,-278.159 2230.75,-265.047 2281.25,-256.315"/>
<polygon fill="midnightblue" stroke="midnightblue" points="2282.08,-259.723 2291.34,-254.574 2280.89,-252.825 2282.08,-259.723"/>
</g>
<!-- Node36&#45;&gt;Node26 -->
<g id="edge92" class="edge"><title>Node36&#45;&gt;Node26</title>
<path fill="none" stroke="midnightblue" d="M1364.36,-422.377C1298.06,-414.544 1184.18,-399.385 1088,-378 1002.06,-358.892 981.669,-349.383 898,-322 859.386,-309.362 850.51,-303.951 812,-291 776.357,-279.013 735.401,-266.317 706.302,-257.478"/>
<polygon fill="midnightblue" stroke="midnightblue" points="707.117,-254.068 696.532,-254.52 705.089,-260.768 707.117,-254.068"/>
</g>
<!-- Node36&#45;&gt;Node35 -->
<g id="edge89" class="edge"><title>Node36&#45;&gt;Node35</title>
<path fill="none" stroke="midnightblue" d="M1475.7,-415.879C1592.25,-389.395 1852.66,-329.813 1871,-322 1894.36,-312.048 1895.28,-300.078 1919,-291 1990.99,-263.444 2079.51,-252.76 2138.18,-248.619"/>
<polygon fill="midnightblue" stroke="midnightblue" points="2138.66,-252.094 2148.41,-247.941 2138.2,-245.109 2138.66,-252.094"/>
</g>
<!-- Node37&#45;&gt;Node35 -->
<g id="edge97" class="edge"><title>Node37&#45;&gt;Node35</title>
<path fill="none" stroke="midnightblue" d="M2256.43,-481.498C2258.57,-467.378 2261.93,-438.244 2258,-414 2248.84,-357.535 2223.41,-294.403 2210.2,-264.122"/>
<polygon fill="midnightblue" stroke="midnightblue" points="2213.34,-262.568 2206.09,-254.846 2206.94,-265.407 2213.34,-262.568"/>
</g>
<!-- Node38 -->
<g id="node38" class="node"><title>Node38</title>
<polygon fill="white" stroke="#bfbfbf" points="2190.5,-420 2190.5,-439 2249.5,-439 2249.5,-420 2190.5,-420"/>
<text text-anchor="middle" x="2220" y="-427" font-family="Helvetica,sans-Serif" font-size="10.00">iostream</text>
</g>
<!-- Node37&#45;&gt;Node38 -->
<g id="edge98" class="edge"><title>Node37&#45;&gt;Node38</title>
<path fill="none" stroke="midnightblue" d="M2249.99,-481.475C2244.84,-472.727 2236.69,-458.869 2230.18,-447.809"/>
<polygon fill="midnightblue" stroke="midnightblue" points="2233.09,-445.854 2225.01,-439.009 2227.06,-449.403 2233.09,-445.854"/>
</g>
<!-- Node39&#45;&gt;Node12 -->
<g id="edge146" class="edge"><title>Node39&#45;&gt;Node12</title>
<path fill="none" stroke="midnightblue" d="M527.597,-882.272C403.968,-880.333 76,-856.656 76,-660 76,-660 76,-660 76,-188 76,-115.539 332.141,-84.2067 423.835,-75.3119"/>
<polygon fill="midnightblue" stroke="midnightblue" points="424.3,-78.7837 433.927,-74.3598 423.643,-71.8146 424.3,-78.7837"/>
</g>
<!-- Node39&#45;&gt;Node20 -->
<g id="edge147" class="edge"><title>Node39&#45;&gt;Node20</title>
<path fill="none" stroke="midnightblue" d="M569.124,-873.372C564.441,-864.552 557.692,-850.299 555,-837 553.236,-828.288 553.87,-825.817 555,-817 578.951,-630.193 544.238,-537.993 686,-414 814.603,-301.517 883.705,-332.443 1036,-255 1068.52,-238.463 1105.03,-217.379 1128.02,-203.784"/>
<polygon fill="midnightblue" stroke="midnightblue" points="1129.89,-206.741 1136.7,-198.623 1126.31,-200.724 1129.89,-206.741"/>
</g>
<!-- Node39&#45;&gt;Node21 -->
<g id="edge148" class="edge"><title>Node39&#45;&gt;Node21</title>
<path fill="none" stroke="midnightblue" d="M527.696,-874.534C433.414,-856.413 228,-800.779 228,-660 228,-660 228,-660 228,-305.5 228,-269.254 245.095,-229.671 256.353,-207.533"/>
<polygon fill="midnightblue" stroke="midnightblue" points="259.461,-209.141 261.032,-198.663 253.27,-205.875 259.461,-209.141"/>
</g>
<!-- Node40 -->
<g id="node40" class="node"><title>Node40</title>
<g id="a_node40"><a xlink:href="ir_2type_8h.html" target="_top" xlink:title="IR/AST nodes for the unified type system in TVM. ">
<polygon fill="white" stroke="black" points="1580.5,-649.5 1580.5,-668.5 1657.5,-668.5 1657.5,-649.5 1580.5,-649.5"/>
<text text-anchor="middle" x="1619" y="-656.5" font-family="Helvetica,sans-Serif" font-size="10.00">tvm/ir/type.h</text>
</a>
</g>
</g>
<!-- Node39&#45;&gt;Node40 -->
<g id="edge108" class="edge"><title>Node39&#45;&gt;Node40</title>
<path fill="none" stroke="midnightblue" d="M620.121,-882.389C736.061,-882.668 1048.73,-879.105 1305,-837 1399.05,-821.548 1431.02,-831.259 1512,-781 1555.71,-753.869 1591.73,-703.478 1608.63,-677.102"/>
<polygon fill="midnightblue" stroke="midnightblue" points="1611.63,-678.893 1613.97,-668.558 1605.7,-675.183 1611.63,-678.893"/>
</g>
<!-- Node41 -->
<g id="node41" class="node"><title>Node41</title>
<g id="a_node41"><a xlink:href="ir_2expr_8h.html" target="_top" xlink:title="Base expr nodes in TVM. ">
<polygon fill="white" stroke="black" points="1255.5,-705.5 1255.5,-724.5 1332.5,-724.5 1332.5,-705.5 1255.5,-705.5"/>
<text text-anchor="middle" x="1294" y="-712.5" font-family="Helvetica,sans-Serif" font-size="10.00">tvm/ir/expr.h</text>
</a>
</g>
</g>
<!-- Node39&#45;&gt;Node41 -->
<g id="edge115" class="edge"><title>Node39&#45;&gt;Node41</title>
<path fill="none" stroke="midnightblue" d="M612.165,-873.439C652.235,-864.434 717.068,-849.819 773,-837 948.396,-796.802 1156.78,-748.129 1247.72,-726.844"/>
<polygon fill="midnightblue" stroke="midnightblue" points="1248.76,-730.195 1257.7,-724.508 1247.16,-723.379 1248.76,-730.195"/>
</g>
<!-- Node43 -->
<g id="node43" class="node"><title>Node43</title>
<g id="a_node43"><a xlink:href="ir_2function_8h.html" target="_top" xlink:title="Function nodes. ">
<polygon fill="white" stroke="black" points="564.5,-817.5 564.5,-836.5 659.5,-836.5 659.5,-817.5 564.5,-817.5"/>
<text text-anchor="middle" x="612" y="-824.5" font-family="Helvetica,sans-Serif" font-size="10.00">tvm/ir/function.h</text>
</a>
</g>
</g>
<!-- Node39&#45;&gt;Node43 -->
<g id="edge125" class="edge"><title>Node39&#45;&gt;Node43</title>
<path fill="none" stroke="midnightblue" d="M580.275,-873.083C585.642,-865.455 593.518,-854.264 600.079,-844.941"/>
<polygon fill="midnightblue" stroke="midnightblue" points="602.949,-846.943 605.842,-836.751 597.225,-842.915 602.949,-846.943"/>
</g>
<!-- Node46 -->
<g id="node46" class="node"><title>Node46</title>
<g id="a_node46"><a xlink:href="ir_2adt_8h.html" target="_top" xlink:title="Algebraic data type definitions. ">
<polygon fill="white" stroke="black" points="1431,-761.5 1431,-780.5 1503,-780.5 1503,-761.5 1431,-761.5"/>
<text text-anchor="middle" x="1467" y="-768.5" font-family="Helvetica,sans-Serif" font-size="10.00">tvm/ir/adt.h</text>
</a>
</g>
</g>
<!-- Node39&#45;&gt;Node46 -->
<g id="edge139" class="edge"><title>Node39&#45;&gt;Node46</title>
<path fill="none" stroke="midnightblue" d="M620.408,-882.504C730.714,-882.924 1016.87,-879.444 1251,-837 1317.92,-824.868 1393.46,-799.279 1435.12,-784.077"/>
<polygon fill="midnightblue" stroke="midnightblue" points="1436.54,-787.285 1444.71,-780.542 1434.12,-780.717 1436.54,-787.285"/>
</g>
<!-- Node47 -->
<g id="node47" class="node"><title>Node47</title>
<polygon fill="white" stroke="#bfbfbf" points="678,-817.5 678,-836.5 764,-836.5 764,-817.5 678,-817.5"/>
<text text-anchor="middle" x="721" y="-824.5" font-family="Helvetica,sans-Serif" font-size="10.00">unordered_set</text>
</g>
<!-- Node39&#45;&gt;Node47 -->
<g id="edge149" class="edge"><title>Node39&#45;&gt;Node47</title>
<path fill="none" stroke="midnightblue" d="M597.293,-873.444C621.807,-864.438 660.596,-850.189 688.2,-840.049"/>
<polygon fill="midnightblue" stroke="midnightblue" points="689.637,-843.25 697.816,-836.516 687.223,-836.679 689.637,-843.25"/>
</g>
<!-- Node40&#45;&gt;Node5 -->
<g id="edge112" class="edge"><title>Node40&#45;&gt;Node5</title>
<path fill="none" stroke="midnightblue" d="M1641.84,-649.427C1719.73,-619.024 1965.26,-512.872 1876,-414 1851.77,-387.157 1624.5,-375.432 1506.86,-371.125"/>
<polygon fill="midnightblue" stroke="midnightblue" points="1506.63,-367.615 1496.51,-370.756 1506.38,-374.611 1506.63,-367.615"/>
</g>
<!-- Node40&#45;&gt;Node6 -->
<g id="edge109" class="edge"><title>Node40&#45;&gt;Node6</title>
<path fill="none" stroke="midnightblue" d="M1657.77,-657.164C1824.98,-653.053 2476,-631.675 2476,-548 2476,-548 2476,-548 2476,-305.5 2476,-272.401 2472.95,-260.624 2452,-235 2436.37,-215.88 2379.41,-186.868 2356,-179 2301.39,-160.647 2144.29,-146.15 2052.65,-138.958"/>
<polygon fill="midnightblue" stroke="midnightblue" points="2052.87,-135.464 2042.63,-138.18 2052.33,-142.443 2052.87,-135.464"/>
</g>
<!-- Node40&#45;&gt;Node12 -->
<g id="edge114" class="edge"><title>Node40&#45;&gt;Node12</title>
<path fill="none" stroke="midnightblue" d="M1594.4,-649.407C1556.26,-636.261 1480.46,-610.811 1415,-593 1127.86,-514.868 1024.62,-584.959 762,-445 602.113,-359.79 493.823,-152.33 464.196,-90.3018"/>
<polygon fill="midnightblue" stroke="midnightblue" points="467.269,-88.6115 459.849,-81.0486 460.933,-91.5879 467.269,-88.6115"/>
</g>
<!-- Node40&#45;&gt;Node25 -->
<g id="edge110" class="edge"><title>Node40&#45;&gt;Node25</title>
<path fill="none" stroke="midnightblue" d="M1657.58,-656.316C1808.55,-649.22 2351,-618.801 2351,-548 2351,-548 2351,-548 2351,-367 2351,-330.795 2346.94,-288.663 2344.28,-264.882"/>
<polygon fill="midnightblue" stroke="midnightblue" points="2347.73,-264.318 2343.1,-254.789 2340.78,-265.126 2347.73,-264.318"/>
</g>
<!-- Node40&#45;&gt;Node31 -->
<g id="edge113" class="edge"><title>Node40&#45;&gt;Node31</title>
<path fill="none" stroke="midnightblue" d="M1580.3,-649.74C1536.23,-640.334 1464.11,-624.941 1415.86,-614.643"/>
<polygon fill="midnightblue" stroke="midnightblue" points="1416.46,-611.191 1405.95,-612.527 1415,-618.037 1416.46,-611.191"/>
</g>
<!-- Node40&#45;&gt;Node32 -->
<g id="edge111" class="edge"><title>Node40&#45;&gt;Node32</title>
<path fill="none" stroke="midnightblue" d="M1617.29,-649.344C1614.38,-636.226 1607.55,-610.941 1595,-593 1586.79,-581.254 1574.79,-570.722 1564.28,-562.806"/>
<polygon fill="midnightblue" stroke="midnightblue" points="1566.09,-559.795 1555.93,-556.802 1562.01,-565.479 1566.09,-559.795"/>
</g>
<!-- Node41&#45;&gt;Node5 -->
<g id="edge118" class="edge"><title>Node41&#45;&gt;Node5</title>
<path fill="none" stroke="midnightblue" d="M1284.07,-705.296C1275.02,-696.856 1261.9,-683.267 1254,-669 1239.42,-642.667 1235,-634.098 1235,-604 1235,-604 1235,-604 1235,-490 1235,-449.81 1251.81,-438.068 1284,-414 1308.09,-395.983 1339.3,-385.154 1367.23,-378.656"/>
<polygon fill="midnightblue" stroke="midnightblue" points="1368.33,-381.999 1377.36,-376.453 1366.84,-375.159 1368.33,-381.999"/>
</g>
<!-- Node41&#45;&gt;Node6 -->
<g id="edge116" class="edge"><title>Node41&#45;&gt;Node6</title>
<path fill="none" stroke="midnightblue" d="M1323.95,-705.417C1404.24,-682.322 1630.91,-616.567 1818,-557 1892.19,-533.378 1912.9,-532.751 1984,-501 2034.7,-478.357 2391.02,-302.963 2419,-255 2423.48,-247.322 2424.49,-241.989 2419,-235 2395.98,-205.708 2162.33,-163.469 2047.3,-144.235"/>
<polygon fill="midnightblue" stroke="midnightblue" points="2047.66,-140.746 2037.22,-142.557 2046.51,-147.651 2047.66,-140.746"/>
</g>
<!-- Node41&#45;&gt;Node11 -->
<g id="edge124" class="edge"><title>Node41&#45;&gt;Node11</title>
<path fill="none" stroke="midnightblue" d="M1332.57,-713.103C1560.55,-707.553 2722,-675.759 2722,-604 2722,-604 2722,-604 2722,-188 2722,-139.198 2669.81,-103.559 2636.05,-85.6129"/>
<polygon fill="midnightblue" stroke="midnightblue" points="2637.58,-82.4611 2627.08,-81.024 2634.39,-88.6934 2637.58,-82.4611"/>
</g>
<!-- Node41&#45;&gt;Node12 -->
<g id="edge121" class="edge"><title>Node41&#45;&gt;Node12</title>
<path fill="none" stroke="midnightblue" d="M1255.2,-706.395C1076.58,-670.298 342,-509.566 342,-307.5 342,-307.5 342,-307.5 342,-188 342,-157.205 346.007,-146.422 366,-123 381.524,-104.814 405.32,-91.8653 424.546,-83.6354"/>
<polygon fill="midnightblue" stroke="midnightblue" points="425.886,-86.8686 433.837,-79.8657 423.255,-80.3822 425.886,-86.8686"/>
</g>
<!-- Node41&#45;&gt;Node28 -->
<g id="edge123" class="edge"><title>Node41&#45;&gt;Node28</title>
<path fill="none" stroke="midnightblue" d="M1282.11,-705.453C1270.66,-696.917 1253.18,-683.074 1240,-669 1134.42,-556.253 1079.4,-529.636 1050,-378 1038.66,-319.512 1111.47,-277.537 1154.66,-258.11"/>
<polygon fill="midnightblue" stroke="midnightblue" points="1156.13,-261.289 1163.9,-254.091 1153.33,-254.869 1156.13,-261.289"/>
</g>
<!-- Node41&#45;&gt;Node31 -->
<g id="edge119" class="edge"><title>Node41&#45;&gt;Node31</title>
<path fill="none" stroke="midnightblue" d="M1303.05,-705.29C1311.71,-696.634 1324.78,-682.704 1334,-669 1343.97,-654.176 1352.73,-635.793 1358.55,-622.363"/>
<polygon fill="midnightblue" stroke="midnightblue" points="1361.91,-623.393 1362.55,-612.817 1355.46,-620.684 1361.91,-623.393"/>
</g>
<!-- Node41&#45;&gt;Node32 -->
<g id="edge117" class="edge"><title>Node41&#45;&gt;Node32</title>
<path fill="none" stroke="midnightblue" d="M1306.98,-705.309C1347.33,-678.304 1470.79,-595.667 1520.71,-562.248"/>
<polygon fill="midnightblue" stroke="midnightblue" points="1522.78,-565.076 1529.14,-556.605 1518.89,-559.259 1522.78,-565.076"/>
</g>
<!-- Node41&#45;&gt;Node40 -->
<g id="edge120" class="edge"><title>Node41&#45;&gt;Node40</title>
<path fill="none" stroke="midnightblue" d="M1332.56,-707.593C1391.93,-697.728 1505.65,-678.833 1570.52,-668.056"/>
<polygon fill="midnightblue" stroke="midnightblue" points="1571.2,-671.49 1580.49,-666.398 1570.05,-664.585 1571.2,-671.49"/>
</g>
<!-- Node42 -->
<g id="node42" class="node"><title>Node42</title>
<polygon fill="white" stroke="#bfbfbf" points="1263,-649.5 1263,-668.5 1325,-668.5 1325,-649.5 1263,-649.5"/>
<text text-anchor="middle" x="1294" y="-656.5" font-family="Helvetica,sans-Serif" font-size="10.00">algorithm</text>
</g>
<!-- Node41&#45;&gt;Node42 -->
<g id="edge122" class="edge"><title>Node41&#45;&gt;Node42</title>
<path fill="none" stroke="midnightblue" d="M1294,-705.083C1294,-698.006 1294,-687.861 1294,-678.986"/>
<polygon fill="midnightblue" stroke="midnightblue" points="1297.5,-678.751 1294,-668.751 1290.5,-678.751 1297.5,-678.751"/>
</g>
<!-- Node43&#45;&gt;Node11 -->
<g id="edge137" class="edge"><title>Node43&#45;&gt;Node11</title>
<path fill="none" stroke="midnightblue" d="M659.533,-818.08C662.732,-817.675 665.91,-817.309 669,-817 1042.15,-779.696 1137.97,-808.108 1512,-781 1999.48,-745.669 2128.17,-771.789 2606,-669 2694.08,-650.054 2798,-694.091 2798,-604 2798,-604 2798,-604 2798,-188 2798,-120.224 2708.63,-91.087 2652.48,-79.4684"/>
<polygon fill="midnightblue" stroke="midnightblue" points="2652.89,-75.9836 2642.41,-77.4975 2651.55,-82.8532 2652.89,-75.9836"/>
</g>
<!-- Node43&#45;&gt;Node12 -->
<g id="edge138" class="edge"><title>Node43&#45;&gt;Node12</title>
<path fill="none" stroke="midnightblue" d="M564.412,-817.725C454.048,-797.184 190,-739.712 190,-660 190,-660 190,-660 190,-490 190,-351.752 141.663,-306.122 196,-179 208.441,-149.895 213.305,-140.007 240,-123 297.611,-86.2964 379.083,-76.211 423.694,-73.4781"/>
<polygon fill="midnightblue" stroke="midnightblue" points="424.139,-76.9597 433.943,-72.9413 423.773,-69.9692 424.139,-76.9597"/>
</g>
<!-- Node43&#45;&gt;Node41 -->
<g id="edge126" class="edge"><title>Node43&#45;&gt;Node41</title>
<path fill="none" stroke="midnightblue" d="M659.686,-818.309C784.348,-798.202 1118.99,-744.227 1245.06,-723.894"/>
<polygon fill="midnightblue" stroke="midnightblue" points="1245.87,-727.308 1255.18,-722.261 1244.75,-720.398 1245.87,-727.308"/>
</g>
<!-- Node44 -->
<g id="node44" class="node"><title>Node44</title>
<g id="a_node44"><a xlink:href="ir_2attrs_8h.html" target="_top" xlink:title="Helpers for attribute objects. ">
<polygon fill="white" stroke="black" points="607.5,-761.5 607.5,-780.5 686.5,-780.5 686.5,-761.5 607.5,-761.5"/>
<text text-anchor="middle" x="647" y="-768.5" font-family="Helvetica,sans-Serif" font-size="10.00">tvm/ir/attrs.h</text>
</a>
</g>
</g>
<!-- Node43&#45;&gt;Node44 -->
<g id="edge127" class="edge"><title>Node43&#45;&gt;Node44</title>
<path fill="none" stroke="midnightblue" d="M617.78,-817.083C622.672,-809.534 629.827,-798.495 635.833,-789.23"/>
<polygon fill="midnightblue" stroke="midnightblue" points="638.826,-791.046 641.328,-780.751 632.952,-787.239 638.826,-791.046"/>
</g>
<!-- Node44&#45;&gt;Node4 -->
<g id="edge136" class="edge"><title>Node44&#45;&gt;Node4</title>
<path fill="none" stroke="midnightblue" d="M681.044,-761.48C718.972,-751.703 777.64,-735.652 798,-725 1086.75,-573.927 1082.78,-402.488 1389,-291 1488.7,-254.701 1535.47,-311.939 1625,-255 1657.53,-234.311 1714.84,-132.337 1737.45,-90.4797"/>
<polygon fill="midnightblue" stroke="midnightblue" points="1740.66,-91.8986 1742.3,-81.4314 1734.49,-88.5914 1740.66,-91.8986"/>
</g>
<!-- Node44&#45;&gt;Node11 -->
<g id="edge134" class="edge"><title>Node44&#45;&gt;Node11</title>
<path fill="none" stroke="midnightblue" d="M686.858,-769.026C977.551,-761.669 2760,-712.149 2760,-604 2760,-604 2760,-604 2760,-188 2760,-132.266 2694.41,-99.9161 2649.41,-84.2777"/>
<polygon fill="midnightblue" stroke="midnightblue" points="2650.46,-80.9393 2639.86,-81.1025 2648.25,-87.5811 2650.46,-80.9393"/>
</g>
<!-- Node44&#45;&gt;Node12 -->
<g id="edge135" class="edge"><title>Node44&#45;&gt;Node12</title>
<path fill="none" stroke="midnightblue" d="M607.305,-767.014C509.721,-758.586 266,-730.483 266,-660 266,-660 266,-660 266,-428.5 266,-314.852 147.612,-273.993 210,-179 258.142,-105.699 368.698,-82.6054 423.701,-75.5216"/>
<polygon fill="midnightblue" stroke="midnightblue" points="424.407,-78.9624 433.925,-74.3082 423.582,-72.0111 424.407,-78.9624"/>
</g>
<!-- Node44&#45;&gt;Node16 -->
<g id="edge130" class="edge"><title>Node44&#45;&gt;Node16</title>
<path fill="none" stroke="midnightblue" d="M651.196,-761.092C657.54,-748.087 670.392,-723.445 685,-705 823.97,-529.535 854.166,-466.396 1050,-358 1090.21,-335.743 1140.46,-323.064 1180.15,-315.977"/>
<polygon fill="midnightblue" stroke="midnightblue" points="1180.99,-319.384 1190.26,-314.25 1179.81,-312.484 1180.99,-319.384"/>
</g>
<!-- Node44&#45;&gt;Node20 -->
<g id="edge132" class="edge"><title>Node44&#45;&gt;Node20</title>
<path fill="none" stroke="midnightblue" d="M644.438,-761.249C639.251,-742.738 628,-698.179 628,-660 628,-660 628,-660 628,-602 628,-350.85 878.893,-413.145 1074,-255 1094.64,-238.27 1117.89,-218.513 1133.39,-205.209"/>
<polygon fill="midnightblue" stroke="midnightblue" points="1135.84,-207.718 1141.14,-198.542 1131.28,-202.412 1135.84,-207.718"/>
</g>
<!-- Node44&#45;&gt;Node21 -->
<g id="edge131" class="edge"><title>Node44&#45;&gt;Node21</title>
<path fill="none" stroke="midnightblue" d="M631.847,-761.363C617.437,-752.867 595.436,-739.147 578,-725 550.667,-702.822 546.047,-694.703 522,-669 415.806,-555.491 389.32,-520.833 328,-378 302.176,-317.849 280.458,-243.135 271.032,-208.826"/>
<polygon fill="midnightblue" stroke="midnightblue" points="274.313,-207.554 268.318,-198.819 267.557,-209.386 274.313,-207.554"/>
</g>
<!-- Node44&#45;&gt;Node26 -->
<g id="edge133" class="edge"><title>Node44&#45;&gt;Node26</title>
<path fill="none" stroke="midnightblue" d="M637.809,-761.485C590.86,-717.608 380,-515.795 380,-430.5 380,-430.5 380,-430.5 380,-367 380,-261.506 546.275,-246.469 626.143,-245.331"/>
<polygon fill="midnightblue" stroke="midnightblue" points="626.382,-248.829 636.355,-245.255 626.329,-241.829 626.382,-248.829"/>
</g>
<!-- Node44&#45;&gt;Node41 -->
<g id="edge129" class="edge"><title>Node44&#45;&gt;Node41</title>
<path fill="none" stroke="midnightblue" d="M686.984,-766.663C799.957,-757.234 1121.32,-730.412 1244.82,-720.105"/>
<polygon fill="midnightblue" stroke="midnightblue" points="1245.43,-723.566 1255.1,-719.246 1244.85,-716.59 1245.43,-723.566"/>
</g>
<!-- Node45 -->
<g id="node45" class="node"><title>Node45</title>
<polygon fill="white" stroke="#bfbfbf" points="694.5,-705.5 694.5,-724.5 789.5,-724.5 789.5,-705.5 694.5,-705.5"/>
<text text-anchor="middle" x="742" y="-712.5" font-family="Helvetica,sans-Serif" font-size="10.00">dmlc/common.h</text>
</g>
<!-- Node44&#45;&gt;Node45 -->
<g id="edge128" class="edge"><title>Node44&#45;&gt;Node45</title>
<path fill="none" stroke="midnightblue" d="M662.263,-761.324C677.221,-752.822 700.255,-739.729 717.727,-729.797"/>
<polygon fill="midnightblue" stroke="midnightblue" points="719.81,-732.639 726.774,-724.655 716.351,-726.553 719.81,-732.639"/>
</g>
<!-- Node46&#45;&gt;Node5 -->
<g id="edge142" class="edge"><title>Node46&#45;&gt;Node5</title>
<path fill="none" stroke="midnightblue" d="M1455.71,-761.442C1427.87,-739.754 1355.44,-679.604 1317,-613 1301.95,-586.933 1298,-578.098 1298,-548 1298,-548 1298,-548 1298,-490 1298,-434.611 1361.57,-398.8 1402.73,-381.419"/>
<polygon fill="midnightblue" stroke="midnightblue" points="1404.2,-384.598 1412.15,-377.593 1401.57,-378.112 1404.2,-384.598"/>
</g>
<!-- Node46&#45;&gt;Node6 -->
<g id="edge140" class="edge"><title>Node46&#45;&gt;Node6</title>
<path fill="none" stroke="midnightblue" d="M1503.1,-770.213C1691.36,-770.861 2552,-767.92 2552,-660 2552,-660 2552,-660 2552,-305.5 2552,-214.848 2476.92,-210.712 2392,-179 2331.55,-156.428 2152.46,-143.272 2052.83,-137.506"/>
<polygon fill="midnightblue" stroke="midnightblue" points="2052.74,-133.996 2042.56,-136.922 2052.34,-140.984 2052.74,-133.996"/>
</g>
<!-- Node46&#45;&gt;Node12 -->
<g id="edge145" class="edge"><title>Node46&#45;&gt;Node12</title>
<path fill="none" stroke="midnightblue" d="M1430.86,-766.261C1300.1,-750.975 845.269,-682.309 578,-445 502.231,-377.725 471.772,-354.378 452,-255 440.54,-197.402 440.269,-181.447 446,-123 447.053,-112.259 449.338,-100.416 451.458,-90.8991"/>
<polygon fill="midnightblue" stroke="midnightblue" points="454.903,-91.5379 453.787,-81.002 448.089,-89.9342 454.903,-91.5379"/>
</g>
<!-- Node46&#45;&gt;Node32 -->
<g id="edge141" class="edge"><title>Node46&#45;&gt;Node32</title>
<path fill="none" stroke="midnightblue" d="M1469.94,-761.297C1481.02,-728.494 1520.42,-611.884 1535.79,-566.377"/>
<polygon fill="midnightblue" stroke="midnightblue" points="1539.11,-567.478 1539,-556.884 1532.48,-565.237 1539.11,-567.478"/>
</g>
<!-- Node46&#45;&gt;Node40 -->
<g id="edge144" class="edge"><title>Node46&#45;&gt;Node40</title>
<path fill="none" stroke="midnightblue" d="M1478.93,-761.368C1504.9,-742.573 1566.81,-697.768 1598.92,-674.533"/>
<polygon fill="midnightblue" stroke="midnightblue" points="1601.08,-677.29 1607.13,-668.591 1596.98,-671.619 1601.08,-677.29"/>
</g>
<!-- Node46&#45;&gt;Node41 -->
<g id="edge143" class="edge"><title>Node46&#45;&gt;Node41</title>
<path fill="none" stroke="midnightblue" d="M1439.59,-761.444C1410.23,-752.28 1363.48,-737.688 1330.9,-727.519"/>
<polygon fill="midnightblue" stroke="midnightblue" points="1331.87,-724.155 1321.28,-724.516 1329.79,-730.837 1331.87,-724.155"/>
</g>
</g>
</svg>
