<?xml version="1.0" encoding="UTF-8" standalone="no"?>
<!DOCTYPE svg PUBLIC "-//W3C//DTD SVG 1.1//EN"
 "http://www.w3.org/Graphics/SVG/1.1/DTD/svg11.dtd">
<!-- Generated by graphviz version 2.38.0 (20140413.2041)
 -->
<!-- Title: include/tvm/ir/adt.h Pages: 1 -->
<svg width="2155pt" height="789pt"
 viewBox="0.00 0.00 2155.40 789.00" xmlns="http://www.w3.org/2000/svg" xmlns:xlink="http://www.w3.org/1999/xlink">
<g id="graph0" class="graph" transform="scale(1 1) rotate(0) translate(4 785)">
<title>include/tvm/ir/adt.h</title>
<polygon fill="white" stroke="none" points="-4,4 -4,-785 2151.4,-785 2151.4,4 -4,4"/>
<!-- Node1 -->
<g id="node1" class="node"><title>Node1</title>
<polygon fill="#bfbfbf" stroke="black" points="837.5,-761.5 837.5,-780.5 946.5,-780.5 946.5,-761.5 837.5,-761.5"/>
<text text-anchor="middle" x="892" y="-768.5" font-family="Helvetica,sans-Serif" font-size="10.00">include/tvm/ir/adt.h</text>
</g>
<!-- Node2 -->
<g id="node2" class="node"><title>Node2</title>
<g id="a_node2"><a xlink:href="object_8h.html" target="_top" xlink:title="A managed object in the TVM runtime. ">
<polygon fill="white" stroke="black" points="833.5,-123.5 833.5,-142.5 950.5,-142.5 950.5,-123.5 833.5,-123.5"/>
<text text-anchor="middle" x="892" y="-130.5" font-family="Helvetica,sans-Serif" font-size="10.00">tvm/runtime/object.h</text>
</a>
</g>
</g>
<!-- Node1&#45;&gt;Node2 -->
<g id="edge1" class="edge"><title>Node1&#45;&gt;Node2</title>
<path fill="none" stroke="midnightblue" d="M946.874,-767.942C1183.54,-758.709 2105,-718.976 2105,-660 2105,-660 2105,-660 2105,-490 2105,-368.101 2100.47,-309.523 2004,-235 1951.91,-194.76 1775.3,-207.266 1710,-199 1641.96,-190.388 1625.24,-185.763 1557,-179 1339.93,-157.489 1081.97,-143.258 961.034,-137.249"/>
<polygon fill="midnightblue" stroke="midnightblue" points="960.974,-133.742 950.814,-136.744 960.629,-140.733 960.974,-133.742"/>
</g>
<!-- Node9 -->
<g id="node9" class="node"><title>Node9</title>
<polygon fill="white" stroke="#bfbfbf" points="263,-62 263,-81 307,-81 307,-62 263,-62"/>
<text text-anchor="middle" x="285" y="-69" font-family="Helvetica,sans-Serif" font-size="10.00">string</text>
</g>
<!-- Node1&#45;&gt;Node9 -->
<g id="edge121" class="edge"><title>Node1&#45;&gt;Node9</title>
<path fill="none" stroke="midnightblue" d="M837.21,-769.034C643.138,-764.898 0,-744.795 0,-660 0,-660 0,-660 0,-188 0,-151.28 19.87,-142.475 51,-123 114.711,-83.1426 205.166,-74.3957 252.797,-72.6956"/>
<polygon fill="midnightblue" stroke="midnightblue" points="252.939,-76.1932 262.839,-72.4204 252.747,-69.1958 252.939,-76.1932"/>
</g>
<!-- Node12 -->
<g id="node12" class="node"><title>Node12</title>
<g id="a_node12"><a xlink:href="node_8h.html" target="_top" xlink:title="Definitions and helper macros for IR/AST nodes. ">
<polygon fill="white" stroke="black" points="651,-537.5 651,-556.5 749,-556.5 749,-537.5 651,-537.5"/>
<text text-anchor="middle" x="700" y="-544.5" font-family="Helvetica,sans-Serif" font-size="10.00">tvm/node/node.h</text>
</a>
</g>
</g>
<!-- Node1&#45;&gt;Node12 -->
<g id="edge11" class="edge"><title>Node1&#45;&gt;Node12</title>
<path fill="none" stroke="midnightblue" d="M885.803,-761.211C871.34,-740.866 833.929,-689.2 799,-649 771.541,-617.397 736.742,-583.087 716.562,-563.695"/>
<polygon fill="midnightblue" stroke="midnightblue" points="718.758,-560.953 709.11,-556.576 713.923,-566.015 718.758,-560.953"/>
</g>
<!-- Node31 -->
<g id="node31" class="node"><title>Node31</title>
<g id="a_node31"><a xlink:href="node_2container_8h.html" target="_top" xlink:title="Array/Map container in the DSL graph. ">
<polygon fill="white" stroke="black" points="878.5,-358.5 878.5,-377.5 997.5,-377.5 997.5,-358.5 878.5,-358.5"/>
<text text-anchor="middle" x="938" y="-365.5" font-family="Helvetica,sans-Serif" font-size="10.00">tvm/node/container.h</text>
</a>
</g>
</g>
<!-- Node1&#45;&gt;Node31 -->
<g id="edge100" class="edge"><title>Node1&#45;&gt;Node31</title>
<path fill="none" stroke="midnightblue" d="M898.555,-761.292C919.059,-733.436 981.87,-643.269 1003,-557 1018.19,-494.974 1021.11,-469.198 989,-414 981.949,-401.88 970.465,-391.321 960.179,-383.483"/>
<polygon fill="midnightblue" stroke="midnightblue" points="962.107,-380.558 951.943,-377.565 958.022,-386.243 962.107,-380.558"/>
</g>
<!-- Node36 -->
<g id="node36" class="node"><title>Node36</title>
<g id="a_node36"><a xlink:href="ir_2expr_8h.html" target="_top" xlink:title="Base expr nodes in TVM. ">
<polygon fill="white" stroke="black" points="690.5,-705.5 690.5,-724.5 767.5,-724.5 767.5,-705.5 690.5,-705.5"/>
<text text-anchor="middle" x="729" y="-712.5" font-family="Helvetica,sans-Serif" font-size="10.00">tvm/ir/expr.h</text>
</a>
</g>
</g>
<!-- Node1&#45;&gt;Node36 -->
<g id="edge101" class="edge"><title>Node1&#45;&gt;Node36</title>
<path fill="none" stroke="midnightblue" d="M866.172,-761.444C838.751,-752.359 795.223,-737.939 764.568,-727.783"/>
<polygon fill="midnightblue" stroke="midnightblue" points="765.3,-724.339 754.707,-724.516 763.099,-730.984 765.3,-724.339"/>
</g>
<!-- Node38 -->
<g id="node38" class="node"><title>Node38</title>
<g id="a_node38"><a xlink:href="ir_2type_8h.html" target="_top" xlink:title="IR/AST nodes for the unified type system in TVM. ">
<polygon fill="white" stroke="black" points="204.5,-649.5 204.5,-668.5 281.5,-668.5 281.5,-649.5 204.5,-649.5"/>
<text text-anchor="middle" x="243" y="-656.5" font-family="Helvetica,sans-Serif" font-size="10.00">tvm/ir/type.h</text>
</a>
</g>
</g>
<!-- Node1&#45;&gt;Node38 -->
<g id="edge120" class="edge"><title>Node1&#45;&gt;Node38</title>
<path fill="none" stroke="midnightblue" d="M841.765,-761.493C739.194,-744.122 498.282,-703.315 296,-669 294.706,-668.78 293.394,-668.558 292.071,-668.333"/>
<polygon fill="midnightblue" stroke="midnightblue" points="292.232,-664.811 281.787,-666.588 291.06,-671.712 292.232,-664.811"/>
</g>
<!-- Node3 -->
<g id="node3" class="node"><title>Node3</title>
<polygon fill="white" stroke="#bfbfbf" points="726,-62 726,-81 812,-81 812,-62 726,-62"/>
<text text-anchor="middle" x="769" y="-69" font-family="Helvetica,sans-Serif" font-size="10.00">dmlc/logging.h</text>
</g>
<!-- Node2&#45;&gt;Node3 -->
<g id="edge2" class="edge"><title>Node2&#45;&gt;Node3</title>
<path fill="none" stroke="midnightblue" d="M874.377,-123.475C853.826,-113.534 819.636,-96.9947 795.793,-85.461"/>
<polygon fill="midnightblue" stroke="midnightblue" points="797.116,-82.2131 786.59,-81.0091 794.068,-88.5145 797.116,-82.2131"/>
</g>
<!-- Node4 -->
<g id="node4" class="node"><title>Node4</title>
<g id="a_node4"><a xlink:href="c__runtime__api_8h.html" target="_top" xlink:title="tvm/runtime/c_runtime\l_api.h">
<polygon fill="white" stroke="black" points="1927.5,-56.5 1927.5,-86.5 2054.5,-86.5 2054.5,-56.5 1927.5,-56.5"/>
<text text-anchor="start" x="1935.5" y="-74.5" font-family="Helvetica,sans-Serif" font-size="10.00">tvm/runtime/c_runtime</text>
<text text-anchor="middle" x="1991" y="-63.5" font-family="Helvetica,sans-Serif" font-size="10.00">_api.h</text>
</a>
</g>
</g>
<!-- Node2&#45;&gt;Node4 -->
<g id="edge3" class="edge"><title>Node2&#45;&gt;Node4</title>
<path fill="none" stroke="midnightblue" d="M950.674,-132.542C1106.56,-133.317 1544.02,-131.152 1917.2,-86.9466"/>
<polygon fill="midnightblue" stroke="midnightblue" points="1917.88,-90.3908 1927.39,-85.7272 1917.05,-83.4404 1917.88,-90.3908"/>
</g>
<!-- Node8 -->
<g id="node8" class="node"><title>Node8</title>
<polygon fill="white" stroke="#bfbfbf" points="1841,-62 1841,-81 1909,-81 1909,-62 1841,-62"/>
<text text-anchor="middle" x="1875" y="-69" font-family="Helvetica,sans-Serif" font-size="10.00">type_traits</text>
</g>
<!-- Node2&#45;&gt;Node8 -->
<g id="edge7" class="edge"><title>Node2&#45;&gt;Node8</title>
<path fill="none" stroke="midnightblue" d="M950.534,-124.432C955.423,-123.907 960.294,-123.42 965,-123 1296.83,-93.3713 1698.38,-78.3193 1830.51,-73.9085"/>
<polygon fill="midnightblue" stroke="midnightblue" points="1830.77,-77.402 1840.64,-73.5735 1830.53,-70.4058 1830.77,-77.402"/>
</g>
<!-- Node2&#45;&gt;Node9 -->
<g id="edge8" class="edge"><title>Node2&#45;&gt;Node9</title>
<path fill="none" stroke="midnightblue" d="M833.247,-126.241C707.352,-113.9 415.091,-85.252 317.435,-75.6793"/>
<polygon fill="midnightblue" stroke="midnightblue" points="317.585,-72.1774 307.291,-74.6851 316.902,-79.144 317.585,-72.1774"/>
</g>
<!-- Node10 -->
<g id="node10" class="node"><title>Node10</title>
<polygon fill="white" stroke="#bfbfbf" points="871,-62 871,-81 913,-81 913,-62 871,-62"/>
<text text-anchor="middle" x="892" y="-69" font-family="Helvetica,sans-Serif" font-size="10.00">utility</text>
</g>
<!-- Node2&#45;&gt;Node10 -->
<g id="edge9" class="edge"><title>Node2&#45;&gt;Node10</title>
<path fill="none" stroke="midnightblue" d="M892,-123.475C892,-115.08 892,-101.981 892,-91.1631"/>
<polygon fill="midnightblue" stroke="midnightblue" points="895.5,-91.0091 892,-81.0091 888.5,-91.0091 895.5,-91.0091"/>
</g>
<!-- Node11 -->
<g id="node11" class="node"><title>Node11</title>
<polygon fill="white" stroke="#bfbfbf" points="1169,-62 1169,-81 1219,-81 1219,-62 1169,-62"/>
<text text-anchor="middle" x="1194" y="-69" font-family="Helvetica,sans-Serif" font-size="10.00">atomic</text>
</g>
<!-- Node2&#45;&gt;Node11 -->
<g id="edge10" class="edge"><title>Node2&#45;&gt;Node11</title>
<path fill="none" stroke="midnightblue" d="M935.269,-123.475C995.486,-111.611 1103.39,-90.351 1158.9,-79.415"/>
<polygon fill="midnightblue" stroke="midnightblue" points="1159.82,-82.8015 1168.95,-77.4344 1158.47,-75.9336 1159.82,-82.8015"/>
</g>
<!-- Node5 -->
<g id="node5" class="node"><title>Node5</title>
<polygon fill="white" stroke="#bfbfbf" points="1856,-0.5 1856,-19.5 1946,-19.5 1946,-0.5 1856,-0.5"/>
<text text-anchor="middle" x="1901" y="-7.5" font-family="Helvetica,sans-Serif" font-size="10.00">dlpack/dlpack.h</text>
</g>
<!-- Node4&#45;&gt;Node5 -->
<g id="edge4" class="edge"><title>Node4&#45;&gt;Node5</title>
<path fill="none" stroke="midnightblue" d="M1969.67,-56.3993C1955.51,-47.0402 1936.99,-34.7924 1922.75,-25.3771"/>
<polygon fill="midnightblue" stroke="midnightblue" points="1924.37,-22.2531 1914.1,-19.6578 1920.51,-28.0923 1924.37,-22.2531"/>
</g>
<!-- Node6 -->
<g id="node6" class="node"><title>Node6</title>
<polygon fill="white" stroke="#bfbfbf" points="1964.5,-0.5 1964.5,-19.5 2017.5,-19.5 2017.5,-0.5 1964.5,-0.5"/>
<text text-anchor="middle" x="1991" y="-7.5" font-family="Helvetica,sans-Serif" font-size="10.00">stdint.h</text>
</g>
<!-- Node4&#45;&gt;Node6 -->
<g id="edge5" class="edge"><title>Node4&#45;&gt;Node6</title>
<path fill="none" stroke="midnightblue" d="M1991,-56.3993C1991,-48.4664 1991,-38.458 1991,-29.8583"/>
<polygon fill="midnightblue" stroke="midnightblue" points="1994.5,-29.6577 1991,-19.6578 1987.5,-29.6578 1994.5,-29.6577"/>
</g>
<!-- Node7 -->
<g id="node7" class="node"><title>Node7</title>
<polygon fill="white" stroke="#bfbfbf" points="2035.5,-0.5 2035.5,-19.5 2090.5,-19.5 2090.5,-0.5 2035.5,-0.5"/>
<text text-anchor="middle" x="2063" y="-7.5" font-family="Helvetica,sans-Serif" font-size="10.00">stddef.h</text>
</g>
<!-- Node4&#45;&gt;Node7 -->
<g id="edge6" class="edge"><title>Node4&#45;&gt;Node7</title>
<path fill="none" stroke="midnightblue" d="M2008.06,-56.3993C2019.06,-47.3076 2033.37,-35.4899 2044.62,-26.1909"/>
<polygon fill="midnightblue" stroke="midnightblue" points="2047.04,-28.726 2052.52,-19.6578 2042.59,-23.33 2047.04,-28.726"/>
</g>
<!-- Node12&#45;&gt;Node2 -->
<g id="edge13" class="edge"><title>Node12&#45;&gt;Node2</title>
<path fill="none" stroke="midnightblue" d="M650.75,-544.635C583.693,-541.62 469.005,-531.954 443,-501 437.282,-494.194 441.234,-489.712 443,-481 466.721,-363.974 467.24,-320.1 551,-235 623.331,-161.512 746.409,-140.922 823.242,-135.488"/>
<polygon fill="midnightblue" stroke="midnightblue" points="823.546,-138.976 833.302,-134.844 823.099,-131.99 823.546,-138.976"/>
</g>
<!-- Node12&#45;&gt;Node4 -->
<g id="edge12" class="edge"><title>Node12&#45;&gt;Node4</title>
<path fill="none" stroke="midnightblue" d="M749.233,-544.702C906.62,-540.347 1396.36,-525.162 1553,-501 1768.53,-467.755 1833.69,-476.987 2028,-378 2118.05,-332.129 2168.84,-275.236 2138,-179 2128.67,-149.873 2121.48,-142.605 2098,-123 2081.68,-109.371 2061.06,-98.5075 2042.29,-90.4009"/>
<polygon fill="midnightblue" stroke="midnightblue" points="2043.55,-87.1311 2032.97,-86.5282 2040.86,-93.5958 2043.55,-87.1311"/>
</g>
<!-- Node12&#45;&gt;Node8 -->
<g id="edge99" class="edge"><title>Node12&#45;&gt;Node8</title>
<path fill="none" stroke="midnightblue" d="M749.054,-544.574C898.556,-540.012 1347.05,-524.674 1491,-501 1583.35,-485.812 1605.67,-475.95 1694,-445 1824.97,-399.109 1876.05,-412.802 1981,-322 2030.73,-278.972 2042.49,-240.424 2019,-179 2000.55,-130.743 1945.39,-100.265 1908.94,-84.8146"/>
<polygon fill="midnightblue" stroke="midnightblue" points="1910.24,-81.5645 1899.66,-81.0308 1907.6,-88.0466 1910.24,-81.5645"/>
</g>
<!-- Node12&#45;&gt;Node9 -->
<g id="edge96" class="edge"><title>Node12&#45;&gt;Node9</title>
<path fill="none" stroke="midnightblue" d="M650.975,-544.576C590.016,-541.491 483.556,-531.742 398,-501 352.594,-484.684 341.78,-476.227 305,-445 227.459,-379.165 193.197,-334.57 214,-235 225.659,-179.197 257.597,-119.103 274.379,-90.1207"/>
<polygon fill="midnightblue" stroke="midnightblue" points="277.56,-91.6165 279.625,-81.2248 271.53,-88.061 277.56,-91.6165"/>
</g>
<!-- Node12&#45;&gt;Node10 -->
<g id="edge98" class="edge"><title>Node12&#45;&gt;Node10</title>
<path fill="none" stroke="midnightblue" d="M650.91,-545.837C596.075,-543.837 505.965,-535.013 437,-501 380.235,-473.004 228,-370.794 228,-307.5 228,-307.5 228,-307.5 228,-244 228,-240.854 308.033,-205.873 647,-123 657.415,-120.454 797.588,-91.7779 861.102,-78.8062"/>
<polygon fill="midnightblue" stroke="midnightblue" points="861.864,-82.2229 870.961,-76.793 860.463,-75.3645 861.864,-82.2229"/>
</g>
<!-- Node13 -->
<g id="node13" class="node"><title>Node13</title>
<g id="a_node13"><a xlink:href="runtime_2memory_8h.html" target="_top" xlink:title="Runtime memory management. ">
<polygon fill="white" stroke="black" points="1421.5,-179.5 1421.5,-198.5 1548.5,-198.5 1548.5,-179.5 1421.5,-179.5"/>
<text text-anchor="middle" x="1485" y="-186.5" font-family="Helvetica,sans-Serif" font-size="10.00">tvm/runtime/memory.h</text>
</a>
</g>
</g>
<!-- Node12&#45;&gt;Node13 -->
<g id="edge14" class="edge"><title>Node12&#45;&gt;Node13</title>
<path fill="none" stroke="midnightblue" d="M749.019,-546.21C866.269,-546.004 1171.85,-541.286 1423,-501 1520.07,-485.429 1545.36,-480.616 1637,-445 1739.97,-404.979 1781.62,-406.316 1853,-322 1879.25,-290.998 1908.05,-265.301 1881,-235 1870.4,-223.128 1670.45,-205.074 1558.83,-195.858"/>
<polygon fill="midnightblue" stroke="midnightblue" points="1558.89,-192.352 1548.64,-195.022 1558.32,-199.329 1558.89,-192.352"/>
</g>
<!-- Node15 -->
<g id="node15" class="node"><title>Node15</title>
<g id="a_node15"><a xlink:href="reflection_8h.html" target="_top" xlink:title="Reflection and serialization of compiler IR/AST nodes. ">
<polygon fill="white" stroke="black" points="1295.5,-481.5 1295.5,-500.5 1414.5,-500.5 1414.5,-481.5 1295.5,-481.5"/>
<text text-anchor="middle" x="1355" y="-488.5" font-family="Helvetica,sans-Serif" font-size="10.00">tvm/node/reflection.h</text>
</a>
</g>
</g>
<!-- Node12&#45;&gt;Node15 -->
<g id="edge19" class="edge"><title>Node12&#45;&gt;Node15</title>
<path fill="none" stroke="midnightblue" d="M749.231,-541.941C864.491,-532.439 1152.15,-508.724 1285.32,-497.745"/>
<polygon fill="midnightblue" stroke="midnightblue" points="1285.73,-501.223 1295.41,-496.913 1285.15,-494.247 1285.73,-501.223"/>
</g>
<!-- Node20 -->
<g id="node20" class="node"><title>Node20</title>
<polygon fill="white" stroke="#bfbfbf" points="788.5,-179.5 788.5,-198.5 835.5,-198.5 835.5,-179.5 788.5,-179.5"/>
<text text-anchor="middle" x="812" y="-186.5" font-family="Helvetica,sans-Serif" font-size="10.00">vector</text>
</g>
<!-- Node12&#45;&gt;Node20 -->
<g id="edge97" class="edge"><title>Node12&#45;&gt;Node20</title>
<path fill="none" stroke="midnightblue" d="M690.283,-537.364C668.327,-516.749 618.067,-462.742 635,-414 667.058,-321.722 754.669,-238.759 793.29,-205.465"/>
<polygon fill="midnightblue" stroke="midnightblue" points="795.807,-207.919 801.167,-198.78 791.278,-202.582 795.807,-207.919"/>
</g>
<!-- Node29 -->
<g id="node29" class="node"><title>Node29</title>
<g id="a_node29"><a xlink:href="structural__equal_8h.html" target="_top" xlink:title="Structural equality comparison. ">
<polygon fill="white" stroke="black" points="773.5,-414.5 773.5,-444.5 884.5,-444.5 884.5,-414.5 773.5,-414.5"/>
<text text-anchor="start" x="781.5" y="-432.5" font-family="Helvetica,sans-Serif" font-size="10.00">tvm/node/structural</text>
<text text-anchor="middle" x="829" y="-421.5" font-family="Helvetica,sans-Serif" font-size="10.00">_equal.h</text>
</a>
</g>
</g>
<!-- Node12&#45;&gt;Node29 -->
<g id="edge94" class="edge"><title>Node12&#45;&gt;Node29</title>
<path fill="none" stroke="midnightblue" d="M709.696,-537.319C729.941,-519.192 777.193,-476.885 805.782,-451.288"/>
<polygon fill="midnightblue" stroke="midnightblue" points="808.198,-453.823 813.313,-444.545 803.528,-448.608 808.198,-453.823"/>
</g>
<!-- Node12&#45;&gt;Node31 -->
<g id="edge93" class="edge"><title>Node12&#45;&gt;Node31</title>
<path fill="none" stroke="midnightblue" d="M726.541,-537.437C766.586,-523.438 843.071,-492.376 893,-445 910.337,-428.55 923.244,-403.959 930.688,-387.238"/>
<polygon fill="midnightblue" stroke="midnightblue" points="934.113,-388.125 934.783,-377.551 927.666,-385.399 934.113,-388.125"/>
</g>
<!-- Node33 -->
<g id="node33" class="node"><title>Node33</title>
<g id="a_node33"><a xlink:href="structural__hash_8h.html" target="_top" xlink:title="tvm/node/structural\l_hash.h">
<polygon fill="white" stroke="black" points="644.5,-414.5 644.5,-444.5 755.5,-444.5 755.5,-414.5 644.5,-414.5"/>
<text text-anchor="start" x="652.5" y="-432.5" font-family="Helvetica,sans-Serif" font-size="10.00">tvm/node/structural</text>
<text text-anchor="middle" x="700" y="-421.5" font-family="Helvetica,sans-Serif" font-size="10.00">_hash.h</text>
</a>
</g>
</g>
<!-- Node12&#45;&gt;Node33 -->
<g id="edge95" class="edge"><title>Node12&#45;&gt;Node33</title>
<path fill="none" stroke="midnightblue" d="M700,-537.319C700,-519.967 700,-480.457 700,-454.658"/>
<polygon fill="midnightblue" stroke="midnightblue" points="703.5,-454.545 700,-444.545 696.5,-454.545 703.5,-454.545"/>
</g>
<!-- Node34 -->
<g id="node34" class="node"><title>Node34</title>
<g id="a_node34"><a xlink:href="repr__printer_8h.html" target="_top" xlink:title="Printer class to print repr string of each AST/IR nodes. ">
<polygon fill="white" stroke="black" points="452,-481.5 452,-500.5 582,-500.5 582,-481.5 452,-481.5"/>
<text text-anchor="middle" x="517" y="-488.5" font-family="Helvetica,sans-Serif" font-size="10.00">tvm/node/repr_printer.h</text>
</a>
</g>
</g>
<!-- Node12&#45;&gt;Node34 -->
<g id="edge90" class="edge"><title>Node12&#45;&gt;Node34</title>
<path fill="none" stroke="midnightblue" d="M671.003,-537.444C639.815,-528.241 590.07,-513.562 555.592,-503.388"/>
<polygon fill="midnightblue" stroke="midnightblue" points="556.443,-499.99 545.861,-500.516 554.462,-506.704 556.443,-499.99"/>
</g>
<!-- Node13&#45;&gt;Node2 -->
<g id="edge15" class="edge"><title>Node13&#45;&gt;Node2</title>
<path fill="none" stroke="midnightblue" d="M1421.26,-182.195C1308.88,-171.962 1076.49,-150.8 960.694,-140.255"/>
<polygon fill="midnightblue" stroke="midnightblue" points="960.811,-136.752 950.535,-139.33 960.176,-143.723 960.811,-136.752"/>
</g>
<!-- Node13&#45;&gt;Node8 -->
<g id="edge18" class="edge"><title>Node13&#45;&gt;Node8</title>
<path fill="none" stroke="midnightblue" d="M1492.12,-179.114C1504.2,-164.715 1530.22,-136.536 1559,-123 1649.01,-80.6691 1767.67,-72.8473 1830.89,-71.9704"/>
<polygon fill="midnightblue" stroke="midnightblue" points="1830.95,-75.4702 1840.92,-71.8838 1830.89,-68.4704 1830.95,-75.4702"/>
</g>
<!-- Node13&#45;&gt;Node10 -->
<g id="edge17" class="edge"><title>Node13&#45;&gt;Node10</title>
<path fill="none" stroke="midnightblue" d="M1473.55,-179.464C1453.53,-165.047 1410.36,-136.162 1369,-123 1285.23,-96.3391 1015.17,-79.3041 923.091,-74.1526"/>
<polygon fill="midnightblue" stroke="midnightblue" points="923.191,-70.6529 913.014,-73.5967 922.806,-77.6423 923.191,-70.6529"/>
</g>
<!-- Node14 -->
<g id="node14" class="node"><title>Node14</title>
<polygon fill="white" stroke="#bfbfbf" points="1459.5,-123.5 1459.5,-142.5 1506.5,-142.5 1506.5,-123.5 1459.5,-123.5"/>
<text text-anchor="middle" x="1483" y="-130.5" font-family="Helvetica,sans-Serif" font-size="10.00">cstdlib</text>
</g>
<!-- Node13&#45;&gt;Node14 -->
<g id="edge16" class="edge"><title>Node13&#45;&gt;Node14</title>
<path fill="none" stroke="midnightblue" d="M1484.67,-179.083C1484.41,-172.006 1484.03,-161.861 1483.7,-152.986"/>
<polygon fill="midnightblue" stroke="midnightblue" points="1487.19,-152.615 1483.32,-142.751 1480.2,-152.874 1487.19,-152.615"/>
</g>
<!-- Node15&#45;&gt;Node2 -->
<g id="edge21" class="edge"><title>Node15&#45;&gt;Node2</title>
<path fill="none" stroke="midnightblue" d="M1346.82,-481.189C1332.5,-466.1 1301.49,-434.917 1271,-414 1225.44,-382.739 1209.63,-382.293 1160,-358 1064.11,-311.064 1000.05,-345.234 943,-255 924.725,-226.097 970.648,-209.406 955,-179 947.923,-165.247 934.479,-154.766 921.822,-147.394"/>
<polygon fill="midnightblue" stroke="midnightblue" points="923.313,-144.222 912.847,-142.573 920.001,-150.389 923.313,-144.222"/>
</g>
<!-- Node15&#45;&gt;Node4 -->
<g id="edge20" class="edge"><title>Node15&#45;&gt;Node4</title>
<path fill="none" stroke="midnightblue" d="M1414.65,-486.015C1485.35,-480.462 1606.39,-468.339 1708,-445 1903.74,-400.039 2016.39,-428.24 2118,-255 2135.09,-225.861 2133.34,-209.586 2119,-179 2100.46,-139.454 2059.22,-109.491 2028.53,-91.5746"/>
<polygon fill="midnightblue" stroke="midnightblue" points="2030.21,-88.5033 2019.78,-86.6232 2026.76,-94.5951 2030.21,-88.5033"/>
</g>
<!-- Node15&#45;&gt;Node8 -->
<g id="edge89" class="edge"><title>Node15&#45;&gt;Node8</title>
<path fill="none" stroke="midnightblue" d="M1414.66,-481.514C1491.12,-470.479 1616.31,-451.81 1637,-445 1811.47,-387.575 1908.54,-411.918 2004,-255 2043.8,-189.584 1945.58,-116.573 1898.48,-86.5498"/>
<polygon fill="midnightblue" stroke="midnightblue" points="1900.14,-83.4571 1889.8,-81.1333 1896.43,-89.3961 1900.14,-83.4571"/>
</g>
<!-- Node15&#45;&gt;Node9 -->
<g id="edge88" class="edge"><title>Node15&#45;&gt;Node9</title>
<path fill="none" stroke="midnightblue" d="M1295.31,-489.71C1145.73,-488.436 758.05,-481.591 635,-445 581.869,-429.201 461.451,-356.417 418,-322 386.197,-296.809 382.16,-286.011 356,-255 335.767,-231.014 328.444,-226.316 313,-199 299.839,-175.722 297.086,-169.039 291,-143 286.985,-125.822 285.586,-105.731 285.132,-91.4013"/>
<polygon fill="midnightblue" stroke="midnightblue" points="288.63,-91.2406 284.939,-81.3097 281.631,-91.375 288.63,-91.2406"/>
</g>
<!-- Node15&#45;&gt;Node13 -->
<g id="edge22" class="edge"><title>Node15&#45;&gt;Node13</title>
<path fill="none" stroke="midnightblue" d="M1414.79,-483.241C1526.7,-466.981 1765.47,-414.385 1865,-255 1869.71,-247.46 1870.9,-241.645 1865,-235 1854.94,-223.679 1666.37,-205.651 1558.73,-196.217"/>
<polygon fill="midnightblue" stroke="midnightblue" points="1558.84,-192.714 1548.58,-195.332 1558.23,-199.687 1558.84,-192.714"/>
</g>
<!-- Node16 -->
<g id="node16" class="node"><title>Node16</title>
<g id="a_node16"><a xlink:href="packed__func_8h.html" target="_top" xlink:title="Type&#45;erased function used across TVM API. ">
<polygon fill="white" stroke="black" points="1219.5,-291.5 1219.5,-321.5 1332.5,-321.5 1332.5,-291.5 1219.5,-291.5"/>
<text text-anchor="start" x="1227.5" y="-309.5" font-family="Helvetica,sans-Serif" font-size="10.00">tvm/runtime/packed</text>
<text text-anchor="middle" x="1276" y="-298.5" font-family="Helvetica,sans-Serif" font-size="10.00">_func.h</text>
</a>
</g>
</g>
<!-- Node15&#45;&gt;Node16 -->
<g id="edge23" class="edge"><title>Node15&#45;&gt;Node16</title>
<path fill="none" stroke="midnightblue" d="M1352.78,-481.373C1347.09,-459.869 1330.85,-402.426 1309,-358 1304.27,-348.374 1298.04,-338.367 1292.27,-329.825"/>
<polygon fill="midnightblue" stroke="midnightblue" points="1295.09,-327.745 1286.5,-321.53 1289.34,-331.74 1295.09,-327.745"/>
</g>
<!-- Node15&#45;&gt;Node20 -->
<g id="edge87" class="edge"><title>Node15&#45;&gt;Node20</title>
<path fill="none" stroke="midnightblue" d="M1340.74,-481.487C1325.79,-472.521 1301.64,-457.937 1281,-445 1259.48,-431.512 1255.1,-426.518 1233,-414 1093.78,-335.13 1048.73,-334.718 910,-255 882.187,-239.019 851.6,-218.17 832.12,-204.449"/>
<polygon fill="midnightblue" stroke="midnightblue" points="833.937,-201.446 823.756,-198.513 829.886,-207.155 833.937,-201.446"/>
</g>
<!-- Node22 -->
<g id="node22" class="node"><title>Node22</title>
<g id="a_node22"><a xlink:href="ndarray_8h.html" target="_top" xlink:title="A device&#45;independent managed NDArray abstraction. ">
<polygon fill="white" stroke="black" points="1426.5,-235.5 1426.5,-254.5 1549.5,-254.5 1549.5,-235.5 1426.5,-235.5"/>
<text text-anchor="middle" x="1488" y="-242.5" font-family="Helvetica,sans-Serif" font-size="10.00">tvm/runtime/ndarray.h</text>
</a>
</g>
</g>
<!-- Node15&#45;&gt;Node22 -->
<g id="edge60" class="edge"><title>Node15&#45;&gt;Node22</title>
<path fill="none" stroke="midnightblue" d="M1359.73,-481.316C1379.04,-445.888 1452.09,-311.883 1478.44,-263.531"/>
<polygon fill="midnightblue" stroke="midnightblue" points="1481.61,-265.035 1483.32,-254.58 1475.46,-261.685 1481.61,-265.035"/>
</g>
<!-- Node25 -->
<g id="node25" class="node"><title>Node25</title>
<g id="a_node25"><a xlink:href="data__type_8h.html" target="_top" xlink:title="tvm/runtime/data_type.h">
<polygon fill="white" stroke="black" points="1720,-235.5 1720,-254.5 1856,-254.5 1856,-235.5 1720,-235.5"/>
<text text-anchor="middle" x="1788" y="-242.5" font-family="Helvetica,sans-Serif" font-size="10.00">tvm/runtime/data_type.h</text>
</a>
</g>
</g>
<!-- Node15&#45;&gt;Node25 -->
<g id="edge61" class="edge"><title>Node15&#45;&gt;Node25</title>
<path fill="none" stroke="midnightblue" d="M1370.16,-481.459C1434.45,-445.228 1684.96,-304.066 1763.98,-259.536"/>
<polygon fill="midnightblue" stroke="midnightblue" points="1765.75,-262.557 1772.74,-254.598 1762.31,-256.458 1765.75,-262.557"/>
</g>
<!-- Node15&#45;&gt;Node29 -->
<g id="edge62" class="edge"><title>Node15&#45;&gt;Node29</title>
<path fill="none" stroke="midnightblue" d="M1295.43,-483.261C1196.25,-472.043 998.018,-449.619 894.836,-437.947"/>
<polygon fill="midnightblue" stroke="midnightblue" points="895.182,-434.464 884.852,-436.818 894.395,-441.42 895.182,-434.464"/>
</g>
<!-- Node15&#45;&gt;Node33 -->
<g id="edge81" class="edge"><title>Node15&#45;&gt;Node33</title>
<path fill="none" stroke="midnightblue" d="M1295.11,-488.343C1189.79,-484.796 964.468,-474.378 765.795,-445.136"/>
<polygon fill="midnightblue" stroke="midnightblue" points="766.163,-441.652 755.756,-443.639 765.13,-448.576 766.163,-441.652"/>
</g>
<!-- Node16&#45;&gt;Node2 -->
<g id="edge51" class="edge"><title>Node16&#45;&gt;Node2</title>
<path fill="none" stroke="midnightblue" d="M1221.36,-291.499C1195.15,-283.293 1164.09,-271.291 1139,-255 1099.46,-229.324 1105.76,-202.695 1065,-179 1033.27,-160.553 993.935,-149.546 960.794,-143.042"/>
<polygon fill="midnightblue" stroke="midnightblue" points="961.194,-139.557 950.722,-141.165 959.912,-146.438 961.194,-139.557"/>
</g>
<!-- Node16&#45;&gt;Node3 -->
<g id="edge24" class="edge"><title>Node16&#45;&gt;Node3</title>
<path fill="none" stroke="midnightblue" d="M1223.94,-291.499C1191.6,-282.281 1149.4,-269.301 1113,-255 1040.47,-226.503 1027.98,-206.324 955,-179 898.453,-157.827 874.232,-176.505 824,-143 803.894,-129.589 787.901,-106.415 778.455,-90.3136"/>
<polygon fill="midnightblue" stroke="midnightblue" points="781.378,-88.3703 773.441,-81.3523 775.269,-91.7882 781.378,-88.3703"/>
</g>
<!-- Node16&#45;&gt;Node4 -->
<g id="edge25" class="edge"><title>Node16&#45;&gt;Node4</title>
<path fill="none" stroke="midnightblue" d="M1332.69,-297.137C1396.37,-287.593 1502.77,-271.201 1594,-255 1609.89,-252.179 1865,-207.019 1879,-199 1923.33,-173.614 1959.18,-124.225 1977.57,-95.2392"/>
<polygon fill="midnightblue" stroke="midnightblue" points="1980.63,-96.9464 1982.92,-86.6013 1974.68,-93.2623 1980.63,-96.9464"/>
</g>
<!-- Node16&#45;&gt;Node8 -->
<g id="edge59" class="edge"><title>Node16&#45;&gt;Node8</title>
<path fill="none" stroke="midnightblue" d="M1332.75,-297.051C1402.58,-286.358 1516.92,-267.793 1558,-255 1578.51,-248.613 1581.37,-241.002 1602,-235 1657.16,-218.949 1817.5,-239.746 1858,-199 1886.42,-170.406 1883.03,-118.564 1878.69,-90.959"/>
<polygon fill="midnightblue" stroke="midnightblue" points="1882.13,-90.2834 1876.92,-81.0536 1875.23,-91.5129 1882.13,-90.2834"/>
</g>
<!-- Node16&#45;&gt;Node9 -->
<g id="edge55" class="edge"><title>Node16&#45;&gt;Node9</title>
<path fill="none" stroke="midnightblue" d="M1219.28,-303.569C1059.33,-297.843 612.299,-279.792 551,-255 466.487,-220.82 470.923,-171.924 394,-123 369.319,-107.303 338.967,-93.6481 316.565,-84.5094"/>
<polygon fill="midnightblue" stroke="midnightblue" points="317.77,-81.222 307.186,-80.7569 315.17,-87.7212 317.77,-81.222"/>
</g>
<!-- Node16&#45;&gt;Node10 -->
<g id="edge58" class="edge"><title>Node16&#45;&gt;Node10</title>
<path fill="none" stroke="midnightblue" d="M1280.73,-291.339C1284.82,-276.62 1288.92,-253.231 1281,-235 1266.46,-201.545 1252.44,-197.503 1221,-179 1120.94,-120.106 984.308,-89.4161 923.458,-77.9269"/>
<polygon fill="midnightblue" stroke="midnightblue" points="923.81,-74.4329 913.341,-76.0631 922.541,-81.317 923.81,-74.4329"/>
</g>
<!-- Node17 -->
<g id="node17" class="node"><title>Node17</title>
<g id="a_node17"><a xlink:href="runtime_2module_8h.html" target="_top" xlink:title="Runtime container of the functions generated by TVM, This is used to support dynamically link...">
<polygon fill="white" stroke="black" points="1148,-235.5 1148,-254.5 1272,-254.5 1272,-235.5 1148,-235.5"/>
<text text-anchor="middle" x="1210" y="-242.5" font-family="Helvetica,sans-Serif" font-size="10.00">tvm/runtime/module.h</text>
</a>
</g>
</g>
<!-- Node16&#45;&gt;Node17 -->
<g id="edge26" class="edge"><title>Node16&#45;&gt;Node17</title>
<path fill="none" stroke="midnightblue" d="M1254.52,-291.399C1243.6,-282.575 1230.89,-271.183 1221.7,-262.018"/>
<polygon fill="midnightblue" stroke="midnightblue" points="1224.11,-259.473 1214.67,-254.658 1219.05,-264.307 1224.11,-259.473"/>
</g>
<!-- Node19 -->
<g id="node19" class="node"><title>Node19</title>
<polygon fill="white" stroke="#bfbfbf" points="1155.5,-179.5 1155.5,-198.5 1212.5,-198.5 1212.5,-179.5 1155.5,-179.5"/>
<text text-anchor="middle" x="1184" y="-186.5" font-family="Helvetica,sans-Serif" font-size="10.00">memory</text>
</g>
<!-- Node16&#45;&gt;Node19 -->
<g id="edge57" class="edge"><title>Node16&#45;&gt;Node19</title>
<path fill="none" stroke="midnightblue" d="M1326.79,-291.391C1361.38,-279.21 1397.62,-259.691 1378,-235 1368.33,-222.825 1276.44,-205.538 1222.67,-196.337"/>
<polygon fill="midnightblue" stroke="midnightblue" points="1223.22,-192.881 1212.78,-194.662 1222.05,-199.783 1223.22,-192.881"/>
</g>
<!-- Node16&#45;&gt;Node20 -->
<g id="edge54" class="edge"><title>Node16&#45;&gt;Node20</title>
<path fill="none" stroke="midnightblue" d="M1219.11,-294.712C1176.83,-285.969 1118.05,-272.279 1068,-255 1047.69,-247.99 1044.44,-241.594 1024,-235 949.388,-210.934 925.209,-217.476 845.691,-199.238"/>
<polygon fill="midnightblue" stroke="midnightblue" points="846.249,-195.774 835.713,-196.888 844.644,-202.588 846.249,-195.774"/>
</g>
<!-- Node16&#45;&gt;Node22 -->
<g id="edge36" class="edge"><title>Node16&#45;&gt;Node22</title>
<path fill="none" stroke="midnightblue" d="M1325.97,-291.475C1363.19,-281.03 1413.33,-266.958 1447.93,-257.247"/>
<polygon fill="midnightblue" stroke="midnightblue" points="1449.01,-260.578 1457.69,-254.506 1447.12,-253.839 1449.01,-260.578"/>
</g>
<!-- Node16&#45;&gt;Node25 -->
<g id="edge47" class="edge"><title>Node16&#45;&gt;Node25</title>
<path fill="none" stroke="midnightblue" d="M1332.75,-298.905C1424.47,-288.247 1605.48,-267.21 1709.5,-255.122"/>
<polygon fill="midnightblue" stroke="midnightblue" points="1710.1,-258.576 1719.63,-253.945 1709.29,-251.623 1710.1,-258.576"/>
</g>
<!-- Node26 -->
<g id="node26" class="node"><title>Node26</title>
<polygon fill="white" stroke="#bfbfbf" points="952.5,-235.5 952.5,-254.5 1015.5,-254.5 1015.5,-235.5 952.5,-235.5"/>
<text text-anchor="middle" x="984" y="-242.5" font-family="Helvetica,sans-Serif" font-size="10.00">functional</text>
</g>
<!-- Node16&#45;&gt;Node26 -->
<g id="edge52" class="edge"><title>Node16&#45;&gt;Node26</title>
<path fill="none" stroke="midnightblue" d="M1219.35,-293.957C1162.56,-282.386 1076.47,-264.842 1025.67,-254.49"/>
<polygon fill="midnightblue" stroke="midnightblue" points="1026.19,-251.025 1015.69,-252.458 1024.79,-257.884 1026.19,-251.025"/>
</g>
<!-- Node27 -->
<g id="node27" class="node"><title>Node27</title>
<polygon fill="white" stroke="#bfbfbf" points="1328.5,-235.5 1328.5,-254.5 1369.5,-254.5 1369.5,-235.5 1328.5,-235.5"/>
<text text-anchor="middle" x="1349" y="-242.5" font-family="Helvetica,sans-Serif" font-size="10.00">tuple</text>
</g>
<!-- Node16&#45;&gt;Node27 -->
<g id="edge53" class="edge"><title>Node16&#45;&gt;Node27</title>
<path fill="none" stroke="midnightblue" d="M1293.3,-291.399C1304.45,-282.308 1318.95,-270.49 1330.36,-261.191"/>
<polygon fill="midnightblue" stroke="midnightblue" points="1332.84,-263.689 1338.38,-254.658 1328.42,-258.263 1332.84,-263.689"/>
</g>
<!-- Node28 -->
<g id="node28" class="node"><title>Node28</title>
<polygon fill="white" stroke="#bfbfbf" points="1953,-235.5 1953,-254.5 1995,-254.5 1995,-235.5 1953,-235.5"/>
<text text-anchor="middle" x="1974" y="-242.5" font-family="Helvetica,sans-Serif" font-size="10.00">limits</text>
</g>
<!-- Node16&#45;&gt;Node28 -->
<g id="edge56" class="edge"><title>Node16&#45;&gt;Node28</title>
<path fill="none" stroke="midnightblue" d="M1332.53,-300.681C1472.94,-288.712 1834.09,-257.927 1942.66,-248.671"/>
<polygon fill="midnightblue" stroke="midnightblue" points="1943.27,-252.132 1952.94,-247.795 1942.68,-245.157 1943.27,-252.132"/>
</g>
<!-- Node17&#45;&gt;Node2 -->
<g id="edge29" class="edge"><title>Node17&#45;&gt;Node2</title>
<path fill="none" stroke="midnightblue" d="M1198.8,-235.425C1180.03,-221.473 1140.57,-193.921 1103,-179 1057.33,-160.865 1003.06,-149.5 960.997,-142.728"/>
<polygon fill="midnightblue" stroke="midnightblue" points="961.273,-139.229 950.853,-141.145 960.194,-146.145 961.273,-139.229"/>
</g>
<!-- Node17&#45;&gt;Node4 -->
<g id="edge28" class="edge"><title>Node17&#45;&gt;Node4</title>
<path fill="none" stroke="midnightblue" d="M1272.12,-238.2C1365.08,-229.183 1532.15,-211.535 1557,-199 1598.82,-177.904 1588.14,-144 1630,-123 1742.38,-66.6304 1788.31,-105.49 1917.11,-86.9881"/>
<polygon fill="midnightblue" stroke="midnightblue" points="1917.99,-90.394 1927.35,-85.4226 1916.93,-83.4745 1917.99,-90.394"/>
</g>
<!-- Node17&#45;&gt;Node9 -->
<g id="edge33" class="edge"><title>Node17&#45;&gt;Node9</title>
<path fill="none" stroke="midnightblue" d="M1179.98,-235.392C1132.52,-221.999 1037.1,-195.952 955,-179 711.518,-128.728 414.036,-88.9513 317.148,-76.5418"/>
<polygon fill="midnightblue" stroke="midnightblue" points="317.474,-73.055 307.111,-75.2625 316.588,-79.9989 317.474,-73.055"/>
</g>
<!-- Node17&#45;&gt;Node13 -->
<g id="edge30" class="edge"><title>Node17&#45;&gt;Node13</title>
<path fill="none" stroke="midnightblue" d="M1253.57,-235.444C1301.85,-225.964 1379.71,-210.675 1431.61,-200.483"/>
<polygon fill="midnightblue" stroke="midnightblue" points="1432.49,-203.878 1441.63,-198.516 1431.14,-197.009 1432.49,-203.878"/>
</g>
<!-- Node17&#45;&gt;Node16 -->
<g id="edge35" class="edge"><title>Node17&#45;&gt;Node16</title>
<path fill="none" stroke="midnightblue" d="M1224.53,-254.658C1234.8,-262.407 1248.28,-274.088 1258.98,-284.3"/>
<polygon fill="midnightblue" stroke="midnightblue" points="1256.61,-286.883 1266.2,-291.399 1261.52,-281.892 1256.61,-286.883"/>
</g>
<!-- Node18 -->
<g id="node18" class="node"><title>Node18</title>
<polygon fill="white" stroke="#bfbfbf" points="1639,-123.5 1639,-142.5 1699,-142.5 1699,-123.5 1639,-123.5"/>
<text text-anchor="middle" x="1669" y="-130.5" font-family="Helvetica,sans-Serif" font-size="10.00">dmlc/io.h</text>
</g>
<!-- Node17&#45;&gt;Node18 -->
<g id="edge27" class="edge"><title>Node17&#45;&gt;Node18</title>
<path fill="none" stroke="midnightblue" d="M1272.04,-238.417C1396.19,-227.175 1663.66,-202.576 1667,-199 1678.3,-186.907 1677.32,-167.343 1674.41,-152.834"/>
<polygon fill="midnightblue" stroke="midnightblue" points="1677.76,-151.811 1671.98,-142.931 1670.96,-153.477 1677.76,-151.811"/>
</g>
<!-- Node17&#45;&gt;Node19 -->
<g id="edge31" class="edge"><title>Node17&#45;&gt;Node19</title>
<path fill="none" stroke="midnightblue" d="M1205.71,-235.083C1202.15,-227.691 1196.98,-216.953 1192.58,-207.811"/>
<polygon fill="midnightblue" stroke="midnightblue" points="1195.71,-206.243 1188.21,-198.751 1189.4,-209.279 1195.71,-206.243"/>
</g>
<!-- Node17&#45;&gt;Node20 -->
<g id="edge32" class="edge"><title>Node17&#45;&gt;Node20</title>
<path fill="none" stroke="midnightblue" d="M1147.7,-239.241C1076.63,-233.165 956.877,-220.957 845.709,-199.095"/>
<polygon fill="midnightblue" stroke="midnightblue" points="846.16,-195.616 835.668,-197.089 844.789,-202.48 846.16,-195.616"/>
</g>
<!-- Node21 -->
<g id="node21" class="node"><title>Node21</title>
<polygon fill="white" stroke="#bfbfbf" points="853.5,-179.5 853.5,-198.5 946.5,-198.5 946.5,-179.5 853.5,-179.5"/>
<text text-anchor="middle" x="900" y="-186.5" font-family="Helvetica,sans-Serif" font-size="10.00">unordered_map</text>
</g>
<!-- Node17&#45;&gt;Node21 -->
<g id="edge34" class="edge"><title>Node17&#45;&gt;Node21</title>
<path fill="none" stroke="midnightblue" d="M1160.88,-235.444C1105.4,-225.779 1015.24,-210.074 956.782,-199.891"/>
<polygon fill="midnightblue" stroke="midnightblue" points="957.062,-196.387 946.61,-198.119 955.861,-203.283 957.062,-196.387"/>
</g>
<!-- Node22&#45;&gt;Node2 -->
<g id="edge38" class="edge"><title>Node22&#45;&gt;Node2</title>
<path fill="none" stroke="midnightblue" d="M1452.88,-235.463C1415.66,-226.417 1355.19,-211.712 1303,-199 1266.55,-190.122 1257.85,-185.996 1221,-179 1131.57,-162.025 1027.3,-148.871 960.518,-141.282"/>
<polygon fill="midnightblue" stroke="midnightblue" points="960.866,-137.799 950.537,-140.158 960.082,-144.755 960.866,-137.799"/>
</g>
<!-- Node22&#45;&gt;Node4 -->
<g id="edge37" class="edge"><title>Node22&#45;&gt;Node4</title>
<path fill="none" stroke="midnightblue" d="M1549.58,-236.633C1654.36,-224.082 1856.27,-199.817 1858,-199 1908.89,-174.998 1952.85,-123.927 1975.23,-94.5452"/>
<polygon fill="midnightblue" stroke="midnightblue" points="1978.04,-96.6335 1981.21,-86.5252 1972.43,-92.4479 1978.04,-96.6335"/>
</g>
<!-- Node22&#45;&gt;Node10 -->
<g id="edge46" class="edge"><title>Node22&#45;&gt;Node10</title>
<path fill="none" stroke="midnightblue" d="M1467.2,-235.477C1446.58,-226.85 1414.2,-212.844 1387,-199 1326.67,-168.295 1319.04,-144.957 1255,-123 1137.22,-82.6171 987.409,-74.464 923.347,-72.8638"/>
<polygon fill="midnightblue" stroke="midnightblue" points="923.184,-69.3597 913.112,-72.6469 923.036,-76.3581 923.184,-69.3597"/>
</g>
<!-- Node22&#45;&gt;Node11 -->
<g id="edge44" class="edge"><title>Node22&#45;&gt;Node11</title>
<path fill="none" stroke="midnightblue" d="M1471.03,-235.34C1455.17,-226.932 1431.13,-213.364 1412,-199 1372.52,-169.358 1373,-148.944 1331,-123 1298.92,-103.185 1257.87,-89.3485 1229.11,-81.232"/>
<polygon fill="midnightblue" stroke="midnightblue" points="1229.67,-77.7582 1219.1,-78.5 1227.83,-84.5109 1229.67,-77.7582"/>
</g>
<!-- Node22&#45;&gt;Node20 -->
<g id="edge45" class="edge"><title>Node22&#45;&gt;Node20</title>
<path fill="none" stroke="midnightblue" d="M1426.34,-238.799C1410.59,-237.513 1393.67,-236.169 1378,-235 1144.03,-217.543 1080.15,-238.82 845.498,-198.932"/>
<polygon fill="midnightblue" stroke="midnightblue" points="846.089,-195.482 835.64,-197.237 844.903,-202.381 846.089,-195.482"/>
</g>
<!-- Node23 -->
<g id="node23" class="node"><title>Node23</title>
<g id="a_node23"><a xlink:href="serializer_8h.html" target="_top" xlink:title="Serializer extension to support TVM data types Include this file to enable serialization of DLDataTyp...">
<polygon fill="white" stroke="black" points="1719,-179.5 1719,-198.5 1849,-198.5 1849,-179.5 1719,-179.5"/>
<text text-anchor="middle" x="1784" y="-186.5" font-family="Helvetica,sans-Serif" font-size="10.00">tvm/runtime/serializer.h</text>
</a>
</g>
</g>
<!-- Node22&#45;&gt;Node23 -->
<g id="edge39" class="edge"><title>Node22&#45;&gt;Node23</title>
<path fill="none" stroke="midnightblue" d="M1529.81,-235.444C1580.01,-225.905 1664.42,-210.483 1722.14,-200.293"/>
<polygon fill="midnightblue" stroke="midnightblue" points="1723,-203.697 1732.24,-198.516 1721.78,-196.803 1723,-203.697"/>
</g>
<!-- Node23&#45;&gt;Node4 -->
<g id="edge42" class="edge"><title>Node23&#45;&gt;Node4</title>
<path fill="none" stroke="midnightblue" d="M1792.55,-179.402C1806.35,-165.906 1834.84,-139.581 1863,-123 1885.7,-109.637 1912.58,-98.4175 1935.84,-89.9739"/>
<polygon fill="midnightblue" stroke="midnightblue" points="1937.31,-93.1671 1945.57,-86.527 1934.97,-86.5694 1937.31,-93.1671"/>
</g>
<!-- Node23&#45;&gt;Node18 -->
<g id="edge40" class="edge"><title>Node23&#45;&gt;Node18</title>
<path fill="none" stroke="midnightblue" d="M1765.78,-179.444C1747.1,-170.675 1717.84,-156.935 1696.38,-146.858"/>
<polygon fill="midnightblue" stroke="midnightblue" points="1697.68,-143.599 1687.14,-142.516 1694.7,-149.935 1697.68,-143.599"/>
</g>
<!-- Node23&#45;&gt;Node22 -->
<g id="edge43" class="edge"><title>Node23&#45;&gt;Node22</title>
<path fill="none" stroke="midnightblue" d="M1742.4,-198.516C1692.3,-208.039 1607.89,-223.459 1550.1,-233.664"/>
<polygon fill="midnightblue" stroke="midnightblue" points="1549.23,-230.263 1539.99,-235.444 1550.45,-237.157 1549.23,-230.263"/>
</g>
<!-- Node24 -->
<g id="node24" class="node"><title>Node24</title>
<polygon fill="white" stroke="#bfbfbf" points="1717,-123.5 1717,-142.5 1811,-142.5 1811,-123.5 1717,-123.5"/>
<text text-anchor="middle" x="1764" y="-130.5" font-family="Helvetica,sans-Serif" font-size="10.00">dmlc/serializer.h</text>
</g>
<!-- Node23&#45;&gt;Node24 -->
<g id="edge41" class="edge"><title>Node23&#45;&gt;Node24</title>
<path fill="none" stroke="midnightblue" d="M1780.7,-179.083C1778.02,-171.849 1774.15,-161.409 1770.81,-152.397"/>
<polygon fill="midnightblue" stroke="midnightblue" points="1774,-150.913 1767.24,-142.751 1767.43,-153.344 1774,-150.913"/>
</g>
<!-- Node25&#45;&gt;Node3 -->
<g id="edge49" class="edge"><title>Node25&#45;&gt;Node3</title>
<path fill="none" stroke="midnightblue" d="M1719.86,-237.401C1644.37,-229.728 1519.15,-215.927 1412,-199 1188.28,-163.657 923.665,-106.784 817.051,-83.2392"/>
<polygon fill="midnightblue" stroke="midnightblue" points="817.753,-79.81 807.233,-81.0666 816.24,-86.6447 817.753,-79.81"/>
</g>
<!-- Node25&#45;&gt;Node4 -->
<g id="edge48" class="edge"><title>Node25&#45;&gt;Node4</title>
<path fill="none" stroke="midnightblue" d="M1856.09,-239.094C1912.54,-233.443 1986.42,-221.828 2005,-199 2028.6,-170.001 2014.88,-124.067 2002.87,-96.257"/>
<polygon fill="midnightblue" stroke="midnightblue" points="2005.94,-94.5378 1998.6,-86.8963 1999.57,-97.4464 2005.94,-94.5378"/>
</g>
<!-- Node25&#45;&gt;Node8 -->
<g id="edge50" class="edge"><title>Node25&#45;&gt;Node8</title>
<path fill="none" stroke="midnightblue" d="M1757.68,-235.425C1700.81,-217.876 1587.55,-175.094 1630,-123 1654.82,-92.5443 1766.93,-79.9132 1830.55,-75.1241"/>
<polygon fill="midnightblue" stroke="midnightblue" points="1830.98,-78.6026 1840.7,-74.3955 1830.48,-71.6205 1830.98,-78.6026"/>
</g>
<!-- Node29&#45;&gt;Node9 -->
<g id="edge80" class="edge"><title>Node29&#45;&gt;Node9</title>
<path fill="none" stroke="midnightblue" d="M791.908,-414.409C725.22,-388.218 581.969,-328.012 474,-255 443.241,-234.2 438.94,-224.554 412,-199 371.024,-160.132 324.319,-112.797 300.601,-88.5345"/>
<polygon fill="midnightblue" stroke="midnightblue" points="302.969,-85.9497 293.481,-81.2363 297.959,-90.8382 302.969,-85.9497"/>
</g>
<!-- Node29&#45;&gt;Node25 -->
<g id="edge63" class="edge"><title>Node29&#45;&gt;Node25</title>
<path fill="none" stroke="midnightblue" d="M884.508,-423.497C962.648,-416.016 1109.36,-400.361 1233,-378 1427.69,-342.788 1656.48,-282.155 1747.6,-257.214"/>
<polygon fill="midnightblue" stroke="midnightblue" points="1748.54,-260.585 1757.26,-254.563 1746.69,-253.835 1748.54,-260.585"/>
</g>
<!-- Node30 -->
<g id="node30" class="node"><title>Node30</title>
<g id="a_node30"><a xlink:href="functor_8h.html" target="_top" xlink:title="Defines the Functor data structures. ">
<polygon fill="white" stroke="black" points="560.5,-235.5 560.5,-254.5 667.5,-254.5 667.5,-235.5 560.5,-235.5"/>
<text text-anchor="middle" x="614" y="-242.5" font-family="Helvetica,sans-Serif" font-size="10.00">tvm/node/functor.h</text>
</a>
</g>
</g>
<!-- Node29&#45;&gt;Node30 -->
<g id="edge64" class="edge"><title>Node29&#45;&gt;Node30</title>
<path fill="none" stroke="midnightblue" d="M812.486,-414.483C773.012,-380.975 673.416,-296.434 632.245,-261.487"/>
<polygon fill="midnightblue" stroke="midnightblue" points="634.278,-258.622 624.389,-254.819 629.748,-263.958 634.278,-258.622"/>
</g>
<!-- Node29&#45;&gt;Node31 -->
<g id="edge70" class="edge"><title>Node29&#45;&gt;Node31</title>
<path fill="none" stroke="midnightblue" d="M854.831,-414.399C872.467,-404.773 895.7,-392.09 913.128,-382.577"/>
<polygon fill="midnightblue" stroke="midnightblue" points="915.039,-385.521 922.14,-377.658 911.685,-379.377 915.039,-385.521"/>
</g>
<!-- Node30&#45;&gt;Node2 -->
<g id="edge66" class="edge"><title>Node30&#45;&gt;Node2</title>
<path fill="none" stroke="midnightblue" d="M623.691,-235.472C639.97,-221.587 674.34,-194.13 708,-179 744.876,-162.425 788.77,-151.391 824.436,-144.4"/>
<polygon fill="midnightblue" stroke="midnightblue" points="825.093,-147.837 834.264,-142.534 823.787,-140.96 825.093,-147.837"/>
</g>
<!-- Node30&#45;&gt;Node3 -->
<g id="edge65" class="edge"><title>Node30&#45;&gt;Node3</title>
<path fill="none" stroke="midnightblue" d="M596.076,-235.358C574.298,-223.622 542.085,-201.514 556,-179 590.743,-122.784 665.141,-95.2491 716.128,-82.4954"/>
<polygon fill="midnightblue" stroke="midnightblue" points="717.082,-85.866 725.994,-80.1376 715.455,-79.0577 717.082,-85.866"/>
</g>
<!-- Node30&#45;&gt;Node8 -->
<g id="edge68" class="edge"><title>Node30&#45;&gt;Node8</title>
<path fill="none" stroke="midnightblue" d="M631.299,-235.314C660.783,-220.942 723.022,-192.466 779,-179 984.477,-129.572 1652.54,-86.083 1830.89,-75.143"/>
<polygon fill="midnightblue" stroke="midnightblue" points="1831.19,-78.6313 1840.96,-74.5282 1830.76,-71.6443 1831.19,-78.6313"/>
</g>
<!-- Node30&#45;&gt;Node10 -->
<g id="edge69" class="edge"><title>Node30&#45;&gt;Node10</title>
<path fill="none" stroke="midnightblue" d="M606.85,-235.25C596.953,-222.009 581.623,-196.566 594,-179 625.754,-133.931 790.875,-94.0712 860.734,-78.9531"/>
<polygon fill="midnightblue" stroke="midnightblue" points="861.659,-82.3343 870.708,-76.8231 860.198,-75.4887 861.659,-82.3343"/>
</g>
<!-- Node30&#45;&gt;Node20 -->
<g id="edge67" class="edge"><title>Node30&#45;&gt;Node20</title>
<path fill="none" stroke="midnightblue" d="M645.374,-235.444C681.655,-225.549 741.147,-209.323 778.362,-199.174"/>
<polygon fill="midnightblue" stroke="midnightblue" points="779.504,-202.491 788.23,-196.483 777.662,-195.737 779.504,-202.491"/>
</g>
<!-- Node31&#45;&gt;Node2 -->
<g id="edge71" class="edge"><title>Node31&#45;&gt;Node2</title>
<path fill="none" stroke="midnightblue" d="M938.073,-358.365C937.746,-342.987 934.929,-310.632 918,-291 891.474,-260.24 867.531,-277.923 834,-255 805.201,-235.312 792.205,-231.29 779,-199 767.588,-171.093 798.653,-154.629 831.078,-145.255"/>
<polygon fill="midnightblue" stroke="midnightblue" points="832.38,-148.53 841.139,-142.569 830.574,-141.767 832.38,-148.53"/>
</g>
<!-- Node31&#45;&gt;Node8 -->
<g id="edge74" class="edge"><title>Node31&#45;&gt;Node8</title>
<path fill="none" stroke="midnightblue" d="M997.62,-361.355C1115.63,-350.118 1368.38,-325.711 1377,-322 1396.39,-313.651 1394.01,-300.239 1413,-291 1424.86,-285.226 1869.22,-207.853 1879,-199 1904.67,-175.777 1902.78,-156.943 1896,-123 1893.73,-111.649 1888.86,-99.6568 1884.38,-90.2084"/>
<polygon fill="midnightblue" stroke="midnightblue" points="1887.43,-88.474 1879.82,-81.1049 1881.17,-91.6127 1887.43,-88.474"/>
</g>
<!-- Node31&#45;&gt;Node9 -->
<g id="edge79" class="edge"><title>Node31&#45;&gt;Node9</title>
<path fill="none" stroke="midnightblue" d="M878.189,-360.004C792.525,-348.117 631.804,-318.766 510,-255 430.136,-213.19 427.025,-178.515 356,-123 339.771,-110.315 320.719,-96.8366 306.438,-86.9977"/>
<polygon fill="midnightblue" stroke="midnightblue" points="308.05,-83.8599 297.82,-81.1026 304.098,-89.6374 308.05,-83.8599"/>
</g>
<!-- Node31&#45;&gt;Node10 -->
<g id="edge78" class="edge"><title>Node31&#45;&gt;Node10</title>
<path fill="none" stroke="midnightblue" d="M878.286,-359.346C852.849,-353.185 824.775,-342.066 806,-322 767.329,-280.671 780.397,-255.115 773,-199 771.838,-190.187 769.791,-187.289 773,-179 785.153,-147.607 799.037,-145.585 824,-123 838.67,-109.727 856.7,-96.4585 870.508,-86.8546"/>
<polygon fill="midnightblue" stroke="midnightblue" points="872.623,-89.6487 878.894,-81.1096 868.666,-83.8738 872.623,-89.6487"/>
</g>
<!-- Node31&#45;&gt;Node13 -->
<g id="edge72" class="edge"><title>Node31&#45;&gt;Node13</title>
<path fill="none" stroke="midnightblue" d="M997.796,-363.976C1094.28,-358.487 1279.7,-345.248 1341,-322 1363.37,-313.517 1363.06,-300.524 1385,-291 1457.04,-259.733 1508.45,-315.928 1558,-255 1574.59,-234.598 1544.35,-215.078 1517.89,-202.848"/>
<polygon fill="midnightblue" stroke="midnightblue" points="1518.97,-199.5 1508.41,-198.684 1516.15,-205.909 1518.97,-199.5"/>
</g>
<!-- Node31&#45;&gt;Node16 -->
<g id="edge73" class="edge"><title>Node31&#45;&gt;Node16</title>
<path fill="none" stroke="midnightblue" d="M986.427,-358.475C1044.91,-348.181 1143.57,-330.812 1209.24,-319.252"/>
<polygon fill="midnightblue" stroke="midnightblue" points="1210.25,-322.629 1219.49,-317.448 1209.03,-315.735 1210.25,-322.629"/>
</g>
<!-- Node31&#45;&gt;Node20 -->
<g id="edge75" class="edge"><title>Node31&#45;&gt;Node20</title>
<path fill="none" stroke="midnightblue" d="M883.097,-358.494C860.942,-352.175 837.285,-341.167 823,-322 798.12,-288.616 802.93,-236.428 807.879,-208.732"/>
<polygon fill="midnightblue" stroke="midnightblue" points="811.338,-209.283 809.855,-198.792 804.472,-207.918 811.338,-209.283"/>
</g>
<!-- Node31&#45;&gt;Node21 -->
<g id="edge77" class="edge"><title>Node31&#45;&gt;Node21</title>
<path fill="none" stroke="midnightblue" d="M942.907,-358.146C950.312,-343.518 962.427,-313.672 952,-291 941.727,-268.664 921.946,-276.488 910,-255 902.112,-240.811 899.901,-222.332 899.495,-208.705"/>
<polygon fill="midnightblue" stroke="midnightblue" points="902.995,-208.6 899.493,-198.601 895.995,-208.602 902.995,-208.6"/>
</g>
<!-- Node32 -->
<g id="node32" class="node"><title>Node32</title>
<polygon fill="white" stroke="#bfbfbf" points="832.5,-297 832.5,-316 909.5,-316 909.5,-297 832.5,-297"/>
<text text-anchor="middle" x="871" y="-304" font-family="Helvetica,sans-Serif" font-size="10.00">initializer_list</text>
</g>
<!-- Node31&#45;&gt;Node32 -->
<g id="edge76" class="edge"><title>Node31&#45;&gt;Node32</title>
<path fill="none" stroke="midnightblue" d="M928.401,-358.475C917.952,-349.197 901.032,-334.171 888.264,-322.831"/>
<polygon fill="midnightblue" stroke="midnightblue" points="890.383,-320.032 880.582,-316.009 885.735,-325.266 890.383,-320.032"/>
</g>
<!-- Node33&#45;&gt;Node9 -->
<g id="edge85" class="edge"><title>Node33&#45;&gt;Node9</title>
<path fill="none" stroke="midnightblue" d="M657.398,-414.469C579.405,-386.518 413.816,-316.275 328,-199 303.658,-165.735 292.391,-117.698 287.776,-91.426"/>
<polygon fill="midnightblue" stroke="midnightblue" points="291.192,-90.6253 286.143,-81.3109 284.281,-91.7409 291.192,-90.6253"/>
</g>
<!-- Node33&#45;&gt;Node25 -->
<g id="edge82" class="edge"><title>Node33&#45;&gt;Node25</title>
<path fill="none" stroke="midnightblue" d="M755.792,-415.577C758.563,-415.024 761.311,-414.494 764,-414 1050.53,-361.325 1129.88,-390.682 1413,-322 1453.71,-312.125 1461.37,-301.185 1502,-291 1541.21,-281.171 1644.04,-265.93 1715.08,-255.957"/>
<polygon fill="midnightblue" stroke="midnightblue" points="1715.9,-259.376 1725.32,-254.525 1714.93,-252.444 1715.9,-259.376"/>
</g>
<!-- Node33&#45;&gt;Node26 -->
<g id="edge86" class="edge"><title>Node33&#45;&gt;Node26</title>
<path fill="none" stroke="midnightblue" d="M708.591,-414.421C726.365,-386.509 769.977,-324.005 823,-291 859.62,-268.205 907.986,-256.711 942.115,-251.078"/>
<polygon fill="midnightblue" stroke="midnightblue" points="942.876,-254.502 952.222,-249.513 941.804,-247.585 942.876,-254.502"/>
</g>
<!-- Node33&#45;&gt;Node30 -->
<g id="edge83" class="edge"><title>Node33&#45;&gt;Node30</title>
<path fill="none" stroke="midnightblue" d="M678.181,-414.42C652.939,-396.551 613.158,-363.06 600,-322 593.812,-302.692 599.809,-279.695 605.761,-264.093"/>
<polygon fill="midnightblue" stroke="midnightblue" points="609.098,-265.185 609.724,-254.609 602.639,-262.486 609.098,-265.185"/>
</g>
<!-- Node33&#45;&gt;Node31 -->
<g id="edge84" class="edge"><title>Node33&#45;&gt;Node31</title>
<path fill="none" stroke="midnightblue" d="M755.5,-414.625C797.614,-404.096 854.734,-389.816 893.786,-380.054"/>
<polygon fill="midnightblue" stroke="midnightblue" points="894.946,-383.371 903.799,-377.55 893.248,-376.58 894.946,-383.371"/>
</g>
<!-- Node34&#45;&gt;Node30 -->
<g id="edge91" class="edge"><title>Node34&#45;&gt;Node30</title>
<path fill="none" stroke="midnightblue" d="M506.838,-481.185C498.092,-472.87 486.1,-459.539 481,-445 476.439,-431.999 476.473,-427.013 481,-414 503.906,-348.164 564.537,-288.698 595.394,-261.549"/>
<polygon fill="midnightblue" stroke="midnightblue" points="597.966,-263.953 603.251,-254.77 593.393,-258.652 597.966,-263.953"/>
</g>
<!-- Node35 -->
<g id="node35" class="node"><title>Node35</title>
<polygon fill="white" stroke="#bfbfbf" points="490.5,-420 490.5,-439 549.5,-439 549.5,-420 490.5,-420"/>
<text text-anchor="middle" x="520" y="-427" font-family="Helvetica,sans-Serif" font-size="10.00">iostream</text>
</g>
<!-- Node34&#45;&gt;Node35 -->
<g id="edge92" class="edge"><title>Node34&#45;&gt;Node35</title>
<path fill="none" stroke="midnightblue" d="M517.43,-481.475C517.853,-473.08 518.514,-459.981 519.059,-449.163"/>
<polygon fill="midnightblue" stroke="midnightblue" points="522.563,-449.173 519.571,-439.009 515.572,-448.82 522.563,-449.173"/>
</g>
<!-- Node36&#45;&gt;Node2 -->
<g id="edge102" class="edge"><title>Node36&#45;&gt;Node2</title>
<path fill="none" stroke="midnightblue" d="M690.333,-712.098C586.605,-705.948 310,-682.216 310,-604 310,-604 310,-604 310,-546 310,-339.482 407.024,-264.526 595,-179 668.181,-145.704 760.932,-136.191 823.142,-133.891"/>
<polygon fill="midnightblue" stroke="midnightblue" points="823.355,-137.386 833.239,-133.571 823.133,-130.389 823.355,-137.386"/>
</g>
<!-- Node36&#45;&gt;Node8 -->
<g id="edge119" class="edge"><title>Node36&#45;&gt;Node8</title>
<path fill="none" stroke="midnightblue" d="M767.788,-712.343C869.136,-707.796 1150.15,-693.78 1383,-669 1556.25,-650.563 1600.35,-648.155 1771,-613 1941.28,-577.92 2143,-665.86 2143,-492 2143,-492 2143,-492 2143,-244 2143,-160.745 2071.28,-166.026 2000,-123 1984.09,-113.395 1939.81,-96.2724 1908.49,-84.6558"/>
<polygon fill="midnightblue" stroke="midnightblue" points="1909.42,-81.2687 1898.83,-81.0942 1907,-87.8367 1909.42,-81.2687"/>
</g>
<!-- Node36&#45;&gt;Node9 -->
<g id="edge116" class="edge"><title>Node36&#45;&gt;Node9</title>
<path fill="none" stroke="midnightblue" d="M690.152,-712.645C581.032,-708.552 273.374,-694.976 176,-669 110.494,-651.525 38,-671.796 38,-604 38,-604 38,-604 38,-188 38,-94.3111 185.626,-76.4515 252.62,-73.1702"/>
<polygon fill="midnightblue" stroke="midnightblue" points="252.796,-76.666 262.645,-72.7594 252.51,-69.6719 252.796,-76.666"/>
</g>
<!-- Node36&#45;&gt;Node12 -->
<g id="edge103" class="edge"><title>Node36&#45;&gt;Node12</title>
<path fill="none" stroke="midnightblue" d="M726.921,-705.406C724.777,-696.375 721.413,-681.738 719,-669 712.164,-632.911 705.903,-590.435 702.553,-566.622"/>
<polygon fill="midnightblue" stroke="midnightblue" points="705.995,-565.964 701.153,-556.54 699.062,-566.927 705.995,-565.964"/>
</g>
<!-- Node36&#45;&gt;Node28 -->
<g id="edge118" class="edge"><title>Node36&#45;&gt;Node28</title>
<path fill="none" stroke="midnightblue" d="M767.554,-711.602C983.072,-697.696 2029,-623.438 2029,-492 2029,-492 2029,-492 2029,-428.5 2029,-365.794 1998.87,-295.926 1983.21,-263.856"/>
<polygon fill="midnightblue" stroke="midnightblue" points="1986.3,-262.204 1978.69,-254.829 1980.04,-265.338 1986.3,-262.204"/>
</g>
<!-- Node36&#45;&gt;Node31 -->
<g id="edge104" class="edge"><title>Node36&#45;&gt;Node31</title>
<path fill="none" stroke="midnightblue" d="M767.644,-706.073C840.072,-690.099 989,-651.481 989,-604 989,-604 989,-604 989,-490 989,-450.305 965.405,-408.63 950.313,-386.033"/>
<polygon fill="midnightblue" stroke="midnightblue" points="953.029,-383.807 944.459,-377.578 947.274,-387.792 953.029,-383.807"/>
</g>
<!-- Node37 -->
<g id="node37" class="node"><title>Node37</title>
<g id="a_node37"><a xlink:href="span_8h.html" target="_top" xlink:title="Span information for debugging purposes. ">
<polygon fill="white" stroke="black" points="126,-593.5 126,-612.5 206,-612.5 206,-593.5 126,-593.5"/>
<text text-anchor="middle" x="166" y="-600.5" font-family="Helvetica,sans-Serif" font-size="10.00">tvm/ir/span.h</text>
</a>
</g>
</g>
<!-- Node36&#45;&gt;Node37 -->
<g id="edge105" class="edge"><title>Node36&#45;&gt;Node37</title>
<path fill="none" stroke="midnightblue" d="M690.251,-712.988C574.23,-709.648 235.153,-697.521 195,-669 179.922,-658.29 172.562,-637.885 169.049,-622.782"/>
<polygon fill="midnightblue" stroke="midnightblue" points="172.477,-622.075 167.116,-612.937 165.608,-623.424 172.477,-622.075"/>
</g>
<!-- Node36&#45;&gt;Node38 -->
<g id="edge109" class="edge"><title>Node36&#45;&gt;Node38</title>
<path fill="none" stroke="midnightblue" d="M690.379,-710.83C614.581,-704.423 441.084,-688.836 296,-669 294.7,-668.822 293.382,-668.637 292.053,-668.445"/>
<polygon fill="midnightblue" stroke="midnightblue" points="292.156,-664.92 281.743,-666.876 291.102,-671.841 292.156,-664.92"/>
</g>
<!-- Node39 -->
<g id="node39" class="node"><title>Node39</title>
<polygon fill="white" stroke="#bfbfbf" points="728,-649.5 728,-668.5 790,-668.5 790,-649.5 728,-649.5"/>
<text text-anchor="middle" x="759" y="-656.5" font-family="Helvetica,sans-Serif" font-size="10.00">algorithm</text>
</g>
<!-- Node36&#45;&gt;Node39 -->
<g id="edge117" class="edge"><title>Node36&#45;&gt;Node39</title>
<path fill="none" stroke="midnightblue" d="M733.954,-705.083C738.104,-697.613 744.153,-686.724 749.267,-677.52"/>
<polygon fill="midnightblue" stroke="midnightblue" points="752.341,-679.192 754.138,-668.751 746.222,-675.793 752.341,-679.192"/>
</g>
<!-- Node37&#45;&gt;Node2 -->
<g id="edge106" class="edge"><title>Node37&#45;&gt;Node2</title>
<path fill="none" stroke="midnightblue" d="M164.17,-593.489C160.375,-575.075 152,-530.118 152,-492 152,-492 152,-492 152,-367 152,-293.399 190.502,-275.437 252,-235 345.162,-173.742 677.827,-146.792 823.193,-137.749"/>
<polygon fill="midnightblue" stroke="midnightblue" points="823.563,-141.233 833.33,-137.129 823.135,-134.246 823.563,-141.233"/>
</g>
<!-- Node37&#45;&gt;Node9 -->
<g id="edge108" class="edge"><title>Node37&#45;&gt;Node9</title>
<path fill="none" stroke="midnightblue" d="M158.55,-593.256C144.171,-575.454 114,-533.191 114,-492 114,-492 114,-492 114,-188 114,-121.61 203.609,-90.8136 253.092,-78.8691"/>
<polygon fill="midnightblue" stroke="midnightblue" points="254.029,-82.2451 262.995,-76.6004 252.466,-75.4219 254.029,-82.2451"/>
</g>
<!-- Node37&#45;&gt;Node12 -->
<g id="edge107" class="edge"><title>Node37&#45;&gt;Node12</title>
<path fill="none" stroke="midnightblue" d="M206.137,-597.941C299.304,-588.52 530.637,-565.127 640.392,-554.028"/>
<polygon fill="midnightblue" stroke="midnightblue" points="641.028,-557.481 650.625,-552.993 640.323,-550.517 641.028,-557.481"/>
</g>
<!-- Node38&#45;&gt;Node2 -->
<g id="edge110" class="edge"><title>Node38&#45;&gt;Node2</title>
<path fill="none" stroke="midnightblue" d="M241.823,-649.462C239.384,-630.994 234,-585.939 234,-548 234,-548 234,-548 234,-490 234,-362.383 268.584,-317.44 366,-235 420.957,-188.492 448.007,-195.859 518,-179 622.598,-153.806 747.211,-142.409 822.919,-137.481"/>
<polygon fill="midnightblue" stroke="midnightblue" points="823.511,-140.95 833.27,-136.827 823.07,-133.964 823.511,-140.95"/>
</g>
<!-- Node38&#45;&gt;Node9 -->
<g id="edge115" class="edge"><title>Node38&#45;&gt;Node9</title>
<path fill="none" stroke="midnightblue" d="M204.267,-650.388C154.934,-638.181 76,-609.103 76,-548 76,-548 76,-548 76,-188 76,-108.383 193.62,-83.2204 252.387,-75.6169"/>
<polygon fill="midnightblue" stroke="midnightblue" points="253.119,-79.0543 262.633,-74.3923 252.289,-72.1038 253.119,-79.0543"/>
</g>
<!-- Node38&#45;&gt;Node12 -->
<g id="edge112" class="edge"><title>Node38&#45;&gt;Node12</title>
<path fill="none" stroke="midnightblue" d="M278.48,-649.46C360.649,-629.682 563.907,-580.758 654.806,-558.878"/>
<polygon fill="midnightblue" stroke="midnightblue" points="655.64,-562.278 664.543,-556.535 654.001,-555.472 655.64,-562.278"/>
</g>
<!-- Node38&#45;&gt;Node25 -->
<g id="edge111" class="edge"><title>Node38&#45;&gt;Node25</title>
<path fill="none" stroke="midnightblue" d="M281.761,-656.473C375.651,-652.458 622.6,-639.999 827,-613 1094.2,-577.705 1160.02,-560.041 1423,-501 1518.93,-479.464 1555.24,-499.601 1637,-445 1708.84,-397.021 1760.31,-303.22 1779.61,-263.957"/>
<polygon fill="midnightblue" stroke="midnightblue" points="1782.83,-265.339 1784,-254.809 1776.52,-262.307 1782.83,-265.339"/>
</g>
<!-- Node38&#45;&gt;Node31 -->
<g id="edge113" class="edge"><title>Node38&#45;&gt;Node31</title>
<path fill="none" stroke="midnightblue" d="M281.568,-656.119C429.312,-648.407 951,-616.338 951,-548 951,-548 951,-548 951,-490 951,-453.687 945.14,-411.592 941.289,-387.847"/>
<polygon fill="midnightblue" stroke="midnightblue" points="944.704,-387.052 939.594,-377.771 937.801,-388.213 944.704,-387.052"/>
</g>
<!-- Node38&#45;&gt;Node37 -->
<g id="edge114" class="edge"><title>Node38&#45;&gt;Node37</title>
<path fill="none" stroke="midnightblue" d="M230.629,-649.324C218.842,-641.058 200.868,-628.453 186.864,-618.632"/>
<polygon fill="midnightblue" stroke="midnightblue" points="188.538,-615.531 178.341,-612.655 184.518,-621.262 188.538,-615.531"/>
</g>
</g>
</svg>
