<?xml version="1.0" encoding="UTF-8" standalone="no"?>
<!DOCTYPE svg PUBLIC "-//W3C//DTD SVG 1.1//EN"
 "http://www.w3.org/Graphics/SVG/1.1/DTD/svg11.dtd">
<!-- Generated by graphviz version 2.38.0 (20140413.2041)
 -->
<!-- Title: include/tvm/node/container.h Pages: 1 -->
<svg width="1427pt" height="386pt"
 viewBox="0.00 0.00 1426.50 386.00" xmlns="http://www.w3.org/2000/svg" xmlns:xlink="http://www.w3.org/1999/xlink">
<g id="graph0" class="graph" transform="scale(1 1) rotate(0) translate(4 382)">
<title>include/tvm/node/container.h</title>
<polygon fill="white" stroke="none" points="-4,4 -4,-382 1422.5,-382 1422.5,4 -4,4"/>
<!-- Node1 -->
<g id="node1" class="node"><title>Node1</title>
<polygon fill="#bfbfbf" stroke="black" points="679.5,-358.5 679.5,-377.5 834.5,-377.5 834.5,-358.5 679.5,-358.5"/>
<text text-anchor="middle" x="757" y="-365.5" font-family="Helvetica,sans-Serif" font-size="10.00">include/tvm/node/container.h</text>
</g>
<!-- Node2 -->
<g id="node2" class="node"><title>Node2</title>
<g id="a_node2"><a xlink:href="object_8h.html" target="_top" xlink:title="A managed object in the TVM runtime. ">
<polygon fill="white" stroke="black" points="322.5,-123.5 322.5,-142.5 439.5,-142.5 439.5,-123.5 322.5,-123.5"/>
<text text-anchor="middle" x="381" y="-130.5" font-family="Helvetica,sans-Serif" font-size="10.00">tvm/runtime/object.h</text>
</a>
</g>
</g>
<!-- Node1&#45;&gt;Node2 -->
<g id="edge1" class="edge"><title>Node1&#45;&gt;Node2</title>
<path fill="none" stroke="midnightblue" d="M693.452,-358.455C591.66,-343.32 399.361,-308.286 359,-255 335.783,-224.348 356.12,-176.94 370.221,-151.521"/>
<polygon fill="midnightblue" stroke="midnightblue" points="373.379,-153.053 375.39,-142.651 367.331,-149.529 373.379,-153.053"/>
</g>
<!-- Node8 -->
<g id="node8" class="node"><title>Node8</title>
<polygon fill="white" stroke="#bfbfbf" points="260,-62 260,-81 328,-81 328,-62 260,-62"/>
<text text-anchor="middle" x="294" y="-69" font-family="Helvetica,sans-Serif" font-size="10.00">type_traits</text>
</g>
<!-- Node1&#45;&gt;Node8 -->
<g id="edge53" class="edge"><title>Node1&#45;&gt;Node8</title>
<path fill="none" stroke="midnightblue" d="M679.09,-365.694C580.503,-362.734 405.953,-353.119 260,-322 158.004,-300.253 38,-350.288 38,-246 38,-246 38,-246 38,-188 38,-142.072 176.635,-101.192 249.863,-82.8028"/>
<polygon fill="midnightblue" stroke="midnightblue" points="250.874,-86.1584 259.74,-80.3591 249.192,-79.3633 250.874,-86.1584"/>
</g>
<!-- Node9 -->
<g id="node9" class="node"><title>Node9</title>
<polygon fill="white" stroke="#bfbfbf" points="1196,-62 1196,-81 1240,-81 1240,-62 1196,-62"/>
<text text-anchor="middle" x="1218" y="-69" font-family="Helvetica,sans-Serif" font-size="10.00">string</text>
</g>
<!-- Node1&#45;&gt;Node9 -->
<g id="edge58" class="edge"><title>Node1&#45;&gt;Node9</title>
<path fill="none" stroke="midnightblue" d="M834.602,-366.122C987.499,-362.283 1313,-342.75 1313,-246 1313,-246 1313,-246 1313,-188 1313,-143.018 1269.49,-106.021 1241.36,-86.8025"/>
<polygon fill="midnightblue" stroke="midnightblue" points="1243.12,-83.7713 1232.84,-81.2 1239.28,-89.6196 1243.12,-83.7713"/>
</g>
<!-- Node10 -->
<g id="node10" class="node"><title>Node10</title>
<polygon fill="white" stroke="#bfbfbf" points="131,-62 131,-81 173,-81 173,-62 131,-62"/>
<text text-anchor="middle" x="152" y="-69" font-family="Helvetica,sans-Serif" font-size="10.00">utility</text>
</g>
<!-- Node1&#45;&gt;Node10 -->
<g id="edge57" class="edge"><title>Node1&#45;&gt;Node10</title>
<path fill="none" stroke="midnightblue" d="M679.299,-366.025C506.465,-363.292 101.204,-353.563 48,-322 13.6406,-301.617 0,-285.951 0,-246 0,-246 0,-246 0,-188 0,-127.734 76.6872,-94.8093 121.12,-80.7905"/>
<polygon fill="midnightblue" stroke="midnightblue" points="122.3,-84.0906 130.865,-77.8547 120.28,-77.3882 122.3,-84.0906"/>
</g>
<!-- Node12 -->
<g id="node12" class="node"><title>Node12</title>
<g id="a_node12"><a xlink:href="runtime_2memory_8h.html" target="_top" xlink:title="Runtime memory management. ">
<polygon fill="white" stroke="black" points="180.5,-179.5 180.5,-198.5 307.5,-198.5 307.5,-179.5 180.5,-179.5"/>
<text text-anchor="middle" x="244" y="-186.5" font-family="Helvetica,sans-Serif" font-size="10.00">tvm/runtime/memory.h</text>
</a>
</g>
</g>
<!-- Node1&#45;&gt;Node12 -->
<g id="edge11" class="edge"><title>Node1&#45;&gt;Node12</title>
<path fill="none" stroke="midnightblue" d="M679.421,-364.135C554.063,-358.833 317.898,-345.801 288,-322 253.13,-294.24 245.668,-237.927 244.22,-208.639"/>
<polygon fill="midnightblue" stroke="midnightblue" points="247.715,-208.423 243.911,-198.534 240.718,-208.637 247.715,-208.423"/>
</g>
<!-- Node14 -->
<g id="node14" class="node"><title>Node14</title>
<g id="a_node14"><a xlink:href="packed__func_8h.html" target="_top" xlink:title="Type&#45;erased function used across TVM API. ">
<polygon fill="white" stroke="black" points="700.5,-291.5 700.5,-321.5 813.5,-321.5 813.5,-291.5 700.5,-291.5"/>
<text text-anchor="start" x="708.5" y="-309.5" font-family="Helvetica,sans-Serif" font-size="10.00">tvm/runtime/packed</text>
<text text-anchor="middle" x="757" y="-298.5" font-family="Helvetica,sans-Serif" font-size="10.00">_func.h</text>
</a>
</g>
</g>
<!-- Node1&#45;&gt;Node14 -->
<g id="edge16" class="edge"><title>Node1&#45;&gt;Node14</title>
<path fill="none" stroke="midnightblue" d="M757,-358.475C757,-351.471 757,-341.192 757,-331.696"/>
<polygon fill="midnightblue" stroke="midnightblue" points="760.5,-331.523 757,-321.523 753.5,-331.523 760.5,-331.523"/>
</g>
<!-- Node18 -->
<g id="node18" class="node"><title>Node18</title>
<polygon fill="white" stroke="#bfbfbf" points="823.5,-179.5 823.5,-198.5 870.5,-198.5 870.5,-179.5 823.5,-179.5"/>
<text text-anchor="middle" x="847" y="-186.5" font-family="Helvetica,sans-Serif" font-size="10.00">vector</text>
</g>
<!-- Node1&#45;&gt;Node18 -->
<g id="edge54" class="edge"><title>Node1&#45;&gt;Node18</title>
<path fill="none" stroke="midnightblue" d="M815.987,-358.483C913.601,-343.05 1101.89,-307.153 1141,-255 1146.33,-247.889 1146.84,-241.7 1141,-235 1104.19,-192.782 951.802,-209.225 880.573,-198.795"/>
<polygon fill="midnightblue" stroke="midnightblue" points="881.132,-195.339 870.676,-197.051 879.917,-202.233 881.132,-195.339"/>
</g>
<!-- Node19 -->
<g id="node19" class="node"><title>Node19</title>
<polygon fill="white" stroke="#bfbfbf" points="963.5,-179.5 963.5,-198.5 1056.5,-198.5 1056.5,-179.5 963.5,-179.5"/>
<text text-anchor="middle" x="1010" y="-186.5" font-family="Helvetica,sans-Serif" font-size="10.00">unordered_map</text>
</g>
<!-- Node1&#45;&gt;Node19 -->
<g id="edge56" class="edge"><title>Node1&#45;&gt;Node19</title>
<path fill="none" stroke="midnightblue" d="M834.55,-364.593C896.552,-360.512 984.745,-349.801 1057,-322 1107.27,-302.656 1132.53,-302.465 1158,-255 1179.11,-215.673 1116.86,-200.123 1066.69,-193.985"/>
<polygon fill="midnightblue" stroke="midnightblue" points="1066.85,-190.481 1056.52,-192.846 1066.07,-197.438 1066.85,-190.481"/>
</g>
<!-- Node27 -->
<g id="node27" class="node"><title>Node27</title>
<polygon fill="white" stroke="#bfbfbf" points="1341.5,-297 1341.5,-316 1418.5,-316 1418.5,-297 1341.5,-297"/>
<text text-anchor="middle" x="1380" y="-304" font-family="Helvetica,sans-Serif" font-size="10.00">initializer_list</text>
</g>
<!-- Node1&#45;&gt;Node27 -->
<g id="edge55" class="edge"><title>Node1&#45;&gt;Node27</title>
<path fill="none" stroke="midnightblue" d="M834.561,-365.493C944.778,-362.309 1152.7,-352.444 1327,-322 1332.15,-321.1 1337.53,-319.92 1342.8,-318.621"/>
<polygon fill="midnightblue" stroke="midnightblue" points="1343.93,-321.944 1352.71,-316.02 1342.15,-315.173 1343.93,-321.944"/>
</g>
<!-- Node3 -->
<g id="node3" class="node"><title>Node3</title>
<polygon fill="white" stroke="#bfbfbf" points="825,-62 825,-81 911,-81 911,-62 825,-62"/>
<text text-anchor="middle" x="868" y="-69" font-family="Helvetica,sans-Serif" font-size="10.00">dmlc/logging.h</text>
</g>
<!-- Node2&#45;&gt;Node3 -->
<g id="edge2" class="edge"><title>Node2&#45;&gt;Node3</title>
<path fill="none" stroke="midnightblue" d="M439.851,-126.859C540.221,-117.919 740.401,-99.2875 810,-87 815.558,-86.0188 821.371,-84.8002 827.081,-83.4894"/>
<polygon fill="midnightblue" stroke="midnightblue" points="828.266,-86.8044 837.169,-81.0617 826.628,-79.9987 828.266,-86.8044"/>
</g>
<!-- Node4 -->
<g id="node4" class="node"><title>Node4</title>
<g id="a_node4"><a xlink:href="c__runtime__api_8h.html" target="_top" xlink:title="tvm/runtime/c_runtime\l_api.h">
<polygon fill="white" stroke="black" points="674.5,-56.5 674.5,-86.5 801.5,-86.5 801.5,-56.5 674.5,-56.5"/>
<text text-anchor="start" x="682.5" y="-74.5" font-family="Helvetica,sans-Serif" font-size="10.00">tvm/runtime/c_runtime</text>
<text text-anchor="middle" x="738" y="-63.5" font-family="Helvetica,sans-Serif" font-size="10.00">_api.h</text>
</a>
</g>
</g>
<!-- Node2&#45;&gt;Node4 -->
<g id="edge3" class="edge"><title>Node2&#45;&gt;Node4</title>
<path fill="none" stroke="midnightblue" d="M432.149,-123.475C492.975,-113.338 594.966,-96.339 664.298,-84.7836"/>
<polygon fill="midnightblue" stroke="midnightblue" points="664.993,-88.2162 674.282,-83.1197 663.842,-81.3114 664.993,-88.2162"/>
</g>
<!-- Node2&#45;&gt;Node8 -->
<g id="edge7" class="edge"><title>Node2&#45;&gt;Node8</title>
<path fill="none" stroke="midnightblue" d="M368.535,-123.475C354.581,-113.931 331.735,-98.3073 315.009,-86.8683"/>
<polygon fill="midnightblue" stroke="midnightblue" points="316.672,-83.7653 306.442,-81.0091 312.72,-89.5433 316.672,-83.7653"/>
</g>
<!-- Node2&#45;&gt;Node9 -->
<g id="edge8" class="edge"><title>Node2&#45;&gt;Node9</title>
<path fill="none" stroke="midnightblue" d="M439.581,-126.86C455.001,-125.553 471.624,-124.184 487,-123 757.116,-102.204 1083.7,-81.0599 1185.87,-74.5386"/>
<polygon fill="midnightblue" stroke="midnightblue" points="1186.1,-78.0308 1195.86,-73.9018 1185.66,-71.045 1186.1,-78.0308"/>
</g>
<!-- Node2&#45;&gt;Node10 -->
<g id="edge9" class="edge"><title>Node2&#45;&gt;Node10</title>
<path fill="none" stroke="midnightblue" d="M348.19,-123.475C304.088,-112.016 226.25,-91.792 183.062,-80.5706"/>
<polygon fill="midnightblue" stroke="midnightblue" points="183.683,-77.1158 173.124,-77.9885 181.922,-83.8908 183.683,-77.1158"/>
</g>
<!-- Node11 -->
<g id="node11" class="node"><title>Node11</title>
<polygon fill="white" stroke="#bfbfbf" points="399,-62 399,-81 449,-81 449,-62 399,-62"/>
<text text-anchor="middle" x="424" y="-69" font-family="Helvetica,sans-Serif" font-size="10.00">atomic</text>
</g>
<!-- Node2&#45;&gt;Node11 -->
<g id="edge10" class="edge"><title>Node2&#45;&gt;Node11</title>
<path fill="none" stroke="midnightblue" d="M387.161,-123.475C393.611,-114.55 403.904,-100.307 411.973,-89.1425"/>
<polygon fill="midnightblue" stroke="midnightblue" points="414.83,-91.1642 417.851,-81.0091 409.156,-87.064 414.83,-91.1642"/>
</g>
<!-- Node5 -->
<g id="node5" class="node"><title>Node5</title>
<polygon fill="white" stroke="#bfbfbf" points="603,-0.5 603,-19.5 693,-19.5 693,-0.5 603,-0.5"/>
<text text-anchor="middle" x="648" y="-7.5" font-family="Helvetica,sans-Serif" font-size="10.00">dlpack/dlpack.h</text>
</g>
<!-- Node4&#45;&gt;Node5 -->
<g id="edge4" class="edge"><title>Node4&#45;&gt;Node5</title>
<path fill="none" stroke="midnightblue" d="M716.671,-56.3993C702.515,-47.0402 683.989,-34.7924 669.747,-25.3771"/>
<polygon fill="midnightblue" stroke="midnightblue" points="671.368,-22.2531 661.096,-19.6578 667.507,-28.0923 671.368,-22.2531"/>
</g>
<!-- Node6 -->
<g id="node6" class="node"><title>Node6</title>
<polygon fill="white" stroke="#bfbfbf" points="711.5,-0.5 711.5,-19.5 764.5,-19.5 764.5,-0.5 711.5,-0.5"/>
<text text-anchor="middle" x="738" y="-7.5" font-family="Helvetica,sans-Serif" font-size="10.00">stdint.h</text>
</g>
<!-- Node4&#45;&gt;Node6 -->
<g id="edge5" class="edge"><title>Node4&#45;&gt;Node6</title>
<path fill="none" stroke="midnightblue" d="M738,-56.3993C738,-48.4664 738,-38.458 738,-29.8583"/>
<polygon fill="midnightblue" stroke="midnightblue" points="741.5,-29.6577 738,-19.6578 734.5,-29.6578 741.5,-29.6577"/>
</g>
<!-- Node7 -->
<g id="node7" class="node"><title>Node7</title>
<polygon fill="white" stroke="#bfbfbf" points="782.5,-0.5 782.5,-19.5 837.5,-19.5 837.5,-0.5 782.5,-0.5"/>
<text text-anchor="middle" x="810" y="-7.5" font-family="Helvetica,sans-Serif" font-size="10.00">stddef.h</text>
</g>
<!-- Node4&#45;&gt;Node7 -->
<g id="edge6" class="edge"><title>Node4&#45;&gt;Node7</title>
<path fill="none" stroke="midnightblue" d="M755.063,-56.3993C766.065,-47.3076 780.365,-35.4899 791.618,-26.1909"/>
<polygon fill="midnightblue" stroke="midnightblue" points="794.044,-28.726 799.523,-19.6578 789.585,-23.33 794.044,-28.726"/>
</g>
<!-- Node12&#45;&gt;Node2 -->
<g id="edge12" class="edge"><title>Node12&#45;&gt;Node2</title>
<path fill="none" stroke="midnightblue" d="M265.708,-179.444C288.355,-170.517 324.072,-156.439 349.752,-146.317"/>
<polygon fill="midnightblue" stroke="midnightblue" points="351.374,-149.44 359.394,-142.516 348.807,-142.927 351.374,-149.44"/>
</g>
<!-- Node12&#45;&gt;Node8 -->
<g id="edge15" class="edge"><title>Node12&#45;&gt;Node8</title>
<path fill="none" stroke="midnightblue" d="M251.091,-179.188C257.815,-170.455 267.786,-156.471 274,-143 281.737,-126.227 287.131,-105.803 290.351,-91.2646"/>
<polygon fill="midnightblue" stroke="midnightblue" points="293.866,-91.5513 292.471,-81.0488 287.012,-90.1292 293.866,-91.5513"/>
</g>
<!-- Node12&#45;&gt;Node10 -->
<g id="edge14" class="edge"><title>Node12&#45;&gt;Node10</title>
<path fill="none" stroke="midnightblue" d="M237.085,-179.319C221.834,-160.172 185.092,-114.044 165.247,-89.1306"/>
<polygon fill="midnightblue" stroke="midnightblue" points="167.963,-86.9233 158.995,-81.282 162.488,-91.2846 167.963,-86.9233"/>
</g>
<!-- Node13 -->
<g id="node13" class="node"><title>Node13</title>
<polygon fill="white" stroke="#bfbfbf" points="218.5,-123.5 218.5,-142.5 265.5,-142.5 265.5,-123.5 218.5,-123.5"/>
<text text-anchor="middle" x="242" y="-130.5" font-family="Helvetica,sans-Serif" font-size="10.00">cstdlib</text>
</g>
<!-- Node12&#45;&gt;Node13 -->
<g id="edge13" class="edge"><title>Node12&#45;&gt;Node13</title>
<path fill="none" stroke="midnightblue" d="M243.67,-179.083C243.408,-172.006 243.032,-161.861 242.703,-152.986"/>
<polygon fill="midnightblue" stroke="midnightblue" points="246.192,-152.615 242.324,-142.751 239.197,-152.874 246.192,-152.615"/>
</g>
<!-- Node14&#45;&gt;Node2 -->
<g id="edge44" class="edge"><title>Node14&#45;&gt;Node2</title>
<path fill="none" stroke="midnightblue" d="M700.403,-298.399C650.92,-291.069 577.69,-277.48 517,-255 513.969,-253.877 417.262,-201.308 415,-199 401.93,-185.664 392.678,-166.281 387.158,-152.153"/>
<polygon fill="midnightblue" stroke="midnightblue" points="390.375,-150.759 383.663,-142.561 383.798,-153.155 390.375,-150.759"/>
</g>
<!-- Node14&#45;&gt;Node3 -->
<g id="edge17" class="edge"><title>Node14&#45;&gt;Node3</title>
<path fill="none" stroke="midnightblue" d="M813.803,-302.107C915.427,-295.454 1119.77,-279.201 1141,-255 1215.25,-170.346 1012.43,-107.684 915.868,-83.4698"/>
<polygon fill="midnightblue" stroke="midnightblue" points="916.581,-80.0407 906.034,-81.0442 914.904,-86.837 916.581,-80.0407"/>
</g>
<!-- Node14&#45;&gt;Node4 -->
<g id="edge18" class="edge"><title>Node14&#45;&gt;Node4</title>
<path fill="none" stroke="midnightblue" d="M813.59,-299.88C863.826,-293.463 938.438,-280.382 999,-255 1045.43,-235.54 1111.12,-220.76 1083,-179 1046.03,-124.097 1007.99,-143.343 945,-123 901.353,-108.904 851.427,-96.6155 811.542,-87.6908"/>
<polygon fill="midnightblue" stroke="midnightblue" points="812.149,-84.2404 801.629,-85.4952 810.635,-91.0748 812.149,-84.2404"/>
</g>
<!-- Node14&#45;&gt;Node8 -->
<g id="edge52" class="edge"><title>Node14&#45;&gt;Node8</title>
<path fill="none" stroke="midnightblue" d="M700.115,-304.515C565.452,-300.807 233.732,-283.142 171,-199 136.899,-153.26 217.525,-107.117 263.99,-85.3679"/>
<polygon fill="midnightblue" stroke="midnightblue" points="265.687,-88.4407 273.333,-81.1062 262.782,-82.0719 265.687,-88.4407"/>
</g>
<!-- Node14&#45;&gt;Node9 -->
<g id="edge48" class="edge"><title>Node14&#45;&gt;Node9</title>
<path fill="none" stroke="midnightblue" d="M813.828,-305.745C912.413,-305.004 1109.54,-298.008 1161,-255 1210.85,-213.33 1217.79,-128.68 1218.3,-91.1436"/>
<polygon fill="midnightblue" stroke="midnightblue" points="1221.8,-91.1032 1218.29,-81.1066 1214.8,-91.1099 1221.8,-91.1032"/>
</g>
<!-- Node14&#45;&gt;Node10 -->
<g id="edge51" class="edge"><title>Node14&#45;&gt;Node10</title>
<path fill="none" stroke="midnightblue" d="M700.273,-304.758C580.247,-302.452 304.665,-293.048 220,-255 186.728,-240.048 175.587,-231.979 160,-199 143.365,-163.804 145.901,-116.843 149.055,-91.185"/>
<polygon fill="midnightblue" stroke="midnightblue" points="152.559,-91.4031 150.482,-81.0139 145.627,-90.4309 152.559,-91.4031"/>
</g>
<!-- Node15 -->
<g id="node15" class="node"><title>Node15</title>
<g id="a_node15"><a xlink:href="runtime_2module_8h.html" target="_top" xlink:title="Runtime container of the functions generated by TVM, This is used to support dynamically link...">
<polygon fill="white" stroke="black" points="695,-235.5 695,-254.5 819,-254.5 819,-235.5 695,-235.5"/>
<text text-anchor="middle" x="757" y="-242.5" font-family="Helvetica,sans-Serif" font-size="10.00">tvm/runtime/module.h</text>
</a>
</g>
</g>
<!-- Node14&#45;&gt;Node15 -->
<g id="edge19" class="edge"><title>Node14&#45;&gt;Node15</title>
<path fill="none" stroke="midnightblue" d="M751.16,-291.399C750.13,-283.377 749.974,-273.233 750.693,-264.569"/>
<polygon fill="midnightblue" stroke="midnightblue" points="754.16,-265.044 752.071,-254.658 747.227,-264.081 754.16,-265.044"/>
</g>
<!-- Node17 -->
<g id="node17" class="node"><title>Node17</title>
<polygon fill="white" stroke="#bfbfbf" points="888.5,-179.5 888.5,-198.5 945.5,-198.5 945.5,-179.5 888.5,-179.5"/>
<text text-anchor="middle" x="917" y="-186.5" font-family="Helvetica,sans-Serif" font-size="10.00">memory</text>
</g>
<!-- Node14&#45;&gt;Node17 -->
<g id="edge50" class="edge"><title>Node14&#45;&gt;Node17</title>
<path fill="none" stroke="midnightblue" d="M786.814,-291.338C805.151,-282.059 828.744,-269.072 848,-255 868.216,-240.227 888.773,-220.055 902.126,-206.12"/>
<polygon fill="midnightblue" stroke="midnightblue" points="904.786,-208.401 909.099,-198.724 899.693,-203.599 904.786,-208.401"/>
</g>
<!-- Node14&#45;&gt;Node18 -->
<g id="edge47" class="edge"><title>Node14&#45;&gt;Node18</title>
<path fill="none" stroke="midnightblue" d="M785.136,-291.465C799.853,-282.807 817.037,-270.406 828,-255 837.692,-241.38 842.479,-222.837 844.82,-209.042"/>
<polygon fill="midnightblue" stroke="midnightblue" points="848.336,-209.174 846.265,-198.783 841.404,-208.198 848.336,-209.174"/>
</g>
<!-- Node20 -->
<g id="node20" class="node"><title>Node20</title>
<g id="a_node20"><a xlink:href="ndarray_8h.html" target="_top" xlink:title="A device&#45;independent managed NDArray abstraction. ">
<polygon fill="white" stroke="black" points="526.5,-235.5 526.5,-254.5 649.5,-254.5 649.5,-235.5 526.5,-235.5"/>
<text text-anchor="middle" x="588" y="-242.5" font-family="Helvetica,sans-Serif" font-size="10.00">tvm/runtime/ndarray.h</text>
</a>
</g>
</g>
<!-- Node14&#45;&gt;Node20 -->
<g id="edge29" class="edge"><title>Node14&#45;&gt;Node20</title>
<path fill="none" stroke="midnightblue" d="M716.949,-291.399C688.088,-281.238 649.555,-267.672 622.147,-258.022"/>
<polygon fill="midnightblue" stroke="midnightblue" points="623.186,-254.677 612.591,-254.658 620.861,-261.28 623.186,-254.677"/>
</g>
<!-- Node23 -->
<g id="node23" class="node"><title>Node23</title>
<g id="a_node23"><a xlink:href="data__type_8h.html" target="_top" xlink:title="tvm/runtime/data_type.h">
<polygon fill="white" stroke="black" points="800,-123.5 800,-142.5 936,-142.5 936,-123.5 800,-123.5"/>
<text text-anchor="middle" x="868" y="-130.5" font-family="Helvetica,sans-Serif" font-size="10.00">tvm/runtime/data_type.h</text>
</a>
</g>
</g>
<!-- Node14&#45;&gt;Node23 -->
<g id="edge40" class="edge"><title>Node14&#45;&gt;Node23</title>
<path fill="none" stroke="midnightblue" d="M813.502,-294.099C894.018,-276.576 1035.33,-240.647 1065,-199 1098.09,-152.544 1014.85,-138.69 946.54,-134.88"/>
<polygon fill="midnightblue" stroke="midnightblue" points="946.316,-131.365 936.157,-134.37 945.973,-138.357 946.316,-131.365"/>
</g>
<!-- Node24 -->
<g id="node24" class="node"><title>Node24</title>
<polygon fill="white" stroke="#bfbfbf" points="1069.5,-235.5 1069.5,-254.5 1132.5,-254.5 1132.5,-235.5 1069.5,-235.5"/>
<text text-anchor="middle" x="1101" y="-242.5" font-family="Helvetica,sans-Serif" font-size="10.00">functional</text>
</g>
<!-- Node14&#45;&gt;Node24 -->
<g id="edge45" class="edge"><title>Node14&#45;&gt;Node24</title>
<path fill="none" stroke="midnightblue" d="M813.649,-296.339C873.653,-286.532 971.116,-270.311 1055,-255 1056.45,-254.735 1057.93,-254.463 1059.42,-254.185"/>
<polygon fill="midnightblue" stroke="midnightblue" points="1060.17,-257.604 1069.35,-252.302 1058.87,-250.727 1060.17,-257.604"/>
</g>
<!-- Node25 -->
<g id="node25" class="node"><title>Node25</title>
<polygon fill="white" stroke="#bfbfbf" points="368.5,-235.5 368.5,-254.5 409.5,-254.5 409.5,-235.5 368.5,-235.5"/>
<text text-anchor="middle" x="389" y="-242.5" font-family="Helvetica,sans-Serif" font-size="10.00">tuple</text>
</g>
<!-- Node14&#45;&gt;Node25 -->
<g id="edge46" class="edge"><title>Node14&#45;&gt;Node25</title>
<path fill="none" stroke="midnightblue" d="M700.328,-299.545C634.858,-292.106 523.833,-277.772 419.322,-254.769"/>
<polygon fill="midnightblue" stroke="midnightblue" points="420.077,-251.351 409.554,-252.589 418.552,-258.183 420.077,-251.351"/>
</g>
<!-- Node26 -->
<g id="node26" class="node"><title>Node26</title>
<polygon fill="white" stroke="#bfbfbf" points="428,-235.5 428,-254.5 470,-254.5 470,-235.5 428,-235.5"/>
<text text-anchor="middle" x="449" y="-242.5" font-family="Helvetica,sans-Serif" font-size="10.00">limits</text>
</g>
<!-- Node14&#45;&gt;Node26 -->
<g id="edge49" class="edge"><title>Node14&#45;&gt;Node26</title>
<path fill="none" stroke="midnightblue" d="M700.303,-296.183C644.927,-286.807 558.365,-271.419 484,-255 482.725,-254.718 481.426,-254.423 480.115,-254.118"/>
<polygon fill="midnightblue" stroke="midnightblue" points="480.588,-250.631 470.043,-251.661 478.928,-257.432 480.588,-250.631"/>
</g>
<!-- Node15&#45;&gt;Node2 -->
<g id="edge22" class="edge"><title>Node15&#45;&gt;Node2</title>
<path fill="none" stroke="midnightblue" d="M694.927,-237.226C645.125,-230.674 573.891,-218.771 514,-199 473.572,-185.654 429.774,-162.363 403.896,-147.586"/>
<polygon fill="midnightblue" stroke="midnightblue" points="405.621,-144.54 395.212,-142.561 402.115,-150.599 405.621,-144.54"/>
</g>
<!-- Node15&#45;&gt;Node4 -->
<g id="edge21" class="edge"><title>Node15&#45;&gt;Node4</title>
<path fill="none" stroke="midnightblue" d="M756.721,-235.454C755.994,-215.621 753.693,-164.956 748,-123 746.817,-114.282 745.065,-104.802 743.357,-96.4344"/>
<polygon fill="midnightblue" stroke="midnightblue" points="746.764,-95.627 741.263,-86.5722 739.916,-97.0812 746.764,-95.627"/>
</g>
<!-- Node15&#45;&gt;Node9 -->
<g id="edge26" class="edge"><title>Node15&#45;&gt;Node9</title>
<path fill="none" stroke="midnightblue" d="M762.13,-235.374C770.929,-221.349 790.263,-193.694 814,-179 818.078,-176.476 1091.35,-105.384 1186.08,-80.7825"/>
<polygon fill="midnightblue" stroke="midnightblue" points="1187.16,-84.1187 1195.96,-78.2179 1185.4,-77.3433 1187.16,-84.1187"/>
</g>
<!-- Node15&#45;&gt;Node12 -->
<g id="edge23" class="edge"><title>Node15&#45;&gt;Node12</title>
<path fill="none" stroke="midnightblue" d="M694.865,-237.459C599.958,-227.469 419.243,-208.447 317.8,-197.768"/>
<polygon fill="midnightblue" stroke="midnightblue" points="317.947,-194.265 307.636,-196.699 317.215,-201.226 317.947,-194.265"/>
</g>
<!-- Node15&#45;&gt;Node14 -->
<g id="edge28" class="edge"><title>Node15&#45;&gt;Node14</title>
<path fill="none" stroke="midnightblue" d="M761.929,-254.658C763.435,-261.655 764.007,-271.857 763.645,-281.289"/>
<polygon fill="midnightblue" stroke="midnightblue" points="760.145,-281.153 762.84,-291.399 767.123,-281.709 760.145,-281.153"/>
</g>
<!-- Node16 -->
<g id="node16" class="node"><title>Node16</title>
<polygon fill="white" stroke="#bfbfbf" points="646,-123.5 646,-142.5 706,-142.5 706,-123.5 646,-123.5"/>
<text text-anchor="middle" x="676" y="-130.5" font-family="Helvetica,sans-Serif" font-size="10.00">dmlc/io.h</text>
</g>
<!-- Node15&#45;&gt;Node16 -->
<g id="edge20" class="edge"><title>Node15&#45;&gt;Node16</title>
<path fill="none" stroke="midnightblue" d="M750.644,-235.368C737.218,-217.135 705.768,-174.426 688.279,-150.675"/>
<polygon fill="midnightblue" stroke="midnightblue" points="691.074,-148.568 682.326,-142.591 685.438,-152.719 691.074,-148.568"/>
</g>
<!-- Node15&#45;&gt;Node17 -->
<g id="edge24" class="edge"><title>Node15&#45;&gt;Node17</title>
<path fill="none" stroke="midnightblue" d="M782.352,-235.444C809.269,-226.359 851.996,-211.939 882.087,-201.783"/>
<polygon fill="midnightblue" stroke="midnightblue" points="883.41,-205.031 891.766,-198.516 881.172,-198.398 883.41,-205.031"/>
</g>
<!-- Node15&#45;&gt;Node18 -->
<g id="edge25" class="edge"><title>Node15&#45;&gt;Node18</title>
<path fill="none" stroke="midnightblue" d="M771.46,-235.324C785.5,-226.9 807.048,-213.971 823.543,-204.074"/>
<polygon fill="midnightblue" stroke="midnightblue" points="825.802,-206.801 832.576,-198.655 822.2,-200.798 825.802,-206.801"/>
</g>
<!-- Node15&#45;&gt;Node19 -->
<g id="edge27" class="edge"><title>Node15&#45;&gt;Node19</title>
<path fill="none" stroke="midnightblue" d="M797.089,-235.444C841.316,-226.004 912.539,-210.802 960.285,-200.611"/>
<polygon fill="midnightblue" stroke="midnightblue" points="961.05,-204.027 970.099,-198.516 959.589,-197.181 961.05,-204.027"/>
</g>
<!-- Node20&#45;&gt;Node2 -->
<g id="edge31" class="edge"><title>Node20&#45;&gt;Node2</title>
<path fill="none" stroke="midnightblue" d="M539.711,-235.458C510.198,-228.724 472.571,-217.333 443,-199 422.803,-186.479 404.684,-165.835 393.324,-151.174"/>
<polygon fill="midnightblue" stroke="midnightblue" points="395.96,-148.855 387.167,-142.945 390.355,-153.048 395.96,-148.855"/>
</g>
<!-- Node20&#45;&gt;Node4 -->
<g id="edge30" class="edge"><title>Node20&#45;&gt;Node4</title>
<path fill="none" stroke="midnightblue" d="M605.739,-235.339C633.898,-220.59 688.356,-187.791 715,-143 723.549,-128.628 729.344,-110.691 732.979,-96.506"/>
<polygon fill="midnightblue" stroke="midnightblue" points="736.447,-97.0492 735.347,-86.5116 729.635,-95.4352 736.447,-97.0492"/>
</g>
<!-- Node20&#45;&gt;Node10 -->
<g id="edge39" class="edge"><title>Node20&#45;&gt;Node10</title>
<path fill="none" stroke="midnightblue" d="M526.263,-238.312C411.738,-227.628 177.347,-205.088 171,-199 141.842,-171.03 144.532,-118.925 148.529,-91.1158"/>
<polygon fill="midnightblue" stroke="midnightblue" points="152.001,-91.568 150.176,-81.1317 145.095,-90.4288 152.001,-91.568"/>
</g>
<!-- Node20&#45;&gt;Node11 -->
<g id="edge37" class="edge"><title>Node20&#45;&gt;Node11</title>
<path fill="none" stroke="midnightblue" d="M569.569,-235.462C553.683,-227.514 530.732,-214.569 514,-199 478.289,-165.772 448.09,-116.305 433.457,-90.1641"/>
<polygon fill="midnightblue" stroke="midnightblue" points="436.353,-88.1656 428.476,-81.0799 430.215,-91.5311 436.353,-88.1656"/>
</g>
<!-- Node20&#45;&gt;Node18 -->
<g id="edge38" class="edge"><title>Node20&#45;&gt;Node18</title>
<path fill="none" stroke="midnightblue" d="M629.039,-235.444C679.961,-224.827 765.839,-206.922 813.168,-197.054"/>
<polygon fill="midnightblue" stroke="midnightblue" points="814.139,-200.427 823.214,-194.959 812.71,-193.574 814.139,-200.427"/>
</g>
<!-- Node21 -->
<g id="node21" class="node"><title>Node21</title>
<g id="a_node21"><a xlink:href="serializer_8h.html" target="_top" xlink:title="Serializer extension to support TVM data types Include this file to enable serialization of DLDataTyp...">
<polygon fill="white" stroke="black" points="523,-179.5 523,-198.5 653,-198.5 653,-179.5 523,-179.5"/>
<text text-anchor="middle" x="588" y="-186.5" font-family="Helvetica,sans-Serif" font-size="10.00">tvm/runtime/serializer.h</text>
</a>
</g>
</g>
<!-- Node20&#45;&gt;Node21 -->
<g id="edge32" class="edge"><title>Node20&#45;&gt;Node21</title>
<path fill="none" stroke="midnightblue" d="M582.834,-235.083C581.324,-227.927 580.894,-217.635 581.542,-208.691"/>
<polygon fill="midnightblue" stroke="midnightblue" points="585.015,-209.126 582.869,-198.751 578.077,-208.2 585.015,-209.126"/>
</g>
<!-- Node21&#45;&gt;Node4 -->
<g id="edge35" class="edge"><title>Node21&#45;&gt;Node4</title>
<path fill="none" stroke="midnightblue" d="M592.705,-179.415C600.445,-165.937 617.016,-139.637 637,-123 652.91,-109.755 672.878,-98.8451 690.851,-90.5967"/>
<polygon fill="midnightblue" stroke="midnightblue" points="692.31,-93.7784 700.035,-86.5278 689.474,-87.3784 692.31,-93.7784"/>
</g>
<!-- Node21&#45;&gt;Node16 -->
<g id="edge33" class="edge"><title>Node21&#45;&gt;Node16</title>
<path fill="none" stroke="midnightblue" d="M602.139,-179.324C615.866,-170.9 636.936,-157.971 653.064,-148.074"/>
<polygon fill="midnightblue" stroke="midnightblue" points="655.204,-150.868 661.896,-142.655 651.543,-144.902 655.204,-150.868"/>
</g>
<!-- Node21&#45;&gt;Node20 -->
<g id="edge36" class="edge"><title>Node21&#45;&gt;Node20</title>
<path fill="none" stroke="midnightblue" d="M593.131,-198.751C594.657,-205.858 595.104,-216.136 594.472,-225.101"/>
<polygon fill="midnightblue" stroke="midnightblue" points="590.993,-224.713 593.166,-235.083 597.934,-225.622 590.993,-224.713"/>
</g>
<!-- Node22 -->
<g id="node22" class="node"><title>Node22</title>
<polygon fill="white" stroke="#bfbfbf" points="496,-123.5 496,-142.5 590,-142.5 590,-123.5 496,-123.5"/>
<text text-anchor="middle" x="543" y="-130.5" font-family="Helvetica,sans-Serif" font-size="10.00">dmlc/serializer.h</text>
</g>
<!-- Node21&#45;&gt;Node22 -->
<g id="edge34" class="edge"><title>Node21&#45;&gt;Node22</title>
<path fill="none" stroke="midnightblue" d="M580.569,-179.083C574.147,-171.377 564.694,-160.033 556.878,-150.653"/>
<polygon fill="midnightblue" stroke="midnightblue" points="559.383,-148.193 550.293,-142.751 554.006,-152.674 559.383,-148.193"/>
</g>
<!-- Node23&#45;&gt;Node3 -->
<g id="edge42" class="edge"><title>Node23&#45;&gt;Node3</title>
<path fill="none" stroke="midnightblue" d="M868,-123.475C868,-115.08 868,-101.981 868,-91.1631"/>
<polygon fill="midnightblue" stroke="midnightblue" points="871.5,-91.0091 868,-81.0091 864.5,-91.0091 871.5,-91.0091"/>
</g>
<!-- Node23&#45;&gt;Node4 -->
<g id="edge41" class="edge"><title>Node23&#45;&gt;Node4</title>
<path fill="none" stroke="midnightblue" d="M849.374,-123.475C830.78,-114.965 801.622,-101.619 777.804,-90.718"/>
<polygon fill="midnightblue" stroke="midnightblue" points="779.188,-87.5023 768.638,-86.523 776.275,-93.8673 779.188,-87.5023"/>
</g>
<!-- Node23&#45;&gt;Node8 -->
<g id="edge43" class="edge"><title>Node23&#45;&gt;Node8</title>
<path fill="none" stroke="midnightblue" d="M799.796,-126.789C706.938,-119.418 535.613,-104.837 390,-87 373.119,-84.9322 354.632,-82.2419 338.427,-79.741"/>
<polygon fill="midnightblue" stroke="midnightblue" points="338.568,-76.2207 328.148,-78.1334 337.487,-83.1366 338.568,-76.2207"/>
</g>
</g>
</svg>
