<?xml version="1.0" encoding="UTF-8" standalone="no"?>
<!DOCTYPE svg PUBLIC "-//W3C//DTD SVG 1.1//EN"
 "http://www.w3.org/Graphics/SVG/1.1/DTD/svg11.dtd">
<!-- Generated by graphviz version 2.38.0 (20140413.2041)
 -->
<!-- Title: include/tvm/runtime/object.h Pages: 1 -->
<svg width="516pt" height="162pt"
 viewBox="0.00 0.00 516.00 162.00" xmlns="http://www.w3.org/2000/svg" xmlns:xlink="http://www.w3.org/1999/xlink">
<g id="graph0" class="graph" transform="scale(1 1) rotate(0) translate(4 158)">
<title>include/tvm/runtime/object.h</title>
<polygon fill="white" stroke="none" points="-4,4 -4,-158 512,-158 512,4 -4,4"/>
<!-- Node1 -->
<g id="node1" class="node"><title>Node1</title>
<polygon fill="#bfbfbf" stroke="black" points="264.5,-123.5 264.5,-153.5 377.5,-153.5 377.5,-123.5 264.5,-123.5"/>
<text text-anchor="start" x="272.5" y="-141.5" font-family="Helvetica,sans-Serif" font-size="10.00">include/tvm/runtime</text>
<text text-anchor="middle" x="321" y="-130.5" font-family="Helvetica,sans-Serif" font-size="10.00">/object.h</text>
</g>
<!-- Node2 -->
<g id="node2" class="node"><title>Node2</title>
<polygon fill="white" stroke="#bfbfbf" points="0,-62 0,-81 86,-81 86,-62 0,-62"/>
<text text-anchor="middle" x="43" y="-69" font-family="Helvetica,sans-Serif" font-size="10.00">dmlc/logging.h</text>
</g>
<!-- Node1&#45;&gt;Node2 -->
<g id="edge1" class="edge"><title>Node1&#45;&gt;Node2</title>
<path fill="none" stroke="midnightblue" d="M264.424,-125.561C218.82,-115.754 153.108,-101.213 96,-87 91.8343,-85.9633 87.4954,-84.843 83.173,-83.7005"/>
<polygon fill="midnightblue" stroke="midnightblue" points="83.7721,-80.2374 73.2064,-81.0235 81.9562,-86.9978 83.7721,-80.2374"/>
</g>
<!-- Node3 -->
<g id="node3" class="node"><title>Node3</title>
<g id="a_node3"><a xlink:href="c__runtime__api_8h.html" target="_top" xlink:title="tvm/runtime/c_runtime\l_api.h">
<polygon fill="white" stroke="black" points="104.5,-56.5 104.5,-86.5 231.5,-86.5 231.5,-56.5 104.5,-56.5"/>
<text text-anchor="start" x="112.5" y="-74.5" font-family="Helvetica,sans-Serif" font-size="10.00">tvm/runtime/c_runtime</text>
<text text-anchor="middle" x="168" y="-63.5" font-family="Helvetica,sans-Serif" font-size="10.00">_api.h</text>
</a>
</g>
</g>
<!-- Node1&#45;&gt;Node3 -->
<g id="edge2" class="edge"><title>Node1&#45;&gt;Node3</title>
<path fill="none" stroke="midnightblue" d="M287.801,-123.396C265.145,-113.771 234.935,-100.936 210.519,-90.5637"/>
<polygon fill="midnightblue" stroke="midnightblue" points="211.706,-87.2653 201.134,-86.5765 208.969,-93.708 211.706,-87.2653"/>
</g>
<!-- Node7 -->
<g id="node7" class="node"><title>Node7</title>
<polygon fill="white" stroke="#bfbfbf" points="250,-62 250,-81 318,-81 318,-62 250,-62"/>
<text text-anchor="middle" x="284" y="-69" font-family="Helvetica,sans-Serif" font-size="10.00">type_traits</text>
</g>
<!-- Node1&#45;&gt;Node7 -->
<g id="edge6" class="edge"><title>Node1&#45;&gt;Node7</title>
<path fill="none" stroke="midnightblue" d="M312.972,-123.396C307.374,-113.562 299.869,-100.378 293.9,-89.892"/>
<polygon fill="midnightblue" stroke="midnightblue" points="296.938,-88.1537 288.949,-81.1945 290.854,-91.6167 296.938,-88.1537"/>
</g>
<!-- Node8 -->
<g id="node8" class="node"><title>Node8</title>
<polygon fill="white" stroke="#bfbfbf" points="336,-62 336,-81 380,-81 380,-62 336,-62"/>
<text text-anchor="middle" x="358" y="-69" font-family="Helvetica,sans-Serif" font-size="10.00">string</text>
</g>
<!-- Node1&#45;&gt;Node8 -->
<g id="edge7" class="edge"><title>Node1&#45;&gt;Node8</title>
<path fill="none" stroke="midnightblue" d="M329.028,-123.396C334.626,-113.562 342.131,-100.378 348.1,-89.892"/>
<polygon fill="midnightblue" stroke="midnightblue" points="351.146,-91.6167 353.051,-81.1945 345.062,-88.1537 351.146,-91.6167"/>
</g>
<!-- Node9 -->
<g id="node9" class="node"><title>Node9</title>
<polygon fill="white" stroke="#bfbfbf" points="398,-62 398,-81 440,-81 440,-62 398,-62"/>
<text text-anchor="middle" x="419" y="-69" font-family="Helvetica,sans-Serif" font-size="10.00">utility</text>
</g>
<!-- Node1&#45;&gt;Node9 -->
<g id="edge8" class="edge"><title>Node1&#45;&gt;Node9</title>
<path fill="none" stroke="midnightblue" d="M342.265,-123.396C358.699,-112.496 381.34,-97.4787 397.766,-86.5835"/>
<polygon fill="midnightblue" stroke="midnightblue" points="399.775,-89.4512 406.174,-81.007 395.906,-83.6177 399.775,-89.4512"/>
</g>
<!-- Node10 -->
<g id="node10" class="node"><title>Node10</title>
<polygon fill="white" stroke="#bfbfbf" points="458,-62 458,-81 508,-81 508,-62 458,-62"/>
<text text-anchor="middle" x="483" y="-69" font-family="Helvetica,sans-Serif" font-size="10.00">atomic</text>
</g>
<!-- Node1&#45;&gt;Node10 -->
<g id="edge9" class="edge"><title>Node1&#45;&gt;Node10</title>
<path fill="none" stroke="midnightblue" d="M357.52,-123.397C383.184,-113.412 418.281,-99.6076 449,-87 450.592,-86.3467 452.223,-85.6712 453.868,-84.9853"/>
<polygon fill="midnightblue" stroke="midnightblue" points="455.407,-88.1352 463.262,-81.0256 452.687,-81.6848 455.407,-88.1352"/>
</g>
<!-- Node4 -->
<g id="node4" class="node"><title>Node4</title>
<polygon fill="white" stroke="#bfbfbf" points="33,-0.5 33,-19.5 123,-19.5 123,-0.5 33,-0.5"/>
<text text-anchor="middle" x="78" y="-7.5" font-family="Helvetica,sans-Serif" font-size="10.00">dlpack/dlpack.h</text>
</g>
<!-- Node3&#45;&gt;Node4 -->
<g id="edge3" class="edge"><title>Node3&#45;&gt;Node4</title>
<path fill="none" stroke="midnightblue" d="M146.671,-56.3993C132.515,-47.0402 113.989,-34.7924 99.7469,-25.3771"/>
<polygon fill="midnightblue" stroke="midnightblue" points="101.368,-22.2531 91.0958,-19.6578 97.5074,-28.0923 101.368,-22.2531"/>
</g>
<!-- Node5 -->
<g id="node5" class="node"><title>Node5</title>
<polygon fill="white" stroke="#bfbfbf" points="141.5,-0.5 141.5,-19.5 194.5,-19.5 194.5,-0.5 141.5,-0.5"/>
<text text-anchor="middle" x="168" y="-7.5" font-family="Helvetica,sans-Serif" font-size="10.00">stdint.h</text>
</g>
<!-- Node3&#45;&gt;Node5 -->
<g id="edge4" class="edge"><title>Node3&#45;&gt;Node5</title>
<path fill="none" stroke="midnightblue" d="M168,-56.3993C168,-48.4664 168,-38.458 168,-29.8583"/>
<polygon fill="midnightblue" stroke="midnightblue" points="171.5,-29.6577 168,-19.6578 164.5,-29.6578 171.5,-29.6577"/>
</g>
<!-- Node6 -->
<g id="node6" class="node"><title>Node6</title>
<polygon fill="white" stroke="#bfbfbf" points="212.5,-0.5 212.5,-19.5 267.5,-19.5 267.5,-0.5 212.5,-0.5"/>
<text text-anchor="middle" x="240" y="-7.5" font-family="Helvetica,sans-Serif" font-size="10.00">stddef.h</text>
</g>
<!-- Node3&#45;&gt;Node6 -->
<g id="edge5" class="edge"><title>Node3&#45;&gt;Node6</title>
<path fill="none" stroke="midnightblue" d="M185.063,-56.3993C196.065,-47.3076 210.365,-35.4899 221.618,-26.1909"/>
<polygon fill="midnightblue" stroke="midnightblue" points="224.044,-28.726 229.523,-19.6578 219.585,-23.33 224.044,-28.726"/>
</g>
</g>
</svg>
