<?xml version="1.0" encoding="UTF-8" standalone="no"?>
<!DOCTYPE svg PUBLIC "-//W3C//DTD SVG 1.1//EN"
 "http://www.w3.org/Graphics/SVG/1.1/DTD/svg11.dtd">
<!-- Generated by graphviz version 2.38.0 (20140413.2041)
 -->
<!-- Title: include/tvm/runtime/packed_func.h Pages: 1 -->
<svg width="1234pt" height="330pt"
 viewBox="0.00 0.00 1234.22 330.00" xmlns="http://www.w3.org/2000/svg" xmlns:xlink="http://www.w3.org/1999/xlink">
<g id="graph0" class="graph" transform="scale(1 1) rotate(0) translate(4 326)">
<title>include/tvm/runtime/packed_func.h</title>
<polygon fill="white" stroke="none" points="-4,4 -4,-326 1230.22,-326 1230.22,4 -4,4"/>
<!-- Node1 -->
<g id="node1" class="node"><title>Node1</title>
<polygon fill="#bfbfbf" stroke="black" points="655.715,-291.5 655.715,-321.5 768.715,-321.5 768.715,-291.5 655.715,-291.5"/>
<text text-anchor="start" x="663.715" y="-309.5" font-family="Helvetica,sans-Serif" font-size="10.00">include/tvm/runtime</text>
<text text-anchor="middle" x="712.215" y="-298.5" font-family="Helvetica,sans-Serif" font-size="10.00">/packed_func.h</text>
</g>
<!-- Node2 -->
<g id="node2" class="node"><title>Node2</title>
<polygon fill="white" stroke="#bfbfbf" points="59.2152,-62 59.2152,-81 145.215,-81 145.215,-62 59.2152,-62"/>
<text text-anchor="middle" x="102.215" y="-69" font-family="Helvetica,sans-Serif" font-size="10.00">dmlc/logging.h</text>
</g>
<!-- Node1&#45;&gt;Node2 -->
<g id="edge1" class="edge"><title>Node1&#45;&gt;Node2</title>
<path fill="none" stroke="midnightblue" d="M655.623,-304.21C525.093,-300.685 206.393,-288.789 105.215,-255 36.9021,-232.186 -25.3236,-185.065 11.2152,-123 21.9874,-104.702 42.0455,-92.5621 60.5943,-84.782"/>
<polygon fill="midnightblue" stroke="midnightblue" points="62.0379,-87.9763 70.0993,-81.1013 59.5102,-81.4486 62.0379,-87.9763"/>
</g>
<!-- Node3 -->
<g id="node3" class="node"><title>Node3</title>
<g id="a_node3"><a xlink:href="c__runtime__api_8h.html" target="_top" xlink:title="tvm/runtime/c_runtime\l_api.h">
<polygon fill="white" stroke="black" points="591.715,-56.5 591.715,-86.5 718.715,-86.5 718.715,-56.5 591.715,-56.5"/>
<text text-anchor="start" x="599.715" y="-74.5" font-family="Helvetica,sans-Serif" font-size="10.00">tvm/runtime/c_runtime</text>
<text text-anchor="middle" x="655.215" y="-63.5" font-family="Helvetica,sans-Serif" font-size="10.00">_api.h</text>
</a>
</g>
</g>
<!-- Node1&#45;&gt;Node3 -->
<g id="edge2" class="edge"><title>Node1&#45;&gt;Node3</title>
<path fill="none" stroke="midnightblue" d="M768.902,-299.333C854.323,-287.463 1001.61,-255.492 957.215,-179 933.733,-138.536 810.598,-105.246 728.989,-87.1859"/>
<polygon fill="midnightblue" stroke="midnightblue" points="729.273,-83.6656 718.757,-84.9529 727.781,-90.5046 729.273,-83.6656"/>
</g>
<!-- Node7 -->
<g id="node7" class="node"><title>Node7</title>
<g id="a_node7"><a xlink:href="runtime_2module_8h.html" target="_top" xlink:title="Runtime container of the functions generated by TVM, This is used to support dynamically link...">
<polygon fill="white" stroke="black" points="650.215,-235.5 650.215,-254.5 774.215,-254.5 774.215,-235.5 650.215,-235.5"/>
<text text-anchor="middle" x="712.215" y="-242.5" font-family="Helvetica,sans-Serif" font-size="10.00">tvm/runtime/module.h</text>
</a>
</g>
</g>
<!-- Node1&#45;&gt;Node7 -->
<g id="edge6" class="edge"><title>Node1&#45;&gt;Node7</title>
<path fill="none" stroke="midnightblue" d="M706.375,-291.399C705.345,-283.377 705.19,-273.233 705.908,-264.569"/>
<polygon fill="midnightblue" stroke="midnightblue" points="709.376,-265.044 707.286,-254.658 702.442,-264.081 709.376,-265.044"/>
</g>
<!-- Node9 -->
<g id="node9" class="node"><title>Node9</title>
<g id="a_node9"><a xlink:href="object_8h.html" target="_top" xlink:title="A managed object in the TVM runtime. ">
<polygon fill="white" stroke="black" points="367.715,-123.5 367.715,-142.5 484.715,-142.5 484.715,-123.5 367.715,-123.5"/>
<text text-anchor="middle" x="426.215" y="-130.5" font-family="Helvetica,sans-Serif" font-size="10.00">tvm/runtime/object.h</text>
</a>
</g>
</g>
<!-- Node1&#45;&gt;Node9 -->
<g id="edge41" class="edge"><title>Node1&#45;&gt;Node9</title>
<path fill="none" stroke="midnightblue" d="M655.552,-297.817C618.815,-290.888 571.109,-278.094 534.215,-255 490.426,-227.59 453.931,-177.32 436.766,-151.034"/>
<polygon fill="midnightblue" stroke="midnightblue" points="439.666,-149.073 431.339,-142.522 433.764,-152.836 439.666,-149.073"/>
</g>
<!-- Node10 -->
<g id="node10" class="node"><title>Node10</title>
<polygon fill="white" stroke="#bfbfbf" points="183.215,-62 183.215,-81 251.215,-81 251.215,-62 183.215,-62"/>
<text text-anchor="middle" x="217.215" y="-69" font-family="Helvetica,sans-Serif" font-size="10.00">type_traits</text>
</g>
<!-- Node1&#45;&gt;Node10 -->
<g id="edge49" class="edge"><title>Node1&#45;&gt;Node10</title>
<path fill="none" stroke="midnightblue" d="M655.478,-304.685C532.479,-302.223 245.193,-292.512 156.215,-255 80.0533,-222.891 -25.2519,-188.457 25.2152,-123 29.8215,-117.025 117.952,-95.5979 173.193,-82.6519"/>
<polygon fill="midnightblue" stroke="midnightblue" points="174.155,-86.0215 183.097,-80.339 172.563,-79.2049 174.155,-86.0215"/>
</g>
<!-- Node11 -->
<g id="node11" class="node"><title>Node11</title>
<polygon fill="white" stroke="#bfbfbf" points="932.215,-62 932.215,-81 976.215,-81 976.215,-62 932.215,-62"/>
<text text-anchor="middle" x="954.215" y="-69" font-family="Helvetica,sans-Serif" font-size="10.00">string</text>
</g>
<!-- Node1&#45;&gt;Node11 -->
<g id="edge45" class="edge"><title>Node1&#45;&gt;Node11</title>
<path fill="none" stroke="midnightblue" d="M768.973,-300.4C832.461,-293.586 929.988,-279.442 957.215,-255 1003.57,-213.385 976.961,-128.059 962.114,-90.6987"/>
<polygon fill="midnightblue" stroke="midnightblue" points="965.207,-89.021 958.143,-81.1255 958.742,-91.7033 965.207,-89.021"/>
</g>
<!-- Node12 -->
<g id="node12" class="node"><title>Node12</title>
<polygon fill="white" stroke="#bfbfbf" points="347.215,-62 347.215,-81 389.215,-81 389.215,-62 347.215,-62"/>
<text text-anchor="middle" x="368.215" y="-69" font-family="Helvetica,sans-Serif" font-size="10.00">utility</text>
</g>
<!-- Node1&#45;&gt;Node12 -->
<g id="edge48" class="edge"><title>Node1&#45;&gt;Node12</title>
<path fill="none" stroke="midnightblue" d="M655.476,-301.969C537.433,-293.318 271.829,-266.614 217.215,-199 175.845,-147.782 282.093,-102.058 337.332,-82.5301"/>
<polygon fill="midnightblue" stroke="midnightblue" points="338.694,-85.7629 347.006,-79.1932 336.411,-79.1455 338.694,-85.7629"/>
</g>
<!-- Node16 -->
<g id="node16" class="node"><title>Node16</title>
<polygon fill="white" stroke="#bfbfbf" points="891.715,-179.5 891.715,-198.5 948.715,-198.5 948.715,-179.5 891.715,-179.5"/>
<text text-anchor="middle" x="920.215" y="-186.5" font-family="Helvetica,sans-Serif" font-size="10.00">memory</text>
</g>
<!-- Node1&#45;&gt;Node16 -->
<g id="edge47" class="edge"><title>Node1&#45;&gt;Node16</title>
<path fill="none" stroke="midnightblue" d="M737.72,-291.337C778.022,-268.958 855.924,-225.7 895.639,-203.647"/>
<polygon fill="midnightblue" stroke="midnightblue" points="897.824,-206.437 904.868,-198.522 894.426,-200.317 897.824,-206.437"/>
</g>
<!-- Node17 -->
<g id="node17" class="node"><title>Node17</title>
<polygon fill="white" stroke="#bfbfbf" points="502.715,-123.5 502.715,-142.5 549.715,-142.5 549.715,-123.5 502.715,-123.5"/>
<text text-anchor="middle" x="526.215" y="-130.5" font-family="Helvetica,sans-Serif" font-size="10.00">vector</text>
</g>
<!-- Node1&#45;&gt;Node17 -->
<g id="edge44" class="edge"><title>Node1&#45;&gt;Node17</title>
<path fill="none" stroke="midnightblue" d="M655.521,-293.474C606.453,-279.743 538.455,-251.96 506.215,-199 497.137,-184.087 505.22,-164.714 513.667,-151.01"/>
<polygon fill="midnightblue" stroke="midnightblue" points="516.681,-152.801 519.367,-142.553 510.876,-148.889 516.681,-152.801"/>
</g>
<!-- Node19 -->
<g id="node19" class="node"><title>Node19</title>
<g id="a_node19"><a xlink:href="ndarray_8h.html" target="_top" xlink:title="A device&#45;independent managed NDArray abstraction. ">
<polygon fill="white" stroke="black" points="524.715,-179.5 524.715,-198.5 647.715,-198.5 647.715,-179.5 524.715,-179.5"/>
<text text-anchor="middle" x="586.215" y="-186.5" font-family="Helvetica,sans-Serif" font-size="10.00">tvm/runtime/ndarray.h</text>
</a>
</g>
</g>
<!-- Node1&#45;&gt;Node19 -->
<g id="edge26" class="edge"><title>Node1&#45;&gt;Node19</title>
<path fill="none" stroke="midnightblue" d="M689.376,-291.371C674.891,-281.911 656.137,-268.718 641.215,-255 624.968,-240.063 608.965,-220.441 598.447,-206.679"/>
<polygon fill="midnightblue" stroke="midnightblue" points="601.18,-204.49 592.38,-198.589 595.58,-208.689 601.18,-204.49"/>
</g>
<!-- Node22 -->
<g id="node22" class="node"><title>Node22</title>
<g id="a_node22"><a xlink:href="data__type_8h.html" target="_top" xlink:title="tvm/runtime/data_type.h">
<polygon fill="white" stroke="black" points="34.2152,-123.5 34.2152,-142.5 170.215,-142.5 170.215,-123.5 34.2152,-123.5"/>
<text text-anchor="middle" x="102.215" y="-130.5" font-family="Helvetica,sans-Serif" font-size="10.00">tvm/runtime/data_type.h</text>
</a>
</g>
</g>
<!-- Node1&#45;&gt;Node22 -->
<g id="edge37" class="edge"><title>Node1&#45;&gt;Node22</title>
<path fill="none" stroke="midnightblue" d="M655.263,-306.059C535.599,-306.28 262.628,-301.501 184.215,-255 144.328,-231.346 119.603,-179.805 108.718,-152.244"/>
<polygon fill="midnightblue" stroke="midnightblue" points="111.909,-150.785 105.112,-142.657 105.357,-153.249 111.909,-150.785"/>
</g>
<!-- Node23 -->
<g id="node23" class="node"><title>Node23</title>
<polygon fill="white" stroke="#bfbfbf" points="1043.72,-235.5 1043.72,-254.5 1106.72,-254.5 1106.72,-235.5 1043.72,-235.5"/>
<text text-anchor="middle" x="1075.22" y="-242.5" font-family="Helvetica,sans-Serif" font-size="10.00">functional</text>
</g>
<!-- Node1&#45;&gt;Node23 -->
<g id="edge42" class="edge"><title>Node1&#45;&gt;Node23</title>
<path fill="none" stroke="midnightblue" d="M768.72,-297.113C832.2,-287.547 938.265,-271.137 1029.22,-255 1030.67,-254.742 1032.14,-254.476 1033.64,-254.204"/>
<polygon fill="midnightblue" stroke="midnightblue" points="1034.38,-257.625 1043.57,-252.344 1033.1,-250.744 1034.38,-257.625"/>
</g>
<!-- Node24 -->
<g id="node24" class="node"><title>Node24</title>
<polygon fill="white" stroke="#bfbfbf" points="1124.72,-235.5 1124.72,-254.5 1165.72,-254.5 1165.72,-235.5 1124.72,-235.5"/>
<text text-anchor="middle" x="1145.22" y="-242.5" font-family="Helvetica,sans-Serif" font-size="10.00">tuple</text>
</g>
<!-- Node1&#45;&gt;Node24 -->
<g id="edge43" class="edge"><title>Node1&#45;&gt;Node24</title>
<path fill="none" stroke="midnightblue" d="M768.775,-301.406C845.205,-295.214 985.734,-281.5 1114.63,-254.77"/>
<polygon fill="midnightblue" stroke="midnightblue" points="1115.61,-258.14 1124.68,-252.654 1114.17,-251.29 1115.61,-258.14"/>
</g>
<!-- Node25 -->
<g id="node25" class="node"><title>Node25</title>
<polygon fill="white" stroke="#bfbfbf" points="1184.22,-235.5 1184.22,-254.5 1226.22,-254.5 1226.22,-235.5 1184.22,-235.5"/>
<text text-anchor="middle" x="1205.22" y="-242.5" font-family="Helvetica,sans-Serif" font-size="10.00">limits</text>
</g>
<!-- Node1&#45;&gt;Node25 -->
<g id="edge46" class="edge"><title>Node1&#45;&gt;Node25</title>
<path fill="none" stroke="midnightblue" d="M769.033,-302.654C854.98,-297.614 1023.17,-284.887 1174.12,-254.879"/>
<polygon fill="midnightblue" stroke="midnightblue" points="1174.92,-258.287 1184.03,-252.878 1173.54,-251.425 1174.92,-258.287"/>
</g>
<!-- Node4 -->
<g id="node4" class="node"><title>Node4</title>
<polygon fill="white" stroke="#bfbfbf" points="520.215,-0.5 520.215,-19.5 610.215,-19.5 610.215,-0.5 520.215,-0.5"/>
<text text-anchor="middle" x="565.215" y="-7.5" font-family="Helvetica,sans-Serif" font-size="10.00">dlpack/dlpack.h</text>
</g>
<!-- Node3&#45;&gt;Node4 -->
<g id="edge3" class="edge"><title>Node3&#45;&gt;Node4</title>
<path fill="none" stroke="midnightblue" d="M633.886,-56.3993C619.73,-47.0402 601.204,-34.7924 586.962,-25.3771"/>
<polygon fill="midnightblue" stroke="midnightblue" points="588.583,-22.2531 578.311,-19.6578 584.723,-28.0923 588.583,-22.2531"/>
</g>
<!-- Node5 -->
<g id="node5" class="node"><title>Node5</title>
<polygon fill="white" stroke="#bfbfbf" points="628.715,-0.5 628.715,-19.5 681.715,-19.5 681.715,-0.5 628.715,-0.5"/>
<text text-anchor="middle" x="655.215" y="-7.5" font-family="Helvetica,sans-Serif" font-size="10.00">stdint.h</text>
</g>
<!-- Node3&#45;&gt;Node5 -->
<g id="edge4" class="edge"><title>Node3&#45;&gt;Node5</title>
<path fill="none" stroke="midnightblue" d="M655.215,-56.3993C655.215,-48.4664 655.215,-38.458 655.215,-29.8583"/>
<polygon fill="midnightblue" stroke="midnightblue" points="658.715,-29.6577 655.215,-19.6578 651.715,-29.6578 658.715,-29.6577"/>
</g>
<!-- Node6 -->
<g id="node6" class="node"><title>Node6</title>
<polygon fill="white" stroke="#bfbfbf" points="699.715,-0.5 699.715,-19.5 754.715,-19.5 754.715,-0.5 699.715,-0.5"/>
<text text-anchor="middle" x="727.215" y="-7.5" font-family="Helvetica,sans-Serif" font-size="10.00">stddef.h</text>
</g>
<!-- Node3&#45;&gt;Node6 -->
<g id="edge5" class="edge"><title>Node3&#45;&gt;Node6</title>
<path fill="none" stroke="midnightblue" d="M672.278,-56.3993C683.28,-47.3076 697.58,-35.4899 708.833,-26.1909"/>
<polygon fill="midnightblue" stroke="midnightblue" points="711.26,-28.726 716.739,-19.6578 706.801,-23.33 711.26,-28.726"/>
</g>
<!-- Node7&#45;&gt;Node1 -->
<g id="edge25" class="edge"><title>Node7&#45;&gt;Node1</title>
<path fill="none" stroke="midnightblue" d="M717.145,-254.658C718.65,-261.655 719.222,-271.857 718.86,-281.289"/>
<polygon fill="midnightblue" stroke="midnightblue" points="715.36,-281.153 718.055,-291.399 722.338,-281.709 715.36,-281.153"/>
</g>
<!-- Node7&#45;&gt;Node3 -->
<g id="edge8" class="edge"><title>Node7&#45;&gt;Node3</title>
<path fill="none" stroke="midnightblue" d="M728.973,-235.415C749.358,-223.743 779.611,-201.706 767.215,-179 753.037,-153.03 733.156,-162.851 711.215,-143 695.473,-128.757 680.673,-109.785 670.246,-95.109"/>
<polygon fill="midnightblue" stroke="midnightblue" points="672.924,-92.8297 664.349,-86.6074 667.172,-96.8191 672.924,-92.8297"/>
</g>
<!-- Node8 -->
<g id="node8" class="node"><title>Node8</title>
<polygon fill="white" stroke="#bfbfbf" points="852.215,-62 852.215,-81 912.215,-81 912.215,-62 852.215,-62"/>
<text text-anchor="middle" x="882.215" y="-69" font-family="Helvetica,sans-Serif" font-size="10.00">dmlc/io.h</text>
</g>
<!-- Node7&#45;&gt;Node8 -->
<g id="edge7" class="edge"><title>Node7&#45;&gt;Node8</title>
<path fill="none" stroke="midnightblue" d="M732.642,-235.486C764.509,-221.156 825.854,-189.185 859.215,-143 870.389,-127.531 876.334,-106.342 879.359,-91.2415"/>
<polygon fill="midnightblue" stroke="midnightblue" points="882.862,-91.5309 881.142,-81.0766 875.967,-90.3217 882.862,-91.5309"/>
</g>
<!-- Node7&#45;&gt;Node9 -->
<g id="edge9" class="edge"><title>Node7&#45;&gt;Node9</title>
<path fill="none" stroke="midnightblue" d="M649.814,-238.036C607.63,-232.196 551.568,-220.835 506.215,-199 480.911,-186.817 456.566,-165.144 441.514,-150.194"/>
<polygon fill="midnightblue" stroke="midnightblue" points="443.658,-147.38 434.161,-142.683 438.656,-152.277 443.658,-147.38"/>
</g>
<!-- Node7&#45;&gt;Node11 -->
<g id="edge23" class="edge"><title>Node7&#45;&gt;Node11</title>
<path fill="none" stroke="midnightblue" d="M744.144,-235.385C768.206,-228.002 801.361,-215.873 827.215,-199 875.449,-167.522 920.32,-115.441 941.48,-88.9995"/>
<polygon fill="midnightblue" stroke="midnightblue" points="944.278,-91.1033 947.718,-81.0822 938.78,-86.7712 944.278,-91.1033"/>
</g>
<!-- Node14 -->
<g id="node14" class="node"><title>Node14</title>
<g id="a_node14"><a xlink:href="runtime_2memory_8h.html" target="_top" xlink:title="Runtime memory management. ">
<polygon fill="white" stroke="black" points="226.715,-179.5 226.715,-198.5 353.715,-198.5 353.715,-179.5 226.715,-179.5"/>
<text text-anchor="middle" x="290.215" y="-186.5" font-family="Helvetica,sans-Serif" font-size="10.00">tvm/runtime/memory.h</text>
</a>
</g>
</g>
<!-- Node7&#45;&gt;Node14 -->
<g id="edge16" class="edge"><title>Node7&#45;&gt;Node14</title>
<path fill="none" stroke="midnightblue" d="M649.948,-236.032C573.764,-226.283 444.947,-209.8 363.903,-199.429"/>
<polygon fill="midnightblue" stroke="midnightblue" points="364.138,-195.931 353.775,-198.133 363.25,-202.874 364.138,-195.931"/>
</g>
<!-- Node7&#45;&gt;Node16 -->
<g id="edge21" class="edge"><title>Node7&#45;&gt;Node16</title>
<path fill="none" stroke="midnightblue" d="M745.173,-235.444C782.267,-225.814 842.456,-210.188 881.69,-200.002"/>
<polygon fill="midnightblue" stroke="midnightblue" points="882.631,-203.374 891.43,-197.473 880.872,-196.598 882.631,-203.374"/>
</g>
<!-- Node7&#45;&gt;Node17 -->
<g id="edge22" class="edge"><title>Node7&#45;&gt;Node17</title>
<path fill="none" stroke="midnightblue" d="M650.08,-238.168C598.827,-231.92 531.919,-219.95 515.215,-199 504.651,-185.75 509.986,-166.084 516.363,-151.855"/>
<polygon fill="midnightblue" stroke="midnightblue" points="519.637,-153.135 520.979,-142.625 513.376,-150.004 519.637,-153.135"/>
</g>
<!-- Node18 -->
<g id="node18" class="node"><title>Node18</title>
<polygon fill="white" stroke="#bfbfbf" points="665.715,-179.5 665.715,-198.5 758.715,-198.5 758.715,-179.5 665.715,-179.5"/>
<text text-anchor="middle" x="712.215" y="-186.5" font-family="Helvetica,sans-Serif" font-size="10.00">unordered_map</text>
</g>
<!-- Node7&#45;&gt;Node18 -->
<g id="edge24" class="edge"><title>Node7&#45;&gt;Node18</title>
<path fill="none" stroke="midnightblue" d="M712.215,-235.083C712.215,-228.006 712.215,-217.861 712.215,-208.986"/>
<polygon fill="midnightblue" stroke="midnightblue" points="715.715,-208.751 712.215,-198.751 708.715,-208.751 715.715,-208.751"/>
</g>
<!-- Node9&#45;&gt;Node2 -->
<g id="edge10" class="edge"><title>Node9&#45;&gt;Node2</title>
<path fill="none" stroke="midnightblue" d="M376.429,-123.443C325.553,-114.62 244.292,-100.311 174.215,-87 167.566,-85.737 160.579,-84.3743 153.68,-83.0077"/>
<polygon fill="midnightblue" stroke="midnightblue" points="154.176,-79.5378 143.685,-81.0138 152.807,-86.4026 154.176,-79.5378"/>
</g>
<!-- Node9&#45;&gt;Node3 -->
<g id="edge11" class="edge"><title>Node9&#45;&gt;Node3</title>
<path fill="none" stroke="midnightblue" d="M459.025,-123.475C493.446,-114.532 548.418,-100.249 591.427,-89.0738"/>
<polygon fill="midnightblue" stroke="midnightblue" points="592.446,-92.4253 601.244,-86.523 590.686,-85.6503 592.446,-92.4253"/>
</g>
<!-- Node9&#45;&gt;Node10 -->
<g id="edge12" class="edge"><title>Node9&#45;&gt;Node10</title>
<path fill="none" stroke="midnightblue" d="M396.271,-123.475C359.644,-113.048 297.52,-95.3618 256.931,-83.8066"/>
<polygon fill="midnightblue" stroke="midnightblue" points="257.68,-80.381 247.104,-81.0091 255.764,-87.1135 257.68,-80.381"/>
</g>
<!-- Node9&#45;&gt;Node11 -->
<g id="edge13" class="edge"><title>Node9&#45;&gt;Node11</title>
<path fill="none" stroke="midnightblue" d="M485.021,-123.933C487.79,-123.606 490.532,-123.293 493.215,-123 682.982,-102.287 736.207,-134.035 921.215,-87 923.518,-86.4146 925.864,-85.6838 928.189,-84.8638"/>
<polygon fill="midnightblue" stroke="midnightblue" points="929.496,-88.1106 937.469,-81.1332 926.885,-81.6157 929.496,-88.1106"/>
</g>
<!-- Node9&#45;&gt;Node12 -->
<g id="edge14" class="edge"><title>Node9&#45;&gt;Node12</title>
<path fill="none" stroke="midnightblue" d="M417.905,-123.475C409.033,-114.373 394.769,-99.741 383.795,-88.483"/>
<polygon fill="midnightblue" stroke="midnightblue" points="385.996,-85.7268 376.51,-81.0091 380.984,-90.613 385.996,-85.7268"/>
</g>
<!-- Node13 -->
<g id="node13" class="node"><title>Node13</title>
<polygon fill="white" stroke="#bfbfbf" points="494.215,-62 494.215,-81 544.215,-81 544.215,-62 494.215,-62"/>
<text text-anchor="middle" x="519.215" y="-69" font-family="Helvetica,sans-Serif" font-size="10.00">atomic</text>
</g>
<!-- Node9&#45;&gt;Node13 -->
<g id="edge15" class="edge"><title>Node9&#45;&gt;Node13</title>
<path fill="none" stroke="midnightblue" d="M439.54,-123.475C454.595,-113.843 479.331,-98.0175 497.252,-86.5517"/>
<polygon fill="midnightblue" stroke="midnightblue" points="499.378,-89.3466 505.915,-81.0091 495.606,-83.4501 499.378,-89.3466"/>
</g>
<!-- Node14&#45;&gt;Node9 -->
<g id="edge17" class="edge"><title>Node14&#45;&gt;Node9</title>
<path fill="none" stroke="midnightblue" d="M311.765,-179.444C334.246,-170.517 369.703,-156.439 395.195,-146.317"/>
<polygon fill="midnightblue" stroke="midnightblue" points="396.764,-149.46 404.766,-142.516 394.181,-142.954 396.764,-149.46"/>
</g>
<!-- Node14&#45;&gt;Node10 -->
<g id="edge20" class="edge"><title>Node14&#45;&gt;Node10</title>
<path fill="none" stroke="midnightblue" d="M284.36,-179.441C278.236,-170.438 268.396,-155.824 260.215,-143 248.813,-125.127 236.236,-104.379 227.646,-90.0407"/>
<polygon fill="midnightblue" stroke="midnightblue" points="230.531,-88.0446 222.399,-81.2525 224.52,-91.6329 230.531,-88.0446"/>
</g>
<!-- Node14&#45;&gt;Node12 -->
<g id="edge19" class="edge"><title>Node14&#45;&gt;Node12</title>
<path fill="none" stroke="midnightblue" d="M288.297,-179.339C285.874,-166.214 283.14,-140.922 293.215,-123 302.99,-105.614 321.538,-93.0456 337.742,-84.796"/>
<polygon fill="midnightblue" stroke="midnightblue" points="339.396,-87.8852 346.928,-80.4339 336.393,-81.5619 339.396,-87.8852"/>
</g>
<!-- Node15 -->
<g id="node15" class="node"><title>Node15</title>
<polygon fill="white" stroke="#bfbfbf" points="302.715,-123.5 302.715,-142.5 349.715,-142.5 349.715,-123.5 302.715,-123.5"/>
<text text-anchor="middle" x="326.215" y="-130.5" font-family="Helvetica,sans-Serif" font-size="10.00">cstdlib</text>
</g>
<!-- Node14&#45;&gt;Node15 -->
<g id="edge18" class="edge"><title>Node14&#45;&gt;Node15</title>
<path fill="none" stroke="midnightblue" d="M296.16,-179.083C301.193,-171.534 308.552,-160.495 314.729,-151.23"/>
<polygon fill="midnightblue" stroke="midnightblue" points="317.746,-153.013 320.381,-142.751 311.922,-149.13 317.746,-153.013"/>
</g>
<!-- Node19&#45;&gt;Node3 -->
<g id="edge27" class="edge"><title>Node19&#45;&gt;Node3</title>
<path fill="none" stroke="midnightblue" d="M591.401,-179.319C601.953,-161.657 626.218,-121.039 641.601,-95.2891"/>
<polygon fill="midnightblue" stroke="midnightblue" points="644.701,-96.9251 646.825,-86.5453 638.691,-93.335 644.701,-96.9251"/>
</g>
<!-- Node19&#45;&gt;Node9 -->
<g id="edge28" class="edge"><title>Node19&#45;&gt;Node9</title>
<path fill="none" stroke="midnightblue" d="M560.863,-179.444C533.946,-170.359 491.219,-155.939 461.128,-145.783"/>
<polygon fill="midnightblue" stroke="midnightblue" points="462.043,-142.398 451.449,-142.516 459.805,-149.031 462.043,-142.398"/>
</g>
<!-- Node19&#45;&gt;Node12 -->
<g id="edge36" class="edge"><title>Node19&#45;&gt;Node12</title>
<path fill="none" stroke="midnightblue" d="M584.961,-179.427C582.459,-165.478 575.518,-137.93 558.215,-123 534.491,-102.529 447.057,-85.4446 399.507,-77.4195"/>
<polygon fill="midnightblue" stroke="midnightblue" points="399.885,-73.9345 389.448,-75.7566 398.743,-80.8408 399.885,-73.9345"/>
</g>
<!-- Node19&#45;&gt;Node13 -->
<g id="edge34" class="edge"><title>Node19&#45;&gt;Node13</title>
<path fill="none" stroke="midnightblue" d="M589.83,-179.426C594.719,-166.414 601.791,-141.268 592.215,-123 583.446,-106.271 566.341,-93.9855 550.892,-85.7228"/>
<polygon fill="midnightblue" stroke="midnightblue" points="552.089,-82.4094 541.576,-81.0943 548.975,-88.6783 552.089,-82.4094"/>
</g>
<!-- Node19&#45;&gt;Node17 -->
<g id="edge35" class="edge"><title>Node19&#45;&gt;Node17</title>
<path fill="none" stroke="midnightblue" d="M576.575,-179.324C567.706,-171.341 554.341,-159.313 543.607,-149.653"/>
<polygon fill="midnightblue" stroke="midnightblue" points="545.805,-146.922 536.031,-142.834 541.122,-152.125 545.805,-146.922"/>
</g>
<!-- Node20 -->
<g id="node20" class="node"><title>Node20</title>
<g id="a_node20"><a xlink:href="serializer_8h.html" target="_top" xlink:title="Serializer extension to support TVM data types Include this file to enable serialization of DLDataTyp...">
<polygon fill="white" stroke="black" points="720.215,-123.5 720.215,-142.5 850.215,-142.5 850.215,-123.5 720.215,-123.5"/>
<text text-anchor="middle" x="785.215" y="-130.5" font-family="Helvetica,sans-Serif" font-size="10.00">tvm/runtime/serializer.h</text>
</a>
</g>
</g>
<!-- Node19&#45;&gt;Node20 -->
<g id="edge29" class="edge"><title>Node19&#45;&gt;Node20</title>
<path fill="none" stroke="midnightblue" d="M612.659,-179.444C644.897,-170.142 699.63,-155.246 738.878,-145.062"/>
<polygon fill="midnightblue" stroke="midnightblue" points="739.941,-148.402 748.751,-142.516 738.193,-141.624 739.941,-148.402"/>
</g>
<!-- Node20&#45;&gt;Node3 -->
<g id="edge32" class="edge"><title>Node20&#45;&gt;Node3</title>
<path fill="none" stroke="midnightblue" d="M766.589,-123.475C747.995,-114.965 718.837,-101.619 695.019,-90.718"/>
<polygon fill="midnightblue" stroke="midnightblue" points="696.403,-87.5023 685.854,-86.523 693.49,-93.8673 696.403,-87.5023"/>
</g>
<!-- Node20&#45;&gt;Node8 -->
<g id="edge30" class="edge"><title>Node20&#45;&gt;Node8</title>
<path fill="none" stroke="midnightblue" d="M799.113,-123.475C814.888,-113.799 840.852,-97.8721 859.564,-86.3941"/>
<polygon fill="midnightblue" stroke="midnightblue" points="861.649,-89.2213 868.343,-81.0091 857.989,-83.2544 861.649,-89.2213"/>
</g>
<!-- Node20&#45;&gt;Node19 -->
<g id="edge33" class="edge"><title>Node20&#45;&gt;Node19</title>
<path fill="none" stroke="midnightblue" d="M758.911,-142.516C726.737,-151.802 672.014,-166.697 632.722,-176.894"/>
<polygon fill="midnightblue" stroke="midnightblue" points="631.645,-173.557 622.836,-179.444 633.393,-180.335 631.645,-173.557"/>
</g>
<!-- Node21 -->
<g id="node21" class="node"><title>Node21</title>
<polygon fill="white" stroke="#bfbfbf" points="738.215,-62 738.215,-81 832.215,-81 832.215,-62 738.215,-62"/>
<text text-anchor="middle" x="785.215" y="-69" font-family="Helvetica,sans-Serif" font-size="10.00">dmlc/serializer.h</text>
</g>
<!-- Node20&#45;&gt;Node21 -->
<g id="edge31" class="edge"><title>Node20&#45;&gt;Node21</title>
<path fill="none" stroke="midnightblue" d="M785.215,-123.475C785.215,-115.08 785.215,-101.981 785.215,-91.1631"/>
<polygon fill="midnightblue" stroke="midnightblue" points="788.715,-91.0091 785.215,-81.0091 781.715,-91.0091 788.715,-91.0091"/>
</g>
<!-- Node22&#45;&gt;Node2 -->
<g id="edge39" class="edge"><title>Node22&#45;&gt;Node2</title>
<path fill="none" stroke="midnightblue" d="M102.215,-123.475C102.215,-115.08 102.215,-101.981 102.215,-91.1631"/>
<polygon fill="midnightblue" stroke="midnightblue" points="105.715,-91.0091 102.215,-81.0091 98.7153,-91.0091 105.715,-91.0091"/>
</g>
<!-- Node22&#45;&gt;Node3 -->
<g id="edge38" class="edge"><title>Node22&#45;&gt;Node3</title>
<path fill="none" stroke="midnightblue" d="M170.314,-126.098C258.703,-118.232 417.68,-103.388 553.215,-87 562.441,-85.8845 572.122,-84.6246 581.696,-83.3248"/>
<polygon fill="midnightblue" stroke="midnightblue" points="582.179,-86.7913 591.609,-81.9603 581.225,-79.8567 582.179,-86.7913"/>
</g>
<!-- Node22&#45;&gt;Node10 -->
<g id="edge40" class="edge"><title>Node22&#45;&gt;Node10</title>
<path fill="none" stroke="midnightblue" d="M118.692,-123.475C137.821,-113.578 169.589,-97.1416 191.867,-85.6151"/>
<polygon fill="midnightblue" stroke="midnightblue" points="193.496,-88.713 200.769,-81.0091 190.279,-82.4958 193.496,-88.713"/>
</g>
</g>
</svg>
