<?xml version="1.0" encoding="UTF-8" standalone="no"?>
<!DOCTYPE svg PUBLIC "-//W3C//DTD SVG 1.1//EN"
 "http://www.w3.org/Graphics/SVG/1.1/DTD/svg11.dtd">
<!-- Generated by graphviz version 2.38.0 (20140413.2041)
 -->
<!-- Title: include/tvm/relay/op.h Pages: 1 -->
<svg width="3206pt" height="1125pt"
 viewBox="0.00 0.00 3206.00 1125.00" xmlns="http://www.w3.org/2000/svg" xmlns:xlink="http://www.w3.org/1999/xlink">
<g id="graph0" class="graph" transform="scale(1 1) rotate(0) translate(4 1121)">
<title>include/tvm/relay/op.h</title>
<polygon fill="white" stroke="none" points="-4,4 -4,-1121 3202,-1121 3202,4 -4,4"/>
<!-- Node1 -->
<g id="node1" class="node"><title>Node1</title>
<polygon fill="#bfbfbf" stroke="black" points="1996,-1097.5 1996,-1116.5 2118,-1116.5 2118,-1097.5 1996,-1097.5"/>
<text text-anchor="middle" x="2057" y="-1104.5" font-family="Helvetica,sans-Serif" font-size="10.00">include/tvm/relay/op.h</text>
</g>
<!-- Node2 -->
<g id="node2" class="node"><title>Node2</title>
<g id="a_node2"><a xlink:href="ir_2op_8h.html" target="_top" xlink:title="Primitive operators(builtin intrinsics) and registry for them. ">
<polygon fill="white" stroke="black" points="1771,-985.5 1771,-1004.5 1839,-1004.5 1839,-985.5 1771,-985.5"/>
<text text-anchor="middle" x="1805" y="-992.5" font-family="Helvetica,sans-Serif" font-size="10.00">tvm/ir/op.h</text>
</a>
</g>
</g>
<!-- Node1&#45;&gt;Node2 -->
<g id="edge1" class="edge"><title>Node1&#45;&gt;Node2</title>
<path fill="none" stroke="midnightblue" d="M2037.23,-1097.37C1992.97,-1078.05 1885.78,-1031.26 1833.98,-1008.65"/>
<polygon fill="midnightblue" stroke="midnightblue" points="1835.25,-1005.38 1824.68,-1004.59 1832.45,-1011.8 1835.25,-1005.38"/>
</g>
<!-- Node46 -->
<g id="node46" class="node"><title>Node46</title>
<g id="a_node46"><a xlink:href="relay_2type_8h.html" target="_top" xlink:title="Relay typed AST nodes. ">
<polygon fill="white" stroke="black" points="2085.5,-985.5 2085.5,-1004.5 2180.5,-1004.5 2180.5,-985.5 2085.5,-985.5"/>
<text text-anchor="middle" x="2133" y="-992.5" font-family="Helvetica,sans-Serif" font-size="10.00">tvm/relay/type.h</text>
</a>
</g>
</g>
<!-- Node1&#45;&gt;Node46 -->
<g id="edge156" class="edge"><title>Node1&#45;&gt;Node46</title>
<path fill="none" stroke="midnightblue" d="M2072.2,-1097.36C2084.84,-1089.44 2102.43,-1076.58 2113,-1061 2122.43,-1047.11 2127.55,-1028.6 2130.25,-1014.88"/>
<polygon fill="midnightblue" stroke="midnightblue" points="2133.75,-1015.14 2131.98,-1004.7 2126.85,-1013.97 2133.75,-1015.14"/>
</g>
<!-- Node50 -->
<g id="node50" class="node"><title>Node50</title>
<g id="a_node50"><a xlink:href="relay_2expr_8h.html" target="_top" xlink:title="Relay expression language. ">
<polygon fill="white" stroke="black" points="2010,-1041.5 2010,-1060.5 2104,-1060.5 2104,-1041.5 2010,-1041.5"/>
<text text-anchor="middle" x="2057" y="-1048.5" font-family="Helvetica,sans-Serif" font-size="10.00">tvm/relay/expr.h</text>
</a>
</g>
</g>
<!-- Node1&#45;&gt;Node50 -->
<g id="edge185" class="edge"><title>Node1&#45;&gt;Node50</title>
<path fill="none" stroke="midnightblue" d="M2057,-1097.08C2057,-1090.01 2057,-1079.86 2057,-1070.99"/>
<polygon fill="midnightblue" stroke="midnightblue" points="2060.5,-1070.75 2057,-1060.75 2053.5,-1070.75 2060.5,-1070.75"/>
</g>
<!-- Node3 -->
<g id="node3" class="node"><title>Node3</title>
<polygon fill="white" stroke="#bfbfbf" points="824,-929.5 824,-948.5 910,-948.5 910,-929.5 824,-929.5"/>
<text text-anchor="middle" x="867" y="-936.5" font-family="Helvetica,sans-Serif" font-size="10.00">dmlc/registry.h</text>
</g>
<!-- Node2&#45;&gt;Node3 -->
<g id="edge2" class="edge"><title>Node2&#45;&gt;Node3</title>
<path fill="none" stroke="midnightblue" d="M1770.89,-993.552C1653.09,-991.73 1252.64,-983.242 924,-949 922.739,-948.869 921.463,-948.728 920.177,-948.58"/>
<polygon fill="midnightblue" stroke="midnightblue" points="920.559,-945.1 910.197,-947.311 919.676,-952.044 920.559,-945.1"/>
</g>
<!-- Node4 -->
<g id="node4" class="node"><title>Node4</title>
<g id="a_node4"><a xlink:href="ir_2attrs_8h.html" target="_top" xlink:title="Helpers for attribute objects. ">
<polygon fill="white" stroke="black" points="789.5,-761.5 789.5,-780.5 868.5,-780.5 868.5,-761.5 789.5,-761.5"/>
<text text-anchor="middle" x="829" y="-768.5" font-family="Helvetica,sans-Serif" font-size="10.00">tvm/ir/attrs.h</text>
</a>
</g>
</g>
<!-- Node2&#45;&gt;Node4 -->
<g id="edge3" class="edge"><title>Node2&#45;&gt;Node4</title>
<path fill="none" stroke="midnightblue" d="M1770.78,-993.755C1600.22,-992.37 848.709,-984.276 815,-949 773.521,-905.593 803.263,-825.777 819.863,-790.082"/>
<polygon fill="midnightblue" stroke="midnightblue" points="823.111,-791.405 824.313,-780.878 816.809,-788.357 823.111,-791.405"/>
</g>
<!-- Node6 -->
<g id="node6" class="node"><title>Node6</title>
<g id="a_node6"><a xlink:href="ir_2expr_8h.html" target="_top" xlink:title="Base expr nodes in TVM. ">
<polygon fill="white" stroke="black" points="2236.5,-705.5 2236.5,-724.5 2313.5,-724.5 2313.5,-705.5 2236.5,-705.5"/>
<text text-anchor="middle" x="2275" y="-712.5" font-family="Helvetica,sans-Serif" font-size="10.00">tvm/ir/expr.h</text>
</a>
</g>
</g>
<!-- Node2&#45;&gt;Node6 -->
<g id="edge125" class="edge"><title>Node2&#45;&gt;Node6</title>
<path fill="none" stroke="midnightblue" d="M1805.43,-985.451C1806.51,-972.021 1810.35,-945.785 1824,-929 1828.17,-923.87 2028.03,-819.836 2034,-817 2107.68,-782.005 2196.75,-746.343 2243.24,-728.215"/>
<polygon fill="midnightblue" stroke="midnightblue" points="2244.71,-731.399 2252.77,-724.515 2242.18,-724.874 2244.71,-731.399"/>
</g>
<!-- Node13 -->
<g id="node13" class="node"><title>Node13</title>
<polygon fill="white" stroke="#bfbfbf" points="2777,-62 2777,-81 2821,-81 2821,-62 2777,-62"/>
<text text-anchor="middle" x="2799" y="-69" font-family="Helvetica,sans-Serif" font-size="10.00">string</text>
</g>
<!-- Node2&#45;&gt;Node13 -->
<g id="edge153" class="edge"><title>Node2&#45;&gt;Node13</title>
<path fill="none" stroke="midnightblue" d="M1839.21,-992.898C2046.18,-985.334 3122,-932.888 3122,-660 3122,-660 3122,-660 3122,-188 3122,-151.28 3102.41,-142.022 3071,-123 3031,-98.7748 2894.47,-82.1838 2831.41,-75.6302"/>
<polygon fill="midnightblue" stroke="midnightblue" points="2831.54,-72.1254 2821.23,-74.594 2830.83,-79.0893 2831.54,-72.1254"/>
</g>
<!-- Node14 -->
<g id="node14" class="node"><title>Node14</title>
<polygon fill="white" stroke="#bfbfbf" points="360,-62 360,-81 402,-81 402,-62 360,-62"/>
<text text-anchor="middle" x="381" y="-69" font-family="Helvetica,sans-Serif" font-size="10.00">utility</text>
</g>
<!-- Node2&#45;&gt;Node14 -->
<g id="edge154" class="edge"><title>Node2&#45;&gt;Node14</title>
<path fill="none" stroke="midnightblue" d="M1770.74,-994.237C1579.15,-995.364 638.979,-998.259 354,-949 261.067,-932.936 152,-978.311 152,-884 152,-884 152,-884 152,-658 152,-579.686 103.485,-572.706 72,-501 35.1088,-416.982 0,-399.261 0,-307.5 0,-307.5 0,-307.5 0,-188 0,-148.985 24.6616,-141.522 59,-123 109.095,-95.9794 279.303,-80.2408 349.911,-74.7387"/>
<polygon fill="midnightblue" stroke="midnightblue" points="350.263,-78.2221 359.968,-73.9721 349.731,-71.2424 350.263,-78.2221"/>
</g>
<!-- Node22 -->
<g id="node22" class="node"><title>Node22</title>
<polygon fill="white" stroke="#bfbfbf" points="917.5,-179.5 917.5,-198.5 964.5,-198.5 964.5,-179.5 917.5,-179.5"/>
<text text-anchor="middle" x="941" y="-186.5" font-family="Helvetica,sans-Serif" font-size="10.00">vector</text>
</g>
<!-- Node2&#45;&gt;Node22 -->
<g id="edge155" class="edge"><title>Node2&#45;&gt;Node22</title>
<path fill="none" stroke="midnightblue" d="M1770.9,-993.518C1537.91,-990.009 190,-966.158 190,-884 190,-884 190,-884 190,-770 190,-694.314 228,-679.686 228,-604 228,-604 228,-604 228,-546 228,-371.947 313.76,-319.364 466,-235 485.307,-224.301 801.842,-200.216 907.196,-192.458"/>
<polygon fill="midnightblue" stroke="midnightblue" points="907.566,-195.94 917.283,-191.718 907.053,-188.959 907.566,-195.94"/>
</g>
<!-- Node37 -->
<g id="node37" class="node"><title>Node37</title>
<g id="a_node37"><a xlink:href="ir_2type_8h.html" target="_top" xlink:title="IR/AST nodes for the unified type system in TVM. ">
<polygon fill="white" stroke="black" points="2619.5,-649.5 2619.5,-668.5 2696.5,-668.5 2696.5,-649.5 2619.5,-649.5"/>
<text text-anchor="middle" x="2658" y="-656.5" font-family="Helvetica,sans-Serif" font-size="10.00">tvm/ir/type.h</text>
</a>
</g>
</g>
<!-- Node2&#45;&gt;Node37 -->
<g id="edge126" class="edge"><title>Node2&#45;&gt;Node37</title>
<path fill="none" stroke="midnightblue" d="M1839.32,-989.905C1942.32,-976.85 2256.67,-931.42 2500,-837 2584.7,-804.135 2639.48,-810.207 2671,-725 2676.67,-709.67 2672.05,-691.343 2666.81,-678.063"/>
<polygon fill="midnightblue" stroke="midnightblue" points="2669.89,-676.387 2662.66,-668.648 2663.49,-679.21 2669.89,-676.387"/>
</g>
<!-- Node39 -->
<g id="node39" class="node"><title>Node39</title>
<g id="a_node39"><a xlink:href="registry_8h.html" target="_top" xlink:title="This file defines the TVM global function registry. ">
<polygon fill="white" stroke="black" points="654,-358.5 654,-377.5 776,-377.5 776,-358.5 654,-358.5"/>
<text text-anchor="middle" x="715" y="-365.5" font-family="Helvetica,sans-Serif" font-size="10.00">tvm/runtime/registry.h</text>
</a>
</g>
</g>
<!-- Node2&#45;&gt;Node39 -->
<g id="edge120" class="edge"><title>Node2&#45;&gt;Node39</title>
<path fill="none" stroke="midnightblue" d="M1770.71,-993.613C1637.15,-991.868 1151.72,-983.256 1002,-949 875.558,-920.07 535,-832.892 463,-725 372.525,-589.423 612.355,-430.153 691,-382.884"/>
<polygon fill="midnightblue" stroke="midnightblue" points="692.947,-385.798 699.758,-377.683 689.373,-379.779 692.947,-385.798"/>
</g>
<!-- Node40 -->
<g id="node40" class="node"><title>Node40</title>
<g id="a_node40"><a xlink:href="type__relation_8h.html" target="_top" xlink:title="Type relation and function for type inference(checking). ">
<polygon fill="white" stroke="black" points="1833.5,-929.5 1833.5,-948.5 1952.5,-948.5 1952.5,-929.5 1833.5,-929.5"/>
<text text-anchor="middle" x="1893" y="-936.5" font-family="Helvetica,sans-Serif" font-size="10.00">tvm/ir/type_relation.h</text>
</a>
</g>
</g>
<!-- Node2&#45;&gt;Node40 -->
<g id="edge127" class="edge"><title>Node2&#45;&gt;Node40</title>
<path fill="none" stroke="midnightblue" d="M1819.14,-985.324C1832.87,-976.9 1853.94,-963.971 1870.06,-954.074"/>
<polygon fill="midnightblue" stroke="midnightblue" points="1872.2,-956.868 1878.9,-948.655 1868.54,-950.902 1872.2,-956.868"/>
</g>
<!-- Node5 -->
<g id="node5" class="node"><title>Node5</title>
<polygon fill="white" stroke="#bfbfbf" points="738.5,-705.5 738.5,-724.5 833.5,-724.5 833.5,-705.5 738.5,-705.5"/>
<text text-anchor="middle" x="786" y="-712.5" font-family="Helvetica,sans-Serif" font-size="10.00">dmlc/common.h</text>
</g>
<!-- Node4&#45;&gt;Node5 -->
<g id="edge4" class="edge"><title>Node4&#45;&gt;Node5</title>
<path fill="none" stroke="midnightblue" d="M821.899,-761.083C815.763,-753.377 806.73,-742.033 799.261,-732.653"/>
<polygon fill="midnightblue" stroke="midnightblue" points="801.936,-730.394 792.968,-724.751 796.46,-734.754 801.936,-730.394"/>
</g>
<!-- Node4&#45;&gt;Node6 -->
<g id="edge5" class="edge"><title>Node4&#45;&gt;Node6</title>
<path fill="none" stroke="midnightblue" d="M868.804,-768.514C1072.99,-760.888 2001.96,-726.196 2226.19,-717.823"/>
<polygon fill="midnightblue" stroke="midnightblue" points="2226.46,-721.315 2236.32,-717.444 2226.2,-714.32 2226.46,-721.315"/>
</g>
<!-- Node12 -->
<g id="node12" class="node"><title>Node12</title>
<polygon fill="white" stroke="#bfbfbf" points="770,-62 770,-81 838,-81 838,-62 770,-62"/>
<text text-anchor="middle" x="804" y="-69" font-family="Helvetica,sans-Serif" font-size="10.00">type_traits</text>
</g>
<!-- Node4&#45;&gt;Node12 -->
<g id="edge117" class="edge"><title>Node4&#45;&gt;Node12</title>
<path fill="none" stroke="midnightblue" d="M789.399,-769.069C701.477,-766.437 492.876,-756.921 431,-725 356.737,-686.689 211.125,-522.55 180,-445 154.498,-381.459 155.891,-356.448 176,-291 233.959,-102.365 396.304,-173.765 587,-123 646.472,-107.168 715.84,-91.5087 759.832,-81.9228"/>
<polygon fill="midnightblue" stroke="midnightblue" points="760.603,-85.3371 769.633,-79.7961 759.118,-78.4962 760.603,-85.3371"/>
</g>
<!-- Node4&#45;&gt;Node13 -->
<g id="edge118" class="edge"><title>Node4&#45;&gt;Node13</title>
<path fill="none" stroke="midnightblue" d="M868.784,-769.421C1075.41,-766.322 2027.83,-750.852 2322,-725 2407.69,-717.47 2625.55,-701.963 2705,-669 2724.21,-661.029 2841.05,-572.431 2855,-557 2877.59,-532.006 2894,-525.69 2894,-492 2894,-492 2894,-492 2894,-188 2894,-143.018 2850.49,-106.021 2822.36,-86.8025"/>
<polygon fill="midnightblue" stroke="midnightblue" points="2824.12,-83.7713 2813.84,-81.2 2820.28,-89.6196 2824.12,-83.7713"/>
</g>
<!-- Node4&#45;&gt;Node14 -->
<g id="edge119" class="edge"><title>Node4&#45;&gt;Node14</title>
<path fill="none" stroke="midnightblue" d="M789.453,-768.925C696.555,-765.915 466.981,-755.525 397,-725 284.844,-676.079 38,-429.861 38,-307.5 38,-307.5 38,-307.5 38,-188 38,-148.077 64.8387,-141.909 100,-123 182.261,-78.7616 295.671,-72.2876 349.803,-71.9518"/>
<polygon fill="midnightblue" stroke="midnightblue" points="349.811,-75.4517 359.812,-71.9571 349.814,-68.4517 349.811,-75.4517"/>
</g>
<!-- Node19 -->
<g id="node19" class="node"><title>Node19</title>
<g id="a_node19"><a xlink:href="packed__func_8h.html" target="_top" xlink:title="Type&#45;erased function used across TVM API. ">
<polygon fill="white" stroke="black" points="1606.5,-291.5 1606.5,-321.5 1719.5,-321.5 1719.5,-291.5 1606.5,-291.5"/>
<text text-anchor="start" x="1614.5" y="-309.5" font-family="Helvetica,sans-Serif" font-size="10.00">tvm/runtime/packed</text>
<text text-anchor="middle" x="1663" y="-298.5" font-family="Helvetica,sans-Serif" font-size="10.00">_func.h</text>
</a>
</g>
</g>
<!-- Node4&#45;&gt;Node19 -->
<g id="edge113" class="edge"><title>Node4&#45;&gt;Node19</title>
<path fill="none" stroke="midnightblue" d="M838.691,-761.357C848.431,-752.526 863.721,-738.264 876,-725 971.258,-622.105 965.682,-567.553 1076,-481 1234.05,-356.995 1478.78,-321.522 1595.98,-311.449"/>
<polygon fill="midnightblue" stroke="midnightblue" points="1596.56,-314.913 1606.23,-310.605 1595.98,-307.937 1596.56,-314.913"/>
</g>
<!-- Node4&#45;&gt;Node22 -->
<g id="edge115" class="edge"><title>Node4&#45;&gt;Node22</title>
<path fill="none" stroke="midnightblue" d="M789.312,-768.949C706.402,-766.143 517.96,-756.406 463,-725 366.648,-669.941 396.248,-591.118 410,-481 418.241,-415.012 465.32,-247.119 480,-235 496.471,-221.403 803.184,-199.376 906.99,-192.28"/>
<polygon fill="midnightblue" stroke="midnightblue" points="907.487,-195.755 917.226,-191.584 907.012,-188.771 907.487,-195.755"/>
</g>
<!-- Node23 -->
<g id="node23" class="node"><title>Node23</title>
<polygon fill="white" stroke="#bfbfbf" points="1245.5,-179.5 1245.5,-198.5 1338.5,-198.5 1338.5,-179.5 1245.5,-179.5"/>
<text text-anchor="middle" x="1292" y="-186.5" font-family="Helvetica,sans-Serif" font-size="10.00">unordered_map</text>
</g>
<!-- Node4&#45;&gt;Node23 -->
<g id="edge114" class="edge"><title>Node4&#45;&gt;Node23</title>
<path fill="none" stroke="midnightblue" d="M831.888,-761.471C834.827,-752.493 839.321,-737.899 842,-725 868.837,-595.783 880,-562.474 880,-430.5 880,-430.5 880,-430.5 880,-367 880,-214.316 1121.82,-191.692 1234.93,-189.462"/>
<polygon fill="midnightblue" stroke="midnightblue" points="1235.19,-192.958 1245.14,-189.309 1235.09,-185.959 1235.19,-192.958"/>
</g>
<!-- Node26 -->
<g id="node26" class="node"><title>Node26</title>
<polygon fill="white" stroke="#bfbfbf" points="560.5,-235.5 560.5,-254.5 623.5,-254.5 623.5,-235.5 560.5,-235.5"/>
<text text-anchor="middle" x="592" y="-242.5" font-family="Helvetica,sans-Serif" font-size="10.00">functional</text>
</g>
<!-- Node4&#45;&gt;Node26 -->
<g id="edge116" class="edge"><title>Node4&#45;&gt;Node26</title>
<path fill="none" stroke="midnightblue" d="M789.429,-767.69C687.521,-760.666 424,-735.228 424,-660 424,-660 424,-660 424,-490 424,-386.816 527.181,-295.503 571.819,-260.827"/>
<polygon fill="midnightblue" stroke="midnightblue" points="574.082,-263.503 579.918,-254.66 569.841,-257.934 574.082,-263.503"/>
</g>
<!-- Node7 -->
<g id="node7" class="node"><title>Node7</title>
<g id="a_node7"><a xlink:href="object_8h.html" target="_top" xlink:title="A managed object in the TVM runtime. ">
<polygon fill="white" stroke="black" points="1863.5,-123.5 1863.5,-142.5 1980.5,-142.5 1980.5,-123.5 1863.5,-123.5"/>
<text text-anchor="middle" x="1922" y="-130.5" font-family="Helvetica,sans-Serif" font-size="10.00">tvm/runtime/object.h</text>
</a>
</g>
</g>
<!-- Node6&#45;&gt;Node7 -->
<g id="edge6" class="edge"><title>Node6&#45;&gt;Node7</title>
<path fill="none" stroke="midnightblue" d="M2313.95,-710.227C2372.65,-702.156 2477,-677.475 2477,-604 2477,-604 2477,-604 2477,-546 2477,-407.546 2584,-341.059 2495,-235 2478.79,-215.688 2139.32,-165.063 1990.68,-143.716"/>
<polygon fill="midnightblue" stroke="midnightblue" points="1991.14,-140.246 1980.75,-142.291 1990.15,-147.175 1991.14,-140.246"/>
</g>
<!-- Node6&#45;&gt;Node12 -->
<g id="edge112" class="edge"><title>Node6&#45;&gt;Node12</title>
<path fill="none" stroke="midnightblue" d="M2257.27,-705.404C2239.36,-696.608 2210.98,-682.374 2187,-669 2172.02,-660.646 2170.23,-654.54 2154,-649 2068.17,-619.706 1433.11,-567.249 1343,-557 1124.77,-532.177 1067.38,-544.052 852,-501 672.081,-465.036 565.225,-484.484 480,-322 428.925,-224.623 530.02,-174.824 627,-123 669.249,-100.423 722.711,-86.9707 759.766,-79.6984"/>
<polygon fill="midnightblue" stroke="midnightblue" points="760.584,-83.1058 769.76,-77.8086 759.284,-76.2277 760.584,-83.1058"/>
</g>
<!-- Node6&#45;&gt;Node13 -->
<g id="edge109" class="edge"><title>Node6&#45;&gt;Node13</title>
<path fill="none" stroke="midnightblue" d="M2313.81,-708.943C2364.61,-701.936 2456.19,-687.961 2533,-669 2572.44,-659.265 2672.8,-634.917 2707,-613 2737.72,-593.312 2818,-528.489 2818,-492 2818,-492 2818,-492 2818,-188 2818,-153.405 2809.6,-113.745 2803.97,-91.0547"/>
<polygon fill="midnightblue" stroke="midnightblue" points="2807.29,-89.9237 2801.41,-81.1136 2800.51,-91.6707 2807.29,-89.9237"/>
</g>
<!-- Node16 -->
<g id="node16" class="node"><title>Node16</title>
<g id="a_node16"><a xlink:href="node_8h.html" target="_top" xlink:title="Definitions and helper macros for IR/AST nodes. ">
<polygon fill="white" stroke="black" points="1457,-537.5 1457,-556.5 1555,-556.5 1555,-537.5 1457,-537.5"/>
<text text-anchor="middle" x="1506" y="-544.5" font-family="Helvetica,sans-Serif" font-size="10.00">tvm/node/node.h</text>
</a>
</g>
</g>
<!-- Node6&#45;&gt;Node16 -->
<g id="edge15" class="edge"><title>Node6&#45;&gt;Node16</title>
<path fill="none" stroke="midnightblue" d="M2270.69,-705.496C2263.24,-691.648 2246.66,-664.24 2225,-649 2158.56,-602.245 2130.74,-608.549 2051,-593 1841.2,-552.09 1781.43,-580.762 1565.1,-557.02"/>
<polygon fill="midnightblue" stroke="midnightblue" points="1565.34,-553.525 1555.01,-555.888 1564.56,-560.481 1565.34,-553.525"/>
</g>
<!-- Node28 -->
<g id="node28" class="node"><title>Node28</title>
<polygon fill="white" stroke="#bfbfbf" points="2444,-235.5 2444,-254.5 2486,-254.5 2486,-235.5 2444,-235.5"/>
<text text-anchor="middle" x="2465" y="-242.5" font-family="Helvetica,sans-Serif" font-size="10.00">limits</text>
</g>
<!-- Node6&#45;&gt;Node28 -->
<g id="edge111" class="edge"><title>Node6&#45;&gt;Node28</title>
<path fill="none" stroke="midnightblue" d="M2278.78,-705.222C2296.94,-663.029 2376.74,-476.735 2437,-322 2444.55,-302.599 2452.74,-280.217 2458.29,-264.792"/>
<polygon fill="midnightblue" stroke="midnightblue" points="2461.75,-265.527 2461.83,-254.932 2455.16,-263.164 2461.75,-265.527"/>
</g>
<!-- Node31 -->
<g id="node31" class="node"><title>Node31</title>
<g id="a_node31"><a xlink:href="node_2container_8h.html" target="_top" xlink:title="Array/Map container in the DSL graph. ">
<polygon fill="white" stroke="black" points="1374.5,-358.5 1374.5,-377.5 1493.5,-377.5 1493.5,-358.5 1374.5,-358.5"/>
<text text-anchor="middle" x="1434" y="-365.5" font-family="Helvetica,sans-Serif" font-size="10.00">tvm/node/container.h</text>
</a>
</g>
</g>
<!-- Node6&#45;&gt;Node31 -->
<g id="edge97" class="edge"><title>Node6&#45;&gt;Node31</title>
<path fill="none" stroke="midnightblue" d="M2266.04,-705.428C2250.96,-691.481 2219.02,-663.936 2187,-649 2162.97,-637.788 1981.2,-597.064 1955,-593 1809.97,-570.507 1384.28,-621.847 1301,-501 1281.01,-471.987 1313.17,-436.471 1337,-414 1352.99,-398.925 1374.93,-388.17 1393.9,-380.963"/>
<polygon fill="midnightblue" stroke="midnightblue" points="1395.27,-384.188 1403.5,-377.513 1392.91,-377.6 1395.27,-384.188"/>
</g>
<!-- Node36 -->
<g id="node36" class="node"><title>Node36</title>
<g id="a_node36"><a xlink:href="span_8h.html" target="_top" xlink:title="Span information for debugging purposes. ">
<polygon fill="white" stroke="black" points="2618,-593.5 2618,-612.5 2698,-612.5 2698,-593.5 2618,-593.5"/>
<text text-anchor="middle" x="2658" y="-600.5" font-family="Helvetica,sans-Serif" font-size="10.00">tvm/ir/span.h</text>
</a>
</g>
</g>
<!-- Node6&#45;&gt;Node36 -->
<g id="edge98" class="edge"><title>Node6&#45;&gt;Node36</title>
<path fill="none" stroke="midnightblue" d="M2313.71,-707.928C2357.31,-700.633 2430.04,-687.078 2491,-669 2540.74,-654.25 2596.54,-631.137 2629.4,-616.814"/>
<polygon fill="midnightblue" stroke="midnightblue" points="2631.08,-619.898 2638.82,-612.67 2628.26,-613.489 2631.08,-619.898"/>
</g>
<!-- Node6&#45;&gt;Node37 -->
<g id="edge102" class="edge"><title>Node6&#45;&gt;Node37</title>
<path fill="none" stroke="midnightblue" d="M2313.69,-708.319C2321.41,-707.204 2329.46,-706.054 2337,-705 2456.02,-688.367 2486.18,-687.063 2605,-669 2606.3,-668.803 2607.61,-668.6 2608.94,-668.393"/>
<polygon fill="midnightblue" stroke="midnightblue" points="2609.92,-671.781 2619.24,-666.742 2608.81,-664.869 2609.92,-671.781"/>
</g>
<!-- Node38 -->
<g id="node38" class="node"><title>Node38</title>
<polygon fill="white" stroke="#bfbfbf" points="2083,-649.5 2083,-668.5 2145,-668.5 2145,-649.5 2083,-649.5"/>
<text text-anchor="middle" x="2114" y="-656.5" font-family="Helvetica,sans-Serif" font-size="10.00">algorithm</text>
</g>
<!-- Node6&#45;&gt;Node38 -->
<g id="edge110" class="edge"><title>Node6&#45;&gt;Node38</title>
<path fill="none" stroke="midnightblue" d="M2249.49,-705.444C2222.4,-696.359 2179.41,-681.939 2149.13,-671.783"/>
<polygon fill="midnightblue" stroke="midnightblue" points="2149.99,-668.378 2139.39,-668.516 2147.76,-675.015 2149.99,-668.378"/>
</g>
<!-- Node8 -->
<g id="node8" class="node"><title>Node8</title>
<polygon fill="white" stroke="#bfbfbf" points="1922,-62 1922,-81 2008,-81 2008,-62 1922,-62"/>
<text text-anchor="middle" x="1965" y="-69" font-family="Helvetica,sans-Serif" font-size="10.00">dmlc/logging.h</text>
</g>
<!-- Node7&#45;&gt;Node8 -->
<g id="edge7" class="edge"><title>Node7&#45;&gt;Node8</title>
<path fill="none" stroke="midnightblue" d="M1928.16,-123.475C1934.61,-114.55 1944.9,-100.307 1952.97,-89.1425"/>
<polygon fill="midnightblue" stroke="midnightblue" points="1955.83,-91.1642 1958.85,-81.0091 1950.16,-87.064 1955.83,-91.1642"/>
</g>
<!-- Node9 -->
<g id="node9" class="node"><title>Node9</title>
<g id="a_node9"><a xlink:href="c__runtime__api_8h.html" target="_top" xlink:title="tvm/runtime/c_runtime\l_api.h">
<polygon fill="white" stroke="red" points="1638.5,-56.5 1638.5,-86.5 1765.5,-86.5 1765.5,-56.5 1638.5,-56.5"/>
<text text-anchor="start" x="1646.5" y="-74.5" font-family="Helvetica,sans-Serif" font-size="10.00">tvm/runtime/c_runtime</text>
<text text-anchor="middle" x="1702" y="-63.5" font-family="Helvetica,sans-Serif" font-size="10.00">_api.h</text>
</a>
</g>
</g>
<!-- Node7&#45;&gt;Node9 -->
<g id="edge8" class="edge"><title>Node7&#45;&gt;Node9</title>
<path fill="none" stroke="midnightblue" d="M1890.48,-123.475C1857.48,-114.551 1804.82,-100.309 1763.54,-89.1444"/>
<polygon fill="midnightblue" stroke="midnightblue" points="1764.42,-85.7552 1753.85,-86.523 1762.59,-92.5124 1764.42,-85.7552"/>
</g>
<!-- Node7&#45;&gt;Node12 -->
<g id="edge11" class="edge"><title>Node7&#45;&gt;Node12</title>
<path fill="none" stroke="midnightblue" d="M1863.47,-128.885C1665.44,-118.346 1023.25,-84.1685 848.341,-74.8598"/>
<polygon fill="midnightblue" stroke="midnightblue" points="848.386,-71.3574 838.214,-74.3209 848.014,-78.3475 848.386,-71.3574"/>
</g>
<!-- Node7&#45;&gt;Node13 -->
<g id="edge12" class="edge"><title>Node7&#45;&gt;Node13</title>
<path fill="none" stroke="midnightblue" d="M1980.56,-128.027C2150.01,-116.53 2636.99,-83.4914 2766.85,-74.681"/>
<polygon fill="midnightblue" stroke="midnightblue" points="2767.2,-78.1654 2776.94,-73.9965 2766.73,-71.1815 2767.2,-78.1654"/>
</g>
<!-- Node7&#45;&gt;Node14 -->
<g id="edge13" class="edge"><title>Node7&#45;&gt;Node14</title>
<path fill="none" stroke="midnightblue" d="M1863.47,-129.74C1609.06,-119.917 603.47,-81.0899 412.43,-73.7135"/>
<polygon fill="midnightblue" stroke="midnightblue" points="412.364,-70.2085 402.236,-73.32 412.094,-77.2033 412.364,-70.2085"/>
</g>
<!-- Node15 -->
<g id="node15" class="node"><title>Node15</title>
<polygon fill="white" stroke="#bfbfbf" points="1813,-62 1813,-81 1863,-81 1863,-62 1813,-62"/>
<text text-anchor="middle" x="1838" y="-69" font-family="Helvetica,sans-Serif" font-size="10.00">atomic</text>
</g>
<!-- Node7&#45;&gt;Node15 -->
<g id="edge14" class="edge"><title>Node7&#45;&gt;Node15</title>
<path fill="none" stroke="midnightblue" d="M1909.96,-123.475C1896.49,-113.931 1874.43,-98.3073 1858.28,-86.8683"/>
<polygon fill="midnightblue" stroke="midnightblue" points="1860.2,-83.9332 1850.01,-81.0091 1856.15,-89.6454 1860.2,-83.9332"/>
</g>
<!-- Node10 -->
<g id="node10" class="node"><title>Node10</title>
<polygon fill="white" stroke="#bfbfbf" points="1612,-0.5 1612,-19.5 1702,-19.5 1702,-0.5 1612,-0.5"/>
<text text-anchor="middle" x="1657" y="-7.5" font-family="Helvetica,sans-Serif" font-size="10.00">dlpack/dlpack.h</text>
</g>
<!-- Node9&#45;&gt;Node10 -->
<g id="edge9" class="edge"><title>Node9&#45;&gt;Node10</title>
<path fill="none" stroke="midnightblue" d="M1691.34,-56.3993C1684.86,-47.8424 1676.57,-36.8708 1669.75,-27.857"/>
<polygon fill="midnightblue" stroke="midnightblue" points="1672.37,-25.5223 1663.55,-19.6578 1666.79,-29.7449 1672.37,-25.5223"/>
</g>
<!-- Node11 -->
<g id="node11" class="node"><title>Node11</title>
<polygon fill="white" stroke="#bfbfbf" points="1720.5,-0.5 1720.5,-19.5 1773.5,-19.5 1773.5,-0.5 1720.5,-0.5"/>
<text text-anchor="middle" x="1747" y="-7.5" font-family="Helvetica,sans-Serif" font-size="10.00">stdint.h</text>
</g>
<!-- Node9&#45;&gt;Node11 -->
<g id="edge10" class="edge"><title>Node9&#45;&gt;Node11</title>
<path fill="none" stroke="midnightblue" d="M1712.66,-56.3993C1719.14,-47.8424 1727.43,-36.8708 1734.25,-27.857"/>
<polygon fill="midnightblue" stroke="midnightblue" points="1737.21,-29.7449 1740.45,-19.6578 1731.63,-25.5223 1737.21,-29.7449"/>
</g>
<!-- Node16&#45;&gt;Node7 -->
<g id="edge17" class="edge"><title>Node16&#45;&gt;Node7</title>
<path fill="none" stroke="midnightblue" d="M1555.03,-538.27C1558.06,-537.83 1561.07,-537.403 1564,-537 1697.04,-518.701 1734.68,-537.211 1864,-501 1884.69,-495.208 1887.41,-487.135 1908,-481 2008.84,-450.948 2052.62,-500.524 2142,-445 2226.19,-392.704 2266.93,-320.61 2217,-235 2191.53,-191.333 2165.13,-197.291 2118,-179 2076.32,-162.823 2027.3,-151.57 1988.7,-144.363"/>
<polygon fill="midnightblue" stroke="midnightblue" points="1989.08,-140.875 1978.62,-142.527 1987.83,-147.762 1989.08,-140.875"/>
</g>
<!-- Node16&#45;&gt;Node9 -->
<g id="edge16" class="edge"><title>Node16&#45;&gt;Node9</title>
<path fill="none" stroke="midnightblue" d="M1456.75,-540.413C1407.06,-533.958 1328.51,-521.506 1263,-501 1072.5,-441.373 830.385,-487.406 866,-291 875.486,-238.69 866.706,-212.483 908,-179 1017.69,-90.055 1453.01,-75.2069 1628.3,-72.8689"/>
<polygon fill="midnightblue" stroke="midnightblue" points="1628.51,-76.3668 1638.46,-72.7436 1628.42,-69.3673 1628.51,-76.3668"/>
</g>
<!-- Node16&#45;&gt;Node12 -->
<g id="edge96" class="edge"><title>Node16&#45;&gt;Node12</title>
<path fill="none" stroke="midnightblue" d="M1456.77,-543.206C1305.74,-534.094 851.114,-502.459 716,-445 667.446,-424.352 659.317,-410.813 618,-378 560.801,-332.573 501.212,-298.675 537,-235 585.103,-149.412 698.577,-103.635 760.994,-84.1465"/>
<polygon fill="midnightblue" stroke="midnightblue" points="762.37,-87.3865 770.923,-81.1338 760.338,-80.6881 762.37,-87.3865"/>
</g>
<!-- Node16&#45;&gt;Node13 -->
<g id="edge93" class="edge"><title>Node16&#45;&gt;Node13</title>
<path fill="none" stroke="midnightblue" d="M1555.02,-538.226C1558.06,-537.797 1561.07,-537.384 1564,-537 1712.91,-517.48 1751.57,-523.905 1900,-501 2024.13,-481.845 2056.75,-481.275 2177,-445 2289.32,-411.117 2666,-363.32 2666,-246 2666,-246 2666,-246 2666,-188 2666,-134.575 2727.93,-100.279 2767.28,-83.8839"/>
<polygon fill="midnightblue" stroke="midnightblue" points="2768.75,-87.0627 2776.74,-80.1005 2766.15,-80.5629 2768.75,-87.0627"/>
</g>
<!-- Node16&#45;&gt;Node14 -->
<g id="edge95" class="edge"><title>Node16&#45;&gt;Node14</title>
<path fill="none" stroke="midnightblue" d="M1456.75,-546.162C1347.19,-545.751 1075.31,-540.451 852,-501 763.626,-485.387 742.61,-474.915 658,-445 470.169,-378.589 350.944,-427.919 252,-255 222.864,-204.08 218.931,-171.458 252,-123 273.768,-91.1018 318.979,-79.351 349.661,-75.0228"/>
<polygon fill="midnightblue" stroke="midnightblue" points="350.343,-78.4657 359.845,-73.7806 349.495,-71.5172 350.343,-78.4657"/>
</g>
<!-- Node17 -->
<g id="node17" class="node"><title>Node17</title>
<g id="a_node17"><a xlink:href="runtime_2memory_8h.html" target="_top" xlink:title="Runtime memory management. ">
<polygon fill="white" stroke="red" points="648.5,-179.5 648.5,-198.5 775.5,-198.5 775.5,-179.5 648.5,-179.5"/>
<text text-anchor="middle" x="712" y="-186.5" font-family="Helvetica,sans-Serif" font-size="10.00">tvm/runtime/memory.h</text>
</a>
</g>
</g>
<!-- Node16&#45;&gt;Node17 -->
<g id="edge18" class="edge"><title>Node16&#45;&gt;Node17</title>
<path fill="none" stroke="midnightblue" d="M1456.81,-541.717C1294.46,-526.782 778.443,-472.69 645,-378 613.272,-355.486 520.315,-265.864 544,-235 556.117,-219.211 600.304,-207.75 640.319,-200.347"/>
<polygon fill="midnightblue" stroke="midnightblue" points="641.151,-203.754 650.381,-198.552 639.921,-196.862 641.151,-203.754"/>
</g>
<!-- Node18 -->
<g id="node18" class="node"><title>Node18</title>
<g id="a_node18"><a xlink:href="reflection_8h.html" target="_top" xlink:title="Reflection and serialization of compiler IR/AST nodes. ">
<polygon fill="white" stroke="black" points="1736.5,-481.5 1736.5,-500.5 1855.5,-500.5 1855.5,-481.5 1736.5,-481.5"/>
<text text-anchor="middle" x="1796" y="-488.5" font-family="Helvetica,sans-Serif" font-size="10.00">tvm/node/reflection.h</text>
</a>
</g>
</g>
<!-- Node16&#45;&gt;Node18 -->
<g id="edge22" class="edge"><title>Node16&#45;&gt;Node18</title>
<path fill="none" stroke="midnightblue" d="M1551.95,-537.444C1603.07,-527.925 1685.65,-512.547 1740.38,-502.356"/>
<polygon fill="midnightblue" stroke="midnightblue" points="1741.07,-505.788 1750.26,-500.516 1739.79,-498.906 1741.07,-505.788"/>
</g>
<!-- Node16&#45;&gt;Node22 -->
<g id="edge94" class="edge"><title>Node16&#45;&gt;Node22</title>
<path fill="none" stroke="midnightblue" d="M1456.94,-542.078C1413.93,-537.08 1350.69,-525.872 1301,-501 1143.56,-422.195 998.704,-258.992 954.639,-206.587"/>
<polygon fill="midnightblue" stroke="midnightblue" points="957.11,-204.085 948.02,-198.642 951.732,-208.565 957.11,-204.085"/>
</g>
<!-- Node29 -->
<g id="node29" class="node"><title>Node29</title>
<g id="a_node29"><a xlink:href="structural__equal_8h.html" target="_top" xlink:title="Structural equality comparison. ">
<polygon fill="white" stroke="black" points="1744.5,-414.5 1744.5,-444.5 1855.5,-444.5 1855.5,-414.5 1744.5,-414.5"/>
<text text-anchor="start" x="1752.5" y="-432.5" font-family="Helvetica,sans-Serif" font-size="10.00">tvm/node/structural</text>
<text text-anchor="middle" x="1800" y="-421.5" font-family="Helvetica,sans-Serif" font-size="10.00">_equal.h</text>
</a>
</g>
</g>
<!-- Node16&#45;&gt;Node29 -->
<g id="edge91" class="edge"><title>Node16&#45;&gt;Node29</title>
<path fill="none" stroke="midnightblue" d="M1528.1,-537.319C1576.11,-518.456 1690.77,-473.41 1754.8,-448.256"/>
<polygon fill="midnightblue" stroke="midnightblue" points="1756.22,-451.46 1764.25,-444.545 1753.66,-444.944 1756.22,-451.46"/>
</g>
<!-- Node16&#45;&gt;Node31 -->
<g id="edge90" class="edge"><title>Node16&#45;&gt;Node31</title>
<path fill="none" stroke="midnightblue" d="M1502.53,-537.463C1491.44,-510.195 1456.69,-424.783 1441.38,-387.133"/>
<polygon fill="midnightblue" stroke="midnightblue" points="1444.62,-385.813 1437.61,-377.868 1438.13,-388.45 1444.62,-385.813"/>
</g>
<!-- Node33 -->
<g id="node33" class="node"><title>Node33</title>
<g id="a_node33"><a xlink:href="structural__hash_8h.html" target="_top" xlink:title="tvm/node/structural\l_hash.h">
<polygon fill="white" stroke="black" points="1576.5,-414.5 1576.5,-444.5 1687.5,-444.5 1687.5,-414.5 1576.5,-414.5"/>
<text text-anchor="start" x="1584.5" y="-432.5" font-family="Helvetica,sans-Serif" font-size="10.00">tvm/node/structural</text>
<text text-anchor="middle" x="1632" y="-421.5" font-family="Helvetica,sans-Serif" font-size="10.00">_hash.h</text>
</a>
</g>
</g>
<!-- Node16&#45;&gt;Node33 -->
<g id="edge92" class="edge"><title>Node16&#45;&gt;Node33</title>
<path fill="none" stroke="midnightblue" d="M1515.47,-537.319C1535.16,-519.27 1581,-477.246 1608.96,-451.617"/>
<polygon fill="midnightblue" stroke="midnightblue" points="1611.67,-453.883 1616.68,-444.545 1606.94,-448.723 1611.67,-453.883"/>
</g>
<!-- Node34 -->
<g id="node34" class="node"><title>Node34</title>
<g id="a_node34"><a xlink:href="repr__printer_8h.html" target="_top" xlink:title="Printer class to print repr string of each AST/IR nodes. ">
<polygon fill="white" stroke="black" points="1310,-481.5 1310,-500.5 1440,-500.5 1440,-481.5 1310,-481.5"/>
<text text-anchor="middle" x="1375" y="-488.5" font-family="Helvetica,sans-Serif" font-size="10.00">tvm/node/repr_printer.h</text>
</a>
</g>
</g>
<!-- Node16&#45;&gt;Node34 -->
<g id="edge87" class="edge"><title>Node16&#45;&gt;Node34</title>
<path fill="none" stroke="midnightblue" d="M1485.24,-537.444C1463.68,-528.557 1429.74,-514.563 1405.21,-504.451"/>
<polygon fill="midnightblue" stroke="midnightblue" points="1406.24,-501.092 1395.66,-500.516 1403.57,-507.563 1406.24,-501.092"/>
</g>
<!-- Node17&#45;&gt;Node7 -->
<g id="edge19" class="edge"><title>Node17&#45;&gt;Node7</title>
<path fill="none" stroke="midnightblue" d="M775.554,-185.057C813.91,-183.287 863.762,-180.997 908,-179 1263.49,-162.95 1689.1,-144.22 1853,-137.025"/>
<polygon fill="midnightblue" stroke="midnightblue" points="1853.58,-140.503 1863.42,-136.568 1853.27,-133.51 1853.58,-140.503"/>
</g>
<!-- Node17&#45;&gt;Node12 -->
<g id="edge21" class="edge"><title>Node17&#45;&gt;Node12</title>
<path fill="none" stroke="midnightblue" d="M718.915,-179.319C734.166,-160.172 770.908,-114.044 790.753,-89.1306"/>
<polygon fill="midnightblue" stroke="midnightblue" points="793.512,-91.2846 797.005,-81.282 788.037,-86.9233 793.512,-91.2846"/>
</g>
<!-- Node17&#45;&gt;Node14 -->
<g id="edge20" class="edge"><title>Node17&#45;&gt;Node14</title>
<path fill="none" stroke="midnightblue" d="M687.392,-179.413C628.088,-158.719 477.356,-106.123 412.006,-83.3193"/>
<polygon fill="midnightblue" stroke="midnightblue" points="412.873,-79.9148 402.278,-79.9247 410.566,-86.524 412.873,-79.9148"/>
</g>
<!-- Node18&#45;&gt;Node7 -->
<g id="edge24" class="edge"><title>Node18&#45;&gt;Node7</title>
<path fill="none" stroke="midnightblue" d="M1855.69,-482.162C1945.35,-470.29 2104.89,-448.732 2110,-445 2185.75,-389.641 2181.02,-346.448 2202,-255 2219.06,-180.606 2119.8,-204.877 2048,-179 2016.75,-167.737 1981.09,-155.014 1955.7,-145.977"/>
<polygon fill="midnightblue" stroke="midnightblue" points="1956.76,-142.64 1946.17,-142.586 1954.42,-149.235 1956.76,-142.64"/>
</g>
<!-- Node18&#45;&gt;Node9 -->
<g id="edge23" class="edge"><title>Node18&#45;&gt;Node9</title>
<path fill="none" stroke="midnightblue" d="M1831.82,-481.478C1859.4,-474.076 1897.95,-461.882 1929,-445 1991.26,-411.152 2211.51,-291.702 2169,-235 2167.63,-233.177 1856.13,-143.801 1854,-143 1813.4,-127.755 1768.54,-106.358 1738.15,-91.1435"/>
<polygon fill="midnightblue" stroke="midnightblue" points="1739.71,-88.0097 1729.2,-86.634 1736.56,-94.2605 1739.71,-88.0097"/>
</g>
<!-- Node18&#45;&gt;Node12 -->
<g id="edge86" class="edge"><title>Node18&#45;&gt;Node12</title>
<path fill="none" stroke="midnightblue" d="M1746.62,-481.438C1700.09,-473.099 1628.5,-459.577 1567,-445 1368.59,-397.973 1313.32,-400.191 1125,-322 1022.61,-279.49 992.849,-270.349 908,-199 868.271,-165.592 832.311,-115.493 814.953,-89.5036"/>
<polygon fill="midnightblue" stroke="midnightblue" points="817.844,-87.5296 809.427,-81.095 811.994,-91.3741 817.844,-87.5296"/>
</g>
<!-- Node18&#45;&gt;Node13 -->
<g id="edge85" class="edge"><title>Node18&#45;&gt;Node13</title>
<path fill="none" stroke="midnightblue" d="M1855.81,-483.828C1947.76,-474.099 2116.01,-455.249 2142,-445 2291.05,-386.229 2298.34,-318.628 2435,-235 2527.57,-178.349 2552.19,-165.633 2652,-123 2690.63,-106.501 2736.62,-91.397 2766.75,-82.0904"/>
<polygon fill="midnightblue" stroke="midnightblue" points="2768.17,-85.3176 2776.71,-79.0476 2766.12,-78.6233 2768.17,-85.3176"/>
</g>
<!-- Node18&#45;&gt;Node17 -->
<g id="edge25" class="edge"><title>Node18&#45;&gt;Node17</title>
<path fill="none" stroke="midnightblue" d="M1736.43,-490.318C1587.38,-488.761 1189.84,-469.956 904,-322 836.067,-286.837 763.732,-231.597 730.565,-205.128"/>
<polygon fill="midnightblue" stroke="midnightblue" points="732.628,-202.296 722.643,-198.756 728.241,-207.75 732.628,-202.296"/>
</g>
<!-- Node18&#45;&gt;Node19 -->
<g id="edge26" class="edge"><title>Node18&#45;&gt;Node19</title>
<path fill="none" stroke="midnightblue" d="M1819.45,-481.408C1835.16,-474.28 1854.62,-462.458 1864,-445 1870.52,-432.864 1871.1,-425.805 1864,-414 1835.01,-365.826 1776.09,-338.296 1729.51,-323.347"/>
<polygon fill="midnightblue" stroke="midnightblue" points="1730.36,-319.946 1719.77,-320.345 1728.29,-326.636 1730.36,-319.946"/>
</g>
<!-- Node18&#45;&gt;Node22 -->
<g id="edge84" class="edge"><title>Node18&#45;&gt;Node22</title>
<path fill="none" stroke="midnightblue" d="M1784.21,-481.497C1771.86,-472.54 1751.93,-457.963 1735,-445 1717.42,-431.537 1714.62,-425.987 1696,-414 1620.46,-365.362 1590.22,-372.632 1516,-322 1498.83,-310.289 1500.07,-299.254 1481,-291 1321.25,-221.86 1258.15,-303.598 1091,-255 1072.29,-249.562 1069.71,-243.112 1052,-235 1025.82,-223.007 995.473,-210.819 973.136,-202.157"/>
<polygon fill="midnightblue" stroke="midnightblue" points="974.375,-198.884 963.785,-198.556 971.859,-205.416 974.375,-198.884"/>
</g>
<!-- Node24 -->
<g id="node24" class="node"><title>Node24</title>
<g id="a_node24"><a xlink:href="ndarray_8h.html" target="_top" xlink:title="A device&#45;independent managed NDArray abstraction. ">
<polygon fill="white" stroke="red" points="1692.5,-235.5 1692.5,-254.5 1815.5,-254.5 1815.5,-235.5 1692.5,-235.5"/>
<text text-anchor="middle" x="1754" y="-242.5" font-family="Helvetica,sans-Serif" font-size="10.00">tvm/runtime/ndarray.h</text>
</a>
</g>
</g>
<!-- Node18&#45;&gt;Node24 -->
<g id="edge57" class="edge"><title>Node18&#45;&gt;Node24</title>
<path fill="none" stroke="midnightblue" d="M1829.8,-481.388C1848.39,-474.735 1869.89,-463.453 1881,-445 1888.11,-433.197 1885.38,-427.062 1881,-414 1859.1,-348.728 1800.71,-288.586 1771.36,-261.34"/>
<polygon fill="midnightblue" stroke="midnightblue" points="1773.65,-258.696 1763.9,-254.551 1768.94,-263.872 1773.65,-258.696"/>
</g>
<!-- Node25 -->
<g id="node25" class="node"><title>Node25</title>
<g id="a_node25"><a xlink:href="data__type_8h.html" target="_top" xlink:title="tvm/runtime/data_type.h">
<polygon fill="white" stroke="black" points="2024,-235.5 2024,-254.5 2160,-254.5 2160,-235.5 2024,-235.5"/>
<text text-anchor="middle" x="2092" y="-242.5" font-family="Helvetica,sans-Serif" font-size="10.00">tvm/runtime/data_type.h</text>
</a>
</g>
</g>
<!-- Node18&#45;&gt;Node25 -->
<g id="edge58" class="edge"><title>Node18&#45;&gt;Node25</title>
<path fill="none" stroke="midnightblue" d="M1824.79,-481.436C1846.37,-474.079 1875.88,-461.96 1898,-445 1967.73,-391.527 1956.64,-349.739 2022,-291 2035.45,-278.916 2052.47,-267.895 2066.36,-259.784"/>
<polygon fill="midnightblue" stroke="midnightblue" points="2068.43,-262.636 2075.4,-254.656 2064.97,-256.548 2068.43,-262.636"/>
</g>
<!-- Node18&#45;&gt;Node29 -->
<g id="edge59" class="edge"><title>Node18&#45;&gt;Node29</title>
<path fill="none" stroke="midnightblue" d="M1796.57,-481.475C1797.04,-474.471 1797.73,-464.192 1798.37,-454.696"/>
<polygon fill="midnightblue" stroke="midnightblue" points="1801.88,-454.735 1799.06,-444.523 1794.89,-454.266 1801.88,-454.735"/>
</g>
<!-- Node18&#45;&gt;Node33 -->
<g id="edge78" class="edge"><title>Node18&#45;&gt;Node33</title>
<path fill="none" stroke="midnightblue" d="M1772.5,-481.475C1748.53,-472.776 1710.63,-459.026 1680.23,-447.998"/>
<polygon fill="midnightblue" stroke="midnightblue" points="1681.25,-444.643 1670.65,-444.523 1678.86,-451.224 1681.25,-444.643"/>
</g>
<!-- Node19&#45;&gt;Node7 -->
<g id="edge48" class="edge"><title>Node19&#45;&gt;Node7</title>
<path fill="none" stroke="midnightblue" d="M1719.62,-298.213C1752.9,-291.545 1794.15,-278.888 1824,-255 1854.47,-230.611 1842.84,-208.841 1868,-179 1877.68,-167.515 1890.54,-156.671 1901.28,-148.506"/>
<polygon fill="midnightblue" stroke="midnightblue" points="1903.36,-151.32 1909.34,-142.572 1899.21,-145.684 1903.36,-151.32"/>
</g>
<!-- Node19&#45;&gt;Node8 -->
<g id="edge27" class="edge"><title>Node19&#45;&gt;Node8</title>
<path fill="none" stroke="midnightblue" d="M1719.88,-296.006C1757.37,-288.299 1806.79,-275.316 1847,-255 1918.74,-218.752 1953.93,-215.325 1989,-143 1997.51,-125.44 1987.65,-104.079 1978.11,-89.5035"/>
<polygon fill="midnightblue" stroke="midnightblue" points="1980.73,-87.1459 1972.09,-81.0133 1975.02,-91.1951 1980.73,-87.1459"/>
</g>
<!-- Node19&#45;&gt;Node9 -->
<g id="edge28" class="edge"><title>Node19&#45;&gt;Node9</title>
<path fill="none" stroke="midnightblue" d="M1665.38,-291.276C1671.87,-252.512 1689.92,-144.698 1698,-96.4158"/>
<polygon fill="midnightblue" stroke="midnightblue" points="1701.45,-96.9789 1699.65,-86.5383 1694.55,-95.8232 1701.45,-96.9789"/>
</g>
<!-- Node19&#45;&gt;Node12 -->
<g id="edge56" class="edge"><title>Node19&#45;&gt;Node12</title>
<path fill="none" stroke="midnightblue" d="M1606.39,-295.909C1530.9,-282.951 1405.7,-260.804 1397,-255 1363.36,-232.564 1380.03,-202.323 1347,-179 1266.05,-121.835 962.914,-87.6399 848.283,-76.5187"/>
<polygon fill="midnightblue" stroke="midnightblue" points="848.399,-73.0138 838.111,-75.5446 847.732,-79.982 848.399,-73.0138"/>
</g>
<!-- Node19&#45;&gt;Node13 -->
<g id="edge52" class="edge"><title>Node19&#45;&gt;Node13</title>
<path fill="none" stroke="midnightblue" d="M1719.66,-295.634C1764.38,-287.085 1828.03,-273.222 1882,-255 2016.94,-209.443 2036.1,-158.594 2174,-123 2287.87,-93.61 2654.71,-77.8582 2766.42,-73.6582"/>
<polygon fill="midnightblue" stroke="midnightblue" points="2766.84,-77.1448 2776.71,-73.2769 2766.58,-70.1496 2766.84,-77.1448"/>
</g>
<!-- Node19&#45;&gt;Node14 -->
<g id="edge55" class="edge"><title>Node19&#45;&gt;Node14</title>
<path fill="none" stroke="midnightblue" d="M1606.16,-300.739C1482.03,-290.298 1189.89,-265.488 1091,-255 889.704,-233.651 833.173,-256.207 639,-199 546.271,-171.68 446.096,-113.238 402.88,-86.4434"/>
<polygon fill="midnightblue" stroke="midnightblue" points="404.646,-83.4197 394.312,-81.0813 400.932,-89.3534 404.646,-83.4197"/>
</g>
<!-- Node20 -->
<g id="node20" class="node"><title>Node20</title>
<g id="a_node20"><a xlink:href="runtime_2module_8h.html" target="_top" xlink:title="Runtime container of the functions generated by TVM, This is used to support dynamically link...">
<polygon fill="white" stroke="red" points="1512,-235.5 1512,-254.5 1636,-254.5 1636,-235.5 1512,-235.5"/>
<text text-anchor="middle" x="1574" y="-242.5" font-family="Helvetica,sans-Serif" font-size="10.00">tvm/runtime/module.h</text>
</a>
</g>
</g>
<!-- Node19&#45;&gt;Node20 -->
<g id="edge29" class="edge"><title>Node19&#45;&gt;Node20</title>
<path fill="none" stroke="midnightblue" d="M1636.07,-291.399C1621.16,-282.218 1603.23,-270.258 1590.37,-260.918"/>
<polygon fill="midnightblue" stroke="midnightblue" points="1592.12,-257.855 1582.02,-254.658 1587.92,-263.456 1592.12,-257.855"/>
</g>
<!-- Node21 -->
<g id="node21" class="node"><title>Node21</title>
<polygon fill="white" stroke="#bfbfbf" points="1430.5,-179.5 1430.5,-198.5 1487.5,-198.5 1487.5,-179.5 1430.5,-179.5"/>
<text text-anchor="middle" x="1459" y="-186.5" font-family="Helvetica,sans-Serif" font-size="10.00">memory</text>
</g>
<!-- Node19&#45;&gt;Node21 -->
<g id="edge54" class="edge"><title>Node19&#45;&gt;Node21</title>
<path fill="none" stroke="midnightblue" d="M1606.43,-293.887C1601.55,-292.904 1596.69,-291.93 1592,-291 1550.49,-282.766 1431.95,-287.63 1405,-255 1390.43,-237.362 1413.64,-217.096 1434.02,-203.947"/>
<polygon fill="midnightblue" stroke="midnightblue" points="1436.04,-206.813 1442.74,-198.608 1432.39,-200.841 1436.04,-206.813"/>
</g>
<!-- Node19&#45;&gt;Node22 -->
<g id="edge51" class="edge"><title>Node19&#45;&gt;Node22</title>
<path fill="none" stroke="midnightblue" d="M1606.36,-299.892C1478.11,-287.175 1175.74,-257.086 1165,-255 1128.12,-247.841 1027.03,-216.915 974.183,-200.434"/>
<polygon fill="midnightblue" stroke="midnightblue" points="975.185,-197.08 964.596,-197.438 973.097,-203.761 975.185,-197.08"/>
</g>
<!-- Node19&#45;&gt;Node24 -->
<g id="edge38" class="edge"><title>Node19&#45;&gt;Node24</title>
<path fill="none" stroke="midnightblue" d="M1684.57,-291.399C1698.88,-282.04 1717.61,-269.792 1732.01,-260.377"/>
<polygon fill="midnightblue" stroke="midnightblue" points="1734.3,-263.06 1740.76,-254.658 1730.47,-257.201 1734.3,-263.06"/>
</g>
<!-- Node19&#45;&gt;Node25 -->
<g id="edge44" class="edge"><title>Node19&#45;&gt;Node25</title>
<path fill="none" stroke="midnightblue" d="M1719.53,-297.66C1796.92,-286.926 1935.89,-267.651 2020.46,-255.923"/>
<polygon fill="midnightblue" stroke="midnightblue" points="2021.07,-259.372 2030.49,-254.531 2020.1,-252.438 2021.07,-259.372"/>
</g>
<!-- Node19&#45;&gt;Node26 -->
<g id="edge49" class="edge"><title>Node19&#45;&gt;Node26</title>
<path fill="none" stroke="midnightblue" d="M1606.46,-300.572C1570.55,-297.547 1523.07,-293.74 1481,-291 1154.76,-269.752 760.617,-252.891 633.587,-247.677"/>
<polygon fill="midnightblue" stroke="midnightblue" points="633.649,-244.177 623.514,-247.265 633.363,-251.171 633.649,-244.177"/>
</g>
<!-- Node27 -->
<g id="node27" class="node"><title>Node27</title>
<polygon fill="white" stroke="#bfbfbf" points="1414.5,-235.5 1414.5,-254.5 1455.5,-254.5 1455.5,-235.5 1414.5,-235.5"/>
<text text-anchor="middle" x="1435" y="-242.5" font-family="Helvetica,sans-Serif" font-size="10.00">tuple</text>
</g>
<!-- Node19&#45;&gt;Node27 -->
<g id="edge50" class="edge"><title>Node19&#45;&gt;Node27</title>
<path fill="none" stroke="midnightblue" d="M1609.26,-291.475C1564.56,-279.811 1502.53,-263.622 1465.79,-254.036"/>
<polygon fill="midnightblue" stroke="midnightblue" points="1466.26,-250.54 1455.7,-251.402 1464.49,-257.313 1466.26,-250.54"/>
</g>
<!-- Node19&#45;&gt;Node28 -->
<g id="edge53" class="edge"><title>Node19&#45;&gt;Node28</title>
<path fill="none" stroke="midnightblue" d="M1719.71,-301.292C1876.61,-289.652 2312.83,-257.29 2433.63,-248.327"/>
<polygon fill="midnightblue" stroke="midnightblue" points="2433.98,-251.811 2443.69,-247.581 2433.46,-244.83 2433.98,-251.811"/>
</g>
<!-- Node20&#45;&gt;Node7 -->
<g id="edge31" class="edge"><title>Node20&#45;&gt;Node7</title>
<path fill="none" stroke="midnightblue" d="M1601.02,-235.46C1662.81,-215.926 1814.55,-167.963 1884.98,-145.702"/>
<polygon fill="midnightblue" stroke="midnightblue" points="1886.28,-148.962 1894.76,-142.61 1884.17,-142.287 1886.28,-148.962"/>
</g>
<!-- Node20&#45;&gt;Node9 -->
<g id="edge30" class="edge"><title>Node20&#45;&gt;Node9</title>
<path fill="none" stroke="midnightblue" d="M1569.99,-235.312C1564.71,-222.579 1556.87,-198.275 1564,-179 1579.5,-137.1 1623.01,-108.11 1657.08,-91.0727"/>
<polygon fill="midnightblue" stroke="midnightblue" points="1658.91,-94.0746 1666.4,-86.5837 1655.87,-87.7672 1658.91,-94.0746"/>
</g>
<!-- Node20&#45;&gt;Node13 -->
<g id="edge35" class="edge"><title>Node20&#45;&gt;Node13</title>
<path fill="none" stroke="midnightblue" d="M1588.2,-235.49C1628.24,-212.034 1746.15,-146.634 1854,-123 2033.66,-83.6296 2621.91,-74.4972 2766.62,-72.8259"/>
<polygon fill="midnightblue" stroke="midnightblue" points="2766.68,-76.3256 2776.64,-72.7141 2766.6,-69.326 2766.68,-76.3256"/>
</g>
<!-- Node20&#45;&gt;Node17 -->
<g id="edge32" class="edge"><title>Node20&#45;&gt;Node17</title>
<path fill="none" stroke="midnightblue" d="M1511.77,-238.67C1496.18,-237.4 1479.48,-236.096 1464,-235 1215.74,-217.418 921.049,-201.11 786.127,-193.897"/>
<polygon fill="midnightblue" stroke="midnightblue" points="786.083,-190.39 775.911,-193.352 785.71,-197.38 786.083,-190.39"/>
</g>
<!-- Node20&#45;&gt;Node19 -->
<g id="edge37" class="edge"><title>Node20&#45;&gt;Node19</title>
<path fill="none" stroke="midnightblue" d="M1591.88,-254.658C1605.65,-262.708 1624.54,-275.001 1639.48,-285.483"/>
<polygon fill="midnightblue" stroke="midnightblue" points="1637.58,-288.428 1647.75,-291.399 1641.65,-282.735 1637.58,-288.428"/>
</g>
<!-- Node20&#45;&gt;Node21 -->
<g id="edge33" class="edge"><title>Node20&#45;&gt;Node21</title>
<path fill="none" stroke="midnightblue" d="M1555.78,-235.444C1537.1,-226.675 1507.84,-212.935 1486.38,-202.858"/>
<polygon fill="midnightblue" stroke="midnightblue" points="1487.68,-199.599 1477.14,-198.516 1484.7,-205.935 1487.68,-199.599"/>
</g>
<!-- Node20&#45;&gt;Node22 -->
<g id="edge34" class="edge"><title>Node20&#45;&gt;Node22</title>
<path fill="none" stroke="midnightblue" d="M1511.86,-238.699C1380.09,-227.458 1076.36,-201.548 974.786,-192.882"/>
<polygon fill="midnightblue" stroke="midnightblue" points="975.039,-189.391 964.777,-192.028 974.444,-196.366 975.039,-189.391"/>
</g>
<!-- Node20&#45;&gt;Node23 -->
<g id="edge36" class="edge"><title>Node20&#45;&gt;Node23</title>
<path fill="none" stroke="midnightblue" d="M1529.32,-235.444C1479.71,-225.944 1399.64,-210.611 1346.41,-200.42"/>
<polygon fill="midnightblue" stroke="midnightblue" points="1346.95,-196.96 1336.47,-198.516 1345.64,-203.835 1346.95,-196.96"/>
</g>
<!-- Node24&#45;&gt;Node7 -->
<g id="edge40" class="edge"><title>Node24&#45;&gt;Node7</title>
<path fill="none" stroke="midnightblue" d="M1762.76,-235.195C1776.32,-221.883 1803.59,-196.349 1830,-179 1849.4,-166.256 1872.94,-154.808 1891.35,-146.648"/>
<polygon fill="midnightblue" stroke="midnightblue" points="1892.94,-149.771 1900.72,-142.579 1890.16,-143.35 1892.94,-149.771"/>
</g>
<!-- Node24&#45;&gt;Node9 -->
<g id="edge39" class="edge"><title>Node24&#45;&gt;Node9</title>
<path fill="none" stroke="midnightblue" d="M1748.72,-235.489C1738.54,-218.597 1716.4,-179.324 1707,-143 1703.1,-127.909 1701.83,-110.434 1701.56,-96.658"/>
<polygon fill="midnightblue" stroke="midnightblue" points="1705.06,-96.5031 1701.51,-86.5188 1698.06,-96.5344 1705.06,-96.5031"/>
</g>
<!-- Node24&#45;&gt;Node14 -->
<g id="edge43" class="edge"><title>Node24&#45;&gt;Node14</title>
<path fill="none" stroke="midnightblue" d="M1726.05,-235.471C1679.02,-221.458 1580.89,-193.661 1496,-179 1070.59,-105.53 544.466,-79.3938 412.252,-73.7484"/>
<polygon fill="midnightblue" stroke="midnightblue" points="412.184,-70.2425 402.046,-73.3202 411.891,-77.2364 412.184,-70.2425"/>
</g>
<!-- Node24&#45;&gt;Node15 -->
<g id="edge41" class="edge"><title>Node24&#45;&gt;Node15</title>
<path fill="none" stroke="midnightblue" d="M1758.28,-235.26C1771.43,-208.421 1811.4,-126.818 1829.24,-90.3903"/>
<polygon fill="midnightblue" stroke="midnightblue" points="1832.57,-91.5396 1833.83,-81.0194 1826.29,-88.4604 1832.57,-91.5396"/>
</g>
<!-- Node24&#45;&gt;Node22 -->
<g id="edge42" class="edge"><title>Node24&#45;&gt;Node22</title>
<path fill="none" stroke="midnightblue" d="M1692.34,-238.708C1676.88,-237.437 1660.34,-236.123 1645,-235 1387.5,-216.141 1076.68,-197.826 974.983,-191.948"/>
<polygon fill="midnightblue" stroke="midnightblue" points="974.898,-188.437 964.713,-191.356 974.495,-195.426 974.898,-188.437"/>
</g>
<!-- Node25&#45;&gt;Node8 -->
<g id="edge46" class="edge"><title>Node25&#45;&gt;Node8</title>
<path fill="none" stroke="midnightblue" d="M2088.35,-235.472C2079.27,-214.809 2054.11,-160.975 2023,-123 2011.97,-109.536 1997.13,-96.6895 1985.23,-87.3228"/>
<polygon fill="midnightblue" stroke="midnightblue" points="1987.24,-84.4563 1977.17,-81.1584 1982.99,-90.0152 1987.24,-84.4563"/>
</g>
<!-- Node25&#45;&gt;Node9 -->
<g id="edge45" class="edge"><title>Node25&#45;&gt;Node9</title>
<path fill="none" stroke="midnightblue" d="M2074.42,-235.386C2045.69,-221.627 1986.59,-194.652 1934,-179 1852.04,-154.609 1815.3,-191.682 1745,-143 1728.66,-131.685 1717.41,-111.95 1710.52,-96.2328"/>
<polygon fill="midnightblue" stroke="midnightblue" points="1713.62,-94.5644 1706.62,-86.6135 1707.14,-97.1957 1713.62,-94.5644"/>
</g>
<!-- Node25&#45;&gt;Node12 -->
<g id="edge47" class="edge"><title>Node25&#45;&gt;Node12</title>
<path fill="none" stroke="midnightblue" d="M2059.45,-235.443C1972.67,-212.988 1728.22,-152.11 1521,-123 1268.11,-87.4733 961.342,-76.4751 848.449,-73.4923"/>
<polygon fill="midnightblue" stroke="midnightblue" points="848.224,-69.9854 838.137,-73.2281 848.044,-76.9831 848.224,-69.9854"/>
</g>
<!-- Node29&#45;&gt;Node13 -->
<g id="edge77" class="edge"><title>Node29&#45;&gt;Node13</title>
<path fill="none" stroke="midnightblue" d="M1855.55,-427.12C1925.61,-423.886 2048.9,-413.187 2148,-378 2160.56,-373.54 2345.51,-265.275 2354,-255 2393.77,-206.881 2353.24,-161.974 2402,-123 2458.09,-78.1711 2682.4,-72.8111 2766.73,-72.4094"/>
<polygon fill="midnightblue" stroke="midnightblue" points="2767,-75.9088 2776.99,-72.3823 2766.98,-68.9089 2767,-75.9088"/>
</g>
<!-- Node29&#45;&gt;Node25 -->
<g id="edge60" class="edge"><title>Node29&#45;&gt;Node25</title>
<path fill="none" stroke="midnightblue" d="M1816.28,-414.127C1847.24,-387.309 1917.49,-328.93 1984,-291 2007.41,-277.649 2035.57,-266.05 2057.26,-257.972"/>
<polygon fill="midnightblue" stroke="midnightblue" points="2058.54,-261.232 2066.73,-254.515 2056.14,-254.656 2058.54,-261.232"/>
</g>
<!-- Node30 -->
<g id="node30" class="node"><title>Node30</title>
<g id="a_node30"><a xlink:href="functor_8h.html" target="_top" xlink:title="Defines the Functor data structures. ">
<polygon fill="white" stroke="black" points="1174.5,-235.5 1174.5,-254.5 1281.5,-254.5 1281.5,-235.5 1174.5,-235.5"/>
<text text-anchor="middle" x="1228" y="-242.5" font-family="Helvetica,sans-Serif" font-size="10.00">tvm/node/functor.h</text>
</a>
</g>
</g>
<!-- Node29&#45;&gt;Node30 -->
<g id="edge61" class="edge"><title>Node29&#45;&gt;Node30</title>
<path fill="none" stroke="midnightblue" d="M1784.65,-414.272C1767.05,-398.615 1736.79,-373.604 1707,-358 1661.43,-334.133 1645.37,-339.508 1597,-322 1561.92,-309.303 1554.99,-300.801 1519,-291 1442.18,-270.082 1351.13,-257.961 1291.59,-251.675"/>
<polygon fill="midnightblue" stroke="midnightblue" points="1291.89,-248.187 1281.59,-250.642 1291.17,-255.15 1291.89,-248.187"/>
</g>
<!-- Node29&#45;&gt;Node31 -->
<g id="edge67" class="edge"><title>Node29&#45;&gt;Node31</title>
<path fill="none" stroke="midnightblue" d="M1744.41,-419.463C1677.7,-408.618 1566.15,-390.483 1496.5,-379.161"/>
<polygon fill="midnightblue" stroke="midnightblue" points="1496.97,-375.692 1486.54,-377.542 1495.85,-382.601 1496.97,-375.692"/>
</g>
<!-- Node30&#45;&gt;Node7 -->
<g id="edge63" class="edge"><title>Node30&#45;&gt;Node7</title>
<path fill="none" stroke="midnightblue" d="M1226.02,-235.335C1223.37,-221.255 1220.63,-193.522 1236,-179 1280.19,-137.256 1688.53,-133.454 1853.42,-133.641"/>
<polygon fill="midnightblue" stroke="midnightblue" points="1853.45,-137.141 1863.45,-133.658 1853.46,-130.141 1853.45,-137.141"/>
</g>
<!-- Node30&#45;&gt;Node8 -->
<g id="edge62" class="edge"><title>Node30&#45;&gt;Node8</title>
<path fill="none" stroke="midnightblue" d="M1223.6,-235.203C1217.41,-221.435 1208.33,-194.744 1222,-179 1317.65,-68.8531 1727.7,-108.46 1872,-87 1884.88,-85.0843 1898.76,-82.9561 1911.76,-80.9334"/>
<polygon fill="midnightblue" stroke="midnightblue" points="1912.62,-84.3411 1921.96,-79.3399 1911.54,-77.425 1912.62,-84.3411"/>
</g>
<!-- Node30&#45;&gt;Node12 -->
<g id="edge65" class="edge"><title>Node30&#45;&gt;Node12</title>
<path fill="none" stroke="midnightblue" d="M1214.46,-235.348C1201.33,-226.734 1181.11,-212.835 1165,-199 1129.23,-168.288 1132.68,-145.04 1091,-123 1012.74,-81.6118 907.366,-73.21 848.516,-72.037"/>
<polygon fill="midnightblue" stroke="midnightblue" points="848.482,-68.5363 838.435,-71.8983 848.385,-75.5356 848.482,-68.5363"/>
</g>
<!-- Node30&#45;&gt;Node14 -->
<g id="edge66" class="edge"><title>Node30&#45;&gt;Node14</title>
<path fill="none" stroke="midnightblue" d="M1197.55,-235.485C1149.9,-222.332 1054.7,-196.738 973,-179 759.711,-132.693 500.095,-91.0112 411.964,-77.2679"/>
<polygon fill="midnightblue" stroke="midnightblue" points="412.5,-73.8093 402.081,-75.732 411.425,-80.7262 412.5,-73.8093"/>
</g>
<!-- Node30&#45;&gt;Node22 -->
<g id="edge64" class="edge"><title>Node30&#45;&gt;Node22</title>
<path fill="none" stroke="midnightblue" d="M1182.52,-235.444C1124.71,-224.565 1026.22,-206.035 974.69,-196.339"/>
<polygon fill="midnightblue" stroke="midnightblue" points="975.212,-192.876 964.737,-194.466 973.918,-199.755 975.212,-192.876"/>
</g>
<!-- Node31&#45;&gt;Node7 -->
<g id="edge68" class="edge"><title>Node31&#45;&gt;Node7</title>
<path fill="none" stroke="midnightblue" d="M1493.51,-364.174C1553.99,-359.861 1649.66,-349.038 1728,-322 1785.37,-302.198 1803.19,-297.006 1847,-255 1878.99,-224.332 1902.96,-177.268 1914.45,-151.819"/>
<polygon fill="midnightblue" stroke="midnightblue" points="1917.67,-153.194 1918.48,-142.63 1911.26,-150.383 1917.67,-153.194"/>
</g>
<!-- Node31&#45;&gt;Node12 -->
<g id="edge71" class="edge"><title>Node31&#45;&gt;Node12</title>
<path fill="none" stroke="midnightblue" d="M1411.79,-358.396C1365.46,-340.305 1255.3,-296.556 1165,-255 1036.58,-195.903 886.918,-116.907 828.817,-85.844"/>
<polygon fill="midnightblue" stroke="midnightblue" points="830.453,-82.7494 819.985,-81.1135 827.148,-88.9201 830.453,-82.7494"/>
</g>
<!-- Node31&#45;&gt;Node13 -->
<g id="edge76" class="edge"><title>Node31&#45;&gt;Node13</title>
<path fill="none" stroke="midnightblue" d="M1493.68,-361.486C1570.02,-354.111 1706.22,-339.865 1822,-322 1977.23,-298.046 2027.22,-322.601 2169,-255 2251.29,-215.765 2242.13,-158.73 2326,-123 2405.84,-88.9848 2673.41,-76.7834 2766.64,-73.5052"/>
<polygon fill="midnightblue" stroke="midnightblue" points="2766.99,-76.9952 2776.87,-73.157 2766.76,-69.9993 2766.99,-76.9952"/>
</g>
<!-- Node31&#45;&gt;Node14 -->
<g id="edge75" class="edge"><title>Node31&#45;&gt;Node14</title>
<path fill="none" stroke="midnightblue" d="M1374.31,-364.076C1291.14,-359.244 1135.96,-347.473 1006,-322 957.863,-312.565 627.862,-216.405 582,-199 527.726,-178.402 512.759,-174.503 464,-143 438.847,-126.749 413.046,-103.62 397.028,-88.3443"/>
<polygon fill="midnightblue" stroke="midnightblue" points="399.217,-85.5921 389.598,-81.1502 394.348,-90.6209 399.217,-85.5921"/>
</g>
<!-- Node31&#45;&gt;Node17 -->
<g id="edge69" class="edge"><title>Node31&#45;&gt;Node17</title>
<path fill="none" stroke="midnightblue" d="M1374.22,-361.248C1311.58,-354.534 1210.57,-341.764 1125,-322 979.945,-288.498 812.522,-227.977 743.865,-202.18"/>
<polygon fill="midnightblue" stroke="midnightblue" points="745.059,-198.89 734.467,-198.633 742.587,-205.439 745.059,-198.89"/>
</g>
<!-- Node31&#45;&gt;Node19 -->
<g id="edge70" class="edge"><title>Node31&#45;&gt;Node19</title>
<path fill="none" stroke="midnightblue" d="M1466.81,-358.475C1501.23,-349.532 1556.2,-335.249 1599.21,-324.074"/>
<polygon fill="midnightblue" stroke="midnightblue" points="1600.23,-327.425 1609.03,-321.523 1598.47,-320.65 1600.23,-327.425"/>
</g>
<!-- Node31&#45;&gt;Node22 -->
<g id="edge72" class="edge"><title>Node31&#45;&gt;Node22</title>
<path fill="none" stroke="midnightblue" d="M1374.1,-358.733C1328.03,-351.5 1263.13,-339.407 1208,-322 1137.6,-299.77 1121.99,-288.093 1056,-255 1023.39,-238.646 986.899,-217.517 963.945,-203.863"/>
<polygon fill="midnightblue" stroke="midnightblue" points="965.652,-200.806 955.274,-198.677 962.059,-206.814 965.652,-200.806"/>
</g>
<!-- Node31&#45;&gt;Node23 -->
<g id="edge74" class="edge"><title>Node31&#45;&gt;Node23</title>
<path fill="none" stroke="midnightblue" d="M1424,-358.462C1413.98,-349.711 1398.31,-335.511 1386,-322 1351.56,-284.194 1318.64,-233.524 1302.44,-207.32"/>
<polygon fill="midnightblue" stroke="midnightblue" points="1305.28,-205.261 1297.08,-198.553 1299.31,-208.911 1305.28,-205.261"/>
</g>
<!-- Node32 -->
<g id="node32" class="node"><title>Node32</title>
<polygon fill="white" stroke="#bfbfbf" points="1395.5,-297 1395.5,-316 1472.5,-316 1472.5,-297 1395.5,-297"/>
<text text-anchor="middle" x="1434" y="-304" font-family="Helvetica,sans-Serif" font-size="10.00">initializer_list</text>
</g>
<!-- Node31&#45;&gt;Node32 -->
<g id="edge73" class="edge"><title>Node31&#45;&gt;Node32</title>
<path fill="none" stroke="midnightblue" d="M1434,-358.475C1434,-350.08 1434,-336.981 1434,-326.163"/>
<polygon fill="midnightblue" stroke="midnightblue" points="1437.5,-326.009 1434,-316.009 1430.5,-326.009 1437.5,-326.009"/>
</g>
<!-- Node33&#45;&gt;Node13 -->
<g id="edge82" class="edge"><title>Node33&#45;&gt;Node13</title>
<path fill="none" stroke="midnightblue" d="M1687.54,-417.979C1791.95,-396.829 2022.9,-343.47 2200,-255 2289.07,-210.506 2288.36,-159.483 2381,-123 2451.44,-95.2587 2681.56,-79.3478 2766.83,-74.2849"/>
<polygon fill="midnightblue" stroke="midnightblue" points="2767.17,-77.7709 2776.95,-73.6947 2766.77,-70.7828 2767.17,-77.7709"/>
</g>
<!-- Node33&#45;&gt;Node25 -->
<g id="edge79" class="edge"><title>Node33&#45;&gt;Node25</title>
<path fill="none" stroke="midnightblue" d="M1659.42,-414.405C1711.9,-387.797 1830.64,-329.4 1935,-291 1971.98,-277.394 2015.07,-265.3 2046.75,-257.085"/>
<polygon fill="midnightblue" stroke="midnightblue" points="2047.79,-260.431 2056.61,-254.558 2046.05,-253.651 2047.79,-260.431"/>
</g>
<!-- Node33&#45;&gt;Node26 -->
<g id="edge83" class="edge"><title>Node33&#45;&gt;Node26</title>
<path fill="none" stroke="midnightblue" d="M1576.35,-421.079C1458.82,-405.149 1176.78,-365.567 942,-322 829.999,-301.216 699.059,-271.258 633.643,-255.9"/>
<polygon fill="midnightblue" stroke="midnightblue" points="634.256,-252.449 623.72,-253.565 632.652,-259.263 634.256,-252.449"/>
</g>
<!-- Node33&#45;&gt;Node30 -->
<g id="edge80" class="edge"><title>Node33&#45;&gt;Node30</title>
<path fill="none" stroke="midnightblue" d="M1621.28,-414.438C1598.74,-385.984 1543.35,-321.685 1481,-291 1448.47,-274.989 1355.24,-261.168 1291.52,-253.21"/>
<polygon fill="midnightblue" stroke="midnightblue" points="1291.91,-249.732 1281.56,-251.984 1291.05,-256.68 1291.91,-249.732"/>
</g>
<!-- Node33&#45;&gt;Node31 -->
<g id="edge81" class="edge"><title>Node33&#45;&gt;Node31</title>
<path fill="none" stroke="midnightblue" d="M1585.33,-414.475C1550.87,-404.12 1504.54,-390.199 1472.26,-380.498"/>
<polygon fill="midnightblue" stroke="midnightblue" points="1472.89,-377.032 1462.31,-377.506 1470.88,-383.736 1472.89,-377.032"/>
</g>
<!-- Node34&#45;&gt;Node30 -->
<g id="edge88" class="edge"><title>Node34&#45;&gt;Node30</title>
<path fill="none" stroke="midnightblue" d="M1366.88,-481.454C1358.78,-472.697 1346.25,-458.492 1337,-445 1293.6,-381.728 1253.15,-299.54 1236.28,-263.846"/>
<polygon fill="midnightblue" stroke="midnightblue" points="1239.4,-262.268 1231.99,-254.698 1233.06,-265.238 1239.4,-262.268"/>
</g>
<!-- Node35 -->
<g id="node35" class="node"><title>Node35</title>
<polygon fill="white" stroke="#bfbfbf" points="1346.5,-420 1346.5,-439 1405.5,-439 1405.5,-420 1346.5,-420"/>
<text text-anchor="middle" x="1376" y="-427" font-family="Helvetica,sans-Serif" font-size="10.00">iostream</text>
</g>
<!-- Node34&#45;&gt;Node35 -->
<g id="edge89" class="edge"><title>Node34&#45;&gt;Node35</title>
<path fill="none" stroke="midnightblue" d="M1375.14,-481.475C1375.28,-473.08 1375.5,-459.981 1375.69,-449.163"/>
<polygon fill="midnightblue" stroke="midnightblue" points="1379.19,-449.067 1375.86,-439.009 1372.19,-448.949 1379.19,-449.067"/>
</g>
<!-- Node36&#45;&gt;Node7 -->
<g id="edge99" class="edge"><title>Node36&#45;&gt;Node7</title>
<path fill="none" stroke="midnightblue" d="M2653.95,-593.379C2645.77,-575.114 2628,-530.996 2628,-492 2628,-492 2628,-492 2628,-428.5 2628,-399.935 2587.88,-197.369 2566,-179 2555.09,-169.837 2154.94,-146.825 1990.99,-137.757"/>
<polygon fill="midnightblue" stroke="midnightblue" points="1990.71,-134.237 1980.54,-137.18 1990.33,-141.226 1990.71,-134.237"/>
</g>
<!-- Node36&#45;&gt;Node13 -->
<g id="edge101" class="edge"><title>Node36&#45;&gt;Node13</title>
<path fill="none" stroke="midnightblue" d="M2663.4,-593.304C2687.01,-554.423 2780,-392.022 2780,-246 2780,-246 2780,-246 2780,-188 2780,-153.405 2788.4,-113.745 2794.03,-91.0547"/>
<polygon fill="midnightblue" stroke="midnightblue" points="2797.49,-91.6707 2796.59,-81.1136 2790.71,-89.9237 2797.49,-91.6707"/>
</g>
<!-- Node36&#45;&gt;Node16 -->
<g id="edge100" class="edge"><title>Node36&#45;&gt;Node16</title>
<path fill="none" stroke="midnightblue" d="M2617.7,-600.47C2433.74,-593.471 1678.09,-564.545 1565.58,-556.851"/>
<polygon fill="midnightblue" stroke="midnightblue" points="1565.56,-553.338 1555.31,-556.039 1565.01,-560.317 1565.56,-553.338"/>
</g>
<!-- Node37&#45;&gt;Node7 -->
<g id="edge103" class="edge"><title>Node37&#45;&gt;Node7</title>
<path fill="none" stroke="midnightblue" d="M2645.33,-649.456C2634.21,-641.322 2618.39,-628.106 2609,-613 2593.11,-587.438 2590,-578.098 2590,-548 2590,-548 2590,-548 2590,-490 2590,-407.149 2552,-390.351 2552,-307.5 2552,-307.5 2552,-307.5 2552,-244 2552,-187.573 2154.74,-151.399 1991.13,-138.894"/>
<polygon fill="midnightblue" stroke="midnightblue" points="1990.94,-135.369 1980.7,-138.104 1990.41,-142.349 1990.94,-135.369"/>
</g>
<!-- Node37&#45;&gt;Node13 -->
<g id="edge108" class="edge"><title>Node37&#45;&gt;Node13</title>
<path fill="none" stroke="midnightblue" d="M2674.15,-649.416C2690.77,-640.513 2717.37,-626.089 2740,-613 2804.49,-575.702 2856,-566.498 2856,-492 2856,-492 2856,-492 2856,-188 2856,-149.283 2829.93,-110.104 2813.05,-88.7979"/>
<polygon fill="midnightblue" stroke="midnightblue" points="2815.74,-86.5616 2806.69,-81.0574 2810.33,-91.0057 2815.74,-86.5616"/>
</g>
<!-- Node37&#45;&gt;Node16 -->
<g id="edge105" class="edge"><title>Node37&#45;&gt;Node16</title>
<path fill="none" stroke="midnightblue" d="M2619.34,-650.939C2543.83,-637.428 2371.33,-607.934 2225,-593 1935.59,-563.464 1858.35,-587.052 1565.08,-557"/>
<polygon fill="midnightblue" stroke="midnightblue" points="1565.31,-553.505 1555,-555.955 1564.59,-560.468 1565.31,-553.505"/>
</g>
<!-- Node37&#45;&gt;Node25 -->
<g id="edge104" class="edge"><title>Node37&#45;&gt;Node25</title>
<path fill="none" stroke="midnightblue" d="M2638.38,-649.414C2621.07,-641.346 2595.61,-628.251 2576,-613 2453.61,-517.842 2463.85,-448.524 2338,-358 2270.86,-309.705 2179.56,-274.822 2129.2,-257.775"/>
<polygon fill="midnightblue" stroke="midnightblue" points="2130.28,-254.448 2119.69,-254.605 2128.07,-261.088 2130.28,-254.448"/>
</g>
<!-- Node37&#45;&gt;Node31 -->
<g id="edge106" class="edge"><title>Node37&#45;&gt;Node31</title>
<path fill="none" stroke="midnightblue" d="M2627.78,-649.422C2534.52,-622.999 2254.97,-544.192 2213,-537 1999.52,-500.417 1939.04,-545.156 1727,-501 1653.24,-485.64 1633.8,-479.835 1567,-445 1546.11,-434.107 1544.16,-426.196 1524,-414 1504.2,-402.02 1480.79,-390.389 1462.81,-381.954"/>
<polygon fill="midnightblue" stroke="midnightblue" points="1463.99,-378.639 1453.44,-377.614 1461.04,-384.992 1463.99,-378.639"/>
</g>
<!-- Node37&#45;&gt;Node36 -->
<g id="edge107" class="edge"><title>Node37&#45;&gt;Node36</title>
<path fill="none" stroke="midnightblue" d="M2658,-649.083C2658,-642.006 2658,-631.861 2658,-622.986"/>
<polygon fill="midnightblue" stroke="midnightblue" points="2661.5,-622.751 2658,-612.751 2654.5,-622.751 2661.5,-622.751"/>
</g>
<!-- Node39&#45;&gt;Node13 -->
<g id="edge122" class="edge"><title>Node39&#45;&gt;Node13</title>
<path fill="none" stroke="midnightblue" d="M776.222,-366.598C966.225,-364.984 1544.08,-357.231 1728,-322 1987.42,-272.307 2030.34,-181.128 2288,-123 2465.69,-82.9139 2685.26,-74.6466 2766.66,-72.9423"/>
<polygon fill="midnightblue" stroke="midnightblue" points="2766.84,-76.4396 2776.78,-72.7501 2766.71,-69.4408 2766.84,-76.4396"/>
</g>
<!-- Node39&#45;&gt;Node14 -->
<g id="edge124" class="edge"><title>Node39&#45;&gt;Node14</title>
<path fill="none" stroke="midnightblue" d="M681.516,-358.447C618.175,-340.438 480.993,-292.361 412,-199 388.002,-166.526 382.4,-117.804 381.206,-91.3032"/>
<polygon fill="midnightblue" stroke="midnightblue" points="384.7,-91.0205 380.921,-81.1227 377.703,-91.2169 384.7,-91.0205"/>
</g>
<!-- Node39&#45;&gt;Node19 -->
<g id="edge121" class="edge"><title>Node39&#45;&gt;Node19</title>
<path fill="none" stroke="midnightblue" d="M776.093,-363.844C905.921,-357.042 1218.86,-340.14 1481,-322 1519.11,-319.362 1561.68,-315.994 1596.06,-313.168"/>
<polygon fill="midnightblue" stroke="midnightblue" points="1596.78,-316.621 1606.46,-312.31 1596.2,-309.645 1596.78,-316.621"/>
</g>
<!-- Node39&#45;&gt;Node22 -->
<g id="edge123" class="edge"><title>Node39&#45;&gt;Node22</title>
<path fill="none" stroke="midnightblue" d="M705.754,-358.29C689.607,-343.351 654.85,-312.391 622,-291 592.352,-271.694 569.516,-285.148 551,-255 546.348,-247.426 545.086,-241.636 551,-235 562.832,-221.724 814.654,-200.18 907.237,-192.678"/>
<polygon fill="midnightblue" stroke="midnightblue" points="907.774,-196.146 917.46,-191.854 907.211,-189.169 907.774,-196.146"/>
</g>
<!-- Node40&#45;&gt;Node4 -->
<g id="edge152" class="edge"><title>Node40&#45;&gt;Node4</title>
<path fill="none" stroke="midnightblue" d="M1833.2,-936.966C1656.6,-933.6 1145.41,-921.48 1076,-893 1028.81,-873.636 1034.81,-841.372 990,-817 955.111,-798.024 911.517,-786.477 878.495,-779.838"/>
<polygon fill="midnightblue" stroke="midnightblue" points="879.088,-776.389 868.607,-777.933 877.764,-783.262 879.088,-776.389"/>
</g>
<!-- Node40&#45;&gt;Node37 -->
<g id="edge128" class="edge"><title>Node40&#45;&gt;Node37</title>
<path fill="none" stroke="midnightblue" d="M1952.75,-932.499C2061.29,-922.343 2281.07,-900.96 2296,-893 2329.39,-875.194 2351,-865.843 2351,-828 2351,-828 2351,-828 2351,-770 2351,-742.423 2528.82,-693.109 2613.79,-671.116"/>
<polygon fill="midnightblue" stroke="midnightblue" points="2614.86,-674.455 2623.68,-668.573 2613.12,-667.675 2614.86,-674.455"/>
</g>
<!-- Node41 -->
<g id="node41" class="node"><title>Node41</title>
<g id="a_node41"><a xlink:href="ir_2module_8h.html" target="_top" xlink:title="IRModule that holds the functions and type definitions. ">
<polygon fill="white" stroke="black" points="2195,-873.5 2195,-892.5 2287,-892.5 2287,-873.5 2195,-873.5"/>
<text text-anchor="middle" x="2241" y="-880.5" font-family="Helvetica,sans-Serif" font-size="10.00">tvm/ir/module.h</text>
</a>
</g>
</g>
<!-- Node40&#45;&gt;Node41 -->
<g id="edge129" class="edge"><title>Node40&#45;&gt;Node41</title>
<path fill="none" stroke="midnightblue" d="M1948.14,-929.444C2012.81,-919.408 2119.45,-902.861 2184.64,-892.745"/>
<polygon fill="midnightblue" stroke="midnightblue" points="2185.39,-896.171 2194.74,-891.179 2184.32,-889.253 2185.39,-896.171"/>
</g>
<!-- Node45 -->
<g id="node45" class="node"><title>Node45</title>
<g id="a_node45"><a xlink:href="env__func_8h.html" target="_top" xlink:title="Serializable global function used in IR. ">
<polygon fill="white" stroke="black" points="1573.5,-537.5 1573.5,-556.5 1672.5,-556.5 1672.5,-537.5 1573.5,-537.5"/>
<text text-anchor="middle" x="1623" y="-544.5" font-family="Helvetica,sans-Serif" font-size="10.00">tvm/ir/env_func.h</text>
</a>
</g>
</g>
<!-- Node40&#45;&gt;Node45 -->
<g id="edge148" class="edge"><title>Node40&#45;&gt;Node45</title>
<path fill="none" stroke="midnightblue" d="M1833.37,-931.21C1696.98,-914.326 1369,-865.598 1304,-781 1252.06,-713.404 1276.87,-647.998 1342,-593 1344.12,-591.212 1481.44,-569.804 1563.3,-557.172"/>
<polygon fill="midnightblue" stroke="midnightblue" points="1563.89,-560.622 1573.24,-555.639 1562.83,-553.704 1563.89,-560.622"/>
</g>
<!-- Node41&#45;&gt;Node6 -->
<g id="edge131" class="edge"><title>Node41&#45;&gt;Node6</title>
<path fill="none" stroke="midnightblue" d="M2244.31,-873.497C2247.68,-864.54 2252.85,-849.962 2256,-837 2264.69,-801.311 2270.3,-758.695 2273.03,-734.749"/>
<polygon fill="midnightblue" stroke="midnightblue" points="2276.54,-734.926 2274.15,-724.605 2269.58,-734.164 2276.54,-734.926"/>
</g>
<!-- Node41&#45;&gt;Node13 -->
<g id="edge144" class="edge"><title>Node41&#45;&gt;Node13</title>
<path fill="none" stroke="midnightblue" d="M2287.22,-879.894C2463.54,-870.623 3084,-826.195 3084,-660 3084,-660 3084,-660 3084,-188 3084,-154.31 3072.49,-142.477 3045,-123 3010.92,-98.8562 2890.08,-82.5672 2831.42,-75.8978"/>
<polygon fill="midnightblue" stroke="midnightblue" points="2831.55,-72.3908 2821.23,-74.7647 2830.78,-79.348 2831.55,-72.3908"/>
</g>
<!-- Node41&#45;&gt;Node22 -->
<g id="edge145" class="edge"><title>Node41&#45;&gt;Node22</title>
<path fill="none" stroke="midnightblue" d="M2194.72,-882.081C2067.36,-881.752 1701.1,-877.103 1400,-837 1005.94,-784.517 834.02,-763.413 596,-445 538.431,-367.987 479.953,-306.717 544,-235 556.082,-221.472 813.503,-200.005 907.243,-192.607"/>
<polygon fill="midnightblue" stroke="midnightblue" points="907.632,-196.087 917.328,-191.815 907.085,-189.108 907.632,-196.087"/>
</g>
<!-- Node41&#45;&gt;Node23 -->
<g id="edge146" class="edge"><title>Node41&#45;&gt;Node23</title>
<path fill="none" stroke="midnightblue" d="M2194.81,-880.297C1980.11,-871.782 1090,-829.628 1090,-716 1090,-716 1090,-716 1090,-658 1090,-467.068 1041.58,-380.679 1165,-235 1182.55,-214.281 1210.3,-203.099 1235.39,-197.065"/>
<polygon fill="midnightblue" stroke="midnightblue" points="1236.19,-200.474 1245.21,-194.925 1234.7,-193.635 1236.19,-200.474"/>
</g>
<!-- Node41&#45;&gt;Node37 -->
<g id="edge130" class="edge"><title>Node41&#45;&gt;Node37</title>
<path fill="none" stroke="midnightblue" d="M2287.14,-875.765C2356.9,-864.837 2491.7,-837.765 2592,-781 2624.32,-762.711 2637.89,-758.454 2654,-725 2660.98,-710.516 2661.44,-692.07 2660.47,-678.531"/>
<polygon fill="midnightblue" stroke="midnightblue" points="2663.94,-678.093 2659.43,-668.507 2656.98,-678.814 2663.94,-678.093"/>
</g>
<!-- Node42 -->
<g id="node42" class="node"><title>Node42</title>
<g id="a_node42"><a xlink:href="ir_2function_8h.html" target="_top" xlink:title="Function nodes. ">
<polygon fill="white" stroke="black" points="1891.5,-817.5 1891.5,-836.5 1986.5,-836.5 1986.5,-817.5 1891.5,-817.5"/>
<text text-anchor="middle" x="1939" y="-824.5" font-family="Helvetica,sans-Serif" font-size="10.00">tvm/ir/function.h</text>
</a>
</g>
</g>
<!-- Node41&#45;&gt;Node42 -->
<g id="edge132" class="edge"><title>Node41&#45;&gt;Node42</title>
<path fill="none" stroke="midnightblue" d="M2194.8,-873.74C2141.65,-864.236 2054.31,-848.618 1996.72,-838.321"/>
<polygon fill="midnightblue" stroke="midnightblue" points="1997.15,-834.842 1986.69,-836.527 1995.91,-841.732 1997.15,-834.842"/>
</g>
<!-- Node43 -->
<g id="node43" class="node"><title>Node43</title>
<g id="a_node43"><a xlink:href="ir_2adt_8h.html" target="_top" xlink:title="Algebraic data type definitions. ">
<polygon fill="white" stroke="black" points="2511,-761.5 2511,-780.5 2583,-780.5 2583,-761.5 2511,-761.5"/>
<text text-anchor="middle" x="2547" y="-768.5" font-family="Helvetica,sans-Serif" font-size="10.00">tvm/ir/adt.h</text>
</a>
</g>
</g>
<!-- Node41&#45;&gt;Node43 -->
<g id="edge137" class="edge"><title>Node41&#45;&gt;Node43</title>
<path fill="none" stroke="midnightblue" d="M2264.76,-873.46C2318.76,-854.047 2450.88,-806.551 2513.3,-784.115"/>
<polygon fill="midnightblue" stroke="midnightblue" points="2514.82,-787.287 2523.05,-780.61 2512.45,-780.7 2514.82,-787.287"/>
</g>
<!-- Node44 -->
<g id="node44" class="node"><title>Node44</title>
<polygon fill="white" stroke="#bfbfbf" points="2161,-817.5 2161,-836.5 2247,-836.5 2247,-817.5 2161,-817.5"/>
<text text-anchor="middle" x="2204" y="-824.5" font-family="Helvetica,sans-Serif" font-size="10.00">unordered_set</text>
</g>
<!-- Node41&#45;&gt;Node44 -->
<g id="edge147" class="edge"><title>Node41&#45;&gt;Node44</title>
<path fill="none" stroke="midnightblue" d="M2234.89,-873.083C2229.72,-865.534 2222.15,-854.495 2215.81,-845.23"/>
<polygon fill="midnightblue" stroke="midnightblue" points="2218.54,-843.022 2210,-836.751 2212.76,-846.979 2218.54,-843.022"/>
</g>
<!-- Node42&#45;&gt;Node4 -->
<g id="edge134" class="edge"><title>Node42&#45;&gt;Node4</title>
<path fill="none" stroke="midnightblue" d="M1891.3,-823.68C1709.96,-814.857 1064.25,-783.445 879.012,-774.433"/>
<polygon fill="midnightblue" stroke="midnightblue" points="878.909,-770.924 868.751,-773.934 878.569,-777.916 878.909,-770.924"/>
</g>
<!-- Node42&#45;&gt;Node6 -->
<g id="edge133" class="edge"><title>Node42&#45;&gt;Node6</title>
<path fill="none" stroke="midnightblue" d="M1948.34,-817.487C1964.38,-803.369 1998.75,-775.258 2033,-761 2096.54,-734.554 2175.9,-723.573 2226.04,-719.065"/>
<polygon fill="midnightblue" stroke="midnightblue" points="2226.61,-722.53 2236.28,-718.198 2226.02,-715.554 2226.61,-722.53"/>
</g>
<!-- Node42&#45;&gt;Node12 -->
<g id="edge135" class="edge"><title>Node42&#45;&gt;Node12</title>
<path fill="none" stroke="midnightblue" d="M1891.43,-825.744C1733.22,-824.555 1210.35,-817.895 780,-781 591.931,-764.876 534.038,-795.651 359,-725 312.968,-706.42 76,-518.05 76,-492 76,-492 76,-492 76,-244 76,-102.788 601.508,-77.7311 759.562,-73.3884"/>
<polygon fill="midnightblue" stroke="midnightblue" points="759.958,-76.8794 769.863,-73.1207 759.776,-69.8817 759.958,-76.8794"/>
</g>
<!-- Node42&#45;&gt;Node13 -->
<g id="edge136" class="edge"><title>Node42&#45;&gt;Node13</title>
<path fill="none" stroke="midnightblue" d="M1986.82,-821.187C2001.9,-819.745 2018.64,-818.223 2034,-817 2363.94,-790.734 2466.59,-850.152 2773,-725 2881.75,-680.579 3008,-721.476 3008,-604 3008,-604 3008,-604 3008,-188 3008,-108.383 2890.38,-83.2204 2831.61,-75.6169"/>
<polygon fill="midnightblue" stroke="midnightblue" points="2831.71,-72.1038 2821.37,-74.3923 2830.88,-79.0543 2831.71,-72.1038"/>
</g>
<!-- Node43&#45;&gt;Node6 -->
<g id="edge141" class="edge"><title>Node43&#45;&gt;Node6</title>
<path fill="none" stroke="midnightblue" d="M2510.88,-762.829C2462.82,-753.288 2377.68,-736.384 2323.9,-725.708"/>
<polygon fill="midnightblue" stroke="midnightblue" points="2324.4,-722.239 2313.91,-723.725 2323.04,-729.105 2324.4,-722.239"/>
</g>
<!-- Node43&#45;&gt;Node7 -->
<g id="edge138" class="edge"><title>Node43&#45;&gt;Node7</title>
<path fill="none" stroke="midnightblue" d="M2579.35,-761.48C2619.05,-748.942 2683.73,-721.153 2705,-669 2789.62,-461.483 2764.72,-314.22 2586,-179 2574.23,-170.096 2158.17,-146.734 1990.75,-137.669"/>
<polygon fill="midnightblue" stroke="midnightblue" points="1990.74,-134.164 1980.57,-137.119 1990.37,-141.154 1990.74,-134.164"/>
</g>
<!-- Node43&#45;&gt;Node13 -->
<g id="edge143" class="edge"><title>Node43&#45;&gt;Node13</title>
<path fill="none" stroke="midnightblue" d="M2583.06,-764.173C2685.36,-745.39 2970,-676.543 2970,-492 2970,-492 2970,-492 2970,-188 2970,-157.205 2968.02,-144.526 2946,-123 2914.74,-92.4484 2864.19,-80.3412 2831.28,-75.5689"/>
<polygon fill="midnightblue" stroke="midnightblue" points="2831.62,-72.0847 2821.26,-74.2631 2830.72,-79.026 2831.62,-72.0847"/>
</g>
<!-- Node43&#45;&gt;Node16 -->
<g id="edge139" class="edge"><title>Node43&#45;&gt;Node16</title>
<path fill="none" stroke="midnightblue" d="M2531.65,-761.476C2477.26,-731.765 2287.91,-632.444 2118,-593 1880.82,-537.941 1811.1,-582.729 1564.97,-556.988"/>
<polygon fill="midnightblue" stroke="midnightblue" points="1565.32,-553.507 1555.01,-555.919 1564.58,-560.467 1565.32,-553.507"/>
</g>
<!-- Node43&#45;&gt;Node31 -->
<g id="edge140" class="edge"><title>Node43&#45;&gt;Node31</title>
<path fill="none" stroke="midnightblue" d="M2536.55,-761.459C2520.09,-748.27 2486.85,-722.63 2456,-705 2402.8,-674.591 2387.05,-671.368 2330,-649 2258.29,-620.887 2240.6,-612.174 2166,-593 1937.42,-534.246 1867.98,-572.32 1643,-501 1587.28,-483.337 1573.19,-476.57 1524,-445 1496.19,-427.155 1467.64,-401.564 1450.35,-385.111"/>
<polygon fill="midnightblue" stroke="midnightblue" points="1452.45,-382.272 1442.83,-377.843 1447.59,-387.307 1452.45,-382.272"/>
</g>
<!-- Node43&#45;&gt;Node37 -->
<g id="edge142" class="edge"><title>Node43&#45;&gt;Node37</title>
<path fill="none" stroke="midnightblue" d="M2575.1,-761.494C2594.05,-754.459 2618.35,-742.715 2634,-725 2645.56,-711.911 2651.73,-692.761 2654.9,-678.636"/>
<polygon fill="midnightblue" stroke="midnightblue" points="2658.38,-679.08 2656.85,-668.596 2651.51,-677.746 2658.38,-679.08"/>
</g>
<!-- Node45&#45;&gt;Node13 -->
<g id="edge150" class="edge"><title>Node45&#45;&gt;Node13</title>
<path fill="none" stroke="midnightblue" d="M1672.63,-542.689C1862.24,-528.999 2537.32,-470.41 2680,-322 2704.55,-296.465 2704,-281.422 2704,-246 2704,-246 2704,-246 2704,-188 2704,-143.018 2747.51,-106.021 2775.64,-86.8025"/>
<polygon fill="midnightblue" stroke="midnightblue" points="2777.72,-89.6196 2784.16,-81.2 2773.88,-83.7713 2777.72,-89.6196"/>
</g>
<!-- Node45&#45;&gt;Node14 -->
<g id="edge151" class="edge"><title>Node45&#45;&gt;Node14</title>
<path fill="none" stroke="midnightblue" d="M1573.43,-538.383C1570.24,-537.91 1567.08,-537.445 1564,-537 1447.24,-520.104 1417.46,-519.877 1301,-501 1008.19,-453.538 928.359,-465.754 645,-378 515.15,-337.787 459.483,-319.723 397,-199 385.102,-176.012 384.59,-168.635 381,-143 378.562,-125.593 378.859,-105.53 379.59,-91.2685"/>
<polygon fill="midnightblue" stroke="midnightblue" points="383.086,-91.438 380.225,-81.2367 376.1,-90.9955 383.086,-91.438"/>
</g>
<!-- Node45&#45;&gt;Node18 -->
<g id="edge149" class="edge"><title>Node45&#45;&gt;Node18</title>
<path fill="none" stroke="midnightblue" d="M1650.41,-537.444C1679.77,-528.28 1726.52,-513.688 1759.1,-503.519"/>
<polygon fill="midnightblue" stroke="midnightblue" points="1760.21,-506.837 1768.72,-500.516 1758.13,-500.155 1760.21,-506.837"/>
</g>
<!-- Node46&#45;&gt;Node4 -->
<g id="edge162" class="edge"><title>Node46&#45;&gt;Node4</title>
<path fill="none" stroke="midnightblue" d="M2085.39,-992.464C1878,-985.721 1062.75,-958.652 1038,-949 992.525,-931.264 885.562,-828.129 844.988,-787.983"/>
<polygon fill="midnightblue" stroke="midnightblue" points="847.357,-785.403 837.796,-780.838 842.423,-790.369 847.357,-785.403"/>
</g>
<!-- Node46&#45;&gt;Node13 -->
<g id="edge178" class="edge"><title>Node46&#45;&gt;Node13</title>
<path fill="none" stroke="midnightblue" d="M2180.82,-993.967C2383.33,-993.211 3160,-983.802 3160,-884 3160,-884 3160,-884 3160,-188 3160,-157.205 3159.89,-142.434 3136,-123 3089.63,-85.2814 2906.51,-75.6441 2831.4,-73.2575"/>
<polygon fill="midnightblue" stroke="midnightblue" points="2831.23,-69.7511 2821.13,-72.9555 2831.03,-76.7481 2831.23,-69.7511"/>
</g>
<!-- Node46&#45;&gt;Node37 -->
<g id="edge157" class="edge"><title>Node46&#45;&gt;Node37</title>
<path fill="none" stroke="midnightblue" d="M2180.64,-986.284C2263.49,-972.205 2438.94,-939.457 2582,-893 2641.83,-873.569 2658.66,-870.361 2712,-837 2767.44,-802.322 2814.17,-758.8 2777,-705 2761.15,-682.06 2731.99,-670.802 2706.51,-665.282"/>
<polygon fill="midnightblue" stroke="midnightblue" points="2707.08,-661.827 2696.59,-663.374 2705.75,-668.701 2707.08,-661.827"/>
</g>
<!-- Node46&#45;&gt;Node39 -->
<g id="edge163" class="edge"><title>Node46&#45;&gt;Node39</title>
<path fill="none" stroke="midnightblue" d="M2085.16,-991.68C1875.95,-981.225 1052,-936.702 1052,-884 1052,-884 1052,-884 1052,-770 1052,-576.398 818.934,-427.474 740.446,-382.812"/>
<polygon fill="midnightblue" stroke="midnightblue" points="741.688,-379.496 731.254,-377.658 738.265,-385.601 741.688,-379.496"/>
</g>
<!-- Node46&#45;&gt;Node40 -->
<g id="edge161" class="edge"><title>Node46&#45;&gt;Node40</title>
<path fill="none" stroke="midnightblue" d="M2094.97,-985.444C2053.19,-976.043 1986.02,-960.929 1940.73,-950.739"/>
<polygon fill="midnightblue" stroke="midnightblue" points="1941.38,-947.297 1930.85,-948.516 1939.84,-954.126 1941.38,-947.297"/>
</g>
<!-- Node46&#45;&gt;Node45 -->
<g id="edge164" class="edge"><title>Node46&#45;&gt;Node45</title>
<path fill="none" stroke="midnightblue" d="M2115.76,-985.396C2073.43,-963.83 1962.03,-904.345 1882,-837 1774.71,-746.718 1670.68,-612.218 1635.53,-565.069"/>
<polygon fill="midnightblue" stroke="midnightblue" points="1638.2,-562.795 1629.44,-556.843 1632.58,-566.962 1638.2,-562.795"/>
</g>
<!-- Node47 -->
<g id="node47" class="node"><title>Node47</title>
<g id="a_node47"><a xlink:href="tensor__type_8h.html" target="_top" xlink:title="Polymorphic tensor types. ">
<polygon fill="white" stroke="black" points="2379.5,-761.5 2379.5,-780.5 2492.5,-780.5 2492.5,-761.5 2379.5,-761.5"/>
<text text-anchor="middle" x="2436" y="-768.5" font-family="Helvetica,sans-Serif" font-size="10.00">tvm/ir/tensor_type.h</text>
</a>
</g>
</g>
<!-- Node46&#45;&gt;Node47 -->
<g id="edge158" class="edge"><title>Node46&#45;&gt;Node47</title>
<path fill="none" stroke="midnightblue" d="M2170.28,-985.492C2219.69,-972.634 2307.31,-944.147 2365,-893 2397.69,-864.016 2419.43,-816.243 2429.51,-790.242"/>
<polygon fill="midnightblue" stroke="midnightblue" points="2432.91,-791.142 2433.12,-780.549 2426.35,-788.701 2432.91,-791.142"/>
</g>
<!-- Node48 -->
<g id="node48" class="node"><title>Node48</title>
<g id="a_node48"><a xlink:href="tir_2expr_8h.html" target="_top" xlink:title="TIR expressions. ">
<polygon fill="white" stroke="black" points="1901,-761.5 1901,-780.5 1981,-780.5 1981,-761.5 1901,-761.5"/>
<text text-anchor="middle" x="1941" y="-768.5" font-family="Helvetica,sans-Serif" font-size="10.00">tvm/tir/expr.h</text>
</a>
</g>
</g>
<!-- Node46&#45;&gt;Node48 -->
<g id="edge165" class="edge"><title>Node46&#45;&gt;Node48</title>
<path fill="none" stroke="midnightblue" d="M2134.33,-985.264C2138.11,-956.912 2145.95,-866.451 2101,-817 2073.44,-786.682 2027.24,-776.152 1991.54,-772.786"/>
<polygon fill="midnightblue" stroke="midnightblue" points="1991.55,-769.276 1981.31,-771.987 1991.01,-776.255 1991.55,-769.276"/>
</g>
<!-- Node49 -->
<g id="node49" class="node"><title>Node49</title>
<g id="a_node49"><a xlink:href="base_8h.html" target="_top" xlink:title="Base classes for the Relay IR. ">
<polygon fill="white" stroke="black" points="2043.5,-817.5 2043.5,-836.5 2092.5,-836.5 2092.5,-817.5 2043.5,-817.5"/>
<text text-anchor="middle" x="2068" y="-824.5" font-family="Helvetica,sans-Serif" font-size="10.00">base.h</text>
</a>
</g>
</g>
<!-- Node46&#45;&gt;Node49 -->
<g id="edge179" class="edge"><title>Node46&#45;&gt;Node49</title>
<path fill="none" stroke="midnightblue" d="M2129.51,-985.075C2119.23,-958.832 2088.97,-881.545 2075.09,-846.117"/>
<polygon fill="midnightblue" stroke="midnightblue" points="2078.26,-844.604 2071.35,-836.568 2071.74,-847.156 2078.26,-844.604"/>
</g>
<!-- Node47&#45;&gt;Node6 -->
<g id="edge160" class="edge"><title>Node47&#45;&gt;Node6</title>
<path fill="none" stroke="midnightblue" d="M2410.49,-761.444C2383.4,-752.359 2340.41,-737.939 2310.13,-727.783"/>
<polygon fill="midnightblue" stroke="midnightblue" points="2310.99,-724.378 2300.39,-724.516 2308.76,-731.015 2310.99,-724.378"/>
</g>
<!-- Node47&#45;&gt;Node37 -->
<g id="edge159" class="edge"><title>Node47&#45;&gt;Node37</title>
<path fill="none" stroke="midnightblue" d="M2453.42,-761.368C2492.16,-742.171 2585.66,-695.842 2631.61,-673.074"/>
<polygon fill="midnightblue" stroke="midnightblue" points="2633.25,-676.167 2640.66,-668.591 2630.15,-669.895 2633.25,-676.167"/>
</g>
<!-- Node48&#45;&gt;Node6 -->
<g id="edge171" class="edge"><title>Node48&#45;&gt;Node6</title>
<path fill="none" stroke="midnightblue" d="M1981.1,-763.29C1985.79,-762.514 1990.5,-761.737 1995,-761 2076.19,-747.71 2170.69,-732.597 2226.53,-723.703"/>
<polygon fill="midnightblue" stroke="midnightblue" points="2227.17,-727.145 2236.49,-722.117 2226.06,-720.233 2227.17,-727.145"/>
</g>
<!-- Node48&#45;&gt;Node9 -->
<g id="edge169" class="edge"><title>Node48&#45;&gt;Node9</title>
<path fill="none" stroke="midnightblue" d="M1952.92,-761.472C1964.91,-752.731 1983.75,-738.537 1999,-725 2034.49,-693.497 2035.47,-676.708 2074,-649 2335.77,-460.74 2783.49,-603.737 2705,-291 2689.32,-228.519 2671.72,-205.497 2613,-179 2283.16,-30.1502 2162.95,-132.914 1804,-87 1794.78,-85.821 1785.11,-84.5233 1775.53,-83.2037"/>
<polygon fill="midnightblue" stroke="midnightblue" points="1776.01,-79.7362 1765.62,-81.8247 1775.05,-86.6695 1776.01,-79.7362"/>
</g>
<!-- Node48&#45;&gt;Node13 -->
<g id="edge172" class="edge"><title>Node48&#45;&gt;Node13</title>
<path fill="none" stroke="midnightblue" d="M1981.11,-770.21C2080.03,-770.051 2343.22,-765.511 2558,-725 2640.75,-709.392 2662.91,-705.069 2739,-669 2844.17,-619.146 2932,-608.388 2932,-492 2932,-492 2932,-492 2932,-188 2932,-157.205 2928.89,-145.631 2908,-123 2887.45,-100.738 2855.13,-87.4813 2831.01,-80.1773"/>
<polygon fill="midnightblue" stroke="midnightblue" points="2831.81,-76.7659 2821.24,-77.4026 2829.9,-83.5 2831.81,-76.7659"/>
</g>
<!-- Node48&#45;&gt;Node14 -->
<g id="edge177" class="edge"><title>Node48&#45;&gt;Node14</title>
<path fill="none" stroke="midnightblue" d="M1900.9,-767.275C1801.67,-760.361 1546.61,-741.517 1463,-725 951.342,-623.925 799.811,-627.837 342,-378 251.939,-328.852 214.191,-281.027 225,-179 227.682,-153.688 220.172,-142.098 237,-123 265.764,-90.3563 316.884,-78.8126 349.84,-74.7312"/>
<polygon fill="midnightblue" stroke="midnightblue" points="350.283,-78.2038 359.85,-73.651 349.532,-71.2442 350.283,-78.2038"/>
</g>
<!-- Node48&#45;&gt;Node16 -->
<g id="edge166" class="edge"><title>Node48&#45;&gt;Node16</title>
<path fill="none" stroke="midnightblue" d="M1924.21,-761.433C1857.75,-727.512 1612.7,-602.454 1531.98,-561.257"/>
<polygon fill="midnightblue" stroke="midnightblue" points="1533.47,-558.089 1522.97,-556.661 1530.29,-564.324 1533.47,-558.089"/>
</g>
<!-- Node48&#45;&gt;Node23 -->
<g id="edge174" class="edge"><title>Node48&#45;&gt;Node23</title>
<path fill="none" stroke="midnightblue" d="M1942.09,-761.341C1946.88,-719.862 1963.1,-538.379 1898,-414 1854.76,-331.375 1815.31,-323.769 1728,-291 1633.19,-255.415 1599.25,-286.496 1503,-255 1484.49,-248.942 1482.2,-241.951 1464,-235 1425.16,-220.164 1379.57,-208.482 1345.09,-200.742"/>
<polygon fill="midnightblue" stroke="midnightblue" points="1345.74,-197.301 1335.22,-198.566 1344.23,-204.137 1345.74,-197.301"/>
</g>
<!-- Node48&#45;&gt;Node25 -->
<g id="edge170" class="edge"><title>Node48&#45;&gt;Node25</title>
<path fill="none" stroke="midnightblue" d="M1943.49,-761.342C1960.74,-701.488 2062.3,-349.057 2086.72,-264.316"/>
<polygon fill="midnightblue" stroke="midnightblue" points="2090.12,-265.15 2089.53,-254.572 2083.4,-263.212 2090.12,-265.15"/>
</g>
<!-- Node48&#45;&gt;Node28 -->
<g id="edge176" class="edge"><title>Node48&#45;&gt;Node28</title>
<path fill="none" stroke="midnightblue" d="M1947.46,-761.493C1962.9,-741.318 2003.45,-689.252 2041,-649 2189.9,-489.398 2387.64,-313.725 2447.26,-261.466"/>
<polygon fill="midnightblue" stroke="midnightblue" points="2449.81,-263.886 2455.03,-254.667 2445.2,-258.617 2449.81,-263.886"/>
</g>
<!-- Node48&#45;&gt;Node30 -->
<g id="edge168" class="edge"><title>Node48&#45;&gt;Node30</title>
<path fill="none" stroke="midnightblue" d="M1900.71,-769.904C1789.04,-767.835 1469.68,-749.554 1255,-613 1225.56,-594.277 1216,-587.999 1200,-557 1188.4,-534.534 1192.23,-526.184 1190,-501 1182.1,-411.778 1209.77,-306.225 1222.23,-264.394"/>
<polygon fill="midnightblue" stroke="midnightblue" points="1225.6,-265.349 1225.17,-254.763 1218.9,-263.306 1225.6,-265.349"/>
</g>
<!-- Node48&#45;&gt;Node31 -->
<g id="edge167" class="edge"><title>Node48&#45;&gt;Node31</title>
<path fill="none" stroke="midnightblue" d="M1900.85,-762.323C1747.06,-732.371 1204,-621.413 1204,-548 1204,-548 1204,-548 1204,-490 1204,-416.721 1296.57,-387.72 1364.26,-376.309"/>
<polygon fill="midnightblue" stroke="midnightblue" points="1365.14,-379.713 1374.47,-374.688 1364.04,-372.8 1365.14,-379.713"/>
</g>
<!-- Node48&#45;&gt;Node35 -->
<g id="edge175" class="edge"><title>Node48&#45;&gt;Node35</title>
<path fill="none" stroke="midnightblue" d="M1941.75,-761.317C1943.15,-739.838 1943.85,-683.467 1917,-649 1805.12,-505.358 1707.28,-559.923 1535,-501 1486.79,-484.511 1433.05,-459.13 1402.02,-443.742"/>
<polygon fill="midnightblue" stroke="midnightblue" points="1403.29,-440.463 1392.78,-439.121 1400.16,-446.724 1403.29,-440.463"/>
</g>
<!-- Node48&#45;&gt;Node38 -->
<g id="edge173" class="edge"><title>Node48&#45;&gt;Node38</title>
<path fill="none" stroke="midnightblue" d="M1981.04,-762.698C2007.98,-756.252 2043.15,-744.715 2069,-725 2085.31,-712.555 2097.92,-692.478 2105.59,-677.927"/>
<polygon fill="midnightblue" stroke="midnightblue" points="2108.76,-679.409 2110.09,-668.898 2102.49,-676.285 2108.76,-679.409"/>
</g>
<!-- Node49&#45;&gt;Node13 -->
<g id="edge183" class="edge"><title>Node49&#45;&gt;Node13</title>
<path fill="none" stroke="midnightblue" d="M2092.6,-823.126C2109.34,-821.229 2131.99,-818.777 2152,-817 2352.92,-799.165 3046,-861.707 3046,-660 3046,-660 3046,-660 3046,-188 3046,-157.205 3045.15,-143.304 3022,-123 2993.88,-98.3415 2886.33,-82.6225 2831.52,-76.0431"/>
<polygon fill="midnightblue" stroke="midnightblue" points="2831.64,-72.5333 2821.3,-74.8491 2830.83,-79.486 2831.64,-72.5333"/>
</g>
<!-- Node49&#45;&gt;Node16 -->
<g id="edge182" class="edge"><title>Node49&#45;&gt;Node16</title>
<path fill="none" stroke="midnightblue" d="M2043.44,-821.86C2008.82,-815.549 1944.07,-801.994 1892,-781 1740.71,-719.997 1579.94,-603.908 1525.38,-562.845"/>
<polygon fill="midnightblue" stroke="midnightblue" points="1527.36,-559.954 1517.28,-556.707 1523.14,-565.534 1527.36,-559.954"/>
</g>
<!-- Node49&#45;&gt;Node22 -->
<g id="edge184" class="edge"><title>Node49&#45;&gt;Node22</title>
<path fill="none" stroke="midnightblue" d="M2043.44,-821.868C1930.13,-802.656 1457.43,-720.802 1317,-669 1121.09,-596.735 1053.05,-591.249 904,-445 873.883,-415.448 860.189,-399.792 866,-358 870.263,-327.343 873.195,-319.613 885,-291 897.748,-260.1 917.643,-226.611 929.969,-207.01"/>
<polygon fill="midnightblue" stroke="midnightblue" points="932.922,-208.889 935.347,-198.576 927.019,-205.126 932.922,-208.889"/>
</g>
<!-- Node49&#45;&gt;Node36 -->
<g id="edge180" class="edge"><title>Node49&#45;&gt;Node36</title>
<path fill="none" stroke="midnightblue" d="M2092.61,-823.199C2109.35,-821.334 2132,-818.89 2152,-817 2249.67,-807.774 2501.95,-819.936 2592,-781 2656.9,-752.936 2679.47,-734.943 2705,-669 2708.21,-660.711 2708.49,-657.175 2705,-649 2699.85,-636.947 2689.72,-626.576 2680.17,-618.839"/>
<polygon fill="midnightblue" stroke="midnightblue" points="2682.17,-615.962 2672.08,-612.741 2677.96,-621.553 2682.17,-615.962"/>
</g>
<!-- Node49&#45;&gt;Node48 -->
<g id="edge181" class="edge"><title>Node49&#45;&gt;Node48</title>
<path fill="none" stroke="midnightblue" d="M2047.88,-817.444C2026.98,-808.557 1994.07,-794.563 1970.28,-784.451"/>
<polygon fill="midnightblue" stroke="midnightblue" points="1971.6,-781.208 1961.03,-780.516 1968.86,-787.65 1971.6,-781.208"/>
</g>
<!-- Node50&#45;&gt;Node2 -->
<g id="edge188" class="edge"><title>Node50&#45;&gt;Node2</title>
<path fill="none" stroke="midnightblue" d="M2017.07,-1041.44C1971.3,-1031.64 1896.5,-1015.61 1849.06,-1005.44"/>
<polygon fill="midnightblue" stroke="midnightblue" points="1849.6,-1001.98 1839.09,-1003.3 1848.13,-1008.82 1849.6,-1001.98"/>
</g>
<!-- Node50&#45;&gt;Node4 -->
<g id="edge186" class="edge"><title>Node50&#45;&gt;Node4</title>
<path fill="none" stroke="midnightblue" d="M2009.61,-1048.52C1775.99,-1040.92 758,-1004.11 758,-940 758,-940 758,-940 758,-882 758,-843.101 789.73,-807.052 810.766,-787.426"/>
<polygon fill="midnightblue" stroke="midnightblue" points="813.114,-790.021 818.217,-780.736 808.437,-784.813 813.114,-790.021"/>
</g>
<!-- Node50&#45;&gt;Node6 -->
<g id="edge187" class="edge"><title>Node50&#45;&gt;Node6</title>
<path fill="none" stroke="midnightblue" d="M2104.11,-1044.34C2136.71,-1038.6 2179.85,-1027.23 2212,-1005 2263.18,-969.614 2276.32,-952.029 2296,-893 2314.55,-837.348 2294.11,-767.059 2282.26,-734.328"/>
<polygon fill="midnightblue" stroke="midnightblue" points="2285.44,-732.859 2278.63,-724.743 2278.89,-735.334 2285.44,-732.859"/>
</g>
<!-- Node50&#45;&gt;Node13 -->
<g id="edge190" class="edge"><title>Node50&#45;&gt;Node13</title>
<path fill="none" stroke="midnightblue" d="M2104.21,-1050.48C2319.54,-1052.08 3198,-1051.76 3198,-940 3198,-940 3198,-940 3198,-188 3198,-154.31 3187.09,-141.6 3159,-123 3105.48,-87.5585 2909.69,-76.555 2831.53,-73.5304"/>
<polygon fill="midnightblue" stroke="midnightblue" points="2831.44,-70.0245 2821.32,-73.1548 2831.18,-77.0198 2831.44,-70.0245"/>
</g>
<!-- Node50&#45;&gt;Node26 -->
<g id="edge191" class="edge"><title>Node50&#45;&gt;Node26</title>
<path fill="none" stroke="midnightblue" d="M2009.93,-1049.87C1713.21,-1048.74 114,-1038.09 114,-940 114,-940 114,-940 114,-602 114,-488.719 463.681,-308.786 564.874,-259.088"/>
<polygon fill="midnightblue" stroke="midnightblue" points="566.686,-262.098 574.134,-254.563 563.613,-255.809 566.686,-262.098"/>
</g>
<!-- Node50&#45;&gt;Node41 -->
<g id="edge189" class="edge"><title>Node50&#45;&gt;Node41</title>
<path fill="none" stroke="midnightblue" d="M2104.03,-1043.7C2131.7,-1037.82 2165.72,-1026.54 2189,-1005 2219.1,-977.142 2232.55,-928.917 2237.9,-902.544"/>
<polygon fill="midnightblue" stroke="midnightblue" points="2241.35,-903.173 2239.73,-892.703 2234.46,-901.897 2241.35,-903.173"/>
</g>
<!-- Node50&#45;&gt;Node46 -->
<g id="edge193" class="edge"><title>Node50&#45;&gt;Node46</title>
<path fill="none" stroke="midnightblue" d="M2069.21,-1041.32C2080.78,-1033.11 2098.38,-1020.6 2112.16,-1010.81"/>
<polygon fill="midnightblue" stroke="midnightblue" points="2114.44,-1013.48 2120.57,-1004.83 2110.39,-1007.77 2114.44,-1013.48"/>
</g>
<!-- Node50&#45;&gt;Node49 -->
<g id="edge192" class="edge"><title>Node50&#45;&gt;Node49</title>
<path fill="none" stroke="midnightblue" d="M2057.43,-1041.3C2059.05,-1008.63 2064.79,-892.866 2067.06,-846.957"/>
<polygon fill="midnightblue" stroke="midnightblue" points="2070.56,-847.045 2067.56,-836.884 2063.57,-846.698 2070.56,-847.045"/>
</g>
</g>
</svg>
