<?xml version="1.0" encoding="UTF-8" standalone="no"?>
<!DOCTYPE svg PUBLIC "-//W3C//DTD SVG 1.1//EN"
 "http://www.w3.org/Graphics/SVG/1.1/DTD/svg11.dtd">
<!-- Generated by graphviz version 2.38.0 (20140413.2041)
 -->
<!-- Title: include/tvm/relay/expr.h Pages: 1 -->
<svg width="3206pt" height="1069pt"
 viewBox="0.00 0.00 3206.00 1069.00" xmlns="http://www.w3.org/2000/svg" xmlns:xlink="http://www.w3.org/1999/xlink">
<g id="graph0" class="graph" transform="scale(1 1) rotate(0) translate(4 1065)">
<title>include/tvm/relay/expr.h</title>
<polygon fill="white" stroke="none" points="-4,4 -4,-1065 3202,-1065 3202,4 -4,4"/>
<!-- Node1 -->
<g id="node1" class="node"><title>Node1</title>
<polygon fill="#bfbfbf" stroke="black" points="2306.5,-1041.5 2306.5,-1060.5 2437.5,-1060.5 2437.5,-1041.5 2306.5,-1041.5"/>
<text text-anchor="middle" x="2372" y="-1048.5" font-family="Helvetica,sans-Serif" font-size="10.00">include/tvm/relay/expr.h</text>
</g>
<!-- Node2 -->
<g id="node2" class="node"><title>Node2</title>
<g id="a_node2"><a xlink:href="ir_2attrs_8h.html" target="_top" xlink:title="Helpers for attribute objects. ">
<polygon fill="white" stroke="black" points="2313.5,-761.5 2313.5,-780.5 2392.5,-780.5 2392.5,-761.5 2313.5,-761.5"/>
<text text-anchor="middle" x="2353" y="-768.5" font-family="Helvetica,sans-Serif" font-size="10.00">tvm/ir/attrs.h</text>
</a>
</g>
</g>
<!-- Node1&#45;&gt;Node2 -->
<g id="edge1" class="edge"><title>Node1&#45;&gt;Node2</title>
<path fill="none" stroke="midnightblue" d="M2371.41,-1041.38C2368.77,-1002.78 2358.02,-845.454 2354.29,-790.807"/>
<polygon fill="midnightblue" stroke="midnightblue" points="2357.76,-790.262 2353.58,-780.524 2350.77,-790.74 2357.76,-790.262"/>
</g>
<!-- Node4 -->
<g id="node4" class="node"><title>Node4</title>
<g id="a_node4"><a xlink:href="ir_2expr_8h.html" target="_top" xlink:title="Base expr nodes in TVM. ">
<polygon fill="white" stroke="black" points="1505.5,-705.5 1505.5,-724.5 1582.5,-724.5 1582.5,-705.5 1505.5,-705.5"/>
<text text-anchor="middle" x="1544" y="-712.5" font-family="Helvetica,sans-Serif" font-size="10.00">tvm/ir/expr.h</text>
</a>
</g>
</g>
<!-- Node1&#45;&gt;Node4 -->
<g id="edge119" class="edge"><title>Node1&#45;&gt;Node4</title>
<path fill="none" stroke="midnightblue" d="M2306.39,-1050.83C2194.61,-1050.99 1960.62,-1045.79 1768,-1005 1683.97,-987.204 1586,-1025.89 1586,-940 1586,-940 1586,-940 1586,-826 1586,-791.412 1567.65,-754.492 1555.21,-733.432"/>
<polygon fill="midnightblue" stroke="midnightblue" points="1558.06,-731.38 1549.84,-724.692 1552.09,-735.045 1558.06,-731.38"/>
</g>
<!-- Node12 -->
<g id="node12" class="node"><title>Node12</title>
<polygon fill="white" stroke="#bfbfbf" points="2701,-62 2701,-81 2745,-81 2745,-62 2701,-62"/>
<text text-anchor="middle" x="2723" y="-69" font-family="Helvetica,sans-Serif" font-size="10.00">string</text>
</g>
<!-- Node1&#45;&gt;Node12 -->
<g id="edge160" class="edge"><title>Node1&#45;&gt;Node12</title>
<path fill="none" stroke="midnightblue" d="M2437.51,-1048.14C2632.87,-1041.73 3198,-1016.58 3198,-940 3198,-940 3198,-940 3198,-188 3198,-154.31 3187.31,-141.261 3159,-123 3092.16,-79.8877 2844.39,-73.5069 2755.23,-72.6201"/>
<polygon fill="midnightblue" stroke="midnightblue" points="2755.19,-69.1198 2745.16,-72.5371 2755.13,-76.1195 2755.19,-69.1198"/>
</g>
<!-- Node25 -->
<g id="node25" class="node"><title>Node25</title>
<polygon fill="white" stroke="#bfbfbf" points="2232.5,-235.5 2232.5,-254.5 2295.5,-254.5 2295.5,-235.5 2232.5,-235.5"/>
<text text-anchor="middle" x="2264" y="-242.5" font-family="Helvetica,sans-Serif" font-size="10.00">functional</text>
</g>
<!-- Node1&#45;&gt;Node25 -->
<g id="edge161" class="edge"><title>Node1&#45;&gt;Node25</title>
<path fill="none" stroke="midnightblue" d="M2437.53,-1046C2609.18,-1034.84 3061.54,-1000.73 3103,-949 3108.56,-942.064 3106.82,-937.028 3103,-929 3079.57,-879.716 2407.05,-356.888 2283.43,-261.046"/>
<polygon fill="midnightblue" stroke="midnightblue" points="2285.24,-258.026 2275.19,-254.667 2280.95,-263.559 2285.24,-258.026"/>
</g>
<!-- Node38 -->
<g id="node38" class="node"><title>Node38</title>
<g id="a_node38"><a xlink:href="ir_2op_8h.html" target="_top" xlink:title="Primitive operators(builtin intrinsics) and registry for them. ">
<polygon fill="white" stroke="black" points="2775,-985.5 2775,-1004.5 2843,-1004.5 2843,-985.5 2775,-985.5"/>
<text text-anchor="middle" x="2809" y="-992.5" font-family="Helvetica,sans-Serif" font-size="10.00">tvm/ir/op.h</text>
</a>
</g>
</g>
<!-- Node1&#45;&gt;Node38 -->
<g id="edge120" class="edge"><title>Node1&#45;&gt;Node38</title>
<path fill="none" stroke="midnightblue" d="M2437.9,-1041.86C2527.96,-1030.73 2687.12,-1011.06 2764.4,-1001.51"/>
<polygon fill="midnightblue" stroke="midnightblue" points="2765.26,-1004.93 2774.75,-1000.23 2764.4,-997.985 2765.26,-1004.93"/>
</g>
<!-- Node42 -->
<g id="node42" class="node"><title>Node42</title>
<g id="a_node42"><a xlink:href="ir_2module_8h.html" target="_top" xlink:title="IRModule that holds the functions and type definitions. ">
<polygon fill="white" stroke="black" points="1716,-873.5 1716,-892.5 1808,-892.5 1808,-873.5 1716,-873.5"/>
<text text-anchor="middle" x="1762" y="-880.5" font-family="Helvetica,sans-Serif" font-size="10.00">tvm/ir/module.h</text>
</a>
</g>
</g>
<!-- Node1&#45;&gt;Node42 -->
<g id="edge159" class="edge"><title>Node1&#45;&gt;Node42</title>
<path fill="none" stroke="midnightblue" d="M2306.44,-1049.35C2161.62,-1047.31 1824.23,-1038.93 1786,-1005 1757.13,-979.378 1757.01,-929.85 1759.48,-902.783"/>
<polygon fill="midnightblue" stroke="midnightblue" points="1762.97,-903.022 1760.61,-892.693 1756.02,-902.239 1762.97,-903.022"/>
</g>
<!-- Node47 -->
<g id="node47" class="node"><title>Node47</title>
<g id="a_node47"><a xlink:href="base_8h.html" target="_top" xlink:title="Base classes for the Relay IR. ">
<polygon fill="white" stroke="black" points="1984.5,-817.5 1984.5,-836.5 2039.5,-836.5 2039.5,-817.5 1984.5,-817.5"/>
<text text-anchor="middle" x="2012" y="-824.5" font-family="Helvetica,sans-Serif" font-size="10.00">./base.h</text>
</a>
</g>
</g>
<!-- Node1&#45;&gt;Node47 -->
<g id="edge162" class="edge"><title>Node1&#45;&gt;Node47</title>
<path fill="none" stroke="midnightblue" d="M2306.5,-1044.26C2235.32,-1037.19 2126.82,-1023.79 2090,-1005 2036.42,-977.659 2025.18,-952.109 2014,-893 2011.08,-877.556 2010.74,-859.686 2011.05,-846.597"/>
<polygon fill="midnightblue" stroke="midnightblue" points="2014.55,-846.63 2011.43,-836.505 2007.55,-846.366 2014.55,-846.63"/>
</g>
<!-- Node49 -->
<g id="node49" class="node"><title>Node49</title>
<g id="a_node49"><a xlink:href="relay_2type_8h.html" target="_top" xlink:title="Relay typed AST nodes. ">
<polygon fill="white" stroke="black" points="2099.5,-985.5 2099.5,-1004.5 2152.5,-1004.5 2152.5,-985.5 2099.5,-985.5"/>
<text text-anchor="middle" x="2126" y="-992.5" font-family="Helvetica,sans-Serif" font-size="10.00">./type.h</text>
</a>
</g>
</g>
<!-- Node1&#45;&gt;Node49 -->
<g id="edge180" class="edge"><title>Node1&#45;&gt;Node49</title>
<path fill="none" stroke="midnightblue" d="M2333.02,-1041.44C2286.17,-1031.16 2208.15,-1014.03 2162.45,-1004"/>
<polygon fill="midnightblue" stroke="midnightblue" points="2163.18,-1000.58 2152.67,-1001.85 2161.68,-1007.42 2163.18,-1000.58"/>
</g>
<!-- Node3 -->
<g id="node3" class="node"><title>Node3</title>
<polygon fill="white" stroke="#bfbfbf" points="2400.5,-705.5 2400.5,-724.5 2495.5,-724.5 2495.5,-705.5 2400.5,-705.5"/>
<text text-anchor="middle" x="2448" y="-712.5" font-family="Helvetica,sans-Serif" font-size="10.00">dmlc/common.h</text>
</g>
<!-- Node2&#45;&gt;Node3 -->
<g id="edge2" class="edge"><title>Node2&#45;&gt;Node3</title>
<path fill="none" stroke="midnightblue" d="M2368.26,-761.324C2383.22,-752.822 2406.25,-739.729 2423.73,-729.797"/>
<polygon fill="midnightblue" stroke="midnightblue" points="2425.81,-732.639 2432.77,-724.655 2422.35,-726.553 2425.81,-732.639"/>
</g>
<!-- Node2&#45;&gt;Node4 -->
<g id="edge3" class="edge"><title>Node2&#45;&gt;Node4</title>
<path fill="none" stroke="midnightblue" d="M2313.43,-767.359C2178.98,-758.384 1739.88,-729.075 1592.63,-719.246"/>
<polygon fill="midnightblue" stroke="midnightblue" points="1592.76,-715.747 1582.55,-718.573 1592.29,-722.731 1592.76,-715.747"/>
</g>
<!-- Node11 -->
<g id="node11" class="node"><title>Node11</title>
<polygon fill="white" stroke="#bfbfbf" points="232,-62 232,-81 300,-81 300,-62 232,-62"/>
<text text-anchor="middle" x="266" y="-69" font-family="Helvetica,sans-Serif" font-size="10.00">type_traits</text>
</g>
<!-- Node2&#45;&gt;Node11 -->
<g id="edge116" class="edge"><title>Node2&#45;&gt;Node11</title>
<path fill="none" stroke="midnightblue" d="M2313.21,-768.901C2190.99,-765.315 1810.28,-752.557 1496,-725 985.962,-680.278 809.361,-757.065 366,-501 241.016,-428.815 178.701,-397.202 154,-255 143.845,-196.539 136.235,-168.767 174,-123 188.484,-105.447 210.734,-93.0014 229.724,-84.8574"/>
<polygon fill="midnightblue" stroke="midnightblue" points="231.062,-88.0917 239.017,-81.094 228.434,-81.6035 231.062,-88.0917"/>
</g>
<!-- Node2&#45;&gt;Node12 -->
<g id="edge117" class="edge"><title>Node2&#45;&gt;Node12</title>
<path fill="none" stroke="midnightblue" d="M2392.54,-763.975C2427.25,-757.612 2478.38,-745.583 2519,-725 2608,-679.898 2808.78,-523.791 2870,-445 2911.13,-392.063 2932,-374.536 2932,-307.5 2932,-307.5 2932,-307.5 2932,-188 2932,-157.205 2930.7,-143.805 2908,-123 2865.53,-84.0786 2795.95,-74.7009 2755.31,-72.7105"/>
<polygon fill="midnightblue" stroke="midnightblue" points="2755.27,-69.2068 2745.15,-72.3381 2755.02,-76.2021 2755.27,-69.2068"/>
</g>
<!-- Node13 -->
<g id="node13" class="node"><title>Node13</title>
<polygon fill="white" stroke="#bfbfbf" points="1588,-62 1588,-81 1630,-81 1630,-62 1588,-62"/>
<text text-anchor="middle" x="1609" y="-69" font-family="Helvetica,sans-Serif" font-size="10.00">utility</text>
</g>
<!-- Node2&#45;&gt;Node13 -->
<g id="edge118" class="edge"><title>Node2&#45;&gt;Node13</title>
<path fill="none" stroke="midnightblue" d="M2356.91,-761.233C2382.37,-703.658 2521.93,-379.275 2475,-291 2429.52,-205.459 2377.34,-216.458 2288,-179 2053.86,-80.8341 1739.87,-72.278 1640.51,-72.1874"/>
<polygon fill="midnightblue" stroke="midnightblue" points="1640.25,-68.6879 1630.26,-72.2086 1640.27,-75.6878 1640.25,-68.6879"/>
</g>
<!-- Node18 -->
<g id="node18" class="node"><title>Node18</title>
<g id="a_node18"><a xlink:href="packed__func_8h.html" target="_top" xlink:title="Type&#45;erased function used across TVM API. ">
<polygon fill="white" stroke="black" points="1660.5,-291.5 1660.5,-321.5 1773.5,-321.5 1773.5,-291.5 1660.5,-291.5"/>
<text text-anchor="start" x="1668.5" y="-309.5" font-family="Helvetica,sans-Serif" font-size="10.00">tvm/runtime/packed</text>
<text text-anchor="middle" x="1717" y="-298.5" font-family="Helvetica,sans-Serif" font-size="10.00">_func.h</text>
</a>
</g>
</g>
<!-- Node2&#45;&gt;Node18 -->
<g id="edge112" class="edge"><title>Node2&#45;&gt;Node18</title>
<path fill="none" stroke="midnightblue" d="M2344.83,-761.384C2329.07,-743.812 2296,-701.942 2296,-660 2296,-660 2296,-660 2296,-602 2296,-374.347 1936,-322.602 1783.73,-310.898"/>
<polygon fill="midnightblue" stroke="midnightblue" points="1783.8,-307.394 1773.57,-310.153 1783.29,-314.375 1783.8,-307.394"/>
</g>
<!-- Node21 -->
<g id="node21" class="node"><title>Node21</title>
<polygon fill="white" stroke="#bfbfbf" points="2063.5,-179.5 2063.5,-198.5 2110.5,-198.5 2110.5,-179.5 2063.5,-179.5"/>
<text text-anchor="middle" x="2087" y="-186.5" font-family="Helvetica,sans-Serif" font-size="10.00">vector</text>
</g>
<!-- Node2&#45;&gt;Node21 -->
<g id="edge114" class="edge"><title>Node2&#45;&gt;Node21</title>
<path fill="none" stroke="midnightblue" d="M2353,-761.496C2353.15,-748.994 2353.99,-724.973 2358,-705 2372.48,-632.935 2410,-621.506 2410,-548 2410,-548 2410,-548 2410,-428.5 2410,-336.739 2408.42,-293.832 2338,-235 2305.55,-207.889 2181.76,-196.182 2121.02,-191.985"/>
<polygon fill="midnightblue" stroke="midnightblue" points="2121.01,-188.477 2110.8,-191.309 2120.55,-195.462 2121.01,-188.477"/>
</g>
<!-- Node22 -->
<g id="node22" class="node"><title>Node22</title>
<polygon fill="white" stroke="#bfbfbf" points="410.5,-179.5 410.5,-198.5 503.5,-198.5 503.5,-179.5 410.5,-179.5"/>
<text text-anchor="middle" x="457" y="-186.5" font-family="Helvetica,sans-Serif" font-size="10.00">unordered_map</text>
</g>
<!-- Node2&#45;&gt;Node22 -->
<g id="edge113" class="edge"><title>Node2&#45;&gt;Node22</title>
<path fill="none" stroke="midnightblue" d="M2313.49,-763.719C2200.24,-745.726 1864.71,-692.49 1586,-649 1532.74,-640.689 671.129,-531.963 627,-501 599.624,-481.791 496.147,-270.928 465.563,-207.772"/>
<polygon fill="midnightblue" stroke="midnightblue" points="468.661,-206.137 461.159,-198.656 462.358,-209.183 468.661,-206.137"/>
</g>
<!-- Node2&#45;&gt;Node25 -->
<g id="edge115" class="edge"><title>Node2&#45;&gt;Node25</title>
<path fill="none" stroke="midnightblue" d="M2392.91,-768.92C2442.58,-765.568 2519.18,-752.733 2504,-705 2461.09,-570.094 2387.12,-569.642 2320,-445 2292.18,-393.333 2285.86,-379.021 2272,-322 2267.35,-302.892 2265.41,-280.434 2264.59,-264.91"/>
<polygon fill="midnightblue" stroke="midnightblue" points="2268.07,-264.407 2264.16,-254.561 2261.08,-264.698 2268.07,-264.407"/>
</g>
<!-- Node5 -->
<g id="node5" class="node"><title>Node5</title>
<g id="a_node5"><a xlink:href="object_8h.html" target="_top" xlink:title="A managed object in the TVM runtime. ">
<polygon fill="white" stroke="black" points="944.5,-123.5 944.5,-142.5 1061.5,-142.5 1061.5,-123.5 944.5,-123.5"/>
<text text-anchor="middle" x="1003" y="-130.5" font-family="Helvetica,sans-Serif" font-size="10.00">tvm/runtime/object.h</text>
</a>
</g>
</g>
<!-- Node4&#45;&gt;Node5 -->
<g id="edge4" class="edge"><title>Node4&#45;&gt;Node5</title>
<path fill="none" stroke="midnightblue" d="M1505.03,-713.828C1445.02,-712.365 1327.27,-704.692 1235,-669 1068.99,-604.785 1007.41,-589.165 903,-445 848.225,-369.366 853.471,-318.139 896,-235 909.475,-208.658 911.011,-199.855 932,-179 944.908,-166.175 962.085,-155.167 976.311,-147.25"/>
<polygon fill="midnightblue" stroke="midnightblue" points="978,-150.316 985.158,-142.505 974.692,-144.147 978,-150.316"/>
</g>
<!-- Node4&#45;&gt;Node11 -->
<g id="edge111" class="edge"><title>Node4&#45;&gt;Node11</title>
<path fill="none" stroke="midnightblue" d="M1505.42,-711.739C1438.63,-707.267 1297.44,-695.35 1181,-669 1153.58,-662.796 1148.1,-656.462 1121,-649 936.764,-598.27 883.38,-614.042 701,-557 470.101,-484.783 392.988,-480.255 210,-322 159.502,-278.328 147.622,-243.723 164,-179 170.876,-151.828 174.482,-144.04 193,-123 206.237,-107.959 224.858,-95.1705 239.98,-86.2257"/>
<polygon fill="midnightblue" stroke="midnightblue" points="241.906,-89.1569 248.864,-81.1672 238.442,-83.0739 241.906,-89.1569"/>
</g>
<!-- Node4&#45;&gt;Node12 -->
<g id="edge108" class="edge"><title>Node4&#45;&gt;Node12</title>
<path fill="none" stroke="midnightblue" d="M1582.58,-706.962C1629.03,-698.402 1709.36,-683.316 1778,-669 2000.08,-622.684 2055.15,-608.9 2276,-557 2310.52,-548.887 2551.44,-488.96 2586,-481 2659.99,-463.959 2688.92,-485.732 2753,-445 2837.05,-391.574 2856,-345.589 2856,-246 2856,-246 2856,-246 2856,-188 2856,-134.575 2794.07,-100.279 2754.72,-83.8839"/>
<polygon fill="midnightblue" stroke="midnightblue" points="2755.85,-80.5629 2745.26,-80.1005 2753.25,-87.0627 2755.85,-80.5629"/>
</g>
<!-- Node15 -->
<g id="node15" class="node"><title>Node15</title>
<g id="a_node15"><a xlink:href="node_8h.html" target="_top" xlink:title="Definitions and helper macros for IR/AST nodes. ">
<polygon fill="white" stroke="black" points="1177,-537.5 1177,-556.5 1275,-556.5 1275,-537.5 1177,-537.5"/>
<text text-anchor="middle" x="1226" y="-544.5" font-family="Helvetica,sans-Serif" font-size="10.00">tvm/node/node.h</text>
</a>
</g>
</g>
<!-- Node4&#45;&gt;Node15 -->
<g id="edge14" class="edge"><title>Node4&#45;&gt;Node15</title>
<path fill="none" stroke="midnightblue" d="M1505.48,-712.603C1435.95,-709.352 1293.18,-699.108 1255,-669 1224.28,-644.771 1222.51,-594.256 1224.11,-566.78"/>
<polygon fill="midnightblue" stroke="midnightblue" points="1227.62,-566.805 1224.92,-556.559 1220.64,-566.249 1227.62,-566.805"/>
</g>
<!-- Node27 -->
<g id="node27" class="node"><title>Node27</title>
<polygon fill="white" stroke="#bfbfbf" points="2172,-235.5 2172,-254.5 2214,-254.5 2214,-235.5 2172,-235.5"/>
<text text-anchor="middle" x="2193" y="-242.5" font-family="Helvetica,sans-Serif" font-size="10.00">limits</text>
</g>
<!-- Node4&#45;&gt;Node27 -->
<g id="edge110" class="edge"><title>Node4&#45;&gt;Node27</title>
<path fill="none" stroke="midnightblue" d="M1582.82,-706.864C1677.22,-687.897 1922.7,-628.716 2082,-501 2159.26,-439.059 2183.97,-312.702 2190.74,-264.894"/>
<polygon fill="midnightblue" stroke="midnightblue" points="2194.24,-265.121 2192.07,-254.751 2187.3,-264.212 2194.24,-265.121"/>
</g>
<!-- Node30 -->
<g id="node30" class="node"><title>Node30</title>
<g id="a_node30"><a xlink:href="node_2container_8h.html" target="_top" xlink:title="Array/Map container in the DSL graph. ">
<polygon fill="white" stroke="black" points="1178.5,-358.5 1178.5,-377.5 1297.5,-377.5 1297.5,-358.5 1178.5,-358.5"/>
<text text-anchor="middle" x="1238" y="-365.5" font-family="Helvetica,sans-Serif" font-size="10.00">tvm/node/container.h</text>
</a>
</g>
</g>
<!-- Node4&#45;&gt;Node30 -->
<g id="edge96" class="edge"><title>Node4&#45;&gt;Node30</title>
<path fill="none" stroke="midnightblue" d="M1505.33,-711.956C1441.73,-706.283 1322,-684.865 1322,-604 1322,-604 1322,-604 1322,-546 1322,-481.575 1276.02,-415.591 1252.1,-385.622"/>
<polygon fill="midnightblue" stroke="midnightblue" points="1254.5,-383.035 1245.45,-377.519 1249.09,-387.472 1254.5,-383.035"/>
</g>
<!-- Node35 -->
<g id="node35" class="node"><title>Node35</title>
<g id="a_node35"><a xlink:href="span_8h.html" target="_top" xlink:title="Span information for debugging purposes. ">
<polygon fill="white" stroke="black" points="1604,-593.5 1604,-612.5 1684,-612.5 1684,-593.5 1604,-593.5"/>
<text text-anchor="middle" x="1644" y="-600.5" font-family="Helvetica,sans-Serif" font-size="10.00">tvm/ir/span.h</text>
</a>
</g>
</g>
<!-- Node4&#45;&gt;Node35 -->
<g id="edge97" class="edge"><title>Node4&#45;&gt;Node35</title>
<path fill="none" stroke="midnightblue" d="M1552.11,-705.426C1560.61,-696.411 1574.33,-681.788 1586,-669 1600.89,-652.688 1617.66,-633.838 1629.33,-620.651"/>
<polygon fill="midnightblue" stroke="midnightblue" points="1632.19,-622.7 1636.18,-612.888 1626.94,-618.066 1632.19,-622.7"/>
</g>
<!-- Node36 -->
<g id="node36" class="node"><title>Node36</title>
<g id="a_node36"><a xlink:href="ir_2type_8h.html" target="_top" xlink:title="IR/AST nodes for the unified type system in TVM. ">
<polygon fill="white" stroke="black" points="1500.5,-649.5 1500.5,-668.5 1577.5,-668.5 1577.5,-649.5 1500.5,-649.5"/>
<text text-anchor="middle" x="1539" y="-656.5" font-family="Helvetica,sans-Serif" font-size="10.00">tvm/ir/type.h</text>
</a>
</g>
</g>
<!-- Node4&#45;&gt;Node36 -->
<g id="edge101" class="edge"><title>Node4&#45;&gt;Node36</title>
<path fill="none" stroke="midnightblue" d="M1543.17,-705.083C1542.52,-698.006 1541.58,-687.861 1540.76,-678.986"/>
<polygon fill="midnightblue" stroke="midnightblue" points="1544.22,-678.386 1539.81,-668.751 1537.25,-679.031 1544.22,-678.386"/>
</g>
<!-- Node37 -->
<g id="node37" class="node"><title>Node37</title>
<polygon fill="white" stroke="#bfbfbf" points="1050,-649.5 1050,-668.5 1112,-668.5 1112,-649.5 1050,-649.5"/>
<text text-anchor="middle" x="1081" y="-656.5" font-family="Helvetica,sans-Serif" font-size="10.00">algorithm</text>
</g>
<!-- Node4&#45;&gt;Node37 -->
<g id="edge109" class="edge"><title>Node4&#45;&gt;Node37</title>
<path fill="none" stroke="midnightblue" d="M1505.24,-711.002C1431.25,-705.021 1264.88,-690.319 1126,-669 1124.9,-668.831 1123.78,-668.653 1122.66,-668.468"/>
<polygon fill="midnightblue" stroke="midnightblue" points="1122.86,-664.951 1112.41,-666.657 1121.65,-671.844 1122.86,-664.951"/>
</g>
<!-- Node6 -->
<g id="node6" class="node"><title>Node6</title>
<polygon fill="white" stroke="#bfbfbf" points="902,-62 902,-81 988,-81 988,-62 902,-62"/>
<text text-anchor="middle" x="945" y="-69" font-family="Helvetica,sans-Serif" font-size="10.00">dmlc/logging.h</text>
</g>
<!-- Node5&#45;&gt;Node6 -->
<g id="edge5" class="edge"><title>Node5&#45;&gt;Node6</title>
<path fill="none" stroke="midnightblue" d="M994.69,-123.475C985.818,-114.373 971.554,-99.741 960.58,-88.483"/>
<polygon fill="midnightblue" stroke="midnightblue" points="962.781,-85.7268 953.295,-81.0091 957.769,-90.613 962.781,-85.7268"/>
</g>
<!-- Node7 -->
<g id="node7" class="node"><title>Node7</title>
<g id="a_node7"><a xlink:href="c__runtime__api_8h.html" target="_top" xlink:title="tvm/runtime/c_runtime\l_api.h">
<polygon fill="white" stroke="black" points="698.5,-56.5 698.5,-86.5 825.5,-86.5 825.5,-56.5 698.5,-56.5"/>
<text text-anchor="start" x="706.5" y="-74.5" font-family="Helvetica,sans-Serif" font-size="10.00">tvm/runtime/c_runtime</text>
<text text-anchor="middle" x="762" y="-63.5" font-family="Helvetica,sans-Serif" font-size="10.00">_api.h</text>
</a>
</g>
</g>
<!-- Node5&#45;&gt;Node7 -->
<g id="edge6" class="edge"><title>Node5&#45;&gt;Node7</title>
<path fill="none" stroke="midnightblue" d="M968.471,-123.475C932.094,-114.494 873.906,-100.128 828.56,-88.9328"/>
<polygon fill="midnightblue" stroke="midnightblue" points="829.346,-85.522 818.799,-86.523 827.668,-92.3179 829.346,-85.522"/>
</g>
<!-- Node5&#45;&gt;Node11 -->
<g id="edge10" class="edge"><title>Node5&#45;&gt;Node11</title>
<path fill="none" stroke="midnightblue" d="M944.244,-127.256C801.117,-115.701 436.891,-86.2965 310.223,-76.0703"/>
<polygon fill="midnightblue" stroke="midnightblue" points="310.363,-72.5703 300.114,-75.2541 309.8,-79.5476 310.363,-72.5703"/>
</g>
<!-- Node5&#45;&gt;Node12 -->
<g id="edge11" class="edge"><title>Node5&#45;&gt;Node12</title>
<path fill="none" stroke="midnightblue" d="M1061.71,-129.969C1335.59,-120.495 2483.13,-80.7978 2690.73,-73.6163"/>
<polygon fill="midnightblue" stroke="midnightblue" points="2691.09,-77.1061 2700.96,-73.2624 2690.85,-70.1103 2691.09,-77.1061"/>
</g>
<!-- Node5&#45;&gt;Node13 -->
<g id="edge12" class="edge"><title>Node5&#45;&gt;Node13</title>
<path fill="none" stroke="midnightblue" d="M1061.66,-126.241C1187.92,-113.844 1481.78,-84.9906 1577.94,-75.5497"/>
<polygon fill="midnightblue" stroke="midnightblue" points="1578.29,-79.0322 1587.9,-74.5717 1577.61,-72.0657 1578.29,-79.0322"/>
</g>
<!-- Node14 -->
<g id="node14" class="node"><title>Node14</title>
<polygon fill="white" stroke="#bfbfbf" points="1214,-62 1214,-81 1264,-81 1264,-62 1214,-62"/>
<text text-anchor="middle" x="1239" y="-69" font-family="Helvetica,sans-Serif" font-size="10.00">atomic</text>
</g>
<!-- Node5&#45;&gt;Node14 -->
<g id="edge13" class="edge"><title>Node5&#45;&gt;Node14</title>
<path fill="none" stroke="midnightblue" d="M1036.81,-123.475C1081.27,-112.266 1159,-92.6691 1204.03,-81.3167"/>
<polygon fill="midnightblue" stroke="midnightblue" points="1205.08,-84.6603 1213.93,-78.8218 1203.37,-77.8727 1205.08,-84.6603"/>
</g>
<!-- Node8 -->
<g id="node8" class="node"><title>Node8</title>
<polygon fill="white" stroke="#bfbfbf" points="627,-0.5 627,-19.5 717,-19.5 717,-0.5 627,-0.5"/>
<text text-anchor="middle" x="672" y="-7.5" font-family="Helvetica,sans-Serif" font-size="10.00">dlpack/dlpack.h</text>
</g>
<!-- Node7&#45;&gt;Node8 -->
<g id="edge7" class="edge"><title>Node7&#45;&gt;Node8</title>
<path fill="none" stroke="midnightblue" d="M740.671,-56.3993C726.515,-47.0402 707.989,-34.7924 693.747,-25.3771"/>
<polygon fill="midnightblue" stroke="midnightblue" points="695.368,-22.2531 685.096,-19.6578 691.507,-28.0923 695.368,-22.2531"/>
</g>
<!-- Node9 -->
<g id="node9" class="node"><title>Node9</title>
<polygon fill="white" stroke="#bfbfbf" points="735.5,-0.5 735.5,-19.5 788.5,-19.5 788.5,-0.5 735.5,-0.5"/>
<text text-anchor="middle" x="762" y="-7.5" font-family="Helvetica,sans-Serif" font-size="10.00">stdint.h</text>
</g>
<!-- Node7&#45;&gt;Node9 -->
<g id="edge8" class="edge"><title>Node7&#45;&gt;Node9</title>
<path fill="none" stroke="midnightblue" d="M762,-56.3993C762,-48.4664 762,-38.458 762,-29.8583"/>
<polygon fill="midnightblue" stroke="midnightblue" points="765.5,-29.6577 762,-19.6578 758.5,-29.6578 765.5,-29.6577"/>
</g>
<!-- Node10 -->
<g id="node10" class="node"><title>Node10</title>
<polygon fill="white" stroke="#bfbfbf" points="806.5,-0.5 806.5,-19.5 861.5,-19.5 861.5,-0.5 806.5,-0.5"/>
<text text-anchor="middle" x="834" y="-7.5" font-family="Helvetica,sans-Serif" font-size="10.00">stddef.h</text>
</g>
<!-- Node7&#45;&gt;Node10 -->
<g id="edge9" class="edge"><title>Node7&#45;&gt;Node10</title>
<path fill="none" stroke="midnightblue" d="M779.063,-56.3993C790.065,-47.3076 804.365,-35.4899 815.618,-26.1909"/>
<polygon fill="midnightblue" stroke="midnightblue" points="818.044,-28.726 823.523,-19.6578 813.585,-23.33 818.044,-28.726"/>
</g>
<!-- Node15&#45;&gt;Node5 -->
<g id="edge16" class="edge"><title>Node15&#45;&gt;Node5</title>
<path fill="none" stroke="midnightblue" d="M1197.76,-537.46C1176.19,-530.049 1146.44,-517.851 1124,-501 1098.02,-481.491 1094.83,-472.162 1077,-445 1010.97,-344.422 982.634,-317.865 964,-199 962.623,-190.218 960.893,-187.328 964,-179 968.173,-167.812 976.52,-157.56 984.424,-149.676"/>
<polygon fill="midnightblue" stroke="midnightblue" points="987.062,-152.003 992.01,-142.635 982.299,-146.872 987.062,-152.003"/>
</g>
<!-- Node15&#45;&gt;Node7 -->
<g id="edge15" class="edge"><title>Node15&#45;&gt;Node7</title>
<path fill="none" stroke="midnightblue" d="M1176.93,-542C1093.28,-533.625 919.403,-509.363 788,-445 768.426,-435.412 768.999,-424.682 750,-414 643.154,-353.926 604.684,-365.274 490,-322 415.177,-293.766 367.801,-321.246 323,-255 231.957,-120.377 540.664,-84.8792 688.054,-75.664"/>
<polygon fill="midnightblue" stroke="midnightblue" points="688.607,-79.1373 698.379,-75.045 688.188,-72.1498 688.607,-79.1373"/>
</g>
<!-- Node15&#45;&gt;Node11 -->
<g id="edge95" class="edge"><title>Node15&#45;&gt;Node11</title>
<path fill="none" stroke="midnightblue" d="M1176.87,-544.128C1108.18,-540.521 980.077,-530.166 875,-501 782.381,-475.292 767.392,-446.686 677,-414 537.836,-363.678 497.599,-368.162 357,-322 275.501,-295.242 225.009,-325.4 176,-255 136.219,-197.855 211.039,-120.526 247.578,-87.9647"/>
<polygon fill="midnightblue" stroke="midnightblue" points="249.904,-90.5805 255.146,-81.3731 245.306,-85.3022 249.904,-90.5805"/>
</g>
<!-- Node15&#45;&gt;Node12 -->
<g id="edge92" class="edge"><title>Node15&#45;&gt;Node12</title>
<path fill="none" stroke="midnightblue" d="M1275.11,-546.749C1376.39,-547.306 1615.28,-543.512 1810,-501 1880.34,-485.644 1896.56,-475.015 1962,-445 2120.05,-372.507 2152.28,-339.939 2304,-255 2408.19,-196.672 2427.56,-168.402 2538,-123 2589.79,-101.709 2653.38,-86.5966 2690.91,-78.734"/>
<polygon fill="midnightblue" stroke="midnightblue" points="2691.68,-82.1487 2700.78,-76.7095 2690.28,-75.2917 2691.68,-82.1487"/>
</g>
<!-- Node15&#45;&gt;Node13 -->
<g id="edge94" class="edge"><title>Node15&#45;&gt;Node13</title>
<path fill="none" stroke="midnightblue" d="M1275.01,-546.339C1362.41,-545.924 1540.32,-540.137 1586,-501 1656.94,-440.218 1662.9,-355.165 1595,-291 1552.05,-250.41 1502.68,-302.106 1467,-255 1461.63,-247.915 1463.88,-243.322 1467,-235 1480.04,-200.254 1557.94,-121.964 1592.5,-88.3369"/>
<polygon fill="midnightblue" stroke="midnightblue" points="1595.17,-90.6252 1599.93,-81.156 1590.31,-85.5948 1595.17,-90.6252"/>
</g>
<!-- Node16 -->
<g id="node16" class="node"><title>Node16</title>
<g id="a_node16"><a xlink:href="runtime_2memory_8h.html" target="_top" xlink:title="Runtime memory management. ">
<polygon fill="white" stroke="red" points="978.5,-179.5 978.5,-198.5 1105.5,-198.5 1105.5,-179.5 978.5,-179.5"/>
<text text-anchor="middle" x="1042" y="-186.5" font-family="Helvetica,sans-Serif" font-size="10.00">tvm/runtime/memory.h</text>
</a>
</g>
</g>
<!-- Node15&#45;&gt;Node16 -->
<g id="edge17" class="edge"><title>Node15&#45;&gt;Node16</title>
<path fill="none" stroke="midnightblue" d="M1208.74,-537.469C1180.7,-522.683 1125.53,-489.554 1097,-445 1047.68,-367.976 1041.95,-253.783 1041.72,-208.999"/>
<polygon fill="midnightblue" stroke="midnightblue" points="1045.23,-208.747 1041.77,-198.732 1038.23,-208.716 1045.23,-208.747"/>
</g>
<!-- Node17 -->
<g id="node17" class="node"><title>Node17</title>
<g id="a_node17"><a xlink:href="reflection_8h.html" target="_top" xlink:title="Reflection and serialization of compiler IR/AST nodes. ">
<polygon fill="white" stroke="black" points="1458.5,-481.5 1458.5,-500.5 1577.5,-500.5 1577.5,-481.5 1458.5,-481.5"/>
<text text-anchor="middle" x="1518" y="-488.5" font-family="Helvetica,sans-Serif" font-size="10.00">tvm/node/reflection.h</text>
</a>
</g>
</g>
<!-- Node15&#45;&gt;Node17 -->
<g id="edge21" class="edge"><title>Node15&#45;&gt;Node17</title>
<path fill="none" stroke="midnightblue" d="M1272.27,-537.444C1323.74,-527.925 1406.89,-512.547 1462,-502.356"/>
<polygon fill="midnightblue" stroke="midnightblue" points="1462.75,-505.777 1471.95,-500.516 1461.48,-498.893 1462.75,-505.777"/>
</g>
<!-- Node15&#45;&gt;Node21 -->
<g id="edge93" class="edge"><title>Node15&#45;&gt;Node21</title>
<path fill="none" stroke="midnightblue" d="M1275.14,-544.486C1416.82,-539.277 1822.78,-518.165 1930,-445 2018.44,-384.645 2066.2,-256.354 2081.49,-208.504"/>
<polygon fill="midnightblue" stroke="midnightblue" points="2084.86,-209.444 2084.47,-198.857 2078.17,-207.375 2084.86,-209.444"/>
</g>
<!-- Node28 -->
<g id="node28" class="node"><title>Node28</title>
<g id="a_node28"><a xlink:href="structural__equal_8h.html" target="_top" xlink:title="Structural equality comparison. ">
<polygon fill="white" stroke="black" points="1106.5,-414.5 1106.5,-444.5 1217.5,-444.5 1217.5,-414.5 1106.5,-414.5"/>
<text text-anchor="start" x="1114.5" y="-432.5" font-family="Helvetica,sans-Serif" font-size="10.00">tvm/node/structural</text>
<text text-anchor="middle" x="1162" y="-421.5" font-family="Helvetica,sans-Serif" font-size="10.00">_equal.h</text>
</a>
</g>
</g>
<!-- Node15&#45;&gt;Node28 -->
<g id="edge90" class="edge"><title>Node15&#45;&gt;Node28</title>
<path fill="none" stroke="midnightblue" d="M1221.19,-537.319C1211.45,-519.734 1189.09,-479.394 1174.82,-453.629"/>
<polygon fill="midnightblue" stroke="midnightblue" points="1177.69,-451.596 1169.78,-444.545 1171.57,-454.989 1177.69,-451.596"/>
</g>
<!-- Node15&#45;&gt;Node30 -->
<g id="edge89" class="edge"><title>Node15&#45;&gt;Node30</title>
<path fill="none" stroke="midnightblue" d="M1226.58,-537.463C1228.41,-510.428 1234.12,-426.239 1236.7,-388.109"/>
<polygon fill="midnightblue" stroke="midnightblue" points="1240.21,-388.082 1237.4,-377.868 1233.23,-387.609 1240.21,-388.082"/>
</g>
<!-- Node32 -->
<g id="node32" class="node"><title>Node32</title>
<g id="a_node32"><a xlink:href="structural__hash_8h.html" target="_top" xlink:title="tvm/node/structural\l_hash.h">
<polygon fill="white" stroke="black" points="1388.5,-414.5 1388.5,-444.5 1499.5,-444.5 1499.5,-414.5 1388.5,-414.5"/>
<text text-anchor="start" x="1396.5" y="-432.5" font-family="Helvetica,sans-Serif" font-size="10.00">tvm/node/structural</text>
<text text-anchor="middle" x="1444" y="-421.5" font-family="Helvetica,sans-Serif" font-size="10.00">_hash.h</text>
</a>
</g>
</g>
<!-- Node15&#45;&gt;Node32 -->
<g id="edge91" class="edge"><title>Node15&#45;&gt;Node32</title>
<path fill="none" stroke="midnightblue" d="M1242.39,-537.319C1277.48,-518.727 1360.58,-474.699 1408.42,-449.353"/>
<polygon fill="midnightblue" stroke="midnightblue" points="1410.29,-452.32 1417.49,-444.545 1407.02,-446.134 1410.29,-452.32"/>
</g>
<!-- Node33 -->
<g id="node33" class="node"><title>Node33</title>
<g id="a_node33"><a xlink:href="repr__printer_8h.html" target="_top" xlink:title="Printer class to print repr string of each AST/IR nodes. ">
<polygon fill="white" stroke="black" points="636,-481.5 636,-500.5 766,-500.5 766,-481.5 636,-481.5"/>
<text text-anchor="middle" x="701" y="-488.5" font-family="Helvetica,sans-Serif" font-size="10.00">tvm/node/repr_printer.h</text>
</a>
</g>
</g>
<!-- Node15&#45;&gt;Node33 -->
<g id="edge86" class="edge"><title>Node15&#45;&gt;Node33</title>
<path fill="none" stroke="midnightblue" d="M1176.81,-541.246C1094.61,-533.254 924.118,-516.479 780,-501 778.726,-500.863 777.441,-500.724 776.147,-500.584"/>
<polygon fill="midnightblue" stroke="midnightblue" points="776.411,-497.092 766.09,-499.482 775.649,-504.051 776.411,-497.092"/>
</g>
<!-- Node16&#45;&gt;Node5 -->
<g id="edge18" class="edge"><title>Node16&#45;&gt;Node5</title>
<path fill="none" stroke="midnightblue" d="M1035.56,-179.083C1030.05,-171.455 1021.97,-160.264 1015.24,-150.941"/>
<polygon fill="midnightblue" stroke="midnightblue" points="1018.01,-148.809 1009.32,-142.751 1012.34,-152.907 1018.01,-148.809"/>
</g>
<!-- Node16&#45;&gt;Node11 -->
<g id="edge20" class="edge"><title>Node16&#45;&gt;Node11</title>
<path fill="none" stroke="midnightblue" d="M988.33,-179.472C908.503,-166.838 753.741,-142.537 622,-123 510.049,-106.397 378.113,-87.9824 310.648,-78.6492"/>
<polygon fill="midnightblue" stroke="midnightblue" points="310.772,-75.1331 300.387,-77.2309 309.814,-82.0672 310.772,-75.1331"/>
</g>
<!-- Node16&#45;&gt;Node13 -->
<g id="edge19" class="edge"><title>Node16&#45;&gt;Node13</title>
<path fill="none" stroke="midnightblue" d="M1084.15,-179.413C1193.12,-157.216 1482.29,-98.3114 1577.86,-78.8443"/>
<polygon fill="midnightblue" stroke="midnightblue" points="1578.67,-82.251 1587.77,-76.8253 1577.27,-75.3918 1578.67,-82.251"/>
</g>
<!-- Node17&#45;&gt;Node5 -->
<g id="edge23" class="edge"><title>Node17&#45;&gt;Node5</title>
<path fill="none" stroke="midnightblue" d="M1521.73,-481.278C1527.35,-466.84 1536.47,-437.26 1528,-414 1516.89,-383.467 1506.99,-377.505 1481,-358 1421.95,-313.682 1399.49,-312.937 1329,-291 1247.35,-265.592 1204.59,-311.042 1140,-255 1113.04,-231.603 1138.53,-204.935 1114,-179 1098.71,-162.837 1076.81,-152.325 1056.5,-145.562"/>
<polygon fill="midnightblue" stroke="midnightblue" points="1057.28,-142.14 1046.69,-142.535 1055.22,-148.828 1057.28,-142.14"/>
</g>
<!-- Node17&#45;&gt;Node7 -->
<g id="edge22" class="edge"><title>Node17&#45;&gt;Node7</title>
<path fill="none" stroke="midnightblue" d="M1458.2,-490.022C1375.45,-488.619 1222.08,-480.819 1097,-445 1003.94,-418.349 756.399,-337.032 705,-255 672.367,-202.919 716.756,-130.707 743.823,-94.7277"/>
<polygon fill="midnightblue" stroke="midnightblue" points="746.603,-96.8544 749.951,-86.8023 741.065,-92.573 746.603,-96.8544"/>
</g>
<!-- Node17&#45;&gt;Node11 -->
<g id="edge85" class="edge"><title>Node17&#45;&gt;Node11</title>
<path fill="none" stroke="midnightblue" d="M1458.21,-490.179C1346.03,-489.531 1096.71,-483.418 891,-445 885.273,-443.93 495.493,-323.94 490,-322 414.594,-295.362 378.677,-312.408 323,-255 278.167,-208.773 268.55,-127.8 266.522,-91.2922"/>
<polygon fill="midnightblue" stroke="midnightblue" points="270.01,-90.9465 266.095,-81.1018 263.016,-91.2396 270.01,-90.9465"/>
</g>
<!-- Node17&#45;&gt;Node12 -->
<g id="edge84" class="edge"><title>Node17&#45;&gt;Node12</title>
<path fill="none" stroke="midnightblue" d="M1576.61,-481.487C1619.76,-474.281 1679.46,-462.331 1730,-445 1932.32,-375.619 1964.87,-315.566 2163,-235 2309.21,-175.547 2347.96,-165.37 2500,-123 2567.3,-104.246 2647.45,-87.4111 2690.99,-78.7197"/>
<polygon fill="midnightblue" stroke="midnightblue" points="2691.85,-82.1165 2700.98,-76.7393 2690.49,-75.25 2691.85,-82.1165"/>
</g>
<!-- Node17&#45;&gt;Node16 -->
<g id="edge24" class="edge"><title>Node17&#45;&gt;Node16</title>
<path fill="none" stroke="midnightblue" d="M1519.34,-481.068C1521.13,-465.794 1522.57,-434.342 1508,-414 1436.14,-313.642 1375.28,-332.409 1259,-291 1191.56,-266.984 1163.93,-290.905 1102,-255 1081.54,-243.136 1063.98,-222.017 1053.23,-207.075"/>
<polygon fill="midnightblue" stroke="midnightblue" points="1056.02,-204.952 1047.46,-198.708 1050.26,-208.927 1056.02,-204.952"/>
</g>
<!-- Node17&#45;&gt;Node18 -->
<g id="edge25" class="edge"><title>Node17&#45;&gt;Node18</title>
<path fill="none" stroke="midnightblue" d="M1577.55,-481.837C1604.19,-475.566 1634.39,-464.501 1656,-445 1689.64,-414.635 1705.71,-362.252 1712.56,-331.657"/>
<polygon fill="midnightblue" stroke="midnightblue" points="1716,-332.32 1714.62,-321.815 1709.15,-330.889 1716,-332.32"/>
</g>
<!-- Node17&#45;&gt;Node21 -->
<g id="edge83" class="edge"><title>Node17&#45;&gt;Node21</title>
<path fill="none" stroke="midnightblue" d="M1557.45,-481.434C1591.1,-473.595 1640.48,-460.824 1682,-445 1710.74,-434.046 1904.15,-338.669 1930,-322 1969.55,-296.495 1975.99,-285.304 2012,-255 2032.02,-238.15 2054.68,-218.416 2069.81,-205.15"/>
<polygon fill="midnightblue" stroke="midnightblue" points="2072.17,-207.735 2077.37,-198.505 2067.55,-202.477 2072.17,-207.735"/>
</g>
<!-- Node23 -->
<g id="node23" class="node"><title>Node23</title>
<g id="a_node23"><a xlink:href="ndarray_8h.html" target="_top" xlink:title="A device&#45;independent managed NDArray abstraction. ">
<polygon fill="white" stroke="red" points="1296.5,-235.5 1296.5,-254.5 1419.5,-254.5 1419.5,-235.5 1296.5,-235.5"/>
<text text-anchor="middle" x="1358" y="-242.5" font-family="Helvetica,sans-Serif" font-size="10.00">tvm/runtime/ndarray.h</text>
</a>
</g>
</g>
<!-- Node17&#45;&gt;Node23 -->
<g id="edge56" class="edge"><title>Node17&#45;&gt;Node23</title>
<path fill="none" stroke="midnightblue" d="M1538.22,-481.495C1552.77,-474.168 1571.3,-462.063 1580,-445 1597.96,-409.765 1627.06,-355.879 1570,-291 1560.28,-279.95 1483.26,-265.599 1424.83,-256.109"/>
<polygon fill="midnightblue" stroke="midnightblue" points="1425.32,-252.643 1414.9,-254.513 1424.21,-259.555 1425.32,-252.643"/>
</g>
<!-- Node24 -->
<g id="node24" class="node"><title>Node24</title>
<g id="a_node24"><a xlink:href="data__type_8h.html" target="_top" xlink:title="tvm/runtime/data_type.h">
<polygon fill="white" stroke="black" points="332,-235.5 332,-254.5 468,-254.5 468,-235.5 332,-235.5"/>
<text text-anchor="middle" x="400" y="-242.5" font-family="Helvetica,sans-Serif" font-size="10.00">tvm/runtime/data_type.h</text>
</a>
</g>
</g>
<!-- Node17&#45;&gt;Node24 -->
<g id="edge57" class="edge"><title>Node17&#45;&gt;Node24</title>
<path fill="none" stroke="midnightblue" d="M1458.5,-486.865C1371.4,-481.652 1204.29,-469.285 1064,-445 841.057,-406.406 783.888,-395.792 570,-322 517.377,-303.845 458.635,-275.73 425.812,-259.267"/>
<polygon fill="midnightblue" stroke="midnightblue" points="426.997,-255.944 416.493,-254.555 423.839,-262.191 426.997,-255.944"/>
</g>
<!-- Node17&#45;&gt;Node28 -->
<g id="edge58" class="edge"><title>Node17&#45;&gt;Node28</title>
<path fill="none" stroke="midnightblue" d="M1466.99,-481.475C1403.96,-470.939 1296.58,-452.993 1227.5,-441.448"/>
<polygon fill="midnightblue" stroke="midnightblue" points="1228.04,-437.989 1217.6,-439.793 1226.89,-444.893 1228.04,-437.989"/>
</g>
<!-- Node17&#45;&gt;Node32 -->
<g id="edge77" class="edge"><title>Node17&#45;&gt;Node32</title>
<path fill="none" stroke="midnightblue" d="M1507.4,-481.475C1497.56,-473.567 1482.54,-461.485 1469.58,-451.067"/>
<polygon fill="midnightblue" stroke="midnightblue" points="1471.43,-448.062 1461.44,-444.523 1467.04,-453.517 1471.43,-448.062"/>
</g>
<!-- Node18&#45;&gt;Node5 -->
<g id="edge47" class="edge"><title>Node18&#45;&gt;Node5</title>
<path fill="none" stroke="midnightblue" d="M1660.15,-299.834C1538.45,-287.633 1262.96,-259.603 1254,-255 1213.69,-234.281 1224.85,-202.342 1186,-179 1151.39,-158.208 1107.63,-147.005 1071.58,-140.978"/>
<polygon fill="midnightblue" stroke="midnightblue" points="1072.05,-137.509 1061.63,-139.411 1070.96,-144.424 1072.05,-137.509"/>
</g>
<!-- Node18&#45;&gt;Node6 -->
<g id="edge26" class="edge"><title>Node18&#45;&gt;Node6</title>
<path fill="none" stroke="midnightblue" d="M1697.79,-291.323C1676.71,-276.166 1641.54,-252.019 1609,-235 1491.69,-173.645 1461.02,-156.708 1333,-123 1215.99,-92.1911 1073.97,-79.807 998.389,-75.1234"/>
<polygon fill="midnightblue" stroke="midnightblue" points="998.366,-71.6159 988.175,-74.5126 997.948,-78.6034 998.366,-71.6159"/>
</g>
<!-- Node18&#45;&gt;Node7 -->
<g id="edge27" class="edge"><title>Node18&#45;&gt;Node7</title>
<path fill="none" stroke="midnightblue" d="M1660.37,-299.845C1547.45,-288.431 1303.59,-263.04 1287,-255 1244.01,-234.173 1250.91,-205.248 1211,-179 1154.66,-141.95 1134.98,-141.004 1070,-123 991.474,-101.243 898.925,-87.6215 835.924,-80.0849"/>
<polygon fill="midnightblue" stroke="midnightblue" points="836.024,-76.5728 825.684,-78.8825 835.208,-83.525 836.024,-76.5728"/>
</g>
<!-- Node18&#45;&gt;Node11 -->
<g id="edge55" class="edge"><title>Node18&#45;&gt;Node11</title>
<path fill="none" stroke="midnightblue" d="M1660.48,-303.981C1461.1,-298.442 797.569,-278.427 705,-255 629.069,-235.784 617.998,-209.838 546,-179 458.643,-141.584 353.342,-103.323 300.217,-84.4852"/>
<polygon fill="midnightblue" stroke="midnightblue" points="301.21,-81.1238 290.615,-81.0904 298.876,-87.7235 301.21,-81.1238"/>
</g>
<!-- Node18&#45;&gt;Node12 -->
<g id="edge51" class="edge"><title>Node18&#45;&gt;Node12</title>
<path fill="none" stroke="midnightblue" d="M1747.97,-291.396C1764.42,-282.717 1784.06,-270.318 1798,-255 1842.15,-206.496 1809.24,-159.107 1864,-123 1934.04,-76.8189 2542.53,-72.8002 2690.62,-72.5087"/>
<polygon fill="midnightblue" stroke="midnightblue" points="2690.86,-76.0084 2700.85,-72.4932 2690.85,-69.0085 2690.86,-76.0084"/>
</g>
<!-- Node18&#45;&gt;Node13 -->
<g id="edge54" class="edge"><title>Node18&#45;&gt;Node13</title>
<path fill="none" stroke="midnightblue" d="M1710.41,-291.276C1691.67,-250.845 1638.11,-135.3 1617.36,-90.5289"/>
<polygon fill="midnightblue" stroke="midnightblue" points="1620.41,-88.8018 1613.03,-81.201 1614.06,-91.7456 1620.41,-88.8018"/>
</g>
<!-- Node19 -->
<g id="node19" class="node"><title>Node19</title>
<g id="a_node19"><a xlink:href="runtime_2module_8h.html" target="_top" xlink:title="Runtime container of the functions generated by TVM, This is used to support dynamically link...">
<polygon fill="white" stroke="red" points="1476,-235.5 1476,-254.5 1600,-254.5 1600,-235.5 1476,-235.5"/>
<text text-anchor="middle" x="1538" y="-242.5" font-family="Helvetica,sans-Serif" font-size="10.00">tvm/runtime/module.h</text>
</a>
</g>
</g>
<!-- Node18&#45;&gt;Node19 -->
<g id="edge28" class="edge"><title>Node18&#45;&gt;Node19</title>
<path fill="none" stroke="midnightblue" d="M1668.74,-291.399C1636.87,-281.238 1596.15,-267.672 1568.62,-258.022"/>
<polygon fill="midnightblue" stroke="midnightblue" points="1569.71,-254.695 1559.12,-254.658 1567.38,-261.294 1569.71,-254.695"/>
</g>
<!-- Node20 -->
<g id="node20" class="node"><title>Node20</title>
<polygon fill="white" stroke="#bfbfbf" points="1705.5,-179.5 1705.5,-198.5 1762.5,-198.5 1762.5,-179.5 1705.5,-179.5"/>
<text text-anchor="middle" x="1734" y="-186.5" font-family="Helvetica,sans-Serif" font-size="10.00">memory</text>
</g>
<!-- Node18&#45;&gt;Node20 -->
<g id="edge53" class="edge"><title>Node18&#45;&gt;Node20</title>
<path fill="none" stroke="midnightblue" d="M1745.48,-291.347C1759.21,-282.862 1774.34,-270.659 1782,-255 1791.24,-236.116 1773.21,-217.064 1756.67,-204.514"/>
<polygon fill="midnightblue" stroke="midnightblue" points="1758.49,-201.514 1748.31,-198.579 1754.44,-207.222 1758.49,-201.514"/>
</g>
<!-- Node18&#45;&gt;Node21 -->
<g id="edge50" class="edge"><title>Node18&#45;&gt;Node21</title>
<path fill="none" stroke="midnightblue" d="M1713.51,-291.221C1710.55,-275.278 1708.77,-249.779 1723,-235 1745.73,-211.385 1967.39,-196.645 2053.26,-191.782"/>
<polygon fill="midnightblue" stroke="midnightblue" points="2053.48,-195.275 2063.27,-191.225 2053.09,-188.286 2053.48,-195.275"/>
</g>
<!-- Node18&#45;&gt;Node23 -->
<g id="edge37" class="edge"><title>Node18&#45;&gt;Node23</title>
<path fill="none" stroke="midnightblue" d="M1660.12,-296.072C1594.48,-285.194 1486.96,-267.373 1419.45,-256.185"/>
<polygon fill="midnightblue" stroke="midnightblue" points="1419.82,-252.699 1409.38,-254.516 1418.68,-259.604 1419.82,-252.699"/>
</g>
<!-- Node18&#45;&gt;Node24 -->
<g id="edge43" class="edge"><title>Node18&#45;&gt;Node24</title>
<path fill="none" stroke="midnightblue" d="M1660.41,-302.943C1451.09,-293.487 720.346,-260.473 478.439,-249.544"/>
<polygon fill="midnightblue" stroke="midnightblue" points="478.469,-246.042 468.321,-249.087 478.153,-253.034 478.469,-246.042"/>
</g>
<!-- Node18&#45;&gt;Node25 -->
<g id="edge48" class="edge"><title>Node18&#45;&gt;Node25</title>
<path fill="none" stroke="midnightblue" d="M1773.81,-302C1865.89,-295.851 2053.54,-281.348 2222.23,-254.937"/>
<polygon fill="midnightblue" stroke="midnightblue" points="2222.96,-258.365 2232.29,-253.345 2221.86,-251.452 2222.96,-258.365"/>
</g>
<!-- Node26 -->
<g id="node26" class="node"><title>Node26</title>
<polygon fill="white" stroke="#bfbfbf" points="1732.5,-235.5 1732.5,-254.5 1773.5,-254.5 1773.5,-235.5 1732.5,-235.5"/>
<text text-anchor="middle" x="1753" y="-242.5" font-family="Helvetica,sans-Serif" font-size="10.00">tuple</text>
</g>
<!-- Node18&#45;&gt;Node26 -->
<g id="edge49" class="edge"><title>Node18&#45;&gt;Node26</title>
<path fill="none" stroke="midnightblue" d="M1725.53,-291.399C1730.6,-283.021 1737.07,-272.327 1742.46,-263.423"/>
<polygon fill="midnightblue" stroke="midnightblue" points="1745.58,-265.025 1747.76,-254.658 1739.59,-261.402 1745.58,-265.025"/>
</g>
<!-- Node18&#45;&gt;Node27 -->
<g id="edge52" class="edge"><title>Node18&#45;&gt;Node27</title>
<path fill="none" stroke="midnightblue" d="M1773.94,-298.382C1875.05,-285.743 2082.7,-259.787 2161.62,-249.922"/>
<polygon fill="midnightblue" stroke="midnightblue" points="2162.39,-253.354 2171.88,-248.64 2161.52,-246.408 2162.39,-253.354"/>
</g>
<!-- Node19&#45;&gt;Node5 -->
<g id="edge30" class="edge"><title>Node19&#45;&gt;Node5</title>
<path fill="none" stroke="midnightblue" d="M1504.7,-235.439C1453.13,-222.335 1350.72,-196.94 1263,-179 1196.8,-165.461 1120.58,-152.585 1067.85,-144.103"/>
<polygon fill="midnightblue" stroke="midnightblue" points="1068.39,-140.644 1057.96,-142.519 1067.28,-147.556 1068.39,-140.644"/>
</g>
<!-- Node19&#45;&gt;Node7 -->
<g id="edge29" class="edge"><title>Node19&#45;&gt;Node7</title>
<path fill="none" stroke="midnightblue" d="M1524.98,-235.494C1489.21,-212.621 1385.75,-149.724 1290,-123 1119.35,-75.3718 1069.28,-104.746 893,-87 874.377,-85.1252 854.28,-82.968 835.553,-80.9004"/>
<polygon fill="midnightblue" stroke="midnightblue" points="835.93,-77.4209 825.605,-79.7965 835.158,-84.3782 835.93,-77.4209"/>
</g>
<!-- Node19&#45;&gt;Node12 -->
<g id="edge34" class="edge"><title>Node19&#45;&gt;Node12</title>
<path fill="none" stroke="midnightblue" d="M1550.83,-235.475C1586.54,-212.27 1690.88,-148.043 1788,-123 1964.05,-77.6049 2546.23,-72.984 2690.46,-72.5408"/>
<polygon fill="midnightblue" stroke="midnightblue" points="2690.83,-76.04 2700.82,-72.5141 2690.81,-69.04 2690.83,-76.04"/>
</g>
<!-- Node19&#45;&gt;Node16 -->
<g id="edge31" class="edge"><title>Node19&#45;&gt;Node16</title>
<path fill="none" stroke="midnightblue" d="M1475.93,-237.243C1384.42,-227.28 1213.61,-208.683 1115.8,-198.035"/>
<polygon fill="midnightblue" stroke="midnightblue" points="1116.02,-194.538 1105.7,-196.935 1115.26,-201.497 1116.02,-194.538"/>
</g>
<!-- Node19&#45;&gt;Node18 -->
<g id="edge36" class="edge"><title>Node19&#45;&gt;Node18</title>
<path fill="none" stroke="midnightblue" d="M1568.7,-254.571C1596.82,-263.291 1638.66,-277.054 1670.79,-288.076"/>
<polygon fill="midnightblue" stroke="midnightblue" points="1669.82,-291.446 1680.42,-291.399 1672.11,-284.829 1669.82,-291.446"/>
</g>
<!-- Node19&#45;&gt;Node20 -->
<g id="edge32" class="edge"><title>Node19&#45;&gt;Node20</title>
<path fill="none" stroke="midnightblue" d="M1569.06,-235.444C1603.29,-226.011 1658.41,-210.825 1695.4,-200.634"/>
<polygon fill="midnightblue" stroke="midnightblue" points="1696.61,-203.932 1705.32,-197.902 1694.75,-197.183 1696.61,-203.932"/>
</g>
<!-- Node19&#45;&gt;Node21 -->
<g id="edge33" class="edge"><title>Node19&#45;&gt;Node21</title>
<path fill="none" stroke="midnightblue" d="M1600.18,-237.884C1716.45,-226.448 1963.16,-202.181 2053.2,-193.324"/>
<polygon fill="midnightblue" stroke="midnightblue" points="2053.78,-196.785 2063.39,-192.323 2053.09,-189.818 2053.78,-196.785"/>
</g>
<!-- Node19&#45;&gt;Node22 -->
<g id="edge35" class="edge"><title>Node19&#45;&gt;Node22</title>
<path fill="none" stroke="midnightblue" d="M1475.78,-238.524C1460.19,-237.258 1443.49,-235.992 1428,-235 1080.98,-212.769 663.515,-197.172 513.831,-191.932"/>
<polygon fill="midnightblue" stroke="midnightblue" points="513.637,-188.423 503.521,-191.572 513.393,-195.419 513.637,-188.423"/>
</g>
<!-- Node23&#45;&gt;Node5 -->
<g id="edge39" class="edge"><title>Node23&#45;&gt;Node5</title>
<path fill="none" stroke="midnightblue" d="M1343.25,-235.312C1319.11,-221.449 1269.31,-194.331 1224,-179 1174.28,-162.177 1116.03,-150.633 1071.82,-143.453"/>
<polygon fill="midnightblue" stroke="midnightblue" points="1072.18,-139.966 1061.75,-141.854 1071.08,-146.879 1072.18,-139.966"/>
</g>
<!-- Node23&#45;&gt;Node7 -->
<g id="edge38" class="edge"><title>Node23&#45;&gt;Node7</title>
<path fill="none" stroke="midnightblue" d="M1354.15,-235.316C1343.43,-212.275 1310.75,-149.547 1262,-123 1189.64,-83.5962 974.946,-95.5322 893,-87 874.383,-85.0617 854.289,-82.8816 835.562,-80.8122"/>
<polygon fill="midnightblue" stroke="midnightblue" points="835.939,-77.3326 825.614,-79.7092 835.167,-84.29 835.939,-77.3326"/>
</g>
<!-- Node23&#45;&gt;Node13 -->
<g id="edge42" class="edge"><title>Node23&#45;&gt;Node13</title>
<path fill="none" stroke="midnightblue" d="M1370.45,-235.495C1410.68,-208.008 1537.51,-121.349 1587.98,-86.8623"/>
<polygon fill="midnightblue" stroke="midnightblue" points="1590.2,-89.5875 1596.48,-81.056 1586.25,-83.8078 1590.2,-89.5875"/>
</g>
<!-- Node23&#45;&gt;Node14 -->
<g id="edge40" class="edge"><title>Node23&#45;&gt;Node14</title>
<path fill="none" stroke="midnightblue" d="M1363.7,-235.123C1371.03,-222.566 1382.12,-198.924 1376,-179 1367.17,-150.248 1360.55,-142.904 1338,-123 1319.1,-106.322 1293.72,-93.5156 1273.38,-84.9725"/>
<polygon fill="midnightblue" stroke="midnightblue" points="1274.44,-81.6245 1263.85,-81.1227 1271.81,-88.1146 1274.44,-81.6245"/>
</g>
<!-- Node23&#45;&gt;Node21 -->
<g id="edge41" class="edge"><title>Node23&#45;&gt;Node21</title>
<path fill="none" stroke="midnightblue" d="M1419.67,-238.8C1435.12,-237.527 1451.67,-236.19 1467,-235 1690.56,-217.658 1959.64,-198.824 2053.08,-192.343"/>
<polygon fill="midnightblue" stroke="midnightblue" points="2053.61,-195.815 2063.34,-191.632 2053.12,-188.832 2053.61,-195.815"/>
</g>
<!-- Node24&#45;&gt;Node6 -->
<g id="edge45" class="edge"><title>Node24&#45;&gt;Node6</title>
<path fill="none" stroke="midnightblue" d="M397.032,-235.248C392.99,-221.54 387.679,-194.931 401,-179 416.869,-160.022 758.274,-102.812 891.974,-81.0386"/>
<polygon fill="midnightblue" stroke="midnightblue" points="892.683,-84.4695 901.992,-79.4103 891.56,-77.5602 892.683,-84.4695"/>
</g>
<!-- Node24&#45;&gt;Node7 -->
<g id="edge44" class="edge"><title>Node24&#45;&gt;Node7</title>
<path fill="none" stroke="midnightblue" d="M389.8,-235.133C376.155,-222.178 355.09,-197.599 368,-179 404.364,-126.609 584.39,-95.2399 688.067,-81.2326"/>
<polygon fill="midnightblue" stroke="midnightblue" points="688.711,-84.678 698.162,-79.8909 687.788,-77.739 688.711,-84.678"/>
</g>
<!-- Node24&#45;&gt;Node11 -->
<g id="edge46" class="edge"><title>Node24&#45;&gt;Node11</title>
<path fill="none" stroke="midnightblue" d="M381.092,-235.365C365.766,-227.606 344.418,-214.985 330,-199 300.43,-166.217 280.877,-117.269 271.821,-90.904"/>
<polygon fill="midnightblue" stroke="midnightblue" points="275.043,-89.4988 268.584,-81.1004 268.396,-91.6935 275.043,-89.4988"/>
</g>
<!-- Node28&#45;&gt;Node12 -->
<g id="edge76" class="edge"><title>Node28&#45;&gt;Node12</title>
<path fill="none" stroke="midnightblue" d="M1217.62,-422.876C1354.7,-408.465 1705.43,-368.087 1813,-322 1834,-313.004 1835.57,-304.496 1854,-291 1923.45,-240.149 1936.16,-219.707 2012,-179 2072.87,-146.329 2089.72,-138.667 2157,-123 2356,-76.6627 2603.47,-72.2482 2690.73,-72.252"/>
<polygon fill="midnightblue" stroke="midnightblue" points="2690.79,-75.752 2700.8,-72.2728 2690.81,-68.7521 2690.79,-75.752"/>
</g>
<!-- Node28&#45;&gt;Node24 -->
<g id="edge59" class="edge"><title>Node28&#45;&gt;Node24</title>
<path fill="none" stroke="midnightblue" d="M1106.22,-416.941C1101.41,-415.945 1096.62,-414.955 1092,-414 893.795,-373.029 842.027,-372.374 646,-322 569.769,-302.41 482.024,-273.814 434.668,-257.869"/>
<polygon fill="midnightblue" stroke="midnightblue" points="435.511,-254.459 424.916,-254.572 433.268,-261.09 435.511,-254.459"/>
</g>
<!-- Node29 -->
<g id="node29" class="node"><title>Node29</title>
<g id="a_node29"><a xlink:href="functor_8h.html" target="_top" xlink:title="Defines the Functor data structures. ">
<polygon fill="white" stroke="black" points="714.5,-235.5 714.5,-254.5 821.5,-254.5 821.5,-235.5 714.5,-235.5"/>
<text text-anchor="middle" x="768" y="-242.5" font-family="Helvetica,sans-Serif" font-size="10.00">tvm/node/functor.h</text>
</a>
</g>
</g>
<!-- Node28&#45;&gt;Node29 -->
<g id="edge60" class="edge"><title>Node28&#45;&gt;Node29</title>
<path fill="none" stroke="midnightblue" d="M1131.74,-414.483C1057.56,-380.125 867.543,-292.108 795.899,-258.923"/>
<polygon fill="midnightblue" stroke="midnightblue" points="797.144,-255.642 786.599,-254.615 794.202,-261.994 797.144,-255.642"/>
</g>
<!-- Node28&#45;&gt;Node30 -->
<g id="edge66" class="edge"><title>Node28&#45;&gt;Node30</title>
<path fill="none" stroke="midnightblue" d="M1180.01,-414.399C1191.74,-405.218 1207.02,-393.258 1218.94,-383.918"/>
<polygon fill="midnightblue" stroke="midnightblue" points="1221.22,-386.578 1226.94,-377.658 1216.91,-381.066 1221.22,-386.578"/>
</g>
<!-- Node29&#45;&gt;Node5 -->
<g id="edge62" class="edge"><title>Node29&#45;&gt;Node5</title>
<path fill="none" stroke="midnightblue" d="M772.721,-235.333C780.855,-221.248 798.889,-193.509 822,-179 855.571,-157.924 898.423,-146.714 934.004,-140.755"/>
<polygon fill="midnightblue" stroke="midnightblue" points="934.976,-144.145 944.313,-139.139 933.891,-137.23 934.976,-144.145"/>
</g>
<!-- Node29&#45;&gt;Node6 -->
<g id="edge61" class="edge"><title>Node29&#45;&gt;Node6</title>
<path fill="none" stroke="midnightblue" d="M762.335,-235.306C749.105,-213.803 719.256,-157.379 746,-123 763.748,-100.186 838.882,-86.0094 891.565,-78.6833"/>
<polygon fill="midnightblue" stroke="midnightblue" points="892.335,-82.1114 901.779,-77.3089 891.402,-75.1739 892.335,-82.1114"/>
</g>
<!-- Node29&#45;&gt;Node11 -->
<g id="edge64" class="edge"><title>Node29&#45;&gt;Node11</title>
<path fill="none" stroke="midnightblue" d="M752.974,-235.497C713.848,-213.693 605.099,-155.248 508,-123 440.693,-100.647 359.446,-86.1098 310.3,-78.6122"/>
<polygon fill="midnightblue" stroke="midnightblue" points="310.725,-75.1368 300.317,-77.1188 309.689,-82.0598 310.725,-75.1368"/>
</g>
<!-- Node29&#45;&gt;Node13 -->
<g id="edge65" class="edge"><title>Node29&#45;&gt;Node13</title>
<path fill="none" stroke="midnightblue" d="M769.56,-235.216C772.436,-221.464 779.825,-194.796 796,-179 843.652,-132.467 870.134,-138.112 935,-123 1059.69,-93.9518 1461.51,-77.7328 1577.43,-73.5774"/>
<polygon fill="midnightblue" stroke="midnightblue" points="1577.86,-77.0643 1587.73,-73.2129 1577.62,-70.0687 1577.86,-77.0643"/>
</g>
<!-- Node29&#45;&gt;Node21 -->
<g id="edge63" class="edge"><title>Node29&#45;&gt;Node21</title>
<path fill="none" stroke="midnightblue" d="M821.752,-241.799C1042.37,-232.767 1875.13,-198.674 2053.31,-191.379"/>
<polygon fill="midnightblue" stroke="midnightblue" points="2053.56,-194.872 2063.4,-190.966 2053.27,-187.878 2053.56,-194.872"/>
</g>
<!-- Node30&#45;&gt;Node5 -->
<g id="edge67" class="edge"><title>Node30&#45;&gt;Node5</title>
<path fill="none" stroke="midnightblue" d="M1180.77,-358.475C1149.55,-351.953 1111.23,-340.771 1081,-322 1018.19,-283 995.688,-267.949 969,-199 962.224,-181.493 974.524,-162.596 986.178,-149.715"/>
<polygon fill="midnightblue" stroke="midnightblue" points="988.701,-152.142 993.175,-142.538 983.689,-147.255 988.701,-152.142"/>
</g>
<!-- Node30&#45;&gt;Node11 -->
<g id="edge70" class="edge"><title>Node30&#45;&gt;Node11</title>
<path fill="none" stroke="midnightblue" d="M1190.51,-358.448C1054.55,-333.903 671.836,-264.394 646,-255 598.127,-237.594 590.178,-224.359 546,-199 530.795,-190.272 527.969,-186.234 512,-179 465.528,-157.947 450.048,-162.732 403,-143 362.137,-125.862 316.792,-101.383 289.877,-86.2401"/>
<polygon fill="midnightblue" stroke="midnightblue" points="291.262,-83.0021 280.836,-81.1145 287.809,-89.0914 291.262,-83.0021"/>
</g>
<!-- Node30&#45;&gt;Node12 -->
<g id="edge75" class="edge"><title>Node30&#45;&gt;Node12</title>
<path fill="none" stroke="midnightblue" d="M1297.69,-363.522C1434.72,-355.34 1761.67,-334.616 1782,-322 1869.76,-267.547 1813.67,-176.525 1902,-123 1970.29,-81.6163 2545.99,-73.9971 2690.3,-72.7327"/>
<polygon fill="midnightblue" stroke="midnightblue" points="2690.71,-76.2295 2700.68,-72.6464 2690.65,-69.2298 2690.71,-76.2295"/>
</g>
<!-- Node30&#45;&gt;Node13 -->
<g id="edge74" class="edge"><title>Node30&#45;&gt;Node13</title>
<path fill="none" stroke="midnightblue" d="M1239,-358.496C1242.08,-335.769 1253.34,-272.785 1287,-235 1368.67,-143.314 1514.14,-96.7463 1577.76,-79.9705"/>
<polygon fill="midnightblue" stroke="midnightblue" points="1578.79,-83.321 1587.6,-77.4431 1577.04,-76.5411 1578.79,-83.321"/>
</g>
<!-- Node30&#45;&gt;Node16 -->
<g id="edge68" class="edge"><title>Node30&#45;&gt;Node16</title>
<path fill="none" stroke="midnightblue" d="M1197.81,-358.479C1172.32,-351.652 1139.61,-340.152 1115,-322 1084.88,-299.788 1081.56,-288.046 1064,-255 1056.14,-240.206 1050.27,-222.052 1046.59,-208.693"/>
<polygon fill="midnightblue" stroke="midnightblue" points="1049.91,-207.573 1044,-198.778 1043.14,-209.337 1049.91,-207.573"/>
</g>
<!-- Node30&#45;&gt;Node18 -->
<g id="edge69" class="edge"><title>Node30&#45;&gt;Node18</title>
<path fill="none" stroke="midnightblue" d="M1297.7,-359.585C1387.47,-348.433 1556.67,-327.416 1650.35,-315.779"/>
<polygon fill="midnightblue" stroke="midnightblue" points="1650.79,-319.251 1660.28,-314.545 1649.93,-312.305 1650.79,-319.251"/>
</g>
<!-- Node30&#45;&gt;Node21 -->
<g id="edge71" class="edge"><title>Node30&#45;&gt;Node21</title>
<path fill="none" stroke="midnightblue" d="M1297.79,-365.176C1425.19,-360.829 1719.6,-348.21 1816,-322 1914.77,-295.144 2020.8,-232.274 2065.35,-204.097"/>
<polygon fill="midnightblue" stroke="midnightblue" points="2067.35,-206.969 2073.9,-198.636 2063.58,-201.07 2067.35,-206.969"/>
</g>
<!-- Node30&#45;&gt;Node22 -->
<g id="edge73" class="edge"><title>Node30&#45;&gt;Node22</title>
<path fill="none" stroke="midnightblue" d="M1178.25,-362.177C1063.18,-351.673 803.806,-322.078 596,-255 554.003,-241.444 508.154,-218.214 481.024,-203.507"/>
<polygon fill="midnightblue" stroke="midnightblue" points="482.368,-200.252 471.918,-198.508 478.999,-206.388 482.368,-200.252"/>
</g>
<!-- Node31 -->
<g id="node31" class="node"><title>Node31</title>
<polygon fill="white" stroke="#bfbfbf" points="1124.5,-297 1124.5,-316 1201.5,-316 1201.5,-297 1124.5,-297"/>
<text text-anchor="middle" x="1163" y="-304" font-family="Helvetica,sans-Serif" font-size="10.00">initializer_list</text>
</g>
<!-- Node30&#45;&gt;Node31 -->
<g id="edge72" class="edge"><title>Node30&#45;&gt;Node31</title>
<path fill="none" stroke="midnightblue" d="M1227.25,-358.475C1215.45,-349.108 1196.26,-333.884 1181.92,-322.508"/>
<polygon fill="midnightblue" stroke="midnightblue" points="1183.74,-319.482 1173.73,-316.009 1179.38,-324.966 1183.74,-319.482"/>
</g>
<!-- Node32&#45;&gt;Node12 -->
<g id="edge81" class="edge"><title>Node32&#45;&gt;Node12</title>
<path fill="none" stroke="midnightblue" d="M1499.58,-420.688C1580.53,-407.864 1734.25,-377.999 1854,-322 1952.98,-275.711 1952.9,-220.473 2054,-179 2284.47,-84.4552 2591.54,-73.454 2690.68,-72.4731"/>
<polygon fill="midnightblue" stroke="midnightblue" points="2690.96,-75.9713 2700.94,-72.4012 2690.92,-68.9715 2690.96,-75.9713"/>
</g>
<!-- Node32&#45;&gt;Node24 -->
<g id="edge78" class="edge"><title>Node32&#45;&gt;Node24</title>
<path fill="none" stroke="midnightblue" d="M1388.33,-422.258C1267.31,-408.247 971.508,-371.598 727,-322 673.015,-311.049 660.59,-303.742 607,-291 554.279,-278.465 493.67,-265.451 451.719,-256.663"/>
<polygon fill="midnightblue" stroke="midnightblue" points="452.243,-253.197 441.738,-254.578 450.811,-260.049 452.243,-253.197"/>
</g>
<!-- Node32&#45;&gt;Node25 -->
<g id="edge82" class="edge"><title>Node32&#45;&gt;Node25</title>
<path fill="none" stroke="midnightblue" d="M1499.79,-416.426C1590.19,-396.829 1774.26,-356.784 1930,-322 2035.28,-298.487 2159.06,-270.136 2222.26,-255.609"/>
<polygon fill="midnightblue" stroke="midnightblue" points="2223.28,-258.967 2232.24,-253.315 2221.71,-252.145 2223.28,-258.967"/>
</g>
<!-- Node32&#45;&gt;Node29 -->
<g id="edge79" class="edge"><title>Node32&#45;&gt;Node29</title>
<path fill="none" stroke="midnightblue" d="M1426.21,-414.338C1388.77,-385.402 1297.99,-319.805 1210,-291 1141.45,-268.56 937.16,-254.891 832.046,-249.153"/>
<polygon fill="midnightblue" stroke="midnightblue" points="832.057,-245.649 821.883,-248.606 831.681,-252.639 832.057,-245.649"/>
</g>
<!-- Node32&#45;&gt;Node30 -->
<g id="edge80" class="edge"><title>Node32&#45;&gt;Node30</title>
<path fill="none" stroke="midnightblue" d="M1395.44,-414.475C1359.44,-404.075 1310.98,-390.078 1277.37,-380.372"/>
<polygon fill="midnightblue" stroke="midnightblue" points="1278.03,-376.919 1267.45,-377.506 1276.09,-383.644 1278.03,-376.919"/>
</g>
<!-- Node33&#45;&gt;Node29 -->
<g id="edge87" class="edge"><title>Node33&#45;&gt;Node29</title>
<path fill="none" stroke="midnightblue" d="M703.385,-481.316C713.052,-446.11 749.448,-313.561 762.933,-264.452"/>
<polygon fill="midnightblue" stroke="midnightblue" points="766.371,-265.15 765.644,-254.58 759.621,-263.296 766.371,-265.15"/>
</g>
<!-- Node34 -->
<g id="node34" class="node"><title>Node34</title>
<polygon fill="white" stroke="#bfbfbf" points="609.5,-420 609.5,-439 668.5,-439 668.5,-420 609.5,-420"/>
<text text-anchor="middle" x="639" y="-427" font-family="Helvetica,sans-Serif" font-size="10.00">iostream</text>
</g>
<!-- Node33&#45;&gt;Node34 -->
<g id="edge88" class="edge"><title>Node33&#45;&gt;Node34</title>
<path fill="none" stroke="midnightblue" d="M692.117,-481.475C682.541,-472.285 667.089,-457.456 655.314,-446.156"/>
<polygon fill="midnightblue" stroke="midnightblue" points="657.505,-443.408 647.867,-439.009 652.658,-448.458 657.505,-443.408"/>
</g>
<!-- Node35&#45;&gt;Node5 -->
<g id="edge98" class="edge"><title>Node35&#45;&gt;Node5</title>
<path fill="none" stroke="midnightblue" d="M1641.29,-593.233C1630.23,-558.828 1585.49,-431.343 1508,-358 1464.2,-316.543 1446.3,-312.633 1390,-291 1320.75,-264.387 1293.76,-287.354 1227,-255 1178.96,-231.721 1180.64,-204.966 1134,-179 1107.2,-164.078 1074.58,-152.853 1048.59,-145.347"/>
<polygon fill="midnightblue" stroke="midnightblue" points="1049.2,-141.882 1038.63,-142.554 1047.31,-148.622 1049.2,-141.882"/>
</g>
<!-- Node35&#45;&gt;Node12 -->
<g id="edge100" class="edge"><title>Node35&#45;&gt;Node12</title>
<path fill="none" stroke="midnightblue" d="M1684.06,-596.48C1734.55,-589.169 1823.82,-575.065 1899,-557 1981.7,-537.128 2005.16,-537.468 2082,-501 2150.53,-468.478 2600.19,-157.639 2702.37,-86.8145"/>
<polygon fill="midnightblue" stroke="midnightblue" points="2704.43,-89.6464 2710.65,-81.0719 2700.44,-83.894 2704.43,-89.6464"/>
</g>
<!-- Node35&#45;&gt;Node15 -->
<g id="edge99" class="edge"><title>Node35&#45;&gt;Node15</title>
<path fill="none" stroke="midnightblue" d="M1603.92,-596.822C1529.99,-587.272 1371.84,-566.84 1285.41,-555.675"/>
<polygon fill="midnightblue" stroke="midnightblue" points="1285.6,-552.17 1275.23,-554.36 1284.7,-559.113 1285.6,-552.17"/>
</g>
<!-- Node36&#45;&gt;Node5 -->
<g id="edge102" class="edge"><title>Node36&#45;&gt;Node5</title>
<path fill="none" stroke="midnightblue" d="M1500.23,-649.697C1360.08,-618.586 888,-503.786 888,-369 888,-369 888,-369 888,-305.5 888,-237.71 950.749,-176.492 983.545,-149.126"/>
<polygon fill="midnightblue" stroke="midnightblue" points="985.998,-151.642 991.553,-142.62 981.584,-146.209 985.998,-151.642"/>
</g>
<!-- Node36&#45;&gt;Node12 -->
<g id="edge107" class="edge"><title>Node36&#45;&gt;Node12</title>
<path fill="none" stroke="midnightblue" d="M1576.81,-649.435C1773.02,-604.9 2667,-400.957 2685,-378 2739.57,-308.393 2672.01,-266.486 2685,-179 2689.83,-146.441 2704.64,-110.845 2714.28,-90.1582"/>
<polygon fill="midnightblue" stroke="midnightblue" points="2717.48,-91.5668 2718.65,-81.0362 2711.17,-88.542 2717.48,-91.5668"/>
</g>
<!-- Node36&#45;&gt;Node15 -->
<g id="edge104" class="edge"><title>Node36&#45;&gt;Node15</title>
<path fill="none" stroke="midnightblue" d="M1514.7,-649.46C1459.35,-630.006 1323.76,-582.355 1260.08,-559.977"/>
<polygon fill="midnightblue" stroke="midnightblue" points="1261.1,-556.624 1250.5,-556.61 1258.77,-563.228 1261.1,-556.624"/>
</g>
<!-- Node36&#45;&gt;Node24 -->
<g id="edge103" class="edge"><title>Node36&#45;&gt;Node24</title>
<path fill="none" stroke="midnightblue" d="M1500.34,-657.737C1407.88,-656.503 1167.03,-649.711 970,-613 948.573,-609.008 611.967,-513.339 594,-501 499.36,-436.008 431.224,-310.066 408.37,-263.695"/>
<polygon fill="midnightblue" stroke="midnightblue" points="411.476,-262.077 403.97,-254.6 405.175,-265.126 411.476,-262.077"/>
</g>
<!-- Node36&#45;&gt;Node30 -->
<g id="edge105" class="edge"><title>Node36&#45;&gt;Node30</title>
<path fill="none" stroke="midnightblue" d="M1531.11,-649.109C1501.8,-616.276 1395.79,-499.347 1298,-414 1285.65,-403.22 1270.93,-392.159 1259.17,-383.701"/>
<polygon fill="midnightblue" stroke="midnightblue" points="1261.01,-380.719 1250.83,-377.788 1256.96,-386.428 1261.01,-380.719"/>
</g>
<!-- Node36&#45;&gt;Node35 -->
<g id="edge106" class="edge"><title>Node36&#45;&gt;Node35</title>
<path fill="none" stroke="midnightblue" d="M1555.87,-649.324C1572.71,-640.664 1598.81,-627.242 1618.24,-617.249"/>
<polygon fill="midnightblue" stroke="midnightblue" points="1619.88,-620.341 1627.17,-612.655 1616.68,-614.116 1619.88,-620.341"/>
</g>
<!-- Node38&#45;&gt;Node2 -->
<g id="edge122" class="edge"><title>Node38&#45;&gt;Node2</title>
<path fill="none" stroke="midnightblue" d="M2786.68,-985.451C2767.67,-977.581 2740.16,-964.756 2719,-949 2654.44,-900.921 2665.63,-855.607 2595,-817 2534.49,-783.922 2454.1,-774.665 2402.94,-772.342"/>
<polygon fill="midnightblue" stroke="midnightblue" points="2402.92,-768.839 2392.8,-771.955 2402.66,-775.833 2402.92,-768.839"/>
</g>
<!-- Node38&#45;&gt;Node4 -->
<g id="edge128" class="edge"><title>Node38&#45;&gt;Node4</title>
<path fill="none" stroke="midnightblue" d="M2774.88,-992.613C2674.37,-988.346 2370.77,-974.16 2120,-949 2073.92,-944.377 1747.37,-915.696 1707,-893 1641.17,-855.988 1653.51,-814.287 1600,-761 1588.98,-750.028 1575.41,-739.071 1564.39,-730.715"/>
<polygon fill="midnightblue" stroke="midnightblue" points="1566.31,-727.78 1556.2,-724.622 1562.13,-733.397 1566.31,-727.78"/>
</g>
<!-- Node38&#45;&gt;Node12 -->
<g id="edge156" class="edge"><title>Node38&#45;&gt;Node12</title>
<path fill="none" stroke="midnightblue" d="M2843.08,-991.713C2910.62,-986.71 3058.74,-973.26 3103,-949 3136.69,-930.532 3160,-922.423 3160,-884 3160,-884 3160,-884 3160,-188 3160,-157.205 3160.15,-142.108 3136,-123 3077.13,-76.4226 2841.64,-72.1883 2755.11,-72.2438"/>
<polygon fill="midnightblue" stroke="midnightblue" points="2755.07,-68.7438 2745.08,-72.2704 2755.09,-75.7438 2755.07,-68.7438"/>
</g>
<!-- Node38&#45;&gt;Node13 -->
<g id="edge157" class="edge"><title>Node38&#45;&gt;Node13</title>
<path fill="none" stroke="midnightblue" d="M2843.14,-988.349C2869.36,-982.464 2905.01,-970.908 2929,-949 3011.68,-873.481 3046,-875.007 3046,-548 3046,-548 3046,-548 3046,-305.5 3046,-33.566 2729.49,-171.954 2462,-123 2299.5,-93.2601 1774.12,-77.0443 1640.26,-73.3307"/>
<polygon fill="midnightblue" stroke="midnightblue" points="1640.36,-69.8321 1630.26,-73.0565 1640.16,-76.8294 1640.36,-69.8321"/>
</g>
<!-- Node38&#45;&gt;Node21 -->
<g id="edge158" class="edge"><title>Node38&#45;&gt;Node21</title>
<path fill="none" stroke="midnightblue" d="M2835.91,-985.41C2874.78,-971.126 2942,-938.535 2942,-884 2942,-884 2942,-884 2942,-714 2942,-640.088 2932,-621.912 2932,-548 2932,-548 2932,-548 2932,-490 2932,-274.275 2723.19,-304.591 2519,-235 2445.18,-209.843 2208.63,-195.961 2120.5,-191.558"/>
<polygon fill="midnightblue" stroke="midnightblue" points="2120.67,-188.062 2110.51,-191.068 2120.33,-195.054 2120.67,-188.062"/>
</g>
<!-- Node38&#45;&gt;Node36 -->
<g id="edge129" class="edge"><title>Node38&#45;&gt;Node36</title>
<path fill="none" stroke="midnightblue" d="M2803.5,-985.391C2776.77,-944.458 2655.59,-768.87 2504,-705 2419.29,-669.307 1771.89,-661.745 1587.73,-660.309"/>
<polygon fill="midnightblue" stroke="midnightblue" points="1587.56,-656.808 1577.53,-660.232 1587.51,-663.808 1587.56,-656.808"/>
</g>
<!-- Node39 -->
<g id="node39" class="node"><title>Node39</title>
<polygon fill="white" stroke="#bfbfbf" points="3008,-929.5 3008,-948.5 3094,-948.5 3094,-929.5 3008,-929.5"/>
<text text-anchor="middle" x="3051" y="-936.5" font-family="Helvetica,sans-Serif" font-size="10.00">dmlc/registry.h</text>
</g>
<!-- Node38&#45;&gt;Node39 -->
<g id="edge121" class="edge"><title>Node38&#45;&gt;Node39</title>
<path fill="none" stroke="midnightblue" d="M2843.16,-986.378C2884.79,-977.087 2955.42,-961.328 3002.63,-950.794"/>
<polygon fill="midnightblue" stroke="midnightblue" points="3003.62,-954.158 3012.62,-948.564 3002.1,-947.326 3003.62,-954.158"/>
</g>
<!-- Node40 -->
<g id="node40" class="node"><title>Node40</title>
<g id="a_node40"><a xlink:href="registry_8h.html" target="_top" xlink:title="This file defines the TVM global function registry. ">
<polygon fill="white" stroke="black" points="2554,-358.5 2554,-377.5 2676,-377.5 2676,-358.5 2554,-358.5"/>
<text text-anchor="middle" x="2615" y="-365.5" font-family="Helvetica,sans-Serif" font-size="10.00">tvm/runtime/registry.h</text>
</a>
</g>
</g>
<!-- Node38&#45;&gt;Node40 -->
<g id="edge123" class="edge"><title>Node38&#45;&gt;Node40</title>
<path fill="none" stroke="midnightblue" d="M2824.69,-985.396C2851.67,-969.314 2904,-931.943 2904,-884 2904,-884 2904,-884 2904,-770 2904,-583.063 2809.25,-549.055 2680,-414 2668.32,-401.792 2652.84,-390.918 2639.91,-382.919"/>
<polygon fill="midnightblue" stroke="midnightblue" points="2641.43,-379.746 2631.05,-377.624 2637.84,-385.756 2641.43,-379.746"/>
</g>
<!-- Node41 -->
<g id="node41" class="node"><title>Node41</title>
<g id="a_node41"><a xlink:href="type__relation_8h.html" target="_top" xlink:title="Type relation and function for type inference(checking). ">
<polygon fill="white" stroke="black" points="2129.5,-929.5 2129.5,-948.5 2248.5,-948.5 2248.5,-929.5 2129.5,-929.5"/>
<text text-anchor="middle" x="2189" y="-936.5" font-family="Helvetica,sans-Serif" font-size="10.00">tvm/ir/type_relation.h</text>
</a>
</g>
</g>
<!-- Node38&#45;&gt;Node41 -->
<g id="edge130" class="edge"><title>Node38&#45;&gt;Node41</title>
<path fill="none" stroke="midnightblue" d="M2774.78,-991.02C2676.44,-982.454 2391.54,-957.641 2258.71,-946.072"/>
<polygon fill="midnightblue" stroke="midnightblue" points="2258.91,-942.576 2248.64,-945.195 2258.3,-949.549 2258.91,-942.576"/>
</g>
<!-- Node40&#45;&gt;Node12 -->
<g id="edge125" class="edge"><title>Node40&#45;&gt;Node12</title>
<path fill="none" stroke="midnightblue" d="M2621,-358.359C2626.92,-349.529 2635.96,-335.268 2642,-322 2679.76,-239.053 2707.98,-133.325 2718.5,-91.1189"/>
<polygon fill="midnightblue" stroke="midnightblue" points="2721.91,-91.9336 2720.89,-81.3873 2715.11,-90.2633 2721.91,-91.9336"/>
</g>
<!-- Node40&#45;&gt;Node13 -->
<g id="edge127" class="edge"><title>Node40&#45;&gt;Node13</title>
<path fill="none" stroke="midnightblue" d="M2616.79,-358.452C2620.96,-336.145 2629.19,-275.12 2604,-235 2551.88,-151.982 2507.71,-151.748 2414,-123 2265.56,-77.4634 1770.2,-72.9244 1640.37,-72.5247"/>
<polygon fill="midnightblue" stroke="midnightblue" points="1640.32,-69.0247 1630.31,-72.5 1640.3,-76.0247 1640.32,-69.0247"/>
</g>
<!-- Node40&#45;&gt;Node18 -->
<g id="edge124" class="edge"><title>Node40&#45;&gt;Node18</title>
<path fill="none" stroke="midnightblue" d="M2553.98,-362.957C2392.07,-352.229 1952.43,-323.099 1783.95,-311.936"/>
<polygon fill="midnightblue" stroke="midnightblue" points="1783.94,-308.428 1773.73,-311.259 1783.47,-315.412 1783.94,-308.428"/>
</g>
<!-- Node40&#45;&gt;Node21 -->
<g id="edge126" class="edge"><title>Node40&#45;&gt;Node21</title>
<path fill="none" stroke="midnightblue" d="M2609.88,-358.259C2595,-333.775 2549.05,-264.397 2490,-235 2425.33,-202.806 2205.36,-193.31 2120.64,-190.809"/>
<polygon fill="midnightblue" stroke="midnightblue" points="2120.63,-187.308 2110.54,-190.525 2120.44,-194.305 2120.63,-187.308"/>
</g>
<!-- Node41&#45;&gt;Node2 -->
<g id="edge155" class="edge"><title>Node41&#45;&gt;Node2</title>
<path fill="none" stroke="midnightblue" d="M2197.82,-929.075C2224.3,-902.267 2303.41,-822.19 2337.31,-787.885"/>
<polygon fill="midnightblue" stroke="midnightblue" points="2340,-790.142 2344.54,-780.568 2335.02,-785.222 2340,-790.142"/>
</g>
<!-- Node41&#45;&gt;Node36 -->
<g id="edge131" class="edge"><title>Node41&#45;&gt;Node36</title>
<path fill="none" stroke="midnightblue" d="M2180.92,-929.203C2160.54,-907.464 2104.61,-850.545 2048,-817 1926.63,-745.085 1886.39,-744.649 1751,-705 1720.89,-696.183 1640.06,-679.759 1587.36,-669.379"/>
<polygon fill="midnightblue" stroke="midnightblue" points="1588.02,-665.944 1577.54,-667.452 1586.68,-672.813 1588.02,-665.944"/>
</g>
<!-- Node41&#45;&gt;Node42 -->
<g id="edge132" class="edge"><title>Node41&#45;&gt;Node42</title>
<path fill="none" stroke="midnightblue" d="M2129.18,-930.435C2046.53,-919.982 1898.51,-901.263 1817.96,-891.076"/>
<polygon fill="midnightblue" stroke="midnightblue" points="1818.36,-887.6 1808,-889.817 1817.48,-894.544 1818.36,-887.6"/>
</g>
<!-- Node46 -->
<g id="node46" class="node"><title>Node46</title>
<g id="a_node46"><a xlink:href="env__func_8h.html" target="_top" xlink:title="Serializable global function used in IR. ">
<polygon fill="white" stroke="black" points="2168.5,-537.5 2168.5,-556.5 2267.5,-556.5 2267.5,-537.5 2168.5,-537.5"/>
<text text-anchor="middle" x="2218" y="-544.5" font-family="Helvetica,sans-Serif" font-size="10.00">tvm/ir/env_func.h</text>
</a>
</g>
</g>
<!-- Node41&#45;&gt;Node46 -->
<g id="edge151" class="edge"><title>Node41&#45;&gt;Node46</title>
<path fill="none" stroke="midnightblue" d="M2188.08,-929.454C2186.19,-910.971 2182,-865.889 2182,-828 2182,-828 2182,-828 2182,-770 2182,-693.923 2202.85,-605.05 2212.82,-566.93"/>
<polygon fill="midnightblue" stroke="midnightblue" points="2216.32,-567.364 2215.53,-556.799 2209.56,-565.556 2216.32,-567.364"/>
</g>
<!-- Node42&#45;&gt;Node4 -->
<g id="edge134" class="edge"><title>Node42&#45;&gt;Node4</title>
<path fill="none" stroke="midnightblue" d="M1752.11,-873.175C1742.12,-864.201 1726.3,-849.831 1713,-837 1678.85,-804.052 1676.64,-788.545 1638,-761 1619.18,-747.586 1595.74,-736.355 1576.97,-728.468"/>
<polygon fill="midnightblue" stroke="midnightblue" points="1578.22,-725.195 1567.64,-724.654 1575.57,-731.675 1578.22,-725.195"/>
</g>
<!-- Node42&#45;&gt;Node12 -->
<g id="edge147" class="edge"><title>Node42&#45;&gt;Node12</title>
<path fill="none" stroke="midnightblue" d="M1808.23,-876.85C1882,-868.606 2030.88,-851.861 2157,-837 2426.41,-805.256 2523.43,-862.96 2757,-725 2841.2,-675.266 3084,-528.293 3084,-430.5 3084,-430.5 3084,-430.5 3084,-188 3084,-143.215 3047.55,-142.016 3007,-123 2922.2,-83.2293 2809.72,-74.6158 2755.27,-72.8613"/>
<polygon fill="midnightblue" stroke="midnightblue" points="2755.27,-69.3601 2745.18,-72.5946 2755.08,-76.3577 2755.27,-69.3601"/>
</g>
<!-- Node42&#45;&gt;Node21 -->
<g id="edge148" class="edge"><title>Node42&#45;&gt;Node21</title>
<path fill="none" stroke="midnightblue" d="M1808.07,-874.77C1864.59,-865.894 1963.35,-850.374 2048,-837 2174.65,-816.991 2519.07,-811.179 2614,-725 2636.8,-704.301 2638,-690.795 2638,-660 2638,-660 2638,-660 2638,-546 2638,-453.745 2443.78,-279.568 2363,-235 2321.83,-212.283 2184.93,-198.179 2120.75,-192.661"/>
<polygon fill="midnightblue" stroke="midnightblue" points="2121,-189.169 2110.74,-191.819 2120.41,-196.145 2121,-189.169"/>
</g>
<!-- Node42&#45;&gt;Node22 -->
<g id="edge149" class="edge"><title>Node42&#45;&gt;Node22</title>
<path fill="none" stroke="midnightblue" d="M1715.89,-880.21C1474.91,-870.462 366.961,-820.668 251,-725 166.479,-655.27 228.961,-312.917 306,-235 330.73,-209.988 368.713,-198.749 400.395,-193.758"/>
<polygon fill="midnightblue" stroke="midnightblue" points="401.02,-197.204 410.436,-192.347 400.046,-190.273 401.02,-197.204"/>
</g>
<!-- Node42&#45;&gt;Node36 -->
<g id="edge133" class="edge"><title>Node42&#45;&gt;Node36</title>
<path fill="none" stroke="midnightblue" d="M1806.27,-873.465C1855.12,-863.6 1927.95,-847.393 1936,-837 1941.44,-829.972 1940.85,-824.446 1936,-817 1895.92,-755.522 1680.28,-695.209 1584.68,-671.047"/>
<polygon fill="midnightblue" stroke="midnightblue" points="1585.27,-667.588 1574.72,-668.552 1583.57,-674.378 1585.27,-667.588"/>
</g>
<!-- Node43 -->
<g id="node43" class="node"><title>Node43</title>
<g id="a_node43"><a xlink:href="ir_2function_8h.html" target="_top" xlink:title="Function nodes. ">
<polygon fill="white" stroke="black" points="1832.5,-817.5 1832.5,-836.5 1927.5,-836.5 1927.5,-817.5 1832.5,-817.5"/>
<text text-anchor="middle" x="1880" y="-824.5" font-family="Helvetica,sans-Serif" font-size="10.00">tvm/ir/function.h</text>
</a>
</g>
</g>
<!-- Node42&#45;&gt;Node43 -->
<g id="edge135" class="edge"><title>Node42&#45;&gt;Node43</title>
<path fill="none" stroke="midnightblue" d="M1780.7,-873.444C1799.94,-864.636 1830.15,-850.812 1852.2,-840.722"/>
<polygon fill="midnightblue" stroke="midnightblue" points="1853.75,-843.86 1861.39,-836.516 1850.84,-837.495 1853.75,-843.86"/>
</g>
<!-- Node44 -->
<g id="node44" class="node"><title>Node44</title>
<g id="a_node44"><a xlink:href="ir_2adt_8h.html" target="_top" xlink:title="Algebraic data type definitions. ">
<polygon fill="white" stroke="black" points="1728,-761.5 1728,-780.5 1800,-780.5 1800,-761.5 1728,-761.5"/>
<text text-anchor="middle" x="1764" y="-768.5" font-family="Helvetica,sans-Serif" font-size="10.00">tvm/ir/adt.h</text>
</a>
</g>
</g>
<!-- Node42&#45;&gt;Node44 -->
<g id="edge140" class="edge"><title>Node42&#45;&gt;Node44</title>
<path fill="none" stroke="midnightblue" d="M1749.36,-873.37C1733.63,-861.473 1709.89,-839.001 1719,-817 1723.92,-805.121 1733.67,-794.743 1742.83,-786.956"/>
<polygon fill="midnightblue" stroke="midnightblue" points="1745.25,-789.506 1750.94,-780.564 1740.92,-784.01 1745.25,-789.506"/>
</g>
<!-- Node45 -->
<g id="node45" class="node"><title>Node45</title>
<polygon fill="white" stroke="#bfbfbf" points="1728,-817.5 1728,-836.5 1814,-836.5 1814,-817.5 1728,-817.5"/>
<text text-anchor="middle" x="1771" y="-824.5" font-family="Helvetica,sans-Serif" font-size="10.00">unordered_set</text>
</g>
<!-- Node42&#45;&gt;Node45 -->
<g id="edge150" class="edge"><title>Node42&#45;&gt;Node45</title>
<path fill="none" stroke="midnightblue" d="M1763.49,-873.083C1764.68,-865.927 1766.39,-855.635 1767.88,-846.691"/>
<polygon fill="midnightblue" stroke="midnightblue" points="1771.35,-847.19 1769.54,-836.751 1764.45,-846.04 1771.35,-847.19"/>
</g>
<!-- Node43&#45;&gt;Node2 -->
<g id="edge137" class="edge"><title>Node43&#45;&gt;Node2</title>
<path fill="none" stroke="midnightblue" d="M1927.52,-820.575C2017.41,-810.312 2211.54,-788.15 2303.18,-777.688"/>
<polygon fill="midnightblue" stroke="midnightblue" points="2303.77,-781.143 2313.31,-776.532 2302.97,-774.189 2303.77,-781.143"/>
</g>
<!-- Node43&#45;&gt;Node4 -->
<g id="edge136" class="edge"><title>Node43&#45;&gt;Node4</title>
<path fill="none" stroke="midnightblue" d="M1843.01,-817.482C1810.02,-809.459 1760.65,-796.391 1719,-781 1699.23,-773.695 1695.56,-768.856 1676,-761 1644.62,-748.396 1608.2,-736.152 1581.57,-727.625"/>
<polygon fill="midnightblue" stroke="midnightblue" points="1582.46,-724.238 1571.87,-724.547 1580.34,-730.909 1582.46,-724.238"/>
</g>
<!-- Node43&#45;&gt;Node11 -->
<g id="edge138" class="edge"><title>Node43&#45;&gt;Node11</title>
<path fill="none" stroke="midnightblue" d="M1832.47,-818.058C1829.27,-817.659 1826.09,-817.3 1823,-817 1648.85,-800.124 396.244,-822.556 251,-725 51.4819,-590.989 0,-486.346 0,-246 0,-246 0,-246 0,-188 0,-92.5523 145.882,-75.1305 221.577,-72.5152"/>
<polygon fill="midnightblue" stroke="midnightblue" points="221.869,-76.0087 231.77,-72.2379 221.678,-69.0113 221.869,-76.0087"/>
</g>
<!-- Node43&#45;&gt;Node12 -->
<g id="edge139" class="edge"><title>Node43&#45;&gt;Node12</title>
<path fill="none" stroke="midnightblue" d="M1927.83,-821.373C1942.92,-819.939 1959.65,-818.375 1975,-817 2164.25,-800.04 2215.65,-822.819 2401,-781 2545.87,-748.315 2970,-579.009 2970,-430.5 2970,-430.5 2970,-430.5 2970,-188 2970,-94.3111 2822.37,-76.4515 2755.38,-73.1702"/>
<polygon fill="midnightblue" stroke="midnightblue" points="2755.49,-69.6719 2745.36,-72.7594 2755.2,-76.666 2755.49,-69.6719"/>
</g>
<!-- Node44&#45;&gt;Node4 -->
<g id="edge144" class="edge"><title>Node44&#45;&gt;Node4</title>
<path fill="none" stroke="midnightblue" d="M1729.14,-761.444C1691.08,-752.102 1630.04,-737.119 1588.54,-726.933"/>
<polygon fill="midnightblue" stroke="midnightblue" points="1589.24,-723.501 1578.7,-724.516 1587.57,-730.299 1589.24,-723.501"/>
</g>
<!-- Node44&#45;&gt;Node5 -->
<g id="edge141" class="edge"><title>Node44&#45;&gt;Node5</title>
<path fill="none" stroke="midnightblue" d="M1727.69,-767.893C1620.86,-761.064 1298.92,-735.975 1041,-669 840.803,-617.014 770.407,-627.805 607,-501 532.86,-443.467 530.928,-367.7 585,-291 664.942,-177.603 837.418,-146.026 933.965,-137.289"/>
<polygon fill="midnightblue" stroke="midnightblue" points="934.539,-140.753 944.208,-136.422 933.949,-133.778 934.539,-140.753"/>
</g>
<!-- Node44&#45;&gt;Node12 -->
<g id="edge146" class="edge"><title>Node44&#45;&gt;Node12</title>
<path fill="none" stroke="midnightblue" d="M1797.94,-761.487C1831.98,-752.814 1885.84,-738.722 1932,-725 2315.69,-610.952 2458.6,-672.427 2788,-445 2870.46,-388.064 2894,-346.209 2894,-246 2894,-246 2894,-246 2894,-188 2894,-121.61 2804.39,-90.8136 2754.91,-78.8691"/>
<polygon fill="midnightblue" stroke="midnightblue" points="2755.53,-75.4219 2745.01,-76.6004 2753.97,-82.2451 2755.53,-75.4219"/>
</g>
<!-- Node44&#45;&gt;Node15 -->
<g id="edge142" class="edge"><title>Node44&#45;&gt;Node15</title>
<path fill="none" stroke="midnightblue" d="M1733.18,-761.491C1705.24,-753.381 1663.16,-740.18 1628,-725 1610.84,-717.591 1608.06,-712.632 1591,-705 1547.88,-685.715 1535.16,-685.774 1491,-669 1428.35,-645.202 1411.91,-640.938 1351,-613 1315.28,-596.616 1275.16,-575.194 1250.23,-561.511"/>
<polygon fill="midnightblue" stroke="midnightblue" points="1251.6,-558.269 1241.15,-556.502 1248.22,-564.398 1251.6,-558.269"/>
</g>
<!-- Node44&#45;&gt;Node30 -->
<g id="edge143" class="edge"><title>Node44&#45;&gt;Node30</title>
<path fill="none" stroke="midnightblue" d="M1762.98,-761.274C1759.22,-732.953 1743.62,-642.575 1693,-593 1610.2,-511.91 1551.15,-555.745 1449,-501 1390.62,-469.713 1384.69,-448.253 1328,-414 1308.19,-402.033 1284.79,-390.401 1266.81,-381.962"/>
<polygon fill="midnightblue" stroke="midnightblue" points="1267.98,-378.649 1257.44,-377.621 1265.04,-385 1267.98,-378.649"/>
</g>
<!-- Node44&#45;&gt;Node36 -->
<g id="edge145" class="edge"><title>Node44&#45;&gt;Node36</title>
<path fill="none" stroke="midnightblue" d="M1746.34,-761.368C1707.08,-742.171 1612.31,-695.842 1565.74,-673.074"/>
<polygon fill="midnightblue" stroke="midnightblue" points="1567.09,-669.839 1556.57,-668.591 1564.02,-676.128 1567.09,-669.839"/>
</g>
<!-- Node46&#45;&gt;Node12 -->
<g id="edge153" class="edge"><title>Node46&#45;&gt;Node12</title>
<path fill="none" stroke="midnightblue" d="M2247.1,-537.485C2294.07,-523.986 2389.66,-497.513 2472,-481 2580.34,-459.273 2625.65,-505.677 2718,-445 2800.72,-390.645 2818,-344.983 2818,-246 2818,-246 2818,-246 2818,-188 2818,-143.018 2774.49,-106.021 2746.36,-86.8025"/>
<polygon fill="midnightblue" stroke="midnightblue" points="2748.12,-83.7713 2737.84,-81.2 2744.28,-89.6196 2748.12,-83.7713"/>
</g>
<!-- Node46&#45;&gt;Node13 -->
<g id="edge154" class="edge"><title>Node46&#45;&gt;Node13</title>
<path fill="none" stroke="midnightblue" d="M2226.88,-537.436C2266,-498.708 2417.5,-337.393 2338,-235 2249.91,-121.549 1768.32,-82.7597 1640.28,-74.3733"/>
<polygon fill="midnightblue" stroke="midnightblue" points="1640.2,-70.8615 1630,-73.7164 1639.76,-77.8473 1640.2,-70.8615"/>
</g>
<!-- Node46&#45;&gt;Node17 -->
<g id="edge152" class="edge"><title>Node46&#45;&gt;Node17</title>
<path fill="none" stroke="midnightblue" d="M2168.5,-542.181C2046.15,-532.743 1729.21,-508.293 1587.84,-497.388"/>
<polygon fill="midnightblue" stroke="midnightblue" points="1587.81,-493.875 1577.57,-496.595 1587.27,-500.854 1587.81,-493.875"/>
</g>
<!-- Node47&#45;&gt;Node12 -->
<g id="edge178" class="edge"><title>Node47&#45;&gt;Node12</title>
<path fill="none" stroke="midnightblue" d="M2039.54,-825.989C2120.03,-825.476 2361.58,-820.498 2557,-781 2635.39,-765.157 2658.6,-764.744 2728,-725 2772.26,-699.65 2775.65,-682.636 2814,-649 2889.31,-582.942 2928.16,-584.169 2984,-501 3002.45,-473.52 3008,-463.599 3008,-430.5 3008,-430.5 3008,-430.5 3008,-188 3008,-157.205 3007.47,-142.935 2984,-123 2949.83,-93.9799 2817.23,-79.9233 2755.26,-74.8312"/>
<polygon fill="midnightblue" stroke="midnightblue" points="2755.49,-71.3387 2745.24,-74.0363 2754.93,-78.3168 2755.49,-71.3387"/>
</g>
<!-- Node47&#45;&gt;Node15 -->
<g id="edge177" class="edge"><title>Node47&#45;&gt;Node15</title>
<path fill="none" stroke="midnightblue" d="M1984.24,-822.401C1969.86,-820.616 1952,-818.522 1936,-817 1834.29,-807.328 1022,-818.174 1022,-716 1022,-716 1022,-716 1022,-658 1022,-591.721 1106.46,-565.193 1166.69,-554.702"/>
<polygon fill="midnightblue" stroke="midnightblue" points="1167.57,-558.105 1176.88,-553.038 1166.44,-551.196 1167.57,-558.105"/>
</g>
<!-- Node47&#45;&gt;Node21 -->
<g id="edge179" class="edge"><title>Node47&#45;&gt;Node21</title>
<path fill="none" stroke="midnightblue" d="M2026.46,-817.442C2051.9,-801.165 2102,-763.129 2102,-716 2102,-716 2102,-716 2102,-602 2102,-415.814 2421.53,-379.403 2304,-235 2281.29,-207.094 2175.94,-195.945 2120.82,-191.962"/>
<polygon fill="midnightblue" stroke="midnightblue" points="2120.72,-188.448 2110.5,-191.259 2120.24,-195.431 2120.72,-188.448"/>
</g>
<!-- Node47&#45;&gt;Node35 -->
<g id="edge163" class="edge"><title>Node47&#45;&gt;Node35</title>
<path fill="none" stroke="midnightblue" d="M1997.57,-817.297C1941.35,-783.379 1736.6,-659.862 1667.19,-617.991"/>
<polygon fill="midnightblue" stroke="midnightblue" points="1668.7,-614.811 1658.33,-612.643 1665.08,-620.805 1668.7,-614.811"/>
</g>
<!-- Node48 -->
<g id="node48" class="node"><title>Node48</title>
<g id="a_node48"><a xlink:href="tir_2expr_8h.html" target="_top" xlink:title="TIR expressions. ">
<polygon fill="white" stroke="black" points="849,-761.5 849,-780.5 929,-780.5 929,-761.5 849,-761.5"/>
<text text-anchor="middle" x="889" y="-768.5" font-family="Helvetica,sans-Serif" font-size="10.00">tvm/tir/expr.h</text>
</a>
</g>
</g>
<!-- Node47&#45;&gt;Node48 -->
<g id="edge164" class="edge"><title>Node47&#45;&gt;Node48</title>
<path fill="none" stroke="midnightblue" d="M1984.26,-822.181C1969.88,-820.337 1952.03,-818.258 1936,-817 1524.51,-784.705 1420.08,-804.568 1008,-781 985.424,-779.709 960.469,-777.883 939.266,-776.213"/>
<polygon fill="midnightblue" stroke="midnightblue" points="939.433,-772.715 929.186,-775.408 938.876,-779.693 939.433,-772.715"/>
</g>
<!-- Node48&#45;&gt;Node4 -->
<g id="edge170" class="edge"><title>Node48&#45;&gt;Node4</title>
<path fill="none" stroke="midnightblue" d="M929.479,-766.663C1044.23,-757.202 1371.38,-730.231 1495.47,-720.001"/>
<polygon fill="midnightblue" stroke="midnightblue" points="1495.77,-723.488 1505.44,-719.179 1495.19,-716.512 1495.77,-723.488"/>
</g>
<!-- Node48&#45;&gt;Node7 -->
<g id="edge168" class="edge"><title>Node48&#45;&gt;Node7</title>
<path fill="none" stroke="midnightblue" d="M848.713,-768.9C728.07,-765.311 375.345,-752.547 332,-725 233.47,-662.382 266.667,-873.711 176,-255 161.616,-156.843 262.479,-156.1 356,-123 467.201,-83.6423 604.987,-74.0966 688.067,-72.2468"/>
<polygon fill="midnightblue" stroke="midnightblue" points="688.239,-75.7442 698.171,-72.0539 688.106,-68.7455 688.239,-75.7442"/>
</g>
<!-- Node48&#45;&gt;Node12 -->
<g id="edge171" class="edge"><title>Node48&#45;&gt;Node12</title>
<path fill="none" stroke="midnightblue" d="M929.354,-770.594C1037.5,-771.504 1342.47,-769.58 1591,-725 1676.39,-709.682 1695.44,-695.651 1778,-669 1948.54,-613.949 1987.3,-588.337 2159,-537 2178.98,-531.025 2503.07,-451.149 2523,-445 2605.76,-419.465 2654,-447.269 2706,-378 2772.55,-289.343 2741.9,-142.217 2728.29,-90.8627"/>
<polygon fill="midnightblue" stroke="midnightblue" points="2731.65,-89.8759 2725.62,-81.1662 2724.9,-91.7369 2731.65,-89.8759"/>
</g>
<!-- Node48&#45;&gt;Node13 -->
<g id="edge176" class="edge"><title>Node48&#45;&gt;Node13</title>
<path fill="none" stroke="midnightblue" d="M892.926,-761.353C899.14,-748.248 912.176,-722.98 928,-705 954.552,-674.83 962.748,-666.35 999,-649 1097.19,-602.008 1954,-539.353 1954,-430.5 1954,-430.5 1954,-430.5 1954,-367 1954,-202.409 1724.04,-110.272 1639.61,-81.9901"/>
<polygon fill="midnightblue" stroke="midnightblue" points="1640.65,-78.6488 1630.06,-78.8571 1638.47,-85.3001 1640.65,-78.6488"/>
</g>
<!-- Node48&#45;&gt;Node15 -->
<g id="edge165" class="edge"><title>Node48&#45;&gt;Node15</title>
<path fill="none" stroke="midnightblue" d="M888.157,-761.247C886.563,-739.608 885.44,-682.899 913,-649 974.797,-572.99 1094.34,-553.497 1166.48,-548.908"/>
<polygon fill="midnightblue" stroke="midnightblue" points="1166.97,-552.386 1176.76,-548.334 1166.58,-545.396 1166.97,-552.386"/>
</g>
<!-- Node48&#45;&gt;Node22 -->
<g id="edge173" class="edge"><title>Node48&#45;&gt;Node22</title>
<path fill="none" stroke="midnightblue" d="M848.672,-768.741C747.628,-765.192 485.875,-753.451 404,-725 353.929,-707.6 304,-713.008 304,-660 304,-660 304,-660 304,-305.5 304,-273.049 300.761,-258.633 323,-235 343.058,-213.685 373.51,-202.464 400.318,-196.557"/>
<polygon fill="midnightblue" stroke="midnightblue" points="401.266,-199.937 410.385,-194.544 399.893,-193.073 401.266,-199.937"/>
</g>
<!-- Node48&#45;&gt;Node24 -->
<g id="edge169" class="edge"><title>Node48&#45;&gt;Node24</title>
<path fill="none" stroke="midnightblue" d="M848.934,-768.908C755.404,-765.871 525.294,-755.444 455,-725 414.523,-707.47 380,-704.11 380,-660 380,-660 380,-660 380,-367 380,-330.238 389.097,-288.025 395.021,-264.435"/>
<polygon fill="midnightblue" stroke="midnightblue" points="398.417,-265.283 397.548,-254.724 391.642,-263.52 398.417,-265.283"/>
</g>
<!-- Node48&#45;&gt;Node27 -->
<g id="edge175" class="edge"><title>Node48&#45;&gt;Node27</title>
<path fill="none" stroke="midnightblue" d="M896.461,-761.277C916.843,-738.139 976.279,-675.191 1041,-649 1194.57,-586.856 1247.44,-632.08 1412,-613 1504.44,-602.282 1736.98,-580.572 1827,-557 1859.61,-548.46 1940.42,-520.395 1968,-501 2067.43,-431.07 2152.46,-308.679 2181.94,-263.446"/>
<polygon fill="midnightblue" stroke="midnightblue" points="2185.05,-265.09 2187.52,-254.787 2179.16,-261.3 2185.05,-265.09"/>
</g>
<!-- Node48&#45;&gt;Node29 -->
<g id="edge167" class="edge"><title>Node48&#45;&gt;Node29</title>
<path fill="none" stroke="midnightblue" d="M848.843,-769.162C734.942,-765.706 418,-748.17 418,-660 418,-660 418,-660 418,-546 418,-382.465 640.995,-288.86 730.994,-257.741"/>
<polygon fill="midnightblue" stroke="midnightblue" points="732.19,-261.031 740.536,-254.504 729.942,-254.402 732.19,-261.031"/>
</g>
<!-- Node48&#45;&gt;Node30 -->
<g id="edge166" class="edge"><title>Node48&#45;&gt;Node30</title>
<path fill="none" stroke="midnightblue" d="M880.833,-761.384C865.072,-743.812 832,-701.942 832,-660 832,-660 832,-660 832,-602 832,-448.958 1051.7,-394.993 1167.87,-377.155"/>
<polygon fill="midnightblue" stroke="midnightblue" points="1168.72,-380.568 1178.09,-375.637 1167.69,-373.644 1168.72,-380.568"/>
</g>
<!-- Node48&#45;&gt;Node34 -->
<g id="edge174" class="edge"><title>Node48&#45;&gt;Node34</title>
<path fill="none" stroke="midnightblue" d="M848.921,-764.784C763.245,-752.512 570,-718.362 570,-660 570,-660 570,-660 570,-546 570,-505.405 601.802,-466.696 622.225,-446.022"/>
<polygon fill="midnightblue" stroke="midnightblue" points="624.693,-448.504 629.406,-439.015 619.804,-443.494 624.693,-448.504"/>
</g>
<!-- Node48&#45;&gt;Node37 -->
<g id="edge172" class="edge"><title>Node48&#45;&gt;Node37</title>
<path fill="none" stroke="midnightblue" d="M915.491,-761.359C938.171,-753.431 971.295,-740.573 998,-725 1022.77,-710.553 1048.31,-689.441 1064.4,-675.234"/>
<polygon fill="midnightblue" stroke="midnightblue" points="1066.79,-677.79 1071.9,-668.507 1062.12,-672.58 1066.79,-677.79"/>
</g>
<!-- Node49&#45;&gt;Node2 -->
<g id="edge186" class="edge"><title>Node49&#45;&gt;Node2</title>
<path fill="none" stroke="midnightblue" d="M2152.67,-990.657C2181.32,-985.849 2226.8,-974.555 2257,-949 2308.75,-905.202 2337.19,-826.182 2347.93,-790.442"/>
<polygon fill="midnightblue" stroke="midnightblue" points="2351.3,-791.405 2350.71,-780.827 2344.57,-789.465 2351.3,-791.405"/>
</g>
<!-- Node49&#45;&gt;Node12 -->
<g id="edge190" class="edge"><title>Node49&#45;&gt;Node12</title>
<path fill="none" stroke="midnightblue" d="M2152.68,-991.501C2200.32,-986.574 2302.83,-973.863 2386,-949 2577.69,-891.701 3122,-630.566 3122,-430.5 3122,-430.5 3122,-430.5 3122,-188 3122,-143.553 3086.38,-141.582 3046,-123 2947.26,-77.5595 2815.5,-71.8439 2755.37,-71.8482"/>
<polygon fill="midnightblue" stroke="midnightblue" points="2755.32,-68.3484 2745.34,-71.9035 2755.36,-75.3482 2755.32,-68.3484"/>
</g>
<!-- Node49&#45;&gt;Node36 -->
<g id="edge181" class="edge"><title>Node49&#45;&gt;Node36</title>
<path fill="none" stroke="midnightblue" d="M2099.41,-990.385C2050.31,-983.541 1942.16,-967.69 1852,-949 1751.94,-928.257 1723.72,-931.359 1629,-893 1536.72,-855.628 1484.78,-867.221 1435,-781 1409.72,-737.213 1473.36,-694.352 1511.97,-673.358"/>
<polygon fill="midnightblue" stroke="midnightblue" points="1513.97,-676.264 1521.18,-668.504 1510.7,-670.071 1513.97,-676.264"/>
</g>
<!-- Node49&#45;&gt;Node40 -->
<g id="edge187" class="edge"><title>Node49&#45;&gt;Node40</title>
<path fill="none" stroke="midnightblue" d="M2152.68,-990.859C2236.65,-979.53 2497.95,-933.038 2633,-781 2735.93,-665.125 2651.91,-450.616 2623.51,-387.143"/>
<polygon fill="midnightblue" stroke="midnightblue" points="2626.53,-385.33 2619.19,-377.692 2620.17,-388.241 2626.53,-385.33"/>
</g>
<!-- Node49&#45;&gt;Node41 -->
<g id="edge185" class="edge"><title>Node49&#45;&gt;Node41</title>
<path fill="none" stroke="midnightblue" d="M2136.12,-985.324C2145.53,-977.263 2159.74,-965.077 2171.07,-955.369"/>
<polygon fill="midnightblue" stroke="midnightblue" points="2173.38,-957.999 2178.69,-948.834 2168.82,-952.684 2173.38,-957.999"/>
</g>
<!-- Node49&#45;&gt;Node46 -->
<g id="edge188" class="edge"><title>Node49&#45;&gt;Node46</title>
<path fill="none" stroke="midnightblue" d="M2124.24,-985.176C2121.97,-972.682 2118.47,-949.114 2120,-929 2125.35,-858.615 2144,-842.588 2144,-772 2144,-772 2144,-772 2144,-658 2144,-618.61 2177.07,-582.726 2199,-563.264"/>
<polygon fill="midnightblue" stroke="midnightblue" points="2201.43,-565.79 2206.76,-556.636 2196.88,-560.466 2201.43,-565.79"/>
</g>
<!-- Node49&#45;&gt;Node47 -->
<g id="edge191" class="edge"><title>Node49&#45;&gt;Node47</title>
<path fill="none" stroke="midnightblue" d="M2101.91,-985.435C2084.84,-978.202 2062.64,-966.243 2049,-949 2024.89,-918.524 2016.43,-872.386 2013.51,-846.786"/>
<polygon fill="midnightblue" stroke="midnightblue" points="2016.97,-846.213 2012.52,-836.599 2010,-846.891 2016.97,-846.213"/>
</g>
<!-- Node49&#45;&gt;Node48 -->
<g id="edge189" class="edge"><title>Node49&#45;&gt;Node48</title>
<path fill="none" stroke="midnightblue" d="M2099.21,-990.799C2006.69,-979.593 1692.27,-940.245 1435,-893 1247.23,-858.519 1025.79,-805.622 933.182,-782.942"/>
<polygon fill="midnightblue" stroke="midnightblue" points="933.864,-779.506 923.318,-780.521 932.196,-786.304 933.864,-779.506"/>
</g>
<!-- Node50 -->
<g id="node50" class="node"><title>Node50</title>
<g id="a_node50"><a xlink:href="tensor__type_8h.html" target="_top" xlink:title="Polymorphic tensor types. ">
<polygon fill="white" stroke="black" points="1444.5,-761.5 1444.5,-780.5 1557.5,-780.5 1557.5,-761.5 1444.5,-761.5"/>
<text text-anchor="middle" x="1501" y="-768.5" font-family="Helvetica,sans-Serif" font-size="10.00">tvm/ir/tensor_type.h</text>
</a>
</g>
</g>
<!-- Node49&#45;&gt;Node50 -->
<g id="edge182" class="edge"><title>Node49&#45;&gt;Node50</title>
<path fill="none" stroke="midnightblue" d="M2099.24,-987.289C2050.3,-975.095 1943.02,-948.741 1852,-929 1770.99,-911.43 1745.05,-925.982 1669,-893 1607.17,-866.185 1545.79,-813.744 1517.37,-787.597"/>
<polygon fill="midnightblue" stroke="midnightblue" points="1519.65,-784.935 1509.95,-780.673 1514.87,-790.054 1519.65,-784.935"/>
</g>
<!-- Node50&#45;&gt;Node4 -->
<g id="edge184" class="edge"><title>Node50&#45;&gt;Node4</title>
<path fill="none" stroke="midnightblue" d="M1508.1,-761.083C1514.24,-753.377 1523.27,-742.033 1530.74,-732.653"/>
<polygon fill="midnightblue" stroke="midnightblue" points="1533.54,-734.754 1537.03,-724.751 1528.06,-730.394 1533.54,-734.754"/>
</g>
<!-- Node50&#45;&gt;Node36 -->
<g id="edge183" class="edge"><title>Node50&#45;&gt;Node36</title>
<path fill="none" stroke="midnightblue" d="M1497.93,-761.215C1493.97,-748.362 1488.42,-723.909 1496,-705 1500.68,-693.328 1509.99,-682.969 1518.76,-675.141"/>
<polygon fill="midnightblue" stroke="midnightblue" points="1521.05,-677.783 1526.5,-668.698 1516.58,-672.401 1521.05,-677.783"/>
</g>
</g>
</svg>
