<?xml version="1.0" encoding="UTF-8" standalone="no"?>
<!DOCTYPE svg PUBLIC "-//W3C//DTD SVG 1.1//EN"
 "http://www.w3.org/Graphics/SVG/1.1/DTD/svg11.dtd">
<!-- Generated by graphviz version 2.38.0 (20140413.2041)
 -->
<!-- Title: include/tvm/relay/function.h Pages: 1 -->
<svg width="3244pt" height="1125pt"
 viewBox="0.00 0.00 3244.00 1125.00" xmlns="http://www.w3.org/2000/svg" xmlns:xlink="http://www.w3.org/1999/xlink">
<g id="graph0" class="graph" transform="scale(1 1) rotate(0) translate(4 1121)">
<title>include/tvm/relay/function.h</title>
<polygon fill="white" stroke="none" points="-4,4 -4,-1121 3240,-1121 3240,4 -4,4"/>
<!-- Node1 -->
<g id="node1" class="node"><title>Node1</title>
<polygon fill="#bfbfbf" stroke="black" points="2270.5,-1097.5 2270.5,-1116.5 2419.5,-1116.5 2419.5,-1097.5 2270.5,-1097.5"/>
<text text-anchor="middle" x="2345" y="-1104.5" font-family="Helvetica,sans-Serif" font-size="10.00">include/tvm/relay/function.h</text>
</g>
<!-- Node2 -->
<g id="node2" class="node"><title>Node2</title>
<g id="a_node2"><a xlink:href="ir_2function_8h.html" target="_top" xlink:title="Function nodes. ">
<polygon fill="white" stroke="black" points="2020.5,-817.5 2020.5,-836.5 2115.5,-836.5 2115.5,-817.5 2020.5,-817.5"/>
<text text-anchor="middle" x="2068" y="-824.5" font-family="Helvetica,sans-Serif" font-size="10.00">tvm/ir/function.h</text>
</a>
</g>
</g>
<!-- Node1&#45;&gt;Node2 -->
<g id="edge1" class="edge"><title>Node1&#45;&gt;Node2</title>
<path fill="none" stroke="midnightblue" d="M2323.37,-1097.5C2287.85,-1082.76 2216.3,-1049.69 2168,-1005 2117.97,-958.715 2086.52,-881.548 2074.08,-846.422"/>
<polygon fill="midnightblue" stroke="midnightblue" points="2077.27,-844.914 2070.71,-836.587 2070.64,-847.182 2077.27,-844.914"/>
</g>
<!-- Node10 -->
<g id="node10" class="node"><title>Node10</title>
<polygon fill="white" stroke="#bfbfbf" points="2720,-62 2720,-81 2764,-81 2764,-62 2720,-62"/>
<text text-anchor="middle" x="2742" y="-69" font-family="Helvetica,sans-Serif" font-size="10.00">string</text>
</g>
<!-- Node1&#45;&gt;Node10 -->
<g id="edge193" class="edge"><title>Node1&#45;&gt;Node10</title>
<path fill="none" stroke="midnightblue" d="M2419.82,-1104.57C2634.29,-1099.5 3236,-1077.97 3236,-996 3236,-996 3236,-996 3236,-188 3236,-151.553 3217.73,-140.925 3186,-123 3115.41,-83.1269 2864.14,-74.6998 2774.26,-72.9495"/>
<polygon fill="midnightblue" stroke="midnightblue" points="2774.18,-69.4477 2764.12,-72.7675 2774.06,-76.4466 2774.18,-69.4477"/>
</g>
<!-- Node38 -->
<g id="node38" class="node"><title>Node38</title>
<g id="a_node38"><a xlink:href="relay_2expr_8h.html" target="_top" xlink:title="Relay expression language. ">
<polygon fill="white" stroke="black" points="2298,-1041.5 2298,-1060.5 2392,-1060.5 2392,-1041.5 2298,-1041.5"/>
<text text-anchor="middle" x="2345" y="-1048.5" font-family="Helvetica,sans-Serif" font-size="10.00">tvm/relay/expr.h</text>
</a>
</g>
</g>
<!-- Node1&#45;&gt;Node38 -->
<g id="edge122" class="edge"><title>Node1&#45;&gt;Node38</title>
<path fill="none" stroke="midnightblue" d="M2345,-1097.08C2345,-1090.01 2345,-1079.86 2345,-1070.99"/>
<polygon fill="midnightblue" stroke="midnightblue" points="2348.5,-1070.75 2345,-1060.75 2341.5,-1070.75 2348.5,-1070.75"/>
</g>
<!-- Node3 -->
<g id="node3" class="node"><title>Node3</title>
<g id="a_node3"><a xlink:href="ir_2expr_8h.html" target="_top" xlink:title="Base expr nodes in TVM. ">
<polygon fill="white" stroke="black" points="1490.5,-705.5 1490.5,-724.5 1567.5,-724.5 1567.5,-705.5 1490.5,-705.5"/>
<text text-anchor="middle" x="1529" y="-712.5" font-family="Helvetica,sans-Serif" font-size="10.00">tvm/ir/expr.h</text>
</a>
</g>
</g>
<!-- Node2&#45;&gt;Node3 -->
<g id="edge2" class="edge"><title>Node2&#45;&gt;Node3</title>
<path fill="none" stroke="midnightblue" d="M2020.25,-817.534C1973.6,-809.059 1900.69,-795.259 1838,-781 1803.52,-773.157 1795.48,-768.815 1761,-761 1698,-746.723 1624.74,-732.986 1577.67,-724.525"/>
<polygon fill="midnightblue" stroke="midnightblue" points="1578.2,-721.065 1567.74,-722.749 1576.97,-727.956 1578.2,-721.065"/>
</g>
<!-- Node9 -->
<g id="node9" class="node"><title>Node9</title>
<polygon fill="white" stroke="#bfbfbf" points="292,-62 292,-81 360,-81 360,-62 292,-62"/>
<text text-anchor="middle" x="326" y="-69" font-family="Helvetica,sans-Serif" font-size="10.00">type_traits</text>
</g>
<!-- Node2&#45;&gt;Node9 -->
<g id="edge120" class="edge"><title>Node2&#45;&gt;Node9</title>
<path fill="none" stroke="midnightblue" d="M2020.31,-822.417C1994.98,-820.604 1963.31,-818.479 1935,-817 1827.5,-811.384 0,-823.646 0,-716 0,-716 0,-716 0,-188 0,-153.605 13.3541,-142.037 42,-123 80.6305,-97.3271 212.055,-82.3665 281.757,-76.0575"/>
<polygon fill="midnightblue" stroke="midnightblue" points="282.329,-79.5206 291.982,-75.154 281.713,-72.5478 282.329,-79.5206"/>
</g>
<!-- Node2&#45;&gt;Node10 -->
<g id="edge121" class="edge"><title>Node2&#45;&gt;Node10</title>
<path fill="none" stroke="midnightblue" d="M2115.5,-825.97C2311.36,-823.143 3046,-784.825 3046,-369 3046,-369 3046,-369 3046,-188 3046,-143.215 3009.13,-142.882 2969,-123 2904.53,-91.0581 2819.81,-79.1154 2774.28,-74.8068"/>
<polygon fill="midnightblue" stroke="midnightblue" points="2774.39,-71.3025 2764.12,-73.9114 2773.77,-78.2755 2774.39,-71.3025"/>
</g>
<!-- Node36 -->
<g id="node36" class="node"><title>Node36</title>
<g id="a_node36"><a xlink:href="ir_2attrs_8h.html" target="_top" xlink:title="Helpers for attribute objects. ">
<polygon fill="white" stroke="black" points="2370.5,-761.5 2370.5,-780.5 2449.5,-780.5 2449.5,-761.5 2370.5,-761.5"/>
<text text-anchor="middle" x="2410" y="-768.5" font-family="Helvetica,sans-Serif" font-size="10.00">tvm/ir/attrs.h</text>
</a>
</g>
</g>
<!-- Node2&#45;&gt;Node36 -->
<g id="edge110" class="edge"><title>Node2&#45;&gt;Node36</title>
<path fill="none" stroke="midnightblue" d="M2115.55,-818.492C2180.01,-808.313 2294.59,-790.223 2360.19,-779.864"/>
<polygon fill="midnightblue" stroke="midnightblue" points="2360.96,-783.287 2370.29,-778.27 2359.86,-776.373 2360.96,-783.287"/>
</g>
<!-- Node4 -->
<g id="node4" class="node"><title>Node4</title>
<g id="a_node4"><a xlink:href="object_8h.html" target="_top" xlink:title="A managed object in the TVM runtime. ">
<polygon fill="white" stroke="black" points="995.5,-123.5 995.5,-142.5 1112.5,-142.5 1112.5,-123.5 995.5,-123.5"/>
<text text-anchor="middle" x="1054" y="-130.5" font-family="Helvetica,sans-Serif" font-size="10.00">tvm/runtime/object.h</text>
</a>
</g>
</g>
<!-- Node3&#45;&gt;Node4 -->
<g id="edge3" class="edge"><title>Node3&#45;&gt;Node4</title>
<path fill="none" stroke="midnightblue" d="M1490.49,-708.29C1440.05,-700.578 1349,-685.841 1272,-669 1237.88,-661.537 1230.38,-655.169 1196,-649 1034.68,-620.053 987.377,-655.165 829,-613 789.208,-602.406 699.202,-549.604 660,-537 583.161,-512.295 553.682,-538.098 482,-501 347.715,-431.503 291.065,-399.64 247,-255 244.41,-246.497 241.122,-241.668 247,-235 312.618,-160.565 591.539,-191.309 690,-179 792.889,-166.137 912.165,-151.43 985.349,-142.43"/>
<polygon fill="midnightblue" stroke="midnightblue" points="985.865,-145.893 995.363,-141.199 985.011,-138.945 985.865,-145.893"/>
</g>
<!-- Node3&#45;&gt;Node9 -->
<g id="edge109" class="edge"><title>Node3&#45;&gt;Node9</title>
<path fill="none" stroke="midnightblue" d="M1490.36,-713.843C1427.04,-712.482 1298.04,-705.047 1196,-669 1179.83,-663.287 1179.29,-654.375 1163,-649 998.962,-594.856 945.046,-648.546 776,-613 621.957,-580.609 584.373,-563.726 440,-501 392.21,-480.236 382.068,-471.152 337,-445 198.932,-364.881 38,-405.63 38,-246 38,-246 38,-246 38,-188 38,-157.205 38.5071,-142.911 62,-123 94.5241,-95.4354 215.118,-81.4923 281.488,-75.7687"/>
<polygon fill="midnightblue" stroke="midnightblue" points="281.979,-79.24 291.653,-74.9198 281.396,-72.2643 281.979,-79.24"/>
</g>
<!-- Node3&#45;&gt;Node10 -->
<g id="edge106" class="edge"><title>Node3&#45;&gt;Node10</title>
<path fill="none" stroke="midnightblue" d="M1567.69,-710.558C1625.13,-704.914 1736.07,-691.96 1828,-669 1998.61,-626.387 2033.24,-589.716 2201,-537 2347.89,-490.842 2390.62,-498.494 2535,-445 2638.57,-406.628 2742,-417.947 2742,-307.5 2742,-307.5 2742,-307.5 2742,-188 2742,-153.864 2742,-114.052 2742,-91.2092"/>
<polygon fill="midnightblue" stroke="midnightblue" points="2745.5,-91.1934 2742,-81.1934 2738.5,-91.1934 2745.5,-91.1934"/>
</g>
<!-- Node13 -->
<g id="node13" class="node"><title>Node13</title>
<g id="a_node13"><a xlink:href="node_8h.html" target="_top" xlink:title="Definitions and helper macros for IR/AST nodes. ">
<polygon fill="white" stroke="black" points="1316,-537.5 1316,-556.5 1414,-556.5 1414,-537.5 1316,-537.5"/>
<text text-anchor="middle" x="1365" y="-544.5" font-family="Helvetica,sans-Serif" font-size="10.00">tvm/node/node.h</text>
</a>
</g>
</g>
<!-- Node3&#45;&gt;Node13 -->
<g id="edge12" class="edge"><title>Node3&#45;&gt;Node13</title>
<path fill="none" stroke="midnightblue" d="M1521.11,-705.299C1502.74,-685.14 1455.54,-633.837 1414,-593 1403.81,-582.98 1392.02,-572.132 1382.56,-563.598"/>
<polygon fill="midnightblue" stroke="midnightblue" points="1384.73,-560.841 1374.94,-556.773 1380.05,-566.054 1384.73,-560.841"/>
</g>
<!-- Node25 -->
<g id="node25" class="node"><title>Node25</title>
<polygon fill="white" stroke="#bfbfbf" points="256,-235.5 256,-254.5 298,-254.5 298,-235.5 256,-235.5"/>
<text text-anchor="middle" x="277" y="-242.5" font-family="Helvetica,sans-Serif" font-size="10.00">limits</text>
</g>
<!-- Node3&#45;&gt;Node25 -->
<g id="edge108" class="edge"><title>Node3&#45;&gt;Node25</title>
<path fill="none" stroke="midnightblue" d="M1501.16,-705.474C1454.32,-691.467 1356.57,-663.677 1272,-649 1107.47,-620.445 1060.61,-650.998 898,-613 805.404,-591.363 788.42,-566.433 698,-537 640.177,-518.178 620.98,-526.981 566,-501 439.826,-441.376 327.424,-309.656 290.097,-262.883"/>
<polygon fill="midnightblue" stroke="midnightblue" points="292.773,-260.625 283.832,-254.941 287.277,-264.96 292.773,-260.625"/>
</g>
<!-- Node28 -->
<g id="node28" class="node"><title>Node28</title>
<g id="a_node28"><a xlink:href="node_2container_8h.html" target="_top" xlink:title="Array/Map container in the DSL graph. ">
<polygon fill="white" stroke="black" points="1312.5,-358.5 1312.5,-377.5 1431.5,-377.5 1431.5,-358.5 1312.5,-358.5"/>
<text text-anchor="middle" x="1372" y="-365.5" font-family="Helvetica,sans-Serif" font-size="10.00">tvm/node/container.h</text>
</a>
</g>
</g>
<!-- Node3&#45;&gt;Node28 -->
<g id="edge94" class="edge"><title>Node3&#45;&gt;Node28</title>
<path fill="none" stroke="midnightblue" d="M1525.12,-705.472C1504.63,-660.449 1408.9,-450.087 1380.17,-386.957"/>
<polygon fill="midnightblue" stroke="midnightblue" points="1383.21,-385.191 1375.89,-377.539 1376.84,-388.09 1383.21,-385.191"/>
</g>
<!-- Node33 -->
<g id="node33" class="node"><title>Node33</title>
<g id="a_node33"><a xlink:href="span_8h.html" target="_top" xlink:title="Span information for debugging purposes. ">
<polygon fill="white" stroke="black" points="1325,-593.5 1325,-612.5 1405,-612.5 1405,-593.5 1325,-593.5"/>
<text text-anchor="middle" x="1365" y="-600.5" font-family="Helvetica,sans-Serif" font-size="10.00">tvm/ir/span.h</text>
</a>
</g>
</g>
<!-- Node3&#45;&gt;Node33 -->
<g id="edge95" class="edge"><title>Node3&#45;&gt;Node33</title>
<path fill="none" stroke="midnightblue" d="M1497.04,-705.487C1473.88,-698.281 1442.62,-686.331 1419,-669 1401.15,-655.901 1385.57,-635.653 1375.8,-621.239"/>
<polygon fill="midnightblue" stroke="midnightblue" points="1378.65,-619.2 1370.25,-612.743 1372.79,-623.029 1378.65,-619.2"/>
</g>
<!-- Node34 -->
<g id="node34" class="node"><title>Node34</title>
<g id="a_node34"><a xlink:href="ir_2type_8h.html" target="_top" xlink:title="IR/AST nodes for the unified type system in TVM. ">
<polygon fill="white" stroke="black" points="1742.5,-649.5 1742.5,-668.5 1819.5,-668.5 1819.5,-649.5 1742.5,-649.5"/>
<text text-anchor="middle" x="1781" y="-656.5" font-family="Helvetica,sans-Serif" font-size="10.00">tvm/ir/type.h</text>
</a>
</g>
</g>
<!-- Node3&#45;&gt;Node34 -->
<g id="edge99" class="edge"><title>Node3&#45;&gt;Node34</title>
<path fill="none" stroke="midnightblue" d="M1567.55,-705.74C1611.83,-696.251 1684.54,-680.67 1732.6,-670.372"/>
<polygon fill="midnightblue" stroke="midnightblue" points="1733.41,-673.777 1742.46,-668.259 1731.95,-666.932 1733.41,-673.777"/>
</g>
<!-- Node35 -->
<g id="node35" class="node"><title>Node35</title>
<polygon fill="white" stroke="#bfbfbf" points="1092,-649.5 1092,-668.5 1154,-668.5 1154,-649.5 1092,-649.5"/>
<text text-anchor="middle" x="1123" y="-656.5" font-family="Helvetica,sans-Serif" font-size="10.00">algorithm</text>
</g>
<!-- Node3&#45;&gt;Node35 -->
<g id="edge107" class="edge"><title>Node3&#45;&gt;Node35</title>
<path fill="none" stroke="midnightblue" d="M1490.4,-710.129C1424.21,-703.281 1284.9,-687.949 1168,-669 1166.9,-668.822 1165.78,-668.636 1164.66,-668.444"/>
<polygon fill="midnightblue" stroke="midnightblue" points="1164.88,-664.927 1154.42,-666.589 1163.63,-671.815 1164.88,-664.927"/>
</g>
<!-- Node5 -->
<g id="node5" class="node"><title>Node5</title>
<polygon fill="white" stroke="#bfbfbf" points="709,-62 709,-81 795,-81 795,-62 709,-62"/>
<text text-anchor="middle" x="752" y="-69" font-family="Helvetica,sans-Serif" font-size="10.00">dmlc/logging.h</text>
</g>
<!-- Node4&#45;&gt;Node5 -->
<g id="edge4" class="edge"><title>Node4&#45;&gt;Node5</title>
<path fill="none" stroke="midnightblue" d="M1010.73,-123.475C956.572,-112.805 863.834,-94.5335 805.339,-83.0089"/>
<polygon fill="midnightblue" stroke="midnightblue" points="805.677,-79.5082 795.189,-81.0091 804.324,-86.3762 805.677,-79.5082"/>
</g>
<!-- Node6 -->
<g id="node6" class="node"><title>Node6</title>
<g id="a_node6"><a xlink:href="c__runtime__api_8h.html" target="_top" xlink:title="tvm/runtime/c_runtime\l_api.h">
<polygon fill="white" stroke="red" points="898.5,-56.5 898.5,-86.5 1025.5,-86.5 1025.5,-56.5 898.5,-56.5"/>
<text text-anchor="start" x="906.5" y="-74.5" font-family="Helvetica,sans-Serif" font-size="10.00">tvm/runtime/c_runtime</text>
<text text-anchor="middle" x="962" y="-63.5" font-family="Helvetica,sans-Serif" font-size="10.00">_api.h</text>
</a>
</g>
</g>
<!-- Node4&#45;&gt;Node6 -->
<g id="edge5" class="edge"><title>Node4&#45;&gt;Node6</title>
<path fill="none" stroke="midnightblue" d="M1040.82,-123.475C1028.24,-115.341 1008.84,-102.791 992.428,-92.1788"/>
<polygon fill="midnightblue" stroke="midnightblue" points="993.98,-89.0147 983.683,-86.523 990.179,-94.8926 993.98,-89.0147"/>
</g>
<!-- Node4&#45;&gt;Node9 -->
<g id="edge8" class="edge"><title>Node4&#45;&gt;Node9</title>
<path fill="none" stroke="midnightblue" d="M995.349,-127.206C853.674,-115.627 495.269,-86.3345 370.021,-76.0979"/>
<polygon fill="midnightblue" stroke="midnightblue" points="370.272,-72.6068 360.021,-75.2805 369.702,-79.5836 370.272,-72.6068"/>
</g>
<!-- Node4&#45;&gt;Node10 -->
<g id="edge9" class="edge"><title>Node4&#45;&gt;Node10</title>
<path fill="none" stroke="midnightblue" d="M1112.59,-129.935C1382.87,-120.408 2504.72,-80.8639 2709.75,-73.6367"/>
<polygon fill="midnightblue" stroke="midnightblue" points="2710,-77.1304 2719.87,-73.2802 2709.75,-70.1347 2710,-77.1304"/>
</g>
<!-- Node11 -->
<g id="node11" class="node"><title>Node11</title>
<polygon fill="white" stroke="#bfbfbf" points="1701,-62 1701,-81 1743,-81 1743,-62 1701,-62"/>
<text text-anchor="middle" x="1722" y="-69" font-family="Helvetica,sans-Serif" font-size="10.00">utility</text>
</g>
<!-- Node4&#45;&gt;Node11 -->
<g id="edge10" class="edge"><title>Node4&#45;&gt;Node11</title>
<path fill="none" stroke="midnightblue" d="M1112.7,-126.772C1249.53,-114.584 1585.98,-84.6154 1690.5,-75.3056"/>
<polygon fill="midnightblue" stroke="midnightblue" points="1691.06,-78.7701 1700.71,-74.3966 1690.44,-71.7977 1691.06,-78.7701"/>
</g>
<!-- Node12 -->
<g id="node12" class="node"><title>Node12</title>
<polygon fill="white" stroke="#bfbfbf" points="1121,-62 1121,-81 1171,-81 1171,-62 1121,-62"/>
<text text-anchor="middle" x="1146" y="-69" font-family="Helvetica,sans-Serif" font-size="10.00">atomic</text>
</g>
<!-- Node4&#45;&gt;Node12 -->
<g id="edge11" class="edge"><title>Node4&#45;&gt;Node12</title>
<path fill="none" stroke="midnightblue" d="M1067.18,-123.475C1082.07,-113.843 1106.54,-98.0175 1124.27,-86.5517"/>
<polygon fill="midnightblue" stroke="midnightblue" points="1126.35,-89.3787 1132.84,-81.0091 1122.55,-83.5008 1126.35,-89.3787"/>
</g>
<!-- Node7 -->
<g id="node7" class="node"><title>Node7</title>
<polygon fill="white" stroke="#bfbfbf" points="872,-0.5 872,-19.5 962,-19.5 962,-0.5 872,-0.5"/>
<text text-anchor="middle" x="917" y="-7.5" font-family="Helvetica,sans-Serif" font-size="10.00">dlpack/dlpack.h</text>
</g>
<!-- Node6&#45;&gt;Node7 -->
<g id="edge6" class="edge"><title>Node6&#45;&gt;Node7</title>
<path fill="none" stroke="midnightblue" d="M951.336,-56.3993C944.864,-47.8424 936.566,-36.8708 929.749,-27.857"/>
<polygon fill="midnightblue" stroke="midnightblue" points="932.372,-25.5223 923.548,-19.6578 926.789,-29.7449 932.372,-25.5223"/>
</g>
<!-- Node8 -->
<g id="node8" class="node"><title>Node8</title>
<polygon fill="white" stroke="#bfbfbf" points="980.5,-0.5 980.5,-19.5 1033.5,-19.5 1033.5,-0.5 980.5,-0.5"/>
<text text-anchor="middle" x="1007" y="-7.5" font-family="Helvetica,sans-Serif" font-size="10.00">stdint.h</text>
</g>
<!-- Node6&#45;&gt;Node8 -->
<g id="edge7" class="edge"><title>Node6&#45;&gt;Node8</title>
<path fill="none" stroke="midnightblue" d="M972.664,-56.3993C979.136,-47.8424 987.434,-36.8708 994.251,-27.857"/>
<polygon fill="midnightblue" stroke="midnightblue" points="997.211,-29.7449 1000.45,-19.6578 991.628,-25.5223 997.211,-29.7449"/>
</g>
<!-- Node13&#45;&gt;Node4 -->
<g id="edge14" class="edge"><title>Node13&#45;&gt;Node4</title>
<path fill="none" stroke="midnightblue" d="M1315.97,-542.429C1188,-530.061 845.623,-476.65 727,-255 673.404,-154.855 874.06,-136.51 985.041,-133.854"/>
<polygon fill="midnightblue" stroke="midnightblue" points="985.235,-137.35 995.162,-133.649 985.093,-130.352 985.235,-137.35"/>
</g>
<!-- Node13&#45;&gt;Node6 -->
<g id="edge13" class="edge"><title>Node13&#45;&gt;Node6</title>
<path fill="none" stroke="midnightblue" d="M1315.98,-546.522C1171.33,-544.984 747.854,-517.533 611,-255 551.307,-140.488 768.634,-95.7391 888.265,-80.0479"/>
<polygon fill="midnightblue" stroke="midnightblue" points="888.989,-83.4841 898.467,-78.749 888.105,-76.5401 888.989,-83.4841"/>
</g>
<!-- Node13&#45;&gt;Node9 -->
<g id="edge93" class="edge"><title>Node13&#45;&gt;Node9</title>
<path fill="none" stroke="midnightblue" d="M1315.8,-545.257C1230.65,-543.077 1050.75,-534.521 903,-501 792.761,-475.989 771.699,-448.339 664,-414 606.473,-395.658 590.368,-396.834 533,-378 466.969,-356.321 450.84,-349.467 387,-322 323.635,-294.738 283.771,-313.363 247,-255 211.031,-197.911 276.025,-121.624 308.789,-88.7238"/>
<polygon fill="midnightblue" stroke="midnightblue" points="311.643,-90.8276 316.343,-81.3323 306.748,-85.8242 311.643,-90.8276"/>
</g>
<!-- Node13&#45;&gt;Node10 -->
<g id="edge90" class="edge"><title>Node13&#45;&gt;Node10</title>
<path fill="none" stroke="midnightblue" d="M1414.27,-545.105C1505.71,-542.682 1707.53,-533.75 1874,-501 2137.87,-449.089 2199.75,-415.218 2452,-322 2531.92,-292.466 2628,-331.204 2628,-246 2628,-246 2628,-246 2628,-188 2628,-139.198 2680.19,-103.559 2713.95,-85.6129"/>
<polygon fill="midnightblue" stroke="midnightblue" points="2715.61,-88.6934 2722.92,-81.024 2712.42,-82.4611 2715.61,-88.6934"/>
</g>
<!-- Node13&#45;&gt;Node11 -->
<g id="edge92" class="edge"><title>Node13&#45;&gt;Node11</title>
<path fill="none" stroke="midnightblue" d="M1414.19,-542.555C1526.81,-534.489 1796.69,-514.073 1836,-501 1941.88,-465.791 2158.44,-316.871 2190,-255 2276.94,-84.5555 1871.11,-72.2169 1753.29,-72.1726"/>
<polygon fill="midnightblue" stroke="midnightblue" points="1753.11,-68.673 1743.12,-72.2 1753.13,-75.673 1753.11,-68.673"/>
</g>
<!-- Node14 -->
<g id="node14" class="node"><title>Node14</title>
<g id="a_node14"><a xlink:href="runtime_2memory_8h.html" target="_top" xlink:title="Runtime memory management. ">
<polygon fill="white" stroke="red" points="1036.5,-179.5 1036.5,-198.5 1163.5,-198.5 1163.5,-179.5 1036.5,-179.5"/>
<text text-anchor="middle" x="1100" y="-186.5" font-family="Helvetica,sans-Serif" font-size="10.00">tvm/runtime/memory.h</text>
</a>
</g>
</g>
<!-- Node13&#45;&gt;Node14 -->
<g id="edge15" class="edge"><title>Node13&#45;&gt;Node14</title>
<path fill="none" stroke="midnightblue" d="M1320.26,-537.451C1248.01,-520.971 1107.74,-477.264 1048,-378 1013.84,-321.243 1062.25,-241.459 1086.98,-206.975"/>
<polygon fill="midnightblue" stroke="midnightblue" points="1090.11,-208.628 1093.24,-198.506 1084.48,-204.467 1090.11,-208.628"/>
</g>
<!-- Node15 -->
<g id="node15" class="node"><title>Node15</title>
<g id="a_node15"><a xlink:href="reflection_8h.html" target="_top" xlink:title="Reflection and serialization of compiler IR/AST nodes. ">
<polygon fill="white" stroke="black" points="1675.5,-481.5 1675.5,-500.5 1794.5,-500.5 1794.5,-481.5 1675.5,-481.5"/>
<text text-anchor="middle" x="1735" y="-488.5" font-family="Helvetica,sans-Serif" font-size="10.00">tvm/node/reflection.h</text>
</a>
</g>
</g>
<!-- Node13&#45;&gt;Node15 -->
<g id="edge19" class="edge"><title>Node13&#45;&gt;Node15</title>
<path fill="none" stroke="midnightblue" d="M1414.13,-538.829C1478.91,-529.376 1593.2,-512.695 1666.45,-502.004"/>
<polygon fill="midnightblue" stroke="midnightblue" points="1667.12,-505.445 1676.5,-500.537 1666.1,-498.518 1667.12,-505.445"/>
</g>
<!-- Node19 -->
<g id="node19" class="node"><title>Node19</title>
<polygon fill="white" stroke="#bfbfbf" points="2006.5,-179.5 2006.5,-198.5 2053.5,-198.5 2053.5,-179.5 2006.5,-179.5"/>
<text text-anchor="middle" x="2030" y="-186.5" font-family="Helvetica,sans-Serif" font-size="10.00">vector</text>
</g>
<!-- Node13&#45;&gt;Node19 -->
<g id="edge91" class="edge"><title>Node13&#45;&gt;Node19</title>
<path fill="none" stroke="midnightblue" d="M1414.17,-541.88C1524.95,-532.471 1785.78,-509.558 1803,-501 1933.56,-436.116 1963.65,-389.46 2020,-255 2026.14,-240.34 2028.56,-222.402 2029.49,-209.086"/>
<polygon fill="midnightblue" stroke="midnightblue" points="2033,-208.928 2029.98,-198.773 2026.01,-208.597 2033,-208.928"/>
</g>
<!-- Node26 -->
<g id="node26" class="node"><title>Node26</title>
<g id="a_node26"><a xlink:href="structural__equal_8h.html" target="_top" xlink:title="Structural equality comparison. ">
<polygon fill="white" stroke="black" points="1225.5,-414.5 1225.5,-444.5 1336.5,-444.5 1336.5,-414.5 1225.5,-414.5"/>
<text text-anchor="start" x="1233.5" y="-432.5" font-family="Helvetica,sans-Serif" font-size="10.00">tvm/node/structural</text>
<text text-anchor="middle" x="1281" y="-421.5" font-family="Helvetica,sans-Serif" font-size="10.00">_equal.h</text>
</a>
</g>
</g>
<!-- Node13&#45;&gt;Node26 -->
<g id="edge88" class="edge"><title>Node13&#45;&gt;Node26</title>
<path fill="none" stroke="midnightblue" d="M1358.69,-537.319C1345.79,-519.579 1316.04,-478.682 1297.33,-452.951"/>
<polygon fill="midnightblue" stroke="midnightblue" points="1299.93,-450.574 1291.21,-444.545 1294.27,-454.691 1299.93,-450.574"/>
</g>
<!-- Node13&#45;&gt;Node28 -->
<g id="edge87" class="edge"><title>Node13&#45;&gt;Node28</title>
<path fill="none" stroke="midnightblue" d="M1365.34,-537.463C1366.41,-510.428 1369.74,-426.239 1371.24,-388.109"/>
<polygon fill="midnightblue" stroke="midnightblue" points="1374.75,-387.999 1371.65,-377.868 1367.76,-387.722 1374.75,-387.999"/>
</g>
<!-- Node30 -->
<g id="node30" class="node"><title>Node30</title>
<g id="a_node30"><a xlink:href="structural__hash_8h.html" target="_top" xlink:title="tvm/node/structural\l_hash.h">
<polygon fill="white" stroke="black" points="1507.5,-414.5 1507.5,-444.5 1618.5,-444.5 1618.5,-414.5 1507.5,-414.5"/>
<text text-anchor="start" x="1515.5" y="-432.5" font-family="Helvetica,sans-Serif" font-size="10.00">tvm/node/structural</text>
<text text-anchor="middle" x="1563" y="-421.5" font-family="Helvetica,sans-Serif" font-size="10.00">_hash.h</text>
</a>
</g>
</g>
<!-- Node13&#45;&gt;Node30 -->
<g id="edge89" class="edge"><title>Node13&#45;&gt;Node30</title>
<path fill="none" stroke="midnightblue" d="M1379.88,-537.319C1411.62,-518.805 1486.6,-475.066 1530.14,-449.67"/>
<polygon fill="midnightblue" stroke="midnightblue" points="1532.05,-452.607 1538.92,-444.545 1528.52,-446.561 1532.05,-452.607"/>
</g>
<!-- Node31 -->
<g id="node31" class="node"><title>Node31</title>
<g id="a_node31"><a xlink:href="repr__printer_8h.html" target="_top" xlink:title="Printer class to print repr string of each AST/IR nodes. ">
<polygon fill="white" stroke="black" points="676,-481.5 676,-500.5 806,-500.5 806,-481.5 676,-481.5"/>
<text text-anchor="middle" x="741" y="-488.5" font-family="Helvetica,sans-Serif" font-size="10.00">tvm/node/repr_printer.h</text>
</a>
</g>
</g>
<!-- Node13&#45;&gt;Node31 -->
<g id="edge84" class="edge"><title>Node13&#45;&gt;Node31</title>
<path fill="none" stroke="midnightblue" d="M1315.73,-542.447C1220.08,-535.435 1002.59,-518.935 820,-501 818.725,-500.875 817.439,-500.747 816.143,-500.616"/>
<polygon fill="midnightblue" stroke="midnightblue" points="816.387,-497.123 806.08,-499.576 815.667,-504.086 816.387,-497.123"/>
</g>
<!-- Node14&#45;&gt;Node4 -->
<g id="edge16" class="edge"><title>Node14&#45;&gt;Node4</title>
<path fill="none" stroke="midnightblue" d="M1092.4,-179.083C1085.77,-171.298 1075.98,-159.801 1067.94,-150.367"/>
<polygon fill="midnightblue" stroke="midnightblue" points="1070.6,-148.094 1061.45,-142.751 1065.27,-152.633 1070.6,-148.094"/>
</g>
<!-- Node14&#45;&gt;Node9 -->
<g id="edge18" class="edge"><title>Node14&#45;&gt;Node9</title>
<path fill="none" stroke="midnightblue" d="M1042.77,-179.46C894.991,-157.408 502.924,-98.9015 370.451,-79.1332"/>
<polygon fill="midnightblue" stroke="midnightblue" points="370.676,-75.6281 360.269,-77.6138 369.643,-82.5515 370.676,-75.6281"/>
</g>
<!-- Node14&#45;&gt;Node11 -->
<g id="edge17" class="edge"><title>Node14&#45;&gt;Node11</title>
<path fill="none" stroke="midnightblue" d="M1145.99,-179.46C1266.51,-157.08 1589.21,-97.1579 1690.88,-78.2793"/>
<polygon fill="midnightblue" stroke="midnightblue" points="1691.63,-81.6997 1700.82,-76.4327 1690.35,-74.8173 1691.63,-81.6997"/>
</g>
<!-- Node15&#45;&gt;Node4 -->
<g id="edge21" class="edge"><title>Node15&#45;&gt;Node4</title>
<path fill="none" stroke="midnightblue" d="M1732.42,-481.286C1727.42,-465.783 1715.01,-433.237 1694,-414 1647.6,-371.515 1622.32,-381.586 1564,-358 1486.02,-326.464 1467.93,-313.924 1387,-291 1305.57,-267.934 1264.52,-309.783 1200,-255 1172.56,-231.7 1197.31,-204.598 1172,-179 1155.76,-162.573 1132.9,-152.045 1111.62,-145.343"/>
<polygon fill="midnightblue" stroke="midnightblue" points="1112.56,-141.972 1101.98,-142.525 1110.6,-148.691 1112.56,-141.972"/>
</g>
<!-- Node15&#45;&gt;Node6 -->
<g id="edge20" class="edge"><title>Node15&#45;&gt;Node6</title>
<path fill="none" stroke="midnightblue" d="M1675.28,-488.892C1578.15,-486.182 1380.25,-476.877 1216,-445 1116.08,-425.608 1092.18,-414.064 997,-378 873.689,-331.278 798.344,-365.899 727,-255 676.139,-175.939 816.349,-117.057 901.675,-89.618"/>
<polygon fill="midnightblue" stroke="midnightblue" points="902.798,-92.9337 911.281,-86.5863 900.691,-86.2582 902.798,-92.9337"/>
</g>
<!-- Node15&#45;&gt;Node9 -->
<g id="edge83" class="edge"><title>Node15&#45;&gt;Node9</title>
<path fill="none" stroke="midnightblue" d="M1675.28,-489.274C1503.98,-486.822 1013.2,-477.114 856,-445 737.301,-420.751 423.095,-347.622 345,-255 305.163,-207.753 314.793,-127.306 321.794,-91.1126"/>
<polygon fill="midnightblue" stroke="midnightblue" points="325.285,-91.5199 323.909,-81.0148 318.433,-90.0851 325.285,-91.5199"/>
</g>
<!-- Node15&#45;&gt;Node10 -->
<g id="edge82" class="edge"><title>Node15&#45;&gt;Node10</title>
<path fill="none" stroke="midnightblue" d="M1754.04,-481.416C1870.19,-429.082 2481.11,-154.174 2567,-123 2616.1,-105.177 2674.7,-89.328 2710.1,-80.3268"/>
<polygon fill="midnightblue" stroke="midnightblue" points="2711.03,-83.7021 2719.87,-77.866 2709.32,-76.914 2711.03,-83.7021"/>
</g>
<!-- Node15&#45;&gt;Node14 -->
<g id="edge22" class="edge"><title>Node15&#45;&gt;Node14</title>
<path fill="none" stroke="midnightblue" d="M1728.63,-481.252C1716.89,-465.695 1690.34,-433.066 1661,-414 1627.93,-392.507 1365.87,-302.04 1328,-291 1255.52,-269.869 1227.84,-291.939 1162,-255 1141.05,-243.246 1122.87,-222.105 1111.7,-207.128"/>
<polygon fill="midnightblue" stroke="midnightblue" points="1114.36,-204.833 1105.7,-198.738 1108.67,-208.907 1114.36,-204.833"/>
</g>
<!-- Node16 -->
<g id="node16" class="node"><title>Node16</title>
<g id="a_node16"><a xlink:href="packed__func_8h.html" target="_top" xlink:title="Type&#45;erased function used across TVM API. ">
<polygon fill="white" stroke="black" points="1541.5,-291.5 1541.5,-321.5 1654.5,-321.5 1654.5,-291.5 1541.5,-291.5"/>
<text text-anchor="start" x="1549.5" y="-309.5" font-family="Helvetica,sans-Serif" font-size="10.00">tvm/runtime/packed</text>
<text text-anchor="middle" x="1598" y="-298.5" font-family="Helvetica,sans-Serif" font-size="10.00">_func.h</text>
</a>
</g>
</g>
<!-- Node15&#45;&gt;Node16 -->
<g id="edge23" class="edge"><title>Node15&#45;&gt;Node16</title>
<path fill="none" stroke="midnightblue" d="M1738.3,-481.286C1746.29,-458.577 1764.09,-396.667 1737,-358 1720.47,-334.403 1691.72,-321.79 1664.64,-315.065"/>
<polygon fill="midnightblue" stroke="midnightblue" points="1665.29,-311.624 1654.77,-312.845 1663.76,-318.454 1665.29,-311.624"/>
</g>
<!-- Node15&#45;&gt;Node19 -->
<g id="edge81" class="edge"><title>Node15&#45;&gt;Node19</title>
<path fill="none" stroke="midnightblue" d="M1747.91,-481.381C1789.26,-453.229 1920.32,-359.748 1999,-255 2009.78,-240.644 2018.22,-221.94 2023.56,-208.284"/>
<polygon fill="midnightblue" stroke="midnightblue" points="2026.95,-209.186 2027.15,-198.593 2020.39,-206.751 2026.95,-209.186"/>
</g>
<!-- Node21 -->
<g id="node21" class="node"><title>Node21</title>
<g id="a_node21"><a xlink:href="ndarray_8h.html" target="_top" xlink:title="A device&#45;independent managed NDArray abstraction. ">
<polygon fill="white" stroke="red" points="1536.5,-235.5 1536.5,-254.5 1659.5,-254.5 1659.5,-235.5 1536.5,-235.5"/>
<text text-anchor="middle" x="1598" y="-242.5" font-family="Helvetica,sans-Serif" font-size="10.00">tvm/runtime/ndarray.h</text>
</a>
</g>
</g>
<!-- Node15&#45;&gt;Node21 -->
<g id="edge54" class="edge"><title>Node15&#45;&gt;Node21</title>
<path fill="none" stroke="midnightblue" d="M1742.67,-481.459C1749.78,-472.927 1759.85,-459.088 1764,-445 1774.96,-407.75 1776.1,-391.221 1756,-358 1726.28,-308.884 1665.92,-275.463 1629.01,-258.65"/>
<polygon fill="midnightblue" stroke="midnightblue" points="1630.28,-255.384 1619.72,-254.541 1627.45,-261.786 1630.28,-255.384"/>
</g>
<!-- Node22 -->
<g id="node22" class="node"><title>Node22</title>
<g id="a_node22"><a xlink:href="data__type_8h.html" target="_top" xlink:title="tvm/runtime/data_type.h">
<polygon fill="white" stroke="black" points="354,-235.5 354,-254.5 490,-254.5 490,-235.5 354,-235.5"/>
<text text-anchor="middle" x="422" y="-242.5" font-family="Helvetica,sans-Serif" font-size="10.00">tvm/runtime/data_type.h</text>
</a>
</g>
</g>
<!-- Node15&#45;&gt;Node22 -->
<g id="edge55" class="edge"><title>Node15&#45;&gt;Node22</title>
<path fill="none" stroke="midnightblue" d="M1675.08,-489.995C1550.73,-489.17 1255.87,-482.97 1012,-445 891.537,-426.245 861.848,-415.981 746,-378 633.566,-341.138 504.634,-283.942 449.417,-258.703"/>
<polygon fill="midnightblue" stroke="midnightblue" points="450.837,-255.504 440.288,-254.514 447.917,-261.866 450.837,-255.504"/>
</g>
<!-- Node15&#45;&gt;Node26 -->
<g id="edge56" class="edge"><title>Node15&#45;&gt;Node26</title>
<path fill="none" stroke="midnightblue" d="M1675.18,-482.16C1590.18,-471.02 1435,-450.683 1346.83,-439.127"/>
<polygon fill="midnightblue" stroke="midnightblue" points="1347.05,-435.626 1336.68,-437.797 1346.14,-442.567 1347.05,-435.626"/>
</g>
<!-- Node15&#45;&gt;Node30 -->
<g id="edge75" class="edge"><title>Node15&#45;&gt;Node30</title>
<path fill="none" stroke="midnightblue" d="M1710.36,-481.475C1685.1,-472.739 1645.12,-458.907 1613.17,-447.855"/>
<polygon fill="midnightblue" stroke="midnightblue" points="1614.13,-444.485 1603.54,-444.523 1611.84,-451.1 1614.13,-444.485"/>
</g>
<!-- Node16&#45;&gt;Node4 -->
<g id="edge45" class="edge"><title>Node16&#45;&gt;Node4</title>
<path fill="none" stroke="midnightblue" d="M1541.09,-295.512C1532.04,-293.97 1522.77,-292.419 1514,-291 1461.2,-282.45 1318.22,-287.847 1276,-255 1247.07,-232.495 1271.97,-202.678 1244,-179 1210.56,-150.694 1162.45,-139.499 1123.01,-135.353"/>
<polygon fill="midnightblue" stroke="midnightblue" points="1123.21,-131.856 1112.93,-134.424 1122.57,-138.827 1123.21,-131.856"/>
</g>
<!-- Node16&#45;&gt;Node5 -->
<g id="edge24" class="edge"><title>Node16&#45;&gt;Node5</title>
<path fill="none" stroke="midnightblue" d="M1541.38,-294.634C1477.38,-282.139 1379.98,-262.4 1364,-255 1313.66,-231.693 1313.34,-206.215 1265,-179 1205.16,-145.309 1187.48,-140.219 1121,-123 1062.45,-107.833 892.391,-87.8625 805.085,-78.2103"/>
<polygon fill="midnightblue" stroke="midnightblue" points="805.439,-74.7281 795.116,-77.1132 804.674,-81.6861 805.439,-74.7281"/>
</g>
<!-- Node16&#45;&gt;Node6 -->
<g id="edge25" class="edge"><title>Node16&#45;&gt;Node6</title>
<path fill="none" stroke="midnightblue" d="M1541.31,-294.651C1482.46,-282.981 1397.28,-264.787 1385,-255 1333.87,-214.237 1372.97,-161.351 1320,-123 1297.44,-106.668 1134.11,-88.7106 1036.03,-79.2302"/>
<polygon fill="midnightblue" stroke="midnightblue" points="1036.16,-75.7267 1025.87,-78.256 1035.49,-82.6947 1036.16,-75.7267"/>
</g>
<!-- Node16&#45;&gt;Node9 -->
<g id="edge53" class="edge"><title>Node16&#45;&gt;Node9</title>
<path fill="none" stroke="midnightblue" d="M1541.32,-302.479C1351.19,-292.309 746.864,-259.7 727,-255 573.644,-218.715 407.399,-122.627 348.342,-86.4982"/>
<polygon fill="midnightblue" stroke="midnightblue" points="349.845,-83.313 339.496,-81.0424 346.17,-89.2709 349.845,-83.313"/>
</g>
<!-- Node16&#45;&gt;Node10 -->
<g id="edge49" class="edge"><title>Node16&#45;&gt;Node10</title>
<path fill="none" stroke="midnightblue" d="M1654.67,-300.457C1701.38,-294.515 1768.28,-281.806 1821,-255 1866.77,-231.731 1861.39,-200.531 1908,-179 2055.08,-111.057 2574.2,-80.8655 2709.54,-74.0423"/>
<polygon fill="midnightblue" stroke="midnightblue" points="2709.86,-77.5307 2719.67,-73.539 2709.51,-70.5393 2709.86,-77.5307"/>
</g>
<!-- Node16&#45;&gt;Node11 -->
<g id="edge52" class="edge"><title>Node16&#45;&gt;Node11</title>
<path fill="none" stroke="midnightblue" d="M1625.72,-291.366C1640.22,-282.679 1657.17,-270.28 1668,-255 1704.57,-203.418 1716.64,-126.974 1720.41,-91.6611"/>
<polygon fill="midnightblue" stroke="midnightblue" points="1723.92,-91.6445 1721.39,-81.3577 1716.95,-90.9809 1723.92,-91.6445"/>
</g>
<!-- Node17 -->
<g id="node17" class="node"><title>Node17</title>
<g id="a_node17"><a xlink:href="runtime_2module_8h.html" target="_top" xlink:title="Runtime container of the functions generated by TVM, This is used to support dynamically link...">
<polygon fill="white" stroke="red" points="1394,-235.5 1394,-254.5 1518,-254.5 1518,-235.5 1394,-235.5"/>
<text text-anchor="middle" x="1456" y="-242.5" font-family="Helvetica,sans-Serif" font-size="10.00">tvm/runtime/module.h</text>
</a>
</g>
</g>
<!-- Node16&#45;&gt;Node17 -->
<g id="edge26" class="edge"><title>Node16&#45;&gt;Node17</title>
<path fill="none" stroke="midnightblue" d="M1558.51,-291.399C1533.63,-281.505 1502.37,-268.383 1480.87,-258.792"/>
<polygon fill="midnightblue" stroke="midnightblue" points="1482.29,-255.592 1471.73,-254.658 1479.4,-261.97 1482.29,-255.592"/>
</g>
<!-- Node18 -->
<g id="node18" class="node"><title>Node18</title>
<polygon fill="white" stroke="#bfbfbf" points="1746.5,-179.5 1746.5,-198.5 1803.5,-198.5 1803.5,-179.5 1746.5,-179.5"/>
<text text-anchor="middle" x="1775" y="-186.5" font-family="Helvetica,sans-Serif" font-size="10.00">memory</text>
</g>
<!-- Node16&#45;&gt;Node18 -->
<g id="edge51" class="edge"><title>Node16&#45;&gt;Node18</title>
<path fill="none" stroke="midnightblue" d="M1654.75,-299.4C1709.18,-292.24 1785.73,-278.286 1804,-255 1815.6,-240.208 1803.17,-220.041 1791.18,-206.111"/>
<polygon fill="midnightblue" stroke="midnightblue" points="1793.7,-203.69 1784.35,-198.718 1788.56,-208.439 1793.7,-203.69"/>
</g>
<!-- Node16&#45;&gt;Node19 -->
<g id="edge48" class="edge"><title>Node16&#45;&gt;Node19</title>
<path fill="none" stroke="midnightblue" d="M1626.98,-291.473C1668.92,-271.186 1741.93,-235.957 1745,-235 1833.11,-207.563 1941.99,-196.311 1996.13,-192.158"/>
<polygon fill="midnightblue" stroke="midnightblue" points="1996.48,-195.642 2006.2,-191.42 1995.97,-188.66 1996.48,-195.642"/>
</g>
<!-- Node16&#45;&gt;Node21 -->
<g id="edge35" class="edge"><title>Node16&#45;&gt;Node21</title>
<path fill="none" stroke="midnightblue" d="M1598,-291.399C1598,-283.466 1598,-273.458 1598,-264.858"/>
<polygon fill="midnightblue" stroke="midnightblue" points="1601.5,-264.658 1598,-254.658 1594.5,-264.658 1601.5,-264.658"/>
</g>
<!-- Node16&#45;&gt;Node22 -->
<g id="edge41" class="edge"><title>Node16&#45;&gt;Node22</title>
<path fill="none" stroke="midnightblue" d="M1541.38,-302.393C1486.75,-299.411 1401.72,-294.81 1328,-291 1021.75,-275.171 657.2,-257.386 500.233,-249.78"/>
<polygon fill="midnightblue" stroke="midnightblue" points="500.355,-246.281 490.197,-249.293 500.016,-253.273 500.355,-246.281"/>
</g>
<!-- Node23 -->
<g id="node23" class="node"><title>Node23</title>
<polygon fill="white" stroke="#bfbfbf" points="2118.5,-235.5 2118.5,-254.5 2181.5,-254.5 2181.5,-235.5 2118.5,-235.5"/>
<text text-anchor="middle" x="2150" y="-242.5" font-family="Helvetica,sans-Serif" font-size="10.00">functional</text>
</g>
<!-- Node16&#45;&gt;Node23 -->
<g id="edge46" class="edge"><title>Node16&#45;&gt;Node23</title>
<path fill="none" stroke="midnightblue" d="M1654.74,-299.384C1765.96,-287.396 2010.31,-261.057 2108.22,-250.504"/>
<polygon fill="midnightblue" stroke="midnightblue" points="2108.76,-253.966 2118.32,-249.414 2108.01,-247.006 2108.76,-253.966"/>
</g>
<!-- Node24 -->
<g id="node24" class="node"><title>Node24</title>
<polygon fill="white" stroke="#bfbfbf" points="1754.5,-235.5 1754.5,-254.5 1795.5,-254.5 1795.5,-235.5 1754.5,-235.5"/>
<text text-anchor="middle" x="1775" y="-242.5" font-family="Helvetica,sans-Serif" font-size="10.00">tuple</text>
</g>
<!-- Node16&#45;&gt;Node24 -->
<g id="edge47" class="edge"><title>Node16&#45;&gt;Node24</title>
<path fill="none" stroke="midnightblue" d="M1639.95,-291.399C1672.14,-280.579 1715.81,-265.897 1744.67,-256.195"/>
<polygon fill="midnightblue" stroke="midnightblue" points="1745.86,-259.49 1754.22,-252.986 1743.62,-252.855 1745.86,-259.49"/>
</g>
<!-- Node16&#45;&gt;Node25 -->
<g id="edge50" class="edge"><title>Node16&#45;&gt;Node25</title>
<path fill="none" stroke="midnightblue" d="M1541.39,-302.178C1486.77,-299.04 1401.74,-294.33 1328,-291 891.263,-271.277 780.637,-291.722 345,-255 332.917,-253.981 319.687,-252.349 308.135,-250.753"/>
<polygon fill="midnightblue" stroke="midnightblue" points="308.473,-247.266 298.079,-249.315 307.483,-254.195 308.473,-247.266"/>
</g>
<!-- Node17&#45;&gt;Node4 -->
<g id="edge28" class="edge"><title>Node17&#45;&gt;Node4</title>
<path fill="none" stroke="midnightblue" d="M1436.26,-235.418C1404.35,-221.824 1339.24,-195.224 1282,-179 1228.59,-163.862 1166.73,-151.997 1120.93,-144.26"/>
<polygon fill="midnightblue" stroke="midnightblue" points="1121.26,-140.767 1110.82,-142.575 1120.11,-147.672 1121.26,-140.767"/>
</g>
<!-- Node17&#45;&gt;Node6 -->
<g id="edge27" class="edge"><title>Node17&#45;&gt;Node6</title>
<path fill="none" stroke="midnightblue" d="M1451.98,-235.392C1440.79,-212.541 1406.88,-150.241 1358,-123 1344.11,-115.26 1146.63,-92.6647 1035.91,-80.4906"/>
<polygon fill="midnightblue" stroke="midnightblue" points="1036.13,-76.9933 1025.81,-79.3816 1035.37,-83.9515 1036.13,-76.9933"/>
</g>
<!-- Node17&#45;&gt;Node10 -->
<g id="edge32" class="edge"><title>Node17&#45;&gt;Node10</title>
<path fill="none" stroke="midnightblue" d="M1477.22,-235.433C1535.35,-212.406 1702.54,-149.155 1848,-123 2018.55,-92.3325 2570.07,-76.78 2709.66,-73.2747"/>
<polygon fill="midnightblue" stroke="midnightblue" points="2709.81,-76.7722 2719.72,-73.0252 2709.63,-69.7743 2709.81,-76.7722"/>
</g>
<!-- Node17&#45;&gt;Node14 -->
<g id="edge29" class="edge"><title>Node17&#45;&gt;Node14</title>
<path fill="none" stroke="midnightblue" d="M1399.59,-235.444C1336.19,-225.826 1233.35,-210.228 1166.2,-200.041"/>
<polygon fill="midnightblue" stroke="midnightblue" points="1166.56,-196.556 1156.15,-198.516 1165.51,-203.477 1166.56,-196.556"/>
</g>
<!-- Node17&#45;&gt;Node16 -->
<g id="edge34" class="edge"><title>Node17&#45;&gt;Node16</title>
<path fill="none" stroke="midnightblue" d="M1481.59,-254.658C1503.81,-263.197 1536.03,-276.511 1561.01,-287.372"/>
<polygon fill="midnightblue" stroke="midnightblue" points="1559.62,-290.588 1570.19,-291.399 1562.44,-284.177 1559.62,-290.588"/>
</g>
<!-- Node17&#45;&gt;Node18 -->
<g id="edge30" class="edge"><title>Node17&#45;&gt;Node18</title>
<path fill="none" stroke="midnightblue" d="M1506.55,-235.444C1570.22,-224.665 1678.27,-206.374 1735.96,-196.608"/>
<polygon fill="midnightblue" stroke="midnightblue" points="1736.85,-200.008 1746.13,-194.888 1735.68,-193.106 1736.85,-200.008"/>
</g>
<!-- Node17&#45;&gt;Node19 -->
<g id="edge31" class="edge"><title>Node17&#45;&gt;Node19</title>
<path fill="none" stroke="midnightblue" d="M1518.32,-235.968C1521.26,-235.632 1524.16,-235.307 1527,-235 1703.44,-215.932 1915.32,-198.885 1996.3,-192.583"/>
<polygon fill="midnightblue" stroke="midnightblue" points="1996.7,-196.063 2006.4,-191.8 1996.16,-189.084 1996.7,-196.063"/>
</g>
<!-- Node20 -->
<g id="node20" class="node"><title>Node20</title>
<polygon fill="white" stroke="#bfbfbf" points="886.5,-179.5 886.5,-198.5 979.5,-198.5 979.5,-179.5 886.5,-179.5"/>
<text text-anchor="middle" x="933" y="-186.5" font-family="Helvetica,sans-Serif" font-size="10.00">unordered_map</text>
</g>
<!-- Node17&#45;&gt;Node20 -->
<g id="edge33" class="edge"><title>Node17&#45;&gt;Node20</title>
<path fill="none" stroke="midnightblue" d="M1393.95,-237.593C1291.51,-227.016 1088.52,-206.058 989.705,-195.855"/>
<polygon fill="midnightblue" stroke="midnightblue" points="989.921,-192.359 979.614,-194.813 989.202,-199.322 989.921,-192.359"/>
</g>
<!-- Node21&#45;&gt;Node4 -->
<g id="edge37" class="edge"><title>Node21&#45;&gt;Node4</title>
<path fill="none" stroke="midnightblue" d="M1565.51,-235.448C1514.66,-222.246 1413.09,-196.588 1326,-179 1257.1,-165.086 1177.74,-152.326 1122.59,-143.976"/>
<polygon fill="midnightblue" stroke="midnightblue" points="1122.99,-140.497 1112.58,-142.469 1121.95,-147.419 1122.99,-140.497"/>
</g>
<!-- Node21&#45;&gt;Node6 -->
<g id="edge36" class="edge"><title>Node21&#45;&gt;Node6</title>
<path fill="none" stroke="midnightblue" d="M1586.83,-235.418C1556.5,-212.631 1469.31,-150.478 1386,-123 1353.61,-112.318 1148.73,-90.9021 1036.06,-79.7012"/>
<polygon fill="midnightblue" stroke="midnightblue" points="1036.08,-76.1862 1025.78,-78.6826 1035.39,-83.1521 1036.08,-76.1862"/>
</g>
<!-- Node21&#45;&gt;Node11 -->
<g id="edge40" class="edge"><title>Node21&#45;&gt;Node11</title>
<path fill="none" stroke="midnightblue" d="M1603.14,-235.332C1617.51,-211.166 1658.1,-143.472 1674,-123 1683.51,-110.761 1695.52,-98.1231 1705.15,-88.5515"/>
<polygon fill="midnightblue" stroke="midnightblue" points="1707.86,-90.798 1712.57,-81.3087 1702.97,-85.7884 1707.86,-90.798"/>
</g>
<!-- Node21&#45;&gt;Node12 -->
<g id="edge38" class="edge"><title>Node21&#45;&gt;Node12</title>
<path fill="none" stroke="midnightblue" d="M1597.28,-235.207C1594.92,-212.448 1585.22,-151.41 1548,-123 1490.84,-79.3675 1268.53,-73.2186 1181.36,-72.5111"/>
<polygon fill="midnightblue" stroke="midnightblue" points="1181.2,-69.0101 1171.18,-72.4486 1181.15,-76.01 1181.2,-69.0101"/>
</g>
<!-- Node21&#45;&gt;Node19 -->
<g id="edge39" class="edge"><title>Node21&#45;&gt;Node19</title>
<path fill="none" stroke="midnightblue" d="M1659.9,-236.263C1752.4,-224.7 1923.59,-203.301 1996.12,-194.235"/>
<polygon fill="midnightblue" stroke="midnightblue" points="1996.59,-197.703 2006.08,-192.99 1995.72,-190.757 1996.59,-197.703"/>
</g>
<!-- Node22&#45;&gt;Node5 -->
<g id="edge43" class="edge"><title>Node22&#45;&gt;Node5</title>
<path fill="none" stroke="midnightblue" d="M411.323,-235.187C397.024,-222.3 374.888,-197.804 388,-179 423.755,-127.722 606.727,-93.9209 698.855,-79.8813"/>
<polygon fill="midnightblue" stroke="midnightblue" points="699.451,-83.3312 708.82,-78.3858 698.412,-76.4087 699.451,-83.3312"/>
</g>
<!-- Node22&#45;&gt;Node6 -->
<g id="edge42" class="edge"><title>Node22&#45;&gt;Node6</title>
<path fill="none" stroke="midnightblue" d="M425.714,-235.366C431.912,-221.82 445.527,-195.428 464,-179 506.183,-141.487 523.967,-139.341 578,-123 634.355,-105.957 793.297,-88.5998 888.105,-79.3336"/>
<polygon fill="midnightblue" stroke="midnightblue" points="888.59,-82.8031 898.205,-78.3533 887.914,-75.8358 888.59,-82.8031"/>
</g>
<!-- Node22&#45;&gt;Node9 -->
<g id="edge44" class="edge"><title>Node22&#45;&gt;Node9</title>
<path fill="none" stroke="midnightblue" d="M398.912,-235.455C382.677,-228.233 361.816,-216.277 350,-199 327.466,-166.051 324.691,-117.517 325.074,-91.1727"/>
<polygon fill="midnightblue" stroke="midnightblue" points="328.576,-91.1645 325.398,-81.0577 321.58,-90.9406 328.576,-91.1645"/>
</g>
<!-- Node26&#45;&gt;Node10 -->
<g id="edge74" class="edge"><title>Node26&#45;&gt;Node10</title>
<path fill="none" stroke="midnightblue" d="M1336.69,-418.902C1422.68,-403.287 1592.33,-369.304 1731,-322 1799.34,-298.689 1815.59,-289.531 1879,-255 1933.78,-225.167 1938.55,-200.805 1997,-179 1999.14,-178.202 2566.27,-97.4974 2709.46,-77.1277"/>
<polygon fill="midnightblue" stroke="midnightblue" points="2710.37,-80.5345 2719.77,-75.661 2709.38,-73.6042 2710.37,-80.5345"/>
</g>
<!-- Node26&#45;&gt;Node22 -->
<g id="edge57" class="edge"><title>Node26&#45;&gt;Node22</title>
<path fill="none" stroke="midnightblue" d="M1225.32,-424.321C1120.37,-416.124 897.08,-397.065 822,-378 722.887,-352.832 706.323,-322.386 609,-291 564.845,-276.76 513.537,-264.722 475.846,-256.691"/>
<polygon fill="midnightblue" stroke="midnightblue" points="476.101,-253.167 465.594,-254.533 474.659,-260.017 476.101,-253.167"/>
</g>
<!-- Node27 -->
<g id="node27" class="node"><title>Node27</title>
<g id="a_node27"><a xlink:href="functor_8h.html" target="_top" xlink:title="Defines the Functor data structures. ">
<polygon fill="white" stroke="black" points="736.5,-235.5 736.5,-254.5 843.5,-254.5 843.5,-235.5 736.5,-235.5"/>
<text text-anchor="middle" x="790" y="-242.5" font-family="Helvetica,sans-Serif" font-size="10.00">tvm/node/functor.h</text>
</a>
</g>
</g>
<!-- Node26&#45;&gt;Node27 -->
<g id="edge58" class="edge"><title>Node26&#45;&gt;Node27</title>
<path fill="none" stroke="midnightblue" d="M1225.27,-420.596C1177.34,-412.821 1106.86,-399.03 1048,-378 956.407,-345.273 856.024,-286.702 812.356,-259.981"/>
<polygon fill="midnightblue" stroke="midnightblue" points="814.035,-256.904 803.686,-254.636 810.362,-262.863 814.035,-256.904"/>
</g>
<!-- Node26&#45;&gt;Node28 -->
<g id="edge64" class="edge"><title>Node26&#45;&gt;Node28</title>
<path fill="none" stroke="midnightblue" d="M1302.57,-414.399C1316.88,-405.04 1335.61,-392.792 1350.01,-383.377"/>
<polygon fill="midnightblue" stroke="midnightblue" points="1352.3,-386.06 1358.76,-377.658 1348.47,-380.201 1352.3,-386.06"/>
</g>
<!-- Node27&#45;&gt;Node4 -->
<g id="edge60" class="edge"><title>Node27&#45;&gt;Node4</title>
<path fill="none" stroke="midnightblue" d="M794.668,-235.248C802.727,-221.041 820.656,-193.131 844,-179 886.671,-153.17 942.09,-142.047 985.282,-137.314"/>
<polygon fill="midnightblue" stroke="midnightblue" points="985.821,-140.778 995.421,-136.295 985.121,-133.813 985.821,-140.778"/>
</g>
<!-- Node27&#45;&gt;Node5 -->
<g id="edge59" class="edge"><title>Node27&#45;&gt;Node5</title>
<path fill="none" stroke="midnightblue" d="M784.719,-235.386C779.58,-226.577 771.982,-212.332 768,-199 756.952,-162.012 753.531,-116.718 752.473,-91.5965"/>
<polygon fill="midnightblue" stroke="midnightblue" points="755.961,-91.1689 752.127,-81.2919 748.965,-91.4038 755.961,-91.1689"/>
</g>
<!-- Node27&#45;&gt;Node9 -->
<g id="edge62" class="edge"><title>Node27&#45;&gt;Node9</title>
<path fill="none" stroke="midnightblue" d="M766.99,-235.495C690.925,-207.381 447.378,-117.363 358.694,-84.584"/>
<polygon fill="midnightblue" stroke="midnightblue" points="359.742,-81.2401 349.149,-81.056 357.315,-87.8059 359.742,-81.2401"/>
</g>
<!-- Node27&#45;&gt;Node11 -->
<g id="edge63" class="edge"><title>Node27&#45;&gt;Node11</title>
<path fill="none" stroke="midnightblue" d="M791.447,-235.096C794.169,-221.181 801.349,-194.293 818,-179 875.967,-125.761 908.788,-138.26 986,-123 1124.28,-95.6699 1568.86,-78.0045 1690.81,-73.5881"/>
<polygon fill="midnightblue" stroke="midnightblue" points="1691.08,-77.0806 1700.95,-73.2245 1690.83,-70.0851 1691.08,-77.0806"/>
</g>
<!-- Node27&#45;&gt;Node19 -->
<g id="edge61" class="edge"><title>Node27&#45;&gt;Node19</title>
<path fill="none" stroke="midnightblue" d="M843.679,-241.662C1054.84,-232.467 1825.14,-198.921 1996.19,-191.472"/>
<polygon fill="midnightblue" stroke="midnightblue" points="1996.52,-194.961 2006.36,-191.029 1996.22,-187.968 1996.52,-194.961"/>
</g>
<!-- Node28&#45;&gt;Node4 -->
<g id="edge65" class="edge"><title>Node28&#45;&gt;Node4</title>
<path fill="none" stroke="midnightblue" d="M1312.32,-359.07C1275.62,-352.567 1228.43,-341.203 1190,-322 1170.5,-312.259 1169.23,-304.353 1152,-291 1097.48,-248.74 1058.13,-260.558 1027,-199 1018.86,-182.898 1029.09,-163.747 1039.21,-150.421"/>
<polygon fill="midnightblue" stroke="midnightblue" points="1042,-152.541 1045.65,-142.595 1036.59,-148.093 1042,-152.541"/>
</g>
<!-- Node28&#45;&gt;Node9 -->
<g id="edge68" class="edge"><title>Node28&#45;&gt;Node9</title>
<path fill="none" stroke="midnightblue" d="M1312.48,-362.041C1189.07,-350.803 897.021,-319.231 660,-255 594.121,-237.147 579.16,-227.193 517,-199 467.759,-176.667 453.891,-173.138 409,-143 384.138,-126.308 358.268,-103.284 342.154,-88.1521"/>
<polygon fill="midnightblue" stroke="midnightblue" points="344.332,-85.3924 334.675,-81.0341 339.506,-90.4633 344.332,-85.3924"/>
</g>
<!-- Node28&#45;&gt;Node10 -->
<g id="edge73" class="edge"><title>Node28&#45;&gt;Node10</title>
<path fill="none" stroke="midnightblue" d="M1431.75,-361.161C1491.06,-354.574 1584.24,-342.077 1663,-322 1748.14,-300.297 1770.95,-295.365 1849,-255 1901.46,-227.869 1902.98,-200.463 1958,-179 2029.32,-151.176 2571.01,-91.0435 2709.72,-75.9772"/>
<polygon fill="midnightblue" stroke="midnightblue" points="2710.16,-79.4501 2719.73,-74.8928 2709.41,-72.4908 2710.16,-79.4501"/>
</g>
<!-- Node28&#45;&gt;Node11 -->
<g id="edge72" class="edge"><title>Node28&#45;&gt;Node11</title>
<path fill="none" stroke="midnightblue" d="M1370.18,-358.311C1365.97,-335.663 1357.83,-273.886 1385,-235 1459.15,-128.863 1622.15,-89.4898 1690.68,-77.2598"/>
<polygon fill="midnightblue" stroke="midnightblue" points="1691.57,-80.6584 1700.83,-75.5239 1690.39,-73.7584 1691.57,-80.6584"/>
</g>
<!-- Node28&#45;&gt;Node14 -->
<g id="edge66" class="edge"><title>Node28&#45;&gt;Node14</title>
<path fill="none" stroke="midnightblue" d="M1335.36,-358.484C1306.6,-351.017 1266.04,-338.734 1233,-322 1211.98,-311.354 1209.94,-303.554 1190,-291 1161.73,-273.195 1145.85,-280.283 1124,-255 1112.58,-241.784 1106.4,-222.652 1103.18,-208.565"/>
<polygon fill="midnightblue" stroke="midnightblue" points="1106.57,-207.686 1101.19,-198.558 1099.71,-209.048 1106.57,-207.686"/>
</g>
<!-- Node28&#45;&gt;Node16 -->
<g id="edge67" class="edge"><title>Node28&#45;&gt;Node16</title>
<path fill="none" stroke="midnightblue" d="M1404.38,-358.475C1438.35,-349.532 1492.6,-335.249 1535.05,-324.074"/>
<polygon fill="midnightblue" stroke="midnightblue" points="1535.96,-327.454 1544.74,-321.523 1534.17,-320.684 1535.96,-327.454"/>
</g>
<!-- Node28&#45;&gt;Node19 -->
<g id="edge69" class="edge"><title>Node28&#45;&gt;Node19</title>
<path fill="none" stroke="midnightblue" d="M1431.5,-363.859C1557.19,-356.92 1841.51,-339.508 1882,-322 1941.85,-296.116 1994.16,-236.276 2017.32,-206.895"/>
<polygon fill="midnightblue" stroke="midnightblue" points="2020.2,-208.881 2023.54,-198.826 2014.66,-204.604 2020.2,-208.881"/>
</g>
<!-- Node28&#45;&gt;Node20 -->
<g id="edge71" class="edge"><title>Node28&#45;&gt;Node20</title>
<path fill="none" stroke="midnightblue" d="M1312.35,-360.083C1269.35,-353.708 1210.58,-342.098 1162,-322 1138.53,-312.292 1135.83,-303.978 1114,-291 1085.28,-273.925 1077.21,-271.221 1048,-255 1016.46,-237.484 980.251,-216.948 957.027,-203.72"/>
<polygon fill="midnightblue" stroke="midnightblue" points="958.634,-200.607 948.213,-198.695 955.167,-206.688 958.634,-200.607"/>
</g>
<!-- Node29 -->
<g id="node29" class="node"><title>Node29</title>
<polygon fill="white" stroke="#bfbfbf" points="1242.5,-297 1242.5,-316 1319.5,-316 1319.5,-297 1242.5,-297"/>
<text text-anchor="middle" x="1281" y="-304" font-family="Helvetica,sans-Serif" font-size="10.00">initializer_list</text>
</g>
<!-- Node28&#45;&gt;Node29 -->
<g id="edge70" class="edge"><title>Node28&#45;&gt;Node29</title>
<path fill="none" stroke="midnightblue" d="M1358.96,-358.475C1344.23,-348.843 1320.03,-333.017 1302.49,-321.552"/>
<polygon fill="midnightblue" stroke="midnightblue" points="1304.3,-318.552 1294.01,-316.009 1300.47,-324.411 1304.3,-318.552"/>
</g>
<!-- Node30&#45;&gt;Node10 -->
<g id="edge79" class="edge"><title>Node30&#45;&gt;Node10</title>
<path fill="none" stroke="midnightblue" d="M1618.66,-418.117C1705.09,-401.402 1876.39,-365.912 2018,-322 2096.36,-297.702 2114.52,-287.144 2190,-255 2222.11,-241.327 2441.77,-133.657 2475,-123 2557.41,-96.571 2658.82,-82.0874 2709.68,-76.0008"/>
<polygon fill="midnightblue" stroke="midnightblue" points="2710.21,-79.4625 2719.74,-74.8282 2709.4,-72.5096 2710.21,-79.4625"/>
</g>
<!-- Node30&#45;&gt;Node22 -->
<g id="edge76" class="edge"><title>Node30&#45;&gt;Node22</title>
<path fill="none" stroke="midnightblue" d="M1507.24,-420.636C1439.16,-410.96 1320.54,-393.86 1219,-378 942.814,-334.86 613.587,-278.883 481.314,-256.206"/>
<polygon fill="midnightblue" stroke="midnightblue" points="481.829,-252.744 471.381,-254.503 480.645,-259.643 481.829,-252.744"/>
</g>
<!-- Node30&#45;&gt;Node23 -->
<g id="edge80" class="edge"><title>Node30&#45;&gt;Node23</title>
<path fill="none" stroke="midnightblue" d="M1579.28,-414.415C1599.36,-397.896 1635.26,-371.108 1671,-358 1791.69,-313.731 1833.47,-353.91 1958,-322 2019.11,-306.342 2086.92,-276.304 2123.35,-259.051"/>
<polygon fill="midnightblue" stroke="midnightblue" points="2125.25,-262.021 2132.76,-254.547 2122.23,-255.707 2125.25,-262.021"/>
</g>
<!-- Node30&#45;&gt;Node27 -->
<g id="edge77" class="edge"><title>Node30&#45;&gt;Node27</title>
<path fill="none" stroke="midnightblue" d="M1507.26,-418.674C1454.48,-409.132 1373.09,-393.809 1303,-378 1125.67,-338.001 916.326,-281.071 830.139,-257.205"/>
<polygon fill="midnightblue" stroke="midnightblue" points="831.062,-253.829 820.491,-254.529 829.191,-260.574 831.062,-253.829"/>
</g>
<!-- Node30&#45;&gt;Node28 -->
<g id="edge78" class="edge"><title>Node30&#45;&gt;Node28</title>
<path fill="none" stroke="midnightblue" d="M1517.74,-414.399C1484.59,-404.073 1440.15,-390.231 1409.1,-380.556"/>
<polygon fill="midnightblue" stroke="midnightblue" points="1410.1,-377.204 1399.51,-377.571 1408.02,-383.887 1410.1,-377.204"/>
</g>
<!-- Node31&#45;&gt;Node27 -->
<g id="edge85" class="edge"><title>Node31&#45;&gt;Node27</title>
<path fill="none" stroke="midnightblue" d="M742.744,-481.316C749.814,-446.11 776.432,-313.561 786.295,-264.452"/>
<polygon fill="midnightblue" stroke="midnightblue" points="789.739,-265.073 788.277,-254.58 782.877,-263.695 789.739,-265.073"/>
</g>
<!-- Node32 -->
<g id="node32" class="node"><title>Node32</title>
<polygon fill="white" stroke="#bfbfbf" points="596.5,-420 596.5,-439 655.5,-439 655.5,-420 596.5,-420"/>
<text text-anchor="middle" x="626" y="-427" font-family="Helvetica,sans-Serif" font-size="10.00">iostream</text>
</g>
<!-- Node31&#45;&gt;Node32 -->
<g id="edge86" class="edge"><title>Node31&#45;&gt;Node32</title>
<path fill="none" stroke="midnightblue" d="M724.523,-481.475C705.395,-471.578 673.627,-455.142 651.348,-443.615"/>
<polygon fill="midnightblue" stroke="midnightblue" points="652.936,-440.496 642.446,-439.009 649.719,-446.713 652.936,-440.496"/>
</g>
<!-- Node33&#45;&gt;Node4 -->
<g id="edge96" class="edge"><title>Node33&#45;&gt;Node4</title>
<path fill="none" stroke="midnightblue" d="M1324.68,-597.272C1185.23,-580.769 728.613,-525.41 667,-501 626.65,-485.014 607.043,-483.496 587,-445 533.416,-342.083 440.406,-368.377 722,-179 763.801,-150.888 901.021,-140.217 985.404,-136.255"/>
<polygon fill="midnightblue" stroke="midnightblue" points="985.59,-139.75 995.423,-135.804 985.276,-132.757 985.59,-139.75"/>
</g>
<!-- Node33&#45;&gt;Node10 -->
<g id="edge98" class="edge"><title>Node33&#45;&gt;Node10</title>
<path fill="none" stroke="midnightblue" d="M1405.16,-596.441C1491.88,-583.914 1702.67,-550.645 1874,-501 2086.3,-439.484 2141.4,-423.019 2338,-322 2481.3,-248.367 2501.37,-203.387 2641,-123 2665.05,-109.151 2693.39,-95.1749 2713.92,-85.4476"/>
<polygon fill="midnightblue" stroke="midnightblue" points="2715.48,-88.584 2723.04,-81.1631 2712.5,-82.2486 2715.48,-88.584"/>
</g>
<!-- Node33&#45;&gt;Node13 -->
<g id="edge97" class="edge"><title>Node33&#45;&gt;Node13</title>
<path fill="none" stroke="midnightblue" d="M1365,-593.083C1365,-586.006 1365,-575.861 1365,-566.986"/>
<polygon fill="midnightblue" stroke="midnightblue" points="1368.5,-566.751 1365,-556.751 1361.5,-566.751 1368.5,-566.751"/>
</g>
<!-- Node34&#45;&gt;Node4 -->
<g id="edge100" class="edge"><title>Node34&#45;&gt;Node4</title>
<path fill="none" stroke="midnightblue" d="M1785.24,-649.36C1797.64,-622.745 1831.31,-540.23 1803,-481 1782.56,-438.226 1759.74,-439.856 1720,-414 1674.35,-384.295 1660.48,-380.765 1611,-358 1575.24,-341.545 1484.74,-302.202 1447,-291 1365.44,-266.794 1332.88,-297.177 1259,-255 1219.89,-232.676 1229.62,-203.742 1192,-179 1167.26,-162.731 1136.16,-151.917 1109.75,-144.978"/>
<polygon fill="midnightblue" stroke="midnightblue" points="1110.44,-141.54 1099.88,-142.504 1108.73,-148.33 1110.44,-141.54"/>
</g>
<!-- Node34&#45;&gt;Node10 -->
<g id="edge105" class="edge"><title>Node34&#45;&gt;Node10</title>
<path fill="none" stroke="midnightblue" d="M1801.2,-649.427C1865.58,-622.309 2071.98,-536.891 2248,-481 2422.56,-425.573 2492.98,-477.103 2647,-378 2680.88,-356.197 2704,-347.793 2704,-307.5 2704,-307.5 2704,-307.5 2704,-188 2704,-151.754 2721.09,-112.171 2732.35,-90.0327"/>
<polygon fill="midnightblue" stroke="midnightblue" points="2735.46,-91.641 2737.03,-81.1633 2729.27,-88.3745 2735.46,-91.641"/>
</g>
<!-- Node34&#45;&gt;Node13 -->
<g id="edge102" class="edge"><title>Node34&#45;&gt;Node13</title>
<path fill="none" stroke="midnightblue" d="M1742.42,-650.869C1700.1,-642.783 1630.3,-628.672 1571,-613 1509.83,-596.835 1439.82,-573.747 1399.19,-559.881"/>
<polygon fill="midnightblue" stroke="midnightblue" points="1400.11,-556.497 1389.51,-556.564 1397.84,-563.118 1400.11,-556.497"/>
</g>
<!-- Node34&#45;&gt;Node22 -->
<g id="edge101" class="edge"><title>Node34&#45;&gt;Node22</title>
<path fill="none" stroke="midnightblue" d="M1742.38,-654.601C1662.65,-647.509 1474.02,-630.346 1316,-613 1113.03,-590.72 1060.8,-594.067 860,-557 847.28,-554.652 646.182,-505.35 634,-501 579.331,-481.477 557.011,-486.085 516,-445 462.933,-391.837 435.935,-302.968 426.263,-264.586"/>
<polygon fill="midnightblue" stroke="midnightblue" points="429.645,-263.679 423.897,-254.779 422.84,-265.321 429.645,-263.679"/>
</g>
<!-- Node34&#45;&gt;Node28 -->
<g id="edge103" class="edge"><title>Node34&#45;&gt;Node28</title>
<path fill="none" stroke="midnightblue" d="M1769.68,-649.457C1714.08,-607.494 1471.85,-424.795 1455,-414 1436.77,-402.323 1415.26,-390.717 1398.7,-382.217"/>
<polygon fill="midnightblue" stroke="midnightblue" points="1400.09,-378.997 1389.59,-377.594 1396.92,-385.24 1400.09,-378.997"/>
</g>
<!-- Node34&#45;&gt;Node33 -->
<g id="edge104" class="edge"><title>Node34&#45;&gt;Node33</title>
<path fill="none" stroke="midnightblue" d="M1742.24,-652.968C1666.53,-643.141 1499.09,-621.405 1415.1,-610.503"/>
<polygon fill="midnightblue" stroke="midnightblue" points="1415.4,-607.013 1405.03,-609.197 1414.5,-613.955 1415.4,-607.013"/>
</g>
<!-- Node36&#45;&gt;Node3 -->
<g id="edge112" class="edge"><title>Node36&#45;&gt;Node3</title>
<path fill="none" stroke="midnightblue" d="M2370.43,-767.575C2227.16,-758.793 1735.61,-728.664 1578.03,-719.005"/>
<polygon fill="midnightblue" stroke="midnightblue" points="1577.9,-715.491 1567.71,-718.373 1577.48,-722.478 1577.9,-715.491"/>
</g>
<!-- Node36&#45;&gt;Node9 -->
<g id="edge117" class="edge"><title>Node36&#45;&gt;Node9</title>
<path fill="none" stroke="midnightblue" d="M2376.81,-761.456C2288.33,-739.035 2039.1,-678.23 1828,-649 1602.04,-617.712 1543.07,-634.82 1316,-613 1111.43,-593.342 1059.4,-592.661 857,-557 665.472,-523.254 605.868,-536.011 434,-445 325.933,-387.774 270.637,-371.976 235,-255 217.574,-197.802 223.753,-169.776 261,-123 272.5,-108.558 288.946,-95.8318 302.418,-86.7673"/>
<polygon fill="midnightblue" stroke="midnightblue" points="304.679,-89.473 311.172,-81.1008 300.875,-83.5966 304.679,-89.473"/>
</g>
<!-- Node36&#45;&gt;Node10 -->
<g id="edge118" class="edge"><title>Node36&#45;&gt;Node10</title>
<path fill="none" stroke="midnightblue" d="M2449.82,-761.925C2577.76,-733.434 2970,-625.195 2970,-369 2970,-369 2970,-369 2970,-188 2970,-157.205 2968.95,-143.534 2946,-123 2897.77,-79.8482 2818.44,-72.2501 2774.26,-71.6534"/>
<polygon fill="midnightblue" stroke="midnightblue" points="2774.09,-68.1531 2764.09,-71.6325 2774.08,-75.1531 2774.09,-68.1531"/>
</g>
<!-- Node36&#45;&gt;Node11 -->
<g id="edge119" class="edge"><title>Node36&#45;&gt;Node11</title>
<path fill="none" stroke="midnightblue" d="M2412.51,-761.347C2423.69,-722.742 2468.53,-567.656 2470,-557 2493.91,-383.921 2482.25,-305.764 2362,-179 2330.35,-145.638 2318.48,-137.966 2275,-123 2177.26,-89.3593 1855.25,-76.6433 1753.27,-73.401"/>
<polygon fill="midnightblue" stroke="midnightblue" points="1753.12,-69.8948 1743.02,-73.0837 1752.91,-76.8915 1753.12,-69.8948"/>
</g>
<!-- Node36&#45;&gt;Node16 -->
<g id="edge113" class="edge"><title>Node36&#45;&gt;Node16</title>
<path fill="none" stroke="midnightblue" d="M2395.8,-761.49C2383.83,-753.559 2367.23,-740.625 2358,-725 2314.55,-651.447 2371.86,-603.31 2318,-537 2193.93,-384.241 2101.72,-413.815 1913,-358 1829.31,-333.248 1729.31,-319.834 1664.78,-313.179"/>
<polygon fill="midnightblue" stroke="midnightblue" points="1665.03,-309.687 1654.73,-312.168 1664.33,-316.652 1665.03,-309.687"/>
</g>
<!-- Node36&#45;&gt;Node19 -->
<g id="edge115" class="edge"><title>Node36&#45;&gt;Node19</title>
<path fill="none" stroke="midnightblue" d="M2407.28,-761.384C2404.43,-752.335 2399.85,-737.684 2396,-725 2378.25,-666.459 2375.03,-651.457 2357,-593 2306.98,-430.801 2351.89,-346.595 2224,-235 2200.4,-214.405 2113.01,-200.419 2063.96,-194.005"/>
<polygon fill="midnightblue" stroke="midnightblue" points="2064.18,-190.506 2053.82,-192.716 2063.3,-197.45 2064.18,-190.506"/>
</g>
<!-- Node36&#45;&gt;Node20 -->
<g id="edge114" class="edge"><title>Node36&#45;&gt;Node20</title>
<path fill="none" stroke="midnightblue" d="M2387.42,-761.412C2334.32,-741.28 2197.34,-689.667 2082,-649 1974.54,-611.111 1212.12,-372.561 1110,-322 1045,-289.817 979.393,-233.099 949.584,-205.694"/>
<polygon fill="midnightblue" stroke="midnightblue" points="951.862,-203.034 942.156,-198.787 947.095,-208.16 951.862,-203.034"/>
</g>
<!-- Node36&#45;&gt;Node23 -->
<g id="edge116" class="edge"><title>Node36&#45;&gt;Node23</title>
<path fill="none" stroke="midnightblue" d="M2449.77,-766.716C2493.89,-761.037 2557.03,-745.742 2542,-705 2463.73,-492.822 2238.84,-312.185 2170.16,-260.698"/>
<polygon fill="midnightblue" stroke="midnightblue" points="2172,-257.702 2161.88,-254.552 2167.83,-263.323 2172,-257.702"/>
</g>
<!-- Node37 -->
<g id="node37" class="node"><title>Node37</title>
<polygon fill="white" stroke="#bfbfbf" points="2438.5,-705.5 2438.5,-724.5 2533.5,-724.5 2533.5,-705.5 2438.5,-705.5"/>
<text text-anchor="middle" x="2486" y="-712.5" font-family="Helvetica,sans-Serif" font-size="10.00">dmlc/common.h</text>
</g>
<!-- Node36&#45;&gt;Node37 -->
<g id="edge111" class="edge"><title>Node36&#45;&gt;Node37</title>
<path fill="none" stroke="midnightblue" d="M2422.21,-761.324C2433.78,-753.107 2451.38,-740.602 2465.16,-730.807"/>
<polygon fill="midnightblue" stroke="midnightblue" points="2467.44,-733.479 2473.57,-724.834 2463.39,-727.773 2467.44,-733.479"/>
</g>
<!-- Node38&#45;&gt;Node3 -->
<g id="edge124" class="edge"><title>Node38&#45;&gt;Node3</title>
<path fill="none" stroke="midnightblue" d="M2297.95,-1048.6C2125.08,-1042.85 1535,-1017.52 1535,-940 1535,-940 1535,-940 1535,-826 1535,-793.9 1532.42,-756.61 1530.64,-734.732"/>
<polygon fill="midnightblue" stroke="midnightblue" points="1534.11,-734.219 1529.78,-724.549 1527.14,-734.808 1534.11,-734.219"/>
</g>
<!-- Node38&#45;&gt;Node10 -->
<g id="edge161" class="edge"><title>Node38&#45;&gt;Node10</title>
<path fill="none" stroke="midnightblue" d="M2392.08,-1048.93C2570.9,-1044.23 3198,-1021.94 3198,-940 3198,-940 3198,-940 3198,-188 3198,-154.31 3187.26,-141.334 3159,-123 3095.5,-81.8072 2860.78,-74.2142 2774.28,-72.8155"/>
<polygon fill="midnightblue" stroke="midnightblue" points="2774.3,-69.3156 2764.25,-72.6708 2774.2,-76.3148 2774.3,-69.3156"/>
</g>
<!-- Node38&#45;&gt;Node23 -->
<g id="edge162" class="edge"><title>Node38&#45;&gt;Node23</title>
<path fill="none" stroke="midnightblue" d="M2392.14,-1048.32C2560.49,-1041.72 3122,-1014.12 3122,-940 3122,-940 3122,-940 3122,-826 3122,-385.768 2377.64,-271.866 2191.7,-250.281"/>
<polygon fill="midnightblue" stroke="midnightblue" points="2191.84,-246.775 2181.51,-249.126 2191.06,-253.73 2191.84,-246.775"/>
</g>
<!-- Node38&#45;&gt;Node36 -->
<g id="edge123" class="edge"><title>Node38&#45;&gt;Node36</title>
<path fill="none" stroke="midnightblue" d="M2374.9,-1041.45C2416.29,-1027.56 2486,-995.885 2486,-940 2486,-940 2486,-940 2486,-882 2486,-842.276 2452.04,-806.504 2429.52,-787.154"/>
<polygon fill="midnightblue" stroke="midnightblue" points="2431.48,-784.236 2421.54,-780.567 2427.02,-789.634 2431.48,-784.236"/>
</g>
<!-- Node39 -->
<g id="node39" class="node"><title>Node39</title>
<g id="a_node39"><a xlink:href="ir_2op_8h.html" target="_top" xlink:title="Primitive operators(builtin intrinsics) and registry for them. ">
<polygon fill="white" stroke="black" points="2661,-985.5 2661,-1004.5 2729,-1004.5 2729,-985.5 2661,-985.5"/>
<text text-anchor="middle" x="2695" y="-992.5" font-family="Helvetica,sans-Serif" font-size="10.00">tvm/ir/op.h</text>
</a>
</g>
</g>
<!-- Node38&#45;&gt;Node39 -->
<g id="edge125" class="edge"><title>Node38&#45;&gt;Node39</title>
<path fill="none" stroke="midnightblue" d="M2392.2,-1042.72C2460.04,-1032.25 2584.21,-1013.09 2650.5,-1002.87"/>
<polygon fill="midnightblue" stroke="midnightblue" points="2651.28,-1006.29 2660.63,-1001.3 2650.21,-999.369 2651.28,-1006.29"/>
</g>
<!-- Node43 -->
<g id="node43" class="node"><title>Node43</title>
<g id="a_node43"><a xlink:href="ir_2module_8h.html" target="_top" xlink:title="IRModule that holds the functions and type definitions. ">
<polygon fill="white" stroke="black" points="1802,-873.5 1802,-892.5 1894,-892.5 1894,-873.5 1802,-873.5"/>
<text text-anchor="middle" x="1848" y="-880.5" font-family="Helvetica,sans-Serif" font-size="10.00">tvm/ir/module.h</text>
</a>
</g>
</g>
<!-- Node38&#45;&gt;Node43 -->
<g id="edge160" class="edge"><title>Node38&#45;&gt;Node43</title>
<path fill="none" stroke="midnightblue" d="M2306.32,-1041.49C2270.23,-1033.24 2215.02,-1019.82 2168,-1005 2059.25,-970.734 1933.65,-919.816 1877.63,-896.49"/>
<polygon fill="midnightblue" stroke="midnightblue" points="1878.89,-893.222 1868.31,-892.597 1876.19,-899.681 1878.89,-893.222"/>
</g>
<!-- Node47 -->
<g id="node47" class="node"><title>Node47</title>
<g id="a_node47"><a xlink:href="base_8h.html" target="_top" xlink:title="Base classes for the Relay IR. ">
<polygon fill="white" stroke="black" points="1431.5,-817.5 1431.5,-836.5 1486.5,-836.5 1486.5,-817.5 1431.5,-817.5"/>
<text text-anchor="middle" x="1459" y="-824.5" font-family="Helvetica,sans-Serif" font-size="10.00">./base.h</text>
</a>
</g>
</g>
<!-- Node38&#45;&gt;Node47 -->
<g id="edge163" class="edge"><title>Node38&#45;&gt;Node47</title>
<path fill="none" stroke="midnightblue" d="M2297.78,-1050.44C2132,-1051.56 1583.15,-1051.68 1521,-1005 1470.26,-966.887 1460.84,-884.21 1459.24,-846.919"/>
<polygon fill="midnightblue" stroke="midnightblue" points="1462.73,-846.419 1458.95,-836.52 1455.73,-846.613 1462.73,-846.419"/>
</g>
<!-- Node49 -->
<g id="node49" class="node"><title>Node49</title>
<g id="a_node49"><a xlink:href="relay_2type_8h.html" target="_top" xlink:title="Relay typed AST nodes. ">
<polygon fill="white" stroke="black" points="2177.5,-985.5 2177.5,-1004.5 2230.5,-1004.5 2230.5,-985.5 2177.5,-985.5"/>
<text text-anchor="middle" x="2204" y="-992.5" font-family="Helvetica,sans-Serif" font-size="10.00">./type.h</text>
</a>
</g>
</g>
<!-- Node38&#45;&gt;Node49 -->
<g id="edge181" class="edge"><title>Node38&#45;&gt;Node49</title>
<path fill="none" stroke="midnightblue" d="M2322.66,-1041.44C2299.25,-1032.48 2262.26,-1018.31 2235.81,-1008.18"/>
<polygon fill="midnightblue" stroke="midnightblue" points="2236.83,-1004.82 2226.24,-1004.52 2234.32,-1011.36 2236.83,-1004.82"/>
</g>
<!-- Node39&#45;&gt;Node3 -->
<g id="edge133" class="edge"><title>Node39&#45;&gt;Node3</title>
<path fill="none" stroke="midnightblue" d="M2660.75,-992.116C2516.59,-983.89 1958.91,-948.999 1793,-893 1696.84,-860.543 1674.86,-842.341 1594,-781 1574.84,-766.462 1555.71,-746.512 1543.22,-732.562"/>
<polygon fill="midnightblue" stroke="midnightblue" points="1545.58,-729.955 1536.35,-724.753 1540.33,-734.575 1545.58,-729.955"/>
</g>
<!-- Node39&#45;&gt;Node10 -->
<g id="edge157" class="edge"><title>Node39&#45;&gt;Node10</title>
<path fill="none" stroke="midnightblue" d="M2729.07,-992.534C2802.4,-988.867 2972.59,-977.464 3022,-949 3108.43,-899.205 3160,-871.751 3160,-772 3160,-772 3160,-772 3160,-188 3160,-157.205 3160.09,-142.179 3136,-123 3080.3,-78.6667 2858.2,-72.9953 2774.31,-72.4607"/>
<polygon fill="midnightblue" stroke="midnightblue" points="2774.11,-68.96 2764.1,-72.4172 2774.08,-75.9599 2774.11,-68.96"/>
</g>
<!-- Node39&#45;&gt;Node11 -->
<g id="edge158" class="edge"><title>Node39&#45;&gt;Node11</title>
<path fill="none" stroke="midnightblue" d="M2729.09,-989.413C2810.22,-977.547 3008,-942.606 3008,-884 3008,-884 3008,-884 3008,-244 3008,-113.298 1950.8,-78.6206 1753.5,-73.287"/>
<polygon fill="midnightblue" stroke="midnightblue" points="1753.34,-69.7815 1743.25,-73.0155 1753.15,-76.779 1753.34,-69.7815"/>
</g>
<!-- Node39&#45;&gt;Node19 -->
<g id="edge159" class="edge"><title>Node39&#45;&gt;Node19</title>
<path fill="none" stroke="midnightblue" d="M2729.24,-992.075C2761.34,-988.445 2808.52,-978.124 2837,-949 2858.04,-927.48 2856,-914.098 2856,-884 2856,-884 2856,-884 2856,-367 2856,-202.296 2220.15,-190.354 2064.21,-189.902"/>
<polygon fill="midnightblue" stroke="midnightblue" points="2063.83,-186.402 2053.83,-189.887 2063.82,-193.402 2063.83,-186.402"/>
</g>
<!-- Node39&#45;&gt;Node34 -->
<g id="edge134" class="edge"><title>Node39&#45;&gt;Node34</title>
<path fill="none" stroke="midnightblue" d="M2674.33,-985.477C2586.07,-949.227 2231.7,-805.143 1934,-705 1896.63,-692.429 1853.49,-679.92 1822.57,-671.293"/>
<polygon fill="midnightblue" stroke="midnightblue" points="1823.15,-667.821 1812.57,-668.522 1821.28,-674.567 1823.15,-667.821"/>
</g>
<!-- Node39&#45;&gt;Node36 -->
<g id="edge127" class="edge"><title>Node39&#45;&gt;Node36</title>
<path fill="none" stroke="midnightblue" d="M2690.55,-985.32C2683.54,-972.171 2668.97,-946.848 2652,-929 2587.11,-860.746 2486.98,-808.052 2438.39,-784.887"/>
<polygon fill="midnightblue" stroke="midnightblue" points="2439.65,-781.611 2429.11,-780.524 2436.67,-787.946 2439.65,-781.611"/>
</g>
<!-- Node40 -->
<g id="node40" class="node"><title>Node40</title>
<polygon fill="white" stroke="#bfbfbf" points="2742,-929.5 2742,-948.5 2828,-948.5 2828,-929.5 2742,-929.5"/>
<text text-anchor="middle" x="2785" y="-936.5" font-family="Helvetica,sans-Serif" font-size="10.00">dmlc/registry.h</text>
</g>
<!-- Node39&#45;&gt;Node40 -->
<g id="edge126" class="edge"><title>Node39&#45;&gt;Node40</title>
<path fill="none" stroke="midnightblue" d="M2709.46,-985.324C2723.5,-976.9 2745.05,-963.971 2761.54,-954.074"/>
<polygon fill="midnightblue" stroke="midnightblue" points="2763.8,-956.801 2770.58,-948.655 2760.2,-950.798 2763.8,-956.801"/>
</g>
<!-- Node41 -->
<g id="node41" class="node"><title>Node41</title>
<g id="a_node41"><a xlink:href="registry_8h.html" target="_top" xlink:title="This file defines the TVM global function registry. ">
<polygon fill="white" stroke="black" points="2516,-358.5 2516,-377.5 2638,-377.5 2638,-358.5 2516,-358.5"/>
<text text-anchor="middle" x="2577" y="-365.5" font-family="Helvetica,sans-Serif" font-size="10.00">tvm/runtime/registry.h</text>
</a>
</g>
</g>
<!-- Node39&#45;&gt;Node41 -->
<g id="edge128" class="edge"><title>Node39&#45;&gt;Node41</title>
<path fill="none" stroke="midnightblue" d="M2697.56,-985.249C2702.75,-966.738 2714,-922.179 2714,-884 2714,-884 2714,-884 2714,-714 2714,-576.88 2719.47,-527.139 2642,-414 2632.89,-400.695 2618.45,-390.125 2605.49,-382.581"/>
<polygon fill="midnightblue" stroke="midnightblue" points="2606.87,-379.346 2596.42,-377.627 2603.52,-385.49 2606.87,-379.346"/>
</g>
<!-- Node42 -->
<g id="node42" class="node"><title>Node42</title>
<g id="a_node42"><a xlink:href="type__relation_8h.html" target="_top" xlink:title="Type relation and function for type inference(checking). ">
<polygon fill="white" stroke="black" points="2204.5,-929.5 2204.5,-948.5 2323.5,-948.5 2323.5,-929.5 2204.5,-929.5"/>
<text text-anchor="middle" x="2264" y="-936.5" font-family="Helvetica,sans-Serif" font-size="10.00">tvm/ir/type_relation.h</text>
</a>
</g>
</g>
<!-- Node39&#45;&gt;Node42 -->
<g id="edge135" class="edge"><title>Node39&#45;&gt;Node42</title>
<path fill="none" stroke="midnightblue" d="M2660.82,-989.718C2590.32,-980.884 2427.53,-960.489 2333.83,-948.749"/>
<polygon fill="midnightblue" stroke="midnightblue" points="2334.23,-945.272 2323.87,-947.501 2333.36,-952.217 2334.23,-945.272"/>
</g>
<!-- Node41&#45;&gt;Node10 -->
<g id="edge130" class="edge"><title>Node41&#45;&gt;Node10</title>
<path fill="none" stroke="midnightblue" d="M2595.51,-358.459C2610.1,-350.833 2629.94,-338.347 2642,-322 2663.03,-293.495 2666,-281.422 2666,-246 2666,-246 2666,-246 2666,-188 2666,-157.205 2673.2,-148.812 2690,-123 2698.86,-109.383 2712.01,-96.6579 2722.87,-87.3876"/>
<polygon fill="midnightblue" stroke="midnightblue" points="2725.11,-90.0702 2730.61,-81.0144 2720.67,-84.6642 2725.11,-90.0702"/>
</g>
<!-- Node41&#45;&gt;Node11 -->
<g id="edge132" class="edge"><title>Node41&#45;&gt;Node11</title>
<path fill="none" stroke="midnightblue" d="M2576.99,-358.246C2576.71,-343.763 2574.97,-314.12 2566,-291 2555.12,-262.957 2549.61,-255.925 2528,-235 2461.13,-170.236 2439.3,-152.473 2351,-123 2238.24,-85.3637 1864.62,-75.2464 1753.46,-73.0381"/>
<polygon fill="midnightblue" stroke="midnightblue" points="1753.31,-69.5348 1743.25,-72.8431 1753.18,-76.5335 1753.31,-69.5348"/>
</g>
<!-- Node41&#45;&gt;Node16 -->
<g id="edge129" class="edge"><title>Node41&#45;&gt;Node16</title>
<path fill="none" stroke="midnightblue" d="M2515.76,-363.278C2341.75,-352.703 1845.36,-322.533 1664.74,-311.557"/>
<polygon fill="midnightblue" stroke="midnightblue" points="1664.78,-308.052 1654.59,-310.939 1664.36,-315.04 1664.78,-308.052"/>
</g>
<!-- Node41&#45;&gt;Node19 -->
<g id="edge131" class="edge"><title>Node41&#45;&gt;Node19</title>
<path fill="none" stroke="midnightblue" d="M2562.87,-358.497C2523.06,-334.934 2405.95,-268.346 2300,-235 2217.48,-209.027 2115.78,-197.237 2063.91,-192.594"/>
<polygon fill="midnightblue" stroke="midnightblue" points="2063.89,-189.079 2053.63,-191.709 2063.29,-196.053 2063.89,-189.079"/>
</g>
<!-- Node42&#45;&gt;Node34 -->
<g id="edge136" class="edge"><title>Node42&#45;&gt;Node34</title>
<path fill="none" stroke="midnightblue" d="M2255.46,-929.241C2234.5,-908.068 2178.26,-853.185 2124,-817 2123.82,-816.879 1900.2,-705.087 1900,-705 1872.03,-692.756 1839.56,-680.612 1815.61,-672.032"/>
<polygon fill="midnightblue" stroke="midnightblue" points="1816.5,-668.634 1805.91,-668.583 1814.16,-675.23 1816.5,-668.634"/>
</g>
<!-- Node42&#45;&gt;Node36 -->
<g id="edge156" class="edge"><title>Node42&#45;&gt;Node36</title>
<path fill="none" stroke="midnightblue" d="M2273.45,-929.313C2282.96,-920.446 2297.9,-906.158 2310,-893 2342.88,-857.247 2378.45,-812.627 2397.02,-788.817"/>
<polygon fill="midnightblue" stroke="midnightblue" points="2399.9,-790.817 2403.27,-780.772 2394.37,-786.524 2399.9,-790.817"/>
</g>
<!-- Node42&#45;&gt;Node43 -->
<g id="edge137" class="edge"><title>Node42&#45;&gt;Node43</title>
<path fill="none" stroke="midnightblue" d="M2204.4,-930.263C2124.2,-919.853 1982.58,-901.47 1904.18,-891.292"/>
<polygon fill="midnightblue" stroke="midnightblue" points="1904.38,-887.789 1894.01,-889.973 1903.48,-894.731 1904.38,-887.789"/>
</g>
<!-- Node46 -->
<g id="node46" class="node"><title>Node46</title>
<g id="a_node46"><a xlink:href="env__func_8h.html" target="_top" xlink:title="Serializable global function used in IR. ">
<polygon fill="white" stroke="black" points="2210.5,-537.5 2210.5,-556.5 2309.5,-556.5 2309.5,-537.5 2210.5,-537.5"/>
<text text-anchor="middle" x="2260" y="-544.5" font-family="Helvetica,sans-Serif" font-size="10.00">tvm/ir/env_func.h</text>
</a>
</g>
</g>
<!-- Node42&#45;&gt;Node46 -->
<g id="edge152" class="edge"><title>Node42&#45;&gt;Node46</title>
<path fill="none" stroke="midnightblue" d="M2268.32,-929.408C2277.05,-911.2 2296,-867.181 2296,-828 2296,-828 2296,-828 2296,-658 2296,-623.982 2280.26,-586.85 2269.59,-565.6"/>
<polygon fill="midnightblue" stroke="midnightblue" points="2272.59,-563.772 2264.86,-556.527 2266.38,-567.012 2272.59,-563.772"/>
</g>
<!-- Node43&#45;&gt;Node2 -->
<g id="edge140" class="edge"><title>Node43&#45;&gt;Node2</title>
<path fill="none" stroke="midnightblue" d="M1882.86,-873.444C1920.92,-864.102 1981.96,-849.119 2023.46,-838.933"/>
<polygon fill="midnightblue" stroke="midnightblue" points="2024.43,-842.299 2033.3,-836.516 2022.76,-835.501 2024.43,-842.299"/>
</g>
<!-- Node43&#45;&gt;Node3 -->
<g id="edge139" class="edge"><title>Node43&#45;&gt;Node3</title>
<path fill="none" stroke="midnightblue" d="M1827.09,-873.455C1787.71,-857.11 1700.17,-819.596 1630,-781 1601.16,-765.14 1569.49,-744.13 1549.45,-730.348"/>
<polygon fill="midnightblue" stroke="midnightblue" points="1551.32,-727.387 1541.1,-724.569 1547.33,-733.141 1551.32,-727.387"/>
</g>
<!-- Node43&#45;&gt;Node10 -->
<g id="edge148" class="edge"><title>Node43&#45;&gt;Node10</title>
<path fill="none" stroke="midnightblue" d="M1894.2,-881.69C2118.58,-878.97 3084,-852.812 3084,-604 3084,-604 3084,-604 3084,-188 3084,-143.215 3047.43,-142.266 3007,-123 2929.04,-85.8506 2825.91,-76.0175 2774.31,-73.4232"/>
<polygon fill="midnightblue" stroke="midnightblue" points="2774.25,-69.9174 2764.11,-72.9723 2773.94,-76.9106 2774.25,-69.9174"/>
</g>
<!-- Node43&#45;&gt;Node19 -->
<g id="edge149" class="edge"><title>Node43&#45;&gt;Node19</title>
<path fill="none" stroke="midnightblue" d="M1884.6,-873.437C1906.5,-866.695 1933.58,-855.303 1952,-837 2011.22,-778.164 2149.52,-467.125 2190,-255 2191.67,-246.269 2195.37,-242.085 2190,-235 2174.82,-214.962 2106.19,-201.355 2063.89,-194.707"/>
<polygon fill="midnightblue" stroke="midnightblue" points="2064.17,-191.209 2053.76,-193.167 2063.12,-198.129 2064.17,-191.209"/>
</g>
<!-- Node43&#45;&gt;Node20 -->
<g id="edge150" class="edge"><title>Node43&#45;&gt;Node20</title>
<path fill="none" stroke="midnightblue" d="M1801.97,-881.617C1523.49,-879.006 76,-861.146 76,-772 76,-772 76,-772 76,-367 76,-270.991 157.194,-268.952 247,-235 361.498,-191.714 732.915,-188.903 876.04,-189.496"/>
<polygon fill="midnightblue" stroke="midnightblue" points="876.331,-192.998 886.348,-189.547 876.365,-185.998 876.331,-192.998"/>
</g>
<!-- Node43&#45;&gt;Node34 -->
<g id="edge138" class="edge"><title>Node43&#45;&gt;Node34</title>
<path fill="none" stroke="midnightblue" d="M1883.01,-873.445C1901.93,-866.844 1923.68,-855.594 1935,-837 1943.59,-822.882 1941.81,-783.7 1928,-761 1901.37,-717.235 1847.77,-687.854 1813.17,-672.544"/>
<polygon fill="midnightblue" stroke="midnightblue" points="1814.53,-669.317 1803.96,-668.599 1811.77,-675.752 1814.53,-669.317"/>
</g>
<!-- Node44 -->
<g id="node44" class="node"><title>Node44</title>
<g id="a_node44"><a xlink:href="ir_2adt_8h.html" target="_top" xlink:title="Algebraic data type definitions. ">
<polygon fill="white" stroke="black" points="1847,-761.5 1847,-780.5 1919,-780.5 1919,-761.5 1847,-761.5"/>
<text text-anchor="middle" x="1883" y="-768.5" font-family="Helvetica,sans-Serif" font-size="10.00">tvm/ir/adt.h</text>
</a>
</g>
</g>
<!-- Node43&#45;&gt;Node44 -->
<g id="edge141" class="edge"><title>Node43&#45;&gt;Node44</title>
<path fill="none" stroke="midnightblue" d="M1842.09,-873.264C1834.22,-860.473 1822.27,-836.096 1831,-817 1836.78,-804.36 1848.05,-793.911 1858.63,-786.274"/>
<polygon fill="midnightblue" stroke="midnightblue" points="1860.85,-789.001 1867.22,-780.533 1856.96,-783.182 1860.85,-789.001"/>
</g>
<!-- Node45 -->
<g id="node45" class="node"><title>Node45</title>
<polygon fill="white" stroke="#bfbfbf" points="1840,-817.5 1840,-836.5 1926,-836.5 1926,-817.5 1840,-817.5"/>
<text text-anchor="middle" x="1883" y="-824.5" font-family="Helvetica,sans-Serif" font-size="10.00">unordered_set</text>
</g>
<!-- Node43&#45;&gt;Node45 -->
<g id="edge151" class="edge"><title>Node43&#45;&gt;Node45</title>
<path fill="none" stroke="midnightblue" d="M1853.78,-873.083C1858.67,-865.534 1865.83,-854.495 1871.83,-845.23"/>
<polygon fill="midnightblue" stroke="midnightblue" points="1874.83,-847.046 1877.33,-836.751 1868.95,-843.239 1874.83,-847.046"/>
</g>
<!-- Node44&#45;&gt;Node3 -->
<g id="edge145" class="edge"><title>Node44&#45;&gt;Node3</title>
<path fill="none" stroke="midnightblue" d="M1846.98,-763.358C1842.28,-762.538 1837.53,-761.732 1833,-761 1721.75,-743.015 1693.34,-742.435 1582,-725 1580.7,-724.797 1579.39,-724.589 1578.06,-724.377"/>
<polygon fill="midnightblue" stroke="midnightblue" points="1578.2,-720.854 1567.77,-722.702 1577.08,-727.763 1578.2,-720.854"/>
</g>
<!-- Node44&#45;&gt;Node4 -->
<g id="edge142" class="edge"><title>Node44&#45;&gt;Node4</title>
<path fill="none" stroke="midnightblue" d="M1846.92,-762.787C1696.54,-732.214 1120.69,-609.883 974,-501 920.439,-461.243 909.979,-440.979 888,-378 873.406,-336.184 849.813,-213.964 877,-179 890.497,-161.642 941.324,-149.884 985.069,-142.753"/>
<polygon fill="midnightblue" stroke="midnightblue" points="985.806,-146.18 995.142,-141.17 984.72,-139.265 985.806,-146.18"/>
</g>
<!-- Node44&#45;&gt;Node10 -->
<g id="edge147" class="edge"><title>Node44&#45;&gt;Node10</title>
<path fill="none" stroke="midnightblue" d="M1910.56,-761.491C1986.45,-738.043 2204.83,-670.426 2386,-613 2639.37,-532.687 2932,-634.796 2932,-369 2932,-369 2932,-369 2932,-188 2932,-157.205 2930.4,-144.131 2908,-123 2871.2,-88.2905 2811.25,-77.3878 2774.36,-73.9941"/>
<polygon fill="midnightblue" stroke="midnightblue" points="2774.4,-70.4863 2764.15,-73.193 2773.85,-77.4648 2774.4,-70.4863"/>
</g>
<!-- Node44&#45;&gt;Node13 -->
<g id="edge143" class="edge"><title>Node44&#45;&gt;Node13</title>
<path fill="none" stroke="midnightblue" d="M1864.68,-761.392C1820.5,-740.778 1704.42,-687.442 1605,-649 1558.59,-631.056 1545.03,-631.894 1499,-613 1460.23,-597.084 1416.83,-575.264 1390.21,-561.397"/>
<polygon fill="midnightblue" stroke="midnightblue" points="1391.69,-558.218 1381.2,-556.674 1388.44,-564.418 1391.69,-558.218"/>
</g>
<!-- Node44&#45;&gt;Node28 -->
<g id="edge144" class="edge"><title>Node44&#45;&gt;Node28</title>
<path fill="none" stroke="midnightblue" d="M1880.45,-761.461C1873.99,-740.773 1855.54,-686.889 1828,-649 1770.66,-570.117 1723.14,-580.032 1666,-501 1641.17,-466.66 1660.42,-440.048 1627,-414 1598.81,-392.031 1507.28,-379.993 1441.95,-374.024"/>
<polygon fill="midnightblue" stroke="midnightblue" points="1441.98,-370.513 1431.71,-373.118 1441.36,-377.486 1441.98,-370.513"/>
</g>
<!-- Node44&#45;&gt;Node34 -->
<g id="edge146" class="edge"><title>Node44&#45;&gt;Node34</title>
<path fill="none" stroke="midnightblue" d="M1875,-761.368C1857.94,-742.974 1817.79,-699.671 1795.88,-676.052"/>
<polygon fill="midnightblue" stroke="midnightblue" points="1798.33,-673.544 1788.97,-668.591 1793.2,-678.304 1798.33,-673.544"/>
</g>
<!-- Node46&#45;&gt;Node10 -->
<g id="edge154" class="edge"><title>Node46&#45;&gt;Node10</title>
<path fill="none" stroke="midnightblue" d="M2295.16,-537.447C2347.98,-524.678 2451.03,-500.089 2539,-481 2618.3,-463.792 2648.5,-486.894 2718,-445 2755.33,-422.495 2780,-412.592 2780,-369 2780,-369 2780,-369 2780,-188 2780,-151.754 2762.91,-112.171 2751.65,-90.0327"/>
<polygon fill="midnightblue" stroke="midnightblue" points="2754.73,-88.3745 2746.97,-81.1633 2748.54,-91.641 2754.73,-88.3745"/>
</g>
<!-- Node46&#45;&gt;Node11 -->
<g id="edge155" class="edge"><title>Node46&#45;&gt;Node11</title>
<path fill="none" stroke="midnightblue" d="M2268.28,-537.359C2302.86,-500.202 2431.34,-350.661 2376,-235 2341.76,-163.433 2310.44,-153.016 2237,-123 2148.43,-86.7995 1850.68,-75.8783 1753.19,-73.2313"/>
<polygon fill="midnightblue" stroke="midnightblue" points="1753.18,-69.73 1743.09,-72.9676 1753,-76.7276 1753.18,-69.73"/>
</g>
<!-- Node46&#45;&gt;Node15 -->
<g id="edge153" class="edge"><title>Node46&#45;&gt;Node15</title>
<path fill="none" stroke="midnightblue" d="M2210.14,-540.871C2116.16,-531.205 1912.63,-510.271 1805,-499.2"/>
<polygon fill="midnightblue" stroke="midnightblue" points="1805.2,-495.702 1794.89,-498.16 1804.48,-502.665 1805.2,-495.702"/>
</g>
<!-- Node47&#45;&gt;Node10 -->
<g id="edge179" class="edge"><title>Node47&#45;&gt;Node10</title>
<path fill="none" stroke="midnightblue" d="M1486.71,-825.987C1635.92,-824.454 2352.11,-798.341 2755,-445 2844.83,-366.215 2804.54,-298.02 2794,-179 2791.77,-153.816 2794.66,-145.926 2784,-123 2777.98,-110.044 2767.79,-97.6731 2758.95,-88.4181"/>
<polygon fill="midnightblue" stroke="midnightblue" points="2761.23,-85.7419 2751.68,-81.1506 2756.28,-90.6942 2761.23,-85.7419"/>
</g>
<!-- Node47&#45;&gt;Node13 -->
<g id="edge178" class="edge"><title>Node47&#45;&gt;Node13</title>
<path fill="none" stroke="midnightblue" d="M1431.12,-825.681C1368.07,-823.338 1220,-808.039 1220,-716 1220,-716 1220,-716 1220,-658 1220,-605.527 1281.02,-574.844 1323.89,-559.761"/>
<polygon fill="midnightblue" stroke="midnightblue" points="1325.17,-563.021 1333.54,-556.518 1322.94,-556.386 1325.17,-563.021"/>
</g>
<!-- Node47&#45;&gt;Node19 -->
<g id="edge180" class="edge"><title>Node47&#45;&gt;Node19</title>
<path fill="none" stroke="midnightblue" d="M1486.7,-825.228C1582.39,-822.306 1895.04,-810.559 1928,-781 2101.24,-625.637 2049.74,-291.119 2033.86,-208.658"/>
<polygon fill="midnightblue" stroke="midnightblue" points="2037.28,-207.863 2031.89,-198.74 2030.41,-209.231 2037.28,-207.863"/>
</g>
<!-- Node47&#45;&gt;Node33 -->
<g id="edge164" class="edge"><title>Node47&#45;&gt;Node33</title>
<path fill="none" stroke="midnightblue" d="M1455.32,-817.297C1441.43,-784.494 1392.05,-667.884 1372.78,-622.377"/>
<polygon fill="midnightblue" stroke="midnightblue" points="1375.88,-620.728 1368.76,-612.884 1369.44,-623.457 1375.88,-620.728"/>
</g>
<!-- Node48 -->
<g id="node48" class="node"><title>Node48</title>
<g id="a_node48"><a xlink:href="tir_2expr_8h.html" target="_top" xlink:title="TIR expressions. ">
<polygon fill="white" stroke="black" points="967,-761.5 967,-780.5 1047,-780.5 1047,-761.5 967,-761.5"/>
<text text-anchor="middle" x="1007" y="-768.5" font-family="Helvetica,sans-Serif" font-size="10.00">tvm/tir/expr.h</text>
</a>
</g>
</g>
<!-- Node47&#45;&gt;Node48 -->
<g id="edge165" class="edge"><title>Node47&#45;&gt;Node48</title>
<path fill="none" stroke="midnightblue" d="M1431.41,-822.703C1357.16,-813.833 1152.31,-789.36 1056.99,-777.972"/>
<polygon fill="midnightblue" stroke="midnightblue" points="1057.36,-774.492 1047.02,-776.781 1056.53,-781.443 1057.36,-774.492"/>
</g>
<!-- Node48&#45;&gt;Node3 -->
<g id="edge171" class="edge"><title>Node48&#45;&gt;Node3</title>
<path fill="none" stroke="midnightblue" d="M1047.09,-765.852C1141.49,-756.087 1377.52,-731.671 1480.11,-721.058"/>
<polygon fill="midnightblue" stroke="midnightblue" points="1480.61,-724.525 1490.19,-720.014 1479.89,-717.562 1480.61,-724.525"/>
</g>
<!-- Node48&#45;&gt;Node6 -->
<g id="edge169" class="edge"><title>Node48&#45;&gt;Node6</title>
<path fill="none" stroke="midnightblue" d="M966.895,-769.34C793.132,-765.962 114,-747.183 114,-660 114,-660 114,-660 114,-305.5 114,-241.33 182.193,-262.859 240,-235 358.514,-177.886 386.536,-155.566 514,-123 549.324,-113.975 770.539,-91.3367 888.347,-79.6816"/>
<polygon fill="midnightblue" stroke="midnightblue" points="888.769,-83.1569 898.377,-78.6911 888.081,-76.1908 888.769,-83.1569"/>
</g>
<!-- Node48&#45;&gt;Node10 -->
<g id="edge172" class="edge"><title>Node48&#45;&gt;Node10</title>
<path fill="none" stroke="midnightblue" d="M1047.16,-768.276C1140.38,-763.957 1378.54,-751.103 1576,-725 1726.38,-705.12 2894,-520.693 2894,-369 2894,-369 2894,-369 2894,-188 2894,-157.205 2891.53,-145.015 2870,-123 2844.11,-96.5349 2802.66,-83.6055 2773.98,-77.5222"/>
<polygon fill="midnightblue" stroke="midnightblue" points="2774.52,-74.063 2764.04,-75.5783 2773.18,-80.9329 2774.52,-74.063"/>
</g>
<!-- Node48&#45;&gt;Node11 -->
<g id="edge177" class="edge"><title>Node48&#45;&gt;Node11</title>
<path fill="none" stroke="midnightblue" d="M1011.43,-761.156C1024.26,-735.884 1061.84,-664.196 1083,-649 1169.5,-586.864 1211.61,-614.121 1316,-593 1731.53,-508.925 2060.5,-652.464 2208,-255 2219.78,-223.264 2226.23,-210.159 2213,-179 2199,-146.017 2187.39,-138.327 2155,-123 2083.5,-89.1662 1840.07,-76.9156 1753.16,-73.5593"/>
<polygon fill="midnightblue" stroke="midnightblue" points="1753.25,-70.0602 1743.12,-73.1848 1752.99,-77.0554 1753.25,-70.0602"/>
</g>
<!-- Node48&#45;&gt;Node13 -->
<g id="edge166" class="edge"><title>Node48&#45;&gt;Node13</title>
<path fill="none" stroke="midnightblue" d="M1007.6,-761.361C1009.57,-739.488 1017.73,-681.368 1050,-649 1118.98,-579.8 1235.4,-557.97 1305.74,-551.11"/>
<polygon fill="midnightblue" stroke="midnightblue" points="1306.13,-554.59 1315.77,-550.203 1305.5,-547.618 1306.13,-554.59"/>
</g>
<!-- Node48&#45;&gt;Node20 -->
<g id="edge174" class="edge"><title>Node48&#45;&gt;Node20</title>
<path fill="none" stroke="midnightblue" d="M966.908,-762.587C916.366,-750.658 836,-721.951 836,-660 836,-660 836,-660 836,-602 836,-596.889 909.31,-289.285 928.466,-208.997"/>
<polygon fill="midnightblue" stroke="midnightblue" points="931.967,-209.403 930.884,-198.864 925.158,-207.779 931.967,-209.403"/>
</g>
<!-- Node48&#45;&gt;Node22 -->
<g id="edge170" class="edge"><title>Node48&#45;&gt;Node22</title>
<path fill="none" stroke="midnightblue" d="M966.782,-768.851C835.075,-764.856 422.029,-750.413 368,-725 331.873,-708.007 306,-699.923 306,-660 306,-660 306,-660 306,-546 306,-431.547 380.357,-308.061 410.006,-263.371"/>
<polygon fill="midnightblue" stroke="midnightblue" points="413.07,-265.088 415.763,-254.841 407.268,-261.172 413.07,-265.088"/>
</g>
<!-- Node48&#45;&gt;Node25 -->
<g id="edge176" class="edge"><title>Node48&#45;&gt;Node25</title>
<path fill="none" stroke="midnightblue" d="M966.961,-768.791C861.898,-765.256 580.345,-753.341 492,-725 437.928,-707.653 382,-716.786 382,-660 382,-660 382,-660 382,-546 382,-516.263 307.555,-323.904 284.034,-263.869"/>
<polygon fill="midnightblue" stroke="midnightblue" points="287.287,-262.58 280.375,-254.551 280.772,-265.138 287.287,-262.58"/>
</g>
<!-- Node48&#45;&gt;Node27 -->
<g id="edge168" class="edge"><title>Node48&#45;&gt;Node27</title>
<path fill="none" stroke="midnightblue" d="M966.631,-770.491C839.846,-770.963 458,-763.768 458,-660 458,-660 458,-660 458,-546 458,-386.834 670.662,-290.278 755.581,-258.067"/>
<polygon fill="midnightblue" stroke="midnightblue" points="756.895,-261.312 765.046,-254.543 754.453,-254.752 756.895,-261.312"/>
</g>
<!-- Node48&#45;&gt;Node28 -->
<g id="edge167" class="edge"><title>Node48&#45;&gt;Node28</title>
<path fill="none" stroke="midnightblue" d="M1004.44,-761.249C999.251,-742.738 988,-698.179 988,-660 988,-660 988,-660 988,-490 988,-424.845 1191.65,-390.416 1302.34,-376.516"/>
<polygon fill="midnightblue" stroke="midnightblue" points="1302.92,-379.97 1312.42,-375.274 1302.07,-373.022 1302.92,-379.97"/>
</g>
<!-- Node48&#45;&gt;Node32 -->
<g id="edge175" class="edge"><title>Node48&#45;&gt;Node32</title>
<path fill="none" stroke="midnightblue" d="M966.916,-767.494C865.735,-760.074 608,-733.921 608,-660 608,-660 608,-660 608,-602 608,-546.007 617.608,-480.29 622.785,-448.944"/>
<polygon fill="midnightblue" stroke="midnightblue" points="626.244,-449.477 624.465,-439.032 619.343,-448.306 626.244,-449.477"/>
</g>
<!-- Node48&#45;&gt;Node35 -->
<g id="edge173" class="edge"><title>Node48&#45;&gt;Node35</title>
<path fill="none" stroke="midnightblue" d="M1024.71,-761.361C1039.97,-753.347 1062,-740.363 1078,-725 1092.5,-711.078 1105.14,-691.812 1113.3,-677.873"/>
<polygon fill="midnightblue" stroke="midnightblue" points="1116.54,-679.246 1118.41,-668.817 1110.45,-675.804 1116.54,-679.246"/>
</g>
<!-- Node49&#45;&gt;Node10 -->
<g id="edge191" class="edge"><title>Node49&#45;&gt;Node10</title>
<path fill="none" stroke="midnightblue" d="M2230.98,-990.33C2382.61,-968.97 3122,-854.823 3122,-660 3122,-660 3122,-660 3122,-188 3122,-143.215 3085.65,-141.797 3045,-123 2953.37,-80.6295 2831.57,-73.308 2774.33,-72.3692"/>
<polygon fill="midnightblue" stroke="midnightblue" points="2774.13,-68.8669 2764.09,-72.2595 2774.05,-75.8665 2774.13,-68.8669"/>
</g>
<!-- Node49&#45;&gt;Node34 -->
<g id="edge182" class="edge"><title>Node49&#45;&gt;Node34</title>
<path fill="none" stroke="midnightblue" d="M2177.33,-991.514C2094.27,-983.184 1842.85,-953.32 1793,-893 1766.31,-860.698 1774.92,-728.401 1779.21,-678.852"/>
<polygon fill="midnightblue" stroke="midnightblue" points="1782.72,-678.9 1780.14,-668.625 1775.75,-678.269 1782.72,-678.9"/>
</g>
<!-- Node49&#45;&gt;Node36 -->
<g id="edge187" class="edge"><title>Node49&#45;&gt;Node36</title>
<path fill="none" stroke="midnightblue" d="M2230.7,-990.884C2259.05,-986.282 2303.59,-975.176 2332,-949 2379.69,-905.061 2399.81,-826.701 2406.82,-790.847"/>
<polygon fill="midnightblue" stroke="midnightblue" points="2410.31,-791.263 2408.66,-780.797 2403.42,-790.007 2410.31,-791.263"/>
</g>
<!-- Node49&#45;&gt;Node41 -->
<g id="edge188" class="edge"><title>Node49&#45;&gt;Node41</title>
<path fill="none" stroke="midnightblue" d="M2230.77,-989.71C2262.08,-983.88 2314.78,-971.506 2355,-949 2472.25,-883.397 2514.36,-852.07 2558,-725 2600.14,-602.294 2586.01,-441.849 2579.5,-387.739"/>
<polygon fill="midnightblue" stroke="midnightblue" points="2582.95,-387.084 2578.22,-377.603 2576.01,-387.963 2582.95,-387.084"/>
</g>
<!-- Node49&#45;&gt;Node42 -->
<g id="edge186" class="edge"><title>Node49&#45;&gt;Node42</title>
<path fill="none" stroke="midnightblue" d="M2213.64,-985.324C2222.51,-977.341 2235.87,-965.313 2246.61,-955.653"/>
<polygon fill="midnightblue" stroke="midnightblue" points="2249.09,-958.125 2254.18,-948.834 2244.41,-952.922 2249.09,-958.125"/>
</g>
<!-- Node49&#45;&gt;Node46 -->
<g id="edge189" class="edge"><title>Node49&#45;&gt;Node46</title>
<path fill="none" stroke="midnightblue" d="M2195.4,-985.465C2178.81,-968.039 2144,-926.419 2144,-884 2144,-884 2144,-884 2144,-770 2144,-684.249 2212.83,-598.883 2244.45,-564.188"/>
<polygon fill="midnightblue" stroke="midnightblue" points="2247.03,-566.551 2251.28,-556.846 2241.91,-561.782 2247.03,-566.551"/>
</g>
<!-- Node49&#45;&gt;Node47 -->
<g id="edge192" class="edge"><title>Node49&#45;&gt;Node47</title>
<path fill="none" stroke="midnightblue" d="M2177.3,-993.595C2079.95,-991.851 1744.59,-983.42 1644,-949 1575.3,-925.49 1507.09,-870.633 1476.18,-843.61"/>
<polygon fill="midnightblue" stroke="midnightblue" points="1478.28,-840.796 1468.48,-836.775 1473.63,-846.031 1478.28,-840.796"/>
</g>
<!-- Node49&#45;&gt;Node48 -->
<g id="edge190" class="edge"><title>Node49&#45;&gt;Node48</title>
<path fill="none" stroke="midnightblue" d="M2177.41,-994.08C2092.21,-993.902 1818.59,-989.948 1597,-949 1378.5,-908.624 1126.03,-817.194 1038.66,-784.179"/>
<polygon fill="midnightblue" stroke="midnightblue" points="1039.67,-780.816 1029.07,-780.539 1037.18,-787.36 1039.67,-780.816"/>
</g>
<!-- Node50 -->
<g id="node50" class="node"><title>Node50</title>
<g id="a_node50"><a xlink:href="tensor__type_8h.html" target="_top" xlink:title="Polymorphic tensor types. ">
<polygon fill="white" stroke="black" points="1639.5,-761.5 1639.5,-780.5 1752.5,-780.5 1752.5,-761.5 1639.5,-761.5"/>
<text text-anchor="middle" x="1696" y="-768.5" font-family="Helvetica,sans-Serif" font-size="10.00">tvm/ir/tensor_type.h</text>
</a>
</g>
</g>
<!-- Node49&#45;&gt;Node50 -->
<g id="edge183" class="edge"><title>Node49&#45;&gt;Node50</title>
<path fill="none" stroke="midnightblue" d="M2177.28,-992.932C2086.4,-989.077 1792.99,-974.732 1760,-949 1710.01,-910.011 1699.03,-828.464 1696.65,-791.254"/>
<polygon fill="midnightblue" stroke="midnightblue" points="1700.12,-790.657 1696.14,-780.841 1693.13,-791.001 1700.12,-790.657"/>
</g>
<!-- Node50&#45;&gt;Node3 -->
<g id="edge185" class="edge"><title>Node50&#45;&gt;Node3</title>
<path fill="none" stroke="midnightblue" d="M1669.54,-761.444C1641.32,-752.32 1596.46,-737.813 1565.03,-727.651"/>
<polygon fill="midnightblue" stroke="midnightblue" points="1565.93,-724.263 1555.34,-724.516 1563.78,-730.923 1565.93,-724.263"/>
</g>
<!-- Node50&#45;&gt;Node34 -->
<g id="edge184" class="edge"><title>Node50&#45;&gt;Node34</title>
<path fill="none" stroke="midnightblue" d="M1702.67,-761.368C1716.76,-743.135 1749.76,-700.426 1768.11,-676.675"/>
<polygon fill="midnightblue" stroke="midnightblue" points="1771.02,-678.644 1774.36,-668.591 1765.48,-674.364 1771.02,-678.644"/>
</g>
</g>
</svg>
