<?xml version="1.0" encoding="UTF-8" standalone="no"?>
<!DOCTYPE svg PUBLIC "-//W3C//DTD SVG 1.1//EN"
 "http://www.w3.org/Graphics/SVG/1.1/DTD/svg11.dtd">
<!-- Generated by graphviz version 2.38.0 (20140413.2041)
 -->
<!-- Title: include/tvm/relay/type.h Pages: 1 -->
<svg width="3053pt" height="1013pt"
 viewBox="0.00 0.00 3053.01 1013.00" xmlns="http://www.w3.org/2000/svg" xmlns:xlink="http://www.w3.org/1999/xlink">
<g id="graph0" class="graph" transform="scale(1 1) rotate(0) translate(4 1009)">
<title>include/tvm/relay/type.h</title>
<polygon fill="white" stroke="none" points="-4,4 -4,-1009 3049.01,-1009 3049.01,4 -4,4"/>
<!-- Node1 -->
<g id="node1" class="node"><title>Node1</title>
<polygon fill="#bfbfbf" stroke="black" points="2383.51,-985.5 2383.51,-1004.5 2514.51,-1004.5 2514.51,-985.5 2383.51,-985.5"/>
<text text-anchor="middle" x="2449.01" y="-992.5" font-family="Helvetica,sans-Serif" font-size="10.00">include/tvm/relay/type.h</text>
</g>
<!-- Node2 -->
<g id="node2" class="node"><title>Node2</title>
<g id="a_node2"><a xlink:href="ir_2type_8h.html" target="_top" xlink:title="IR/AST nodes for the unified type system in TVM. ">
<polygon fill="white" stroke="black" points="2294.51,-649.5 2294.51,-668.5 2371.51,-668.5 2371.51,-649.5 2294.51,-649.5"/>
<text text-anchor="middle" x="2333.01" y="-656.5" font-family="Helvetica,sans-Serif" font-size="10.00">tvm/ir/type.h</text>
</a>
</g>
</g>
<!-- Node1&#45;&gt;Node2 -->
<g id="edge1" class="edge"><title>Node1&#45;&gt;Node2</title>
<path fill="none" stroke="midnightblue" d="M2462.67,-985.242C2486.7,-968.641 2534.01,-930.097 2534.01,-884 2534.01,-884 2534.01,-884 2534.01,-770 2534.01,-700.808 2441.22,-674.859 2381.73,-665.333"/>
<polygon fill="midnightblue" stroke="midnightblue" points="2382.18,-661.861 2371.77,-663.84 2381.14,-668.783 2382.18,-661.861"/>
</g>
<!-- Node10 -->
<g id="node10" class="node"><title>Node10</title>
<polygon fill="white" stroke="#bfbfbf" points="2652.01,-62 2652.01,-81 2696.01,-81 2696.01,-62 2652.01,-62"/>
<text text-anchor="middle" x="2674.01" y="-69" font-family="Helvetica,sans-Serif" font-size="10.00">string</text>
</g>
<!-- Node1&#45;&gt;Node10 -->
<g id="edge174" class="edge"><title>Node1&#45;&gt;Node10</title>
<path fill="none" stroke="midnightblue" d="M2514.79,-988.699C2669.79,-975.325 3045.01,-937.432 3045.01,-884 3045.01,-884 3045.01,-884 3045.01,-188 3045.01,-151.28 3025.68,-141.595 2994.01,-123 2945.58,-94.5542 2777.91,-79.754 2706.56,-74.6231"/>
<polygon fill="midnightblue" stroke="midnightblue" points="2706.58,-71.1162 2696.36,-73.9088 2706.09,-78.0991 2706.58,-71.1162"/>
</g>
<!-- Node37 -->
<g id="node37" class="node"><title>Node37</title>
<g id="a_node37"><a xlink:href="tensor__type_8h.html" target="_top" xlink:title="Polymorphic tensor types. ">
<polygon fill="white" stroke="black" points="2392.51,-761.5 2392.51,-780.5 2505.51,-780.5 2505.51,-761.5 2392.51,-761.5"/>
<text text-anchor="middle" x="2449.01" y="-768.5" font-family="Helvetica,sans-Serif" font-size="10.00">tvm/ir/tensor_type.h</text>
</a>
</g>
</g>
<!-- Node1&#45;&gt;Node37 -->
<g id="edge107" class="edge"><title>Node1&#45;&gt;Node37</title>
<path fill="none" stroke="midnightblue" d="M2449.01,-985.297C2449.01,-952.633 2449.01,-836.866 2449.01,-790.957"/>
<polygon fill="midnightblue" stroke="midnightblue" points="2452.51,-790.884 2449.01,-780.884 2445.51,-790.884 2452.51,-790.884"/>
</g>
<!-- Node40 -->
<g id="node40" class="node"><title>Node40</title>
<g id="a_node40"><a xlink:href="type__relation_8h.html" target="_top" xlink:title="Type relation and function for type inference(checking). ">
<polygon fill="white" stroke="black" points="2118.51,-929.5 2118.51,-948.5 2237.51,-948.5 2237.51,-929.5 2118.51,-929.5"/>
<text text-anchor="middle" x="2178.01" y="-936.5" font-family="Helvetica,sans-Serif" font-size="10.00">tvm/ir/type_relation.h</text>
</a>
</g>
</g>
<!-- Node1&#45;&gt;Node40 -->
<g id="edge119" class="edge"><title>Node1&#45;&gt;Node40</title>
<path fill="none" stroke="midnightblue" d="M2406.07,-985.444C2358.5,-975.964 2281.77,-960.675 2230.62,-950.483"/>
<polygon fill="midnightblue" stroke="midnightblue" points="2231.24,-947.038 2220.75,-948.516 2229.88,-953.903 2231.24,-947.038"/>
</g>
<!-- Node43 -->
<g id="node43" class="node"><title>Node43</title>
<g id="a_node43"><a xlink:href="ir_2attrs_8h.html" target="_top" xlink:title="Helpers for attribute objects. ">
<polygon fill="white" stroke="black" points="378.513,-761.5 378.513,-780.5 457.513,-780.5 457.513,-761.5 378.513,-761.5"/>
<text text-anchor="middle" x="418.013" y="-768.5" font-family="Helvetica,sans-Serif" font-size="10.00">tvm/ir/attrs.h</text>
</a>
</g>
</g>
<!-- Node1&#45;&gt;Node43 -->
<g id="edge154" class="edge"><title>Node1&#45;&gt;Node43</title>
<path fill="none" stroke="midnightblue" d="M2383.48,-993.713C2061.96,-991.897 659.852,-979.063 487.013,-893 447.263,-873.207 429.036,-819.554 421.908,-790.799"/>
<polygon fill="midnightblue" stroke="midnightblue" points="425.264,-789.775 419.631,-780.802 418.439,-791.329 425.264,-789.775"/>
</g>
<!-- Node47 -->
<g id="node47" class="node"><title>Node47</title>
<g id="a_node47"><a xlink:href="env__func_8h.html" target="_top" xlink:title="Serializable global function used in IR. ">
<polygon fill="white" stroke="black" points="442.513,-537.5 442.513,-556.5 541.513,-556.5 541.513,-537.5 442.513,-537.5"/>
<text text-anchor="middle" x="492.013" y="-544.5" font-family="Helvetica,sans-Serif" font-size="10.00">tvm/ir/env_func.h</text>
</a>
</g>
</g>
<!-- Node1&#45;&gt;Node47 -->
<g id="edge160" class="edge"><title>Node1&#45;&gt;Node47</title>
<path fill="none" stroke="midnightblue" d="M2383.38,-994.4C2148.77,-995.393 1329.75,-995.12 656.013,-949 526.62,-940.142 76.0125,-1013.7 76.0125,-884 76.0125,-884 76.0125,-884 76.0125,-770 76.0125,-610.475 317.057,-565.178 432.177,-552.642"/>
<polygon fill="midnightblue" stroke="midnightblue" points="432.662,-556.11 442.246,-551.594 431.938,-549.148 432.662,-556.11"/>
</g>
<!-- Node48 -->
<g id="node48" class="node"><title>Node48</title>
<g id="a_node48"><a xlink:href="registry_8h.html" target="_top" xlink:title="This file defines the TVM global function registry. ">
<polygon fill="white" stroke="black" points="2135.01,-358.5 2135.01,-377.5 2257.01,-377.5 2257.01,-358.5 2135.01,-358.5"/>
<text text-anchor="middle" x="2196.01" y="-365.5" font-family="Helvetica,sans-Serif" font-size="10.00">tvm/runtime/registry.h</text>
</a>
</g>
</g>
<!-- Node1&#45;&gt;Node48 -->
<g id="edge155" class="edge"><title>Node1&#45;&gt;Node48</title>
<path fill="none" stroke="midnightblue" d="M2508.62,-985.485C2599.44,-970.816 2762.01,-937.134 2762.01,-884 2762.01,-884 2762.01,-884 2762.01,-714 2762.01,-484.792 2419.4,-403.407 2267.3,-378.57"/>
<polygon fill="midnightblue" stroke="midnightblue" points="2267.55,-375.065 2257.12,-376.946 2266.45,-381.978 2267.55,-375.065"/>
</g>
<!-- Node49 -->
<g id="node49" class="node"><title>Node49</title>
<g id="a_node49"><a xlink:href="tir_2expr_8h.html" target="_top" xlink:title="TIR expressions. ">
<polygon fill="white" stroke="black" points="1666.01,-761.5 1666.01,-780.5 1746.01,-780.5 1746.01,-761.5 1666.01,-761.5"/>
<text text-anchor="middle" x="1706.01" y="-768.5" font-family="Helvetica,sans-Serif" font-size="10.00">tvm/tir/expr.h</text>
</a>
</g>
</g>
<!-- Node1&#45;&gt;Node49 -->
<g id="edge161" class="edge"><title>Node1&#45;&gt;Node49</title>
<path fill="none" stroke="midnightblue" d="M2383.31,-988.394C2314.44,-981.8 2203.35,-969.125 2109.01,-949 1938.07,-912.531 1861.15,-954.801 1732.01,-837 1718.7,-824.859 1712.09,-804.988 1708.88,-790.407"/>
<polygon fill="midnightblue" stroke="midnightblue" points="1712.31,-789.694 1707.04,-780.505 1705.43,-790.977 1712.31,-789.694"/>
</g>
<!-- Node50 -->
<g id="node50" class="node"><title>Node50</title>
<g id="a_node50"><a xlink:href="base_8h.html" target="_top" xlink:title="Base classes for the Relay IR. ">
<polygon fill="white" stroke="black" points="2573.51,-817.5 2573.51,-836.5 2622.51,-836.5 2622.51,-817.5 2573.51,-817.5"/>
<text text-anchor="middle" x="2598.01" y="-824.5" font-family="Helvetica,sans-Serif" font-size="10.00">base.h</text>
</a>
</g>
</g>
<!-- Node1&#45;&gt;Node50 -->
<g id="edge175" class="edge"><title>Node1&#45;&gt;Node50</title>
<path fill="none" stroke="midnightblue" d="M2483.06,-985.479C2504.14,-978.674 2530.44,-967.197 2548.01,-949 2576.21,-919.804 2589.4,-872.463 2594.8,-846.498"/>
<polygon fill="midnightblue" stroke="midnightblue" points="2598.27,-846.982 2596.7,-836.503 2591.39,-845.669 2598.27,-846.982"/>
</g>
<!-- Node3 -->
<g id="node3" class="node"><title>Node3</title>
<g id="a_node3"><a xlink:href="object_8h.html" target="_top" xlink:title="A managed object in the TVM runtime. ">
<polygon fill="white" stroke="black" points="1636.51,-123.5 1636.51,-142.5 1753.51,-142.5 1753.51,-123.5 1636.51,-123.5"/>
<text text-anchor="middle" x="1695.01" y="-130.5" font-family="Helvetica,sans-Serif" font-size="10.00">tvm/runtime/object.h</text>
</a>
</g>
</g>
<!-- Node2&#45;&gt;Node3 -->
<g id="edge2" class="edge"><title>Node2&#45;&gt;Node3</title>
<path fill="none" stroke="midnightblue" d="M2360.4,-649.471C2378.8,-642.425 2402.3,-630.678 2417.01,-613 2525.76,-482.291 2592.33,-359.027 2476.01,-235 2443.01,-199.806 2429.05,-193.427 2383.01,-179 2268.98,-143.269 1914.32,-135.9 1763.74,-134.387"/>
<polygon fill="midnightblue" stroke="midnightblue" points="1763.72,-130.887 1753.69,-134.292 1763.66,-137.887 1763.72,-130.887"/>
</g>
<!-- Node2&#45;&gt;Node10 -->
<g id="edge106" class="edge"><title>Node2&#45;&gt;Node10</title>
<path fill="none" stroke="midnightblue" d="M2359.92,-649.369C2382.1,-641.613 2413.88,-628.993 2439.01,-613 2481.86,-585.733 2779.01,-358.288 2779.01,-307.5 2779.01,-307.5 2779.01,-307.5 2779.01,-188 2779.01,-141.092 2731.01,-104.814 2699.92,-86.2359"/>
<polygon fill="midnightblue" stroke="midnightblue" points="2701.3,-82.9923 2690.88,-81.0464 2697.81,-89.0622 2701.3,-82.9923"/>
</g>
<!-- Node13 -->
<g id="node13" class="node"><title>Node13</title>
<g id="a_node13"><a xlink:href="data__type_8h.html" target="_top" xlink:title="tvm/runtime/data_type.h">
<polygon fill="white" stroke="black" points="1512.01,-235.5 1512.01,-254.5 1648.01,-254.5 1648.01,-235.5 1512.01,-235.5"/>
<text text-anchor="middle" x="1580.01" y="-242.5" font-family="Helvetica,sans-Serif" font-size="10.00">tvm/runtime/data_type.h</text>
</a>
</g>
</g>
<!-- Node2&#45;&gt;Node13 -->
<g id="edge12" class="edge"><title>Node2&#45;&gt;Node13</title>
<path fill="none" stroke="midnightblue" d="M2294.33,-650.204C2166.27,-623.728 1758.71,-533.948 1662.01,-445 1607.7,-395.038 1588.38,-303.72 1582.39,-264.597"/>
<polygon fill="midnightblue" stroke="midnightblue" points="1585.85,-264.04 1580.99,-254.626 1578.92,-265.017 1585.85,-264.04"/>
</g>
<!-- Node14 -->
<g id="node14" class="node"><title>Node14</title>
<g id="a_node14"><a xlink:href="node_8h.html" target="_top" xlink:title="Definitions and helper macros for IR/AST nodes. ">
<polygon fill="white" stroke="black" points="1602.01,-537.5 1602.01,-556.5 1700.01,-556.5 1700.01,-537.5 1602.01,-537.5"/>
<text text-anchor="middle" x="1651.01" y="-544.5" font-family="Helvetica,sans-Serif" font-size="10.00">tvm/node/node.h</text>
</a>
</g>
</g>
<!-- Node2&#45;&gt;Node14 -->
<g id="edge16" class="edge"><title>Node2&#45;&gt;Node14</title>
<path fill="none" stroke="midnightblue" d="M2294.39,-651.771C2180.72,-633.436 1846.77,-579.574 1710.22,-557.55"/>
<polygon fill="midnightblue" stroke="midnightblue" points="1710.78,-554.095 1700.35,-555.958 1709.66,-561.005 1710.78,-554.095"/>
</g>
<!-- Node31 -->
<g id="node31" class="node"><title>Node31</title>
<g id="a_node31"><a xlink:href="node_2container_8h.html" target="_top" xlink:title="Array/Map container in the DSL graph. ">
<polygon fill="white" stroke="black" points="854.513,-358.5 854.513,-377.5 973.513,-377.5 973.513,-358.5 854.513,-358.5"/>
<text text-anchor="middle" x="914.013" y="-365.5" font-family="Helvetica,sans-Serif" font-size="10.00">tvm/node/container.h</text>
</a>
</g>
</g>
<!-- Node2&#45;&gt;Node31 -->
<g id="edge101" class="edge"><title>Node2&#45;&gt;Node31</title>
<path fill="none" stroke="midnightblue" d="M2294.34,-654.133C2222.09,-646.815 2061.73,-630.134 1927.01,-613 1579.59,-568.815 1488.75,-577.619 1147.01,-501 1064.43,-482.485 1032.94,-495.482 965.013,-445 944.84,-430.008 930.126,-404.529 921.826,-387.245"/>
<polygon fill="midnightblue" stroke="midnightblue" points="924.817,-385.367 917.495,-377.709 918.444,-388.262 924.817,-385.367"/>
</g>
<!-- Node36 -->
<g id="node36" class="node"><title>Node36</title>
<g id="a_node36"><a xlink:href="span_8h.html" target="_top" xlink:title="Span information for debugging purposes. ">
<polygon fill="white" stroke="black" points="2328.01,-593.5 2328.01,-612.5 2408.01,-612.5 2408.01,-593.5 2328.01,-593.5"/>
<text text-anchor="middle" x="2368.01" y="-600.5" font-family="Helvetica,sans-Serif" font-size="10.00">tvm/ir/span.h</text>
</a>
</g>
</g>
<!-- Node2&#45;&gt;Node36 -->
<g id="edge102" class="edge"><title>Node2&#45;&gt;Node36</title>
<path fill="none" stroke="midnightblue" d="M2338.79,-649.083C2343.68,-641.534 2350.84,-630.495 2356.85,-621.23"/>
<polygon fill="midnightblue" stroke="midnightblue" points="2359.84,-623.046 2362.34,-612.751 2353.96,-619.239 2359.84,-623.046"/>
</g>
<!-- Node4 -->
<g id="node4" class="node"><title>Node4</title>
<polygon fill="white" stroke="#bfbfbf" points="1793.01,-62 1793.01,-81 1879.01,-81 1879.01,-62 1793.01,-62"/>
<text text-anchor="middle" x="1836.01" y="-69" font-family="Helvetica,sans-Serif" font-size="10.00">dmlc/logging.h</text>
</g>
<!-- Node3&#45;&gt;Node4 -->
<g id="edge3" class="edge"><title>Node3&#45;&gt;Node4</title>
<path fill="none" stroke="midnightblue" d="M1715.21,-123.475C1739.09,-113.401 1779.01,-96.5525 1806.39,-85.0023"/>
<polygon fill="midnightblue" stroke="midnightblue" points="1808,-88.1217 1815.85,-81.0091 1805.27,-81.6724 1808,-88.1217"/>
</g>
<!-- Node5 -->
<g id="node5" class="node"><title>Node5</title>
<g id="a_node5"><a xlink:href="c__runtime__api_8h.html" target="_top" xlink:title="tvm/runtime/c_runtime\l_api.h">
<polygon fill="white" stroke="black" points="1066.51,-56.5 1066.51,-86.5 1193.51,-86.5 1193.51,-56.5 1066.51,-56.5"/>
<text text-anchor="start" x="1074.51" y="-74.5" font-family="Helvetica,sans-Serif" font-size="10.00">tvm/runtime/c_runtime</text>
<text text-anchor="middle" x="1130.01" y="-63.5" font-family="Helvetica,sans-Serif" font-size="10.00">_api.h</text>
</a>
</g>
</g>
<!-- Node3&#45;&gt;Node5 -->
<g id="edge4" class="edge"><title>Node3&#45;&gt;Node5</title>
<path fill="none" stroke="midnightblue" d="M1636.45,-124.674C1631.57,-124.095 1626.71,-123.53 1622.01,-123 1473.83,-106.262 1300.27,-88.9927 1203.96,-79.6161"/>
<polygon fill="midnightblue" stroke="midnightblue" points="1204.04,-76.1072 1193.75,-78.623 1203.36,-83.0743 1204.04,-76.1072"/>
</g>
<!-- Node9 -->
<g id="node9" class="node"><title>Node9</title>
<polygon fill="white" stroke="#bfbfbf" points="574.013,-62 574.013,-81 642.013,-81 642.013,-62 574.013,-62"/>
<text text-anchor="middle" x="608.013" y="-69" font-family="Helvetica,sans-Serif" font-size="10.00">type_traits</text>
</g>
<!-- Node3&#45;&gt;Node9 -->
<g id="edge8" class="edge"><title>Node3&#45;&gt;Node9</title>
<path fill="none" stroke="midnightblue" d="M1636.28,-126.916C1619.41,-125.543 1600.99,-124.127 1584.01,-123 1224.73,-99.1443 790.399,-80.1361 652.357,-74.3325"/>
<polygon fill="midnightblue" stroke="midnightblue" points="652.316,-70.8278 642.178,-73.906 652.023,-77.8217 652.316,-70.8278"/>
</g>
<!-- Node3&#45;&gt;Node10 -->
<g id="edge9" class="edge"><title>Node3&#45;&gt;Node10</title>
<path fill="none" stroke="midnightblue" d="M1753.75,-126.986C1770.62,-125.614 1789.04,-124.182 1806.01,-123 2132.05,-100.301 2527.48,-79.8744 2641.7,-74.1135"/>
<polygon fill="midnightblue" stroke="midnightblue" points="2642.06,-77.6002 2651.87,-73.6021 2641.71,-70.6091 2642.06,-77.6002"/>
</g>
<!-- Node11 -->
<g id="node11" class="node"><title>Node11</title>
<polygon fill="white" stroke="#bfbfbf" points="435.013,-62 435.013,-81 477.013,-81 477.013,-62 435.013,-62"/>
<text text-anchor="middle" x="456.013" y="-69" font-family="Helvetica,sans-Serif" font-size="10.00">utility</text>
</g>
<!-- Node3&#45;&gt;Node11 -->
<g id="edge10" class="edge"><title>Node3&#45;&gt;Node11</title>
<path fill="none" stroke="midnightblue" d="M1636.46,-128.7C1603.44,-126.894 1561.43,-124.687 1524.01,-123 1097.92,-103.791 989.999,-123.162 565.013,-87 538.694,-84.7606 508.985,-80.7063 487.238,-77.4531"/>
<polygon fill="midnightblue" stroke="midnightblue" points="487.664,-73.9777 477.251,-75.9318 486.61,-80.8979 487.664,-73.9777"/>
</g>
<!-- Node12 -->
<g id="node12" class="node"><title>Node12</title>
<polygon fill="white" stroke="#bfbfbf" points="1441.01,-62 1441.01,-81 1491.01,-81 1491.01,-62 1441.01,-62"/>
<text text-anchor="middle" x="1466.01" y="-69" font-family="Helvetica,sans-Serif" font-size="10.00">atomic</text>
</g>
<!-- Node3&#45;&gt;Node12 -->
<g id="edge11" class="edge"><title>Node3&#45;&gt;Node12</title>
<path fill="none" stroke="midnightblue" d="M1662.2,-123.475C1619.5,-112.379 1545.15,-93.0629 1501.27,-81.6621"/>
<polygon fill="midnightblue" stroke="midnightblue" points="1501.9,-78.2083 1491.34,-79.081 1500.14,-84.9834 1501.9,-78.2083"/>
</g>
<!-- Node6 -->
<g id="node6" class="node"><title>Node6</title>
<polygon fill="white" stroke="#bfbfbf" points="995.013,-0.5 995.013,-19.5 1085.01,-19.5 1085.01,-0.5 995.013,-0.5"/>
<text text-anchor="middle" x="1040.01" y="-7.5" font-family="Helvetica,sans-Serif" font-size="10.00">dlpack/dlpack.h</text>
</g>
<!-- Node5&#45;&gt;Node6 -->
<g id="edge5" class="edge"><title>Node5&#45;&gt;Node6</title>
<path fill="none" stroke="midnightblue" d="M1108.68,-56.3993C1094.53,-47.0402 1076,-34.7924 1061.76,-25.3771"/>
<polygon fill="midnightblue" stroke="midnightblue" points="1063.38,-22.2531 1053.11,-19.6578 1059.52,-28.0923 1063.38,-22.2531"/>
</g>
<!-- Node7 -->
<g id="node7" class="node"><title>Node7</title>
<polygon fill="white" stroke="#bfbfbf" points="1103.51,-0.5 1103.51,-19.5 1156.51,-19.5 1156.51,-0.5 1103.51,-0.5"/>
<text text-anchor="middle" x="1130.01" y="-7.5" font-family="Helvetica,sans-Serif" font-size="10.00">stdint.h</text>
</g>
<!-- Node5&#45;&gt;Node7 -->
<g id="edge6" class="edge"><title>Node5&#45;&gt;Node7</title>
<path fill="none" stroke="midnightblue" d="M1130.01,-56.3993C1130.01,-48.4664 1130.01,-38.458 1130.01,-29.8583"/>
<polygon fill="midnightblue" stroke="midnightblue" points="1133.51,-29.6577 1130.01,-19.6578 1126.51,-29.6578 1133.51,-29.6577"/>
</g>
<!-- Node8 -->
<g id="node8" class="node"><title>Node8</title>
<polygon fill="white" stroke="#bfbfbf" points="1174.51,-0.5 1174.51,-19.5 1229.51,-19.5 1229.51,-0.5 1174.51,-0.5"/>
<text text-anchor="middle" x="1202.01" y="-7.5" font-family="Helvetica,sans-Serif" font-size="10.00">stddef.h</text>
</g>
<!-- Node5&#45;&gt;Node8 -->
<g id="edge7" class="edge"><title>Node5&#45;&gt;Node8</title>
<path fill="none" stroke="midnightblue" d="M1147.08,-56.3993C1158.08,-47.3076 1172.38,-35.4899 1183.63,-26.1909"/>
<polygon fill="midnightblue" stroke="midnightblue" points="1186.06,-28.726 1191.54,-19.6578 1181.6,-23.33 1186.06,-28.726"/>
</g>
<!-- Node13&#45;&gt;Node4 -->
<g id="edge14" class="edge"><title>Node13&#45;&gt;Node4</title>
<path fill="none" stroke="midnightblue" d="M1621.84,-235.439C1649.48,-228.505 1685.7,-216.9 1714.01,-199 1761.54,-168.956 1803.86,-116.62 1823.84,-89.6513"/>
<polygon fill="midnightblue" stroke="midnightblue" points="1826.9,-91.3948 1829.95,-81.2482 1821.24,-87.2786 1826.9,-91.3948"/>
</g>
<!-- Node13&#45;&gt;Node5 -->
<g id="edge13" class="edge"><title>Node13&#45;&gt;Node5</title>
<path fill="none" stroke="midnightblue" d="M1564.48,-235.497C1540.12,-222.36 1491.24,-196.788 1448.01,-179 1359.16,-142.438 1252.71,-108.757 1188.28,-89.4368"/>
<polygon fill="midnightblue" stroke="midnightblue" points="1189.28,-86.083 1178.7,-86.5765 1187.28,-92.7906 1189.28,-86.083"/>
</g>
<!-- Node13&#45;&gt;Node9 -->
<g id="edge15" class="edge"><title>Node13&#45;&gt;Node9</title>
<path fill="none" stroke="midnightblue" d="M1549.19,-235.431C1521.99,-227.419 1481.57,-214.397 1448.01,-199 1432.08,-191.689 1430.08,-186.01 1414.01,-179 1404.07,-174.664 1237.67,-125.007 1227.01,-123 1014.41,-82.9523 754.812,-74.6591 652.494,-72.945"/>
<polygon fill="midnightblue" stroke="midnightblue" points="652.284,-69.4415 642.231,-72.7866 652.176,-76.4406 652.284,-69.4415"/>
</g>
<!-- Node14&#45;&gt;Node3 -->
<g id="edge18" class="edge"><title>Node14&#45;&gt;Node3</title>
<path fill="none" stroke="midnightblue" d="M1686.87,-537.473C1815.6,-506.703 2247.73,-401.946 2266.01,-378 2298.6,-335.315 2343.44,-371.966 2205.01,-235 2164.32,-194.735 2144,-194.917 2089.01,-179 1978.25,-146.942 1843.78,-137.57 1764.03,-134.921"/>
<polygon fill="midnightblue" stroke="midnightblue" points="1763.73,-131.41 1753.63,-134.604 1763.51,-138.407 1763.73,-131.41"/>
</g>
<!-- Node14&#45;&gt;Node5 -->
<g id="edge17" class="edge"><title>Node14&#45;&gt;Node5</title>
<path fill="none" stroke="midnightblue" d="M1651.79,-537.193C1655.98,-489.18 1674.88,-260.233 1657.01,-235 1604.1,-160.271 1336.08,-106.498 1203.91,-84.0815"/>
<polygon fill="midnightblue" stroke="midnightblue" points="1204.31,-80.5989 1193.86,-82.3936 1203.15,-87.5021 1204.31,-80.5989"/>
</g>
<!-- Node14&#45;&gt;Node9 -->
<g id="edge100" class="edge"><title>Node14&#45;&gt;Node9</title>
<path fill="none" stroke="midnightblue" d="M1601.92,-546.098C1499.48,-545.472 1255.87,-539.635 1056.01,-501 975.002,-485.34 953.024,-481.473 879.013,-445 743.384,-378.162 708.602,-335.714 644.013,-199 632.445,-174.517 627.671,-168.973 620.013,-143 614.97,-125.898 611.808,-105.798 610.004,-91.445"/>
<polygon fill="midnightblue" stroke="midnightblue" points="613.461,-90.8671 608.839,-81.3337 606.507,-91.6688 613.461,-90.8671"/>
</g>
<!-- Node14&#45;&gt;Node10 -->
<g id="edge97" class="edge"><title>Node14&#45;&gt;Node10</title>
<path fill="none" stroke="midnightblue" d="M1700.46,-543.736C1833.33,-537.423 2189.31,-518.91 2207.01,-501 2234.26,-473.431 2186.45,-442.227 2213.01,-414 2255.4,-368.953 2431.63,-401.078 2489.01,-378 2611.71,-328.657 2658.37,-149.483 2670.53,-91.0595"/>
<polygon fill="midnightblue" stroke="midnightblue" points="2674,-91.5489 2672.51,-81.059 2667.13,-90.187 2674,-91.5489"/>
</g>
<!-- Node14&#45;&gt;Node11 -->
<g id="edge99" class="edge"><title>Node14&#45;&gt;Node11</title>
<path fill="none" stroke="midnightblue" d="M1601.82,-544.384C1465.5,-539.653 1084.87,-524.654 962.013,-501 634.075,-437.863 508.104,-469.351 252.013,-255 205.382,-215.97 177.696,-170.219 216.013,-123 241.965,-91.0186 365.752,-78.5342 424.686,-74.3431"/>
<polygon fill="midnightblue" stroke="midnightblue" points="425.156,-77.8195 434.898,-73.6542 424.685,-70.8353 425.156,-77.8195"/>
</g>
<!-- Node15 -->
<g id="node15" class="node"><title>Node15</title>
<g id="a_node15"><a xlink:href="runtime_2memory_8h.html" target="_top" xlink:title="Runtime memory management. ">
<polygon fill="white" stroke="black" points="674.513,-179.5 674.513,-198.5 801.513,-198.5 801.513,-179.5 674.513,-179.5"/>
<text text-anchor="middle" x="738.013" y="-186.5" font-family="Helvetica,sans-Serif" font-size="10.00">tvm/runtime/memory.h</text>
</a>
</g>
</g>
<!-- Node14&#45;&gt;Node15 -->
<g id="edge19" class="edge"><title>Node14&#45;&gt;Node15</title>
<path fill="none" stroke="midnightblue" d="M1601.88,-545.019C1511.18,-542.457 1311.66,-533.31 1147.01,-501 1063.97,-484.703 1042.84,-478.258 965.013,-445 865.55,-402.495 818.854,-409.314 755.013,-322 730.43,-288.38 732.037,-236.664 735.14,-209.002"/>
<polygon fill="midnightblue" stroke="midnightblue" points="738.655,-209.113 736.49,-198.742 731.715,-208.2 738.655,-209.113"/>
</g>
<!-- Node17 -->
<g id="node17" class="node"><title>Node17</title>
<g id="a_node17"><a xlink:href="reflection_8h.html" target="_top" xlink:title="Reflection and serialization of compiler IR/AST nodes. ">
<polygon fill="white" stroke="black" points="1289.51,-481.5 1289.51,-500.5 1408.51,-500.5 1408.51,-481.5 1289.51,-481.5"/>
<text text-anchor="middle" x="1349.01" y="-488.5" font-family="Helvetica,sans-Serif" font-size="10.00">tvm/node/reflection.h</text>
</a>
</g>
</g>
<!-- Node14&#45;&gt;Node17 -->
<g id="edge24" class="edge"><title>Node14&#45;&gt;Node17</title>
<path fill="none" stroke="midnightblue" d="M1603.16,-537.444C1549.81,-527.905 1463.57,-512.483 1406.58,-502.293"/>
<polygon fill="midnightblue" stroke="midnightblue" points="1407.1,-498.831 1396.64,-500.516 1405.87,-505.722 1407.1,-498.831"/>
</g>
<!-- Node22 -->
<g id="node22" class="node"><title>Node22</title>
<polygon fill="white" stroke="#bfbfbf" points="2033.51,-179.5 2033.51,-198.5 2080.51,-198.5 2080.51,-179.5 2033.51,-179.5"/>
<text text-anchor="middle" x="2057.01" y="-186.5" font-family="Helvetica,sans-Serif" font-size="10.00">vector</text>
</g>
<!-- Node14&#45;&gt;Node22 -->
<g id="edge98" class="edge"><title>Node14&#45;&gt;Node22</title>
<path fill="none" stroke="midnightblue" d="M1675.04,-537.473C1739.14,-513.564 1915.96,-439.832 2014.01,-322 2036.49,-294.985 2046.04,-288.701 2056.01,-255 2060.47,-239.933 2060.38,-222.031 2059.36,-208.832"/>
<polygon fill="midnightblue" stroke="midnightblue" points="2062.82,-208.229 2058.32,-198.634 2055.85,-208.937 2062.82,-208.229"/>
</g>
<!-- Node29 -->
<g id="node29" class="node"><title>Node29</title>
<g id="a_node29"><a xlink:href="structural__equal_8h.html" target="_top" xlink:title="Structural equality comparison. ">
<polygon fill="white" stroke="black" points="1465.51,-414.5 1465.51,-444.5 1576.51,-444.5 1576.51,-414.5 1465.51,-414.5"/>
<text text-anchor="start" x="1473.51" y="-432.5" font-family="Helvetica,sans-Serif" font-size="10.00">tvm/node/structural</text>
<text text-anchor="middle" x="1521.01" y="-421.5" font-family="Helvetica,sans-Serif" font-size="10.00">_equal.h</text>
</a>
</g>
</g>
<!-- Node14&#45;&gt;Node29 -->
<g id="edge95" class="edge"><title>Node14&#45;&gt;Node29</title>
<path fill="none" stroke="midnightblue" d="M1638.19,-537.204C1625.75,-528.483 1606.53,-514.507 1591.01,-501 1573.23,-485.521 1554.48,-466.473 1540.87,-452.08"/>
<polygon fill="midnightblue" stroke="midnightblue" points="1543.26,-449.518 1533.87,-444.615 1538.15,-454.305 1543.26,-449.518"/>
</g>
<!-- Node14&#45;&gt;Node31 -->
<g id="edge94" class="edge"><title>Node14&#45;&gt;Node31</title>
<path fill="none" stroke="midnightblue" d="M1601.82,-541.718C1471.06,-529.787 1117.67,-493.815 1012.01,-445 994.779,-437.038 954.786,-403.983 931.567,-384.183"/>
<polygon fill="midnightblue" stroke="midnightblue" points="933.714,-381.413 923.845,-377.559 929.156,-386.726 933.714,-381.413"/>
</g>
<!-- Node33 -->
<g id="node33" class="node"><title>Node33</title>
<g id="a_node33"><a xlink:href="structural__hash_8h.html" target="_top" xlink:title="tvm/node/structural\l_hash.h">
<polygon fill="white" stroke="black" points="1671.51,-414.5 1671.51,-444.5 1782.51,-444.5 1782.51,-414.5 1671.51,-414.5"/>
<text text-anchor="start" x="1679.51" y="-432.5" font-family="Helvetica,sans-Serif" font-size="10.00">tvm/node/structural</text>
<text text-anchor="middle" x="1727.01" y="-421.5" font-family="Helvetica,sans-Serif" font-size="10.00">_hash.h</text>
</a>
</g>
</g>
<!-- Node14&#45;&gt;Node33 -->
<g id="edge96" class="edge"><title>Node14&#45;&gt;Node33</title>
<path fill="none" stroke="midnightblue" d="M1656.72,-537.319C1668.4,-519.579 1695.31,-478.682 1712.24,-452.951"/>
<polygon fill="midnightblue" stroke="midnightblue" points="1715.2,-454.823 1717.77,-444.545 1709.35,-450.975 1715.2,-454.823"/>
</g>
<!-- Node34 -->
<g id="node34" class="node"><title>Node34</title>
<g id="a_node34"><a xlink:href="repr__printer_8h.html" target="_top" xlink:title="Printer class to print repr string of each AST/IR nodes. ">
<polygon fill="white" stroke="black" points="2068.01,-481.5 2068.01,-500.5 2198.01,-500.5 2198.01,-481.5 2068.01,-481.5"/>
<text text-anchor="middle" x="2133.01" y="-488.5" font-family="Helvetica,sans-Serif" font-size="10.00">tvm/node/repr_printer.h</text>
</a>
</g>
</g>
<!-- Node14&#45;&gt;Node34 -->
<g id="edge91" class="edge"><title>Node14&#45;&gt;Node34</title>
<path fill="none" stroke="midnightblue" d="M1700.02,-540.563C1775.89,-532.139 1926.34,-515.4 2054.01,-501 2055.29,-500.856 2056.57,-500.711 2057.86,-500.565"/>
<polygon fill="midnightblue" stroke="midnightblue" points="2058.37,-504.03 2067.92,-499.428 2057.59,-497.074 2058.37,-504.03"/>
</g>
<!-- Node15&#45;&gt;Node3 -->
<g id="edge20" class="edge"><title>Node15&#45;&gt;Node3</title>
<path fill="none" stroke="midnightblue" d="M801.545,-184.415C973.746,-174.698 1448.4,-147.915 1626.4,-137.872"/>
<polygon fill="midnightblue" stroke="midnightblue" points="1626.64,-141.364 1636.43,-137.306 1626.24,-134.375 1626.64,-141.364"/>
</g>
<!-- Node15&#45;&gt;Node9 -->
<g id="edge23" class="edge"><title>Node15&#45;&gt;Node9</title>
<path fill="none" stroke="midnightblue" d="M734.473,-179.475C728.567,-166.079 715.596,-139.889 698.013,-123 681.067,-106.724 657.865,-93.8713 639.263,-85.2056"/>
<polygon fill="midnightblue" stroke="midnightblue" points="640.57,-81.9557 630.013,-81.0597 637.707,-88.3435 640.57,-81.9557"/>
</g>
<!-- Node15&#45;&gt;Node11 -->
<g id="edge22" class="edge"><title>Node15&#45;&gt;Node11</title>
<path fill="none" stroke="midnightblue" d="M718.14,-179.435C688.862,-166.857 632.374,-142.743 584.013,-123 550.869,-109.469 512.667,-94.4753 486.686,-84.3675"/>
<polygon fill="midnightblue" stroke="midnightblue" points="487.952,-81.1044 477.363,-80.7461 485.418,-87.6295 487.952,-81.1044"/>
</g>
<!-- Node16 -->
<g id="node16" class="node"><title>Node16</title>
<polygon fill="white" stroke="#bfbfbf" points="750.513,-123.5 750.513,-142.5 797.513,-142.5 797.513,-123.5 750.513,-123.5"/>
<text text-anchor="middle" x="774.013" y="-130.5" font-family="Helvetica,sans-Serif" font-size="10.00">cstdlib</text>
</g>
<!-- Node15&#45;&gt;Node16 -->
<g id="edge21" class="edge"><title>Node15&#45;&gt;Node16</title>
<path fill="none" stroke="midnightblue" d="M743.957,-179.083C748.99,-171.534 756.349,-160.495 762.526,-151.23"/>
<polygon fill="midnightblue" stroke="midnightblue" points="765.544,-153.013 768.178,-142.751 759.719,-149.13 765.544,-153.013"/>
</g>
<!-- Node17&#45;&gt;Node3 -->
<g id="edge26" class="edge"><title>Node17&#45;&gt;Node3</title>
<path fill="none" stroke="midnightblue" d="M1351.37,-481.357C1355.42,-467.034 1364.28,-437.614 1375.01,-414 1401.13,-356.536 1407.37,-340.908 1446.01,-291 1503.89,-216.252 1608.14,-167.552 1661.52,-146.285"/>
<polygon fill="midnightblue" stroke="midnightblue" points="1662.83,-149.531 1670.88,-142.633 1660.29,-143.01 1662.83,-149.531"/>
</g>
<!-- Node17&#45;&gt;Node5 -->
<g id="edge25" class="edge"><title>Node17&#45;&gt;Node5</title>
<path fill="none" stroke="midnightblue" d="M1316.48,-481.467C1287.5,-473.433 1244.2,-460.359 1208.01,-445 1167.01,-427.599 877.857,-293.239 855.013,-255 802.381,-166.9 957.991,-112.746 1056.23,-88.1612"/>
<polygon fill="midnightblue" stroke="midnightblue" points="1057.26,-91.5128 1066.14,-85.7327 1055.59,-84.7141 1057.26,-91.5128"/>
</g>
<!-- Node17&#45;&gt;Node9 -->
<g id="edge90" class="edge"><title>Node17&#45;&gt;Node9</title>
<path fill="none" stroke="midnightblue" d="M1289.48,-483.929C1108.34,-464.028 570.604,-393.934 480.013,-255 446.668,-203.862 473.052,-164.298 518.013,-123 535.429,-107.002 558.811,-94.0765 577.377,-85.3076"/>
<polygon fill="midnightblue" stroke="midnightblue" points="578.943,-88.4402 586.59,-81.1067 576.039,-82.0711 578.943,-88.4402"/>
</g>
<!-- Node17&#45;&gt;Node10 -->
<g id="edge89" class="edge"><title>Node17&#45;&gt;Node10</title>
<path fill="none" stroke="midnightblue" d="M1408.67,-485.434C1501.47,-478.133 1685.96,-462.825 1842.01,-445 1869.2,-441.894 2304.87,-388.797 2330.01,-378 2366.62,-362.28 2370.5,-348.76 2400.01,-322 2491.52,-239.039 2498.01,-200.725 2594.01,-123 2611.3,-109.004 2632.68,-95.6837 2648.99,-86.2411"/>
<polygon fill="midnightblue" stroke="midnightblue" points="2650.98,-89.1393 2657.94,-81.1537 2647.52,-83.0543 2650.98,-89.1393"/>
</g>
<!-- Node17&#45;&gt;Node13 -->
<g id="edge62" class="edge"><title>Node17&#45;&gt;Node13</title>
<path fill="none" stroke="midnightblue" d="M1354.1,-481.297C1375.99,-443.888 1461.44,-298.316 1470.01,-291 1488.3,-275.391 1512.74,-264.668 1533.93,-257.617"/>
<polygon fill="midnightblue" stroke="midnightblue" points="1535.23,-260.877 1543.72,-254.538 1533.13,-254.2 1535.23,-260.877"/>
</g>
<!-- Node17&#45;&gt;Node15 -->
<g id="edge27" class="edge"><title>Node17&#45;&gt;Node15</title>
<path fill="none" stroke="midnightblue" d="M1289.42,-486.242C1214.12,-480.61 1089.57,-468.09 1050.01,-445 1007.63,-420.259 1023.48,-384.249 982.013,-358 920.426,-319.015 881.643,-363.916 822.013,-322 781.026,-293.189 755.497,-237.376 744.426,-208.424"/>
<polygon fill="midnightblue" stroke="midnightblue" points="747.612,-206.944 740.889,-198.755 741.038,-209.349 747.612,-206.944"/>
</g>
<!-- Node18 -->
<g id="node18" class="node"><title>Node18</title>
<g id="a_node18"><a xlink:href="packed__func_8h.html" target="_top" xlink:title="Type&#45;erased function used across TVM API. ">
<polygon fill="white" stroke="black" points="1094.51,-291.5 1094.51,-321.5 1207.51,-321.5 1207.51,-291.5 1094.51,-291.5"/>
<text text-anchor="start" x="1102.51" y="-309.5" font-family="Helvetica,sans-Serif" font-size="10.00">tvm/runtime/packed</text>
<text text-anchor="middle" x="1151.01" y="-298.5" font-family="Helvetica,sans-Serif" font-size="10.00">_func.h</text>
</a>
</g>
</g>
<!-- Node17&#45;&gt;Node18 -->
<g id="edge28" class="edge"><title>Node17&#45;&gt;Node18</title>
<path fill="none" stroke="midnightblue" d="M1339.73,-481.442C1310.15,-454.176 1217.5,-368.785 1174,-328.69"/>
<polygon fill="midnightblue" stroke="midnightblue" points="1176.2,-325.958 1166.48,-321.755 1171.46,-331.106 1176.2,-325.958"/>
</g>
<!-- Node17&#45;&gt;Node22 -->
<g id="edge88" class="edge"><title>Node17&#45;&gt;Node22</title>
<path fill="none" stroke="midnightblue" d="M1408.84,-487.966C1513,-483.756 1723.04,-472.114 1791.01,-445 1919.33,-393.815 1958.35,-368.562 2037.01,-255 2046.57,-241.2 2051.68,-222.677 2054.34,-208.936"/>
<polygon fill="midnightblue" stroke="midnightblue" points="2057.85,-209.164 2056.03,-198.726 2050.94,-208.017 2057.85,-209.164"/>
</g>
<!-- Node24 -->
<g id="node24" class="node"><title>Node24</title>
<g id="a_node24"><a xlink:href="ndarray_8h.html" target="_top" xlink:title="A device&#45;independent managed NDArray abstraction. ">
<polygon fill="white" stroke="black" points="864.513,-235.5 864.513,-254.5 987.513,-254.5 987.513,-235.5 864.513,-235.5"/>
<text text-anchor="middle" x="926.013" y="-242.5" font-family="Helvetica,sans-Serif" font-size="10.00">tvm/runtime/ndarray.h</text>
</a>
</g>
</g>
<!-- Node17&#45;&gt;Node24 -->
<g id="edge61" class="edge"><title>Node17&#45;&gt;Node24</title>
<path fill="none" stroke="midnightblue" d="M1332.07,-481.458C1314.62,-472.589 1286.72,-458.191 1263.01,-445 1143.15,-378.308 1002.76,-293.048 948.758,-259.98"/>
<polygon fill="midnightblue" stroke="midnightblue" points="950.343,-256.846 939.989,-254.603 946.684,-262.814 950.343,-256.846"/>
</g>
<!-- Node17&#45;&gt;Node29 -->
<g id="edge63" class="edge"><title>Node17&#45;&gt;Node29</title>
<path fill="none" stroke="midnightblue" d="M1373.66,-481.475C1398.91,-472.739 1438.89,-458.907 1470.84,-447.855"/>
<polygon fill="midnightblue" stroke="midnightblue" points="1472.17,-451.1 1480.48,-444.523 1469.88,-444.485 1472.17,-451.1"/>
</g>
<!-- Node17&#45;&gt;Node33 -->
<g id="edge82" class="edge"><title>Node17&#45;&gt;Node33</title>
<path fill="none" stroke="midnightblue" d="M1403.17,-481.475C1471.31,-470.749 1588.25,-452.342 1661.4,-440.829"/>
<polygon fill="midnightblue" stroke="midnightblue" points="1662.08,-444.264 1671.42,-439.251 1660.99,-437.349 1662.08,-444.264"/>
</g>
<!-- Node18&#45;&gt;Node3 -->
<g id="edge52" class="edge"><title>Node18&#45;&gt;Node3</title>
<path fill="none" stroke="midnightblue" d="M1188.25,-291.395C1213.49,-281.634 1247.5,-268.092 1277.01,-255 1295.55,-246.779 1299.02,-242.1 1318.01,-235 1431.06,-192.731 1569.31,-160.386 1642.96,-144.619"/>
<polygon fill="midnightblue" stroke="midnightblue" points="1643.86,-148.006 1652.91,-142.505 1642.4,-141.159 1643.86,-148.006"/>
</g>
<!-- Node18&#45;&gt;Node4 -->
<g id="edge29" class="edge"><title>Node18&#45;&gt;Node4</title>
<path fill="none" stroke="midnightblue" d="M1207.62,-297.092C1222.98,-294.952 1239.62,-292.761 1255.01,-291 1433.23,-270.609 1487.82,-314.595 1657.01,-255 1734.15,-227.83 1754.37,-208.744 1803.01,-143 1814.91,-126.915 1824.09,-105.853 1829.71,-90.9518"/>
<polygon fill="midnightblue" stroke="midnightblue" points="1833.07,-91.944 1833.16,-81.3495 1826.48,-89.5756 1833.07,-91.944"/>
</g>
<!-- Node18&#45;&gt;Node5 -->
<g id="edge30" class="edge"><title>Node18&#45;&gt;Node5</title>
<path fill="none" stroke="midnightblue" d="M1094.39,-294.876C1071.96,-287.595 1048.38,-275.392 1035.01,-255 1018.53,-229.842 1055.59,-223.517 1073.01,-199 1096.17,-166.413 1113.26,-122.91 1122.42,-96.3412"/>
<polygon fill="midnightblue" stroke="midnightblue" points="1125.78,-97.3151 1125.64,-86.7212 1119.14,-95.092 1125.78,-97.3151"/>
</g>
<!-- Node18&#45;&gt;Node9 -->
<g id="edge60" class="edge"><title>Node18&#45;&gt;Node9</title>
<path fill="none" stroke="midnightblue" d="M1094.31,-302.474C1018.8,-297.35 890.581,-284.486 855.013,-255 806.836,-215.062 852.538,-164.85 806.013,-123 763.648,-84.8929 696.498,-74.7247 652.343,-72.4375"/>
<polygon fill="midnightblue" stroke="midnightblue" points="652.324,-68.934 642.191,-72.029 652.042,-75.9283 652.324,-68.934"/>
</g>
<!-- Node18&#45;&gt;Node10 -->
<g id="edge56" class="edge"><title>Node18&#45;&gt;Node10</title>
<path fill="none" stroke="midnightblue" d="M1199.66,-291.498C1231.8,-281.939 1274.72,-268.587 1312.01,-255 1333.73,-247.089 1337.87,-241.628 1360.01,-235 1854.12,-87.0749 2491.54,-73.6215 2641.45,-72.5547"/>
<polygon fill="midnightblue" stroke="midnightblue" points="2641.8,-76.0529 2651.78,-72.496 2641.76,-69.053 2641.8,-76.0529"/>
</g>
<!-- Node18&#45;&gt;Node11 -->
<g id="edge59" class="edge"><title>Node18&#45;&gt;Node11</title>
<path fill="none" stroke="midnightblue" d="M1094.49,-301.378C994.862,-292.568 782.947,-266.858 618.013,-199 572.332,-180.206 560.631,-173.798 522.013,-143 501.632,-126.746 481.661,-104.23 469.121,-89.0537"/>
<polygon fill="midnightblue" stroke="midnightblue" points="471.665,-86.634 462.649,-81.0695 466.227,-91.0419 471.665,-86.634"/>
</g>
<!-- Node18&#45;&gt;Node13 -->
<g id="edge51" class="edge"><title>Node18&#45;&gt;Node13</title>
<path fill="none" stroke="midnightblue" d="M1207.69,-297.589C1223.04,-295.447 1239.66,-293.133 1255.01,-291 1342.04,-278.908 1442.18,-265.051 1508.04,-255.945"/>
<polygon fill="midnightblue" stroke="midnightblue" points="1508.88,-259.362 1518.31,-254.526 1507.92,-252.428 1508.88,-259.362"/>
</g>
<!-- Node19 -->
<g id="node19" class="node"><title>Node19</title>
<g id="a_node19"><a xlink:href="runtime_2module_8h.html" target="_top" xlink:title="Runtime container of the functions generated by TVM, This is used to support dynamically link...">
<polygon fill="white" stroke="black" points="1044.01,-235.5 1044.01,-254.5 1168.01,-254.5 1168.01,-235.5 1044.01,-235.5"/>
<text text-anchor="middle" x="1106.01" y="-242.5" font-family="Helvetica,sans-Serif" font-size="10.00">tvm/runtime/module.h</text>
</a>
</g>
</g>
<!-- Node18&#45;&gt;Node19 -->
<g id="edge31" class="edge"><title>Node18&#45;&gt;Node19</title>
<path fill="none" stroke="midnightblue" d="M1134.51,-291.399C1127.1,-283.021 1118.89,-272.327 1112.98,-263.423"/>
<polygon fill="midnightblue" stroke="midnightblue" points="1115.83,-261.368 1107.63,-254.658 1109.86,-265.016 1115.83,-261.368"/>
</g>
<!-- Node21 -->
<g id="node21" class="node"><title>Node21</title>
<polygon fill="white" stroke="#bfbfbf" points="1348.51,-179.5 1348.51,-198.5 1405.51,-198.5 1405.51,-179.5 1348.51,-179.5"/>
<text text-anchor="middle" x="1377.01" y="-186.5" font-family="Helvetica,sans-Serif" font-size="10.00">memory</text>
</g>
<!-- Node18&#45;&gt;Node21 -->
<g id="edge58" class="edge"><title>Node18&#45;&gt;Node21</title>
<path fill="none" stroke="midnightblue" d="M1175.49,-291.498C1201.25,-276.909 1243.1,-253.624 1280.01,-235 1302.7,-223.554 1328.85,-211.484 1348.29,-202.729"/>
<polygon fill="midnightblue" stroke="midnightblue" points="1349.82,-205.878 1357.51,-198.594 1346.95,-199.491 1349.82,-205.878"/>
</g>
<!-- Node18&#45;&gt;Node22 -->
<g id="edge55" class="edge"><title>Node18&#45;&gt;Node22</title>
<path fill="none" stroke="midnightblue" d="M1203.65,-291.472C1266.54,-275.268 1375.19,-249.041 1470.01,-235 1678.9,-204.069 1932.95,-193.754 2023.21,-190.925"/>
<polygon fill="midnightblue" stroke="midnightblue" points="2023.5,-194.418 2033.39,-190.616 2023.29,-187.421 2023.5,-194.418"/>
</g>
<!-- Node18&#45;&gt;Node24 -->
<g id="edge41" class="edge"><title>Node18&#45;&gt;Node24</title>
<path fill="none" stroke="midnightblue" d="M1097.98,-291.475C1058.31,-280.986 1004.81,-266.837 968.071,-257.122"/>
<polygon fill="midnightblue" stroke="midnightblue" points="968.742,-253.679 958.179,-254.506 966.952,-260.447 968.742,-253.679"/>
</g>
<!-- Node26 -->
<g id="node26" class="node"><title>Node26</title>
<polygon fill="white" stroke="#bfbfbf" points="1780.51,-235.5 1780.51,-254.5 1843.51,-254.5 1843.51,-235.5 1780.51,-235.5"/>
<text text-anchor="middle" x="1812.01" y="-242.5" font-family="Helvetica,sans-Serif" font-size="10.00">functional</text>
</g>
<!-- Node18&#45;&gt;Node26 -->
<g id="edge53" class="edge"><title>Node18&#45;&gt;Node26</title>
<path fill="none" stroke="midnightblue" d="M1207.61,-296.954C1222.96,-294.814 1239.61,-292.659 1255.01,-291 1464.63,-268.432 1518.06,-274.232 1728.01,-255 1741.75,-253.742 1756.72,-252.194 1770.18,-250.738"/>
<polygon fill="midnightblue" stroke="midnightblue" points="1770.57,-254.217 1780.13,-249.65 1769.8,-247.259 1770.57,-254.217"/>
</g>
<!-- Node27 -->
<g id="node27" class="node"><title>Node27</title>
<polygon fill="white" stroke="#bfbfbf" points="1186.51,-235.5 1186.51,-254.5 1227.51,-254.5 1227.51,-235.5 1186.51,-235.5"/>
<text text-anchor="middle" x="1207.01" y="-242.5" font-family="Helvetica,sans-Serif" font-size="10.00">tuple</text>
</g>
<!-- Node18&#45;&gt;Node27 -->
<g id="edge54" class="edge"><title>Node18&#45;&gt;Node27</title>
<path fill="none" stroke="midnightblue" d="M1164.28,-291.399C1172.59,-282.575 1183.31,-271.183 1191.94,-262.018"/>
<polygon fill="midnightblue" stroke="midnightblue" points="1194.56,-264.339 1198.86,-254.658 1189.46,-259.541 1194.56,-264.339"/>
</g>
<!-- Node28 -->
<g id="node28" class="node"><title>Node28</title>
<polygon fill="white" stroke="#bfbfbf" points="1862.01,-235.5 1862.01,-254.5 1904.01,-254.5 1904.01,-235.5 1862.01,-235.5"/>
<text text-anchor="middle" x="1883.01" y="-242.5" font-family="Helvetica,sans-Serif" font-size="10.00">limits</text>
</g>
<!-- Node18&#45;&gt;Node28 -->
<g id="edge57" class="edge"><title>Node18&#45;&gt;Node28</title>
<path fill="none" stroke="midnightblue" d="M1207.59,-296.792C1222.95,-294.652 1239.59,-292.537 1255.01,-291 1519.52,-264.627 1590.09,-300.336 1852.01,-255 1852.11,-254.983 1852.21,-254.965 1852.31,-254.947"/>
<polygon fill="midnightblue" stroke="midnightblue" points="1852.81,-258.422 1861.81,-252.829 1851.29,-251.59 1852.81,-258.422"/>
</g>
<!-- Node19&#45;&gt;Node3 -->
<g id="edge34" class="edge"><title>Node19&#45;&gt;Node3</title>
<path fill="none" stroke="midnightblue" d="M1154.02,-235.434C1192.9,-227.831 1248.77,-215.389 1296.01,-199 1315.93,-192.091 1318.76,-184.836 1339.01,-179 1436.15,-151.01 1553.18,-140.424 1625.85,-136.424"/>
<polygon fill="midnightblue" stroke="midnightblue" points="1626.44,-139.898 1636.25,-135.88 1626.08,-132.907 1626.44,-139.898"/>
</g>
<!-- Node19&#45;&gt;Node5 -->
<g id="edge33" class="edge"><title>Node19&#45;&gt;Node5</title>
<path fill="none" stroke="midnightblue" d="M1124.49,-235.445C1153,-221.058 1206.57,-189.012 1227.01,-143 1237.56,-119.259 1214.78,-101.912 1188.65,-90.3662"/>
<polygon fill="midnightblue" stroke="midnightblue" points="1189.9,-87.0951 1179.32,-86.5233 1187.23,-93.5677 1189.9,-87.0951"/>
</g>
<!-- Node19&#45;&gt;Node10 -->
<g id="edge38" class="edge"><title>Node19&#45;&gt;Node10</title>
<path fill="none" stroke="midnightblue" d="M1126.85,-235.4C1160.87,-221.661 1230.71,-194.712 1292.01,-179 1438.24,-141.519 1476.92,-139.108 1627.01,-123 2025.24,-80.2607 2512.59,-73.6836 2641.49,-72.6794"/>
<polygon fill="midnightblue" stroke="midnightblue" points="2641.86,-76.1769 2651.83,-72.605 2641.81,-69.177 2641.86,-76.1769"/>
</g>
<!-- Node19&#45;&gt;Node15 -->
<g id="edge35" class="edge"><title>Node19&#45;&gt;Node15</title>
<path fill="none" stroke="midnightblue" d="M1047.7,-235.444C982.025,-225.806 875.423,-210.163 806.012,-199.978"/>
<polygon fill="midnightblue" stroke="midnightblue" points="806.453,-196.505 796.05,-198.516 805.436,-203.431 806.453,-196.505"/>
</g>
<!-- Node19&#45;&gt;Node18 -->
<g id="edge40" class="edge"><title>Node19&#45;&gt;Node18</title>
<path fill="none" stroke="midnightblue" d="M1117.49,-254.658C1124.65,-262.031 1133.47,-272.963 1140.43,-282.803"/>
<polygon fill="midnightblue" stroke="midnightblue" points="1137.71,-285.042 1146.19,-291.399 1143.53,-281.144 1137.71,-285.042"/>
</g>
<!-- Node20 -->
<g id="node20" class="node"><title>Node20</title>
<polygon fill="white" stroke="#bfbfbf" points="1158.01,-123.5 1158.01,-142.5 1218.01,-142.5 1218.01,-123.5 1158.01,-123.5"/>
<text text-anchor="middle" x="1188.01" y="-130.5" font-family="Helvetica,sans-Serif" font-size="10.00">dmlc/io.h</text>
</g>
<!-- Node19&#45;&gt;Node20 -->
<g id="edge32" class="edge"><title>Node19&#45;&gt;Node20</title>
<path fill="none" stroke="midnightblue" d="M1113.87,-235.264C1121.76,-226.36 1134.14,-212.043 1144.01,-199 1155.93,-183.265 1168.45,-164.527 1177.07,-151.222"/>
<polygon fill="midnightblue" stroke="midnightblue" points="1180.14,-152.92 1182.6,-142.615 1174.25,-149.138 1180.14,-152.92"/>
</g>
<!-- Node19&#45;&gt;Node21 -->
<g id="edge36" class="edge"><title>Node19&#45;&gt;Node21</title>
<path fill="none" stroke="midnightblue" d="M1150.18,-235.439C1196.13,-226.495 1270.16,-211.983 1334.01,-199 1335.46,-198.706 1336.94,-198.404 1338.43,-198.098"/>
<polygon fill="midnightblue" stroke="midnightblue" points="1339.26,-201.501 1348.34,-196.049 1337.84,-194.646 1339.26,-201.501"/>
</g>
<!-- Node19&#45;&gt;Node22 -->
<g id="edge37" class="edge"><title>Node19&#45;&gt;Node22</title>
<path fill="none" stroke="midnightblue" d="M1168.32,-235.833C1171.26,-235.533 1174.17,-235.253 1177.01,-235 1506.16,-205.764 1906.38,-193.827 2023.39,-190.811"/>
<polygon fill="midnightblue" stroke="midnightblue" points="2023.6,-194.307 2033.51,-190.554 2023.43,-187.309 2023.6,-194.307"/>
</g>
<!-- Node23 -->
<g id="node23" class="node"><title>Node23</title>
<polygon fill="white" stroke="#bfbfbf" points="258.513,-179.5 258.513,-198.5 351.513,-198.5 351.513,-179.5 258.513,-179.5"/>
<text text-anchor="middle" x="305.013" y="-186.5" font-family="Helvetica,sans-Serif" font-size="10.00">unordered_map</text>
</g>
<!-- Node19&#45;&gt;Node23 -->
<g id="edge39" class="edge"><title>Node19&#45;&gt;Node23</title>
<path fill="none" stroke="midnightblue" d="M1043.78,-238.727C1028.19,-237.456 1011.49,-236.137 996.013,-235 760.627,-217.707 479.878,-200.472 361.78,-193.377"/>
<polygon fill="midnightblue" stroke="midnightblue" points="361.728,-189.867 351.537,-192.762 361.309,-196.855 361.728,-189.867"/>
</g>
<!-- Node24&#45;&gt;Node3 -->
<g id="edge43" class="edge"><title>Node24&#45;&gt;Node3</title>
<path fill="none" stroke="midnightblue" d="M969.447,-235.474C1038.44,-222.135 1177.4,-196.091 1296.01,-179 1411.4,-162.373 1546.31,-148.265 1625.99,-140.481"/>
<polygon fill="midnightblue" stroke="midnightblue" points="1626.77,-143.922 1636.39,-139.471 1626.09,-136.955 1626.77,-143.922"/>
</g>
<!-- Node24&#45;&gt;Node5 -->
<g id="edge42" class="edge"><title>Node24&#45;&gt;Node5</title>
<path fill="none" stroke="midnightblue" d="M923.137,-235.247C919.353,-222.003 914.349,-196.556 925.013,-179 953.586,-131.956 1010.44,-104.745 1057.04,-89.6215"/>
<polygon fill="midnightblue" stroke="midnightblue" points="1058.31,-92.8922 1066.81,-86.5751 1056.22,-86.2092 1058.31,-92.8922"/>
</g>
<!-- Node24&#45;&gt;Node11 -->
<g id="edge50" class="edge"><title>Node24&#45;&gt;Node11</title>
<path fill="none" stroke="midnightblue" d="M864.468,-239.889C810.484,-234.773 730.592,-223.498 665.013,-199 589.193,-170.677 510.277,-114.289 475.01,-87.4142"/>
<polygon fill="midnightblue" stroke="midnightblue" points="477.071,-84.5833 467.013,-81.2526 472.798,-90.1284 477.071,-84.5833"/>
</g>
<!-- Node24&#45;&gt;Node12 -->
<g id="edge48" class="edge"><title>Node24&#45;&gt;Node12</title>
<path fill="none" stroke="midnightblue" d="M974.138,-235.483C1004.1,-228.72 1042.59,-217.288 1073.01,-199 1113.95,-174.39 1106.46,-144.706 1149.01,-123 1197.77,-98.131 1358.32,-81.6954 1430.41,-75.3919"/>
<polygon fill="midnightblue" stroke="midnightblue" points="1431.13,-78.8438 1440.79,-74.5015 1430.53,-71.8694 1431.13,-78.8438"/>
</g>
<!-- Node24&#45;&gt;Node22 -->
<g id="edge49" class="edge"><title>Node24&#45;&gt;Node22</title>
<path fill="none" stroke="midnightblue" d="M987.662,-238.494C1003.11,-237.229 1019.66,-235.971 1035.01,-235 1422.92,-210.455 1894.49,-194.989 2023.19,-191.017"/>
<polygon fill="midnightblue" stroke="midnightblue" points="2023.34,-194.515 2033.23,-190.71 2023.12,-187.518 2023.34,-194.515"/>
</g>
<!-- Node25 -->
<g id="node25" class="node"><title>Node25</title>
<g id="a_node25"><a xlink:href="serializer_8h.html" target="_top" xlink:title="Serializer extension to support TVM data types Include this file to enable serialization of DLDataTyp...">
<polygon fill="white" stroke="red" points="934.013,-179.5 934.013,-198.5 1064.01,-198.5 1064.01,-179.5 934.013,-179.5"/>
<text text-anchor="middle" x="999.013" y="-186.5" font-family="Helvetica,sans-Serif" font-size="10.00">tvm/runtime/serializer.h</text>
</a>
</g>
</g>
<!-- Node24&#45;&gt;Node25 -->
<g id="edge44" class="edge"><title>Node24&#45;&gt;Node25</title>
<path fill="none" stroke="midnightblue" d="M932.626,-235.324C942.101,-226.979 959.05,-214.212 973.567,-204.352"/>
<polygon fill="midnightblue" stroke="midnightblue" points="975.783,-207.083 982.203,-198.655 971.928,-201.24 975.783,-207.083"/>
</g>
<!-- Node25&#45;&gt;Node5 -->
<g id="edge46" class="edge"><title>Node25&#45;&gt;Node5</title>
<path fill="none" stroke="midnightblue" d="M1008.86,-179.319C1029.42,-161.192 1077.4,-118.885 1106.43,-93.2879"/>
<polygon fill="midnightblue" stroke="midnightblue" points="1108.9,-95.784 1114.08,-86.5453 1104.27,-90.5334 1108.9,-95.784"/>
</g>
<!-- Node25&#45;&gt;Node20 -->
<g id="edge45" class="edge"><title>Node25&#45;&gt;Node20</title>
<path fill="none" stroke="midnightblue" d="M1028.96,-179.444C1061.17,-170.241 1112.55,-155.562 1148.15,-145.388"/>
<polygon fill="midnightblue" stroke="midnightblue" points="1149.55,-148.629 1158.21,-142.516 1147.63,-141.898 1149.55,-148.629"/>
</g>
<!-- Node25&#45;&gt;Node24 -->
<g id="edge47" class="edge"><title>Node25&#45;&gt;Node24</title>
<path fill="none" stroke="midnightblue" d="M992.219,-198.834C982.708,-207.184 965.871,-219.859 951.442,-229.658"/>
<polygon fill="midnightblue" stroke="midnightblue" points="949.275,-226.895 942.856,-235.324 953.13,-232.738 949.275,-226.895"/>
</g>
<!-- Node29&#45;&gt;Node10 -->
<g id="edge81" class="edge"><title>Node29&#45;&gt;Node10</title>
<path fill="none" stroke="midnightblue" d="M1576.55,-422.233C1602.49,-419.449 1633.81,-416.29 1662.01,-414 1729.02,-408.56 2208.98,-413.605 2266.01,-378 2376.42,-309.069 2304.3,-198.928 2410.01,-123 2446.83,-96.5586 2579.79,-81.1671 2641.78,-75.2811"/>
<polygon fill="midnightblue" stroke="midnightblue" points="2642.16,-78.7611 2651.79,-74.3547 2641.51,-71.7909 2642.16,-78.7611"/>
</g>
<!-- Node29&#45;&gt;Node13 -->
<g id="edge64" class="edge"><title>Node29&#45;&gt;Node13</title>
<path fill="none" stroke="midnightblue" d="M1525.54,-414.483C1536.06,-381.957 1562.12,-301.343 1573.97,-264.683"/>
<polygon fill="midnightblue" stroke="midnightblue" points="1577.42,-265.411 1577.16,-254.819 1570.76,-263.257 1577.42,-265.411"/>
</g>
<!-- Node30 -->
<g id="node30" class="node"><title>Node30</title>
<g id="a_node30"><a xlink:href="functor_8h.html" target="_top" xlink:title="Defines the Functor data structures. ">
<polygon fill="white" stroke="black" points="1921.51,-235.5 1921.51,-254.5 2028.51,-254.5 2028.51,-235.5 1921.51,-235.5"/>
<text text-anchor="middle" x="1975.01" y="-242.5" font-family="Helvetica,sans-Serif" font-size="10.00">tvm/node/functor.h</text>
</a>
</g>
</g>
<!-- Node29&#45;&gt;Node30 -->
<g id="edge65" class="edge"><title>Node29&#45;&gt;Node30</title>
<path fill="none" stroke="midnightblue" d="M1555.88,-414.483C1641.8,-379.944 1862.62,-291.182 1944.16,-258.404"/>
<polygon fill="midnightblue" stroke="midnightblue" points="1945.86,-261.491 1953.83,-254.514 1943.25,-254.997 1945.86,-261.491"/>
</g>
<!-- Node29&#45;&gt;Node31 -->
<g id="edge71" class="edge"><title>Node29&#45;&gt;Node31</title>
<path fill="none" stroke="midnightblue" d="M1465.27,-423.036C1354.2,-412.149 1105.56,-387.776 983.837,-375.844"/>
<polygon fill="midnightblue" stroke="midnightblue" points="983.818,-372.326 973.524,-374.834 983.135,-379.292 983.818,-372.326"/>
</g>
<!-- Node30&#45;&gt;Node3 -->
<g id="edge67" class="edge"><title>Node30&#45;&gt;Node3</title>
<path fill="none" stroke="midnightblue" d="M1953.04,-235.368C1903.66,-215.97 1783.77,-168.87 1726.49,-146.367"/>
<polygon fill="midnightblue" stroke="midnightblue" points="1727.47,-142.99 1716.88,-142.591 1724.91,-149.506 1727.47,-142.99"/>
</g>
<!-- Node30&#45;&gt;Node4 -->
<g id="edge66" class="edge"><title>Node30&#45;&gt;Node4</title>
<path fill="none" stroke="midnightblue" d="M1971.39,-235.321C1962.33,-214.322 1937.03,-159.8 1904.01,-123 1891.12,-108.635 1873.58,-95.7255 1859.54,-86.5549"/>
<polygon fill="midnightblue" stroke="midnightblue" points="1861.22,-83.4799 1850.9,-81.0908 1857.48,-89.3953 1861.22,-83.4799"/>
</g>
<!-- Node30&#45;&gt;Node9 -->
<g id="edge69" class="edge"><title>Node30&#45;&gt;Node9</title>
<path fill="none" stroke="midnightblue" d="M1942.92,-235.486C1908.92,-226.458 1853.67,-211.767 1806.01,-199 1680.63,-165.411 1652.18,-143.573 1524.01,-123 1353.19,-95.579 812.577,-78.3288 652.862,-73.7356"/>
<polygon fill="midnightblue" stroke="midnightblue" points="652.561,-70.2257 642.465,-73.4391 652.361,-77.2229 652.561,-70.2257"/>
</g>
<!-- Node30&#45;&gt;Node11 -->
<g id="edge70" class="edge"><title>Node30&#45;&gt;Node11</title>
<path fill="none" stroke="midnightblue" d="M1926.59,-235.476C1783.67,-210.427 1365,-137.87 1227.01,-123 934.052,-91.4289 858.388,-114.448 565.013,-87 538.714,-84.5395 509.003,-80.5031 487.25,-77.313"/>
<polygon fill="midnightblue" stroke="midnightblue" points="487.667,-73.8366 477.261,-75.8256 486.636,-80.7603 487.667,-73.8366"/>
</g>
<!-- Node30&#45;&gt;Node22 -->
<g id="edge68" class="edge"><title>Node30&#45;&gt;Node22</title>
<path fill="none" stroke="midnightblue" d="M1988.19,-235.324C2000.86,-226.979 2020.25,-214.212 2035.22,-204.352"/>
<polygon fill="midnightblue" stroke="midnightblue" points="2037.44,-207.078 2043.87,-198.655 2033.59,-201.231 2037.44,-207.078"/>
</g>
<!-- Node31&#45;&gt;Node3 -->
<g id="edge72" class="edge"><title>Node31&#45;&gt;Node3</title>
<path fill="none" stroke="midnightblue" d="M973.534,-367.119C1036.31,-365.227 1136.88,-356.37 1216.01,-322 1236.32,-313.179 1235.88,-302.142 1255.01,-291 1326.61,-249.309 1564.17,-174.167 1657.19,-145.52"/>
<polygon fill="midnightblue" stroke="midnightblue" points="1658.24,-148.86 1666.77,-142.578 1656.18,-142.169 1658.24,-148.86"/>
</g>
<!-- Node31&#45;&gt;Node9 -->
<g id="edge75" class="edge"><title>Node31&#45;&gt;Node9</title>
<path fill="none" stroke="midnightblue" d="M854.467,-359.715C822.748,-353.587 784.34,-342.387 755.013,-322 670.17,-263.023 626.809,-137.932 613.008,-90.8961"/>
<polygon fill="midnightblue" stroke="midnightblue" points="616.345,-89.8313 610.253,-81.1628 609.609,-91.738 616.345,-89.8313"/>
</g>
<!-- Node31&#45;&gt;Node10 -->
<g id="edge80" class="edge"><title>Node31&#45;&gt;Node10</title>
<path fill="none" stroke="midnightblue" d="M973.864,-362.846C1058.13,-356.538 1216.39,-343.01 1350.01,-322 1652.52,-274.436 1723.66,-238.698 2024.01,-179 2157.9,-152.387 2191.33,-145.251 2326.01,-123 2441.93,-103.85 2580.23,-84.9534 2641.75,-76.7512"/>
<polygon fill="midnightblue" stroke="midnightblue" points="2642.53,-80.1786 2651.98,-75.3917 2641.61,-73.2396 2642.53,-80.1786"/>
</g>
<!-- Node31&#45;&gt;Node11 -->
<g id="edge79" class="edge"><title>Node31&#45;&gt;Node11</title>
<path fill="none" stroke="midnightblue" d="M854.31,-365.98C714.965,-361.987 380.013,-342.366 380.013,-246 380.013,-246 380.013,-246 380.013,-188 380.013,-157.205 387.217,-148.812 404.013,-123 412.873,-109.383 426.02,-96.6579 436.878,-87.3876"/>
<polygon fill="midnightblue" stroke="midnightblue" points="439.126,-90.0702 444.626,-81.0144 434.679,-84.6642 439.126,-90.0702"/>
</g>
<!-- Node31&#45;&gt;Node15 -->
<g id="edge73" class="edge"><title>Node31&#45;&gt;Node15</title>
<path fill="none" stroke="midnightblue" d="M863.807,-358.477C837.737,-352.004 806.685,-340.867 784.013,-322 757.699,-300.102 756.755,-287.505 746.013,-255 741.045,-239.971 739.115,-222.064 738.387,-208.855"/>
<polygon fill="midnightblue" stroke="midnightblue" points="741.877,-208.511 738.011,-198.647 734.882,-208.769 741.877,-208.511"/>
</g>
<!-- Node31&#45;&gt;Node18 -->
<g id="edge74" class="edge"><title>Node31&#45;&gt;Node18</title>
<path fill="none" stroke="midnightblue" d="M947.969,-358.475C983.667,-349.513 1040.72,-335.188 1085.28,-324.003"/>
<polygon fill="midnightblue" stroke="midnightblue" points="1086.31,-327.353 1095.16,-321.523 1084.61,-320.563 1086.31,-327.353"/>
</g>
<!-- Node31&#45;&gt;Node22 -->
<g id="edge76" class="edge"><title>Node31&#45;&gt;Node22</title>
<path fill="none" stroke="midnightblue" d="M973.901,-363.873C1076.52,-358.008 1281.53,-343.933 1350.01,-322 1424.51,-298.141 1428.26,-258.045 1503.01,-235 1601.08,-204.767 1918.62,-193.708 2023.24,-190.832"/>
<polygon fill="midnightblue" stroke="midnightblue" points="2023.34,-194.331 2033.24,-190.564 2023.15,-187.333 2023.34,-194.331"/>
</g>
<!-- Node31&#45;&gt;Node23 -->
<g id="edge78" class="edge"><title>Node31&#45;&gt;Node23</title>
<path fill="none" stroke="midnightblue" d="M868.685,-358.474C826.731,-350.257 762.761,-336.905 708.013,-322 568.821,-284.106 406.613,-226.89 338.164,-202.13"/>
<polygon fill="midnightblue" stroke="midnightblue" points="338.974,-198.7 328.38,-198.58 336.587,-205.281 338.974,-198.7"/>
</g>
<!-- Node32 -->
<g id="node32" class="node"><title>Node32</title>
<polygon fill="white" stroke="#bfbfbf" points="1264.51,-297 1264.51,-316 1341.51,-316 1341.51,-297 1264.51,-297"/>
<text text-anchor="middle" x="1303.01" y="-304" font-family="Helvetica,sans-Serif" font-size="10.00">initializer_list</text>
</g>
<!-- Node31&#45;&gt;Node32 -->
<g id="edge77" class="edge"><title>Node31&#45;&gt;Node32</title>
<path fill="none" stroke="midnightblue" d="M973.591,-361.456C1041.07,-354.614 1154.12,-341.448 1250.01,-322 1254.79,-321.032 1259.76,-319.873 1264.68,-318.638"/>
<polygon fill="midnightblue" stroke="midnightblue" points="1265.79,-321.963 1274.57,-316.033 1264.01,-315.193 1265.79,-321.963"/>
</g>
<!-- Node33&#45;&gt;Node10 -->
<g id="edge86" class="edge"><title>Node33&#45;&gt;Node10</title>
<path fill="none" stroke="midnightblue" d="M1782.72,-426.142C1917.71,-420.066 2254.52,-402.61 2299.01,-378 2363.42,-342.375 2399.01,-319.601 2399.01,-246 2399.01,-246 2399.01,-246 2399.01,-188 2399.01,-83.8265 2568.83,-72.0538 2641.57,-71.7894"/>
<polygon fill="midnightblue" stroke="midnightblue" points="2641.96,-75.2907 2651.97,-71.8287 2641.99,-68.2908 2641.96,-75.2907"/>
</g>
<!-- Node33&#45;&gt;Node13 -->
<g id="edge83" class="edge"><title>Node33&#45;&gt;Node13</title>
<path fill="none" stroke="midnightblue" d="M1717.86,-414.217C1701.12,-388.52 1663.91,-333.238 1627.01,-291 1618.02,-280.708 1607.03,-270.095 1597.94,-261.762"/>
<polygon fill="midnightblue" stroke="midnightblue" points="1600.01,-258.916 1590.24,-254.825 1595.33,-264.117 1600.01,-258.916"/>
</g>
<!-- Node33&#45;&gt;Node26 -->
<g id="edge87" class="edge"><title>Node33&#45;&gt;Node26</title>
<path fill="none" stroke="midnightblue" d="M1726.17,-414.434C1725.27,-388.127 1726.54,-330.567 1751.01,-291 1759.12,-277.89 1772.58,-267.356 1784.8,-259.785"/>
<polygon fill="midnightblue" stroke="midnightblue" points="1786.89,-262.619 1793.79,-254.579 1783.38,-256.561 1786.89,-262.619"/>
</g>
<!-- Node33&#45;&gt;Node30 -->
<g id="edge84" class="edge"><title>Node33&#45;&gt;Node30</title>
<path fill="none" stroke="midnightblue" d="M1746.06,-414.483C1791.99,-380.687 1908.46,-294.974 1955.18,-260.595"/>
<polygon fill="midnightblue" stroke="midnightblue" points="1957.33,-263.361 1963.31,-254.615 1953.18,-257.723 1957.33,-263.361"/>
</g>
<!-- Node33&#45;&gt;Node31 -->
<g id="edge85" class="edge"><title>Node33&#45;&gt;Node31</title>
<path fill="none" stroke="midnightblue" d="M1671.42,-422.371C1645.22,-419.599 1613.53,-416.412 1585.01,-414 1365.99,-395.479 1106.22,-379.862 984.083,-372.894"/>
<polygon fill="midnightblue" stroke="midnightblue" points="983.942,-369.381 973.759,-372.307 983.544,-376.369 983.942,-369.381"/>
</g>
<!-- Node34&#45;&gt;Node30 -->
<g id="edge92" class="edge"><title>Node34&#45;&gt;Node30</title>
<path fill="none" stroke="midnightblue" d="M2126.75,-481.415C2113.26,-462.821 2080.59,-417.331 2055.01,-378 2028.83,-337.741 2000.1,-289.16 1985.22,-263.638"/>
<polygon fill="midnightblue" stroke="midnightblue" points="1988.12,-261.654 1980.07,-254.767 1982.06,-265.171 1988.12,-261.654"/>
</g>
<!-- Node35 -->
<g id="node35" class="node"><title>Node35</title>
<polygon fill="white" stroke="#bfbfbf" points="2222.51,-420 2222.51,-439 2281.51,-439 2281.51,-420 2222.51,-420"/>
<text text-anchor="middle" x="2252.01" y="-427" font-family="Helvetica,sans-Serif" font-size="10.00">iostream</text>
</g>
<!-- Node34&#45;&gt;Node35 -->
<g id="edge93" class="edge"><title>Node34&#45;&gt;Node35</title>
<path fill="none" stroke="midnightblue" d="M2150.06,-481.475C2169.86,-471.578 2202.73,-455.142 2225.78,-443.615"/>
<polygon fill="midnightblue" stroke="midnightblue" points="2227.62,-446.612 2234.99,-439.009 2224.48,-440.351 2227.62,-446.612"/>
</g>
<!-- Node36&#45;&gt;Node3 -->
<g id="edge103" class="edge"><title>Node36&#45;&gt;Node3</title>
<path fill="none" stroke="midnightblue" d="M2373.39,-593.261C2393.67,-559.74 2465.52,-435.57 2489.01,-322 2497.56,-280.68 2482.86,-262.682 2451.01,-235 2408.41,-197.965 2391.52,-193.692 2337.01,-179 2230.58,-150.311 1906.83,-139.114 1763.98,-135.487"/>
<polygon fill="midnightblue" stroke="midnightblue" points="1763.69,-131.979 1753.61,-135.229 1763.51,-138.977 1763.69,-131.979"/>
</g>
<!-- Node36&#45;&gt;Node10 -->
<g id="edge105" class="edge"><title>Node36&#45;&gt;Node10</title>
<path fill="none" stroke="midnightblue" d="M2386.96,-593.467C2404.34,-585.246 2430.43,-571.89 2451.01,-557 2545.02,-489.006 2563.49,-464.316 2641.01,-378 2690.19,-323.241 2741.01,-319.601 2741.01,-246 2741.01,-246 2741.01,-246 2741.01,-188 2741.01,-147.889 2710.4,-109.234 2690.56,-88.3923"/>
<polygon fill="midnightblue" stroke="midnightblue" points="2692.85,-85.7241 2683.33,-81.0722 2687.87,-90.6449 2692.85,-85.7241"/>
</g>
<!-- Node36&#45;&gt;Node14 -->
<g id="edge104" class="edge"><title>Node36&#45;&gt;Node14</title>
<path fill="none" stroke="midnightblue" d="M2327.93,-598.981C2208.09,-589.956 1852.12,-563.147 1710.3,-552.465"/>
<polygon fill="midnightblue" stroke="midnightblue" points="1710.29,-548.955 1700.06,-551.694 1709.77,-555.935 1710.29,-548.955"/>
</g>
<!-- Node37&#45;&gt;Node2 -->
<g id="edge108" class="edge"><title>Node37&#45;&gt;Node2</title>
<path fill="none" stroke="midnightblue" d="M2439.91,-761.368C2420.43,-742.894 2374.45,-699.293 2349.61,-675.744"/>
<polygon fill="midnightblue" stroke="midnightblue" points="2351.74,-672.933 2342.07,-668.591 2346.92,-678.012 2351.74,-672.933"/>
</g>
<!-- Node38 -->
<g id="node38" class="node"><title>Node38</title>
<g id="a_node38"><a xlink:href="ir_2expr_8h.html" target="_top" xlink:title="Base expr nodes in TVM. ">
<polygon fill="white" stroke="black" points="1828.51,-705.5 1828.51,-724.5 1905.51,-724.5 1905.51,-705.5 1828.51,-705.5"/>
<text text-anchor="middle" x="1867.01" y="-712.5" font-family="Helvetica,sans-Serif" font-size="10.00">tvm/ir/expr.h</text>
</a>
</g>
</g>
<!-- Node37&#45;&gt;Node38 -->
<g id="edge109" class="edge"><title>Node37&#45;&gt;Node38</title>
<path fill="none" stroke="midnightblue" d="M2392.41,-764.749C2278.52,-754.181 2023.38,-730.508 1916.06,-720.551"/>
<polygon fill="midnightblue" stroke="midnightblue" points="1916.12,-717.042 1905.84,-719.603 1915.48,-724.012 1916.12,-717.042"/>
</g>
<!-- Node38&#45;&gt;Node2 -->
<g id="edge114" class="edge"><title>Node38&#45;&gt;Node2</title>
<path fill="none" stroke="midnightblue" d="M1905.54,-709.535C1990.04,-699.744 2191.47,-676.402 2284.45,-665.628"/>
<polygon fill="midnightblue" stroke="midnightblue" points="2284.91,-669.098 2294.44,-664.47 2284.1,-662.145 2284.91,-669.098"/>
</g>
<!-- Node38&#45;&gt;Node3 -->
<g id="edge110" class="edge"><title>Node38&#45;&gt;Node3</title>
<path fill="none" stroke="midnightblue" d="M1873.37,-705.341C1883.71,-691.76 1905.41,-665.322 1929.01,-649 2097.02,-532.808 2352.24,-616.316 2324.01,-414 2305.53,-281.529 2262.9,-221.309 2136.01,-179 2068.8,-156.589 1870.15,-143.138 1763.9,-137.35"/>
<polygon fill="midnightblue" stroke="midnightblue" points="1763.77,-133.839 1753.6,-136.798 1763.4,-140.829 1763.77,-133.839"/>
</g>
<!-- Node38&#45;&gt;Node9 -->
<g id="edge118" class="edge"><title>Node38&#45;&gt;Node9</title>
<path fill="none" stroke="midnightblue" d="M1828.47,-708.988C1597.46,-677.994 401.363,-503.7 249.013,-199 219.084,-139.142 461.239,-94.8157 563.675,-78.9138"/>
<polygon fill="midnightblue" stroke="midnightblue" points="564.362,-82.3494 573.718,-77.3766 563.303,-75.43 564.362,-82.3494"/>
</g>
<!-- Node38&#45;&gt;Node10 -->
<g id="edge115" class="edge"><title>Node38&#45;&gt;Node10</title>
<path fill="none" stroke="midnightblue" d="M1878.98,-705.317C1903.23,-687.733 1955.95,-649.525 1957.01,-649 2085.16,-585.847 2133.16,-611.995 2265.01,-557 2360.83,-517.034 2387.03,-507.397 2470.01,-445 2579.78,-362.461 2607.93,-327.267 2657.01,-199 2666.35,-174.583 2670.96,-168.828 2675.01,-143 2676.39,-134.218 2675.1,-131.888 2675.01,-123 2674.91,-112.527 2674.68,-100.834 2674.47,-91.339"/>
<polygon fill="midnightblue" stroke="midnightblue" points="2677.97,-90.9926 2674.23,-81.0772 2670.97,-91.1563 2677.97,-90.9926"/>
</g>
<!-- Node38&#45;&gt;Node14 -->
<g id="edge111" class="edge"><title>Node38&#45;&gt;Node14</title>
<path fill="none" stroke="midnightblue" d="M1860.44,-705.321C1843.82,-683.851 1797.93,-627.497 1749.01,-593 1729.51,-579.247 1705.13,-568.033 1685.57,-560.24"/>
<polygon fill="midnightblue" stroke="midnightblue" points="1686.7,-556.926 1676.11,-556.587 1684.18,-563.455 1686.7,-556.926"/>
</g>
<!-- Node38&#45;&gt;Node28 -->
<g id="edge117" class="edge"><title>Node38&#45;&gt;Node28</title>
<path fill="none" stroke="midnightblue" d="M1870.3,-705.123C1882.57,-671.899 1925.01,-556.357 1925.01,-548 1925.01,-548 1925.01,-548 1925.01,-490 1925.01,-404.74 1899.8,-305.12 1888.44,-264.577"/>
<polygon fill="midnightblue" stroke="midnightblue" points="1891.75,-263.422 1885.64,-254.769 1885.02,-265.346 1891.75,-263.422"/>
</g>
<!-- Node38&#45;&gt;Node31 -->
<g id="edge112" class="edge"><title>Node38&#45;&gt;Node31</title>
<path fill="none" stroke="midnightblue" d="M1852.08,-705.417C1812.16,-682.899 1699.08,-621.879 1597.01,-593 1478.4,-559.44 1443.7,-576.656 1322.01,-557 1191.99,-535.998 1154.42,-547.008 1031.01,-501 984.369,-483.611 964.229,-484.56 934.013,-445 921.362,-428.438 916.688,-404.582 914.975,-388.033"/>
<polygon fill="midnightblue" stroke="midnightblue" points="918.454,-387.627 914.201,-377.923 911.475,-388.162 918.454,-387.627"/>
</g>
<!-- Node38&#45;&gt;Node36 -->
<g id="edge113" class="edge"><title>Node38&#45;&gt;Node36</title>
<path fill="none" stroke="midnightblue" d="M1884.25,-705.389C1918.84,-688.13 1993.96,-650.794 2000.01,-649 2110.3,-616.314 2245.94,-607.334 2317.79,-604.89"/>
<polygon fill="midnightblue" stroke="midnightblue" points="2318.04,-608.385 2327.92,-604.575 2317.82,-601.388 2318.04,-608.385"/>
</g>
<!-- Node39 -->
<g id="node39" class="node"><title>Node39</title>
<polygon fill="white" stroke="#bfbfbf" points="2009.01,-649.5 2009.01,-668.5 2071.01,-668.5 2071.01,-649.5 2009.01,-649.5"/>
<text text-anchor="middle" x="2040.01" y="-656.5" font-family="Helvetica,sans-Serif" font-size="10.00">algorithm</text>
</g>
<!-- Node38&#45;&gt;Node39 -->
<g id="edge116" class="edge"><title>Node38&#45;&gt;Node39</title>
<path fill="none" stroke="midnightblue" d="M1894.42,-705.444C1923.78,-696.28 1970.53,-681.688 2003.11,-671.519"/>
<polygon fill="midnightblue" stroke="midnightblue" points="2004.23,-674.837 2012.73,-668.516 2002.14,-668.155 2004.23,-674.837"/>
</g>
<!-- Node40&#45;&gt;Node2 -->
<g id="edge120" class="edge"><title>Node40&#45;&gt;Node2</title>
<path fill="none" stroke="midnightblue" d="M2232.56,-929.485C2287.45,-917.451 2364.01,-889.62 2364.01,-828 2364.01,-828 2364.01,-828 2364.01,-770 2364.01,-736.41 2350.46,-699.14 2341.27,-677.747"/>
<polygon fill="midnightblue" stroke="midnightblue" points="2344.46,-676.313 2337.19,-668.607 2338.07,-679.165 2344.46,-676.313"/>
</g>
<!-- Node41 -->
<g id="node41" class="node"><title>Node41</title>
<g id="a_node41"><a xlink:href="ir_2module_8h.html" target="_top" xlink:title="IRModule that holds the functions and type definitions. ">
<polygon fill="white" stroke="black" points="2132.01,-873.5 2132.01,-892.5 2224.01,-892.5 2224.01,-873.5 2132.01,-873.5"/>
<text text-anchor="middle" x="2178.01" y="-880.5" font-family="Helvetica,sans-Serif" font-size="10.00">tvm/ir/module.h</text>
</a>
</g>
</g>
<!-- Node40&#45;&gt;Node41 -->
<g id="edge121" class="edge"><title>Node40&#45;&gt;Node41</title>
<path fill="none" stroke="midnightblue" d="M2178.01,-929.083C2178.01,-922.006 2178.01,-911.861 2178.01,-902.986"/>
<polygon fill="midnightblue" stroke="midnightblue" points="2181.51,-902.751 2178.01,-892.751 2174.51,-902.751 2181.51,-902.751"/>
</g>
<!-- Node40&#45;&gt;Node43 -->
<g id="edge153" class="edge"><title>Node40&#45;&gt;Node43</title>
<path fill="none" stroke="midnightblue" d="M2118.46,-937.764C1830.27,-936.445 591.261,-928.711 518.013,-893 472.633,-870.876 440.565,-817.41 426.306,-789.548"/>
<polygon fill="midnightblue" stroke="midnightblue" points="429.429,-787.967 421.867,-780.547 423.151,-791.063 429.429,-787.967"/>
</g>
<!-- Node40&#45;&gt;Node47 -->
<g id="edge149" class="edge"><title>Node40&#45;&gt;Node47</title>
<path fill="none" stroke="midnightblue" d="M2118.46,-937.199C1823.36,-932.849 532.013,-909.177 532.013,-828 532.013,-828 532.013,-828 532.013,-658 532.013,-623.617 514.538,-586.631 502.689,-565.503"/>
<polygon fill="midnightblue" stroke="midnightblue" points="505.635,-563.607 497.574,-556.731 499.588,-567.133 505.635,-563.607"/>
</g>
<!-- Node41&#45;&gt;Node2 -->
<g id="edge122" class="edge"><title>Node41&#45;&gt;Node2</title>
<path fill="none" stroke="midnightblue" d="M2206.04,-873.429C2224.95,-866.365 2249.25,-854.612 2265.01,-837 2307.03,-790.062 2324.23,-714.392 2330.23,-679.174"/>
<polygon fill="midnightblue" stroke="midnightblue" points="2333.75,-679.306 2331.86,-668.882 2326.84,-678.212 2333.75,-679.306"/>
</g>
<!-- Node41&#45;&gt;Node10 -->
<g id="edge145" class="edge"><title>Node41&#45;&gt;Node10</title>
<path fill="none" stroke="midnightblue" d="M2224.06,-880.779C2398.25,-875.56 3007.01,-851.625 3007.01,-772 3007.01,-772 3007.01,-772 3007.01,-188 3007.01,-154.31 2995.81,-142.03 2968.01,-123 2925.72,-94.0526 2773.1,-79.6808 2706.02,-74.6491"/>
<polygon fill="midnightblue" stroke="midnightblue" points="2706.25,-71.1563 2696.02,-73.9209 2705.74,-78.1379 2706.25,-71.1563"/>
</g>
<!-- Node41&#45;&gt;Node22 -->
<g id="edge146" class="edge"><title>Node41&#45;&gt;Node22</title>
<path fill="none" stroke="midnightblue" d="M2224.27,-881.75C2325.1,-880.514 2561.22,-873.668 2631.01,-837 2664.51,-819.398 2686.01,-809.843 2686.01,-772 2686.01,-772 2686.01,-772 2686.01,-714 2686.01,-499.868 2503.37,-503.887 2309.01,-414 2233.78,-379.204 2186.51,-434.663 2126.01,-378 2078.01,-333.047 2115.51,-294.734 2088.01,-235 2083.41,-225.001 2076.61,-214.822 2070.55,-206.68"/>
<polygon fill="midnightblue" stroke="midnightblue" points="2073.3,-204.51 2064.41,-198.749 2067.77,-208.797 2073.3,-204.51"/>
</g>
<!-- Node41&#45;&gt;Node23 -->
<g id="edge147" class="edge"><title>Node41&#45;&gt;Node23</title>
<path fill="none" stroke="midnightblue" d="M2131.86,-881.375C1838.96,-877.196 248.642,-851.31 176.013,-781 83.4094,-691.354 152.013,-620.887 152.013,-492 152.013,-492 152.013,-492 152.013,-428.5 152.013,-330.216 245.199,-240.077 286.122,-205.231"/>
<polygon fill="midnightblue" stroke="midnightblue" points="288.572,-207.745 294.009,-198.651 284.088,-202.37 288.572,-207.745"/>
</g>
<!-- Node41&#45;&gt;Node38 -->
<g id="edge123" class="edge"><title>Node41&#45;&gt;Node38</title>
<path fill="none" stroke="midnightblue" d="M2161.73,-873.309C2110.72,-846.08 1953.74,-762.292 1892.17,-729.426"/>
<polygon fill="midnightblue" stroke="midnightblue" points="1893.6,-726.226 1883.13,-724.605 1890.31,-732.402 1893.6,-726.226"/>
</g>
<!-- Node42 -->
<g id="node42" class="node"><title>Node42</title>
<g id="a_node42"><a xlink:href="ir_2function_8h.html" target="_top" xlink:title="Function nodes. ">
<polygon fill="white" stroke="black" points="1741.51,-817.5 1741.51,-836.5 1836.51,-836.5 1836.51,-817.5 1741.51,-817.5"/>
<text text-anchor="middle" x="1789.01" y="-824.5" font-family="Helvetica,sans-Serif" font-size="10.00">tvm/ir/function.h</text>
</a>
</g>
</g>
<!-- Node41&#45;&gt;Node42 -->
<g id="edge124" class="edge"><title>Node41&#45;&gt;Node42</title>
<path fill="none" stroke="midnightblue" d="M2131.97,-875.773C2068.65,-867.185 1951.16,-851.16 1851.01,-837 1849.71,-836.816 1848.39,-836.629 1847.06,-836.44"/>
<polygon fill="midnightblue" stroke="midnightblue" points="1847.13,-832.914 1836.73,-834.964 1846.14,-839.844 1847.13,-832.914"/>
</g>
<!-- Node45 -->
<g id="node45" class="node"><title>Node45</title>
<g id="a_node45"><a xlink:href="ir_2adt_8h.html" target="_top" xlink:title="Algebraic data type definitions. ">
<polygon fill="white" stroke="black" points="2106.01,-761.5 2106.01,-780.5 2178.01,-780.5 2178.01,-761.5 2106.01,-761.5"/>
<text text-anchor="middle" x="2142.01" y="-768.5" font-family="Helvetica,sans-Serif" font-size="10.00">tvm/ir/adt.h</text>
</a>
</g>
</g>
<!-- Node41&#45;&gt;Node45 -->
<g id="edge138" class="edge"><title>Node41&#45;&gt;Node45</title>
<path fill="none" stroke="midnightblue" d="M2174.56,-873.444C2170.97,-864.443 2165.3,-849.831 2161.01,-837 2155.83,-821.495 2150.67,-803.655 2147.04,-790.592"/>
<polygon fill="midnightblue" stroke="midnightblue" points="2150.4,-789.617 2144.38,-780.898 2143.65,-791.468 2150.4,-789.617"/>
</g>
<!-- Node46 -->
<g id="node46" class="node"><title>Node46</title>
<polygon fill="white" stroke="#bfbfbf" points="2170.01,-817.5 2170.01,-836.5 2256.01,-836.5 2256.01,-817.5 2170.01,-817.5"/>
<text text-anchor="middle" x="2213.01" y="-824.5" font-family="Helvetica,sans-Serif" font-size="10.00">unordered_set</text>
</g>
<!-- Node41&#45;&gt;Node46 -->
<g id="edge148" class="edge"><title>Node41&#45;&gt;Node46</title>
<path fill="none" stroke="midnightblue" d="M2183.79,-873.083C2188.68,-865.534 2195.84,-854.495 2201.85,-845.23"/>
<polygon fill="midnightblue" stroke="midnightblue" points="2204.84,-847.046 2207.34,-836.751 2198.96,-843.239 2204.84,-847.046"/>
</g>
<!-- Node42&#45;&gt;Node9 -->
<g id="edge136" class="edge"><title>Node42&#45;&gt;Node9</title>
<path fill="none" stroke="midnightblue" d="M1741.43,-825.666C1509.64,-823.879 504.502,-814.26 369.013,-781 150.797,-727.433 76.0125,-593.694 76.0125,-369 76.0125,-369 76.0125,-369 76.0125,-305.5 76.0125,-190.319 156.943,-174.414 260.013,-123 273.492,-116.276 473.085,-89.897 563.766,-78.1712"/>
<polygon fill="midnightblue" stroke="midnightblue" points="564.278,-81.6342 573.748,-76.8828 563.382,-74.6918 564.278,-81.6342"/>
</g>
<!-- Node42&#45;&gt;Node10 -->
<g id="edge137" class="edge"><title>Node42&#45;&gt;Node10</title>
<path fill="none" stroke="midnightblue" d="M1836.85,-825.215C1977.01,-822.57 2384.87,-812.319 2514.01,-781 2679.37,-740.899 2743.74,-739.06 2858.01,-613 2912.24,-553.184 2931.01,-374.386 2931.01,-369 2931.01,-369 2931.01,-369 2931.01,-188 2931.01,-90.7233 2775.93,-74.8809 2706.71,-72.655"/>
<polygon fill="midnightblue" stroke="midnightblue" points="2706.45,-69.1479 2696.37,-72.4043 2706.28,-76.1458 2706.45,-69.1479"/>
</g>
<!-- Node42&#45;&gt;Node38 -->
<g id="edge125" class="edge"><title>Node42&#45;&gt;Node38</title>
<path fill="none" stroke="midnightblue" d="M1795.13,-817.368C1808.01,-799.215 1838.08,-756.802 1854.96,-732.99"/>
<polygon fill="midnightblue" stroke="midnightblue" points="1857.99,-734.773 1860.92,-724.591 1852.28,-730.724 1857.99,-734.773"/>
</g>
<!-- Node42&#45;&gt;Node43 -->
<g id="edge126" class="edge"><title>Node42&#45;&gt;Node43</title>
<path fill="none" stroke="midnightblue" d="M1741.42,-824.126C1530.76,-815.828 683.097,-782.441 467.89,-773.965"/>
<polygon fill="midnightblue" stroke="midnightblue" points="467.961,-770.465 457.831,-773.568 467.685,-777.459 467.961,-770.465"/>
</g>
<!-- Node43&#45;&gt;Node9 -->
<g id="edge133" class="edge"><title>Node43&#45;&gt;Node9</title>
<path fill="none" stroke="midnightblue" d="M381.633,-761.485C317.263,-744.017 190.013,-697.642 190.013,-604 190.013,-604 190.013,-604 190.013,-428.5 190.013,-284.926 168.413,-190.72 295.013,-123 318.325,-110.53 482.936,-88.3341 563.631,-78.034"/>
<polygon fill="midnightblue" stroke="midnightblue" points="564.493,-81.4528 573.972,-76.7206 563.611,-74.5086 564.493,-81.4528"/>
</g>
<!-- Node43&#45;&gt;Node10 -->
<g id="edge134" class="edge"><title>Node43&#45;&gt;Node10</title>
<path fill="none" stroke="midnightblue" d="M457.666,-770.109C630.664,-770.313 1336.52,-768.298 1914.01,-725 2122.03,-709.404 2183.76,-739.697 2380.01,-669 2617.16,-583.573 2817.01,-559.564 2817.01,-307.5 2817.01,-307.5 2817.01,-307.5 2817.01,-188 2817.01,-131.127 2747.71,-97.4644 2705.6,-82.2582"/>
<polygon fill="midnightblue" stroke="midnightblue" points="2706.64,-78.9145 2696.04,-78.9545 2704.35,-85.5302 2706.64,-78.9145"/>
</g>
<!-- Node43&#45;&gt;Node11 -->
<g id="edge135" class="edge"><title>Node43&#45;&gt;Node11</title>
<path fill="none" stroke="midnightblue" d="M378.18,-769.734C334.398,-767.625 263.692,-758.686 214.013,-725 21.0256,-594.142 0.012521,-479.169 0.012521,-246 0.012521,-246 0.012521,-246 0.012521,-188 0.012521,-157.205 -0.187815,-142.044 24.0125,-123 86.1744,-74.0818 335.937,-71.4092 424.598,-72.0517"/>
<polygon fill="midnightblue" stroke="midnightblue" points="424.794,-75.5535 434.826,-72.1462 424.859,-68.5538 424.794,-75.5535"/>
</g>
<!-- Node43&#45;&gt;Node18 -->
<g id="edge129" class="edge"><title>Node43&#45;&gt;Node18</title>
<path fill="none" stroke="midnightblue" d="M399.931,-761.39C386.451,-753.872 369.04,-741.565 361.013,-725 357.136,-717.001 359.225,-713.707 361.013,-705 377.346,-625.424 377.093,-595.925 433.013,-537 611.197,-349.237 942.675,-314.616 1084.18,-308.578"/>
<polygon fill="midnightblue" stroke="midnightblue" points="1084.59,-312.065 1094.45,-308.177 1084.32,-305.07 1084.59,-312.065"/>
</g>
<!-- Node43&#45;&gt;Node22 -->
<g id="edge131" class="edge"><title>Node43&#45;&gt;Node22</title>
<path fill="none" stroke="midnightblue" d="M457.765,-766.628C689.986,-746.544 1872.31,-638.863 2207.01,-501 2256.43,-480.647 2324.24,-455.044 2290.01,-414 2233.01,-345.64 2154.84,-442.026 2093.01,-378 2048.39,-331.791 2086.89,-297.49 2072.01,-235 2069.89,-226.088 2066.78,-216.423 2063.94,-208.343"/>
<polygon fill="midnightblue" stroke="midnightblue" points="2067.19,-207.026 2060.47,-198.831 2060.61,-209.425 2067.19,-207.026"/>
</g>
<!-- Node43&#45;&gt;Node23 -->
<g id="edge130" class="edge"><title>Node43&#45;&gt;Node23</title>
<path fill="none" stroke="midnightblue" d="M397.368,-761.421C364.516,-746.231 304.013,-711.293 304.013,-660 304.013,-660 304.013,-660 304.013,-305.5 304.013,-271.362 304.455,-231.551 304.751,-208.709"/>
<polygon fill="midnightblue" stroke="midnightblue" points="308.251,-208.739 304.886,-198.693 301.251,-208.645 308.251,-208.739"/>
</g>
<!-- Node43&#45;&gt;Node26 -->
<g id="edge132" class="edge"><title>Node43&#45;&gt;Node26</title>
<path fill="none" stroke="midnightblue" d="M433.119,-761.366C472.464,-739.251 581.869,-680.127 680.013,-649 799.648,-611.057 1705.72,-537.075 1791.01,-445 1837.64,-394.664 1824.82,-303.549 1816.53,-264.538"/>
<polygon fill="midnightblue" stroke="midnightblue" points="1819.9,-263.572 1814.27,-254.598 1813.07,-265.125 1819.9,-263.572"/>
</g>
<!-- Node43&#45;&gt;Node38 -->
<g id="edge128" class="edge"><title>Node43&#45;&gt;Node38</title>
<path fill="none" stroke="midnightblue" d="M457.521,-768.528C661.345,-760.932 1593.13,-726.207 1818.05,-717.825"/>
<polygon fill="midnightblue" stroke="midnightblue" points="1818.35,-721.316 1828.22,-717.446 1818.09,-714.321 1818.35,-721.316"/>
</g>
<!-- Node44 -->
<g id="node44" class="node"><title>Node44</title>
<polygon fill="white" stroke="#bfbfbf" points="370.513,-705.5 370.513,-724.5 465.513,-724.5 465.513,-705.5 370.513,-705.5"/>
<text text-anchor="middle" x="418.013" y="-712.5" font-family="Helvetica,sans-Serif" font-size="10.00">dmlc/common.h</text>
</g>
<!-- Node43&#45;&gt;Node44 -->
<g id="edge127" class="edge"><title>Node43&#45;&gt;Node44</title>
<path fill="none" stroke="midnightblue" d="M418.013,-761.083C418.013,-754.006 418.013,-743.861 418.013,-734.986"/>
<polygon fill="midnightblue" stroke="midnightblue" points="421.513,-734.751 418.013,-724.751 414.513,-734.751 421.513,-734.751"/>
</g>
<!-- Node45&#45;&gt;Node2 -->
<g id="edge143" class="edge"><title>Node45&#45;&gt;Node2</title>
<path fill="none" stroke="midnightblue" d="M2157,-761.368C2190.05,-742.332 2269.44,-696.615 2309.31,-673.65"/>
<polygon fill="midnightblue" stroke="midnightblue" points="2311.18,-676.615 2318.09,-668.591 2307.68,-670.549 2311.18,-676.615"/>
</g>
<!-- Node45&#45;&gt;Node3 -->
<g id="edge139" class="edge"><title>Node45&#45;&gt;Node3</title>
<path fill="none" stroke="midnightblue" d="M2178.11,-768.594C2257.03,-764.124 2448.82,-745.569 2586.01,-669 2594.05,-664.517 2703.01,-549.006 2703.01,-548 2703.01,-548 2703.01,-548 2703.01,-367 2703.01,-217.107 2564.99,-227.077 2423.01,-179 2302.2,-138.089 1920.72,-133.7 1763.63,-133.686"/>
<polygon fill="midnightblue" stroke="midnightblue" points="1763.61,-130.186 1753.61,-133.691 1763.61,-137.186 1763.61,-130.186"/>
</g>
<!-- Node45&#45;&gt;Node10 -->
<g id="edge144" class="edge"><title>Node45&#45;&gt;Node10</title>
<path fill="none" stroke="midnightblue" d="M2178.23,-768.089C2244.71,-764.027 2390.37,-752.548 2510.01,-725 2584.66,-707.813 2783.75,-669.006 2836.01,-613 2859.62,-587.699 2893.01,-532.01 2893.01,-369 2893.01,-369 2893.01,-369 2893.01,-188 2893.01,-157.205 2891.85,-143.657 2869.01,-123 2823.46,-81.8044 2748.64,-73.3641 2706.14,-72.1253"/>
<polygon fill="midnightblue" stroke="midnightblue" points="2706.13,-68.6247 2696.07,-71.95 2706.01,-75.6236 2706.13,-68.6247"/>
</g>
<!-- Node45&#45;&gt;Node14 -->
<g id="edge140" class="edge"><title>Node45&#45;&gt;Node14</title>
<path fill="none" stroke="midnightblue" d="M2140.22,-761.386C2135.11,-739.059 2118.3,-678.975 2080.01,-649 2022.73,-604.15 1813.82,-570.199 1710.17,-555.704"/>
<polygon fill="midnightblue" stroke="midnightblue" points="1710.56,-552.225 1700.17,-554.321 1709.6,-559.159 1710.56,-552.225"/>
</g>
<!-- Node45&#45;&gt;Node31 -->
<g id="edge141" class="edge"><title>Node45&#45;&gt;Node31</title>
<path fill="none" stroke="midnightblue" d="M2105.95,-766.305C2046.03,-759.869 1922.34,-745.323 1819.01,-725 1437.37,-649.937 1308.01,-698.645 973.013,-501 942.425,-482.954 930.178,-477.567 916.013,-445 908.133,-426.884 908.783,-403.973 910.683,-388.066"/>
<polygon fill="midnightblue" stroke="midnightblue" points="914.187,-388.293 912.183,-377.89 907.262,-387.273 914.187,-388.293"/>
</g>
<!-- Node45&#45;&gt;Node38 -->
<g id="edge142" class="edge"><title>Node45&#45;&gt;Node38</title>
<path fill="none" stroke="midnightblue" d="M2105.78,-762.885C2057,-753.307 1970.07,-736.236 1915.64,-725.549"/>
<polygon fill="midnightblue" stroke="midnightblue" points="1916.03,-722.058 1905.54,-723.566 1914.68,-728.927 1916.03,-722.058"/>
</g>
<!-- Node47&#45;&gt;Node10 -->
<g id="edge151" class="edge"><title>Node47&#45;&gt;Node10</title>
<path fill="none" stroke="midnightblue" d="M541.683,-545.098C730.078,-541.156 1418.25,-522.007 1979.01,-445 2021.7,-439.137 2321.8,-395.874 2361.01,-378 2508.32,-310.852 2627.36,-143.661 2663.04,-89.6322"/>
<polygon fill="midnightblue" stroke="midnightblue" points="2666.03,-91.4593 2668.56,-81.1704 2660.17,-87.6373 2666.03,-91.4593"/>
</g>
<!-- Node47&#45;&gt;Node11 -->
<g id="edge152" class="edge"><title>Node47&#45;&gt;Node11</title>
<path fill="none" stroke="midnightblue" d="M471.415,-537.339C415.075,-512.582 257.22,-435.885 176.013,-322 123.83,-248.819 81.6876,-191.386 140.013,-123 176.362,-80.3805 351.511,-73.5699 424.244,-72.5991"/>
<polygon fill="midnightblue" stroke="midnightblue" points="424.64,-76.0953 434.603,-72.4917 424.568,-69.0956 424.64,-76.0953"/>
</g>
<!-- Node47&#45;&gt;Node17 -->
<g id="edge150" class="edge"><title>Node47&#45;&gt;Node17</title>
<path fill="none" stroke="midnightblue" d="M541.577,-542.795C568.356,-541.069 601.994,-538.907 632.013,-537 869.244,-521.93 1150.65,-504.357 1278.97,-496.361"/>
<polygon fill="midnightblue" stroke="midnightblue" points="1279.29,-499.848 1289.05,-495.732 1278.85,-492.861 1279.29,-499.848"/>
</g>
<!-- Node48&#45;&gt;Node10 -->
<g id="edge157" class="edge"><title>Node48&#45;&gt;Node10</title>
<path fill="none" stroke="midnightblue" d="M2200.78,-358.373C2223.83,-316.806 2323.55,-138.541 2347.01,-123 2395.07,-91.1725 2568.76,-78.2108 2641.55,-74.096"/>
<polygon fill="midnightblue" stroke="midnightblue" points="2642.14,-77.5692 2651.94,-73.5309 2641.76,-70.5796 2642.14,-77.5692"/>
</g>
<!-- Node48&#45;&gt;Node11 -->
<g id="edge159" class="edge"><title>Node48&#45;&gt;Node11</title>
<path fill="none" stroke="midnightblue" d="M2134.96,-367.583C1966.91,-368.531 1483.54,-366.821 1085.01,-322 922.85,-303.762 881.452,-297.919 724.013,-255 615.473,-225.411 571.328,-227.461 497.013,-143 483.03,-127.108 471.396,-105.734 464.136,-90.7011"/>
<polygon fill="midnightblue" stroke="midnightblue" points="467.225,-89.0427 459.834,-81.4517 460.878,-91.9949 467.225,-89.0427"/>
</g>
<!-- Node48&#45;&gt;Node18 -->
<g id="edge156" class="edge"><title>Node48&#45;&gt;Node18</title>
<path fill="none" stroke="midnightblue" d="M2134.78,-365.994C1984.57,-363.109 1586,-352.923 1255.01,-322 1242.96,-320.874 1230.16,-319.356 1217.82,-317.726"/>
<polygon fill="midnightblue" stroke="midnightblue" points="1217.96,-314.213 1207.58,-316.336 1217.02,-321.15 1217.96,-314.213"/>
</g>
<!-- Node48&#45;&gt;Node22 -->
<g id="edge158" class="edge"><title>Node48&#45;&gt;Node22</title>
<path fill="none" stroke="midnightblue" d="M2198.16,-358.483C2203.35,-335.724 2214.12,-272.665 2185.01,-235 2162.66,-206.073 2120.36,-195.681 2090.52,-191.982"/>
<polygon fill="midnightblue" stroke="midnightblue" points="2090.85,-188.497 2080.54,-190.933 2090.12,-195.459 2090.85,-188.497"/>
</g>
<!-- Node49&#45;&gt;Node5 -->
<g id="edge165" class="edge"><title>Node49&#45;&gt;Node5</title>
<path fill="none" stroke="midnightblue" d="M1665.96,-769.553C1495.8,-767.459 837.553,-757.323 751.013,-725 656.273,-689.614 608.013,-649.132 608.013,-548 608.013,-548 608.013,-548 608.013,-244 608.013,-164.086 666.861,-152.795 741.013,-123 796.704,-100.623 960.117,-85.1199 1056.51,-77.6332"/>
<polygon fill="midnightblue" stroke="midnightblue" points="1056.78,-81.1227 1066.49,-76.8685 1056.25,-74.1432 1056.78,-81.1227"/>
</g>
<!-- Node49&#45;&gt;Node10 -->
<g id="edge168" class="edge"><title>Node49&#45;&gt;Node10</title>
<path fill="none" stroke="midnightblue" d="M1746.13,-768.388C1897.17,-761.86 2430.9,-734.542 2586.01,-669 2770.49,-591.05 2855.01,-507.768 2855.01,-307.5 2855.01,-307.5 2855.01,-307.5 2855.01,-188 2855.01,-157.205 2853.25,-144.308 2831.01,-123 2796.82,-90.2339 2741.28,-78.7272 2706.25,-74.6865"/>
<polygon fill="midnightblue" stroke="midnightblue" points="2706.38,-71.1822 2696.08,-73.6569 2705.67,-78.1466 2706.38,-71.1822"/>
</g>
<!-- Node49&#45;&gt;Node11 -->
<g id="edge173" class="edge"><title>Node49&#45;&gt;Node11</title>
<path fill="none" stroke="midnightblue" d="M1665.77,-769.799C1493.28,-768.716 815.622,-762.135 606.013,-725 562.589,-717.307 228.013,-648.099 228.013,-604 228.013,-604 228.013,-604 228.013,-546 228.013,-388.175 38.0125,-403.825 38.0125,-246 38.0125,-246 38.0125,-246 38.0125,-188 38.0125,-107.721 328.079,-81.0417 424.944,-74.3705"/>
<polygon fill="midnightblue" stroke="midnightblue" points="425.251,-77.8579 434.997,-73.7028 424.787,-70.8733 425.251,-77.8579"/>
</g>
<!-- Node49&#45;&gt;Node13 -->
<g id="edge166" class="edge"><title>Node49&#45;&gt;Node13</title>
<path fill="none" stroke="midnightblue" d="M1665.74,-762.261C1590.7,-746.681 1437.01,-708.815 1437.01,-660 1437.01,-660 1437.01,-660 1437.01,-490 1437.01,-391.857 1524.19,-298.221 1562.41,-261.886"/>
<polygon fill="midnightblue" stroke="midnightblue" points="1565.25,-264.024 1570.18,-254.648 1560.48,-258.901 1565.25,-264.024"/>
</g>
<!-- Node49&#45;&gt;Node14 -->
<g id="edge162" class="edge"><title>Node49&#45;&gt;Node14</title>
<path fill="none" stroke="midnightblue" d="M1665.82,-762.593C1644.46,-756.392 1619.99,-745.159 1607.01,-725 1575.25,-675.675 1584.87,-647.326 1607.01,-593 1611.81,-581.225 1621.34,-570.856 1630.31,-563.049"/>
<polygon fill="midnightblue" stroke="midnightblue" points="1632.66,-565.645 1638.23,-556.631 1628.26,-560.205 1632.66,-565.645"/>
</g>
<!-- Node49&#45;&gt;Node23 -->
<g id="edge170" class="edge"><title>Node49&#45;&gt;Node23</title>
<path fill="none" stroke="midnightblue" d="M1665.76,-769.502C1475.68,-767.001 675.408,-754.732 632.013,-725 556.812,-673.477 599.125,-613.796 550.013,-537 538.479,-518.965 531.198,-517.865 518.013,-501 434.107,-393.683 345.824,-255.267 315.758,-207.281"/>
<polygon fill="midnightblue" stroke="midnightblue" points="318.658,-205.318 310.393,-198.69 312.721,-209.026 318.658,-205.318"/>
</g>
<!-- Node49&#45;&gt;Node28 -->
<g id="edge172" class="edge"><title>Node49&#45;&gt;Node28</title>
<path fill="none" stroke="midnightblue" d="M1711.59,-761.409C1734.91,-724.966 1825.23,-578.88 1863.01,-445 1881.15,-380.75 1883.32,-300.761 1883.28,-264.915"/>
<polygon fill="midnightblue" stroke="midnightblue" points="1886.78,-264.51 1883.2,-254.537 1879.78,-264.563 1886.78,-264.51"/>
</g>
<!-- Node49&#45;&gt;Node30 -->
<g id="edge164" class="edge"><title>Node49&#45;&gt;Node30</title>
<path fill="none" stroke="midnightblue" d="M1746.25,-765.735C1835.12,-755.346 2043.15,-725.358 2080.01,-669 2084.88,-661.561 2081.14,-657.817 2080.01,-649 2069.98,-570.707 2000.68,-332.804 1980.51,-264.511"/>
<polygon fill="midnightblue" stroke="midnightblue" points="1983.81,-263.334 1977.62,-254.739 1977.1,-265.321 1983.81,-263.334"/>
</g>
<!-- Node49&#45;&gt;Node31 -->
<g id="edge163" class="edge"><title>Node49&#45;&gt;Node31</title>
<path fill="none" stroke="midnightblue" d="M1665.95,-769.972C1477,-769.323 684.013,-760.604 684.013,-660 684.013,-660 684.013,-660 684.013,-490 684.013,-454.578 681.854,-437.884 708.013,-414 727.844,-395.892 792.608,-383.759 844.287,-376.7"/>
<polygon fill="midnightblue" stroke="midnightblue" points="844.978,-380.14 854.431,-375.356 844.058,-373.2 844.978,-380.14"/>
</g>
<!-- Node49&#45;&gt;Node35 -->
<g id="edge171" class="edge"><title>Node49&#45;&gt;Node35</title>
<path fill="none" stroke="midnightblue" d="M1746.02,-768.742C1832.71,-765.481 2035.01,-754.819 2096.01,-725 2202.34,-673.027 2201.9,-613.047 2240.01,-501 2245.75,-484.12 2248.83,-463.993 2250.42,-449.573"/>
<polygon fill="midnightblue" stroke="midnightblue" points="2253.93,-449.695 2251.41,-439.404 2246.96,-449.021 2253.93,-449.695"/>
</g>
<!-- Node49&#45;&gt;Node38 -->
<g id="edge167" class="edge"><title>Node49&#45;&gt;Node38</title>
<path fill="none" stroke="midnightblue" d="M1731.52,-761.444C1758.61,-752.359 1801.6,-737.939 1831.88,-727.783"/>
<polygon fill="midnightblue" stroke="midnightblue" points="1833.25,-731.015 1841.62,-724.516 1831.03,-724.378 1833.25,-731.015"/>
</g>
<!-- Node49&#45;&gt;Node39 -->
<g id="edge169" class="edge"><title>Node49&#45;&gt;Node39</title>
<path fill="none" stroke="midnightblue" d="M1746.37,-764.495C1788.93,-757.95 1857.51,-745.286 1914.01,-725 1952.02,-711.357 1993.05,-688.509 2017.63,-673.854"/>
<polygon fill="midnightblue" stroke="midnightblue" points="2019.45,-676.842 2026.2,-668.676 2015.83,-670.85 2019.45,-676.842"/>
</g>
<!-- Node50&#45;&gt;Node10 -->
<g id="edge179" class="edge"><title>Node50&#45;&gt;Node10</title>
<path fill="none" stroke="midnightblue" d="M2622.64,-824.072C2705.5,-816.918 2969.01,-788.472 2969.01,-716 2969.01,-716 2969.01,-716 2969.01,-188 2969.01,-157.205 2968.55,-142.854 2945.01,-123 2909.31,-92.8839 2770.48,-79.3334 2706.56,-74.596"/>
<polygon fill="midnightblue" stroke="midnightblue" points="2706.48,-71.0812 2696.25,-73.8608 2705.98,-78.0635 2706.48,-71.0812"/>
</g>
<!-- Node50&#45;&gt;Node14 -->
<g id="edge178" class="edge"><title>Node50&#45;&gt;Node14</title>
<path fill="none" stroke="midnightblue" d="M2573.2,-825.209C2455.51,-821.097 1953.57,-799.409 1819.01,-725 1745.84,-684.536 1685.64,-601.261 1661.9,-565.236"/>
<polygon fill="midnightblue" stroke="midnightblue" points="1664.8,-563.269 1656.43,-556.774 1658.92,-567.071 1664.8,-563.269"/>
</g>
<!-- Node50&#45;&gt;Node22 -->
<g id="edge180" class="edge"><title>Node50&#45;&gt;Node22</title>
<path fill="none" stroke="midnightblue" d="M2609.33,-817.311C2648.96,-785.827 2779.01,-672.975 2779.01,-548 2779.01,-548 2779.01,-548 2779.01,-490 2779.01,-338.872 2232.74,-223.673 2090.53,-196.244"/>
<polygon fill="midnightblue" stroke="midnightblue" points="2091.1,-192.791 2080.62,-194.35 2089.79,-199.666 2091.1,-192.791"/>
</g>
<!-- Node50&#45;&gt;Node36 -->
<g id="edge176" class="edge"><title>Node50&#45;&gt;Node36</title>
<path fill="none" stroke="midnightblue" d="M2596.47,-817.344C2592.26,-795.928 2578.78,-739.687 2548.01,-705 2508.44,-660.396 2444.26,-631.105 2404.19,-616.065"/>
<polygon fill="midnightblue" stroke="midnightblue" points="2405.14,-612.687 2394.55,-612.548 2402.74,-619.263 2405.14,-612.687"/>
</g>
<!-- Node50&#45;&gt;Node49 -->
<g id="edge177" class="edge"><title>Node50&#45;&gt;Node49</title>
<path fill="none" stroke="midnightblue" d="M2573.22,-824.499C2452.29,-817.178 1923.25,-785.151 1756.53,-775.058"/>
<polygon fill="midnightblue" stroke="midnightblue" points="1756.27,-771.536 1746.08,-774.425 1755.85,-778.523 1756.27,-771.536"/>
</g>
</g>
</svg>
