<?xml version="1.0" encoding="UTF-8" standalone="no"?>
<!DOCTYPE svg PUBLIC "-//W3C//DTD SVG 1.1//EN"
 "http://www.w3.org/Graphics/SVG/1.1/DTD/svg11.dtd">
<!-- Generated by graphviz version 2.38.0 (20140413.2041)
 -->
<!-- Title: topi/include/topi/rocm/normalization.h Pages: 1 -->
<svg width="3535pt" height="1203pt"
 viewBox="0.00 0.00 3535.00 1203.00" xmlns="http://www.w3.org/2000/svg" xmlns:xlink="http://www.w3.org/1999/xlink">
<g id="graph0" class="graph" transform="scale(1 1) rotate(0) translate(4 1199)">
<title>topi/include/topi/rocm/normalization.h</title>
<polygon fill="white" stroke="none" points="-4,4 -4,-1199 3531,-1199 3531,4 -4,4"/>
<!-- Node1 -->
<g id="node1" class="node"><title>Node1</title>
<polygon fill="#bfbfbf" stroke="black" points="3371,-1164.5 3371,-1194.5 3491,-1194.5 3491,-1164.5 3371,-1164.5"/>
<text text-anchor="start" x="3379" y="-1182.5" font-family="Helvetica,sans-Serif" font-size="10.00">topi/include/topi/rocm</text>
<text text-anchor="middle" x="3431" y="-1171.5" font-family="Helvetica,sans-Serif" font-size="10.00">/normalization.h</text>
</g>
<!-- Node2 -->
<g id="node2" class="node"><title>Node2</title>
<g id="a_node2"><a xlink:href="operation_8h.html" target="_top" xlink:title="Operation node can generate one or multiple Tensors. ">
<polygon fill="white" stroke="black" points="2364,-1108.5 2364,-1127.5 2470,-1127.5 2470,-1108.5 2364,-1108.5"/>
<text text-anchor="middle" x="2417" y="-1115.5" font-family="Helvetica,sans-Serif" font-size="10.00">tvm/te/operation.h</text>
</a>
</g>
</g>
<!-- Node1&#45;&gt;Node2 -->
<g id="edge1" class="edge"><title>Node1&#45;&gt;Node2</title>
<path fill="none" stroke="midnightblue" d="M3370.98,-1174.98C3192.06,-1164.48 2663.44,-1133.46 2480.31,-1122.71"/>
<polygon fill="midnightblue" stroke="midnightblue" points="2480.48,-1119.22 2470.3,-1122.13 2480.07,-1126.21 2480.48,-1119.22"/>
</g>
<!-- Node47 -->
<g id="node47" class="node"><title>Node47</title>
<g id="a_node47"><a xlink:href="generic__func_8h.html" target="_top" xlink:title="Generic function that can be specialzied on a per target basis. ">
<polygon fill="white" stroke="black" points="2944,-817.5 2944,-847.5 3050,-847.5 3050,-817.5 2944,-817.5"/>
<text text-anchor="start" x="2952" y="-835.5" font-family="Helvetica,sans-Serif" font-size="10.00">tvm/target/generic</text>
<text text-anchor="middle" x="2997" y="-824.5" font-family="Helvetica,sans-Serif" font-size="10.00">_func.h</text>
</a>
</g>
</g>
<!-- Node1&#45;&gt;Node47 -->
<g id="edge179" class="edge"><title>Node1&#45;&gt;Node47</title>
<path fill="none" stroke="midnightblue" d="M3427.99,-1164.25C3416.8,-1115.3 3372.75,-953.247 3267,-884 3233.75,-862.227 3129.32,-847.397 3060.51,-839.7"/>
<polygon fill="midnightblue" stroke="midnightblue" points="3060.53,-836.181 3050.21,-838.571 3059.77,-843.14 3060.53,-836.181"/>
</g>
<!-- Node50 -->
<g id="node50" class="node"><title>Node50</title>
<g id="a_node50"><a xlink:href="tags_8h.html" target="_top" xlink:title="External function interface to rocBLAS libraries. ">
<polygon fill="white" stroke="black" points="3459,-1052.5 3459,-1071.5 3527,-1071.5 3527,-1052.5 3459,-1052.5"/>
<text text-anchor="middle" x="3493" y="-1059.5" font-family="Helvetica,sans-Serif" font-size="10.00">topi/tags.h</text>
</a>
</g>
</g>
<!-- Node1&#45;&gt;Node50 -->
<g id="edge194" class="edge"><title>Node1&#45;&gt;Node50</title>
<path fill="none" stroke="midnightblue" d="M3438.6,-1164.34C3449.93,-1143.24 3471.21,-1103.6 3483.53,-1080.65"/>
<polygon fill="midnightblue" stroke="midnightblue" points="3486.7,-1082.14 3488.35,-1071.67 3480.53,-1078.82 3486.7,-1082.14"/>
</g>
<!-- Node3 -->
<g id="node3" class="node"><title>Node3</title>
<g id="a_node3"><a xlink:href="analyzer_8h.html" target="_top" xlink:title="Algebra expression simplifications. ">
<polygon fill="white" stroke="black" points="2298,-884.5 2298,-903.5 2410,-903.5 2410,-884.5 2298,-884.5"/>
<text text-anchor="middle" x="2354" y="-891.5" font-family="Helvetica,sans-Serif" font-size="10.00">tvm/arith/analyzer.h</text>
</a>
</g>
</g>
<!-- Node2&#45;&gt;Node3 -->
<g id="edge2" class="edge"><title>Node2&#45;&gt;Node3</title>
<path fill="none" stroke="midnightblue" d="M2414.53,-1108.3C2405.24,-1075.56 2372.27,-959.375 2359.3,-913.666"/>
<polygon fill="midnightblue" stroke="midnightblue" points="2362.62,-912.548 2356.52,-903.884 2355.88,-914.459 2362.62,-912.548"/>
</g>
<!-- Node14 -->
<g id="node14" class="node"><title>Node14</title>
<polygon fill="white" stroke="#bfbfbf" points="2775,-62 2775,-81 2819,-81 2819,-62 2775,-62"/>
<text text-anchor="middle" x="2797" y="-69" font-family="Helvetica,sans-Serif" font-size="10.00">string</text>
</g>
<!-- Node2&#45;&gt;Node14 -->
<g id="edge176" class="edge"><title>Node2&#45;&gt;Node14</title>
<path fill="none" stroke="midnightblue" d="M2470.02,-1114.52C2635.69,-1106.21 3141.56,-1076.39 3293,-1016 3390.52,-977.11 3443,-938.493 3443,-833.5 3443,-833.5 3443,-833.5 3443,-188 3443,-148.685 3418.3,-140.301 3383,-123 3284.38,-74.6681 2937.74,-71.9043 2829.52,-72.2544"/>
<polygon fill="midnightblue" stroke="midnightblue" points="2829.22,-68.7556 2819.24,-72.2998 2829.25,-75.7555 2829.22,-68.7556"/>
</g>
<!-- Node21 -->
<g id="node21" class="node"><title>Node21</title>
<polygon fill="white" stroke="#bfbfbf" points="2067.5,-179.5 2067.5,-198.5 2114.5,-198.5 2114.5,-179.5 2067.5,-179.5"/>
<text text-anchor="middle" x="2091" y="-186.5" font-family="Helvetica,sans-Serif" font-size="10.00">vector</text>
</g>
<!-- Node2&#45;&gt;Node21 -->
<g id="edge177" class="edge"><title>Node2&#45;&gt;Node21</title>
<path fill="none" stroke="midnightblue" d="M2466.15,-1108.48C2490.83,-1102.03 2519.72,-1090.93 2540,-1072 2559.93,-1053.4 2557.97,-1042.34 2565,-1016 2612.45,-838.161 2607,-788.06 2607,-604 2607,-604 2607,-604 2607,-490 2607,-334.973 2510.25,-298.879 2369,-235 2286.72,-197.793 2178.47,-190.85 2124.54,-189.869"/>
<polygon fill="midnightblue" stroke="midnightblue" points="2124.55,-186.369 2114.51,-189.745 2124.46,-193.368 2124.55,-186.369"/>
</g>
<!-- Node22 -->
<g id="node22" class="node"><title>Node22</title>
<polygon fill="white" stroke="#bfbfbf" points="2978.5,-179.5 2978.5,-198.5 3071.5,-198.5 3071.5,-179.5 2978.5,-179.5"/>
<text text-anchor="middle" x="3025" y="-186.5" font-family="Helvetica,sans-Serif" font-size="10.00">unordered_map</text>
</g>
<!-- Node2&#45;&gt;Node22 -->
<g id="edge178" class="edge"><title>Node2&#45;&gt;Node22</title>
<path fill="none" stroke="midnightblue" d="M2470.11,-1113.39C2670.18,-1099.11 3367,-1042.77 3367,-951 3367,-951 3367,-951 3367,-714 3367,-505.086 3266.48,-471.911 3162,-291 3146.96,-264.954 3146.99,-254.391 3124,-235 3106.47,-220.214 3083.28,-209.328 3063.76,-201.97"/>
<polygon fill="midnightblue" stroke="midnightblue" points="3064.81,-198.631 3054.22,-198.541 3062.45,-205.218 3064.81,-198.631"/>
</g>
<!-- Node39 -->
<g id="node39" class="node"><title>Node39</title>
<g id="a_node39"><a xlink:href="tir_2expr_8h.html" target="_top" xlink:title="TIR expressions. ">
<polygon fill="white" stroke="black" points="1608,-761.5 1608,-780.5 1688,-780.5 1688,-761.5 1608,-761.5"/>
<text text-anchor="middle" x="1648" y="-768.5" font-family="Helvetica,sans-Serif" font-size="10.00">tvm/tir/expr.h</text>
</a>
</g>
</g>
<!-- Node2&#45;&gt;Node39 -->
<g id="edge173" class="edge"><title>Node2&#45;&gt;Node39</title>
<path fill="none" stroke="midnightblue" d="M2363.99,-1115.94C2016.29,-1108.79 76,-1066.27 76,-1007 76,-1007 76,-1007 76,-893 76,-814.793 1329.19,-779.781 1597.73,-773.176"/>
<polygon fill="midnightblue" stroke="midnightblue" points="1598.05,-776.669 1607.96,-772.927 1597.88,-769.672 1598.05,-776.669"/>
</g>
<!-- Node40 -->
<g id="node40" class="node"><title>Node40</title>
<g id="a_node40"><a xlink:href="tensor_8h.html" target="_top" xlink:title="Dataflow tensor object. ">
<polygon fill="white" stroke="black" points="2225,-940.5 2225,-959.5 2315,-959.5 2315,-940.5 2225,-940.5"/>
<text text-anchor="middle" x="2270" y="-947.5" font-family="Helvetica,sans-Serif" font-size="10.00">tvm/te/tensor.h</text>
</a>
</g>
</g>
<!-- Node2&#45;&gt;Node40 -->
<g id="edge133" class="edge"><title>Node2&#45;&gt;Node40</title>
<path fill="none" stroke="midnightblue" d="M2396.08,-1108.4C2379.38,-1100.74 2356.17,-1088.24 2340,-1072 2309.44,-1041.3 2287.46,-994.585 2276.96,-969.113"/>
<polygon fill="midnightblue" stroke="midnightblue" points="2280.12,-967.599 2273.17,-959.606 2273.62,-970.191 2280.12,-967.599"/>
</g>
<!-- Node43 -->
<g id="node43" class="node"><title>Node43</title>
<g id="a_node43"><a xlink:href="tir_2op_8h.html" target="_top" xlink:title="Common operators defined for Expr. ">
<polygon fill="white" stroke="black" points="1604,-884.5 1604,-903.5 1676,-903.5 1676,-884.5 1604,-884.5"/>
<text text-anchor="middle" x="1640" y="-891.5" font-family="Helvetica,sans-Serif" font-size="10.00">tvm/tir/op.h</text>
</a>
</g>
</g>
<!-- Node2&#45;&gt;Node43 -->
<g id="edge174" class="edge"><title>Node2&#45;&gt;Node43</title>
<path fill="none" stroke="midnightblue" d="M2374.41,-1108.48C2332.82,-1099.97 2267.81,-1086.14 2212,-1072 2037.6,-1027.8 1994.29,-1015.02 1823,-960 1769.75,-942.893 1708.66,-920.66 1672.26,-907.13"/>
<polygon fill="midnightblue" stroke="midnightblue" points="1673.26,-903.77 1662.67,-903.556 1670.82,-910.329 1673.26,-903.77"/>
</g>
<!-- Node44 -->
<g id="node44" class="node"><title>Node44</title>
<g id="a_node44"><a xlink:href="schedule_8h.html" target="_top" xlink:title="Define a schedule. ">
<polygon fill="white" stroke="black" points="2428.5,-1052.5 2428.5,-1071.5 2531.5,-1071.5 2531.5,-1052.5 2428.5,-1052.5"/>
<text text-anchor="middle" x="2480" y="-1059.5" font-family="Helvetica,sans-Serif" font-size="10.00">tvm/te/schedule.h</text>
</a>
</g>
</g>
<!-- Node2&#45;&gt;Node44 -->
<g id="edge159" class="edge"><title>Node2&#45;&gt;Node44</title>
<path fill="none" stroke="midnightblue" d="M2427.12,-1108.32C2436.53,-1100.26 2450.74,-1088.08 2462.07,-1078.37"/>
<polygon fill="midnightblue" stroke="midnightblue" points="2464.38,-1081 2469.69,-1071.83 2459.82,-1075.68 2464.38,-1081"/>
</g>
<!-- Node46 -->
<g id="node46" class="node"><title>Node46</title>
<g id="a_node46"><a xlink:href="buffer_8h.html" target="_top" xlink:title="Symbolic n&#45;dimensional array, to represent a memory buffer. ">
<polygon fill="white" stroke="black" points="1832.5,-940.5 1832.5,-959.5 1919.5,-959.5 1919.5,-940.5 1832.5,-940.5"/>
<text text-anchor="middle" x="1876" y="-947.5" font-family="Helvetica,sans-Serif" font-size="10.00">tvm/tir/buffer.h</text>
</a>
</g>
</g>
<!-- Node2&#45;&gt;Node46 -->
<g id="edge175" class="edge"><title>Node2&#45;&gt;Node46</title>
<path fill="none" stroke="midnightblue" d="M2389.05,-1108.42C2298.91,-1080.76 2015.75,-993.882 1913.39,-962.473"/>
<polygon fill="midnightblue" stroke="midnightblue" points="1914.37,-959.112 1903.78,-959.524 1912.31,-965.804 1914.37,-959.112"/>
</g>
<!-- Node4 -->
<g id="node4" class="node"><title>Node4</title>
<g id="a_node4"><a xlink:href="with_8h.html" target="_top" xlink:title="RAII wrapper function to enter and exit a context object similar to python&#39;s with syntax...">
<polygon fill="white" stroke="black" points="2407,-705.5 2407,-724.5 2513,-724.5 2513,-705.5 2407,-705.5"/>
<text text-anchor="middle" x="2460" y="-712.5" font-family="Helvetica,sans-Serif" font-size="10.00">tvm/support/with.h</text>
</a>
</g>
</g>
<!-- Node3&#45;&gt;Node4 -->
<g id="edge3" class="edge"><title>Node3&#45;&gt;Node4</title>
<path fill="none" stroke="midnightblue" d="M2364.45,-884.176C2374.07,-875.651 2388.28,-862.004 2398,-848 2424.01,-810.522 2444.12,-760.412 2453.75,-734.017"/>
<polygon fill="midnightblue" stroke="midnightblue" points="2457.06,-735.147 2457.12,-724.552 2450.47,-732.797 2457.06,-735.147"/>
</g>
<!-- Node7 -->
<g id="node7" class="node"><title>Node7</title>
<g id="a_node7"><a xlink:href="ir_2expr_8h.html" target="_top" xlink:title="Base expr nodes in TVM. ">
<polygon fill="white" stroke="black" points="1678.5,-705.5 1678.5,-724.5 1755.5,-724.5 1755.5,-705.5 1678.5,-705.5"/>
<text text-anchor="middle" x="1717" y="-712.5" font-family="Helvetica,sans-Serif" font-size="10.00">tvm/ir/expr.h</text>
</a>
</g>
</g>
<!-- Node3&#45;&gt;Node7 -->
<g id="edge6" class="edge"><title>Node3&#45;&gt;Node7</title>
<path fill="none" stroke="midnightblue" d="M2336.31,-884.433C2304.57,-869.304 2235.6,-837.518 2175,-817 2029.89,-767.867 1850.68,-736.398 1765.88,-723.169"/>
<polygon fill="midnightblue" stroke="midnightblue" points="1766.19,-719.675 1755.77,-721.609 1765.12,-726.593 1766.19,-719.675"/>
</g>
<!-- Node20 -->
<g id="node20" class="node"><title>Node20</title>
<polygon fill="white" stroke="#bfbfbf" points="1698.5,-179.5 1698.5,-198.5 1755.5,-198.5 1755.5,-179.5 1698.5,-179.5"/>
<text text-anchor="middle" x="1727" y="-186.5" font-family="Helvetica,sans-Serif" font-size="10.00">memory</text>
</g>
<!-- Node3&#45;&gt;Node20 -->
<g id="edge131" class="edge"><title>Node3&#45;&gt;Node20</title>
<path fill="none" stroke="midnightblue" d="M2345.79,-884.211C2323.75,-859.676 2265,-787.542 2265,-716 2265,-716 2265,-716 2265,-658 2265,-468.301 2351.56,-359.001 2208,-235 2174.79,-206.316 1874.42,-194.456 1765.89,-191.083"/>
<polygon fill="midnightblue" stroke="midnightblue" points="1765.81,-187.579 1755.71,-190.774 1765.6,-194.576 1765.81,-187.579"/>
</g>
<!-- Node3&#45;&gt;Node21 -->
<g id="edge129" class="edge"><title>Node3&#45;&gt;Node21</title>
<path fill="none" stroke="midnightblue" d="M2355.72,-884.34C2365.9,-832.568 2417.49,-563.473 2406,-481 2393.88,-394.051 2387.62,-371.239 2352,-291 2340.09,-264.174 2341.15,-251.678 2317,-235 2286.23,-213.75 2179.87,-199.538 2124.74,-193.417"/>
<polygon fill="midnightblue" stroke="midnightblue" points="2125.07,-189.933 2114.75,-192.335 2124.32,-196.892 2125.07,-189.933"/>
</g>
<!-- Node3&#45;&gt;Node22 -->
<g id="edge130" class="edge"><title>Node3&#45;&gt;Node22</title>
<path fill="none" stroke="midnightblue" d="M2410.02,-893.465C2582.06,-894.398 3094.68,-893.315 3153,-848 3180.97,-826.266 3177,-807.422 3177,-772 3177,-772 3177,-772 3177,-658 3177,-582.314 3139,-567.686 3139,-492 3139,-492 3139,-492 3139,-367 3139,-302.184 3116.14,-286.666 3077,-235 3068.33,-223.55 3056.32,-212.923 3046.03,-204.875"/>
<polygon fill="midnightblue" stroke="midnightblue" points="3048,-201.973 3037.9,-198.759 3043.79,-207.567 3048,-201.973"/>
</g>
<!-- Node27 -->
<g id="node27" class="node"><title>Node27</title>
<polygon fill="white" stroke="#bfbfbf" points="2157,-235.5 2157,-254.5 2199,-254.5 2199,-235.5 2157,-235.5"/>
<text text-anchor="middle" x="2178" y="-242.5" font-family="Helvetica,sans-Serif" font-size="10.00">limits</text>
</g>
<!-- Node3&#45;&gt;Node27 -->
<g id="edge132" class="edge"><title>Node3&#45;&gt;Node27</title>
<path fill="none" stroke="midnightblue" d="M2352.27,-884.404C2342.65,-836.891 2294.09,-601.741 2238,-414 2221.43,-358.521 2197.06,-294.473 2185.12,-263.962"/>
<polygon fill="midnightblue" stroke="midnightblue" points="2188.37,-262.66 2181.45,-254.637 2181.86,-265.224 2188.37,-262.66"/>
</g>
<!-- Node38 -->
<g id="node38" class="node"><title>Node38</title>
<g id="a_node38"><a xlink:href="int__set_8h.html" target="_top" xlink:title="Integer set. ">
<polygon fill="white" stroke="black" points="2062,-823 2062,-842 2166,-842 2166,-823 2062,-823"/>
<text text-anchor="middle" x="2114" y="-830" font-family="Helvetica,sans-Serif" font-size="10.00">tvm/arith/int_set.h</text>
</a>
</g>
</g>
<!-- Node3&#45;&gt;Node38 -->
<g id="edge113" class="edge"><title>Node3&#45;&gt;Node38</title>
<path fill="none" stroke="midnightblue" d="M2319.61,-884.475C2277.11,-873.937 2204.7,-855.986 2158.13,-844.441"/>
<polygon fill="midnightblue" stroke="midnightblue" points="2158.87,-841.018 2148.32,-842.009 2157.19,-847.813 2158.87,-841.018"/>
</g>
<!-- Node5 -->
<g id="node5" class="node"><title>Node5</title>
<polygon fill="white" stroke="#bfbfbf" points="939,-62 939,-81 1025,-81 1025,-62 939,-62"/>
<text text-anchor="middle" x="982" y="-69" font-family="Helvetica,sans-Serif" font-size="10.00">dmlc/logging.h</text>
</g>
<!-- Node4&#45;&gt;Node5 -->
<g id="edge4" class="edge"><title>Node4&#45;&gt;Node5</title>
<path fill="none" stroke="midnightblue" d="M2442.96,-705.348C2372.11,-669.383 2093.75,-528.249 1864,-414 1813.45,-388.865 1803.62,-375.639 1750,-358 1664.62,-329.916 1639,-340.281 1551,-322 1492,-309.743 1478.26,-301.943 1419,-291 1301.68,-269.337 1256.38,-314.546 1153,-255 1115.95,-233.657 1120.5,-212.557 1094,-179 1074.21,-153.944 1071.92,-145.224 1049,-123 1035.02,-109.443 1017.36,-96.2716 1003.69,-86.7809"/>
<polygon fill="midnightblue" stroke="midnightblue" points="1005.59,-83.8421 995.353,-81.1087 1001.65,-89.6288 1005.59,-83.8421"/>
</g>
<!-- Node6 -->
<g id="node6" class="node"><title>Node6</title>
<polygon fill="white" stroke="#bfbfbf" points="1488,-62 1488,-81 1530,-81 1530,-62 1488,-62"/>
<text text-anchor="middle" x="1509" y="-69" font-family="Helvetica,sans-Serif" font-size="10.00">utility</text>
</g>
<!-- Node4&#45;&gt;Node6 -->
<g id="edge5" class="edge"><title>Node4&#45;&gt;Node6</title>
<path fill="none" stroke="midnightblue" d="M2473.38,-705.469C2511.83,-680.056 2622.36,-600.412 2662,-501 2715.44,-366.995 2745.11,-252.558 2621,-179 2525.45,-122.367 1710.43,-81.8079 1540.12,-73.9059"/>
<polygon fill="midnightblue" stroke="midnightblue" points="1540.21,-70.4067 1530.06,-73.4427 1539.89,-77.3993 1540.21,-70.4067"/>
</g>
<!-- Node8 -->
<g id="node8" class="node"><title>Node8</title>
<g id="a_node8"><a xlink:href="object_8h.html" target="_top" xlink:title="A managed object in the TVM runtime. ">
<polygon fill="white" stroke="red" points="923.5,-123.5 923.5,-142.5 1040.5,-142.5 1040.5,-123.5 923.5,-123.5"/>
<text text-anchor="middle" x="982" y="-130.5" font-family="Helvetica,sans-Serif" font-size="10.00">tvm/runtime/object.h</text>
</a>
</g>
</g>
<!-- Node7&#45;&gt;Node8 -->
<g id="edge7" class="edge"><title>Node7&#45;&gt;Node8</title>
<path fill="none" stroke="midnightblue" d="M1701.61,-705.326C1645.05,-672.934 1452,-557.569 1452,-492 1452,-492 1452,-492 1452,-428.5 1452,-253.286 1239.46,-358.382 1098,-255 1055.31,-223.803 1014.79,-175.941 994.858,-150.782"/>
<polygon fill="midnightblue" stroke="midnightblue" points="997.393,-148.342 988.481,-142.613 991.876,-152.65 997.393,-148.342"/>
</g>
<!-- Node13 -->
<g id="node13" class="node"><title>Node13</title>
<polygon fill="white" stroke="#bfbfbf" points="175,-62 175,-81 243,-81 243,-62 175,-62"/>
<text text-anchor="middle" x="209" y="-69" font-family="Helvetica,sans-Serif" font-size="10.00">type_traits</text>
</g>
<!-- Node7&#45;&gt;Node13 -->
<g id="edge112" class="edge"><title>Node7&#45;&gt;Node13</title>
<path fill="none" stroke="midnightblue" d="M1678.37,-713.762C1489.56,-712.18 663.287,-700.302 424,-613 374.277,-594.859 213.808,-450.965 211,-445 152.761,-321.286 189.358,-147.832 203.866,-91.1889"/>
<polygon fill="midnightblue" stroke="midnightblue" points="207.334,-91.7624 206.511,-81.1996 200.568,-89.9702 207.334,-91.7624"/>
</g>
<!-- Node7&#45;&gt;Node14 -->
<g id="edge109" class="edge"><title>Node7&#45;&gt;Node14</title>
<path fill="none" stroke="midnightblue" d="M1755.86,-706.763C1897.88,-678.791 2397.59,-566.89 2725,-322 2779.45,-281.27 2800.97,-265.32 2816,-199 2823.47,-166.012 2827.17,-156.055 2820,-123 2817.48,-111.401 2812.06,-99.2696 2807.11,-89.805"/>
<polygon fill="midnightblue" stroke="midnightblue" points="2810.17,-88.1014 2802.27,-81.0413 2804.04,-91.4868 2810.17,-88.1014"/>
</g>
<!-- Node15 -->
<g id="node15" class="node"><title>Node15</title>
<g id="a_node15"><a xlink:href="node_8h.html" target="_top" xlink:title="Definitions and helper macros for IR/AST nodes. ">
<polygon fill="white" stroke="black" points="1022,-537.5 1022,-556.5 1120,-556.5 1120,-537.5 1022,-537.5"/>
<text text-anchor="middle" x="1071" y="-544.5" font-family="Helvetica,sans-Serif" font-size="10.00">tvm/node/node.h</text>
</a>
</g>
</g>
<!-- Node7&#45;&gt;Node15 -->
<g id="edge16" class="edge"><title>Node7&#45;&gt;Node15</title>
<path fill="none" stroke="midnightblue" d="M1678.37,-705.767C1638.19,-697.087 1573.52,-682.785 1518,-669 1366.78,-631.453 1188.35,-581.411 1110.56,-559.309"/>
<polygon fill="midnightblue" stroke="midnightblue" points="1111.28,-555.875 1100.71,-556.505 1109.37,-562.608 1111.28,-555.875"/>
</g>
<!-- Node7&#45;&gt;Node27 -->
<g id="edge111" class="edge"><title>Node7&#45;&gt;Node27</title>
<path fill="none" stroke="midnightblue" d="M1724.8,-705.378C1765.41,-660.624 1957.2,-450.73 2126,-291 2136.84,-280.743 2149.49,-269.774 2159.6,-261.233"/>
<polygon fill="midnightblue" stroke="midnightblue" points="2161.98,-263.804 2167.4,-254.699 2157.49,-258.438 2161.98,-263.804"/>
</g>
<!-- Node30 -->
<g id="node30" class="node"><title>Node30</title>
<g id="a_node30"><a xlink:href="node_2container_8h.html" target="_top" xlink:title="Array/Map container in the DSL graph. ">
<polygon fill="white" stroke="black" points="1622.5,-358.5 1622.5,-377.5 1741.5,-377.5 1741.5,-358.5 1622.5,-358.5"/>
<text text-anchor="middle" x="1682" y="-365.5" font-family="Helvetica,sans-Serif" font-size="10.00">tvm/node/container.h</text>
</a>
</g>
</g>
<!-- Node7&#45;&gt;Node30 -->
<g id="edge97" class="edge"><title>Node7&#45;&gt;Node30</title>
<path fill="none" stroke="midnightblue" d="M1720.91,-705.365C1728.83,-687.073 1746,-642.907 1746,-604 1746,-604 1746,-604 1746,-490 1746,-448.461 1716.16,-407.235 1697.23,-385.261"/>
<polygon fill="midnightblue" stroke="midnightblue" points="1699.64,-382.7 1690.37,-377.573 1694.42,-387.363 1699.64,-382.7"/>
</g>
<!-- Node35 -->
<g id="node35" class="node"><title>Node35</title>
<g id="a_node35"><a xlink:href="span_8h.html" target="_top" xlink:title="Span information for debugging purposes. ">
<polygon fill="white" stroke="black" points="1345,-593.5 1345,-612.5 1425,-612.5 1425,-593.5 1345,-593.5"/>
<text text-anchor="middle" x="1385" y="-600.5" font-family="Helvetica,sans-Serif" font-size="10.00">tvm/ir/span.h</text>
</a>
</g>
</g>
<!-- Node7&#45;&gt;Node35 -->
<g id="edge98" class="edge"><title>Node7&#45;&gt;Node35</title>
<path fill="none" stroke="midnightblue" d="M1691.22,-705.46C1632.39,-685.966 1488.1,-638.159 1420.73,-615.839"/>
<polygon fill="midnightblue" stroke="midnightblue" points="1421.58,-612.433 1410.99,-612.61 1419.38,-619.078 1421.58,-612.433"/>
</g>
<!-- Node36 -->
<g id="node36" class="node"><title>Node36</title>
<g id="a_node36"><a xlink:href="ir_2type_8h.html" target="_top" xlink:title="IR/AST nodes for the unified type system in TVM. ">
<polygon fill="white" stroke="black" points="1106.5,-649.5 1106.5,-668.5 1183.5,-668.5 1183.5,-649.5 1106.5,-649.5"/>
<text text-anchor="middle" x="1145" y="-656.5" font-family="Helvetica,sans-Serif" font-size="10.00">tvm/ir/type.h</text>
</a>
</g>
</g>
<!-- Node7&#45;&gt;Node36 -->
<g id="edge102" class="edge"><title>Node7&#45;&gt;Node36</title>
<path fill="none" stroke="midnightblue" d="M1678.45,-710.956C1594.62,-704.242 1389.47,-687.297 1218,-669 1210.14,-668.162 1201.82,-667.203 1193.71,-666.231"/>
<polygon fill="midnightblue" stroke="midnightblue" points="1193.97,-662.735 1183.62,-665 1193.12,-669.684 1193.97,-662.735"/>
</g>
<!-- Node37 -->
<g id="node37" class="node"><title>Node37</title>
<polygon fill="white" stroke="#bfbfbf" points="1227,-649.5 1227,-668.5 1289,-668.5 1289,-649.5 1227,-649.5"/>
<text text-anchor="middle" x="1258" y="-656.5" font-family="Helvetica,sans-Serif" font-size="10.00">algorithm</text>
</g>
<!-- Node7&#45;&gt;Node37 -->
<g id="edge110" class="edge"><title>Node7&#45;&gt;Node37</title>
<path fill="none" stroke="midnightblue" d="M1678.32,-710.955C1604.9,-704.917 1440.37,-690.16 1303,-669 1301.9,-668.83 1300.78,-668.652 1299.66,-668.467"/>
<polygon fill="midnightblue" stroke="midnightblue" points="1299.86,-664.95 1289.41,-666.653 1298.64,-671.842 1299.86,-664.95"/>
</g>
<!-- Node8&#45;&gt;Node5 -->
<g id="edge8" class="edge"><title>Node8&#45;&gt;Node5</title>
<path fill="none" stroke="midnightblue" d="M982,-123.475C982,-115.08 982,-101.981 982,-91.1631"/>
<polygon fill="midnightblue" stroke="midnightblue" points="985.5,-91.0091 982,-81.0091 978.5,-91.0091 985.5,-91.0091"/>
</g>
<!-- Node8&#45;&gt;Node6 -->
<g id="edge15" class="edge"><title>Node8&#45;&gt;Node6</title>
<path fill="none" stroke="midnightblue" d="M1040.67,-125.376C1152.33,-112.769 1391.92,-85.7185 1477.67,-76.0368"/>
<polygon fill="midnightblue" stroke="midnightblue" points="1478.27,-79.4922 1487.81,-74.8923 1477.48,-72.5364 1478.27,-79.4922"/>
</g>
<!-- Node9 -->
<g id="node9" class="node"><title>Node9</title>
<g id="a_node9"><a xlink:href="c__runtime__api_8h.html" target="_top" xlink:title="tvm/runtime/c_runtime\l_api.h">
<polygon fill="white" stroke="black" points="506.5,-56.5 506.5,-86.5 633.5,-86.5 633.5,-56.5 506.5,-56.5"/>
<text text-anchor="start" x="514.5" y="-74.5" font-family="Helvetica,sans-Serif" font-size="10.00">tvm/runtime/c_runtime</text>
<text text-anchor="middle" x="570" y="-63.5" font-family="Helvetica,sans-Serif" font-size="10.00">_api.h</text>
</a>
</g>
</g>
<!-- Node8&#45;&gt;Node9 -->
<g id="edge9" class="edge"><title>Node8&#45;&gt;Node9</title>
<path fill="none" stroke="midnightblue" d="M923.408,-123.538C849.906,-112.923 723.827,-94.7153 643.812,-83.1597"/>
<polygon fill="midnightblue" stroke="midnightblue" points="644.203,-79.68 633.806,-81.7147 643.203,-86.6082 644.203,-79.68"/>
</g>
<!-- Node8&#45;&gt;Node13 -->
<g id="edge13" class="edge"><title>Node8&#45;&gt;Node13</title>
<path fill="none" stroke="midnightblue" d="M923.265,-127.479C774.387,-116.019 384.742,-86.0273 253.148,-75.8982"/>
<polygon fill="midnightblue" stroke="midnightblue" points="253.273,-72.3976 243.034,-75.1197 252.736,-79.3769 253.273,-72.3976"/>
</g>
<!-- Node8&#45;&gt;Node14 -->
<g id="edge14" class="edge"><title>Node8&#45;&gt;Node14</title>
<path fill="none" stroke="midnightblue" d="M1040.59,-130.079C1324.21,-120.782 2549.74,-80.6059 2764.74,-73.5576"/>
<polygon fill="midnightblue" stroke="midnightblue" points="2764.88,-77.0551 2774.76,-73.2292 2764.65,-70.0589 2764.88,-77.0551"/>
</g>
<!-- Node10 -->
<g id="node10" class="node"><title>Node10</title>
<polygon fill="white" stroke="#bfbfbf" points="435,-0.5 435,-19.5 525,-19.5 525,-0.5 435,-0.5"/>
<text text-anchor="middle" x="480" y="-7.5" font-family="Helvetica,sans-Serif" font-size="10.00">dlpack/dlpack.h</text>
</g>
<!-- Node9&#45;&gt;Node10 -->
<g id="edge10" class="edge"><title>Node9&#45;&gt;Node10</title>
<path fill="none" stroke="midnightblue" d="M548.671,-56.3993C534.515,-47.0402 515.989,-34.7924 501.747,-25.3771"/>
<polygon fill="midnightblue" stroke="midnightblue" points="503.368,-22.2531 493.096,-19.6578 499.507,-28.0923 503.368,-22.2531"/>
</g>
<!-- Node11 -->
<g id="node11" class="node"><title>Node11</title>
<polygon fill="white" stroke="#bfbfbf" points="543.5,-0.5 543.5,-19.5 596.5,-19.5 596.5,-0.5 543.5,-0.5"/>
<text text-anchor="middle" x="570" y="-7.5" font-family="Helvetica,sans-Serif" font-size="10.00">stdint.h</text>
</g>
<!-- Node9&#45;&gt;Node11 -->
<g id="edge11" class="edge"><title>Node9&#45;&gt;Node11</title>
<path fill="none" stroke="midnightblue" d="M570,-56.3993C570,-48.4664 570,-38.458 570,-29.8583"/>
<polygon fill="midnightblue" stroke="midnightblue" points="573.5,-29.6577 570,-19.6578 566.5,-29.6578 573.5,-29.6577"/>
</g>
<!-- Node12 -->
<g id="node12" class="node"><title>Node12</title>
<polygon fill="white" stroke="#bfbfbf" points="614.5,-0.5 614.5,-19.5 669.5,-19.5 669.5,-0.5 614.5,-0.5"/>
<text text-anchor="middle" x="642" y="-7.5" font-family="Helvetica,sans-Serif" font-size="10.00">stddef.h</text>
</g>
<!-- Node9&#45;&gt;Node12 -->
<g id="edge12" class="edge"><title>Node9&#45;&gt;Node12</title>
<path fill="none" stroke="midnightblue" d="M587.063,-56.3993C598.065,-47.3076 612.365,-35.4899 623.618,-26.1909"/>
<polygon fill="midnightblue" stroke="midnightblue" points="626.044,-28.726 631.523,-19.6578 621.585,-23.33 626.044,-28.726"/>
</g>
<!-- Node15&#45;&gt;Node6 -->
<g id="edge95" class="edge"><title>Node15&#45;&gt;Node6</title>
<path fill="none" stroke="midnightblue" d="M1089.96,-537.373C1131.14,-517.403 1222.49,-465.737 1189,-414 1161.87,-372.083 1011.13,-363.917 984,-322 976.513,-310.434 976.369,-302.471 984,-291 1099.84,-116.877 1383.45,-81.3085 1477.86,-74.2185"/>
<polygon fill="midnightblue" stroke="midnightblue" points="1478.18,-77.7049 1487.91,-73.5193 1477.69,-70.7217 1478.18,-77.7049"/>
</g>
<!-- Node15&#45;&gt;Node8 -->
<g id="edge18" class="edge"><title>Node15&#45;&gt;Node8</title>
<path fill="none" stroke="midnightblue" d="M1062.7,-537.123C1036.73,-508.662 957.134,-416.041 930,-322 912.381,-260.935 903.58,-236.804 930,-179 935.777,-166.36 947.052,-155.911 957.631,-148.274"/>
<polygon fill="midnightblue" stroke="midnightblue" points="959.849,-151.001 966.217,-142.533 955.958,-145.182 959.849,-151.001"/>
</g>
<!-- Node15&#45;&gt;Node9 -->
<g id="edge17" class="edge"><title>Node15&#45;&gt;Node9</title>
<path fill="none" stroke="midnightblue" d="M1021.88,-543.338C958.298,-538.935 844.579,-527.787 751,-501 641.809,-469.743 354.804,-356.075 303,-255 257.675,-166.564 402.639,-113.18 496.442,-88.6506"/>
<polygon fill="midnightblue" stroke="midnightblue" points="497.378,-92.024 506.198,-86.1545 495.643,-85.2425 497.378,-92.024"/>
</g>
<!-- Node15&#45;&gt;Node13 -->
<g id="edge96" class="edge"><title>Node15&#45;&gt;Node13</title>
<path fill="none" stroke="midnightblue" d="M1022,-545.786C897.625,-544.692 572.472,-538.246 472,-501 335.299,-450.323 310.717,-389.725 255,-255 235.069,-206.807 231.83,-193.792 220,-143 215.965,-125.674 212.995,-105.601 211.165,-91.3155"/>
<polygon fill="midnightblue" stroke="midnightblue" points="214.625,-90.7673 209.944,-81.2625 207.676,-91.6117 214.625,-90.7673"/>
</g>
<!-- Node15&#45;&gt;Node14 -->
<g id="edge93" class="edge"><title>Node15&#45;&gt;Node14</title>
<path fill="none" stroke="midnightblue" d="M1120.08,-542.657C1289.3,-529.981 1862.31,-477.448 2306,-322 2496.9,-255.118 2707.59,-128.395 2775,-86.4049"/>
<polygon fill="midnightblue" stroke="midnightblue" points="2776.92,-89.3296 2783.54,-81.0573 2773.21,-83.396 2776.92,-89.3296"/>
</g>
<!-- Node16 -->
<g id="node16" class="node"><title>Node16</title>
<g id="a_node16"><a xlink:href="runtime_2memory_8h.html" target="_top" xlink:title="Runtime memory management. ">
<polygon fill="white" stroke="red" points="712.5,-179.5 712.5,-198.5 839.5,-198.5 839.5,-179.5 712.5,-179.5"/>
<text text-anchor="middle" x="776" y="-186.5" font-family="Helvetica,sans-Serif" font-size="10.00">tvm/runtime/memory.h</text>
</a>
</g>
</g>
<!-- Node15&#45;&gt;Node16 -->
<g id="edge19" class="edge"><title>Node15&#45;&gt;Node16</title>
<path fill="none" stroke="midnightblue" d="M1021.71,-540.709C929.066,-529.546 735.276,-499.973 702,-445 652.972,-364.003 730.249,-248.832 762.719,-206.461"/>
<polygon fill="midnightblue" stroke="midnightblue" points="765.494,-208.593 768.906,-198.563 759.984,-204.277 765.494,-208.593"/>
</g>
<!-- Node17 -->
<g id="node17" class="node"><title>Node17</title>
<g id="a_node17"><a xlink:href="reflection_8h.html" target="_top" xlink:title="Reflection and serialization of compiler IR/AST nodes. ">
<polygon fill="white" stroke="black" points="849.5,-481.5 849.5,-500.5 968.5,-500.5 968.5,-481.5 849.5,-481.5"/>
<text text-anchor="middle" x="909" y="-488.5" font-family="Helvetica,sans-Serif" font-size="10.00">tvm/node/reflection.h</text>
</a>
</g>
</g>
<!-- Node15&#45;&gt;Node17 -->
<g id="edge23" class="edge"><title>Node15&#45;&gt;Node17</title>
<path fill="none" stroke="midnightblue" d="M1045.33,-537.444C1018.08,-528.359 974.816,-513.939 944.349,-503.783"/>
<polygon fill="midnightblue" stroke="midnightblue" points="945.143,-500.358 934.549,-500.516 942.929,-506.999 945.143,-500.358"/>
</g>
<!-- Node15&#45;&gt;Node21 -->
<g id="edge94" class="edge"><title>Node15&#45;&gt;Node21</title>
<path fill="none" stroke="midnightblue" d="M1120.05,-540.723C1258.72,-524.358 1663.08,-466.598 1964,-322 2008.95,-300.402 2020.96,-292.353 2054,-255 2066.48,-240.894 2076.69,-221.909 2083.2,-208.1"/>
<polygon fill="midnightblue" stroke="midnightblue" points="2086.51,-209.271 2087.44,-198.716 2080.13,-206.392 2086.51,-209.271"/>
</g>
<!-- Node28 -->
<g id="node28" class="node"><title>Node28</title>
<g id="a_node28"><a xlink:href="structural__equal_8h.html" target="_top" xlink:title="Structural equality comparison. ">
<polygon fill="white" stroke="black" points="711.5,-414.5 711.5,-444.5 822.5,-444.5 822.5,-414.5 711.5,-414.5"/>
<text text-anchor="start" x="719.5" y="-432.5" font-family="Helvetica,sans-Serif" font-size="10.00">tvm/node/structural</text>
<text text-anchor="middle" x="767" y="-421.5" font-family="Helvetica,sans-Serif" font-size="10.00">_equal.h</text>
</a>
</g>
</g>
<!-- Node15&#45;&gt;Node28 -->
<g id="edge91" class="edge"><title>Node15&#45;&gt;Node28</title>
<path fill="none" stroke="midnightblue" d="M1021.91,-544.471C973.246,-541.164 897.799,-531.104 840,-501 817.511,-489.287 797.237,-468.463 783.795,-452.474"/>
<polygon fill="midnightblue" stroke="midnightblue" points="786.438,-450.176 777.413,-444.627 781.007,-454.593 786.438,-450.176"/>
</g>
<!-- Node15&#45;&gt;Node30 -->
<g id="edge90" class="edge"><title>Node15&#45;&gt;Node30</title>
<path fill="none" stroke="midnightblue" d="M1101.4,-537.42C1132.17,-528.638 1181.06,-514.413 1223,-501 1336.26,-464.781 1361.5,-446.076 1476,-414 1525.99,-399.997 1583.81,-387.699 1625.44,-379.515"/>
<polygon fill="midnightblue" stroke="midnightblue" points="1626.25,-382.923 1635.4,-377.575 1624.91,-376.052 1626.25,-382.923"/>
</g>
<!-- Node32 -->
<g id="node32" class="node"><title>Node32</title>
<g id="a_node32"><a xlink:href="structural__hash_8h.html" target="_top" xlink:title="tvm/node/structural\l_hash.h">
<polygon fill="white" stroke="black" points="1069.5,-414.5 1069.5,-444.5 1180.5,-444.5 1180.5,-414.5 1069.5,-414.5"/>
<text text-anchor="start" x="1077.5" y="-432.5" font-family="Helvetica,sans-Serif" font-size="10.00">tvm/node/structural</text>
<text text-anchor="middle" x="1125" y="-421.5" font-family="Helvetica,sans-Serif" font-size="10.00">_hash.h</text>
</a>
</g>
</g>
<!-- Node15&#45;&gt;Node32 -->
<g id="edge92" class="edge"><title>Node15&#45;&gt;Node32</title>
<path fill="none" stroke="midnightblue" d="M1075.06,-537.319C1083.28,-519.734 1102.14,-479.394 1114.19,-453.629"/>
<polygon fill="midnightblue" stroke="midnightblue" points="1117.37,-455.087 1118.43,-444.545 1111.03,-452.122 1117.37,-455.087"/>
</g>
<!-- Node33 -->
<g id="node33" class="node"><title>Node33</title>
<g id="a_node33"><a xlink:href="repr__printer_8h.html" target="_top" xlink:title="Printer class to print repr string of each AST/IR nodes. ">
<polygon fill="white" stroke="black" points="481,-481.5 481,-500.5 611,-500.5 611,-481.5 481,-481.5"/>
<text text-anchor="middle" x="546" y="-488.5" font-family="Helvetica,sans-Serif" font-size="10.00">tvm/node/repr_printer.h</text>
</a>
</g>
</g>
<!-- Node15&#45;&gt;Node33 -->
<g id="edge87" class="edge"><title>Node15&#45;&gt;Node33</title>
<path fill="none" stroke="midnightblue" d="M1021.81,-541.246C939.607,-533.254 769.118,-516.479 625,-501 623.726,-500.863 622.441,-500.724 621.147,-500.584"/>
<polygon fill="midnightblue" stroke="midnightblue" points="621.411,-497.092 611.09,-499.482 620.649,-504.051 621.411,-497.092"/>
</g>
<!-- Node16&#45;&gt;Node6 -->
<g id="edge21" class="edge"><title>Node16&#45;&gt;Node6</title>
<path fill="none" stroke="midnightblue" d="M789.86,-179.412C814.031,-164.917 865.917,-135.916 914,-123 1022.05,-93.9752 1370.85,-77.9953 1477.64,-73.6957"/>
<polygon fill="midnightblue" stroke="midnightblue" points="1477.91,-77.1877 1487.77,-73.294 1477.63,-70.1932 1477.91,-77.1877"/>
</g>
<!-- Node16&#45;&gt;Node8 -->
<g id="edge20" class="edge"><title>Node16&#45;&gt;Node8</title>
<path fill="none" stroke="midnightblue" d="M808.641,-179.444C844.05,-170.162 900.709,-155.309 939.553,-145.127"/>
<polygon fill="midnightblue" stroke="midnightblue" points="940.726,-148.438 949.511,-142.516 938.951,-141.667 940.726,-148.438"/>
</g>
<!-- Node16&#45;&gt;Node13 -->
<g id="edge22" class="edge"><title>Node16&#45;&gt;Node13</title>
<path fill="none" stroke="midnightblue" d="M733.846,-179.413C629.528,-158.163 360.062,-103.272 253.408,-81.5461"/>
<polygon fill="midnightblue" stroke="midnightblue" points="253.804,-78.055 243.307,-79.4885 252.407,-84.9142 253.804,-78.055"/>
</g>
<!-- Node17&#45;&gt;Node8 -->
<g id="edge25" class="edge"><title>Node17&#45;&gt;Node8</title>
<path fill="none" stroke="midnightblue" d="M904.997,-481.197C888.36,-444.431 825.122,-302.842 816,-255 814.335,-246.268 811.991,-242.934 816,-235 830.003,-207.288 909.697,-167.208 953.371,-146.875"/>
<polygon fill="midnightblue" stroke="midnightblue" points="955,-149.977 962.618,-142.614 952.071,-143.62 955,-149.977"/>
</g>
<!-- Node17&#45;&gt;Node9 -->
<g id="edge24" class="edge"><title>Node17&#45;&gt;Node9</title>
<path fill="none" stroke="midnightblue" d="M849.143,-488.555C805.153,-484.896 745.682,-474.286 702,-445 616.805,-387.881 601.757,-352.85 571,-255 553.865,-200.489 560.376,-132.21 565.721,-96.6141"/>
<polygon fill="midnightblue" stroke="midnightblue" points="569.188,-97.0956 567.315,-86.6677 562.276,-95.9879 569.188,-97.0956"/>
</g>
<!-- Node17&#45;&gt;Node13 -->
<g id="edge86" class="edge"><title>Node17&#45;&gt;Node13</title>
<path fill="none" stroke="midnightblue" d="M849.44,-487.473C782.781,-483.357 672.17,-472.647 581,-445 461.352,-408.717 427.162,-398.152 328,-322 256.066,-266.758 258.209,-229.2 230,-143 224.296,-125.569 218.383,-105.509 214.29,-91.2549"/>
<polygon fill="midnightblue" stroke="midnightblue" points="217.541,-89.8895 211.438,-81.2293 210.808,-91.8054 217.541,-89.8895"/>
</g>
<!-- Node17&#45;&gt;Node14 -->
<g id="edge85" class="edge"><title>Node17&#45;&gt;Node14</title>
<path fill="none" stroke="midnightblue" d="M968.515,-485.728C1134.92,-472.753 1618.14,-428.019 2005,-322 2096.63,-296.888 2119.12,-288.581 2208,-255 2347.7,-202.216 2373.94,-165.858 2517,-123 2604.65,-96.741 2712.06,-82.0426 2764.74,-75.9233"/>
<polygon fill="midnightblue" stroke="midnightblue" points="2765.28,-79.3843 2774.82,-74.7797 2764.49,-72.4289 2765.28,-79.3843"/>
</g>
<!-- Node17&#45;&gt;Node16 -->
<g id="edge26" class="edge"><title>Node17&#45;&gt;Node16</title>
<path fill="none" stroke="midnightblue" d="M901.725,-481.379C877.595,-452.107 800.466,-352.88 778,-255 774.484,-239.68 774.2,-221.8 774.674,-208.674"/>
<polygon fill="midnightblue" stroke="midnightblue" points="778.176,-208.722 775.222,-198.548 771.186,-208.344 778.176,-208.722"/>
</g>
<!-- Node18 -->
<g id="node18" class="node"><title>Node18</title>
<g id="a_node18"><a xlink:href="packed__func_8h.html" target="_top" xlink:title="Type&#45;erased function used across TVM API. ">
<polygon fill="white" stroke="black" points="1560.5,-291.5 1560.5,-321.5 1673.5,-321.5 1673.5,-291.5 1560.5,-291.5"/>
<text text-anchor="start" x="1568.5" y="-309.5" font-family="Helvetica,sans-Serif" font-size="10.00">tvm/runtime/packed</text>
<text text-anchor="middle" x="1617" y="-298.5" font-family="Helvetica,sans-Serif" font-size="10.00">_func.h</text>
</a>
</g>
</g>
<!-- Node17&#45;&gt;Node18 -->
<g id="edge27" class="edge"><title>Node17&#45;&gt;Node18</title>
<path fill="none" stroke="midnightblue" d="M915.332,-481.211C927.553,-464.978 956.105,-430.457 989,-414 1086.93,-365.007 1409.18,-328.079 1550.07,-313.871"/>
<polygon fill="midnightblue" stroke="midnightblue" points="1550.7,-317.325 1560.3,-312.847 1550,-310.36 1550.7,-317.325"/>
</g>
<!-- Node17&#45;&gt;Node21 -->
<g id="edge84" class="edge"><title>Node17&#45;&gt;Node21</title>
<path fill="none" stroke="midnightblue" d="M922.097,-481.481C947.527,-465.388 1005.86,-430.643 1060,-414 1177.82,-377.781 1212.91,-394.963 1335,-378 1504.52,-354.447 1550.41,-365.293 1716,-322 1753.29,-312.25 1760.54,-303.52 1797,-291 1848.86,-273.19 1863.04,-272.505 1915,-255 1965.99,-237.821 2024.46,-215.747 2059.52,-202.249"/>
<polygon fill="midnightblue" stroke="midnightblue" points="2061.13,-205.382 2069.19,-198.515 2058.6,-198.852 2061.13,-205.382"/>
</g>
<!-- Node23 -->
<g id="node23" class="node"><title>Node23</title>
<g id="a_node23"><a xlink:href="ndarray_8h.html" target="_top" xlink:title="A device&#45;independent managed NDArray abstraction. ">
<polygon fill="white" stroke="red" points="1162.5,-235.5 1162.5,-254.5 1285.5,-254.5 1285.5,-235.5 1162.5,-235.5"/>
<text text-anchor="middle" x="1224" y="-242.5" font-family="Helvetica,sans-Serif" font-size="10.00">tvm/runtime/ndarray.h</text>
</a>
</g>
</g>
<!-- Node17&#45;&gt;Node23 -->
<g id="edge57" class="edge"><title>Node17&#45;&gt;Node23</title>
<path fill="none" stroke="midnightblue" d="M911.237,-481.066C915.439,-465.789 925.768,-434.333 944,-414 1015.23,-334.566 1133.06,-281.129 1190.47,-258.395"/>
<polygon fill="midnightblue" stroke="midnightblue" points="1192.09,-261.522 1200.14,-254.633 1189.55,-254.998 1192.09,-261.522"/>
</g>
<!-- Node24 -->
<g id="node24" class="node"><title>Node24</title>
<g id="a_node24"><a xlink:href="data__type_8h.html" target="_top" xlink:title="tvm/runtime/data_type.h">
<polygon fill="white" stroke="black" points="312,-235.5 312,-254.5 448,-254.5 448,-235.5 312,-235.5"/>
<text text-anchor="middle" x="380" y="-242.5" font-family="Helvetica,sans-Serif" font-size="10.00">tvm/runtime/data_type.h</text>
</a>
</g>
</g>
<!-- Node17&#45;&gt;Node24 -->
<g id="edge58" class="edge"><title>Node17&#45;&gt;Node24</title>
<path fill="none" stroke="midnightblue" d="M849.418,-482.632C800.301,-475.658 729.181,-463.475 669,-445 597.645,-423.095 580.533,-413.732 515,-378 475.606,-356.521 462.775,-353.679 431,-322 413.481,-304.534 398.408,-280.203 389.285,-263.817"/>
<polygon fill="midnightblue" stroke="midnightblue" points="392.235,-261.912 384.406,-254.774 386.074,-265.236 392.235,-261.912"/>
</g>
<!-- Node17&#45;&gt;Node28 -->
<g id="edge59" class="edge"><title>Node17&#45;&gt;Node28</title>
<path fill="none" stroke="midnightblue" d="M888.655,-481.475C868.165,-472.889 835.93,-459.383 809.789,-448.429"/>
<polygon fill="midnightblue" stroke="midnightblue" points="811.042,-445.16 800.467,-444.523 808.337,-451.616 811.042,-445.16"/>
</g>
<!-- Node17&#45;&gt;Node32 -->
<g id="edge78" class="edge"><title>Node17&#45;&gt;Node32</title>
<path fill="none" stroke="midnightblue" d="M939.948,-481.475C972.278,-472.569 1023.83,-458.369 1064.32,-447.215"/>
<polygon fill="midnightblue" stroke="midnightblue" points="1065.38,-450.553 1074.09,-444.523 1063.52,-443.804 1065.38,-450.553"/>
</g>
<!-- Node18&#45;&gt;Node5 -->
<g id="edge28" class="edge"><title>Node18&#45;&gt;Node5</title>
<path fill="none" stroke="midnightblue" d="M1578.71,-291.45C1463.76,-249.273 1123.01,-124.24 1015.14,-84.6592"/>
<polygon fill="midnightblue" stroke="midnightblue" points="1016.03,-81.2602 1005.44,-81.1012 1013.62,-87.8317 1016.03,-81.2602"/>
</g>
<!-- Node18&#45;&gt;Node6 -->
<g id="edge55" class="edge"><title>Node18&#45;&gt;Node6</title>
<path fill="none" stroke="midnightblue" d="M1598.71,-291.324C1587.84,-282.039 1574.55,-269.052 1566,-255 1557.27,-240.652 1526.72,-134.931 1514.31,-91.2751"/>
<polygon fill="midnightblue" stroke="midnightblue" points="1517.6,-90.0528 1511.5,-81.3867 1510.86,-91.9622 1517.6,-90.0528"/>
</g>
<!-- Node18&#45;&gt;Node8 -->
<g id="edge48" class="edge"><title>Node18&#45;&gt;Node8</title>
<path fill="none" stroke="midnightblue" d="M1570.28,-291.409C1521.63,-276.85 1443.16,-253.681 1375,-235 1249.12,-200.497 1099.58,-163.03 1026.58,-144.964"/>
<polygon fill="midnightblue" stroke="midnightblue" points="1027.34,-141.548 1016.8,-142.546 1025.66,-148.343 1027.34,-141.548"/>
</g>
<!-- Node18&#45;&gt;Node9 -->
<g id="edge29" class="edge"><title>Node18&#45;&gt;Node9</title>
<path fill="none" stroke="midnightblue" d="M1560.38,-302.898C1472.41,-298.06 1297.96,-285.274 1153,-255 948.242,-212.236 712.947,-127.043 615.7,-90.1791"/>
<polygon fill="midnightblue" stroke="midnightblue" points="616.767,-86.8403 606.176,-86.5556 614.278,-93.3828 616.767,-86.8403"/>
</g>
<!-- Node18&#45;&gt;Node13 -->
<g id="edge56" class="edge"><title>Node18&#45;&gt;Node13</title>
<path fill="none" stroke="midnightblue" d="M1560.48,-301.414C1460.95,-293.97 1248,-276.921 1069,-255 793.665,-221.28 723.728,-211.787 455,-143 380.664,-123.972 294.659,-98.5291 246.566,-83.9884"/>
<polygon fill="midnightblue" stroke="midnightblue" points="247.482,-80.6089 236.897,-81.0573 245.451,-87.3079 247.482,-80.6089"/>
</g>
<!-- Node18&#45;&gt;Node14 -->
<g id="edge52" class="edge"><title>Node18&#45;&gt;Node14</title>
<path fill="none" stroke="midnightblue" d="M1673.87,-293.651C1720.67,-283.278 1782.78,-267.892 1805,-255 1876.49,-213.515 1860.66,-156.996 1936,-123 2012.56,-88.4513 2616.38,-75.6697 2764.35,-73.0396"/>
<polygon fill="midnightblue" stroke="midnightblue" points="2764.65,-76.535 2774.59,-72.861 2764.53,-69.5361 2764.65,-76.535"/>
</g>
<!-- Node19 -->
<g id="node19" class="node"><title>Node19</title>
<g id="a_node19"><a xlink:href="runtime_2module_8h.html" target="_top" xlink:title="Runtime container of the functions generated by TVM, This is used to support dynamically link...">
<polygon fill="white" stroke="red" points="1575,-235.5 1575,-254.5 1699,-254.5 1699,-235.5 1575,-235.5"/>
<text text-anchor="middle" x="1637" y="-242.5" font-family="Helvetica,sans-Serif" font-size="10.00">tvm/runtime/module.h</text>
</a>
</g>
</g>
<!-- Node18&#45;&gt;Node19 -->
<g id="edge30" class="edge"><title>Node18&#45;&gt;Node19</title>
<path fill="none" stroke="midnightblue" d="M1615.9,-291.399C1617.62,-283.11 1621.04,-272.554 1624.82,-263.708"/>
<polygon fill="midnightblue" stroke="midnightblue" points="1627.99,-265.187 1629.16,-254.658 1621.68,-262.158 1627.99,-265.187"/>
</g>
<!-- Node18&#45;&gt;Node20 -->
<g id="edge54" class="edge"><title>Node18&#45;&gt;Node20</title>
<path fill="none" stroke="midnightblue" d="M1657.14,-291.399C1675,-283.276 1694.91,-271.372 1708,-255 1718.66,-241.666 1723.34,-222.549 1725.39,-208.498"/>
<polygon fill="midnightblue" stroke="midnightblue" points="1728.87,-208.857 1726.54,-198.523 1721.92,-208.056 1728.87,-208.857"/>
</g>
<!-- Node18&#45;&gt;Node21 -->
<g id="edge51" class="edge"><title>Node18&#45;&gt;Node21</title>
<path fill="none" stroke="midnightblue" d="M1673.68,-293.079C1718.6,-283.12 1782.92,-268.608 1839,-255 1917.54,-235.942 2009.36,-211.782 2057.55,-198.955"/>
<polygon fill="midnightblue" stroke="midnightblue" points="2058.67,-202.278 2067.43,-196.321 2056.87,-195.515 2058.67,-202.278"/>
</g>
<!-- Node18&#45;&gt;Node23 -->
<g id="edge39" class="edge"><title>Node18&#45;&gt;Node23</title>
<path fill="none" stroke="midnightblue" d="M1560.27,-296.912C1488.77,-286.086 1366.06,-267.508 1290.3,-256.038"/>
<polygon fill="midnightblue" stroke="midnightblue" points="1290.8,-252.574 1280.39,-254.537 1289.75,-259.495 1290.8,-252.574"/>
</g>
<!-- Node18&#45;&gt;Node24 -->
<g id="edge44" class="edge"><title>Node18&#45;&gt;Node24</title>
<path fill="none" stroke="midnightblue" d="M1560.23,-302.769C1360.35,-293.155 688.888,-260.858 458.425,-249.772"/>
<polygon fill="midnightblue" stroke="midnightblue" points="458.271,-246.261 448.115,-249.276 457.935,-253.253 458.271,-246.261"/>
</g>
<!-- Node25 -->
<g id="node25" class="node"><title>Node25</title>
<polygon fill="white" stroke="#bfbfbf" points="1303.5,-235.5 1303.5,-254.5 1366.5,-254.5 1366.5,-235.5 1303.5,-235.5"/>
<text text-anchor="middle" x="1335" y="-242.5" font-family="Helvetica,sans-Serif" font-size="10.00">functional</text>
</g>
<!-- Node18&#45;&gt;Node25 -->
<g id="edge49" class="edge"><title>Node18&#45;&gt;Node25</title>
<path fill="none" stroke="midnightblue" d="M1560.27,-293.531C1505.92,-282.062 1425.17,-265.024 1376.55,-254.767"/>
<polygon fill="midnightblue" stroke="midnightblue" points="1377.19,-251.325 1366.68,-252.685 1375.75,-258.174 1377.19,-251.325"/>
</g>
<!-- Node26 -->
<g id="node26" class="node"><title>Node26</title>
<polygon fill="white" stroke="#bfbfbf" points="1755.5,-235.5 1755.5,-254.5 1796.5,-254.5 1796.5,-235.5 1755.5,-235.5"/>
<text text-anchor="middle" x="1776" y="-242.5" font-family="Helvetica,sans-Serif" font-size="10.00">tuple</text>
</g>
<!-- Node18&#45;&gt;Node26 -->
<g id="edge50" class="edge"><title>Node18&#45;&gt;Node26</title>
<path fill="none" stroke="midnightblue" d="M1654.68,-291.399C1682.41,-281.024 1719.62,-267.098 1745.49,-257.417"/>
<polygon fill="midnightblue" stroke="midnightblue" points="1747.01,-260.587 1755.14,-253.804 1744.55,-254.031 1747.01,-260.587"/>
</g>
<!-- Node18&#45;&gt;Node27 -->
<g id="edge53" class="edge"><title>Node18&#45;&gt;Node27</title>
<path fill="none" stroke="midnightblue" d="M1673.62,-299.495C1790.58,-287.09 2055.53,-258.989 2146.58,-249.332"/>
<polygon fill="midnightblue" stroke="midnightblue" points="2147.23,-252.784 2156.8,-248.248 2146.49,-245.823 2147.23,-252.784"/>
</g>
<!-- Node19&#45;&gt;Node8 -->
<g id="edge32" class="edge"><title>Node19&#45;&gt;Node8</title>
<path fill="none" stroke="midnightblue" d="M1587.83,-235.473C1515.42,-222.941 1375.82,-198.884 1257,-179 1184.23,-166.823 1100.57,-153.184 1044.81,-144.147"/>
<polygon fill="midnightblue" stroke="midnightblue" points="1045.17,-140.658 1034.74,-142.514 1044.05,-147.568 1045.17,-140.658"/>
</g>
<!-- Node19&#45;&gt;Node9 -->
<g id="edge31" class="edge"><title>Node19&#45;&gt;Node9</title>
<path fill="none" stroke="midnightblue" d="M1604.65,-235.483C1520.06,-213.518 1285.04,-154.48 1086,-123 929.563,-98.2575 744.403,-83.6702 643.909,-76.967"/>
<polygon fill="midnightblue" stroke="midnightblue" points="644.068,-73.47 633.859,-76.3042 643.607,-80.4548 644.068,-73.47"/>
</g>
<!-- Node19&#45;&gt;Node14 -->
<g id="edge36" class="edge"><title>Node19&#45;&gt;Node14</title>
<path fill="none" stroke="midnightblue" d="M1642.05,-235.352C1650.35,-221.787 1668.05,-195.37 1689,-179 1736.02,-142.27 1753.06,-137.225 1811,-123 1997.96,-77.0992 2615.97,-72.8688 2764.63,-72.5213"/>
<polygon fill="midnightblue" stroke="midnightblue" points="2764.9,-76.0209 2774.9,-72.5019 2764.89,-69.0209 2764.9,-76.0209"/>
</g>
<!-- Node19&#45;&gt;Node16 -->
<g id="edge33" class="edge"><title>Node19&#45;&gt;Node16</title>
<path fill="none" stroke="midnightblue" d="M1574.73,-240.095C1419.61,-230.365 1016.43,-205.079 849.766,-194.626"/>
<polygon fill="midnightblue" stroke="midnightblue" points="849.813,-191.123 839.613,-193.99 849.374,-198.109 849.813,-191.123"/>
</g>
<!-- Node19&#45;&gt;Node18 -->
<g id="edge38" class="edge"><title>Node19&#45;&gt;Node18</title>
<path fill="none" stroke="midnightblue" d="M1639.02,-254.658C1638.15,-261.805 1635.19,-272.297 1631.55,-281.897"/>
<polygon fill="midnightblue" stroke="midnightblue" points="1628.21,-280.823 1627.58,-291.399 1634.67,-283.524 1628.21,-280.823"/>
</g>
<!-- Node19&#45;&gt;Node20 -->
<g id="edge34" class="edge"><title>Node19&#45;&gt;Node20</title>
<path fill="none" stroke="midnightblue" d="M1651.46,-235.324C1665.5,-226.9 1687.05,-213.971 1703.54,-204.074"/>
<polygon fill="midnightblue" stroke="midnightblue" points="1705.8,-206.801 1712.58,-198.655 1702.2,-200.798 1705.8,-206.801"/>
</g>
<!-- Node19&#45;&gt;Node21 -->
<g id="edge35" class="edge"><title>Node19&#45;&gt;Node21</title>
<path fill="none" stroke="midnightblue" d="M1699.17,-236.605C1796.39,-225.042 1981.11,-203.07 2057.08,-194.035"/>
<polygon fill="midnightblue" stroke="midnightblue" points="2057.96,-197.455 2067.47,-192.798 2057.13,-190.504 2057.96,-197.455"/>
</g>
<!-- Node19&#45;&gt;Node22 -->
<g id="edge37" class="edge"><title>Node19&#45;&gt;Node22</title>
<path fill="none" stroke="midnightblue" d="M1699.22,-238.353C1714.5,-237.106 1730.84,-235.892 1746,-235 2217.87,-207.233 2788.76,-194.539 2968.21,-191.042"/>
<polygon fill="midnightblue" stroke="midnightblue" points="2968.29,-194.541 2978.22,-190.849 2968.15,-187.542 2968.29,-194.541"/>
</g>
<!-- Node23&#45;&gt;Node6 -->
<g id="edge43" class="edge"><title>Node23&#45;&gt;Node6</title>
<path fill="none" stroke="midnightblue" d="M1237.68,-235.403C1275.86,-211.421 1383.15,-144.168 1419,-123 1440.94,-110.046 1466.28,-95.9 1484.47,-85.8841"/>
<polygon fill="midnightblue" stroke="midnightblue" points="1486.19,-88.9313 1493.27,-81.0511 1482.82,-82.7949 1486.19,-88.9313"/>
</g>
<!-- Node23&#45;&gt;Node8 -->
<g id="edge41" class="edge"><title>Node23&#45;&gt;Node8</title>
<path fill="none" stroke="midnightblue" d="M1210.73,-235.381C1189.89,-222.087 1147.93,-196.31 1110,-179 1080.87,-165.704 1046.58,-153.839 1020.82,-145.635"/>
<polygon fill="midnightblue" stroke="midnightblue" points="1021.64,-142.223 1011.05,-142.566 1019.54,-148.901 1021.64,-142.223"/>
</g>
<!-- Node23&#45;&gt;Node9 -->
<g id="edge40" class="edge"><title>Node23&#45;&gt;Node9</title>
<path fill="none" stroke="midnightblue" d="M1215.54,-235.374C1191.89,-211.91 1121.96,-147.083 1049,-123 975.678,-98.7961 758.869,-83.2327 643.751,-76.4392"/>
<polygon fill="midnightblue" stroke="midnightblue" points="643.8,-72.9362 633.613,-75.8481 643.392,-79.9243 643.8,-72.9362"/>
</g>
<!-- Node23&#45;&gt;Node21 -->
<g id="edge42" class="edge"><title>Node23&#45;&gt;Node21</title>
<path fill="none" stroke="midnightblue" d="M1285.81,-235.81C1288.58,-235.52 1291.32,-235.248 1294,-235 1589.15,-207.729 1947.43,-194.616 2057.34,-191.039"/>
<polygon fill="midnightblue" stroke="midnightblue" points="2057.6,-194.533 2067.48,-190.713 2057.38,-187.536 2057.6,-194.533"/>
</g>
<!-- Node24&#45;&gt;Node5 -->
<g id="edge46" class="edge"><title>Node24&#45;&gt;Node5</title>
<path fill="none" stroke="midnightblue" d="M391.541,-235.394C409.692,-222.118 446.32,-196.364 480,-179 540.3,-147.913 556.395,-140.277 622,-123 728.888,-94.851 858.017,-81.5815 928.929,-76.0071"/>
<polygon fill="midnightblue" stroke="midnightblue" points="929.255,-79.4924 938.959,-75.2396 928.721,-72.5128 929.255,-79.4924"/>
</g>
<!-- Node24&#45;&gt;Node9 -->
<g id="edge45" class="edge"><title>Node24&#45;&gt;Node9</title>
<path fill="none" stroke="midnightblue" d="M387.725,-235.282C399.17,-222.514 421.489,-198.165 442,-179 475.736,-147.478 517.199,-113.835 543.616,-92.9866"/>
<polygon fill="midnightblue" stroke="midnightblue" points="545.935,-95.6163 551.636,-86.6863 541.61,-90.1118 545.935,-95.6163"/>
</g>
<!-- Node24&#45;&gt;Node13 -->
<g id="edge47" class="edge"><title>Node24&#45;&gt;Node13</title>
<path fill="none" stroke="midnightblue" d="M354.134,-235.356C334.843,-227.957 308.704,-215.822 290,-199 254.908,-167.441 228.951,-117.282 216.751,-90.5939"/>
<polygon fill="midnightblue" stroke="midnightblue" points="219.885,-89.0267 212.631,-81.3049 213.486,-91.8651 219.885,-89.0267"/>
</g>
<!-- Node28&#45;&gt;Node14 -->
<g id="edge77" class="edge"><title>Node28&#45;&gt;Node14</title>
<path fill="none" stroke="midnightblue" d="M822.586,-421.224C924.229,-408.003 1146.92,-379.426 1335,-358 1489.05,-340.45 1540.51,-385.411 1682,-322 1700.66,-313.637 1698.24,-301.141 1716,-291 1763.24,-264.019 1782.74,-275.834 1833,-255 1948.71,-207.035 1961.59,-157.493 2082,-123 2212.93,-85.4944 2642.7,-75.206 2764.54,-73.0115"/>
<polygon fill="midnightblue" stroke="midnightblue" points="2764.78,-76.508 2774.71,-72.8343 2764.66,-69.509 2764.78,-76.508"/>
</g>
<!-- Node28&#45;&gt;Node24 -->
<g id="edge60" class="edge"><title>Node28&#45;&gt;Node24</title>
<path fill="none" stroke="midnightblue" d="M715.489,-414.472C656.446,-397.258 557.805,-364.98 480,-322 448.409,-304.549 415.868,-277.896 396.81,-261.234"/>
<polygon fill="midnightblue" stroke="midnightblue" points="399.085,-258.573 389.281,-254.555 394.439,-263.81 399.085,-258.573"/>
</g>
<!-- Node29 -->
<g id="node29" class="node"><title>Node29</title>
<g id="a_node29"><a xlink:href="functor_8h.html" target="_top" xlink:title="Defines the Functor data structures. ">
<polygon fill="white" stroke="black" points="580.5,-235.5 580.5,-254.5 687.5,-254.5 687.5,-235.5 580.5,-235.5"/>
<text text-anchor="middle" x="634" y="-242.5" font-family="Helvetica,sans-Serif" font-size="10.00">tvm/node/functor.h</text>
</a>
</g>
</g>
<!-- Node28&#45;&gt;Node29 -->
<g id="edge61" class="edge"><title>Node28&#45;&gt;Node29</title>
<path fill="none" stroke="midnightblue" d="M756.785,-414.483C732.774,-381.536 672.807,-299.25 646.595,-263.283"/>
<polygon fill="midnightblue" stroke="midnightblue" points="649.145,-260.839 640.427,-254.819 643.488,-264.962 649.145,-260.839"/>
</g>
<!-- Node28&#45;&gt;Node30 -->
<g id="edge67" class="edge"><title>Node28&#45;&gt;Node30</title>
<path fill="none" stroke="midnightblue" d="M822.518,-424.89C981.298,-414.565 1437.09,-384.926 1612.26,-373.535"/>
<polygon fill="midnightblue" stroke="midnightblue" points="1612.64,-377.018 1622.39,-372.876 1612.19,-370.032 1612.64,-377.018"/>
</g>
<!-- Node29&#45;&gt;Node5 -->
<g id="edge62" class="edge"><title>Node29&#45;&gt;Node5</title>
<path fill="none" stroke="midnightblue" d="M622.16,-235.437C606.856,-223.253 583.363,-200.051 594,-179 612.923,-141.552 631.318,-139.252 670,-123 755.777,-86.9614 864.801,-76.5084 928.646,-73.5582"/>
<polygon fill="midnightblue" stroke="midnightblue" points="929.032,-77.0452 938.877,-73.1321 928.74,-70.0513 929.032,-77.0452"/>
</g>
<!-- Node29&#45;&gt;Node6 -->
<g id="edge66" class="edge"><title>Node29&#45;&gt;Node6</title>
<path fill="none" stroke="midnightblue" d="M636.683,-235.449C641.488,-221.532 652.888,-194.029 672,-179 740.198,-125.372 773.711,-138.895 859,-123 1093.91,-79.2211 1383.42,-73.3044 1477.72,-72.5755"/>
<polygon fill="midnightblue" stroke="midnightblue" points="1477.77,-76.0754 1487.74,-72.5124 1477.72,-69.0755 1477.77,-76.0754"/>
</g>
<!-- Node29&#45;&gt;Node8 -->
<g id="edge63" class="edge"><title>Node29&#45;&gt;Node8</title>
<path fill="none" stroke="midnightblue" d="M640.496,-235.112C651.558,-220.711 675.54,-192.527 703,-179 769.432,-146.274 854.515,-136.495 913.163,-133.981"/>
<polygon fill="midnightblue" stroke="midnightblue" points="913.567,-137.468 923.431,-133.603 913.309,-130.473 913.567,-137.468"/>
</g>
<!-- Node29&#45;&gt;Node13 -->
<g id="edge65" class="edge"><title>Node29&#45;&gt;Node13</title>
<path fill="none" stroke="midnightblue" d="M609.782,-235.44C562.544,-218.618 454.943,-179.689 366,-143 320.14,-124.083 267.727,-100.049 236.551,-85.4928"/>
<polygon fill="midnightblue" stroke="midnightblue" points="237.751,-82.1899 227.211,-81.1182 234.782,-88.5292 237.751,-82.1899"/>
</g>
<!-- Node29&#45;&gt;Node21 -->
<g id="edge64" class="edge"><title>Node29&#45;&gt;Node21</title>
<path fill="none" stroke="midnightblue" d="M687.583,-242.014C923.524,-233.27 1866.58,-198.318 2057.28,-191.25"/>
<polygon fill="midnightblue" stroke="midnightblue" points="2057.41,-194.747 2067.28,-190.879 2057.15,-187.752 2057.41,-194.747"/>
</g>
<!-- Node30&#45;&gt;Node6 -->
<g id="edge75" class="edge"><title>Node30&#45;&gt;Node6</title>
<path fill="none" stroke="midnightblue" d="M1622.5,-360.201C1596.89,-354.217 1568.81,-343 1551,-322 1493.24,-253.891 1500.73,-136.606 1506.26,-91.2061"/>
<polygon fill="midnightblue" stroke="midnightblue" points="1509.76,-91.4396 1507.62,-81.064 1502.83,-90.5121 1509.76,-91.4396"/>
</g>
<!-- Node30&#45;&gt;Node8 -->
<g id="edge68" class="edge"><title>Node30&#45;&gt;Node8</title>
<path fill="none" stroke="midnightblue" d="M1643.68,-358.478C1565.76,-341.186 1391.14,-302.636 1331,-291 1237.6,-272.93 1199.14,-307.789 1120,-255 1086.76,-232.832 1101.62,-205.807 1072,-179 1056.26,-164.758 1035.19,-153.898 1017.39,-146.418"/>
<polygon fill="midnightblue" stroke="midnightblue" points="1018.48,-143.084 1007.9,-142.611 1015.88,-149.581 1018.48,-143.084"/>
</g>
<!-- Node30&#45;&gt;Node13 -->
<g id="edge71" class="edge"><title>Node30&#45;&gt;Node13</title>
<path fill="none" stroke="midnightblue" d="M1622.4,-367.562C1454.13,-367.759 962.164,-358.72 571,-255 452.138,-223.483 426.184,-201.462 318,-143 285.905,-125.656 250.817,-102.058 229.354,-87.0495"/>
<polygon fill="midnightblue" stroke="midnightblue" points="231.228,-84.0882 221.038,-81.1865 227.194,-89.8093 231.228,-84.0882"/>
</g>
<!-- Node30&#45;&gt;Node14 -->
<g id="edge76" class="edge"><title>Node30&#45;&gt;Node14</title>
<path fill="none" stroke="midnightblue" d="M1741.83,-362.587C1785.46,-357.419 1844.92,-346.223 1892,-322 1910.18,-312.644 1910.65,-304.506 1926,-291 1983.77,-240.184 1990.22,-215.413 2058,-179 2136.68,-136.729 2163.25,-139.632 2251,-123 2443.84,-86.449 2680.23,-76.0166 2764.93,-73.3404"/>
<polygon fill="midnightblue" stroke="midnightblue" points="2765.06,-76.8382 2774.95,-73.0382 2764.84,-69.8414 2765.06,-76.8382"/>
</g>
<!-- Node30&#45;&gt;Node16 -->
<g id="edge69" class="edge"><title>Node30&#45;&gt;Node16</title>
<path fill="none" stroke="midnightblue" d="M1626.3,-358.455C1515.16,-341.133 1258.11,-299.71 1044,-255 963.816,-238.256 871.103,-214.86 818.425,-201.182"/>
<polygon fill="midnightblue" stroke="midnightblue" points="818.998,-197.714 808.438,-198.581 817.233,-204.488 818.998,-197.714"/>
</g>
<!-- Node30&#45;&gt;Node18 -->
<g id="edge70" class="edge"><title>Node30&#45;&gt;Node18</title>
<path fill="none" stroke="midnightblue" d="M1672.69,-358.475C1664.13,-350.643 1651.1,-338.714 1639.79,-328.366"/>
<polygon fill="midnightblue" stroke="midnightblue" points="1642.06,-325.693 1632.32,-321.523 1637.33,-330.857 1642.06,-325.693"/>
</g>
<!-- Node30&#45;&gt;Node21 -->
<g id="edge72" class="edge"><title>Node30&#45;&gt;Node21</title>
<path fill="none" stroke="midnightblue" d="M1741.74,-362.583C1792.28,-357.312 1865.89,-345.979 1926,-322 1927.59,-321.368 2027.69,-256.09 2029,-255 2047.08,-239.986 2065.37,-220.121 2077.34,-206.32"/>
<polygon fill="midnightblue" stroke="midnightblue" points="2080.1,-208.487 2083.93,-198.609 2074.77,-203.941 2080.1,-208.487"/>
</g>
<!-- Node30&#45;&gt;Node22 -->
<g id="edge74" class="edge"><title>Node30&#45;&gt;Node22</title>
<path fill="none" stroke="midnightblue" d="M1741.71,-362.414C1799.57,-356.825 1889.28,-345.109 1964,-322 2050.42,-295.271 2060.28,-257.07 2148,-235 2304.13,-195.72 2799.57,-190.624 2968.18,-190.043"/>
<polygon fill="midnightblue" stroke="midnightblue" points="2968.34,-193.543 2978.33,-190.012 2968.32,-186.543 2968.34,-193.543"/>
</g>
<!-- Node31 -->
<g id="node31" class="node"><title>Node31</title>
<polygon fill="white" stroke="#bfbfbf" points="1806.5,-297 1806.5,-316 1883.5,-316 1883.5,-297 1806.5,-297"/>
<text text-anchor="middle" x="1845" y="-304" font-family="Helvetica,sans-Serif" font-size="10.00">initializer_list</text>
</g>
<!-- Node30&#45;&gt;Node31 -->
<g id="edge73" class="edge"><title>Node30&#45;&gt;Node31</title>
<path fill="none" stroke="midnightblue" d="M1705.35,-358.475C1733.31,-348.269 1780.33,-331.108 1811.99,-319.549"/>
<polygon fill="midnightblue" stroke="midnightblue" points="1813.5,-322.726 1821.69,-316.009 1811.1,-316.15 1813.5,-322.726"/>
</g>
<!-- Node32&#45;&gt;Node14 -->
<g id="edge82" class="edge"><title>Node32&#45;&gt;Node14</title>
<path fill="none" stroke="midnightblue" d="M1180.78,-421.991C1286.54,-408.872 1522.93,-375.83 1716,-322 1753.13,-311.648 1760.54,-303.52 1797,-291 1848.86,-273.19 1865.79,-279.187 1915,-255 1967.35,-229.269 1971.59,-208.343 2022,-179 2072.87,-149.394 2085.07,-137.948 2142,-123 2261.82,-91.5363 2649.96,-77.1066 2764.75,-73.4585"/>
<polygon fill="midnightblue" stroke="midnightblue" points="2765.1,-76.9494 2774.98,-73.1389 2764.88,-69.9528 2765.1,-76.9494"/>
</g>
<!-- Node32&#45;&gt;Node24 -->
<g id="edge79" class="edge"><title>Node32&#45;&gt;Node24</title>
<path fill="none" stroke="midnightblue" d="M1069.35,-420.037C971.984,-404.635 764.832,-369.204 594,-322 527.296,-303.568 451.458,-274.683 410.37,-258.344"/>
<polygon fill="midnightblue" stroke="midnightblue" points="411.525,-255.037 400.94,-254.572 408.925,-261.536 411.525,-255.037"/>
</g>
<!-- Node32&#45;&gt;Node25 -->
<g id="edge83" class="edge"><title>Node32&#45;&gt;Node25</title>
<path fill="none" stroke="midnightblue" d="M1141.13,-414.483C1179.69,-380.975 1276.97,-296.434 1317.18,-261.487"/>
<polygon fill="midnightblue" stroke="midnightblue" points="1319.6,-264.02 1324.85,-254.819 1315.01,-258.737 1319.6,-264.02"/>
</g>
<!-- Node32&#45;&gt;Node29 -->
<g id="edge80" class="edge"><title>Node32&#45;&gt;Node29</title>
<path fill="none" stroke="midnightblue" d="M1087.29,-414.483C993.986,-379.803 753.609,-290.458 666.302,-258.006"/>
<polygon fill="midnightblue" stroke="midnightblue" points="667.499,-254.718 656.907,-254.514 665.061,-261.279 667.499,-254.718"/>
</g>
<!-- Node32&#45;&gt;Node30 -->
<g id="edge81" class="edge"><title>Node32&#45;&gt;Node30</title>
<path fill="none" stroke="midnightblue" d="M1180.7,-422.55C1282.9,-411.633 1500.12,-388.429 1612.07,-376.47"/>
<polygon fill="midnightblue" stroke="midnightblue" points="1612.67,-379.926 1622.24,-375.384 1611.92,-372.966 1612.67,-379.926"/>
</g>
<!-- Node33&#45;&gt;Node29 -->
<g id="edge88" class="edge"><title>Node33&#45;&gt;Node29</title>
<path fill="none" stroke="midnightblue" d="M549.132,-481.316C561.856,-446.036 609.835,-313.002 627.457,-264.143"/>
<polygon fill="midnightblue" stroke="midnightblue" points="630.805,-265.174 630.906,-254.58 624.22,-262.799 630.805,-265.174"/>
</g>
<!-- Node34 -->
<g id="node34" class="node"><title>Node34</title>
<polygon fill="white" stroke="#bfbfbf" points="405.5,-420 405.5,-439 464.5,-439 464.5,-420 405.5,-420"/>
<text text-anchor="middle" x="435" y="-427" font-family="Helvetica,sans-Serif" font-size="10.00">iostream</text>
</g>
<!-- Node33&#45;&gt;Node34 -->
<g id="edge89" class="edge"><title>Node33&#45;&gt;Node34</title>
<path fill="none" stroke="midnightblue" d="M530.096,-481.475C511.715,-471.622 481.244,-455.288 459.755,-443.77"/>
<polygon fill="midnightblue" stroke="midnightblue" points="461.341,-440.649 450.874,-439.009 458.034,-446.818 461.341,-440.649"/>
</g>
<!-- Node35&#45;&gt;Node8 -->
<g id="edge99" class="edge"><title>Node35&#45;&gt;Node8</title>
<path fill="none" stroke="midnightblue" d="M1381.49,-593.325C1374.4,-574.959 1359,-530.658 1359,-492 1359,-492 1359,-492 1359,-428.5 1359,-324.978 1236.26,-387.388 1137,-358 1079.1,-340.859 1045.58,-367.601 1006,-322 963.978,-273.581 972.02,-189.961 978.26,-152.771"/>
<polygon fill="midnightblue" stroke="midnightblue" points="981.726,-153.277 980.082,-142.811 974.84,-152.018 981.726,-153.277"/>
</g>
<!-- Node35&#45;&gt;Node14 -->
<g id="edge101" class="edge"><title>Node35&#45;&gt;Node14</title>
<path fill="none" stroke="midnightblue" d="M1425.1,-597.968C1632.88,-576.231 2584.74,-466.097 2773,-255 2814.27,-208.73 2806.77,-127.779 2800.72,-91.2846"/>
<polygon fill="midnightblue" stroke="midnightblue" points="2804.1,-90.3118 2798.87,-81.0982 2797.21,-91.5627 2804.1,-90.3118"/>
</g>
<!-- Node35&#45;&gt;Node15 -->
<g id="edge100" class="edge"><title>Node35&#45;&gt;Node15</title>
<path fill="none" stroke="midnightblue" d="M1344.91,-595.106C1290.57,-585.76 1193.11,-568.999 1130.29,-558.196"/>
<polygon fill="midnightblue" stroke="midnightblue" points="1130.58,-554.695 1120.13,-556.449 1129.39,-561.594 1130.58,-554.695"/>
</g>
<!-- Node36&#45;&gt;Node8 -->
<g id="edge103" class="edge"><title>Node36&#45;&gt;Node8</title>
<path fill="none" stroke="midnightblue" d="M1106.28,-654.166C962.294,-638.93 462.687,-576.973 396,-445 319.166,-292.947 510.566,-233.432 672,-179 752.057,-152.007 849.11,-141.203 913.05,-136.881"/>
<polygon fill="midnightblue" stroke="midnightblue" points="913.656,-140.349 923.412,-136.217 913.208,-133.363 913.656,-140.349"/>
</g>
<!-- Node36&#45;&gt;Node14 -->
<g id="edge108" class="edge"><title>Node36&#45;&gt;Node14</title>
<path fill="none" stroke="midnightblue" d="M1183.64,-653.246C1262.87,-643.4 1438.52,-621.026 1465,-613 1815.79,-506.653 1881.17,-420.976 2208,-255 2318.98,-198.64 2336.8,-162.001 2455,-123 2564.69,-86.8091 2702.73,-76.4923 2764.51,-73.6003"/>
<polygon fill="midnightblue" stroke="midnightblue" points="2764.95,-77.0846 2774.79,-73.1557 2764.65,-70.0912 2764.95,-77.0846"/>
</g>
<!-- Node36&#45;&gt;Node15 -->
<g id="edge105" class="edge"><title>Node36&#45;&gt;Node15</title>
<path fill="none" stroke="midnightblue" d="M1139.19,-649.368C1126.98,-631.215 1098.45,-588.802 1082.43,-564.99"/>
<polygon fill="midnightblue" stroke="midnightblue" points="1085.27,-562.935 1076.78,-556.591 1079.46,-566.842 1085.27,-562.935"/>
</g>
<!-- Node36&#45;&gt;Node24 -->
<g id="edge104" class="edge"><title>Node36&#45;&gt;Node24</title>
<path fill="none" stroke="midnightblue" d="M1106.35,-656.84C972.693,-652.63 535.103,-637.125 477,-613 401.665,-581.719 339,-573.571 339,-492 339,-492 339,-492 339,-428.5 339,-366.939 361.482,-296.477 373.151,-264.053"/>
<polygon fill="midnightblue" stroke="midnightblue" points="376.467,-265.177 376.645,-254.583 369.899,-262.753 376.467,-265.177"/>
</g>
<!-- Node36&#45;&gt;Node30 -->
<g id="edge106" class="edge"><title>Node36&#45;&gt;Node30</title>
<path fill="none" stroke="midnightblue" d="M1183.77,-653.307C1257.38,-644.201 1412,-624.063 1434,-613 1545.84,-556.767 1639.14,-431.656 1670.62,-386.052"/>
<polygon fill="midnightblue" stroke="midnightblue" points="1673.65,-387.818 1676.38,-377.581 1667.86,-383.881 1673.65,-387.818"/>
</g>
<!-- Node36&#45;&gt;Node35 -->
<g id="edge107" class="edge"><title>Node36&#45;&gt;Node35</title>
<path fill="none" stroke="midnightblue" d="M1183.03,-649.444C1224.81,-640.043 1291.98,-624.929 1337.27,-614.739"/>
<polygon fill="midnightblue" stroke="midnightblue" points="1338.16,-618.126 1347.15,-612.516 1336.62,-611.297 1338.16,-618.126"/>
</g>
<!-- Node38&#45;&gt;Node7 -->
<g id="edge114" class="edge"><title>Node38&#45;&gt;Node7</title>
<path fill="none" stroke="midnightblue" d="M2092.13,-822.985C2055.34,-808.858 1978.55,-780.23 1912,-761 1862.72,-746.76 1805.42,-733.977 1765.74,-725.707"/>
<polygon fill="midnightblue" stroke="midnightblue" points="1766.3,-722.248 1755.8,-723.652 1764.88,-729.103 1766.3,-722.248"/>
</g>
<!-- Node38&#45;&gt;Node22 -->
<g id="edge128" class="edge"><title>Node38&#45;&gt;Node22</title>
<path fill="none" stroke="midnightblue" d="M2166.13,-830.476C2329.29,-826.944 2823.16,-813.643 2887,-781 2949.12,-749.237 2987,-729.766 2987,-660 2987,-660 2987,-660 2987,-305.5 2987,-269.254 3004.09,-229.671 3015.35,-207.533"/>
<polygon fill="midnightblue" stroke="midnightblue" points="3018.46,-209.141 3020.03,-198.663 3012.27,-205.875 3018.46,-209.141"/>
</g>
<!-- Node38&#45;&gt;Node39 -->
<g id="edge115" class="edge"><title>Node38&#45;&gt;Node39</title>
<path fill="none" stroke="midnightblue" d="M2061.9,-824.848C1971.66,-813.326 1787.41,-789.801 1698.38,-778.433"/>
<polygon fill="midnightblue" stroke="midnightblue" points="1698.63,-774.936 1688.27,-777.141 1697.74,-781.88 1698.63,-774.936"/>
</g>
<!-- Node39&#45;&gt;Node6 -->
<g id="edge127" class="edge"><title>Node39&#45;&gt;Node6</title>
<path fill="none" stroke="midnightblue" d="M1640.26,-761.306C1625.33,-743.594 1594,-701.485 1594,-660 1594,-660 1594,-660 1594,-428.5 1594,-372.579 1549.75,-373.085 1527,-322 1504.23,-270.872 1504.47,-254.79 1500,-199 1497.3,-165.327 1495.7,-156.619 1499,-123 1500.05,-112.259 1502.34,-100.416 1504.46,-90.8991"/>
<polygon fill="midnightblue" stroke="midnightblue" points="1507.9,-91.5379 1506.79,-81.002 1501.09,-89.9342 1507.9,-91.5379"/>
</g>
<!-- Node39&#45;&gt;Node7 -->
<g id="edge121" class="edge"><title>Node39&#45;&gt;Node7</title>
<path fill="none" stroke="midnightblue" d="M1659.09,-761.324C1669.49,-753.185 1685.26,-740.839 1697.72,-731.087"/>
<polygon fill="midnightblue" stroke="midnightblue" points="1699.99,-733.753 1705.71,-724.834 1695.68,-728.241 1699.99,-733.753"/>
</g>
<!-- Node39&#45;&gt;Node9 -->
<g id="edge119" class="edge"><title>Node39&#45;&gt;Node9</title>
<path fill="none" stroke="midnightblue" d="M1607.99,-769.817C1392.05,-768.681 370.555,-761.408 235,-725 176.044,-709.165 114,-721.046 114,-660 114,-660 114,-660 114,-367 114,-215.2 219.972,-196.123 353,-123 397.183,-98.7132 452.631,-86.0663 496.417,-79.5023"/>
<polygon fill="midnightblue" stroke="midnightblue" points="497.02,-82.9519 506.426,-78.0766 496.032,-76.0219 497.02,-82.9519"/>
</g>
<!-- Node39&#45;&gt;Node14 -->
<g id="edge122" class="edge"><title>Node39&#45;&gt;Node14</title>
<path fill="none" stroke="midnightblue" d="M1680.3,-761.446C1709.08,-753.398 1752.07,-740.316 1788,-725 2192.65,-552.525 2325.16,-541.423 2659,-255 2717.72,-204.621 2766.97,-125.259 2787.17,-90.1789"/>
<polygon fill="midnightblue" stroke="midnightblue" points="2790.4,-91.581 2792.28,-81.1553 2784.31,-88.1296 2790.4,-91.581"/>
</g>
<!-- Node39&#45;&gt;Node15 -->
<g id="edge116" class="edge"><title>Node39&#45;&gt;Node15</title>
<path fill="none" stroke="midnightblue" d="M1607.71,-768.255C1493.34,-762.463 1170.21,-740.018 1097,-669 1069.33,-642.154 1067.67,-593.491 1069.16,-566.788"/>
<polygon fill="midnightblue" stroke="midnightblue" points="1072.67,-566.757 1069.95,-556.517 1065.69,-566.219 1072.67,-566.757"/>
</g>
<!-- Node39&#45;&gt;Node22 -->
<g id="edge124" class="edge"><title>Node39&#45;&gt;Node22</title>
<path fill="none" stroke="midnightblue" d="M1688.14,-762.748C1842.39,-733.631 2408.54,-615.191 2811,-378 2893.74,-329.238 2900.69,-298.201 2973,-235 2984.38,-225.056 2997.21,-213.946 3007.29,-205.253"/>
<polygon fill="midnightblue" stroke="midnightblue" points="3009.72,-207.779 3015.01,-198.598 3005.15,-202.477 3009.72,-207.779"/>
</g>
<!-- Node39&#45;&gt;Node24 -->
<g id="edge120" class="edge"><title>Node39&#45;&gt;Node24</title>
<path fill="none" stroke="midnightblue" d="M1607.92,-769.509C1430.55,-767.17 715.231,-755.964 493,-725 371.608,-708.086 225,-782.564 225,-660 225,-660 225,-660 225,-428.5 225,-348.915 311.691,-286.295 355.407,-259.777"/>
<polygon fill="midnightblue" stroke="midnightblue" points="357.457,-262.632 364.285,-254.531 353.895,-256.605 357.457,-262.632"/>
</g>
<!-- Node39&#45;&gt;Node27 -->
<g id="edge126" class="edge"><title>Node39&#45;&gt;Node27</title>
<path fill="none" stroke="midnightblue" d="M1688.08,-762.046C1712.39,-755.517 1742.72,-744.135 1764,-725 1833.92,-662.141 1808.39,-614.926 1861,-537 1901.38,-477.188 1917.68,-466.686 1967,-414 2020.26,-357.098 2029.01,-336.9 2092,-291 2109.42,-278.308 2130.9,-267.066 2148.03,-258.992"/>
<polygon fill="midnightblue" stroke="midnightblue" points="2149.93,-261.973 2157.56,-254.618 2147.01,-255.612 2149.93,-261.973"/>
</g>
<!-- Node39&#45;&gt;Node29 -->
<g id="edge118" class="edge"><title>Node39&#45;&gt;Node29</title>
<path fill="none" stroke="midnightblue" d="M1607.69,-768.872C1383.56,-762.341 301,-727.31 301,-660 301,-660 301,-660 301,-428.5 301,-306.886 473.911,-265.777 570.537,-252.298"/>
<polygon fill="midnightblue" stroke="midnightblue" points="571.049,-255.761 580.498,-250.969 570.123,-248.823 571.049,-255.761"/>
</g>
<!-- Node39&#45;&gt;Node30 -->
<g id="edge117" class="edge"><title>Node39&#45;&gt;Node30</title>
<path fill="none" stroke="midnightblue" d="M1649.95,-761.413C1655.34,-736.952 1670,-664.759 1670,-604 1670,-604 1670,-604 1670,-546 1670,-488.395 1676.41,-420.485 1679.86,-388.075"/>
<polygon fill="midnightblue" stroke="midnightblue" points="1683.37,-388.147 1680.98,-377.826 1676.41,-387.386 1683.37,-388.147"/>
</g>
<!-- Node39&#45;&gt;Node34 -->
<g id="edge125" class="edge"><title>Node39&#45;&gt;Node34</title>
<path fill="none" stroke="midnightblue" d="M1607.8,-769.229C1524.42,-766.982 1326.89,-758.283 1165,-725 847.941,-659.815 719.559,-709.542 472,-501 455.852,-487.397 445.801,-464.927 440.321,-449.015"/>
<polygon fill="midnightblue" stroke="midnightblue" points="443.583,-447.721 437.238,-439.236 436.907,-449.826 443.583,-447.721"/>
</g>
<!-- Node39&#45;&gt;Node37 -->
<g id="edge123" class="edge"><title>Node39&#45;&gt;Node37</title>
<path fill="none" stroke="midnightblue" d="M1617.72,-761.46C1548.1,-741.822 1376.6,-693.45 1298.23,-671.348"/>
<polygon fill="midnightblue" stroke="midnightblue" points="1298.83,-667.881 1288.26,-668.535 1296.93,-674.618 1298.83,-667.881"/>
</g>
<!-- Node40&#45;&gt;Node6 -->
<g id="edge157" class="edge"><title>Node40&#45;&gt;Node6</title>
<path fill="none" stroke="midnightblue" d="M2272.45,-940.128C2275.95,-927.577 2282.65,-903.942 2289,-884 2381.11,-594.585 2697.57,-468.21 2503,-235 2439.21,-158.547 1702.09,-89.5032 1540.28,-75.2038"/>
<polygon fill="midnightblue" stroke="midnightblue" points="1540.32,-71.694 1530.05,-74.3055 1539.7,-78.6671 1540.32,-71.694"/>
</g>
<!-- Node40&#45;&gt;Node13 -->
<g id="edge158" class="edge"><title>Node40&#45;&gt;Node13</title>
<path fill="none" stroke="midnightblue" d="M2224.7,-947.638C1940.19,-938.969 405.322,-890.512 201,-848 107.497,-828.545 0,-867.506 0,-772 0,-772 0,-772 0,-188 0,-113.344 103.421,-86.5672 164.76,-77.2514"/>
<polygon fill="midnightblue" stroke="midnightblue" points="165.547,-80.6749 174.955,-75.804 164.563,-73.7444 165.547,-80.6749"/>
</g>
<!-- Node40&#45;&gt;Node14 -->
<g id="edge155" class="edge"><title>Node40&#45;&gt;Node14</title>
<path fill="none" stroke="midnightblue" d="M2315.25,-948.975C2467.75,-948.517 2961.82,-943.915 3115,-904 3169.63,-889.766 3191.86,-890.515 3229,-848 3275.23,-795.075 3329,-618.273 3329,-548 3329,-548 3329,-548 3329,-188 3329,-157.205 3329.36,-141.835 3305,-123 3267.33,-93.8818 2935.02,-78.0669 2829.21,-73.7369"/>
<polygon fill="midnightblue" stroke="midnightblue" points="2829.26,-70.2363 2819.13,-73.3313 2828.98,-77.2306 2829.26,-70.2363"/>
</g>
<!-- Node40&#45;&gt;Node21 -->
<g id="edge156" class="edge"><title>Node40&#45;&gt;Node21</title>
<path fill="none" stroke="midnightblue" d="M2315.05,-949.296C2392.11,-947.183 2541,-930.545 2541,-833.5 2541,-833.5 2541,-833.5 2541,-770 2541,-695.18 2569,-678.82 2569,-604 2569,-604 2569,-604 2569,-546 2569,-460.306 2413.69,-280.384 2341,-235 2305.36,-212.747 2184.26,-198.689 2124.67,-192.956"/>
<polygon fill="midnightblue" stroke="midnightblue" points="2124.92,-189.464 2114.63,-192.013 2124.26,-196.433 2124.92,-189.464"/>
</g>
<!-- Node40&#45;&gt;Node30 -->
<g id="edge134" class="edge"><title>Node40&#45;&gt;Node30</title>
<path fill="none" stroke="midnightblue" d="M2265.75,-940.325C2237.25,-883.188 2067.85,-558.711 1827,-414 1800.04,-397.799 1766.7,-386.923 1738.79,-379.929"/>
<polygon fill="midnightblue" stroke="midnightblue" points="1739.32,-376.456 1728.78,-377.525 1737.69,-383.263 1739.32,-376.456"/>
</g>
<!-- Node40&#45;&gt;Node39 -->
<g id="edge147" class="edge"><title>Node40&#45;&gt;Node39</title>
<path fill="none" stroke="midnightblue" d="M2224.97,-944.295C2166.61,-937.709 2061.89,-924.23 1974,-904 1892.35,-885.206 1871.47,-879.914 1794,-848 1749.14,-829.517 1699.55,-802.116 1671.25,-785.76"/>
<polygon fill="midnightblue" stroke="midnightblue" points="1672.91,-782.675 1662.51,-780.665 1669.38,-788.723 1672.91,-782.675"/>
</g>
<!-- Node41 -->
<g id="node41" class="node"><title>Node41</title>
<g id="a_node41"><a xlink:href="bound_8h.html" target="_top" xlink:title="Bound deducers. ">
<polygon fill="white" stroke="black" points="1983,-884.5 1983,-903.5 2085,-903.5 2085,-884.5 1983,-884.5"/>
<text text-anchor="middle" x="2034" y="-891.5" font-family="Helvetica,sans-Serif" font-size="10.00">tvm/arith/bound.h</text>
</a>
</g>
</g>
<!-- Node40&#45;&gt;Node41 -->
<g id="edge135" class="edge"><title>Node40&#45;&gt;Node41</title>
<path fill="none" stroke="midnightblue" d="M2232.61,-940.444C2191.61,-931.063 2125.75,-915.993 2081.22,-905.804"/>
<polygon fill="midnightblue" stroke="midnightblue" points="2081.75,-902.335 2071.22,-903.516 2080.19,-909.159 2081.75,-902.335"/>
</g>
<!-- Node40&#45;&gt;Node43 -->
<g id="edge148" class="edge"><title>Node40&#45;&gt;Node43</title>
<path fill="none" stroke="midnightblue" d="M2224.94,-945.138C2109.31,-935.226 1802.94,-908.966 1686.13,-898.954"/>
<polygon fill="midnightblue" stroke="midnightblue" points="1686.34,-895.46 1676.08,-898.093 1685.75,-902.434 1686.34,-895.46"/>
</g>
<!-- Node41&#45;&gt;Node7 -->
<g id="edge137" class="edge"><title>Node41&#45;&gt;Node7</title>
<path fill="none" stroke="midnightblue" d="M2024.76,-884.417C2008.26,-869.401 1972.27,-837.971 1938,-817 1874.78,-778.31 1794.23,-745.15 1749.92,-728.155"/>
<polygon fill="midnightblue" stroke="midnightblue" points="1751.11,-724.861 1740.51,-724.582 1748.62,-731.405 1751.11,-724.861"/>
</g>
<!-- Node41&#45;&gt;Node22 -->
<g id="edge146" class="edge"><title>Node41&#45;&gt;Node22</title>
<path fill="none" stroke="midnightblue" d="M2085.32,-891.234C2289.77,-884.137 3036.37,-857.617 3059,-848 3104.14,-828.82 3139,-821.042 3139,-772 3139,-772 3139,-772 3139,-714 3139,-638.314 3101,-623.686 3101,-548 3101,-548 3101,-548 3101,-428.5 3101,-339.449 3081.72,-317.822 3049,-235 3045.3,-225.633 3040.15,-215.706 3035.57,-207.565"/>
<polygon fill="midnightblue" stroke="midnightblue" points="3038.45,-205.563 3030.4,-198.68 3032.4,-209.083 3038.45,-205.563"/>
</g>
<!-- Node41&#45;&gt;Node30 -->
<g id="edge136" class="edge"><title>Node41&#45;&gt;Node30</title>
<path fill="none" stroke="midnightblue" d="M2032.21,-884.326C2021,-832.264 1955.92,-558.641 1798,-414 1780.39,-397.869 1756.35,-387.277 1734.72,-380.45"/>
<polygon fill="midnightblue" stroke="midnightblue" points="1735.57,-377.05 1724.99,-377.571 1733.59,-383.763 1735.57,-377.05"/>
</g>
<!-- Node41&#45;&gt;Node38 -->
<g id="edge138" class="edge"><title>Node41&#45;&gt;Node38</title>
<path fill="none" stroke="midnightblue" d="M2045.46,-884.475C2058.17,-875.02 2078.91,-859.596 2094.25,-848.187"/>
<polygon fill="midnightblue" stroke="midnightblue" points="2096.62,-850.785 2102.56,-842.009 2092.45,-845.169 2096.62,-850.785"/>
</g>
<!-- Node41&#45;&gt;Node39 -->
<g id="edge139" class="edge"><title>Node41&#45;&gt;Node39</title>
<path fill="none" stroke="midnightblue" d="M1982.83,-887.028C1941.97,-880.929 1883.99,-869.245 1837,-848 1815.53,-838.294 1815.09,-827.497 1794,-817 1763.41,-801.777 1726.64,-790.48 1697.65,-783.013"/>
<polygon fill="midnightblue" stroke="midnightblue" points="1698.3,-779.566 1687.75,-780.531 1696.6,-786.356 1698.3,-779.566"/>
</g>
<!-- Node42 -->
<g id="node42" class="node"><title>Node42</title>
<g id="a_node42"><a xlink:href="stmt_8h.html" target="_top" xlink:title="TIR statements. ">
<polygon fill="white" stroke="black" points="1846.5,-823 1846.5,-842 1929.5,-842 1929.5,-823 1846.5,-823"/>
<text text-anchor="middle" x="1888" y="-830" font-family="Helvetica,sans-Serif" font-size="10.00">tvm/tir/stmt.h</text>
</a>
</g>
</g>
<!-- Node41&#45;&gt;Node42 -->
<g id="edge140" class="edge"><title>Node41&#45;&gt;Node42</title>
<path fill="none" stroke="midnightblue" d="M2013.08,-884.475C1988.25,-874.357 1946.66,-857.405 1918.31,-845.851"/>
<polygon fill="midnightblue" stroke="midnightblue" points="1919.46,-842.542 1908.88,-842.009 1916.82,-849.024 1919.46,-842.542"/>
</g>
<!-- Node42&#45;&gt;Node6 -->
<g id="edge145" class="edge"><title>Node42&#45;&gt;Node6</title>
<path fill="none" stroke="midnightblue" d="M1895.01,-822.739C1951.83,-751.746 2334.84,-272.819 2341,-255 2343.91,-246.599 2346.45,-242.024 2341,-235 2315.56,-202.204 1688.8,-101.01 1540.33,-77.4416"/>
<polygon fill="midnightblue" stroke="midnightblue" points="1540.52,-73.9286 1530.1,-75.8203 1539.42,-80.8423 1540.52,-73.9286"/>
</g>
<!-- Node42&#45;&gt;Node13 -->
<g id="edge142" class="edge"><title>Node42&#45;&gt;Node13</title>
<path fill="none" stroke="midnightblue" d="M1846.19,-830.758C1595.66,-826.077 298.706,-798.422 139,-725 102.446,-708.195 76,-700.231 76,-660 76,-660 76,-660 76,-188 76,-135.703 135.348,-101.736 174.755,-84.9461"/>
<polygon fill="midnightblue" stroke="midnightblue" points="176.363,-88.07 184.295,-81.0469 173.715,-81.5902 176.363,-88.07"/>
</g>
<!-- Node42&#45;&gt;Node14 -->
<g id="edge143" class="edge"><title>Node42&#45;&gt;Node14</title>
<path fill="none" stroke="midnightblue" d="M1929.67,-827.352C1963.01,-824.151 2010.97,-819.808 2053,-817 2140.23,-811.172 2765.27,-827.979 2839,-781 2866.5,-763.481 2873,-748.602 2873,-716 2873,-716 2873,-716 2873,-490 2873,-402.137 2949,-395.363 2949,-307.5 2949,-307.5 2949,-307.5 2949,-188 2949,-128.195 2873.48,-95.3149 2828.91,-81.1157"/>
<polygon fill="midnightblue" stroke="midnightblue" points="2829.69,-77.6954 2819.1,-78.1337 2827.65,-84.3924 2829.69,-77.6954"/>
</g>
<!-- Node42&#45;&gt;Node21 -->
<g id="edge144" class="edge"><title>Node42&#45;&gt;Node21</title>
<path fill="none" stroke="midnightblue" d="M1923.95,-822.99C1971.68,-809.306 2050,-777.484 2050,-716 2050,-716 2050,-716 2050,-602 2050,-432.543 2172.07,-420.604 2208,-255 2209.88,-246.313 2213.03,-242.327 2208,-235 2189.43,-207.957 2152.16,-197.159 2124.65,-192.852"/>
<polygon fill="midnightblue" stroke="midnightblue" points="2125.03,-189.37 2114.65,-191.498 2124.09,-196.307 2125.03,-189.37"/>
</g>
<!-- Node42&#45;&gt;Node39 -->
<g id="edge141" class="edge"><title>Node42&#45;&gt;Node39</title>
<path fill="none" stroke="midnightblue" d="M1855.45,-822.992C1847.76,-821.005 1839.6,-818.912 1832,-817 1784.92,-805.149 1730.96,-792.002 1693.7,-782.995"/>
<polygon fill="midnightblue" stroke="midnightblue" points="1694.2,-779.514 1683.65,-780.569 1692.55,-786.319 1694.2,-779.514"/>
</g>
<!-- Node43&#45;&gt;Node13 -->
<g id="edge153" class="edge"><title>Node43&#45;&gt;Node13</title>
<path fill="none" stroke="midnightblue" d="M1603.91,-892.221C1366.5,-886.867 38,-853.278 38,-772 38,-772 38,-772 38,-188 38,-126.706 114.381,-95.751 165.047,-81.9604"/>
<polygon fill="midnightblue" stroke="midnightblue" points="166.007,-85.3273 174.807,-79.4272 164.248,-78.5517 166.007,-85.3273"/>
</g>
<!-- Node43&#45;&gt;Node27 -->
<g id="edge154" class="edge"><title>Node43&#45;&gt;Node27</title>
<path fill="none" stroke="midnightblue" d="M1676.38,-891.904C1733.61,-889.218 1847.46,-879.951 1938,-848 1992.85,-828.645 2164,-774.161 2164,-716 2164,-716 2164,-716 2164,-490 2164,-406.018 2172.37,-306.042 2176.17,-265.006"/>
<polygon fill="midnightblue" stroke="midnightblue" points="2179.67,-265.137 2177.12,-254.853 2172.7,-264.479 2179.67,-265.137"/>
</g>
<!-- Node43&#45;&gt;Node36 -->
<g id="edge149" class="edge"><title>Node43&#45;&gt;Node36</title>
<path fill="none" stroke="midnightblue" d="M1613.07,-884.494C1587.29,-876.094 1547.49,-862.44 1514,-848 1380.16,-790.289 1226.91,-706.093 1168.91,-673.543"/>
<polygon fill="midnightblue" stroke="midnightblue" points="1170.56,-670.456 1160.13,-668.601 1167.13,-676.556 1170.56,-670.456"/>
</g>
<!-- Node43&#45;&gt;Node37 -->
<g id="edge152" class="edge"><title>Node43&#45;&gt;Node37</title>
<path fill="none" stroke="midnightblue" d="M1625.95,-884.431C1568.63,-849.466 1352.09,-717.388 1280.86,-673.945"/>
<polygon fill="midnightblue" stroke="midnightblue" points="1282.54,-670.866 1272.18,-668.647 1278.89,-676.842 1282.54,-670.866"/>
</g>
<!-- Node43&#45;&gt;Node39 -->
<g id="edge150" class="edge"><title>Node43&#45;&gt;Node39</title>
<path fill="none" stroke="midnightblue" d="M1640.58,-884.298C1641.86,-864.85 1644.99,-817.49 1646.75,-790.904"/>
<polygon fill="midnightblue" stroke="midnightblue" points="1650.26,-790.832 1647.43,-780.623 1643.28,-790.37 1650.26,-790.832"/>
</g>
<!-- Node43&#45;&gt;Node42 -->
<g id="edge151" class="edge"><title>Node43&#45;&gt;Node42</title>
<path fill="none" stroke="midnightblue" d="M1675.53,-884.475C1719.55,-873.915 1794.59,-855.911 1842.7,-844.369"/>
<polygon fill="midnightblue" stroke="midnightblue" points="1843.63,-847.746 1852.53,-842.009 1841.99,-840.939 1843.63,-847.746"/>
</g>
<!-- Node44&#45;&gt;Node4 -->
<g id="edge170" class="edge"><title>Node44&#45;&gt;Node4</title>
<path fill="none" stroke="midnightblue" d="M2503.79,-1052.5C2519.72,-1045.41 2539.46,-1033.61 2549,-1016 2553.23,-1008.18 2550.36,-1004.78 2549,-996 2533.18,-894.021 2486.78,-778.348 2468.01,-734.32"/>
<polygon fill="midnightblue" stroke="midnightblue" points="2471.14,-732.735 2463.97,-724.939 2464.71,-735.507 2471.14,-732.735"/>
</g>
<!-- Node44&#45;&gt;Node14 -->
<g id="edge171" class="edge"><title>Node44&#45;&gt;Node14</title>
<path fill="none" stroke="midnightblue" d="M2531.55,-1052.56C2533.05,-1052.36 2534.53,-1052.18 2536,-1052 2821.32,-1017.72 2910.83,-1070.75 3176,-960 3283.29,-915.187 3405,-949.774 3405,-833.5 3405,-833.5 3405,-833.5 3405,-188 3405,-151.004 3385.58,-140.519 3353,-123 3261.58,-73.849 2933.98,-71.5926 2829.36,-72.1674"/>
<polygon fill="midnightblue" stroke="midnightblue" points="2829.09,-68.6691 2819.11,-72.2372 2829.13,-75.669 2829.09,-68.6691"/>
</g>
<!-- Node44&#45;&gt;Node22 -->
<g id="edge172" class="edge"><title>Node44&#45;&gt;Node22</title>
<path fill="none" stroke="midnightblue" d="M2531.72,-1058.32C2686.43,-1049.12 3140.37,-1013.13 3229,-904 3314.56,-798.64 3187.26,-392.822 3141,-291 3128.13,-262.675 3122.04,-255.905 3099,-235 3085.11,-222.402 3067.2,-211.401 3052.48,-203.43"/>
<polygon fill="midnightblue" stroke="midnightblue" points="3053.82,-200.181 3043.34,-198.642 3050.57,-206.382 3053.82,-200.181"/>
</g>
<!-- Node44&#45;&gt;Node39 -->
<g id="edge160" class="edge"><title>Node44&#45;&gt;Node39</title>
<path fill="none" stroke="midnightblue" d="M2428.35,-1060.39C2254.96,-1057.12 1698.75,-1036.31 1595,-904 1566.55,-867.721 1607.78,-814.157 1632.19,-787.811"/>
<polygon fill="midnightblue" stroke="midnightblue" points="1634.75,-790.203 1639.13,-780.558 1629.69,-785.363 1634.75,-790.203"/>
</g>
<!-- Node44&#45;&gt;Node40 -->
<g id="edge161" class="edge"><title>Node44&#45;&gt;Node40</title>
<path fill="none" stroke="midnightblue" d="M2463.52,-1052.37C2427.03,-1033.25 2339.16,-987.229 2295.51,-964.361"/>
<polygon fill="midnightblue" stroke="midnightblue" points="2296.88,-961.131 2286.4,-959.591 2293.64,-967.332 2296.88,-961.131"/>
</g>
<!-- Node45 -->
<g id="node45" class="node"><title>Node45</title>
<g id="a_node45"><a xlink:href="tensor__intrin_8h.html" target="_top" xlink:title="Tensor intrinsic operations. ">
<polygon fill="white" stroke="black" points="2420,-996.5 2420,-1015.5 2540,-1015.5 2540,-996.5 2420,-996.5"/>
<text text-anchor="middle" x="2480" y="-1003.5" font-family="Helvetica,sans-Serif" font-size="10.00">tvm/te/tensor_intrin.h</text>
</a>
</g>
</g>
<!-- Node44&#45;&gt;Node45 -->
<g id="edge162" class="edge"><title>Node44&#45;&gt;Node45</title>
<path fill="none" stroke="midnightblue" d="M2480,-1052.08C2480,-1045.01 2480,-1034.86 2480,-1025.99"/>
<polygon fill="midnightblue" stroke="midnightblue" points="2483.5,-1025.75 2480,-1015.75 2476.5,-1025.75 2483.5,-1025.75"/>
</g>
<!-- Node45&#45;&gt;Node14 -->
<g id="edge169" class="edge"><title>Node45&#45;&gt;Node14</title>
<path fill="none" stroke="midnightblue" d="M2540.14,-1004.37C2661.78,-1001.32 2944.17,-985.271 3164,-904 3334.84,-840.842 3367,-730.138 3367,-548 3367,-548 3367,-548 3367,-188 3367,-154.079 3355.79,-140.934 3327,-123 3243.35,-70.8991 2931.35,-70.5555 2829.43,-71.895"/>
<polygon fill="midnightblue" stroke="midnightblue" points="2829.1,-68.3994 2819.15,-72.0457 2829.2,-75.3987 2829.1,-68.3994"/>
</g>
<!-- Node45&#45;&gt;Node40 -->
<g id="edge163" class="edge"><title>Node45&#45;&gt;Node40</title>
<path fill="none" stroke="midnightblue" d="M2446.72,-996.444C2410.55,-987.142 2352.62,-972.246 2313.02,-962.062"/>
<polygon fill="midnightblue" stroke="midnightblue" points="2313.68,-958.617 2303.12,-959.516 2311.93,-965.397 2313.68,-958.617"/>
</g>
<!-- Node45&#45;&gt;Node46 -->
<g id="edge164" class="edge"><title>Node45&#45;&gt;Node46</title>
<path fill="none" stroke="midnightblue" d="M2419.88,-999.625C2301.97,-989.083 2042.09,-965.849 1929.62,-955.794"/>
<polygon fill="midnightblue" stroke="midnightblue" points="1929.8,-952.296 1919.53,-954.891 1929.17,-959.268 1929.8,-952.296"/>
</g>
<!-- Node46&#45;&gt;Node14 -->
<g id="edge168" class="edge"><title>Node46&#45;&gt;Node14</title>
<path fill="none" stroke="midnightblue" d="M1919.66,-948.163C2134.32,-943.711 3071.87,-920.232 3178,-848 3209.06,-826.863 3215,-809.568 3215,-772 3215,-772 3215,-772 3215,-658 3215,-576.858 3291,-573.142 3291,-492 3291,-492 3291,-492 3291,-188 3291,-92.8526 2939.13,-76.0394 2829.33,-73.109"/>
<polygon fill="midnightblue" stroke="midnightblue" points="2829.27,-69.6066 2819.19,-72.8601 2829.1,-76.6045 2829.27,-69.6066"/>
</g>
<!-- Node46&#45;&gt;Node30 -->
<g id="edge165" class="edge"><title>Node46&#45;&gt;Node30</title>
<path fill="none" stroke="midnightblue" d="M1872.07,-940.25C1864.41,-922.939 1847.35,-882.967 1837,-848 1789.72,-688.185 1798.75,-643.096 1760,-481 1752.83,-451.011 1759.28,-439.537 1742,-414 1733.34,-401.196 1719.8,-390.588 1707.78,-382.895"/>
<polygon fill="midnightblue" stroke="midnightblue" points="1709.36,-379.759 1698.99,-377.591 1705.74,-385.753 1709.36,-379.759"/>
</g>
<!-- Node46&#45;&gt;Node39 -->
<g id="edge166" class="edge"><title>Node46&#45;&gt;Node39</title>
<path fill="none" stroke="midnightblue" d="M1832.34,-944.153C1800.65,-938.764 1758.22,-927.48 1728,-904 1688.97,-873.676 1664.66,-818.53 1654.11,-790.069"/>
<polygon fill="midnightblue" stroke="midnightblue" points="1657.38,-788.828 1650.74,-780.575 1650.79,-791.17 1657.38,-788.828"/>
</g>
<!-- Node46&#45;&gt;Node43 -->
<g id="edge167" class="edge"><title>Node46&#45;&gt;Node43</title>
<path fill="none" stroke="midnightblue" d="M1838.61,-940.444C1797.25,-930.98 1730.58,-915.726 1686.04,-905.535"/>
<polygon fill="midnightblue" stroke="midnightblue" points="1686.59,-902.07 1676.06,-903.251 1685.03,-908.893 1686.59,-902.07"/>
</g>
<!-- Node47&#45;&gt;Node4 -->
<g id="edge180" class="edge"><title>Node47&#45;&gt;Node4</title>
<path fill="none" stroke="midnightblue" d="M2943.99,-825.242C2880.53,-817.255 2771.27,-801.924 2679,-781 2612.94,-766.018 2537.54,-742.092 2494.67,-727.827"/>
<polygon fill="midnightblue" stroke="midnightblue" points="2495.6,-724.448 2485.01,-724.592 2493.38,-731.086 2495.6,-724.448"/>
</g>
<!-- Node47&#45;&gt;Node6 -->
<g id="edge192" class="edge"><title>Node47&#45;&gt;Node6</title>
<path fill="none" stroke="midnightblue" d="M3002.8,-817.185C3011,-795.62 3025,-753.346 3025,-716 3025,-716 3025,-716 3025,-546 3025,-321.829 2885.83,-265.448 2679,-179 2609.87,-150.108 2593.51,-137.464 2520,-123 2325.7,-84.7711 1690.01,-74.714 1540.63,-72.8542"/>
<polygon fill="midnightblue" stroke="midnightblue" points="1540.39,-69.3511 1530.34,-72.7296 1540.3,-76.3505 1540.39,-69.3511"/>
</g>
<!-- Node47&#45;&gt;Node14 -->
<g id="edge191" class="edge"><title>Node47&#45;&gt;Node14</title>
<path fill="none" stroke="midnightblue" d="M3020.53,-817.326C3033.87,-808.31 3050.04,-795.601 3061,-781 3197.34,-599.398 3253,-534.587 3253,-307.5 3253,-307.5 3253,-307.5 3253,-188 3253,-100.547 2933.84,-78.5819 2829.54,-73.7387"/>
<polygon fill="midnightblue" stroke="midnightblue" points="2829.45,-70.2311 2819.3,-73.2867 2829.14,-77.2243 2829.45,-70.2311"/>
</g>
<!-- Node47&#45;&gt;Node18 -->
<g id="edge181" class="edge"><title>Node47&#45;&gt;Node18</title>
<path fill="none" stroke="midnightblue" d="M2943.75,-828.564C2885.13,-823.866 2788.98,-811.786 2712,-781 2396.11,-654.674 2393.85,-473.944 2074,-358 2038.18,-345.015 1801.57,-323.307 1683.61,-313.112"/>
<polygon fill="midnightblue" stroke="midnightblue" points="1683.87,-309.621 1673.61,-312.25 1683.27,-316.596 1683.87,-309.621"/>
</g>
<!-- Node47&#45;&gt;Node21 -->
<g id="edge190" class="edge"><title>Node47&#45;&gt;Node21</title>
<path fill="none" stroke="midnightblue" d="M2990.12,-817.198C2976.85,-788.239 2949,-720.291 2949,-660 2949,-660 2949,-660 2949,-602 2949,-473.648 2621.63,-284.008 2503,-235 2434.68,-206.776 2210.64,-194.87 2124.84,-191.269"/>
<polygon fill="midnightblue" stroke="midnightblue" points="2124.75,-187.762 2114.62,-190.852 2124.46,-194.757 2124.75,-187.762"/>
</g>
<!-- Node47&#45;&gt;Node22 -->
<g id="edge193" class="edge"><title>Node47&#45;&gt;Node22</title>
<path fill="none" stroke="midnightblue" d="M3011.65,-817.316C3031.09,-796.89 3063,-757.109 3063,-716 3063,-716 3063,-716 3063,-546 3063,-416.27 3037.74,-261.442 3028.41,-208.672"/>
<polygon fill="midnightblue" stroke="midnightblue" points="3031.8,-207.729 3026.58,-198.505 3024.91,-208.967 3031.8,-207.729"/>
</g>
<!-- Node48 -->
<g id="node48" class="node"><title>Node48</title>
<g id="a_node48"><a xlink:href="target_8h.html" target="_top" xlink:title="Compilation target object. ">
<polygon fill="white" stroke="black" points="2721.5,-761.5 2721.5,-780.5 2830.5,-780.5 2830.5,-761.5 2721.5,-761.5"/>
<text text-anchor="middle" x="2776" y="-768.5" font-family="Helvetica,sans-Serif" font-size="10.00">tvm/target/target.h</text>
</a>
</g>
</g>
<!-- Node47&#45;&gt;Node48 -->
<g id="edge182" class="edge"><title>Node47&#45;&gt;Node48</title>
<path fill="none" stroke="midnightblue" d="M2944.91,-817.475C2905.95,-806.986 2853.39,-792.837 2817.31,-783.122"/>
<polygon fill="midnightblue" stroke="midnightblue" points="2818.16,-779.727 2807.6,-780.506 2816.34,-786.486 2818.16,-779.727"/>
</g>
<!-- Node48&#45;&gt;Node4 -->
<g id="edge183" class="edge"><title>Node48&#45;&gt;Node4</title>
<path fill="none" stroke="midnightblue" d="M2725.93,-761.444C2669.99,-751.885 2579.49,-736.419 2519.86,-726.23"/>
<polygon fill="midnightblue" stroke="midnightblue" points="2520.28,-722.751 2509.84,-724.516 2519.1,-729.651 2520.28,-722.751"/>
</g>
<!-- Node48&#45;&gt;Node6 -->
<g id="edge189" class="edge"><title>Node48&#45;&gt;Node6</title>
<path fill="none" stroke="midnightblue" d="M2769.31,-761.261C2763.08,-752.584 2754.15,-738.639 2750,-725 2678.17,-488.9 2865.32,-297.769 2649,-179 2450.57,-70.0527 1702.82,-70.6648 1540.3,-72.125"/>
<polygon fill="midnightblue" stroke="midnightblue" points="1540,-68.6276 1530.04,-72.2256 1540.07,-75.6273 1540,-68.6276"/>
</g>
<!-- Node48&#45;&gt;Node7 -->
<g id="edge185" class="edge"><title>Node48&#45;&gt;Node7</title>
<path fill="none" stroke="midnightblue" d="M2721.29,-767.21C2537.11,-757.819 1941.31,-727.438 1765.97,-718.497"/>
<polygon fill="midnightblue" stroke="midnightblue" points="1765.92,-714.99 1755.76,-717.976 1765.57,-721.981 1765.92,-714.99"/>
</g>
<!-- Node48&#45;&gt;Node14 -->
<g id="edge186" class="edge"><title>Node48&#45;&gt;Node14</title>
<path fill="none" stroke="midnightblue" d="M2803.65,-761.416C2843.14,-747.23 2911,-714.872 2911,-660 2911,-660 2911,-660 2911,-602 2911,-399.551 3187.91,-350.29 3080,-179 3025.77,-92.9265 2891.48,-76.1384 2829.41,-73.0621"/>
<polygon fill="midnightblue" stroke="midnightblue" points="2829.52,-69.564 2819.39,-72.6551 2829.24,-76.5582 2829.52,-69.564"/>
</g>
<!-- Node48&#45;&gt;Node21 -->
<g id="edge187" class="edge"><title>Node48&#45;&gt;Node21</title>
<path fill="none" stroke="midnightblue" d="M2759.72,-761.394C2746.41,-753.572 2728.06,-740.846 2717,-725 2634.21,-606.374 2680.83,-545.703 2621,-414 2594.42,-355.494 2588.55,-338.254 2545,-291 2516.57,-260.147 2508.01,-250.436 2469,-235 2406.59,-210.305 2205.23,-196.468 2124.72,-191.805"/>
<polygon fill="midnightblue" stroke="midnightblue" points="2124.81,-188.305 2114.63,-191.233 2124.42,-195.294 2124.81,-188.305"/>
</g>
<!-- Node48&#45;&gt;Node30 -->
<g id="edge184" class="edge"><title>Node48&#45;&gt;Node30</title>
<path fill="none" stroke="midnightblue" d="M2756.6,-761.392C2645.7,-712.27 2090.67,-467.712 1912,-414 1859.18,-398.122 1797.81,-386.442 1751.76,-378.966"/>
<polygon fill="midnightblue" stroke="midnightblue" points="1752.3,-375.509 1741.87,-377.388 1751.2,-382.421 1752.3,-375.509"/>
</g>
<!-- Node49 -->
<g id="node49" class="node"><title>Node49</title>
<polygon fill="white" stroke="#bfbfbf" points="2759,-705.5 2759,-724.5 2845,-724.5 2845,-705.5 2759,-705.5"/>
<text text-anchor="middle" x="2802" y="-712.5" font-family="Helvetica,sans-Serif" font-size="10.00">unordered_set</text>
</g>
<!-- Node48&#45;&gt;Node49 -->
<g id="edge188" class="edge"><title>Node48&#45;&gt;Node49</title>
<path fill="none" stroke="midnightblue" d="M2780.29,-761.083C2783.85,-753.691 2789.02,-742.953 2793.42,-733.811"/>
<polygon fill="midnightblue" stroke="midnightblue" points="2796.6,-735.279 2797.79,-724.751 2790.29,-732.243 2796.6,-735.279"/>
</g>
<!-- Node50&#45;&gt;Node14 -->
<g id="edge195" class="edge"><title>Node50&#45;&gt;Node14</title>
<path fill="none" stroke="midnightblue" d="M3491.43,-1052.48C3488.18,-1034.04 3481,-989.037 3481,-951 3481,-951 3481,-951 3481,-188 3481,-157.205 3481.58,-141.557 3457,-123 3406.54,-84.8991 2955.04,-74.9851 2829.35,-72.9532"/>
<polygon fill="midnightblue" stroke="midnightblue" points="2829.26,-69.4515 2819.2,-72.7952 2829.15,-76.4507 2829.26,-69.4515"/>
</g>
</g>
</svg>
