<?xml version="1.0" encoding="UTF-8" standalone="no"?>
<!DOCTYPE svg PUBLIC "-//W3C//DTD SVG 1.1//EN"
 "http://www.w3.org/Graphics/SVG/1.1/DTD/svg11.dtd">
<!-- Generated by graphviz version 2.38.0 (20140413.2041)
 -->
<!-- Title: topi/include/topi/rocm/dense.h Pages: 1 -->
<svg width="3143pt" height="1136pt"
 viewBox="0.00 0.00 3143.00 1136.00" xmlns="http://www.w3.org/2000/svg" xmlns:xlink="http://www.w3.org/1999/xlink">
<g id="graph0" class="graph" transform="scale(1 1) rotate(0) translate(4 1132)">
<title>topi/include/topi/rocm/dense.h</title>
<polygon fill="white" stroke="none" points="-4,4 -4,-1132 3139,-1132 3139,4 -4,4"/>
<!-- Node1 -->
<g id="node1" class="node"><title>Node1</title>
<polygon fill="#bfbfbf" stroke="black" points="1594,-1097.5 1594,-1127.5 1714,-1127.5 1714,-1097.5 1594,-1097.5"/>
<text text-anchor="start" x="1602" y="-1115.5" font-family="Helvetica,sans-Serif" font-size="10.00">topi/include/topi/rocm</text>
<text text-anchor="middle" x="1654" y="-1104.5" font-family="Helvetica,sans-Serif" font-size="10.00">/dense.h</text>
</g>
<!-- Node2 -->
<g id="node2" class="node"><title>Node2</title>
<g id="a_node2"><a xlink:href="operation_8h.html" target="_top" xlink:title="Operation node can generate one or multiple Tensors. ">
<polygon fill="white" stroke="black" points="1733,-817.5 1733,-836.5 1839,-836.5 1839,-817.5 1733,-817.5"/>
<text text-anchor="middle" x="1786" y="-824.5" font-family="Helvetica,sans-Serif" font-size="10.00">tvm/te/operation.h</text>
</a>
</g>
</g>
<!-- Node1&#45;&gt;Node2 -->
<g id="edge1" class="edge"><title>Node1&#45;&gt;Node2</title>
<path fill="none" stroke="midnightblue" d="M1593.65,-1109.23C1466.98,-1102.83 1185,-1079.23 1185,-996 1185,-996 1185,-996 1185,-938 1185,-877.736 1246.37,-890.609 1304,-873 1380.58,-849.603 1610.21,-836.105 1722.61,-830.732"/>
<polygon fill="midnightblue" stroke="midnightblue" points="1722.96,-834.22 1732.79,-830.253 1722.63,-827.227 1722.96,-834.22"/>
</g>
<!-- Node37 -->
<g id="node37" class="node"><title>Node37</title>
<g id="a_node37"><a xlink:href="generic__func_8h.html" target="_top" xlink:title="Generic function that can be specialzied on a per target basis. ">
<polygon fill="white" stroke="black" points="1126,-526.5 1126,-556.5 1232,-556.5 1232,-526.5 1126,-526.5"/>
<text text-anchor="start" x="1134" y="-544.5" font-family="Helvetica,sans-Serif" font-size="10.00">tvm/target/generic</text>
<text text-anchor="middle" x="1179" y="-533.5" font-family="Helvetica,sans-Serif" font-size="10.00">_func.h</text>
</a>
</g>
</g>
<!-- Node1&#45;&gt;Node37 -->
<g id="edge138" class="edge"><title>Node1&#45;&gt;Node37</title>
<path fill="none" stroke="midnightblue" d="M1593.85,-1110.36C1459.55,-1106.19 1147,-1086.73 1147,-996 1147,-996 1147,-996 1147,-658 1147,-625.193 1159.14,-588.986 1168.46,-566.011"/>
<polygon fill="midnightblue" stroke="midnightblue" points="1171.71,-567.309 1172.37,-556.734 1165.26,-564.592 1171.71,-567.309"/>
</g>
<!-- Node40 -->
<g id="node40" class="node"><title>Node40</title>
<g id="a_node40"><a xlink:href="tags_8h.html" target="_top" xlink:title="External function interface to rocBLAS libraries. ">
<polygon fill="white" stroke="black" points="2029,-873.5 2029,-892.5 2097,-892.5 2097,-873.5 2029,-873.5"/>
<text text-anchor="middle" x="2063" y="-880.5" font-family="Helvetica,sans-Serif" font-size="10.00">topi/tags.h</text>
</a>
</g>
</g>
<!-- Node1&#45;&gt;Node40 -->
<g id="edge153" class="edge"><title>Node1&#45;&gt;Node40</title>
<path fill="none" stroke="midnightblue" d="M1714.02,-1102.31C1798.71,-1086.23 1952.75,-1045.05 2041,-949 2052.7,-936.263 2058.21,-917.066 2060.78,-902.834"/>
<polygon fill="midnightblue" stroke="midnightblue" points="2064.28,-903.106 2062.28,-892.702 2057.35,-902.083 2064.28,-903.106"/>
</g>
<!-- Node41 -->
<g id="node41" class="node"><title>Node41</title>
<g id="a_node41"><a xlink:href="array__utils_8h.html" target="_top" xlink:title="Utility functions for handling arrays. ">
<polygon fill="white" stroke="black" points="1213.5,-985.5 1213.5,-1004.5 1338.5,-1004.5 1338.5,-985.5 1213.5,-985.5"/>
<text text-anchor="middle" x="1276" y="-992.5" font-family="Helvetica,sans-Serif" font-size="10.00">topi/detail/array_utils.h</text>
</a>
</g>
</g>
<!-- Node1&#45;&gt;Node41 -->
<g id="edge155" class="edge"><title>Node1&#45;&gt;Node41</title>
<path fill="none" stroke="midnightblue" d="M1608.03,-1097.45C1532.45,-1074.36 1383.4,-1028.82 1313.65,-1007.51"/>
<polygon fill="midnightblue" stroke="midnightblue" points="1314.54,-1004.12 1303.96,-1004.54 1312.5,-1010.81 1314.54,-1004.12"/>
</g>
<!-- Node42 -->
<g id="node42" class="node"><title>Node42</title>
<g id="a_node42"><a xlink:href="nn_2dense_8h.html" target="_top" xlink:title="Dense op constructions. ">
<polygon fill="white" stroke="black" points="2110.5,-929.5 2110.5,-948.5 2201.5,-948.5 2201.5,-929.5 2110.5,-929.5"/>
<text text-anchor="middle" x="2156" y="-936.5" font-family="Helvetica,sans-Serif" font-size="10.00">topi/nn/dense.h</text>
</a>
</g>
</g>
<!-- Node1&#45;&gt;Node42 -->
<g id="edge157" class="edge"><title>Node1&#45;&gt;Node42</title>
<path fill="none" stroke="midnightblue" d="M1714.17,-1111.58C1820.43,-1110.6 2035.79,-1103.27 2096,-1061 2130.91,-1036.49 2146.51,-985.704 2152.61,-958.369"/>
<polygon fill="midnightblue" stroke="midnightblue" points="2156.04,-959.035 2154.61,-948.537 2149.18,-957.635 2156.04,-959.035"/>
</g>
<!-- Node43 -->
<g id="node43" class="node"><title>Node43</title>
<g id="a_node43"><a xlink:href="rocblas_8h.html" target="_top" xlink:title="topi/contrib/rocblas.h">
<polygon fill="white" stroke="black" points="1860.5,-929.5 1860.5,-948.5 1977.5,-948.5 1977.5,-929.5 1860.5,-929.5"/>
<text text-anchor="middle" x="1919" y="-936.5" font-family="Helvetica,sans-Serif" font-size="10.00">topi/contrib/rocblas.h</text>
</a>
</g>
</g>
<!-- Node1&#45;&gt;Node43 -->
<g id="edge161" class="edge"><title>Node1&#45;&gt;Node43</title>
<path fill="none" stroke="midnightblue" d="M1685.35,-1097.31C1705.43,-1087.82 1731.78,-1074.63 1754,-1061 1809.95,-1026.68 1871.08,-978.874 1900.78,-954.923"/>
<polygon fill="midnightblue" stroke="midnightblue" points="1903.06,-957.582 1908.62,-948.563 1898.64,-952.145 1903.06,-957.582"/>
</g>
<!-- Node45 -->
<g id="node45" class="node"><title>Node45</title>
<g id="a_node45"><a xlink:href="generic_2extern_8h.html" target="_top" xlink:title="Schedule for extern followed by injective ops. ">
<polygon fill="white" stroke="black" points="1557,-985.5 1557,-1004.5 1673,-1004.5 1673,-985.5 1557,-985.5"/>
<text text-anchor="middle" x="1615" y="-992.5" font-family="Helvetica,sans-Serif" font-size="10.00">topi/generic/extern.h</text>
</a>
</g>
</g>
<!-- Node1&#45;&gt;Node45 -->
<g id="edge167" class="edge"><title>Node1&#45;&gt;Node45</title>
<path fill="none" stroke="midnightblue" d="M1648.04,-1097.48C1643.87,-1087.42 1638.29,-1073.49 1634,-1061 1628.69,-1045.54 1623.54,-1027.69 1619.95,-1014.62"/>
<polygon fill="midnightblue" stroke="midnightblue" points="1623.31,-1013.65 1617.32,-1004.91 1616.56,-1015.48 1623.31,-1013.65"/>
</g>
<!-- Node49 -->
<g id="node49" class="node"><title>Node49</title>
<g id="a_node49"><a xlink:href="cuda_2dense_8h.html" target="_top" xlink:title="CUDA schedule for dense operation. ">
<polygon fill="white" stroke="black" points="1643,-1041.5 1643,-1060.5 1745,-1060.5 1745,-1041.5 1643,-1041.5"/>
<text text-anchor="middle" x="1694" y="-1048.5" font-family="Helvetica,sans-Serif" font-size="10.00">topi/cuda/dense.h</text>
</a>
</g>
</g>
<!-- Node1&#45;&gt;Node49 -->
<g id="edge181" class="edge"><title>Node1&#45;&gt;Node49</title>
<path fill="none" stroke="midnightblue" d="M1663.48,-1097.4C1669.17,-1088.93 1676.45,-1078.1 1682.48,-1069.14"/>
<polygon fill="midnightblue" stroke="midnightblue" points="1685.51,-1070.91 1688.18,-1060.66 1679.7,-1067 1685.51,-1070.91"/>
</g>
<!-- Node3 -->
<g id="node3" class="node"><title>Node3</title>
<g id="a_node3"><a xlink:href="analyzer_8h.html" target="_top" xlink:title="Algebra expression simplifications. ">
<polygon fill="white" stroke="black" points="2170,-593.5 2170,-612.5 2282,-612.5 2282,-593.5 2170,-593.5"/>
<text text-anchor="middle" x="2226" y="-600.5" font-family="Helvetica,sans-Serif" font-size="10.00">tvm/arith/analyzer.h</text>
</a>
</g>
</g>
<!-- Node2&#45;&gt;Node3 -->
<g id="edge2" class="edge"><title>Node2&#45;&gt;Node3</title>
<path fill="none" stroke="midnightblue" d="M1816.52,-817.427C1843.69,-809.366 1884.25,-796.276 1918,-781 2030.69,-729.988 2155.87,-650.258 2204.79,-618.125"/>
<polygon fill="midnightblue" stroke="midnightblue" points="2206.85,-620.955 2213.27,-612.526 2203,-615.112 2206.85,-620.955"/>
</g>
<!-- Node11 -->
<g id="node11" class="node"><title>Node11</title>
<polygon fill="white" stroke="#bfbfbf" points="2489,-6 2489,-25 2533,-25 2533,-6 2489,-6"/>
<text text-anchor="middle" x="2511" y="-13" font-family="Helvetica,sans-Serif" font-size="10.00">string</text>
</g>
<!-- Node2&#45;&gt;Node11 -->
<g id="edge135" class="edge"><title>Node2&#45;&gt;Node11</title>
<path fill="none" stroke="midnightblue" d="M1839.07,-824.546C2075.45,-817.381 3021,-781.149 3021,-660 3021,-660 3021,-660 3021,-132 3021,-33.6094 2655.37,-19.0314 2543.28,-16.874"/>
<polygon fill="midnightblue" stroke="midnightblue" points="2543.3,-13.374 2533.24,-16.7016 2543.18,-20.373 2543.3,-13.374"/>
</g>
<!-- Node17 -->
<g id="node17" class="node"><title>Node17</title>
<polygon fill="white" stroke="#bfbfbf" points="1515.5,-67.5 1515.5,-86.5 1562.5,-86.5 1562.5,-67.5 1515.5,-67.5"/>
<text text-anchor="middle" x="1539" y="-74.5" font-family="Helvetica,sans-Serif" font-size="10.00">vector</text>
</g>
<!-- Node2&#45;&gt;Node17 -->
<g id="edge136" class="edge"><title>Node2&#45;&gt;Node17</title>
<path fill="none" stroke="midnightblue" d="M1732.79,-821.274C1688.04,-815.82 1623.2,-804.391 1571,-781 1526.63,-761.117 1483,-764.624 1483,-716 1483,-716 1483,-716 1483,-479 1483,-375.283 1461.79,-343.912 1496,-246 1514.51,-193.031 1551.98,-196.464 1569,-143 1574.45,-125.872 1564.17,-107.352 1554.19,-94.4783"/>
<polygon fill="midnightblue" stroke="midnightblue" points="1556.64,-91.9554 1547.53,-86.5547 1551.29,-96.4608 1556.64,-91.9554"/>
</g>
<!-- Node18 -->
<g id="node18" class="node"><title>Node18</title>
<polygon fill="white" stroke="#bfbfbf" points="2556.5,-67.5 2556.5,-86.5 2649.5,-86.5 2649.5,-67.5 2556.5,-67.5"/>
<text text-anchor="middle" x="2603" y="-74.5" font-family="Helvetica,sans-Serif" font-size="10.00">unordered_map</text>
</g>
<!-- Node2&#45;&gt;Node18 -->
<g id="edge137" class="edge"><title>Node2&#45;&gt;Node18</title>
<path fill="none" stroke="midnightblue" d="M1839.04,-823.761C2035.4,-814.686 2719.23,-775.884 2905,-669 2962.25,-636.06 2983,-608.551 2983,-542.5 2983,-542.5 2983,-542.5 2983,-255 2983,-114.135 2765.77,-85.0971 2659.8,-79.3123"/>
<polygon fill="midnightblue" stroke="midnightblue" points="2659.76,-75.8059 2649.6,-78.8085 2659.41,-82.7974 2659.76,-75.8059"/>
</g>
<!-- Node27 -->
<g id="node27" class="node"><title>Node27</title>
<g id="a_node27"><a xlink:href="tir_2expr_8h.html" target="_top" xlink:title="TIR expressions. ">
<polygon fill="white" stroke="black" points="1873,-470.5 1873,-489.5 1953,-489.5 1953,-470.5 1873,-470.5"/>
<text text-anchor="middle" x="1913" y="-477.5" font-family="Helvetica,sans-Serif" font-size="10.00">tvm/tir/expr.h</text>
</a>
</g>
</g>
<!-- Node2&#45;&gt;Node27 -->
<g id="edge132" class="edge"><title>Node2&#45;&gt;Node27</title>
<path fill="none" stroke="midnightblue" d="M1732.78,-823.009C1665.68,-816.033 1559,-792.857 1559,-716 1559,-716 1559,-716 1559,-602 1559,-550.658 1599.6,-547.985 1646,-526 1716.24,-492.719 1807.13,-483.657 1862.69,-481.412"/>
<polygon fill="midnightblue" stroke="midnightblue" points="1863.1,-484.9 1872.98,-481.058 1862.86,-477.904 1863.1,-484.9"/>
</g>
<!-- Node30 -->
<g id="node30" class="node"><title>Node30</title>
<g id="a_node30"><a xlink:href="tensor_8h.html" target="_top" xlink:title="Dataflow tensor object. ">
<polygon fill="white" stroke="black" points="1742,-649.5 1742,-668.5 1832,-668.5 1832,-649.5 1742,-649.5"/>
<text text-anchor="middle" x="1787" y="-656.5" font-family="Helvetica,sans-Serif" font-size="10.00">tvm/te/tensor.h</text>
</a>
</g>
</g>
<!-- Node2&#45;&gt;Node30 -->
<g id="edge92" class="edge"><title>Node2&#45;&gt;Node30</title>
<path fill="none" stroke="midnightblue" d="M1786.05,-817.075C1786.21,-790.945 1786.67,-714.211 1786.89,-678.577"/>
<polygon fill="midnightblue" stroke="midnightblue" points="1790.39,-678.589 1786.95,-668.568 1783.39,-678.547 1790.39,-678.589"/>
</g>
<!-- Node33 -->
<g id="node33" class="node"><title>Node33</title>
<g id="a_node33"><a xlink:href="tir_2op_8h.html" target="_top" xlink:title="Common operators defined for Expr. ">
<polygon fill="white" stroke="black" points="2439,-593.5 2439,-612.5 2511,-612.5 2511,-593.5 2439,-593.5"/>
<text text-anchor="middle" x="2475" y="-600.5" font-family="Helvetica,sans-Serif" font-size="10.00">tvm/tir/op.h</text>
</a>
</g>
</g>
<!-- Node2&#45;&gt;Node33 -->
<g id="edge133" class="edge"><title>Node2&#45;&gt;Node33</title>
<path fill="none" stroke="midnightblue" d="M1819.87,-817.47C1853.55,-808.838 1906.58,-794.827 1952,-781 2138.84,-724.117 2359.57,-645.658 2441.89,-616.001"/>
<polygon fill="midnightblue" stroke="midnightblue" points="2443.23,-619.236 2451.45,-612.55 2440.86,-612.651 2443.23,-619.236"/>
</g>
<!-- Node34 -->
<g id="node34" class="node"><title>Node34</title>
<g id="a_node34"><a xlink:href="schedule_8h.html" target="_top" xlink:title="Define a schedule. ">
<polygon fill="white" stroke="black" points="1655.5,-761.5 1655.5,-780.5 1758.5,-780.5 1758.5,-761.5 1655.5,-761.5"/>
<text text-anchor="middle" x="1707" y="-768.5" font-family="Helvetica,sans-Serif" font-size="10.00">tvm/te/schedule.h</text>
</a>
</g>
</g>
<!-- Node2&#45;&gt;Node34 -->
<g id="edge118" class="edge"><title>Node2&#45;&gt;Node34</title>
<path fill="none" stroke="midnightblue" d="M1773.31,-817.324C1761.1,-808.979 1742.42,-796.212 1728,-786.352"/>
<polygon fill="midnightblue" stroke="midnightblue" points="1729.89,-783.408 1719.66,-780.655 1725.94,-789.187 1729.89,-783.408"/>
</g>
<!-- Node36 -->
<g id="node36" class="node"><title>Node36</title>
<g id="a_node36"><a xlink:href="buffer_8h.html" target="_top" xlink:title="Symbolic n&#45;dimensional array, to represent a memory buffer. ">
<polygon fill="white" stroke="black" points="1892.5,-649.5 1892.5,-668.5 1979.5,-668.5 1979.5,-649.5 1892.5,-649.5"/>
<text text-anchor="middle" x="1936" y="-656.5" font-family="Helvetica,sans-Serif" font-size="10.00">tvm/tir/buffer.h</text>
</a>
</g>
</g>
<!-- Node2&#45;&gt;Node36 -->
<g id="edge134" class="edge"><title>Node2&#45;&gt;Node36</title>
<path fill="none" stroke="midnightblue" d="M1814.26,-817.41C1851.75,-804.313 1916.4,-775.399 1944,-725 1951.84,-710.679 1948.37,-691.97 1943.81,-678.303"/>
<polygon fill="midnightblue" stroke="midnightblue" points="1946.94,-676.702 1940.11,-668.604 1940.4,-679.195 1946.94,-676.702"/>
</g>
<!-- Node4 -->
<g id="node4" class="node"><title>Node4</title>
<g id="a_node4"><a xlink:href="with_8h.html" target="_top" xlink:title="RAII wrapper function to enter and exit a context object similar to python&#39;s with syntax...">
<polygon fill="white" stroke="black" points="87,-414.5 87,-433.5 193,-433.5 193,-414.5 87,-414.5"/>
<text text-anchor="middle" x="140" y="-421.5" font-family="Helvetica,sans-Serif" font-size="10.00">tvm/support/with.h</text>
</a>
</g>
</g>
<!-- Node3&#45;&gt;Node4 -->
<g id="edge3" class="edge"><title>Node3&#45;&gt;Node4</title>
<path fill="none" stroke="midnightblue" d="M2169.89,-598.992C2134.85,-597.156 2088.8,-594.82 2048,-593 1841.67,-583.795 374.799,-586.141 192,-490 172.275,-479.626 157.444,-458.162 148.769,-442.734"/>
<polygon fill="midnightblue" stroke="midnightblue" points="151.734,-440.853 143.968,-433.645 145.544,-444.122 151.734,-440.853"/>
</g>
<!-- Node7 -->
<g id="node7" class="node"><title>Node7</title>
<g id="a_node7"><a xlink:href="ir_2expr_8h.html" target="_top" xlink:title="Base expr nodes in TVM. ">
<polygon fill="white" stroke="red" points="1968.5,-414.5 1968.5,-433.5 2045.5,-433.5 2045.5,-414.5 1968.5,-414.5"/>
<text text-anchor="middle" x="2007" y="-421.5" font-family="Helvetica,sans-Serif" font-size="10.00">tvm/ir/expr.h</text>
</a>
</g>
</g>
<!-- Node3&#45;&gt;Node7 -->
<g id="edge6" class="edge"><title>Node3&#45;&gt;Node7</title>
<path fill="none" stroke="midnightblue" d="M2229.19,-593.181C2234.05,-578.078 2241.41,-546.877 2228,-526 2190.16,-467.106 2108.52,-442.126 2055.76,-431.839"/>
<polygon fill="midnightblue" stroke="midnightblue" points="2056.09,-428.339 2045.62,-429.971 2054.82,-435.224 2056.09,-428.339"/>
</g>
<!-- Node16 -->
<g id="node16" class="node"><title>Node16</title>
<polygon fill="white" stroke="#bfbfbf" points="1140.5,-67.5 1140.5,-86.5 1197.5,-86.5 1197.5,-67.5 1140.5,-67.5"/>
<text text-anchor="middle" x="1169" y="-74.5" font-family="Helvetica,sans-Serif" font-size="10.00">memory</text>
</g>
<!-- Node3&#45;&gt;Node16 -->
<g id="edge90" class="edge"><title>Node3&#45;&gt;Node16</title>
<path fill="none" stroke="midnightblue" d="M2169.81,-599.466C2029.21,-590.587 1655.89,-551.117 1411,-378 1296,-296.701 1206.52,-146.305 1178.33,-95.3788"/>
<polygon fill="midnightblue" stroke="midnightblue" points="1181.38,-93.669 1173.52,-86.5698 1175.24,-97.0239 1181.38,-93.669"/>
</g>
<!-- Node3&#45;&gt;Node17 -->
<g id="edge88" class="edge"><title>Node3&#45;&gt;Node17</title>
<path fill="none" stroke="midnightblue" d="M2240.31,-593.337C2267.29,-575.788 2323,-533.232 2323,-481 2323,-481 2323,-481 2323,-423 2323,-256.54 1723.41,-117.374 1572.94,-85.0703"/>
<polygon fill="midnightblue" stroke="midnightblue" points="1573.4,-81.5911 1562.89,-82.9301 1571.94,-88.4374 1573.4,-81.5911"/>
</g>
<!-- Node3&#45;&gt;Node18 -->
<g id="edge89" class="edge"><title>Node3&#45;&gt;Node18</title>
<path fill="none" stroke="midnightblue" d="M2282.32,-594.151C2399.71,-574.172 2665.18,-508.994 2731,-322 2752.38,-261.267 2836.09,-308.063 2693,-123 2681.21,-107.75 2662.86,-97.2863 2645.8,-90.3157"/>
<polygon fill="midnightblue" stroke="midnightblue" points="2646.56,-86.8596 2635.96,-86.6054 2644.09,-93.4093 2646.56,-86.8596"/>
</g>
<!-- Node23 -->
<g id="node23" class="node"><title>Node23</title>
<polygon fill="white" stroke="#bfbfbf" points="2403,-123.5 2403,-142.5 2445,-142.5 2445,-123.5 2403,-123.5"/>
<text text-anchor="middle" x="2424" y="-130.5" font-family="Helvetica,sans-Serif" font-size="10.00">limits</text>
</g>
<!-- Node3&#45;&gt;Node23 -->
<g id="edge91" class="edge"><title>Node3&#45;&gt;Node23</title>
<path fill="none" stroke="midnightblue" d="M2262.58,-593.482C2285.86,-586.635 2315.55,-575.111 2337,-557 2386.1,-515.541 2392.71,-494.973 2413,-434 2444.56,-339.162 2428.55,-309.853 2433,-210 2433.61,-196.236 2434.36,-192.711 2433,-179 2432.13,-170.17 2430.31,-160.505 2428.53,-152.404"/>
<polygon fill="midnightblue" stroke="midnightblue" points="2431.92,-151.494 2426.23,-142.551 2425.1,-153.085 2431.92,-151.494"/>
</g>
<!-- Node26 -->
<g id="node26" class="node"><title>Node26</title>
<g id="a_node26"><a xlink:href="int__set_8h.html" target="_top" xlink:title="Integer set. ">
<polygon fill="white" stroke="black" points="2115,-532 2115,-551 2219,-551 2219,-532 2115,-532"/>
<text text-anchor="middle" x="2167" y="-539" font-family="Helvetica,sans-Serif" font-size="10.00">tvm/arith/int_set.h</text>
</a>
</g>
</g>
<!-- Node3&#45;&gt;Node26 -->
<g id="edge67" class="edge"><title>Node3&#45;&gt;Node26</title>
<path fill="none" stroke="midnightblue" d="M2217.55,-593.475C2208.43,-584.285 2193.73,-569.456 2182.52,-558.156"/>
<polygon fill="midnightblue" stroke="midnightblue" points="2184.96,-555.646 2175.44,-551.009 2179.99,-560.574 2184.96,-555.646"/>
</g>
<!-- Node5 -->
<g id="node5" class="node"><title>Node5</title>
<polygon fill="white" stroke="#bfbfbf" points="419,-6 419,-25 505,-25 505,-6 419,-6"/>
<text text-anchor="middle" x="462" y="-13" font-family="Helvetica,sans-Serif" font-size="10.00">dmlc/logging.h</text>
</g>
<!-- Node4&#45;&gt;Node5 -->
<g id="edge4" class="edge"><title>Node4&#45;&gt;Node5</title>
<path fill="none" stroke="midnightblue" d="M144.897,-414.269C168.61,-372.459 275.258,-189.689 395,-67 408.52,-53.1473 426.058,-40.0684 439.799,-30.6928"/>
<polygon fill="midnightblue" stroke="midnightblue" points="441.819,-33.5529 448.2,-25.0956 437.937,-27.7274 441.819,-33.5529"/>
</g>
<!-- Node6 -->
<g id="node6" class="node"><title>Node6</title>
<polygon fill="white" stroke="#bfbfbf" points="188,-6 188,-25 230,-25 230,-6 188,-6"/>
<text text-anchor="middle" x="209" y="-13" font-family="Helvetica,sans-Serif" font-size="10.00">utility</text>
</g>
<!-- Node4&#45;&gt;Node6 -->
<g id="edge5" class="edge"><title>Node4&#45;&gt;Node6</title>
<path fill="none" stroke="midnightblue" d="M130.557,-414.311C112.754,-396.933 76,-355.863 76,-313 76,-313 76,-313 76,-132 76,-101.205 79.1145,-89.6305 100,-67 120.793,-44.4702 153.646,-31.1632 177.854,-23.9159"/>
<polygon fill="midnightblue" stroke="midnightblue" points="178.956,-27.2421 187.639,-21.1717 177.065,-20.5021 178.956,-27.2421"/>
</g>
<!-- Node8 -->
<g id="node8" class="node"><title>Node8</title>
<g id="a_node8"><a xlink:href="object_8h.html" target="_top" xlink:title="A managed object in the TVM runtime. ">
<polygon fill="white" stroke="red" points="599.5,-67.5 599.5,-86.5 716.5,-86.5 716.5,-67.5 599.5,-67.5"/>
<text text-anchor="middle" x="658" y="-74.5" font-family="Helvetica,sans-Serif" font-size="10.00">tvm/runtime/object.h</text>
</a>
</g>
</g>
<!-- Node7&#45;&gt;Node8 -->
<g id="edge7" class="edge"><title>Node7&#45;&gt;Node8</title>
<path fill="none" stroke="midnightblue" d="M1968.25,-415.603C1965.12,-415.046 1962.01,-414.505 1959,-414 1851.33,-395.936 1823.16,-398.917 1716,-378 1472.24,-330.418 1418.45,-283.887 1173,-246 1114.67,-236.996 687.239,-249.074 643,-210 613.697,-184.118 619.26,-160.592 630,-123 632.902,-112.844 638.832,-102.747 644.49,-94.6991"/>
<polygon fill="midnightblue" stroke="midnightblue" points="647.376,-96.6853 650.588,-86.5891 641.781,-92.4786 647.376,-96.6853"/>
</g>
<!-- Node10 -->
<g id="node10" class="node"><title>Node10</title>
<polygon fill="white" stroke="#bfbfbf" points="1780,-6 1780,-25 1848,-25 1848,-6 1780,-6"/>
<text text-anchor="middle" x="1814" y="-13" font-family="Helvetica,sans-Serif" font-size="10.00">type_traits</text>
</g>
<!-- Node7&#45;&gt;Node10 -->
<g id="edge66" class="edge"><title>Node7&#45;&gt;Node10</title>
<path fill="none" stroke="midnightblue" d="M2012.31,-414.33C2027.56,-388.295 2069,-308.727 2047,-246 2014.19,-152.475 1989.82,-130.828 1914,-67 1894.35,-50.4564 1868.35,-37.5409 1847.79,-28.9136"/>
<polygon fill="midnightblue" stroke="midnightblue" points="1849.06,-25.6519 1838.48,-25.1399 1846.44,-32.1394 1849.06,-25.6519"/>
</g>
<!-- Node7&#45;&gt;Node11 -->
<g id="edge63" class="edge"><title>Node7&#45;&gt;Node11</title>
<path fill="none" stroke="midnightblue" d="M2023.92,-414.471C2055.73,-398.153 2126.22,-360.68 2181,-322 2243.85,-277.624 2257.36,-263.136 2313,-210 2351.21,-173.514 2356.43,-160.146 2394,-123 2428.09,-89.2869 2470.09,-52.0317 2493.36,-31.7405"/>
<polygon fill="midnightblue" stroke="midnightblue" points="2495.79,-34.2713 2501.04,-25.0703 2491.2,-28.9872 2495.79,-34.2713"/>
</g>
<!-- Node12 -->
<g id="node12" class="node"><title>Node12</title>
<g id="a_node12"><a xlink:href="node_8h.html" target="_top" xlink:title="Definitions and helper macros for IR/AST nodes. ">
<polygon fill="white" stroke="red" points="1833,-302.5 1833,-321.5 1931,-321.5 1931,-302.5 1833,-302.5"/>
<text text-anchor="middle" x="1882" y="-309.5" font-family="Helvetica,sans-Serif" font-size="10.00">tvm/node/node.h</text>
</a>
</g>
</g>
<!-- Node7&#45;&gt;Node12 -->
<g id="edge13" class="edge"><title>Node7&#45;&gt;Node12</title>
<path fill="none" stroke="midnightblue" d="M1997.19,-414.368C1976.11,-395.814 1926.22,-351.913 1899.54,-328.438"/>
<polygon fill="midnightblue" stroke="midnightblue" points="1901.58,-325.57 1891.76,-321.591 1896.96,-330.825 1901.58,-325.57"/>
</g>
<!-- Node13 -->
<g id="node13" class="node"><title>Node13</title>
<g id="a_node13"><a xlink:href="node_2container_8h.html" target="_top" xlink:title="Array/Map container in the DSL graph. ">
<polygon fill="white" stroke="red" points="1505.5,-246.5 1505.5,-265.5 1624.5,-265.5 1624.5,-246.5 1505.5,-246.5"/>
<text text-anchor="middle" x="1565" y="-253.5" font-family="Helvetica,sans-Serif" font-size="10.00">tvm/node/container.h</text>
</a>
</g>
</g>
<!-- Node7&#45;&gt;Node13 -->
<g id="edge56" class="edge"><title>Node7&#45;&gt;Node13</title>
<path fill="none" stroke="midnightblue" d="M1968.5,-415.724C1965.29,-415.134 1962.09,-414.553 1959,-414 1865.36,-397.233 1833.19,-420.343 1748,-378 1703.79,-356.028 1708.17,-329.24 1667,-302 1646.19,-288.232 1620.48,-276.92 1600.07,-269.081"/>
<polygon fill="midnightblue" stroke="midnightblue" points="1601.12,-265.736 1590.53,-265.516 1598.67,-272.294 1601.12,-265.736"/>
</g>
<!-- Node7&#45;&gt;Node23 -->
<g id="edge65" class="edge"><title>Node7&#45;&gt;Node23</title>
<path fill="none" stroke="midnightblue" d="M2023.26,-414.497C2054.57,-397.926 2125.07,-359.629 2181,-322 2268.64,-263.042 2366.09,-182.806 2405.74,-149.488"/>
<polygon fill="midnightblue" stroke="midnightblue" points="2408.33,-151.885 2413.71,-142.763 2403.81,-146.534 2408.33,-151.885"/>
</g>
<!-- Node24 -->
<g id="node24" class="node"><title>Node24</title>
<g id="a_node24"><a xlink:href="ir_2type_8h.html" target="_top" xlink:title="IR/AST nodes for the unified type system in TVM. ">
<polygon fill="white" stroke="red" points="1757.5,-358.5 1757.5,-377.5 1834.5,-377.5 1834.5,-358.5 1757.5,-358.5"/>
<text text-anchor="middle" x="1796" y="-365.5" font-family="Helvetica,sans-Serif" font-size="10.00">tvm/ir/type.h</text>
</a>
</g>
</g>
<!-- Node7&#45;&gt;Node24 -->
<g id="edge57" class="edge"><title>Node7&#45;&gt;Node24</title>
<path fill="none" stroke="midnightblue" d="M1973.57,-414.444C1937.14,-405.122 1878.77,-390.183 1838.97,-379.997"/>
<polygon fill="midnightblue" stroke="midnightblue" points="1839.83,-376.605 1829.28,-377.516 1838.1,-383.387 1839.83,-376.605"/>
</g>
<!-- Node25 -->
<g id="node25" class="node"><title>Node25</title>
<polygon fill="white" stroke="#bfbfbf" points="2157,-358.5 2157,-377.5 2219,-377.5 2219,-358.5 2157,-358.5"/>
<text text-anchor="middle" x="2188" y="-365.5" font-family="Helvetica,sans-Serif" font-size="10.00">algorithm</text>
</g>
<!-- Node7&#45;&gt;Node25 -->
<g id="edge64" class="edge"><title>Node7&#45;&gt;Node25</title>
<path fill="none" stroke="midnightblue" d="M2035.68,-414.444C2066.53,-405.241 2115.73,-390.562 2149.83,-380.388"/>
<polygon fill="midnightblue" stroke="midnightblue" points="2150.87,-383.729 2159.45,-377.516 2148.87,-377.021 2150.87,-383.729"/>
</g>
<!-- Node8&#45;&gt;Node5 -->
<g id="edge8" class="edge"><title>Node8&#45;&gt;Node5</title>
<path fill="none" stroke="midnightblue" d="M629.918,-67.4751C595.715,-57.092 537.803,-39.5116 499.73,-27.9538"/>
<polygon fill="midnightblue" stroke="midnightblue" points="500.615,-24.5649 490.03,-25.0091 498.582,-31.2631 500.615,-24.5649"/>
</g>
<!-- Node8&#45;&gt;Node6 -->
<g id="edge12" class="edge"><title>Node8&#45;&gt;Node6</title>
<path fill="none" stroke="midnightblue" d="M599.301,-68.2214C503.011,-55.4613 314.776,-30.5171 240.357,-20.6553"/>
<polygon fill="midnightblue" stroke="midnightblue" points="240.6,-17.1571 230.227,-19.313 239.681,-24.0964 240.6,-17.1571"/>
</g>
<!-- Node9 -->
<g id="node9" class="node"><title>Node9</title>
<g id="a_node9"><a xlink:href="c__runtime__api_8h.html" target="_top" xlink:title="tvm/runtime/c_runtime\l_api.h">
<polygon fill="white" stroke="red" points="943.5,-0.5 943.5,-30.5 1070.5,-30.5 1070.5,-0.5 943.5,-0.5"/>
<text text-anchor="start" x="951.5" y="-18.5" font-family="Helvetica,sans-Serif" font-size="10.00">tvm/runtime/c_runtime</text>
<text text-anchor="middle" x="1007" y="-7.5" font-family="Helvetica,sans-Serif" font-size="10.00">_api.h</text>
</a>
</g>
</g>
<!-- Node8&#45;&gt;Node9 -->
<g id="edge9" class="edge"><title>Node8&#45;&gt;Node9</title>
<path fill="none" stroke="midnightblue" d="M708.003,-67.4751C766.985,-57.4194 865.563,-40.6132 933.301,-29.0648"/>
<polygon fill="midnightblue" stroke="midnightblue" points="934.21,-32.4604 943.479,-27.3295 933.033,-25.5599 934.21,-32.4604"/>
</g>
<!-- Node8&#45;&gt;Node10 -->
<g id="edge10" class="edge"><title>Node8&#45;&gt;Node10</title>
<path fill="none" stroke="midnightblue" d="M716.516,-72.9881C919.471,-62.542 1590.47,-28.0051 1769.68,-18.7814"/>
<polygon fill="midnightblue" stroke="midnightblue" points="1769.99,-22.2702 1779.79,-18.2607 1769.63,-15.2795 1769.99,-22.2702"/>
</g>
<!-- Node8&#45;&gt;Node11 -->
<g id="edge11" class="edge"><title>Node8&#45;&gt;Node11</title>
<path fill="none" stroke="midnightblue" d="M716.629,-74.0407C771.715,-72.2044 856.45,-69.3915 930,-67 1552.48,-46.7601 2312.84,-22.7482 2478.26,-17.5319"/>
<polygon fill="midnightblue" stroke="midnightblue" points="2478.82,-21.0159 2488.71,-17.2024 2478.6,-14.0194 2478.82,-21.0159"/>
</g>
<!-- Node12&#45;&gt;Node6 -->
<g id="edge54" class="edge"><title>Node12&#45;&gt;Node6</title>
<path fill="none" stroke="midnightblue" d="M1847.35,-302.429C1811.62,-293.537 1754.33,-279.121 1705,-266 1672.9,-257.463 1665.81,-251.178 1633,-246 1257.75,-186.775 1157.1,-246.907 779,-210 730.219,-205.238 387.354,-163.857 343,-143 314.829,-129.753 252.051,-63.5429 223.562,-32.5496"/>
<polygon fill="midnightblue" stroke="midnightblue" points="226.126,-30.1665 216.795,-25.1473 220.959,-34.8896 226.126,-30.1665"/>
</g>
<!-- Node12&#45;&gt;Node8 -->
<g id="edge15" class="edge"><title>Node12&#45;&gt;Node8</title>
<path fill="none" stroke="midnightblue" d="M1863.93,-302.28C1832.49,-287.585 1765.3,-258.292 1705,-246 1392.8,-182.359 1304.74,-252.767 989,-210 921.094,-200.802 741.34,-186.02 688,-143 673.661,-131.435 665.869,-111.473 661.85,-96.7137"/>
<polygon fill="midnightblue" stroke="midnightblue" points="665.181,-95.5885 659.466,-86.6667 658.37,-97.2047 665.181,-95.5885"/>
</g>
<!-- Node12&#45;&gt;Node9 -->
<g id="edge14" class="edge"><title>Node12&#45;&gt;Node9</title>
<path fill="none" stroke="midnightblue" d="M1881.87,-302.307C1881.6,-283.063 1881,-235.405 1881,-195.5 1881,-195.5 1881,-195.5 1881,-132 1881,-71.7356 1819.86,-83.849 1762,-67 1635.68,-30.2149 1244.81,-20.0773 1080.72,-17.4074"/>
<polygon fill="midnightblue" stroke="midnightblue" points="1080.77,-13.9078 1070.71,-17.2493 1080.66,-20.907 1080.77,-13.9078"/>
</g>
<!-- Node12&#45;&gt;Node10 -->
<g id="edge55" class="edge"><title>Node12&#45;&gt;Node10</title>
<path fill="none" stroke="midnightblue" d="M1885.56,-302.273C1898.52,-269.047 1940.08,-148.231 1895,-67 1885.23,-49.3949 1866.49,-37.1255 1849.49,-29.0928"/>
<polygon fill="midnightblue" stroke="midnightblue" points="1850.86,-25.8713 1840.3,-25.059 1848.05,-32.2816 1850.86,-25.8713"/>
</g>
<!-- Node12&#45;&gt;Node11 -->
<g id="edge52" class="edge"><title>Node12&#45;&gt;Node11</title>
<path fill="none" stroke="midnightblue" d="M1889.55,-302.11C1915.23,-272.386 2002.8,-175.394 2095,-123 2150.76,-91.3112 2166.5,-85.1898 2228,-67 2316.88,-40.7146 2425.73,-25.9904 2478.81,-19.8861"/>
<polygon fill="midnightblue" stroke="midnightblue" points="2479.41,-23.3404 2488.96,-18.7463 2478.63,-16.3841 2479.41,-23.3404"/>
</g>
<!-- Node12&#45;&gt;Node13 -->
<g id="edge16" class="edge"><title>Node12&#45;&gt;Node13</title>
<path fill="none" stroke="midnightblue" d="M1832.82,-302.622C1776.84,-293.086 1685.4,-277.509 1625.2,-267.256"/>
<polygon fill="midnightblue" stroke="midnightblue" points="1625.53,-263.761 1615.08,-265.532 1624.35,-270.661 1625.53,-263.761"/>
</g>
<!-- Node12&#45;&gt;Node17 -->
<g id="edge53" class="edge"><title>Node12&#45;&gt;Node17</title>
<path fill="none" stroke="midnightblue" d="M1874.14,-302.247C1853.87,-279.962 1797.57,-219.951 1743,-179 1703.49,-149.35 1691.23,-144.992 1647,-123 1622.24,-110.687 1593.27,-98.743 1571.57,-90.258"/>
<polygon fill="midnightblue" stroke="midnightblue" points="1572.74,-86.9589 1562.15,-86.614 1570.21,-93.4871 1572.74,-86.9589"/>
</g>
<!-- Node13&#45;&gt;Node6 -->
<g id="edge50" class="edge"><title>Node13&#45;&gt;Node6</title>
<path fill="none" stroke="midnightblue" d="M1505.49,-253.17C1329.24,-247.577 811.817,-229.884 644,-210 484.986,-191.159 423.867,-230.864 290,-143 249.967,-116.724 225.69,-63.0589 215.162,-34.8151"/>
<polygon fill="midnightblue" stroke="midnightblue" points="218.335,-33.2889 211.692,-25.0349 211.738,-35.6297 218.335,-33.2889"/>
</g>
<!-- Node13&#45;&gt;Node8 -->
<g id="edge17" class="edge"><title>Node13&#45;&gt;Node8</title>
<path fill="none" stroke="midnightblue" d="M1505.32,-247.993C1498.14,-247.261 1490.91,-246.576 1484,-246 1197.44,-222.113 1120.16,-265.466 838,-210 748.494,-192.405 696.937,-217.288 644,-143 634.189,-129.232 640.185,-109.944 647.114,-95.9574"/>
<polygon fill="midnightblue" stroke="midnightblue" points="650.362,-97.3143 652.111,-86.8648 644.227,-93.9429 650.362,-97.3143"/>
</g>
<!-- Node13&#45;&gt;Node10 -->
<g id="edge47" class="edge"><title>Node13&#45;&gt;Node10</title>
<path fill="none" stroke="midnightblue" d="M1580.03,-246.452C1594.3,-238.021 1616.02,-224.347 1633,-210 1702.31,-151.421 1772.29,-68.2136 1800.74,-33.1248"/>
<polygon fill="midnightblue" stroke="midnightblue" points="1803.51,-35.2686 1807.05,-25.285 1798.06,-30.878 1803.51,-35.2686"/>
</g>
<!-- Node13&#45;&gt;Node11 -->
<g id="edge51" class="edge"><title>Node13&#45;&gt;Node11</title>
<path fill="none" stroke="midnightblue" d="M1588.47,-246.386C1627.49,-232.103 1708.26,-202.74 1777,-179 1926.19,-127.476 1960.1,-102.012 2114,-67 2247.44,-36.6428 2410.55,-23.1047 2478.69,-18.475"/>
<polygon fill="midnightblue" stroke="midnightblue" points="2479.04,-21.9594 2488.79,-17.8073 2478.58,-14.9746 2479.04,-21.9594"/>
</g>
<!-- Node14 -->
<g id="node14" class="node"><title>Node14</title>
<g id="a_node14"><a xlink:href="packed__func_8h.html" target="_top" xlink:title="Type&#45;erased function used across TVM API. ">
<polygon fill="white" stroke="black" points="998.5,-179.5 998.5,-209.5 1111.5,-209.5 1111.5,-179.5 998.5,-179.5"/>
<text text-anchor="start" x="1006.5" y="-197.5" font-family="Helvetica,sans-Serif" font-size="10.00">tvm/runtime/packed</text>
<text text-anchor="middle" x="1055" y="-186.5" font-family="Helvetica,sans-Serif" font-size="10.00">_func.h</text>
</a>
</g>
</g>
<!-- Node13&#45;&gt;Node14 -->
<g id="edge18" class="edge"><title>Node13&#45;&gt;Node14</title>
<path fill="none" stroke="midnightblue" d="M1505.5,-248.058C1409.73,-236.885 1222.01,-214.985 1121.79,-203.292"/>
<polygon fill="midnightblue" stroke="midnightblue" points="1122.12,-199.807 1111.78,-202.125 1121.31,-206.76 1122.12,-199.807"/>
</g>
<!-- Node13&#45;&gt;Node17 -->
<g id="edge48" class="edge"><title>Node13&#45;&gt;Node17</title>
<path fill="none" stroke="midnightblue" d="M1575.23,-246.344C1599.46,-224.776 1656.31,-167.196 1629,-123 1616.74,-103.169 1592.81,-91.7844 1572.7,-85.4297"/>
<polygon fill="midnightblue" stroke="midnightblue" points="1573.49,-82.0149 1562.91,-82.6231 1571.56,-88.7437 1573.49,-82.0149"/>
</g>
<!-- Node13&#45;&gt;Node18 -->
<g id="edge49" class="edge"><title>Node13&#45;&gt;Node18</title>
<path fill="none" stroke="midnightblue" d="M1604.43,-246.429C1708.85,-223.936 2001.38,-162.251 2247,-123 2352.39,-106.158 2476.16,-91.7042 2546.51,-83.9851"/>
<polygon fill="midnightblue" stroke="midnightblue" points="2546.93,-87.4599 2556.5,-82.8956 2546.17,-80.5012 2546.93,-87.4599"/>
</g>
<!-- Node14&#45;&gt;Node5 -->
<g id="edge19" class="edge"><title>Node14&#45;&gt;Node5</title>
<path fill="none" stroke="midnightblue" d="M998.277,-191.209C842.667,-184.652 419.251,-164.87 399,-143 367.898,-109.411 415.598,-57.5869 443.754,-31.9508"/>
<polygon fill="midnightblue" stroke="midnightblue" points="446.253,-34.4132 451.426,-25.1673 441.616,-29.1691 446.253,-34.4132"/>
</g>
<!-- Node14&#45;&gt;Node6 -->
<g id="edge45" class="edge"><title>Node14&#45;&gt;Node6</title>
<path fill="none" stroke="midnightblue" d="M998.45,-190.985C847.528,-184.025 442.82,-163.657 386,-143 331.52,-123.194 327.175,-100.689 280,-67 263.036,-54.8854 243.76,-41.1792 229.579,-31.1059"/>
<polygon fill="midnightblue" stroke="midnightblue" points="231.25,-28.0001 221.07,-25.0641 227.197,-33.7076 231.25,-28.0001"/>
</g>
<!-- Node14&#45;&gt;Node8 -->
<g id="edge38" class="edge"><title>Node14&#45;&gt;Node8</title>
<path fill="none" stroke="midnightblue" d="M998.492,-189.823C914.828,-183.593 762.744,-169.031 715,-143 694.702,-131.933 678.195,-110.652 668.265,-95.4551"/>
<polygon fill="midnightblue" stroke="midnightblue" points="671.212,-93.566 662.957,-86.9245 665.268,-97.2641 671.212,-93.566"/>
</g>
<!-- Node14&#45;&gt;Node9 -->
<g id="edge20" class="edge"><title>Node14&#45;&gt;Node9</title>
<path fill="none" stroke="midnightblue" d="M998.323,-191.724C962.434,-187.296 918.506,-175.068 895,-143 865.211,-102.36 925.83,-59.3018 968.939,-35.3694"/>
<polygon fill="midnightblue" stroke="midnightblue" points="970.701,-38.3954 977.833,-30.5605 967.372,-32.2378 970.701,-38.3954"/>
</g>
<!-- Node14&#45;&gt;Node10 -->
<g id="edge46" class="edge"><title>Node14&#45;&gt;Node10</title>
<path fill="none" stroke="midnightblue" d="M1058.77,-179.419C1066.85,-152.267 1088.67,-93.0558 1131,-67 1185.21,-33.6315 1626.63,-20.7522 1769.54,-17.4325"/>
<polygon fill="midnightblue" stroke="midnightblue" points="1769.78,-20.9281 1779.69,-17.2011 1769.62,-13.9299 1769.78,-20.9281"/>
</g>
<!-- Node14&#45;&gt;Node11 -->
<g id="edge42" class="edge"><title>Node14&#45;&gt;Node11</title>
<path fill="none" stroke="midnightblue" d="M1111.71,-186.318C1266.32,-166.772 1708.24,-111.129 2076,-67 2226.42,-48.9503 2406.24,-28.4021 2478.54,-20.1815"/>
<polygon fill="midnightblue" stroke="midnightblue" points="2479.27,-23.6216 2488.81,-19.0149 2478.48,-16.6663 2479.27,-23.6216"/>
</g>
<!-- Node15 -->
<g id="node15" class="node"><title>Node15</title>
<g id="a_node15"><a xlink:href="runtime_2module_8h.html" target="_top" xlink:title="Runtime container of the functions generated by TVM, This is used to support dynamically link...">
<polygon fill="white" stroke="red" points="1273,-123.5 1273,-142.5 1397,-142.5 1397,-123.5 1273,-123.5"/>
<text text-anchor="middle" x="1335" y="-130.5" font-family="Helvetica,sans-Serif" font-size="10.00">tvm/runtime/module.h</text>
</a>
</g>
</g>
<!-- Node14&#45;&gt;Node15 -->
<g id="edge21" class="edge"><title>Node14&#45;&gt;Node15</title>
<path fill="none" stroke="midnightblue" d="M1111.76,-180.221C1160.83,-169.477 1231.22,-154.549 1279.83,-144.596"/>
<polygon fill="midnightblue" stroke="midnightblue" points="1280.76,-147.979 1289.86,-142.551 1279.36,-141.12 1280.76,-147.979"/>
</g>
<!-- Node14&#45;&gt;Node16 -->
<g id="edge44" class="edge"><title>Node14&#45;&gt;Node16</title>
<path fill="none" stroke="midnightblue" d="M1069.72,-179.498C1080.21,-169.444 1094.6,-155.514 1107,-143 1123.36,-126.489 1141.69,-107.168 1154.15,-93.9072"/>
<polygon fill="midnightblue" stroke="midnightblue" points="1156.79,-96.2037 1161.08,-86.5131 1151.68,-91.4178 1156.79,-96.2037"/>
</g>
<!-- Node14&#45;&gt;Node17 -->
<g id="edge41" class="edge"><title>Node14&#45;&gt;Node17</title>
<path fill="none" stroke="midnightblue" d="M1111.81,-190.763C1182.22,-186.143 1305.24,-174.03 1406,-143 1411.54,-141.294 1475.3,-109.721 1512.49,-91.2175"/>
<polygon fill="midnightblue" stroke="midnightblue" points="1514.37,-94.191 1521.76,-86.6006 1511.25,-87.9248 1514.37,-94.191"/>
</g>
<!-- Node19 -->
<g id="node19" class="node"><title>Node19</title>
<g id="a_node19"><a xlink:href="ndarray_8h.html" target="_top" xlink:title="A device&#45;independent managed NDArray abstraction. ">
<polygon fill="white" stroke="red" points="724.5,-123.5 724.5,-142.5 847.5,-142.5 847.5,-123.5 724.5,-123.5"/>
<text text-anchor="middle" x="786" y="-130.5" font-family="Helvetica,sans-Serif" font-size="10.00">tvm/runtime/ndarray.h</text>
</a>
</g>
</g>
<!-- Node14&#45;&gt;Node19 -->
<g id="edge29" class="edge"><title>Node14&#45;&gt;Node19</title>
<path fill="none" stroke="midnightblue" d="M998.281,-180.954C949.7,-170.209 880.493,-154.901 834.46,-144.719"/>
<polygon fill="midnightblue" stroke="midnightblue" points="834.952,-141.243 824.432,-142.501 833.44,-148.078 834.952,-141.243"/>
</g>
<!-- Node20 -->
<g id="node20" class="node"><title>Node20</title>
<g id="a_node20"><a xlink:href="data__type_8h.html" target="_top" xlink:title="tvm/runtime/data_type.h">
<polygon fill="white" stroke="black" points="939,-67.5 939,-86.5 1075,-86.5 1075,-67.5 939,-67.5"/>
<text text-anchor="middle" x="1007" y="-74.5" font-family="Helvetica,sans-Serif" font-size="10.00">tvm/runtime/data_type.h</text>
</a>
</g>
</g>
<!-- Node14&#45;&gt;Node20 -->
<g id="edge34" class="edge"><title>Node14&#45;&gt;Node20</title>
<path fill="none" stroke="midnightblue" d="M1052.21,-179.319C1049.06,-164.787 1043.29,-141.732 1035,-123 1030.67,-113.218 1024.5,-103.041 1019.05,-94.8441"/>
<polygon fill="midnightblue" stroke="midnightblue" points="1021.9,-92.8087 1013.35,-86.5583 1016.14,-96.7793 1021.9,-92.8087"/>
</g>
<!-- Node21 -->
<g id="node21" class="node"><title>Node21</title>
<polygon fill="white" stroke="#bfbfbf" points="904.5,-123.5 904.5,-142.5 967.5,-142.5 967.5,-123.5 904.5,-123.5"/>
<text text-anchor="middle" x="936" y="-130.5" font-family="Helvetica,sans-Serif" font-size="10.00">functional</text>
</g>
<!-- Node14&#45;&gt;Node21 -->
<g id="edge39" class="edge"><title>Node14&#45;&gt;Node21</title>
<path fill="none" stroke="midnightblue" d="M1026.8,-179.399C1007.28,-169.639 981.475,-156.737 962.365,-147.183"/>
<polygon fill="midnightblue" stroke="midnightblue" points="963.825,-143.999 953.316,-142.658 960.695,-150.26 963.825,-143.999"/>
</g>
<!-- Node22 -->
<g id="node22" class="node"><title>Node22</title>
<polygon fill="white" stroke="#bfbfbf" points="985.5,-123.5 985.5,-142.5 1026.5,-142.5 1026.5,-123.5 985.5,-123.5"/>
<text text-anchor="middle" x="1006" y="-130.5" font-family="Helvetica,sans-Serif" font-size="10.00">tuple</text>
</g>
<!-- Node14&#45;&gt;Node22 -->
<g id="edge40" class="edge"><title>Node14&#45;&gt;Node22</title>
<path fill="none" stroke="midnightblue" d="M1043.39,-179.399C1036.27,-170.753 1027.12,-159.642 1019.65,-150.576"/>
<polygon fill="midnightblue" stroke="midnightblue" points="1022.19,-148.152 1013.13,-142.658 1016.79,-152.602 1022.19,-148.152"/>
</g>
<!-- Node14&#45;&gt;Node23 -->
<g id="edge43" class="edge"><title>Node14&#45;&gt;Node23</title>
<path fill="none" stroke="midnightblue" d="M1111.65,-191.038C1343.45,-180.963 2215.76,-143.05 2392.61,-135.364"/>
<polygon fill="midnightblue" stroke="midnightblue" points="2392.95,-138.853 2402.79,-134.922 2392.65,-131.859 2392.95,-138.853"/>
</g>
<!-- Node15&#45;&gt;Node8 -->
<g id="edge23" class="edge"><title>Node15&#45;&gt;Node8</title>
<path fill="none" stroke="midnightblue" d="M1272.82,-127.041C1146.03,-116.927 858.467,-93.99 726.51,-83.4646"/>
<polygon fill="midnightblue" stroke="midnightblue" points="726.766,-79.974 716.519,-82.6677 726.209,-86.9518 726.766,-79.974"/>
</g>
<!-- Node15&#45;&gt;Node9 -->
<g id="edge22" class="edge"><title>Node15&#45;&gt;Node9</title>
<path fill="none" stroke="midnightblue" d="M1320.38,-123.301C1296.96,-109.665 1249.22,-83.1531 1206,-67 1165.54,-51.8809 1118.8,-39.7604 1080.79,-31.1872"/>
<polygon fill="midnightblue" stroke="midnightblue" points="1081.34,-27.7241 1070.82,-28.9742 1079.82,-34.5578 1081.34,-27.7241"/>
</g>
<!-- Node15&#45;&gt;Node11 -->
<g id="edge26" class="edge"><title>Node15&#45;&gt;Node11</title>
<path fill="none" stroke="midnightblue" d="M1352.42,-123.272C1382.73,-108.566 1447.56,-79.2557 1506,-67 1698.24,-26.682 2328.21,-18.2295 2478.56,-16.77"/>
<polygon fill="midnightblue" stroke="midnightblue" points="2478.97,-20.2665 2488.94,-16.6732 2478.9,-13.2668 2478.97,-20.2665"/>
</g>
<!-- Node15&#45;&gt;Node14 -->
<g id="edge28" class="edge"><title>Node15&#45;&gt;Node14</title>
<path fill="none" stroke="midnightblue" d="M1299.75,-142.533C1255.09,-152.483 1177.46,-169.035 1121.55,-180.566"/>
<polygon fill="midnightblue" stroke="midnightblue" points="1120.81,-177.144 1111.72,-182.587 1122.22,-184.001 1120.81,-177.144"/>
</g>
<!-- Node15&#45;&gt;Node16 -->
<g id="edge24" class="edge"><title>Node15&#45;&gt;Node16</title>
<path fill="none" stroke="midnightblue" d="M1308.7,-123.444C1280.65,-114.32 1236.06,-99.8133 1204.82,-89.6509"/>
<polygon fill="midnightblue" stroke="midnightblue" points="1205.77,-86.2816 1195.18,-86.5164 1203.61,-92.9383 1205.77,-86.2816"/>
</g>
<!-- Node15&#45;&gt;Node17 -->
<g id="edge25" class="edge"><title>Node15&#45;&gt;Node17</title>
<path fill="none" stroke="midnightblue" d="M1367.32,-123.444C1405.01,-113.467 1467.01,-97.0556 1505.29,-86.9242"/>
<polygon fill="midnightblue" stroke="midnightblue" points="1506.64,-90.1862 1515.41,-84.2437 1504.85,-83.4193 1506.64,-90.1862"/>
</g>
<!-- Node15&#45;&gt;Node18 -->
<g id="edge27" class="edge"><title>Node15&#45;&gt;Node18</title>
<path fill="none" stroke="midnightblue" d="M1397.02,-129.359C1613.99,-120.119 2337.17,-89.3207 2546.05,-80.4252"/>
<polygon fill="midnightblue" stroke="midnightblue" points="2546.35,-83.916 2556.19,-79.9936 2546.05,-76.9224 2546.35,-83.916"/>
</g>
<!-- Node19&#45;&gt;Node6 -->
<g id="edge33" class="edge"><title>Node19&#45;&gt;Node6</title>
<path fill="none" stroke="midnightblue" d="M780.9,-123.397C771.766,-108.88 751.104,-79.8472 725,-67 703.138,-56.2406 349.001,-27.5458 240.408,-18.9601"/>
<polygon fill="midnightblue" stroke="midnightblue" points="240.356,-15.4453 230.112,-18.1483 239.806,-22.4236 240.356,-15.4453"/>
</g>
<!-- Node19&#45;&gt;Node8 -->
<g id="edge31" class="edge"><title>Node19&#45;&gt;Node8</title>
<path fill="none" stroke="midnightblue" d="M765.718,-123.444C744.653,-114.557 711.483,-100.563 687.514,-90.4514"/>
<polygon fill="midnightblue" stroke="midnightblue" points="688.761,-87.1787 678.187,-86.5164 686.04,-93.6283 688.761,-87.1787"/>
</g>
<!-- Node19&#45;&gt;Node9 -->
<g id="edge30" class="edge"><title>Node19&#45;&gt;Node9</title>
<path fill="none" stroke="midnightblue" d="M794.08,-123.243C807.156,-109.529 834.298,-82.9105 862,-67 886.699,-52.8145 916.04,-41.6731 941.845,-33.5058"/>
<polygon fill="midnightblue" stroke="midnightblue" points="943.017,-36.8073 951.546,-30.5211 940.958,-30.1169 943.017,-36.8073"/>
</g>
<!-- Node19&#45;&gt;Node17 -->
<g id="edge32" class="edge"><title>Node19&#45;&gt;Node17</title>
<path fill="none" stroke="midnightblue" d="M847.669,-126.772C863.121,-125.499 879.664,-124.169 895,-123 1128.24,-105.223 1409.21,-86.5225 1505.06,-80.2198"/>
<polygon fill="midnightblue" stroke="midnightblue" points="1505.56,-83.6949 1515.31,-79.5471 1505.1,-76.71 1505.56,-83.6949"/>
</g>
<!-- Node20&#45;&gt;Node5 -->
<g id="edge36" class="edge"><title>Node20&#45;&gt;Node5</title>
<path fill="none" stroke="midnightblue" d="M938.802,-68.5546C828.874,-56.5532 614.785,-33.1801 515.252,-22.3137"/>
<polygon fill="midnightblue" stroke="midnightblue" points="515.446,-18.8142 505.125,-21.2081 514.686,-25.7728 515.446,-18.8142"/>
</g>
<!-- Node20&#45;&gt;Node9 -->
<g id="edge35" class="edge"><title>Node20&#45;&gt;Node9</title>
<path fill="none" stroke="midnightblue" d="M1007,-67.4751C1007,-60.471 1007,-50.1919 1007,-40.6956"/>
<polygon fill="midnightblue" stroke="midnightblue" points="1010.5,-40.5229 1007,-30.523 1003.5,-40.523 1010.5,-40.5229"/>
</g>
<!-- Node20&#45;&gt;Node10 -->
<g id="edge37" class="edge"><title>Node20&#45;&gt;Node10</title>
<path fill="none" stroke="midnightblue" d="M1075.44,-68.2829C1080.02,-67.829 1084.58,-67.3965 1089,-67 1346.74,-43.8882 1656.85,-25.3951 1769.98,-18.9545"/>
<polygon fill="midnightblue" stroke="midnightblue" points="1770.2,-22.4474 1779.99,-18.3868 1769.81,-15.4587 1770.2,-22.4474"/>
</g>
<!-- Node24&#45;&gt;Node8 -->
<g id="edge58" class="edge"><title>Node24&#45;&gt;Node8</title>
<path fill="none" stroke="midnightblue" d="M1767.92,-358.49C1691.53,-335.746 1473.24,-273.418 1287,-246 1219.83,-236.111 735.412,-244.61 677,-210 646.764,-192.085 644.711,-176.776 635,-143 630.262,-126.522 638.026,-108.135 645.786,-95.1334"/>
<polygon fill="midnightblue" stroke="midnightblue" points="648.738,-97.0138 651.256,-86.7225 642.87,-93.1973 648.738,-97.0138"/>
</g>
<!-- Node24&#45;&gt;Node11 -->
<g id="edge62" class="edge"><title>Node24&#45;&gt;Node11</title>
<path fill="none" stroke="midnightblue" d="M1832.83,-358.451C1862.55,-350.858 1905.03,-338.421 1940,-322 2087.18,-252.888 2105.56,-203.209 2247,-123 2296.1,-95.1543 2308.8,-88.4968 2361,-67 2400.95,-50.5479 2448.41,-35.2558 2479.08,-25.9046"/>
<polygon fill="midnightblue" stroke="midnightblue" points="2480.24,-29.2095 2488.81,-22.968 2478.22,-22.5084 2480.24,-29.2095"/>
</g>
<!-- Node24&#45;&gt;Node12 -->
<g id="edge60" class="edge"><title>Node24&#45;&gt;Node12</title>
<path fill="none" stroke="midnightblue" d="M1809.82,-358.324C1823.23,-349.9 1843.82,-336.971 1859.59,-327.074"/>
<polygon fill="midnightblue" stroke="midnightblue" points="1861.61,-329.936 1868.22,-321.655 1857.89,-324.008 1861.61,-329.936"/>
</g>
<!-- Node24&#45;&gt;Node13 -->
<g id="edge61" class="edge"><title>Node24&#45;&gt;Node13</title>
<path fill="none" stroke="midnightblue" d="M1786.29,-358.495C1770.33,-344.89 1737.09,-318.126 1705,-302 1675.34,-287.095 1639.69,-275.722 1611.79,-268.138"/>
<polygon fill="midnightblue" stroke="midnightblue" points="1612.45,-264.692 1601.88,-265.516 1610.65,-271.459 1612.45,-264.692"/>
</g>
<!-- Node24&#45;&gt;Node20 -->
<g id="edge59" class="edge"><title>Node24&#45;&gt;Node20</title>
<path fill="none" stroke="midnightblue" d="M1789.24,-358.173C1778.7,-344.832 1757.26,-319.26 1735,-302 1694.13,-270.308 1680.89,-265.525 1633,-246 1475.33,-181.715 1423.72,-201.989 1264,-143 1244.23,-135.698 1241,-129.656 1221,-123 1173.31,-107.127 1117.72,-95.6369 1075.14,-88.2412"/>
<polygon fill="midnightblue" stroke="midnightblue" points="1075.61,-84.7708 1065.17,-86.5413 1074.44,-91.6713 1075.61,-84.7708"/>
</g>
<!-- Node26&#45;&gt;Node7 -->
<g id="edge68" class="edge"><title>Node26&#45;&gt;Node7</title>
<path fill="none" stroke="midnightblue" d="M2154.97,-531.819C2127.75,-512.17 2061.18,-464.109 2027.39,-439.717"/>
<polygon fill="midnightblue" stroke="midnightblue" points="2029.32,-436.797 2019.17,-433.782 2025.23,-442.473 2029.32,-436.797"/>
</g>
<!-- Node26&#45;&gt;Node18 -->
<g id="edge87" class="edge"><title>Node26&#45;&gt;Node18</title>
<path fill="none" stroke="midnightblue" d="M2193.15,-531.939C2235.18,-517.191 2318.77,-483.709 2375,-434 2492.01,-330.564 2572.03,-153.123 2595.71,-96.1655"/>
<polygon fill="midnightblue" stroke="midnightblue" points="2599.03,-97.2869 2599.58,-86.7063 2592.55,-94.6355 2599.03,-97.2869"/>
</g>
<!-- Node26&#45;&gt;Node27 -->
<g id="edge69" class="edge"><title>Node26&#45;&gt;Node27</title>
<path fill="none" stroke="midnightblue" d="M2130.61,-531.975C2085.43,-521.393 2008.35,-503.336 1959.09,-491.797"/>
<polygon fill="midnightblue" stroke="midnightblue" points="1959.86,-488.382 1949.32,-489.509 1958.26,-495.198 1959.86,-488.382"/>
</g>
<!-- Node27&#45;&gt;Node6 -->
<g id="edge86" class="edge"><title>Node27&#45;&gt;Node6</title>
<path fill="none" stroke="midnightblue" d="M1872.98,-475.199C1806.48,-468.612 1669.14,-453.852 1554,-434 1097.9,-355.356 987.78,-314.943 537,-210 415.32,-181.672 366.571,-214.328 264,-143 227.897,-117.894 215.289,-63.7204 211.046,-35.0956"/>
<polygon fill="midnightblue" stroke="midnightblue" points="214.516,-34.6432 209.763,-25.1747 207.574,-35.541 214.516,-34.6432"/>
</g>
<!-- Node27&#45;&gt;Node7 -->
<g id="edge80" class="edge"><title>Node27&#45;&gt;Node7</title>
<path fill="none" stroke="midnightblue" d="M1928.1,-470.324C1942.9,-461.822 1965.69,-448.729 1982.98,-438.797"/>
<polygon fill="midnightblue" stroke="midnightblue" points="1985.01,-441.671 1991.93,-433.655 1981.52,-435.601 1985.01,-441.671"/>
</g>
<!-- Node27&#45;&gt;Node9 -->
<g id="edge78" class="edge"><title>Node27&#45;&gt;Node9</title>
<path fill="none" stroke="midnightblue" d="M1882.53,-470.464C1843.29,-457.645 1776.73,-429.275 1748,-378 1743.65,-370.246 1747.17,-366.85 1748,-358 1752.24,-312.521 1767,-302.676 1767,-257 1767,-257 1767,-257 1767,-193.5 1767,-89.8212 1669.04,-100.716 1571,-67 1482.32,-36.5042 1212.58,-23.415 1080.9,-18.725"/>
<polygon fill="midnightblue" stroke="midnightblue" points="1081.01,-15.2269 1070.9,-18.3754 1080.77,-22.2226 1081.01,-15.2269"/>
</g>
<!-- Node27&#45;&gt;Node11 -->
<g id="edge81" class="edge"><title>Node27&#45;&gt;Node11</title>
<path fill="none" stroke="midnightblue" d="M1953.26,-478.58C2016.91,-476.813 2143.94,-468.775 2245,-434 2291.71,-417.928 2302.59,-409.063 2341,-378 2456.25,-284.786 2497.55,-95.2488 2508.05,-35.1923"/>
<polygon fill="midnightblue" stroke="midnightblue" points="2511.52,-35.694 2509.71,-25.2544 2504.61,-34.5423 2511.52,-35.694"/>
</g>
<!-- Node27&#45;&gt;Node12 -->
<g id="edge70" class="edge"><title>Node27&#45;&gt;Node12</title>
<path fill="none" stroke="midnightblue" d="M1904.52,-470.234C1896.95,-461.75 1886.4,-448.131 1882,-434 1871.17,-399.194 1875.02,-355.981 1878.63,-331.749"/>
<polygon fill="midnightblue" stroke="midnightblue" points="1882.1,-332.207 1880.26,-321.772 1875.19,-331.075 1882.1,-332.207"/>
</g>
<!-- Node27&#45;&gt;Node13 -->
<g id="edge71" class="edge"><title>Node27&#45;&gt;Node13</title>
<path fill="none" stroke="midnightblue" d="M1872.98,-470.593C1844.01,-463.468 1804.56,-451.573 1773,-434 1691.27,-388.496 1611.98,-308.01 1579.91,-273.482"/>
<polygon fill="midnightblue" stroke="midnightblue" points="1582.14,-270.74 1572.8,-265.744 1576.99,-275.476 1582.14,-270.74"/>
</g>
<!-- Node27&#45;&gt;Node18 -->
<g id="edge83" class="edge"><title>Node27&#45;&gt;Node18</title>
<path fill="none" stroke="midnightblue" d="M1953.19,-476.747C2018.84,-470.99 2149.59,-450.545 2228,-378 2300.65,-310.777 2266.81,-256.805 2328,-179 2351.78,-148.761 2359.49,-140.004 2394,-123 2442.24,-99.2303 2502.82,-87.952 2546.32,-82.6396"/>
<polygon fill="midnightblue" stroke="midnightblue" points="2546.9,-86.0955 2556.44,-81.4736 2546.1,-79.1415 2546.9,-86.0955"/>
</g>
<!-- Node27&#45;&gt;Node20 -->
<g id="edge79" class="edge"><title>Node27&#45;&gt;Node20</title>
<path fill="none" stroke="midnightblue" d="M1872.69,-471.054C1836.76,-463.406 1783.05,-450.568 1738,-434 1448.48,-327.513 1120.56,-143.403 1030.78,-91.7988"/>
<polygon fill="midnightblue" stroke="midnightblue" points="1032.34,-88.6582 1021.93,-86.6958 1028.84,-94.7226 1032.34,-88.6582"/>
</g>
<!-- Node27&#45;&gt;Node23 -->
<g id="edge85" class="edge"><title>Node27&#45;&gt;Node23</title>
<path fill="none" stroke="midnightblue" d="M1953.15,-478.973C2044.62,-476.5 2268.51,-456.317 2371,-322 2410.72,-269.941 2420.68,-189.452 2423.17,-153.042"/>
<polygon fill="midnightblue" stroke="midnightblue" points="2426.67,-153.043 2423.74,-142.862 2419.68,-152.648 2426.67,-153.043"/>
</g>
<!-- Node27&#45;&gt;Node25 -->
<g id="edge82" class="edge"><title>Node27&#45;&gt;Node25</title>
<path fill="none" stroke="midnightblue" d="M1943.98,-470.497C1972.85,-462.248 2016.9,-448.831 2054,-434 2093.13,-418.358 2136.75,-396.286 2163.28,-382.312"/>
<polygon fill="midnightblue" stroke="midnightblue" points="2165.05,-385.336 2172.24,-377.557 2161.77,-379.153 2165.05,-385.336"/>
</g>
<!-- Node28 -->
<g id="node28" class="node"><title>Node28</title>
<g id="a_node28"><a xlink:href="functor_8h.html" target="_top" xlink:title="Defines the Functor data structures. ">
<polygon fill="white" stroke="black" points="408.5,-123.5 408.5,-142.5 515.5,-142.5 515.5,-123.5 408.5,-123.5"/>
<text text-anchor="middle" x="462" y="-130.5" font-family="Helvetica,sans-Serif" font-size="10.00">tvm/node/functor.h</text>
</a>
</g>
</g>
<!-- Node27&#45;&gt;Node28 -->
<g id="edge72" class="edge"><title>Node27&#45;&gt;Node28</title>
<path fill="none" stroke="midnightblue" d="M1872.81,-475.377C1816.04,-469.679 1709.4,-456.849 1621,-434 1551.3,-415.983 1536.45,-403.184 1469,-378 1337.23,-328.798 1301.25,-323.753 1173,-266 1155.6,-258.164 1153.36,-251.22 1135,-246 913.877,-183.117 841.15,-269.154 619,-210 567.774,-196.36 513.193,-165.837 483.799,-147.899"/>
<polygon fill="midnightblue" stroke="midnightblue" points="485.52,-144.848 475.176,-142.554 481.832,-150.797 485.52,-144.848"/>
</g>
<!-- Node29 -->
<g id="node29" class="node"><title>Node29</title>
<polygon fill="white" stroke="#bfbfbf" points="1891.5,-414.5 1891.5,-433.5 1950.5,-433.5 1950.5,-414.5 1891.5,-414.5"/>
<text text-anchor="middle" x="1921" y="-421.5" font-family="Helvetica,sans-Serif" font-size="10.00">iostream</text>
</g>
<!-- Node27&#45;&gt;Node29 -->
<g id="edge84" class="edge"><title>Node27&#45;&gt;Node29</title>
<path fill="none" stroke="midnightblue" d="M1914.32,-470.083C1915.38,-462.927 1916.91,-452.635 1918.23,-443.691"/>
<polygon fill="midnightblue" stroke="midnightblue" points="1921.7,-444.156 1919.7,-433.751 1914.78,-443.13 1921.7,-444.156"/>
</g>
<!-- Node28&#45;&gt;Node5 -->
<g id="edge73" class="edge"><title>Node28&#45;&gt;Node5</title>
<path fill="none" stroke="midnightblue" d="M462,-123.319C462,-104.757 462,-60.8391 462,-35.4734"/>
<polygon fill="midnightblue" stroke="midnightblue" points="465.5,-35.282 462,-25.282 458.5,-35.282 465.5,-35.282"/>
</g>
<!-- Node28&#45;&gt;Node6 -->
<g id="edge77" class="edge"><title>Node28&#45;&gt;Node6</title>
<path fill="none" stroke="midnightblue" d="M450.088,-123.486C430.97,-110.106 391.929,-83.9361 356,-67 317.353,-48.7825 270.28,-33.7821 239.987,-24.9879"/>
<polygon fill="midnightblue" stroke="midnightblue" points="240.59,-21.5203 230.014,-22.141 238.669,-28.2514 240.59,-21.5203"/>
</g>
<!-- Node28&#45;&gt;Node8 -->
<g id="edge74" class="edge"><title>Node28&#45;&gt;Node8</title>
<path fill="none" stroke="midnightblue" d="M493.057,-123.444C526.603,-114.201 580.197,-99.4356 617.141,-89.2572"/>
<polygon fill="midnightblue" stroke="midnightblue" points="618.377,-92.5469 627.089,-86.5164 616.518,-85.7984 618.377,-92.5469"/>
</g>
<!-- Node28&#45;&gt;Node10 -->
<g id="edge76" class="edge"><title>Node28&#45;&gt;Node10</title>
<path fill="none" stroke="midnightblue" d="M474.348,-123.42C496.377,-108.662 544.425,-78.9074 590,-67 705.792,-36.7471 1564.2,-20.6535 1769.83,-17.2079"/>
<polygon fill="midnightblue" stroke="midnightblue" points="1770.02,-20.7054 1779.96,-17.0396 1769.9,-13.7063 1770.02,-20.7054"/>
</g>
<!-- Node28&#45;&gt;Node17 -->
<g id="edge75" class="edge"><title>Node28&#45;&gt;Node17</title>
<path fill="none" stroke="midnightblue" d="M515.777,-129.304C706.713,-119.73 1348.93,-87.5301 1504.73,-79.7181"/>
<polygon fill="midnightblue" stroke="midnightblue" points="1505.29,-83.1949 1515.1,-79.1984 1504.94,-76.2037 1505.29,-83.1949"/>
</g>
<!-- Node30&#45;&gt;Node6 -->
<g id="edge116" class="edge"><title>Node30&#45;&gt;Node6</title>
<path fill="none" stroke="midnightblue" d="M1741.69,-656.38C1529.63,-648.557 633.946,-612.762 360,-557 170.596,-518.447 0,-506.288 0,-313 0,-313 0,-313 0,-132 0,-51.7981 119.356,-26.8533 177.674,-19.452"/>
<polygon fill="midnightblue" stroke="midnightblue" points="178.285,-22.9044 187.81,-18.2648 177.471,-15.9519 178.285,-22.9044"/>
</g>
<!-- Node30&#45;&gt;Node10 -->
<g id="edge117" class="edge"><title>Node30&#45;&gt;Node10</title>
<path fill="none" stroke="midnightblue" d="M1832.39,-653.397C1848.37,-651.868 1866.47,-650.241 1883,-649 1953.69,-643.691 2471.31,-664.522 2520,-613 2721.04,-400.276 2328.86,-277.071 2080,-123 2034.7,-94.9531 2023.16,-87.5464 1974,-67 1935.27,-50.8146 1889.45,-36.8503 1856.79,-27.7346"/>
<polygon fill="midnightblue" stroke="midnightblue" points="1857.67,-24.3465 1847.1,-25.0641 1855.81,-31.095 1857.67,-24.3465"/>
</g>
<!-- Node30&#45;&gt;Node11 -->
<g id="edge114" class="edge"><title>Node30&#45;&gt;Node11</title>
<path fill="none" stroke="midnightblue" d="M1832.39,-653.379C1848.37,-651.848 1866.47,-650.225 1883,-649 2029.48,-638.143 2401.52,-652.494 2543,-613 2690.23,-571.9 2831,-577.858 2831,-425 2831,-425 2831,-425 2831,-132 2831,-71.3055 2624.75,-33.6223 2543.42,-21.1215"/>
<polygon fill="midnightblue" stroke="midnightblue" points="2543.66,-17.6182 2533.25,-19.5902 2542.62,-24.5402 2543.66,-17.6182"/>
</g>
<!-- Node30&#45;&gt;Node13 -->
<g id="edge93" class="edge"><title>Node30&#45;&gt;Node13</title>
<path fill="none" stroke="midnightblue" d="M1744.82,-649.441C1658.91,-629.416 1465.66,-570.478 1393,-434 1353.61,-360.017 1474.84,-295.753 1534.23,-269.551"/>
<polygon fill="midnightblue" stroke="midnightblue" points="1535.74,-272.711 1543.53,-265.534 1532.96,-266.284 1535.74,-272.711"/>
</g>
<!-- Node30&#45;&gt;Node17 -->
<g id="edge115" class="edge"><title>Node30&#45;&gt;Node17</title>
<path fill="none" stroke="midnightblue" d="M1741.96,-652.077C1698.54,-645.518 1631.46,-633.122 1576,-613 1466.02,-573.095 1427.68,-542.124 1383,-434 1351.08,-356.738 1340.18,-313.865 1389,-246 1428.49,-191.1 1458.57,-195.664 1501,-143 1512.89,-128.237 1523.51,-109.339 1530.47,-95.7297"/>
<polygon fill="midnightblue" stroke="midnightblue" points="1533.74,-97.0229 1535.05,-86.5096 1527.47,-93.9101 1533.74,-97.0229"/>
</g>
<!-- Node30&#45;&gt;Node27 -->
<g id="edge106" class="edge"><title>Node30&#45;&gt;Node27</title>
<path fill="none" stroke="midnightblue" d="M1793.08,-649.463C1812.65,-621.962 1874.33,-535.319 1900.77,-498.178"/>
<polygon fill="midnightblue" stroke="midnightblue" points="1903.74,-500.045 1906.69,-489.868 1898.04,-495.985 1903.74,-500.045"/>
</g>
<!-- Node31 -->
<g id="node31" class="node"><title>Node31</title>
<g id="a_node31"><a xlink:href="bound_8h.html" target="_top" xlink:title="Bound deducers. ">
<polygon fill="white" stroke="black" points="1937,-593.5 1937,-612.5 2039,-612.5 2039,-593.5 1937,-593.5"/>
<text text-anchor="middle" x="1988" y="-600.5" font-family="Helvetica,sans-Serif" font-size="10.00">tvm/arith/bound.h</text>
</a>
</g>
</g>
<!-- Node30&#45;&gt;Node31 -->
<g id="edge94" class="edge"><title>Node30&#45;&gt;Node31</title>
<path fill="none" stroke="midnightblue" d="M1818.85,-649.444C1853.4,-640.162 1908.68,-625.309 1946.58,-615.127"/>
<polygon fill="midnightblue" stroke="midnightblue" points="1947.55,-618.491 1956.3,-612.516 1945.73,-611.731 1947.55,-618.491"/>
</g>
<!-- Node30&#45;&gt;Node33 -->
<g id="edge107" class="edge"><title>Node30&#45;&gt;Node33</title>
<path fill="none" stroke="midnightblue" d="M1832.4,-653.578C1848.39,-652.065 1866.49,-650.402 1883,-649 2086.35,-631.741 2329.27,-614.261 2428.91,-607.226"/>
<polygon fill="midnightblue" stroke="midnightblue" points="2429.21,-610.713 2438.94,-606.519 2428.72,-603.731 2429.21,-610.713"/>
</g>
<!-- Node31&#45;&gt;Node7 -->
<g id="edge96" class="edge"><title>Node31&#45;&gt;Node7</title>
<path fill="none" stroke="midnightblue" d="M1988.92,-593.463C1991.82,-566.428 2000.86,-482.239 2004.95,-444.109"/>
<polygon fill="midnightblue" stroke="midnightblue" points="2008.46,-444.185 2006.05,-433.868 2001.5,-443.438 2008.46,-444.185"/>
</g>
<!-- Node31&#45;&gt;Node13 -->
<g id="edge95" class="edge"><title>Node31&#45;&gt;Node13</title>
<path fill="none" stroke="midnightblue" d="M1973.8,-593.474C1927.4,-565.345 1776.83,-471.915 1665,-378 1636.82,-354.332 1627.26,-350.518 1604,-322 1591.94,-307.21 1581.02,-288.316 1573.83,-274.715"/>
<polygon fill="midnightblue" stroke="midnightblue" points="1576.78,-272.797 1569.1,-265.501 1570.55,-275.996 1576.78,-272.797"/>
</g>
<!-- Node31&#45;&gt;Node18 -->
<g id="edge105" class="edge"><title>Node31&#45;&gt;Node18</title>
<path fill="none" stroke="midnightblue" d="M2039.32,-598.397C2089.1,-593.527 2165.99,-582.32 2228,-557 2401.8,-486.032 2445.84,-454.335 2579,-322 2621.67,-279.596 2637.33,-267.503 2655,-210 2666.36,-173.039 2671.07,-158.167 2655,-123 2649.22,-110.36 2637.95,-99.911 2627.37,-92.2737"/>
<polygon fill="midnightblue" stroke="midnightblue" points="2629.04,-89.1817 2618.78,-86.5333 2625.15,-95.0009 2629.04,-89.1817"/>
</g>
<!-- Node31&#45;&gt;Node26 -->
<g id="edge97" class="edge"><title>Node31&#45;&gt;Node26</title>
<path fill="none" stroke="midnightblue" d="M2013.65,-593.475C2044.62,-583.18 2096.87,-565.81 2131.65,-554.25"/>
<polygon fill="midnightblue" stroke="midnightblue" points="2133.02,-557.485 2141.4,-551.009 2130.81,-550.842 2133.02,-557.485"/>
</g>
<!-- Node31&#45;&gt;Node27 -->
<g id="edge98" class="edge"><title>Node31&#45;&gt;Node27</title>
<path fill="none" stroke="midnightblue" d="M1982.61,-593.298C1970.28,-573.414 1939.87,-524.352 1923.63,-498.147"/>
<polygon fill="midnightblue" stroke="midnightblue" points="1926.59,-496.279 1918.34,-489.623 1920.64,-499.967 1926.59,-496.279"/>
</g>
<!-- Node32 -->
<g id="node32" class="node"><title>Node32</title>
<g id="a_node32"><a xlink:href="stmt_8h.html" target="_top" xlink:title="TIR statements. ">
<polygon fill="white" stroke="black" points="2013.5,-532 2013.5,-551 2096.5,-551 2096.5,-532 2013.5,-532"/>
<text text-anchor="middle" x="2055" y="-539" font-family="Helvetica,sans-Serif" font-size="10.00">tvm/tir/stmt.h</text>
</a>
</g>
</g>
<!-- Node31&#45;&gt;Node32 -->
<g id="edge99" class="edge"><title>Node31&#45;&gt;Node32</title>
<path fill="none" stroke="midnightblue" d="M1997.6,-593.475C2008.05,-584.197 2024.97,-569.171 2037.74,-557.831"/>
<polygon fill="midnightblue" stroke="midnightblue" points="2040.27,-560.266 2045.42,-551.009 2035.62,-555.032 2040.27,-560.266"/>
</g>
<!-- Node32&#45;&gt;Node6 -->
<g id="edge104" class="edge"><title>Node32&#45;&gt;Node6</title>
<path fill="none" stroke="midnightblue" d="M2013.45,-539.368C1803.1,-533.357 854.549,-502.83 569,-434 370.541,-386.163 267.903,-388.028 168,-210 136.897,-154.574 140.704,-124.862 167,-67 172.911,-53.9923 183.098,-41.6202 191.958,-32.3776"/>
<polygon fill="midnightblue" stroke="midnightblue" points="194.633,-34.6536 199.262,-25.1235 189.7,-29.6868 194.633,-34.6536"/>
</g>
<!-- Node32&#45;&gt;Node10 -->
<g id="edge101" class="edge"><title>Node32&#45;&gt;Node10</title>
<path fill="none" stroke="midnightblue" d="M2075.66,-531.94C2126.41,-509.44 2251.46,-444.367 2228,-358 2180.3,-182.399 2102.63,-148.63 1940,-67 1910.06,-51.9737 1874.53,-38.066 1848.84,-28.6666"/>
<polygon fill="midnightblue" stroke="midnightblue" points="1849.76,-25.2779 1839.17,-25.1698 1847.38,-31.861 1849.76,-25.2779"/>
</g>
<!-- Node32&#45;&gt;Node11 -->
<g id="edge102" class="edge"><title>Node32&#45;&gt;Node11</title>
<path fill="none" stroke="midnightblue" d="M2079.07,-531.931C2186.71,-493.08 2621.72,-330.163 2693,-210 2726.38,-153.724 2709.22,-107.712 2658,-67 2624.22,-40.1491 2575.28,-27.1382 2543.3,-21.154"/>
<polygon fill="midnightblue" stroke="midnightblue" points="2543.6,-17.6545 2533.15,-19.3842 2542.4,-24.5504 2543.6,-17.6545"/>
</g>
<!-- Node32&#45;&gt;Node17 -->
<g id="edge103" class="edge"><title>Node32&#45;&gt;Node17</title>
<path fill="none" stroke="midnightblue" d="M2013.1,-533.728C1876.72,-510.735 1449.84,-430.983 1373,-322 1351.52,-291.534 1401.16,-259.812 1415,-246 1469.18,-191.946 1518.69,-211.414 1553,-143 1560.42,-128.199 1555.13,-109.578 1549.04,-96.0644"/>
<polygon fill="midnightblue" stroke="midnightblue" points="1552.05,-94.2412 1544.43,-86.8738 1545.79,-97.3813 1552.05,-94.2412"/>
</g>
<!-- Node32&#45;&gt;Node27 -->
<g id="edge100" class="edge"><title>Node32&#45;&gt;Node27</title>
<path fill="none" stroke="midnightblue" d="M2034.65,-531.975C2010.61,-521.901 1970.4,-505.053 1942.84,-493.502"/>
<polygon fill="midnightblue" stroke="midnightblue" points="1943.88,-490.146 1933.31,-489.509 1941.18,-496.602 1943.88,-490.146"/>
</g>
<!-- Node33&#45;&gt;Node10 -->
<g id="edge112" class="edge"><title>Node33&#45;&gt;Node10</title>
<path fill="none" stroke="midnightblue" d="M2484.88,-593.486C2493.75,-585.181 2506.22,-571.682 2512,-557 2562.71,-428.166 2567.83,-379.186 2530,-246 2512.44,-184.185 2507.36,-158.811 2454,-123 2355.64,-56.9837 1986.86,-27.5538 1858.43,-19.1553"/>
<polygon fill="midnightblue" stroke="midnightblue" points="1858.39,-15.6452 1848.18,-18.4965 1857.94,-22.6308 1858.39,-15.6452"/>
</g>
<!-- Node33&#45;&gt;Node23 -->
<g id="edge113" class="edge"><title>Node33&#45;&gt;Node23</title>
<path fill="none" stroke="midnightblue" d="M2511.18,-595.841C2566.31,-584.153 2665,-553.153 2665,-481 2665,-481 2665,-481 2665,-423 2665,-288.778 2509.77,-183.854 2448.48,-147.653"/>
<polygon fill="midnightblue" stroke="midnightblue" points="2450.22,-144.618 2439.81,-142.627 2446.71,-150.672 2450.22,-144.618"/>
</g>
<!-- Node33&#45;&gt;Node24 -->
<g id="edge108" class="edge"><title>Node33&#45;&gt;Node24</title>
<path fill="none" stroke="midnightblue" d="M2459.94,-593.319C2406.57,-563.001 2220.77,-461.121 2054,-414 1982.42,-393.775 1896.97,-381.023 1844.6,-374.451"/>
<polygon fill="midnightblue" stroke="midnightblue" points="1844.93,-370.966 1834.58,-373.219 1844.08,-377.914 1844.93,-370.966"/>
</g>
<!-- Node33&#45;&gt;Node25 -->
<g id="edge111" class="edge"><title>Node33&#45;&gt;Node25</title>
<path fill="none" stroke="midnightblue" d="M2479.57,-593.271C2490.76,-570.528 2516.72,-508.54 2489,-470 2429.12,-386.748 2297.3,-371.158 2229.73,-368.854"/>
<polygon fill="midnightblue" stroke="midnightblue" points="2229.54,-365.348 2219.46,-368.59 2229.36,-372.346 2229.54,-365.348"/>
</g>
<!-- Node33&#45;&gt;Node27 -->
<g id="edge109" class="edge"><title>Node33&#45;&gt;Node27</title>
<path fill="none" stroke="midnightblue" d="M2451.49,-593.409C2407.96,-577.811 2311.62,-544.718 2228,-526 2135.57,-505.312 2025.65,-492.15 1963.13,-485.713"/>
<polygon fill="midnightblue" stroke="midnightblue" points="1963.45,-482.227 1953.14,-484.7 1962.74,-489.191 1963.45,-482.227"/>
</g>
<!-- Node33&#45;&gt;Node32 -->
<g id="edge110" class="edge"><title>Node33&#45;&gt;Node32</title>
<path fill="none" stroke="midnightblue" d="M2438.82,-599.467C2372.38,-594.401 2226.67,-581.358 2106,-557 2101.46,-556.084 2096.74,-554.968 2092.08,-553.766"/>
<polygon fill="midnightblue" stroke="midnightblue" points="2092.64,-550.292 2082.07,-551.043 2090.8,-557.046 2092.64,-550.292"/>
</g>
<!-- Node34&#45;&gt;Node4 -->
<g id="edge129" class="edge"><title>Node34&#45;&gt;Node4</title>
<path fill="none" stroke="midnightblue" d="M1655.42,-769.32C1376.27,-765.309 59,-742.037 59,-660 59,-660 59,-660 59,-540.5 59,-497.997 96.222,-460.043 120.201,-440.002"/>
<polygon fill="midnightblue" stroke="midnightblue" points="122.455,-442.68 128.048,-433.682 118.065,-437.229 122.455,-442.68"/>
</g>
<!-- Node34&#45;&gt;Node11 -->
<g id="edge130" class="edge"><title>Node34&#45;&gt;Node11</title>
<path fill="none" stroke="midnightblue" d="M1758.66,-769.014C1949.97,-765.176 2611.81,-750.193 2703,-725 2832.85,-689.127 2945,-677.212 2945,-542.5 2945,-542.5 2945,-542.5 2945,-255 2945,-168.188 2963.72,-115.91 2892,-67 2835.42,-28.4144 2624.59,-19.2387 2543.27,-17.1175"/>
<polygon fill="midnightblue" stroke="midnightblue" points="2543.21,-13.6151 2533.13,-16.8725 2543.04,-20.6131 2543.21,-13.6151"/>
</g>
<!-- Node34&#45;&gt;Node18 -->
<g id="edge131" class="edge"><title>Node34&#45;&gt;Node18</title>
<path fill="none" stroke="midnightblue" d="M1758.65,-770.259C1974.47,-770.671 2793,-765.294 2793,-660 2793,-660 2793,-660 2793,-602 2793,-413.394 2845.76,-346.464 2759,-179 2744.44,-150.896 2740.32,-141.99 2715,-123 2694.65,-107.737 2668.41,-96.8297 2646.44,-89.5798"/>
<polygon fill="midnightblue" stroke="midnightblue" points="2647.28,-86.1735 2636.69,-86.5037 2645.17,-92.8494 2647.28,-86.1735"/>
</g>
<!-- Node34&#45;&gt;Node27 -->
<g id="edge119" class="edge"><title>Node34&#45;&gt;Node27</title>
<path fill="none" stroke="midnightblue" d="M1696.06,-761.297C1675.92,-744.203 1635,-704.051 1635,-660 1635,-660 1635,-660 1635,-602 1635,-503.893 1782.36,-484.503 1862.5,-481.212"/>
<polygon fill="midnightblue" stroke="midnightblue" points="1863,-484.698 1872.87,-480.861 1862.76,-477.702 1863,-484.698"/>
</g>
<!-- Node34&#45;&gt;Node30 -->
<g id="edge120" class="edge"><title>Node34&#45;&gt;Node30</title>
<path fill="none" stroke="midnightblue" d="M1713.28,-761.368C1726.48,-743.215 1757.33,-700.802 1774.64,-676.99"/>
<polygon fill="midnightblue" stroke="midnightblue" points="1777.7,-678.737 1780.75,-668.591 1772.04,-674.62 1777.7,-678.737"/>
</g>
<!-- Node35 -->
<g id="node35" class="node"><title>Node35</title>
<g id="a_node35"><a xlink:href="tensor__intrin_8h.html" target="_top" xlink:title="Tensor intrinsic operations. ">
<polygon fill="white" stroke="black" points="1815,-705.5 1815,-724.5 1935,-724.5 1935,-705.5 1815,-705.5"/>
<text text-anchor="middle" x="1875" y="-712.5" font-family="Helvetica,sans-Serif" font-size="10.00">tvm/te/tensor_intrin.h</text>
</a>
</g>
</g>
<!-- Node34&#45;&gt;Node35 -->
<g id="edge121" class="edge"><title>Node34&#45;&gt;Node35</title>
<path fill="none" stroke="midnightblue" d="M1733.62,-761.444C1762.01,-752.32 1807.14,-737.813 1838.75,-727.651"/>
<polygon fill="midnightblue" stroke="midnightblue" points="1840.06,-730.909 1848.5,-724.516 1837.91,-724.244 1840.06,-730.909"/>
</g>
<!-- Node35&#45;&gt;Node11 -->
<g id="edge128" class="edge"><title>Node35&#45;&gt;Node11</title>
<path fill="none" stroke="midnightblue" d="M1935.04,-711.048C2113.4,-701.714 2637.57,-670.031 2798,-613 2852.36,-593.675 2907,-600.194 2907,-542.5 2907,-542.5 2907,-542.5 2907,-255 2907,-169.666 2931.88,-123.576 2868,-67 2820.22,-24.6883 2622.06,-17.7414 2543.39,-16.6662"/>
<polygon fill="midnightblue" stroke="midnightblue" points="2543.15,-13.1633 2533.11,-16.5504 2543.07,-20.1629 2543.15,-13.1633"/>
</g>
<!-- Node35&#45;&gt;Node30 -->
<g id="edge122" class="edge"><title>Node35&#45;&gt;Node30</title>
<path fill="none" stroke="midnightblue" d="M1860.86,-705.324C1847.13,-696.9 1826.06,-683.971 1809.94,-674.074"/>
<polygon fill="midnightblue" stroke="midnightblue" points="1811.46,-670.902 1801.1,-668.655 1807.8,-676.868 1811.46,-670.902"/>
</g>
<!-- Node35&#45;&gt;Node36 -->
<g id="edge123" class="edge"><title>Node35&#45;&gt;Node36</title>
<path fill="none" stroke="midnightblue" d="M1884.8,-705.324C1893.82,-697.341 1907.41,-685.313 1918.32,-675.653"/>
<polygon fill="midnightblue" stroke="midnightblue" points="1920.85,-678.083 1926.02,-668.834 1916.21,-672.842 1920.85,-678.083"/>
</g>
<!-- Node36&#45;&gt;Node11 -->
<g id="edge127" class="edge"><title>Node36&#45;&gt;Node11</title>
<path fill="none" stroke="midnightblue" d="M1979.73,-657.986C2141.6,-657.617 2700.93,-653.402 2769,-613 2850.38,-564.696 2869,-519.641 2869,-425 2869,-425 2869,-425 2869,-132 2869,-101.205 2868.88,-86.4494 2845,-67 2799.17,-29.6677 2618.41,-19.8162 2543.64,-17.3148"/>
<polygon fill="midnightblue" stroke="midnightblue" points="2543.51,-13.8092 2533.41,-16.9967 2543.3,-20.8058 2543.51,-13.8092"/>
</g>
<!-- Node36&#45;&gt;Node13 -->
<g id="edge124" class="edge"><title>Node36&#45;&gt;Node13</title>
<path fill="none" stroke="midnightblue" d="M1926.15,-649.358C1887.92,-615.695 1746.06,-489.683 1637,-378 1613.69,-354.128 1603.8,-350.829 1587,-322 1578.57,-307.525 1572.76,-289.339 1569.24,-275.887"/>
<polygon fill="midnightblue" stroke="midnightblue" points="1572.57,-274.778 1566.81,-265.886 1565.77,-276.429 1572.57,-274.778"/>
</g>
<!-- Node36&#45;&gt;Node27 -->
<g id="edge125" class="edge"><title>Node36&#45;&gt;Node27</title>
<path fill="none" stroke="midnightblue" d="M1934.31,-649.399C1932.56,-640.362 1929.85,-625.721 1928,-613 1922.15,-572.821 1917.25,-525.482 1914.76,-499.83"/>
<polygon fill="midnightblue" stroke="midnightblue" points="1918.23,-499.295 1913.8,-489.673 1911.26,-499.96 1918.23,-499.295"/>
</g>
<!-- Node36&#45;&gt;Node33 -->
<g id="edge126" class="edge"><title>Node36&#45;&gt;Node33</title>
<path fill="none" stroke="midnightblue" d="M1979.65,-653.627C2079.96,-643.577 2326.16,-618.912 2428.85,-608.624"/>
<polygon fill="midnightblue" stroke="midnightblue" points="2429.31,-612.095 2438.91,-607.616 2428.61,-605.13 2429.31,-612.095"/>
</g>
<!-- Node37&#45;&gt;Node4 -->
<g id="edge139" class="edge"><title>Node37&#45;&gt;Node4</title>
<path fill="none" stroke="midnightblue" d="M1125.82,-539.331C938.977,-534.993 319.326,-518.578 235,-490 204.421,-479.637 174.602,-456.465 156.762,-440.78"/>
<polygon fill="midnightblue" stroke="midnightblue" points="158.779,-437.885 149.016,-433.77 154.082,-443.075 158.779,-437.885"/>
</g>
<!-- Node37&#45;&gt;Node6 -->
<g id="edge151" class="edge"><title>Node37&#45;&gt;Node6</title>
<path fill="none" stroke="midnightblue" d="M1125.83,-540.594C947.362,-540.472 370.846,-536.404 192,-490 137.36,-475.823 115.083,-476.561 78,-434 40.7918,-391.296 38,-369.64 38,-313 38,-313 38,-313 38,-132 38,-65.2752 128.514,-34.5042 177.836,-22.69"/>
<polygon fill="midnightblue" stroke="midnightblue" points="178.713,-26.0801 187.688,-20.4506 177.161,-19.2542 178.713,-26.0801"/>
</g>
<!-- Node37&#45;&gt;Node11 -->
<g id="edge150" class="edge"><title>Node37&#45;&gt;Node11</title>
<path fill="none" stroke="midnightblue" d="M1232.23,-530.43C1324.44,-512.722 1519.71,-474.068 1683,-434 1772.65,-412.002 1799.56,-417.473 1883,-378 1922.23,-359.44 1929.06,-349.056 1963,-322 2002.37,-290.614 2008.2,-278.084 2047,-246 2116.94,-188.165 2133.9,-172.459 2210,-123 2253.04,-95.0285 2263.27,-85.8853 2311,-67 2368.16,-44.3808 2438.59,-29.3896 2478.79,-21.9669"/>
<polygon fill="midnightblue" stroke="midnightblue" points="2479.6,-25.3786 2488.82,-20.1582 2478.35,-18.4899 2479.6,-25.3786"/>
</g>
<!-- Node37&#45;&gt;Node14 -->
<g id="edge140" class="edge"><title>Node37&#45;&gt;Node14</title>
<path fill="none" stroke="midnightblue" d="M1125.69,-539.528C935.836,-535.812 302.431,-521.117 273,-490 57.5009,-262.155 763.587,-209.111 988.475,-198.122"/>
<polygon fill="midnightblue" stroke="midnightblue" points="988.676,-201.616 998.498,-197.644 988.343,-194.624 988.676,-201.616"/>
</g>
<!-- Node37&#45;&gt;Node17 -->
<g id="edge149" class="edge"><title>Node37&#45;&gt;Node17</title>
<path fill="none" stroke="midnightblue" d="M1179.73,-526.329C1183.33,-471.79 1204.03,-273.772 1317,-179 1371.51,-133.267 1410.63,-177.256 1473,-143 1494.92,-130.962 1514.56,-109.569 1526.6,-94.6255"/>
<polygon fill="midnightblue" stroke="midnightblue" points="1529.4,-96.7334 1532.78,-86.6918 1523.87,-92.4345 1529.4,-96.7334"/>
</g>
<!-- Node37&#45;&gt;Node18 -->
<g id="edge152" class="edge"><title>Node37&#45;&gt;Node18</title>
<path fill="none" stroke="midnightblue" d="M1232.33,-537.199C1314.37,-531.464 1476.17,-517.542 1611,-490 1632.56,-485.595 1971.16,-387.525 1991,-378 2169.73,-292.2 2173.99,-199.24 2357,-123 2418.68,-97.305 2495.1,-86.2409 2546.25,-81.5027"/>
<polygon fill="midnightblue" stroke="midnightblue" points="2546.8,-84.9688 2556.45,-80.6108 2546.19,-77.9954 2546.8,-84.9688"/>
</g>
<!-- Node38 -->
<g id="node38" class="node"><title>Node38</title>
<g id="a_node38"><a xlink:href="target_8h.html" target="_top" xlink:title="Compilation target object. ">
<polygon fill="white" stroke="black" points="1034.5,-470.5 1034.5,-489.5 1143.5,-489.5 1143.5,-470.5 1034.5,-470.5"/>
<text text-anchor="middle" x="1089" y="-477.5" font-family="Helvetica,sans-Serif" font-size="10.00">tvm/target/target.h</text>
</a>
</g>
</g>
<!-- Node37&#45;&gt;Node38 -->
<g id="edge141" class="edge"><title>Node37&#45;&gt;Node38</title>
<path fill="none" stroke="midnightblue" d="M1157.67,-526.399C1143.51,-517.04 1124.99,-504.792 1110.75,-495.377"/>
<polygon fill="midnightblue" stroke="midnightblue" points="1112.37,-492.253 1102.1,-489.658 1108.51,-498.092 1112.37,-492.253"/>
</g>
<!-- Node38&#45;&gt;Node4 -->
<g id="edge142" class="edge"><title>Node38&#45;&gt;Node4</title>
<path fill="none" stroke="midnightblue" d="M1034.22,-475.883C869.454,-466.507 378.953,-438.597 203.384,-428.607"/>
<polygon fill="midnightblue" stroke="midnightblue" points="203.455,-425.105 193.272,-428.031 203.057,-432.094 203.455,-425.105"/>
</g>
<!-- Node38&#45;&gt;Node6 -->
<g id="edge148" class="edge"><title>Node38&#45;&gt;Node6</title>
<path fill="none" stroke="midnightblue" d="M1034.25,-479.548C879.184,-478.009 432.9,-451.725 195,-210 150.027,-164.304 157.703,-128.448 176,-67 179.715,-54.5249 187.6,-42.2604 194.731,-32.9422"/>
<polygon fill="midnightblue" stroke="midnightblue" points="197.593,-34.9706 201.177,-25.0003 192.157,-30.5596 197.593,-34.9706"/>
</g>
<!-- Node38&#45;&gt;Node7 -->
<g id="edge144" class="edge"><title>Node38&#45;&gt;Node7</title>
<path fill="none" stroke="midnightblue" d="M1143.68,-478.704C1279.69,-477.426 1644.31,-470.672 1958.09,-433.924"/>
<polygon fill="midnightblue" stroke="midnightblue" points="1958.78,-437.368 1968.3,-432.717 1957.95,-430.416 1958.78,-437.368"/>
</g>
<!-- Node38&#45;&gt;Node11 -->
<g id="edge145" class="edge"><title>Node38&#45;&gt;Node11</title>
<path fill="none" stroke="midnightblue" d="M1143.66,-478.872C1270.21,-477.05 1591.72,-463.612 1843,-378 1890.12,-361.946 1905.13,-357.53 1940,-322 1990.86,-270.176 1971.73,-234.116 2019,-179 2072.01,-117.189 2089.03,-98.7934 2164,-67 2272.61,-20.9386 2415.63,-15.675 2478.73,-15.8369"/>
<polygon fill="midnightblue" stroke="midnightblue" points="2478.83,-19.3377 2488.85,-15.9126 2478.88,-12.3379 2478.83,-19.3377"/>
</g>
<!-- Node38&#45;&gt;Node13 -->
<g id="edge143" class="edge"><title>Node38&#45;&gt;Node13</title>
<path fill="none" stroke="midnightblue" d="M1103.94,-470.39C1139.98,-449.774 1234.8,-396.432 1317,-358 1392.69,-322.615 1484.33,-287.136 1532.22,-269.134"/>
<polygon fill="midnightblue" stroke="midnightblue" points="1533.62,-272.348 1541.76,-265.564 1531.17,-265.793 1533.62,-272.348"/>
</g>
<!-- Node38&#45;&gt;Node17 -->
<g id="edge146" class="edge"><title>Node38&#45;&gt;Node17</title>
<path fill="none" stroke="midnightblue" d="M1088.22,-470.451C1086.59,-451.962 1083,-406.869 1083,-369 1083,-369 1083,-369 1083,-311 1083,-135.643 1278.52,-211.365 1440,-143 1470.4,-130.129 1501.61,-107.832 1520.66,-92.9973"/>
<polygon fill="midnightblue" stroke="midnightblue" points="1523.09,-95.5383 1528.74,-86.5777 1518.73,-90.0571 1523.09,-95.5383"/>
</g>
<!-- Node39 -->
<g id="node39" class="node"><title>Node39</title>
<polygon fill="white" stroke="#bfbfbf" points="969,-414.5 969,-433.5 1055,-433.5 1055,-414.5 969,-414.5"/>
<text text-anchor="middle" x="1012" y="-421.5" font-family="Helvetica,sans-Serif" font-size="10.00">unordered_set</text>
</g>
<!-- Node38&#45;&gt;Node39 -->
<g id="edge147" class="edge"><title>Node38&#45;&gt;Node39</title>
<path fill="none" stroke="midnightblue" d="M1076.63,-470.324C1064.84,-462.058 1046.87,-449.453 1032.86,-439.632"/>
<polygon fill="midnightblue" stroke="midnightblue" points="1034.54,-436.531 1024.34,-433.655 1030.52,-442.262 1034.54,-436.531"/>
</g>
<!-- Node40&#45;&gt;Node11 -->
<g id="edge154" class="edge"><title>Node40&#45;&gt;Node11</title>
<path fill="none" stroke="midnightblue" d="M2097.11,-881.533C2268.91,-879.051 3032.76,-866.391 3073,-837 3097.87,-818.837 3097,-802.795 3097,-772 3097,-772 3097,-772 3097,-132 3097,-101.205 3097.45,-85.719 3073,-67 3030.8,-34.6958 2656.33,-20.872 2543.22,-17.4098"/>
<polygon fill="midnightblue" stroke="midnightblue" points="2543.21,-13.908 2533.11,-17.1068 2543,-20.9049 2543.21,-13.908"/>
</g>
<!-- Node41&#45;&gt;Node2 -->
<g id="edge156" class="edge"><title>Node41&#45;&gt;Node2</title>
<path fill="none" stroke="midnightblue" d="M1276.64,-985.479C1278.84,-962.844 1288.21,-901.032 1326,-873 1357.19,-849.861 1604.31,-835.983 1722.91,-830.593"/>
<polygon fill="midnightblue" stroke="midnightblue" points="1723.11,-834.087 1732.94,-830.143 1722.79,-827.094 1723.11,-834.087"/>
</g>
<!-- Node42&#45;&gt;Node2 -->
<g id="edge158" class="edge"><title>Node42&#45;&gt;Node2</title>
<path fill="none" stroke="midnightblue" d="M2151.96,-929.067C2144.91,-914.602 2128.88,-886.328 2106,-873 2063.58,-848.292 1929.6,-836.335 1849.08,-831.243"/>
<polygon fill="midnightblue" stroke="midnightblue" points="1849.24,-827.747 1839.05,-830.627 1848.81,-834.734 1849.24,-827.747"/>
</g>
<!-- Node42&#45;&gt;Node11 -->
<g id="edge160" class="edge"><title>Node42&#45;&gt;Node11</title>
<path fill="none" stroke="midnightblue" d="M2201.58,-937.732C2394.63,-936.008 3135,-923.192 3135,-828 3135,-828 3135,-828 3135,-132 3135,-98.3101 3124.58,-84.8455 3096,-67 3048.94,-37.6114 2658.86,-21.6862 2543.2,-17.5792"/>
<polygon fill="midnightblue" stroke="midnightblue" points="2543.3,-14.0809 2533.19,-17.2291 2543.06,-21.0766 2543.3,-14.0809"/>
</g>
<!-- Node42&#45;&gt;Node40 -->
<g id="edge159" class="edge"><title>Node42&#45;&gt;Node40</title>
<path fill="none" stroke="midnightblue" d="M2141.06,-929.324C2126.41,-920.822 2103.87,-907.729 2086.76,-897.797"/>
<polygon fill="midnightblue" stroke="midnightblue" points="2088.31,-894.649 2077.9,-892.655 2084.8,-900.703 2088.31,-894.649"/>
</g>
<!-- Node43&#45;&gt;Node2 -->
<g id="edge162" class="edge"><title>Node43&#45;&gt;Node2</title>
<path fill="none" stroke="midnightblue" d="M1906.1,-929.497C1893.11,-920.774 1872.66,-906.595 1856,-893 1836.66,-877.226 1815.88,-857.539 1802.02,-843.989"/>
<polygon fill="midnightblue" stroke="midnightblue" points="1804.31,-841.326 1794.73,-836.795 1799.39,-846.31 1804.31,-841.326"/>
</g>
<!-- Node44 -->
<g id="node44" class="node"><title>Node44</title>
<g id="a_node44"><a xlink:href="detail_2extern_8h.html" target="_top" xlink:title="Helpers for using external functions. ">
<polygon fill="white" stroke="black" points="1865.5,-873.5 1865.5,-892.5 1972.5,-892.5 1972.5,-873.5 1865.5,-873.5"/>
<text text-anchor="middle" x="1919" y="-880.5" font-family="Helvetica,sans-Serif" font-size="10.00">topi/detail/extern.h</text>
</a>
</g>
</g>
<!-- Node43&#45;&gt;Node44 -->
<g id="edge163" class="edge"><title>Node43&#45;&gt;Node44</title>
<path fill="none" stroke="midnightblue" d="M1919,-929.083C1919,-922.006 1919,-911.861 1919,-902.986"/>
<polygon fill="midnightblue" stroke="midnightblue" points="1922.5,-902.751 1919,-892.751 1915.5,-902.751 1922.5,-902.751"/>
</g>
<!-- Node44&#45;&gt;Node2 -->
<g id="edge164" class="edge"><title>Node44&#45;&gt;Node2</title>
<path fill="none" stroke="midnightblue" d="M1897.93,-873.444C1875.94,-864.517 1841.27,-850.439 1816.34,-840.317"/>
<polygon fill="midnightblue" stroke="midnightblue" points="1817.56,-837.035 1806.98,-836.516 1814.92,-843.521 1817.56,-837.035"/>
</g>
<!-- Node44&#45;&gt;Node11 -->
<g id="edge166" class="edge"><title>Node44&#45;&gt;Node11</title>
<path fill="none" stroke="midnightblue" d="M1972.84,-877.163C2198.81,-856.816 3059,-778.909 3059,-772 3059,-772 3059,-772 3059,-132 3059,-25.9287 2660.93,-16.7655 2543.33,-16.3727"/>
<polygon fill="midnightblue" stroke="midnightblue" points="2543.17,-12.8726 2533.16,-16.3589 2543.16,-19.8726 2543.17,-12.8726"/>
</g>
<!-- Node44&#45;&gt;Node17 -->
<g id="edge165" class="edge"><title>Node44&#45;&gt;Node17</title>
<path fill="none" stroke="midnightblue" d="M1970.21,-873.484C2151.34,-842.867 2753.68,-736.616 2807,-669 2827.91,-642.476 2815.49,-625.694 2807,-593 2741.36,-340.137 2700.64,-209.113 2454,-123 2369.68,-93.5619 1728.96,-81.1398 1573.1,-78.536"/>
<polygon fill="midnightblue" stroke="midnightblue" points="1572.78,-75.0305 1562.73,-78.3654 1572.67,-82.0295 1572.78,-75.0305"/>
</g>
<!-- Node45&#45;&gt;Node2 -->
<g id="edge168" class="edge"><title>Node45&#45;&gt;Node2</title>
<path fill="none" stroke="midnightblue" d="M1620.01,-985.478C1632.73,-964.366 1668.19,-908.766 1709,-873 1723.66,-860.154 1742.52,-849.062 1757.9,-841.104"/>
<polygon fill="midnightblue" stroke="midnightblue" points="1759.59,-844.173 1766.96,-836.566 1756.46,-837.914 1759.59,-844.173"/>
</g>
<!-- Node45&#45;&gt;Node37 -->
<g id="edge171" class="edge"><title>Node45&#45;&gt;Node37</title>
<path fill="none" stroke="midnightblue" d="M1556.73,-990.907C1490.1,-984.034 1382.9,-962.161 1326,-893 1306.88,-869.757 1307,-858.098 1307,-828 1307,-828 1307,-828 1307,-658 1307,-611.919 1260.71,-579.491 1223.8,-560.96"/>
<polygon fill="midnightblue" stroke="midnightblue" points="1225.18,-557.74 1214.66,-556.548 1222.14,-564.045 1225.18,-557.74"/>
</g>
<!-- Node45&#45;&gt;Node40 -->
<g id="edge172" class="edge"><title>Node45&#45;&gt;Node40</title>
<path fill="none" stroke="midnightblue" d="M1673.18,-991.003C1763.1,-985.693 1931.2,-972.875 1986,-949 2011.44,-937.916 2034.92,-915.612 2049.1,-900.248"/>
<polygon fill="midnightblue" stroke="midnightblue" points="2051.93,-902.334 2055.97,-892.541 2046.7,-897.674 2051.93,-902.334"/>
</g>
<!-- Node46 -->
<g id="node46" class="node"><title>Node46</title>
<g id="a_node46"><a xlink:href="schedule__pass_8h.html" target="_top" xlink:title="Collection of Schedule pass functions. ">
<polygon fill="white" stroke="black" points="1335.5,-873.5 1335.5,-892.5 1466.5,-892.5 1466.5,-873.5 1335.5,-873.5"/>
<text text-anchor="middle" x="1401" y="-880.5" font-family="Helvetica,sans-Serif" font-size="10.00">tvm/te/schedule_pass.h</text>
</a>
</g>
</g>
<!-- Node45&#45;&gt;Node46 -->
<g id="edge169" class="edge"><title>Node45&#45;&gt;Node46</title>
<path fill="none" stroke="midnightblue" d="M1561.14,-985.429C1530.43,-978.822 1492.18,-967.572 1462,-949 1441.7,-936.508 1423.74,-915.517 1412.66,-900.777"/>
<polygon fill="midnightblue" stroke="midnightblue" points="1415.39,-898.581 1406.69,-892.538 1409.72,-902.689 1415.39,-898.581"/>
</g>
<!-- Node47 -->
<g id="node47" class="node"><title>Node47</title>
<g id="a_node47"><a xlink:href="fuse_8h.html" target="_top" xlink:title="Fuse operation. ">
<polygon fill="white" stroke="black" points="1561,-873.5 1561,-892.5 1657,-892.5 1657,-873.5 1561,-873.5"/>
<text text-anchor="middle" x="1609" y="-880.5" font-family="Helvetica,sans-Serif" font-size="10.00">topi/detail/fuse.h</text>
</a>
</g>
</g>
<!-- Node45&#45;&gt;Node47 -->
<g id="edge173" class="edge"><title>Node45&#45;&gt;Node47</title>
<path fill="none" stroke="midnightblue" d="M1614.53,-985.368C1613.56,-967.617 1611.33,-926.666 1610.01,-902.597"/>
<polygon fill="midnightblue" stroke="midnightblue" points="1613.51,-902.386 1609.47,-892.591 1606.52,-902.767 1613.51,-902.386"/>
</g>
<!-- Node48 -->
<g id="node48" class="node"><title>Node48</title>
<g id="a_node48"><a xlink:href="generic_2injective_8h.html" target="_top" xlink:title="Generic schedule for injective operations. ">
<polygon fill="white" stroke="black" points="1471,-929.5 1471,-948.5 1595,-948.5 1595,-929.5 1471,-929.5"/>
<text text-anchor="middle" x="1533" y="-936.5" font-family="Helvetica,sans-Serif" font-size="10.00">topi/generic/injective.h</text>
</a>
</g>
</g>
<!-- Node45&#45;&gt;Node48 -->
<g id="edge175" class="edge"><title>Node45&#45;&gt;Node48</title>
<path fill="none" stroke="midnightblue" d="M1601.83,-985.324C1589.15,-976.979 1569.77,-964.212 1554.79,-954.352"/>
<polygon fill="midnightblue" stroke="midnightblue" points="1556.42,-951.231 1546.14,-948.655 1552.57,-957.078 1556.42,-951.231"/>
</g>
<!-- Node46&#45;&gt;Node34 -->
<g id="edge170" class="edge"><title>Node46&#45;&gt;Node34</title>
<path fill="none" stroke="midnightblue" d="M1424.76,-873.46C1478.76,-854.047 1610.88,-806.551 1673.3,-784.115"/>
<polygon fill="midnightblue" stroke="midnightblue" points="1674.82,-787.287 1683.05,-780.61 1672.45,-780.7 1674.82,-787.287"/>
</g>
<!-- Node47&#45;&gt;Node2 -->
<g id="edge174" class="edge"><title>Node47&#45;&gt;Node2</title>
<path fill="none" stroke="midnightblue" d="M1637.05,-873.444C1667.08,-864.28 1714.91,-849.688 1748.24,-839.519"/>
<polygon fill="midnightblue" stroke="midnightblue" points="1749.54,-842.782 1758.09,-836.516 1747.5,-836.087 1749.54,-842.782"/>
</g>
<!-- Node48&#45;&gt;Node2 -->
<g id="edge176" class="edge"><title>Node48&#45;&gt;Node2</title>
<path fill="none" stroke="midnightblue" d="M1532.86,-929.379C1533.12,-915.361 1535.82,-887.716 1552,-873 1576.52,-850.696 1662.01,-838.683 1722.55,-832.817"/>
<polygon fill="midnightblue" stroke="midnightblue" points="1723.16,-836.275 1732.79,-831.86 1722.51,-829.306 1723.16,-836.275"/>
</g>
<!-- Node48&#45;&gt;Node37 -->
<g id="edge178" class="edge"><title>Node48&#45;&gt;Node37</title>
<path fill="none" stroke="midnightblue" d="M1530.13,-929.304C1515.47,-886.166 1444.74,-693.214 1321,-593 1298.37,-574.674 1268.58,-562.738 1242.14,-555.1"/>
<polygon fill="midnightblue" stroke="midnightblue" points="1242.76,-551.64 1232.19,-552.378 1240.91,-558.392 1242.76,-551.64"/>
</g>
<!-- Node48&#45;&gt;Node40 -->
<g id="edge179" class="edge"><title>Node48&#45;&gt;Node40</title>
<path fill="none" stroke="midnightblue" d="M1595.35,-931.92C1681.91,-923.438 1843.4,-907.462 1981,-893 1993.24,-891.714 2006.5,-890.277 2018.72,-888.935"/>
<polygon fill="midnightblue" stroke="midnightblue" points="2019.14,-892.41 2028.7,-887.836 2018.37,-885.453 2019.14,-892.41"/>
</g>
<!-- Node48&#45;&gt;Node46 -->
<g id="edge177" class="edge"><title>Node48&#45;&gt;Node46</title>
<path fill="none" stroke="midnightblue" d="M1512.08,-929.444C1490.26,-920.517 1455.85,-906.439 1431.11,-896.317"/>
<polygon fill="midnightblue" stroke="midnightblue" points="1432.4,-893.063 1421.82,-892.516 1429.75,-899.542 1432.4,-893.063"/>
</g>
<!-- Node48&#45;&gt;Node47 -->
<g id="edge180" class="edge"><title>Node48&#45;&gt;Node47</title>
<path fill="none" stroke="midnightblue" d="M1545.21,-929.324C1556.78,-921.107 1574.38,-908.602 1588.16,-898.807"/>
<polygon fill="midnightblue" stroke="midnightblue" points="1590.44,-901.479 1596.57,-892.834 1586.39,-895.773 1590.44,-901.479"/>
</g>
<!-- Node49&#45;&gt;Node2 -->
<g id="edge182" class="edge"><title>Node49&#45;&gt;Node2</title>
<path fill="none" stroke="midnightblue" d="M1694.75,-1041.47C1696.76,-1021.24 1703.29,-969.057 1720,-929 1733.44,-896.791 1757.34,-863.725 1772.39,-844.561"/>
<polygon fill="midnightblue" stroke="midnightblue" points="1775.28,-846.554 1778.8,-836.561 1769.82,-842.177 1775.28,-846.554"/>
</g>
<!-- Node49&#45;&gt;Node37 -->
<g id="edge184" class="edge"><title>Node49&#45;&gt;Node37</title>
<path fill="none" stroke="midnightblue" d="M1642.97,-1044.36C1574.47,-1034.69 1451.5,-1009.72 1366,-949 1232.27,-854.014 1191.92,-639.156 1181.89,-566.802"/>
<polygon fill="midnightblue" stroke="midnightblue" points="1185.35,-566.28 1180.58,-556.822 1178.41,-567.193 1185.35,-566.28"/>
</g>
<!-- Node49&#45;&gt;Node40 -->
<g id="edge185" class="edge"><title>Node49&#45;&gt;Node40</title>
<path fill="none" stroke="midnightblue" d="M1745.04,-1044.11C1812.54,-1034.2 1932.69,-1009.02 2016,-949 2033.07,-936.698 2046.37,-916.268 2054.4,-901.594"/>
<polygon fill="midnightblue" stroke="midnightblue" points="2057.6,-903.015 2059.09,-892.526 2051.39,-899.796 2057.6,-903.015"/>
</g>
<!-- Node49&#45;&gt;Node41 -->
<g id="edge186" class="edge"><title>Node49&#45;&gt;Node41</title>
<path fill="none" stroke="midnightblue" d="M1642.74,-1043.38C1569.01,-1033.85 1432.63,-1016.23 1348.56,-1005.37"/>
<polygon fill="midnightblue" stroke="midnightblue" points="1348.94,-1001.89 1338.58,-1004.08 1348.05,-1008.84 1348.94,-1001.89"/>
</g>
<!-- Node49&#45;&gt;Node42 -->
<g id="edge187" class="edge"><title>Node49&#45;&gt;Node42</title>
<path fill="none" stroke="midnightblue" d="M1745.1,-1045.18C1803.18,-1038.97 1900.49,-1026.36 1982,-1005 2034.81,-991.163 2093.86,-967.202 2127.81,-952.558"/>
<polygon fill="midnightblue" stroke="midnightblue" points="2129.33,-955.714 2137.1,-948.512 2126.53,-949.296 2129.33,-955.714"/>
</g>
<!-- Node49&#45;&gt;Node45 -->
<g id="edge191" class="edge"><title>Node49&#45;&gt;Node45</title>
<path fill="none" stroke="midnightblue" d="M1681.31,-1041.32C1669.1,-1032.98 1650.42,-1020.21 1636,-1010.35"/>
<polygon fill="midnightblue" stroke="midnightblue" points="1637.89,-1007.41 1627.66,-1004.65 1633.94,-1013.19 1637.89,-1007.41"/>
</g>
<!-- Node49&#45;&gt;Node46 -->
<g id="edge183" class="edge"><title>Node49&#45;&gt;Node46</title>
<path fill="none" stroke="midnightblue" d="M1642.96,-1042.56C1585.22,-1031.63 1491.73,-1005.98 1434,-949 1420.79,-935.965 1411.89,-916.539 1406.69,-902.319"/>
<polygon fill="midnightblue" stroke="midnightblue" points="1409.94,-901.007 1403.43,-892.651 1403.31,-903.245 1409.94,-901.007"/>
</g>
<!-- Node50 -->
<g id="node50" class="node"><title>Node50</title>
<g id="a_node50"><a xlink:href="cublas_8h.html" target="_top" xlink:title="External function interface to cuBLAS libraries. ">
<polygon fill="white" stroke="black" points="1729.5,-929.5 1729.5,-948.5 1842.5,-948.5 1842.5,-929.5 1729.5,-929.5"/>
<text text-anchor="middle" x="1786" y="-936.5" font-family="Helvetica,sans-Serif" font-size="10.00">topi/contrib/cublas.h</text>
</a>
</g>
</g>
<!-- Node49&#45;&gt;Node50 -->
<g id="edge188" class="edge"><title>Node49&#45;&gt;Node50</title>
<path fill="none" stroke="midnightblue" d="M1701.22,-1041.37C1716.54,-1023.05 1752.5,-980.049 1772.32,-956.362"/>
<polygon fill="midnightblue" stroke="midnightblue" points="1775.08,-958.508 1778.81,-948.591 1769.71,-954.017 1775.08,-958.508"/>
</g>
<!-- Node50&#45;&gt;Node2 -->
<g id="edge189" class="edge"><title>Node50&#45;&gt;Node2</title>
<path fill="none" stroke="midnightblue" d="M1786,-929.368C1786,-911.617 1786,-870.666 1786,-846.597"/>
<polygon fill="midnightblue" stroke="midnightblue" points="1789.5,-846.591 1786,-836.591 1782.5,-846.591 1789.5,-846.591"/>
</g>
<!-- Node50&#45;&gt;Node44 -->
<g id="edge190" class="edge"><title>Node50&#45;&gt;Node44</title>
<path fill="none" stroke="midnightblue" d="M1807.07,-929.444C1829.06,-920.517 1863.73,-906.439 1888.66,-896.317"/>
<polygon fill="midnightblue" stroke="midnightblue" points="1890.08,-899.521 1898.02,-892.516 1887.44,-893.035 1890.08,-899.521"/>
</g>
</g>
</svg>
