<?xml version="1.0" encoding="UTF-8" standalone="no"?>
<!DOCTYPE svg PUBLIC "-//W3C//DTD SVG 1.1//EN"
 "http://www.w3.org/Graphics/SVG/1.1/DTD/svg11.dtd">
<!-- Generated by graphviz version 2.38.0 (20140413.2041)
 -->
<!-- Title: include/tvm/runtime/module.h Pages: 1 -->
<svg width="1087pt" height="341pt"
 viewBox="0.00 0.00 1087.45 341.00" xmlns="http://www.w3.org/2000/svg" xmlns:xlink="http://www.w3.org/1999/xlink">
<g id="graph0" class="graph" transform="scale(1 1) rotate(0) translate(4 337)">
<title>include/tvm/runtime/module.h</title>
<polygon fill="white" stroke="none" points="-4,4 -4,-337 1083.45,-337 1083.45,4 -4,4"/>
<!-- Node1 -->
<g id="node1" class="node"><title>Node1</title>
<polygon fill="#bfbfbf" stroke="black" points="415.5,-302.5 415.5,-332.5 528.5,-332.5 528.5,-302.5 415.5,-302.5"/>
<text text-anchor="start" x="423.5" y="-320.5" font-family="Helvetica,sans-Serif" font-size="10.00">include/tvm/runtime</text>
<text text-anchor="middle" x="472" y="-309.5" font-family="Helvetica,sans-Serif" font-size="10.00">/module.h</text>
</g>
<!-- Node2 -->
<g id="node2" class="node"><title>Node2</title>
<polygon fill="white" stroke="#bfbfbf" points="948,-62 948,-81 1008,-81 1008,-62 948,-62"/>
<text text-anchor="middle" x="978" y="-69" font-family="Helvetica,sans-Serif" font-size="10.00">dmlc/io.h</text>
</g>
<!-- Node1&#45;&gt;Node2 -->
<g id="edge1" class="edge"><title>Node1&#45;&gt;Node2</title>
<path fill="none" stroke="midnightblue" d="M528.719,-315.388C596.581,-312.384 712.609,-301.878 805,-266 883.776,-235.409 907.462,-216.021 950,-143 959.72,-126.315 967.491,-105.615 972.357,-90.9735"/>
<polygon fill="midnightblue" stroke="midnightblue" points="975.794,-91.715 975.496,-81.1244 969.124,-89.5894 975.794,-91.715"/>
</g>
<!-- Node3 -->
<g id="node3" class="node"><title>Node3</title>
<g id="a_node3"><a xlink:href="c__runtime__api_8h.html" target="_top" xlink:title="tvm/runtime/c_runtime\l_api.h">
<polygon fill="white" stroke="black" points="638.5,-56.5 638.5,-86.5 765.5,-86.5 765.5,-56.5 638.5,-56.5"/>
<text text-anchor="start" x="646.5" y="-74.5" font-family="Helvetica,sans-Serif" font-size="10.00">tvm/runtime/c_runtime</text>
<text text-anchor="middle" x="702" y="-63.5" font-family="Helvetica,sans-Serif" font-size="10.00">_api.h</text>
</a>
</g>
</g>
<!-- Node1&#45;&gt;Node3 -->
<g id="edge2" class="edge"><title>Node1&#45;&gt;Node3</title>
<path fill="none" stroke="midnightblue" d="M528.734,-315.816C667.837,-313.551 1017.08,-304.091 1052,-266 1108.01,-204.906 1078.4,-195.921 950,-123 948.053,-121.894 847.946,-101.704 775.532,-87.1928"/>
<polygon fill="midnightblue" stroke="midnightblue" points="776.003,-83.7178 765.51,-85.1855 774.628,-90.5815 776.003,-83.7178"/>
</g>
<!-- Node7 -->
<g id="node7" class="node"><title>Node7</title>
<g id="a_node7"><a xlink:href="object_8h.html" target="_top" xlink:title="A managed object in the TVM runtime. ">
<polygon fill="white" stroke="black" points="288.5,-123.5 288.5,-142.5 405.5,-142.5 405.5,-123.5 288.5,-123.5"/>
<text text-anchor="middle" x="347" y="-130.5" font-family="Helvetica,sans-Serif" font-size="10.00">tvm/runtime/object.h</text>
</a>
</g>
</g>
<!-- Node1&#45;&gt;Node7 -->
<g id="edge6" class="edge"><title>Node1&#45;&gt;Node7</title>
<path fill="none" stroke="midnightblue" d="M415.309,-308.294C355.274,-296.161 263.914,-267.007 225,-199 208.862,-170.796 243.923,-154.243 280.54,-144.907"/>
<polygon fill="midnightblue" stroke="midnightblue" points="281.438,-148.291 290.358,-142.574 279.819,-141.481 281.438,-148.291"/>
</g>
<!-- Node10 -->
<g id="node10" class="node"><title>Node10</title>
<polygon fill="white" stroke="#bfbfbf" points="0,-62 0,-81 44,-81 44,-62 0,-62"/>
<text text-anchor="middle" x="22" y="-69" font-family="Helvetica,sans-Serif" font-size="10.00">string</text>
</g>
<!-- Node1&#45;&gt;Node10 -->
<g id="edge20" class="edge"><title>Node1&#45;&gt;Node10</title>
<path fill="none" stroke="midnightblue" d="M415.301,-313.505C349.515,-308.708 238.499,-296.494 148,-266 88.6378,-245.998 61.1417,-249.443 24,-199 0.639404,-167.274 9.03367,-117.901 16.1516,-91.188"/>
<polygon fill="midnightblue" stroke="midnightblue" points="19.6114,-91.8229 19.0277,-81.2442 12.887,-89.8779 19.6114,-91.8229"/>
</g>
<!-- Node13 -->
<g id="node13" class="node"><title>Node13</title>
<g id="a_node13"><a xlink:href="runtime_2memory_8h.html" target="_top" xlink:title="Runtime memory management. ">
<polygon fill="white" stroke="black" points="50.5,-179.5 50.5,-198.5 177.5,-198.5 177.5,-179.5 50.5,-179.5"/>
<text text-anchor="middle" x="114" y="-186.5" font-family="Helvetica,sans-Serif" font-size="10.00">tvm/runtime/memory.h</text>
</a>
</g>
</g>
<!-- Node1&#45;&gt;Node13 -->
<g id="edge13" class="edge"><title>Node1&#45;&gt;Node13</title>
<path fill="none" stroke="midnightblue" d="M415.247,-315.889C356.374,-313.121 263.146,-302.627 192,-266 164.516,-251.851 140.322,-224.774 126.426,-207.055"/>
<polygon fill="midnightblue" stroke="midnightblue" points="128.967,-204.613 120.136,-198.76 123.389,-208.842 128.967,-204.613"/>
</g>
<!-- Node15 -->
<g id="node15" class="node"><title>Node15</title>
<polygon fill="white" stroke="#bfbfbf" points="234.5,-179.5 234.5,-198.5 291.5,-198.5 291.5,-179.5 234.5,-179.5"/>
<text text-anchor="middle" x="263" y="-186.5" font-family="Helvetica,sans-Serif" font-size="10.00">memory</text>
</g>
<!-- Node1&#45;&gt;Node15 -->
<g id="edge18" class="edge"><title>Node1&#45;&gt;Node15</title>
<path fill="none" stroke="midnightblue" d="M448.835,-302.479C408.592,-278.122 326.235,-228.274 286.063,-203.959"/>
<polygon fill="midnightblue" stroke="midnightblue" points="287.626,-200.814 277.259,-198.63 284.001,-206.803 287.626,-200.814"/>
</g>
<!-- Node16 -->
<g id="node16" class="node"><title>Node16</title>
<polygon fill="white" stroke="#bfbfbf" points="878.5,-123.5 878.5,-142.5 925.5,-142.5 925.5,-123.5 878.5,-123.5"/>
<text text-anchor="middle" x="902" y="-130.5" font-family="Helvetica,sans-Serif" font-size="10.00">vector</text>
</g>
<!-- Node1&#45;&gt;Node16 -->
<g id="edge19" class="edge"><title>Node1&#45;&gt;Node16</title>
<path fill="none" stroke="midnightblue" d="M528.644,-314.246C613.055,-308.02 772.552,-284.834 872,-199 885.946,-186.964 893.799,-167.076 897.94,-152.463"/>
<polygon fill="midnightblue" stroke="midnightblue" points="901.393,-153.084 900.423,-142.534 894.602,-151.386 901.393,-153.084"/>
</g>
<!-- Node17 -->
<g id="node17" class="node"><title>Node17</title>
<polygon fill="white" stroke="#bfbfbf" points="950.5,-241 950.5,-260 1043.5,-260 1043.5,-241 950.5,-241"/>
<text text-anchor="middle" x="997" y="-248" font-family="Helvetica,sans-Serif" font-size="10.00">unordered_map</text>
</g>
<!-- Node1&#45;&gt;Node17 -->
<g id="edge21" class="edge"><title>Node1&#45;&gt;Node17</title>
<path fill="none" stroke="midnightblue" d="M528.744,-312.621C616.509,-306.106 790.272,-291.149 936,-266 941.979,-264.968 948.245,-263.698 954.391,-262.343"/>
<polygon fill="midnightblue" stroke="midnightblue" points="955.586,-265.66 964.548,-260.009 954.018,-258.838 955.586,-265.66"/>
</g>
<!-- Node18 -->
<g id="node18" class="node"><title>Node18</title>
<g id="a_node18"><a xlink:href="packed__func_8h.html" target="_top" xlink:title="Type&#45;erased function used across TVM API. ">
<polygon fill="white" stroke="black" points="415.5,-235.5 415.5,-265.5 528.5,-265.5 528.5,-235.5 415.5,-235.5"/>
<text text-anchor="start" x="423.5" y="-253.5" font-family="Helvetica,sans-Serif" font-size="10.00">tvm/runtime/packed</text>
<text text-anchor="middle" x="472" y="-242.5" font-family="Helvetica,sans-Serif" font-size="10.00">_func.h</text>
</a>
</g>
</g>
<!-- Node1&#45;&gt;Node18 -->
<g id="edge22" class="edge"><title>Node1&#45;&gt;Node18</title>
<path fill="none" stroke="midnightblue" d="M466.322,-302.396C465.294,-294.56 465.005,-284.596 465.456,-275.565"/>
<polygon fill="midnightblue" stroke="midnightblue" points="468.945,-275.842 466.325,-265.577 461.972,-275.236 468.945,-275.842"/>
</g>
<!-- Node4 -->
<g id="node4" class="node"><title>Node4</title>
<polygon fill="white" stroke="#bfbfbf" points="567,-0.5 567,-19.5 657,-19.5 657,-0.5 567,-0.5"/>
<text text-anchor="middle" x="612" y="-7.5" font-family="Helvetica,sans-Serif" font-size="10.00">dlpack/dlpack.h</text>
</g>
<!-- Node3&#45;&gt;Node4 -->
<g id="edge3" class="edge"><title>Node3&#45;&gt;Node4</title>
<path fill="none" stroke="midnightblue" d="M680.671,-56.3993C666.515,-47.0402 647.989,-34.7924 633.747,-25.3771"/>
<polygon fill="midnightblue" stroke="midnightblue" points="635.368,-22.2531 625.096,-19.6578 631.507,-28.0923 635.368,-22.2531"/>
</g>
<!-- Node5 -->
<g id="node5" class="node"><title>Node5</title>
<polygon fill="white" stroke="#bfbfbf" points="675.5,-0.5 675.5,-19.5 728.5,-19.5 728.5,-0.5 675.5,-0.5"/>
<text text-anchor="middle" x="702" y="-7.5" font-family="Helvetica,sans-Serif" font-size="10.00">stdint.h</text>
</g>
<!-- Node3&#45;&gt;Node5 -->
<g id="edge4" class="edge"><title>Node3&#45;&gt;Node5</title>
<path fill="none" stroke="midnightblue" d="M702,-56.3993C702,-48.4664 702,-38.458 702,-29.8583"/>
<polygon fill="midnightblue" stroke="midnightblue" points="705.5,-29.6577 702,-19.6578 698.5,-29.6578 705.5,-29.6577"/>
</g>
<!-- Node6 -->
<g id="node6" class="node"><title>Node6</title>
<polygon fill="white" stroke="#bfbfbf" points="746.5,-0.5 746.5,-19.5 801.5,-19.5 801.5,-0.5 746.5,-0.5"/>
<text text-anchor="middle" x="774" y="-7.5" font-family="Helvetica,sans-Serif" font-size="10.00">stddef.h</text>
</g>
<!-- Node3&#45;&gt;Node6 -->
<g id="edge5" class="edge"><title>Node3&#45;&gt;Node6</title>
<path fill="none" stroke="midnightblue" d="M719.063,-56.3993C730.065,-47.3076 744.365,-35.4899 755.618,-26.1909"/>
<polygon fill="midnightblue" stroke="midnightblue" points="758.044,-28.726 763.523,-19.6578 753.585,-23.33 758.044,-28.726"/>
</g>
<!-- Node7&#45;&gt;Node3 -->
<g id="edge8" class="edge"><title>Node7&#45;&gt;Node3</title>
<path fill="none" stroke="midnightblue" d="M397.863,-123.475C458.256,-113.353 559.461,-96.3903 628.398,-84.836"/>
<polygon fill="midnightblue" stroke="midnightblue" points="629.043,-88.277 638.327,-83.172 627.886,-81.3732 629.043,-88.277"/>
</g>
<!-- Node8 -->
<g id="node8" class="node"><title>Node8</title>
<polygon fill="white" stroke="#bfbfbf" points="391,-62 391,-81 477,-81 477,-62 391,-62"/>
<text text-anchor="middle" x="434" y="-69" font-family="Helvetica,sans-Serif" font-size="10.00">dmlc/logging.h</text>
</g>
<!-- Node7&#45;&gt;Node8 -->
<g id="edge7" class="edge"><title>Node7&#45;&gt;Node8</title>
<path fill="none" stroke="midnightblue" d="M359.465,-123.475C373.419,-113.931 396.265,-98.3073 412.991,-86.8683"/>
<polygon fill="midnightblue" stroke="midnightblue" points="415.28,-89.5433 421.558,-81.0091 411.328,-83.7653 415.28,-89.5433"/>
</g>
<!-- Node9 -->
<g id="node9" class="node"><title>Node9</title>
<polygon fill="white" stroke="#bfbfbf" points="201,-62 201,-81 269,-81 269,-62 201,-62"/>
<text text-anchor="middle" x="235" y="-69" font-family="Helvetica,sans-Serif" font-size="10.00">type_traits</text>
</g>
<!-- Node7&#45;&gt;Node9 -->
<g id="edge9" class="edge"><title>Node7&#45;&gt;Node9</title>
<path fill="none" stroke="midnightblue" d="M330.953,-123.475C312.407,-113.622 281.66,-97.2883 259.978,-85.7697"/>
<polygon fill="midnightblue" stroke="midnightblue" points="261.49,-82.6098 251.017,-81.0091 258.206,-88.7916 261.49,-82.6098"/>
</g>
<!-- Node7&#45;&gt;Node10 -->
<g id="edge10" class="edge"><title>Node7&#45;&gt;Node10</title>
<path fill="none" stroke="midnightblue" d="M300.435,-123.475C233.516,-111.224 111.861,-88.9515 54.0993,-78.3766"/>
<polygon fill="midnightblue" stroke="midnightblue" points="54.5519,-74.9014 44.0851,-76.5433 53.2912,-81.787 54.5519,-74.9014"/>
</g>
<!-- Node11 -->
<g id="node11" class="node"><title>Node11</title>
<polygon fill="white" stroke="#bfbfbf" points="300,-62 300,-81 342,-81 342,-62 300,-62"/>
<text text-anchor="middle" x="321" y="-69" font-family="Helvetica,sans-Serif" font-size="10.00">utility</text>
</g>
<!-- Node7&#45;&gt;Node11 -->
<g id="edge11" class="edge"><title>Node7&#45;&gt;Node11</title>
<path fill="none" stroke="midnightblue" d="M343.275,-123.475C339.529,-114.904 333.64,-101.427 328.858,-90.483"/>
<polygon fill="midnightblue" stroke="midnightblue" points="331.93,-88.771 324.718,-81.0091 325.515,-91.5739 331.93,-88.771"/>
</g>
<!-- Node12 -->
<g id="node12" class="node"><title>Node12</title>
<polygon fill="white" stroke="#bfbfbf" points="533,-62 533,-81 583,-81 583,-62 533,-62"/>
<text text-anchor="middle" x="558" y="-69" font-family="Helvetica,sans-Serif" font-size="10.00">atomic</text>
</g>
<!-- Node7&#45;&gt;Node12 -->
<g id="edge12" class="edge"><title>Node7&#45;&gt;Node12</title>
<path fill="none" stroke="midnightblue" d="M377.231,-123.475C415.784,-112.603 482.319,-93.8413 523.021,-82.3638"/>
<polygon fill="midnightblue" stroke="midnightblue" points="524.105,-85.6948 532.779,-79.612 522.205,-78.9575 524.105,-85.6948"/>
</g>
<!-- Node13&#45;&gt;Node7 -->
<g id="edge14" class="edge"><title>Node13&#45;&gt;Node7</title>
<path fill="none" stroke="midnightblue" d="M150.92,-179.444C191.395,-170.063 256.421,-154.993 300.384,-144.804"/>
<polygon fill="midnightblue" stroke="midnightblue" points="301.302,-148.184 310.253,-142.516 299.721,-141.365 301.302,-148.184"/>
</g>
<!-- Node13&#45;&gt;Node9 -->
<g id="edge17" class="edge"><title>Node13&#45;&gt;Node9</title>
<path fill="none" stroke="midnightblue" d="M120.738,-179.099C130.776,-166.103 150.568,-141.472 170,-123 183.801,-109.881 200.845,-96.7369 214.018,-87.1485"/>
<polygon fill="midnightblue" stroke="midnightblue" points="216.339,-89.7909 222.431,-81.1224 212.263,-84.1001 216.339,-89.7909"/>
</g>
<!-- Node13&#45;&gt;Node11 -->
<g id="edge16" class="edge"><title>Node13&#45;&gt;Node11</title>
<path fill="none" stroke="midnightblue" d="M129.559,-179.319C165.31,-159.37 253.548,-110.136 296.594,-86.1178"/>
<polygon fill="midnightblue" stroke="midnightblue" points="298.516,-89.0535 305.543,-81.1245 295.105,-82.9406 298.516,-89.0535"/>
</g>
<!-- Node14 -->
<g id="node14" class="node"><title>Node14</title>
<polygon fill="white" stroke="#bfbfbf" points="70.5,-123.5 70.5,-142.5 117.5,-142.5 117.5,-123.5 70.5,-123.5"/>
<text text-anchor="middle" x="94" y="-130.5" font-family="Helvetica,sans-Serif" font-size="10.00">cstdlib</text>
</g>
<!-- Node13&#45;&gt;Node14 -->
<g id="edge15" class="edge"><title>Node13&#45;&gt;Node14</title>
<path fill="none" stroke="midnightblue" d="M110.697,-179.083C108.018,-171.849 104.151,-161.409 100.814,-152.397"/>
<polygon fill="midnightblue" stroke="midnightblue" points="103.996,-150.913 97.2411,-142.751 97.4322,-153.344 103.996,-150.913"/>
</g>
<!-- Node18&#45;&gt;Node1 -->
<g id="edge25" class="edge"><title>Node18&#45;&gt;Node1</title>
<path fill="none" stroke="midnightblue" d="M477.675,-265.577C478.704,-273.408 478.995,-283.37 478.545,-292.403"/>
<polygon fill="midnightblue" stroke="midnightblue" points="475.056,-292.131 477.678,-302.396 482.03,-292.736 475.056,-292.131"/>
</g>
<!-- Node18&#45;&gt;Node3 -->
<g id="edge24" class="edge"><title>Node18&#45;&gt;Node3</title>
<path fill="none" stroke="midnightblue" d="M528.636,-246.533C624.007,-240.847 812.117,-226.47 872,-199 905.75,-183.518 918.924,-176.933 934,-143 937.609,-134.877 939.577,-129.922 934,-123 931.432,-119.813 842.729,-101.138 775.771,-87.4226"/>
<polygon fill="midnightblue" stroke="midnightblue" points="776.145,-83.9266 765.646,-85.3523 774.742,-90.7847 776.145,-83.9266"/>
</g>
<!-- Node18&#45;&gt;Node7 -->
<g id="edge41" class="edge"><title>Node18&#45;&gt;Node7</title>
<path fill="none" stroke="midnightblue" d="M456.673,-235.337C433.127,-213.581 388.226,-172.093 363.815,-149.537"/>
<polygon fill="midnightblue" stroke="midnightblue" points="366.102,-146.885 356.383,-142.669 361.352,-152.027 366.102,-146.885"/>
</g>
<!-- Node18&#45;&gt;Node8 -->
<g id="edge23" class="edge"><title>Node18&#45;&gt;Node8</title>
<path fill="none" stroke="midnightblue" d="M468.955,-235.315C462.153,-203.633 445.724,-127.109 438.062,-91.4186"/>
<polygon fill="midnightblue" stroke="midnightblue" points="441.426,-90.4166 435.905,-81.3741 434.582,-91.886 441.426,-90.4166"/>
</g>
<!-- Node18&#45;&gt;Node9 -->
<g id="edge49" class="edge"><title>Node18&#45;&gt;Node9</title>
<path fill="none" stroke="midnightblue" d="M422.733,-235.436C396.576,-226.875 364.46,-214.575 338,-199 304.847,-179.486 296.047,-173.027 272,-143 259.207,-127.025 248.835,-105.946 242.363,-91.0105"/>
<polygon fill="midnightblue" stroke="midnightblue" points="245.431,-89.2728 238.361,-81.382 238.967,-91.9595 245.431,-89.2728"/>
</g>
<!-- Node18&#45;&gt;Node10 -->
<g id="edge45" class="edge"><title>Node18&#45;&gt;Node10</title>
<path fill="none" stroke="midnightblue" d="M415.17,-246.639C304.255,-240.516 67.4219,-224.578 41,-199 11.9703,-170.897 14.6059,-118.848 18.561,-91.0824"/>
<polygon fill="midnightblue" stroke="midnightblue" points="22.0312,-91.5489 20.1916,-81.115 15.123,-90.4188 22.0312,-91.5489"/>
</g>
<!-- Node18&#45;&gt;Node11 -->
<g id="edge48" class="edge"><title>Node18&#45;&gt;Node11</title>
<path fill="none" stroke="midnightblue" d="M444.755,-235.401C392.681,-208.326 283.73,-151.012 279,-143 267.775,-123.985 285.535,-102.154 301.299,-87.8864"/>
<polygon fill="midnightblue" stroke="midnightblue" points="303.847,-90.3144 309.196,-81.1695 299.311,-84.9822 303.847,-90.3144"/>
</g>
<!-- Node18&#45;&gt;Node15 -->
<g id="edge47" class="edge"><title>Node18&#45;&gt;Node15</title>
<path fill="none" stroke="midnightblue" d="M422.735,-235.475C385.768,-224.951 335.86,-210.743 301.727,-201.025"/>
<polygon fill="midnightblue" stroke="midnightblue" points="302.249,-197.535 291.673,-198.163 300.332,-204.267 302.249,-197.535"/>
</g>
<!-- Node18&#45;&gt;Node16 -->
<g id="edge44" class="edge"><title>Node18&#45;&gt;Node16</title>
<path fill="none" stroke="midnightblue" d="M524.306,-235.404C555.948,-226.285 596.839,-213.445 632,-199 650.018,-191.598 652.552,-185.254 671,-179 752.729,-151.293 779.868,-161.957 868.347,-142.936"/>
<polygon fill="midnightblue" stroke="midnightblue" points="869.264,-146.318 878.269,-140.736 867.748,-139.484 869.264,-146.318"/>
</g>
<!-- Node19 -->
<g id="node19" class="node"><title>Node19</title>
<g id="a_node19"><a xlink:href="ndarray_8h.html" target="_top" xlink:title="A device&#45;independent managed NDArray abstraction. ">
<polygon fill="white" stroke="black" points="500.5,-179.5 500.5,-198.5 623.5,-198.5 623.5,-179.5 500.5,-179.5"/>
<text text-anchor="middle" x="562" y="-186.5" font-family="Helvetica,sans-Serif" font-size="10.00">tvm/runtime/ndarray.h</text>
</a>
</g>
</g>
<!-- Node18&#45;&gt;Node19 -->
<g id="edge26" class="edge"><title>Node18&#45;&gt;Node19</title>
<path fill="none" stroke="midnightblue" d="M493.329,-235.399C507.485,-226.04 526.011,-213.792 540.253,-204.377"/>
<polygon fill="midnightblue" stroke="midnightblue" points="542.493,-207.092 548.904,-198.658 538.632,-201.253 542.493,-207.092"/>
</g>
<!-- Node22 -->
<g id="node22" class="node"><title>Node22</title>
<g id="a_node22"><a xlink:href="data__type_8h.html" target="_top" xlink:title="tvm/runtime/data_type.h">
<polygon fill="white" stroke="black" points="500,-123.5 500,-142.5 636,-142.5 636,-123.5 500,-123.5"/>
<text text-anchor="middle" x="568" y="-130.5" font-family="Helvetica,sans-Serif" font-size="10.00">tvm/runtime/data_type.h</text>
</a>
</g>
</g>
<!-- Node18&#45;&gt;Node22 -->
<g id="edge37" class="edge"><title>Node18&#45;&gt;Node22</title>
<path fill="none" stroke="midnightblue" d="M472.681,-235.408C474.077,-220.102 478.299,-195.618 491,-179 501.979,-164.636 518.961,-154.013 534.187,-146.707"/>
<polygon fill="midnightblue" stroke="midnightblue" points="535.682,-149.872 543.371,-142.583 532.815,-143.487 535.682,-149.872"/>
</g>
<!-- Node23 -->
<g id="node23" class="node"><title>Node23</title>
<polygon fill="white" stroke="#bfbfbf" points="680.5,-179.5 680.5,-198.5 743.5,-198.5 743.5,-179.5 680.5,-179.5"/>
<text text-anchor="middle" x="712" y="-186.5" font-family="Helvetica,sans-Serif" font-size="10.00">functional</text>
</g>
<!-- Node18&#45;&gt;Node23 -->
<g id="edge42" class="edge"><title>Node18&#45;&gt;Node23</title>
<path fill="none" stroke="midnightblue" d="M528.573,-235.475C572.173,-224.665 631.45,-209.97 670.674,-200.245"/>
<polygon fill="midnightblue" stroke="midnightblue" points="671.574,-203.628 680.438,-197.825 669.89,-196.834 671.574,-203.628"/>
</g>
<!-- Node24 -->
<g id="node24" class="node"><title>Node24</title>
<polygon fill="white" stroke="#bfbfbf" points="761.5,-179.5 761.5,-198.5 802.5,-198.5 802.5,-179.5 761.5,-179.5"/>
<text text-anchor="middle" x="782" y="-186.5" font-family="Helvetica,sans-Serif" font-size="10.00">tuple</text>
</g>
<!-- Node18&#45;&gt;Node24 -->
<g id="edge43" class="edge"><title>Node18&#45;&gt;Node24</title>
<path fill="none" stroke="midnightblue" d="M528.701,-241.201C583.378,-232.765 668.584,-218.481 751.58,-198.861"/>
<polygon fill="midnightblue" stroke="midnightblue" points="752.515,-202.237 761.426,-196.506 750.886,-195.429 752.515,-202.237"/>
</g>
<!-- Node25 -->
<g id="node25" class="node"><title>Node25</title>
<polygon fill="white" stroke="#bfbfbf" points="821,-179.5 821,-198.5 863,-198.5 863,-179.5 821,-179.5"/>
<text text-anchor="middle" x="842" y="-186.5" font-family="Helvetica,sans-Serif" font-size="10.00">limits</text>
</g>
<!-- Node18&#45;&gt;Node25 -->
<g id="edge46" class="edge"><title>Node18&#45;&gt;Node25</title>
<path fill="none" stroke="midnightblue" d="M528.507,-243.442C596.144,-235.65 712.614,-220.508 811,-199 811.099,-198.978 811.199,-198.956 811.298,-198.934"/>
<polygon fill="midnightblue" stroke="midnightblue" points="811.895,-202.393 820.751,-196.578 810.202,-195.601 811.895,-202.393"/>
</g>
<!-- Node19&#45;&gt;Node3 -->
<g id="edge27" class="edge"><title>Node19&#45;&gt;Node3</title>
<path fill="none" stroke="midnightblue" d="M592.939,-179.425C614.024,-172.358 641.538,-160.605 661,-143 675.298,-130.066 685.986,-110.944 692.859,-95.8775"/>
<polygon fill="midnightblue" stroke="midnightblue" points="696.084,-97.2366 696.824,-86.6676 689.655,-94.4686 696.084,-97.2366"/>
</g>
<!-- Node19&#45;&gt;Node7 -->
<g id="edge28" class="edge"><title>Node19&#45;&gt;Node7</title>
<path fill="none" stroke="midnightblue" d="M527.933,-179.444C490.82,-170.122 431.339,-155.183 390.785,-144.997"/>
<polygon fill="midnightblue" stroke="midnightblue" points="391.459,-141.558 380.908,-142.516 389.754,-148.347 391.459,-141.558"/>
</g>
<!-- Node19&#45;&gt;Node11 -->
<g id="edge36" class="edge"><title>Node19&#45;&gt;Node11</title>
<path fill="none" stroke="midnightblue" d="M543.886,-179.319C501.912,-159.203 397.8,-109.307 348.162,-85.5176"/>
<polygon fill="midnightblue" stroke="midnightblue" points="349.526,-82.2901 338.996,-81.1245 346.501,-88.6026 349.526,-82.2901"/>
</g>
<!-- Node19&#45;&gt;Node12 -->
<g id="edge34" class="edge"><title>Node19&#45;&gt;Node12</title>
<path fill="none" stroke="midnightblue" d="M590.65,-179.498C620.284,-169.078 660.252,-149.488 645,-123 633.794,-103.539 611.896,-90.8871 592.874,-83.1141"/>
<polygon fill="midnightblue" stroke="midnightblue" points="593.852,-79.7424 583.26,-79.4838 591.379,-86.291 593.852,-79.7424"/>
</g>
<!-- Node19&#45;&gt;Node16 -->
<g id="edge35" class="edge"><title>Node19&#45;&gt;Node16</title>
<path fill="none" stroke="midnightblue" d="M623.504,-179.881C694.934,-170.303 809.478,-154.452 868.316,-142.872"/>
<polygon fill="midnightblue" stroke="midnightblue" points="869.193,-146.265 878.29,-140.834 867.792,-139.406 869.193,-146.265"/>
</g>
<!-- Node20 -->
<g id="node20" class="node"><title>Node20</title>
<g id="a_node20"><a xlink:href="serializer_8h.html" target="_top" xlink:title="Serializer extension to support TVM data types Include this file to enable serialization of DLDataTyp...">
<polygon fill="white" stroke="black" points="730,-123.5 730,-142.5 860,-142.5 860,-123.5 730,-123.5"/>
<text text-anchor="middle" x="795" y="-130.5" font-family="Helvetica,sans-Serif" font-size="10.00">tvm/runtime/serializer.h</text>
</a>
</g>
</g>
<!-- Node19&#45;&gt;Node20 -->
<g id="edge29" class="edge"><title>Node19&#45;&gt;Node20</title>
<path fill="none" stroke="midnightblue" d="M593.831,-179.444C632.33,-170.043 697.401,-154.929 743.146,-144.739"/>
<polygon fill="midnightblue" stroke="midnightblue" points="744.168,-148.098 753.173,-142.516 742.653,-141.264 744.168,-148.098"/>
</g>
<!-- Node20&#45;&gt;Node2 -->
<g id="edge30" class="edge"><title>Node20&#45;&gt;Node2</title>
<path fill="none" stroke="midnightblue" d="M821.219,-123.475C853.018,-113.136 906.765,-95.6611 942.317,-84.1017"/>
<polygon fill="midnightblue" stroke="midnightblue" points="943.401,-87.4297 951.829,-81.0091 941.237,-80.7727 943.401,-87.4297"/>
</g>
<!-- Node20&#45;&gt;Node3 -->
<g id="edge32" class="edge"><title>Node20&#45;&gt;Node3</title>
<path fill="none" stroke="midnightblue" d="M781.675,-123.475C768.962,-115.341 749.345,-102.791 732.758,-92.1788"/>
<polygon fill="midnightblue" stroke="midnightblue" points="734.228,-88.964 723.918,-86.523 730.456,-94.8605 734.228,-88.964"/>
</g>
<!-- Node20&#45;&gt;Node19 -->
<g id="edge33" class="edge"><title>Node20&#45;&gt;Node19</title>
<path fill="none" stroke="midnightblue" d="M763.333,-142.516C724.91,-151.901 659.848,-167.013 614.049,-177.217"/>
<polygon fill="midnightblue" stroke="midnightblue" points="613.014,-173.862 604.008,-179.444 614.529,-180.696 613.014,-173.862"/>
</g>
<!-- Node21 -->
<g id="node21" class="node"><title>Node21</title>
<polygon fill="white" stroke="#bfbfbf" points="784,-62 784,-81 878,-81 878,-62 784,-62"/>
<text text-anchor="middle" x="831" y="-69" font-family="Helvetica,sans-Serif" font-size="10.00">dmlc/serializer.h</text>
</g>
<!-- Node20&#45;&gt;Node21 -->
<g id="edge31" class="edge"><title>Node20&#45;&gt;Node21</title>
<path fill="none" stroke="midnightblue" d="M800.158,-123.475C805.451,-114.727 813.835,-100.869 820.527,-89.8093"/>
<polygon fill="midnightblue" stroke="midnightblue" points="823.67,-91.3768 825.852,-81.0091 817.68,-87.7531 823.67,-91.3768"/>
</g>
<!-- Node22&#45;&gt;Node3 -->
<g id="edge38" class="edge"><title>Node22&#45;&gt;Node3</title>
<path fill="none" stroke="midnightblue" d="M587.199,-123.475C606.365,-114.965 636.42,-101.619 660.971,-90.718"/>
<polygon fill="midnightblue" stroke="midnightblue" points="662.7,-93.7801 670.419,-86.523 659.859,-87.3824 662.7,-93.7801"/>
</g>
<!-- Node22&#45;&gt;Node8 -->
<g id="edge39" class="edge"><title>Node22&#45;&gt;Node8</title>
<path fill="none" stroke="midnightblue" d="M548.801,-123.475C526.213,-113.445 488.501,-96.7002 462.499,-85.1546"/>
<polygon fill="midnightblue" stroke="midnightblue" points="463.723,-81.8685 453.163,-81.0091 460.882,-88.2662 463.723,-81.8685"/>
</g>
<!-- Node22&#45;&gt;Node9 -->
<g id="edge40" class="edge"><title>Node22&#45;&gt;Node9</title>
<path fill="none" stroke="midnightblue" d="M505.263,-123.495C448.92,-115.457 364.067,-102.36 291,-87 286.029,-85.955 280.837,-84.757 275.704,-83.5071"/>
<polygon fill="midnightblue" stroke="midnightblue" points="276.533,-80.1066 265.982,-81.0663 274.828,-86.896 276.533,-80.1066"/>
</g>
</g>
</svg>
