<?xml version="1.0" encoding="UTF-8" standalone="no"?>
<!DOCTYPE svg PUBLIC "-//W3C//DTD SVG 1.1//EN"
 "http://www.w3.org/Graphics/SVG/1.1/DTD/svg11.dtd">
<!-- Generated by graphviz version 2.38.0 (20140413.2041)
 -->
<!-- Title: tvm::relay::BinaryDenseAttrs Pages: 1 -->
<svg width="523pt" height="713pt"
 viewBox="0.00 0.00 522.50 713.00" xmlns="http://www.w3.org/2000/svg" xmlns:xlink="http://www.w3.org/1999/xlink">
<g id="graph0" class="graph" transform="scale(1 1) rotate(0) translate(4 709)">
<title>tvm::relay::BinaryDenseAttrs</title>
<polygon fill="white" stroke="none" points="-4,4 -4,-709 518.5,-709 518.5,4 -4,4"/>
<!-- Node1 -->
<g id="node1" class="node"><title>Node1</title>
<polygon fill="#bfbfbf" stroke="black" points="215,-0.5 215,-79.5 369,-79.5 369,-0.5 215,-0.5"/>
<text text-anchor="middle" x="292" y="-67.5" font-family="Helvetica,sans-Serif" font-size="10.00">tvm::relay::BinaryDenseAttrs</text>
<polyline fill="none" stroke="black" points="215,-60.5 369,-60.5 "/>
<text text-anchor="start" x="223" y="-48.5" font-family="Helvetica,sans-Serif" font-size="10.00">+ data_bits</text>
<text text-anchor="start" x="223" y="-37.5" font-family="Helvetica,sans-Serif" font-size="10.00">+ weight_bits</text>
<text text-anchor="start" x="223" y="-26.5" font-family="Helvetica,sans-Serif" font-size="10.00">+ unipolar</text>
<polyline fill="none" stroke="black" points="215,-19.5 369,-19.5 "/>
<text text-anchor="start" x="223" y="-7.5" font-family="Helvetica,sans-Serif" font-size="10.00">+ TVM_DECLARE_ATTRS()</text>
</g>
<!-- Node2 -->
<g id="node2" class="node"><title>Node2</title>
<g id="a_node2"><a xlink:href="classtvm_1_1AttrsNode.html" target="_top" xlink:title="{tvm::AttrsNode\&lt; BinaryDense\lAttrs \&gt;\n||+ VisitAttrs()\l+ VisitNonDefaultAttrs()\l+ InitByPackedArgs()\l+ SEqualReduce()\l+ SHashReduce()\l+ ListFieldInfo()\l+ ContentEqual()\l+ ContentHash()\l}">
<polygon fill="white" stroke="black" points="27,-182.5 27,-327.5 189,-327.5 189,-182.5 27,-182.5"/>
<text text-anchor="start" x="35" y="-315.5" font-family="Helvetica,sans-Serif" font-size="10.00">tvm::AttrsNode&lt; BinaryDense</text>
<text text-anchor="middle" x="108" y="-304.5" font-family="Helvetica,sans-Serif" font-size="10.00">Attrs &gt;</text>
<polyline fill="none" stroke="black" points="27,-297.5 189,-297.5 "/>
<text text-anchor="middle" x="108" y="-285.5" font-family="Helvetica,sans-Serif" font-size="10.00"> </text>
<polyline fill="none" stroke="black" points="27,-278.5 189,-278.5 "/>
<text text-anchor="start" x="35" y="-266.5" font-family="Helvetica,sans-Serif" font-size="10.00">+ VisitAttrs()</text>
<text text-anchor="start" x="35" y="-255.5" font-family="Helvetica,sans-Serif" font-size="10.00">+ VisitNonDefaultAttrs()</text>
<text text-anchor="start" x="35" y="-244.5" font-family="Helvetica,sans-Serif" font-size="10.00">+ InitByPackedArgs()</text>
<text text-anchor="start" x="35" y="-233.5" font-family="Helvetica,sans-Serif" font-size="10.00">+ SEqualReduce()</text>
<text text-anchor="start" x="35" y="-222.5" font-family="Helvetica,sans-Serif" font-size="10.00">+ SHashReduce()</text>
<text text-anchor="start" x="35" y="-211.5" font-family="Helvetica,sans-Serif" font-size="10.00">+ ListFieldInfo()</text>
<text text-anchor="start" x="35" y="-200.5" font-family="Helvetica,sans-Serif" font-size="10.00">+ ContentEqual()</text>
<text text-anchor="start" x="35" y="-189.5" font-family="Helvetica,sans-Serif" font-size="10.00">+ ContentHash()</text>
</a>
</g>
</g>
<!-- Node2&#45;&gt;Node1 -->
<g id="edge1" class="edge"><title>Node2&#45;&gt;Node1</title>
<path fill="none" stroke="midnightblue" d="M176.402,-174.606C186.978,-162.344 197.779,-149.83 208,-138 224.603,-118.783 243.077,-97.4463 258.462,-79.6878"/>
<polygon fill="none" stroke="midnightblue" points="173.734,-172.34 169.854,-182.199 179.035,-176.912 173.734,-172.34"/>
</g>
<!-- Node3 -->
<g id="node3" class="node"><title>Node3</title>
<g id="a_node3"><a xlink:href="classtvm_1_1BaseAttrsNode.html" target="_top" xlink:title="Base class of all attribute class. ">
<polygon fill="white" stroke="black" points="0,-409.5 0,-609.5 204,-609.5 204,-409.5 0,-409.5"/>
<text text-anchor="middle" x="102" y="-597.5" font-family="Helvetica,sans-Serif" font-size="10.00">tvm::BaseAttrsNode</text>
<polyline fill="none" stroke="black" points="0,-590.5 204,-590.5 "/>
<text text-anchor="start" x="8" y="-578.5" font-family="Helvetica,sans-Serif" font-size="10.00">+ _type_has_method_sequal</text>
<text text-anchor="start" x="8" y="-567.5" font-family="Helvetica,sans-Serif" font-size="10.00">_reduce</text>
<text text-anchor="start" x="8" y="-556.5" font-family="Helvetica,sans-Serif" font-size="10.00">+ _type_has_method_shash</text>
<text text-anchor="start" x="8" y="-545.5" font-family="Helvetica,sans-Serif" font-size="10.00">_reduce</text>
<text text-anchor="start" x="8" y="-534.5" font-family="Helvetica,sans-Serif" font-size="10.00">+ _type_key</text>
<polyline fill="none" stroke="black" points="0,-527.5 204,-527.5 "/>
<text text-anchor="start" x="8" y="-515.5" font-family="Helvetica,sans-Serif" font-size="10.00">+ ~BaseAttrsNode()</text>
<text text-anchor="start" x="8" y="-504.5" font-family="Helvetica,sans-Serif" font-size="10.00">+ VisitAttrs()</text>
<text text-anchor="start" x="8" y="-493.5" font-family="Helvetica,sans-Serif" font-size="10.00">+ InitBySeq()</text>
<text text-anchor="start" x="8" y="-482.5" font-family="Helvetica,sans-Serif" font-size="10.00">+ PrintDocString()</text>
<text text-anchor="start" x="8" y="-471.5" font-family="Helvetica,sans-Serif" font-size="10.00">+ VisitNonDefaultAttrs()</text>
<text text-anchor="start" x="8" y="-460.5" font-family="Helvetica,sans-Serif" font-size="10.00">+ ListFieldInfo()</text>
<text text-anchor="start" x="8" y="-449.5" font-family="Helvetica,sans-Serif" font-size="10.00">+ InitByPackedArgs()</text>
<text text-anchor="start" x="8" y="-438.5" font-family="Helvetica,sans-Serif" font-size="10.00">+ ContentEqual()</text>
<text text-anchor="start" x="8" y="-427.5" font-family="Helvetica,sans-Serif" font-size="10.00">+ ContentHash()</text>
<text text-anchor="start" x="8" y="-416.5" font-family="Helvetica,sans-Serif" font-size="10.00">+ TVM_DECLARE_BASE_OBJECT_INFO()</text>
</a>
</g>
</g>
<!-- Node3&#45;&gt;Node2 -->
<g id="edge2" class="edge"><title>Node3&#45;&gt;Node2</title>
<path fill="none" stroke="midnightblue" d="M104.598,-399.151C105.172,-375.022 105.765,-350.054 106.292,-327.859"/>
<polygon fill="none" stroke="midnightblue" points="101.093,-399.35 104.354,-409.43 108.091,-399.516 101.093,-399.35"/>
</g>
<!-- Node4 -->
<g id="node4" class="node"><title>Node4</title>
<polygon fill="white" stroke="#bfbfbf" points="78.5,-647.5 78.5,-704.5 125.5,-704.5 125.5,-647.5 78.5,-647.5"/>
<text text-anchor="middle" x="102" y="-692.5" font-family="Helvetica,sans-Serif" font-size="10.00">Object</text>
<polyline fill="none" stroke="#bfbfbf" points="78.5,-685.5 125.5,-685.5 "/>
<text text-anchor="middle" x="102" y="-673.5" font-family="Helvetica,sans-Serif" font-size="10.00"> </text>
<polyline fill="none" stroke="#bfbfbf" points="78.5,-666.5 125.5,-666.5 "/>
<text text-anchor="middle" x="102" y="-654.5" font-family="Helvetica,sans-Serif" font-size="10.00"> </text>
</g>
<!-- Node4&#45;&gt;Node3 -->
<g id="edge3" class="edge"><title>Node4&#45;&gt;Node3</title>
<path fill="none" stroke="midnightblue" d="M102,-637.289C102,-628.841 102,-619.496 102,-609.821"/>
<polygon fill="none" stroke="midnightblue" points="98.5001,-637.466 102,-647.466 105.5,-637.466 98.5001,-637.466"/>
</g>
<!-- Node5 -->
<g id="node5" class="node"><title>Node5</title>
<g id="a_node5"><a xlink:href="classtvm_1_1PrimExpr.html" target="_top" xlink:title="Reference to PrimExprNode. ">
<polygon fill="white" stroke="black" points="217,-199 217,-311 367,-311 367,-199 217,-199"/>
<text text-anchor="middle" x="292" y="-299" font-family="Helvetica,sans-Serif" font-size="10.00">tvm::PrimExpr</text>
<polyline fill="none" stroke="black" points="217,-292 367,-292 "/>
<text text-anchor="middle" x="292" y="-280" font-family="Helvetica,sans-Serif" font-size="10.00"> </text>
<polyline fill="none" stroke="black" points="217,-273 367,-273 "/>
<text text-anchor="start" x="225" y="-261" font-family="Helvetica,sans-Serif" font-size="10.00">+ PrimExpr()</text>
<text text-anchor="start" x="225" y="-250" font-family="Helvetica,sans-Serif" font-size="10.00">+ PrimExpr()</text>
<text text-anchor="start" x="225" y="-239" font-family="Helvetica,sans-Serif" font-size="10.00">+ PrimExpr()</text>
<text text-anchor="start" x="225" y="-228" font-family="Helvetica,sans-Serif" font-size="10.00">+ dtype()</text>
<text text-anchor="start" x="225" y="-217" font-family="Helvetica,sans-Serif" font-size="10.00">+ TVM_DEFINE_OBJECT_REF</text>
<text text-anchor="start" x="225" y="-206" font-family="Helvetica,sans-Serif" font-size="10.00">_METHODS()</text>
</a>
</g>
</g>
<!-- Node5&#45;&gt;Node1 -->
<g id="edge4" class="edge"><title>Node5&#45;&gt;Node1</title>
<path fill="none" stroke="#404040" d="M292,-198.87C292,-165.898 292,-124.288 292,-92.0647"/>
<polygon fill="none" stroke="#404040" points="292,-91.771 288,-85.7711 292,-79.771 296,-85.771 292,-91.771"/>
<text text-anchor="middle" x="309.5" y="-106.5" font-family="Helvetica,sans-Serif" font-size="10.00"> +units</text>
</g>
<!-- Node6 -->
<g id="node6" class="node"><title>Node6</title>
<g id="a_node6"><a xlink:href="classtvm_1_1BaseExpr.html" target="_top" xlink:title="Managed reference to BaseExprNode. ">
<polygon fill="white" stroke="black" points="222,-475.5 222,-543.5 372,-543.5 372,-475.5 222,-475.5"/>
<text text-anchor="middle" x="297" y="-531.5" font-family="Helvetica,sans-Serif" font-size="10.00">tvm::BaseExpr</text>
<polyline fill="none" stroke="black" points="222,-524.5 372,-524.5 "/>
<text text-anchor="middle" x="297" y="-512.5" font-family="Helvetica,sans-Serif" font-size="10.00"> </text>
<polyline fill="none" stroke="black" points="222,-505.5 372,-505.5 "/>
<text text-anchor="start" x="230" y="-493.5" font-family="Helvetica,sans-Serif" font-size="10.00">+ TVM_DEFINE_OBJECT_REF</text>
<text text-anchor="start" x="230" y="-482.5" font-family="Helvetica,sans-Serif" font-size="10.00">_METHODS()</text>
</a>
</g>
</g>
<!-- Node6&#45;&gt;Node5 -->
<g id="edge5" class="edge"><title>Node6&#45;&gt;Node5</title>
<path fill="none" stroke="midnightblue" d="M296.147,-465.449C295.305,-422.884 294.011,-357.578 293.093,-311.217"/>
<polygon fill="none" stroke="midnightblue" points="292.649,-465.561 296.346,-475.49 299.648,-465.423 292.649,-465.561"/>
</g>
<!-- Node7 -->
<g id="node7" class="node"><title>Node7</title>
<polygon fill="white" stroke="#bfbfbf" points="266,-647.5 266,-704.5 328,-704.5 328,-647.5 266,-647.5"/>
<text text-anchor="middle" x="297" y="-692.5" font-family="Helvetica,sans-Serif" font-size="10.00">ObjectRef</text>
<polyline fill="none" stroke="#bfbfbf" points="266,-685.5 328,-685.5 "/>
<text text-anchor="middle" x="297" y="-673.5" font-family="Helvetica,sans-Serif" font-size="10.00"> </text>
<polyline fill="none" stroke="#bfbfbf" points="266,-666.5 328,-666.5 "/>
<text text-anchor="middle" x="297" y="-654.5" font-family="Helvetica,sans-Serif" font-size="10.00"> </text>
</g>
<!-- Node7&#45;&gt;Node6 -->
<g id="edge6" class="edge"><title>Node7&#45;&gt;Node6</title>
<path fill="none" stroke="midnightblue" d="M297,-637.159C297,-608.869 297,-570.569 297,-543.515"/>
<polygon fill="none" stroke="midnightblue" points="293.5,-637.466 297,-647.466 300.5,-637.466 293.5,-637.466"/>
</g>
<!-- Node8 -->
<g id="node8" class="node"><title>Node8</title>
<g id="a_node8"><a xlink:href="classtvm_1_1runtime_1_1DataType.html" target="_top" xlink:title="Runtime primitive data type. ">
<polygon fill="white" stroke="black" points="385.5,-138.5 385.5,-371.5 514.5,-371.5 514.5,-138.5 385.5,-138.5"/>
<text text-anchor="middle" x="450" y="-359.5" font-family="Helvetica,sans-Serif" font-size="10.00">tvm::runtime::DataType</text>
<polyline fill="none" stroke="black" points="385.5,-352.5 514.5,-352.5 "/>
<text text-anchor="middle" x="450" y="-340.5" font-family="Helvetica,sans-Serif" font-size="10.00"> </text>
<polyline fill="none" stroke="black" points="385.5,-333.5 514.5,-333.5 "/>
<text text-anchor="start" x="393.5" y="-321.5" font-family="Helvetica,sans-Serif" font-size="10.00">+ DataType()</text>
<text text-anchor="start" x="393.5" y="-310.5" font-family="Helvetica,sans-Serif" font-size="10.00">+ DataType()</text>
<text text-anchor="start" x="393.5" y="-299.5" font-family="Helvetica,sans-Serif" font-size="10.00">+ DataType()</text>
<text text-anchor="start" x="393.5" y="-288.5" font-family="Helvetica,sans-Serif" font-size="10.00">+ code()</text>
<text text-anchor="start" x="393.5" y="-277.5" font-family="Helvetica,sans-Serif" font-size="10.00">+ bits()</text>
<text text-anchor="start" x="393.5" y="-266.5" font-family="Helvetica,sans-Serif" font-size="10.00">+ bytes()</text>
<text text-anchor="start" x="393.5" y="-255.5" font-family="Helvetica,sans-Serif" font-size="10.00">+ lanes()</text>
<text text-anchor="start" x="393.5" y="-244.5" font-family="Helvetica,sans-Serif" font-size="10.00">+ is_scalar()</text>
<text text-anchor="start" x="393.5" y="-233.5" font-family="Helvetica,sans-Serif" font-size="10.00">+ is_bool()</text>
<text text-anchor="start" x="393.5" y="-222.5" font-family="Helvetica,sans-Serif" font-size="10.00">+ is_float()</text>
<text text-anchor="start" x="393.5" y="-211.5" font-family="Helvetica,sans-Serif" font-size="10.00">and 12 more...</text>
<text text-anchor="start" x="393.5" y="-200.5" font-family="Helvetica,sans-Serif" font-size="10.00">+ Int()</text>
<text text-anchor="start" x="393.5" y="-189.5" font-family="Helvetica,sans-Serif" font-size="10.00">+ UInt()</text>
<text text-anchor="start" x="393.5" y="-178.5" font-family="Helvetica,sans-Serif" font-size="10.00">+ Float()</text>
<text text-anchor="start" x="393.5" y="-167.5" font-family="Helvetica,sans-Serif" font-size="10.00">+ Bool()</text>
<text text-anchor="start" x="393.5" y="-156.5" font-family="Helvetica,sans-Serif" font-size="10.00">+ Handle()</text>
<text text-anchor="start" x="393.5" y="-145.5" font-family="Helvetica,sans-Serif" font-size="10.00">+ ShapeIndex()</text>
</a>
</g>
</g>
<!-- Node8&#45;&gt;Node1 -->
<g id="edge7" class="edge"><title>Node8&#45;&gt;Node1</title>
<path fill="none" stroke="#404040" d="M385.42,-150.982C382.29,-146.558 379.142,-142.213 376,-138 363.648,-121.437 349.22,-104.143 335.842,-88.8214"/>
<polygon fill="none" stroke="#404040" points="335.613,-88.5614 328.644,-86.7068 327.676,-79.561 334.644,-81.4156 335.613,-88.5614"/>
<text text-anchor="middle" x="393" y="-112" font-family="Helvetica,sans-Serif" font-size="10.00"> +out_dtype</text>
<text text-anchor="middle" x="393" y="-101" font-family="Helvetica,sans-Serif" font-size="10.00">+pack_dtype</text>
</g>
</g>
</svg>
