<?xml version="1.0" encoding="UTF-8" standalone="no"?>
<!DOCTYPE svg PUBLIC "-//W3C//DTD SVG 1.1//EN"
 "http://www.w3.org/Graphics/SVG/1.1/DTD/svg11.dtd">
<!-- Generated by graphviz version 2.38.0 (20140413.2041)
 -->
<!-- Title: tvm::relay::ReduceAttrs Pages: 1 -->
<svg width="361pt" height="625pt"
 viewBox="0.00 0.00 361.00 625.00" xmlns="http://www.w3.org/2000/svg" xmlns:xlink="http://www.w3.org/1999/xlink">
<g id="graph0" class="graph" transform="scale(1 1) rotate(0) translate(4 621)">
<title>tvm::relay::ReduceAttrs</title>
<polygon fill="white" stroke="none" points="-4,4 -4,-621 357,-621 357,4 -4,4"/>
<!-- Node1 -->
<g id="node1" class="node"><title>Node1</title>
<polygon fill="#bfbfbf" stroke="black" points="138,-0.5 138,-68.5 278,-68.5 278,-0.5 138,-0.5"/>
<text text-anchor="middle" x="208" y="-56.5" font-family="Helvetica,sans-Serif" font-size="10.00">tvm::relay::ReduceAttrs</text>
<polyline fill="none" stroke="black" points="138,-49.5 278,-49.5 "/>
<text text-anchor="start" x="146" y="-37.5" font-family="Helvetica,sans-Serif" font-size="10.00">+ keepdims</text>
<text text-anchor="start" x="146" y="-26.5" font-family="Helvetica,sans-Serif" font-size="10.00">+ exclude</text>
<polyline fill="none" stroke="black" points="138,-19.5 278,-19.5 "/>
<text text-anchor="start" x="146" y="-7.5" font-family="Helvetica,sans-Serif" font-size="10.00">+ TVM_DECLARE_ATTRS()</text>
</g>
<!-- Node2 -->
<g id="node2" class="node"><title>Node2</title>
<g id="a_node2"><a xlink:href="classtvm_1_1AttrsNode.html" target="_top" xlink:title="{tvm::AttrsNode\&lt; ReduceAttrs \&gt;\n||+ VisitAttrs()\l+ VisitNonDefaultAttrs()\l+ InitByPackedArgs()\l+ SEqualReduce()\l+ SHashReduce()\l+ ListFieldInfo()\l+ ContentEqual()\l+ ContentHash()\l}">
<polygon fill="white" stroke="black" points="17,-133 17,-267 187,-267 187,-133 17,-133"/>
<text text-anchor="middle" x="102" y="-255" font-family="Helvetica,sans-Serif" font-size="10.00">tvm::AttrsNode&lt; ReduceAttrs &gt;</text>
<polyline fill="none" stroke="black" points="17,-248 187,-248 "/>
<text text-anchor="middle" x="102" y="-236" font-family="Helvetica,sans-Serif" font-size="10.00"> </text>
<polyline fill="none" stroke="black" points="17,-229 187,-229 "/>
<text text-anchor="start" x="25" y="-217" font-family="Helvetica,sans-Serif" font-size="10.00">+ VisitAttrs()</text>
<text text-anchor="start" x="25" y="-206" font-family="Helvetica,sans-Serif" font-size="10.00">+ VisitNonDefaultAttrs()</text>
<text text-anchor="start" x="25" y="-195" font-family="Helvetica,sans-Serif" font-size="10.00">+ InitByPackedArgs()</text>
<text text-anchor="start" x="25" y="-184" font-family="Helvetica,sans-Serif" font-size="10.00">+ SEqualReduce()</text>
<text text-anchor="start" x="25" y="-173" font-family="Helvetica,sans-Serif" font-size="10.00">+ SHashReduce()</text>
<text text-anchor="start" x="25" y="-162" font-family="Helvetica,sans-Serif" font-size="10.00">+ ListFieldInfo()</text>
<text text-anchor="start" x="25" y="-151" font-family="Helvetica,sans-Serif" font-size="10.00">+ ContentEqual()</text>
<text text-anchor="start" x="25" y="-140" font-family="Helvetica,sans-Serif" font-size="10.00">+ ContentHash()</text>
</a>
</g>
</g>
<!-- Node2&#45;&gt;Node1 -->
<g id="edge1" class="edge"><title>Node2&#45;&gt;Node1</title>
<path fill="none" stroke="midnightblue" d="M150.406,-124.336C163.088,-104.775 176.123,-84.6684 186.578,-68.5421"/>
<polygon fill="none" stroke="midnightblue" points="147.312,-122.675 144.809,-132.97 153.186,-126.483 147.312,-122.675"/>
</g>
<!-- Node3 -->
<g id="node3" class="node"><title>Node3</title>
<g id="a_node3"><a xlink:href="classtvm_1_1BaseAttrsNode.html" target="_top" xlink:title="Base class of all attribute class. ">
<polygon fill="white" stroke="black" points="0,-321.5 0,-521.5 204,-521.5 204,-321.5 0,-321.5"/>
<text text-anchor="middle" x="102" y="-509.5" font-family="Helvetica,sans-Serif" font-size="10.00">tvm::BaseAttrsNode</text>
<polyline fill="none" stroke="black" points="0,-502.5 204,-502.5 "/>
<text text-anchor="start" x="8" y="-490.5" font-family="Helvetica,sans-Serif" font-size="10.00">+ _type_has_method_sequal</text>
<text text-anchor="start" x="8" y="-479.5" font-family="Helvetica,sans-Serif" font-size="10.00">_reduce</text>
<text text-anchor="start" x="8" y="-468.5" font-family="Helvetica,sans-Serif" font-size="10.00">+ _type_has_method_shash</text>
<text text-anchor="start" x="8" y="-457.5" font-family="Helvetica,sans-Serif" font-size="10.00">_reduce</text>
<text text-anchor="start" x="8" y="-446.5" font-family="Helvetica,sans-Serif" font-size="10.00">+ _type_key</text>
<polyline fill="none" stroke="black" points="0,-439.5 204,-439.5 "/>
<text text-anchor="start" x="8" y="-427.5" font-family="Helvetica,sans-Serif" font-size="10.00">+ ~BaseAttrsNode()</text>
<text text-anchor="start" x="8" y="-416.5" font-family="Helvetica,sans-Serif" font-size="10.00">+ VisitAttrs()</text>
<text text-anchor="start" x="8" y="-405.5" font-family="Helvetica,sans-Serif" font-size="10.00">+ InitBySeq()</text>
<text text-anchor="start" x="8" y="-394.5" font-family="Helvetica,sans-Serif" font-size="10.00">+ PrintDocString()</text>
<text text-anchor="start" x="8" y="-383.5" font-family="Helvetica,sans-Serif" font-size="10.00">+ VisitNonDefaultAttrs()</text>
<text text-anchor="start" x="8" y="-372.5" font-family="Helvetica,sans-Serif" font-size="10.00">+ ListFieldInfo()</text>
<text text-anchor="start" x="8" y="-361.5" font-family="Helvetica,sans-Serif" font-size="10.00">+ InitByPackedArgs()</text>
<text text-anchor="start" x="8" y="-350.5" font-family="Helvetica,sans-Serif" font-size="10.00">+ ContentEqual()</text>
<text text-anchor="start" x="8" y="-339.5" font-family="Helvetica,sans-Serif" font-size="10.00">+ ContentHash()</text>
<text text-anchor="start" x="8" y="-328.5" font-family="Helvetica,sans-Serif" font-size="10.00">+ TVM_DECLARE_BASE_OBJECT_INFO()</text>
</a>
</g>
</g>
<!-- Node3&#45;&gt;Node2 -->
<g id="edge2" class="edge"><title>Node3&#45;&gt;Node2</title>
<path fill="none" stroke="midnightblue" d="M102,-310.965C102,-295.948 102,-280.926 102,-267.023"/>
<polygon fill="none" stroke="midnightblue" points="98.5001,-311.346 102,-321.346 105.5,-311.346 98.5001,-311.346"/>
</g>
<!-- Node4 -->
<g id="node4" class="node"><title>Node4</title>
<polygon fill="white" stroke="#bfbfbf" points="78.5,-559.5 78.5,-616.5 125.5,-616.5 125.5,-559.5 78.5,-559.5"/>
<text text-anchor="middle" x="102" y="-604.5" font-family="Helvetica,sans-Serif" font-size="10.00">Object</text>
<polyline fill="none" stroke="#bfbfbf" points="78.5,-597.5 125.5,-597.5 "/>
<text text-anchor="middle" x="102" y="-585.5" font-family="Helvetica,sans-Serif" font-size="10.00"> </text>
<polyline fill="none" stroke="#bfbfbf" points="78.5,-578.5 125.5,-578.5 "/>
<text text-anchor="middle" x="102" y="-566.5" font-family="Helvetica,sans-Serif" font-size="10.00"> </text>
</g>
<!-- Node4&#45;&gt;Node3 -->
<g id="edge3" class="edge"><title>Node4&#45;&gt;Node3</title>
<path fill="none" stroke="midnightblue" d="M102,-549.289C102,-540.841 102,-531.496 102,-521.821"/>
<polygon fill="none" stroke="midnightblue" points="98.5001,-549.466 102,-559.466 105.5,-549.466 98.5001,-549.466"/>
</g>
<!-- Node5 -->
<g id="node5" class="node"><title>Node5</title>
<g id="a_node5"><a xlink:href="classtvm_1_1Array.html" target="_top" xlink:title="{tvm::Array\&lt; tvm::Integer \&gt;\n||+ Array()\l+ Array()\l+ Array()\l+ Array()\l+ Array()\l+ Array()\l+ Array()\l+ Array()\l+ operator=()\l+ operator=()\land 13 more...\l}">
<polygon fill="white" stroke="black" points="205,-116.5 205,-283.5 353,-283.5 353,-116.5 205,-116.5"/>
<text text-anchor="middle" x="279" y="-271.5" font-family="Helvetica,sans-Serif" font-size="10.00">tvm::Array&lt; tvm::Integer &gt;</text>
<polyline fill="none" stroke="black" points="205,-264.5 353,-264.5 "/>
<text text-anchor="middle" x="279" y="-252.5" font-family="Helvetica,sans-Serif" font-size="10.00"> </text>
<polyline fill="none" stroke="black" points="205,-245.5 353,-245.5 "/>
<text text-anchor="start" x="213" y="-233.5" font-family="Helvetica,sans-Serif" font-size="10.00">+ Array()</text>
<text text-anchor="start" x="213" y="-222.5" font-family="Helvetica,sans-Serif" font-size="10.00">+ Array()</text>
<text text-anchor="start" x="213" y="-211.5" font-family="Helvetica,sans-Serif" font-size="10.00">+ Array()</text>
<text text-anchor="start" x="213" y="-200.5" font-family="Helvetica,sans-Serif" font-size="10.00">+ Array()</text>
<text text-anchor="start" x="213" y="-189.5" font-family="Helvetica,sans-Serif" font-size="10.00">+ Array()</text>
<text text-anchor="start" x="213" y="-178.5" font-family="Helvetica,sans-Serif" font-size="10.00">+ Array()</text>
<text text-anchor="start" x="213" y="-167.5" font-family="Helvetica,sans-Serif" font-size="10.00">+ Array()</text>
<text text-anchor="start" x="213" y="-156.5" font-family="Helvetica,sans-Serif" font-size="10.00">+ Array()</text>
<text text-anchor="start" x="213" y="-145.5" font-family="Helvetica,sans-Serif" font-size="10.00">+ operator=()</text>
<text text-anchor="start" x="213" y="-134.5" font-family="Helvetica,sans-Serif" font-size="10.00">+ operator=()</text>
<text text-anchor="start" x="213" y="-123.5" font-family="Helvetica,sans-Serif" font-size="10.00">and 13 more...</text>
</a>
</g>
</g>
<!-- Node5&#45;&gt;Node1 -->
<g id="edge4" class="edge"><title>Node5&#45;&gt;Node1</title>
<path fill="none" stroke="#404040" d="M243.084,-116.292C237.621,-103.712 232.171,-91.1622 227.252,-79.8344"/>
<polygon fill="none" stroke="#404040" points="227.12,-79.5291 221.061,-75.6189 222.34,-68.5221 228.399,-72.4323 227.12,-79.5291"/>
<text text-anchor="middle" x="251.5" y="-90" font-family="Helvetica,sans-Serif" font-size="10.00"> +axis</text>
</g>
<!-- Node6 -->
<g id="node6" class="node"><title>Node6</title>
<polygon fill="white" stroke="#bfbfbf" points="248,-393 248,-450 310,-450 310,-393 248,-393"/>
<text text-anchor="middle" x="279" y="-438" font-family="Helvetica,sans-Serif" font-size="10.00">ObjectRef</text>
<polyline fill="none" stroke="#bfbfbf" points="248,-431 310,-431 "/>
<text text-anchor="middle" x="279" y="-419" font-family="Helvetica,sans-Serif" font-size="10.00"> </text>
<polyline fill="none" stroke="#bfbfbf" points="248,-412 310,-412 "/>
<text text-anchor="middle" x="279" y="-400" font-family="Helvetica,sans-Serif" font-size="10.00"> </text>
</g>
<!-- Node6&#45;&gt;Node5 -->
<g id="edge5" class="edge"><title>Node6&#45;&gt;Node5</title>
<path fill="none" stroke="midnightblue" d="M279,-382.472C279,-355.322 279,-317.754 279,-283.839"/>
<polygon fill="none" stroke="midnightblue" points="275.5,-382.7 279,-392.7 282.5,-382.7 275.5,-382.7"/>
</g>
</g>
</svg>
