<?xml version="1.0" encoding="UTF-8" standalone="no"?>
<!DOCTYPE svg PUBLIC "-//W3C//DTD SVG 1.1//EN"
 "http://www.w3.org/Graphics/SVG/1.1/DTD/svg11.dtd">
<!-- Generated by graphviz version 2.38.0 (20140413.2041)
 -->
<!-- Title: tvm::relay::ConstructorValueObj Pages: 1 -->
<svg width="289pt" height="699pt"
 viewBox="0.00 0.00 288.50 699.00" xmlns="http://www.w3.org/2000/svg" xmlns:xlink="http://www.w3.org/1999/xlink">
<g id="graph0" class="graph" transform="scale(1 1) rotate(0) translate(4 695)">
<title>tvm::relay::ConstructorValueObj</title>
<polygon fill="white" stroke="none" points="-4,4 -4,-695 284.5,-695 284.5,4 -4,4"/>
<!-- Node1 -->
<g id="node1" class="node"><title>Node1</title>
<polygon fill="#bfbfbf" stroke="black" points="0,-0.5 0,-79.5 205,-79.5 205,-0.5 0,-0.5"/>
<text text-anchor="middle" x="102.5" y="-67.5" font-family="Helvetica,sans-Serif" font-size="10.00">tvm::relay::ConstructorValueObj</text>
<polyline fill="none" stroke="black" points="0,-60.5 205,-60.5 "/>
<text text-anchor="start" x="8" y="-48.5" font-family="Helvetica,sans-Serif" font-size="10.00">+ tag</text>
<text text-anchor="start" x="8" y="-37.5" font-family="Helvetica,sans-Serif" font-size="10.00">+ _type_key</text>
<polyline fill="none" stroke="black" points="0,-30.5 205,-30.5 "/>
<text text-anchor="start" x="8" y="-18.5" font-family="Helvetica,sans-Serif" font-size="10.00">+ VisitAttrs()</text>
<text text-anchor="start" x="8" y="-7.5" font-family="Helvetica,sans-Serif" font-size="10.00">+ TVM_DECLARE_FINAL_OBJECT_INFO()</text>
</g>
<!-- Node2 -->
<g id="node2" class="node"><title>Node2</title>
<polygon fill="white" stroke="#bfbfbf" points="27,-138.5 27,-195.5 74,-195.5 74,-138.5 27,-138.5"/>
<text text-anchor="middle" x="50.5" y="-183.5" font-family="Helvetica,sans-Serif" font-size="10.00">Object</text>
<polyline fill="none" stroke="#bfbfbf" points="27,-176.5 74,-176.5 "/>
<text text-anchor="middle" x="50.5" y="-164.5" font-family="Helvetica,sans-Serif" font-size="10.00"> </text>
<polyline fill="none" stroke="#bfbfbf" points="27,-157.5 74,-157.5 "/>
<text text-anchor="middle" x="50.5" y="-145.5" font-family="Helvetica,sans-Serif" font-size="10.00"> </text>
</g>
<!-- Node2&#45;&gt;Node1 -->
<g id="edge1" class="edge"><title>Node2&#45;&gt;Node1</title>
<path fill="none" stroke="midnightblue" d="M65.9162,-128.942C72.3892,-113.382 79.9175,-95.2849 86.4562,-79.5667"/>
<polygon fill="none" stroke="midnightblue" points="62.6499,-127.681 62.0405,-138.258 69.113,-130.37 62.6499,-127.681"/>
</g>
<!-- Node3 -->
<g id="node3" class="node"><title>Node3</title>
<g id="a_node3"><a xlink:href="classtvm_1_1Array.html" target="_top" xlink:title="{tvm::Array\&lt; ObjectRef \&gt;\n||+ Array()\l+ Array()\l+ Array()\l+ Array()\l+ Array()\l+ Array()\l+ Array()\l+ Array()\l+ operator=()\l+ operator=()\land 13 more...\l}">
<polygon fill="white" stroke="black" points="35.5,-341.5 35.5,-508.5 169.5,-508.5 169.5,-341.5 35.5,-341.5"/>
<text text-anchor="middle" x="102.5" y="-496.5" font-family="Helvetica,sans-Serif" font-size="10.00">tvm::Array&lt; ObjectRef &gt;</text>
<polyline fill="none" stroke="black" points="35.5,-489.5 169.5,-489.5 "/>
<text text-anchor="middle" x="102.5" y="-477.5" font-family="Helvetica,sans-Serif" font-size="10.00"> </text>
<polyline fill="none" stroke="black" points="35.5,-470.5 169.5,-470.5 "/>
<text text-anchor="start" x="43.5" y="-458.5" font-family="Helvetica,sans-Serif" font-size="10.00">+ Array()</text>
<text text-anchor="start" x="43.5" y="-447.5" font-family="Helvetica,sans-Serif" font-size="10.00">+ Array()</text>
<text text-anchor="start" x="43.5" y="-436.5" font-family="Helvetica,sans-Serif" font-size="10.00">+ Array()</text>
<text text-anchor="start" x="43.5" y="-425.5" font-family="Helvetica,sans-Serif" font-size="10.00">+ Array()</text>
<text text-anchor="start" x="43.5" y="-414.5" font-family="Helvetica,sans-Serif" font-size="10.00">+ Array()</text>
<text text-anchor="start" x="43.5" y="-403.5" font-family="Helvetica,sans-Serif" font-size="10.00">+ Array()</text>
<text text-anchor="start" x="43.5" y="-392.5" font-family="Helvetica,sans-Serif" font-size="10.00">+ Array()</text>
<text text-anchor="start" x="43.5" y="-381.5" font-family="Helvetica,sans-Serif" font-size="10.00">+ Array()</text>
<text text-anchor="start" x="43.5" y="-370.5" font-family="Helvetica,sans-Serif" font-size="10.00">+ operator=()</text>
<text text-anchor="start" x="43.5" y="-359.5" font-family="Helvetica,sans-Serif" font-size="10.00">+ operator=()</text>
<text text-anchor="start" x="43.5" y="-348.5" font-family="Helvetica,sans-Serif" font-size="10.00">and 13 more...</text>
</a>
</g>
</g>
<!-- Node3&#45;&gt;Node1 -->
<g id="edge2" class="edge"><title>Node3&#45;&gt;Node1</title>
<path fill="none" stroke="#404040" d="M102.5,-341.366C102.5,-265.499 102.5,-155.495 102.5,-91.8061"/>
<polygon fill="none" stroke="#404040" points="102.5,-91.7097 98.5,-85.7098 102.5,-79.7097 106.5,-85.7097 102.5,-91.7097"/>
<text text-anchor="middle" x="121" y="-228" font-family="Helvetica,sans-Serif" font-size="10.00"> +fields</text>
</g>
<!-- Node4 -->
<g id="node4" class="node"><title>Node4</title>
<polygon fill="white" stroke="#bfbfbf" points="103.5,-633.5 103.5,-690.5 165.5,-690.5 165.5,-633.5 103.5,-633.5"/>
<text text-anchor="middle" x="134.5" y="-678.5" font-family="Helvetica,sans-Serif" font-size="10.00">ObjectRef</text>
<polyline fill="none" stroke="#bfbfbf" points="103.5,-671.5 165.5,-671.5 "/>
<text text-anchor="middle" x="134.5" y="-659.5" font-family="Helvetica,sans-Serif" font-size="10.00"> </text>
<polyline fill="none" stroke="#bfbfbf" points="103.5,-652.5 165.5,-652.5 "/>
<text text-anchor="middle" x="134.5" y="-640.5" font-family="Helvetica,sans-Serif" font-size="10.00"> </text>
</g>
<!-- Node4&#45;&gt;Node3 -->
<g id="edge3" class="edge"><title>Node4&#45;&gt;Node3</title>
<path fill="none" stroke="midnightblue" d="M126.418,-623.451C124.647,-614.483 122.888,-604.923 121.5,-596 117.094,-567.682 113.31,-536.558 110.305,-508.766"/>
<polygon fill="none" stroke="midnightblue" points="122.989,-624.153 128.405,-633.259 129.85,-622.763 122.989,-624.153"/>
</g>
<!-- Node7 -->
<g id="node7" class="node"><title>Node7</title>
<g id="a_node7"><a xlink:href="classtvm_1_1BaseExpr.html" target="_top" xlink:title="Managed reference to BaseExprNode. ">
<polygon fill="white" stroke="black" points="130.5,-527.5 130.5,-595.5 280.5,-595.5 280.5,-527.5 130.5,-527.5"/>
<text text-anchor="middle" x="205.5" y="-583.5" font-family="Helvetica,sans-Serif" font-size="10.00">tvm::BaseExpr</text>
<polyline fill="none" stroke="black" points="130.5,-576.5 280.5,-576.5 "/>
<text text-anchor="middle" x="205.5" y="-564.5" font-family="Helvetica,sans-Serif" font-size="10.00"> </text>
<polyline fill="none" stroke="black" points="130.5,-557.5 280.5,-557.5 "/>
<text text-anchor="start" x="138.5" y="-545.5" font-family="Helvetica,sans-Serif" font-size="10.00">+ TVM_DEFINE_OBJECT_REF</text>
<text text-anchor="start" x="138.5" y="-534.5" font-family="Helvetica,sans-Serif" font-size="10.00">_METHODS()</text>
</a>
</g>
</g>
<!-- Node4&#45;&gt;Node7 -->
<g id="edge7" class="edge"><title>Node4&#45;&gt;Node7</title>
<path fill="none" stroke="midnightblue" d="M160.405,-625.062C167.351,-615.425 174.828,-605.053 181.657,-595.578"/>
<polygon fill="none" stroke="midnightblue" points="157.475,-623.141 154.466,-633.3 163.153,-627.234 157.475,-623.141"/>
</g>
<!-- Node5 -->
<g id="node5" class="node"><title>Node5</title>
<g id="a_node5"><a xlink:href="classtvm_1_1Constructor.html" target="_top" xlink:title="Managed reference to ConstructorNode. ">
<polygon fill="white" stroke="black" points="130.5,-127.5 130.5,-206.5 280.5,-206.5 280.5,-127.5 130.5,-127.5"/>
<text text-anchor="middle" x="205.5" y="-194.5" font-family="Helvetica,sans-Serif" font-size="10.00">tvm::Constructor</text>
<polyline fill="none" stroke="black" points="130.5,-187.5 280.5,-187.5 "/>
<text text-anchor="middle" x="205.5" y="-175.5" font-family="Helvetica,sans-Serif" font-size="10.00"> </text>
<polyline fill="none" stroke="black" points="130.5,-168.5 280.5,-168.5 "/>
<text text-anchor="start" x="138.5" y="-156.5" font-family="Helvetica,sans-Serif" font-size="10.00">+ Constructor()</text>
<text text-anchor="start" x="138.5" y="-145.5" font-family="Helvetica,sans-Serif" font-size="10.00">+ TVM_DEFINE_OBJECT_REF</text>
<text text-anchor="start" x="138.5" y="-134.5" font-family="Helvetica,sans-Serif" font-size="10.00">_METHODS()</text>
</a>
</g>
</g>
<!-- Node5&#45;&gt;Node1 -->
<g id="edge4" class="edge"><title>Node5&#45;&gt;Node1</title>
<path fill="none" stroke="#404040" d="M173.756,-127.476C163.77,-115.357 152.617,-101.821 142.153,-89.1224"/>
<polygon fill="none" stroke="#404040" points="141.947,-88.8731 135.045,-86.7863 134.316,-79.6121 141.219,-81.6989 141.947,-88.8731"/>
<text text-anchor="middle" x="191" y="-101" font-family="Helvetica,sans-Serif" font-size="10.00"> +constructor</text>
</g>
<!-- Node6 -->
<g id="node6" class="node"><title>Node6</title>
<g id="a_node6"><a xlink:href="classtvm_1_1RelayExpr.html" target="_top" xlink:title="Managed reference to RelayExprNode. ">
<polygon fill="white" stroke="black" points="130.5,-254.5 130.5,-322.5 280.5,-322.5 280.5,-254.5 130.5,-254.5"/>
<text text-anchor="middle" x="205.5" y="-310.5" font-family="Helvetica,sans-Serif" font-size="10.00">tvm::RelayExpr</text>
<polyline fill="none" stroke="black" points="130.5,-303.5 280.5,-303.5 "/>
<text text-anchor="middle" x="205.5" y="-291.5" font-family="Helvetica,sans-Serif" font-size="10.00"> </text>
<polyline fill="none" stroke="black" points="130.5,-284.5 280.5,-284.5 "/>
<text text-anchor="start" x="138.5" y="-272.5" font-family="Helvetica,sans-Serif" font-size="10.00">+ TVM_DEFINE_OBJECT_REF</text>
<text text-anchor="start" x="138.5" y="-261.5" font-family="Helvetica,sans-Serif" font-size="10.00">_METHODS()</text>
</a>
</g>
</g>
<!-- Node6&#45;&gt;Node5 -->
<g id="edge5" class="edge"><title>Node6&#45;&gt;Node5</title>
<path fill="none" stroke="midnightblue" d="M205.5,-244.176C205.5,-231.886 205.5,-218.59 205.5,-206.6"/>
<polygon fill="none" stroke="midnightblue" points="202,-244.213 205.5,-254.213 209,-244.213 202,-244.213"/>
</g>
<!-- Node7&#45;&gt;Node6 -->
<g id="edge6" class="edge"><title>Node7&#45;&gt;Node6</title>
<path fill="none" stroke="midnightblue" d="M205.5,-516.949C205.5,-462.746 205.5,-371.383 205.5,-322.577"/>
<polygon fill="none" stroke="midnightblue" points="202,-517.27 205.5,-527.27 209,-517.27 202,-517.27"/>
</g>
</g>
</svg>
