<?xml version="1.0" encoding="UTF-8" standalone="no"?>
<!DOCTYPE svg PUBLIC "-//W3C//DTD SVG 1.1//EN"
 "http://www.w3.org/Graphics/SVG/1.1/DTD/svg11.dtd">
<!-- Generated by graphviz version 2.38.0 (20140413.2041)
 -->
<!-- Title: tvm::relay::CropAndResizeAttrs Pages: 1 -->
<svg width="519pt" height="713pt"
 viewBox="0.00 0.00 518.50 713.00" xmlns="http://www.w3.org/2000/svg" xmlns:xlink="http://www.w3.org/1999/xlink">
<g id="graph0" class="graph" transform="scale(1 1) rotate(0) translate(4 709)">
<title>tvm::relay::CropAndResizeAttrs</title>
<polygon fill="white" stroke="none" points="-4,4 -4,-709 514.5,-709 514.5,4 -4,4"/>
<!-- Node1 -->
<g id="node1" class="node"><title>Node1</title>
<polygon fill="#bfbfbf" stroke="black" points="214.5,-0.5 214.5,-90.5 355.5,-90.5 355.5,-0.5 214.5,-0.5"/>
<text text-anchor="start" x="222.5" y="-78.5" font-family="Helvetica,sans-Serif" font-size="10.00">tvm::relay::CropAndResize</text>
<text text-anchor="middle" x="285" y="-67.5" font-family="Helvetica,sans-Serif" font-size="10.00">Attrs</text>
<polyline fill="none" stroke="black" points="214.5,-60.5 355.5,-60.5 "/>
<text text-anchor="start" x="222.5" y="-48.5" font-family="Helvetica,sans-Serif" font-size="10.00">+ layout</text>
<text text-anchor="start" x="222.5" y="-37.5" font-family="Helvetica,sans-Serif" font-size="10.00">+ method</text>
<text text-anchor="start" x="222.5" y="-26.5" font-family="Helvetica,sans-Serif" font-size="10.00">+ extrapolation_value</text>
<polyline fill="none" stroke="black" points="214.5,-19.5 355.5,-19.5 "/>
<text text-anchor="start" x="222.5" y="-7.5" font-family="Helvetica,sans-Serif" font-size="10.00">+ TVM_DECLARE_ATTRS()</text>
</g>
<!-- Node2 -->
<g id="node2" class="node"><title>Node2</title>
<g id="a_node2"><a xlink:href="classtvm_1_1AttrsNode.html" target="_top" xlink:title="{tvm::AttrsNode\&lt; CropAndResize\lAttrs \&gt;\n||+ VisitAttrs()\l+ VisitNonDefaultAttrs()\l+ InitByPackedArgs()\l+ SEqualReduce()\l+ SHashReduce()\l+ ListFieldInfo()\l+ ContentEqual()\l+ ContentHash()\l}">
<polygon fill="white" stroke="black" points="15.5,-182.5 15.5,-327.5 188.5,-327.5 188.5,-182.5 15.5,-182.5"/>
<text text-anchor="start" x="23.5" y="-315.5" font-family="Helvetica,sans-Serif" font-size="10.00">tvm::AttrsNode&lt; CropAndResize</text>
<text text-anchor="middle" x="102" y="-304.5" font-family="Helvetica,sans-Serif" font-size="10.00">Attrs &gt;</text>
<polyline fill="none" stroke="black" points="15.5,-297.5 188.5,-297.5 "/>
<text text-anchor="middle" x="102" y="-285.5" font-family="Helvetica,sans-Serif" font-size="10.00"> </text>
<polyline fill="none" stroke="black" points="15.5,-278.5 188.5,-278.5 "/>
<text text-anchor="start" x="23.5" y="-266.5" font-family="Helvetica,sans-Serif" font-size="10.00">+ VisitAttrs()</text>
<text text-anchor="start" x="23.5" y="-255.5" font-family="Helvetica,sans-Serif" font-size="10.00">+ VisitNonDefaultAttrs()</text>
<text text-anchor="start" x="23.5" y="-244.5" font-family="Helvetica,sans-Serif" font-size="10.00">+ InitByPackedArgs()</text>
<text text-anchor="start" x="23.5" y="-233.5" font-family="Helvetica,sans-Serif" font-size="10.00">+ SEqualReduce()</text>
<text text-anchor="start" x="23.5" y="-222.5" font-family="Helvetica,sans-Serif" font-size="10.00">+ SHashReduce()</text>
<text text-anchor="start" x="23.5" y="-211.5" font-family="Helvetica,sans-Serif" font-size="10.00">+ ListFieldInfo()</text>
<text text-anchor="start" x="23.5" y="-200.5" font-family="Helvetica,sans-Serif" font-size="10.00">+ ContentEqual()</text>
<text text-anchor="start" x="23.5" y="-189.5" font-family="Helvetica,sans-Serif" font-size="10.00">+ ContentHash()</text>
</a>
</g>
</g>
<!-- Node2&#45;&gt;Node1 -->
<g id="edge1" class="edge"><title>Node2&#45;&gt;Node1</title>
<path fill="none" stroke="midnightblue" d="M165.535,-174.692C175.889,-162.273 186.624,-149.687 197,-138 211.047,-122.178 226.934,-105.355 241.306,-90.5072"/>
<polygon fill="none" stroke="midnightblue" points="162.837,-172.464 159.144,-182.395 168.224,-176.934 162.837,-172.464"/>
</g>
<!-- Node3 -->
<g id="node3" class="node"><title>Node3</title>
<g id="a_node3"><a xlink:href="classtvm_1_1BaseAttrsNode.html" target="_top" xlink:title="Base class of all attribute class. ">
<polygon fill="white" stroke="black" points="0,-409.5 0,-609.5 204,-609.5 204,-409.5 0,-409.5"/>
<text text-anchor="middle" x="102" y="-597.5" font-family="Helvetica,sans-Serif" font-size="10.00">tvm::BaseAttrsNode</text>
<polyline fill="none" stroke="black" points="0,-590.5 204,-590.5 "/>
<text text-anchor="start" x="8" y="-578.5" font-family="Helvetica,sans-Serif" font-size="10.00">+ _type_has_method_sequal</text>
<text text-anchor="start" x="8" y="-567.5" font-family="Helvetica,sans-Serif" font-size="10.00">_reduce</text>
<text text-anchor="start" x="8" y="-556.5" font-family="Helvetica,sans-Serif" font-size="10.00">+ _type_has_method_shash</text>
<text text-anchor="start" x="8" y="-545.5" font-family="Helvetica,sans-Serif" font-size="10.00">_reduce</text>
<text text-anchor="start" x="8" y="-534.5" font-family="Helvetica,sans-Serif" font-size="10.00">+ _type_key</text>
<polyline fill="none" stroke="black" points="0,-527.5 204,-527.5 "/>
<text text-anchor="start" x="8" y="-515.5" font-family="Helvetica,sans-Serif" font-size="10.00">+ ~BaseAttrsNode()</text>
<text text-anchor="start" x="8" y="-504.5" font-family="Helvetica,sans-Serif" font-size="10.00">+ VisitAttrs()</text>
<text text-anchor="start" x="8" y="-493.5" font-family="Helvetica,sans-Serif" font-size="10.00">+ InitBySeq()</text>
<text text-anchor="start" x="8" y="-482.5" font-family="Helvetica,sans-Serif" font-size="10.00">+ PrintDocString()</text>
<text text-anchor="start" x="8" y="-471.5" font-family="Helvetica,sans-Serif" font-size="10.00">+ VisitNonDefaultAttrs()</text>
<text text-anchor="start" x="8" y="-460.5" font-family="Helvetica,sans-Serif" font-size="10.00">+ ListFieldInfo()</text>
<text text-anchor="start" x="8" y="-449.5" font-family="Helvetica,sans-Serif" font-size="10.00">+ InitByPackedArgs()</text>
<text text-anchor="start" x="8" y="-438.5" font-family="Helvetica,sans-Serif" font-size="10.00">+ ContentEqual()</text>
<text text-anchor="start" x="8" y="-427.5" font-family="Helvetica,sans-Serif" font-size="10.00">+ ContentHash()</text>
<text text-anchor="start" x="8" y="-416.5" font-family="Helvetica,sans-Serif" font-size="10.00">+ TVM_DECLARE_BASE_OBJECT_INFO()</text>
</a>
</g>
</g>
<!-- Node3&#45;&gt;Node2 -->
<g id="edge2" class="edge"><title>Node3&#45;&gt;Node2</title>
<path fill="none" stroke="midnightblue" d="M102,-399.151C102,-375.022 102,-350.054 102,-327.859"/>
<polygon fill="none" stroke="midnightblue" points="98.5001,-399.43 102,-409.43 105.5,-399.43 98.5001,-399.43"/>
</g>
<!-- Node4 -->
<g id="node4" class="node"><title>Node4</title>
<polygon fill="white" stroke="#bfbfbf" points="78.5,-647.5 78.5,-704.5 125.5,-704.5 125.5,-647.5 78.5,-647.5"/>
<text text-anchor="middle" x="102" y="-692.5" font-family="Helvetica,sans-Serif" font-size="10.00">Object</text>
<polyline fill="none" stroke="#bfbfbf" points="78.5,-685.5 125.5,-685.5 "/>
<text text-anchor="middle" x="102" y="-673.5" font-family="Helvetica,sans-Serif" font-size="10.00"> </text>
<polyline fill="none" stroke="#bfbfbf" points="78.5,-666.5 125.5,-666.5 "/>
<text text-anchor="middle" x="102" y="-654.5" font-family="Helvetica,sans-Serif" font-size="10.00"> </text>
</g>
<!-- Node4&#45;&gt;Node3 -->
<g id="edge3" class="edge"><title>Node4&#45;&gt;Node3</title>
<path fill="none" stroke="midnightblue" d="M102,-637.289C102,-628.841 102,-619.496 102,-609.821"/>
<polygon fill="none" stroke="midnightblue" points="98.5001,-637.466 102,-647.466 105.5,-637.466 98.5001,-637.466"/>
</g>
<!-- Node5 -->
<g id="node5" class="node"><title>Node5</title>
<g id="a_node5"><a xlink:href="classtvm_1_1Array.html" target="_top" xlink:title="{tvm::Array\&lt; tvm::PrimExpr \&gt;\n||+ Array()\l+ Array()\l+ Array()\l+ Array()\l+ Array()\l+ Array()\l+ Array()\l+ Array()\l+ operator=()\l+ operator=()\land 13 more...\l}">
<polygon fill="white" stroke="black" points="206.5,-171.5 206.5,-338.5 363.5,-338.5 363.5,-171.5 206.5,-171.5"/>
<text text-anchor="middle" x="285" y="-326.5" font-family="Helvetica,sans-Serif" font-size="10.00">tvm::Array&lt; tvm::PrimExpr &gt;</text>
<polyline fill="none" stroke="black" points="206.5,-319.5 363.5,-319.5 "/>
<text text-anchor="middle" x="285" y="-307.5" font-family="Helvetica,sans-Serif" font-size="10.00"> </text>
<polyline fill="none" stroke="black" points="206.5,-300.5 363.5,-300.5 "/>
<text text-anchor="start" x="214.5" y="-288.5" font-family="Helvetica,sans-Serif" font-size="10.00">+ Array()</text>
<text text-anchor="start" x="214.5" y="-277.5" font-family="Helvetica,sans-Serif" font-size="10.00">+ Array()</text>
<text text-anchor="start" x="214.5" y="-266.5" font-family="Helvetica,sans-Serif" font-size="10.00">+ Array()</text>
<text text-anchor="start" x="214.5" y="-255.5" font-family="Helvetica,sans-Serif" font-size="10.00">+ Array()</text>
<text text-anchor="start" x="214.5" y="-244.5" font-family="Helvetica,sans-Serif" font-size="10.00">+ Array()</text>
<text text-anchor="start" x="214.5" y="-233.5" font-family="Helvetica,sans-Serif" font-size="10.00">+ Array()</text>
<text text-anchor="start" x="214.5" y="-222.5" font-family="Helvetica,sans-Serif" font-size="10.00">+ Array()</text>
<text text-anchor="start" x="214.5" y="-211.5" font-family="Helvetica,sans-Serif" font-size="10.00">+ Array()</text>
<text text-anchor="start" x="214.5" y="-200.5" font-family="Helvetica,sans-Serif" font-size="10.00">+ operator=()</text>
<text text-anchor="start" x="214.5" y="-189.5" font-family="Helvetica,sans-Serif" font-size="10.00">+ operator=()</text>
<text text-anchor="start" x="214.5" y="-178.5" font-family="Helvetica,sans-Serif" font-size="10.00">and 13 more...</text>
</a>
</g>
</g>
<!-- Node5&#45;&gt;Node1 -->
<g id="edge4" class="edge"><title>Node5&#45;&gt;Node1</title>
<path fill="none" stroke="#404040" d="M285,-171.394C285,-148.342 285,-123.836 285,-102.692"/>
<polygon fill="none" stroke="#404040" points="285,-102.668 281,-96.6681 285,-90.6681 289,-96.6681 285,-102.668"/>
<text text-anchor="middle" x="313.5" y="-112" font-family="Helvetica,sans-Serif" font-size="10.00"> +crop_size</text>
</g>
<!-- Node6 -->
<g id="node6" class="node"><title>Node6</title>
<polygon fill="white" stroke="#bfbfbf" points="254,-481 254,-538 316,-538 316,-481 254,-481"/>
<text text-anchor="middle" x="285" y="-526" font-family="Helvetica,sans-Serif" font-size="10.00">ObjectRef</text>
<polyline fill="none" stroke="#bfbfbf" points="254,-519 316,-519 "/>
<text text-anchor="middle" x="285" y="-507" font-family="Helvetica,sans-Serif" font-size="10.00"> </text>
<polyline fill="none" stroke="#bfbfbf" points="254,-500 316,-500 "/>
<text text-anchor="middle" x="285" y="-488" font-family="Helvetica,sans-Serif" font-size="10.00"> </text>
</g>
<!-- Node6&#45;&gt;Node5 -->
<g id="edge5" class="edge"><title>Node6&#45;&gt;Node5</title>
<path fill="none" stroke="midnightblue" d="M285,-470.815C285,-436.042 285,-383.209 285,-338.642"/>
<polygon fill="none" stroke="midnightblue" points="281.5,-470.997 285,-480.997 288.5,-470.997 281.5,-470.997"/>
</g>
<!-- Node7 -->
<g id="node7" class="node"><title>Node7</title>
<g id="a_node7"><a xlink:href="classtvm_1_1runtime_1_1DataType.html" target="_top" xlink:title="Runtime primitive data type. ">
<polygon fill="white" stroke="black" points="381.5,-138.5 381.5,-371.5 510.5,-371.5 510.5,-138.5 381.5,-138.5"/>
<text text-anchor="middle" x="446" y="-359.5" font-family="Helvetica,sans-Serif" font-size="10.00">tvm::runtime::DataType</text>
<polyline fill="none" stroke="black" points="381.5,-352.5 510.5,-352.5 "/>
<text text-anchor="middle" x="446" y="-340.5" font-family="Helvetica,sans-Serif" font-size="10.00"> </text>
<polyline fill="none" stroke="black" points="381.5,-333.5 510.5,-333.5 "/>
<text text-anchor="start" x="389.5" y="-321.5" font-family="Helvetica,sans-Serif" font-size="10.00">+ DataType()</text>
<text text-anchor="start" x="389.5" y="-310.5" font-family="Helvetica,sans-Serif" font-size="10.00">+ DataType()</text>
<text text-anchor="start" x="389.5" y="-299.5" font-family="Helvetica,sans-Serif" font-size="10.00">+ DataType()</text>
<text text-anchor="start" x="389.5" y="-288.5" font-family="Helvetica,sans-Serif" font-size="10.00">+ code()</text>
<text text-anchor="start" x="389.5" y="-277.5" font-family="Helvetica,sans-Serif" font-size="10.00">+ bits()</text>
<text text-anchor="start" x="389.5" y="-266.5" font-family="Helvetica,sans-Serif" font-size="10.00">+ bytes()</text>
<text text-anchor="start" x="389.5" y="-255.5" font-family="Helvetica,sans-Serif" font-size="10.00">+ lanes()</text>
<text text-anchor="start" x="389.5" y="-244.5" font-family="Helvetica,sans-Serif" font-size="10.00">+ is_scalar()</text>
<text text-anchor="start" x="389.5" y="-233.5" font-family="Helvetica,sans-Serif" font-size="10.00">+ is_bool()</text>
<text text-anchor="start" x="389.5" y="-222.5" font-family="Helvetica,sans-Serif" font-size="10.00">+ is_float()</text>
<text text-anchor="start" x="389.5" y="-211.5" font-family="Helvetica,sans-Serif" font-size="10.00">and 12 more...</text>
<text text-anchor="start" x="389.5" y="-200.5" font-family="Helvetica,sans-Serif" font-size="10.00">+ Int()</text>
<text text-anchor="start" x="389.5" y="-189.5" font-family="Helvetica,sans-Serif" font-size="10.00">+ UInt()</text>
<text text-anchor="start" x="389.5" y="-178.5" font-family="Helvetica,sans-Serif" font-size="10.00">+ Float()</text>
<text text-anchor="start" x="389.5" y="-167.5" font-family="Helvetica,sans-Serif" font-size="10.00">+ Bool()</text>
<text text-anchor="start" x="389.5" y="-156.5" font-family="Helvetica,sans-Serif" font-size="10.00">+ Handle()</text>
<text text-anchor="start" x="389.5" y="-145.5" font-family="Helvetica,sans-Serif" font-size="10.00">+ ShapeIndex()</text>
</a>
</g>
</g>
<!-- Node7&#45;&gt;Node1 -->
<g id="edge6" class="edge"><title>Node7&#45;&gt;Node1</title>
<path fill="none" stroke="#404040" d="M381.296,-150.614C378.212,-146.312 375.106,-142.091 372,-138 361.533,-124.213 357.826,-121.641 346,-109 343.116,-105.917 340.138,-102.765 337.12,-99.5963"/>
<polygon fill="none" stroke="#404040" points="336.859,-99.3247 329.82,-97.7616 328.555,-90.6623 335.594,-92.2253 336.859,-99.3247"/>
<text text-anchor="middle" x="387" y="-112" font-family="Helvetica,sans-Serif" font-size="10.00"> +out_dtype</text>
</g>
</g>
</svg>
