<?xml version="1.0" encoding="UTF-8" standalone="no"?>
<!DOCTYPE svg PUBLIC "-//W3C//DTD SVG 1.1//EN"
 "http://www.w3.org/Graphics/SVG/1.1/DTD/svg11.dtd">
<!-- Generated by graphviz version 2.38.0 (20140413.2041)
 -->
<!-- Title: tvm::relay::Conv2DWinogradAttrs Pages: 1 -->
<svg width="619pt" height="902pt"
 viewBox="0.00 0.00 618.50 902.00" xmlns="http://www.w3.org/2000/svg" xmlns:xlink="http://www.w3.org/1999/xlink">
<g id="graph0" class="graph" transform="scale(1 1) rotate(0) translate(4 898)">
<title>tvm::relay::Conv2DWinogradAttrs</title>
<polygon fill="white" stroke="none" points="-4,4 -4,-898 614.5,-898 614.5,4 -4,4"/>
<!-- Node1 -->
<g id="node1" class="node"><title>Node1</title>
<polygon fill="#bfbfbf" stroke="black" points="201,-0.5 201,-112.5 353,-112.5 353,-0.5 201,-0.5"/>
<text text-anchor="start" x="209" y="-100.5" font-family="Helvetica,sans-Serif" font-size="10.00">tvm::relay::Conv2DWinograd</text>
<text text-anchor="middle" x="277" y="-89.5" font-family="Helvetica,sans-Serif" font-size="10.00">Attrs</text>
<polyline fill="none" stroke="black" points="201,-82.5 353,-82.5 "/>
<text text-anchor="start" x="209" y="-70.5" font-family="Helvetica,sans-Serif" font-size="10.00">+ tile_size</text>
<text text-anchor="start" x="209" y="-59.5" font-family="Helvetica,sans-Serif" font-size="10.00">+ groups</text>
<text text-anchor="start" x="209" y="-48.5" font-family="Helvetica,sans-Serif" font-size="10.00">+ data_layout</text>
<text text-anchor="start" x="209" y="-37.5" font-family="Helvetica,sans-Serif" font-size="10.00">+ kernel_layout</text>
<text text-anchor="start" x="209" y="-26.5" font-family="Helvetica,sans-Serif" font-size="10.00">+ out_layout</text>
<polyline fill="none" stroke="black" points="201,-19.5 353,-19.5 "/>
<text text-anchor="start" x="209" y="-7.5" font-family="Helvetica,sans-Serif" font-size="10.00">+ TVM_DECLARE_ATTRS()</text>
</g>
<!-- Node2 -->
<g id="node2" class="node"><title>Node2</title>
<g id="a_node2"><a xlink:href="classtvm_1_1AttrsNode.html" target="_top" xlink:title="{tvm::AttrsNode\&lt; Conv2DWinograd\lAttrs \&gt;\n||+ VisitAttrs()\l+ VisitNonDefaultAttrs()\l+ InitByPackedArgs()\l+ SEqualReduce()\l+ SHashReduce()\l+ ListFieldInfo()\l+ ContentEqual()\l+ ContentHash()\l}">
<polygon fill="white" stroke="black" points="10.5,-204.5 10.5,-349.5 193.5,-349.5 193.5,-204.5 10.5,-204.5"/>
<text text-anchor="start" x="18.5" y="-337.5" font-family="Helvetica,sans-Serif" font-size="10.00">tvm::AttrsNode&lt; Conv2DWinograd</text>
<text text-anchor="middle" x="102" y="-326.5" font-family="Helvetica,sans-Serif" font-size="10.00">Attrs &gt;</text>
<polyline fill="none" stroke="black" points="10.5,-319.5 193.5,-319.5 "/>
<text text-anchor="middle" x="102" y="-307.5" font-family="Helvetica,sans-Serif" font-size="10.00"> </text>
<polyline fill="none" stroke="black" points="10.5,-300.5 193.5,-300.5 "/>
<text text-anchor="start" x="18.5" y="-288.5" font-family="Helvetica,sans-Serif" font-size="10.00">+ VisitAttrs()</text>
<text text-anchor="start" x="18.5" y="-277.5" font-family="Helvetica,sans-Serif" font-size="10.00">+ VisitNonDefaultAttrs()</text>
<text text-anchor="start" x="18.5" y="-266.5" font-family="Helvetica,sans-Serif" font-size="10.00">+ InitByPackedArgs()</text>
<text text-anchor="start" x="18.5" y="-255.5" font-family="Helvetica,sans-Serif" font-size="10.00">+ SEqualReduce()</text>
<text text-anchor="start" x="18.5" y="-244.5" font-family="Helvetica,sans-Serif" font-size="10.00">+ SHashReduce()</text>
<text text-anchor="start" x="18.5" y="-233.5" font-family="Helvetica,sans-Serif" font-size="10.00">+ ListFieldInfo()</text>
<text text-anchor="start" x="18.5" y="-222.5" font-family="Helvetica,sans-Serif" font-size="10.00">+ ContentEqual()</text>
<text text-anchor="start" x="18.5" y="-211.5" font-family="Helvetica,sans-Serif" font-size="10.00">+ ContentHash()</text>
</a>
</g>
</g>
<!-- Node2&#45;&gt;Node1 -->
<g id="edge1" class="edge"><title>Node2&#45;&gt;Node1</title>
<path fill="none" stroke="midnightblue" d="M164.2,-196.106C180.91,-174.858 199.049,-151.983 216,-131 220.793,-125.066 225.834,-118.892 230.878,-112.755"/>
<polygon fill="none" stroke="midnightblue" points="161.296,-194.137 157.871,-204.163 166.801,-198.461 161.296,-194.137"/>
</g>
<!-- Node3 -->
<g id="node3" class="node"><title>Node3</title>
<g id="a_node3"><a xlink:href="classtvm_1_1BaseAttrsNode.html" target="_top" xlink:title="Base class of all attribute class. ">
<polygon fill="white" stroke="black" points="0,-598.5 0,-798.5 204,-798.5 204,-598.5 0,-598.5"/>
<text text-anchor="middle" x="102" y="-786.5" font-family="Helvetica,sans-Serif" font-size="10.00">tvm::BaseAttrsNode</text>
<polyline fill="none" stroke="black" points="0,-779.5 204,-779.5 "/>
<text text-anchor="start" x="8" y="-767.5" font-family="Helvetica,sans-Serif" font-size="10.00">+ _type_has_method_sequal</text>
<text text-anchor="start" x="8" y="-756.5" font-family="Helvetica,sans-Serif" font-size="10.00">_reduce</text>
<text text-anchor="start" x="8" y="-745.5" font-family="Helvetica,sans-Serif" font-size="10.00">+ _type_has_method_shash</text>
<text text-anchor="start" x="8" y="-734.5" font-family="Helvetica,sans-Serif" font-size="10.00">_reduce</text>
<text text-anchor="start" x="8" y="-723.5" font-family="Helvetica,sans-Serif" font-size="10.00">+ _type_key</text>
<polyline fill="none" stroke="black" points="0,-716.5 204,-716.5 "/>
<text text-anchor="start" x="8" y="-704.5" font-family="Helvetica,sans-Serif" font-size="10.00">+ ~BaseAttrsNode()</text>
<text text-anchor="start" x="8" y="-693.5" font-family="Helvetica,sans-Serif" font-size="10.00">+ VisitAttrs()</text>
<text text-anchor="start" x="8" y="-682.5" font-family="Helvetica,sans-Serif" font-size="10.00">+ InitBySeq()</text>
<text text-anchor="start" x="8" y="-671.5" font-family="Helvetica,sans-Serif" font-size="10.00">+ PrintDocString()</text>
<text text-anchor="start" x="8" y="-660.5" font-family="Helvetica,sans-Serif" font-size="10.00">+ VisitNonDefaultAttrs()</text>
<text text-anchor="start" x="8" y="-649.5" font-family="Helvetica,sans-Serif" font-size="10.00">+ ListFieldInfo()</text>
<text text-anchor="start" x="8" y="-638.5" font-family="Helvetica,sans-Serif" font-size="10.00">+ InitByPackedArgs()</text>
<text text-anchor="start" x="8" y="-627.5" font-family="Helvetica,sans-Serif" font-size="10.00">+ ContentEqual()</text>
<text text-anchor="start" x="8" y="-616.5" font-family="Helvetica,sans-Serif" font-size="10.00">+ ContentHash()</text>
<text text-anchor="start" x="8" y="-605.5" font-family="Helvetica,sans-Serif" font-size="10.00">+ TVM_DECLARE_BASE_OBJECT_INFO()</text>
</a>
</g>
</g>
<!-- Node3&#45;&gt;Node2 -->
<g id="edge2" class="edge"><title>Node3&#45;&gt;Node2</title>
<path fill="none" stroke="midnightblue" d="M102,-587.889C102,-512.656 102,-414.964 102,-349.564"/>
<polygon fill="none" stroke="midnightblue" points="98.5001,-588.35 102,-598.35 105.5,-588.35 98.5001,-588.35"/>
</g>
<!-- Node4 -->
<g id="node4" class="node"><title>Node4</title>
<polygon fill="white" stroke="#bfbfbf" points="78.5,-836.5 78.5,-893.5 125.5,-893.5 125.5,-836.5 78.5,-836.5"/>
<text text-anchor="middle" x="102" y="-881.5" font-family="Helvetica,sans-Serif" font-size="10.00">Object</text>
<polyline fill="none" stroke="#bfbfbf" points="78.5,-874.5 125.5,-874.5 "/>
<text text-anchor="middle" x="102" y="-862.5" font-family="Helvetica,sans-Serif" font-size="10.00"> </text>
<polyline fill="none" stroke="#bfbfbf" points="78.5,-855.5 125.5,-855.5 "/>
<text text-anchor="middle" x="102" y="-843.5" font-family="Helvetica,sans-Serif" font-size="10.00"> </text>
</g>
<!-- Node4&#45;&gt;Node3 -->
<g id="edge3" class="edge"><title>Node4&#45;&gt;Node3</title>
<path fill="none" stroke="midnightblue" d="M102,-826.289C102,-817.841 102,-808.496 102,-798.821"/>
<polygon fill="none" stroke="midnightblue" points="98.5001,-826.466 102,-836.466 105.5,-826.466 98.5001,-826.466"/>
</g>
<!-- Node5 -->
<g id="node5" class="node"><title>Node5</title>
<g id="a_node5"><a xlink:href="classtvm_1_1Array.html" target="_top" xlink:title="{tvm::Array\&lt; tvm::PrimExpr \&gt;\n||+ Array()\l+ Array()\l+ Array()\l+ Array()\l+ Array()\l+ Array()\l+ Array()\l+ Array()\l+ operator=()\l+ operator=()\land 13 more...\l}">
<polygon fill="white" stroke="black" points="152.5,-412.5 152.5,-579.5 309.5,-579.5 309.5,-412.5 152.5,-412.5"/>
<text text-anchor="middle" x="231" y="-567.5" font-family="Helvetica,sans-Serif" font-size="10.00">tvm::Array&lt; tvm::PrimExpr &gt;</text>
<polyline fill="none" stroke="black" points="152.5,-560.5 309.5,-560.5 "/>
<text text-anchor="middle" x="231" y="-548.5" font-family="Helvetica,sans-Serif" font-size="10.00"> </text>
<polyline fill="none" stroke="black" points="152.5,-541.5 309.5,-541.5 "/>
<text text-anchor="start" x="160.5" y="-529.5" font-family="Helvetica,sans-Serif" font-size="10.00">+ Array()</text>
<text text-anchor="start" x="160.5" y="-518.5" font-family="Helvetica,sans-Serif" font-size="10.00">+ Array()</text>
<text text-anchor="start" x="160.5" y="-507.5" font-family="Helvetica,sans-Serif" font-size="10.00">+ Array()</text>
<text text-anchor="start" x="160.5" y="-496.5" font-family="Helvetica,sans-Serif" font-size="10.00">+ Array()</text>
<text text-anchor="start" x="160.5" y="-485.5" font-family="Helvetica,sans-Serif" font-size="10.00">+ Array()</text>
<text text-anchor="start" x="160.5" y="-474.5" font-family="Helvetica,sans-Serif" font-size="10.00">+ Array()</text>
<text text-anchor="start" x="160.5" y="-463.5" font-family="Helvetica,sans-Serif" font-size="10.00">+ Array()</text>
<text text-anchor="start" x="160.5" y="-452.5" font-family="Helvetica,sans-Serif" font-size="10.00">+ Array()</text>
<text text-anchor="start" x="160.5" y="-441.5" font-family="Helvetica,sans-Serif" font-size="10.00">+ operator=()</text>
<text text-anchor="start" x="160.5" y="-430.5" font-family="Helvetica,sans-Serif" font-size="10.00">+ operator=()</text>
<text text-anchor="start" x="160.5" y="-419.5" font-family="Helvetica,sans-Serif" font-size="10.00">and 13 more...</text>
</a>
</g>
</g>
<!-- Node5&#45;&gt;Node1 -->
<g id="edge4" class="edge"><title>Node5&#45;&gt;Node1</title>
<path fill="none" stroke="#404040" d="M225.441,-412.279C222.645,-343.982 222.731,-244.846 239,-160 241.265,-148.187 244.737,-135.942 248.681,-124.201"/>
<polygon fill="none" stroke="#404040" points="248.759,-123.98 246.984,-116.99 252.753,-112.664 254.528,-119.653 248.759,-123.98"/>
<text text-anchor="middle" x="271.5" y="-291" font-family="Helvetica,sans-Serif" font-size="10.00"> +kernel_size</text>
<text text-anchor="middle" x="271.5" y="-280" font-family="Helvetica,sans-Serif" font-size="10.00">+strides</text>
<text text-anchor="middle" x="271.5" y="-269" font-family="Helvetica,sans-Serif" font-size="10.00">+dilation</text>
<text text-anchor="middle" x="271.5" y="-258" font-family="Helvetica,sans-Serif" font-size="10.00">+padding</text>
</g>
<!-- Node6 -->
<g id="node6" class="node"><title>Node6</title>
<polygon fill="white" stroke="#bfbfbf" points="247,-836.5 247,-893.5 309,-893.5 309,-836.5 247,-836.5"/>
<text text-anchor="middle" x="278" y="-881.5" font-family="Helvetica,sans-Serif" font-size="10.00">ObjectRef</text>
<polyline fill="none" stroke="#bfbfbf" points="247,-874.5 309,-874.5 "/>
<text text-anchor="middle" x="278" y="-862.5" font-family="Helvetica,sans-Serif" font-size="10.00"> </text>
<polyline fill="none" stroke="#bfbfbf" points="247,-855.5 309,-855.5 "/>
<text text-anchor="middle" x="278" y="-843.5" font-family="Helvetica,sans-Serif" font-size="10.00"> </text>
</g>
<!-- Node6&#45;&gt;Node5 -->
<g id="edge5" class="edge"><title>Node6&#45;&gt;Node5</title>
<path fill="none" stroke="midnightblue" d="M273.169,-826.28C265.773,-768.527 251.462,-656.778 241.577,-579.594"/>
<polygon fill="none" stroke="midnightblue" points="269.725,-826.941 274.467,-836.415 276.669,-826.052 269.725,-826.941"/>
</g>
<!-- Node8 -->
<g id="node8" class="node"><title>Node8</title>
<g id="a_node8"><a xlink:href="classtvm_1_1BaseExpr.html" target="_top" xlink:title="Managed reference to BaseExprNode. ">
<polygon fill="white" stroke="black" points="280,-664.5 280,-732.5 430,-732.5 430,-664.5 280,-664.5"/>
<text text-anchor="middle" x="355" y="-720.5" font-family="Helvetica,sans-Serif" font-size="10.00">tvm::BaseExpr</text>
<polyline fill="none" stroke="black" points="280,-713.5 430,-713.5 "/>
<text text-anchor="middle" x="355" y="-701.5" font-family="Helvetica,sans-Serif" font-size="10.00"> </text>
<polyline fill="none" stroke="black" points="280,-694.5 430,-694.5 "/>
<text text-anchor="start" x="288" y="-682.5" font-family="Helvetica,sans-Serif" font-size="10.00">+ TVM_DEFINE_OBJECT_REF</text>
<text text-anchor="start" x="288" y="-671.5" font-family="Helvetica,sans-Serif" font-size="10.00">_METHODS()</text>
</a>
</g>
</g>
<!-- Node6&#45;&gt;Node8 -->
<g id="edge8" class="edge"><title>Node6&#45;&gt;Node8</title>
<path fill="none" stroke="midnightblue" d="M295.19,-827.275C308.48,-798.883 326.715,-759.927 339.546,-732.515"/>
<polygon fill="none" stroke="midnightblue" points="291.958,-825.926 290.888,-836.466 298.297,-828.893 291.958,-825.926"/>
</g>
<!-- Node7 -->
<g id="node7" class="node"><title>Node7</title>
<g id="a_node7"><a xlink:href="classtvm_1_1PrimExpr.html" target="_top" xlink:title="Reference to PrimExprNode. ">
<polygon fill="white" stroke="black" points="313,-221 313,-333 463,-333 463,-221 313,-221"/>
<text text-anchor="middle" x="388" y="-321" font-family="Helvetica,sans-Serif" font-size="10.00">tvm::PrimExpr</text>
<polyline fill="none" stroke="black" points="313,-314 463,-314 "/>
<text text-anchor="middle" x="388" y="-302" font-family="Helvetica,sans-Serif" font-size="10.00"> </text>
<polyline fill="none" stroke="black" points="313,-295 463,-295 "/>
<text text-anchor="start" x="321" y="-283" font-family="Helvetica,sans-Serif" font-size="10.00">+ PrimExpr()</text>
<text text-anchor="start" x="321" y="-272" font-family="Helvetica,sans-Serif" font-size="10.00">+ PrimExpr()</text>
<text text-anchor="start" x="321" y="-261" font-family="Helvetica,sans-Serif" font-size="10.00">+ PrimExpr()</text>
<text text-anchor="start" x="321" y="-250" font-family="Helvetica,sans-Serif" font-size="10.00">+ dtype()</text>
<text text-anchor="start" x="321" y="-239" font-family="Helvetica,sans-Serif" font-size="10.00">+ TVM_DEFINE_OBJECT_REF</text>
<text text-anchor="start" x="321" y="-228" font-family="Helvetica,sans-Serif" font-size="10.00">_METHODS()</text>
</a>
</g>
</g>
<!-- Node7&#45;&gt;Node1 -->
<g id="edge6" class="edge"><title>Node7&#45;&gt;Node1</title>
<path fill="none" stroke="#404040" d="M359.99,-220.863C344.938,-191.234 326.277,-154.5 310.465,-123.374"/>
<polygon fill="none" stroke="#404040" points="310.436,-123.318 304.152,-119.78 305.001,-112.619 311.285,-116.157 310.436,-123.318"/>
<text text-anchor="middle" x="347.5" y="-134" font-family="Helvetica,sans-Serif" font-size="10.00"> +channels</text>
</g>
<!-- Node8&#45;&gt;Node7 -->
<g id="edge7" class="edge"><title>Node8&#45;&gt;Node7</title>
<path fill="none" stroke="midnightblue" d="M358.426,-653.948C364.475,-577.055 377.033,-417.41 383.671,-333.027"/>
<polygon fill="none" stroke="midnightblue" points="354.912,-653.988 357.617,-664.232 361.891,-654.537 354.912,-653.988"/>
</g>
<!-- Node9 -->
<g id="node9" class="node"><title>Node9</title>
<g id="a_node9"><a xlink:href="classtvm_1_1runtime_1_1DataType.html" target="_top" xlink:title="Runtime primitive data type. ">
<polygon fill="white" stroke="black" points="481.5,-160.5 481.5,-393.5 610.5,-393.5 610.5,-160.5 481.5,-160.5"/>
<text text-anchor="middle" x="546" y="-381.5" font-family="Helvetica,sans-Serif" font-size="10.00">tvm::runtime::DataType</text>
<polyline fill="none" stroke="black" points="481.5,-374.5 610.5,-374.5 "/>
<text text-anchor="middle" x="546" y="-362.5" font-family="Helvetica,sans-Serif" font-size="10.00"> </text>
<polyline fill="none" stroke="black" points="481.5,-355.5 610.5,-355.5 "/>
<text text-anchor="start" x="489.5" y="-343.5" font-family="Helvetica,sans-Serif" font-size="10.00">+ DataType()</text>
<text text-anchor="start" x="489.5" y="-332.5" font-family="Helvetica,sans-Serif" font-size="10.00">+ DataType()</text>
<text text-anchor="start" x="489.5" y="-321.5" font-family="Helvetica,sans-Serif" font-size="10.00">+ DataType()</text>
<text text-anchor="start" x="489.5" y="-310.5" font-family="Helvetica,sans-Serif" font-size="10.00">+ code()</text>
<text text-anchor="start" x="489.5" y="-299.5" font-family="Helvetica,sans-Serif" font-size="10.00">+ bits()</text>
<text text-anchor="start" x="489.5" y="-288.5" font-family="Helvetica,sans-Serif" font-size="10.00">+ bytes()</text>
<text text-anchor="start" x="489.5" y="-277.5" font-family="Helvetica,sans-Serif" font-size="10.00">+ lanes()</text>
<text text-anchor="start" x="489.5" y="-266.5" font-family="Helvetica,sans-Serif" font-size="10.00">+ is_scalar()</text>
<text text-anchor="start" x="489.5" y="-255.5" font-family="Helvetica,sans-Serif" font-size="10.00">+ is_bool()</text>
<text text-anchor="start" x="489.5" y="-244.5" font-family="Helvetica,sans-Serif" font-size="10.00">+ is_float()</text>
<text text-anchor="start" x="489.5" y="-233.5" font-family="Helvetica,sans-Serif" font-size="10.00">and 12 more...</text>
<text text-anchor="start" x="489.5" y="-222.5" font-family="Helvetica,sans-Serif" font-size="10.00">+ Int()</text>
<text text-anchor="start" x="489.5" y="-211.5" font-family="Helvetica,sans-Serif" font-size="10.00">+ UInt()</text>
<text text-anchor="start" x="489.5" y="-200.5" font-family="Helvetica,sans-Serif" font-size="10.00">+ Float()</text>
<text text-anchor="start" x="489.5" y="-189.5" font-family="Helvetica,sans-Serif" font-size="10.00">+ Bool()</text>
<text text-anchor="start" x="489.5" y="-178.5" font-family="Helvetica,sans-Serif" font-size="10.00">+ Handle()</text>
<text text-anchor="start" x="489.5" y="-167.5" font-family="Helvetica,sans-Serif" font-size="10.00">+ ShapeIndex()</text>
</a>
</g>
</g>
<!-- Node9&#45;&gt;Node1 -->
<g id="edge9" class="edge"><title>Node9&#45;&gt;Node1</title>
<path fill="none" stroke="#404040" d="M481.253,-169.186C478.251,-165.985 475.165,-162.91 472,-160 440.872,-131.38 400.259,-108.362 364.16,-91.4457"/>
<polygon fill="none" stroke="#404040" points="364.029,-91.3859 356.909,-92.5263 353.117,-86.3923 360.238,-85.2519 364.029,-91.3859"/>
<text text-anchor="middle" x="480" y="-134" font-family="Helvetica,sans-Serif" font-size="10.00"> +out_dtype</text>
</g>
</g>
</svg>
