<?xml version="1.0" encoding="UTF-8" standalone="no"?>
<!DOCTYPE svg PUBLIC "-//W3C//DTD SVG 1.1//EN"
 "http://www.w3.org/Graphics/SVG/1.1/DTD/svg11.dtd">
<!-- Generated by graphviz version 2.38.0 (20140413.2041)
 -->
<!-- Title: tvm::relay::SliceLikeAttrs Pages: 1 -->
<svg width="212pt" height="579pt"
 viewBox="0.00 0.00 212.00 579.00" xmlns="http://www.w3.org/2000/svg" xmlns:xlink="http://www.w3.org/1999/xlink">
<g id="graph0" class="graph" transform="scale(1 1) rotate(0) translate(4 575)">
<title>tvm::relay::SliceLikeAttrs</title>
<polygon fill="white" stroke="none" points="-4,4 -4,-575 208,-575 208,4 -4,4"/>
<!-- Node1 -->
<g id="node1" class="node"><title>Node1</title>
<polygon fill="#bfbfbf" stroke="black" points="32,-0.5 32,-57.5 172,-57.5 172,-0.5 32,-0.5"/>
<text text-anchor="middle" x="102" y="-45.5" font-family="Helvetica,sans-Serif" font-size="10.00">tvm::relay::SliceLikeAttrs</text>
<polyline fill="none" stroke="black" points="32,-38.5 172,-38.5 "/>
<text text-anchor="start" x="40" y="-26.5" font-family="Helvetica,sans-Serif" font-size="10.00">+ axes</text>
<polyline fill="none" stroke="black" points="32,-19.5 172,-19.5 "/>
<text text-anchor="start" x="40" y="-7.5" font-family="Helvetica,sans-Serif" font-size="10.00">+ TVM_DECLARE_ATTRS()</text>
</g>
<!-- Node2 -->
<g id="node2" class="node"><title>Node2</title>
<g id="a_node2"><a xlink:href="classtvm_1_1AttrsNode.html" target="_top" xlink:title="{tvm::AttrsNode\&lt; SliceLike\lAttrs \&gt;\n||+ VisitAttrs()\l+ VisitNonDefaultAttrs()\l+ InitByPackedArgs()\l+ SEqualReduce()\l+ SHashReduce()\l+ ListFieldInfo()\l+ ContentEqual()\l+ ContentHash()\l}">
<polygon fill="white" stroke="black" points="30.5,-94.5 30.5,-239.5 173.5,-239.5 173.5,-94.5 30.5,-94.5"/>
<text text-anchor="start" x="38.5" y="-227.5" font-family="Helvetica,sans-Serif" font-size="10.00">tvm::AttrsNode&lt; SliceLike</text>
<text text-anchor="middle" x="102" y="-216.5" font-family="Helvetica,sans-Serif" font-size="10.00">Attrs &gt;</text>
<polyline fill="none" stroke="black" points="30.5,-209.5 173.5,-209.5 "/>
<text text-anchor="middle" x="102" y="-197.5" font-family="Helvetica,sans-Serif" font-size="10.00"> </text>
<polyline fill="none" stroke="black" points="30.5,-190.5 173.5,-190.5 "/>
<text text-anchor="start" x="38.5" y="-178.5" font-family="Helvetica,sans-Serif" font-size="10.00">+ VisitAttrs()</text>
<text text-anchor="start" x="38.5" y="-167.5" font-family="Helvetica,sans-Serif" font-size="10.00">+ VisitNonDefaultAttrs()</text>
<text text-anchor="start" x="38.5" y="-156.5" font-family="Helvetica,sans-Serif" font-size="10.00">+ InitByPackedArgs()</text>
<text text-anchor="start" x="38.5" y="-145.5" font-family="Helvetica,sans-Serif" font-size="10.00">+ SEqualReduce()</text>
<text text-anchor="start" x="38.5" y="-134.5" font-family="Helvetica,sans-Serif" font-size="10.00">+ SHashReduce()</text>
<text text-anchor="start" x="38.5" y="-123.5" font-family="Helvetica,sans-Serif" font-size="10.00">+ ListFieldInfo()</text>
<text text-anchor="start" x="38.5" y="-112.5" font-family="Helvetica,sans-Serif" font-size="10.00">+ ContentEqual()</text>
<text text-anchor="start" x="38.5" y="-101.5" font-family="Helvetica,sans-Serif" font-size="10.00">+ ContentHash()</text>
</a>
</g>
</g>
<!-- Node2&#45;&gt;Node1 -->
<g id="edge1" class="edge"><title>Node2&#45;&gt;Node1</title>
<path fill="none" stroke="midnightblue" d="M102,-84.3871C102,-74.8611 102,-65.7068 102,-57.7138"/>
<polygon fill="none" stroke="midnightblue" points="98.5001,-84.4155 102,-94.4155 105.5,-84.4156 98.5001,-84.4155"/>
</g>
<!-- Node3 -->
<g id="node3" class="node"><title>Node3</title>
<g id="a_node3"><a xlink:href="classtvm_1_1BaseAttrsNode.html" target="_top" xlink:title="Base class of all attribute class. ">
<polygon fill="white" stroke="black" points="-1.42109e-14,-276.5 -1.42109e-14,-476.5 204,-476.5 204,-276.5 -1.42109e-14,-276.5"/>
<text text-anchor="middle" x="102" y="-464.5" font-family="Helvetica,sans-Serif" font-size="10.00">tvm::BaseAttrsNode</text>
<polyline fill="none" stroke="black" points="-1.42109e-14,-457.5 204,-457.5 "/>
<text text-anchor="start" x="8" y="-445.5" font-family="Helvetica,sans-Serif" font-size="10.00">+ _type_has_method_sequal</text>
<text text-anchor="start" x="8" y="-434.5" font-family="Helvetica,sans-Serif" font-size="10.00">_reduce</text>
<text text-anchor="start" x="8" y="-423.5" font-family="Helvetica,sans-Serif" font-size="10.00">+ _type_has_method_shash</text>
<text text-anchor="start" x="8" y="-412.5" font-family="Helvetica,sans-Serif" font-size="10.00">_reduce</text>
<text text-anchor="start" x="8" y="-401.5" font-family="Helvetica,sans-Serif" font-size="10.00">+ _type_key</text>
<polyline fill="none" stroke="black" points="-1.42109e-14,-394.5 204,-394.5 "/>
<text text-anchor="start" x="8" y="-382.5" font-family="Helvetica,sans-Serif" font-size="10.00">+ ~BaseAttrsNode()</text>
<text text-anchor="start" x="8" y="-371.5" font-family="Helvetica,sans-Serif" font-size="10.00">+ VisitAttrs()</text>
<text text-anchor="start" x="8" y="-360.5" font-family="Helvetica,sans-Serif" font-size="10.00">+ InitBySeq()</text>
<text text-anchor="start" x="8" y="-349.5" font-family="Helvetica,sans-Serif" font-size="10.00">+ PrintDocString()</text>
<text text-anchor="start" x="8" y="-338.5" font-family="Helvetica,sans-Serif" font-size="10.00">+ VisitNonDefaultAttrs()</text>
<text text-anchor="start" x="8" y="-327.5" font-family="Helvetica,sans-Serif" font-size="10.00">+ ListFieldInfo()</text>
<text text-anchor="start" x="8" y="-316.5" font-family="Helvetica,sans-Serif" font-size="10.00">+ InitByPackedArgs()</text>
<text text-anchor="start" x="8" y="-305.5" font-family="Helvetica,sans-Serif" font-size="10.00">+ ContentEqual()</text>
<text text-anchor="start" x="8" y="-294.5" font-family="Helvetica,sans-Serif" font-size="10.00">+ ContentHash()</text>
<text text-anchor="start" x="8" y="-283.5" font-family="Helvetica,sans-Serif" font-size="10.00">+ TVM_DECLARE_BASE_OBJECT_INFO()</text>
</a>
</g>
</g>
<!-- Node3&#45;&gt;Node2 -->
<g id="edge2" class="edge"><title>Node3&#45;&gt;Node2</title>
<path fill="none" stroke="midnightblue" d="M102,-266.132C102,-257.127 102,-248.178 102,-239.559"/>
<polygon fill="none" stroke="midnightblue" points="98.5001,-266.308 102,-276.308 105.5,-266.308 98.5001,-266.308"/>
</g>
<!-- Node4 -->
<g id="node4" class="node"><title>Node4</title>
<polygon fill="white" stroke="#bfbfbf" points="78.5,-513.5 78.5,-570.5 125.5,-570.5 125.5,-513.5 78.5,-513.5"/>
<text text-anchor="middle" x="102" y="-558.5" font-family="Helvetica,sans-Serif" font-size="10.00">Object</text>
<polyline fill="none" stroke="#bfbfbf" points="78.5,-551.5 125.5,-551.5 "/>
<text text-anchor="middle" x="102" y="-539.5" font-family="Helvetica,sans-Serif" font-size="10.00"> </text>
<polyline fill="none" stroke="#bfbfbf" points="78.5,-532.5 125.5,-532.5 "/>
<text text-anchor="middle" x="102" y="-520.5" font-family="Helvetica,sans-Serif" font-size="10.00"> </text>
</g>
<!-- Node4&#45;&gt;Node3 -->
<g id="edge3" class="edge"><title>Node4&#45;&gt;Node3</title>
<path fill="none" stroke="midnightblue" d="M102,-503.04C102,-494.867 102,-485.865 102,-476.549"/>
<polygon fill="none" stroke="midnightblue" points="98.5001,-503.264 102,-513.264 105.5,-503.264 98.5001,-503.264"/>
</g>
</g>
</svg>
