<?xml version="1.0" encoding="UTF-8" standalone="no"?>
<!DOCTYPE svg PUBLIC "-//W3C//DTD SVG 1.1//EN"
 "http://www.w3.org/Graphics/SVG/1.1/DTD/svg11.dtd">
<!-- Generated by graphviz version 2.38.0 (20140413.2041)
 -->
<!-- Title: tvm::relay::SliceLikeAttrs Pages: 1 -->
<svg width="348pt" height="614pt"
 viewBox="0.00 0.00 348.00 614.00" xmlns="http://www.w3.org/2000/svg" xmlns:xlink="http://www.w3.org/1999/xlink">
<g id="graph0" class="graph" transform="scale(1 1) rotate(0) translate(4 610)">
<title>tvm::relay::SliceLikeAttrs</title>
<polygon fill="white" stroke="none" points="-4,4 -4,-610 344,-610 344,4 -4,4"/>
<!-- Node1 -->
<g id="node1" class="node"><title>Node1</title>
<polygon fill="#bfbfbf" stroke="black" points="130,-0.5 130,-57.5 270,-57.5 270,-0.5 130,-0.5"/>
<text text-anchor="middle" x="200" y="-45.5" font-family="Helvetica,sans-Serif" font-size="10.00">tvm::relay::SliceLikeAttrs</text>
<polyline fill="none" stroke="black" points="130,-38.5 270,-38.5 "/>
<text text-anchor="middle" x="200" y="-26.5" font-family="Helvetica,sans-Serif" font-size="10.00"> </text>
<polyline fill="none" stroke="black" points="130,-19.5 270,-19.5 "/>
<text text-anchor="start" x="138" y="-7.5" font-family="Helvetica,sans-Serif" font-size="10.00">+ TVM_DECLARE_ATTRS()</text>
</g>
<!-- Node2 -->
<g id="node2" class="node"><title>Node2</title>
<g id="a_node2"><a xlink:href="classtvm_1_1AttrsNode.html" target="_top" xlink:title="{tvm::AttrsNode\&lt; SliceLike\lAttrs \&gt;\n||+ VisitAttrs()\l+ VisitNonDefaultAttrs()\l+ InitByPackedArgs()\l+ SEqualReduce()\l+ SHashReduce()\l+ ListFieldInfo()\l+ ContentEqual()\l+ ContentHash()\l}">
<polygon fill="white" stroke="black" points="30.5,-116.5 30.5,-261.5 173.5,-261.5 173.5,-116.5 30.5,-116.5"/>
<text text-anchor="start" x="38.5" y="-249.5" font-family="Helvetica,sans-Serif" font-size="10.00">tvm::AttrsNode&lt; SliceLike</text>
<text text-anchor="middle" x="102" y="-238.5" font-family="Helvetica,sans-Serif" font-size="10.00">Attrs &gt;</text>
<polyline fill="none" stroke="black" points="30.5,-231.5 173.5,-231.5 "/>
<text text-anchor="middle" x="102" y="-219.5" font-family="Helvetica,sans-Serif" font-size="10.00"> </text>
<polyline fill="none" stroke="black" points="30.5,-212.5 173.5,-212.5 "/>
<text text-anchor="start" x="38.5" y="-200.5" font-family="Helvetica,sans-Serif" font-size="10.00">+ VisitAttrs()</text>
<text text-anchor="start" x="38.5" y="-189.5" font-family="Helvetica,sans-Serif" font-size="10.00">+ VisitNonDefaultAttrs()</text>
<text text-anchor="start" x="38.5" y="-178.5" font-family="Helvetica,sans-Serif" font-size="10.00">+ InitByPackedArgs()</text>
<text text-anchor="start" x="38.5" y="-167.5" font-family="Helvetica,sans-Serif" font-size="10.00">+ SEqualReduce()</text>
<text text-anchor="start" x="38.5" y="-156.5" font-family="Helvetica,sans-Serif" font-size="10.00">+ SHashReduce()</text>
<text text-anchor="start" x="38.5" y="-145.5" font-family="Helvetica,sans-Serif" font-size="10.00">+ ListFieldInfo()</text>
<text text-anchor="start" x="38.5" y="-134.5" font-family="Helvetica,sans-Serif" font-size="10.00">+ ContentEqual()</text>
<text text-anchor="start" x="38.5" y="-123.5" font-family="Helvetica,sans-Serif" font-size="10.00">+ ContentHash()</text>
</a>
</g>
</g>
<!-- Node2&#45;&gt;Node1 -->
<g id="edge1" class="edge"><title>Node2&#45;&gt;Node1</title>
<path fill="none" stroke="midnightblue" d="M151.897,-107.554C163.081,-89.5228 174.202,-71.5925 182.93,-57.5215"/>
<polygon fill="none" stroke="midnightblue" points="148.709,-106.054 146.412,-116.397 154.658,-109.743 148.709,-106.054"/>
</g>
<!-- Node3 -->
<g id="node3" class="node"><title>Node3</title>
<g id="a_node3"><a xlink:href="classtvm_1_1BaseAttrsNode.html" target="_top" xlink:title="Base class of all attribute class. ">
<polygon fill="white" stroke="black" points="0,-310.5 0,-510.5 204,-510.5 204,-310.5 0,-310.5"/>
<text text-anchor="middle" x="102" y="-498.5" font-family="Helvetica,sans-Serif" font-size="10.00">tvm::BaseAttrsNode</text>
<polyline fill="none" stroke="black" points="0,-491.5 204,-491.5 "/>
<text text-anchor="start" x="8" y="-479.5" font-family="Helvetica,sans-Serif" font-size="10.00">+ _type_has_method_sequal</text>
<text text-anchor="start" x="8" y="-468.5" font-family="Helvetica,sans-Serif" font-size="10.00">_reduce</text>
<text text-anchor="start" x="8" y="-457.5" font-family="Helvetica,sans-Serif" font-size="10.00">+ _type_has_method_shash</text>
<text text-anchor="start" x="8" y="-446.5" font-family="Helvetica,sans-Serif" font-size="10.00">_reduce</text>
<text text-anchor="start" x="8" y="-435.5" font-family="Helvetica,sans-Serif" font-size="10.00">+ _type_key</text>
<polyline fill="none" stroke="black" points="0,-428.5 204,-428.5 "/>
<text text-anchor="start" x="8" y="-416.5" font-family="Helvetica,sans-Serif" font-size="10.00">+ ~BaseAttrsNode()</text>
<text text-anchor="start" x="8" y="-405.5" font-family="Helvetica,sans-Serif" font-size="10.00">+ VisitAttrs()</text>
<text text-anchor="start" x="8" y="-394.5" font-family="Helvetica,sans-Serif" font-size="10.00">+ InitBySeq()</text>
<text text-anchor="start" x="8" y="-383.5" font-family="Helvetica,sans-Serif" font-size="10.00">+ PrintDocString()</text>
<text text-anchor="start" x="8" y="-372.5" font-family="Helvetica,sans-Serif" font-size="10.00">+ VisitNonDefaultAttrs()</text>
<text text-anchor="start" x="8" y="-361.5" font-family="Helvetica,sans-Serif" font-size="10.00">+ ListFieldInfo()</text>
<text text-anchor="start" x="8" y="-350.5" font-family="Helvetica,sans-Serif" font-size="10.00">+ InitByPackedArgs()</text>
<text text-anchor="start" x="8" y="-339.5" font-family="Helvetica,sans-Serif" font-size="10.00">+ ContentEqual()</text>
<text text-anchor="start" x="8" y="-328.5" font-family="Helvetica,sans-Serif" font-size="10.00">+ ContentHash()</text>
<text text-anchor="start" x="8" y="-317.5" font-family="Helvetica,sans-Serif" font-size="10.00">+ TVM_DECLARE_BASE_OBJECT_INFO()</text>
</a>
</g>
</g>
<!-- Node3&#45;&gt;Node2 -->
<g id="edge2" class="edge"><title>Node3&#45;&gt;Node2</title>
<path fill="none" stroke="midnightblue" d="M102,-299.965C102,-287.002 102,-274.035 102,-261.787"/>
<polygon fill="none" stroke="midnightblue" points="98.5001,-300.346 102,-310.346 105.5,-300.346 98.5001,-300.346"/>
</g>
<!-- Node4 -->
<g id="node4" class="node"><title>Node4</title>
<polygon fill="white" stroke="#bfbfbf" points="78.5,-548.5 78.5,-605.5 125.5,-605.5 125.5,-548.5 78.5,-548.5"/>
<text text-anchor="middle" x="102" y="-593.5" font-family="Helvetica,sans-Serif" font-size="10.00">Object</text>
<polyline fill="none" stroke="#bfbfbf" points="78.5,-586.5 125.5,-586.5 "/>
<text text-anchor="middle" x="102" y="-574.5" font-family="Helvetica,sans-Serif" font-size="10.00"> </text>
<polyline fill="none" stroke="#bfbfbf" points="78.5,-567.5 125.5,-567.5 "/>
<text text-anchor="middle" x="102" y="-555.5" font-family="Helvetica,sans-Serif" font-size="10.00"> </text>
</g>
<!-- Node4&#45;&gt;Node3 -->
<g id="edge3" class="edge"><title>Node4&#45;&gt;Node3</title>
<path fill="none" stroke="midnightblue" d="M102,-538.289C102,-529.841 102,-520.496 102,-510.821"/>
<polygon fill="none" stroke="midnightblue" points="98.5001,-538.466 102,-548.466 105.5,-538.466 98.5001,-538.466"/>
</g>
<!-- Node5 -->
<g id="node5" class="node"><title>Node5</title>
<g id="a_node5"><a xlink:href="classtvm_1_1Array.html" target="_top" xlink:title="{tvm::Array\&lt; tvm::Integer \&gt;\n||+ Array()\l+ Array()\l+ Array()\l+ Array()\l+ Array()\l+ Array()\l+ Array()\l+ Array()\l+ operator=()\l+ operator=()\land 13 more...\l}">
<polygon fill="white" stroke="black" points="192,-105.5 192,-272.5 340,-272.5 340,-105.5 192,-105.5"/>
<text text-anchor="middle" x="266" y="-260.5" font-family="Helvetica,sans-Serif" font-size="10.00">tvm::Array&lt; tvm::Integer &gt;</text>
<polyline fill="none" stroke="black" points="192,-253.5 340,-253.5 "/>
<text text-anchor="middle" x="266" y="-241.5" font-family="Helvetica,sans-Serif" font-size="10.00"> </text>
<polyline fill="none" stroke="black" points="192,-234.5 340,-234.5 "/>
<text text-anchor="start" x="200" y="-222.5" font-family="Helvetica,sans-Serif" font-size="10.00">+ Array()</text>
<text text-anchor="start" x="200" y="-211.5" font-family="Helvetica,sans-Serif" font-size="10.00">+ Array()</text>
<text text-anchor="start" x="200" y="-200.5" font-family="Helvetica,sans-Serif" font-size="10.00">+ Array()</text>
<text text-anchor="start" x="200" y="-189.5" font-family="Helvetica,sans-Serif" font-size="10.00">+ Array()</text>
<text text-anchor="start" x="200" y="-178.5" font-family="Helvetica,sans-Serif" font-size="10.00">+ Array()</text>
<text text-anchor="start" x="200" y="-167.5" font-family="Helvetica,sans-Serif" font-size="10.00">+ Array()</text>
<text text-anchor="start" x="200" y="-156.5" font-family="Helvetica,sans-Serif" font-size="10.00">+ Array()</text>
<text text-anchor="start" x="200" y="-145.5" font-family="Helvetica,sans-Serif" font-size="10.00">+ Array()</text>
<text text-anchor="start" x="200" y="-134.5" font-family="Helvetica,sans-Serif" font-size="10.00">+ operator=()</text>
<text text-anchor="start" x="200" y="-123.5" font-family="Helvetica,sans-Serif" font-size="10.00">+ operator=()</text>
<text text-anchor="start" x="200" y="-112.5" font-family="Helvetica,sans-Serif" font-size="10.00">and 13 more...</text>
</a>
</g>
</g>
<!-- Node5&#45;&gt;Node1 -->
<g id="edge4" class="edge"><title>Node5&#45;&gt;Node1</title>
<path fill="none" stroke="#404040" d="M231.454,-105.298C226.186,-92.6868 220.97,-80.2015 216.346,-69.1317"/>
<polygon fill="none" stroke="#404040" points="216.211,-68.809 210.208,-64.8144 211.586,-57.7362 217.59,-61.7308 216.211,-68.809"/>
<text text-anchor="middle" x="241" y="-79" font-family="Helvetica,sans-Serif" font-size="10.00"> +axes</text>
</g>
<!-- Node6 -->
<g id="node6" class="node"><title>Node6</title>
<polygon fill="white" stroke="#bfbfbf" points="235,-382 235,-439 297,-439 297,-382 235,-382"/>
<text text-anchor="middle" x="266" y="-427" font-family="Helvetica,sans-Serif" font-size="10.00">ObjectRef</text>
<polyline fill="none" stroke="#bfbfbf" points="235,-420 297,-420 "/>
<text text-anchor="middle" x="266" y="-408" font-family="Helvetica,sans-Serif" font-size="10.00"> </text>
<polyline fill="none" stroke="#bfbfbf" points="235,-401 297,-401 "/>
<text text-anchor="middle" x="266" y="-389" font-family="Helvetica,sans-Serif" font-size="10.00"> </text>
</g>
<!-- Node6&#45;&gt;Node5 -->
<g id="edge5" class="edge"><title>Node6&#45;&gt;Node5</title>
<path fill="none" stroke="midnightblue" d="M266,-371.472C266,-344.322 266,-306.754 266,-272.839"/>
<polygon fill="none" stroke="midnightblue" points="262.5,-371.7 266,-381.7 269.5,-371.7 262.5,-371.7"/>
</g>
</g>
</svg>
