<?xml version="1.0" encoding="UTF-8" standalone="no"?>
<!DOCTYPE svg PUBLIC "-//W3C//DTD SVG 1.1//EN"
 "http://www.w3.org/Graphics/SVG/1.1/DTD/svg11.dtd">
<!-- Generated by graphviz version 2.38.0 (20140413.2041)
 -->
<!-- Title: tvm::relay::StackAttrs Pages: 1 -->
<svg width="380pt" height="837pt"
 viewBox="0.00 0.00 380.00 837.00" xmlns="http://www.w3.org/2000/svg" xmlns:xlink="http://www.w3.org/1999/xlink">
<g id="graph0" class="graph" transform="scale(1 1) rotate(0) translate(4 833)">
<title>tvm::relay::StackAttrs</title>
<polygon fill="white" stroke="none" points="-4,4 -4,-833 376,-833 376,4 -4,4"/>
<!-- Node1 -->
<g id="node1" class="node"><title>Node1</title>
<polygon fill="#bfbfbf" stroke="black" points="150,-0.5 150,-57.5 290,-57.5 290,-0.5 150,-0.5"/>
<text text-anchor="middle" x="220" y="-45.5" font-family="Helvetica,sans-Serif" font-size="10.00">tvm::relay::StackAttrs</text>
<polyline fill="none" stroke="black" points="150,-38.5 290,-38.5 "/>
<text text-anchor="middle" x="220" y="-26.5" font-family="Helvetica,sans-Serif" font-size="10.00"> </text>
<polyline fill="none" stroke="black" points="150,-19.5 290,-19.5 "/>
<text text-anchor="start" x="158" y="-7.5" font-family="Helvetica,sans-Serif" font-size="10.00">+ TVM_DECLARE_ATTRS()</text>
</g>
<!-- Node2 -->
<g id="node2" class="node"><title>Node2</title>
<g id="a_node2"><a xlink:href="classtvm_1_1AttrsNode.html" target="_top" xlink:title="{tvm::AttrsNode\&lt; StackAttrs \&gt;\n||+ VisitAttrs()\l+ VisitNonDefaultAttrs()\l+ InitByPackedArgs()\l+ SEqualReduce()\l+ SHashReduce()\l+ ListFieldInfo()\l+ ContentEqual()\l+ ContentHash()\l}">
<polygon fill="white" stroke="black" points="44.5,-105.5 44.5,-239.5 207.5,-239.5 207.5,-105.5 44.5,-105.5"/>
<text text-anchor="middle" x="126" y="-227.5" font-family="Helvetica,sans-Serif" font-size="10.00">tvm::AttrsNode&lt; StackAttrs &gt;</text>
<polyline fill="none" stroke="black" points="44.5,-220.5 207.5,-220.5 "/>
<text text-anchor="middle" x="126" y="-208.5" font-family="Helvetica,sans-Serif" font-size="10.00"> </text>
<polyline fill="none" stroke="black" points="44.5,-201.5 207.5,-201.5 "/>
<text text-anchor="start" x="52.5" y="-189.5" font-family="Helvetica,sans-Serif" font-size="10.00">+ VisitAttrs()</text>
<text text-anchor="start" x="52.5" y="-178.5" font-family="Helvetica,sans-Serif" font-size="10.00">+ VisitNonDefaultAttrs()</text>
<text text-anchor="start" x="52.5" y="-167.5" font-family="Helvetica,sans-Serif" font-size="10.00">+ InitByPackedArgs()</text>
<text text-anchor="start" x="52.5" y="-156.5" font-family="Helvetica,sans-Serif" font-size="10.00">+ SEqualReduce()</text>
<text text-anchor="start" x="52.5" y="-145.5" font-family="Helvetica,sans-Serif" font-size="10.00">+ SHashReduce()</text>
<text text-anchor="start" x="52.5" y="-134.5" font-family="Helvetica,sans-Serif" font-size="10.00">+ ListFieldInfo()</text>
<text text-anchor="start" x="52.5" y="-123.5" font-family="Helvetica,sans-Serif" font-size="10.00">+ ContentEqual()</text>
<text text-anchor="start" x="52.5" y="-112.5" font-family="Helvetica,sans-Serif" font-size="10.00">+ ContentHash()</text>
</a>
</g>
</g>
<!-- Node2&#45;&gt;Node1 -->
<g id="edge1" class="edge"><title>Node2&#45;&gt;Node1</title>
<path fill="none" stroke="midnightblue" d="M175.745,-96.6176C185.008,-82.6748 194.127,-68.9467 201.659,-57.6093"/>
<polygon fill="none" stroke="midnightblue" points="172.591,-95.041 169.973,-105.307 178.421,-98.9144 172.591,-95.041"/>
</g>
<!-- Node3 -->
<g id="node3" class="node"><title>Node3</title>
<g id="a_node3"><a xlink:href="classtvm_1_1BaseAttrsNode.html" target="_top" xlink:title="Base class of all attribute class. ">
<polygon fill="white" stroke="black" points="0,-277.5 0,-477.5 204,-477.5 204,-277.5 0,-277.5"/>
<text text-anchor="middle" x="102" y="-465.5" font-family="Helvetica,sans-Serif" font-size="10.00">tvm::BaseAttrsNode</text>
<polyline fill="none" stroke="black" points="0,-458.5 204,-458.5 "/>
<text text-anchor="start" x="8" y="-446.5" font-family="Helvetica,sans-Serif" font-size="10.00">+ _type_has_method_sequal</text>
<text text-anchor="start" x="8" y="-435.5" font-family="Helvetica,sans-Serif" font-size="10.00">_reduce</text>
<text text-anchor="start" x="8" y="-424.5" font-family="Helvetica,sans-Serif" font-size="10.00">+ _type_has_method_shash</text>
<text text-anchor="start" x="8" y="-413.5" font-family="Helvetica,sans-Serif" font-size="10.00">_reduce</text>
<text text-anchor="start" x="8" y="-402.5" font-family="Helvetica,sans-Serif" font-size="10.00">+ _type_key</text>
<polyline fill="none" stroke="black" points="0,-395.5 204,-395.5 "/>
<text text-anchor="start" x="8" y="-383.5" font-family="Helvetica,sans-Serif" font-size="10.00">+ ~BaseAttrsNode()</text>
<text text-anchor="start" x="8" y="-372.5" font-family="Helvetica,sans-Serif" font-size="10.00">+ VisitAttrs()</text>
<text text-anchor="start" x="8" y="-361.5" font-family="Helvetica,sans-Serif" font-size="10.00">+ InitBySeq()</text>
<text text-anchor="start" x="8" y="-350.5" font-family="Helvetica,sans-Serif" font-size="10.00">+ PrintDocString()</text>
<text text-anchor="start" x="8" y="-339.5" font-family="Helvetica,sans-Serif" font-size="10.00">+ VisitNonDefaultAttrs()</text>
<text text-anchor="start" x="8" y="-328.5" font-family="Helvetica,sans-Serif" font-size="10.00">+ ListFieldInfo()</text>
<text text-anchor="start" x="8" y="-317.5" font-family="Helvetica,sans-Serif" font-size="10.00">+ InitByPackedArgs()</text>
<text text-anchor="start" x="8" y="-306.5" font-family="Helvetica,sans-Serif" font-size="10.00">+ ContentEqual()</text>
<text text-anchor="start" x="8" y="-295.5" font-family="Helvetica,sans-Serif" font-size="10.00">+ ContentHash()</text>
<text text-anchor="start" x="8" y="-284.5" font-family="Helvetica,sans-Serif" font-size="10.00">+ TVM_DECLARE_BASE_OBJECT_INFO()</text>
</a>
</g>
</g>
<!-- Node3&#45;&gt;Node2 -->
<g id="edge2" class="edge"><title>Node3&#45;&gt;Node2</title>
<path fill="none" stroke="midnightblue" d="M114.922,-267.198C116.03,-257.833 117.126,-248.558 118.174,-239.693"/>
<polygon fill="none" stroke="midnightblue" points="111.417,-267.037 113.719,-277.379 118.369,-267.859 111.417,-267.037"/>
</g>
<!-- Node4 -->
<g id="node4" class="node"><title>Node4</title>
<polygon fill="white" stroke="#bfbfbf" points="78.5,-543 78.5,-600 125.5,-600 125.5,-543 78.5,-543"/>
<text text-anchor="middle" x="102" y="-588" font-family="Helvetica,sans-Serif" font-size="10.00">Object</text>
<polyline fill="none" stroke="#bfbfbf" points="78.5,-581 125.5,-581 "/>
<text text-anchor="middle" x="102" y="-569" font-family="Helvetica,sans-Serif" font-size="10.00"> </text>
<polyline fill="none" stroke="#bfbfbf" points="78.5,-562 125.5,-562 "/>
<text text-anchor="middle" x="102" y="-550" font-family="Helvetica,sans-Serif" font-size="10.00"> </text>
</g>
<!-- Node4&#45;&gt;Node3 -->
<g id="edge3" class="edge"><title>Node4&#45;&gt;Node3</title>
<path fill="none" stroke="midnightblue" d="M102,-532.57C102,-516.674 102,-497.376 102,-477.892"/>
<polygon fill="none" stroke="midnightblue" points="98.5001,-532.991 102,-542.991 105.5,-532.991 98.5001,-532.991"/>
</g>
<!-- Node5 -->
<g id="node5" class="node"><title>Node5</title>
<g id="a_node5"><a xlink:href="classtvm_1_1Integer.html" target="_top" xlink:title="Container of constant int that adds more constructors. ">
<polygon fill="white" stroke="black" points="227.5,-111 227.5,-234 340.5,-234 340.5,-111 227.5,-111"/>
<text text-anchor="middle" x="284" y="-222" font-family="Helvetica,sans-Serif" font-size="10.00">tvm::Integer</text>
<polyline fill="none" stroke="black" points="227.5,-215 340.5,-215 "/>
<text text-anchor="middle" x="284" y="-203" font-family="Helvetica,sans-Serif" font-size="10.00"> </text>
<polyline fill="none" stroke="black" points="227.5,-196 340.5,-196 "/>
<text text-anchor="start" x="235.5" y="-184" font-family="Helvetica,sans-Serif" font-size="10.00">+ Integer()</text>
<text text-anchor="start" x="235.5" y="-173" font-family="Helvetica,sans-Serif" font-size="10.00">+ Integer()</text>
<text text-anchor="start" x="235.5" y="-162" font-family="Helvetica,sans-Serif" font-size="10.00">+ Integer()</text>
<text text-anchor="start" x="235.5" y="-151" font-family="Helvetica,sans-Serif" font-size="10.00">+ Integer()</text>
<text text-anchor="start" x="235.5" y="-140" font-family="Helvetica,sans-Serif" font-size="10.00">+ Integer()</text>
<text text-anchor="start" x="235.5" y="-129" font-family="Helvetica,sans-Serif" font-size="10.00">+ operator=()</text>
<text text-anchor="start" x="235.5" y="-118" font-family="Helvetica,sans-Serif" font-size="10.00">+ operator int64_t()</text>
</a>
</g>
</g>
<!-- Node5&#45;&gt;Node1 -->
<g id="edge4" class="edge"><title>Node5&#45;&gt;Node1</title>
<path fill="none" stroke="#404040" d="M256.487,-110.67C250.106,-96.5622 243.482,-81.9174 237.658,-69.0399"/>
<polygon fill="none" stroke="#404040" points="237.509,-68.7101 231.391,-64.8917 232.563,-57.7765 238.68,-61.5949 237.509,-68.7101"/>
<text text-anchor="middle" x="259.5" y="-79" font-family="Helvetica,sans-Serif" font-size="10.00"> +axis</text>
</g>
<!-- Node6 -->
<g id="node6" class="node"><title>Node6</title>
<g id="a_node6"><a xlink:href="classtvm_1_1IntImm.html" target="_top" xlink:title="Managed reference class to IntImmNode. ">
<polygon fill="white" stroke="black" points="222,-338 222,-417 372,-417 372,-338 222,-338"/>
<text text-anchor="middle" x="297" y="-405" font-family="Helvetica,sans-Serif" font-size="10.00">tvm::IntImm</text>
<polyline fill="none" stroke="black" points="222,-398 372,-398 "/>
<text text-anchor="middle" x="297" y="-386" font-family="Helvetica,sans-Serif" font-size="10.00"> </text>
<polyline fill="none" stroke="black" points="222,-379 372,-379 "/>
<text text-anchor="start" x="230" y="-367" font-family="Helvetica,sans-Serif" font-size="10.00">+ IntImm()</text>
<text text-anchor="start" x="230" y="-356" font-family="Helvetica,sans-Serif" font-size="10.00">+ TVM_DEFINE_OBJECT_REF</text>
<text text-anchor="start" x="230" y="-345" font-family="Helvetica,sans-Serif" font-size="10.00">_METHODS()</text>
</a>
</g>
</g>
<!-- Node6&#45;&gt;Node5 -->
<g id="edge5" class="edge"><title>Node6&#45;&gt;Node5</title>
<path fill="none" stroke="midnightblue" d="M293.862,-327.495C292.069,-299.496 289.805,-264.143 287.898,-234.374"/>
<polygon fill="none" stroke="midnightblue" points="290.392,-328.084 294.524,-337.839 297.378,-327.636 290.392,-328.084"/>
</g>
<!-- Node7 -->
<g id="node7" class="node"><title>Node7</title>
<g id="a_node7"><a xlink:href="classtvm_1_1PrimExpr.html" target="_top" xlink:title="Reference to PrimExprNode. ">
<polygon fill="white" stroke="black" points="222,-515.5 222,-627.5 372,-627.5 372,-515.5 222,-515.5"/>
<text text-anchor="middle" x="297" y="-615.5" font-family="Helvetica,sans-Serif" font-size="10.00">tvm::PrimExpr</text>
<polyline fill="none" stroke="black" points="222,-608.5 372,-608.5 "/>
<text text-anchor="middle" x="297" y="-596.5" font-family="Helvetica,sans-Serif" font-size="10.00"> </text>
<polyline fill="none" stroke="black" points="222,-589.5 372,-589.5 "/>
<text text-anchor="start" x="230" y="-577.5" font-family="Helvetica,sans-Serif" font-size="10.00">+ PrimExpr()</text>
<text text-anchor="start" x="230" y="-566.5" font-family="Helvetica,sans-Serif" font-size="10.00">+ PrimExpr()</text>
<text text-anchor="start" x="230" y="-555.5" font-family="Helvetica,sans-Serif" font-size="10.00">+ PrimExpr()</text>
<text text-anchor="start" x="230" y="-544.5" font-family="Helvetica,sans-Serif" font-size="10.00">+ dtype()</text>
<text text-anchor="start" x="230" y="-533.5" font-family="Helvetica,sans-Serif" font-size="10.00">+ TVM_DEFINE_OBJECT_REF</text>
<text text-anchor="start" x="230" y="-522.5" font-family="Helvetica,sans-Serif" font-size="10.00">_METHODS()</text>
</a>
</g>
</g>
<!-- Node7&#45;&gt;Node6 -->
<g id="edge6" class="edge"><title>Node7&#45;&gt;Node6</title>
<path fill="none" stroke="midnightblue" d="M297,-505.302C297,-475.962 297,-442.329 297,-417.076"/>
<polygon fill="none" stroke="midnightblue" points="293.5,-505.48 297,-515.481 300.5,-505.481 293.5,-505.48"/>
</g>
<!-- Node8 -->
<g id="node8" class="node"><title>Node8</title>
<g id="a_node8"><a xlink:href="classtvm_1_1BaseExpr.html" target="_top" xlink:title="Managed reference to BaseExprNode. ">
<polygon fill="white" stroke="black" points="222,-665.5 222,-733.5 372,-733.5 372,-665.5 222,-665.5"/>
<text text-anchor="middle" x="297" y="-721.5" font-family="Helvetica,sans-Serif" font-size="10.00">tvm::BaseExpr</text>
<polyline fill="none" stroke="black" points="222,-714.5 372,-714.5 "/>
<text text-anchor="middle" x="297" y="-702.5" font-family="Helvetica,sans-Serif" font-size="10.00"> </text>
<polyline fill="none" stroke="black" points="222,-695.5 372,-695.5 "/>
<text text-anchor="start" x="230" y="-683.5" font-family="Helvetica,sans-Serif" font-size="10.00">+ TVM_DEFINE_OBJECT_REF</text>
<text text-anchor="start" x="230" y="-672.5" font-family="Helvetica,sans-Serif" font-size="10.00">_METHODS()</text>
</a>
</g>
</g>
<!-- Node8&#45;&gt;Node7 -->
<g id="edge7" class="edge"><title>Node8&#45;&gt;Node7</title>
<path fill="none" stroke="midnightblue" d="M297,-655.311C297,-646.452 297,-637.011 297,-627.794"/>
<polygon fill="none" stroke="midnightblue" points="293.5,-655.395 297,-665.395 300.5,-655.395 293.5,-655.395"/>
</g>
<!-- Node9 -->
<g id="node9" class="node"><title>Node9</title>
<polygon fill="white" stroke="#bfbfbf" points="266,-771.5 266,-828.5 328,-828.5 328,-771.5 266,-771.5"/>
<text text-anchor="middle" x="297" y="-816.5" font-family="Helvetica,sans-Serif" font-size="10.00">ObjectRef</text>
<polyline fill="none" stroke="#bfbfbf" points="266,-809.5 328,-809.5 "/>
<text text-anchor="middle" x="297" y="-797.5" font-family="Helvetica,sans-Serif" font-size="10.00"> </text>
<polyline fill="none" stroke="#bfbfbf" points="266,-790.5 328,-790.5 "/>
<text text-anchor="middle" x="297" y="-778.5" font-family="Helvetica,sans-Serif" font-size="10.00"> </text>
</g>
<!-- Node9&#45;&gt;Node8 -->
<g id="edge8" class="edge"><title>Node9&#45;&gt;Node8</title>
<path fill="none" stroke="midnightblue" d="M297,-761.007C297,-751.962 297,-742.383 297,-733.578"/>
<polygon fill="none" stroke="midnightblue" points="293.5,-761.3 297,-771.3 300.5,-761.3 293.5,-761.3"/>
</g>
</g>
</svg>
