<?xml version="1.0" encoding="UTF-8" standalone="no"?>
<!DOCTYPE svg PUBLIC "-//W3C//DTD SVG 1.1//EN"
 "http://www.w3.org/Graphics/SVG/1.1/DTD/svg11.dtd">
<!-- Generated by graphviz version 2.38.0 (20140413.2041)
 -->
<!-- Title: tvm::relay::DebugAttrs Pages: 1 -->
<svg width="304pt" height="581pt"
 viewBox="0.00 0.00 304.00 581.00" xmlns="http://www.w3.org/2000/svg" xmlns:xlink="http://www.w3.org/1999/xlink">
<g id="graph0" class="graph" transform="scale(1 1) rotate(0) translate(4 577)">
<title>tvm::relay::DebugAttrs</title>
<polygon fill="white" stroke="none" points="-4,4 -4,-577 300,-577 300,4 -4,4"/>
<!-- Node1 -->
<g id="node1" class="node"><title>Node1</title>
<polygon fill="#bfbfbf" stroke="black" points="122,-0.5 122,-57.5 262,-57.5 262,-0.5 122,-0.5"/>
<text text-anchor="middle" x="192" y="-45.5" font-family="Helvetica,sans-Serif" font-size="10.00">tvm::relay::DebugAttrs</text>
<polyline fill="none" stroke="black" points="122,-38.5 262,-38.5 "/>
<text text-anchor="middle" x="192" y="-26.5" font-family="Helvetica,sans-Serif" font-size="10.00"> </text>
<polyline fill="none" stroke="black" points="122,-19.5 262,-19.5 "/>
<text text-anchor="start" x="130" y="-7.5" font-family="Helvetica,sans-Serif" font-size="10.00">+ TVM_DECLARE_ATTRS()</text>
</g>
<!-- Node2 -->
<g id="node2" class="node"><title>Node2</title>
<g id="a_node2"><a xlink:href="classtvm_1_1AttrsNode.html" target="_top" xlink:title="{tvm::AttrsNode\&lt; DebugAttrs \&gt;\n||+ VisitAttrs()\l+ VisitNonDefaultAttrs()\l+ InitByPackedArgs()\l+ SEqualReduce()\l+ SHashReduce()\l+ ListFieldInfo()\l+ ContentEqual()\l+ ContentHash()\l}">
<polygon fill="white" stroke="black" points="20.5,-105.5 20.5,-239.5 187.5,-239.5 187.5,-105.5 20.5,-105.5"/>
<text text-anchor="middle" x="104" y="-227.5" font-family="Helvetica,sans-Serif" font-size="10.00">tvm::AttrsNode&lt; DebugAttrs &gt;</text>
<polyline fill="none" stroke="black" points="20.5,-220.5 187.5,-220.5 "/>
<text text-anchor="middle" x="104" y="-208.5" font-family="Helvetica,sans-Serif" font-size="10.00"> </text>
<polyline fill="none" stroke="black" points="20.5,-201.5 187.5,-201.5 "/>
<text text-anchor="start" x="28.5" y="-189.5" font-family="Helvetica,sans-Serif" font-size="10.00">+ VisitAttrs()</text>
<text text-anchor="start" x="28.5" y="-178.5" font-family="Helvetica,sans-Serif" font-size="10.00">+ VisitNonDefaultAttrs()</text>
<text text-anchor="start" x="28.5" y="-167.5" font-family="Helvetica,sans-Serif" font-size="10.00">+ InitByPackedArgs()</text>
<text text-anchor="start" x="28.5" y="-156.5" font-family="Helvetica,sans-Serif" font-size="10.00">+ SEqualReduce()</text>
<text text-anchor="start" x="28.5" y="-145.5" font-family="Helvetica,sans-Serif" font-size="10.00">+ SHashReduce()</text>
<text text-anchor="start" x="28.5" y="-134.5" font-family="Helvetica,sans-Serif" font-size="10.00">+ ListFieldInfo()</text>
<text text-anchor="start" x="28.5" y="-123.5" font-family="Helvetica,sans-Serif" font-size="10.00">+ ContentEqual()</text>
<text text-anchor="start" x="28.5" y="-112.5" font-family="Helvetica,sans-Serif" font-size="10.00">+ ContentHash()</text>
</a>
</g>
</g>
<!-- Node2&#45;&gt;Node1 -->
<g id="edge1" class="edge"><title>Node2&#45;&gt;Node1</title>
<path fill="none" stroke="midnightblue" d="M150.57,-96.6176C159.241,-82.6748 167.779,-68.9467 174.83,-57.6093"/>
<polygon fill="none" stroke="midnightblue" points="147.475,-94.9671 145.166,-105.307 153.419,-98.6639 147.475,-94.9671"/>
</g>
<!-- Node3 -->
<g id="node3" class="node"><title>Node3</title>
<g id="a_node3"><a xlink:href="classtvm_1_1BaseAttrsNode.html" target="_top" xlink:title="Base class of all attribute class. ">
<polygon fill="white" stroke="black" points="0,-277.5 0,-477.5 204,-477.5 204,-277.5 0,-277.5"/>
<text text-anchor="middle" x="102" y="-465.5" font-family="Helvetica,sans-Serif" font-size="10.00">tvm::BaseAttrsNode</text>
<polyline fill="none" stroke="black" points="0,-458.5 204,-458.5 "/>
<text text-anchor="start" x="8" y="-446.5" font-family="Helvetica,sans-Serif" font-size="10.00">+ _type_has_method_sequal</text>
<text text-anchor="start" x="8" y="-435.5" font-family="Helvetica,sans-Serif" font-size="10.00">_reduce</text>
<text text-anchor="start" x="8" y="-424.5" font-family="Helvetica,sans-Serif" font-size="10.00">+ _type_has_method_shash</text>
<text text-anchor="start" x="8" y="-413.5" font-family="Helvetica,sans-Serif" font-size="10.00">_reduce</text>
<text text-anchor="start" x="8" y="-402.5" font-family="Helvetica,sans-Serif" font-size="10.00">+ _type_key</text>
<polyline fill="none" stroke="black" points="0,-395.5 204,-395.5 "/>
<text text-anchor="start" x="8" y="-383.5" font-family="Helvetica,sans-Serif" font-size="10.00">+ ~BaseAttrsNode()</text>
<text text-anchor="start" x="8" y="-372.5" font-family="Helvetica,sans-Serif" font-size="10.00">+ VisitAttrs()</text>
<text text-anchor="start" x="8" y="-361.5" font-family="Helvetica,sans-Serif" font-size="10.00">+ InitBySeq()</text>
<text text-anchor="start" x="8" y="-350.5" font-family="Helvetica,sans-Serif" font-size="10.00">+ PrintDocString()</text>
<text text-anchor="start" x="8" y="-339.5" font-family="Helvetica,sans-Serif" font-size="10.00">+ VisitNonDefaultAttrs()</text>
<text text-anchor="start" x="8" y="-328.5" font-family="Helvetica,sans-Serif" font-size="10.00">+ ListFieldInfo()</text>
<text text-anchor="start" x="8" y="-317.5" font-family="Helvetica,sans-Serif" font-size="10.00">+ InitByPackedArgs()</text>
<text text-anchor="start" x="8" y="-306.5" font-family="Helvetica,sans-Serif" font-size="10.00">+ ContentEqual()</text>
<text text-anchor="start" x="8" y="-295.5" font-family="Helvetica,sans-Serif" font-size="10.00">+ ContentHash()</text>
<text text-anchor="start" x="8" y="-284.5" font-family="Helvetica,sans-Serif" font-size="10.00">+ TVM_DECLARE_BASE_OBJECT_INFO()</text>
</a>
</g>
</g>
<!-- Node3&#45;&gt;Node2 -->
<g id="edge2" class="edge"><title>Node3&#45;&gt;Node2</title>
<path fill="none" stroke="midnightblue" d="M103.077,-267.198C103.169,-257.833 103.261,-248.558 103.348,-239.693"/>
<polygon fill="none" stroke="midnightblue" points="99.5753,-267.345 102.977,-277.379 106.575,-267.414 99.5753,-267.345"/>
</g>
<!-- Node4 -->
<g id="node4" class="node"><title>Node4</title>
<polygon fill="white" stroke="#bfbfbf" points="78.5,-515.5 78.5,-572.5 125.5,-572.5 125.5,-515.5 78.5,-515.5"/>
<text text-anchor="middle" x="102" y="-560.5" font-family="Helvetica,sans-Serif" font-size="10.00">Object</text>
<polyline fill="none" stroke="#bfbfbf" points="78.5,-553.5 125.5,-553.5 "/>
<text text-anchor="middle" x="102" y="-541.5" font-family="Helvetica,sans-Serif" font-size="10.00"> </text>
<polyline fill="none" stroke="#bfbfbf" points="78.5,-534.5 125.5,-534.5 "/>
<text text-anchor="middle" x="102" y="-522.5" font-family="Helvetica,sans-Serif" font-size="10.00"> </text>
</g>
<!-- Node4&#45;&gt;Node3 -->
<g id="edge3" class="edge"><title>Node4&#45;&gt;Node3</title>
<path fill="none" stroke="midnightblue" d="M102,-505.289C102,-496.841 102,-487.496 102,-477.821"/>
<polygon fill="none" stroke="midnightblue" points="98.5001,-505.466 102,-515.466 105.5,-505.466 98.5001,-505.466"/>
</g>
<!-- Node5 -->
<g id="node5" class="node"><title>Node5</title>
<g id="a_node5"><a xlink:href="classtvm_1_1EnvFunc.html" target="_top" xlink:title="Managed reference to EnvFuncNode. ">
<polygon fill="white" stroke="black" points="208,-122 208,-223 296,-223 296,-122 208,-122"/>
<text text-anchor="middle" x="252" y="-211" font-family="Helvetica,sans-Serif" font-size="10.00">tvm::EnvFunc</text>
<polyline fill="none" stroke="black" points="208,-204 296,-204 "/>
<text text-anchor="middle" x="252" y="-192" font-family="Helvetica,sans-Serif" font-size="10.00"> </text>
<polyline fill="none" stroke="black" points="208,-185 296,-185 "/>
<text text-anchor="start" x="216" y="-173" font-family="Helvetica,sans-Serif" font-size="10.00">+ EnvFunc()</text>
<text text-anchor="start" x="216" y="-162" font-family="Helvetica,sans-Serif" font-size="10.00">+ EnvFunc()</text>
<text text-anchor="start" x="216" y="-151" font-family="Helvetica,sans-Serif" font-size="10.00">+ operator&#45;&gt;()</text>
<text text-anchor="start" x="216" y="-140" font-family="Helvetica,sans-Serif" font-size="10.00">+ operator()()</text>
<text text-anchor="start" x="216" y="-129" font-family="Helvetica,sans-Serif" font-size="10.00">+ Get()</text>
</a>
</g>
</g>
<!-- Node5&#45;&gt;Node1 -->
<g id="edge4" class="edge"><title>Node5&#45;&gt;Node1</title>
<path fill="none" stroke="#404040" d="M230.846,-121.612C223.516,-104.325 215.412,-85.2127 208.51,-68.9371"/>
<polygon fill="none" stroke="#404040" points="208.411,-68.7019 202.386,-64.7395 203.726,-57.654 209.751,-61.6164 208.411,-68.7019"/>
<text text-anchor="middle" x="248.5" y="-79" font-family="Helvetica,sans-Serif" font-size="10.00"> +debug_func</text>
</g>
<!-- Node6 -->
<g id="node6" class="node"><title>Node6</title>
<polygon fill="white" stroke="#bfbfbf" points="222,-349 222,-406 284,-406 284,-349 222,-349"/>
<text text-anchor="middle" x="253" y="-394" font-family="Helvetica,sans-Serif" font-size="10.00">ObjectRef</text>
<polyline fill="none" stroke="#bfbfbf" points="222,-387 284,-387 "/>
<text text-anchor="middle" x="253" y="-375" font-family="Helvetica,sans-Serif" font-size="10.00"> </text>
<polyline fill="none" stroke="#bfbfbf" points="222,-368 284,-368 "/>
<text text-anchor="middle" x="253" y="-356" font-family="Helvetica,sans-Serif" font-size="10.00"> </text>
</g>
<!-- Node6&#45;&gt;Node5 -->
<g id="edge5" class="edge"><title>Node6&#45;&gt;Node5</title>
<path fill="none" stroke="midnightblue" d="M252.814,-338.668C252.653,-306.08 252.42,-258.805 252.245,-223.175"/>
<polygon fill="none" stroke="midnightblue" points="249.314,-338.717 252.863,-348.699 256.314,-338.682 249.314,-338.717"/>
</g>
</g>
</svg>
