<?xml version="1.0" encoding="UTF-8" standalone="no"?>
<!DOCTYPE svg PUBLIC "-//W3C//DTD SVG 1.1//EN"
 "http://www.w3.org/Graphics/SVG/1.1/DTD/svg11.dtd">
<!-- Generated by graphviz version 2.38.0 (20140413.2041)
 -->
<!-- Title: tvm::relay::ProposalAttrs Pages: 1 -->
<svg width="357pt" height="680pt"
 viewBox="0.00 0.00 356.50 680.00" xmlns="http://www.w3.org/2000/svg" xmlns:xlink="http://www.w3.org/1999/xlink">
<g id="graph0" class="graph" transform="scale(1 1) rotate(0) translate(4 676)">
<title>tvm::relay::ProposalAttrs</title>
<polygon fill="white" stroke="none" points="-4,4 -4,-676 352.5,-676 352.5,4 -4,4"/>
<!-- Node1 -->
<g id="node1" class="node"><title>Node1</title>
<polygon fill="#bfbfbf" stroke="black" points="132,-0.5 132,-112.5 272,-112.5 272,-0.5 132,-0.5"/>
<text text-anchor="middle" x="202" y="-100.5" font-family="Helvetica,sans-Serif" font-size="10.00">tvm::relay::ProposalAttrs</text>
<polyline fill="none" stroke="black" points="132,-93.5 272,-93.5 "/>
<text text-anchor="start" x="140" y="-81.5" font-family="Helvetica,sans-Serif" font-size="10.00">+ feature_stride</text>
<text text-anchor="start" x="140" y="-70.5" font-family="Helvetica,sans-Serif" font-size="10.00">+ threshold</text>
<text text-anchor="start" x="140" y="-59.5" font-family="Helvetica,sans-Serif" font-size="10.00">+ rpn_pre_nms_top_n</text>
<text text-anchor="start" x="140" y="-48.5" font-family="Helvetica,sans-Serif" font-size="10.00">+ rpn_post_nms_top_n</text>
<text text-anchor="start" x="140" y="-37.5" font-family="Helvetica,sans-Serif" font-size="10.00">+ rpn_min_size</text>
<text text-anchor="start" x="140" y="-26.5" font-family="Helvetica,sans-Serif" font-size="10.00">+ iou_loss</text>
<polyline fill="none" stroke="black" points="132,-19.5 272,-19.5 "/>
<text text-anchor="start" x="140" y="-7.5" font-family="Helvetica,sans-Serif" font-size="10.00">+ TVM_DECLARE_ATTRS()</text>
</g>
<!-- Node2 -->
<g id="node2" class="node"><title>Node2</title>
<g id="a_node2"><a xlink:href="classtvm_1_1AttrsNode.html" target="_top" xlink:title="{tvm::AttrsNode\&lt; Proposal\lAttrs \&gt;\n||+ VisitAttrs()\l+ VisitNonDefaultAttrs()\l+ InitByPackedArgs()\l+ SEqualReduce()\l+ SHashReduce()\l+ ListFieldInfo()\l+ ContentEqual()\l+ ContentHash()\l}">
<polygon fill="white" stroke="black" points="30.5,-182.5 30.5,-327.5 173.5,-327.5 173.5,-182.5 30.5,-182.5"/>
<text text-anchor="start" x="38.5" y="-315.5" font-family="Helvetica,sans-Serif" font-size="10.00">tvm::AttrsNode&lt; Proposal</text>
<text text-anchor="middle" x="102" y="-304.5" font-family="Helvetica,sans-Serif" font-size="10.00">Attrs &gt;</text>
<polyline fill="none" stroke="black" points="30.5,-297.5 173.5,-297.5 "/>
<text text-anchor="middle" x="102" y="-285.5" font-family="Helvetica,sans-Serif" font-size="10.00"> </text>
<polyline fill="none" stroke="black" points="30.5,-278.5 173.5,-278.5 "/>
<text text-anchor="start" x="38.5" y="-266.5" font-family="Helvetica,sans-Serif" font-size="10.00">+ VisitAttrs()</text>
<text text-anchor="start" x="38.5" y="-255.5" font-family="Helvetica,sans-Serif" font-size="10.00">+ VisitNonDefaultAttrs()</text>
<text text-anchor="start" x="38.5" y="-244.5" font-family="Helvetica,sans-Serif" font-size="10.00">+ InitByPackedArgs()</text>
<text text-anchor="start" x="38.5" y="-233.5" font-family="Helvetica,sans-Serif" font-size="10.00">+ SEqualReduce()</text>
<text text-anchor="start" x="38.5" y="-222.5" font-family="Helvetica,sans-Serif" font-size="10.00">+ SHashReduce()</text>
<text text-anchor="start" x="38.5" y="-211.5" font-family="Helvetica,sans-Serif" font-size="10.00">+ ListFieldInfo()</text>
<text text-anchor="start" x="38.5" y="-200.5" font-family="Helvetica,sans-Serif" font-size="10.00">+ ContentEqual()</text>
<text text-anchor="start" x="38.5" y="-189.5" font-family="Helvetica,sans-Serif" font-size="10.00">+ ContentHash()</text>
</a>
</g>
</g>
<!-- Node2&#45;&gt;Node1 -->
<g id="edge1" class="edge"><title>Node2&#45;&gt;Node1</title>
<path fill="none" stroke="midnightblue" d="M143.083,-173.272C153.437,-152.926 164.319,-131.543 173.873,-112.769"/>
<polygon fill="none" stroke="midnightblue" points="139.943,-171.725 138.527,-182.225 146.182,-174.9 139.943,-171.725"/>
</g>
<!-- Node3 -->
<g id="node3" class="node"><title>Node3</title>
<g id="a_node3"><a xlink:href="classtvm_1_1BaseAttrsNode.html" target="_top" xlink:title="Base class of all attribute class. ">
<polygon fill="white" stroke="black" points="0,-376.5 0,-576.5 204,-576.5 204,-376.5 0,-376.5"/>
<text text-anchor="middle" x="102" y="-564.5" font-family="Helvetica,sans-Serif" font-size="10.00">tvm::BaseAttrsNode</text>
<polyline fill="none" stroke="black" points="0,-557.5 204,-557.5 "/>
<text text-anchor="start" x="8" y="-545.5" font-family="Helvetica,sans-Serif" font-size="10.00">+ _type_has_method_sequal</text>
<text text-anchor="start" x="8" y="-534.5" font-family="Helvetica,sans-Serif" font-size="10.00">_reduce</text>
<text text-anchor="start" x="8" y="-523.5" font-family="Helvetica,sans-Serif" font-size="10.00">+ _type_has_method_shash</text>
<text text-anchor="start" x="8" y="-512.5" font-family="Helvetica,sans-Serif" font-size="10.00">_reduce</text>
<text text-anchor="start" x="8" y="-501.5" font-family="Helvetica,sans-Serif" font-size="10.00">+ _type_key</text>
<polyline fill="none" stroke="black" points="0,-494.5 204,-494.5 "/>
<text text-anchor="start" x="8" y="-482.5" font-family="Helvetica,sans-Serif" font-size="10.00">+ ~BaseAttrsNode()</text>
<text text-anchor="start" x="8" y="-471.5" font-family="Helvetica,sans-Serif" font-size="10.00">+ VisitAttrs()</text>
<text text-anchor="start" x="8" y="-460.5" font-family="Helvetica,sans-Serif" font-size="10.00">+ InitBySeq()</text>
<text text-anchor="start" x="8" y="-449.5" font-family="Helvetica,sans-Serif" font-size="10.00">+ PrintDocString()</text>
<text text-anchor="start" x="8" y="-438.5" font-family="Helvetica,sans-Serif" font-size="10.00">+ VisitNonDefaultAttrs()</text>
<text text-anchor="start" x="8" y="-427.5" font-family="Helvetica,sans-Serif" font-size="10.00">+ ListFieldInfo()</text>
<text text-anchor="start" x="8" y="-416.5" font-family="Helvetica,sans-Serif" font-size="10.00">+ InitByPackedArgs()</text>
<text text-anchor="start" x="8" y="-405.5" font-family="Helvetica,sans-Serif" font-size="10.00">+ ContentEqual()</text>
<text text-anchor="start" x="8" y="-394.5" font-family="Helvetica,sans-Serif" font-size="10.00">+ ContentHash()</text>
<text text-anchor="start" x="8" y="-383.5" font-family="Helvetica,sans-Serif" font-size="10.00">+ TVM_DECLARE_BASE_OBJECT_INFO()</text>
</a>
</g>
</g>
<!-- Node3&#45;&gt;Node2 -->
<g id="edge2" class="edge"><title>Node3&#45;&gt;Node2</title>
<path fill="none" stroke="midnightblue" d="M102,-365.965C102,-353.002 102,-340.035 102,-327.787"/>
<polygon fill="none" stroke="midnightblue" points="98.5001,-366.346 102,-376.346 105.5,-366.346 98.5001,-366.346"/>
</g>
<!-- Node4 -->
<g id="node4" class="node"><title>Node4</title>
<polygon fill="white" stroke="#bfbfbf" points="78.5,-614.5 78.5,-671.5 125.5,-671.5 125.5,-614.5 78.5,-614.5"/>
<text text-anchor="middle" x="102" y="-659.5" font-family="Helvetica,sans-Serif" font-size="10.00">Object</text>
<polyline fill="none" stroke="#bfbfbf" points="78.5,-652.5 125.5,-652.5 "/>
<text text-anchor="middle" x="102" y="-640.5" font-family="Helvetica,sans-Serif" font-size="10.00"> </text>
<polyline fill="none" stroke="#bfbfbf" points="78.5,-633.5 125.5,-633.5 "/>
<text text-anchor="middle" x="102" y="-621.5" font-family="Helvetica,sans-Serif" font-size="10.00"> </text>
</g>
<!-- Node4&#45;&gt;Node3 -->
<g id="edge3" class="edge"><title>Node4&#45;&gt;Node3</title>
<path fill="none" stroke="midnightblue" d="M102,-604.289C102,-595.841 102,-586.496 102,-576.821"/>
<polygon fill="none" stroke="midnightblue" points="98.5001,-604.466 102,-614.466 105.5,-604.466 98.5001,-604.466"/>
</g>
<!-- Node5 -->
<g id="node5" class="node"><title>Node5</title>
<g id="a_node5"><a xlink:href="classtvm_1_1Array.html" target="_top" xlink:title="{tvm::Array\&lt; tvm::PrimExpr \&gt;\n||+ Array()\l+ Array()\l+ Array()\l+ Array()\l+ Array()\l+ Array()\l+ Array()\l+ Array()\l+ operator=()\l+ operator=()\land 13 more...\l}">
<polygon fill="white" stroke="black" points="191.5,-171.5 191.5,-338.5 348.5,-338.5 348.5,-171.5 191.5,-171.5"/>
<text text-anchor="middle" x="270" y="-326.5" font-family="Helvetica,sans-Serif" font-size="10.00">tvm::Array&lt; tvm::PrimExpr &gt;</text>
<polyline fill="none" stroke="black" points="191.5,-319.5 348.5,-319.5 "/>
<text text-anchor="middle" x="270" y="-307.5" font-family="Helvetica,sans-Serif" font-size="10.00"> </text>
<polyline fill="none" stroke="black" points="191.5,-300.5 348.5,-300.5 "/>
<text text-anchor="start" x="199.5" y="-288.5" font-family="Helvetica,sans-Serif" font-size="10.00">+ Array()</text>
<text text-anchor="start" x="199.5" y="-277.5" font-family="Helvetica,sans-Serif" font-size="10.00">+ Array()</text>
<text text-anchor="start" x="199.5" y="-266.5" font-family="Helvetica,sans-Serif" font-size="10.00">+ Array()</text>
<text text-anchor="start" x="199.5" y="-255.5" font-family="Helvetica,sans-Serif" font-size="10.00">+ Array()</text>
<text text-anchor="start" x="199.5" y="-244.5" font-family="Helvetica,sans-Serif" font-size="10.00">+ Array()</text>
<text text-anchor="start" x="199.5" y="-233.5" font-family="Helvetica,sans-Serif" font-size="10.00">+ Array()</text>
<text text-anchor="start" x="199.5" y="-222.5" font-family="Helvetica,sans-Serif" font-size="10.00">+ Array()</text>
<text text-anchor="start" x="199.5" y="-211.5" font-family="Helvetica,sans-Serif" font-size="10.00">+ Array()</text>
<text text-anchor="start" x="199.5" y="-200.5" font-family="Helvetica,sans-Serif" font-size="10.00">+ operator=()</text>
<text text-anchor="start" x="199.5" y="-189.5" font-family="Helvetica,sans-Serif" font-size="10.00">+ operator=()</text>
<text text-anchor="start" x="199.5" y="-178.5" font-family="Helvetica,sans-Serif" font-size="10.00">and 13 more...</text>
</a>
</g>
</g>
<!-- Node5&#45;&gt;Node1 -->
<g id="edge4" class="edge"><title>Node5&#45;&gt;Node1</title>
<path fill="none" stroke="#404040" d="M241.359,-171.236C235.892,-155.439 230.236,-139.094 224.975,-123.891"/>
<polygon fill="none" stroke="#404040" points="224.963,-123.855 219.22,-119.493 221.038,-112.515 226.78,-116.877 224.963,-123.855"/>
<text text-anchor="middle" x="255" y="-145" font-family="Helvetica,sans-Serif" font-size="10.00"> +scales</text>
<text text-anchor="middle" x="255" y="-134" font-family="Helvetica,sans-Serif" font-size="10.00">+ratios</text>
</g>
<!-- Node6 -->
<g id="node6" class="node"><title>Node6</title>
<polygon fill="white" stroke="#bfbfbf" points="239,-448 239,-505 301,-505 301,-448 239,-448"/>
<text text-anchor="middle" x="270" y="-493" font-family="Helvetica,sans-Serif" font-size="10.00">ObjectRef</text>
<polyline fill="none" stroke="#bfbfbf" points="239,-486 301,-486 "/>
<text text-anchor="middle" x="270" y="-474" font-family="Helvetica,sans-Serif" font-size="10.00"> </text>
<polyline fill="none" stroke="#bfbfbf" points="239,-467 301,-467 "/>
<text text-anchor="middle" x="270" y="-455" font-family="Helvetica,sans-Serif" font-size="10.00"> </text>
</g>
<!-- Node6&#45;&gt;Node5 -->
<g id="edge5" class="edge"><title>Node6&#45;&gt;Node5</title>
<path fill="none" stroke="midnightblue" d="M270,-437.472C270,-410.322 270,-372.754 270,-338.839"/>
<polygon fill="none" stroke="midnightblue" points="266.5,-437.7 270,-447.7 273.5,-437.7 266.5,-437.7"/>
</g>
</g>
</svg>
