<?xml version="1.0" encoding="UTF-8" standalone="no"?>
<!DOCTYPE svg PUBLIC "-//W3C//DTD SVG 1.1//EN"
 "http://www.w3.org/Graphics/SVG/1.1/DTD/svg11.dtd">
<!-- Generated by graphviz version 2.38.0 (20140413.2041)
 -->
<!-- Title: tvm::relay::Conv2DWinogradAttrs Pages: 1 -->
<svg width="212pt" height="700pt"
 viewBox="0.00 0.00 212.00 700.00" xmlns="http://www.w3.org/2000/svg" xmlns:xlink="http://www.w3.org/1999/xlink">
<g id="graph0" class="graph" transform="scale(1 1) rotate(0) translate(4 696)">
<title>tvm::relay::Conv2DWinogradAttrs</title>
<polygon fill="white" stroke="none" points="-4,4 -4,-696 208,-696 208,4 -4,4"/>
<!-- Node1 -->
<g id="node1" class="node"><title>Node1</title>
<polygon fill="#bfbfbf" stroke="black" points="26,-0.5 26,-178.5 178,-178.5 178,-0.5 26,-0.5"/>
<text text-anchor="start" x="34" y="-166.5" font-family="Helvetica,sans-Serif" font-size="10.00">tvm::relay::Conv2DWinograd</text>
<text text-anchor="middle" x="102" y="-155.5" font-family="Helvetica,sans-Serif" font-size="10.00">Attrs</text>
<polyline fill="none" stroke="black" points="26,-148.5 178,-148.5 "/>
<text text-anchor="start" x="34" y="-136.5" font-family="Helvetica,sans-Serif" font-size="10.00">+ tile_size</text>
<text text-anchor="start" x="34" y="-125.5" font-family="Helvetica,sans-Serif" font-size="10.00">+ strides</text>
<text text-anchor="start" x="34" y="-114.5" font-family="Helvetica,sans-Serif" font-size="10.00">+ padding</text>
<text text-anchor="start" x="34" y="-103.5" font-family="Helvetica,sans-Serif" font-size="10.00">+ dilation</text>
<text text-anchor="start" x="34" y="-92.5" font-family="Helvetica,sans-Serif" font-size="10.00">+ groups</text>
<text text-anchor="start" x="34" y="-81.5" font-family="Helvetica,sans-Serif" font-size="10.00">+ channels</text>
<text text-anchor="start" x="34" y="-70.5" font-family="Helvetica,sans-Serif" font-size="10.00">+ kernel_size</text>
<text text-anchor="start" x="34" y="-59.5" font-family="Helvetica,sans-Serif" font-size="10.00">+ data_layout</text>
<text text-anchor="start" x="34" y="-48.5" font-family="Helvetica,sans-Serif" font-size="10.00">+ kernel_layout</text>
<text text-anchor="start" x="34" y="-37.5" font-family="Helvetica,sans-Serif" font-size="10.00">+ out_layout</text>
<text text-anchor="start" x="34" y="-26.5" font-family="Helvetica,sans-Serif" font-size="10.00">+ out_dtype</text>
<polyline fill="none" stroke="black" points="26,-19.5 178,-19.5 "/>
<text text-anchor="start" x="34" y="-7.5" font-family="Helvetica,sans-Serif" font-size="10.00">+ TVM_DECLARE_ATTRS()</text>
</g>
<!-- Node2 -->
<g id="node2" class="node"><title>Node2</title>
<g id="a_node2"><a xlink:href="classtvm_1_1AttrsNode.html" target="_top" xlink:title="{tvm::AttrsNode\&lt; Conv2DWinograd\lAttrs \&gt;\n||+ VisitAttrs()\l+ VisitNonDefaultAttrs()\l+ InitByPackedArgs()\l+ SEqualReduce()\l+ SHashReduce()\l+ ListFieldInfo()\l+ ContentEqual()\l+ ContentHash()\l}">
<polygon fill="white" stroke="black" points="10.5,-215.5 10.5,-360.5 193.5,-360.5 193.5,-215.5 10.5,-215.5"/>
<text text-anchor="start" x="18.5" y="-348.5" font-family="Helvetica,sans-Serif" font-size="10.00">tvm::AttrsNode&lt; Conv2DWinograd</text>
<text text-anchor="middle" x="102" y="-337.5" font-family="Helvetica,sans-Serif" font-size="10.00">Attrs &gt;</text>
<polyline fill="none" stroke="black" points="10.5,-330.5 193.5,-330.5 "/>
<text text-anchor="middle" x="102" y="-318.5" font-family="Helvetica,sans-Serif" font-size="10.00"> </text>
<polyline fill="none" stroke="black" points="10.5,-311.5 193.5,-311.5 "/>
<text text-anchor="start" x="18.5" y="-299.5" font-family="Helvetica,sans-Serif" font-size="10.00">+ VisitAttrs()</text>
<text text-anchor="start" x="18.5" y="-288.5" font-family="Helvetica,sans-Serif" font-size="10.00">+ VisitNonDefaultAttrs()</text>
<text text-anchor="start" x="18.5" y="-277.5" font-family="Helvetica,sans-Serif" font-size="10.00">+ InitByPackedArgs()</text>
<text text-anchor="start" x="18.5" y="-266.5" font-family="Helvetica,sans-Serif" font-size="10.00">+ SEqualReduce()</text>
<text text-anchor="start" x="18.5" y="-255.5" font-family="Helvetica,sans-Serif" font-size="10.00">+ SHashReduce()</text>
<text text-anchor="start" x="18.5" y="-244.5" font-family="Helvetica,sans-Serif" font-size="10.00">+ ListFieldInfo()</text>
<text text-anchor="start" x="18.5" y="-233.5" font-family="Helvetica,sans-Serif" font-size="10.00">+ ContentEqual()</text>
<text text-anchor="start" x="18.5" y="-222.5" font-family="Helvetica,sans-Serif" font-size="10.00">+ ContentHash()</text>
</a>
</g>
</g>
<!-- Node2&#45;&gt;Node1 -->
<g id="edge1" class="edge"><title>Node2&#45;&gt;Node1</title>
<path fill="none" stroke="midnightblue" d="M102,-205.12C102,-196.429 102,-187.561 102,-178.801"/>
<polygon fill="none" stroke="midnightblue" points="98.5001,-205.225 102,-215.225 105.5,-205.225 98.5001,-205.225"/>
</g>
<!-- Node3 -->
<g id="node3" class="node"><title>Node3</title>
<g id="a_node3"><a xlink:href="classtvm_1_1BaseAttrsNode.html" target="_top" xlink:title="Base class of all attribute class. ">
<polygon fill="white" stroke="black" points="-1.42109e-14,-397.5 -1.42109e-14,-597.5 204,-597.5 204,-397.5 -1.42109e-14,-397.5"/>
<text text-anchor="middle" x="102" y="-585.5" font-family="Helvetica,sans-Serif" font-size="10.00">tvm::BaseAttrsNode</text>
<polyline fill="none" stroke="black" points="-1.42109e-14,-578.5 204,-578.5 "/>
<text text-anchor="start" x="8" y="-566.5" font-family="Helvetica,sans-Serif" font-size="10.00">+ _type_has_method_sequal</text>
<text text-anchor="start" x="8" y="-555.5" font-family="Helvetica,sans-Serif" font-size="10.00">_reduce</text>
<text text-anchor="start" x="8" y="-544.5" font-family="Helvetica,sans-Serif" font-size="10.00">+ _type_has_method_shash</text>
<text text-anchor="start" x="8" y="-533.5" font-family="Helvetica,sans-Serif" font-size="10.00">_reduce</text>
<text text-anchor="start" x="8" y="-522.5" font-family="Helvetica,sans-Serif" font-size="10.00">+ _type_key</text>
<polyline fill="none" stroke="black" points="-1.42109e-14,-515.5 204,-515.5 "/>
<text text-anchor="start" x="8" y="-503.5" font-family="Helvetica,sans-Serif" font-size="10.00">+ ~BaseAttrsNode()</text>
<text text-anchor="start" x="8" y="-492.5" font-family="Helvetica,sans-Serif" font-size="10.00">+ VisitAttrs()</text>
<text text-anchor="start" x="8" y="-481.5" font-family="Helvetica,sans-Serif" font-size="10.00">+ InitBySeq()</text>
<text text-anchor="start" x="8" y="-470.5" font-family="Helvetica,sans-Serif" font-size="10.00">+ PrintDocString()</text>
<text text-anchor="start" x="8" y="-459.5" font-family="Helvetica,sans-Serif" font-size="10.00">+ VisitNonDefaultAttrs()</text>
<text text-anchor="start" x="8" y="-448.5" font-family="Helvetica,sans-Serif" font-size="10.00">+ ListFieldInfo()</text>
<text text-anchor="start" x="8" y="-437.5" font-family="Helvetica,sans-Serif" font-size="10.00">+ InitByPackedArgs()</text>
<text text-anchor="start" x="8" y="-426.5" font-family="Helvetica,sans-Serif" font-size="10.00">+ ContentEqual()</text>
<text text-anchor="start" x="8" y="-415.5" font-family="Helvetica,sans-Serif" font-size="10.00">+ ContentHash()</text>
<text text-anchor="start" x="8" y="-404.5" font-family="Helvetica,sans-Serif" font-size="10.00">+ TVM_DECLARE_BASE_OBJECT_INFO()</text>
</a>
</g>
</g>
<!-- Node3&#45;&gt;Node2 -->
<g id="edge2" class="edge"><title>Node3&#45;&gt;Node2</title>
<path fill="none" stroke="midnightblue" d="M102,-387.132C102,-378.127 102,-369.178 102,-360.559"/>
<polygon fill="none" stroke="midnightblue" points="98.5001,-387.308 102,-397.308 105.5,-387.308 98.5001,-387.308"/>
</g>
<!-- Node4 -->
<g id="node4" class="node"><title>Node4</title>
<polygon fill="white" stroke="#bfbfbf" points="78.5,-634.5 78.5,-691.5 125.5,-691.5 125.5,-634.5 78.5,-634.5"/>
<text text-anchor="middle" x="102" y="-679.5" font-family="Helvetica,sans-Serif" font-size="10.00">Object</text>
<polyline fill="none" stroke="#bfbfbf" points="78.5,-672.5 125.5,-672.5 "/>
<text text-anchor="middle" x="102" y="-660.5" font-family="Helvetica,sans-Serif" font-size="10.00"> </text>
<polyline fill="none" stroke="#bfbfbf" points="78.5,-653.5 125.5,-653.5 "/>
<text text-anchor="middle" x="102" y="-641.5" font-family="Helvetica,sans-Serif" font-size="10.00"> </text>
</g>
<!-- Node4&#45;&gt;Node3 -->
<g id="edge3" class="edge"><title>Node4&#45;&gt;Node3</title>
<path fill="none" stroke="midnightblue" d="M102,-624.04C102,-615.867 102,-606.865 102,-597.549"/>
<polygon fill="none" stroke="midnightblue" points="98.5001,-624.264 102,-634.264 105.5,-624.264 98.5001,-624.264"/>
</g>
</g>
</svg>
