<?xml version="1.0" encoding="UTF-8" standalone="no"?>
<!DOCTYPE svg PUBLIC "-//W3C//DTD SVG 1.1//EN"
 "http://www.w3.org/Graphics/SVG/1.1/DTD/svg11.dtd">
<!-- Generated by graphviz version 2.38.0 (20140413.2041)
 -->
<!-- Title: tvm::relay::DenseAttrs Pages: 1 -->
<svg width="524pt" height="680pt"
 viewBox="0.00 0.00 523.50 680.00" xmlns="http://www.w3.org/2000/svg" xmlns:xlink="http://www.w3.org/1999/xlink">
<g id="graph0" class="graph" transform="scale(1 1) rotate(0) translate(4 676)">
<title>tvm::relay::DenseAttrs</title>
<polygon fill="white" stroke="none" points="-4,4 -4,-676 519.5,-676 519.5,4 -4,4"/>
<!-- Node1 -->
<g id="node1" class="node"><title>Node1</title>
<polygon fill="#bfbfbf" stroke="black" points="223,-0.5 223,-57.5 363,-57.5 363,-0.5 223,-0.5"/>
<text text-anchor="middle" x="293" y="-45.5" font-family="Helvetica,sans-Serif" font-size="10.00">tvm::relay::DenseAttrs</text>
<polyline fill="none" stroke="black" points="223,-38.5 363,-38.5 "/>
<text text-anchor="middle" x="293" y="-26.5" font-family="Helvetica,sans-Serif" font-size="10.00"> </text>
<polyline fill="none" stroke="black" points="223,-19.5 363,-19.5 "/>
<text text-anchor="start" x="231" y="-7.5" font-family="Helvetica,sans-Serif" font-size="10.00">+ TVM_DECLARE_ATTRS()</text>
</g>
<!-- Node2 -->
<g id="node2" class="node"><title>Node2</title>
<g id="a_node2"><a xlink:href="classtvm_1_1AttrsNode.html" target="_top" xlink:title="{tvm::AttrsNode\&lt; DenseAttrs \&gt;\n||+ VisitAttrs()\l+ VisitNonDefaultAttrs()\l+ InitByPackedArgs()\l+ SEqualReduce()\l+ SHashReduce()\l+ ListFieldInfo()\l+ ContentEqual()\l+ ContentHash()\l}">
<polygon fill="white" stroke="black" points="24.5,-155 24.5,-289 191.5,-289 191.5,-155 24.5,-155"/>
<text text-anchor="middle" x="108" y="-277" font-family="Helvetica,sans-Serif" font-size="10.00">tvm::AttrsNode&lt; DenseAttrs &gt;</text>
<polyline fill="none" stroke="black" points="24.5,-270 191.5,-270 "/>
<text text-anchor="middle" x="108" y="-258" font-family="Helvetica,sans-Serif" font-size="10.00"> </text>
<polyline fill="none" stroke="black" points="24.5,-251 191.5,-251 "/>
<text text-anchor="start" x="32.5" y="-239" font-family="Helvetica,sans-Serif" font-size="10.00">+ VisitAttrs()</text>
<text text-anchor="start" x="32.5" y="-228" font-family="Helvetica,sans-Serif" font-size="10.00">+ VisitNonDefaultAttrs()</text>
<text text-anchor="start" x="32.5" y="-217" font-family="Helvetica,sans-Serif" font-size="10.00">+ InitByPackedArgs()</text>
<text text-anchor="start" x="32.5" y="-206" font-family="Helvetica,sans-Serif" font-size="10.00">+ SEqualReduce()</text>
<text text-anchor="start" x="32.5" y="-195" font-family="Helvetica,sans-Serif" font-size="10.00">+ SHashReduce()</text>
<text text-anchor="start" x="32.5" y="-184" font-family="Helvetica,sans-Serif" font-size="10.00">+ ListFieldInfo()</text>
<text text-anchor="start" x="32.5" y="-173" font-family="Helvetica,sans-Serif" font-size="10.00">+ ContentEqual()</text>
<text text-anchor="start" x="32.5" y="-162" font-family="Helvetica,sans-Serif" font-size="10.00">+ ContentHash()</text>
</a>
</g>
</g>
<!-- Node2&#45;&gt;Node1 -->
<g id="edge1" class="edge"><title>Node2&#45;&gt;Node1</title>
<path fill="none" stroke="midnightblue" d="M169.887,-147.098C182.513,-132.835 195.939,-118.225 209,-105 225.21,-88.5861 244.324,-71.369 260.22,-57.5765"/>
<polygon fill="none" stroke="midnightblue" points="166.935,-145.154 162.962,-154.976 172.193,-149.776 166.935,-145.154"/>
</g>
<!-- Node3 -->
<g id="node3" class="node"><title>Node3</title>
<g id="a_node3"><a xlink:href="classtvm_1_1BaseAttrsNode.html" target="_top" xlink:title="Base class of all attribute class. ">
<polygon fill="white" stroke="black" points="0,-376.5 0,-576.5 204,-576.5 204,-376.5 0,-376.5"/>
<text text-anchor="middle" x="102" y="-564.5" font-family="Helvetica,sans-Serif" font-size="10.00">tvm::BaseAttrsNode</text>
<polyline fill="none" stroke="black" points="0,-557.5 204,-557.5 "/>
<text text-anchor="start" x="8" y="-545.5" font-family="Helvetica,sans-Serif" font-size="10.00">+ _type_has_method_sequal</text>
<text text-anchor="start" x="8" y="-534.5" font-family="Helvetica,sans-Serif" font-size="10.00">_reduce</text>
<text text-anchor="start" x="8" y="-523.5" font-family="Helvetica,sans-Serif" font-size="10.00">+ _type_has_method_shash</text>
<text text-anchor="start" x="8" y="-512.5" font-family="Helvetica,sans-Serif" font-size="10.00">_reduce</text>
<text text-anchor="start" x="8" y="-501.5" font-family="Helvetica,sans-Serif" font-size="10.00">+ _type_key</text>
<polyline fill="none" stroke="black" points="0,-494.5 204,-494.5 "/>
<text text-anchor="start" x="8" y="-482.5" font-family="Helvetica,sans-Serif" font-size="10.00">+ ~BaseAttrsNode()</text>
<text text-anchor="start" x="8" y="-471.5" font-family="Helvetica,sans-Serif" font-size="10.00">+ VisitAttrs()</text>
<text text-anchor="start" x="8" y="-460.5" font-family="Helvetica,sans-Serif" font-size="10.00">+ InitBySeq()</text>
<text text-anchor="start" x="8" y="-449.5" font-family="Helvetica,sans-Serif" font-size="10.00">+ PrintDocString()</text>
<text text-anchor="start" x="8" y="-438.5" font-family="Helvetica,sans-Serif" font-size="10.00">+ VisitNonDefaultAttrs()</text>
<text text-anchor="start" x="8" y="-427.5" font-family="Helvetica,sans-Serif" font-size="10.00">+ ListFieldInfo()</text>
<text text-anchor="start" x="8" y="-416.5" font-family="Helvetica,sans-Serif" font-size="10.00">+ InitByPackedArgs()</text>
<text text-anchor="start" x="8" y="-405.5" font-family="Helvetica,sans-Serif" font-size="10.00">+ ContentEqual()</text>
<text text-anchor="start" x="8" y="-394.5" font-family="Helvetica,sans-Serif" font-size="10.00">+ ContentHash()</text>
<text text-anchor="start" x="8" y="-383.5" font-family="Helvetica,sans-Serif" font-size="10.00">+ TVM_DECLARE_BASE_OBJECT_INFO()</text>
</a>
</g>
</g>
<!-- Node3&#45;&gt;Node2 -->
<g id="edge2" class="edge"><title>Node3&#45;&gt;Node2</title>
<path fill="none" stroke="midnightblue" d="M104.592,-366.407C105.217,-340.099 105.867,-312.779 106.429,-289.13"/>
<polygon fill="none" stroke="midnightblue" points="101.093,-366.35 104.354,-376.43 108.091,-366.516 101.093,-366.35"/>
</g>
<!-- Node4 -->
<g id="node4" class="node"><title>Node4</title>
<polygon fill="white" stroke="#bfbfbf" points="78.5,-614.5 78.5,-671.5 125.5,-671.5 125.5,-614.5 78.5,-614.5"/>
<text text-anchor="middle" x="102" y="-659.5" font-family="Helvetica,sans-Serif" font-size="10.00">Object</text>
<polyline fill="none" stroke="#bfbfbf" points="78.5,-652.5 125.5,-652.5 "/>
<text text-anchor="middle" x="102" y="-640.5" font-family="Helvetica,sans-Serif" font-size="10.00"> </text>
<polyline fill="none" stroke="#bfbfbf" points="78.5,-633.5 125.5,-633.5 "/>
<text text-anchor="middle" x="102" y="-621.5" font-family="Helvetica,sans-Serif" font-size="10.00"> </text>
</g>
<!-- Node4&#45;&gt;Node3 -->
<g id="edge3" class="edge"><title>Node4&#45;&gt;Node3</title>
<path fill="none" stroke="midnightblue" d="M102,-604.289C102,-595.841 102,-586.496 102,-576.821"/>
<polygon fill="none" stroke="midnightblue" points="98.5001,-604.466 102,-614.466 105.5,-604.466 98.5001,-604.466"/>
</g>
<!-- Node5 -->
<g id="node5" class="node"><title>Node5</title>
<g id="a_node5"><a xlink:href="classtvm_1_1PrimExpr.html" target="_top" xlink:title="Reference to PrimExprNode. ">
<polygon fill="white" stroke="black" points="218,-166 218,-278 368,-278 368,-166 218,-166"/>
<text text-anchor="middle" x="293" y="-266" font-family="Helvetica,sans-Serif" font-size="10.00">tvm::PrimExpr</text>
<polyline fill="none" stroke="black" points="218,-259 368,-259 "/>
<text text-anchor="middle" x="293" y="-247" font-family="Helvetica,sans-Serif" font-size="10.00"> </text>
<polyline fill="none" stroke="black" points="218,-240 368,-240 "/>
<text text-anchor="start" x="226" y="-228" font-family="Helvetica,sans-Serif" font-size="10.00">+ PrimExpr()</text>
<text text-anchor="start" x="226" y="-217" font-family="Helvetica,sans-Serif" font-size="10.00">+ PrimExpr()</text>
<text text-anchor="start" x="226" y="-206" font-family="Helvetica,sans-Serif" font-size="10.00">+ PrimExpr()</text>
<text text-anchor="start" x="226" y="-195" font-family="Helvetica,sans-Serif" font-size="10.00">+ dtype()</text>
<text text-anchor="start" x="226" y="-184" font-family="Helvetica,sans-Serif" font-size="10.00">+ TVM_DEFINE_OBJECT_REF</text>
<text text-anchor="start" x="226" y="-173" font-family="Helvetica,sans-Serif" font-size="10.00">_METHODS()</text>
</a>
</g>
</g>
<!-- Node5&#45;&gt;Node1 -->
<g id="edge4" class="edge"><title>Node5&#45;&gt;Node1</title>
<path fill="none" stroke="#404040" d="M293,-165.755C293,-134.99 293,-97.4036 293,-69.5868"/>
<polygon fill="none" stroke="#404040" points="293,-69.5531 289,-63.5532 293,-57.5531 297,-63.5531 293,-69.5531"/>
<text text-anchor="middle" x="310.5" y="-79" font-family="Helvetica,sans-Serif" font-size="10.00"> +units</text>
</g>
<!-- Node6 -->
<g id="node6" class="node"><title>Node6</title>
<g id="a_node6"><a xlink:href="classtvm_1_1BaseExpr.html" target="_top" xlink:title="Managed reference to BaseExprNode. ">
<polygon fill="white" stroke="black" points="222,-442.5 222,-510.5 372,-510.5 372,-442.5 222,-442.5"/>
<text text-anchor="middle" x="297" y="-498.5" font-family="Helvetica,sans-Serif" font-size="10.00">tvm::BaseExpr</text>
<polyline fill="none" stroke="black" points="222,-491.5 372,-491.5 "/>
<text text-anchor="middle" x="297" y="-479.5" font-family="Helvetica,sans-Serif" font-size="10.00"> </text>
<polyline fill="none" stroke="black" points="222,-472.5 372,-472.5 "/>
<text text-anchor="start" x="230" y="-460.5" font-family="Helvetica,sans-Serif" font-size="10.00">+ TVM_DEFINE_OBJECT_REF</text>
<text text-anchor="start" x="230" y="-449.5" font-family="Helvetica,sans-Serif" font-size="10.00">_METHODS()</text>
</a>
</g>
</g>
<!-- Node6&#45;&gt;Node5 -->
<g id="edge5" class="edge"><title>Node6&#45;&gt;Node5</title>
<path fill="none" stroke="midnightblue" d="M296.318,-432.449C295.644,-389.884 294.609,-324.578 293.875,-278.217"/>
<polygon fill="none" stroke="midnightblue" points="292.819,-432.547 296.477,-442.49 299.818,-432.436 292.819,-432.547"/>
</g>
<!-- Node7 -->
<g id="node7" class="node"><title>Node7</title>
<polygon fill="white" stroke="#bfbfbf" points="266,-614.5 266,-671.5 328,-671.5 328,-614.5 266,-614.5"/>
<text text-anchor="middle" x="297" y="-659.5" font-family="Helvetica,sans-Serif" font-size="10.00">ObjectRef</text>
<polyline fill="none" stroke="#bfbfbf" points="266,-652.5 328,-652.5 "/>
<text text-anchor="middle" x="297" y="-640.5" font-family="Helvetica,sans-Serif" font-size="10.00"> </text>
<polyline fill="none" stroke="#bfbfbf" points="266,-633.5 328,-633.5 "/>
<text text-anchor="middle" x="297" y="-621.5" font-family="Helvetica,sans-Serif" font-size="10.00"> </text>
</g>
<!-- Node7&#45;&gt;Node6 -->
<g id="edge6" class="edge"><title>Node7&#45;&gt;Node6</title>
<path fill="none" stroke="midnightblue" d="M297,-604.159C297,-575.869 297,-537.569 297,-510.515"/>
<polygon fill="none" stroke="midnightblue" points="293.5,-604.466 297,-614.466 300.5,-604.466 293.5,-604.466"/>
</g>
<!-- Node8 -->
<g id="node8" class="node"><title>Node8</title>
<g id="a_node8"><a xlink:href="classtvm_1_1runtime_1_1DataType.html" target="_top" xlink:title="Runtime primitive data type. ">
<polygon fill="white" stroke="black" points="386.5,-105.5 386.5,-338.5 515.5,-338.5 515.5,-105.5 386.5,-105.5"/>
<text text-anchor="middle" x="451" y="-326.5" font-family="Helvetica,sans-Serif" font-size="10.00">tvm::runtime::DataType</text>
<polyline fill="none" stroke="black" points="386.5,-319.5 515.5,-319.5 "/>
<text text-anchor="middle" x="451" y="-307.5" font-family="Helvetica,sans-Serif" font-size="10.00"> </text>
<polyline fill="none" stroke="black" points="386.5,-300.5 515.5,-300.5 "/>
<text text-anchor="start" x="394.5" y="-288.5" font-family="Helvetica,sans-Serif" font-size="10.00">+ DataType()</text>
<text text-anchor="start" x="394.5" y="-277.5" font-family="Helvetica,sans-Serif" font-size="10.00">+ DataType()</text>
<text text-anchor="start" x="394.5" y="-266.5" font-family="Helvetica,sans-Serif" font-size="10.00">+ DataType()</text>
<text text-anchor="start" x="394.5" y="-255.5" font-family="Helvetica,sans-Serif" font-size="10.00">+ code()</text>
<text text-anchor="start" x="394.5" y="-244.5" font-family="Helvetica,sans-Serif" font-size="10.00">+ bits()</text>
<text text-anchor="start" x="394.5" y="-233.5" font-family="Helvetica,sans-Serif" font-size="10.00">+ bytes()</text>
<text text-anchor="start" x="394.5" y="-222.5" font-family="Helvetica,sans-Serif" font-size="10.00">+ lanes()</text>
<text text-anchor="start" x="394.5" y="-211.5" font-family="Helvetica,sans-Serif" font-size="10.00">+ is_scalar()</text>
<text text-anchor="start" x="394.5" y="-200.5" font-family="Helvetica,sans-Serif" font-size="10.00">+ is_bool()</text>
<text text-anchor="start" x="394.5" y="-189.5" font-family="Helvetica,sans-Serif" font-size="10.00">+ is_float()</text>
<text text-anchor="start" x="394.5" y="-178.5" font-family="Helvetica,sans-Serif" font-size="10.00">and 12 more...</text>
<text text-anchor="start" x="394.5" y="-167.5" font-family="Helvetica,sans-Serif" font-size="10.00">+ Int()</text>
<text text-anchor="start" x="394.5" y="-156.5" font-family="Helvetica,sans-Serif" font-size="10.00">+ UInt()</text>
<text text-anchor="start" x="394.5" y="-145.5" font-family="Helvetica,sans-Serif" font-size="10.00">+ Float()</text>
<text text-anchor="start" x="394.5" y="-134.5" font-family="Helvetica,sans-Serif" font-size="10.00">+ Bool()</text>
<text text-anchor="start" x="394.5" y="-123.5" font-family="Helvetica,sans-Serif" font-size="10.00">+ Handle()</text>
<text text-anchor="start" x="394.5" y="-112.5" font-family="Helvetica,sans-Serif" font-size="10.00">+ ShapeIndex()</text>
</a>
</g>
</g>
<!-- Node8&#45;&gt;Node1 -->
<g id="edge7" class="edge"><title>Node8&#45;&gt;Node1</title>
<path fill="none" stroke="#404040" d="M386.403,-116.582C383.312,-112.606 380.173,-108.73 377,-105 365.164,-91.0861 350.777,-77.3377 337.279,-65.4877"/>
<polygon fill="none" stroke="#404040" points="337.216,-65.4335 330.059,-64.5535 328.119,-57.6083 335.276,-58.4884 337.216,-65.4335"/>
<text text-anchor="middle" x="391" y="-79" font-family="Helvetica,sans-Serif" font-size="10.00"> +out_dtype</text>
</g>
</g>
</svg>
