<?xml version="1.0" encoding="UTF-8" standalone="no"?>
<!DOCTYPE svg PUBLIC "-//W3C//DTD SVG 1.1//EN"
 "http://www.w3.org/Graphics/SVG/1.1/DTD/svg11.dtd">
<!-- Generated by graphviz version 2.38.0 (20140413.2041)
 -->
<!-- Title: tvm::relay::BinaryConv2DAttrs Pages: 1 -->
<svg width="212pt" height="689pt"
 viewBox="0.00 0.00 212.00 689.00" xmlns="http://www.w3.org/2000/svg" xmlns:xlink="http://www.w3.org/1999/xlink">
<g id="graph0" class="graph" transform="scale(1 1) rotate(0) translate(4 685)">
<title>tvm::relay::BinaryConv2DAttrs</title>
<polygon fill="white" stroke="none" points="-4,4 -4,-685 208,-685 208,4 -4,4"/>
<!-- Node1 -->
<g id="node1" class="node"><title>Node1</title>
<polygon fill="#bfbfbf" stroke="black" points="21.5,-0.5 21.5,-167.5 182.5,-167.5 182.5,-0.5 21.5,-0.5"/>
<text text-anchor="middle" x="102" y="-155.5" font-family="Helvetica,sans-Serif" font-size="10.00">tvm::relay::BinaryConv2DAttrs</text>
<polyline fill="none" stroke="black" points="21.5,-148.5 182.5,-148.5 "/>
<text text-anchor="start" x="29.5" y="-136.5" font-family="Helvetica,sans-Serif" font-size="10.00">+ strides</text>
<text text-anchor="start" x="29.5" y="-125.5" font-family="Helvetica,sans-Serif" font-size="10.00">+ padding</text>
<text text-anchor="start" x="29.5" y="-114.5" font-family="Helvetica,sans-Serif" font-size="10.00">+ channels</text>
<text text-anchor="start" x="29.5" y="-103.5" font-family="Helvetica,sans-Serif" font-size="10.00">+ kernel_size</text>
<text text-anchor="start" x="29.5" y="-92.5" font-family="Helvetica,sans-Serif" font-size="10.00">+ activation_bits</text>
<text text-anchor="start" x="29.5" y="-81.5" font-family="Helvetica,sans-Serif" font-size="10.00">+ weight_bits</text>
<text text-anchor="start" x="29.5" y="-70.5" font-family="Helvetica,sans-Serif" font-size="10.00">+ data_layout</text>
<text text-anchor="start" x="29.5" y="-59.5" font-family="Helvetica,sans-Serif" font-size="10.00">+ kernel_layout</text>
<text text-anchor="start" x="29.5" y="-48.5" font-family="Helvetica,sans-Serif" font-size="10.00">+ pack_dtype</text>
<text text-anchor="start" x="29.5" y="-37.5" font-family="Helvetica,sans-Serif" font-size="10.00">+ out_dtype</text>
<text text-anchor="start" x="29.5" y="-26.5" font-family="Helvetica,sans-Serif" font-size="10.00">+ unipolar</text>
<polyline fill="none" stroke="black" points="21.5,-19.5 182.5,-19.5 "/>
<text text-anchor="start" x="29.5" y="-7.5" font-family="Helvetica,sans-Serif" font-size="10.00">+ TVM_DECLARE_ATTRS()</text>
</g>
<!-- Node2 -->
<g id="node2" class="node"><title>Node2</title>
<g id="a_node2"><a xlink:href="classtvm_1_1AttrsNode.html" target="_top" xlink:title="{tvm::AttrsNode\&lt; BinaryConv2\lDAttrs \&gt;\n||+ VisitAttrs()\l+ VisitNonDefaultAttrs()\l+ InitByPackedArgs()\l+ SEqualReduce()\l+ SHashReduce()\l+ ListFieldInfo()\l+ ContentEqual()\l+ ContentHash()\l}">
<polygon fill="white" stroke="black" points="21.5,-204.5 21.5,-349.5 182.5,-349.5 182.5,-204.5 21.5,-204.5"/>
<text text-anchor="start" x="29.5" y="-337.5" font-family="Helvetica,sans-Serif" font-size="10.00">tvm::AttrsNode&lt; BinaryConv2</text>
<text text-anchor="middle" x="102" y="-326.5" font-family="Helvetica,sans-Serif" font-size="10.00">DAttrs &gt;</text>
<polyline fill="none" stroke="black" points="21.5,-319.5 182.5,-319.5 "/>
<text text-anchor="middle" x="102" y="-307.5" font-family="Helvetica,sans-Serif" font-size="10.00"> </text>
<polyline fill="none" stroke="black" points="21.5,-300.5 182.5,-300.5 "/>
<text text-anchor="start" x="29.5" y="-288.5" font-family="Helvetica,sans-Serif" font-size="10.00">+ VisitAttrs()</text>
<text text-anchor="start" x="29.5" y="-277.5" font-family="Helvetica,sans-Serif" font-size="10.00">+ VisitNonDefaultAttrs()</text>
<text text-anchor="start" x="29.5" y="-266.5" font-family="Helvetica,sans-Serif" font-size="10.00">+ InitByPackedArgs()</text>
<text text-anchor="start" x="29.5" y="-255.5" font-family="Helvetica,sans-Serif" font-size="10.00">+ SEqualReduce()</text>
<text text-anchor="start" x="29.5" y="-244.5" font-family="Helvetica,sans-Serif" font-size="10.00">+ SHashReduce()</text>
<text text-anchor="start" x="29.5" y="-233.5" font-family="Helvetica,sans-Serif" font-size="10.00">+ ListFieldInfo()</text>
<text text-anchor="start" x="29.5" y="-222.5" font-family="Helvetica,sans-Serif" font-size="10.00">+ ContentEqual()</text>
<text text-anchor="start" x="29.5" y="-211.5" font-family="Helvetica,sans-Serif" font-size="10.00">+ ContentHash()</text>
</a>
</g>
</g>
<!-- Node2&#45;&gt;Node1 -->
<g id="edge1" class="edge"><title>Node2&#45;&gt;Node1</title>
<path fill="none" stroke="midnightblue" d="M102,-194.134C102,-185.368 102,-176.445 102,-167.67"/>
<polygon fill="none" stroke="midnightblue" points="98.5001,-194.335 102,-204.335 105.5,-194.335 98.5001,-194.335"/>
</g>
<!-- Node3 -->
<g id="node3" class="node"><title>Node3</title>
<g id="a_node3"><a xlink:href="classtvm_1_1BaseAttrsNode.html" target="_top" xlink:title="Base class of all attribute class. ">
<polygon fill="white" stroke="black" points="-1.42109e-14,-386.5 -1.42109e-14,-586.5 204,-586.5 204,-386.5 -1.42109e-14,-386.5"/>
<text text-anchor="middle" x="102" y="-574.5" font-family="Helvetica,sans-Serif" font-size="10.00">tvm::BaseAttrsNode</text>
<polyline fill="none" stroke="black" points="-1.42109e-14,-567.5 204,-567.5 "/>
<text text-anchor="start" x="8" y="-555.5" font-family="Helvetica,sans-Serif" font-size="10.00">+ _type_has_method_sequal</text>
<text text-anchor="start" x="8" y="-544.5" font-family="Helvetica,sans-Serif" font-size="10.00">_reduce</text>
<text text-anchor="start" x="8" y="-533.5" font-family="Helvetica,sans-Serif" font-size="10.00">+ _type_has_method_shash</text>
<text text-anchor="start" x="8" y="-522.5" font-family="Helvetica,sans-Serif" font-size="10.00">_reduce</text>
<text text-anchor="start" x="8" y="-511.5" font-family="Helvetica,sans-Serif" font-size="10.00">+ _type_key</text>
<polyline fill="none" stroke="black" points="-1.42109e-14,-504.5 204,-504.5 "/>
<text text-anchor="start" x="8" y="-492.5" font-family="Helvetica,sans-Serif" font-size="10.00">+ ~BaseAttrsNode()</text>
<text text-anchor="start" x="8" y="-481.5" font-family="Helvetica,sans-Serif" font-size="10.00">+ VisitAttrs()</text>
<text text-anchor="start" x="8" y="-470.5" font-family="Helvetica,sans-Serif" font-size="10.00">+ InitBySeq()</text>
<text text-anchor="start" x="8" y="-459.5" font-family="Helvetica,sans-Serif" font-size="10.00">+ PrintDocString()</text>
<text text-anchor="start" x="8" y="-448.5" font-family="Helvetica,sans-Serif" font-size="10.00">+ VisitNonDefaultAttrs()</text>
<text text-anchor="start" x="8" y="-437.5" font-family="Helvetica,sans-Serif" font-size="10.00">+ ListFieldInfo()</text>
<text text-anchor="start" x="8" y="-426.5" font-family="Helvetica,sans-Serif" font-size="10.00">+ InitByPackedArgs()</text>
<text text-anchor="start" x="8" y="-415.5" font-family="Helvetica,sans-Serif" font-size="10.00">+ ContentEqual()</text>
<text text-anchor="start" x="8" y="-404.5" font-family="Helvetica,sans-Serif" font-size="10.00">+ ContentHash()</text>
<text text-anchor="start" x="8" y="-393.5" font-family="Helvetica,sans-Serif" font-size="10.00">+ TVM_DECLARE_BASE_OBJECT_INFO()</text>
</a>
</g>
</g>
<!-- Node3&#45;&gt;Node2 -->
<g id="edge2" class="edge"><title>Node3&#45;&gt;Node2</title>
<path fill="none" stroke="midnightblue" d="M102,-376.132C102,-367.127 102,-358.178 102,-349.559"/>
<polygon fill="none" stroke="midnightblue" points="98.5001,-376.308 102,-386.308 105.5,-376.308 98.5001,-376.308"/>
</g>
<!-- Node4 -->
<g id="node4" class="node"><title>Node4</title>
<polygon fill="white" stroke="#bfbfbf" points="78.5,-623.5 78.5,-680.5 125.5,-680.5 125.5,-623.5 78.5,-623.5"/>
<text text-anchor="middle" x="102" y="-668.5" font-family="Helvetica,sans-Serif" font-size="10.00">Object</text>
<polyline fill="none" stroke="#bfbfbf" points="78.5,-661.5 125.5,-661.5 "/>
<text text-anchor="middle" x="102" y="-649.5" font-family="Helvetica,sans-Serif" font-size="10.00"> </text>
<polyline fill="none" stroke="#bfbfbf" points="78.5,-642.5 125.5,-642.5 "/>
<text text-anchor="middle" x="102" y="-630.5" font-family="Helvetica,sans-Serif" font-size="10.00"> </text>
</g>
<!-- Node4&#45;&gt;Node3 -->
<g id="edge3" class="edge"><title>Node4&#45;&gt;Node3</title>
<path fill="none" stroke="midnightblue" d="M102,-613.04C102,-604.867 102,-595.865 102,-586.549"/>
<polygon fill="none" stroke="midnightblue" points="98.5001,-613.264 102,-623.264 105.5,-613.264 98.5001,-613.264"/>
</g>
</g>
</svg>
