<?xml version="1.0" encoding="UTF-8" standalone="no"?>
<!DOCTYPE svg PUBLIC "-//W3C//DTD SVG 1.1//EN"
 "http://www.w3.org/Graphics/SVG/1.1/DTD/svg11.dtd">
<!-- Generated by graphviz version 2.38.0 (20140413.2041)
 -->
<!-- Title: include/tvm/target/target.h Pages: 1 -->
<svg width="2422pt" height="800pt"
 viewBox="0.00 0.00 2422.00 800.00" xmlns="http://www.w3.org/2000/svg" xmlns:xlink="http://www.w3.org/1999/xlink">
<g id="graph0" class="graph" transform="scale(1 1) rotate(0) translate(4 796)">
<title>include/tvm/target/target.h</title>
<polygon fill="white" stroke="none" points="-4,4 -4,-796 2418,-796 2418,4 -4,4"/>
<!-- Node1 -->
<g id="node1" class="node"><title>Node1</title>
<polygon fill="#bfbfbf" stroke="black" points="1190,-761.5 1190,-791.5 1294,-791.5 1294,-761.5 1190,-761.5"/>
<text text-anchor="start" x="1198" y="-779.5" font-family="Helvetica,sans-Serif" font-size="10.00">include/tvm/target</text>
<text text-anchor="middle" x="1242" y="-768.5" font-family="Helvetica,sans-Serif" font-size="10.00">/target.h</text>
</g>
<!-- Node2 -->
<g id="node2" class="node"><title>Node2</title>
<g id="a_node2"><a xlink:href="with_8h.html" target="_top" xlink:title="RAII wrapper function to enter and exit a context object similar to python&#39;s with syntax...">
<polygon fill="white" stroke="black" points="632,-123.5 632,-142.5 738,-142.5 738,-123.5 632,-123.5"/>
<text text-anchor="middle" x="685" y="-130.5" font-family="Helvetica,sans-Serif" font-size="10.00">tvm/support/with.h</text>
</a>
</g>
</g>
<!-- Node1&#45;&gt;Node2 -->
<g id="edge1" class="edge"><title>Node1&#45;&gt;Node2</title>
<path fill="none" stroke="midnightblue" d="M1189.88,-776.052C958.784,-777.828 38,-777.527 38,-660 38,-660 38,-660 38,-305.5 38,-249.659 89.8861,-255.06 142,-235 249.638,-193.567 286.122,-222.69 399,-199 431.085,-192.266 438.16,-186.807 470,-179 524.119,-165.73 586.502,-152.948 630.084,-144.42"/>
<polygon fill="midnightblue" stroke="midnightblue" points="630.767,-147.853 639.914,-142.507 629.429,-140.982 630.767,-147.853"/>
</g>
<!-- Node4 -->
<g id="node4" class="node"><title>Node4</title>
<polygon fill="white" stroke="#bfbfbf" points="1223,-62 1223,-81 1265,-81 1265,-62 1223,-62"/>
<text text-anchor="middle" x="1244" y="-69" font-family="Helvetica,sans-Serif" font-size="10.00">utility</text>
</g>
<!-- Node1&#45;&gt;Node4 -->
<g id="edge124" class="edge"><title>Node1&#45;&gt;Node4</title>
<path fill="none" stroke="midnightblue" d="M1189.73,-772.807C1021.81,-763.466 507,-729.187 507,-660 507,-660 507,-660 507,-602 507,-450.741 688.69,-549.389 832,-501 869.766,-488.248 1483.15,-287.662 1506,-255 1572.12,-160.476 1357.62,-99.033 1275.03,-79.3492"/>
<polygon fill="midnightblue" stroke="midnightblue" points="1275.72,-75.9169 1265.19,-77.0534 1274.13,-82.7339 1275.72,-75.9169"/>
</g>
<!-- Node5 -->
<g id="node5" class="node"><title>Node5</title>
<g id="a_node5"><a xlink:href="node_2container_8h.html" target="_top" xlink:title="Array/Map container in the DSL graph. ">
<polygon fill="white" stroke="black" points="1641.5,-358.5 1641.5,-377.5 1760.5,-377.5 1760.5,-358.5 1641.5,-358.5"/>
<text text-anchor="middle" x="1701" y="-365.5" font-family="Helvetica,sans-Serif" font-size="10.00">tvm/node/container.h</text>
</a>
</g>
</g>
<!-- Node1&#45;&gt;Node5 -->
<g id="edge4" class="edge"><title>Node1&#45;&gt;Node5</title>
<path fill="none" stroke="midnightblue" d="M1294.34,-775.131C1502.7,-772.984 2262,-758.408 2262,-660 2262,-660 2262,-660 2262,-602 2262,-449.142 2116.47,-469.396 1974,-414 1907.93,-388.311 1827.32,-377.286 1770.89,-372.555"/>
<polygon fill="midnightblue" stroke="midnightblue" points="1770.89,-369.044 1760.64,-371.742 1770.33,-376.022 1770.89,-369.044"/>
</g>
<!-- Node12 -->
<g id="node12" class="node"><title>Node12</title>
<polygon fill="white" stroke="#bfbfbf" points="2067,-62 2067,-81 2111,-81 2111,-62 2067,-62"/>
<text text-anchor="middle" x="2089" y="-69" font-family="Helvetica,sans-Serif" font-size="10.00">string</text>
</g>
<!-- Node1&#45;&gt;Node12 -->
<g id="edge121" class="edge"><title>Node1&#45;&gt;Node12</title>
<path fill="none" stroke="midnightblue" d="M1294.18,-775.372C1464.1,-774.53 2000.17,-768.411 2167,-725 2230.67,-708.432 2300,-725.793 2300,-660 2300,-660 2300,-660 2300,-188 2300,-107.436 2180.18,-82.7043 2121.12,-75.4077"/>
<polygon fill="midnightblue" stroke="midnightblue" points="2121.51,-71.9297 2111.18,-74.2736 2120.72,-78.8846 2121.51,-71.9297"/>
</g>
<!-- Node20 -->
<g id="node20" class="node"><title>Node20</title>
<polygon fill="white" stroke="#bfbfbf" points="750.5,-179.5 750.5,-198.5 797.5,-198.5 797.5,-179.5 750.5,-179.5"/>
<text text-anchor="middle" x="774" y="-186.5" font-family="Helvetica,sans-Serif" font-size="10.00">vector</text>
</g>
<!-- Node1&#45;&gt;Node20 -->
<g id="edge122" class="edge"><title>Node1&#45;&gt;Node20</title>
<path fill="none" stroke="midnightblue" d="M1189.92,-775.383C1042.16,-774.516 622.588,-768.21 493,-725 442.714,-708.232 393,-713.008 393,-660 393,-660 393,-660 393,-546 393,-356.244 648.434,-238.558 741.004,-202.139"/>
<polygon fill="midnightblue" stroke="midnightblue" points="742.391,-205.355 750.454,-198.482 739.865,-198.827 742.391,-205.355"/>
</g>
<!-- Node30 -->
<g id="node30" class="node"><title>Node30</title>
<g id="a_node30"><a xlink:href="ir_2expr_8h.html" target="_top" xlink:title="Base expr nodes in TVM. ">
<polygon fill="white" stroke="black" points="1203.5,-705.5 1203.5,-724.5 1280.5,-724.5 1280.5,-705.5 1203.5,-705.5"/>
<text text-anchor="middle" x="1242" y="-712.5" font-family="Helvetica,sans-Serif" font-size="10.00">tvm/ir/expr.h</text>
</a>
</g>
</g>
<!-- Node1&#45;&gt;Node30 -->
<g id="edge63" class="edge"><title>Node1&#45;&gt;Node30</title>
<path fill="none" stroke="midnightblue" d="M1242,-761.399C1242,-753.466 1242,-743.458 1242,-734.858"/>
<polygon fill="midnightblue" stroke="midnightblue" points="1245.5,-734.658 1242,-724.658 1238.5,-734.658 1245.5,-734.658"/>
</g>
<!-- Node41 -->
<g id="node41" class="node"><title>Node41</title>
<polygon fill="white" stroke="#bfbfbf" points="2328,-705.5 2328,-724.5 2414,-724.5 2414,-705.5 2328,-705.5"/>
<text text-anchor="middle" x="2371" y="-712.5" font-family="Helvetica,sans-Serif" font-size="10.00">unordered_set</text>
</g>
<!-- Node1&#45;&gt;Node41 -->
<g id="edge123" class="edge"><title>Node1&#45;&gt;Node41</title>
<path fill="none" stroke="midnightblue" d="M1294.02,-775.066C1449.38,-773.337 1923.37,-764.919 2314,-725 2315.26,-724.871 2316.54,-724.733 2317.82,-724.587"/>
<polygon fill="midnightblue" stroke="midnightblue" points="2318.32,-728.052 2327.8,-723.329 2317.45,-721.107 2318.32,-728.052"/>
</g>
<!-- Node3 -->
<g id="node3" class="node"><title>Node3</title>
<polygon fill="white" stroke="#bfbfbf" points="642,-62 642,-81 728,-81 728,-62 642,-62"/>
<text text-anchor="middle" x="685" y="-69" font-family="Helvetica,sans-Serif" font-size="10.00">dmlc/logging.h</text>
</g>
<!-- Node2&#45;&gt;Node3 -->
<g id="edge2" class="edge"><title>Node2&#45;&gt;Node3</title>
<path fill="none" stroke="midnightblue" d="M685,-123.475C685,-115.08 685,-101.981 685,-91.1631"/>
<polygon fill="midnightblue" stroke="midnightblue" points="688.5,-91.0091 685,-81.0091 681.5,-91.0091 688.5,-91.0091"/>
</g>
<!-- Node2&#45;&gt;Node4 -->
<g id="edge3" class="edge"><title>Node2&#45;&gt;Node4</title>
<path fill="none" stroke="midnightblue" d="M738.093,-126.349C852.916,-114.127 1121.34,-85.5562 1212.82,-75.819"/>
<polygon fill="midnightblue" stroke="midnightblue" points="1213.26,-79.292 1222.83,-74.7532 1212.52,-72.3314 1213.26,-79.292"/>
</g>
<!-- Node5&#45;&gt;Node4 -->
<g id="edge61" class="edge"><title>Node5&#45;&gt;Node4</title>
<path fill="none" stroke="midnightblue" d="M1686.63,-358.33C1675.12,-350.469 1659.81,-337.722 1653,-322 1647.52,-309.358 1647.47,-303.621 1653,-291 1662.46,-269.391 1682.54,-276.609 1692,-255 1695.57,-246.857 1696.22,-242.826 1692,-235 1689.32,-230.021 1527.25,-125.103 1522,-123 1436.8,-88.8596 1327.64,-77.6478 1275.05,-74.0859"/>
<polygon fill="midnightblue" stroke="midnightblue" points="1275.22,-70.5894 1265.02,-73.4536 1274.78,-77.5755 1275.22,-70.5894"/>
</g>
<!-- Node6 -->
<g id="node6" class="node"><title>Node6</title>
<g id="a_node6"><a xlink:href="object_8h.html" target="_top" xlink:title="A managed object in the TVM runtime. ">
<polygon fill="white" stroke="black" points="908.5,-123.5 908.5,-142.5 1025.5,-142.5 1025.5,-123.5 908.5,-123.5"/>
<text text-anchor="middle" x="967" y="-130.5" font-family="Helvetica,sans-Serif" font-size="10.00">tvm/runtime/object.h</text>
</a>
</g>
</g>
<!-- Node5&#45;&gt;Node6 -->
<g id="edge5" class="edge"><title>Node5&#45;&gt;Node6</title>
<path fill="none" stroke="midnightblue" d="M1682.44,-358.499C1665.44,-350.3 1639.95,-336.959 1620,-322 1576,-289.006 1577.33,-266.142 1532,-235 1482.16,-200.759 1466.39,-194.718 1408,-179 1279.51,-144.413 1123.41,-136.019 1035.61,-134.213"/>
<polygon fill="midnightblue" stroke="midnightblue" points="1035.57,-130.712 1025.51,-134.029 1035.45,-137.711 1035.57,-130.712"/>
</g>
<!-- Node11 -->
<g id="node11" class="node"><title>Node11</title>
<polygon fill="white" stroke="#bfbfbf" points="1550,-62 1550,-81 1618,-81 1618,-62 1550,-62"/>
<text text-anchor="middle" x="1584" y="-69" font-family="Helvetica,sans-Serif" font-size="10.00">type_traits</text>
</g>
<!-- Node5&#45;&gt;Node11 -->
<g id="edge57" class="edge"><title>Node5&#45;&gt;Node11</title>
<path fill="none" stroke="midnightblue" d="M1720.73,-358.347C1735.34,-350.875 1754.48,-338.65 1765,-322 1812.42,-246.959 1838.93,-191.11 1782,-123 1762.48,-99.6503 1680.2,-84.9163 1628.04,-77.7369"/>
<polygon fill="midnightblue" stroke="midnightblue" points="1628.42,-74.2558 1618.04,-76.4015 1627.49,-81.1942 1628.42,-74.2558"/>
</g>
<!-- Node5&#45;&gt;Node12 -->
<g id="edge62" class="edge"><title>Node5&#45;&gt;Node12</title>
<path fill="none" stroke="midnightblue" d="M1721.01,-358.488C1739.37,-350.281 1766.99,-336.935 1789,-322 1900.02,-246.661 1910.21,-205.523 2016,-123 2032.7,-109.97 2052.52,-96.3718 2067.29,-86.5731"/>
<polygon fill="midnightblue" stroke="midnightblue" points="2069.32,-89.4216 2075.76,-81.002 2065.48,-83.5732 2069.32,-89.4216"/>
</g>
<!-- Node14 -->
<g id="node14" class="node"><title>Node14</title>
<g id="a_node14"><a xlink:href="runtime_2memory_8h.html" target="_top" xlink:title="Runtime memory management. ">
<polygon fill="white" stroke="black" points="1650.5,-179.5 1650.5,-198.5 1777.5,-198.5 1777.5,-179.5 1650.5,-179.5"/>
<text text-anchor="middle" x="1714" y="-186.5" font-family="Helvetica,sans-Serif" font-size="10.00">tvm/runtime/memory.h</text>
</a>
</g>
</g>
<!-- Node5&#45;&gt;Node14 -->
<g id="edge15" class="edge"><title>Node5&#45;&gt;Node14</title>
<path fill="none" stroke="midnightblue" d="M1715.08,-358.259C1726.35,-350.355 1741.35,-337.584 1748,-322 1764.81,-282.632 1740.89,-232.993 1725.4,-207.254"/>
<polygon fill="midnightblue" stroke="midnightblue" points="1728.27,-205.236 1719.99,-198.631 1722.34,-208.96 1728.27,-205.236"/>
</g>
<!-- Node16 -->
<g id="node16" class="node"><title>Node16</title>
<g id="a_node16"><a xlink:href="packed__func_8h.html" target="_top" xlink:title="Type&#45;erased function used across TVM API. ">
<polygon fill="white" stroke="black" points="1110.5,-291.5 1110.5,-321.5 1223.5,-321.5 1223.5,-291.5 1110.5,-291.5"/>
<text text-anchor="start" x="1118.5" y="-309.5" font-family="Helvetica,sans-Serif" font-size="10.00">tvm/runtime/packed</text>
<text text-anchor="middle" x="1167" y="-298.5" font-family="Helvetica,sans-Serif" font-size="10.00">_func.h</text>
</a>
</g>
</g>
<!-- Node5&#45;&gt;Node16 -->
<g id="edge20" class="edge"><title>Node5&#45;&gt;Node16</title>
<path fill="none" stroke="midnightblue" d="M1641.3,-360.348C1540.95,-349.166 1339.15,-326.681 1234.06,-314.972"/>
<polygon fill="midnightblue" stroke="midnightblue" points="1234.22,-311.468 1223.9,-313.839 1233.45,-318.425 1234.22,-311.468"/>
</g>
<!-- Node5&#45;&gt;Node20 -->
<g id="edge58" class="edge"><title>Node5&#45;&gt;Node20</title>
<path fill="none" stroke="midnightblue" d="M1641.49,-365.433C1533.34,-361.944 1297.55,-351.378 1101,-322 967.17,-301.997 909.208,-340.1 804,-255 789.677,-243.415 781.883,-223.456 777.859,-208.703"/>
<polygon fill="midnightblue" stroke="midnightblue" points="781.19,-207.58 775.471,-198.661 774.38,-209.199 781.19,-207.58"/>
</g>
<!-- Node21 -->
<g id="node21" class="node"><title>Node21</title>
<polygon fill="white" stroke="#bfbfbf" points="1272.5,-179.5 1272.5,-198.5 1365.5,-198.5 1365.5,-179.5 1272.5,-179.5"/>
<text text-anchor="middle" x="1319" y="-186.5" font-family="Helvetica,sans-Serif" font-size="10.00">unordered_map</text>
</g>
<!-- Node5&#45;&gt;Node21 -->
<g id="edge60" class="edge"><title>Node5&#45;&gt;Node21</title>
<path fill="none" stroke="midnightblue" d="M1665.22,-358.446C1640.37,-351.362 1607.31,-339.579 1582,-322 1539.83,-292.707 1549.92,-261.593 1506,-235 1466.41,-211.026 1414.87,-199.821 1375.92,-194.585"/>
<polygon fill="midnightblue" stroke="midnightblue" points="1376.16,-191.088 1365.8,-193.32 1375.29,-198.034 1376.16,-191.088"/>
</g>
<!-- Node29 -->
<g id="node29" class="node"><title>Node29</title>
<polygon fill="white" stroke="#bfbfbf" points="1662.5,-297 1662.5,-316 1739.5,-316 1739.5,-297 1662.5,-297"/>
<text text-anchor="middle" x="1701" y="-304" font-family="Helvetica,sans-Serif" font-size="10.00">initializer_list</text>
</g>
<!-- Node5&#45;&gt;Node29 -->
<g id="edge59" class="edge"><title>Node5&#45;&gt;Node29</title>
<path fill="none" stroke="midnightblue" d="M1701,-358.475C1701,-350.08 1701,-336.981 1701,-326.163"/>
<polygon fill="midnightblue" stroke="midnightblue" points="1704.5,-326.009 1701,-316.009 1697.5,-326.009 1704.5,-326.009"/>
</g>
<!-- Node6&#45;&gt;Node3 -->
<g id="edge6" class="edge"><title>Node6&#45;&gt;Node3</title>
<path fill="none" stroke="midnightblue" d="M926.596,-123.475C876.129,-112.827 789.786,-94.6092 735.146,-83.0806"/>
<polygon fill="midnightblue" stroke="midnightblue" points="735.836,-79.649 725.329,-81.0091 734.391,-86.4982 735.836,-79.649"/>
</g>
<!-- Node6&#45;&gt;Node4 -->
<g id="edge13" class="edge"><title>Node6&#45;&gt;Node4</title>
<path fill="none" stroke="midnightblue" d="M1006.69,-123.475C1062.27,-111.535 1162.17,-90.0782 1212.78,-79.206"/>
<polygon fill="midnightblue" stroke="midnightblue" points="1213.76,-82.5761 1222.8,-77.0539 1212.29,-75.7322 1213.76,-82.5761"/>
</g>
<!-- Node7 -->
<g id="node7" class="node"><title>Node7</title>
<g id="a_node7"><a xlink:href="c__runtime__api_8h.html" target="_top" xlink:title="tvm/runtime/c_runtime\l_api.h">
<polygon fill="white" stroke="black" points="111.5,-56.5 111.5,-86.5 238.5,-86.5 238.5,-56.5 111.5,-56.5"/>
<text text-anchor="start" x="119.5" y="-74.5" font-family="Helvetica,sans-Serif" font-size="10.00">tvm/runtime/c_runtime</text>
<text text-anchor="middle" x="175" y="-63.5" font-family="Helvetica,sans-Serif" font-size="10.00">_api.h</text>
</a>
</g>
</g>
<!-- Node6&#45;&gt;Node7 -->
<g id="edge7" class="edge"><title>Node6&#45;&gt;Node7</title>
<path fill="none" stroke="midnightblue" d="M908.441,-127.601C766.62,-116.946 404.933,-89.774 248.708,-78.0374"/>
<polygon fill="midnightblue" stroke="midnightblue" points="248.954,-74.5461 238.719,-77.287 248.429,-81.5264 248.954,-74.5461"/>
</g>
<!-- Node6&#45;&gt;Node11 -->
<g id="edge11" class="edge"><title>Node6&#45;&gt;Node11</title>
<path fill="none" stroke="midnightblue" d="M1025.6,-126.349C1148.43,-114.504 1430.5,-87.3024 1539.7,-76.7724"/>
<polygon fill="midnightblue" stroke="midnightblue" points="1540.1,-80.2503 1549.71,-75.8064 1539.42,-73.2826 1540.1,-80.2503"/>
</g>
<!-- Node6&#45;&gt;Node12 -->
<g id="edge12" class="edge"><title>Node6&#45;&gt;Node12</title>
<path fill="none" stroke="midnightblue" d="M1025.74,-128.885C1229.4,-118.085 1901.16,-82.4614 2056.66,-74.2148"/>
<polygon fill="midnightblue" stroke="midnightblue" points="2057.15,-77.6938 2066.95,-73.6691 2056.78,-70.7036 2057.15,-77.6938"/>
</g>
<!-- Node13 -->
<g id="node13" class="node"><title>Node13</title>
<polygon fill="white" stroke="#bfbfbf" points="844,-62 844,-81 894,-81 894,-62 844,-62"/>
<text text-anchor="middle" x="869" y="-69" font-family="Helvetica,sans-Serif" font-size="10.00">atomic</text>
</g>
<!-- Node6&#45;&gt;Node13 -->
<g id="edge14" class="edge"><title>Node6&#45;&gt;Node13</title>
<path fill="none" stroke="midnightblue" d="M952.959,-123.475C936.949,-113.755 910.55,-97.7266 891.626,-86.2372"/>
<polygon fill="midnightblue" stroke="midnightblue" points="893.379,-83.2072 883.015,-81.0091 889.746,-89.1907 893.379,-83.2072"/>
</g>
<!-- Node8 -->
<g id="node8" class="node"><title>Node8</title>
<polygon fill="white" stroke="#bfbfbf" points="40,-0.5 40,-19.5 130,-19.5 130,-0.5 40,-0.5"/>
<text text-anchor="middle" x="85" y="-7.5" font-family="Helvetica,sans-Serif" font-size="10.00">dlpack/dlpack.h</text>
</g>
<!-- Node7&#45;&gt;Node8 -->
<g id="edge8" class="edge"><title>Node7&#45;&gt;Node8</title>
<path fill="none" stroke="midnightblue" d="M153.671,-56.3993C139.515,-47.0402 120.989,-34.7924 106.747,-25.3771"/>
<polygon fill="midnightblue" stroke="midnightblue" points="108.368,-22.2531 98.0958,-19.6578 104.507,-28.0923 108.368,-22.2531"/>
</g>
<!-- Node9 -->
<g id="node9" class="node"><title>Node9</title>
<polygon fill="white" stroke="#bfbfbf" points="148.5,-0.5 148.5,-19.5 201.5,-19.5 201.5,-0.5 148.5,-0.5"/>
<text text-anchor="middle" x="175" y="-7.5" font-family="Helvetica,sans-Serif" font-size="10.00">stdint.h</text>
</g>
<!-- Node7&#45;&gt;Node9 -->
<g id="edge9" class="edge"><title>Node7&#45;&gt;Node9</title>
<path fill="none" stroke="midnightblue" d="M175,-56.3993C175,-48.4664 175,-38.458 175,-29.8583"/>
<polygon fill="midnightblue" stroke="midnightblue" points="178.5,-29.6577 175,-19.6578 171.5,-29.6578 178.5,-29.6577"/>
</g>
<!-- Node10 -->
<g id="node10" class="node"><title>Node10</title>
<polygon fill="white" stroke="#bfbfbf" points="219.5,-0.5 219.5,-19.5 274.5,-19.5 274.5,-0.5 219.5,-0.5"/>
<text text-anchor="middle" x="247" y="-7.5" font-family="Helvetica,sans-Serif" font-size="10.00">stddef.h</text>
</g>
<!-- Node7&#45;&gt;Node10 -->
<g id="edge10" class="edge"><title>Node7&#45;&gt;Node10</title>
<path fill="none" stroke="midnightblue" d="M192.063,-56.3993C203.065,-47.3076 217.365,-35.4899 228.618,-26.1909"/>
<polygon fill="midnightblue" stroke="midnightblue" points="231.044,-28.726 236.523,-19.6578 226.585,-23.33 231.044,-28.726"/>
</g>
<!-- Node14&#45;&gt;Node4 -->
<g id="edge18" class="edge"><title>Node14&#45;&gt;Node4</title>
<path fill="none" stroke="midnightblue" d="M1706.84,-179.483C1694.2,-165.096 1666.37,-136.253 1636,-123 1571.15,-94.7021 1356.37,-79.2231 1275.32,-74.2748"/>
<polygon fill="midnightblue" stroke="midnightblue" points="1275.43,-70.7751 1265.24,-73.6717 1275.01,-77.7626 1275.43,-70.7751"/>
</g>
<!-- Node14&#45;&gt;Node6 -->
<g id="edge16" class="edge"><title>Node14&#45;&gt;Node6</title>
<path fill="none" stroke="midnightblue" d="M1650.31,-183.396C1510.85,-173.315 1179.48,-149.36 1035.62,-138.96"/>
<polygon fill="midnightblue" stroke="midnightblue" points="1035.82,-135.466 1025.59,-138.235 1035.31,-142.447 1035.82,-135.466"/>
</g>
<!-- Node14&#45;&gt;Node11 -->
<g id="edge19" class="edge"><title>Node14&#45;&gt;Node11</title>
<path fill="none" stroke="midnightblue" d="M1710.46,-179.475C1704.55,-166.079 1691.58,-139.889 1674,-123 1657.05,-106.724 1633.85,-93.8713 1615.25,-85.2056"/>
<polygon fill="midnightblue" stroke="midnightblue" points="1616.56,-81.9557 1606,-81.0597 1613.69,-88.3435 1616.56,-81.9557"/>
</g>
<!-- Node15 -->
<g id="node15" class="node"><title>Node15</title>
<polygon fill="white" stroke="#bfbfbf" points="1726.5,-123.5 1726.5,-142.5 1773.5,-142.5 1773.5,-123.5 1726.5,-123.5"/>
<text text-anchor="middle" x="1750" y="-130.5" font-family="Helvetica,sans-Serif" font-size="10.00">cstdlib</text>
</g>
<!-- Node14&#45;&gt;Node15 -->
<g id="edge17" class="edge"><title>Node14&#45;&gt;Node15</title>
<path fill="none" stroke="midnightblue" d="M1719.94,-179.083C1724.98,-171.534 1732.34,-160.495 1738.51,-151.23"/>
<polygon fill="midnightblue" stroke="midnightblue" points="1741.53,-153.013 1744.17,-142.751 1735.71,-149.13 1741.53,-153.013"/>
</g>
<!-- Node16&#45;&gt;Node3 -->
<g id="edge21" class="edge"><title>Node16&#45;&gt;Node3</title>
<path fill="none" stroke="midnightblue" d="M1114.76,-291.396C1084,-282.404 1044.65,-269.696 1011,-255 891.247,-202.708 758.083,-119.697 706.779,-86.7"/>
<polygon fill="midnightblue" stroke="midnightblue" points="708.472,-83.6272 698.173,-81.1396 704.673,-89.5066 708.472,-83.6272"/>
</g>
<!-- Node16&#45;&gt;Node4 -->
<g id="edge55" class="edge"><title>Node16&#45;&gt;Node4</title>
<path fill="none" stroke="midnightblue" d="M1223.63,-291.514C1242.3,-283.919 1261.07,-272.382 1272,-255 1279.71,-242.743 1263.14,-199.712 1263,-199 1255.42,-161.022 1249.35,-116.087 1246.25,-91.2946"/>
<polygon fill="midnightblue" stroke="midnightblue" points="1249.7,-90.6395 1245.01,-81.1389 1242.75,-91.4901 1249.7,-90.6395"/>
</g>
<!-- Node16&#45;&gt;Node6 -->
<g id="edge48" class="edge"><title>Node16&#45;&gt;Node6</title>
<path fill="none" stroke="midnightblue" d="M1110.46,-293.79C1084.57,-286.175 1054.85,-274.009 1033,-255 1000.62,-226.829 981.211,-178.73 972.495,-152.46"/>
<polygon fill="midnightblue" stroke="midnightblue" points="975.751,-151.146 969.408,-142.66 969.074,-153.25 975.751,-151.146"/>
</g>
<!-- Node16&#45;&gt;Node7 -->
<g id="edge22" class="edge"><title>Node16&#45;&gt;Node7</title>
<path fill="none" stroke="midnightblue" d="M1110.48,-303.015C948.241,-295.694 488.472,-273.552 423,-255 404.638,-249.797 402.905,-241.608 385,-235 317.027,-209.912 285.344,-240.57 226,-199 192.49,-175.526 180.982,-126.115 177.041,-96.4703"/>
<polygon fill="midnightblue" stroke="midnightblue" points="180.517,-96.0656 175.905,-86.5277 173.563,-96.8605 180.517,-96.0656"/>
</g>
<!-- Node16&#45;&gt;Node11 -->
<g id="edge56" class="edge"><title>Node16&#45;&gt;Node11</title>
<path fill="none" stroke="midnightblue" d="M1205.03,-291.404C1229.22,-282.007 1260.96,-268.869 1288,-255 1395.52,-199.851 1515.85,-119.376 1563.24,-86.8911"/>
<polygon fill="midnightblue" stroke="midnightblue" points="1565.46,-89.6084 1571.72,-81.0557 1561.5,-83.8421 1565.46,-89.6084"/>
</g>
<!-- Node16&#45;&gt;Node12 -->
<g id="edge52" class="edge"><title>Node16&#45;&gt;Node12</title>
<path fill="none" stroke="midnightblue" d="M1209.39,-291.462C1260.08,-275.248 1347.79,-249.011 1425,-235 1595.84,-203.999 1646.35,-244.159 1814,-199 1891.57,-178.105 1904.99,-156.523 1978,-123 2006.16,-110.071 2038.4,-95.421 2060.85,-85.2427"/>
<polygon fill="midnightblue" stroke="midnightblue" points="2062.46,-88.3532 2070.13,-81.0379 2059.57,-81.9772 2062.46,-88.3532"/>
</g>
<!-- Node17 -->
<g id="node17" class="node"><title>Node17</title>
<g id="a_node17"><a xlink:href="runtime_2module_8h.html" target="_top" xlink:title="Runtime container of the functions generated by TVM, This is used to support dynamically link...">
<polygon fill="white" stroke="black" points="1042,-235.5 1042,-254.5 1166,-254.5 1166,-235.5 1042,-235.5"/>
<text text-anchor="middle" x="1104" y="-242.5" font-family="Helvetica,sans-Serif" font-size="10.00">tvm/runtime/module.h</text>
</a>
</g>
</g>
<!-- Node16&#45;&gt;Node17 -->
<g id="edge23" class="edge"><title>Node16&#45;&gt;Node17</title>
<path fill="none" stroke="midnightblue" d="M1146.23,-291.399C1135.86,-282.664 1123.86,-271.413 1115.16,-262.296"/>
<polygon fill="midnightblue" stroke="midnightblue" points="1117.55,-259.717 1108.24,-254.658 1112.36,-264.418 1117.55,-259.717"/>
</g>
<!-- Node19 -->
<g id="node19" class="node"><title>Node19</title>
<polygon fill="white" stroke="#bfbfbf" points="1158.5,-179.5 1158.5,-198.5 1215.5,-198.5 1215.5,-179.5 1158.5,-179.5"/>
<text text-anchor="middle" x="1187" y="-186.5" font-family="Helvetica,sans-Serif" font-size="10.00">memory</text>
</g>
<!-- Node16&#45;&gt;Node19 -->
<g id="edge54" class="edge"><title>Node16&#45;&gt;Node19</title>
<path fill="none" stroke="midnightblue" d="M1169.45,-291.337C1173.06,-270.527 1179.79,-231.663 1183.78,-208.583"/>
<polygon fill="midnightblue" stroke="midnightblue" points="1187.24,-209.12 1185.5,-198.669 1180.34,-207.926 1187.24,-209.12"/>
</g>
<!-- Node16&#45;&gt;Node20 -->
<g id="edge51" class="edge"><title>Node16&#45;&gt;Node20</title>
<path fill="none" stroke="midnightblue" d="M1110.47,-301.706C1027.65,-295.363 878.043,-280.701 831,-255 810.712,-243.916 794.202,-222.638 784.269,-207.447"/>
<polygon fill="midnightblue" stroke="midnightblue" points="787.217,-205.558 778.959,-198.92 781.275,-209.259 787.217,-205.558"/>
</g>
<!-- Node22 -->
<g id="node22" class="node"><title>Node22</title>
<g id="a_node22"><a xlink:href="ndarray_8h.html" target="_top" xlink:title="A device&#45;independent managed NDArray abstraction. ">
<polygon fill="white" stroke="black" points="432.5,-235.5 432.5,-254.5 555.5,-254.5 555.5,-235.5 432.5,-235.5"/>
<text text-anchor="middle" x="494" y="-242.5" font-family="Helvetica,sans-Serif" font-size="10.00">tvm/runtime/ndarray.h</text>
</a>
</g>
</g>
<!-- Node16&#45;&gt;Node22 -->
<g id="edge33" class="edge"><title>Node16&#45;&gt;Node22</title>
<path fill="none" stroke="midnightblue" d="M1110.49,-300.504C988.528,-289.721 700.79,-264.282 566.009,-252.366"/>
<polygon fill="midnightblue" stroke="midnightblue" points="566.062,-248.857 555.792,-251.463 565.445,-255.83 566.062,-248.857"/>
</g>
<!-- Node25 -->
<g id="node25" class="node"><title>Node25</title>
<g id="a_node25"><a xlink:href="data__type_8h.html" target="_top" xlink:title="tvm/runtime/data_type.h">
<polygon fill="white" stroke="black" points="180,-235.5 180,-254.5 316,-254.5 316,-235.5 180,-235.5"/>
<text text-anchor="middle" x="248" y="-242.5" font-family="Helvetica,sans-Serif" font-size="10.00">tvm/runtime/data_type.h</text>
</a>
</g>
</g>
<!-- Node16&#45;&gt;Node25 -->
<g id="edge44" class="edge"><title>Node16&#45;&gt;Node25</title>
<path fill="none" stroke="midnightblue" d="M1110.25,-303.204C975.96,-297.531 627.965,-281.436 326.661,-255.101"/>
<polygon fill="midnightblue" stroke="midnightblue" points="326.681,-251.589 316.413,-254.199 326.068,-258.562 326.681,-251.589"/>
</g>
<!-- Node26 -->
<g id="node26" class="node"><title>Node26</title>
<polygon fill="white" stroke="#bfbfbf" points="1434.5,-235.5 1434.5,-254.5 1497.5,-254.5 1497.5,-235.5 1434.5,-235.5"/>
<text text-anchor="middle" x="1466" y="-242.5" font-family="Helvetica,sans-Serif" font-size="10.00">functional</text>
</g>
<!-- Node16&#45;&gt;Node26 -->
<g id="edge49" class="edge"><title>Node16&#45;&gt;Node26</title>
<path fill="none" stroke="midnightblue" d="M1223.59,-294.239C1282.16,-282.584 1372.25,-264.657 1424.52,-254.254"/>
<polygon fill="midnightblue" stroke="midnightblue" points="1425.33,-257.662 1434.45,-252.278 1423.96,-250.797 1425.33,-257.662"/>
</g>
<!-- Node27 -->
<g id="node27" class="node"><title>Node27</title>
<polygon fill="white" stroke="#bfbfbf" points="1222.5,-235.5 1222.5,-254.5 1263.5,-254.5 1263.5,-235.5 1222.5,-235.5"/>
<text text-anchor="middle" x="1243" y="-242.5" font-family="Helvetica,sans-Serif" font-size="10.00">tuple</text>
</g>
<!-- Node16&#45;&gt;Node27 -->
<g id="edge50" class="edge"><title>Node16&#45;&gt;Node27</title>
<path fill="none" stroke="midnightblue" d="M1185.01,-291.399C1196.74,-282.218 1212.02,-270.258 1223.94,-260.918"/>
<polygon fill="midnightblue" stroke="midnightblue" points="1226.22,-263.578 1231.94,-254.658 1221.91,-258.066 1226.22,-263.578"/>
</g>
<!-- Node28 -->
<g id="node28" class="node"><title>Node28</title>
<polygon fill="white" stroke="#bfbfbf" points="334,-235.5 334,-254.5 376,-254.5 376,-235.5 334,-235.5"/>
<text text-anchor="middle" x="355" y="-242.5" font-family="Helvetica,sans-Serif" font-size="10.00">limits</text>
</g>
<!-- Node16&#45;&gt;Node28 -->
<g id="edge53" class="edge"><title>Node16&#45;&gt;Node28</title>
<path fill="none" stroke="midnightblue" d="M1110.05,-305.426C981.047,-304.468 656.981,-297.619 390,-255 388.745,-254.8 387.47,-254.575 386.186,-254.33"/>
<polygon fill="midnightblue" stroke="midnightblue" points="386.857,-250.894 376.338,-252.161 385.351,-257.731 386.857,-250.894"/>
</g>
<!-- Node17&#45;&gt;Node6 -->
<g id="edge26" class="edge"><title>Node17&#45;&gt;Node6</title>
<path fill="none" stroke="midnightblue" d="M1094.68,-235.272C1080.9,-222.491 1054.12,-198.125 1030,-179 1016.44,-168.247 1000.59,-156.928 988.173,-148.332"/>
<polygon fill="midnightblue" stroke="midnightblue" points="990.05,-145.375 979.825,-142.601 986.088,-151.146 990.05,-145.375"/>
</g>
<!-- Node17&#45;&gt;Node7 -->
<g id="edge25" class="edge"><title>Node17&#45;&gt;Node7</title>
<path fill="none" stroke="midnightblue" d="M1077.6,-235.488C1034.54,-221.873 946.323,-195.095 870,-179 761.45,-156.109 732.48,-160.925 623,-143 573.963,-134.971 562.023,-131.117 513,-123 422.247,-107.974 317.445,-92.6256 248.899,-82.8567"/>
<polygon fill="midnightblue" stroke="midnightblue" points="249.029,-79.3401 238.636,-81.3971 248.043,-86.2703 249.029,-79.3401"/>
</g>
<!-- Node17&#45;&gt;Node12 -->
<g id="edge30" class="edge"><title>Node17&#45;&gt;Node12</title>
<path fill="none" stroke="midnightblue" d="M1166.24,-238.649C1181.52,-237.393 1197.85,-236.101 1213,-235 1340.25,-225.75 1669.38,-250.742 1786,-199 1830.24,-179.371 1821.44,-146.06 1864,-123 1926.73,-89.0079 2011.16,-77.8695 2056.68,-74.2389"/>
<polygon fill="midnightblue" stroke="midnightblue" points="2057.12,-77.716 2066.84,-73.5026 2056.62,-70.7343 2057.12,-77.716"/>
</g>
<!-- Node17&#45;&gt;Node14 -->
<g id="edge27" class="edge"><title>Node17&#45;&gt;Node14</title>
<path fill="none" stroke="midnightblue" d="M1166.13,-238.5C1279.29,-228.483 1518.48,-207.308 1639.92,-196.558"/>
<polygon fill="midnightblue" stroke="midnightblue" points="1640.58,-200.013 1650.23,-195.645 1639.96,-193.041 1640.58,-200.013"/>
</g>
<!-- Node17&#45;&gt;Node16 -->
<g id="edge32" class="edge"><title>Node17&#45;&gt;Node16</title>
<path fill="none" stroke="midnightblue" d="M1118.1,-254.658C1127.87,-262.332 1140.61,-273.862 1150.75,-284.002"/>
<polygon fill="midnightblue" stroke="midnightblue" points="1148.44,-286.647 1157.91,-291.399 1153.47,-281.779 1148.44,-286.647"/>
</g>
<!-- Node18 -->
<g id="node18" class="node"><title>Node18</title>
<polygon fill="white" stroke="#bfbfbf" points="444,-123.5 444,-142.5 504,-142.5 504,-123.5 444,-123.5"/>
<text text-anchor="middle" x="474" y="-130.5" font-family="Helvetica,sans-Serif" font-size="10.00">dmlc/io.h</text>
</g>
<!-- Node17&#45;&gt;Node18 -->
<g id="edge24" class="edge"><title>Node17&#45;&gt;Node18</title>
<path fill="none" stroke="midnightblue" d="M1069.31,-235.487C1013.92,-222.107 901.949,-195.939 806,-179 750.677,-169.233 589.82,-148.585 514.187,-139.037"/>
<polygon fill="midnightblue" stroke="midnightblue" points="514.46,-135.544 504.101,-137.766 513.585,-142.489 514.46,-135.544"/>
</g>
<!-- Node17&#45;&gt;Node19 -->
<g id="edge28" class="edge"><title>Node17&#45;&gt;Node19</title>
<path fill="none" stroke="midnightblue" d="M1117.34,-235.324C1130.16,-226.979 1149.78,-214.212 1164.94,-204.352"/>
<polygon fill="midnightblue" stroke="midnightblue" points="1167.22,-207.042 1173.7,-198.655 1163.41,-201.174 1167.22,-207.042"/>
</g>
<!-- Node17&#45;&gt;Node20 -->
<g id="edge29" class="edge"><title>Node17&#45;&gt;Node20</title>
<path fill="none" stroke="midnightblue" d="M1051.71,-235.444C983.274,-224.245 865.284,-204.937 807.65,-195.506"/>
<polygon fill="midnightblue" stroke="midnightblue" points="808.051,-192.025 797.617,-193.865 806.92,-198.934 808.051,-192.025"/>
</g>
<!-- Node17&#45;&gt;Node21 -->
<g id="edge31" class="edge"><title>Node17&#45;&gt;Node21</title>
<path fill="none" stroke="midnightblue" d="M1138.07,-235.444C1175.18,-226.122 1234.66,-211.183 1275.21,-200.997"/>
<polygon fill="midnightblue" stroke="midnightblue" points="1276.25,-204.347 1285.09,-198.516 1274.54,-197.558 1276.25,-204.347"/>
</g>
<!-- Node22&#45;&gt;Node4 -->
<g id="edge43" class="edge"><title>Node22&#45;&gt;Node4</title>
<path fill="none" stroke="midnightblue" d="M507.183,-235.458C529.231,-221.553 575.375,-194.067 618,-179 648.016,-168.39 867.628,-128.418 899,-123 1014.36,-103.076 1152.31,-84.4355 1212.88,-76.5093"/>
<polygon fill="midnightblue" stroke="midnightblue" points="1213.47,-79.9622 1222.94,-75.1995 1212.57,-73.0209 1213.47,-79.9622"/>
</g>
<!-- Node22&#45;&gt;Node6 -->
<g id="edge35" class="edge"><title>Node22&#45;&gt;Node6</title>
<path fill="none" stroke="midnightblue" d="M519.656,-235.458C545.61,-226.706 586.813,-212.503 622,-199 643.577,-190.72 647.742,-185.222 670,-179 691.524,-172.983 817.388,-154.848 898.209,-143.52"/>
<polygon fill="midnightblue" stroke="midnightblue" points="898.902,-146.958 908.32,-142.106 897.932,-140.025 898.902,-146.958"/>
</g>
<!-- Node22&#45;&gt;Node7 -->
<g id="edge34" class="edge"><title>Node22&#45;&gt;Node7</title>
<path fill="none" stroke="midnightblue" d="M433.744,-235.477C366.726,-225.585 265.873,-209.316 251,-199 214.814,-173.899 192.958,-125.475 182.502,-96.3643"/>
<polygon fill="midnightblue" stroke="midnightblue" points="185.708,-94.9217 179.161,-86.5921 179.085,-97.1867 185.708,-94.9217"/>
</g>
<!-- Node22&#45;&gt;Node13 -->
<g id="edge41" class="edge"><title>Node22&#45;&gt;Node13</title>
<path fill="none" stroke="midnightblue" d="M487.983,-235.262C479.369,-221.574 466.02,-194.991 480,-179 519.405,-133.926 690.341,-162.344 747,-143 785.832,-129.742 826.152,-103.592 849.34,-87.1354"/>
<polygon fill="midnightblue" stroke="midnightblue" points="851.571,-89.8417 857.625,-81.1471 847.47,-84.1685 851.571,-89.8417"/>
</g>
<!-- Node22&#45;&gt;Node20 -->
<g id="edge42" class="edge"><title>Node22&#45;&gt;Node20</title>
<path fill="none" stroke="midnightblue" d="M538.367,-235.444C594.513,-224.615 689.967,-206.206 740.429,-196.474"/>
<polygon fill="midnightblue" stroke="midnightblue" points="741.327,-199.866 750.483,-194.535 740.001,-192.992 741.327,-199.866"/>
</g>
<!-- Node23 -->
<g id="node23" class="node"><title>Node23</title>
<g id="a_node23"><a xlink:href="serializer_8h.html" target="_top" xlink:title="Serializer extension to support TVM data types Include this file to enable serialization of DLDataTyp...">
<polygon fill="white" stroke="black" points="260,-179.5 260,-198.5 390,-198.5 390,-179.5 260,-179.5"/>
<text text-anchor="middle" x="325" y="-186.5" font-family="Helvetica,sans-Serif" font-size="10.00">tvm/runtime/serializer.h</text>
</a>
</g>
</g>
<!-- Node22&#45;&gt;Node23 -->
<g id="edge36" class="edge"><title>Node22&#45;&gt;Node23</title>
<path fill="none" stroke="midnightblue" d="M462.133,-235.444C431.709,-226.359 386.379,-211.939 356.188,-201.783"/>
<polygon fill="midnightblue" stroke="midnightblue" points="357.168,-198.42 346.573,-198.516 354.916,-205.047 357.168,-198.42"/>
</g>
<!-- Node23&#45;&gt;Node7 -->
<g id="edge39" class="edge"><title>Node23&#45;&gt;Node7</title>
<path fill="none" stroke="midnightblue" d="M313.726,-179.319C290.084,-161.115 234.77,-118.523 201.572,-92.9606"/>
<polygon fill="midnightblue" stroke="midnightblue" points="203.299,-89.8731 193.241,-86.5453 199.029,-95.4194 203.299,-89.8731"/>
</g>
<!-- Node23&#45;&gt;Node18 -->
<g id="edge37" class="edge"><title>Node23&#45;&gt;Node18</title>
<path fill="none" stroke="midnightblue" d="M348.609,-179.444C373.458,-170.438 412.774,-156.189 440.754,-146.049"/>
<polygon fill="midnightblue" stroke="midnightblue" points="442.292,-149.214 450.501,-142.516 439.907,-142.633 442.292,-149.214"/>
</g>
<!-- Node23&#45;&gt;Node22 -->
<g id="edge40" class="edge"><title>Node23&#45;&gt;Node22</title>
<path fill="none" stroke="midnightblue" d="M356.733,-198.516C387.113,-207.585 432.444,-222.004 462.679,-232.172"/>
<polygon fill="midnightblue" stroke="midnightblue" points="461.716,-235.541 472.31,-235.444 463.967,-228.913 461.716,-235.541"/>
</g>
<!-- Node24 -->
<g id="node24" class="node"><title>Node24</title>
<polygon fill="white" stroke="#bfbfbf" points="298,-123.5 298,-142.5 392,-142.5 392,-123.5 298,-123.5"/>
<text text-anchor="middle" x="345" y="-130.5" font-family="Helvetica,sans-Serif" font-size="10.00">dmlc/serializer.h</text>
</g>
<!-- Node23&#45;&gt;Node24 -->
<g id="edge38" class="edge"><title>Node23&#45;&gt;Node24</title>
<path fill="none" stroke="midnightblue" d="M328.303,-179.083C330.982,-171.849 334.849,-161.409 338.186,-152.397"/>
<polygon fill="midnightblue" stroke="midnightblue" points="341.568,-153.344 341.759,-142.751 335.004,-150.913 341.568,-153.344"/>
</g>
<!-- Node25&#45;&gt;Node3 -->
<g id="edge46" class="edge"><title>Node25&#45;&gt;Node3</title>
<path fill="none" stroke="midnightblue" d="M246.939,-235.317C245.706,-222.591 244.581,-198.294 251,-179 260.495,-150.46 263.369,-138.74 289,-123 345.285,-88.4355 537.28,-77.3461 631.698,-73.936"/>
<polygon fill="midnightblue" stroke="midnightblue" points="632.02,-77.4271 641.893,-73.584 631.778,-70.4313 632.02,-77.4271"/>
</g>
<!-- Node25&#45;&gt;Node7 -->
<g id="edge45" class="edge"><title>Node25&#45;&gt;Node7</title>
<path fill="none" stroke="midnightblue" d="M198.226,-235.45C177.172,-229.104 154.634,-218.089 142,-199 123.357,-170.833 132.36,-155.373 142,-123 144.973,-113.017 150.616,-103.169 156.406,-94.8578"/>
<polygon fill="midnightblue" stroke="midnightblue" points="159.231,-96.925 162.388,-86.8115 153.613,-92.7487 159.231,-96.925"/>
</g>
<!-- Node25&#45;&gt;Node11 -->
<g id="edge47" class="edge"><title>Node25&#45;&gt;Node11</title>
<path fill="none" stroke="midnightblue" d="M285.924,-235.433C385.724,-213.221 664.147,-153.389 899,-123 1139.59,-91.8693 1430.38,-78.325 1539.65,-74.0754"/>
<polygon fill="midnightblue" stroke="midnightblue" points="1539.79,-77.5727 1549.65,-73.6929 1539.53,-70.5778 1539.79,-77.5727"/>
</g>
<!-- Node30&#45;&gt;Node5 -->
<g id="edge105" class="edge"><title>Node30&#45;&gt;Node5</title>
<path fill="none" stroke="midnightblue" d="M1280.74,-712.753C1439.75,-707.128 2034,-680.958 2034,-604 2034,-604 2034,-604 2034,-490 2034,-433.785 1864.24,-396.16 1767.14,-379.237"/>
<polygon fill="midnightblue" stroke="midnightblue" points="1767.56,-375.758 1757.11,-377.518 1766.38,-382.657 1767.56,-375.758"/>
</g>
<!-- Node30&#45;&gt;Node6 -->
<g id="edge64" class="edge"><title>Node30&#45;&gt;Node6</title>
<path fill="none" stroke="midnightblue" d="M1203.5,-714.372C1005.8,-715.788 114,-715.97 114,-604 114,-604 114,-604 114,-428.5 114,-339.675 97.5577,-293.951 164,-235 208.949,-195.119 372.617,-208.194 432,-199 482.835,-191.13 495.063,-186.182 546,-179 669.674,-161.562 814.64,-147.448 898.152,-139.928"/>
<polygon fill="midnightblue" stroke="midnightblue" points="898.627,-143.399 908.275,-139.021 898.002,-136.427 898.627,-143.399"/>
</g>
<!-- Node30&#45;&gt;Node11 -->
<g id="edge120" class="edge"><title>Node30&#45;&gt;Node11</title>
<path fill="none" stroke="midnightblue" d="M1280.77,-713.627C1458.4,-711.417 2186,-696.708 2186,-604 2186,-604 2186,-604 2186,-490 2186,-273.3 2067.45,-200.298 1865,-123 1785.01,-92.4574 1685.02,-80.1397 1628.45,-75.3583"/>
<polygon fill="midnightblue" stroke="midnightblue" points="1628.65,-71.8635 1618.4,-74.5505 1628.09,-78.841 1628.65,-71.8635"/>
</g>
<!-- Node30&#45;&gt;Node12 -->
<g id="edge117" class="edge"><title>Node30&#45;&gt;Node12</title>
<path fill="none" stroke="midnightblue" d="M1280.79,-713.891C1424.52,-713.184 1926.46,-707.919 2081,-669 2137.68,-654.725 2161.05,-656.588 2200,-613 2257.08,-549.121 2262,-516.164 2262,-430.5 2262,-430.5 2262,-430.5 2262,-188 2262,-121.075 2171.34,-90.5186 2121.28,-78.7469"/>
<polygon fill="midnightblue" stroke="midnightblue" points="2121.78,-75.2732 2111.26,-76.5138 2120.26,-82.1055 2121.78,-75.2732"/>
</g>
<!-- Node30&#45;&gt;Node28 -->
<g id="edge119" class="edge"><title>Node30&#45;&gt;Node28</title>
<path fill="none" stroke="midnightblue" d="M1203.32,-713.335C1032.59,-709.9 355,-690.8 355,-604 355,-604 355,-604 355,-367 355,-330.714 355,-288.307 355,-264.559"/>
<polygon fill="midnightblue" stroke="midnightblue" points="358.5,-264.509 355,-254.509 351.5,-264.509 358.5,-264.509"/>
</g>
<!-- Node31 -->
<g id="node31" class="node"><title>Node31</title>
<g id="a_node31"><a xlink:href="node_8h.html" target="_top" xlink:title="Definitions and helper macros for IR/AST nodes. ">
<polygon fill="white" stroke="black" points="1281,-537.5 1281,-556.5 1379,-556.5 1379,-537.5 1281,-537.5"/>
<text text-anchor="middle" x="1330" y="-544.5" font-family="Helvetica,sans-Serif" font-size="10.00">tvm/node/node.h</text>
</a>
</g>
</g>
<!-- Node30&#45;&gt;Node31 -->
<g id="edge65" class="edge"><title>Node30&#45;&gt;Node31</title>
<path fill="none" stroke="midnightblue" d="M1226.56,-705.434C1192.69,-685.558 1117.36,-634.809 1150,-593 1164.87,-573.959 1224.11,-561.782 1270.62,-554.963"/>
<polygon fill="midnightblue" stroke="midnightblue" points="1271.21,-558.413 1280.63,-553.548 1270.23,-551.482 1271.21,-558.413"/>
</g>
<!-- Node38 -->
<g id="node38" class="node"><title>Node38</title>
<g id="a_node38"><a xlink:href="span_8h.html" target="_top" xlink:title="Span information for debugging purposes. ">
<polygon fill="white" stroke="black" points="1159,-593.5 1159,-612.5 1239,-612.5 1239,-593.5 1159,-593.5"/>
<text text-anchor="middle" x="1199" y="-600.5" font-family="Helvetica,sans-Serif" font-size="10.00">tvm/ir/span.h</text>
</a>
</g>
</g>
<!-- Node30&#45;&gt;Node38 -->
<g id="edge106" class="edge"><title>Node30&#45;&gt;Node38</title>
<path fill="none" stroke="midnightblue" d="M1230.9,-705.362C1221.31,-697.166 1208.07,-683.911 1202,-669 1196.07,-654.432 1195.71,-636.486 1196.6,-623.144"/>
<polygon fill="midnightblue" stroke="midnightblue" points="1200.12,-623.097 1197.61,-612.805 1193.16,-622.418 1200.12,-623.097"/>
</g>
<!-- Node39 -->
<g id="node39" class="node"><title>Node39</title>
<g id="a_node39"><a xlink:href="ir_2type_8h.html" target="_top" xlink:title="IR/AST nodes for the unified type system in TVM. ">
<polygon fill="white" stroke="black" points="1291.5,-649.5 1291.5,-668.5 1368.5,-668.5 1368.5,-649.5 1291.5,-649.5"/>
<text text-anchor="middle" x="1330" y="-656.5" font-family="Helvetica,sans-Serif" font-size="10.00">tvm/ir/type.h</text>
</a>
</g>
</g>
<!-- Node30&#45;&gt;Node39 -->
<g id="edge110" class="edge"><title>Node30&#45;&gt;Node39</title>
<path fill="none" stroke="midnightblue" d="M1256.14,-705.324C1269.87,-696.9 1290.94,-683.971 1307.06,-674.074"/>
<polygon fill="midnightblue" stroke="midnightblue" points="1309.2,-676.868 1315.9,-668.655 1305.54,-670.902 1309.2,-676.868"/>
</g>
<!-- Node40 -->
<g id="node40" class="node"><title>Node40</title>
<polygon fill="white" stroke="#bfbfbf" points="1211,-649.5 1211,-668.5 1273,-668.5 1273,-649.5 1211,-649.5"/>
<text text-anchor="middle" x="1242" y="-656.5" font-family="Helvetica,sans-Serif" font-size="10.00">algorithm</text>
</g>
<!-- Node30&#45;&gt;Node40 -->
<g id="edge118" class="edge"><title>Node30&#45;&gt;Node40</title>
<path fill="none" stroke="midnightblue" d="M1242,-705.083C1242,-698.006 1242,-687.861 1242,-678.986"/>
<polygon fill="midnightblue" stroke="midnightblue" points="1245.5,-678.751 1242,-668.751 1238.5,-678.751 1245.5,-678.751"/>
</g>
<!-- Node31&#45;&gt;Node4 -->
<g id="edge103" class="edge"><title>Node31&#45;&gt;Node4</title>
<path fill="none" stroke="midnightblue" d="M1379.19,-542.528C1446.22,-534.818 1558,-510.038 1558,-430.5 1558,-430.5 1558,-430.5 1558,-367 1558,-253.678 1573.71,-192.235 1484,-123 1451.62,-98.0112 1332.67,-82.0874 1275.33,-75.6963"/>
<polygon fill="midnightblue" stroke="midnightblue" points="1275.37,-72.18 1265.05,-74.5795 1274.61,-79.1391 1275.37,-72.18"/>
</g>
<!-- Node31&#45;&gt;Node5 -->
<g id="edge98" class="edge"><title>Node31&#45;&gt;Node5</title>
<path fill="none" stroke="midnightblue" d="M1379.22,-545.442C1430.24,-542.964 1510.93,-533.604 1572,-501 1625.08,-472.664 1669.69,-414.879 1689.71,-386.092"/>
<polygon fill="midnightblue" stroke="midnightblue" points="1692.8,-387.763 1695.53,-377.525 1687.01,-383.83 1692.8,-387.763"/>
</g>
<!-- Node31&#45;&gt;Node6 -->
<g id="edge67" class="edge"><title>Node31&#45;&gt;Node6</title>
<path fill="none" stroke="midnightblue" d="M1280.8,-545.381C1130.75,-543.145 685.727,-533.788 630,-501 604.499,-485.996 602.338,-473.389 594,-445 577.015,-387.17 529.368,-349.23 608,-235 640.897,-187.209 803.682,-156.832 898.369,-142.909"/>
<polygon fill="midnightblue" stroke="midnightblue" points="899.042,-146.348 908.438,-141.453 898.04,-139.421 899.042,-146.348"/>
</g>
<!-- Node31&#45;&gt;Node7 -->
<g id="edge66" class="edge"><title>Node31&#45;&gt;Node7</title>
<path fill="none" stroke="midnightblue" d="M1280.69,-545.641C1039.99,-542.593 0,-513.919 0,-246 0,-246 0,-246 0,-188 0,-135.956 54.5809,-106.019 102.779,-89.7283"/>
<polygon fill="midnightblue" stroke="midnightblue" points="103.874,-93.0526 112.315,-86.6497 101.724,-86.3911 103.874,-93.0526"/>
</g>
<!-- Node31&#45;&gt;Node11 -->
<g id="edge104" class="edge"><title>Node31&#45;&gt;Node11</title>
<path fill="none" stroke="midnightblue" d="M1379.24,-543.529C1533.32,-534.47 1996,-496.64 1996,-369 1996,-369 1996,-369 1996,-305.5 1996,-137.9 1734.48,-89.461 1628.16,-76.6932"/>
<polygon fill="midnightblue" stroke="midnightblue" points="1628.4,-73.1983 1618.07,-75.5333 1627.6,-80.1525 1628.4,-73.1983"/>
</g>
<!-- Node31&#45;&gt;Node12 -->
<g id="edge101" class="edge"><title>Node31&#45;&gt;Node12</title>
<path fill="none" stroke="midnightblue" d="M1379.15,-545.027C1465.58,-542.496 1650.05,-533.42 1802,-501 1878.15,-484.753 1902.89,-487.698 1968,-445 2067.73,-379.602 2148,-365.258 2148,-246 2148,-246 2148,-246 2148,-188 2148,-149.013 2121.01,-109.929 2103.54,-88.7131"/>
<polygon fill="midnightblue" stroke="midnightblue" points="2106.11,-86.3373 2096.96,-81.0085 2100.79,-90.8848 2106.11,-86.3373"/>
</g>
<!-- Node31&#45;&gt;Node14 -->
<g id="edge68" class="edge"><title>Node31&#45;&gt;Node14</title>
<path fill="none" stroke="midnightblue" d="M1379.07,-545.208C1476.96,-540.637 1695.15,-514.802 1789,-378 1825.08,-325.407 1816.99,-284.684 1777,-235 1766.76,-222.277 1752.05,-211.494 1739.42,-203.676"/>
<polygon fill="midnightblue" stroke="midnightblue" points="1741.07,-200.588 1730.68,-198.521 1737.51,-206.617 1741.07,-200.588"/>
</g>
<!-- Node31&#45;&gt;Node20 -->
<g id="edge102" class="edge"><title>Node31&#45;&gt;Node20</title>
<path fill="none" stroke="midnightblue" d="M1280.62,-545.885C1149.3,-545.054 794.048,-539.231 684,-501 642.312,-486.517 622.606,-484.026 602,-445 595.567,-432.816 597.005,-426.841 602,-414 609.869,-393.771 621.196,-394.75 635,-378 685.027,-317.3 738.962,-240.774 762.224,-207.161"/>
<polygon fill="midnightblue" stroke="midnightblue" points="765.148,-209.086 767.943,-198.867 759.385,-205.113 765.148,-209.086"/>
</g>
<!-- Node32 -->
<g id="node32" class="node"><title>Node32</title>
<g id="a_node32"><a xlink:href="reflection_8h.html" target="_top" xlink:title="Reflection and serialization of compiler IR/AST nodes. ">
<polygon fill="white" stroke="black" points="1207.5,-481.5 1207.5,-500.5 1326.5,-500.5 1326.5,-481.5 1207.5,-481.5"/>
<text text-anchor="middle" x="1267" y="-488.5" font-family="Helvetica,sans-Serif" font-size="10.00">tvm/node/reflection.h</text>
</a>
</g>
</g>
<!-- Node31&#45;&gt;Node32 -->
<g id="edge69" class="edge"><title>Node31&#45;&gt;Node32</title>
<path fill="none" stroke="midnightblue" d="M1319.88,-537.324C1310.47,-529.263 1296.26,-517.077 1284.93,-507.369"/>
<polygon fill="midnightblue" stroke="midnightblue" points="1287.18,-504.684 1277.31,-500.834 1282.62,-509.999 1287.18,-504.684"/>
</g>
<!-- Node33 -->
<g id="node33" class="node"><title>Node33</title>
<g id="a_node33"><a xlink:href="structural__equal_8h.html" target="_top" xlink:title="Structural equality comparison. ">
<polygon fill="white" stroke="black" points="1289.5,-414.5 1289.5,-444.5 1400.5,-444.5 1400.5,-414.5 1289.5,-414.5"/>
<text text-anchor="start" x="1297.5" y="-432.5" font-family="Helvetica,sans-Serif" font-size="10.00">tvm/node/structural</text>
<text text-anchor="middle" x="1345" y="-421.5" font-family="Helvetica,sans-Serif" font-size="10.00">_equal.h</text>
</a>
</g>
</g>
<!-- Node31&#45;&gt;Node33 -->
<g id="edge99" class="edge"><title>Node31&#45;&gt;Node33</title>
<path fill="none" stroke="midnightblue" d="M1331.13,-537.319C1333.38,-519.967 1338.51,-480.457 1341.86,-454.658"/>
<polygon fill="midnightblue" stroke="midnightblue" points="1345.36,-454.913 1343.18,-444.545 1338.42,-454.011 1345.36,-454.913"/>
</g>
<!-- Node35 -->
<g id="node35" class="node"><title>Node35</title>
<g id="a_node35"><a xlink:href="structural__hash_8h.html" target="_top" xlink:title="tvm/node/structural\l_hash.h">
<polygon fill="white" stroke="black" points="1418.5,-414.5 1418.5,-444.5 1529.5,-444.5 1529.5,-414.5 1418.5,-414.5"/>
<text text-anchor="start" x="1426.5" y="-432.5" font-family="Helvetica,sans-Serif" font-size="10.00">tvm/node/structural</text>
<text text-anchor="middle" x="1474" y="-421.5" font-family="Helvetica,sans-Serif" font-size="10.00">_hash.h</text>
</a>
</g>
</g>
<!-- Node31&#45;&gt;Node35 -->
<g id="edge100" class="edge"><title>Node31&#45;&gt;Node35</title>
<path fill="none" stroke="midnightblue" d="M1340.82,-537.319C1363.52,-519.115 1416.62,-476.523 1448.49,-450.961"/>
<polygon fill="midnightblue" stroke="midnightblue" points="1450.88,-453.532 1456.49,-444.545 1446.5,-448.072 1450.88,-453.532"/>
</g>
<!-- Node36 -->
<g id="node36" class="node"><title>Node36</title>
<g id="a_node36"><a xlink:href="repr__printer_8h.html" target="_top" xlink:title="Printer class to print repr string of each AST/IR nodes. ">
<polygon fill="white" stroke="black" points="693,-481.5 693,-500.5 823,-500.5 823,-481.5 693,-481.5"/>
<text text-anchor="middle" x="758" y="-488.5" font-family="Helvetica,sans-Serif" font-size="10.00">tvm/node/repr_printer.h</text>
</a>
</g>
</g>
<!-- Node31&#45;&gt;Node36 -->
<g id="edge95" class="edge"><title>Node31&#45;&gt;Node36</title>
<path fill="none" stroke="midnightblue" d="M1280.74,-541.349C1180.55,-531.891 952.471,-510.359 833.452,-499.123"/>
<polygon fill="midnightblue" stroke="midnightblue" points="833.614,-495.623 823.329,-498.167 832.956,-502.592 833.614,-495.623"/>
</g>
<!-- Node32&#45;&gt;Node6 -->
<g id="edge71" class="edge"><title>Node32&#45;&gt;Node6</title>
<path fill="none" stroke="midnightblue" d="M1207.45,-483.825C1111.25,-470.804 921.16,-432.015 809,-322 758.759,-272.72 696.36,-233.405 741,-179 760.671,-155.026 839.4,-143.586 898.443,-138.291"/>
<polygon fill="midnightblue" stroke="midnightblue" points="898.812,-141.772 908.477,-137.432 898.215,-134.797 898.812,-141.772"/>
</g>
<!-- Node32&#45;&gt;Node7 -->
<g id="edge70" class="edge"><title>Node32&#45;&gt;Node7</title>
<path fill="none" stroke="midnightblue" d="M1207.27,-489.869C1083.13,-488.834 801.499,-482.307 714,-445 694.885,-436.85 697.094,-424.219 679,-414 576.001,-355.831 267.594,-323.278 171,-255 121.046,-219.69 109.341,-179.823 132,-123 136.266,-112.301 143.764,-102.252 151.316,-93.9797"/>
<polygon fill="midnightblue" stroke="midnightblue" points="154.004,-96.2366 158.47,-86.6292 148.987,-91.3544 154.004,-96.2366"/>
</g>
<!-- Node32&#45;&gt;Node11 -->
<g id="edge94" class="edge"><title>Node32&#45;&gt;Node11</title>
<path fill="none" stroke="midnightblue" d="M1266.28,-481.171C1265.49,-466.054 1265.88,-434.832 1280,-414 1356,-301.878 1460.28,-364.507 1540,-255 1576.88,-204.339 1583.18,-126.834 1584.03,-91.3827"/>
<polygon fill="midnightblue" stroke="midnightblue" points="1587.54,-91.1106 1584.15,-81.0717 1580.54,-91.0315 1587.54,-91.1106"/>
</g>
<!-- Node32&#45;&gt;Node12 -->
<g id="edge93" class="edge"><title>Node32&#45;&gt;Node12</title>
<path fill="none" stroke="midnightblue" d="M1326.78,-490.711C1442.03,-489.69 1700.15,-475.64 1888,-378 2007.17,-316.056 2036.22,-270.648 2078,-143 2083.53,-126.093 2086.32,-105.969 2087.7,-91.5576"/>
<polygon fill="midnightblue" stroke="midnightblue" points="2091.21,-91.6476 2088.53,-81.3956 2084.23,-91.077 2091.21,-91.6476"/>
</g>
<!-- Node32&#45;&gt;Node14 -->
<g id="edge72" class="edge"><title>Node32&#45;&gt;Node14</title>
<path fill="none" stroke="midnightblue" d="M1326.75,-486.066C1448.06,-476.667 1716.24,-448.236 1769,-378 1807.28,-327.034 1785.68,-292.418 1758,-235 1752.4,-223.395 1742.63,-212.935 1733.71,-205.026"/>
<polygon fill="midnightblue" stroke="midnightblue" points="1735.83,-202.235 1725.91,-198.52 1731.35,-207.612 1735.83,-202.235"/>
</g>
<!-- Node32&#45;&gt;Node16 -->
<g id="edge73" class="edge"><title>Node32&#45;&gt;Node16</title>
<path fill="none" stroke="midnightblue" d="M1262.18,-481.198C1247.33,-454.106 1201.99,-371.351 1179.67,-330.628"/>
<polygon fill="midnightblue" stroke="midnightblue" points="1182.65,-328.783 1174.78,-321.695 1176.51,-332.146 1182.65,-328.783"/>
</g>
<!-- Node32&#45;&gt;Node20 -->
<g id="edge92" class="edge"><title>Node32&#45;&gt;Node20</title>
<path fill="none" stroke="midnightblue" d="M1236.62,-481.452C1166.46,-460.89 989.192,-404.205 859,-322 821.486,-298.313 806.322,-293.907 785,-255 777.179,-240.729 774.653,-222.259 773.952,-208.657"/>
<polygon fill="midnightblue" stroke="midnightblue" points="777.449,-208.49 773.717,-198.575 770.451,-208.654 777.449,-208.49"/>
</g>
<!-- Node32&#45;&gt;Node22 -->
<g id="edge74" class="edge"><title>Node32&#45;&gt;Node22</title>
<path fill="none" stroke="midnightblue" d="M1207.18,-489.872C1129.09,-488.195 988.947,-479.976 875,-445 799.54,-421.838 588.617,-301.063 517.646,-259.82"/>
<polygon fill="midnightblue" stroke="midnightblue" points="518.992,-256.554 508.589,-254.547 515.47,-262.603 518.992,-256.554"/>
</g>
<!-- Node32&#45;&gt;Node25 -->
<g id="edge75" class="edge"><title>Node32&#45;&gt;Node25</title>
<path fill="none" stroke="midnightblue" d="M1207.29,-489.988C1117.82,-488.686 944.278,-481.165 802,-445 706.074,-420.617 689.772,-392.491 597,-358 486.315,-316.85 352.711,-276.506 287.577,-257.423"/>
<polygon fill="midnightblue" stroke="midnightblue" points="288.305,-253.989 277.725,-254.546 286.343,-260.709 288.305,-253.989"/>
</g>
<!-- Node32&#45;&gt;Node33 -->
<g id="edge76" class="edge"><title>Node32&#45;&gt;Node33</title>
<path fill="none" stroke="midnightblue" d="M1278.18,-481.475C1288.64,-473.492 1304.68,-461.254 1318.43,-450.77"/>
<polygon fill="midnightblue" stroke="midnightblue" points="1320.79,-453.371 1326.62,-444.523 1316.54,-447.805 1320.79,-453.371"/>
</g>
<!-- Node32&#45;&gt;Node35 -->
<g id="edge86" class="edge"><title>Node32&#45;&gt;Node35</title>
<path fill="none" stroke="midnightblue" d="M1296.66,-481.475C1327.58,-472.588 1376.84,-458.429 1415.6,-447.286"/>
<polygon fill="midnightblue" stroke="midnightblue" points="1416.57,-450.649 1425.21,-444.523 1414.64,-443.922 1416.57,-450.649"/>
</g>
<!-- Node33&#45;&gt;Node5 -->
<g id="edge84" class="edge"><title>Node33&#45;&gt;Node5</title>
<path fill="none" stroke="midnightblue" d="M1400.8,-415.617C1403.57,-415.053 1406.31,-414.511 1409,-414 1484.62,-399.625 1571.92,-386.64 1631.23,-378.355"/>
<polygon fill="midnightblue" stroke="midnightblue" points="1631.81,-381.808 1641.23,-376.965 1630.85,-374.874 1631.81,-381.808"/>
</g>
<!-- Node33&#45;&gt;Node12 -->
<g id="edge85" class="edge"><title>Node33&#45;&gt;Node12</title>
<path fill="none" stroke="midnightblue" d="M1400.77,-415.44C1403.55,-414.923 1406.3,-414.439 1409,-414 1567.71,-388.186 1622.85,-445.045 1769,-378 1917.84,-309.723 2040.71,-143.283 2077.64,-89.5376"/>
<polygon fill="midnightblue" stroke="midnightblue" points="2080.63,-91.3617 2083.35,-81.1211 2074.84,-87.4323 2080.63,-91.3617"/>
</g>
<!-- Node33&#45;&gt;Node25 -->
<g id="edge77" class="edge"><title>Node33&#45;&gt;Node25</title>
<path fill="none" stroke="midnightblue" d="M1289.11,-420.079C1175.01,-402.763 907.13,-361.464 683,-322 610.804,-309.288 593.171,-303.851 521,-291 449.656,-278.296 367.592,-264.938 312.219,-256.108"/>
<polygon fill="midnightblue" stroke="midnightblue" points="312.625,-252.628 302.199,-254.513 311.524,-259.541 312.625,-252.628"/>
</g>
<!-- Node34 -->
<g id="node34" class="node"><title>Node34</title>
<g id="a_node34"><a xlink:href="functor_8h.html" target="_top" xlink:title="Defines the Functor data structures. ">
<polygon fill="white" stroke="black" points="840.5,-235.5 840.5,-254.5 947.5,-254.5 947.5,-235.5 840.5,-235.5"/>
<text text-anchor="middle" x="894" y="-242.5" font-family="Helvetica,sans-Serif" font-size="10.00">tvm/node/functor.h</text>
</a>
</g>
</g>
<!-- Node33&#45;&gt;Node34 -->
<g id="edge78" class="edge"><title>Node33&#45;&gt;Node34</title>
<path fill="none" stroke="midnightblue" d="M1306.7,-414.394C1253.05,-394.493 1152.6,-356.721 1068,-322 1016.23,-300.756 956.617,-274.271 922.319,-258.835"/>
<polygon fill="midnightblue" stroke="midnightblue" points="923.489,-255.523 912.934,-254.602 920.611,-261.904 923.489,-255.523"/>
</g>
<!-- Node34&#45;&gt;Node3 -->
<g id="edge79" class="edge"><title>Node34&#45;&gt;Node3</title>
<path fill="none" stroke="midnightblue" d="M885.11,-235.275C870.133,-221.106 838.326,-193.251 806,-179 730.151,-145.562 675.654,-207.021 623,-143 606.291,-122.684 635.288,-99.9654 659.005,-85.947"/>
<polygon fill="midnightblue" stroke="midnightblue" points="660.741,-88.9863 667.73,-81.0235 657.301,-82.89 660.741,-88.9863"/>
</g>
<!-- Node34&#45;&gt;Node4 -->
<g id="edge83" class="edge"><title>Node34&#45;&gt;Node4</title>
<path fill="none" stroke="midnightblue" d="M908.227,-235.442C942.985,-214.713 1035.28,-160.745 1116,-123 1148.62,-107.746 1187.21,-92.9464 1213.42,-83.3551"/>
<polygon fill="midnightblue" stroke="midnightblue" points="1214.62,-86.6444 1222.82,-79.9441 1212.23,-80.064 1214.62,-86.6444"/>
</g>
<!-- Node34&#45;&gt;Node6 -->
<g id="edge80" class="edge"><title>Node34&#45;&gt;Node6</title>
<path fill="none" stroke="midnightblue" d="M899.728,-235.368C911.775,-217.215 939.923,-174.802 955.725,-150.99"/>
<polygon fill="midnightblue" stroke="midnightblue" points="958.685,-152.859 961.298,-142.591 952.853,-148.988 958.685,-152.859"/>
</g>
<!-- Node34&#45;&gt;Node11 -->
<g id="edge82" class="edge"><title>Node34&#45;&gt;Node11</title>
<path fill="none" stroke="midnightblue" d="M926.984,-235.486C975.561,-222.971 1069.22,-198.934 1149,-179 1291.76,-143.331 1461.18,-102.196 1539.82,-83.17"/>
<polygon fill="midnightblue" stroke="midnightblue" points="1540.96,-86.4962 1549.85,-80.7436 1539.31,-79.6924 1540.96,-86.4962"/>
</g>
<!-- Node34&#45;&gt;Node20 -->
<g id="edge81" class="edge"><title>Node34&#45;&gt;Node20</title>
<path fill="none" stroke="midnightblue" d="M874.986,-235.444C855.412,-226.636 824.692,-212.812 802.271,-202.722"/>
<polygon fill="midnightblue" stroke="midnightblue" points="803.481,-199.428 792.925,-198.516 800.608,-205.812 803.481,-199.428"/>
</g>
<!-- Node35&#45;&gt;Node5 -->
<g id="edge89" class="edge"><title>Node35&#45;&gt;Node5</title>
<path fill="none" stroke="midnightblue" d="M1527.51,-414.475C1567.53,-403.986 1621.51,-389.837 1658.57,-380.122"/>
<polygon fill="midnightblue" stroke="midnightblue" points="1659.76,-383.428 1668.55,-377.506 1657.99,-376.656 1659.76,-383.428"/>
</g>
<!-- Node35&#45;&gt;Node12 -->
<g id="edge90" class="edge"><title>Node35&#45;&gt;Node12</title>
<path fill="none" stroke="midnightblue" d="M1529.74,-425.805C1622.04,-420.58 1802,-406.945 1858,-378 1983.15,-313.311 2059.37,-146.438 2081.93,-90.8341"/>
<polygon fill="midnightblue" stroke="midnightblue" points="2085.3,-91.8462 2085.73,-81.2601 2078.79,-89.267 2085.3,-91.8462"/>
</g>
<!-- Node35&#45;&gt;Node25 -->
<g id="edge87" class="edge"><title>Node35&#45;&gt;Node25</title>
<path fill="none" stroke="midnightblue" d="M1418.38,-415.841C1415.21,-415.198 1412.07,-414.579 1409,-414 1058.54,-347.804 969.279,-339.985 616,-291 561.769,-283.48 417.101,-266.082 326.144,-255.256"/>
<polygon fill="midnightblue" stroke="midnightblue" points="326.492,-251.773 316.149,-254.067 325.665,-258.724 326.492,-251.773"/>
</g>
<!-- Node35&#45;&gt;Node26 -->
<g id="edge91" class="edge"><title>Node35&#45;&gt;Node26</title>
<path fill="none" stroke="midnightblue" d="M1473.39,-414.483C1471.97,-382.097 1468.46,-302.037 1466.84,-265.159"/>
<polygon fill="midnightblue" stroke="midnightblue" points="1470.32,-264.656 1466.39,-254.819 1463.33,-264.962 1470.32,-264.656"/>
</g>
<!-- Node35&#45;&gt;Node34 -->
<g id="edge88" class="edge"><title>Node35&#45;&gt;Node34</title>
<path fill="none" stroke="midnightblue" d="M1426.1,-414.415C1377.12,-400.059 1298.83,-377.231 1231,-358 1173.32,-341.647 1156.41,-344.888 1101,-322 1075.07,-311.288 1071.84,-301.941 1046,-291 1011.96,-276.587 971.797,-264.91 941.307,-257.066"/>
<polygon fill="midnightblue" stroke="midnightblue" points="941.913,-253.61 931.36,-254.555 940.199,-260.397 941.913,-253.61"/>
</g>
<!-- Node36&#45;&gt;Node34 -->
<g id="edge96" class="edge"><title>Node36&#45;&gt;Node34</title>
<path fill="none" stroke="midnightblue" d="M762.84,-481.316C782.587,-445.888 857.279,-311.883 884.228,-263.531"/>
<polygon fill="midnightblue" stroke="midnightblue" points="887.406,-265.019 889.218,-254.58 881.292,-261.611 887.406,-265.019"/>
</g>
<!-- Node37 -->
<g id="node37" class="node"><title>Node37</title>
<polygon fill="white" stroke="#bfbfbf" points="611.5,-420 611.5,-439 670.5,-439 670.5,-420 611.5,-420"/>
<text text-anchor="middle" x="641" y="-427" font-family="Helvetica,sans-Serif" font-size="10.00">iostream</text>
</g>
<!-- Node36&#45;&gt;Node37 -->
<g id="edge97" class="edge"><title>Node36&#45;&gt;Node37</title>
<path fill="none" stroke="midnightblue" d="M741.237,-481.475C721.775,-471.578 689.455,-455.142 666.789,-443.615"/>
<polygon fill="midnightblue" stroke="midnightblue" points="668.232,-440.422 657.732,-439.009 665.059,-446.662 668.232,-440.422"/>
</g>
<!-- Node38&#45;&gt;Node6 -->
<g id="edge107" class="edge"><title>Node38&#45;&gt;Node6</title>
<path fill="none" stroke="midnightblue" d="M1158.81,-599.988C1061.09,-594.078 804.349,-572.412 604,-501 395.514,-426.687 282.332,-446.295 171,-255 128.618,-182.178 463.155,-214.36 546,-199 578.655,-192.945 585.448,-185.585 618,-179 714.309,-159.518 827.363,-146.753 898.104,-139.955"/>
<polygon fill="midnightblue" stroke="midnightblue" points="898.602,-143.424 908.227,-138.996 897.942,-136.455 898.602,-143.424"/>
</g>
<!-- Node38&#45;&gt;Node12 -->
<g id="edge109" class="edge"><title>Node38&#45;&gt;Node12</title>
<path fill="none" stroke="midnightblue" d="M1239.03,-602.088C1361.43,-600.777 1738.68,-584.892 2007,-445 2112.48,-390.004 2186,-364.96 2186,-246 2186,-246 2186,-246 2186,-188 2186,-142.634 2141.57,-105.772 2112.85,-86.682"/>
<polygon fill="midnightblue" stroke="midnightblue" points="2114.47,-83.5593 2104.16,-81.1201 2110.7,-89.4565 2114.47,-83.5593"/>
</g>
<!-- Node38&#45;&gt;Node31 -->
<g id="edge108" class="edge"><title>Node38&#45;&gt;Node31</title>
<path fill="none" stroke="midnightblue" d="M1219.76,-593.444C1241.32,-584.557 1275.26,-570.563 1299.79,-560.451"/>
<polygon fill="midnightblue" stroke="midnightblue" points="1301.43,-563.563 1309.34,-556.516 1298.76,-557.092 1301.43,-563.563"/>
</g>
<!-- Node39&#45;&gt;Node5 -->
<g id="edge114" class="edge"><title>Node39&#45;&gt;Node5</title>
<path fill="none" stroke="midnightblue" d="M1355.44,-649.498C1418.9,-626.953 1585.14,-559.41 1670,-445 1682.97,-427.517 1691.5,-403.84 1696.27,-387.584"/>
<polygon fill="midnightblue" stroke="midnightblue" points="1699.71,-388.253 1698.98,-377.684 1692.96,-386.404 1699.71,-388.253"/>
</g>
<!-- Node39&#45;&gt;Node6 -->
<g id="edge111" class="edge"><title>Node39&#45;&gt;Node6</title>
<path fill="none" stroke="midnightblue" d="M1318.55,-649.332C1291.25,-627.844 1222.76,-568.918 1198,-501 1194.96,-492.649 1195.55,-489.545 1198,-481 1240.78,-331.654 1477.64,-294.729 1374,-179 1351.9,-154.317 1146.14,-141.719 1035.94,-136.695"/>
<polygon fill="midnightblue" stroke="midnightblue" points="1036.05,-133.197 1025.91,-136.247 1035.74,-140.19 1036.05,-133.197"/>
</g>
<!-- Node39&#45;&gt;Node12 -->
<g id="edge116" class="edge"><title>Node39&#45;&gt;Node12</title>
<path fill="none" stroke="midnightblue" d="M1368.7,-654.115C1540.29,-635.844 2224,-551.589 2224,-369 2224,-369 2224,-369 2224,-188 2224,-133.859 2160.53,-99.6629 2120.63,-83.514"/>
<polygon fill="midnightblue" stroke="midnightblue" points="2121.88,-80.2443 2111.29,-79.8865 2119.35,-86.7694 2121.88,-80.2443"/>
</g>
<!-- Node39&#45;&gt;Node25 -->
<g id="edge112" class="edge"><title>Node39&#45;&gt;Node25</title>
<path fill="none" stroke="midnightblue" d="M1291.26,-650.519C1288.13,-649.981 1285.02,-649.467 1282,-649 949.687,-597.544 829.706,-711.448 531,-557 393.035,-485.664 288.923,-318.092 257.687,-263.517"/>
<polygon fill="midnightblue" stroke="midnightblue" points="260.67,-261.682 252.711,-254.69 254.573,-265.12 260.67,-261.682"/>
</g>
<!-- Node39&#45;&gt;Node31 -->
<g id="edge113" class="edge"><title>Node39&#45;&gt;Node31</title>
<path fill="none" stroke="midnightblue" d="M1330,-649.368C1330,-631.617 1330,-590.666 1330,-566.597"/>
<polygon fill="midnightblue" stroke="midnightblue" points="1333.5,-566.591 1330,-556.591 1326.5,-566.591 1333.5,-566.591"/>
</g>
<!-- Node39&#45;&gt;Node38 -->
<g id="edge115" class="edge"><title>Node39&#45;&gt;Node38</title>
<path fill="none" stroke="midnightblue" d="M1309.24,-649.444C1287.68,-640.557 1253.74,-626.563 1229.21,-616.451"/>
<polygon fill="midnightblue" stroke="midnightblue" points="1230.24,-613.092 1219.66,-612.516 1227.57,-619.563 1230.24,-613.092"/>
</g>
</g>
</svg>
