<?xml version="1.0" encoding="UTF-8" standalone="no"?>
<!DOCTYPE svg PUBLIC "-//W3C//DTD SVG 1.1//EN"
 "http://www.w3.org/Graphics/SVG/1.1/DTD/svg11.dtd">
<!-- Generated by graphviz version 2.38.0 (20140413.2041)
 -->
<!-- Title: include/tvm/te/tensor.h Pages: 1 -->
<svg width="2712pt" height="957pt"
 viewBox="0.00 0.00 2712.00 957.00" xmlns="http://www.w3.org/2000/svg" xmlns:xlink="http://www.w3.org/1999/xlink">
<g id="graph0" class="graph" transform="scale(1 1) rotate(0) translate(4 953)">
<title>include/tvm/te/tensor.h</title>
<polygon fill="white" stroke="none" points="-4,4 -4,-953 2708,-953 2708,4 -4,4"/>
<!-- Node1 -->
<g id="node1" class="node"><title>Node1</title>
<polygon fill="#bfbfbf" stroke="black" points="2222.5,-929.5 2222.5,-948.5 2349.5,-948.5 2349.5,-929.5 2222.5,-929.5"/>
<text text-anchor="middle" x="2286" y="-936.5" font-family="Helvetica,sans-Serif" font-size="10.00">include/tvm/te/tensor.h</text>
</g>
<!-- Node2 -->
<g id="node2" class="node"><title>Node2</title>
<g id="a_node2"><a xlink:href="node_2container_8h.html" target="_top" xlink:title="Array/Map container in the DSL graph. ">
<polygon fill="white" stroke="black" points="1637.5,-358.5 1637.5,-377.5 1756.5,-377.5 1756.5,-358.5 1637.5,-358.5"/>
<text text-anchor="middle" x="1697" y="-365.5" font-family="Helvetica,sans-Serif" font-size="10.00">tvm/node/container.h</text>
</a>
</g>
</g>
<!-- Node1&#45;&gt;Node2 -->
<g id="edge1" class="edge"><title>Node1&#45;&gt;Node2</title>
<path fill="none" stroke="midnightblue" d="M2307.28,-929.403C2340.76,-914.299 2402,-879.622 2402,-828 2402,-828 2402,-828 2402,-714 2402,-432.958 1944.41,-380.829 1766.54,-371.182"/>
<polygon fill="midnightblue" stroke="midnightblue" points="1766.67,-367.684 1756.5,-370.667 1766.31,-374.675 1766.67,-367.684"/>
</g>
<!-- Node9 -->
<g id="node9" class="node"><title>Node9</title>
<polygon fill="white" stroke="#bfbfbf" points="2400,-62 2400,-81 2468,-81 2468,-62 2400,-62"/>
<text text-anchor="middle" x="2434" y="-69" font-family="Helvetica,sans-Serif" font-size="10.00">type_traits</text>
</g>
<!-- Node1&#45;&gt;Node9 -->
<g id="edge155" class="edge"><title>Node1&#45;&gt;Node9</title>
<path fill="none" stroke="midnightblue" d="M2349.94,-934.418C2467.03,-926.096 2704,-900.32 2704,-828 2704,-828 2704,-828 2704,-188 2704,-91.0998 2555.18,-74.4189 2478.51,-72.2545"/>
<polygon fill="midnightblue" stroke="midnightblue" points="2478.27,-68.7487 2468.2,-72.0386 2478.12,-75.7472 2478.27,-68.7487"/>
</g>
<!-- Node10 -->
<g id="node10" class="node"><title>Node10</title>
<polygon fill="white" stroke="#bfbfbf" points="456,-62 456,-81 500,-81 500,-62 456,-62"/>
<text text-anchor="middle" x="478" y="-69" font-family="Helvetica,sans-Serif" font-size="10.00">string</text>
</g>
<!-- Node1&#45;&gt;Node10 -->
<g id="edge152" class="edge"><title>Node1&#45;&gt;Node10</title>
<path fill="none" stroke="midnightblue" d="M2222.47,-938.351C1853.27,-939.984 0,-942.482 0,-828 0,-828 0,-828 0,-188 0,-144.889 32.7964,-140.934 72,-123 138.675,-92.4984 361.856,-78.3496 445.752,-74.0152"/>
<polygon fill="midnightblue" stroke="midnightblue" points="446.145,-77.4999 455.956,-73.5013 445.793,-70.5088 446.145,-77.4999"/>
</g>
<!-- Node11 -->
<g id="node11" class="node"><title>Node11</title>
<polygon fill="white" stroke="#bfbfbf" points="2038,-62 2038,-81 2080,-81 2080,-62 2038,-62"/>
<text text-anchor="middle" x="2059" y="-69" font-family="Helvetica,sans-Serif" font-size="10.00">utility</text>
</g>
<!-- Node1&#45;&gt;Node11 -->
<g id="edge154" class="edge"><title>Node1&#45;&gt;Node11</title>
<path fill="none" stroke="midnightblue" d="M2349.54,-932.734C2394.81,-927.166 2456.22,-915.842 2506,-893 2548.9,-873.314 2590,-875.205 2590,-828 2590,-828 2590,-828 2590,-305.5 2590,-85.8227 2204.2,-71.3562 2090.3,-71.872"/>
<polygon fill="midnightblue" stroke="midnightblue" points="2090.11,-68.3734 2080.14,-71.9623 2090.17,-75.3731 2090.11,-68.3734"/>
</g>
<!-- Node19 -->
<g id="node19" class="node"><title>Node19</title>
<polygon fill="white" stroke="#bfbfbf" points="1756.5,-179.5 1756.5,-198.5 1803.5,-198.5 1803.5,-179.5 1756.5,-179.5"/>
<text text-anchor="middle" x="1780" y="-186.5" font-family="Helvetica,sans-Serif" font-size="10.00">vector</text>
</g>
<!-- Node1&#45;&gt;Node19 -->
<g id="edge153" class="edge"><title>Node1&#45;&gt;Node19</title>
<path fill="none" stroke="midnightblue" d="M2349.76,-934.197C2417.83,-926.28 2516,-902.029 2516,-828 2516,-828 2516,-828 2516,-658 2516,-488.5 1953.12,-257.543 1811.86,-202.251"/>
<polygon fill="midnightblue" stroke="midnightblue" points="1813.02,-198.946 1802.43,-198.576 1810.48,-205.469 1813.02,-198.946"/>
</g>
<!-- Node29 -->
<g id="node29" class="node"><title>Node29</title>
<g id="a_node29"><a xlink:href="bound_8h.html" target="_top" xlink:title="Bound deducers. ">
<polygon fill="white" stroke="black" points="1030,-873.5 1030,-892.5 1132,-892.5 1132,-873.5 1030,-873.5"/>
<text text-anchor="middle" x="1081" y="-880.5" font-family="Helvetica,sans-Serif" font-size="10.00">tvm/arith/bound.h</text>
</a>
</g>
</g>
<!-- Node1&#45;&gt;Node29 -->
<g id="edge60" class="edge"><title>Node1&#45;&gt;Node29</title>
<path fill="none" stroke="midnightblue" d="M2222.49,-935.154C2013.41,-925.784 1348.25,-895.976 1142.35,-886.749"/>
<polygon fill="midnightblue" stroke="midnightblue" points="1142.46,-883.251 1132.32,-886.3 1142.15,-890.244 1142.46,-883.251"/>
</g>
<!-- Node42 -->
<g id="node42" class="node"><title>Node42</title>
<g id="a_node42"><a xlink:href="tir_2expr_8h.html" target="_top" xlink:title="TIR expressions. ">
<polygon fill="white" stroke="black" points="869,-761.5 869,-780.5 949,-780.5 949,-761.5 869,-761.5"/>
<text text-anchor="middle" x="909" y="-768.5" font-family="Helvetica,sans-Serif" font-size="10.00">tvm/tir/expr.h</text>
</a>
</g>
</g>
<!-- Node1&#45;&gt;Node42 -->
<g id="edge144" class="edge"><title>Node1&#45;&gt;Node42</title>
<path fill="none" stroke="midnightblue" d="M2222.5,-937.787C1999.96,-936.721 1256.21,-930.38 1021,-893 931.948,-878.847 880.251,-909.024 826,-837 809.132,-814.606 842.169,-795.738 871.427,-784.195"/>
<polygon fill="midnightblue" stroke="midnightblue" points="872.987,-787.349 881.127,-780.567 870.534,-780.793 872.987,-787.349"/>
</g>
<!-- Node44 -->
<g id="node44" class="node"><title>Node44</title>
<g id="a_node44"><a xlink:href="tir_2op_8h.html" target="_top" xlink:title="Common operators defined for Expr. ">
<polygon fill="white" stroke="black" points="2134,-873.5 2134,-892.5 2206,-892.5 2206,-873.5 2134,-873.5"/>
<text text-anchor="middle" x="2170" y="-880.5" font-family="Helvetica,sans-Serif" font-size="10.00">tvm/tir/op.h</text>
</a>
</g>
</g>
<!-- Node1&#45;&gt;Node44 -->
<g id="edge145" class="edge"><title>Node1&#45;&gt;Node44</title>
<path fill="none" stroke="midnightblue" d="M2267.62,-929.444C2248.78,-920.675 2219.27,-906.935 2197.62,-896.858"/>
<polygon fill="midnightblue" stroke="midnightblue" points="2198.84,-893.564 2188.29,-892.516 2195.88,-899.91 2198.84,-893.564"/>
</g>
<!-- Node3 -->
<g id="node3" class="node"><title>Node3</title>
<g id="a_node3"><a xlink:href="object_8h.html" target="_top" xlink:title="A managed object in the TVM runtime. ">
<polygon fill="white" stroke="black" points="1513.5,-123.5 1513.5,-142.5 1630.5,-142.5 1630.5,-123.5 1513.5,-123.5"/>
<text text-anchor="middle" x="1572" y="-130.5" font-family="Helvetica,sans-Serif" font-size="10.00">tvm/runtime/object.h</text>
</a>
</g>
</g>
<!-- Node2&#45;&gt;Node3 -->
<g id="edge2" class="edge"><title>Node2&#45;&gt;Node3</title>
<path fill="none" stroke="midnightblue" d="M1703.89,-358.319C1710.27,-349.684 1719.31,-335.77 1723,-322 1736.39,-272.042 1690.24,-180.333 1689,-179 1673.77,-162.629 1651.93,-152.15 1631.22,-145.471"/>
<polygon fill="midnightblue" stroke="midnightblue" points="1632.09,-142.077 1621.51,-142.576 1630.09,-148.786 1632.09,-142.077"/>
</g>
<!-- Node2&#45;&gt;Node9 -->
<g id="edge54" class="edge"><title>Node2&#45;&gt;Node9</title>
<path fill="none" stroke="midnightblue" d="M1756.58,-367.753C1832.43,-366.957 1966.52,-359.617 2074,-322 2216.6,-272.089 2244.41,-236.61 2363,-143 2384.17,-126.291 2405.77,-103.92 2419.5,-88.8996"/>
<polygon fill="midnightblue" stroke="midnightblue" points="2422.17,-91.1658 2426.26,-81.3937 2416.97,-86.48 2422.17,-91.1658"/>
</g>
<!-- Node2&#45;&gt;Node10 -->
<g id="edge59" class="edge"><title>Node2&#45;&gt;Node10</title>
<path fill="none" stroke="midnightblue" d="M1637.45,-366.385C1456.47,-364.165 920.893,-354.859 850,-322 801.792,-299.655 807.716,-270.298 768,-235 705.545,-179.492 690.593,-162.569 617,-123 582.157,-104.266 538.904,-89.7893 509.986,-81.2317"/>
<polygon fill="midnightblue" stroke="midnightblue" points="510.601,-77.7663 500.022,-78.3498 508.656,-84.4906 510.601,-77.7663"/>
</g>
<!-- Node2&#45;&gt;Node11 -->
<g id="edge58" class="edge"><title>Node2&#45;&gt;Node11</title>
<path fill="none" stroke="midnightblue" d="M1754.46,-358.489C1850.6,-342.945 2037.34,-306.733 2076,-255 2093.03,-232.211 2054.9,-225.67 2045,-199 2031.4,-162.37 2043.27,-115.987 2051.91,-90.8017"/>
<polygon fill="midnightblue" stroke="midnightblue" points="2055.3,-91.7079 2055.44,-81.1139 2048.73,-89.3108 2055.3,-91.7079"/>
</g>
<!-- Node13 -->
<g id="node13" class="node"><title>Node13</title>
<g id="a_node13"><a xlink:href="runtime_2memory_8h.html" target="_top" xlink:title="Runtime memory management. ">
<polygon fill="white" stroke="black" points="2054.5,-179.5 2054.5,-198.5 2181.5,-198.5 2181.5,-179.5 2054.5,-179.5"/>
<text text-anchor="middle" x="2118" y="-186.5" font-family="Helvetica,sans-Serif" font-size="10.00">tvm/runtime/memory.h</text>
</a>
</g>
</g>
<!-- Node2&#45;&gt;Node13 -->
<g id="edge12" class="edge"><title>Node2&#45;&gt;Node13</title>
<path fill="none" stroke="midnightblue" d="M1756.64,-359.482C1851.74,-347.432 2027.74,-324.853 2034,-322 2074.97,-303.325 2088.99,-294.829 2110,-255 2117.54,-240.701 2119.17,-222.234 2119.13,-208.64"/>
<polygon fill="midnightblue" stroke="midnightblue" points="2122.63,-208.444 2118.8,-198.566 2115.63,-208.676 2122.63,-208.444"/>
</g>
<!-- Node15 -->
<g id="node15" class="node"><title>Node15</title>
<g id="a_node15"><a xlink:href="packed__func_8h.html" target="_top" xlink:title="Type&#45;erased function used across TVM API. ">
<polygon fill="white" stroke="black" points="859.5,-291.5 859.5,-321.5 972.5,-321.5 972.5,-291.5 859.5,-291.5"/>
<text text-anchor="start" x="867.5" y="-309.5" font-family="Helvetica,sans-Serif" font-size="10.00">tvm/runtime/packed</text>
<text text-anchor="middle" x="916" y="-298.5" font-family="Helvetica,sans-Serif" font-size="10.00">_func.h</text>
</a>
</g>
</g>
<!-- Node2&#45;&gt;Node15 -->
<g id="edge17" class="edge"><title>Node2&#45;&gt;Node15</title>
<path fill="none" stroke="midnightblue" d="M1637.34,-362.454C1494.25,-351.553 1132.36,-323.983 982.534,-312.569"/>
<polygon fill="midnightblue" stroke="midnightblue" points="982.785,-309.078 972.548,-311.808 982.253,-316.058 982.785,-309.078"/>
</g>
<!-- Node2&#45;&gt;Node19 -->
<g id="edge55" class="edge"><title>Node2&#45;&gt;Node19</title>
<path fill="none" stroke="midnightblue" d="M1714.93,-358.348C1728.7,-350.734 1747,-338.319 1757,-322 1778.81,-286.425 1781.35,-235.897 1780.91,-208.837"/>
<polygon fill="midnightblue" stroke="midnightblue" points="1784.41,-208.672 1780.59,-198.788 1777.41,-208.895 1784.41,-208.672"/>
</g>
<!-- Node20 -->
<g id="node20" class="node"><title>Node20</title>
<polygon fill="white" stroke="#bfbfbf" points="68.5,-179.5 68.5,-198.5 161.5,-198.5 161.5,-179.5 68.5,-179.5"/>
<text text-anchor="middle" x="115" y="-186.5" font-family="Helvetica,sans-Serif" font-size="10.00">unordered_map</text>
</g>
<!-- Node2&#45;&gt;Node20 -->
<g id="edge57" class="edge"><title>Node2&#45;&gt;Node20</title>
<path fill="none" stroke="midnightblue" d="M1637.44,-367.462C1494.08,-367.82 1118.72,-364.259 809,-322 633.896,-298.108 594.766,-267.212 421,-235 334.532,-218.971 233.46,-205.033 171.86,-197.072"/>
<polygon fill="midnightblue" stroke="midnightblue" points="171.94,-193.553 161.576,-195.751 171.048,-200.496 171.94,-193.553"/>
</g>
<!-- Node28 -->
<g id="node28" class="node"><title>Node28</title>
<polygon fill="white" stroke="#bfbfbf" points="1637.5,-297 1637.5,-316 1714.5,-316 1714.5,-297 1637.5,-297"/>
<text text-anchor="middle" x="1676" y="-304" font-family="Helvetica,sans-Serif" font-size="10.00">initializer_list</text>
</g>
<!-- Node2&#45;&gt;Node28 -->
<g id="edge56" class="edge"><title>Node2&#45;&gt;Node28</title>
<path fill="none" stroke="midnightblue" d="M1693.99,-358.475C1690.97,-349.904 1686.21,-336.427 1682.35,-325.483"/>
<polygon fill="midnightblue" stroke="midnightblue" points="1685.63,-324.274 1679,-316.009 1679.03,-326.604 1685.63,-324.274"/>
</g>
<!-- Node4 -->
<g id="node4" class="node"><title>Node4</title>
<polygon fill="white" stroke="#bfbfbf" points="1291,-62 1291,-81 1377,-81 1377,-62 1291,-62"/>
<text text-anchor="middle" x="1334" y="-69" font-family="Helvetica,sans-Serif" font-size="10.00">dmlc/logging.h</text>
</g>
<!-- Node3&#45;&gt;Node4 -->
<g id="edge3" class="edge"><title>Node3&#45;&gt;Node4</title>
<path fill="none" stroke="midnightblue" d="M1537.9,-123.475C1495.75,-112.937 1423.95,-94.9863 1377.77,-83.4415"/>
<polygon fill="midnightblue" stroke="midnightblue" points="1378.59,-80.039 1368.04,-81.0091 1376.89,-86.83 1378.59,-80.039"/>
</g>
<!-- Node5 -->
<g id="node5" class="node"><title>Node5</title>
<g id="a_node5"><a xlink:href="c__runtime__api_8h.html" target="_top" xlink:title="tvm/runtime/c_runtime\l_api.h">
<polygon fill="white" stroke="black" points="931.5,-56.5 931.5,-86.5 1058.5,-86.5 1058.5,-56.5 931.5,-56.5"/>
<text text-anchor="start" x="939.5" y="-74.5" font-family="Helvetica,sans-Serif" font-size="10.00">tvm/runtime/c_runtime</text>
<text text-anchor="middle" x="995" y="-63.5" font-family="Helvetica,sans-Serif" font-size="10.00">_api.h</text>
</a>
</g>
</g>
<!-- Node3&#45;&gt;Node5 -->
<g id="edge4" class="edge"><title>Node3&#45;&gt;Node5</title>
<path fill="none" stroke="midnightblue" d="M1513.5,-125.967C1407.82,-115.07 1185.29,-92.1226 1069.13,-80.1443"/>
<polygon fill="midnightblue" stroke="midnightblue" points="1069.22,-76.6347 1058.91,-79.0904 1068.5,-83.5978 1069.22,-76.6347"/>
</g>
<!-- Node3&#45;&gt;Node9 -->
<g id="edge8" class="edge"><title>Node3&#45;&gt;Node9</title>
<path fill="none" stroke="midnightblue" d="M1630.57,-127.957C1792.86,-116.755 2245.81,-85.4897 2389.6,-75.5647"/>
<polygon fill="midnightblue" stroke="midnightblue" points="2390.07,-79.0407 2399.8,-74.8603 2389.59,-72.0574 2390.07,-79.0407"/>
</g>
<!-- Node3&#45;&gt;Node10 -->
<g id="edge9" class="edge"><title>Node3&#45;&gt;Node10</title>
<path fill="none" stroke="midnightblue" d="M1513.18,-128.801C1313.16,-117.922 663.189,-82.572 510.378,-74.261"/>
<polygon fill="midnightblue" stroke="midnightblue" points="510.423,-70.7583 500.248,-73.71 510.043,-77.748 510.423,-70.7583"/>
</g>
<!-- Node3&#45;&gt;Node11 -->
<g id="edge10" class="edge"><title>Node3&#45;&gt;Node11</title>
<path fill="none" stroke="midnightblue" d="M1630.57,-124.772C1635.45,-124.172 1640.31,-123.575 1645,-123 1787.92,-105.473 1958.62,-84.7033 2027.69,-76.3049"/>
<polygon fill="midnightblue" stroke="midnightblue" points="2028.38,-79.7469 2037.89,-75.0656 2027.54,-72.798 2028.38,-79.7469"/>
</g>
<!-- Node12 -->
<g id="node12" class="node"><title>Node12</title>
<polygon fill="white" stroke="#bfbfbf" points="1467,-62 1467,-81 1517,-81 1517,-62 1467,-62"/>
<text text-anchor="middle" x="1492" y="-69" font-family="Helvetica,sans-Serif" font-size="10.00">atomic</text>
</g>
<!-- Node3&#45;&gt;Node12 -->
<g id="edge11" class="edge"><title>Node3&#45;&gt;Node12</title>
<path fill="none" stroke="midnightblue" d="M1560.54,-123.475C1547.83,-114.02 1527.09,-98.5961 1511.75,-87.1871"/>
<polygon fill="midnightblue" stroke="midnightblue" points="1513.55,-84.1686 1503.44,-81.0091 1509.38,-89.7854 1513.55,-84.1686"/>
</g>
<!-- Node6 -->
<g id="node6" class="node"><title>Node6</title>
<polygon fill="white" stroke="#bfbfbf" points="860,-0.5 860,-19.5 950,-19.5 950,-0.5 860,-0.5"/>
<text text-anchor="middle" x="905" y="-7.5" font-family="Helvetica,sans-Serif" font-size="10.00">dlpack/dlpack.h</text>
</g>
<!-- Node5&#45;&gt;Node6 -->
<g id="edge5" class="edge"><title>Node5&#45;&gt;Node6</title>
<path fill="none" stroke="midnightblue" d="M973.671,-56.3993C959.515,-47.0402 940.989,-34.7924 926.747,-25.3771"/>
<polygon fill="midnightblue" stroke="midnightblue" points="928.368,-22.2531 918.096,-19.6578 924.507,-28.0923 928.368,-22.2531"/>
</g>
<!-- Node7 -->
<g id="node7" class="node"><title>Node7</title>
<polygon fill="white" stroke="#bfbfbf" points="968.5,-0.5 968.5,-19.5 1021.5,-19.5 1021.5,-0.5 968.5,-0.5"/>
<text text-anchor="middle" x="995" y="-7.5" font-family="Helvetica,sans-Serif" font-size="10.00">stdint.h</text>
</g>
<!-- Node5&#45;&gt;Node7 -->
<g id="edge6" class="edge"><title>Node5&#45;&gt;Node7</title>
<path fill="none" stroke="midnightblue" d="M995,-56.3993C995,-48.4664 995,-38.458 995,-29.8583"/>
<polygon fill="midnightblue" stroke="midnightblue" points="998.5,-29.6577 995,-19.6578 991.5,-29.6578 998.5,-29.6577"/>
</g>
<!-- Node8 -->
<g id="node8" class="node"><title>Node8</title>
<polygon fill="white" stroke="#bfbfbf" points="1039.5,-0.5 1039.5,-19.5 1094.5,-19.5 1094.5,-0.5 1039.5,-0.5"/>
<text text-anchor="middle" x="1067" y="-7.5" font-family="Helvetica,sans-Serif" font-size="10.00">stddef.h</text>
</g>
<!-- Node5&#45;&gt;Node8 -->
<g id="edge7" class="edge"><title>Node5&#45;&gt;Node8</title>
<path fill="none" stroke="midnightblue" d="M1012.06,-56.3993C1023.06,-47.3076 1037.37,-35.4899 1048.62,-26.1909"/>
<polygon fill="midnightblue" stroke="midnightblue" points="1051.04,-28.726 1056.52,-19.6578 1046.59,-23.33 1051.04,-28.726"/>
</g>
<!-- Node13&#45;&gt;Node3 -->
<g id="edge13" class="edge"><title>Node13&#45;&gt;Node3</title>
<path fill="none" stroke="midnightblue" d="M2054.3,-181.7C1950.88,-171.472 1747.31,-151.338 1640.74,-140.798"/>
<polygon fill="midnightblue" stroke="midnightblue" points="1641.03,-137.31 1630.73,-139.809 1640.34,-144.276 1641.03,-137.31"/>
</g>
<!-- Node13&#45;&gt;Node9 -->
<g id="edge16" class="edge"><title>Node13&#45;&gt;Node9</title>
<path fill="none" stroke="midnightblue" d="M2141.49,-179.413C2197.02,-159.116 2336.52,-108.129 2400.72,-84.6642"/>
<polygon fill="midnightblue" stroke="midnightblue" points="2402.16,-87.8637 2410.35,-81.1434 2399.76,-81.2891 2402.16,-87.8637"/>
</g>
<!-- Node13&#45;&gt;Node11 -->
<g id="edge15" class="edge"><title>Node13&#45;&gt;Node11</title>
<path fill="none" stroke="midnightblue" d="M2118.69,-179.073C2119.31,-166.043 2119.02,-141.371 2110,-123 2103.09,-108.917 2090.64,-96.4715 2079.77,-87.4591"/>
<polygon fill="midnightblue" stroke="midnightblue" points="2081.91,-84.6908 2071.88,-81.2661 2077.59,-90.1957 2081.91,-84.6908"/>
</g>
<!-- Node14 -->
<g id="node14" class="node"><title>Node14</title>
<polygon fill="white" stroke="#bfbfbf" points="2054.5,-123.5 2054.5,-142.5 2101.5,-142.5 2101.5,-123.5 2054.5,-123.5"/>
<text text-anchor="middle" x="2078" y="-130.5" font-family="Helvetica,sans-Serif" font-size="10.00">cstdlib</text>
</g>
<!-- Node13&#45;&gt;Node14 -->
<g id="edge14" class="edge"><title>Node13&#45;&gt;Node14</title>
<path fill="none" stroke="midnightblue" d="M2111.39,-179.083C2105.74,-171.455 2097.46,-160.264 2090.55,-150.941"/>
<polygon fill="midnightblue" stroke="midnightblue" points="2093.25,-148.703 2084.48,-142.751 2087.62,-152.87 2093.25,-148.703"/>
</g>
<!-- Node15&#45;&gt;Node3 -->
<g id="edge45" class="edge"><title>Node15&#45;&gt;Node3</title>
<path fill="none" stroke="midnightblue" d="M972.543,-293.894C1043.92,-279.23 1157.76,-255.789 1160,-255 1178.37,-248.523 1180.54,-241.206 1199,-235 1286.27,-205.666 1314.29,-223.639 1403,-199 1453.78,-184.895 1510.53,-161.386 1543.66,-146.841"/>
<polygon fill="midnightblue" stroke="midnightblue" points="1545.42,-149.887 1553.14,-142.635 1542.58,-143.488 1545.42,-149.887"/>
</g>
<!-- Node15&#45;&gt;Node4 -->
<g id="edge18" class="edge"><title>Node15&#45;&gt;Node4</title>
<path fill="none" stroke="midnightblue" d="M908.183,-291.211C895.432,-265.748 874.047,-212.098 900,-179 946.792,-119.324 1175.2,-88.6854 1280.56,-77.5353"/>
<polygon fill="midnightblue" stroke="midnightblue" points="1281.08,-81.0002 1290.67,-76.4859 1280.36,-74.0377 1281.08,-81.0002"/>
</g>
<!-- Node15&#45;&gt;Node5 -->
<g id="edge19" class="edge"><title>Node15&#45;&gt;Node5</title>
<path fill="none" stroke="midnightblue" d="M902.841,-291.195C882.697,-267.469 848.404,-218.663 867,-179 885.541,-139.454 926.781,-109.491 957.469,-91.5746"/>
<polygon fill="midnightblue" stroke="midnightblue" points="959.238,-94.5951 966.216,-86.6232 955.789,-88.5033 959.238,-94.5951"/>
</g>
<!-- Node15&#45;&gt;Node9 -->
<g id="edge53" class="edge"><title>Node15&#45;&gt;Node9</title>
<path fill="none" stroke="midnightblue" d="M972.665,-304.09C1190.54,-298.522 1967.52,-277.285 2076,-255 2198.45,-229.845 2226.94,-207.536 2334,-143 2363.19,-125.407 2395.06,-102.177 2414.8,-87.2845"/>
<polygon fill="midnightblue" stroke="midnightblue" points="2417.12,-89.9184 2422.96,-81.0789 2412.88,-84.3468 2417.12,-89.9184"/>
</g>
<!-- Node15&#45;&gt;Node10 -->
<g id="edge49" class="edge"><title>Node15&#45;&gt;Node10</title>
<path fill="none" stroke="midnightblue" d="M901.105,-291.345C859.991,-252.546 744.939,-145.872 699,-123 636.67,-91.9672 554.945,-79.7084 510.398,-75.0959"/>
<polygon fill="midnightblue" stroke="midnightblue" points="510.46,-71.5856 500.169,-74.1047 509.785,-78.553 510.46,-71.5856"/>
</g>
<!-- Node15&#45;&gt;Node11 -->
<g id="edge52" class="edge"><title>Node15&#45;&gt;Node11</title>
<path fill="none" stroke="midnightblue" d="M972.629,-303.728C1098.49,-299.277 1397.93,-285.713 1494,-255 1510.7,-249.661 1511.95,-242.058 1528,-235 1710.59,-154.695 1944.89,-98.0514 2028.04,-79.2777"/>
<polygon fill="midnightblue" stroke="midnightblue" points="2028.87,-82.6783 2037.87,-77.0777 2027.35,-75.8475 2028.87,-82.6783"/>
</g>
<!-- Node16 -->
<g id="node16" class="node"><title>Node16</title>
<g id="a_node16"><a xlink:href="runtime_2module_8h.html" target="_top" xlink:title="Runtime container of the functions generated by TVM, This is used to support dynamically link...">
<polygon fill="white" stroke="black" points="968,-235.5 968,-254.5 1092,-254.5 1092,-235.5 968,-235.5"/>
<text text-anchor="middle" x="1030" y="-242.5" font-family="Helvetica,sans-Serif" font-size="10.00">tvm/runtime/module.h</text>
</a>
</g>
</g>
<!-- Node15&#45;&gt;Node16 -->
<g id="edge20" class="edge"><title>Node15&#45;&gt;Node16</title>
<path fill="none" stroke="midnightblue" d="M937.176,-291.399C954.703,-281.595 979.61,-268.619 999.294,-259.052"/>
<polygon fill="midnightblue" stroke="midnightblue" points="1000.97,-262.13 1008.48,-254.658 997.951,-255.815 1000.97,-262.13"/>
</g>
<!-- Node18 -->
<g id="node18" class="node"><title>Node18</title>
<polygon fill="white" stroke="#bfbfbf" points="909.5,-179.5 909.5,-198.5 966.5,-198.5 966.5,-179.5 909.5,-179.5"/>
<text text-anchor="middle" x="938" y="-186.5" font-family="Helvetica,sans-Serif" font-size="10.00">memory</text>
</g>
<!-- Node15&#45;&gt;Node18 -->
<g id="edge51" class="edge"><title>Node15&#45;&gt;Node18</title>
<path fill="none" stroke="midnightblue" d="M918.698,-291.337C922.662,-270.527 930.064,-231.663 934.46,-208.583"/>
<polygon fill="midnightblue" stroke="midnightblue" points="937.916,-209.148 936.349,-198.669 931.039,-207.838 937.916,-209.148"/>
</g>
<!-- Node15&#45;&gt;Node19 -->
<g id="edge48" class="edge"><title>Node15&#45;&gt;Node19</title>
<path fill="none" stroke="midnightblue" d="M972.51,-304.045C1080.93,-300.546 1325.38,-289.235 1528,-255 1607.48,-241.57 1698.57,-215.29 1746.49,-200.593"/>
<polygon fill="midnightblue" stroke="midnightblue" points="1747.8,-203.852 1756.32,-197.554 1745.73,-197.164 1747.8,-203.852"/>
</g>
<!-- Node21 -->
<g id="node21" class="node"><title>Node21</title>
<g id="a_node21"><a xlink:href="ndarray_8h.html" target="_top" xlink:title="A device&#45;independent managed NDArray abstraction. ">
<polygon fill="white" stroke="black" points="1362.5,-235.5 1362.5,-254.5 1485.5,-254.5 1485.5,-235.5 1362.5,-235.5"/>
<text text-anchor="middle" x="1424" y="-242.5" font-family="Helvetica,sans-Serif" font-size="10.00">tvm/runtime/ndarray.h</text>
</a>
</g>
</g>
<!-- Node15&#45;&gt;Node21 -->
<g id="edge30" class="edge"><title>Node15&#45;&gt;Node21</title>
<path fill="none" stroke="midnightblue" d="M972.592,-299.162C1053.97,-290.004 1209.04,-272.385 1352.15,-255.091"/>
<polygon fill="midnightblue" stroke="midnightblue" points="1352.92,-258.523 1362.43,-253.847 1352.08,-251.574 1352.92,-258.523"/>
</g>
<!-- Node24 -->
<g id="node24" class="node"><title>Node24</title>
<g id="a_node24"><a xlink:href="data__type_8h.html" target="_top" xlink:title="tvm/runtime/data_type.h">
<polygon fill="white" stroke="black" points="1208,-235.5 1208,-254.5 1344,-254.5 1344,-235.5 1208,-235.5"/>
<text text-anchor="middle" x="1276" y="-242.5" font-family="Helvetica,sans-Serif" font-size="10.00">tvm/runtime/data_type.h</text>
</a>
</g>
</g>
<!-- Node15&#45;&gt;Node24 -->
<g id="edge41" class="edge"><title>Node15&#45;&gt;Node24</title>
<path fill="none" stroke="midnightblue" d="M972.535,-293.705C977.422,-292.761 982.295,-291.846 987,-291 1061.37,-277.623 1146.94,-264.592 1205.55,-256.025"/>
<polygon fill="midnightblue" stroke="midnightblue" points="1206.42,-259.436 1215.81,-254.531 1205.41,-252.509 1206.42,-259.436"/>
</g>
<!-- Node25 -->
<g id="node25" class="node"><title>Node25</title>
<polygon fill="white" stroke="#bfbfbf" points="696.5,-235.5 696.5,-254.5 759.5,-254.5 759.5,-235.5 696.5,-235.5"/>
<text text-anchor="middle" x="728" y="-242.5" font-family="Helvetica,sans-Serif" font-size="10.00">functional</text>
</g>
<!-- Node15&#45;&gt;Node25 -->
<g id="edge46" class="edge"><title>Node15&#45;&gt;Node25</title>
<path fill="none" stroke="midnightblue" d="M871.447,-291.399C838.961,-281.118 795.461,-267.351 764.911,-257.682"/>
<polygon fill="midnightblue" stroke="midnightblue" points="765.671,-254.252 755.081,-254.571 763.559,-260.925 765.671,-254.252"/>
</g>
<!-- Node26 -->
<g id="node26" class="node"><title>Node26</title>
<polygon fill="white" stroke="#bfbfbf" points="1110.5,-235.5 1110.5,-254.5 1151.5,-254.5 1151.5,-235.5 1110.5,-235.5"/>
<text text-anchor="middle" x="1131" y="-242.5" font-family="Helvetica,sans-Serif" font-size="10.00">tuple</text>
</g>
<!-- Node15&#45;&gt;Node26 -->
<g id="edge47" class="edge"><title>Node15&#45;&gt;Node26</title>
<path fill="none" stroke="midnightblue" d="M968.728,-291.482C1003.55,-282.138 1050.42,-269.399 1100.62,-255.057"/>
<polygon fill="midnightblue" stroke="midnightblue" points="1101.71,-258.384 1110.36,-252.265 1099.79,-251.655 1101.71,-258.384"/>
</g>
<!-- Node27 -->
<g id="node27" class="node"><title>Node27</title>
<polygon fill="white" stroke="#bfbfbf" points="370,-235.5 370,-254.5 412,-254.5 412,-235.5 370,-235.5"/>
<text text-anchor="middle" x="391" y="-242.5" font-family="Helvetica,sans-Serif" font-size="10.00">limits</text>
</g>
<!-- Node15&#45;&gt;Node27 -->
<g id="edge50" class="edge"><title>Node15&#45;&gt;Node27</title>
<path fill="none" stroke="midnightblue" d="M859.317,-299.076C748.837,-286.555 508.008,-259.261 422.165,-249.532"/>
<polygon fill="midnightblue" stroke="midnightblue" points="422.354,-246.031 412.023,-248.383 421.565,-252.987 422.354,-246.031"/>
</g>
<!-- Node16&#45;&gt;Node3 -->
<g id="edge23" class="edge"><title>Node16&#45;&gt;Node3</title>
<path fill="none" stroke="midnightblue" d="M1092.08,-235.829C1178.48,-224.381 1327.21,-204.364 1352,-199 1418.85,-184.537 1495.01,-160.228 1537.91,-145.791"/>
<polygon fill="midnightblue" stroke="midnightblue" points="1539.22,-149.044 1547.56,-142.519 1536.97,-142.414 1539.22,-149.044"/>
</g>
<!-- Node16&#45;&gt;Node5 -->
<g id="edge22" class="edge"><title>Node16&#45;&gt;Node5</title>
<path fill="none" stroke="midnightblue" d="M1028.22,-235.26C1023.03,-209.866 1007.85,-135.444 999.929,-96.6497"/>
<polygon fill="midnightblue" stroke="midnightblue" points="1003.33,-95.8209 997.903,-86.7228 996.473,-97.2207 1003.33,-95.8209"/>
</g>
<!-- Node16&#45;&gt;Node10 -->
<g id="edge27" class="edge"><title>Node16&#45;&gt;Node10</title>
<path fill="none" stroke="midnightblue" d="M1025.17,-235.301C1016.85,-221.17 998.443,-193.367 975,-179 820.391,-84.2477 593.758,-72.99 510.349,-72.2361"/>
<polygon fill="midnightblue" stroke="midnightblue" points="510.24,-68.7356 500.225,-72.1913 510.209,-75.7356 510.24,-68.7356"/>
</g>
<!-- Node16&#45;&gt;Node13 -->
<g id="edge24" class="edge"><title>Node16&#45;&gt;Node13</title>
<path fill="none" stroke="midnightblue" d="M1092.31,-235.809C1095.24,-235.515 1098.15,-235.243 1101,-235 1284.36,-219.348 1842.42,-199.382 2044.2,-192.479"/>
<polygon fill="midnightblue" stroke="midnightblue" points="2044.53,-195.97 2054.4,-192.131 2044.29,-188.974 2044.53,-195.97"/>
</g>
<!-- Node16&#45;&gt;Node15 -->
<g id="edge29" class="edge"><title>Node16&#45;&gt;Node15</title>
<path fill="none" stroke="midnightblue" d="M1018.34,-254.658C1004.01,-263.084 979.417,-276.159 957.867,-286.94"/>
<polygon fill="midnightblue" stroke="midnightblue" points="956.266,-283.827 948.856,-291.399 959.371,-290.101 956.266,-283.827"/>
</g>
<!-- Node17 -->
<g id="node17" class="node"><title>Node17</title>
<polygon fill="white" stroke="#bfbfbf" points="1137,-123.5 1137,-142.5 1197,-142.5 1197,-123.5 1137,-123.5"/>
<text text-anchor="middle" x="1167" y="-130.5" font-family="Helvetica,sans-Serif" font-size="10.00">dmlc/io.h</text>
</g>
<!-- Node16&#45;&gt;Node17 -->
<g id="edge21" class="edge"><title>Node16&#45;&gt;Node17</title>
<path fill="none" stroke="midnightblue" d="M1040.75,-235.368C1063.96,-216.733 1119.01,-172.532 1148.15,-149.134"/>
<polygon fill="midnightblue" stroke="midnightblue" points="1150.69,-151.581 1156.3,-142.591 1146.31,-146.123 1150.69,-151.581"/>
</g>
<!-- Node16&#45;&gt;Node18 -->
<g id="edge25" class="edge"><title>Node16&#45;&gt;Node18</title>
<path fill="none" stroke="midnightblue" d="M1015.22,-235.324C1000.73,-226.822 978.427,-213.729 961.507,-203.797"/>
<polygon fill="midnightblue" stroke="midnightblue" points="963.141,-200.698 952.745,-198.655 959.597,-206.735 963.141,-200.698"/>
</g>
<!-- Node16&#45;&gt;Node19 -->
<g id="edge26" class="edge"><title>Node16&#45;&gt;Node19</title>
<path fill="none" stroke="midnightblue" d="M1092.31,-235.887C1095.25,-235.572 1098.16,-235.274 1101,-235 1348.06,-211.176 1646.92,-196.147 1746.16,-191.524"/>
<polygon fill="midnightblue" stroke="midnightblue" points="1746.38,-195.018 1756.2,-191.06 1746.05,-188.025 1746.38,-195.018"/>
</g>
<!-- Node16&#45;&gt;Node20 -->
<g id="edge28" class="edge"><title>Node16&#45;&gt;Node20</title>
<path fill="none" stroke="midnightblue" d="M967.828,-240.331C799.076,-230.372 334.26,-202.94 171.883,-193.357"/>
<polygon fill="midnightblue" stroke="midnightblue" points="171.82,-189.847 161.631,-192.752 171.407,-196.835 171.82,-189.847"/>
</g>
<!-- Node21&#45;&gt;Node3 -->
<g id="edge32" class="edge"><title>Node21&#45;&gt;Node3</title>
<path fill="none" stroke="midnightblue" d="M1440.36,-235.351C1455.94,-226.847 1479.79,-213.121 1499,-199 1519.8,-183.707 1541.66,-163.634 1555.97,-149.864"/>
<polygon fill="midnightblue" stroke="midnightblue" points="1558.74,-152.053 1563.46,-142.568 1553.86,-147.038 1558.74,-152.053"/>
</g>
<!-- Node21&#45;&gt;Node5 -->
<g id="edge31" class="edge"><title>Node21&#45;&gt;Node5</title>
<path fill="none" stroke="midnightblue" d="M1369.82,-235.476C1314.67,-226.346 1233.27,-211.485 1204,-199 1176.67,-187.343 1119.51,-138.228 1094,-123 1074.72,-111.494 1052.52,-100.016 1034.03,-90.9172"/>
<polygon fill="midnightblue" stroke="midnightblue" points="1035.54,-87.7556 1025.01,-86.5203 1032.47,-94.048 1035.54,-87.7556"/>
</g>
<!-- Node21&#45;&gt;Node11 -->
<g id="edge40" class="edge"><title>Node21&#45;&gt;Node11</title>
<path fill="none" stroke="midnightblue" d="M1431.58,-235.336C1439.16,-226.489 1450.96,-212.214 1460,-199 1482.03,-166.782 1471.11,-144.008 1504,-123 1548.29,-94.7133 1917.16,-78.0659 2027.77,-73.6758"/>
<polygon fill="midnightblue" stroke="midnightblue" points="2028.08,-77.1663 2037.94,-73.278 2027.81,-70.1716 2028.08,-77.1663"/>
</g>
<!-- Node21&#45;&gt;Node12 -->
<g id="edge38" class="edge"><title>Node21&#45;&gt;Node12</title>
<path fill="none" stroke="midnightblue" d="M1427.24,-235.464C1434.77,-215.652 1454.1,-165.028 1471,-123 1475.37,-112.131 1480.41,-100.009 1484.45,-90.3664"/>
<polygon fill="midnightblue" stroke="midnightblue" points="1487.72,-91.6273 1488.37,-81.0527 1481.27,-88.911 1487.72,-91.6273"/>
</g>
<!-- Node21&#45;&gt;Node19 -->
<g id="edge39" class="edge"><title>Node21&#45;&gt;Node19</title>
<path fill="none" stroke="midnightblue" d="M1480.41,-235.444C1555.29,-224.086 1685.15,-204.388 1746.31,-195.111"/>
<polygon fill="midnightblue" stroke="midnightblue" points="1746.84,-198.569 1756.21,-193.609 1745.79,-191.649 1746.84,-198.569"/>
</g>
<!-- Node22 -->
<g id="node22" class="node"><title>Node22</title>
<g id="a_node22"><a xlink:href="serializer_8h.html" target="_top" xlink:title="Serializer extension to support TVM data types Include this file to enable serialization of DLDataTyp...">
<polygon fill="white" stroke="black" points="1213,-179.5 1213,-198.5 1343,-198.5 1343,-179.5 1213,-179.5"/>
<text text-anchor="middle" x="1278" y="-186.5" font-family="Helvetica,sans-Serif" font-size="10.00">tvm/runtime/serializer.h</text>
</a>
</g>
</g>
<!-- Node21&#45;&gt;Node22 -->
<g id="edge33" class="edge"><title>Node21&#45;&gt;Node22</title>
<path fill="none" stroke="midnightblue" d="M1395.78,-235.444C1369.68,-226.517 1331.39,-212.439 1305.53,-202.317"/>
<polygon fill="midnightblue" stroke="midnightblue" points="1306.53,-198.949 1295.95,-198.516 1303.95,-205.456 1306.53,-198.949"/>
</g>
<!-- Node22&#45;&gt;Node5 -->
<g id="edge36" class="edge"><title>Node22&#45;&gt;Node5</title>
<path fill="none" stroke="midnightblue" d="M1271.01,-179.351C1259.17,-165.293 1233.72,-137.593 1206,-123 1163.42,-100.581 1110.79,-87.9611 1068.74,-80.9436"/>
<polygon fill="midnightblue" stroke="midnightblue" points="1069.27,-77.4839 1058.85,-79.3617 1068.17,-84.3962 1069.27,-77.4839"/>
</g>
<!-- Node22&#45;&gt;Node17 -->
<g id="edge34" class="edge"><title>Node22&#45;&gt;Node17</title>
<path fill="none" stroke="midnightblue" d="M1260.17,-179.324C1242.28,-170.625 1214.52,-157.12 1193.95,-147.113"/>
<polygon fill="midnightblue" stroke="midnightblue" points="1195.31,-143.882 1184.79,-142.655 1192.25,-150.177 1195.31,-143.882"/>
</g>
<!-- Node22&#45;&gt;Node21 -->
<g id="edge37" class="edge"><title>Node22&#45;&gt;Node21</title>
<path fill="none" stroke="midnightblue" d="M1306.11,-198.516C1332.16,-207.427 1370.45,-221.504 1396.35,-231.638"/>
<polygon fill="midnightblue" stroke="midnightblue" points="1395.37,-235.012 1405.95,-235.444 1397.95,-228.505 1395.37,-235.012"/>
</g>
<!-- Node23 -->
<g id="node23" class="node"><title>Node23</title>
<polygon fill="white" stroke="#bfbfbf" points="1291,-123.5 1291,-142.5 1385,-142.5 1385,-123.5 1291,-123.5"/>
<text text-anchor="middle" x="1338" y="-130.5" font-family="Helvetica,sans-Serif" font-size="10.00">dmlc/serializer.h</text>
</g>
<!-- Node22&#45;&gt;Node23 -->
<g id="edge35" class="edge"><title>Node22&#45;&gt;Node23</title>
<path fill="none" stroke="midnightblue" d="M1287.64,-179.324C1296.51,-171.341 1309.87,-159.313 1320.61,-149.653"/>
<polygon fill="midnightblue" stroke="midnightblue" points="1323.09,-152.125 1328.18,-142.834 1318.41,-146.922 1323.09,-152.125"/>
</g>
<!-- Node24&#45;&gt;Node4 -->
<g id="edge43" class="edge"><title>Node24&#45;&gt;Node4</title>
<path fill="none" stroke="midnightblue" d="M1252.49,-235.493C1227.1,-224.811 1191.82,-204.722 1204,-179 1225.05,-134.551 1274.74,-102.463 1306.23,-85.7293"/>
<polygon fill="midnightblue" stroke="midnightblue" points="1308.07,-88.7172 1315.37,-81.0322 1304.87,-82.4917 1308.07,-88.7172"/>
</g>
<!-- Node24&#45;&gt;Node5 -->
<g id="edge42" class="edge"><title>Node24&#45;&gt;Node5</title>
<path fill="none" stroke="midnightblue" d="M1259.19,-235.379C1226.81,-218.607 1153.79,-179.981 1095,-143 1069.63,-127.039 1041.84,-107.252 1022.01,-92.7072"/>
<polygon fill="midnightblue" stroke="midnightblue" points="1023.89,-89.7436 1013.77,-86.6239 1019.73,-95.3768 1023.89,-89.7436"/>
</g>
<!-- Node24&#45;&gt;Node9 -->
<g id="edge44" class="edge"><title>Node24&#45;&gt;Node9</title>
<path fill="none" stroke="midnightblue" d="M1344.41,-235.74C1347.31,-235.474 1350.18,-235.225 1353,-235 1538.58,-220.183 2010.12,-246.976 2190,-199 2201.71,-195.877 2348.54,-118.021 2408.63,-86.0307"/>
<polygon fill="midnightblue" stroke="midnightblue" points="2410.64,-88.9259 2417.82,-81.1353 2407.35,-82.7478 2410.64,-88.9259"/>
</g>
<!-- Node29&#45;&gt;Node2 -->
<g id="edge61" class="edge"><title>Node29&#45;&gt;Node2</title>
<path fill="none" stroke="midnightblue" d="M1132.23,-881.835C1337.95,-879.818 2093,-858.871 2093,-660 2093,-660 2093,-660 2093,-490 2093,-422.573 1880.37,-388.992 1766.72,-375.859"/>
<polygon fill="midnightblue" stroke="midnightblue" points="1767.04,-372.373 1756.71,-374.726 1766.26,-379.329 1767.04,-372.373"/>
</g>
<!-- Node29&#45;&gt;Node20 -->
<g id="edge143" class="edge"><title>Node29&#45;&gt;Node20</title>
<path fill="none" stroke="midnightblue" d="M1029.78,-881.832C824.981,-880.495 76,-868.975 76,-772 76,-772 76,-772 76,-305.5 76,-269.16 93.5445,-229.609 105.099,-207.502"/>
<polygon fill="midnightblue" stroke="midnightblue" points="108.211,-209.106 109.901,-198.647 102.057,-205.768 108.211,-209.106"/>
</g>
<!-- Node30 -->
<g id="node30" class="node"><title>Node30</title>
<g id="a_node30"><a xlink:href="ir_2expr_8h.html" target="_top" xlink:title="Base expr nodes in TVM. ">
<polygon fill="white" stroke="black" points="983.5,-705.5 983.5,-724.5 1060.5,-724.5 1060.5,-705.5 983.5,-705.5"/>
<text text-anchor="middle" x="1022" y="-712.5" font-family="Helvetica,sans-Serif" font-size="10.00">tvm/ir/expr.h</text>
</a>
</g>
</g>
<!-- Node29&#45;&gt;Node30 -->
<g id="edge62" class="edge"><title>Node29&#45;&gt;Node30</title>
<path fill="none" stroke="midnightblue" d="M1077.83,-873.075C1068.5,-846.832 1041.03,-769.545 1028.44,-734.117"/>
<polygon fill="midnightblue" stroke="midnightblue" points="1031.69,-732.818 1025.05,-724.568 1025.1,-735.163 1031.69,-732.818"/>
</g>
<!-- Node41 -->
<g id="node41" class="node"><title>Node41</title>
<g id="a_node41"><a xlink:href="int__set_8h.html" target="_top" xlink:title="Integer set. ">
<polygon fill="white" stroke="black" points="835,-817.5 835,-836.5 939,-836.5 939,-817.5 835,-817.5"/>
<text text-anchor="middle" x="887" y="-824.5" font-family="Helvetica,sans-Serif" font-size="10.00">tvm/arith/int_set.h</text>
</a>
</g>
</g>
<!-- Node29&#45;&gt;Node41 -->
<g id="edge120" class="edge"><title>Node29&#45;&gt;Node41</title>
<path fill="none" stroke="midnightblue" d="M1050.26,-873.444C1017.06,-864.201 964.009,-849.436 927.443,-839.257"/>
<polygon fill="midnightblue" stroke="midnightblue" points="928.168,-835.826 917.596,-836.516 926.291,-842.57 928.168,-835.826"/>
</g>
<!-- Node29&#45;&gt;Node42 -->
<g id="edge136" class="edge"><title>Node29&#45;&gt;Node42</title>
<path fill="none" stroke="midnightblue" d="M1067.5,-873.368C1037.99,-854.492 967.456,-809.385 931.261,-786.237"/>
<polygon fill="midnightblue" stroke="midnightblue" points="932.744,-783.031 922.434,-780.591 928.973,-788.928 932.744,-783.031"/>
</g>
<!-- Node43 -->
<g id="node43" class="node"><title>Node43</title>
<g id="a_node43"><a xlink:href="stmt_8h.html" target="_top" xlink:title="TIR statements. ">
<polygon fill="white" stroke="black" points="2128.5,-817.5 2128.5,-836.5 2211.5,-836.5 2211.5,-817.5 2128.5,-817.5"/>
<text text-anchor="middle" x="2170" y="-824.5" font-family="Helvetica,sans-Serif" font-size="10.00">tvm/tir/stmt.h</text>
</a>
</g>
</g>
<!-- Node29&#45;&gt;Node43 -->
<g id="edge137" class="edge"><title>Node29&#45;&gt;Node43</title>
<path fill="none" stroke="midnightblue" d="M1132.31,-879.478C1270.83,-872.665 1663.98,-853.307 1991,-837 2033.85,-834.863 2082.47,-832.417 2118.22,-830.615"/>
<polygon fill="midnightblue" stroke="midnightblue" points="2118.6,-834.1 2128.41,-830.101 2118.24,-827.109 2118.6,-834.1"/>
</g>
<!-- Node30&#45;&gt;Node2 -->
<g id="edge104" class="edge"><title>Node30&#45;&gt;Node2</title>
<path fill="none" stroke="midnightblue" d="M1060.51,-713.063C1225.08,-708.558 1861,-685.854 1861,-604 1861,-604 1861,-604 1861,-490 1861,-430.084 1789.24,-396.491 1740.66,-380.613"/>
<polygon fill="midnightblue" stroke="midnightblue" points="1741.57,-377.23 1730.98,-377.581 1739.48,-383.91 1741.57,-377.23"/>
</g>
<!-- Node30&#45;&gt;Node3 -->
<g id="edge63" class="edge"><title>Node30&#45;&gt;Node3</title>
<path fill="none" stroke="midnightblue" d="M1007.62,-705.373C973.411,-683.628 890,-622.929 890,-548 890,-548 890,-548 890,-490 890,-392.942 1471.18,-272.11 1494,-255 1530.2,-227.854 1554.21,-178.582 1565.17,-152.059"/>
<polygon fill="midnightblue" stroke="midnightblue" points="1568.52,-153.096 1568.95,-142.51 1562.01,-150.518 1568.52,-153.096"/>
</g>
<!-- Node30&#45;&gt;Node9 -->
<g id="edge119" class="edge"><title>Node30&#45;&gt;Node9</title>
<path fill="none" stroke="midnightblue" d="M1060.5,-713.02C1191.28,-709.472 1617.72,-696.062 1752,-669 2047.83,-609.377 2186.09,-664.683 2393,-445 2428.79,-407.003 2433.25,-320.231 2446,-143 2446.64,-134.134 2447.03,-131.828 2446,-123 2444.75,-112.321 2442.06,-100.627 2439.54,-91.1835"/>
<polygon fill="midnightblue" stroke="midnightblue" points="2442.84,-90.0024 2436.76,-81.3272 2436.11,-91.9018 2442.84,-90.0024"/>
</g>
<!-- Node30&#45;&gt;Node10 -->
<g id="edge116" class="edge"><title>Node30&#45;&gt;Node10</title>
<path fill="none" stroke="midnightblue" d="M983.435,-710.195C824.427,-692.196 228,-601.024 228,-246 228,-246 228,-246 228,-188 228,-93.1494 378.136,-75.9445 445.713,-73.0045"/>
<polygon fill="midnightblue" stroke="midnightblue" points="445.945,-76.4986 455.814,-72.6455 445.696,-69.503 445.945,-76.4986"/>
</g>
<!-- Node30&#45;&gt;Node27 -->
<g id="edge118" class="edge"><title>Node30&#45;&gt;Node27</title>
<path fill="none" stroke="midnightblue" d="M1002.34,-705.342C983.917,-696.935 955.872,-683.368 933,-669 718.246,-534.091 677.168,-481.513 480,-322 454.751,-301.573 426.334,-277.025 408.55,-261.466"/>
<polygon fill="midnightblue" stroke="midnightblue" points="410.559,-258.573 400.734,-254.608 405.942,-263.834 410.559,-258.573"/>
</g>
<!-- Node31 -->
<g id="node31" class="node"><title>Node31</title>
<g id="a_node31"><a xlink:href="node_8h.html" target="_top" xlink:title="Definitions and helper macros for IR/AST nodes. ">
<polygon fill="white" stroke="black" points="1294,-537.5 1294,-556.5 1392,-556.5 1392,-537.5 1294,-537.5"/>
<text text-anchor="middle" x="1343" y="-544.5" font-family="Helvetica,sans-Serif" font-size="10.00">tvm/node/node.h</text>
</a>
</g>
</g>
<!-- Node30&#45;&gt;Node31 -->
<g id="edge64" class="edge"><title>Node30&#45;&gt;Node31</title>
<path fill="none" stroke="midnightblue" d="M1034.42,-705.453C1053.12,-692.692 1089.76,-668.113 1122,-649 1167.16,-622.228 1178.29,-614.911 1226,-593 1253.17,-580.522 1284.87,-568.477 1308.42,-559.994"/>
<polygon fill="midnightblue" stroke="midnightblue" points="1309.73,-563.242 1317.97,-556.586 1307.38,-556.649 1309.73,-563.242"/>
</g>
<!-- Node38 -->
<g id="node38" class="node"><title>Node38</title>
<g id="a_node38"><a xlink:href="span_8h.html" target="_top" xlink:title="Span information for debugging purposes. ">
<polygon fill="white" stroke="black" points="1235,-593.5 1235,-612.5 1315,-612.5 1315,-593.5 1235,-593.5"/>
<text text-anchor="middle" x="1275" y="-600.5" font-family="Helvetica,sans-Serif" font-size="10.00">tvm/ir/span.h</text>
</a>
</g>
</g>
<!-- Node30&#45;&gt;Node38 -->
<g id="edge105" class="edge"><title>Node30&#45;&gt;Node38</title>
<path fill="none" stroke="midnightblue" d="M1041.85,-705.368C1086.28,-686.051 1193.9,-639.259 1245.91,-616.648"/>
<polygon fill="midnightblue" stroke="midnightblue" points="1247.46,-619.788 1255.24,-612.591 1244.67,-613.369 1247.46,-619.788"/>
</g>
<!-- Node39 -->
<g id="node39" class="node"><title>Node39</title>
<g id="a_node39"><a xlink:href="ir_2type_8h.html" target="_top" xlink:title="IR/AST nodes for the unified type system in TVM. ">
<polygon fill="white" stroke="black" points="1270.5,-649.5 1270.5,-668.5 1347.5,-668.5 1347.5,-649.5 1270.5,-649.5"/>
<text text-anchor="middle" x="1309" y="-656.5" font-family="Helvetica,sans-Serif" font-size="10.00">tvm/ir/type.h</text>
</a>
</g>
</g>
<!-- Node30&#45;&gt;Node39 -->
<g id="edge109" class="edge"><title>Node30&#45;&gt;Node39</title>
<path fill="none" stroke="midnightblue" d="M1060.71,-706.717C1112.42,-696.988 1204.05,-679.748 1260.36,-669.151"/>
<polygon fill="midnightblue" stroke="midnightblue" points="1261.27,-672.542 1270.45,-667.253 1259.98,-665.663 1261.27,-672.542"/>
</g>
<!-- Node40 -->
<g id="node40" class="node"><title>Node40</title>
<polygon fill="white" stroke="#bfbfbf" points="1965,-649.5 1965,-668.5 2027,-668.5 2027,-649.5 1965,-649.5"/>
<text text-anchor="middle" x="1996" y="-656.5" font-family="Helvetica,sans-Serif" font-size="10.00">algorithm</text>
</g>
<!-- Node30&#45;&gt;Node40 -->
<g id="edge117" class="edge"><title>Node30&#45;&gt;Node40</title>
<path fill="none" stroke="midnightblue" d="M1060.7,-712.842C1184.77,-708.957 1583.74,-695.144 1913,-669 1926.57,-667.923 1941.35,-666.425 1954.63,-664.96"/>
<polygon fill="midnightblue" stroke="midnightblue" points="1955.36,-668.4 1964.9,-663.801 1954.57,-661.444 1955.36,-668.4"/>
</g>
<!-- Node31&#45;&gt;Node2 -->
<g id="edge97" class="edge"><title>Node31&#45;&gt;Node2</title>
<path fill="none" stroke="midnightblue" d="M1392.06,-541.843C1456.9,-535.61 1566.9,-522.254 1601,-501 1645.76,-473.101 1676.19,-415.986 1689.46,-386.892"/>
<polygon fill="midnightblue" stroke="midnightblue" points="1692.74,-388.11 1693.56,-377.547 1686.33,-385.293 1692.74,-388.11"/>
</g>
<!-- Node31&#45;&gt;Node3 -->
<g id="edge66" class="edge"><title>Node31&#45;&gt;Node3</title>
<path fill="none" stroke="midnightblue" d="M1387.97,-537.446C1438.64,-525.481 1520.05,-498.865 1567,-445 1630.47,-372.183 1625.58,-331.56 1623,-235 1622.33,-210.084 1630.52,-201.597 1620,-179 1614.41,-166.985 1604.03,-156.618 1594.34,-148.873"/>
<polygon fill="midnightblue" stroke="midnightblue" points="1596.26,-145.938 1586.15,-142.766 1592.08,-151.55 1596.26,-145.938"/>
</g>
<!-- Node31&#45;&gt;Node5 -->
<g id="edge65" class="edge"><title>Node31&#45;&gt;Node5</title>
<path fill="none" stroke="midnightblue" d="M1304.73,-537.49C1218.59,-518.144 1011.83,-470.566 945,-445 885.027,-422.058 873.713,-408.111 817,-378 770.633,-353.382 749.442,-359.788 713,-322 684.293,-292.232 664.005,-273.136 680,-235 693.736,-202.25 708.251,-199.85 737,-179 796.765,-135.658 876.772,-106.184 931.76,-89.4225"/>
<polygon fill="midnightblue" stroke="midnightblue" points="932.809,-92.7621 941.385,-86.5406 930.801,-86.0563 932.809,-92.7621"/>
</g>
<!-- Node31&#45;&gt;Node9 -->
<g id="edge103" class="edge"><title>Node31&#45;&gt;Node9</title>
<path fill="none" stroke="midnightblue" d="M1392.25,-546.385C1518.17,-545.953 1860.73,-535.822 2127,-445 2282.84,-391.846 2320.31,-340.797 2404,-199 2417.95,-175.368 2423.33,-169.617 2430,-143 2434.28,-125.923 2435.02,-105.82 2434.84,-91.4596"/>
<polygon fill="midnightblue" stroke="midnightblue" points="2438.34,-91.2376 2434.55,-81.3417 2431.34,-91.4376 2438.34,-91.2376"/>
</g>
<!-- Node31&#45;&gt;Node10 -->
<g id="edge100" class="edge"><title>Node31&#45;&gt;Node10</title>
<path fill="none" stroke="midnightblue" d="M1293.76,-543.791C1212.83,-539.515 1046.89,-528.029 909,-501 773.424,-474.426 342,-384.156 342,-246 342,-246 342,-246 342,-188 342,-133.484 406.273,-99.3377 446.45,-83.3188"/>
<polygon fill="midnightblue" stroke="midnightblue" points="447.757,-86.5662 455.847,-79.7248 445.256,-80.0281 447.757,-86.5662"/>
</g>
<!-- Node31&#45;&gt;Node11 -->
<g id="edge102" class="edge"><title>Node31&#45;&gt;Node11</title>
<path fill="none" stroke="midnightblue" d="M1392.01,-544.087C1464.02,-540.382 1602.19,-529.858 1716,-501 2004.16,-427.93 2170.86,-500.843 2338,-255 2358.18,-225.32 2312.62,-188.559 2300,-179 2259.67,-148.453 2238.51,-162.917 2192,-143 2152.2,-125.959 2108.22,-101.451 2082.13,-86.2764"/>
<polygon fill="midnightblue" stroke="midnightblue" points="2083.77,-83.1784 2073.37,-81.1389 2080.23,-89.2167 2083.77,-83.1784"/>
</g>
<!-- Node31&#45;&gt;Node13 -->
<g id="edge67" class="edge"><title>Node31&#45;&gt;Node13</title>
<path fill="none" stroke="midnightblue" d="M1392.1,-542.781C1455.38,-537.793 1568.39,-526.032 1662,-501 1867.94,-445.93 1947.34,-463.261 2107,-322 2138.47,-294.157 2154.88,-275.585 2144,-235 2141.35,-225.103 2135.93,-215.131 2130.73,-207.099"/>
<polygon fill="midnightblue" stroke="midnightblue" points="2133.46,-204.906 2124.89,-198.681 2127.71,-208.894 2133.46,-204.906"/>
</g>
<!-- Node31&#45;&gt;Node19 -->
<g id="edge101" class="edge"><title>Node31&#45;&gt;Node19</title>
<path fill="none" stroke="midnightblue" d="M1392.11,-546.559C1450.95,-545.403 1551.22,-537.534 1628,-501 1701.89,-465.843 1723.25,-448.379 1765,-378 1798.08,-322.224 1803.74,-299.113 1794,-235 1792.63,-226.001 1789.81,-216.325 1787.05,-208.26"/>
<polygon fill="midnightblue" stroke="midnightblue" points="1790.31,-206.976 1783.6,-198.778 1783.73,-209.372 1790.31,-206.976"/>
</g>
<!-- Node32 -->
<g id="node32" class="node"><title>Node32</title>
<g id="a_node32"><a xlink:href="reflection_8h.html" target="_top" xlink:title="Reflection and serialization of compiler IR/AST nodes. ">
<polygon fill="white" stroke="black" points="1283.5,-481.5 1283.5,-500.5 1402.5,-500.5 1402.5,-481.5 1283.5,-481.5"/>
<text text-anchor="middle" x="1343" y="-488.5" font-family="Helvetica,sans-Serif" font-size="10.00">tvm/node/reflection.h</text>
</a>
</g>
</g>
<!-- Node31&#45;&gt;Node32 -->
<g id="edge68" class="edge"><title>Node31&#45;&gt;Node32</title>
<path fill="none" stroke="midnightblue" d="M1343,-537.083C1343,-530.006 1343,-519.861 1343,-510.986"/>
<polygon fill="midnightblue" stroke="midnightblue" points="1346.5,-510.751 1343,-500.751 1339.5,-510.751 1346.5,-510.751"/>
</g>
<!-- Node33 -->
<g id="node33" class="node"><title>Node33</title>
<g id="a_node33"><a xlink:href="structural__equal_8h.html" target="_top" xlink:title="Structural equality comparison. ">
<polygon fill="white" stroke="black" points="1447.5,-414.5 1447.5,-444.5 1558.5,-444.5 1558.5,-414.5 1447.5,-414.5"/>
<text text-anchor="start" x="1455.5" y="-432.5" font-family="Helvetica,sans-Serif" font-size="10.00">tvm/node/structural</text>
<text text-anchor="middle" x="1503" y="-421.5" font-family="Helvetica,sans-Serif" font-size="10.00">_equal.h</text>
</a>
</g>
</g>
<!-- Node31&#45;&gt;Node33 -->
<g id="edge98" class="edge"><title>Node31&#45;&gt;Node33</title>
<path fill="none" stroke="midnightblue" d="M1356.48,-537.474C1370.33,-528.617 1392.44,-514.229 1411,-501 1433.88,-484.694 1459.17,-465.204 1477.43,-450.854"/>
<polygon fill="midnightblue" stroke="midnightblue" points="1479.61,-453.593 1485.29,-444.652 1475.27,-448.096 1479.61,-453.593"/>
</g>
<!-- Node35 -->
<g id="node35" class="node"><title>Node35</title>
<g id="a_node35"><a xlink:href="structural__hash_8h.html" target="_top" xlink:title="tvm/node/structural\l_hash.h">
<polygon fill="white" stroke="black" points="1051.5,-414.5 1051.5,-444.5 1162.5,-444.5 1162.5,-414.5 1051.5,-414.5"/>
<text text-anchor="start" x="1059.5" y="-432.5" font-family="Helvetica,sans-Serif" font-size="10.00">tvm/node/structural</text>
<text text-anchor="middle" x="1107" y="-421.5" font-family="Helvetica,sans-Serif" font-size="10.00">_hash.h</text>
</a>
</g>
</g>
<!-- Node31&#45;&gt;Node35 -->
<g id="edge99" class="edge"><title>Node31&#45;&gt;Node35</title>
<path fill="none" stroke="midnightblue" d="M1325.26,-537.319C1287.12,-518.65 1196.56,-474.332 1144.88,-449.037"/>
<polygon fill="midnightblue" stroke="midnightblue" points="1146.22,-445.797 1135.7,-444.545 1143.14,-452.085 1146.22,-445.797"/>
</g>
<!-- Node36 -->
<g id="node36" class="node"><title>Node36</title>
<g id="a_node36"><a xlink:href="repr__printer_8h.html" target="_top" xlink:title="Printer class to print repr string of each AST/IR nodes. ">
<polygon fill="white" stroke="black" points="918,-481.5 918,-500.5 1048,-500.5 1048,-481.5 918,-481.5"/>
<text text-anchor="middle" x="983" y="-488.5" font-family="Helvetica,sans-Serif" font-size="10.00">tvm/node/repr_printer.h</text>
</a>
</g>
</g>
<!-- Node31&#45;&gt;Node36 -->
<g id="edge94" class="edge"><title>Node31&#45;&gt;Node36</title>
<path fill="none" stroke="midnightblue" d="M1293.7,-538.605C1230.47,-529.12 1120.55,-512.633 1049.84,-502.026"/>
<polygon fill="midnightblue" stroke="midnightblue" points="1050.11,-498.527 1039.7,-500.505 1049.07,-505.45 1050.11,-498.527"/>
</g>
<!-- Node32&#45;&gt;Node3 -->
<g id="edge70" class="edge"><title>Node32&#45;&gt;Node3</title>
<path fill="none" stroke="midnightblue" d="M1347.92,-481.377C1367.84,-446.714 1443.26,-318.094 1481,-291 1527.27,-257.78 1569.85,-300.584 1604,-255 1627.57,-223.544 1601.85,-176.128 1584.73,-151.012"/>
<polygon fill="midnightblue" stroke="midnightblue" points="1587.37,-148.674 1578.71,-142.558 1581.66,-152.734 1587.37,-148.674"/>
</g>
<!-- Node32&#45;&gt;Node5 -->
<g id="edge69" class="edge"><title>Node32&#45;&gt;Node5</title>
<path fill="none" stroke="midnightblue" d="M1283.31,-485.283C1221.95,-479.46 1124.05,-467.449 1042,-445 955.695,-421.387 724.601,-336.193 687,-255 683.265,-246.934 682.489,-242.659 687,-235 700.024,-212.887 866.183,-134.747 889,-123 910.591,-111.884 935.043,-100.178 955.016,-90.8378"/>
<polygon fill="midnightblue" stroke="midnightblue" points="956.552,-93.9838 964.14,-86.59 953.597,-87.6379 956.552,-93.9838"/>
</g>
<!-- Node32&#45;&gt;Node9 -->
<g id="edge93" class="edge"><title>Node32&#45;&gt;Node9</title>
<path fill="none" stroke="midnightblue" d="M1402.53,-483.06C1594.48,-459.62 2193.07,-377.916 2338,-255 2391.2,-209.882 2419.03,-127.723 2429.29,-91.0446"/>
<polygon fill="midnightblue" stroke="midnightblue" points="2432.72,-91.7777 2431.92,-81.2129 2425.95,-89.9693 2432.72,-91.7777"/>
</g>
<!-- Node32&#45;&gt;Node10 -->
<g id="edge92" class="edge"><title>Node32&#45;&gt;Node10</title>
<path fill="none" stroke="midnightblue" d="M1283.12,-490.555C1156.6,-488.694 858.376,-467.947 671,-322 582.419,-253.005 511.93,-134.488 487.372,-90.0284"/>
<polygon fill="midnightblue" stroke="midnightblue" points="490.337,-88.1553 482.482,-81.0454 484.189,-91.5019 490.337,-88.1553"/>
</g>
<!-- Node32&#45;&gt;Node13 -->
<g id="edge71" class="edge"><title>Node32&#45;&gt;Node13</title>
<path fill="none" stroke="midnightblue" d="M1388.16,-481.474C1433.48,-472.79 1505.23,-458.691 1567,-445 1568.77,-444.608 2072.47,-322.97 2074,-322 2106.3,-301.516 2115.28,-291.066 2128,-255 2133.4,-239.708 2129.73,-221.376 2125.39,-208.085"/>
<polygon fill="midnightblue" stroke="midnightblue" points="2128.66,-206.841 2121.93,-198.661 2122.09,-209.254 2128.66,-206.841"/>
</g>
<!-- Node32&#45;&gt;Node15 -->
<g id="edge72" class="edge"><title>Node32&#45;&gt;Node15</title>
<path fill="none" stroke="midnightblue" d="M1323.97,-481.438C1292.31,-467.23 1226.79,-437.973 1171,-414 1097.08,-382.237 1010.59,-346.389 959.708,-325.436"/>
<polygon fill="midnightblue" stroke="midnightblue" points="960.907,-322.145 950.328,-321.576 958.243,-328.618 960.907,-322.145"/>
</g>
<!-- Node32&#45;&gt;Node19 -->
<g id="edge91" class="edge"><title>Node32&#45;&gt;Node19</title>
<path fill="none" stroke="midnightblue" d="M1353.19,-481.27C1392.91,-447.303 1537.69,-324.195 1588,-291 1643.12,-254.633 1712.8,-220.704 1751.24,-202.933"/>
<polygon fill="midnightblue" stroke="midnightblue" points="1753.13,-205.915 1760.77,-198.565 1750.22,-199.552 1753.13,-205.915"/>
</g>
<!-- Node32&#45;&gt;Node21 -->
<g id="edge73" class="edge"><title>Node32&#45;&gt;Node21</title>
<path fill="none" stroke="midnightblue" d="M1345.42,-481.169C1353.18,-453.079 1378.51,-363.384 1405,-291 1408.32,-281.929 1412.45,-272.021 1416.01,-263.817"/>
<polygon fill="midnightblue" stroke="midnightblue" points="1419.27,-265.089 1420.11,-254.528 1412.87,-262.263 1419.27,-265.089"/>
</g>
<!-- Node32&#45;&gt;Node24 -->
<g id="edge74" class="edge"><title>Node32&#45;&gt;Node24</title>
<path fill="none" stroke="midnightblue" d="M1340.21,-481.405C1337.31,-472.373 1332.68,-457.735 1329,-445 1309.95,-378.977 1289.63,-299.922 1280.68,-264.617"/>
<polygon fill="midnightblue" stroke="midnightblue" points="1284.04,-263.603 1278.2,-254.764 1277.25,-265.317 1284.04,-263.603"/>
</g>
<!-- Node32&#45;&gt;Node33 -->
<g id="edge75" class="edge"><title>Node32&#45;&gt;Node33</title>
<path fill="none" stroke="midnightblue" d="M1365.92,-481.475C1389.21,-472.814 1425.97,-459.145 1455.56,-448.141"/>
<polygon fill="midnightblue" stroke="midnightblue" points="1457.14,-451.289 1465.29,-444.523 1454.7,-444.728 1457.14,-451.289"/>
</g>
<!-- Node32&#45;&gt;Node35 -->
<g id="edge85" class="edge"><title>Node32&#45;&gt;Node35</title>
<path fill="none" stroke="midnightblue" d="M1309.19,-481.475C1273.64,-472.513 1216.82,-458.188 1172.46,-447.003"/>
<polygon fill="midnightblue" stroke="midnightblue" points="1173.17,-443.574 1162.62,-444.523 1171.46,-450.362 1173.17,-443.574"/>
</g>
<!-- Node33&#45;&gt;Node2 -->
<g id="edge83" class="edge"><title>Node33&#45;&gt;Node2</title>
<path fill="none" stroke="midnightblue" d="M1548.98,-414.399C1582.64,-404.073 1627.78,-390.231 1659.32,-380.556"/>
<polygon fill="midnightblue" stroke="midnightblue" points="1660.52,-383.849 1669.05,-377.571 1658.47,-377.157 1660.52,-383.849"/>
</g>
<!-- Node33&#45;&gt;Node10 -->
<g id="edge84" class="edge"><title>Node33&#45;&gt;Node10</title>
<path fill="none" stroke="midnightblue" d="M1447.37,-426.598C1327.4,-421.081 1036.74,-400.062 808,-322 749.823,-302.146 736.171,-291.891 687,-255 620.382,-205.02 618.545,-175.629 554,-123 537.325,-109.404 516.953,-96.0205 501.499,-86.4508"/>
<polygon fill="midnightblue" stroke="midnightblue" points="502.95,-83.2359 492.59,-81.0173 499.305,-89.2122 502.95,-83.2359"/>
</g>
<!-- Node33&#45;&gt;Node24 -->
<g id="edge76" class="edge"><title>Node33&#45;&gt;Node24</title>
<path fill="none" stroke="midnightblue" d="M1485.56,-414.483C1443.7,-380.827 1337.8,-295.686 1294.69,-261.026"/>
<polygon fill="midnightblue" stroke="midnightblue" points="1296.7,-258.153 1286.72,-254.615 1292.32,-263.609 1296.7,-258.153"/>
</g>
<!-- Node34 -->
<g id="node34" class="node"><title>Node34</title>
<g id="a_node34"><a xlink:href="functor_8h.html" target="_top" xlink:title="Defines the Functor data structures. ">
<polygon fill="white" stroke="black" points="1960.5,-235.5 1960.5,-254.5 2067.5,-254.5 2067.5,-235.5 1960.5,-235.5"/>
<text text-anchor="middle" x="2014" y="-242.5" font-family="Helvetica,sans-Serif" font-size="10.00">tvm/node/functor.h</text>
</a>
</g>
</g>
<!-- Node33&#45;&gt;Node34 -->
<g id="edge77" class="edge"><title>Node33&#45;&gt;Node34</title>
<path fill="none" stroke="midnightblue" d="M1513.84,-414.238C1538.55,-382.13 1599.16,-305.814 1628,-291 1682.72,-262.893 1855.34,-251.995 1950.13,-248.051"/>
<polygon fill="midnightblue" stroke="midnightblue" points="1950.32,-251.547 1960.17,-247.647 1950.04,-244.552 1950.32,-251.547"/>
</g>
<!-- Node34&#45;&gt;Node3 -->
<g id="edge79" class="edge"><title>Node34&#45;&gt;Node3</title>
<path fill="none" stroke="midnightblue" d="M1991.26,-235.37C1967.83,-226.431 1930.27,-211.978 1898,-199 1876.56,-190.376 1872.23,-185.334 1850,-179 1780.03,-159.058 1697.46,-147.095 1640.59,-140.572"/>
<polygon fill="midnightblue" stroke="midnightblue" points="1640.96,-137.092 1630.64,-139.456 1640.18,-144.049 1640.96,-137.092"/>
</g>
<!-- Node34&#45;&gt;Node4 -->
<g id="edge78" class="edge"><title>Node34&#45;&gt;Node4</title>
<path fill="none" stroke="midnightblue" d="M2000.18,-235.365C1977.54,-221.576 1930.8,-194.56 1888,-179 1795.54,-145.382 1507.03,-98.9418 1387.11,-80.5065"/>
<polygon fill="midnightblue" stroke="midnightblue" points="1387.47,-77.022 1377.06,-78.9669 1386.41,-83.9413 1387.47,-77.022"/>
</g>
<!-- Node34&#45;&gt;Node9 -->
<g id="edge81" class="edge"><title>Node34&#45;&gt;Node9</title>
<path fill="none" stroke="midnightblue" d="M2013.26,-235.344C2011.86,-212.916 2011.55,-152.608 2045,-123 2095.22,-78.5506 2298.41,-72.6045 2389.47,-72.2263"/>
<polygon fill="midnightblue" stroke="midnightblue" points="2389.76,-75.7258 2399.75,-72.2055 2389.74,-68.7259 2389.76,-75.7258"/>
</g>
<!-- Node34&#45;&gt;Node11 -->
<g id="edge82" class="edge"><title>Node34&#45;&gt;Node11</title>
<path fill="none" stroke="midnightblue" d="M2002.73,-235.427C1993.03,-227.275 1979.72,-214.046 1974,-199 1962,-167.427 1957.29,-152.357 1974,-123 1985.57,-102.674 2008.9,-89.6787 2028.2,-81.9692"/>
<polygon fill="midnightblue" stroke="midnightblue" points="2029.67,-85.1567 2037.84,-78.4085 2027.24,-78.5903 2029.67,-85.1567"/>
</g>
<!-- Node34&#45;&gt;Node19 -->
<g id="edge80" class="edge"><title>Node34&#45;&gt;Node19</title>
<path fill="none" stroke="midnightblue" d="M1976.92,-235.444C1931.94,-225.064 1856.78,-207.718 1813.49,-197.727"/>
<polygon fill="midnightblue" stroke="midnightblue" points="1814.25,-194.312 1803.72,-195.474 1812.68,-201.133 1814.25,-194.312"/>
</g>
<!-- Node35&#45;&gt;Node2 -->
<g id="edge88" class="edge"><title>Node35&#45;&gt;Node2</title>
<path fill="none" stroke="midnightblue" d="M1162.51,-422.902C1270.52,-412.01 1508.73,-387.987 1627.23,-376.037"/>
<polygon fill="midnightblue" stroke="midnightblue" points="1627.68,-379.509 1637.28,-375.023 1626.98,-372.544 1627.68,-379.509"/>
</g>
<!-- Node35&#45;&gt;Node10 -->
<g id="edge89" class="edge"><title>Node35&#45;&gt;Node10</title>
<path fill="none" stroke="midnightblue" d="M1051.3,-424.012C971.455,-415.329 822.483,-390.57 717,-322 615.244,-255.852 615.104,-209.529 530,-123 518.442,-111.248 505.098,-98.3014 494.822,-88.4593"/>
<polygon fill="midnightblue" stroke="midnightblue" points="496.982,-85.6835 487.331,-81.3138 492.151,-90.7486 496.982,-85.6835"/>
</g>
<!-- Node35&#45;&gt;Node24 -->
<g id="edge86" class="edge"><title>Node35&#45;&gt;Node24</title>
<path fill="none" stroke="midnightblue" d="M1111.22,-414.498C1116.21,-399.491 1125.56,-375.471 1139,-358 1171.6,-315.633 1223.17,-279.117 1252.87,-260.071"/>
<polygon fill="midnightblue" stroke="midnightblue" points="1254.74,-263.027 1261.34,-254.734 1251.01,-257.105 1254.74,-263.027"/>
</g>
<!-- Node35&#45;&gt;Node25 -->
<g id="edge90" class="edge"><title>Node35&#45;&gt;Node25</title>
<path fill="none" stroke="midnightblue" d="M1051.26,-415.896C989.023,-400.211 886.828,-369.545 809,-322 782.375,-305.735 757.05,-279.671 742.017,-262.692"/>
<polygon fill="midnightblue" stroke="midnightblue" points="744.33,-260.016 735.141,-254.741 739.035,-264.595 744.33,-260.016"/>
</g>
<!-- Node35&#45;&gt;Node34 -->
<g id="edge87" class="edge"><title>Node35&#45;&gt;Node34</title>
<path fill="none" stroke="midnightblue" d="M1116.81,-414.287C1128.94,-397.904 1151.17,-371.505 1177,-358 1196,-348.068 1535.76,-293.914 1557,-291 1696.8,-271.822 1861.73,-257.652 1950.23,-250.733"/>
<polygon fill="midnightblue" stroke="midnightblue" points="1950.67,-254.209 1960.37,-249.945 1950.13,-247.23 1950.67,-254.209"/>
</g>
<!-- Node36&#45;&gt;Node34 -->
<g id="edge95" class="edge"><title>Node36&#45;&gt;Node34</title>
<path fill="none" stroke="midnightblue" d="M1024.82,-481.482C1063.18,-473.319 1121.38,-460.043 1171,-445 1360.07,-387.681 1395.61,-335.946 1588,-291 1714.35,-261.481 1866.35,-251.297 1950.35,-247.803"/>
<polygon fill="midnightblue" stroke="midnightblue" points="1950.64,-251.295 1960.5,-247.4 1950.37,-244.3 1950.64,-251.295"/>
</g>
<!-- Node37 -->
<g id="node37" class="node"><title>Node37</title>
<polygon fill="white" stroke="#bfbfbf" points="726.5,-420 726.5,-439 785.5,-439 785.5,-420 726.5,-420"/>
<text text-anchor="middle" x="756" y="-427" font-family="Helvetica,sans-Serif" font-size="10.00">iostream</text>
</g>
<!-- Node36&#45;&gt;Node37 -->
<g id="edge96" class="edge"><title>Node36&#45;&gt;Node37</title>
<path fill="none" stroke="midnightblue" d="M944.568,-481.459C907.38,-472.981 849.527,-459.227 800,-445 797.004,-444.14 793.908,-443.207 790.809,-442.245"/>
<polygon fill="midnightblue" stroke="midnightblue" points="791.617,-438.829 781.026,-439.118 789.486,-445.496 791.617,-438.829"/>
</g>
<!-- Node38&#45;&gt;Node3 -->
<g id="edge106" class="edge"><title>Node38&#45;&gt;Node3</title>
<path fill="none" stroke="midnightblue" d="M1315.16,-600.323C1469.64,-593.349 2017,-563.584 2017,-492 2017,-492 2017,-492 2017,-428.5 2017,-356.741 1875.76,-211.92 1812,-179 1796.53,-171.011 1702.04,-154.738 1636.35,-144.107"/>
<polygon fill="midnightblue" stroke="midnightblue" points="1636.9,-140.652 1626.47,-142.517 1635.79,-147.563 1636.9,-140.652"/>
</g>
<!-- Node38&#45;&gt;Node10 -->
<g id="edge108" class="edge"><title>Node38&#45;&gt;Node10</title>
<path fill="none" stroke="midnightblue" d="M1234.96,-599.791C1137.56,-592.63 884.013,-563.087 717,-445 582.679,-350.028 576.374,-290.235 503,-143 494.507,-125.958 487.542,-105.31 483.14,-90.7779"/>
<polygon fill="midnightblue" stroke="midnightblue" points="486.453,-89.6366 480.291,-81.018 479.734,-91.5982 486.453,-89.6366"/>
</g>
<!-- Node38&#45;&gt;Node31 -->
<g id="edge107" class="edge"><title>Node38&#45;&gt;Node31</title>
<path fill="none" stroke="midnightblue" d="M1285.93,-593.324C1296.17,-585.185 1311.72,-572.839 1324,-563.087"/>
<polygon fill="midnightblue" stroke="midnightblue" points="1326.22,-565.794 1331.88,-556.834 1321.87,-560.312 1326.22,-565.794"/>
</g>
<!-- Node39&#45;&gt;Node2 -->
<g id="edge113" class="edge"><title>Node39&#45;&gt;Node2</title>
<path fill="none" stroke="midnightblue" d="M1333.43,-649.415C1389.13,-629.142 1528.37,-574.426 1628,-501 1655.59,-480.669 1665.09,-475.353 1681,-445 1690.37,-427.124 1694.25,-404.172 1695.86,-388.19"/>
<polygon fill="midnightblue" stroke="midnightblue" points="1699.37,-388.203 1696.68,-377.957 1692.39,-387.647 1699.37,-388.203"/>
</g>
<!-- Node39&#45;&gt;Node3 -->
<g id="edge110" class="edge"><title>Node39&#45;&gt;Node3</title>
<path fill="none" stroke="midnightblue" d="M1347.84,-657.446C1460.86,-654.255 1796.44,-633.473 2031,-501 2067.53,-480.367 2082.26,-478.888 2107,-445 2175.04,-351.803 2171.31,-312.865 2190,-199 2191.44,-190.229 2196.05,-185.51 2190,-179 2153.23,-139.459 1794.06,-134.261 1640.77,-133.858"/>
<polygon fill="midnightblue" stroke="midnightblue" points="1640.54,-130.358 1630.53,-133.838 1640.53,-137.358 1640.54,-130.358"/>
</g>
<!-- Node39&#45;&gt;Node10 -->
<g id="edge115" class="edge"><title>Node39&#45;&gt;Node10</title>
<path fill="none" stroke="midnightblue" d="M1270.21,-653.706C1214.29,-647.125 1107.95,-633.154 1019,-613 655.905,-530.728 266,-618.3 266,-246 266,-246 266,-246 266,-188 266,-107.142 386.392,-82.5594 445.725,-75.3541"/>
<polygon fill="midnightblue" stroke="midnightblue" points="446.165,-78.8269 455.713,-74.2358 445.386,-71.8704 446.165,-78.8269"/>
</g>
<!-- Node39&#45;&gt;Node24 -->
<g id="edge111" class="edge"><title>Node39&#45;&gt;Node24</title>
<path fill="none" stroke="midnightblue" d="M1270.46,-656.337C1187.46,-650.425 992.523,-623.509 909,-501 819.607,-369.881 1107.34,-285.501 1226.63,-256.875"/>
<polygon fill="midnightblue" stroke="midnightblue" points="1227.7,-260.221 1236.62,-254.514 1226.09,-253.408 1227.7,-260.221"/>
</g>
<!-- Node39&#45;&gt;Node31 -->
<g id="edge112" class="edge"><title>Node39&#45;&gt;Node31</title>
<path fill="none" stroke="midnightblue" d="M1311.97,-649.404C1315.07,-640.371 1320.02,-625.733 1324,-613 1328.88,-597.396 1334.06,-579.564 1337.78,-566.529"/>
<polygon fill="midnightblue" stroke="midnightblue" points="1341.16,-567.438 1340.52,-556.863 1334.43,-565.529 1341.16,-567.438"/>
</g>
<!-- Node39&#45;&gt;Node38 -->
<g id="edge114" class="edge"><title>Node39&#45;&gt;Node38</title>
<path fill="none" stroke="midnightblue" d="M1303.39,-649.083C1298.63,-641.534 1291.68,-630.495 1285.85,-621.23"/>
<polygon fill="midnightblue" stroke="midnightblue" points="1288.8,-619.349 1280.51,-612.751 1282.88,-623.078 1288.8,-619.349"/>
</g>
<!-- Node41&#45;&gt;Node20 -->
<g id="edge135" class="edge"><title>Node41&#45;&gt;Node20</title>
<path fill="none" stroke="midnightblue" d="M834.942,-826.634C694.671,-827.709 311.568,-826.292 195,-781 151.975,-764.283 114,-762.158 114,-716 114,-716 114,-716 114,-305.5 114,-271.362 114.442,-231.551 114.739,-208.709"/>
<polygon fill="midnightblue" stroke="midnightblue" points="118.238,-208.739 114.873,-198.693 111.239,-208.645 118.238,-208.739"/>
</g>
<!-- Node41&#45;&gt;Node30 -->
<g id="edge121" class="edge"><title>Node41&#45;&gt;Node30</title>
<path fill="none" stroke="midnightblue" d="M902.643,-817.472C917.506,-809.055 940.17,-795.39 958,-781 976.574,-766.009 995.461,-746.14 1007.85,-732.332"/>
<polygon fill="midnightblue" stroke="midnightblue" points="1010.67,-734.428 1014.67,-724.616 1005.43,-729.793 1010.67,-734.428"/>
</g>
<!-- Node41&#45;&gt;Node42 -->
<g id="edge122" class="edge"><title>Node41&#45;&gt;Node42</title>
<path fill="none" stroke="midnightblue" d="M890.633,-817.083C893.612,-809.77 897.926,-799.181 901.625,-790.103"/>
<polygon fill="midnightblue" stroke="midnightblue" points="904.903,-791.333 905.435,-780.751 898.42,-788.691 904.903,-791.333"/>
</g>
<!-- Node42&#45;&gt;Node2 -->
<g id="edge124" class="edge"><title>Node42&#45;&gt;Node2</title>
<path fill="none" stroke="midnightblue" d="M949.35,-769.532C1072.24,-767.186 1451.81,-753.128 1752,-669 1809.84,-652.791 1842.5,-663.512 1875,-613 1923.47,-537.668 1910.81,-472.534 1843,-414 1821.72,-395.635 1793.05,-384.764 1766.74,-378.329"/>
<polygon fill="midnightblue" stroke="midnightblue" points="1767.32,-374.872 1756.8,-376.073 1765.77,-381.698 1767.32,-374.872"/>
</g>
<!-- Node42&#45;&gt;Node5 -->
<g id="edge126" class="edge"><title>Node42&#45;&gt;Node5</title>
<path fill="none" stroke="midnightblue" d="M868.988,-770.582C770.184,-771.323 517.612,-768.762 448,-725 381.712,-683.328 304,-618.356 304,-430.5 304,-430.5 304,-430.5 304,-244 304,-117.899 742.96,-83.864 921.153,-75.2428"/>
<polygon fill="midnightblue" stroke="midnightblue" points="921.406,-78.7349 931.231,-74.769 921.078,-71.7426 921.406,-78.7349"/>
</g>
<!-- Node42&#45;&gt;Node10 -->
<g id="edge129" class="edge"><title>Node42&#45;&gt;Node10</title>
<path fill="none" stroke="midnightblue" d="M868.58,-769.961C746.792,-769.4 384.994,-764.374 275,-725 202.802,-699.156 152,-680.684 152,-604 152,-604 152,-604 152,-546 152,-452.429 38,-462.571 38,-369 38,-369 38,-369 38,-188 38,-103.703 343.952,-79.6798 445.605,-74.0244"/>
<polygon fill="midnightblue" stroke="midnightblue" points="446.079,-77.5042 455.879,-73.4773 445.707,-70.5141 446.079,-77.5042"/>
</g>
<!-- Node42&#45;&gt;Node11 -->
<g id="edge134" class="edge"><title>Node42&#45;&gt;Node11</title>
<path fill="none" stroke="midnightblue" d="M949.176,-769.635C1122.17,-767.869 1804.34,-758.853 2016,-725 2120.47,-708.291 2245,-765.798 2245,-660 2245,-660 2245,-660 2245,-602 2245,-431.72 2395.3,-400.443 2355,-235 2348.37,-207.768 2346.96,-197.605 2326,-179 2291.92,-148.753 2272.1,-160.438 2230,-143 2210.15,-134.78 2205.76,-131.415 2186,-123 2153.43,-109.131 2115.69,-94.2755 2089.86,-84.2937"/>
<polygon fill="midnightblue" stroke="midnightblue" points="2090.84,-80.9191 2080.25,-80.59 2088.32,-87.4511 2090.84,-80.9191"/>
</g>
<!-- Node42&#45;&gt;Node20 -->
<g id="edge131" class="edge"><title>Node42&#45;&gt;Node20</title>
<path fill="none" stroke="midnightblue" d="M868.947,-770.157C754.146,-770.097 425.902,-766.228 328,-725 252.823,-693.342 190,-685.571 190,-604 190,-604 190,-604 190,-546 190,-413.912 139.951,-260.063 121.623,-208.151"/>
<polygon fill="midnightblue" stroke="midnightblue" points="124.892,-206.897 118.223,-198.665 118.302,-209.259 124.892,-206.897"/>
</g>
<!-- Node42&#45;&gt;Node24 -->
<g id="edge127" class="edge"><title>Node42&#45;&gt;Node24</title>
<path fill="none" stroke="midnightblue" d="M868.994,-769.784C798.607,-767.07 660,-750.266 660,-660 660,-660 660,-660 660,-490 660,-447.778 682.916,-438.92 717,-414 817.305,-340.665 870.179,-378.193 981,-322 1002.66,-311.017 1003.54,-300.248 1026,-291 1056.95,-278.254 1139.1,-264.801 1200.84,-255.962"/>
<polygon fill="midnightblue" stroke="midnightblue" points="1201.54,-259.398 1210.95,-254.529 1200.56,-252.467 1201.54,-259.398"/>
</g>
<!-- Node42&#45;&gt;Node27 -->
<g id="edge133" class="edge"><title>Node42&#45;&gt;Node27</title>
<path fill="none" stroke="midnightblue" d="M868.819,-769.541C751.554,-767.127 418,-752.161 418,-660 418,-660 418,-660 418,-367 418,-329.838 405.719,-287.764 397.722,-264.308"/>
<polygon fill="midnightblue" stroke="midnightblue" points="400.943,-262.919 394.311,-254.657 394.344,-265.252 400.943,-262.919"/>
</g>
<!-- Node42&#45;&gt;Node30 -->
<g id="edge128" class="edge"><title>Node42&#45;&gt;Node30</title>
<path fill="none" stroke="midnightblue" d="M926.905,-761.444C945.254,-752.675 974.005,-738.935 995.094,-728.858"/>
<polygon fill="midnightblue" stroke="midnightblue" points="996.665,-731.986 1004.18,-724.516 993.647,-725.67 996.665,-731.986"/>
</g>
<!-- Node42&#45;&gt;Node31 -->
<g id="edge123" class="edge"><title>Node42&#45;&gt;Node31</title>
<path fill="none" stroke="midnightblue" d="M916.312,-761.192C927.675,-747.877 950.697,-722.338 974,-705 1058.24,-642.326 1084.62,-632.261 1182,-593 1218.19,-578.409 1260.77,-566.732 1293.06,-558.933"/>
<polygon fill="midnightblue" stroke="midnightblue" points="1294.23,-562.251 1303.15,-556.538 1292.61,-555.44 1294.23,-562.251"/>
</g>
<!-- Node42&#45;&gt;Node34 -->
<g id="edge125" class="edge"><title>Node42&#45;&gt;Node34</title>
<path fill="none" stroke="midnightblue" d="M949.161,-769.937C1131.98,-769.434 1880.8,-764.931 1977,-725 2084.19,-680.506 2169,-664.061 2169,-548 2169,-548 2169,-548 2169,-490 2169,-389.525 2074.2,-296.97 2032.88,-261.4"/>
<polygon fill="midnightblue" stroke="midnightblue" points="2035.05,-258.651 2025.15,-254.876 2030.53,-264 2035.05,-258.651"/>
</g>
<!-- Node42&#45;&gt;Node37 -->
<g id="edge132" class="edge"><title>Node42&#45;&gt;Node37</title>
<path fill="none" stroke="midnightblue" d="M868.816,-766.888C807.596,-759.711 698,-736.219 698,-660 698,-660 698,-660 698,-546 698,-507.149 724.532,-468.017 741.706,-446.756"/>
<polygon fill="midnightblue" stroke="midnightblue" points="744.437,-448.946 748.178,-439.033 739.072,-444.449 744.437,-448.946"/>
</g>
<!-- Node42&#45;&gt;Node40 -->
<g id="edge130" class="edge"><title>Node42&#45;&gt;Node40</title>
<path fill="none" stroke="midnightblue" d="M949.006,-770.358C1129.39,-771.695 1862.12,-774.042 1951,-725 1969.36,-714.871 1981.83,-693.688 1988.9,-678.248"/>
<polygon fill="midnightblue" stroke="midnightblue" points="1992.28,-679.257 1992.94,-668.683 1985.83,-676.533 1992.28,-679.257"/>
</g>
<!-- Node43&#45;&gt;Node9 -->
<g id="edge139" class="edge"><title>Node43&#45;&gt;Node9</title>
<path fill="none" stroke="midnightblue" d="M2211.6,-818.046C2287.33,-802.366 2440,-764.718 2440,-716 2440,-716 2440,-716 2440,-658 2440,-481.228 2628,-484.272 2628,-307.5 2628,-307.5 2628,-307.5 2628,-188 2628,-118.667 2535.39,-90.0045 2478.14,-78.9101"/>
<polygon fill="midnightblue" stroke="midnightblue" points="2478.7,-75.4555 2468.24,-77.0967 2477.44,-82.341 2478.7,-75.4555"/>
</g>
<!-- Node43&#45;&gt;Node10 -->
<g id="edge140" class="edge"><title>Node43&#45;&gt;Node10</title>
<path fill="none" stroke="midnightblue" d="M2128.46,-825.505C1878.09,-822.272 575.605,-801.84 417,-725 254.05,-646.056 190,-275.29 190,-246 190,-246 190,-246 190,-188 190,-151.004 210.527,-142.445 242,-123 306.455,-83.1774 397.601,-74.4161 445.574,-72.7046"/>
<polygon fill="midnightblue" stroke="midnightblue" points="445.787,-76.2002 455.687,-72.4269 445.595,-69.2028 445.787,-76.2002"/>
</g>
<!-- Node43&#45;&gt;Node11 -->
<g id="edge142" class="edge"><title>Node43&#45;&gt;Node11</title>
<path fill="none" stroke="midnightblue" d="M2188.9,-817.464C2204.86,-809.602 2227.68,-796.781 2244,-781 2283.35,-742.957 2514,-423.732 2514,-369 2514,-369 2514,-369 2514,-305.5 2514,-114.571 2192.66,-79.9941 2090.08,-73.8205"/>
<polygon fill="midnightblue" stroke="midnightblue" points="2090.21,-70.3226 2080.03,-73.2661 2089.82,-77.312 2090.21,-70.3226"/>
</g>
<!-- Node43&#45;&gt;Node19 -->
<g id="edge141" class="edge"><title>Node43&#45;&gt;Node19</title>
<path fill="none" stroke="midnightblue" d="M2181.66,-817.269C2201.74,-801.454 2242.29,-765.889 2259,-725 2300.07,-624.492 2325.11,-575.133 2271,-481 2171.55,-307.981 2053.63,-358.491 1883,-255 1854.78,-237.884 1822.68,-217.474 1801.92,-204.152"/>
<polygon fill="midnightblue" stroke="midnightblue" points="1803.54,-201.032 1793.24,-198.566 1799.76,-206.919 1803.54,-201.032"/>
</g>
<!-- Node43&#45;&gt;Node42 -->
<g id="edge138" class="edge"><title>Node43&#45;&gt;Node42</title>
<path fill="none" stroke="midnightblue" d="M2128.4,-824.219C1939.81,-816.143 1165.36,-782.978 959.467,-774.161"/>
<polygon fill="midnightblue" stroke="midnightblue" points="959.39,-770.655 949.249,-773.724 959.091,-777.648 959.39,-770.655"/>
</g>
<!-- Node44&#45;&gt;Node9 -->
<g id="edge150" class="edge"><title>Node44&#45;&gt;Node9</title>
<path fill="none" stroke="midnightblue" d="M2206.24,-879.244C2287.65,-870.878 2478,-838.247 2478,-716 2478,-716 2478,-716 2478,-658 2478,-481.228 2666,-484.272 2666,-307.5 2666,-307.5 2666,-307.5 2666,-188 2666,-105.146 2545.95,-81.7268 2478.57,-75.1077"/>
<polygon fill="midnightblue" stroke="midnightblue" points="2478.5,-71.588 2468.23,-74.1831 2477.88,-78.5602 2478.5,-71.588"/>
</g>
<!-- Node44&#45;&gt;Node27 -->
<g id="edge151" class="edge"><title>Node44&#45;&gt;Node27</title>
<path fill="none" stroke="midnightblue" d="M2133.76,-880.053C1986.26,-872.132 1416.61,-841.582 948,-817 909.335,-814.972 278.662,-809.076 252,-781 137.802,-660.742 380,-596.34 380,-430.5 380,-430.5 380,-430.5 380,-367 380,-330.745 384.958,-288.631 388.217,-264.867"/>
<polygon fill="midnightblue" stroke="midnightblue" points="391.709,-265.174 389.651,-254.781 384.778,-264.189 391.709,-265.174"/>
</g>
<!-- Node44&#45;&gt;Node39 -->
<g id="edge146" class="edge"><title>Node44&#45;&gt;Node39</title>
<path fill="none" stroke="midnightblue" d="M2136.78,-873.433C2002.79,-838.887 1502.2,-709.815 1351.92,-671.067"/>
<polygon fill="midnightblue" stroke="midnightblue" points="1352.68,-667.649 1342.13,-668.541 1350.94,-674.427 1352.68,-667.649"/>
</g>
<!-- Node44&#45;&gt;Node40 -->
<g id="edge149" class="edge"><title>Node44&#45;&gt;Node40</title>
<path fill="none" stroke="midnightblue" d="M2184.98,-873.437C2203.6,-861.616 2231.57,-839.229 2220,-817 2179.85,-739.822 2082.45,-692.704 2030.31,-672.146"/>
<polygon fill="midnightblue" stroke="midnightblue" points="2031.4,-668.819 2020.81,-668.501 2028.89,-675.353 2031.4,-668.819"/>
</g>
<!-- Node44&#45;&gt;Node42 -->
<g id="edge147" class="edge"><title>Node44&#45;&gt;Node42</title>
<path fill="none" stroke="midnightblue" d="M2133.96,-878.856C1955.53,-863.291 1167.06,-794.511 959.312,-776.389"/>
<polygon fill="midnightblue" stroke="midnightblue" points="959.56,-772.897 949.293,-775.515 958.951,-779.871 959.56,-772.897"/>
</g>
<!-- Node44&#45;&gt;Node43 -->
<g id="edge148" class="edge"><title>Node44&#45;&gt;Node43</title>
<path fill="none" stroke="midnightblue" d="M2170,-873.083C2170,-866.006 2170,-855.861 2170,-846.986"/>
<polygon fill="midnightblue" stroke="midnightblue" points="2173.5,-846.751 2170,-836.751 2166.5,-846.751 2173.5,-846.751"/>
</g>
</g>
</svg>
