<?xml version="1.0" encoding="UTF-8" standalone="no"?>
<!DOCTYPE svg PUBLIC "-//W3C//DTD SVG 1.1//EN"
 "http://www.w3.org/Graphics/SVG/1.1/DTD/svg11.dtd">
<!-- Generated by graphviz version 2.38.0 (20140413.2041)
 -->
<!-- Title: include/tvm/tir/function.h Pages: 1 -->
<svg width="2902pt" height="1013pt"
 viewBox="0.00 0.00 2902.00 1013.00" xmlns="http://www.w3.org/2000/svg" xmlns:xlink="http://www.w3.org/1999/xlink">
<g id="graph0" class="graph" transform="scale(1 1) rotate(0) translate(4 1009)">
<title>include/tvm/tir/function.h</title>
<polygon fill="white" stroke="none" points="-4,4 -4,-1009 2898,-1009 2898,4 -4,4"/>
<!-- Node1 -->
<g id="node1" class="node"><title>Node1</title>
<polygon fill="#bfbfbf" stroke="black" points="2180.5,-985.5 2180.5,-1004.5 2315.5,-1004.5 2315.5,-985.5 2180.5,-985.5"/>
<text text-anchor="middle" x="2248" y="-992.5" font-family="Helvetica,sans-Serif" font-size="10.00">include/tvm/tir/function.h</text>
</g>
<!-- Node2 -->
<g id="node2" class="node"><title>Node2</title>
<g id="a_node2"><a xlink:href="ir_2function_8h.html" target="_top" xlink:title="Function nodes. ">
<polygon fill="white" stroke="black" points="2276.5,-817.5 2276.5,-836.5 2371.5,-836.5 2371.5,-817.5 2276.5,-817.5"/>
<text text-anchor="middle" x="2324" y="-824.5" font-family="Helvetica,sans-Serif" font-size="10.00">tvm/ir/function.h</text>
</a>
</g>
</g>
<!-- Node1&#45;&gt;Node2 -->
<g id="edge1" class="edge"><title>Node1&#45;&gt;Node2</title>
<path fill="none" stroke="midnightblue" d="M2252.09,-985.075C2264.15,-958.719 2299.79,-880.878 2315.91,-845.661"/>
<polygon fill="midnightblue" stroke="midnightblue" points="2319.1,-847.117 2320.08,-836.568 2312.73,-844.204 2319.1,-847.117"/>
</g>
<!-- Node11 -->
<g id="node11" class="node"><title>Node11</title>
<polygon fill="white" stroke="#bfbfbf" points="2530,-62 2530,-81 2574,-81 2574,-62 2530,-62"/>
<text text-anchor="middle" x="2552" y="-69" font-family="Helvetica,sans-Serif" font-size="10.00">string</text>
</g>
<!-- Node1&#45;&gt;Node11 -->
<g id="edge160" class="edge"><title>Node1&#45;&gt;Node11</title>
<path fill="none" stroke="midnightblue" d="M2315.61,-989.519C2481.27,-977.639 2894,-942.199 2894,-884 2894,-884 2894,-884 2894,-188 2894,-151.28 2874.52,-141.837 2843,-123 2799.64,-97.0863 2650.65,-81.1472 2584.31,-75.1792"/>
<polygon fill="midnightblue" stroke="midnightblue" points="2584.3,-71.6649 2574.03,-74.2752 2583.68,-78.6379 2584.3,-71.6649"/>
</g>
<!-- Node43 -->
<g id="node43" class="node"><title>Node43</title>
<g id="a_node43"><a xlink:href="tir_2expr_8h.html" target="_top" xlink:title="TIR expressions. ">
<polygon fill="white" stroke="black" points="590,-761.5 590,-780.5 670,-780.5 670,-761.5 590,-761.5"/>
<text text-anchor="middle" x="630" y="-768.5" font-family="Helvetica,sans-Serif" font-size="10.00">tvm/tir/expr.h</text>
</a>
</g>
</g>
<!-- Node1&#45;&gt;Node43 -->
<g id="edge130" class="edge"><title>Node1&#45;&gt;Node43</title>
<path fill="none" stroke="midnightblue" d="M2185.56,-985.433C1923.76,-949.512 917.07,-811.388 680.144,-778.88"/>
<polygon fill="midnightblue" stroke="midnightblue" points="680.476,-775.393 670.093,-777.501 679.524,-782.328 680.476,-775.393"/>
</g>
<!-- Node44 -->
<g id="node44" class="node"><title>Node44</title>
<g id="a_node44"><a xlink:href="buffer_8h.html" target="_top" xlink:title="Symbolic n&#45;dimensional array, to represent a memory buffer. ">
<polygon fill="white" stroke="black" points="621.5,-929.5 621.5,-948.5 708.5,-948.5 708.5,-929.5 621.5,-929.5"/>
<text text-anchor="middle" x="665" y="-936.5" font-family="Helvetica,sans-Serif" font-size="10.00">tvm/tir/buffer.h</text>
</a>
</g>
</g>
<!-- Node1&#45;&gt;Node44 -->
<g id="edge143" class="edge"><title>Node1&#45;&gt;Node44</title>
<path fill="none" stroke="midnightblue" d="M2180.49,-991.697C1916.49,-982.691 956.889,-949.957 718.76,-941.834"/>
<polygon fill="midnightblue" stroke="midnightblue" points="718.736,-938.331 708.623,-941.488 718.497,-945.327 718.736,-938.331"/>
</g>
<!-- Node46 -->
<g id="node46" class="node"><title>Node46</title>
<g id="a_node46"><a xlink:href="stmt_8h.html" target="_top" xlink:title="TIR statements. ">
<polygon fill="white" stroke="black" points="553.5,-817.5 553.5,-836.5 636.5,-836.5 636.5,-817.5 553.5,-817.5"/>
<text text-anchor="middle" x="595" y="-824.5" font-family="Helvetica,sans-Serif" font-size="10.00">tvm/tir/stmt.h</text>
</a>
</g>
</g>
<!-- Node1&#45;&gt;Node46 -->
<g id="edge159" class="edge"><title>Node1&#45;&gt;Node46</title>
<path fill="none" stroke="midnightblue" d="M2180.38,-987.209C1907.35,-959.791 889.328,-857.557 647.007,-833.223"/>
<polygon fill="midnightblue" stroke="midnightblue" points="647.019,-829.706 636.719,-832.19 646.32,-836.671 647.019,-829.706"/>
</g>
<!-- Node3 -->
<g id="node3" class="node"><title>Node3</title>
<g id="a_node3"><a xlink:href="ir_2expr_8h.html" target="_top" xlink:title="Base expr nodes in TVM. ">
<polygon fill="white" stroke="black" points="1222.5,-705.5 1222.5,-724.5 1299.5,-724.5 1299.5,-705.5 1222.5,-705.5"/>
<text text-anchor="middle" x="1261" y="-712.5" font-family="Helvetica,sans-Serif" font-size="10.00">tvm/ir/expr.h</text>
</a>
</g>
</g>
<!-- Node2&#45;&gt;Node3 -->
<g id="edge2" class="edge"><title>Node2&#45;&gt;Node3</title>
<path fill="none" stroke="midnightblue" d="M2276.3,-818.862C2271.47,-818.204 2266.64,-817.571 2262,-817 1897.1,-772.128 1455.56,-732.767 1310.08,-720.188"/>
<polygon fill="midnightblue" stroke="midnightblue" points="1309.98,-716.667 1299.72,-719.294 1309.38,-723.641 1309.98,-716.667"/>
</g>
<!-- Node10 -->
<g id="node10" class="node"><title>Node10</title>
<polygon fill="white" stroke="#bfbfbf" points="596,-62 596,-81 664,-81 664,-62 596,-62"/>
<text text-anchor="middle" x="630" y="-69" font-family="Helvetica,sans-Serif" font-size="10.00">type_traits</text>
</g>
<!-- Node2&#45;&gt;Node10 -->
<g id="edge128" class="edge"><title>Node2&#45;&gt;Node10</title>
<path fill="none" stroke="midnightblue" d="M2276.3,-826.091C2032.33,-826.358 922.303,-825.083 581,-781 473.229,-767.08 421.006,-800.653 343,-725 327.792,-710.251 266,-487.506 266,-430.5 266,-430.5 266,-430.5 266,-305.5 266,-155.281 488.624,-97.5163 585.665,-79.4723"/>
<polygon fill="midnightblue" stroke="midnightblue" points="586.534,-82.8722 595.756,-77.6555 585.294,-75.983 586.534,-82.8722"/>
</g>
<!-- Node2&#45;&gt;Node11 -->
<g id="edge129" class="edge"><title>Node2&#45;&gt;Node11</title>
<path fill="none" stroke="midnightblue" d="M2371.86,-824.276C2484.82,-819.806 2761.04,-806.383 2794,-781 2818.4,-762.21 2818,-746.795 2818,-716 2818,-716 2818,-716 2818,-188 2818,-157.205 2817.33,-143.106 2794,-123 2762.86,-96.1584 2642.8,-81.2094 2584.35,-75.3852"/>
<polygon fill="midnightblue" stroke="midnightblue" points="2584.48,-71.8813 2574.19,-74.4031 2583.8,-78.8489 2584.48,-71.8813"/>
</g>
<!-- Node41 -->
<g id="node41" class="node"><title>Node41</title>
<g id="a_node41"><a xlink:href="ir_2attrs_8h.html" target="_top" xlink:title="Helpers for attribute objects. ">
<polygon fill="white" stroke="black" points="2284.5,-761.5 2284.5,-780.5 2363.5,-780.5 2363.5,-761.5 2284.5,-761.5"/>
<text text-anchor="middle" x="2324" y="-768.5" font-family="Helvetica,sans-Serif" font-size="10.00">tvm/ir/attrs.h</text>
</a>
</g>
</g>
<!-- Node2&#45;&gt;Node41 -->
<g id="edge118" class="edge"><title>Node2&#45;&gt;Node41</title>
<path fill="none" stroke="midnightblue" d="M2324,-817.083C2324,-810.006 2324,-799.861 2324,-790.986"/>
<polygon fill="midnightblue" stroke="midnightblue" points="2327.5,-790.751 2324,-780.751 2320.5,-790.751 2327.5,-790.751"/>
</g>
<!-- Node4 -->
<g id="node4" class="node"><title>Node4</title>
<g id="a_node4"><a xlink:href="object_8h.html" target="_top" xlink:title="A managed object in the TVM runtime. ">
<polygon fill="white" stroke="black" points="1258.5,-123.5 1258.5,-142.5 1375.5,-142.5 1375.5,-123.5 1258.5,-123.5"/>
<text text-anchor="middle" x="1317" y="-130.5" font-family="Helvetica,sans-Serif" font-size="10.00">tvm/runtime/object.h</text>
</a>
</g>
</g>
<!-- Node3&#45;&gt;Node4 -->
<g id="edge3" class="edge"><title>Node3&#45;&gt;Node4</title>
<path fill="none" stroke="midnightblue" d="M1299.55,-711.697C1411.93,-703.766 1747.02,-671.418 1996,-557 2070.63,-522.703 2106.55,-518.603 2143,-445 2196.6,-336.77 2084,-347.55 1958,-291 1900.56,-265.222 1881.2,-273.437 1821,-255 1795.33,-247.138 1789.79,-242.474 1764,-235 1695.66,-215.19 1674.83,-223.421 1608,-199 1589.7,-192.315 1587.46,-185.225 1569,-179 1508.69,-158.662 1437,-146.996 1385.53,-140.665"/>
<polygon fill="midnightblue" stroke="midnightblue" points="1385.86,-137.179 1375.52,-139.469 1385.03,-144.13 1385.86,-137.179"/>
</g>
<!-- Node3&#45;&gt;Node10 -->
<g id="edge117" class="edge"><title>Node3&#45;&gt;Node10</title>
<path fill="none" stroke="midnightblue" d="M1222.13,-713.643C1102.09,-710.534 732.166,-685.659 513,-501 383.454,-391.851 562.376,-154.515 615.771,-89.3471"/>
<polygon fill="midnightblue" stroke="midnightblue" points="618.735,-91.2563 622.427,-81.3256 613.348,-86.7863 618.735,-91.2563"/>
</g>
<!-- Node3&#45;&gt;Node11 -->
<g id="edge114" class="edge"><title>Node3&#45;&gt;Node11</title>
<path fill="none" stroke="midnightblue" d="M1299.54,-711.817C1374.72,-707.144 1546.03,-694.467 1688,-669 2065.35,-601.312 2206.82,-664.7 2521,-445 2621,-375.072 2603.07,-300.21 2589,-179 2586.11,-154.085 2590.13,-146.728 2582,-123 2577.93,-111.134 2570.85,-99.013 2564.59,-89.6207"/>
<polygon fill="midnightblue" stroke="midnightblue" points="2567.33,-87.4428 2558.74,-81.2487 2561.59,-91.4512 2567.33,-87.4428"/>
</g>
<!-- Node14 -->
<g id="node14" class="node"><title>Node14</title>
<g id="a_node14"><a xlink:href="node_8h.html" target="_top" xlink:title="Definitions and helper macros for IR/AST nodes. ">
<polygon fill="white" stroke="black" points="1140,-537.5 1140,-556.5 1238,-556.5 1238,-537.5 1140,-537.5"/>
<text text-anchor="middle" x="1189" y="-544.5" font-family="Helvetica,sans-Serif" font-size="10.00">tvm/node/node.h</text>
</a>
</g>
</g>
<!-- Node3&#45;&gt;Node14 -->
<g id="edge13" class="edge"><title>Node3&#45;&gt;Node14</title>
<path fill="none" stroke="midnightblue" d="M1257.13,-705.075C1245.75,-678.832 1212.22,-601.545 1196.86,-566.117"/>
<polygon fill="midnightblue" stroke="midnightblue" points="1199.91,-564.35 1192.72,-556.568 1193.48,-567.135 1199.91,-564.35"/>
</g>
<!-- Node30 -->
<g id="node30" class="node"><title>Node30</title>
<polygon fill="white" stroke="#bfbfbf" points="332,-235.5 332,-254.5 374,-254.5 374,-235.5 332,-235.5"/>
<text text-anchor="middle" x="353" y="-242.5" font-family="Helvetica,sans-Serif" font-size="10.00">limits</text>
</g>
<!-- Node3&#45;&gt;Node30 -->
<g id="edge116" class="edge"><title>Node3&#45;&gt;Node30</title>
<path fill="none" stroke="midnightblue" d="M1222.34,-713.232C1116,-710.723 820.989,-700.993 730,-669 577.023,-615.211 520.932,-586.651 442,-445 406.273,-380.884 373.599,-299.704 359.857,-264.112"/>
<polygon fill="midnightblue" stroke="midnightblue" points="363.059,-262.688 356.217,-254.599 356.522,-265.189 363.059,-262.688"/>
</g>
<!-- Node33 -->
<g id="node33" class="node"><title>Node33</title>
<g id="a_node33"><a xlink:href="node_2container_8h.html" target="_top" xlink:title="Array/Map container in the DSL graph. ">
<polygon fill="white" stroke="black" points="1086.5,-358.5 1086.5,-377.5 1205.5,-377.5 1205.5,-358.5 1086.5,-358.5"/>
<text text-anchor="middle" x="1146" y="-365.5" font-family="Helvetica,sans-Serif" font-size="10.00">tvm/node/container.h</text>
</a>
</g>
</g>
<!-- Node3&#45;&gt;Node33 -->
<g id="edge102" class="edge"><title>Node3&#45;&gt;Node33</title>
<path fill="none" stroke="midnightblue" d="M1261.65,-705.448C1263.01,-686.954 1266,-641.852 1266,-604 1266,-604 1266,-604 1266,-490 1266,-452.034 1253.4,-441.285 1227,-414 1213.57,-400.118 1194.92,-389.358 1178.9,-381.846"/>
<polygon fill="midnightblue" stroke="midnightblue" points="1179.89,-378.457 1169.33,-377.589 1177.04,-384.853 1179.89,-378.457"/>
</g>
<!-- Node38 -->
<g id="node38" class="node"><title>Node38</title>
<g id="a_node38"><a xlink:href="span_8h.html" target="_top" xlink:title="Span information for debugging purposes. ">
<polygon fill="white" stroke="black" points="1294,-593.5 1294,-612.5 1374,-612.5 1374,-593.5 1294,-593.5"/>
<text text-anchor="middle" x="1334" y="-600.5" font-family="Helvetica,sans-Serif" font-size="10.00">tvm/ir/span.h</text>
</a>
</g>
</g>
<!-- Node3&#45;&gt;Node38 -->
<g id="edge103" class="edge"><title>Node3&#45;&gt;Node38</title>
<path fill="none" stroke="midnightblue" d="M1266.73,-705.368C1278.78,-687.215 1306.92,-644.802 1322.72,-620.99"/>
<polygon fill="midnightblue" stroke="midnightblue" points="1325.69,-622.859 1328.3,-612.591 1319.85,-618.988 1325.69,-622.859"/>
</g>
<!-- Node39 -->
<g id="node39" class="node"><title>Node39</title>
<g id="a_node39"><a xlink:href="ir_2type_8h.html" target="_top" xlink:title="IR/AST nodes for the unified type system in TVM. ">
<polygon fill="white" stroke="black" points="1045.5,-649.5 1045.5,-668.5 1122.5,-668.5 1122.5,-649.5 1045.5,-649.5"/>
<text text-anchor="middle" x="1084" y="-656.5" font-family="Helvetica,sans-Serif" font-size="10.00">tvm/ir/type.h</text>
</a>
</g>
</g>
<!-- Node3&#45;&gt;Node39 -->
<g id="edge107" class="edge"><title>Node3&#45;&gt;Node39</title>
<path fill="none" stroke="midnightblue" d="M1232.95,-705.444C1202.92,-696.28 1155.09,-681.688 1121.76,-671.519"/>
<polygon fill="midnightblue" stroke="midnightblue" points="1122.5,-668.087 1111.91,-668.516 1120.46,-674.782 1122.5,-668.087"/>
</g>
<!-- Node40 -->
<g id="node40" class="node"><title>Node40</title>
<polygon fill="white" stroke="#bfbfbf" points="350,-649.5 350,-668.5 412,-668.5 412,-649.5 350,-649.5"/>
<text text-anchor="middle" x="381" y="-656.5" font-family="Helvetica,sans-Serif" font-size="10.00">algorithm</text>
</g>
<!-- Node3&#45;&gt;Node40 -->
<g id="edge115" class="edge"><title>Node3&#45;&gt;Node40</title>
<path fill="none" stroke="midnightblue" d="M1222.34,-711.628C1078.02,-702.772 571.491,-671.689 422.512,-662.547"/>
<polygon fill="midnightblue" stroke="midnightblue" points="422.609,-659.047 412.413,-661.928 422.18,-666.034 422.609,-659.047"/>
</g>
<!-- Node5 -->
<g id="node5" class="node"><title>Node5</title>
<polygon fill="white" stroke="#bfbfbf" points="1117,-62 1117,-81 1203,-81 1203,-62 1117,-62"/>
<text text-anchor="middle" x="1160" y="-69" font-family="Helvetica,sans-Serif" font-size="10.00">dmlc/logging.h</text>
</g>
<!-- Node4&#45;&gt;Node5 -->
<g id="edge4" class="edge"><title>Node4&#45;&gt;Node5</title>
<path fill="none" stroke="midnightblue" d="M1294.51,-123.475C1267.69,-113.313 1222.68,-96.2564 1192.19,-84.6996"/>
<polygon fill="midnightblue" stroke="midnightblue" points="1193.04,-81.2801 1182.45,-81.0091 1190.56,-87.8258 1193.04,-81.2801"/>
</g>
<!-- Node6 -->
<g id="node6" class="node"><title>Node6</title>
<g id="a_node6"><a xlink:href="c__runtime__api_8h.html" target="_top" xlink:title="tvm/runtime/c_runtime\l_api.h">
<polygon fill="white" stroke="black" points="1944.5,-56.5 1944.5,-86.5 2071.5,-86.5 2071.5,-56.5 1944.5,-56.5"/>
<text text-anchor="start" x="1952.5" y="-74.5" font-family="Helvetica,sans-Serif" font-size="10.00">tvm/runtime/c_runtime</text>
<text text-anchor="middle" x="2008" y="-63.5" font-family="Helvetica,sans-Serif" font-size="10.00">_api.h</text>
</a>
</g>
</g>
<!-- Node4&#45;&gt;Node6 -->
<g id="edge5" class="edge"><title>Node4&#45;&gt;Node6</title>
<path fill="none" stroke="midnightblue" d="M1375.62,-126.953C1501.27,-116.133 1796.35,-90.7249 1934.38,-78.8392"/>
<polygon fill="midnightblue" stroke="midnightblue" points="1934.78,-82.3178 1944.44,-77.9728 1934.18,-75.3437 1934.78,-82.3178"/>
</g>
<!-- Node4&#45;&gt;Node10 -->
<g id="edge9" class="edge"><title>Node4&#45;&gt;Node10</title>
<path fill="none" stroke="midnightblue" d="M1258.45,-124.57C1253.57,-124.014 1248.7,-123.483 1244,-123 1031.03,-101.123 775.722,-82.583 674.488,-75.5367"/>
<polygon fill="midnightblue" stroke="midnightblue" points="674.546,-72.0324 664.328,-74.8322 674.062,-79.0156 674.546,-72.0324"/>
</g>
<!-- Node4&#45;&gt;Node11 -->
<g id="edge10" class="edge"><title>Node4&#45;&gt;Node11</title>
<path fill="none" stroke="midnightblue" d="M1375.74,-129.17C1593.85,-118.662 2353.27,-82.0743 2519.63,-74.0595"/>
<polygon fill="midnightblue" stroke="midnightblue" points="2519.9,-77.5507 2529.72,-73.5735 2519.56,-70.5588 2519.9,-77.5507"/>
</g>
<!-- Node12 -->
<g id="node12" class="node"><title>Node12</title>
<polygon fill="white" stroke="#bfbfbf" points="324,-62 324,-81 366,-81 366,-62 324,-62"/>
<text text-anchor="middle" x="345" y="-69" font-family="Helvetica,sans-Serif" font-size="10.00">utility</text>
</g>
<!-- Node4&#45;&gt;Node12 -->
<g id="edge11" class="edge"><title>Node4&#45;&gt;Node12</title>
<path fill="none" stroke="midnightblue" d="M1258.39,-128.412C1074.96,-117.184 515.866,-82.9594 376.65,-74.4374"/>
<polygon fill="midnightblue" stroke="midnightblue" points="376.475,-70.9202 366.28,-73.8026 376.047,-77.9072 376.475,-70.9202"/>
</g>
<!-- Node13 -->
<g id="node13" class="node"><title>Node13</title>
<polygon fill="white" stroke="#bfbfbf" points="1505,-62 1505,-81 1555,-81 1555,-62 1505,-62"/>
<text text-anchor="middle" x="1530" y="-69" font-family="Helvetica,sans-Serif" font-size="10.00">atomic</text>
</g>
<!-- Node4&#45;&gt;Node13 -->
<g id="edge12" class="edge"><title>Node4&#45;&gt;Node13</title>
<path fill="none" stroke="midnightblue" d="M1347.52,-123.475C1386.54,-112.574 1453.97,-93.739 1495.02,-82.2702"/>
<polygon fill="midnightblue" stroke="midnightblue" points="1496.17,-85.5838 1504.86,-79.5224 1494.29,-78.8419 1496.17,-85.5838"/>
</g>
<!-- Node7 -->
<g id="node7" class="node"><title>Node7</title>
<polygon fill="white" stroke="#bfbfbf" points="1873,-0.5 1873,-19.5 1963,-19.5 1963,-0.5 1873,-0.5"/>
<text text-anchor="middle" x="1918" y="-7.5" font-family="Helvetica,sans-Serif" font-size="10.00">dlpack/dlpack.h</text>
</g>
<!-- Node6&#45;&gt;Node7 -->
<g id="edge6" class="edge"><title>Node6&#45;&gt;Node7</title>
<path fill="none" stroke="midnightblue" d="M1986.67,-56.3993C1972.51,-47.0402 1953.99,-34.7924 1939.75,-25.3771"/>
<polygon fill="midnightblue" stroke="midnightblue" points="1941.37,-22.2531 1931.1,-19.6578 1937.51,-28.0923 1941.37,-22.2531"/>
</g>
<!-- Node8 -->
<g id="node8" class="node"><title>Node8</title>
<polygon fill="white" stroke="#bfbfbf" points="1981.5,-0.5 1981.5,-19.5 2034.5,-19.5 2034.5,-0.5 1981.5,-0.5"/>
<text text-anchor="middle" x="2008" y="-7.5" font-family="Helvetica,sans-Serif" font-size="10.00">stdint.h</text>
</g>
<!-- Node6&#45;&gt;Node8 -->
<g id="edge7" class="edge"><title>Node6&#45;&gt;Node8</title>
<path fill="none" stroke="midnightblue" d="M2008,-56.3993C2008,-48.4664 2008,-38.458 2008,-29.8583"/>
<polygon fill="midnightblue" stroke="midnightblue" points="2011.5,-29.6577 2008,-19.6578 2004.5,-29.6578 2011.5,-29.6577"/>
</g>
<!-- Node9 -->
<g id="node9" class="node"><title>Node9</title>
<polygon fill="white" stroke="#bfbfbf" points="2052.5,-0.5 2052.5,-19.5 2107.5,-19.5 2107.5,-0.5 2052.5,-0.5"/>
<text text-anchor="middle" x="2080" y="-7.5" font-family="Helvetica,sans-Serif" font-size="10.00">stddef.h</text>
</g>
<!-- Node6&#45;&gt;Node9 -->
<g id="edge8" class="edge"><title>Node6&#45;&gt;Node9</title>
<path fill="none" stroke="midnightblue" d="M2025.06,-56.3993C2036.06,-47.3076 2050.37,-35.4899 2061.62,-26.1909"/>
<polygon fill="midnightblue" stroke="midnightblue" points="2064.04,-28.726 2069.52,-19.6578 2059.59,-23.33 2064.04,-28.726"/>
</g>
<!-- Node14&#45;&gt;Node4 -->
<g id="edge15" class="edge"><title>Node14&#45;&gt;Node4</title>
<path fill="none" stroke="midnightblue" d="M1238.03,-545.22C1308.7,-542.94 1433.83,-534.191 1462,-501 1506.6,-448.45 1444.89,-411.952 1402,-358 1372.93,-321.429 1360.83,-315.426 1321,-291 1286.72,-269.977 1269.42,-280.096 1238,-255 1213.9,-235.747 1206.59,-228.319 1197,-199 1187.66,-170.427 1217.05,-154.211 1249.08,-145.121"/>
<polygon fill="midnightblue" stroke="midnightblue" points="1250.27,-148.428 1259.06,-142.523 1248.5,-141.654 1250.27,-148.428"/>
</g>
<!-- Node14&#45;&gt;Node6 -->
<g id="edge14" class="edge"><title>Node14&#45;&gt;Node6</title>
<path fill="none" stroke="midnightblue" d="M1238.06,-546.533C1384.83,-547.593 1818.51,-546.67 1951,-501 2121.78,-442.134 2167.87,-371.02 2223,-199 2233.77,-165.393 2226.55,-146.247 2200,-123 2167.63,-94.6545 2121.17,-81.9455 2082.06,-76.3633"/>
<polygon fill="midnightblue" stroke="midnightblue" points="2082.13,-72.8437 2071.76,-75.0314 2081.23,-79.7858 2082.13,-72.8437"/>
</g>
<!-- Node14&#45;&gt;Node10 -->
<g id="edge101" class="edge"><title>Node14&#45;&gt;Node10</title>
<path fill="none" stroke="midnightblue" d="M1139.75,-546.332C1060.56,-544.229 904.254,-528.839 810,-445 793.613,-430.423 726.897,-342.479 656,-199 644.225,-175.169 640.666,-168.971 635,-143 631.244,-125.784 630.129,-105.697 629.873,-91.3789"/>
<polygon fill="midnightblue" stroke="midnightblue" points="633.373,-91.2782 629.819,-81.2974 626.373,-91.3162 633.373,-91.2782"/>
</g>
<!-- Node14&#45;&gt;Node11 -->
<g id="edge98" class="edge"><title>Node14&#45;&gt;Node11</title>
<path fill="none" stroke="midnightblue" d="M1238.14,-545.625C1389.52,-544.096 1847.16,-536.574 1991,-501 2254.92,-435.727 2300.4,-340.722 2487,-143 2504.38,-124.579 2524.06,-103.154 2537.17,-88.8004"/>
<polygon fill="midnightblue" stroke="midnightblue" points="2539.91,-90.9909 2544.06,-81.243 2534.74,-86.2747 2539.91,-90.9909"/>
</g>
<!-- Node14&#45;&gt;Node12 -->
<g id="edge100" class="edge"><title>Node14&#45;&gt;Node12</title>
<path fill="none" stroke="midnightblue" d="M1139.78,-546.478C1073.8,-545.531 954.097,-538.179 860,-501 809.499,-481.046 835.272,-487.841 469,-199 437.442,-174.114 426.087,-171.746 398,-143 381.848,-126.469 366.318,-104.923 356.292,-90.0232"/>
<polygon fill="midnightblue" stroke="midnightblue" points="358.973,-87.7323 350.546,-81.3108 353.13,-91.5859 358.973,-87.7323"/>
</g>
<!-- Node15 -->
<g id="node15" class="node"><title>Node15</title>
<g id="a_node15"><a xlink:href="runtime_2memory_8h.html" target="_top" xlink:title="Runtime memory management. ">
<polygon fill="white" stroke="black" points="696.5,-179.5 696.5,-198.5 823.5,-198.5 823.5,-179.5 696.5,-179.5"/>
<text text-anchor="middle" x="760" y="-186.5" font-family="Helvetica,sans-Serif" font-size="10.00">tvm/runtime/memory.h</text>
</a>
</g>
</g>
<!-- Node14&#45;&gt;Node15 -->
<g id="edge16" class="edge"><title>Node14&#45;&gt;Node15</title>
<path fill="none" stroke="midnightblue" d="M1139.81,-539.032C1071.89,-527.714 947.429,-500.744 856,-445 772.305,-393.972 761.79,-351.396 744,-255 741.038,-238.948 746.142,-220.944 751.353,-207.962"/>
<polygon fill="midnightblue" stroke="midnightblue" points="754.578,-209.323 755.404,-198.76 748.171,-206.503 754.578,-209.323"/>
</g>
<!-- Node17 -->
<g id="node17" class="node"><title>Node17</title>
<g id="a_node17"><a xlink:href="reflection_8h.html" target="_top" xlink:title="Reflection and serialization of compiler IR/AST nodes. ">
<polygon fill="white" stroke="black" points="1334.5,-481.5 1334.5,-500.5 1453.5,-500.5 1453.5,-481.5 1334.5,-481.5"/>
<text text-anchor="middle" x="1394" y="-488.5" font-family="Helvetica,sans-Serif" font-size="10.00">tvm/node/reflection.h</text>
</a>
</g>
</g>
<!-- Node14&#45;&gt;Node17 -->
<g id="edge21" class="edge"><title>Node14&#45;&gt;Node17</title>
<path fill="none" stroke="midnightblue" d="M1221.48,-537.444C1256.72,-528.162 1313.1,-513.309 1351.76,-503.127"/>
<polygon fill="midnightblue" stroke="midnightblue" points="1352.89,-506.448 1361.67,-500.516 1351.11,-499.679 1352.89,-506.448"/>
</g>
<!-- Node22 -->
<g id="node22" class="node"><title>Node22</title>
<polygon fill="white" stroke="#bfbfbf" points="2150.5,-179.5 2150.5,-198.5 2197.5,-198.5 2197.5,-179.5 2150.5,-179.5"/>
<text text-anchor="middle" x="2174" y="-186.5" font-family="Helvetica,sans-Serif" font-size="10.00">vector</text>
</g>
<!-- Node14&#45;&gt;Node22 -->
<g id="edge99" class="edge"><title>Node14&#45;&gt;Node22</title>
<path fill="none" stroke="midnightblue" d="M1238.22,-545.082C1392.3,-541.918 1858.74,-530.021 1920,-501 2054.06,-437.493 2140.74,-264.694 2166.19,-208.165"/>
<polygon fill="midnightblue" stroke="midnightblue" points="2169.51,-209.307 2170.34,-198.744 2163.11,-206.483 2169.51,-209.307"/>
</g>
<!-- Node31 -->
<g id="node31" class="node"><title>Node31</title>
<g id="a_node31"><a xlink:href="structural__equal_8h.html" target="_top" xlink:title="Structural equality comparison. ">
<polygon fill="white" stroke="black" points="1088.5,-414.5 1088.5,-444.5 1199.5,-444.5 1199.5,-414.5 1088.5,-414.5"/>
<text text-anchor="start" x="1096.5" y="-432.5" font-family="Helvetica,sans-Serif" font-size="10.00">tvm/node/structural</text>
<text text-anchor="middle" x="1144" y="-421.5" font-family="Helvetica,sans-Serif" font-size="10.00">_equal.h</text>
</a>
</g>
</g>
<!-- Node14&#45;&gt;Node31 -->
<g id="edge96" class="edge"><title>Node14&#45;&gt;Node31</title>
<path fill="none" stroke="midnightblue" d="M1185.62,-537.319C1178.8,-519.812 1163.19,-479.749 1153.14,-453.97"/>
<polygon fill="midnightblue" stroke="midnightblue" points="1156.36,-452.592 1149.47,-444.545 1149.84,-455.134 1156.36,-452.592"/>
</g>
<!-- Node14&#45;&gt;Node33 -->
<g id="edge95" class="edge"><title>Node14&#45;&gt;Node33</title>
<path fill="none" stroke="midnightblue" d="M1193.53,-537.405C1204.41,-515.493 1229.56,-456.285 1208,-414 1201,-400.27 1187.63,-389.75 1175.1,-382.346"/>
<polygon fill="midnightblue" stroke="midnightblue" points="1176.68,-379.22 1166.22,-377.505 1173.33,-385.366 1176.68,-379.22"/>
</g>
<!-- Node35 -->
<g id="node35" class="node"><title>Node35</title>
<g id="a_node35"><a xlink:href="structural__hash_8h.html" target="_top" xlink:title="tvm/node/structural\l_hash.h">
<polygon fill="white" stroke="black" points="1294.5,-414.5 1294.5,-444.5 1405.5,-444.5 1405.5,-414.5 1294.5,-414.5"/>
<text text-anchor="start" x="1302.5" y="-432.5" font-family="Helvetica,sans-Serif" font-size="10.00">tvm/node/structural</text>
<text text-anchor="middle" x="1350" y="-421.5" font-family="Helvetica,sans-Serif" font-size="10.00">_hash.h</text>
</a>
</g>
</g>
<!-- Node14&#45;&gt;Node35 -->
<g id="edge97" class="edge"><title>Node14&#45;&gt;Node35</title>
<path fill="none" stroke="midnightblue" d="M1201.1,-537.319C1226.58,-519.037 1286.35,-476.16 1321.93,-450.635"/>
<polygon fill="midnightblue" stroke="midnightblue" points="1324.34,-453.218 1330.42,-444.545 1320.26,-447.531 1324.34,-453.218"/>
</g>
<!-- Node36 -->
<g id="node36" class="node"><title>Node36</title>
<g id="a_node36"><a xlink:href="repr__printer_8h.html" target="_top" xlink:title="Printer class to print repr string of each AST/IR nodes. ">
<polygon fill="white" stroke="black" points="522,-481.5 522,-500.5 652,-500.5 652,-481.5 522,-481.5"/>
<text text-anchor="middle" x="587" y="-488.5" font-family="Helvetica,sans-Serif" font-size="10.00">tvm/node/repr_printer.h</text>
</a>
</g>
</g>
<!-- Node14&#45;&gt;Node36 -->
<g id="edge92" class="edge"><title>Node14&#45;&gt;Node36</title>
<path fill="none" stroke="midnightblue" d="M1139.99,-541.604C1035,-532.186 787.776,-510.01 662.537,-498.776"/>
<polygon fill="midnightblue" stroke="midnightblue" points="662.542,-495.262 652.269,-497.855 661.917,-502.234 662.542,-495.262"/>
</g>
<!-- Node15&#45;&gt;Node4 -->
<g id="edge17" class="edge"><title>Node15&#45;&gt;Node4</title>
<path fill="none" stroke="midnightblue" d="M823.624,-181.832C929.118,-171.604 1139.38,-151.22 1248.2,-140.67"/>
<polygon fill="midnightblue" stroke="midnightblue" points="1248.79,-144.129 1258.41,-139.681 1248.11,-137.162 1248.79,-144.129"/>
</g>
<!-- Node15&#45;&gt;Node10 -->
<g id="edge20" class="edge"><title>Node15&#45;&gt;Node10</title>
<path fill="none" stroke="midnightblue" d="M750.229,-179.319C728.396,-159.921 675.394,-112.831 647.629,-88.1625"/>
<polygon fill="midnightblue" stroke="midnightblue" points="649.685,-85.3074 639.885,-81.282 645.036,-90.5404 649.685,-85.3074"/>
</g>
<!-- Node15&#45;&gt;Node12 -->
<g id="edge19" class="edge"><title>Node15&#45;&gt;Node12</title>
<path fill="none" stroke="midnightblue" d="M729.147,-179.413C652.36,-158.042 453.321,-102.647 376.185,-81.1791"/>
<polygon fill="midnightblue" stroke="midnightblue" points="376.707,-77.6915 366.135,-78.3821 374.83,-84.4352 376.707,-77.6915"/>
</g>
<!-- Node16 -->
<g id="node16" class="node"><title>Node16</title>
<polygon fill="white" stroke="#bfbfbf" points="736.5,-123.5 736.5,-142.5 783.5,-142.5 783.5,-123.5 736.5,-123.5"/>
<text text-anchor="middle" x="760" y="-130.5" font-family="Helvetica,sans-Serif" font-size="10.00">cstdlib</text>
</g>
<!-- Node15&#45;&gt;Node16 -->
<g id="edge18" class="edge"><title>Node15&#45;&gt;Node16</title>
<path fill="none" stroke="midnightblue" d="M760,-179.083C760,-172.006 760,-161.861 760,-152.986"/>
<polygon fill="midnightblue" stroke="midnightblue" points="763.5,-152.751 760,-142.751 756.5,-152.751 763.5,-152.751"/>
</g>
<!-- Node17&#45;&gt;Node4 -->
<g id="edge23" class="edge"><title>Node17&#45;&gt;Node4</title>
<path fill="none" stroke="midnightblue" d="M1399.94,-481.28C1408.98,-466.846 1424.12,-437.271 1414,-414 1382.01,-340.468 1348.99,-335.073 1282,-291 1248.75,-269.124 1230.27,-280.841 1200,-255 1177.5,-235.79 1172.34,-227.389 1164,-199 1152.26,-159.014 1202.44,-143.456 1248.43,-137.491"/>
<polygon fill="midnightblue" stroke="midnightblue" points="1248.93,-140.957 1258.46,-136.327 1248.12,-134.003 1248.93,-140.957"/>
</g>
<!-- Node17&#45;&gt;Node6 -->
<g id="edge22" class="edge"><title>Node17&#45;&gt;Node6</title>
<path fill="none" stroke="midnightblue" d="M1442.36,-481.496C1606.33,-451.445 2134.98,-344.202 2206,-199 2234.87,-139.975 2149.02,-105.146 2081.39,-87.4329"/>
<polygon fill="midnightblue" stroke="midnightblue" points="2082.11,-84.0054 2071.55,-84.9428 2080.39,-90.7911 2082.11,-84.0054"/>
</g>
<!-- Node17&#45;&gt;Node10 -->
<g id="edge91" class="edge"><title>Node17&#45;&gt;Node10</title>
<path fill="none" stroke="midnightblue" d="M1334.41,-486.874C1231.16,-480.965 1023.42,-466.765 954,-445 822.85,-403.883 795.721,-362.438 710,-255 691.084,-231.292 686.301,-225.187 671,-199 657.061,-175.143 652.761,-169.205 644,-143 638.318,-126.004 634.605,-105.891 632.44,-91.5065"/>
<polygon fill="midnightblue" stroke="midnightblue" points="635.874,-90.789 631.028,-81.3675 628.941,-91.7548 635.874,-90.789"/>
</g>
<!-- Node17&#45;&gt;Node11 -->
<g id="edge90" class="edge"><title>Node17&#45;&gt;Node11</title>
<path fill="none" stroke="midnightblue" d="M1453.61,-483.88C1515.81,-476.885 1615.94,-463.905 1701,-445 2000.91,-378.343 2069.02,-329.811 2347,-199 2397,-175.473 2411.05,-172.134 2458,-143 2485.68,-125.822 2515.41,-102.639 2533.86,-87.629"/>
<polygon fill="midnightblue" stroke="midnightblue" points="2536.21,-90.2215 2541.72,-81.1688 2531.77,-84.813 2536.21,-90.2215"/>
</g>
<!-- Node17&#45;&gt;Node15 -->
<g id="edge24" class="edge"><title>Node17&#45;&gt;Node15</title>
<path fill="none" stroke="midnightblue" d="M1334.42,-490.157C1263.76,-488.576 1143.42,-480.259 1047,-445 900.534,-391.44 826.672,-391.913 752,-255 744.182,-240.665 747.653,-221.958 752.207,-208.296"/>
<polygon fill="midnightblue" stroke="midnightblue" points="755.612,-209.191 755.897,-198.6 749.069,-206.701 755.612,-209.191"/>
</g>
<!-- Node18 -->
<g id="node18" class="node"><title>Node18</title>
<g id="a_node18"><a xlink:href="packed__func_8h.html" target="_top" xlink:title="Type&#45;erased function used across TVM API. ">
<polygon fill="white" stroke="black" points="1454.5,-291.5 1454.5,-321.5 1567.5,-321.5 1567.5,-291.5 1454.5,-291.5"/>
<text text-anchor="start" x="1462.5" y="-309.5" font-family="Helvetica,sans-Serif" font-size="10.00">tvm/runtime/packed</text>
<text text-anchor="middle" x="1511" y="-298.5" font-family="Helvetica,sans-Serif" font-size="10.00">_func.h</text>
</a>
</g>
</g>
<!-- Node17&#45;&gt;Node18 -->
<g id="edge25" class="edge"><title>Node17&#45;&gt;Node18</title>
<path fill="none" stroke="midnightblue" d="M1407.45,-481.371C1419.36,-473.181 1436.58,-459.929 1448,-445 1475.13,-409.518 1494.02,-360.478 1503.65,-331.566"/>
<polygon fill="midnightblue" stroke="midnightblue" points="1507.03,-332.478 1506.77,-321.887 1500.37,-330.328 1507.03,-332.478"/>
</g>
<!-- Node17&#45;&gt;Node22 -->
<g id="edge89" class="edge"><title>Node17&#45;&gt;Node22</title>
<path fill="none" stroke="midnightblue" d="M1420.01,-481.471C1447.57,-472.43 1492.36,-457.73 1531,-445 1786.63,-360.782 1875.29,-393.607 2106,-255 2127.53,-242.064 2147.74,-221.208 2160.44,-206.619"/>
<polygon fill="midnightblue" stroke="midnightblue" points="2163.21,-208.755 2167,-198.86 2157.87,-204.234 2163.21,-208.755"/>
</g>
<!-- Node24 -->
<g id="node24" class="node"><title>Node24</title>
<g id="a_node24"><a xlink:href="ndarray_8h.html" target="_top" xlink:title="A device&#45;independent managed NDArray abstraction. ">
<polygon fill="white" stroke="black" points="1830.5,-235.5 1830.5,-254.5 1953.5,-254.5 1953.5,-235.5 1830.5,-235.5"/>
<text text-anchor="middle" x="1892" y="-242.5" font-family="Helvetica,sans-Serif" font-size="10.00">tvm/runtime/ndarray.h</text>
</a>
</g>
</g>
<!-- Node17&#45;&gt;Node24 -->
<g id="edge62" class="edge"><title>Node17&#45;&gt;Node24</title>
<path fill="none" stroke="midnightblue" d="M1411.43,-481.459C1485.6,-445.118 1775.25,-303.205 1865.2,-259.132"/>
<polygon fill="midnightblue" stroke="midnightblue" points="1867.01,-262.141 1874.45,-254.598 1863.93,-255.855 1867.01,-262.141"/>
</g>
<!-- Node27 -->
<g id="node27" class="node"><title>Node27</title>
<g id="a_node27"><a xlink:href="data__type_8h.html" target="_top" xlink:title="tvm/runtime/data_type.h">
<polygon fill="white" stroke="black" points="936,-235.5 936,-254.5 1072,-254.5 1072,-235.5 936,-235.5"/>
<text text-anchor="middle" x="1004" y="-242.5" font-family="Helvetica,sans-Serif" font-size="10.00">tvm/runtime/data_type.h</text>
</a>
</g>
</g>
<!-- Node17&#45;&gt;Node27 -->
<g id="edge63" class="edge"><title>Node17&#45;&gt;Node27</title>
<path fill="none" stroke="midnightblue" d="M1334.46,-488.079C1254.68,-484.414 1118.54,-473.992 1079,-445 1019.8,-401.588 1007.32,-305.559 1004.69,-264.84"/>
<polygon fill="midnightblue" stroke="midnightblue" points="1008.18,-264.515 1004.18,-254.706 1001.19,-264.872 1008.18,-264.515"/>
</g>
<!-- Node17&#45;&gt;Node31 -->
<g id="edge64" class="edge"><title>Node17&#45;&gt;Node31</title>
<path fill="none" stroke="midnightblue" d="M1358.18,-481.475C1319.48,-472.265 1256.99,-457.393 1209.48,-446.083"/>
<polygon fill="midnightblue" stroke="midnightblue" points="1210.12,-442.638 1199.58,-443.727 1208.5,-449.448 1210.12,-442.638"/>
</g>
<!-- Node17&#45;&gt;Node35 -->
<g id="edge83" class="edge"><title>Node17&#45;&gt;Node35</title>
<path fill="none" stroke="midnightblue" d="M1387.7,-481.475C1382.13,-473.944 1373.76,-462.626 1366.32,-452.566"/>
<polygon fill="midnightblue" stroke="midnightblue" points="1369.13,-450.482 1360.37,-444.523 1363.5,-454.644 1369.13,-450.482"/>
</g>
<!-- Node18&#45;&gt;Node4 -->
<g id="edge53" class="edge"><title>Node18&#45;&gt;Node4</title>
<path fill="none" stroke="midnightblue" d="M1457.84,-291.451C1435.11,-283.503 1409.39,-271.725 1390,-255 1381.11,-247.337 1344.75,-183.562 1326.93,-151.813"/>
<polygon fill="midnightblue" stroke="midnightblue" points="1329.79,-149.761 1321.86,-142.742 1323.68,-153.178 1329.79,-149.761"/>
</g>
<!-- Node18&#45;&gt;Node5 -->
<g id="edge26" class="edge"><title>Node18&#45;&gt;Node5</title>
<path fill="none" stroke="midnightblue" d="M1472.64,-291.307C1455.25,-283.111 1435.77,-271.172 1423,-255 1385.08,-206.996 1428.65,-164.816 1384,-123 1359.71,-100.25 1271.81,-85.6931 1213.61,-78.32"/>
<polygon fill="midnightblue" stroke="midnightblue" points="1213.83,-74.8198 1203.47,-77.0694 1212.97,-81.7671 1213.83,-74.8198"/>
</g>
<!-- Node18&#45;&gt;Node6 -->
<g id="edge27" class="edge"><title>Node18&#45;&gt;Node6</title>
<path fill="none" stroke="midnightblue" d="M1567.8,-300.348C1685.2,-289.532 1945.09,-264.667 1962,-255 2011.02,-226.97 2013.25,-198.789 2022,-143 2024.45,-127.38 2021.04,-109.952 2016.98,-96.3321"/>
<polygon fill="midnightblue" stroke="midnightblue" points="2020.28,-95.1585 2013.83,-86.7521 2013.63,-97.3451 2020.28,-95.1585"/>
</g>
<!-- Node18&#45;&gt;Node10 -->
<g id="edge61" class="edge"><title>Node18&#45;&gt;Node10</title>
<path fill="none" stroke="midnightblue" d="M1454.47,-291.959C1428.18,-283.936 1397.41,-271.954 1373,-255 1336.49,-229.646 1346.8,-200.68 1308,-179 1197.99,-117.534 806.903,-84.9337 674.326,-75.4611"/>
<polygon fill="midnightblue" stroke="midnightblue" points="674.355,-71.9546 664.134,-74.7423 673.863,-78.9373 674.355,-71.9546"/>
</g>
<!-- Node18&#45;&gt;Node11 -->
<g id="edge57" class="edge"><title>Node18&#45;&gt;Node11</title>
<path fill="none" stroke="midnightblue" d="M1567.55,-300.838C1685.59,-290.919 1950.57,-267.6 1990,-255 2046.87,-236.826 2167.58,-142.526 2224,-123 2328.05,-86.9893 2459.54,-76.6008 2519.51,-73.648"/>
<polygon fill="midnightblue" stroke="midnightblue" points="2520.03,-77.1284 2529.86,-73.1787 2519.71,-70.1356 2520.03,-77.1284"/>
</g>
<!-- Node18&#45;&gt;Node12 -->
<g id="edge60" class="edge"><title>Node18&#45;&gt;Node12</title>
<path fill="none" stroke="midnightblue" d="M1454.29,-303.86C1303.41,-299.149 894.717,-284.017 763,-255 627.258,-225.096 596.864,-201.977 471,-143 433.765,-125.553 392.513,-101.517 367.68,-86.5011"/>
<polygon fill="midnightblue" stroke="midnightblue" points="369.371,-83.4327 359.01,-81.2201 365.73,-89.4111 369.371,-83.4327"/>
</g>
<!-- Node19 -->
<g id="node19" class="node"><title>Node19</title>
<g id="a_node19"><a xlink:href="runtime_2module_8h.html" target="_top" xlink:title="Runtime container of the functions generated by TVM, This is used to support dynamically link...">
<polygon fill="white" stroke="black" points="1530,-235.5 1530,-254.5 1654,-254.5 1654,-235.5 1530,-235.5"/>
<text text-anchor="middle" x="1592" y="-242.5" font-family="Helvetica,sans-Serif" font-size="10.00">tvm/runtime/module.h</text>
</a>
</g>
</g>
<!-- Node18&#45;&gt;Node19 -->
<g id="edge28" class="edge"><title>Node18&#45;&gt;Node19</title>
<path fill="none" stroke="midnightblue" d="M1524.36,-291.399C1535.9,-282.04 1552.56,-269.792 1566.55,-260.377"/>
<polygon fill="midnightblue" stroke="midnightblue" points="1568.84,-263.065 1575.28,-254.658 1565,-257.209 1568.84,-263.065"/>
</g>
<!-- Node21 -->
<g id="node21" class="node"><title>Node21</title>
<polygon fill="white" stroke="#bfbfbf" points="1432.5,-179.5 1432.5,-198.5 1489.5,-198.5 1489.5,-179.5 1432.5,-179.5"/>
<text text-anchor="middle" x="1461" y="-186.5" font-family="Helvetica,sans-Serif" font-size="10.00">memory</text>
</g>
<!-- Node18&#45;&gt;Node21 -->
<g id="edge59" class="edge"><title>Node18&#45;&gt;Node21</title>
<path fill="none" stroke="midnightblue" d="M1505.41,-291.374C1499.71,-277.083 1490.51,-254.391 1482,-235 1478.01,-225.907 1473.36,-215.888 1469.45,-207.616"/>
<polygon fill="midnightblue" stroke="midnightblue" points="1472.6,-206.097 1465.15,-198.573 1466.28,-209.106 1472.6,-206.097"/>
</g>
<!-- Node18&#45;&gt;Node22 -->
<g id="edge56" class="edge"><title>Node18&#45;&gt;Node22</title>
<path fill="none" stroke="midnightblue" d="M1567.85,-306.226C1665.11,-306.105 1868.95,-299.874 2034,-255 2045.6,-251.846 2109.74,-221.17 2147.05,-203.11"/>
<polygon fill="midnightblue" stroke="midnightblue" points="2148.88,-206.111 2156.36,-198.599 2145.83,-199.813 2148.88,-206.111"/>
</g>
<!-- Node18&#45;&gt;Node24 -->
<g id="edge38" class="edge"><title>Node18&#45;&gt;Node24</title>
<path fill="none" stroke="midnightblue" d="M1567.63,-296.656C1637.12,-285.804 1754.67,-267.447 1827.55,-256.064"/>
<polygon fill="midnightblue" stroke="midnightblue" points="1828.19,-259.507 1837.53,-254.506 1827.11,-252.591 1828.19,-259.507"/>
</g>
<!-- Node18&#45;&gt;Node27 -->
<g id="edge49" class="edge"><title>Node18&#45;&gt;Node27</title>
<path fill="none" stroke="midnightblue" d="M1454.32,-298.848C1363.54,-288.195 1185.33,-267.281 1082.41,-255.202"/>
<polygon fill="midnightblue" stroke="midnightblue" points="1082.72,-251.715 1072.38,-254.025 1081.91,-258.667 1082.72,-251.715"/>
</g>
<!-- Node28 -->
<g id="node28" class="node"><title>Node28</title>
<polygon fill="white" stroke="#bfbfbf" points="1672.5,-235.5 1672.5,-254.5 1735.5,-254.5 1735.5,-235.5 1672.5,-235.5"/>
<text text-anchor="middle" x="1704" y="-242.5" font-family="Helvetica,sans-Serif" font-size="10.00">functional</text>
</g>
<!-- Node18&#45;&gt;Node28 -->
<g id="edge54" class="edge"><title>Node18&#45;&gt;Node28</title>
<path fill="none" stroke="midnightblue" d="M1556.74,-291.399C1590.23,-281.073 1635.13,-267.231 1666.52,-257.556"/>
<polygon fill="midnightblue" stroke="midnightblue" points="1667.67,-260.862 1676.2,-254.571 1665.61,-254.172 1667.67,-260.862"/>
</g>
<!-- Node29 -->
<g id="node29" class="node"><title>Node29</title>
<polygon fill="white" stroke="#bfbfbf" points="1432.5,-235.5 1432.5,-254.5 1473.5,-254.5 1473.5,-235.5 1432.5,-235.5"/>
<text text-anchor="middle" x="1453" y="-242.5" font-family="Helvetica,sans-Serif" font-size="10.00">tuple</text>
</g>
<!-- Node18&#45;&gt;Node29 -->
<g id="edge55" class="edge"><title>Node18&#45;&gt;Node29</title>
<path fill="none" stroke="midnightblue" d="M1497.25,-291.399C1488.65,-282.575 1477.55,-271.183 1468.61,-262.018"/>
<polygon fill="midnightblue" stroke="midnightblue" points="1470.93,-259.375 1461.44,-254.658 1465.91,-264.262 1470.93,-259.375"/>
</g>
<!-- Node18&#45;&gt;Node30 -->
<g id="edge58" class="edge"><title>Node18&#45;&gt;Node30</title>
<path fill="none" stroke="midnightblue" d="M1454.36,-302.59C1248.38,-292.006 542.891,-255.757 384.665,-247.627"/>
<polygon fill="midnightblue" stroke="midnightblue" points="384.399,-244.109 374.233,-247.091 384.04,-251.1 384.399,-244.109"/>
</g>
<!-- Node19&#45;&gt;Node4 -->
<g id="edge31" class="edge"><title>Node19&#45;&gt;Node4</title>
<path fill="none" stroke="midnightblue" d="M1582.3,-235.486C1566.01,-221.622 1531.63,-194.194 1498,-179 1461.61,-162.559 1418.27,-151.515 1383.13,-144.484"/>
<polygon fill="midnightblue" stroke="midnightblue" points="1383.46,-140.983 1372.98,-142.518 1382.13,-147.855 1383.46,-140.983"/>
</g>
<!-- Node19&#45;&gt;Node6 -->
<g id="edge30" class="edge"><title>Node19&#45;&gt;Node6</title>
<path fill="none" stroke="midnightblue" d="M1654.03,-236.138C1755.49,-223.275 1945.82,-199.132 1946,-199 1980.2,-174.547 1996.42,-125.9 2003.39,-96.5739"/>
<polygon fill="midnightblue" stroke="midnightblue" points="2006.83,-97.2425 2005.56,-86.7242 1999.99,-95.7394 2006.83,-97.2425"/>
</g>
<!-- Node19&#45;&gt;Node11 -->
<g id="edge35" class="edge"><title>Node19&#45;&gt;Node11</title>
<path fill="none" stroke="midnightblue" d="M1654.33,-236.065C1657.26,-235.703 1660.16,-235.346 1663,-235 1799.37,-218.362 1839.17,-240.917 1970,-199 2036.68,-177.636 2041.28,-144.248 2108,-123 2256.31,-75.7654 2444.87,-71.5503 2519.49,-71.9364"/>
<polygon fill="midnightblue" stroke="midnightblue" points="2519.63,-75.4376 2529.65,-72.0222 2519.68,-68.4379 2519.63,-75.4376"/>
</g>
<!-- Node19&#45;&gt;Node15 -->
<g id="edge32" class="edge"><title>Node19&#45;&gt;Node15</title>
<path fill="none" stroke="midnightblue" d="M1529.77,-238.697C1514.18,-237.426 1497.48,-236.116 1482,-235 1245.39,-217.949 964.885,-201.562 834.067,-194.141"/>
<polygon fill="midnightblue" stroke="midnightblue" points="833.953,-190.629 823.772,-193.558 833.558,-197.618 833.953,-190.629"/>
</g>
<!-- Node19&#45;&gt;Node18 -->
<g id="edge37" class="edge"><title>Node19&#45;&gt;Node18</title>
<path fill="none" stroke="midnightblue" d="M1585.14,-254.658C1575.92,-262.708 1559.68,-275.001 1544.67,-285.483"/>
<polygon fill="midnightblue" stroke="midnightblue" points="1542.31,-282.859 1536.04,-291.399 1546.26,-288.633 1542.31,-282.859"/>
</g>
<!-- Node20 -->
<g id="node20" class="node"><title>Node20</title>
<polygon fill="white" stroke="#bfbfbf" points="1618,-123.5 1618,-142.5 1678,-142.5 1678,-123.5 1618,-123.5"/>
<text text-anchor="middle" x="1648" y="-130.5" font-family="Helvetica,sans-Serif" font-size="10.00">dmlc/io.h</text>
</g>
<!-- Node19&#45;&gt;Node20 -->
<g id="edge29" class="edge"><title>Node19&#45;&gt;Node20</title>
<path fill="none" stroke="midnightblue" d="M1596.39,-235.368C1605.55,-217.376 1626.85,-175.55 1639.03,-151.627"/>
<polygon fill="midnightblue" stroke="midnightblue" points="1642.21,-153.091 1643.63,-142.591 1635.97,-149.915 1642.21,-153.091"/>
</g>
<!-- Node19&#45;&gt;Node21 -->
<g id="edge33" class="edge"><title>Node19&#45;&gt;Node21</title>
<path fill="none" stroke="midnightblue" d="M1571.24,-235.444C1549.68,-226.557 1515.74,-212.563 1491.21,-202.451"/>
<polygon fill="midnightblue" stroke="midnightblue" points="1492.24,-199.092 1481.66,-198.516 1489.57,-205.563 1492.24,-199.092"/>
</g>
<!-- Node19&#45;&gt;Node22 -->
<g id="edge34" class="edge"><title>Node19&#45;&gt;Node22</title>
<path fill="none" stroke="midnightblue" d="M1654.32,-235.944C1657.25,-235.614 1660.16,-235.298 1663,-235 1855.94,-214.797 1904.98,-218.41 2098,-199 2111.87,-197.605 2127.14,-195.841 2140.34,-194.245"/>
<polygon fill="midnightblue" stroke="midnightblue" points="2140.9,-197.702 2150.4,-193.012 2140.05,-190.754 2140.9,-197.702"/>
</g>
<!-- Node23 -->
<g id="node23" class="node"><title>Node23</title>
<polygon fill="white" stroke="#bfbfbf" points="1206.5,-179.5 1206.5,-198.5 1299.5,-198.5 1299.5,-179.5 1206.5,-179.5"/>
<text text-anchor="middle" x="1253" y="-186.5" font-family="Helvetica,sans-Serif" font-size="10.00">unordered_map</text>
</g>
<!-- Node19&#45;&gt;Node23 -->
<g id="edge36" class="edge"><title>Node19&#45;&gt;Node23</title>
<path fill="none" stroke="midnightblue" d="M1538.28,-235.444C1475.94,-225.513 1373.58,-209.207 1309.91,-199.065"/>
<polygon fill="midnightblue" stroke="midnightblue" points="1310.07,-195.547 1299.65,-197.431 1308.97,-202.46 1310.07,-195.547"/>
</g>
<!-- Node24&#45;&gt;Node4 -->
<g id="edge40" class="edge"><title>Node24&#45;&gt;Node4</title>
<path fill="none" stroke="midnightblue" d="M1854.03,-235.43C1814.16,-226.417 1749.66,-211.796 1694,-199 1655.76,-190.207 1646.53,-186.448 1608,-179 1532.32,-164.37 1444.84,-151.363 1385.72,-143.143"/>
<polygon fill="midnightblue" stroke="midnightblue" points="1386.13,-139.667 1375.75,-141.765 1385.17,-146.601 1386.13,-139.667"/>
</g>
<!-- Node24&#45;&gt;Node6 -->
<g id="edge39" class="edge"><title>Node24&#45;&gt;Node6</title>
<path fill="none" stroke="midnightblue" d="M1926.73,-235.383C1946.47,-228.695 1969.98,-217.378 1984,-199 2006.64,-169.321 2009.96,-124.535 2009.52,-96.9794"/>
<polygon fill="midnightblue" stroke="midnightblue" points="2013.01,-96.5308 2009.17,-86.6556 2006.02,-96.7688 2013.01,-96.5308"/>
</g>
<!-- Node24&#45;&gt;Node12 -->
<g id="edge48" class="edge"><title>Node24&#45;&gt;Node12</title>
<path fill="none" stroke="midnightblue" d="M1837.51,-235.441C1808.44,-228.934 1773.16,-217.777 1746,-199 1710.82,-174.685 1725.09,-142.43 1687,-123 1632.53,-95.2167 648.078,-89.8288 587,-87 511.293,-83.4937 422.361,-77.7462 376.262,-74.645"/>
<polygon fill="midnightblue" stroke="midnightblue" points="376.244,-71.1358 366.03,-73.9527 375.771,-78.1199 376.244,-71.1358"/>
</g>
<!-- Node24&#45;&gt;Node13 -->
<g id="edge46" class="edge"><title>Node24&#45;&gt;Node13</title>
<path fill="none" stroke="midnightblue" d="M1844.62,-235.458C1818.88,-228.918 1787.76,-217.724 1765,-199 1734.68,-174.062 1751.3,-146.694 1720,-123 1674.06,-88.2239 1606.09,-77.3527 1565.12,-73.9816"/>
<polygon fill="midnightblue" stroke="midnightblue" points="1565.29,-70.4849 1555.07,-73.2609 1564.79,-77.467 1565.29,-70.4849"/>
</g>
<!-- Node24&#45;&gt;Node22 -->
<g id="edge47" class="edge"><title>Node24&#45;&gt;Node22</title>
<path fill="none" stroke="midnightblue" d="M1936.68,-235.444C1993.23,-224.615 2089.37,-206.206 2140.19,-196.474"/>
<polygon fill="midnightblue" stroke="midnightblue" points="2141.15,-199.854 2150.32,-194.535 2139.84,-192.979 2141.15,-199.854"/>
</g>
<!-- Node25 -->
<g id="node25" class="node"><title>Node25</title>
<g id="a_node25"><a xlink:href="serializer_8h.html" target="_top" xlink:title="Serializer extension to support TVM data types Include this file to enable serialization of DLDataTyp...">
<polygon fill="white" stroke="black" points="1774,-179.5 1774,-198.5 1904,-198.5 1904,-179.5 1774,-179.5"/>
<text text-anchor="middle" x="1839" y="-186.5" font-family="Helvetica,sans-Serif" font-size="10.00">tvm/runtime/serializer.h</text>
</a>
</g>
</g>
<!-- Node24&#45;&gt;Node25 -->
<g id="edge41" class="edge"><title>Node24&#45;&gt;Node25</title>
<path fill="none" stroke="midnightblue" d="M1878.37,-235.324C1869.09,-227.576 1857.36,-216.017 1848.93,-206.511"/>
<polygon fill="midnightblue" stroke="midnightblue" points="1851.62,-204.268 1842.52,-198.834 1846.24,-208.754 1851.62,-204.268"/>
</g>
<!-- Node25&#45;&gt;Node6 -->
<g id="edge44" class="edge"><title>Node25&#45;&gt;Node6</title>
<path fill="none" stroke="midnightblue" d="M1848.3,-179.421C1862.65,-166.404 1891.32,-141.25 1918,-123 1934.84,-111.478 1954.52,-100.212 1971.17,-91.2544"/>
<polygon fill="midnightblue" stroke="midnightblue" points="1972.88,-94.3093 1980.07,-86.5287 1969.59,-88.1265 1972.88,-94.3093"/>
</g>
<!-- Node25&#45;&gt;Node20 -->
<g id="edge42" class="edge"><title>Node25&#45;&gt;Node20</title>
<path fill="none" stroke="midnightblue" d="M1808.74,-179.444C1776.04,-170.201 1723.82,-155.436 1687.82,-145.257"/>
<polygon fill="midnightblue" stroke="midnightblue" points="1688.7,-141.869 1678.12,-142.516 1686.79,-148.605 1688.7,-141.869"/>
</g>
<!-- Node25&#45;&gt;Node24 -->
<g id="edge45" class="edge"><title>Node25&#45;&gt;Node24</title>
<path fill="none" stroke="midnightblue" d="M1852.72,-198.751C1861.88,-206.405 1873.39,-217.736 1881.76,-227.144"/>
<polygon fill="midnightblue" stroke="midnightblue" points="1879.31,-229.665 1888.41,-235.083 1884.68,-225.17 1879.31,-229.665"/>
</g>
<!-- Node26 -->
<g id="node26" class="node"><title>Node26</title>
<polygon fill="white" stroke="#bfbfbf" points="1772,-123.5 1772,-142.5 1866,-142.5 1866,-123.5 1772,-123.5"/>
<text text-anchor="middle" x="1819" y="-130.5" font-family="Helvetica,sans-Serif" font-size="10.00">dmlc/serializer.h</text>
</g>
<!-- Node25&#45;&gt;Node26 -->
<g id="edge43" class="edge"><title>Node25&#45;&gt;Node26</title>
<path fill="none" stroke="midnightblue" d="M1835.7,-179.083C1833.02,-171.849 1829.15,-161.409 1825.81,-152.397"/>
<polygon fill="midnightblue" stroke="midnightblue" points="1829,-150.913 1822.24,-142.751 1822.43,-153.344 1829,-150.913"/>
</g>
<!-- Node27&#45;&gt;Node5 -->
<g id="edge51" class="edge"><title>Node27&#45;&gt;Node5</title>
<path fill="none" stroke="midnightblue" d="M1011.95,-235.26C1036.78,-207.96 1113.15,-124 1145.4,-88.5546"/>
<polygon fill="midnightblue" stroke="midnightblue" points="1148.11,-90.772 1152.25,-81.0194 1142.93,-86.0617 1148.11,-90.772"/>
</g>
<!-- Node27&#45;&gt;Node6 -->
<g id="edge50" class="edge"><title>Node27&#45;&gt;Node6</title>
<path fill="none" stroke="midnightblue" d="M1072.05,-242.209C1276.9,-236.61 1876.02,-218.634 1913,-199 1955.28,-176.552 1984.03,-126.032 1998.07,-96.0712"/>
<polygon fill="midnightblue" stroke="midnightblue" points="2001.34,-97.3237 2002.26,-86.769 1994.96,-94.4452 2001.34,-97.3237"/>
</g>
<!-- Node27&#45;&gt;Node10 -->
<g id="edge52" class="edge"><title>Node27&#45;&gt;Node10</title>
<path fill="none" stroke="midnightblue" d="M993.383,-235.337C966.009,-213.41 890.122,-155.172 818,-123 770.826,-101.957 712.968,-88.0399 673.999,-80.2408"/>
<polygon fill="midnightblue" stroke="midnightblue" points="674.51,-76.7747 664.025,-78.2958 673.171,-83.6453 674.51,-76.7747"/>
</g>
<!-- Node31&#45;&gt;Node11 -->
<g id="edge82" class="edge"><title>Node31&#45;&gt;Node11</title>
<path fill="none" stroke="midnightblue" d="M1199.68,-421.801C1353.98,-403.095 1784.91,-349.849 1925,-322 2039.93,-299.153 2070.19,-295.897 2180,-255 2316.98,-203.986 2470.86,-118.983 2528.53,-86.0827"/>
<polygon fill="midnightblue" stroke="midnightblue" points="2530.31,-89.0965 2537.24,-81.0873 2526.83,-83.0232 2530.31,-89.0965"/>
</g>
<!-- Node31&#45;&gt;Node27 -->
<g id="edge65" class="edge"><title>Node31&#45;&gt;Node27</title>
<path fill="none" stroke="midnightblue" d="M1120.7,-414.38C1106.86,-405.208 1089.61,-392.32 1077,-378 1045.52,-342.259 1021.93,-290.684 1010.9,-263.808"/>
<polygon fill="midnightblue" stroke="midnightblue" points="1014.15,-262.494 1007.19,-254.506 1007.65,-265.091 1014.15,-262.494"/>
</g>
<!-- Node32 -->
<g id="node32" class="node"><title>Node32</title>
<g id="a_node32"><a xlink:href="functor_8h.html" target="_top" xlink:title="Defines the Functor data structures. ">
<polygon fill="white" stroke="black" points="772.5,-235.5 772.5,-254.5 879.5,-254.5 879.5,-235.5 772.5,-235.5"/>
<text text-anchor="middle" x="826" y="-242.5" font-family="Helvetica,sans-Serif" font-size="10.00">tvm/node/functor.h</text>
</a>
</g>
</g>
<!-- Node31&#45;&gt;Node32 -->
<g id="edge66" class="edge"><title>Node31&#45;&gt;Node32</title>
<path fill="none" stroke="midnightblue" d="M1119.58,-414.483C1060.2,-380.406 908.845,-293.544 849.955,-259.748"/>
<polygon fill="midnightblue" stroke="midnightblue" points="851.427,-256.557 841.012,-254.615 847.943,-262.628 851.427,-256.557"/>
</g>
<!-- Node31&#45;&gt;Node33 -->
<g id="edge72" class="edge"><title>Node31&#45;&gt;Node33</title>
<path fill="none" stroke="midnightblue" d="M1144.47,-414.399C1144.74,-406.466 1145.08,-396.458 1145.37,-387.858"/>
<polygon fill="midnightblue" stroke="midnightblue" points="1148.87,-387.77 1145.71,-377.658 1141.87,-387.535 1148.87,-387.77"/>
</g>
<!-- Node32&#45;&gt;Node4 -->
<g id="edge68" class="edge"><title>Node32&#45;&gt;Node4</title>
<path fill="none" stroke="midnightblue" d="M848.692,-235.404C885.725,-221.67 961.685,-194.73 1028,-179 1102.5,-161.33 1189.49,-148.864 1248.42,-141.602"/>
<polygon fill="midnightblue" stroke="midnightblue" points="1248.85,-145.075 1258.36,-140.394 1248.01,-138.126 1248.85,-145.075"/>
</g>
<!-- Node32&#45;&gt;Node5 -->
<g id="edge67" class="edge"><title>Node32&#45;&gt;Node5</title>
<path fill="none" stroke="midnightblue" d="M842.563,-235.495C896.65,-207.723 1068.38,-119.545 1134.09,-85.806"/>
<polygon fill="midnightblue" stroke="midnightblue" points="1136.04,-88.7374 1143.34,-81.056 1132.84,-82.5103 1136.04,-88.7374"/>
</g>
<!-- Node32&#45;&gt;Node10 -->
<g id="edge70" class="edge"><title>Node32&#45;&gt;Node10</title>
<path fill="none" stroke="midnightblue" d="M828.918,-235.351C832.73,-222.669 838.225,-198.426 832,-179 822.666,-149.873 816.78,-140.93 792,-123 757.068,-97.7245 709.127,-84.8435 674.47,-78.4461"/>
<polygon fill="midnightblue" stroke="midnightblue" points="674.621,-74.9202 664.17,-76.6624 673.426,-81.8175 674.621,-74.9202"/>
</g>
<!-- Node32&#45;&gt;Node12 -->
<g id="edge71" class="edge"><title>Node32&#45;&gt;Node12</title>
<path fill="none" stroke="midnightblue" d="M799.047,-235.431C771.009,-226.48 725.859,-211.964 687,-199 614.337,-174.758 595.876,-169.486 524,-143 471.291,-123.576 410.578,-99.2452 375.13,-84.8384"/>
<polygon fill="midnightblue" stroke="midnightblue" points="376.41,-81.5809 365.829,-81.0505 373.77,-88.0639 376.41,-81.5809"/>
</g>
<!-- Node32&#45;&gt;Node22 -->
<g id="edge69" class="edge"><title>Node32&#45;&gt;Node22</title>
<path fill="none" stroke="midnightblue" d="M879.687,-238.685C894.963,-237.317 911.626,-235.962 927,-235 989.201,-231.109 1947.43,-197.844 2140.32,-191.165"/>
<polygon fill="midnightblue" stroke="midnightblue" points="2140.56,-194.659 2150.43,-190.815 2140.32,-187.663 2140.56,-194.659"/>
</g>
<!-- Node33&#45;&gt;Node4 -->
<g id="edge73" class="edge"><title>Node33&#45;&gt;Node4</title>
<path fill="none" stroke="midnightblue" d="M1145.51,-358.087C1144.67,-343.87 1142.79,-315.193 1140,-291 1134.25,-241.166 1094.86,-218.33 1126,-179 1141.25,-159.737 1199.95,-147.895 1248.3,-141.227"/>
<polygon fill="midnightblue" stroke="midnightblue" points="1248.99,-144.667 1258.44,-139.882 1248.06,-137.728 1248.99,-144.667"/>
</g>
<!-- Node33&#45;&gt;Node10 -->
<g id="edge76" class="edge"><title>Node33&#45;&gt;Node10</title>
<path fill="none" stroke="midnightblue" d="M1086.45,-363.068C1005.62,-357.003 865.968,-343.74 820,-322 747.215,-287.577 734.036,-264.346 687,-199 661.881,-164.103 644.079,-116.369 635.602,-90.6661"/>
<polygon fill="midnightblue" stroke="midnightblue" points="638.924,-89.5615 632.547,-81.1011 632.256,-91.6919 638.924,-89.5615"/>
</g>
<!-- Node33&#45;&gt;Node11 -->
<g id="edge81" class="edge"><title>Node33&#45;&gt;Node11</title>
<path fill="none" stroke="midnightblue" d="M1205.95,-366.301C1324.22,-364.197 1595.67,-355.763 1821,-322 1949.68,-302.718 1984.72,-302.137 2106,-255 2153.48,-236.547 2162.95,-226.232 2206,-199 2255.3,-167.816 2259.57,-146.407 2313,-123 2382.91,-92.371 2472.65,-79.8484 2519.79,-75.112"/>
<polygon fill="midnightblue" stroke="midnightblue" points="2520.37,-78.5723 2530,-74.142 2519.71,-71.6036 2520.37,-78.5723"/>
</g>
<!-- Node33&#45;&gt;Node12 -->
<g id="edge80" class="edge"><title>Node33&#45;&gt;Node12</title>
<path fill="none" stroke="midnightblue" d="M1086.44,-365.924C1010.12,-363.211 874.356,-353.861 763,-322 639.711,-286.724 611.718,-265.381 502,-199 446.361,-165.337 388.793,-113.911 361.398,-88.233"/>
<polygon fill="midnightblue" stroke="midnightblue" points="363.57,-85.4694 353.9,-81.1386 358.759,-90.554 363.57,-85.4694"/>
</g>
<!-- Node33&#45;&gt;Node15 -->
<g id="edge74" class="edge"><title>Node33&#45;&gt;Node15</title>
<path fill="none" stroke="midnightblue" d="M1088.58,-358.453C991.934,-342.794 803.353,-306.332 763,-255 752.864,-242.106 753.26,-222.93 755.502,-208.745"/>
<polygon fill="midnightblue" stroke="midnightblue" points="758.991,-209.148 757.53,-198.655 752.128,-207.769 758.991,-209.148"/>
</g>
<!-- Node33&#45;&gt;Node18 -->
<g id="edge75" class="edge"><title>Node33&#45;&gt;Node18</title>
<path fill="none" stroke="midnightblue" d="M1198.3,-358.475C1263.02,-347.924 1373.34,-329.941 1444.15,-318.398"/>
<polygon fill="midnightblue" stroke="midnightblue" points="1444.99,-321.806 1454.3,-316.743 1443.87,-314.898 1444.99,-321.806"/>
</g>
<!-- Node33&#45;&gt;Node22 -->
<g id="edge77" class="edge"><title>Node33&#45;&gt;Node22</title>
<path fill="none" stroke="midnightblue" d="M1205.56,-363.323C1383.74,-351.769 1910.23,-313.456 2071,-255 2103.23,-243.283 2135.95,-220.328 2155.62,-205.074"/>
<polygon fill="midnightblue" stroke="midnightblue" points="2158.03,-207.633 2163.68,-198.676 2153.67,-202.148 2158.03,-207.633"/>
</g>
<!-- Node33&#45;&gt;Node23 -->
<g id="edge79" class="edge"><title>Node33&#45;&gt;Node23</title>
<path fill="none" stroke="midnightblue" d="M1151.41,-358.401C1157.08,-349.364 1166.23,-334.724 1174,-322 1198.93,-281.145 1227.67,-232.803 1242.67,-207.477"/>
<polygon fill="midnightblue" stroke="midnightblue" points="1245.8,-209.069 1247.88,-198.68 1239.77,-205.504 1245.8,-209.069"/>
</g>
<!-- Node34 -->
<g id="node34" class="node"><title>Node34</title>
<polygon fill="white" stroke="#bfbfbf" points="1054.5,-297 1054.5,-316 1131.5,-316 1131.5,-297 1054.5,-297"/>
<text text-anchor="middle" x="1093" y="-304" font-family="Helvetica,sans-Serif" font-size="10.00">initializer_list</text>
</g>
<!-- Node33&#45;&gt;Node34 -->
<g id="edge78" class="edge"><title>Node33&#45;&gt;Node34</title>
<path fill="none" stroke="midnightblue" d="M1138.41,-358.475C1130.3,-349.373 1117.27,-334.741 1107.24,-323.483"/>
<polygon fill="midnightblue" stroke="midnightblue" points="1109.84,-321.148 1100.58,-316.009 1104.62,-325.804 1109.84,-321.148"/>
</g>
<!-- Node35&#45;&gt;Node11 -->
<g id="edge87" class="edge"><title>Node35&#45;&gt;Node11</title>
<path fill="none" stroke="midnightblue" d="M1405.55,-422.547C1537.33,-407.113 1877.57,-359.506 2142,-255 2266.6,-205.759 2289.65,-175.279 2413,-123 2449,-107.741 2491.36,-92.7649 2519.77,-83.1352"/>
<polygon fill="midnightblue" stroke="midnightblue" points="2521.21,-86.3447 2529.57,-79.8387 2518.98,-79.71 2521.21,-86.3447"/>
</g>
<!-- Node35&#45;&gt;Node27 -->
<g id="edge84" class="edge"><title>Node35&#45;&gt;Node27</title>
<path fill="none" stroke="midnightblue" d="M1344.17,-414.457C1331.57,-386.039 1298.97,-321.803 1250,-291 1222.54,-273.729 1143.32,-261.288 1082.12,-253.923"/>
<polygon fill="midnightblue" stroke="midnightblue" points="1082.42,-250.434 1072.08,-252.74 1081.6,-257.386 1082.42,-250.434"/>
</g>
<!-- Node35&#45;&gt;Node28 -->
<g id="edge88" class="edge"><title>Node35&#45;&gt;Node28</title>
<path fill="none" stroke="midnightblue" d="M1382.29,-414.453C1426.58,-394.922 1508.38,-357.9 1576,-322 1613.85,-301.904 1656.37,-275.956 1681.63,-260.168"/>
<polygon fill="midnightblue" stroke="midnightblue" points="1683.81,-262.93 1690.42,-254.648 1680.09,-257.002 1683.81,-262.93"/>
</g>
<!-- Node35&#45;&gt;Node32 -->
<g id="edge85" class="edge"><title>Node35&#45;&gt;Node32</title>
<path fill="none" stroke="midnightblue" d="M1333.97,-414.353C1300.55,-385.743 1219.91,-321.171 1140,-291 1095.5,-274.198 968.082,-259.581 889.911,-251.851"/>
<polygon fill="midnightblue" stroke="midnightblue" points="889.985,-248.342 879.692,-250.852 889.304,-255.309 889.985,-248.342"/>
</g>
<!-- Node35&#45;&gt;Node33 -->
<g id="edge86" class="edge"><title>Node35&#45;&gt;Node33</title>
<path fill="none" stroke="midnightblue" d="M1301.91,-414.475C1266.26,-404.075 1218.27,-390.078 1184.99,-380.372"/>
<polygon fill="midnightblue" stroke="midnightblue" points="1185.74,-376.946 1175.16,-377.506 1183.78,-383.666 1185.74,-376.946"/>
</g>
<!-- Node36&#45;&gt;Node32 -->
<g id="edge93" class="edge"><title>Node36&#45;&gt;Node32</title>
<path fill="none" stroke="midnightblue" d="M589.875,-481.461C600.516,-451.093 640.577,-347.149 708,-291 727.226,-274.989 752.758,-264.311 775.154,-257.392"/>
<polygon fill="midnightblue" stroke="midnightblue" points="776.239,-260.722 784.86,-254.563 774.28,-254.001 776.239,-260.722"/>
</g>
<!-- Node37 -->
<g id="node37" class="node"><title>Node37</title>
<polygon fill="white" stroke="#bfbfbf" points="484.5,-420 484.5,-439 543.5,-439 543.5,-420 484.5,-420"/>
<text text-anchor="middle" x="514" y="-427" font-family="Helvetica,sans-Serif" font-size="10.00">iostream</text>
</g>
<!-- Node36&#45;&gt;Node37 -->
<g id="edge94" class="edge"><title>Node36&#45;&gt;Node37</title>
<path fill="none" stroke="midnightblue" d="M576.541,-481.475C565.049,-472.108 546.37,-456.884 532.413,-445.508"/>
<polygon fill="midnightblue" stroke="midnightblue" points="534.402,-442.614 524.44,-439.009 529.98,-448.04 534.402,-442.614"/>
</g>
<!-- Node38&#45;&gt;Node4 -->
<g id="edge104" class="edge"><title>Node38&#45;&gt;Node4</title>
<path fill="none" stroke="midnightblue" d="M1359.7,-593.427C1468.23,-555.931 1877.37,-400.818 1744,-235 1697.23,-176.85 1651.33,-220.931 1580,-199 1557.12,-191.966 1552.9,-185.944 1530,-179 1480.27,-163.925 1422.53,-152.063 1379.72,-144.312"/>
<polygon fill="midnightblue" stroke="midnightblue" points="1380.18,-140.839 1369.72,-142.527 1378.95,-147.73 1380.18,-140.839"/>
</g>
<!-- Node38&#45;&gt;Node11 -->
<g id="edge106" class="edge"><title>Node38&#45;&gt;Node11</title>
<path fill="none" stroke="midnightblue" d="M1374.18,-598.927C1567.87,-583.8 2399.59,-515.147 2490,-445 2606.18,-354.864 2585.82,-268.701 2566,-123 2564.52,-112.127 2561.33,-100.29 2558.36,-90.8109"/>
<polygon fill="midnightblue" stroke="midnightblue" points="2561.68,-89.6855 2555.22,-81.2874 2555.03,-91.8806 2561.68,-89.6855"/>
</g>
<!-- Node38&#45;&gt;Node14 -->
<g id="edge105" class="edge"><title>Node38&#45;&gt;Node14</title>
<path fill="none" stroke="midnightblue" d="M1311.02,-593.444C1286.84,-584.438 1248.58,-570.189 1221.35,-560.049"/>
<polygon fill="midnightblue" stroke="midnightblue" points="1222.46,-556.727 1211.87,-556.516 1220.02,-563.286 1222.46,-556.727"/>
</g>
<!-- Node39&#45;&gt;Node4 -->
<g id="edge108" class="edge"><title>Node39&#45;&gt;Node4</title>
<path fill="none" stroke="midnightblue" d="M1075.26,-649.381C1029.16,-602.883 820.333,-378.735 927,-235 947.093,-207.924 1158.19,-164.333 1261.15,-144.469"/>
<polygon fill="midnightblue" stroke="midnightblue" points="1261.9,-147.888 1271.06,-142.565 1260.58,-141.014 1261.9,-147.888"/>
</g>
<!-- Node39&#45;&gt;Node11 -->
<g id="edge113" class="edge"><title>Node39&#45;&gt;Node11</title>
<path fill="none" stroke="midnightblue" d="M1122.75,-658.735C1271.58,-659.951 1817.22,-649.506 2197,-445 2367.48,-353.199 2396.98,-299.498 2511,-143 2523.46,-125.891 2535.35,-104.722 2543.09,-90.0693"/>
<polygon fill="midnightblue" stroke="midnightblue" points="2546.24,-91.5857 2547.74,-81.0963 2540.03,-88.3664 2546.24,-91.5857"/>
</g>
<!-- Node39&#45;&gt;Node14 -->
<g id="edge110" class="edge"><title>Node39&#45;&gt;Node14</title>
<path fill="none" stroke="midnightblue" d="M1092.24,-649.368C1109.8,-630.974 1151.13,-587.671 1173.68,-564.052"/>
<polygon fill="midnightblue" stroke="midnightblue" points="1176.43,-566.242 1180.8,-556.591 1171.36,-561.408 1176.43,-566.242"/>
</g>
<!-- Node39&#45;&gt;Node27 -->
<g id="edge109" class="edge"><title>Node39&#45;&gt;Node27</title>
<path fill="none" stroke="midnightblue" d="M1045.18,-654.639C950.984,-645.417 718,-615.759 718,-548 718,-548 718,-548 718,-490 718,-360.701 889.269,-285.4 966.734,-257.955"/>
<polygon fill="midnightblue" stroke="midnightblue" points="968.273,-261.126 976.577,-254.547 965.982,-254.511 968.273,-261.126"/>
</g>
<!-- Node39&#45;&gt;Node33 -->
<g id="edge111" class="edge"><title>Node39&#45;&gt;Node33</title>
<path fill="none" stroke="midnightblue" d="M1080.76,-649.301C1074.21,-630.889 1060,-586.507 1060,-548 1060,-548 1060,-548 1060,-490 1060,-455.183 1058.99,-442.495 1079,-414 1088.55,-400.397 1103.64,-389.738 1117.08,-382.216"/>
<polygon fill="midnightblue" stroke="midnightblue" points="1118.81,-385.261 1126.03,-377.512 1115.55,-379.064 1118.81,-385.261"/>
</g>
<!-- Node39&#45;&gt;Node38 -->
<g id="edge112" class="edge"><title>Node39&#45;&gt;Node38</title>
<path fill="none" stroke="midnightblue" d="M1122.51,-649.681C1166.12,-640.262 1237.26,-624.895 1284.84,-614.619"/>
<polygon fill="midnightblue" stroke="midnightblue" points="1285.58,-618.039 1294.62,-612.507 1284.1,-611.197 1285.58,-618.039"/>
</g>
<!-- Node41&#45;&gt;Node3 -->
<g id="edge120" class="edge"><title>Node41&#45;&gt;Node3</title>
<path fill="none" stroke="midnightblue" d="M2284.27,-767.982C2119.54,-759.614 1490.45,-727.656 1309.78,-718.478"/>
<polygon fill="midnightblue" stroke="midnightblue" points="1309.69,-714.969 1299.53,-717.957 1309.33,-721.96 1309.69,-714.969"/>
</g>
<!-- Node41&#45;&gt;Node10 -->
<g id="edge125" class="edge"><title>Node41&#45;&gt;Node10</title>
<path fill="none" stroke="midnightblue" d="M2284.38,-769.922C2064.09,-769.134 988.562,-760.585 672,-669 469.296,-610.355 304,-580.017 304,-369 304,-369 304,-369 304,-305.5 304,-273.049 302.756,-260.363 323,-235 360.917,-187.494 529.48,-114.043 599.425,-84.9651"/>
<polygon fill="midnightblue" stroke="midnightblue" points="601.098,-88.0608 609.002,-81.0052 598.423,-81.5919 601.098,-88.0608"/>
</g>
<!-- Node41&#45;&gt;Node11 -->
<g id="edge126" class="edge"><title>Node41&#45;&gt;Node11</title>
<path fill="none" stroke="midnightblue" d="M2363.7,-767.441C2468.04,-758.358 2742,-718.296 2742,-548 2742,-548 2742,-548 2742,-188 2742,-157.205 2740.4,-144.131 2718,-123 2681.2,-88.2905 2621.25,-77.3878 2584.36,-73.9941"/>
<polygon fill="midnightblue" stroke="midnightblue" points="2584.4,-70.4863 2574.15,-73.193 2583.85,-77.4648 2584.4,-70.4863"/>
</g>
<!-- Node41&#45;&gt;Node12 -->
<g id="edge127" class="edge"><title>Node41&#45;&gt;Node12</title>
<path fill="none" stroke="midnightblue" d="M2284.45,-769.728C2081.12,-768.188 1152.01,-759.358 866,-725 671.203,-701.599 613.23,-703.207 439,-613 320.468,-551.63 278.064,-508.908 252,-378 239.59,-315.668 235.667,-296.421 252,-235 267.528,-176.608 309.538,-117.339 331.386,-89.2522"/>
<polygon fill="midnightblue" stroke="midnightblue" points="334.244,-91.2808 337.712,-81.2695 328.758,-86.9331 334.244,-91.2808"/>
</g>
<!-- Node41&#45;&gt;Node18 -->
<g id="edge121" class="edge"><title>Node41&#45;&gt;Node18</title>
<path fill="none" stroke="midnightblue" d="M2323.47,-761.447C2321.98,-741.175 2316.69,-688.913 2300,-649 2267.49,-571.238 2154.21,-441.339 2110,-414 2021.57,-359.317 1714.9,-325.755 1577.95,-313.169"/>
<polygon fill="midnightblue" stroke="midnightblue" points="1577.88,-309.647 1567.6,-312.227 1577.24,-316.619 1577.88,-309.647"/>
</g>
<!-- Node41&#45;&gt;Node22 -->
<g id="edge123" class="edge"><title>Node41&#45;&gt;Node22</title>
<path fill="none" stroke="midnightblue" d="M2363.71,-768.329C2429.04,-763.218 2552,-742.625 2552,-660 2552,-660 2552,-660 2552,-490 2552,-314.764 2299.67,-225.613 2207.33,-198.855"/>
<polygon fill="midnightblue" stroke="midnightblue" points="2208.22,-195.469 2197.65,-196.108 2206.31,-202.204 2208.22,-195.469"/>
</g>
<!-- Node41&#45;&gt;Node23 -->
<g id="edge122" class="edge"><title>Node41&#45;&gt;Node23</title>
<path fill="none" stroke="midnightblue" d="M2317.78,-761.297C2285.21,-716.412 2128.84,-509.51 1948,-414 1844.25,-359.202 1805.44,-378.986 1690,-358 1581.72,-338.316 1547.43,-362.266 1445,-322 1422.4,-313.114 1420.01,-304.765 1400,-291 1355.11,-260.119 1302.48,-223.974 1273.96,-204.39"/>
<polygon fill="midnightblue" stroke="midnightblue" points="1275.81,-201.416 1265.59,-198.641 1271.85,-207.187 1275.81,-201.416"/>
</g>
<!-- Node41&#45;&gt;Node28 -->
<g id="edge124" class="edge"><title>Node41&#45;&gt;Node28</title>
<path fill="none" stroke="midnightblue" d="M2363.59,-769.924C2421.16,-768.062 2518.59,-757.334 2494,-705 2348.55,-395.475 1887.74,-281.744 1745.94,-253.559"/>
<polygon fill="midnightblue" stroke="midnightblue" points="1746.39,-250.08 1735.9,-251.602 1745.05,-256.951 1746.39,-250.08"/>
</g>
<!-- Node42 -->
<g id="node42" class="node"><title>Node42</title>
<polygon fill="white" stroke="#bfbfbf" points="2390.5,-705.5 2390.5,-724.5 2485.5,-724.5 2485.5,-705.5 2390.5,-705.5"/>
<text text-anchor="middle" x="2438" y="-712.5" font-family="Helvetica,sans-Serif" font-size="10.00">dmlc/common.h</text>
</g>
<!-- Node41&#45;&gt;Node42 -->
<g id="edge119" class="edge"><title>Node41&#45;&gt;Node42</title>
<path fill="none" stroke="midnightblue" d="M2342.06,-761.444C2360.57,-752.675 2389.58,-738.935 2410.86,-728.858"/>
<polygon fill="midnightblue" stroke="midnightblue" points="2412.48,-731.96 2420.02,-724.516 2409.49,-725.634 2412.48,-731.96"/>
</g>
<!-- Node43&#45;&gt;Node3 -->
<g id="edge136" class="edge"><title>Node43&#45;&gt;Node3</title>
<path fill="none" stroke="midnightblue" d="M670.121,-767.411C762.149,-761.333 995.48,-745.134 1190,-725 1197.22,-724.252 1204.85,-723.377 1212.31,-722.472"/>
<polygon fill="midnightblue" stroke="midnightblue" points="1212.85,-725.932 1222.35,-721.227 1211.99,-718.985 1212.85,-725.932"/>
</g>
<!-- Node43&#45;&gt;Node6 -->
<g id="edge134" class="edge"><title>Node43&#45;&gt;Node6</title>
<path fill="none" stroke="midnightblue" d="M670.276,-769.356C841.39,-766.462 1508.82,-753.538 1717,-725 1932.32,-695.484 2003.03,-718.57 2193,-613 2327.33,-538.351 2438,-522.678 2438,-369 2438,-369 2438,-369 2438,-305.5 2438,-145.489 2204.98,-94.7959 2082.01,-79.1843"/>
<polygon fill="midnightblue" stroke="midnightblue" points="2082.26,-75.6887 2071.91,-77.9492 2081.41,-82.637 2082.26,-75.6887"/>
</g>
<!-- Node43&#45;&gt;Node11 -->
<g id="edge137" class="edge"><title>Node43&#45;&gt;Node11</title>
<path fill="none" stroke="midnightblue" d="M670.25,-769.329C851.691,-766.173 1594.7,-751.83 1826,-725 1954.66,-710.075 1989.25,-710.356 2112,-669 2418.45,-565.749 2704,-569.375 2704,-246 2704,-246 2704,-246 2704,-188 2704,-128.195 2628.48,-95.3149 2583.91,-81.1157"/>
<polygon fill="midnightblue" stroke="midnightblue" points="2584.69,-77.6954 2574.1,-78.1337 2582.65,-84.3924 2584.69,-77.6954"/>
</g>
<!-- Node43&#45;&gt;Node12 -->
<g id="edge142" class="edge"><title>Node43&#45;&gt;Node12</title>
<path fill="none" stroke="midnightblue" d="M589.817,-766.881C525.802,-761.293 404.196,-747.96 368,-725 320.197,-694.677 76,-364.109 76,-307.5 76,-307.5 76,-307.5 76,-188 76,-85.5137 242.902,-72.8196 313.772,-72.0491"/>
<polygon fill="midnightblue" stroke="midnightblue" points="313.904,-75.5488 323.892,-72.0142 313.88,-68.5488 313.904,-75.5488"/>
</g>
<!-- Node43&#45;&gt;Node14 -->
<g id="edge131" class="edge"><title>Node43&#45;&gt;Node14</title>
<path fill="none" stroke="midnightblue" d="M670.073,-766.515C775.691,-756.629 1058.53,-725.405 1131,-669 1164.14,-643.21 1179.36,-593.75 1185.47,-566.739"/>
<polygon fill="midnightblue" stroke="midnightblue" points="1188.96,-567.173 1187.56,-556.671 1182.1,-565.753 1188.96,-567.173"/>
</g>
<!-- Node43&#45;&gt;Node23 -->
<g id="edge139" class="edge"><title>Node43&#45;&gt;Node23</title>
<path fill="none" stroke="midnightblue" d="M670.096,-768.89C894.235,-762.43 1982,-727.595 1982,-660 1982,-660 1982,-660 1982,-490 1982,-357.946 1533.22,-374.388 1412,-322 1386.95,-311.174 1383.34,-303.34 1359,-291 1323.14,-272.817 1303.43,-284.398 1276,-255 1264.14,-242.293 1258.34,-223.093 1255.53,-208.851"/>
<polygon fill="midnightblue" stroke="midnightblue" points="1258.94,-208.012 1253.87,-198.711 1252.03,-209.146 1258.94,-208.012"/>
</g>
<!-- Node43&#45;&gt;Node27 -->
<g id="edge135" class="edge"><title>Node43&#45;&gt;Node27</title>
<path fill="none" stroke="midnightblue" d="M630.954,-761.269C635.709,-720.194 659.203,-542.794 723,-414 755.685,-348.016 769.906,-327.251 834,-291 863.974,-274.047 900.537,-263.297 932.063,-256.575"/>
<polygon fill="midnightblue" stroke="midnightblue" points="933.006,-259.955 942.107,-254.532 931.61,-253.096 933.006,-259.955"/>
</g>
<!-- Node43&#45;&gt;Node30 -->
<g id="edge141" class="edge"><title>Node43&#45;&gt;Node30</title>
<path fill="none" stroke="midnightblue" d="M589.709,-767.01C545.02,-762.488 471.627,-751.421 414,-725 376.829,-707.958 359.088,-705.673 341,-669 271.246,-527.576 326.897,-325.942 346.699,-264.481"/>
<polygon fill="midnightblue" stroke="midnightblue" points="350.123,-265.276 349.942,-254.683 343.477,-263.077 350.123,-265.276"/>
</g>
<!-- Node43&#45;&gt;Node32 -->
<g id="edge133" class="edge"><title>Node43&#45;&gt;Node32</title>
<path fill="none" stroke="midnightblue" d="M612.134,-761.411C597.405,-753.6 576.769,-740.88 563,-725 468.896,-616.466 404.91,-539.389 475,-414 533.204,-309.875 678.1,-269.464 762.41,-254.411"/>
<polygon fill="midnightblue" stroke="midnightblue" points="763.118,-257.841 772.381,-252.699 761.933,-250.942 763.118,-257.841"/>
</g>
<!-- Node43&#45;&gt;Node33 -->
<g id="edge132" class="edge"><title>Node43&#45;&gt;Node33</title>
<path fill="none" stroke="midnightblue" d="M638.817,-761.476C682.128,-719.876 877.608,-535.279 1060,-414 1078.3,-401.833 1100.27,-390.384 1117.43,-382.08"/>
<polygon fill="midnightblue" stroke="midnightblue" points="1119.38,-385.027 1126.9,-377.572 1116.37,-378.706 1119.38,-385.027"/>
</g>
<!-- Node43&#45;&gt;Node37 -->
<g id="edge140" class="edge"><title>Node43&#45;&gt;Node37</title>
<path fill="none" stroke="midnightblue" d="M616.075,-761.319C604.288,-753.278 587.792,-740.279 578,-725 522.067,-637.723 527.59,-603.63 513,-501 510.526,-483.596 511.142,-463.533 512.16,-449.27"/>
<polygon fill="midnightblue" stroke="midnightblue" points="515.654,-449.498 513.012,-439.238 508.679,-448.906 515.654,-449.498"/>
</g>
<!-- Node43&#45;&gt;Node40 -->
<g id="edge138" class="edge"><title>Node43&#45;&gt;Node40</title>
<path fill="none" stroke="midnightblue" d="M589.732,-767.095C549.879,-762.732 488.293,-751.878 442,-725 421.385,-713.031 403.494,-691.933 392.512,-677.026"/>
<polygon fill="midnightblue" stroke="midnightblue" points="395.239,-674.82 386.605,-668.68 389.526,-678.864 395.239,-674.82"/>
</g>
<!-- Node44&#45;&gt;Node11 -->
<g id="edge158" class="edge"><title>Node44&#45;&gt;Node11</title>
<path fill="none" stroke="midnightblue" d="M708.813,-936.527C904.286,-929.725 1716.28,-898.997 2380,-837 2597.34,-816.699 2856,-934.284 2856,-716 2856,-716 2856,-716 2856,-188 2856,-154.31 2844.63,-142.282 2817,-123 2779.7,-96.9641 2646.41,-81.3627 2584.29,-75.3519"/>
<polygon fill="midnightblue" stroke="midnightblue" points="2584.55,-71.8601 2574.26,-74.4048 2583.89,-78.8291 2584.55,-71.8601"/>
</g>
<!-- Node44&#45;&gt;Node33 -->
<g id="edge144" class="edge"><title>Node44&#45;&gt;Node33</title>
<path fill="none" stroke="midnightblue" d="M621.367,-935.411C473.423,-926.058 0,-891.191 0,-828 0,-828 0,-828 0,-770 0,-710.014 906.365,-439.573 1106.99,-380.444"/>
<polygon fill="midnightblue" stroke="midnightblue" points="1108.21,-383.736 1116.81,-377.554 1106.23,-377.021 1108.21,-383.736"/>
</g>
<!-- Node44&#45;&gt;Node43 -->
<g id="edge145" class="edge"><title>Node44&#45;&gt;Node43</title>
<path fill="none" stroke="midnightblue" d="M664.052,-929.397C661.75,-909.443 655.288,-858.542 645,-817 642.77,-807.996 639.598,-798.203 636.746,-790.059"/>
<polygon fill="midnightblue" stroke="midnightblue" points="639.982,-788.718 633.285,-780.508 633.401,-791.102 639.982,-788.718"/>
</g>
<!-- Node45 -->
<g id="node45" class="node"><title>Node45</title>
<g id="a_node45"><a xlink:href="tir_2op_8h.html" target="_top" xlink:title="Common operators defined for Expr. ">
<polygon fill="white" stroke="black" points="211,-873.5 211,-892.5 283,-892.5 283,-873.5 211,-873.5"/>
<text text-anchor="middle" x="247" y="-880.5" font-family="Helvetica,sans-Serif" font-size="10.00">tvm/tir/op.h</text>
</a>
</g>
</g>
<!-- Node44&#45;&gt;Node45 -->
<g id="edge146" class="edge"><title>Node44&#45;&gt;Node45</title>
<path fill="none" stroke="midnightblue" d="M621.45,-932.374C542.041,-922.115 374.43,-900.462 293.144,-889.961"/>
<polygon fill="midnightblue" stroke="midnightblue" points="293.568,-886.487 283.202,-888.677 292.671,-893.429 293.568,-886.487"/>
</g>
<!-- Node45&#45;&gt;Node10 -->
<g id="edge156" class="edge"><title>Node45&#45;&gt;Node10</title>
<path fill="none" stroke="midnightblue" d="M210.595,-879.156C150.715,-872.276 38,-849.087 38,-772 38,-772 38,-772 38,-490 38,-279.608 146.73,-212.789 337,-123 418.909,-84.3469 526.183,-74.956 585.571,-72.8728"/>
<polygon fill="midnightblue" stroke="midnightblue" points="585.843,-76.3664 595.735,-72.5719 585.636,-69.3695 585.843,-76.3664"/>
</g>
<!-- Node45&#45;&gt;Node30 -->
<g id="edge157" class="edge"><title>Node45&#45;&gt;Node30</title>
<path fill="none" stroke="midnightblue" d="M210.735,-875.472C160.54,-864.109 76,-835.539 76,-772 76,-772 76,-772 76,-490 76,-422.518 263.454,-300.94 329.949,-259.936"/>
<polygon fill="midnightblue" stroke="midnightblue" points="331.799,-262.908 338.497,-254.699 328.142,-256.939 331.799,-262.908"/>
</g>
<!-- Node45&#45;&gt;Node39 -->
<g id="edge147" class="edge"><title>Node45&#45;&gt;Node39</title>
<path fill="none" stroke="midnightblue" d="M265.73,-873.392C294.485,-860.338 351.395,-835.136 401,-817 630.935,-732.935 921.372,-684.026 1035.15,-666.943"/>
<polygon fill="midnightblue" stroke="midnightblue" points="1035.9,-670.369 1045.28,-665.436 1034.87,-663.445 1035.9,-670.369"/>
</g>
<!-- Node45&#45;&gt;Node40 -->
<g id="edge155" class="edge"><title>Node45&#45;&gt;Node40</title>
<path fill="none" stroke="midnightblue" d="M242.87,-873.469C233.501,-852.802 212.949,-798.958 233,-761 256.773,-715.996 310.614,-687.262 346.377,-672.384"/>
<polygon fill="midnightblue" stroke="midnightblue" points="347.962,-675.519 355.945,-668.553 345.36,-669.021 347.962,-675.519"/>
</g>
<!-- Node45&#45;&gt;Node43 -->
<g id="edge148" class="edge"><title>Node45&#45;&gt;Node43</title>
<path fill="none" stroke="midnightblue" d="M276.735,-873.46C345.11,-853.822 513.533,-805.45 590.489,-783.348"/>
<polygon fill="midnightblue" stroke="midnightblue" points="591.639,-786.659 600.284,-780.535 589.707,-779.931 591.639,-786.659"/>
</g>
<!-- Node45&#45;&gt;Node46 -->
<g id="edge149" class="edge"><title>Node45&#45;&gt;Node46</title>
<path fill="none" stroke="midnightblue" d="M283.257,-876.374C345.313,-866.745 472.071,-847.075 543.356,-836.014"/>
<polygon fill="midnightblue" stroke="midnightblue" points="544.111,-839.438 553.456,-834.446 543.038,-832.521 544.111,-839.438"/>
</g>
<!-- Node46&#45;&gt;Node10 -->
<g id="edge151" class="edge"><title>Node46&#45;&gt;Node10</title>
<path fill="none" stroke="midnightblue" d="M553.293,-822.584C484.591,-816.439 351.035,-802.157 309,-781 277.278,-765.033 271.59,-754.622 252,-725 219.193,-675.391 228.175,-652.448 230,-593 234.891,-433.664 182.265,-378.349 252,-235 312.819,-109.979 499.653,-81.1306 585.734,-74.4841"/>
<polygon fill="midnightblue" stroke="midnightblue" points="586.234,-77.9577 595.963,-73.763 585.741,-70.975 586.234,-77.9577"/>
</g>
<!-- Node46&#45;&gt;Node11 -->
<g id="edge152" class="edge"><title>Node46&#45;&gt;Node11</title>
<path fill="none" stroke="midnightblue" d="M636.84,-825.602C901.204,-823.007 2334.94,-807.784 2528,-781 2642.57,-765.105 2780,-831.666 2780,-716 2780,-716 2780,-716 2780,-188 2780,-101.382 2647.43,-79.7038 2584.47,-74.2927"/>
<polygon fill="midnightblue" stroke="midnightblue" points="2584.52,-70.7862 2574.28,-73.5074 2583.98,-77.7655 2584.52,-70.7862"/>
</g>
<!-- Node46&#45;&gt;Node12 -->
<g id="edge154" class="edge"><title>Node46&#45;&gt;Node12</title>
<path fill="none" stroke="midnightblue" d="M553.275,-824.294C477.447,-820.523 320.653,-809.442 275,-781 243.658,-761.474 38,-446.281 38,-307.5 38,-307.5 38,-307.5 38,-188 38,-151.822 56.3302,-142.189 87,-123 158.885,-78.025 262.315,-71.7318 313.644,-71.6629"/>
<polygon fill="midnightblue" stroke="midnightblue" points="313.753,-75.1637 323.776,-71.7311 313.8,-68.1638 313.753,-75.1637"/>
</g>
<!-- Node46&#45;&gt;Node22 -->
<g id="edge153" class="edge"><title>Node46&#45;&gt;Node22</title>
<path fill="none" stroke="midnightblue" d="M636.5,-826.032C869.826,-826.051 2020.29,-823.927 2372,-781 2504.84,-764.787 2666,-849.822 2666,-716 2666,-716 2666,-716 2666,-490 2666,-274.844 2318.77,-209.464 2207.72,-194.055"/>
<polygon fill="midnightblue" stroke="midnightblue" points="2208.11,-190.576 2197.73,-192.717 2207.18,-197.514 2208.11,-190.576"/>
</g>
<!-- Node46&#45;&gt;Node43 -->
<g id="edge150" class="edge"><title>Node46&#45;&gt;Node43</title>
<path fill="none" stroke="midnightblue" d="M600.78,-817.083C605.672,-809.534 612.827,-798.495 618.833,-789.23"/>
<polygon fill="midnightblue" stroke="midnightblue" points="621.826,-791.046 624.328,-780.751 615.952,-787.239 621.826,-791.046"/>
</g>
</g>
</svg>
