<?xml version="1.0" encoding="UTF-8" standalone="no"?>
<!DOCTYPE svg PUBLIC "-//W3C//DTD SVG 1.1//EN"
 "http://www.w3.org/Graphics/SVG/1.1/DTD/svg11.dtd">
<!-- Generated by graphviz version 2.38.0 (20140413.2041)
 -->
<!-- Title: include/tvm/arith/analyzer.h Pages: 1 -->
<svg width="2538pt" height="901pt"
 viewBox="0.00 0.00 2538.00 901.00" xmlns="http://www.w3.org/2000/svg" xmlns:xlink="http://www.w3.org/1999/xlink">
<g id="graph0" class="graph" transform="scale(1 1) rotate(0) translate(4 897)">
<title>include/tvm/arith/analyzer.h</title>
<polygon fill="white" stroke="none" points="-4,4 -4,-897 2534,-897 2534,4 -4,4"/>
<!-- Node1 -->
<g id="node1" class="node"><title>Node1</title>
<polygon fill="#bfbfbf" stroke="black" points="2007.5,-873.5 2007.5,-892.5 2156.5,-892.5 2156.5,-873.5 2007.5,-873.5"/>
<text text-anchor="middle" x="2082" y="-880.5" font-family="Helvetica,sans-Serif" font-size="10.00">include/tvm/arith/analyzer.h</text>
</g>
<!-- Node2 -->
<g id="node2" class="node"><title>Node2</title>
<g id="a_node2"><a xlink:href="with_8h.html" target="_top" xlink:title="RAII wrapper function to enter and exit a context object similar to python&#39;s with syntax...">
<polygon fill="white" stroke="black" points="2155,-123.5 2155,-142.5 2261,-142.5 2261,-123.5 2155,-123.5"/>
<text text-anchor="middle" x="2208" y="-130.5" font-family="Helvetica,sans-Serif" font-size="10.00">tvm/support/with.h</text>
</a>
</g>
</g>
<!-- Node1&#45;&gt;Node2 -->
<g id="edge1" class="edge"><title>Node1&#45;&gt;Node2</title>
<path fill="none" stroke="midnightblue" d="M2156.73,-878.964C2284.2,-871.729 2530,-847.933 2530,-772 2530,-772 2530,-772 2530,-305.5 2530,-189.39 2364.88,-151.628 2271.12,-139.545"/>
<polygon fill="midnightblue" stroke="midnightblue" points="2271.52,-136.067 2261.17,-138.323 2270.67,-143.015 2271.52,-136.067"/>
</g>
<!-- Node5 -->
<g id="node5" class="node"><title>Node5</title>
<g id="a_node5"><a xlink:href="ir_2expr_8h.html" target="_top" xlink:title="Base expr nodes in TVM. ">
<polygon fill="white" stroke="black" points="1811.5,-705.5 1811.5,-724.5 1888.5,-724.5 1888.5,-705.5 1811.5,-705.5"/>
<text text-anchor="middle" x="1850" y="-712.5" font-family="Helvetica,sans-Serif" font-size="10.00">tvm/ir/expr.h</text>
</a>
</g>
</g>
<!-- Node1&#45;&gt;Node5 -->
<g id="edge4" class="edge"><title>Node1&#45;&gt;Node5</title>
<path fill="none" stroke="midnightblue" d="M2069.85,-873.309C2032.19,-846.36 1917.1,-764.01 1870.2,-730.457"/>
<polygon fill="midnightblue" stroke="midnightblue" points="1872.2,-727.578 1862.03,-724.605 1868.12,-733.271 1872.2,-727.578"/>
</g>
<!-- Node21 -->
<g id="node21" class="node"><title>Node21</title>
<polygon fill="white" stroke="#bfbfbf" points="1122.5,-179.5 1122.5,-198.5 1179.5,-198.5 1179.5,-179.5 1122.5,-179.5"/>
<text text-anchor="middle" x="1151" y="-186.5" font-family="Helvetica,sans-Serif" font-size="10.00">memory</text>
</g>
<!-- Node1&#45;&gt;Node21 -->
<g id="edge138" class="edge"><title>Node1&#45;&gt;Node21</title>
<path fill="none" stroke="midnightblue" d="M2007.24,-881.083C1681.08,-876.601 399,-853.781 399,-772 399,-772 399,-772 399,-602 399,-467.02 759.077,-288.502 883,-235 959.748,-201.865 1058.64,-193.04 1112.26,-190.748"/>
<polygon fill="midnightblue" stroke="midnightblue" points="1112.5,-194.241 1122.36,-190.371 1112.24,-187.246 1112.5,-194.241"/>
</g>
<!-- Node22 -->
<g id="node22" class="node"><title>Node22</title>
<polygon fill="white" stroke="#bfbfbf" points="948.5,-179.5 948.5,-198.5 995.5,-198.5 995.5,-179.5 948.5,-179.5"/>
<text text-anchor="middle" x="972" y="-186.5" font-family="Helvetica,sans-Serif" font-size="10.00">vector</text>
</g>
<!-- Node1&#45;&gt;Node22 -->
<g id="edge136" class="edge"><title>Node1&#45;&gt;Node22</title>
<path fill="none" stroke="midnightblue" d="M2007.33,-881.886C1643.72,-880.851 76,-870.669 76,-772 76,-772 76,-772 76,-490 76,-443.6 776.047,-244.836 938.579,-199.314"/>
<polygon fill="midnightblue" stroke="midnightblue" points="939.807,-202.605 948.495,-196.54 937.922,-195.864 939.807,-202.605"/>
</g>
<!-- Node23 -->
<g id="node23" class="node"><title>Node23</title>
<polygon fill="white" stroke="#bfbfbf" points="2293.5,-179.5 2293.5,-198.5 2386.5,-198.5 2386.5,-179.5 2293.5,-179.5"/>
<text text-anchor="middle" x="2340" y="-186.5" font-family="Helvetica,sans-Serif" font-size="10.00">unordered_map</text>
</g>
<!-- Node1&#45;&gt;Node23 -->
<g id="edge137" class="edge"><title>Node1&#45;&gt;Node23</title>
<path fill="none" stroke="midnightblue" d="M2156.7,-879.668C2215.32,-875.613 2297.94,-864.899 2365,-837 2410.22,-818.186 2454,-820.982 2454,-772 2454,-772 2454,-772 2454,-428.5 2454,-337.153 2385.08,-243.674 2354.42,-206.599"/>
<polygon fill="midnightblue" stroke="midnightblue" points="2356.96,-204.185 2347.84,-198.8 2351.61,-208.7 2356.96,-204.185"/>
</g>
<!-- Node30 -->
<g id="node30" class="node"><title>Node30</title>
<polygon fill="white" stroke="#bfbfbf" points="2229,-235.5 2229,-254.5 2271,-254.5 2271,-235.5 2229,-235.5"/>
<text text-anchor="middle" x="2250" y="-242.5" font-family="Helvetica,sans-Serif" font-size="10.00">limits</text>
</g>
<!-- Node1&#45;&gt;Node30 -->
<g id="edge139" class="edge"><title>Node1&#45;&gt;Node30</title>
<path fill="none" stroke="midnightblue" d="M2150.8,-873.493C2248.57,-859.45 2416,-827.326 2416,-772 2416,-772 2416,-772 2416,-602 2416,-510.474 2302,-522.026 2302,-430.5 2302,-430.5 2302,-430.5 2302,-367 2302,-327.187 2277.94,-285.554 2262.55,-262.996"/>
<polygon fill="midnightblue" stroke="midnightblue" points="2265.22,-260.701 2256.59,-254.558 2259.5,-264.743 2265.22,-260.701"/>
</g>
<!-- Node41 -->
<g id="node41" class="node"><title>Node41</title>
<g id="a_node41"><a xlink:href="int__set_8h.html" target="_top" xlink:title="Integer set. ">
<polygon fill="white" stroke="black" points="2030,-817.5 2030,-836.5 2134,-836.5 2134,-817.5 2030,-817.5"/>
<text text-anchor="middle" x="2082" y="-824.5" font-family="Helvetica,sans-Serif" font-size="10.00">tvm/arith/int_set.h</text>
</a>
</g>
</g>
<!-- Node1&#45;&gt;Node41 -->
<g id="edge120" class="edge"><title>Node1&#45;&gt;Node41</title>
<path fill="none" stroke="midnightblue" d="M2082,-873.083C2082,-866.006 2082,-855.861 2082,-846.986"/>
<polygon fill="midnightblue" stroke="midnightblue" points="2085.5,-846.751 2082,-836.751 2078.5,-846.751 2085.5,-846.751"/>
</g>
<!-- Node3 -->
<g id="node3" class="node"><title>Node3</title>
<polygon fill="white" stroke="#bfbfbf" points="1932,-62 1932,-81 2018,-81 2018,-62 1932,-62"/>
<text text-anchor="middle" x="1975" y="-69" font-family="Helvetica,sans-Serif" font-size="10.00">dmlc/logging.h</text>
</g>
<!-- Node2&#45;&gt;Node3 -->
<g id="edge2" class="edge"><title>Node2&#45;&gt;Node3</title>
<path fill="none" stroke="midnightblue" d="M2174.62,-123.475C2133.44,-112.959 2063.35,-95.0615 2018.13,-83.5142"/>
<polygon fill="midnightblue" stroke="midnightblue" points="2018.88,-80.0922 2008.32,-81.0091 2017.14,-86.8746 2018.88,-80.0922"/>
</g>
<!-- Node4 -->
<g id="node4" class="node"><title>Node4</title>
<polygon fill="white" stroke="#bfbfbf" points="2106,-62 2106,-81 2148,-81 2148,-62 2106,-62"/>
<text text-anchor="middle" x="2127" y="-69" font-family="Helvetica,sans-Serif" font-size="10.00">utility</text>
</g>
<!-- Node2&#45;&gt;Node4 -->
<g id="edge3" class="edge"><title>Node2&#45;&gt;Node4</title>
<path fill="none" stroke="midnightblue" d="M2196.39,-123.475C2183.52,-114.02 2162.53,-98.5961 2146.99,-87.1871"/>
<polygon fill="midnightblue" stroke="midnightblue" points="2148.72,-84.1085 2138.58,-81.0091 2144.57,-89.75 2148.72,-84.1085"/>
</g>
<!-- Node6 -->
<g id="node6" class="node"><title>Node6</title>
<g id="a_node6"><a xlink:href="object_8h.html" target="_top" xlink:title="A managed object in the TVM runtime. ">
<polygon fill="white" stroke="black" points="1238.5,-123.5 1238.5,-142.5 1355.5,-142.5 1355.5,-123.5 1238.5,-123.5"/>
<text text-anchor="middle" x="1297" y="-130.5" font-family="Helvetica,sans-Serif" font-size="10.00">tvm/runtime/object.h</text>
</a>
</g>
</g>
<!-- Node5&#45;&gt;Node6 -->
<g id="edge5" class="edge"><title>Node5&#45;&gt;Node6</title>
<path fill="none" stroke="midnightblue" d="M1811.11,-713.457C1564.44,-709.766 228,-685.983 228,-604 228,-604 228,-604 228,-428.5 228,-272.072 375.694,-290.357 522,-235 628.228,-194.807 668.043,-237.209 775,-199 791.15,-193.231 791.712,-184.367 808,-179 884.143,-153.909 1112.34,-141.397 1228.07,-136.524"/>
<polygon fill="midnightblue" stroke="midnightblue" points="1228.39,-140.014 1238.23,-136.103 1228.1,-133.02 1228.39,-140.014"/>
</g>
<!-- Node11 -->
<g id="node11" class="node"><title>Node11</title>
<polygon fill="white" stroke="#bfbfbf" points="1713,-62 1713,-81 1781,-81 1781,-62 1713,-62"/>
<text text-anchor="middle" x="1747" y="-69" font-family="Helvetica,sans-Serif" font-size="10.00">type_traits</text>
</g>
<!-- Node5&#45;&gt;Node11 -->
<g id="edge119" class="edge"><title>Node5&#45;&gt;Node11</title>
<path fill="none" stroke="midnightblue" d="M1855.77,-705.451C1864.31,-692.892 1880.93,-668.801 1896,-649 1965.46,-557.748 2015.56,-553.048 2054,-445 2093.69,-333.414 2125.21,-283.779 2070,-179 2050.94,-142.824 2034.22,-139.929 1997,-123 1929.31,-92.2155 1842.85,-80.0884 1791.37,-75.3878"/>
<polygon fill="midnightblue" stroke="midnightblue" points="1791.51,-71.8869 1781.25,-74.5183 1790.91,-78.8613 1791.51,-71.8869"/>
</g>
<!-- Node12 -->
<g id="node12" class="node"><title>Node12</title>
<polygon fill="white" stroke="#bfbfbf" points="225,-62 225,-81 269,-81 269,-62 225,-62"/>
<text text-anchor="middle" x="247" y="-69" font-family="Helvetica,sans-Serif" font-size="10.00">string</text>
</g>
<!-- Node5&#45;&gt;Node12 -->
<g id="edge116" class="edge"><title>Node5&#45;&gt;Node12</title>
<path fill="none" stroke="midnightblue" d="M1811.39,-714.312C1609.83,-715.713 676.919,-719.324 393,-669 310.934,-654.454 38,-631.345 38,-548 38,-548 38,-548 38,-188 38,-108.383 155.62,-83.2204 214.387,-75.6169"/>
<polygon fill="midnightblue" stroke="midnightblue" points="215.119,-79.0543 224.633,-74.3923 214.289,-72.1038 215.119,-79.0543"/>
</g>
<!-- Node14 -->
<g id="node14" class="node"><title>Node14</title>
<g id="a_node14"><a xlink:href="node_8h.html" target="_top" xlink:title="Definitions and helper macros for IR/AST nodes. ">
<polygon fill="white" stroke="black" points="1443,-537.5 1443,-556.5 1541,-556.5 1541,-537.5 1443,-537.5"/>
<text text-anchor="middle" x="1492" y="-544.5" font-family="Helvetica,sans-Serif" font-size="10.00">tvm/node/node.h</text>
</a>
</g>
</g>
<!-- Node5&#45;&gt;Node14 -->
<g id="edge15" class="edge"><title>Node5&#45;&gt;Node14</title>
<path fill="none" stroke="midnightblue" d="M1831.26,-705.309C1772.17,-677.912 1589.6,-593.255 1519.66,-560.823"/>
<polygon fill="midnightblue" stroke="midnightblue" points="1521.1,-557.637 1510.56,-556.605 1518.16,-563.987 1521.1,-557.637"/>
</g>
<!-- Node5&#45;&gt;Node30 -->
<g id="edge118" class="edge"><title>Node5&#45;&gt;Node30</title>
<path fill="none" stroke="midnightblue" d="M1858.71,-705.116C1872.2,-691.701 1899.39,-666.034 1926,-649 2008.41,-596.255 2058.63,-627.952 2126,-557 2209.71,-468.84 2239.41,-317.142 2247.47,-264.575"/>
<polygon fill="midnightblue" stroke="midnightblue" points="2250.94,-265.068 2248.91,-254.669 2244.01,-264.062 2250.94,-265.068"/>
</g>
<!-- Node33 -->
<g id="node33" class="node"><title>Node33</title>
<g id="a_node33"><a xlink:href="node_2container_8h.html" target="_top" xlink:title="Array/Map container in the DSL graph. ">
<polygon fill="white" stroke="black" points="1660.5,-358.5 1660.5,-377.5 1779.5,-377.5 1779.5,-358.5 1660.5,-358.5"/>
<text text-anchor="middle" x="1720" y="-365.5" font-family="Helvetica,sans-Serif" font-size="10.00">tvm/node/container.h</text>
</a>
</g>
</g>
<!-- Node5&#45;&gt;Node33 -->
<g id="edge104" class="edge"><title>Node5&#45;&gt;Node33</title>
<path fill="none" stroke="midnightblue" d="M1847.07,-705.056C1835.04,-668.516 1787.85,-527.15 1741,-414 1737.2,-404.826 1732.57,-394.799 1728.62,-386.542"/>
<polygon fill="midnightblue" stroke="midnightblue" points="1731.77,-384.998 1724.25,-377.527 1725.47,-388.052 1731.77,-384.998"/>
</g>
<!-- Node38 -->
<g id="node38" class="node"><title>Node38</title>
<g id="a_node38"><a xlink:href="span_8h.html" target="_top" xlink:title="Span information for debugging purposes. ">
<polygon fill="white" stroke="black" points="427,-593.5 427,-612.5 507,-612.5 507,-593.5 427,-593.5"/>
<text text-anchor="middle" x="467" y="-600.5" font-family="Helvetica,sans-Serif" font-size="10.00">tvm/ir/span.h</text>
</a>
</g>
</g>
<!-- Node5&#45;&gt;Node38 -->
<g id="edge105" class="edge"><title>Node5&#45;&gt;Node38</title>
<path fill="none" stroke="midnightblue" d="M1811.28,-712.324C1651.67,-705.149 1029.25,-674.542 521,-613 519.726,-612.846 518.437,-612.683 517.136,-612.512"/>
<polygon fill="midnightblue" stroke="midnightblue" points="517.439,-609.02 507.047,-611.083 516.457,-615.951 517.439,-609.02"/>
</g>
<!-- Node39 -->
<g id="node39" class="node"><title>Node39</title>
<g id="a_node39"><a xlink:href="ir_2type_8h.html" target="_top" xlink:title="IR/AST nodes for the unified type system in TVM. ">
<polygon fill="white" stroke="black" points="1453.5,-649.5 1453.5,-668.5 1530.5,-668.5 1530.5,-649.5 1453.5,-649.5"/>
<text text-anchor="middle" x="1492" y="-656.5" font-family="Helvetica,sans-Serif" font-size="10.00">tvm/ir/type.h</text>
</a>
</g>
</g>
<!-- Node5&#45;&gt;Node39 -->
<g id="edge109" class="edge"><title>Node5&#45;&gt;Node39</title>
<path fill="none" stroke="midnightblue" d="M1811.35,-708.17C1745.78,-698.279 1612.87,-678.232 1540.92,-667.379"/>
<polygon fill="midnightblue" stroke="midnightblue" points="1541.17,-663.878 1530.76,-665.847 1540.13,-670.799 1541.17,-663.878"/>
</g>
<!-- Node40 -->
<g id="node40" class="node"><title>Node40</title>
<polygon fill="white" stroke="#bfbfbf" points="1935,-649.5 1935,-668.5 1997,-668.5 1997,-649.5 1935,-649.5"/>
<text text-anchor="middle" x="1966" y="-656.5" font-family="Helvetica,sans-Serif" font-size="10.00">algorithm</text>
</g>
<!-- Node5&#45;&gt;Node40 -->
<g id="edge117" class="edge"><title>Node5&#45;&gt;Node40</title>
<path fill="none" stroke="midnightblue" d="M1868.38,-705.444C1887.22,-696.675 1916.73,-682.935 1938.38,-672.858"/>
<polygon fill="midnightblue" stroke="midnightblue" points="1940.12,-675.91 1947.71,-668.516 1937.16,-669.564 1940.12,-675.91"/>
</g>
<!-- Node6&#45;&gt;Node3 -->
<g id="edge6" class="edge"><title>Node6&#45;&gt;Node3</title>
<path fill="none" stroke="midnightblue" d="M1355.69,-126.85C1485.85,-115.427 1797.07,-88.1146 1921.88,-77.1613"/>
<polygon fill="midnightblue" stroke="midnightblue" points="1922.31,-80.6379 1931.96,-76.277 1921.69,-73.6647 1922.31,-80.6379"/>
</g>
<!-- Node6&#45;&gt;Node4 -->
<g id="edge13" class="edge"><title>Node6&#45;&gt;Node4</title>
<path fill="none" stroke="midnightblue" d="M1355.8,-130.021C1480.02,-125.478 1778.18,-112.665 2027,-87 2050.22,-84.6047 2076.33,-80.7812 2096.04,-77.6618"/>
<polygon fill="midnightblue" stroke="midnightblue" points="2096.68,-81.1042 2105.99,-76.0605 2095.56,-74.1931 2096.68,-81.1042"/>
</g>
<!-- Node7 -->
<g id="node7" class="node"><title>Node7</title>
<g id="a_node7"><a xlink:href="c__runtime__api_8h.html" target="_top" xlink:title="tvm/runtime/c_runtime\l_api.h">
<polygon fill="white" stroke="black" points="703.5,-56.5 703.5,-86.5 830.5,-86.5 830.5,-56.5 703.5,-56.5"/>
<text text-anchor="start" x="711.5" y="-74.5" font-family="Helvetica,sans-Serif" font-size="10.00">tvm/runtime/c_runtime</text>
<text text-anchor="middle" x="767" y="-63.5" font-family="Helvetica,sans-Serif" font-size="10.00">_api.h</text>
</a>
</g>
</g>
<!-- Node6&#45;&gt;Node7 -->
<g id="edge7" class="edge"><title>Node6&#45;&gt;Node7</title>
<path fill="none" stroke="midnightblue" d="M1238.46,-124.924C1232.9,-124.267 1227.34,-123.617 1222,-123 1087.63,-107.481 930.823,-90.2769 840.801,-80.4871"/>
<polygon fill="midnightblue" stroke="midnightblue" points="841.015,-76.9898 830.695,-79.3888 840.258,-83.9489 841.015,-76.9898"/>
</g>
<!-- Node6&#45;&gt;Node11 -->
<g id="edge11" class="edge"><title>Node6&#45;&gt;Node11</title>
<path fill="none" stroke="midnightblue" d="M1355.83,-124.221C1447.22,-112.138 1621.24,-89.1288 1702.77,-78.3477"/>
<polygon fill="midnightblue" stroke="midnightblue" points="1703.26,-81.814 1712.71,-77.0333 1702.34,-74.8744 1703.26,-81.814"/>
</g>
<!-- Node6&#45;&gt;Node12 -->
<g id="edge12" class="edge"><title>Node6&#45;&gt;Node12</title>
<path fill="none" stroke="midnightblue" d="M1238.3,-128.674C1044.27,-117.679 427.516,-82.7292 279.27,-74.3286"/>
<polygon fill="midnightblue" stroke="midnightblue" points="279.216,-70.8201 269.034,-73.7486 278.82,-77.8089 279.216,-70.8201"/>
</g>
<!-- Node13 -->
<g id="node13" class="node"><title>Node13</title>
<polygon fill="white" stroke="#bfbfbf" points="1061,-62 1061,-81 1111,-81 1111,-62 1061,-62"/>
<text text-anchor="middle" x="1086" y="-69" font-family="Helvetica,sans-Serif" font-size="10.00">atomic</text>
</g>
<!-- Node6&#45;&gt;Node13 -->
<g id="edge14" class="edge"><title>Node6&#45;&gt;Node13</title>
<path fill="none" stroke="midnightblue" d="M1266.77,-123.475C1228.22,-112.603 1161.68,-93.8413 1120.98,-82.3638"/>
<polygon fill="midnightblue" stroke="midnightblue" points="1121.8,-78.9575 1111.22,-79.612 1119.9,-85.6948 1121.8,-78.9575"/>
</g>
<!-- Node8 -->
<g id="node8" class="node"><title>Node8</title>
<polygon fill="white" stroke="#bfbfbf" points="632,-0.5 632,-19.5 722,-19.5 722,-0.5 632,-0.5"/>
<text text-anchor="middle" x="677" y="-7.5" font-family="Helvetica,sans-Serif" font-size="10.00">dlpack/dlpack.h</text>
</g>
<!-- Node7&#45;&gt;Node8 -->
<g id="edge8" class="edge"><title>Node7&#45;&gt;Node8</title>
<path fill="none" stroke="midnightblue" d="M745.671,-56.3993C731.515,-47.0402 712.989,-34.7924 698.747,-25.3771"/>
<polygon fill="midnightblue" stroke="midnightblue" points="700.368,-22.2531 690.096,-19.6578 696.507,-28.0923 700.368,-22.2531"/>
</g>
<!-- Node9 -->
<g id="node9" class="node"><title>Node9</title>
<polygon fill="white" stroke="#bfbfbf" points="740.5,-0.5 740.5,-19.5 793.5,-19.5 793.5,-0.5 740.5,-0.5"/>
<text text-anchor="middle" x="767" y="-7.5" font-family="Helvetica,sans-Serif" font-size="10.00">stdint.h</text>
</g>
<!-- Node7&#45;&gt;Node9 -->
<g id="edge9" class="edge"><title>Node7&#45;&gt;Node9</title>
<path fill="none" stroke="midnightblue" d="M767,-56.3993C767,-48.4664 767,-38.458 767,-29.8583"/>
<polygon fill="midnightblue" stroke="midnightblue" points="770.5,-29.6577 767,-19.6578 763.5,-29.6578 770.5,-29.6577"/>
</g>
<!-- Node10 -->
<g id="node10" class="node"><title>Node10</title>
<polygon fill="white" stroke="#bfbfbf" points="811.5,-0.5 811.5,-19.5 866.5,-19.5 866.5,-0.5 811.5,-0.5"/>
<text text-anchor="middle" x="839" y="-7.5" font-family="Helvetica,sans-Serif" font-size="10.00">stddef.h</text>
</g>
<!-- Node7&#45;&gt;Node10 -->
<g id="edge10" class="edge"><title>Node7&#45;&gt;Node10</title>
<path fill="none" stroke="midnightblue" d="M784.063,-56.3993C795.065,-47.3076 809.365,-35.4899 820.618,-26.1909"/>
<polygon fill="midnightblue" stroke="midnightblue" points="823.044,-28.726 828.523,-19.6578 818.585,-23.33 823.044,-28.726"/>
</g>
<!-- Node14&#45;&gt;Node4 -->
<g id="edge102" class="edge"><title>Node14&#45;&gt;Node4</title>
<path fill="none" stroke="midnightblue" d="M1541.31,-544.535C1654.33,-540.733 1929.14,-528.84 2017,-501 2231.37,-433.074 2454,-470.87 2454,-246 2454,-246 2454,-246 2454,-188 2454,-125.706 2240.34,-88.6534 2158.44,-76.7377"/>
<polygon fill="midnightblue" stroke="midnightblue" points="2158.85,-73.2611 2148.46,-75.3157 2157.86,-80.1911 2158.85,-73.2611"/>
</g>
<!-- Node14&#45;&gt;Node6 -->
<g id="edge17" class="edge"><title>Node14&#45;&gt;Node6</title>
<path fill="none" stroke="midnightblue" d="M1475.97,-537.349C1462.87,-529.5 1444.82,-516.759 1434,-501 1349.39,-377.792 1409.92,-309.471 1337,-179 1331.03,-168.324 1322.17,-158.007 1314.29,-149.951"/>
<polygon fill="midnightblue" stroke="midnightblue" points="1316.5,-147.209 1306.9,-142.719 1311.6,-152.213 1316.5,-147.209"/>
</g>
<!-- Node14&#45;&gt;Node7 -->
<g id="edge16" class="edge"><title>Node14&#45;&gt;Node7</title>
<path fill="none" stroke="midnightblue" d="M1442.78,-544.3C1262.98,-537.112 644.797,-503.535 502,-378 435.052,-319.145 421.728,-248.935 477,-179 529.036,-113.159 625.798,-88.0173 693.173,-78.42"/>
<polygon fill="midnightblue" stroke="midnightblue" points="693.861,-81.8593 703.307,-77.0615 692.931,-74.9213 693.861,-81.8593"/>
</g>
<!-- Node14&#45;&gt;Node11 -->
<g id="edge103" class="edge"><title>Node14&#45;&gt;Node11</title>
<path fill="none" stroke="midnightblue" d="M1541.23,-538.354C1656.57,-517.446 1942.9,-447.452 2054,-255 2116.5,-146.734 1890.14,-95.8044 1791.14,-79.0513"/>
<polygon fill="midnightblue" stroke="midnightblue" points="1791.56,-75.5739 1781.13,-77.4001 1790.43,-82.4806 1791.56,-75.5739"/>
</g>
<!-- Node14&#45;&gt;Node12 -->
<g id="edge100" class="edge"><title>Node14&#45;&gt;Node12</title>
<path fill="none" stroke="midnightblue" d="M1442.83,-545.086C1273.38,-541.262 715.418,-522.903 557,-445 402.576,-369.062 347.465,-346.001 258,-199 237.634,-165.536 240.242,-117.577 243.742,-91.3702"/>
<polygon fill="midnightblue" stroke="midnightblue" points="247.233,-91.6965 245.283,-81.2826 240.313,-90.6394 247.233,-91.6965"/>
</g>
<!-- Node15 -->
<g id="node15" class="node"><title>Node15</title>
<g id="a_node15"><a xlink:href="runtime_2memory_8h.html" target="_top" xlink:title="Runtime memory management. ">
<polygon fill="white" stroke="black" points="1553.5,-179.5 1553.5,-198.5 1680.5,-198.5 1680.5,-179.5 1553.5,-179.5"/>
<text text-anchor="middle" x="1617" y="-186.5" font-family="Helvetica,sans-Serif" font-size="10.00">tvm/runtime/memory.h</text>
</a>
</g>
</g>
<!-- Node14&#45;&gt;Node15 -->
<g id="edge18" class="edge"><title>Node14&#45;&gt;Node15</title>
<path fill="none" stroke="midnightblue" d="M1482.17,-537.324C1459.97,-516.622 1409.22,-462.441 1427,-414 1461.77,-319.25 1556.35,-237.116 1597.47,-204.726"/>
<polygon fill="midnightblue" stroke="midnightblue" points="1599.63,-207.476 1605.39,-198.583 1595.34,-201.944 1599.63,-207.476"/>
</g>
<!-- Node17 -->
<g id="node17" class="node"><title>Node17</title>
<g id="a_node17"><a xlink:href="reflection_8h.html" target="_top" xlink:title="Reflection and serialization of compiler IR/AST nodes. ">
<polygon fill="white" stroke="black" points="1171.5,-481.5 1171.5,-500.5 1290.5,-500.5 1290.5,-481.5 1171.5,-481.5"/>
<text text-anchor="middle" x="1231" y="-488.5" font-family="Helvetica,sans-Serif" font-size="10.00">tvm/node/reflection.h</text>
</a>
</g>
</g>
<!-- Node14&#45;&gt;Node17 -->
<g id="edge23" class="edge"><title>Node14&#45;&gt;Node17</title>
<path fill="none" stroke="midnightblue" d="M1450.64,-537.444C1404.92,-527.984 1331.24,-512.738 1281.98,-502.547"/>
<polygon fill="midnightblue" stroke="midnightblue" points="1282.66,-499.115 1272.16,-500.516 1281.25,-505.97 1282.66,-499.115"/>
</g>
<!-- Node14&#45;&gt;Node22 -->
<g id="edge101" class="edge"><title>Node14&#45;&gt;Node22</title>
<path fill="none" stroke="midnightblue" d="M1442.75,-543.356C1312.02,-535.525 959.729,-508.879 865,-445 804.986,-404.531 793.421,-360.96 812,-291 819.358,-263.295 821.981,-253.354 844,-235 858.635,-222.801 905.884,-208.051 938.686,-198.845"/>
<polygon fill="midnightblue" stroke="midnightblue" points="939.643,-202.211 948.35,-196.174 937.779,-195.464 939.643,-202.211"/>
</g>
<!-- Node31 -->
<g id="node31" class="node"><title>Node31</title>
<g id="a_node31"><a xlink:href="structural__equal_8h.html" target="_top" xlink:title="Structural equality comparison. ">
<polygon fill="white" stroke="black" points="1604.5,-414.5 1604.5,-444.5 1715.5,-444.5 1715.5,-414.5 1604.5,-414.5"/>
<text text-anchor="start" x="1612.5" y="-432.5" font-family="Helvetica,sans-Serif" font-size="10.00">tvm/node/structural</text>
<text text-anchor="middle" x="1660" y="-421.5" font-family="Helvetica,sans-Serif" font-size="10.00">_equal.h</text>
</a>
</g>
</g>
<!-- Node14&#45;&gt;Node31 -->
<g id="edge98" class="edge"><title>Node14&#45;&gt;Node31</title>
<path fill="none" stroke="midnightblue" d="M1517.06,-537.359C1537.68,-529.597 1567.13,-516.974 1590,-501 1609.69,-487.25 1628.66,-467.605 1641.88,-452.543"/>
<polygon fill="midnightblue" stroke="midnightblue" points="1644.74,-454.582 1648.6,-444.714 1639.43,-450.024 1644.74,-454.582"/>
</g>
<!-- Node14&#45;&gt;Node33 -->
<g id="edge97" class="edge"><title>Node14&#45;&gt;Node33</title>
<path fill="none" stroke="midnightblue" d="M1496.52,-537.223C1509,-513.817 1546.27,-449.297 1595,-414 1617,-398.065 1645.21,-387.268 1669.27,-380.254"/>
<polygon fill="midnightblue" stroke="midnightblue" points="1670.25,-383.614 1678.95,-377.566 1668.37,-376.869 1670.25,-383.614"/>
</g>
<!-- Node35 -->
<g id="node35" class="node"><title>Node35</title>
<g id="a_node35"><a xlink:href="structural__hash_8h.html" target="_top" xlink:title="tvm/node/structural\l_hash.h">
<polygon fill="white" stroke="black" points="1436.5,-414.5 1436.5,-444.5 1547.5,-444.5 1547.5,-414.5 1436.5,-414.5"/>
<text text-anchor="start" x="1444.5" y="-432.5" font-family="Helvetica,sans-Serif" font-size="10.00">tvm/node/structural</text>
<text text-anchor="middle" x="1492" y="-421.5" font-family="Helvetica,sans-Serif" font-size="10.00">_hash.h</text>
</a>
</g>
</g>
<!-- Node14&#45;&gt;Node35 -->
<g id="edge99" class="edge"><title>Node14&#45;&gt;Node35</title>
<path fill="none" stroke="midnightblue" d="M1492,-537.319C1492,-519.967 1492,-480.457 1492,-454.658"/>
<polygon fill="midnightblue" stroke="midnightblue" points="1495.5,-454.545 1492,-444.545 1488.5,-454.545 1495.5,-454.545"/>
</g>
<!-- Node36 -->
<g id="node36" class="node"><title>Node36</title>
<g id="a_node36"><a xlink:href="repr__printer_8h.html" target="_top" xlink:title="Printer class to print repr string of each AST/IR nodes. ">
<polygon fill="white" stroke="black" points="1878,-481.5 1878,-500.5 2008,-500.5 2008,-481.5 1878,-481.5"/>
<text text-anchor="middle" x="1943" y="-488.5" font-family="Helvetica,sans-Serif" font-size="10.00">tvm/node/repr_printer.h</text>
</a>
</g>
</g>
<!-- Node14&#45;&gt;Node36 -->
<g id="edge94" class="edge"><title>Node14&#45;&gt;Node36</title>
<path fill="none" stroke="midnightblue" d="M1541.12,-540.118C1619.9,-530.686 1775.03,-512.111 1867.82,-501.002"/>
<polygon fill="midnightblue" stroke="midnightblue" points="1868.47,-504.449 1877.98,-499.785 1867.64,-497.499 1868.47,-504.449"/>
</g>
<!-- Node15&#45;&gt;Node4 -->
<g id="edge21" class="edge"><title>Node15&#45;&gt;Node4</title>
<path fill="none" stroke="midnightblue" d="M1661.35,-179.426C1705.85,-170.704 1776.32,-156.577 1837,-143 1931.81,-121.788 2043.3,-93.8289 2096.19,-80.3854"/>
<polygon fill="midnightblue" stroke="midnightblue" points="2097.13,-83.7564 2105.96,-77.8965 2095.4,-76.9729 2097.13,-83.7564"/>
</g>
<!-- Node15&#45;&gt;Node6 -->
<g id="edge19" class="edge"><title>Node15&#45;&gt;Node6</title>
<path fill="none" stroke="midnightblue" d="M1566.3,-179.444C1509.65,-169.885 1418,-154.419 1357.62,-144.23"/>
<polygon fill="midnightblue" stroke="midnightblue" points="1357.91,-140.729 1347.47,-142.516 1356.75,-147.632 1357.91,-140.729"/>
</g>
<!-- Node15&#45;&gt;Node11 -->
<g id="edge22" class="edge"><title>Node15&#45;&gt;Node11</title>
<path fill="none" stroke="midnightblue" d="M1626.77,-179.319C1648.6,-159.921 1701.61,-112.831 1729.37,-88.1625"/>
<polygon fill="midnightblue" stroke="midnightblue" points="1731.96,-90.5404 1737.12,-81.282 1727.32,-85.3074 1731.96,-90.5404"/>
</g>
<!-- Node16 -->
<g id="node16" class="node"><title>Node16</title>
<polygon fill="white" stroke="#bfbfbf" points="1557.5,-123.5 1557.5,-142.5 1604.5,-142.5 1604.5,-123.5 1557.5,-123.5"/>
<text text-anchor="middle" x="1581" y="-130.5" font-family="Helvetica,sans-Serif" font-size="10.00">cstdlib</text>
</g>
<!-- Node15&#45;&gt;Node16 -->
<g id="edge20" class="edge"><title>Node15&#45;&gt;Node16</title>
<path fill="none" stroke="midnightblue" d="M1611.06,-179.083C1606.02,-171.534 1598.66,-160.495 1592.49,-151.23"/>
<polygon fill="midnightblue" stroke="midnightblue" points="1595.29,-149.13 1586.83,-142.751 1589.47,-153.013 1595.29,-149.13"/>
</g>
<!-- Node17&#45;&gt;Node6 -->
<g id="edge25" class="edge"><title>Node17&#45;&gt;Node6</title>
<path fill="none" stroke="midnightblue" d="M1229.08,-481.367C1224.59,-458.855 1215.67,-397.377 1242,-358 1261.45,-328.92 1292.82,-351.256 1312,-322 1346.9,-268.768 1334.9,-240.887 1320,-179 1317.69,-169.418 1312.98,-159.581 1308.42,-151.558"/>
<polygon fill="midnightblue" stroke="midnightblue" points="1311.29,-149.537 1303.1,-142.809 1305.31,-153.173 1311.29,-149.537"/>
</g>
<!-- Node17&#45;&gt;Node7 -->
<g id="edge24" class="edge"><title>Node17&#45;&gt;Node7</title>
<path fill="none" stroke="midnightblue" d="M1171.13,-488.483C1061.52,-485.018 833.167,-474.412 760,-445 702.166,-421.752 700.658,-394.318 650,-358 581.571,-308.941 531.218,-328.972 491,-255 458.835,-195.839 475.491,-192.05 581,-123 614.397,-101.143 657.055,-88.6906 693.092,-81.6239"/>
<polygon fill="midnightblue" stroke="midnightblue" points="693.875,-85.0384 703.067,-79.7702 692.596,-78.1562 693.875,-85.0384"/>
</g>
<!-- Node17&#45;&gt;Node11 -->
<g id="edge93" class="edge"><title>Node17&#45;&gt;Node11</title>
<path fill="none" stroke="midnightblue" d="M1239.99,-481.219C1259.25,-462.453 1303.35,-419.68 1311,-414 1349.8,-385.204 1656.36,-234.624 1689,-199 1718.28,-167.049 1735,-117.767 1742.39,-91.1275"/>
<polygon fill="midnightblue" stroke="midnightblue" points="1745.84,-91.7747 1745,-81.2135 1739.07,-89.9961 1745.84,-91.7747"/>
</g>
<!-- Node17&#45;&gt;Node12 -->
<g id="edge92" class="edge"><title>Node17&#45;&gt;Node12</title>
<path fill="none" stroke="midnightblue" d="M1171.47,-487.551C1053.32,-482.255 793.159,-468.296 707,-445 659.405,-432.131 342.614,-288.019 306,-255 258.026,-211.737 248.88,-129.235 247.264,-91.8136"/>
<polygon fill="midnightblue" stroke="midnightblue" points="250.749,-91.2501 246.964,-81.3546 243.752,-91.4508 250.749,-91.2501"/>
</g>
<!-- Node17&#45;&gt;Node15 -->
<g id="edge26" class="edge"><title>Node17&#45;&gt;Node15</title>
<path fill="none" stroke="midnightblue" d="M1234.94,-481.285C1245.55,-458.575 1276.75,-396.662 1318,-358 1400.55,-280.637 1525.28,-225.565 1584.09,-202.313"/>
<polygon fill="midnightblue" stroke="midnightblue" points="1585.57,-205.493 1593.62,-198.599 1583.03,-198.971 1585.57,-205.493"/>
</g>
<!-- Node18 -->
<g id="node18" class="node"><title>Node18</title>
<g id="a_node18"><a xlink:href="packed__func_8h.html" target="_top" xlink:title="Type&#45;erased function used across TVM API. ">
<polygon fill="white" stroke="black" points="1190.5,-291.5 1190.5,-321.5 1303.5,-321.5 1303.5,-291.5 1190.5,-291.5"/>
<text text-anchor="start" x="1198.5" y="-309.5" font-family="Helvetica,sans-Serif" font-size="10.00">tvm/runtime/packed</text>
<text text-anchor="middle" x="1247" y="-298.5" font-family="Helvetica,sans-Serif" font-size="10.00">_func.h</text>
</a>
</g>
</g>
<!-- Node17&#45;&gt;Node18 -->
<g id="edge27" class="edge"><title>Node17&#45;&gt;Node18</title>
<path fill="none" stroke="midnightblue" d="M1223.85,-481.364C1217.23,-472.763 1207.84,-458.873 1204,-445 1193.68,-407.736 1190.64,-394.287 1204,-358 1207.98,-347.19 1215.41,-337.118 1223,-328.857"/>
<polygon fill="midnightblue" stroke="midnightblue" points="1225.69,-331.111 1230.2,-321.527 1220.7,-326.204 1225.69,-331.111"/>
</g>
<!-- Node17&#45;&gt;Node22 -->
<g id="edge91" class="edge"><title>Node17&#45;&gt;Node22</title>
<path fill="none" stroke="midnightblue" d="M1171.24,-484.672C1058.58,-472.967 826,-440.182 826,-369 826,-369 826,-369 826,-305.5 826,-248.38 895.584,-215.08 938.676,-199.934"/>
<polygon fill="midnightblue" stroke="midnightblue" points="939.856,-203.229 948.218,-196.722 937.624,-196.595 939.856,-203.229"/>
</g>
<!-- Node24 -->
<g id="node24" class="node"><title>Node24</title>
<g id="a_node24"><a xlink:href="ndarray_8h.html" target="_top" xlink:title="A device&#45;independent managed NDArray abstraction. ">
<polygon fill="white" stroke="black" points="560.5,-235.5 560.5,-254.5 683.5,-254.5 683.5,-235.5 560.5,-235.5"/>
<text text-anchor="middle" x="622" y="-242.5" font-family="Helvetica,sans-Serif" font-size="10.00">tvm/runtime/ndarray.h</text>
</a>
</g>
</g>
<!-- Node17&#45;&gt;Node24 -->
<g id="edge64" class="edge"><title>Node17&#45;&gt;Node24</title>
<path fill="none" stroke="midnightblue" d="M1171.47,-488.608C1071.27,-485.442 873.773,-475.433 812,-445 725.704,-402.485 657.596,-303.703 632.467,-263.497"/>
<polygon fill="midnightblue" stroke="midnightblue" points="635.352,-261.506 627.142,-254.81 629.385,-265.165 635.352,-261.506"/>
</g>
<!-- Node27 -->
<g id="node27" class="node"><title>Node27</title>
<g id="a_node27"><a xlink:href="data__type_8h.html" target="_top" xlink:title="tvm/runtime/data_type.h">
<polygon fill="white" stroke="black" points="1746,-235.5 1746,-254.5 1882,-254.5 1882,-235.5 1746,-235.5"/>
<text text-anchor="middle" x="1814" y="-242.5" font-family="Helvetica,sans-Serif" font-size="10.00">tvm/runtime/data_type.h</text>
</a>
</g>
</g>
<!-- Node17&#45;&gt;Node27 -->
<g id="edge65" class="edge"><title>Node17&#45;&gt;Node27</title>
<path fill="none" stroke="midnightblue" d="M1245.99,-481.438C1306.46,-447.012 1532.87,-319.183 1610,-291 1654.12,-274.879 1705.82,-263.551 1746.13,-256.293"/>
<polygon fill="midnightblue" stroke="midnightblue" points="1746.88,-259.715 1756.12,-254.535 1745.67,-252.821 1746.88,-259.715"/>
</g>
<!-- Node17&#45;&gt;Node31 -->
<g id="edge66" class="edge"><title>Node17&#45;&gt;Node31</title>
<path fill="none" stroke="midnightblue" d="M1290.6,-481.764C1355.79,-472.754 1463.33,-457.876 1556,-445 1568.4,-443.278 1581.62,-441.436 1594.34,-439.664"/>
<polygon fill="midnightblue" stroke="midnightblue" points="1594.99,-443.108 1604.41,-438.261 1594.02,-436.175 1594.99,-443.108"/>
</g>
<!-- Node17&#45;&gt;Node35 -->
<g id="edge85" class="edge"><title>Node17&#45;&gt;Node35</title>
<path fill="none" stroke="midnightblue" d="M1268.39,-481.475C1309.54,-472.096 1376.44,-456.843 1426.37,-445.462"/>
<polygon fill="midnightblue" stroke="midnightblue" points="1427.46,-448.804 1436.43,-443.168 1425.9,-441.979 1427.46,-448.804"/>
</g>
<!-- Node18&#45;&gt;Node3 -->
<g id="edge28" class="edge"><title>Node18&#45;&gt;Node3</title>
<path fill="none" stroke="midnightblue" d="M1276.14,-291.446C1295.85,-281.706 1322.33,-268.17 1345,-255 1368.27,-241.487 1522.7,-132.153 1548,-123 1582.43,-110.542 1814.93,-87.514 1921.65,-77.4378"/>
<polygon fill="midnightblue" stroke="midnightblue" points="1922.25,-80.8967 1931.88,-76.4751 1921.6,-73.9275 1922.25,-80.8967"/>
</g>
<!-- Node18&#45;&gt;Node4 -->
<g id="edge62" class="edge"><title>Node18&#45;&gt;Node4</title>
<path fill="none" stroke="midnightblue" d="M1303.67,-292.496C1387.91,-273.016 1551.08,-234.723 1689,-199 1779.19,-175.641 1801.47,-168.779 1891,-143 1964.77,-121.759 2051.13,-95.6408 2096.14,-81.9304"/>
<polygon fill="midnightblue" stroke="midnightblue" points="2097.34,-85.2246 2105.89,-78.9605 2095.3,-78.5288 2097.34,-85.2246"/>
</g>
<!-- Node18&#45;&gt;Node6 -->
<g id="edge55" class="edge"><title>Node18&#45;&gt;Node6</title>
<path fill="none" stroke="midnightblue" d="M1267.24,-291.413C1278.3,-282.427 1290.95,-269.719 1297,-255 1310.93,-221.121 1305.89,-177.253 1301.25,-152.724"/>
<polygon fill="midnightblue" stroke="midnightblue" points="1304.62,-151.721 1299.15,-142.642 1297.76,-153.145 1304.62,-151.721"/>
</g>
<!-- Node18&#45;&gt;Node7 -->
<g id="edge29" class="edge"><title>Node18&#45;&gt;Node7</title>
<path fill="none" stroke="midnightblue" d="M1190.33,-295.965C1156.28,-288.469 1113.09,-275.731 1079,-255 1009.18,-212.538 1021.33,-164.616 951,-123 917.528,-103.193 876.056,-90.9324 840.962,-83.4618"/>
<polygon fill="midnightblue" stroke="midnightblue" points="841.266,-79.9522 830.769,-81.3869 839.87,-86.8115 841.266,-79.9522"/>
</g>
<!-- Node18&#45;&gt;Node11 -->
<g id="edge63" class="edge"><title>Node18&#45;&gt;Node11</title>
<path fill="none" stroke="midnightblue" d="M1266.5,-291.356C1322.94,-250.526 1484.08,-134.63 1511,-123 1574.43,-95.5965 1654.06,-82.5431 1702.71,-76.723"/>
<polygon fill="midnightblue" stroke="midnightblue" points="1703.36,-80.1713 1712.9,-75.5559 1702.56,-73.2167 1703.36,-80.1713"/>
</g>
<!-- Node18&#45;&gt;Node12 -->
<g id="edge59" class="edge"><title>Node18&#45;&gt;Node12</title>
<path fill="none" stroke="midnightblue" d="M1190.42,-304.338C1034.24,-300.722 605.052,-287.874 551,-255 492.191,-219.233 525.958,-163.081 470,-123 412.067,-81.5052 325.727,-73.3732 279.308,-72.218"/>
<polygon fill="midnightblue" stroke="midnightblue" points="279.272,-68.7171 269.219,-72.0625 279.164,-75.7163 279.272,-68.7171"/>
</g>
<!-- Node19 -->
<g id="node19" class="node"><title>Node19</title>
<g id="a_node19"><a xlink:href="runtime_2module_8h.html" target="_top" xlink:title="Runtime container of the functions generated by TVM, This is used to support dynamically link...">
<polygon fill="white" stroke="black" points="1088,-235.5 1088,-254.5 1212,-254.5 1212,-235.5 1088,-235.5"/>
<text text-anchor="middle" x="1150" y="-242.5" font-family="Helvetica,sans-Serif" font-size="10.00">tvm/runtime/module.h</text>
</a>
</g>
</g>
<!-- Node18&#45;&gt;Node19 -->
<g id="edge30" class="edge"><title>Node18&#45;&gt;Node19</title>
<path fill="none" stroke="midnightblue" d="M1218.17,-291.399C1201.71,-282.04 1181.73,-269.792 1167.56,-260.377"/>
<polygon fill="midnightblue" stroke="midnightblue" points="1169.42,-257.405 1159.18,-254.658 1165.47,-263.186 1169.42,-257.405"/>
</g>
<!-- Node18&#45;&gt;Node21 -->
<g id="edge61" class="edge"><title>Node18&#45;&gt;Node21</title>
<path fill="none" stroke="midnightblue" d="M1261.95,-291.458C1275.89,-276.63 1292.76,-252.959 1280,-235 1259.73,-206.458 1219.95,-195.869 1189.9,-192.019"/>
<polygon fill="midnightblue" stroke="midnightblue" points="1190.04,-188.514 1179.72,-190.92 1189.29,-195.474 1190.04,-188.514"/>
</g>
<!-- Node18&#45;&gt;Node22 -->
<g id="edge58" class="edge"><title>Node18&#45;&gt;Node22</title>
<path fill="none" stroke="midnightblue" d="M1190.27,-298.576C1148.53,-291.78 1091.4,-278.833 1046,-255 1022.24,-242.526 999.801,-220.918 985.993,-206.063"/>
<polygon fill="midnightblue" stroke="midnightblue" points="988.557,-203.68 979.256,-198.606 983.363,-208.373 988.557,-203.68"/>
</g>
<!-- Node18&#45;&gt;Node24 -->
<g id="edge40" class="edge"><title>Node18&#45;&gt;Node24</title>
<path fill="none" stroke="midnightblue" d="M1190.43,-300.115C1076.59,-289.277 819.999,-264.85 694.238,-252.877"/>
<polygon fill="midnightblue" stroke="midnightblue" points="694.235,-249.361 683.948,-251.897 693.572,-256.33 694.235,-249.361"/>
</g>
<!-- Node18&#45;&gt;Node27 -->
<g id="edge51" class="edge"><title>Node18&#45;&gt;Node27</title>
<path fill="none" stroke="midnightblue" d="M1303.7,-299.55C1405.52,-288.865 1619.51,-266.409 1735.41,-254.247"/>
<polygon fill="midnightblue" stroke="midnightblue" points="1736.05,-257.699 1745.63,-253.175 1735.32,-250.738 1736.05,-257.699"/>
</g>
<!-- Node28 -->
<g id="node28" class="node"><title>Node28</title>
<polygon fill="white" stroke="#bfbfbf" points="892.5,-235.5 892.5,-254.5 955.5,-254.5 955.5,-235.5 892.5,-235.5"/>
<text text-anchor="middle" x="924" y="-242.5" font-family="Helvetica,sans-Serif" font-size="10.00">functional</text>
</g>
<!-- Node18&#45;&gt;Node28 -->
<g id="edge56" class="edge"><title>Node18&#45;&gt;Node28</title>
<path fill="none" stroke="midnightblue" d="M1190.37,-295.068C1126.15,-283.239 1022.97,-264.232 965.704,-253.682"/>
<polygon fill="midnightblue" stroke="midnightblue" points="966.033,-250.184 955.564,-251.814 964.764,-257.068 966.033,-250.184"/>
</g>
<!-- Node29 -->
<g id="node29" class="node"><title>Node29</title>
<polygon fill="white" stroke="#bfbfbf" points="1230.5,-235.5 1230.5,-254.5 1271.5,-254.5 1271.5,-235.5 1230.5,-235.5"/>
<text text-anchor="middle" x="1251" y="-242.5" font-family="Helvetica,sans-Serif" font-size="10.00">tuple</text>
</g>
<!-- Node18&#45;&gt;Node29 -->
<g id="edge57" class="edge"><title>Node18&#45;&gt;Node29</title>
<path fill="none" stroke="midnightblue" d="M1247.95,-291.399C1248.48,-283.466 1249.15,-273.458 1249.73,-264.858"/>
<polygon fill="midnightblue" stroke="midnightblue" points="1253.24,-264.87 1250.42,-254.658 1246.26,-264.4 1253.24,-264.87"/>
</g>
<!-- Node18&#45;&gt;Node30 -->
<g id="edge60" class="edge"><title>Node18&#45;&gt;Node30</title>
<path fill="none" stroke="midnightblue" d="M1303.8,-302.131C1489.79,-291.097 2076.76,-256.277 2218.82,-247.85"/>
<polygon fill="midnightblue" stroke="midnightblue" points="2219.22,-251.332 2229,-247.246 2218.81,-244.344 2219.22,-251.332"/>
</g>
<!-- Node19&#45;&gt;Node6 -->
<g id="edge33" class="edge"><title>Node19&#45;&gt;Node6</title>
<path fill="none" stroke="midnightblue" d="M1165.34,-235.35C1180.23,-226.738 1203.27,-212.84 1222,-199 1243.05,-183.449 1265.52,-163.472 1280.32,-149.794"/>
<polygon fill="midnightblue" stroke="midnightblue" points="1282.77,-152.294 1287.69,-142.912 1277.99,-147.176 1282.77,-152.294"/>
</g>
<!-- Node19&#45;&gt;Node7 -->
<g id="edge32" class="edge"><title>Node19&#45;&gt;Node7</title>
<path fill="none" stroke="midnightblue" d="M1161.38,-235.473C1176.68,-222.943 1200.57,-198.887 1188,-179 1156.98,-129.935 1125.39,-140.384 1070,-123 993.725,-99.0601 902.883,-85.8412 840.688,-78.9962"/>
<polygon fill="midnightblue" stroke="midnightblue" points="840.891,-75.498 830.575,-77.9116 840.144,-82.4581 840.891,-75.498"/>
</g>
<!-- Node19&#45;&gt;Node12 -->
<g id="edge37" class="edge"><title>Node19&#45;&gt;Node12</title>
<path fill="none" stroke="midnightblue" d="M1087.72,-240.319C958.488,-232.439 669.666,-213.476 627,-199 567.572,-178.837 566.284,-146.262 508,-123 429.528,-91.6809 329.818,-79.3302 279.374,-74.835"/>
<polygon fill="midnightblue" stroke="midnightblue" points="279.352,-71.3208 269.093,-73.9679 278.764,-78.296 279.352,-71.3208"/>
</g>
<!-- Node19&#45;&gt;Node15 -->
<g id="edge34" class="edge"><title>Node19&#45;&gt;Node15</title>
<path fill="none" stroke="midnightblue" d="M1212.33,-236.052C1215.26,-235.693 1218.16,-235.341 1221,-235 1333.1,-221.527 1463.18,-206.947 1542.78,-198.145"/>
<polygon fill="midnightblue" stroke="midnightblue" points="1543.63,-201.572 1553.19,-196.995 1542.86,-194.614 1543.63,-201.572"/>
</g>
<!-- Node19&#45;&gt;Node18 -->
<g id="edge39" class="edge"><title>Node19&#45;&gt;Node18</title>
<path fill="none" stroke="midnightblue" d="M1169.04,-254.658C1184.04,-262.783 1204.82,-275.231 1221.24,-285.776"/>
<polygon fill="midnightblue" stroke="midnightblue" points="1219.57,-288.862 1229.85,-291.399 1223.39,-283.001 1219.57,-288.862"/>
</g>
<!-- Node20 -->
<g id="node20" class="node"><title>Node20</title>
<polygon fill="white" stroke="#bfbfbf" points="882,-123.5 882,-142.5 942,-142.5 942,-123.5 882,-123.5"/>
<text text-anchor="middle" x="912" y="-130.5" font-family="Helvetica,sans-Serif" font-size="10.00">dmlc/io.h</text>
</g>
<!-- Node19&#45;&gt;Node20 -->
<g id="edge31" class="edge"><title>Node19&#45;&gt;Node20</title>
<path fill="none" stroke="midnightblue" d="M1131.32,-235.368C1089.61,-216.091 988.709,-169.454 939.672,-146.789"/>
<polygon fill="midnightblue" stroke="midnightblue" points="941.134,-143.61 930.589,-142.591 938.198,-149.964 941.134,-143.61"/>
</g>
<!-- Node19&#45;&gt;Node21 -->
<g id="edge35" class="edge"><title>Node19&#45;&gt;Node21</title>
<path fill="none" stroke="midnightblue" d="M1150.17,-235.083C1150.3,-228.006 1150.48,-217.861 1150.65,-208.986"/>
<polygon fill="midnightblue" stroke="midnightblue" points="1154.15,-208.814 1150.84,-198.751 1147.15,-208.685 1154.15,-208.814"/>
</g>
<!-- Node19&#45;&gt;Node22 -->
<g id="edge36" class="edge"><title>Node19&#45;&gt;Node22</title>
<path fill="none" stroke="midnightblue" d="M1121.8,-235.444C1090.17,-225.849 1038.92,-210.302 1005.34,-200.114"/>
<polygon fill="midnightblue" stroke="midnightblue" points="1006.11,-196.691 995.525,-197.137 1004.08,-203.389 1006.11,-196.691"/>
</g>
<!-- Node19&#45;&gt;Node23 -->
<g id="edge38" class="edge"><title>Node19&#45;&gt;Node23</title>
<path fill="none" stroke="midnightblue" d="M1212.31,-235.795C1215.24,-235.505 1218.15,-235.237 1221,-235 1626.97,-201.17 2117.99,-192.572 2282.89,-190.566"/>
<polygon fill="midnightblue" stroke="midnightblue" points="2283.32,-194.061 2293.28,-190.443 2283.23,-187.062 2283.32,-194.061"/>
</g>
<!-- Node24&#45;&gt;Node4 -->
<g id="edge50" class="edge"><title>Node24&#45;&gt;Node4</title>
<path fill="none" stroke="midnightblue" d="M683.655,-240.145C787.755,-233.403 1004.93,-218.326 1188,-199 1377.47,-178.999 1424.15,-168.214 1613,-143 1797.04,-118.428 1843.12,-112.767 2027,-87 2050.12,-83.7602 2076.23,-79.9702 2095.97,-77.0777"/>
<polygon fill="midnightblue" stroke="midnightblue" points="2096.55,-80.5292 2105.94,-75.6135 2095.54,-73.6035 2096.55,-80.5292"/>
</g>
<!-- Node24&#45;&gt;Node6 -->
<g id="edge42" class="edge"><title>Node24&#45;&gt;Node6</title>
<path fill="none" stroke="midnightblue" d="M680.795,-235.435C726.437,-228.011 790.995,-215.806 846,-199 868.103,-192.247 871.625,-184.785 894,-179 1008.88,-149.3 1147.17,-139.202 1228.25,-135.769"/>
<polygon fill="midnightblue" stroke="midnightblue" points="1228.49,-139.262 1238.34,-135.364 1228.2,-132.268 1228.49,-139.262"/>
</g>
<!-- Node24&#45;&gt;Node7 -->
<g id="edge41" class="edge"><title>Node24&#45;&gt;Node7</title>
<path fill="none" stroke="midnightblue" d="M614.588,-235.411C607.724,-226.844 597.994,-212.979 594,-199 584.721,-166.522 573.736,-150.024 594,-123 606.425,-106.43 652.264,-93.4928 693.636,-84.8622"/>
<polygon fill="midnightblue" stroke="midnightblue" points="694.373,-88.284 703.48,-82.8699 692.985,-81.4231 694.373,-88.284"/>
</g>
<!-- Node24&#45;&gt;Node13 -->
<g id="edge48" class="edge"><title>Node24&#45;&gt;Node13</title>
<path fill="none" stroke="midnightblue" d="M619.785,-235.396C614.619,-213.093 604.472,-153.062 636,-123 665.884,-94.5054 949.801,-78.7681 1050.66,-74.0404"/>
<polygon fill="midnightblue" stroke="midnightblue" points="1051.11,-77.5236 1060.94,-73.5674 1050.79,-70.531 1051.11,-77.5236"/>
</g>
<!-- Node24&#45;&gt;Node22 -->
<g id="edge49" class="edge"><title>Node24&#45;&gt;Node22</title>
<path fill="none" stroke="midnightblue" d="M677.459,-235.444C750.739,-224.137 877.588,-204.566 938.051,-195.238"/>
<polygon fill="midnightblue" stroke="midnightblue" points="938.849,-198.656 948.198,-193.672 937.781,-191.738 938.849,-198.656"/>
</g>
<!-- Node25 -->
<g id="node25" class="node"><title>Node25</title>
<g id="a_node25"><a xlink:href="serializer_8h.html" target="_top" xlink:title="Serializer extension to support TVM data types Include this file to enable serialization of DLDataTyp...">
<polygon fill="white" stroke="black" points="636,-179.5 636,-198.5 766,-198.5 766,-179.5 636,-179.5"/>
<text text-anchor="middle" x="701" y="-186.5" font-family="Helvetica,sans-Serif" font-size="10.00">tvm/runtime/serializer.h</text>
</a>
</g>
</g>
<!-- Node24&#45;&gt;Node25 -->
<g id="edge43" class="edge"><title>Node24&#45;&gt;Node25</title>
<path fill="none" stroke="midnightblue" d="M629.578,-235.324C640.078,-226.9 658.695,-213.971 674.401,-204.074"/>
<polygon fill="midnightblue" stroke="midnightblue" points="676.538,-206.869 683.229,-198.655 672.875,-200.904 676.538,-206.869"/>
</g>
<!-- Node25&#45;&gt;Node7 -->
<g id="edge46" class="edge"><title>Node25&#45;&gt;Node7</title>
<path fill="none" stroke="midnightblue" d="M713.213,-179.388C723.921,-171.209 739.127,-157.964 748,-143 756.397,-128.837 761.165,-110.897 763.824,-96.6583"/>
<polygon fill="midnightblue" stroke="midnightblue" points="767.306,-97.0503 765.472,-86.6156 760.399,-95.917 767.306,-97.0503"/>
</g>
<!-- Node25&#45;&gt;Node20 -->
<g id="edge44" class="edge"><title>Node25&#45;&gt;Node20</title>
<path fill="none" stroke="midnightblue" d="M734.434,-179.444C771.741,-169.896 832.08,-154.454 871.897,-144.263"/>
<polygon fill="midnightblue" stroke="midnightblue" points="872.98,-147.599 881.8,-141.729 871.244,-140.818 872.98,-147.599"/>
</g>
<!-- Node25&#45;&gt;Node24 -->
<g id="edge47" class="edge"><title>Node25&#45;&gt;Node24</title>
<path fill="none" stroke="midnightblue" d="M693.225,-198.834C682.687,-207.263 664.196,-220.099 648.585,-229.935"/>
<polygon fill="midnightblue" stroke="midnightblue" points="646.498,-227.109 639.808,-235.324 650.161,-233.074 646.498,-227.109"/>
</g>
<!-- Node26 -->
<g id="node26" class="node"><title>Node26</title>
<polygon fill="white" stroke="#bfbfbf" points="645,-123.5 645,-142.5 739,-142.5 739,-123.5 645,-123.5"/>
<text text-anchor="middle" x="692" y="-130.5" font-family="Helvetica,sans-Serif" font-size="10.00">dmlc/serializer.h</text>
</g>
<!-- Node25&#45;&gt;Node26 -->
<g id="edge45" class="edge"><title>Node25&#45;&gt;Node26</title>
<path fill="none" stroke="midnightblue" d="M699.514,-179.083C698.321,-171.927 696.606,-161.635 695.115,-152.691"/>
<polygon fill="midnightblue" stroke="midnightblue" points="698.555,-152.04 693.459,-142.751 691.65,-153.19 698.555,-152.04"/>
</g>
<!-- Node27&#45;&gt;Node3 -->
<g id="edge53" class="edge"><title>Node27&#45;&gt;Node3</title>
<path fill="none" stroke="midnightblue" d="M1822.21,-235.26C1847.83,-207.96 1926.65,-124 1959.93,-88.5546"/>
<polygon fill="midnightblue" stroke="midnightblue" points="1962.71,-90.7057 1967,-81.0194 1957.61,-85.9146 1962.71,-90.7057"/>
</g>
<!-- Node27&#45;&gt;Node7 -->
<g id="edge52" class="edge"><title>Node27&#45;&gt;Node7</title>
<path fill="none" stroke="midnightblue" d="M1803.98,-235.48C1776.04,-212.29 1693.92,-148.097 1613,-123 1594.67,-117.313 1043.73,-87.3233 840.961,-76.4455"/>
<polygon fill="midnightblue" stroke="midnightblue" points="840.877,-72.9361 830.704,-75.8957 840.503,-79.9261 840.877,-72.9361"/>
</g>
<!-- Node27&#45;&gt;Node11 -->
<g id="edge54" class="edge"><title>Node27&#45;&gt;Node11</title>
<path fill="none" stroke="midnightblue" d="M1813.19,-235.193C1811.73,-222.313 1807.95,-197.826 1799,-179 1790.29,-160.695 1780.62,-160.841 1771,-143 1762,-126.314 1755.44,-105.615 1751.47,-90.9731"/>
<polygon fill="midnightblue" stroke="midnightblue" points="1754.82,-89.9423 1748.95,-81.1241 1748.04,-91.68 1754.82,-89.9423"/>
</g>
<!-- Node31&#45;&gt;Node12 -->
<g id="edge84" class="edge"><title>Node31&#45;&gt;Node12</title>
<path fill="none" stroke="midnightblue" d="M1604.45,-420.445C1588.79,-418.259 1571.74,-415.958 1556,-414 1369.43,-390.795 899.264,-359.314 715,-322 613.154,-301.376 583.814,-301.728 491,-255 396.557,-207.452 300.844,-122.895 263.419,-88.1094"/>
<polygon fill="midnightblue" stroke="midnightblue" points="265.643,-85.3961 255.954,-81.1084 260.854,-90.5021 265.643,-85.3961"/>
</g>
<!-- Node31&#45;&gt;Node27 -->
<g id="edge67" class="edge"><title>Node31&#45;&gt;Node27</title>
<path fill="none" stroke="midnightblue" d="M1715.75,-419.175C1741.35,-412.077 1769.95,-399.655 1788,-378 1815.2,-345.355 1816.87,-292.442 1815.56,-264.557"/>
<polygon fill="midnightblue" stroke="midnightblue" points="1819.05,-264.325 1814.91,-254.574 1812.07,-264.782 1819.05,-264.325"/>
</g>
<!-- Node32 -->
<g id="node32" class="node"><title>Node32</title>
<g id="a_node32"><a xlink:href="functor_8h.html" target="_top" xlink:title="Defines the Functor data structures. ">
<polygon fill="white" stroke="black" points="1938.5,-235.5 1938.5,-254.5 2045.5,-254.5 2045.5,-235.5 1938.5,-235.5"/>
<text text-anchor="middle" x="1992" y="-242.5" font-family="Helvetica,sans-Serif" font-size="10.00">tvm/node/functor.h</text>
</a>
</g>
</g>
<!-- Node31&#45;&gt;Node32 -->
<g id="edge68" class="edge"><title>Node31&#45;&gt;Node32</title>
<path fill="none" stroke="midnightblue" d="M1713.98,-414.441C1742.99,-405.848 1778.89,-393.514 1809,-378 1874.89,-344.047 1943.35,-288.175 1974.59,-261.333"/>
<polygon fill="midnightblue" stroke="midnightblue" points="1977.12,-263.771 1982.38,-254.574 1972.53,-258.484 1977.12,-263.771"/>
</g>
<!-- Node31&#45;&gt;Node33 -->
<g id="edge74" class="edge"><title>Node31&#45;&gt;Node33</title>
<path fill="none" stroke="midnightblue" d="M1674.22,-414.399C1683.21,-405.486 1694.84,-393.952 1704.13,-384.741"/>
<polygon fill="midnightblue" stroke="midnightblue" points="1706.63,-387.184 1711.27,-377.658 1701.7,-382.214 1706.63,-387.184"/>
</g>
<!-- Node32&#45;&gt;Node3 -->
<g id="edge69" class="edge"><title>Node32&#45;&gt;Node3</title>
<path fill="none" stroke="midnightblue" d="M1992.5,-235.43C1993.52,-215.544 1995.21,-164.778 1989,-123 1987.39,-112.146 1984.19,-100.31 1981.25,-90.827"/>
<polygon fill="midnightblue" stroke="midnightblue" points="1984.57,-89.7236 1978.15,-81.2972 1977.92,-91.8894 1984.57,-89.7236"/>
</g>
<!-- Node32&#45;&gt;Node4 -->
<g id="edge73" class="edge"><title>Node32&#45;&gt;Node4</title>
<path fill="none" stroke="midnightblue" d="M1998.88,-235.26C2020.28,-208.076 2085.9,-124.708 2114.01,-89.0059"/>
<polygon fill="midnightblue" stroke="midnightblue" points="2116.86,-91.0419 2120.29,-81.0194 2111.36,-86.7121 2116.86,-91.0419"/>
</g>
<!-- Node32&#45;&gt;Node6 -->
<g id="edge70" class="edge"><title>Node32&#45;&gt;Node6</title>
<path fill="none" stroke="midnightblue" d="M1957.67,-235.497C1901.72,-221.894 1787.22,-195.133 1689,-179 1576.44,-160.51 1444.45,-147.034 1365.93,-139.873"/>
<polygon fill="midnightblue" stroke="midnightblue" points="1365.96,-136.361 1355.69,-138.947 1365.33,-143.333 1365.96,-136.361"/>
</g>
<!-- Node32&#45;&gt;Node11 -->
<g id="edge72" class="edge"><title>Node32&#45;&gt;Node11</title>
<path fill="none" stroke="midnightblue" d="M1979.85,-235.495C1940.58,-208.008 1816.78,-121.349 1767.52,-86.8623"/>
<polygon fill="midnightblue" stroke="midnightblue" points="1769.42,-83.9234 1759.22,-81.056 1765.41,-89.658 1769.42,-83.9234"/>
</g>
<!-- Node32&#45;&gt;Node22 -->
<g id="edge71" class="edge"><title>Node32&#45;&gt;Node22</title>
<path fill="none" stroke="midnightblue" d="M1938.31,-238.787C1923.03,-237.42 1906.37,-236.04 1891,-235 1545.64,-211.633 1458.62,-218.026 1113,-199 1076.51,-196.992 1034.75,-194.273 1006.2,-192.351"/>
<polygon fill="midnightblue" stroke="midnightblue" points="1006.16,-188.84 995.943,-191.656 1005.68,-195.824 1006.16,-188.84"/>
</g>
<!-- Node33&#45;&gt;Node4 -->
<g id="edge82" class="edge"><title>Node33&#45;&gt;Node4</title>
<path fill="none" stroke="midnightblue" d="M1747.93,-358.461C1775.93,-349.767 1820.2,-335.66 1858,-322 1893.08,-309.322 1900.8,-303.342 1936,-291 1987.74,-272.859 2003.23,-275.706 2054,-255 2154.13,-214.164 2213.83,-235.403 2270,-143 2296.91,-98.7269 2208.02,-81.5058 2158.28,-75.4466"/>
<polygon fill="midnightblue" stroke="midnightblue" points="2158.64,-71.9659 2148.31,-74.3173 2157.86,-78.9213 2158.64,-71.9659"/>
</g>
<!-- Node33&#45;&gt;Node6 -->
<g id="edge75" class="edge"><title>Node33&#45;&gt;Node6</title>
<path fill="none" stroke="midnightblue" d="M1708.76,-358.473C1670.69,-329.898 1542.42,-236.115 1425,-179 1396.67,-165.219 1363,-153.555 1337.31,-145.558"/>
<polygon fill="midnightblue" stroke="midnightblue" points="1338.12,-142.144 1327.53,-142.57 1336.07,-148.839 1338.12,-142.144"/>
</g>
<!-- Node33&#45;&gt;Node11 -->
<g id="edge78" class="edge"><title>Node33&#45;&gt;Node11</title>
<path fill="none" stroke="midnightblue" d="M1747.24,-358.462C1787.22,-344.279 1860.38,-311.666 1891,-255 1895.23,-247.18 1894.15,-243.311 1891,-235 1877.76,-200.087 1798.77,-121.889 1763.73,-88.3113"/>
<polygon fill="midnightblue" stroke="midnightblue" points="1765.85,-85.5063 1756.2,-81.1414 1761.03,-90.5739 1765.85,-85.5063"/>
</g>
<!-- Node33&#45;&gt;Node12 -->
<g id="edge83" class="edge"><title>Node33&#45;&gt;Node12</title>
<path fill="none" stroke="midnightblue" d="M1660.31,-363.892C1432.8,-351.707 627.646,-305.386 525,-255 450.804,-218.579 464.026,-166.908 394,-123 357.746,-100.268 310.003,-86.3213 278.914,-78.9982"/>
<polygon fill="midnightblue" stroke="midnightblue" points="279.576,-75.5596 269.05,-76.7655 278.031,-82.3869 279.576,-75.5596"/>
</g>
<!-- Node33&#45;&gt;Node15 -->
<g id="edge76" class="edge"><title>Node33&#45;&gt;Node15</title>
<path fill="none" stroke="midnightblue" d="M1712.85,-358.364C1706.23,-349.763 1696.84,-335.873 1693,-322 1682.68,-284.734 1713.25,-268.539 1694,-235 1685.38,-219.986 1669.61,-209.504 1654.57,-202.458"/>
<polygon fill="midnightblue" stroke="midnightblue" points="1655.94,-199.238 1645.37,-198.505 1653.18,-205.669 1655.94,-199.238"/>
</g>
<!-- Node33&#45;&gt;Node18 -->
<g id="edge77" class="edge"><title>Node33&#45;&gt;Node18</title>
<path fill="none" stroke="midnightblue" d="M1660.09,-359.464C1571.56,-348.327 1406.31,-327.54 1313.92,-315.918"/>
<polygon fill="midnightblue" stroke="midnightblue" points="1314.2,-312.426 1303.84,-314.65 1313.32,-319.371 1314.2,-312.426"/>
</g>
<!-- Node33&#45;&gt;Node22 -->
<g id="edge79" class="edge"><title>Node33&#45;&gt;Node22</title>
<path fill="none" stroke="midnightblue" d="M1660.48,-367.77C1560.16,-367.799 1351.65,-362.391 1181,-322 1103.18,-303.58 1075.71,-305.865 1014,-255 998.649,-242.348 987.006,-222.588 979.916,-208.174"/>
<polygon fill="midnightblue" stroke="midnightblue" points="982.953,-206.402 975.571,-198.801 976.602,-209.346 982.953,-206.402"/>
</g>
<!-- Node33&#45;&gt;Node23 -->
<g id="edge81" class="edge"><title>Node33&#45;&gt;Node23</title>
<path fill="none" stroke="midnightblue" d="M1768.4,-358.5C1812.41,-350.396 1879,-337.199 1936,-322 2075.7,-284.748 2238.22,-227.191 2306.79,-202.236"/>
<polygon fill="midnightblue" stroke="midnightblue" points="2308.4,-205.375 2316.59,-198.657 2306,-198.799 2308.4,-205.375"/>
</g>
<!-- Node34 -->
<g id="node34" class="node"><title>Node34</title>
<polygon fill="white" stroke="#bfbfbf" points="1702.5,-297 1702.5,-316 1779.5,-316 1779.5,-297 1702.5,-297"/>
<text text-anchor="middle" x="1741" y="-304" font-family="Helvetica,sans-Serif" font-size="10.00">initializer_list</text>
</g>
<!-- Node33&#45;&gt;Node34 -->
<g id="edge80" class="edge"><title>Node33&#45;&gt;Node34</title>
<path fill="none" stroke="midnightblue" d="M1723.01,-358.475C1726.03,-349.904 1730.79,-336.427 1734.65,-325.483"/>
<polygon fill="midnightblue" stroke="midnightblue" points="1737.97,-326.604 1738,-316.009 1731.37,-324.274 1737.97,-326.604"/>
</g>
<!-- Node35&#45;&gt;Node12 -->
<g id="edge89" class="edge"><title>Node35&#45;&gt;Node12</title>
<path fill="none" stroke="midnightblue" d="M1436.45,-423.949C1298.08,-412.128 927.239,-377.453 622,-322 564.409,-311.537 551.05,-304.093 494,-291 420.42,-274.114 386.543,-302.664 328,-255 275.379,-212.158 255.872,-128.129 249.604,-90.9489"/>
<polygon fill="midnightblue" stroke="midnightblue" points="253.054,-90.3568 248.062,-81.0119 246.137,-91.4303 253.054,-90.3568"/>
</g>
<!-- Node35&#45;&gt;Node27 -->
<g id="edge86" class="edge"><title>Node35&#45;&gt;Node27</title>
<path fill="none" stroke="midnightblue" d="M1505.41,-414.211C1532.19,-386.478 1595.32,-325.095 1660,-291 1690.44,-274.955 1727.36,-263.917 1757.42,-256.789"/>
<polygon fill="midnightblue" stroke="midnightblue" points="1758.37,-260.163 1767.34,-254.52 1756.81,-253.34 1758.37,-260.163"/>
</g>
<!-- Node35&#45;&gt;Node28 -->
<g id="edge90" class="edge"><title>Node35&#45;&gt;Node28</title>
<path fill="none" stroke="midnightblue" d="M1436.18,-419.773C1352.24,-405.547 1189.46,-373.648 1059,-322 1016.46,-305.159 970.845,-277.142 945.026,-260.237"/>
<polygon fill="midnightblue" stroke="midnightblue" points="946.721,-257.161 936.452,-254.554 942.853,-262.996 946.721,-257.161"/>
</g>
<!-- Node35&#45;&gt;Node32 -->
<g id="edge87" class="edge"><title>Node35&#45;&gt;Node32</title>
<path fill="none" stroke="midnightblue" d="M1513.32,-414.391C1528.57,-404.286 1549.57,-390.339 1568,-378 1604.98,-353.241 1614.65,-347.663 1651,-322 1669.95,-308.62 1671.56,-299.877 1693,-291 1734.34,-273.88 1853.22,-259.605 1928.03,-251.979"/>
<polygon fill="midnightblue" stroke="midnightblue" points="1928.69,-255.431 1938.28,-250.947 1927.98,-248.466 1928.69,-255.431"/>
</g>
<!-- Node35&#45;&gt;Node33 -->
<g id="edge88" class="edge"><title>Node35&#45;&gt;Node33</title>
<path fill="none" stroke="midnightblue" d="M1545.74,-414.475C1585.94,-403.986 1640.15,-389.837 1677.38,-380.122"/>
<polygon fill="midnightblue" stroke="midnightblue" points="1678.61,-383.418 1687.4,-377.506 1676.84,-376.645 1678.61,-383.418"/>
</g>
<!-- Node36&#45;&gt;Node32 -->
<g id="edge95" class="edge"><title>Node36&#45;&gt;Node32</title>
<path fill="none" stroke="midnightblue" d="M1944.74,-481.316C1951.81,-446.11 1978.43,-313.561 1988.29,-264.452"/>
<polygon fill="midnightblue" stroke="midnightblue" points="1991.74,-265.073 1990.28,-254.58 1984.88,-263.695 1991.74,-265.073"/>
</g>
<!-- Node37 -->
<g id="node37" class="node"><title>Node37</title>
<polygon fill="white" stroke="#bfbfbf" points="1986.5,-420 1986.5,-439 2045.5,-439 2045.5,-420 1986.5,-420"/>
<text text-anchor="middle" x="2016" y="-427" font-family="Helvetica,sans-Serif" font-size="10.00">iostream</text>
</g>
<!-- Node36&#45;&gt;Node37 -->
<g id="edge96" class="edge"><title>Node36&#45;&gt;Node37</title>
<path fill="none" stroke="midnightblue" d="M1953.46,-481.475C1964.95,-472.108 1983.63,-456.884 1997.59,-445.508"/>
<polygon fill="midnightblue" stroke="midnightblue" points="2000.02,-448.04 2005.56,-439.009 1995.6,-442.614 2000.02,-448.04"/>
</g>
<!-- Node38&#45;&gt;Node6 -->
<g id="edge106" class="edge"><title>Node38&#45;&gt;Node6</title>
<path fill="none" stroke="midnightblue" d="M465.347,-593.444C456.657,-545.587 421.388,-310.519 551,-235 650.655,-176.935 698.225,-234.385 808,-199 826.165,-193.145 827.722,-184.493 846,-179 915.717,-158.046 1120.26,-143.874 1228.31,-137.627"/>
<polygon fill="midnightblue" stroke="midnightblue" points="1228.67,-141.112 1238.46,-137.047 1228.27,-134.123 1228.67,-141.112"/>
</g>
<!-- Node38&#45;&gt;Node12 -->
<g id="edge108" class="edge"><title>Node38&#45;&gt;Node12</title>
<path fill="none" stroke="midnightblue" d="M426.808,-597.957C368.151,-589.591 266,-564.598 266,-492 266,-492 266,-492 266,-428.5 266,-322.941 114,-351.559 114,-246 114,-246 114,-246 114,-188 114,-134.575 175.935,-100.279 215.275,-83.8839"/>
<polygon fill="midnightblue" stroke="midnightblue" points="216.753,-87.0627 224.739,-80.1005 214.154,-80.5629 216.753,-87.0627"/>
</g>
<!-- Node38&#45;&gt;Node14 -->
<g id="edge107" class="edge"><title>Node38&#45;&gt;Node14</title>
<path fill="none" stroke="midnightblue" d="M507.181,-599.883C665.201,-591.558 1244.44,-561.042 1432.56,-551.132"/>
<polygon fill="midnightblue" stroke="midnightblue" points="1433,-554.613 1442.8,-550.592 1432.63,-547.623 1433,-554.613"/>
</g>
<!-- Node39&#45;&gt;Node6 -->
<g id="edge110" class="edge"><title>Node39&#45;&gt;Node6</title>
<path fill="none" stroke="midnightblue" d="M1453.39,-657.004C1340.87,-652.019 1009.66,-622.233 826,-445 758.762,-380.116 756.499,-346.163 736,-255 720.571,-186.384 816.682,-219.359 884,-199 908.897,-191.47 913.716,-185.105 939,-179 1037.81,-155.143 1155.19,-143.45 1227.91,-138.086"/>
<polygon fill="midnightblue" stroke="midnightblue" points="1228.58,-141.547 1238.3,-137.339 1228.08,-134.565 1228.58,-141.547"/>
</g>
<!-- Node39&#45;&gt;Node12 -->
<g id="edge115" class="edge"><title>Node39&#45;&gt;Node12</title>
<path fill="none" stroke="midnightblue" d="M1453.48,-658.149C1286.13,-658.524 621.465,-657.151 418,-613 200.115,-565.72 76,-468.956 76,-246 76,-246 76,-246 76,-188 76,-121.61 165.609,-90.8136 215.092,-78.8691"/>
<polygon fill="midnightblue" stroke="midnightblue" points="216.029,-82.2451 224.995,-76.6004 214.466,-75.4219 216.029,-82.2451"/>
</g>
<!-- Node39&#45;&gt;Node14 -->
<g id="edge112" class="edge"><title>Node39&#45;&gt;Node14</title>
<path fill="none" stroke="midnightblue" d="M1492,-649.368C1492,-631.617 1492,-590.666 1492,-566.597"/>
<polygon fill="midnightblue" stroke="midnightblue" points="1495.5,-566.591 1492,-556.591 1488.5,-566.591 1495.5,-566.591"/>
</g>
<!-- Node39&#45;&gt;Node27 -->
<g id="edge111" class="edge"><title>Node39&#45;&gt;Node27</title>
<path fill="none" stroke="midnightblue" d="M1517.37,-649.365C1539.07,-641.441 1570.71,-628.585 1596,-613 1716.01,-539.046 1742.05,-502.048 1809,-378 1827.8,-343.171 1833.95,-330.129 1828,-291 1826.63,-282.001 1823.81,-272.325 1821.05,-264.26"/>
<polygon fill="midnightblue" stroke="midnightblue" points="1824.31,-262.976 1817.6,-254.778 1817.73,-265.372 1824.31,-262.976"/>
</g>
<!-- Node39&#45;&gt;Node33 -->
<g id="edge113" class="edge"><title>Node39&#45;&gt;Node33</title>
<path fill="none" stroke="midnightblue" d="M1508.58,-649.325C1553.69,-624.659 1678.25,-549.122 1724,-445 1732.03,-426.719 1729.19,-403.537 1725.51,-387.61"/>
<polygon fill="midnightblue" stroke="midnightblue" points="1728.88,-386.673 1722.95,-377.893 1722.11,-388.454 1728.88,-386.673"/>
</g>
<!-- Node39&#45;&gt;Node38 -->
<g id="edge114" class="edge"><title>Node39&#45;&gt;Node38</title>
<path fill="none" stroke="midnightblue" d="M1453.48,-657.856C1322.47,-657.018 882.222,-651.335 521,-613 519.724,-612.865 518.433,-612.718 517.131,-612.563"/>
<polygon fill="midnightblue" stroke="midnightblue" points="517.407,-609.069 507.032,-611.216 516.481,-616.008 517.407,-609.069"/>
</g>
<!-- Node41&#45;&gt;Node5 -->
<g id="edge121" class="edge"><title>Node41&#45;&gt;Node5</title>
<path fill="none" stroke="midnightblue" d="M2063.8,-817.368C2023.22,-798.131 1925.18,-751.648 1877.27,-728.931"/>
<polygon fill="midnightblue" stroke="midnightblue" points="1878.66,-725.713 1868.12,-724.591 1875.66,-732.038 1878.66,-725.713"/>
</g>
<!-- Node41&#45;&gt;Node23 -->
<g id="edge135" class="edge"><title>Node41&#45;&gt;Node23</title>
<path fill="none" stroke="midnightblue" d="M2134.24,-817.627C2219.21,-802.514 2378,-767.396 2378,-716 2378,-716 2378,-716 2378,-602 2378,-438.345 2369.01,-397.301 2348,-235 2346.87,-226.236 2345.2,-216.58 2343.69,-208.467"/>
<polygon fill="midnightblue" stroke="midnightblue" points="2347.11,-207.742 2341.78,-198.59 2340.24,-209.073 2347.11,-207.742"/>
</g>
<!-- Node42 -->
<g id="node42" class="node"><title>Node42</title>
<g id="a_node42"><a xlink:href="tir_2expr_8h.html" target="_top" xlink:title="TIR expressions. ">
<polygon fill="white" stroke="black" points="2042,-761.5 2042,-780.5 2122,-780.5 2122,-761.5 2042,-761.5"/>
<text text-anchor="middle" x="2082" y="-768.5" font-family="Helvetica,sans-Serif" font-size="10.00">tvm/tir/expr.h</text>
</a>
</g>
</g>
<!-- Node41&#45;&gt;Node42 -->
<g id="edge122" class="edge"><title>Node41&#45;&gt;Node42</title>
<path fill="none" stroke="midnightblue" d="M2082,-817.083C2082,-810.006 2082,-799.861 2082,-790.986"/>
<polygon fill="midnightblue" stroke="midnightblue" points="2085.5,-790.751 2082,-780.751 2078.5,-790.751 2085.5,-790.751"/>
</g>
<!-- Node42&#45;&gt;Node4 -->
<g id="edge134" class="edge"><title>Node42&#45;&gt;Node4</title>
<path fill="none" stroke="midnightblue" d="M2122.03,-770.349C2194.5,-768.659 2340,-753.612 2340,-660 2340,-660 2340,-660 2340,-602 2340,-405.581 2545.53,-359.472 2468,-179 2453.73,-145.782 2441.26,-139.317 2409,-123 2325.54,-80.7876 2212.53,-73.3415 2158.42,-72.3628"/>
<polygon fill="midnightblue" stroke="midnightblue" points="2158.14,-68.8594 2148.1,-72.2433 2158.06,-75.859 2158.14,-68.8594"/>
</g>
<!-- Node42&#45;&gt;Node5 -->
<g id="edge128" class="edge"><title>Node42&#45;&gt;Node5</title>
<path fill="none" stroke="midnightblue" d="M2045.24,-761.444C2004.94,-752.063 1940.19,-736.993 1896.42,-726.804"/>
<polygon fill="midnightblue" stroke="midnightblue" points="1897.12,-723.375 1886.59,-724.516 1895.54,-730.192 1897.12,-723.375"/>
</g>
<!-- Node42&#45;&gt;Node7 -->
<g id="edge126" class="edge"><title>Node42&#45;&gt;Node7</title>
<path fill="none" stroke="midnightblue" d="M2041.69,-769.877C1764.53,-768.779 152,-758.167 152,-660 152,-660 152,-660 152,-305.5 152,-190.939 529.898,-112.811 693.241,-84.392"/>
<polygon fill="midnightblue" stroke="midnightblue" points="693.953,-87.8209 703.213,-82.6724 692.764,-80.9227 693.953,-87.8209"/>
</g>
<!-- Node42&#45;&gt;Node12 -->
<g id="edge129" class="edge"><title>Node42&#45;&gt;Node12</title>
<path fill="none" stroke="midnightblue" d="M2041.73,-769.698C1794.69,-767.747 489.069,-756.027 314,-725 156.258,-697.044 0,-708.2 0,-548 0,-548 0,-548 0,-188 0,-94.3111 147.626,-76.4515 214.62,-73.1702"/>
<polygon fill="midnightblue" stroke="midnightblue" points="214.796,-76.666 224.645,-72.7594 214.51,-69.6719 214.796,-76.666"/>
</g>
<!-- Node42&#45;&gt;Node14 -->
<g id="edge123" class="edge"><title>Node42&#45;&gt;Node14</title>
<path fill="none" stroke="midnightblue" d="M2075.11,-761.254C2068.2,-752.342 2057.41,-738.018 2049,-725 2027.93,-692.406 2037.47,-671.706 2006,-649 1933.62,-596.782 1670.07,-565.264 1551.05,-553.4"/>
<polygon fill="midnightblue" stroke="midnightblue" points="1551.31,-549.909 1541.02,-552.413 1550.63,-556.875 1551.31,-549.909"/>
</g>
<!-- Node42&#45;&gt;Node23 -->
<g id="edge131" class="edge"><title>Node42&#45;&gt;Node23</title>
<path fill="none" stroke="midnightblue" d="M2122.1,-767.665C2185.55,-761.564 2302,-739.534 2302,-660 2302,-660 2302,-660 2302,-602 2302,-523.572 2329.65,-279.169 2337.78,-209.008"/>
<polygon fill="midnightblue" stroke="midnightblue" points="2341.3,-208.984 2338.98,-198.646 2334.35,-208.175 2341.3,-208.984"/>
</g>
<!-- Node42&#45;&gt;Node27 -->
<g id="edge127" class="edge"><title>Node42&#45;&gt;Node27</title>
<path fill="none" stroke="midnightblue" d="M2100.46,-761.393C2130.83,-745.812 2188,-709.86 2188,-660 2188,-660 2188,-660 2188,-546 2188,-376.973 1952.68,-287.338 1855.36,-257.496"/>
<polygon fill="midnightblue" stroke="midnightblue" points="1856.15,-254.078 1845.56,-254.551 1854.13,-260.781 1856.15,-254.078"/>
</g>
<!-- Node42&#45;&gt;Node30 -->
<g id="edge133" class="edge"><title>Node42&#45;&gt;Node30</title>
<path fill="none" stroke="midnightblue" d="M2122.39,-763.89C2176.01,-753.227 2264,-725.718 2264,-660 2264,-660 2264,-660 2264,-367 2264,-330.653 2257.69,-288.57 2253.54,-264.837"/>
<polygon fill="midnightblue" stroke="midnightblue" points="2256.94,-263.981 2251.72,-254.765 2250.06,-265.229 2256.94,-263.981"/>
</g>
<!-- Node42&#45;&gt;Node32 -->
<g id="edge125" class="edge"><title>Node42&#45;&gt;Node32</title>
<path fill="none" stroke="midnightblue" d="M2122.03,-763.812C2147.88,-757.894 2180.58,-746.53 2202,-725 2223.72,-703.169 2226,-690.795 2226,-660 2226,-660 2226,-660 2226,-546 2226,-409.629 2073.81,-298.099 2014.9,-260.037"/>
<polygon fill="midnightblue" stroke="midnightblue" points="2016.6,-256.972 2006.29,-254.567 2012.85,-262.882 2016.6,-256.972"/>
</g>
<!-- Node42&#45;&gt;Node33 -->
<g id="edge124" class="edge"><title>Node42&#45;&gt;Node33</title>
<path fill="none" stroke="midnightblue" d="M2079.71,-761.442C2073.88,-740.715 2057.01,-686.748 2030,-649 2018.49,-632.913 1801.38,-440.827 1737.52,-384.457"/>
<polygon fill="midnightblue" stroke="midnightblue" points="1739.7,-381.705 1729.88,-377.713 1735.06,-386.954 1739.7,-381.705"/>
</g>
<!-- Node42&#45;&gt;Node37 -->
<g id="edge132" class="edge"><title>Node42&#45;&gt;Node37</title>
<path fill="none" stroke="midnightblue" d="M2082.32,-761.425C2082.92,-741.529 2083.6,-690.742 2077,-649 2064.97,-572.876 2035.69,-485.461 2022.56,-448.495"/>
<polygon fill="midnightblue" stroke="midnightblue" points="2025.85,-447.309 2019.18,-439.082 2019.26,-449.677 2025.85,-447.309"/>
</g>
<!-- Node42&#45;&gt;Node40 -->
<g id="edge130" class="edge"><title>Node42&#45;&gt;Node40</title>
<path fill="none" stroke="midnightblue" d="M2064.29,-761.361C2049.03,-753.347 2027,-740.363 2011,-725 1996.5,-711.078 1983.86,-691.812 1975.7,-677.873"/>
<polygon fill="midnightblue" stroke="midnightblue" points="1978.55,-675.804 1970.59,-668.817 1972.46,-679.246 1978.55,-675.804"/>
</g>
</g>
</svg>
