<?xml version="1.0" encoding="UTF-8" standalone="no"?>
<!DOCTYPE svg PUBLIC "-//W3C//DTD SVG 1.1//EN"
 "http://www.w3.org/Graphics/SVG/1.1/DTD/svg11.dtd">
<!-- Generated by graphviz version 2.38.0 (20140413.2041)
 -->
<!-- Title: tvm::te::ScheduleNode Pages: 1 -->
<svg width="448pt" height="486pt"
 viewBox="0.00 0.00 448.00 486.00" xmlns="http://www.w3.org/2000/svg" xmlns:xlink="http://www.w3.org/1999/xlink">
<g id="graph0" class="graph" transform="scale(1 1) rotate(0) translate(4 482)">
<title>tvm::te::ScheduleNode</title>
<polygon fill="white" stroke="none" points="-4,4 -4,-482 444,-482 444,4 -4,4"/>
<!-- Node1 -->
<g id="node1" class="node"><title>Node1</title>
<polygon fill="#bfbfbf" stroke="black" points="84,-0.5 84,-134.5 289,-134.5 289,-0.5 84,-0.5"/>
<text text-anchor="middle" x="186.5" y="-122.5" font-family="Helvetica,sans-Serif" font-size="10.00">tvm::te::ScheduleNode</text>
<polyline fill="none" stroke="black" points="84,-115.5 289,-115.5 "/>
<text text-anchor="start" x="92" y="-103.5" font-family="Helvetica,sans-Serif" font-size="10.00">+ op2stage_cache_</text>
<text text-anchor="start" x="92" y="-92.5" font-family="Helvetica,sans-Serif" font-size="10.00">+ _type_key</text>
<polyline fill="none" stroke="black" points="84,-85.5 289,-85.5 "/>
<text text-anchor="start" x="92" y="-73.5" font-family="Helvetica,sans-Serif" font-size="10.00">+ VisitAttrs()</text>
<text text-anchor="start" x="92" y="-62.5" font-family="Helvetica,sans-Serif" font-size="10.00">+ InitCache()</text>
<text text-anchor="start" x="92" y="-51.5" font-family="Helvetica,sans-Serif" font-size="10.00">+ InvalidateCache()</text>
<text text-anchor="start" x="92" y="-40.5" font-family="Helvetica,sans-Serif" font-size="10.00">+ Contain()</text>
<text text-anchor="start" x="92" y="-29.5" font-family="Helvetica,sans-Serif" font-size="10.00">+ Contain()</text>
<text text-anchor="start" x="92" y="-18.5" font-family="Helvetica,sans-Serif" font-size="10.00">+ TVM_DECLARE_FINAL_OBJECT_INFO()</text>
<text text-anchor="start" x="92" y="-7.5" font-family="Helvetica,sans-Serif" font-size="10.00">+ make()</text>
</g>
<!-- Node2 -->
<g id="node2" class="node"><title>Node2</title>
<polygon fill="white" stroke="#bfbfbf" points="0,-259.5 0,-316.5 47,-316.5 47,-259.5 0,-259.5"/>
<text text-anchor="middle" x="23.5" y="-304.5" font-family="Helvetica,sans-Serif" font-size="10.00">Object</text>
<polyline fill="none" stroke="#bfbfbf" points="0,-297.5 47,-297.5 "/>
<text text-anchor="middle" x="23.5" y="-285.5" font-family="Helvetica,sans-Serif" font-size="10.00"> </text>
<polyline fill="none" stroke="#bfbfbf" points="0,-278.5 47,-278.5 "/>
<text text-anchor="middle" x="23.5" y="-266.5" font-family="Helvetica,sans-Serif" font-size="10.00"> </text>
</g>
<!-- Node2&#45;&gt;Node1 -->
<g id="edge1" class="edge"><title>Node2&#45;&gt;Node1</title>
<path fill="none" stroke="midnightblue" d="M31.8638,-249.245C36.9307,-231.29 44.5709,-210.071 55.5,-193 68.8648,-172.125 86.4562,-152.278 104.393,-134.812"/>
<polygon fill="none" stroke="midnightblue" points="28.428,-248.547 29.2408,-259.11 35.193,-250.345 28.428,-248.547"/>
</g>
<!-- Node3 -->
<g id="node3" class="node"><title>Node3</title>
<g id="a_node3"><a xlink:href="classtvm_1_1Array.html" target="_top" xlink:title="{tvm::Array\&lt; tvm::te\l::Stage \&gt;\n||+ Array()\l+ Array()\l+ Array()\l+ Array()\l+ Array()\l+ Array()\l+ Array()\l+ Array()\l+ operator=()\l+ operator=()\land 13 more...\l}">
<polygon fill="white" stroke="black" points="65,-199 65,-377 178,-377 178,-199 65,-199"/>
<text text-anchor="start" x="73" y="-365" font-family="Helvetica,sans-Serif" font-size="10.00">tvm::Array&lt; tvm::te</text>
<text text-anchor="middle" x="121.5" y="-354" font-family="Helvetica,sans-Serif" font-size="10.00">::Stage &gt;</text>
<polyline fill="none" stroke="black" points="65,-347 178,-347 "/>
<text text-anchor="middle" x="121.5" y="-335" font-family="Helvetica,sans-Serif" font-size="10.00"> </text>
<polyline fill="none" stroke="black" points="65,-328 178,-328 "/>
<text text-anchor="start" x="73" y="-316" font-family="Helvetica,sans-Serif" font-size="10.00">+ Array()</text>
<text text-anchor="start" x="73" y="-305" font-family="Helvetica,sans-Serif" font-size="10.00">+ Array()</text>
<text text-anchor="start" x="73" y="-294" font-family="Helvetica,sans-Serif" font-size="10.00">+ Array()</text>
<text text-anchor="start" x="73" y="-283" font-family="Helvetica,sans-Serif" font-size="10.00">+ Array()</text>
<text text-anchor="start" x="73" y="-272" font-family="Helvetica,sans-Serif" font-size="10.00">+ Array()</text>
<text text-anchor="start" x="73" y="-261" font-family="Helvetica,sans-Serif" font-size="10.00">+ Array()</text>
<text text-anchor="start" x="73" y="-250" font-family="Helvetica,sans-Serif" font-size="10.00">+ Array()</text>
<text text-anchor="start" x="73" y="-239" font-family="Helvetica,sans-Serif" font-size="10.00">+ Array()</text>
<text text-anchor="start" x="73" y="-228" font-family="Helvetica,sans-Serif" font-size="10.00">+ operator=()</text>
<text text-anchor="start" x="73" y="-217" font-family="Helvetica,sans-Serif" font-size="10.00">+ operator=()</text>
<text text-anchor="start" x="73" y="-206" font-family="Helvetica,sans-Serif" font-size="10.00">and 13 more...</text>
</a>
</g>
</g>
<!-- Node3&#45;&gt;Node1 -->
<g id="edge2" class="edge"><title>Node3&#45;&gt;Node1</title>
<path fill="none" stroke="#404040" d="M147.751,-198.758C152.932,-181.339 158.334,-163.181 163.402,-146.144"/>
<polygon fill="none" stroke="#404040" points="163.429,-146.053 161.306,-139.162 166.851,-134.552 168.974,-141.443 163.429,-146.053"/>
<text text-anchor="middle" x="183" y="-167" font-family="Helvetica,sans-Serif" font-size="10.00"> +groups</text>
<text text-anchor="middle" x="183" y="-156" font-family="Helvetica,sans-Serif" font-size="10.00">+stages</text>
</g>
<!-- Node4 -->
<g id="node4" class="node"><title>Node4</title>
<polygon fill="white" stroke="#bfbfbf" points="221.5,-420.5 221.5,-477.5 283.5,-477.5 283.5,-420.5 221.5,-420.5"/>
<text text-anchor="middle" x="252.5" y="-465.5" font-family="Helvetica,sans-Serif" font-size="10.00">ObjectRef</text>
<polyline fill="none" stroke="#bfbfbf" points="221.5,-458.5 283.5,-458.5 "/>
<text text-anchor="middle" x="252.5" y="-446.5" font-family="Helvetica,sans-Serif" font-size="10.00"> </text>
<polyline fill="none" stroke="#bfbfbf" points="221.5,-439.5 283.5,-439.5 "/>
<text text-anchor="middle" x="252.5" y="-427.5" font-family="Helvetica,sans-Serif" font-size="10.00"> </text>
</g>
<!-- Node4&#45;&gt;Node3 -->
<g id="edge3" class="edge"><title>Node4&#45;&gt;Node3</title>
<path fill="none" stroke="midnightblue" d="M214.813,-413.295C205.208,-403.811 195.159,-393.301 186.5,-383 183.691,-379.659 180.885,-376.197 178.102,-372.661"/>
<polygon fill="none" stroke="midnightblue" points="212.434,-415.863 222.042,-420.326 217.314,-410.845 212.434,-415.863"/>
</g>
<!-- Node5 -->
<g id="node5" class="node"><title>Node5</title>
<g id="a_node5"><a xlink:href="classtvm_1_1Map.html" target="_top" xlink:title="{tvm::Map\&lt; tvm::te::\lOperation, tvm::te::\lStage \&gt;\n||+ Map()\l+ Map()\l+ Map()\l+ Map()\l+ Map()\l+ Map()\l+ Map()\l+ operator=()\l+ operator=()\l+ assign()\land 10 more...\l}">
<polygon fill="white" stroke="black" points="196,-193.5 196,-382.5 309,-382.5 309,-193.5 196,-193.5"/>
<text text-anchor="start" x="204" y="-370.5" font-family="Helvetica,sans-Serif" font-size="10.00">tvm::Map&lt; tvm::te::</text>
<text text-anchor="start" x="204" y="-359.5" font-family="Helvetica,sans-Serif" font-size="10.00">Operation, tvm::te::</text>
<text text-anchor="middle" x="252.5" y="-348.5" font-family="Helvetica,sans-Serif" font-size="10.00">Stage &gt;</text>
<polyline fill="none" stroke="black" points="196,-341.5 309,-341.5 "/>
<text text-anchor="middle" x="252.5" y="-329.5" font-family="Helvetica,sans-Serif" font-size="10.00"> </text>
<polyline fill="none" stroke="black" points="196,-322.5 309,-322.5 "/>
<text text-anchor="start" x="204" y="-310.5" font-family="Helvetica,sans-Serif" font-size="10.00">+ Map()</text>
<text text-anchor="start" x="204" y="-299.5" font-family="Helvetica,sans-Serif" font-size="10.00">+ Map()</text>
<text text-anchor="start" x="204" y="-288.5" font-family="Helvetica,sans-Serif" font-size="10.00">+ Map()</text>
<text text-anchor="start" x="204" y="-277.5" font-family="Helvetica,sans-Serif" font-size="10.00">+ Map()</text>
<text text-anchor="start" x="204" y="-266.5" font-family="Helvetica,sans-Serif" font-size="10.00">+ Map()</text>
<text text-anchor="start" x="204" y="-255.5" font-family="Helvetica,sans-Serif" font-size="10.00">+ Map()</text>
<text text-anchor="start" x="204" y="-244.5" font-family="Helvetica,sans-Serif" font-size="10.00">+ Map()</text>
<text text-anchor="start" x="204" y="-233.5" font-family="Helvetica,sans-Serif" font-size="10.00">+ operator=()</text>
<text text-anchor="start" x="204" y="-222.5" font-family="Helvetica,sans-Serif" font-size="10.00">+ operator=()</text>
<text text-anchor="start" x="204" y="-211.5" font-family="Helvetica,sans-Serif" font-size="10.00">+ assign()</text>
<text text-anchor="start" x="204" y="-200.5" font-family="Helvetica,sans-Serif" font-size="10.00">and 10 more...</text>
</a>
</g>
</g>
<!-- Node4&#45;&gt;Node5 -->
<g id="edge5" class="edge"><title>Node4&#45;&gt;Node5</title>
<path fill="none" stroke="midnightblue" d="M252.5,-410.078C252.5,-401.598 252.5,-392.241 252.5,-382.597"/>
<polygon fill="none" stroke="midnightblue" points="249,-410.304 252.5,-420.304 256,-410.304 249,-410.304"/>
</g>
<!-- Node6 -->
<g id="node6" class="node"><title>Node6</title>
<g id="a_node6"><a xlink:href="classtvm_1_1Array.html" target="_top" xlink:title="{tvm::Array\&lt; tvm::te\l::Operation \&gt;\n||+ Array()\l+ Array()\l+ Array()\l+ Array()\l+ Array()\l+ Array()\l+ Array()\l+ Array()\l+ operator=()\l+ operator=()\land 13 more...\l}">
<polygon fill="white" stroke="black" points="327,-199 327,-377 440,-377 440,-199 327,-199"/>
<text text-anchor="start" x="335" y="-365" font-family="Helvetica,sans-Serif" font-size="10.00">tvm::Array&lt; tvm::te</text>
<text text-anchor="middle" x="383.5" y="-354" font-family="Helvetica,sans-Serif" font-size="10.00">::Operation &gt;</text>
<polyline fill="none" stroke="black" points="327,-347 440,-347 "/>
<text text-anchor="middle" x="383.5" y="-335" font-family="Helvetica,sans-Serif" font-size="10.00"> </text>
<polyline fill="none" stroke="black" points="327,-328 440,-328 "/>
<text text-anchor="start" x="335" y="-316" font-family="Helvetica,sans-Serif" font-size="10.00">+ Array()</text>
<text text-anchor="start" x="335" y="-305" font-family="Helvetica,sans-Serif" font-size="10.00">+ Array()</text>
<text text-anchor="start" x="335" y="-294" font-family="Helvetica,sans-Serif" font-size="10.00">+ Array()</text>
<text text-anchor="start" x="335" y="-283" font-family="Helvetica,sans-Serif" font-size="10.00">+ Array()</text>
<text text-anchor="start" x="335" y="-272" font-family="Helvetica,sans-Serif" font-size="10.00">+ Array()</text>
<text text-anchor="start" x="335" y="-261" font-family="Helvetica,sans-Serif" font-size="10.00">+ Array()</text>
<text text-anchor="start" x="335" y="-250" font-family="Helvetica,sans-Serif" font-size="10.00">+ Array()</text>
<text text-anchor="start" x="335" y="-239" font-family="Helvetica,sans-Serif" font-size="10.00">+ Array()</text>
<text text-anchor="start" x="335" y="-228" font-family="Helvetica,sans-Serif" font-size="10.00">+ operator=()</text>
<text text-anchor="start" x="335" y="-217" font-family="Helvetica,sans-Serif" font-size="10.00">+ operator=()</text>
<text text-anchor="start" x="335" y="-206" font-family="Helvetica,sans-Serif" font-size="10.00">and 13 more...</text>
</a>
</g>
</g>
<!-- Node4&#45;&gt;Node6 -->
<g id="edge7" class="edge"><title>Node4&#45;&gt;Node6</title>
<path fill="none" stroke="midnightblue" d="M290.187,-413.295C299.792,-403.811 309.841,-393.301 318.5,-383 321.309,-379.659 324.115,-376.197 326.898,-372.661"/>
<polygon fill="none" stroke="midnightblue" points="287.686,-410.845 282.958,-420.326 292.566,-415.863 287.686,-410.845"/>
</g>
<!-- Node5&#45;&gt;Node1 -->
<g id="edge4" class="edge"><title>Node5&#45;&gt;Node1</title>
<path fill="none" stroke="#404040" d="M224.223,-193.385C219.455,-177.602 214.553,-161.374 209.926,-146.056"/>
<polygon fill="none" stroke="#404040" points="209.918,-146.029 204.354,-141.442 206.449,-134.542 212.013,-139.129 209.918,-146.029"/>
<text text-anchor="middle" x="251.5" y="-161.5" font-family="Helvetica,sans-Serif" font-size="10.00"> +stage_map</text>
</g>
<!-- Node6&#45;&gt;Node1 -->
<g id="edge6" class="edge"><title>Node6&#45;&gt;Node1</title>
<path fill="none" stroke="#404040" d="M326.964,-204.843C324.116,-200.829 321.283,-196.864 318.5,-193 305.511,-174.969 303.829,-169.089 288.5,-153 285.382,-149.728 282.141,-146.459 278.816,-143.214"/>
<polygon fill="none" stroke="#404040" points="278.541,-142.953 271.435,-141.723 269.838,-134.691 276.943,-135.921 278.541,-142.953"/>
<text text-anchor="middle" x="330" y="-161.5" font-family="Helvetica,sans-Serif" font-size="10.00"> +outputs</text>
</g>
</g>
</svg>
