<?xml version="1.0" encoding="UTF-8" standalone="no"?>
<!DOCTYPE svg PUBLIC "-//W3C//DTD SVG 1.1//EN"
 "http://www.w3.org/Graphics/SVG/1.1/DTD/svg11.dtd">
<!-- Generated by graphviz version 2.38.0 (20140413.2041)
 -->
<!-- Title: tvm::runtime::TVMPODValue_ Pages: 1 -->
<svg width="166pt" height="358pt"
 viewBox="0.00 0.00 166.00 358.00" xmlns="http://www.w3.org/2000/svg" xmlns:xlink="http://www.w3.org/1999/xlink">
<g id="graph0" class="graph" transform="scale(1 1) rotate(0) translate(4 354)">
<title>tvm::runtime::TVMPODValue_</title>
<polygon fill="white" stroke="none" points="-4,4 -4,-354 162,-354 162,4 -4,4"/>
<!-- Node1 -->
<g id="node1" class="node"><title>Node1</title>
<polygon fill="#bfbfbf" stroke="black" points="-1.42109e-14,-0.5 -1.42109e-14,-189.5 158,-189.5 158,-0.5 -1.42109e-14,-0.5"/>
<text text-anchor="middle" x="79" y="-177.5" font-family="Helvetica,sans-Serif" font-size="10.00">tvm::runtime::TVMPODValue_</text>
<polyline fill="none" stroke="black" points="-1.42109e-14,-170.5 158,-170.5 "/>
<text text-anchor="start" x="8" y="-158.5" font-family="Helvetica,sans-Serif" font-size="10.00"># type_code_</text>
<polyline fill="none" stroke="black" points="-1.42109e-14,-151.5 158,-151.5 "/>
<text text-anchor="start" x="8" y="-139.5" font-family="Helvetica,sans-Serif" font-size="10.00">+ operator double()</text>
<text text-anchor="start" x="8" y="-128.5" font-family="Helvetica,sans-Serif" font-size="10.00">+ operator int64_t()</text>
<text text-anchor="start" x="8" y="-117.5" font-family="Helvetica,sans-Serif" font-size="10.00">+ operator uint64_t()</text>
<text text-anchor="start" x="8" y="-106.5" font-family="Helvetica,sans-Serif" font-size="10.00">+ operator int()</text>
<text text-anchor="start" x="8" y="-95.5" font-family="Helvetica,sans-Serif" font-size="10.00">+ operator bool()</text>
<text text-anchor="start" x="8" y="-84.5" font-family="Helvetica,sans-Serif" font-size="10.00">+ operator void *()</text>
<text text-anchor="start" x="8" y="-73.5" font-family="Helvetica,sans-Serif" font-size="10.00">+ operator DLTensor *()</text>
<text text-anchor="start" x="8" y="-62.5" font-family="Helvetica,sans-Serif" font-size="10.00">+ operator NDArray()</text>
<text text-anchor="start" x="8" y="-51.5" font-family="Helvetica,sans-Serif" font-size="10.00">+ operator Module()</text>
<text text-anchor="start" x="8" y="-40.5" font-family="Helvetica,sans-Serif" font-size="10.00">+ operator TVMContext()</text>
<text text-anchor="start" x="8" y="-29.5" font-family="Helvetica,sans-Serif" font-size="10.00">and 6 more...</text>
<text text-anchor="start" x="8" y="-18.5" font-family="Helvetica,sans-Serif" font-size="10.00"># TVMPODValue_()</text>
<text text-anchor="start" x="8" y="-7.5" font-family="Helvetica,sans-Serif" font-size="10.00"># TVMPODValue_()</text>
</g>
<!-- Node2 -->
<g id="node2" class="node"><title>Node2</title>
<g id="a_node2"><a xlink:href="unionTVMValue.html" target="_top" xlink:title="Union type of values being passed through API and function calls. ">
<polygon fill="white" stroke="black" points="43.5,-237.5 43.5,-349.5 114.5,-349.5 114.5,-237.5 43.5,-237.5"/>
<text text-anchor="middle" x="79" y="-337.5" font-family="Helvetica,sans-Serif" font-size="10.00">TVMValue</text>
<polyline fill="none" stroke="black" points="43.5,-330.5 114.5,-330.5 "/>
<text text-anchor="start" x="51.5" y="-318.5" font-family="Helvetica,sans-Serif" font-size="10.00">+ v_int64</text>
<text text-anchor="start" x="51.5" y="-307.5" font-family="Helvetica,sans-Serif" font-size="10.00">+ v_float64</text>
<text text-anchor="start" x="51.5" y="-296.5" font-family="Helvetica,sans-Serif" font-size="10.00">+ v_handle</text>
<text text-anchor="start" x="51.5" y="-285.5" font-family="Helvetica,sans-Serif" font-size="10.00">+ v_str</text>
<text text-anchor="start" x="51.5" y="-274.5" font-family="Helvetica,sans-Serif" font-size="10.00">+ v_type</text>
<text text-anchor="start" x="51.5" y="-263.5" font-family="Helvetica,sans-Serif" font-size="10.00">+ v_ctx</text>
<polyline fill="none" stroke="black" points="43.5,-256.5 114.5,-256.5 "/>
<text text-anchor="middle" x="79" y="-244.5" font-family="Helvetica,sans-Serif" font-size="10.00"> </text>
</a>
</g>
</g>
<!-- Node2&#45;&gt;Node1 -->
<g id="edge1" class="edge"><title>Node2&#45;&gt;Node1</title>
<path fill="none" stroke="#404040" d="M79,-237.241C79,-226.088 79,-214.014 79,-201.784"/>
<polygon fill="none" stroke="#404040" points="79.0001,-201.53 75,-195.53 79,-189.53 83,-195.53 79.0001,-201.53"/>
<text text-anchor="middle" x="100.5" y="-211" font-family="Helvetica,sans-Serif" font-size="10.00"> #value_</text>
</g>
</g>
</svg>
