<?xml version="1.0" encoding="UTF-8" standalone="no"?>
<!DOCTYPE svg PUBLIC "-//W3C//DTD SVG 1.1//EN"
 "http://www.w3.org/Graphics/SVG/1.1/DTD/svg11.dtd">
<!-- Generated by graphviz version 2.38.0 (20140413.2041)
 -->
<!-- Title: tvm::te::TensorIntrinNode Pages: 1 -->
<svg width="586pt" height="737pt"
 viewBox="0.00 0.00 586.00 737.00" xmlns="http://www.w3.org/2000/svg" xmlns:xlink="http://www.w3.org/1999/xlink">
<g id="graph0" class="graph" transform="scale(1 1) rotate(0) translate(4 733)">
<title>tvm::te::TensorIntrinNode</title>
<polygon fill="white" stroke="none" points="-4,4 -4,-733 582,-733 582,4 -4,4"/>
<!-- Node1 -->
<g id="node1" class="node"><title>Node1</title>
<polygon fill="#bfbfbf" stroke="black" points="139,-0.5 139,-101.5 344,-101.5 344,-0.5 139,-0.5"/>
<text text-anchor="middle" x="241.5" y="-89.5" font-family="Helvetica,sans-Serif" font-size="10.00">tvm::te::TensorIntrinNode</text>
<polyline fill="none" stroke="black" points="139,-82.5 344,-82.5 "/>
<text text-anchor="start" x="147" y="-70.5" font-family="Helvetica,sans-Serif" font-size="10.00">+ name</text>
<text text-anchor="start" x="147" y="-59.5" font-family="Helvetica,sans-Serif" font-size="10.00">+ _type_key</text>
<polyline fill="none" stroke="black" points="139,-52.5 344,-52.5 "/>
<text text-anchor="start" x="147" y="-40.5" font-family="Helvetica,sans-Serif" font-size="10.00">+ TensorIntrinNode()</text>
<text text-anchor="start" x="147" y="-29.5" font-family="Helvetica,sans-Serif" font-size="10.00">+ VisitAttrs()</text>
<text text-anchor="start" x="147" y="-18.5" font-family="Helvetica,sans-Serif" font-size="10.00">+ TVM_DECLARE_FINAL_OBJECT_INFO()</text>
<text text-anchor="start" x="147" y="-7.5" font-family="Helvetica,sans-Serif" font-size="10.00">+ make()</text>
</g>
<!-- Node2 -->
<g id="node2" class="node"><title>Node2</title>
<polygon fill="white" stroke="#bfbfbf" points="0,-166 0,-223 47,-223 47,-166 0,-166"/>
<text text-anchor="middle" x="23.5" y="-211" font-family="Helvetica,sans-Serif" font-size="10.00">Object</text>
<polyline fill="none" stroke="#bfbfbf" points="0,-204 47,-204 "/>
<text text-anchor="middle" x="23.5" y="-192" font-family="Helvetica,sans-Serif" font-size="10.00"> </text>
<polyline fill="none" stroke="#bfbfbf" points="0,-185 47,-185 "/>
<text text-anchor="middle" x="23.5" y="-173" font-family="Helvetica,sans-Serif" font-size="10.00"> </text>
</g>
<!-- Node2&#45;&gt;Node1 -->
<g id="edge1" class="edge"><title>Node2&#45;&gt;Node1</title>
<path fill="none" stroke="midnightblue" d="M40.1656,-157.126C47.6179,-144.022 57.466,-130.014 69.5,-120 89.6159,-103.261 114.356,-90.2876 138.738,-80.3793"/>
<polygon fill="none" stroke="midnightblue" points="37.0503,-155.53 35.3917,-165.994 43.2138,-158.848 37.0503,-155.53"/>
</g>
<!-- Node3 -->
<g id="node3" class="node"><title>Node3</title>
<g id="a_node3"><a xlink:href="classtvm_1_1Array.html" target="_top" xlink:title="{tvm::Array\&lt; tvm::tir\l::Var \&gt;\n||+ Array()\l+ Array()\l+ Array()\l+ Array()\l+ Array()\l+ Array()\l+ Array()\l+ Array()\l+ operator=()\l+ operator=()\land 13 more...\l}">
<polygon fill="white" stroke="black" points="27,-258.5 27,-436.5 140,-436.5 140,-258.5 27,-258.5"/>
<text text-anchor="start" x="35" y="-424.5" font-family="Helvetica,sans-Serif" font-size="10.00">tvm::Array&lt; tvm::tir</text>
<text text-anchor="middle" x="83.5" y="-413.5" font-family="Helvetica,sans-Serif" font-size="10.00">::Var &gt;</text>
<polyline fill="none" stroke="black" points="27,-406.5 140,-406.5 "/>
<text text-anchor="middle" x="83.5" y="-394.5" font-family="Helvetica,sans-Serif" font-size="10.00"> </text>
<polyline fill="none" stroke="black" points="27,-387.5 140,-387.5 "/>
<text text-anchor="start" x="35" y="-375.5" font-family="Helvetica,sans-Serif" font-size="10.00">+ Array()</text>
<text text-anchor="start" x="35" y="-364.5" font-family="Helvetica,sans-Serif" font-size="10.00">+ Array()</text>
<text text-anchor="start" x="35" y="-353.5" font-family="Helvetica,sans-Serif" font-size="10.00">+ Array()</text>
<text text-anchor="start" x="35" y="-342.5" font-family="Helvetica,sans-Serif" font-size="10.00">+ Array()</text>
<text text-anchor="start" x="35" y="-331.5" font-family="Helvetica,sans-Serif" font-size="10.00">+ Array()</text>
<text text-anchor="start" x="35" y="-320.5" font-family="Helvetica,sans-Serif" font-size="10.00">+ Array()</text>
<text text-anchor="start" x="35" y="-309.5" font-family="Helvetica,sans-Serif" font-size="10.00">+ Array()</text>
<text text-anchor="start" x="35" y="-298.5" font-family="Helvetica,sans-Serif" font-size="10.00">+ Array()</text>
<text text-anchor="start" x="35" y="-287.5" font-family="Helvetica,sans-Serif" font-size="10.00">+ operator=()</text>
<text text-anchor="start" x="35" y="-276.5" font-family="Helvetica,sans-Serif" font-size="10.00">+ operator=()</text>
<text text-anchor="start" x="35" y="-265.5" font-family="Helvetica,sans-Serif" font-size="10.00">and 13 more...</text>
</a>
</g>
</g>
<!-- Node3&#45;&gt;Node1 -->
<g id="edge2" class="edge"><title>Node3&#45;&gt;Node1</title>
<path fill="none" stroke="#404040" d="M86.168,-258.162C90.5543,-222.233 99.9784,-181.591 119.5,-149 128.116,-134.617 139.707,-121.514 152.33,-109.913"/>
<polygon fill="none" stroke="#404040" points="152.645,-109.638 154.526,-102.677 161.676,-101.736 159.795,-108.697 152.645,-109.638"/>
<text text-anchor="middle" x="160.5" y="-192" font-family="Helvetica,sans-Serif" font-size="10.00"> +scalar_params</text>
</g>
<!-- Node4 -->
<g id="node4" class="node"><title>Node4</title>
<polygon fill="white" stroke="#bfbfbf" points="237.5,-671.5 237.5,-728.5 299.5,-728.5 299.5,-671.5 237.5,-671.5"/>
<text text-anchor="middle" x="268.5" y="-716.5" font-family="Helvetica,sans-Serif" font-size="10.00">ObjectRef</text>
<polyline fill="none" stroke="#bfbfbf" points="237.5,-709.5 299.5,-709.5 "/>
<text text-anchor="middle" x="268.5" y="-697.5" font-family="Helvetica,sans-Serif" font-size="10.00"> </text>
<polyline fill="none" stroke="#bfbfbf" points="237.5,-690.5 299.5,-690.5 "/>
<text text-anchor="middle" x="268.5" y="-678.5" font-family="Helvetica,sans-Serif" font-size="10.00"> </text>
</g>
<!-- Node4&#45;&gt;Node3 -->
<g id="edge3" class="edge"><title>Node4&#45;&gt;Node3</title>
<path fill="none" stroke="midnightblue" d="M235.357,-663.391C227.659,-654.194 219.864,-644.044 213.5,-634 173.857,-571.433 139.645,-494.768 116.282,-436.642"/>
<polygon fill="none" stroke="midnightblue" points="232.891,-665.891 242.059,-671.201 238.203,-661.333 232.891,-665.891"/>
</g>
<!-- Node5 -->
<g id="node5" class="node"><title>Node5</title>
<g id="a_node5"><a xlink:href="classtvm_1_1Array.html" target="_top" xlink:title="{tvm::Array\&lt; tvm::tir\l::Buffer \&gt;\n||+ Array()\l+ Array()\l+ Array()\l+ Array()\l+ Array()\l+ Array()\l+ Array()\l+ Array()\l+ operator=()\l+ operator=()\land 13 more...\l}">
<polygon fill="white" stroke="black" points="145,-258.5 145,-436.5 258,-436.5 258,-258.5 145,-258.5"/>
<text text-anchor="start" x="153" y="-424.5" font-family="Helvetica,sans-Serif" font-size="10.00">tvm::Array&lt; tvm::tir</text>
<text text-anchor="middle" x="201.5" y="-413.5" font-family="Helvetica,sans-Serif" font-size="10.00">::Buffer &gt;</text>
<polyline fill="none" stroke="black" points="145,-406.5 258,-406.5 "/>
<text text-anchor="middle" x="201.5" y="-394.5" font-family="Helvetica,sans-Serif" font-size="10.00"> </text>
<polyline fill="none" stroke="black" points="145,-387.5 258,-387.5 "/>
<text text-anchor="start" x="153" y="-375.5" font-family="Helvetica,sans-Serif" font-size="10.00">+ Array()</text>
<text text-anchor="start" x="153" y="-364.5" font-family="Helvetica,sans-Serif" font-size="10.00">+ Array()</text>
<text text-anchor="start" x="153" y="-353.5" font-family="Helvetica,sans-Serif" font-size="10.00">+ Array()</text>
<text text-anchor="start" x="153" y="-342.5" font-family="Helvetica,sans-Serif" font-size="10.00">+ Array()</text>
<text text-anchor="start" x="153" y="-331.5" font-family="Helvetica,sans-Serif" font-size="10.00">+ Array()</text>
<text text-anchor="start" x="153" y="-320.5" font-family="Helvetica,sans-Serif" font-size="10.00">+ Array()</text>
<text text-anchor="start" x="153" y="-309.5" font-family="Helvetica,sans-Serif" font-size="10.00">+ Array()</text>
<text text-anchor="start" x="153" y="-298.5" font-family="Helvetica,sans-Serif" font-size="10.00">+ Array()</text>
<text text-anchor="start" x="153" y="-287.5" font-family="Helvetica,sans-Serif" font-size="10.00">+ operator=()</text>
<text text-anchor="start" x="153" y="-276.5" font-family="Helvetica,sans-Serif" font-size="10.00">+ operator=()</text>
<text text-anchor="start" x="153" y="-265.5" font-family="Helvetica,sans-Serif" font-size="10.00">and 13 more...</text>
</a>
</g>
</g>
<!-- Node4&#45;&gt;Node5 -->
<g id="edge5" class="edge"><title>Node4&#45;&gt;Node5</title>
<path fill="none" stroke="midnightblue" d="M256.706,-661.62C255.917,-658.715 255.171,-655.817 254.5,-653 237.307,-580.836 223.227,-497.809 213.912,-436.699"/>
<polygon fill="none" stroke="midnightblue" points="253.393,-662.766 259.504,-671.42 260.124,-660.844 253.393,-662.766"/>
</g>
<!-- Node6 -->
<g id="node6" class="node"><title>Node6</title>
<g id="a_node6"><a xlink:href="classtvm_1_1tir_1_1Stmt.html" target="_top" xlink:title="Container of all statements. ">
<polygon fill="white" stroke="black" points="263.5,-313.5 263.5,-381.5 413.5,-381.5 413.5,-313.5 263.5,-313.5"/>
<text text-anchor="middle" x="338.5" y="-369.5" font-family="Helvetica,sans-Serif" font-size="10.00">tvm::tir::Stmt</text>
<polyline fill="none" stroke="black" points="263.5,-362.5 413.5,-362.5 "/>
<text text-anchor="middle" x="338.5" y="-350.5" font-family="Helvetica,sans-Serif" font-size="10.00"> </text>
<polyline fill="none" stroke="black" points="263.5,-343.5 413.5,-343.5 "/>
<text text-anchor="start" x="271.5" y="-331.5" font-family="Helvetica,sans-Serif" font-size="10.00">+ TVM_DEFINE_OBJECT_REF</text>
<text text-anchor="start" x="271.5" y="-320.5" font-family="Helvetica,sans-Serif" font-size="10.00">_METHODS()</text>
</a>
</g>
</g>
<!-- Node4&#45;&gt;Node6 -->
<g id="edge7" class="edge"><title>Node4&#45;&gt;Node6</title>
<path fill="none" stroke="midnightblue" d="M267.193,-661.314C266.464,-612.751 268.418,-526.112 287.5,-455 294.407,-429.26 307.45,-402.199 318.617,-381.796"/>
<polygon fill="none" stroke="midnightblue" points="263.694,-661.439 267.391,-671.368 270.693,-661.301 263.694,-661.439"/>
</g>
<!-- Node8 -->
<g id="node8" class="node"><title>Node8</title>
<g id="a_node8"><a xlink:href="classtvm_1_1tir_1_1FunctionRef.html" target="_top" xlink:title="reference to a function ">
<polygon fill="white" stroke="black" points="296.5,-510.5 296.5,-578.5 446.5,-578.5 446.5,-510.5 296.5,-510.5"/>
<text text-anchor="middle" x="371.5" y="-566.5" font-family="Helvetica,sans-Serif" font-size="10.00">tvm::tir::FunctionRef</text>
<polyline fill="none" stroke="black" points="296.5,-559.5 446.5,-559.5 "/>
<text text-anchor="middle" x="371.5" y="-547.5" font-family="Helvetica,sans-Serif" font-size="10.00"> </text>
<polyline fill="none" stroke="black" points="296.5,-540.5 446.5,-540.5 "/>
<text text-anchor="start" x="304.5" y="-528.5" font-family="Helvetica,sans-Serif" font-size="10.00">+ TVM_DEFINE_OBJECT_REF</text>
<text text-anchor="start" x="304.5" y="-517.5" font-family="Helvetica,sans-Serif" font-size="10.00">_METHODS()</text>
</a>
</g>
</g>
<!-- Node4&#45;&gt;Node8 -->
<g id="edge10" class="edge"><title>Node4&#45;&gt;Node8</title>
<path fill="none" stroke="midnightblue" d="M292.943,-662.573C310.02,-637.123 332.642,-603.41 349.222,-578.7"/>
<polygon fill="none" stroke="midnightblue" points="289.818,-660.948 287.153,-671.202 295.631,-664.849 289.818,-660.948"/>
</g>
<!-- Node9 -->
<g id="node9" class="node"><title>Node9</title>
<g id="a_node9"><a xlink:href="classtvm_1_1Array.html" target="_top" xlink:title="{tvm::Array\&lt; tvm::te\l::Tensor \&gt;\n||+ Array()\l+ Array()\l+ Array()\l+ Array()\l+ Array()\l+ Array()\l+ Array()\l+ Array()\l+ operator=()\l+ operator=()\land 13 more...\l}">
<polygon fill="white" stroke="black" points="465,-455.5 465,-633.5 578,-633.5 578,-455.5 465,-455.5"/>
<text text-anchor="start" x="473" y="-621.5" font-family="Helvetica,sans-Serif" font-size="10.00">tvm::Array&lt; tvm::te</text>
<text text-anchor="middle" x="521.5" y="-610.5" font-family="Helvetica,sans-Serif" font-size="10.00">::Tensor &gt;</text>
<polyline fill="none" stroke="black" points="465,-603.5 578,-603.5 "/>
<text text-anchor="middle" x="521.5" y="-591.5" font-family="Helvetica,sans-Serif" font-size="10.00"> </text>
<polyline fill="none" stroke="black" points="465,-584.5 578,-584.5 "/>
<text text-anchor="start" x="473" y="-572.5" font-family="Helvetica,sans-Serif" font-size="10.00">+ Array()</text>
<text text-anchor="start" x="473" y="-561.5" font-family="Helvetica,sans-Serif" font-size="10.00">+ Array()</text>
<text text-anchor="start" x="473" y="-550.5" font-family="Helvetica,sans-Serif" font-size="10.00">+ Array()</text>
<text text-anchor="start" x="473" y="-539.5" font-family="Helvetica,sans-Serif" font-size="10.00">+ Array()</text>
<text text-anchor="start" x="473" y="-528.5" font-family="Helvetica,sans-Serif" font-size="10.00">+ Array()</text>
<text text-anchor="start" x="473" y="-517.5" font-family="Helvetica,sans-Serif" font-size="10.00">+ Array()</text>
<text text-anchor="start" x="473" y="-506.5" font-family="Helvetica,sans-Serif" font-size="10.00">+ Array()</text>
<text text-anchor="start" x="473" y="-495.5" font-family="Helvetica,sans-Serif" font-size="10.00">+ Array()</text>
<text text-anchor="start" x="473" y="-484.5" font-family="Helvetica,sans-Serif" font-size="10.00">+ operator=()</text>
<text text-anchor="start" x="473" y="-473.5" font-family="Helvetica,sans-Serif" font-size="10.00">+ operator=()</text>
<text text-anchor="start" x="473" y="-462.5" font-family="Helvetica,sans-Serif" font-size="10.00">and 13 more...</text>
</a>
</g>
</g>
<!-- Node4&#45;&gt;Node9 -->
<g id="edge12" class="edge"><title>Node4&#45;&gt;Node9</title>
<path fill="none" stroke="midnightblue" d="M309.598,-692.01C349.842,-683.581 411.374,-666.326 455.5,-634 458.747,-631.621 461.905,-629.037 464.968,-626.298"/>
<polygon fill="none" stroke="midnightblue" points="308.715,-688.617 299.598,-694.014 310.091,-695.48 308.715,-688.617"/>
</g>
<!-- Node5&#45;&gt;Node1 -->
<g id="edge4" class="edge"><title>Node5&#45;&gt;Node1</title>
<path fill="none" stroke="#404040" d="M204.158,-258.081C206.128,-223.839 209.553,-184.425 215.5,-149 217.428,-137.515 220.12,-125.419 223.046,-113.814"/>
<polygon fill="none" stroke="#404040" points="223.115,-113.551 220.767,-106.733 226.158,-101.943 228.506,-108.761 223.115,-113.551"/>
<text text-anchor="middle" x="238" y="-192" font-family="Helvetica,sans-Serif" font-size="10.00"> +buffers</text>
</g>
<!-- Node6&#45;&gt;Node1 -->
<g id="edge6" class="edge"><title>Node6&#45;&gt;Node1</title>
<path fill="none" stroke="#404040" d="M322.324,-313.461C312.56,-292.698 300.341,-265.17 291.5,-240 276.97,-198.631 264.318,-150.872 255.376,-113.842"/>
<polygon fill="none" stroke="#404040" points="255.27,-113.394 249.988,-108.484 252.489,-101.72 257.77,-106.63 255.27,-113.394"/>
<text text-anchor="middle" x="332" y="-203" font-family="Helvetica,sans-Serif" font-size="10.00"> +reduce_init</text>
<text text-anchor="middle" x="332" y="-192" font-family="Helvetica,sans-Serif" font-size="10.00">+reduce_update</text>
<text text-anchor="middle" x="332" y="-181" font-family="Helvetica,sans-Serif" font-size="10.00">+body</text>
</g>
<!-- Node7 -->
<g id="node7" class="node"><title>Node7</title>
<g id="a_node7"><a xlink:href="classtvm_1_1te_1_1Operation.html" target="_top" xlink:title="Operation that produces tensors. ">
<polygon fill="white" stroke="black" points="381.5,-149.5 381.5,-239.5 485.5,-239.5 485.5,-149.5 381.5,-149.5"/>
<text text-anchor="middle" x="433.5" y="-227.5" font-family="Helvetica,sans-Serif" font-size="10.00">tvm::te::Operation</text>
<polyline fill="none" stroke="black" points="381.5,-220.5 485.5,-220.5 "/>
<text text-anchor="middle" x="433.5" y="-208.5" font-family="Helvetica,sans-Serif" font-size="10.00"> </text>
<polyline fill="none" stroke="black" points="381.5,-201.5 485.5,-201.5 "/>
<text text-anchor="start" x="389.5" y="-189.5" font-family="Helvetica,sans-Serif" font-size="10.00">+ Operation()</text>
<text text-anchor="start" x="389.5" y="-178.5" font-family="Helvetica,sans-Serif" font-size="10.00">+ Operation()</text>
<text text-anchor="start" x="389.5" y="-167.5" font-family="Helvetica,sans-Serif" font-size="10.00">+ operator&#45;&gt;()</text>
<text text-anchor="start" x="389.5" y="-156.5" font-family="Helvetica,sans-Serif" font-size="10.00">+ output()</text>
</a>
</g>
</g>
<!-- Node7&#45;&gt;Node1 -->
<g id="edge8" class="edge"><title>Node7&#45;&gt;Node1</title>
<path fill="none" stroke="#404040" d="M381.289,-155.021C362.02,-140.821 339.757,-124.413 318.741,-108.925"/>
<polygon fill="none" stroke="#404040" points="318.527,-108.767 311.324,-108.428 308.867,-101.648 316.07,-101.987 318.527,-108.767"/>
<text text-anchor="middle" x="355.5" y="-123" font-family="Helvetica,sans-Serif" font-size="10.00"> +op</text>
</g>
<!-- Node8&#45;&gt;Node7 -->
<g id="edge9" class="edge"><title>Node8&#45;&gt;Node7</title>
<path fill="none" stroke="midnightblue" d="M393.625,-501.426C402.641,-482.292 412.178,-459.04 417.5,-437 433.774,-369.606 435.717,-288.763 435.041,-239.804"/>
<polygon fill="none" stroke="midnightblue" points="390.457,-499.939 389.262,-510.466 396.761,-502.982 390.457,-499.939"/>
</g>
<!-- Node9&#45;&gt;Node1 -->
<g id="edge11" class="edge"><title>Node9&#45;&gt;Node1</title>
<path fill="none" stroke="#404040" d="M540.627,-455.129C554.048,-368.525 559.584,-237.054 494.5,-149 461.88,-104.867 406.449,-80.8138 355.772,-67.7041"/>
<polygon fill="none" stroke="#404040" points="355.686,-67.6832 348.909,-70.1451 344.029,-64.8355 350.807,-62.3736 355.686,-67.6832"/>
<text text-anchor="middle" x="557" y="-192" font-family="Helvetica,sans-Serif" font-size="10.00"> +inputs</text>
</g>
</g>
</svg>
