<?xml version="1.0" encoding="UTF-8" standalone="no"?>
<!DOCTYPE svg PUBLIC "-//W3C//DTD SVG 1.1//EN"
 "http://www.w3.org/Graphics/SVG/1.1/DTD/svg11.dtd">
<!-- Generated by graphviz version 2.38.0 (20140413.2041)
 -->
<!-- Title: tvm::relay::TempExprNode Pages: 1 -->
<svg width="548pt" height="493pt"
 viewBox="0.00 0.00 548.00 493.00" xmlns="http://www.w3.org/2000/svg" xmlns:xlink="http://www.w3.org/1999/xlink">
<g id="graph0" class="graph" transform="scale(1 1) rotate(0) translate(4 489)">
<title>tvm::relay::TempExprNode</title>
<polygon fill="white" stroke="none" points="-4,4 -4,-489 544,-489 544,4 -4,4"/>
<!-- Node1 -->
<g id="node1" class="node"><title>Node1</title>
<polygon fill="#bfbfbf" stroke="black" points="195,-0.5 195,-123.5 399,-123.5 399,-0.5 195,-0.5"/>
<text text-anchor="middle" x="297" y="-111.5" font-family="Helvetica,sans-Serif" font-size="10.00">tvm::relay::TempExprNode</text>
<polyline fill="none" stroke="black" points="195,-104.5 399,-104.5 "/>
<text text-anchor="start" x="203" y="-92.5" font-family="Helvetica,sans-Serif" font-size="10.00">+ _type_key</text>
<text text-anchor="start" x="203" y="-81.5" font-family="Helvetica,sans-Serif" font-size="10.00">+ _type_has_method_sequal</text>
<text text-anchor="start" x="203" y="-70.5" font-family="Helvetica,sans-Serif" font-size="10.00">_reduce</text>
<text text-anchor="start" x="203" y="-59.5" font-family="Helvetica,sans-Serif" font-size="10.00">+ _type_has_method_shash</text>
<text text-anchor="start" x="203" y="-48.5" font-family="Helvetica,sans-Serif" font-size="10.00">_reduce</text>
<polyline fill="none" stroke="black" points="195,-41.5 399,-41.5 "/>
<text text-anchor="start" x="203" y="-29.5" font-family="Helvetica,sans-Serif" font-size="10.00">+ ~TempExprNode()</text>
<text text-anchor="start" x="203" y="-18.5" font-family="Helvetica,sans-Serif" font-size="10.00">+ Realize()</text>
<text text-anchor="start" x="203" y="-7.5" font-family="Helvetica,sans-Serif" font-size="10.00">+ TVM_DECLARE_BASE_OBJECT_INFO()</text>
</g>
<!-- Node2 -->
<g id="node2" class="node"><title>Node2</title>
<g id="a_node2"><a xlink:href="classtvm_1_1RelayExprNode.html" target="_top" xlink:title="Base node of all non&#45;primitive expressions. ">
<polygon fill="white" stroke="black" points="195,-161.5 195,-240.5 399,-240.5 399,-161.5 195,-161.5"/>
<text text-anchor="middle" x="297" y="-228.5" font-family="Helvetica,sans-Serif" font-size="10.00">ExprNode</text>
<polyline fill="none" stroke="black" points="195,-221.5 399,-221.5 "/>
<text text-anchor="start" x="203" y="-209.5" font-family="Helvetica,sans-Serif" font-size="10.00">+ _type_key</text>
<polyline fill="none" stroke="black" points="195,-202.5 399,-202.5 "/>
<text text-anchor="start" x="203" y="-190.5" font-family="Helvetica,sans-Serif" font-size="10.00">+ checked_type()</text>
<text text-anchor="start" x="203" y="-179.5" font-family="Helvetica,sans-Serif" font-size="10.00">+ type_as()</text>
<text text-anchor="start" x="203" y="-168.5" font-family="Helvetica,sans-Serif" font-size="10.00">+ TVM_DECLARE_BASE_OBJECT_INFO()</text>
</a>
</g>
</g>
<!-- Node2&#45;&gt;Node1 -->
<g id="edge1" class="edge"><title>Node2&#45;&gt;Node1</title>
<path fill="none" stroke="midnightblue" d="M297,-151.215C297,-142.248 297,-132.788 297,-123.526"/>
<polygon fill="none" stroke="midnightblue" points="293.5,-151.473 297,-161.473 300.5,-151.473 293.5,-151.473"/>
</g>
<!-- Node3 -->
<g id="node3" class="node"><title>Node3</title>
<g id="a_node3"><a xlink:href="classtvm_1_1BaseExprNode.html" target="_top" xlink:title="Base type of all the expressions. ">
<polygon fill="white" stroke="black" points="0,-288.5 0,-389.5 204,-389.5 204,-288.5 0,-288.5"/>
<text text-anchor="middle" x="102" y="-377.5" font-family="Helvetica,sans-Serif" font-size="10.00">tvm::BaseExprNode</text>
<polyline fill="none" stroke="black" points="0,-370.5 204,-370.5 "/>
<text text-anchor="start" x="8" y="-358.5" font-family="Helvetica,sans-Serif" font-size="10.00">+ _type_key</text>
<text text-anchor="start" x="8" y="-347.5" font-family="Helvetica,sans-Serif" font-size="10.00">+ _type_has_method_sequal</text>
<text text-anchor="start" x="8" y="-336.5" font-family="Helvetica,sans-Serif" font-size="10.00">_reduce</text>
<text text-anchor="start" x="8" y="-325.5" font-family="Helvetica,sans-Serif" font-size="10.00">+ _type_has_method_shash</text>
<text text-anchor="start" x="8" y="-314.5" font-family="Helvetica,sans-Serif" font-size="10.00">_reduce</text>
<polyline fill="none" stroke="black" points="0,-307.5 204,-307.5 "/>
<text text-anchor="start" x="8" y="-295.5" font-family="Helvetica,sans-Serif" font-size="10.00">+ TVM_DECLARE_BASE_OBJECT_INFO()</text>
</a>
</g>
</g>
<!-- Node3&#45;&gt;Node2 -->
<g id="edge2" class="edge"><title>Node3&#45;&gt;Node2</title>
<path fill="none" stroke="midnightblue" d="M181.488,-282.562C201.644,-268.505 222.863,-253.706 241.538,-240.681"/>
<polygon fill="none" stroke="midnightblue" points="179.427,-279.732 173.227,-288.324 183.432,-285.474 179.427,-279.732"/>
</g>
<!-- Node4 -->
<g id="node4" class="node"><title>Node4</title>
<polygon fill="white" stroke="#bfbfbf" points="78.5,-427.5 78.5,-484.5 125.5,-484.5 125.5,-427.5 78.5,-427.5"/>
<text text-anchor="middle" x="102" y="-472.5" font-family="Helvetica,sans-Serif" font-size="10.00">Object</text>
<polyline fill="none" stroke="#bfbfbf" points="78.5,-465.5 125.5,-465.5 "/>
<text text-anchor="middle" x="102" y="-453.5" font-family="Helvetica,sans-Serif" font-size="10.00"> </text>
<polyline fill="none" stroke="#bfbfbf" points="78.5,-446.5 125.5,-446.5 "/>
<text text-anchor="middle" x="102" y="-434.5" font-family="Helvetica,sans-Serif" font-size="10.00"> </text>
</g>
<!-- Node4&#45;&gt;Node3 -->
<g id="edge3" class="edge"><title>Node4&#45;&gt;Node3</title>
<path fill="none" stroke="midnightblue" d="M102,-417.187C102,-408.435 102,-398.99 102,-389.812"/>
<polygon fill="none" stroke="midnightblue" points="98.5001,-417.455 102,-427.455 105.5,-417.455 98.5001,-417.455"/>
</g>
<!-- Node5 -->
<g id="node5" class="node"><title>Node5</title>
<g id="a_node5"><a xlink:href="classtvm_1_1Span.html" target="_top" xlink:title="{tvm::Span\n||+ TVM_DEFINE_OBJECT_REF\l_METHODS()\l}">
<polygon fill="white" stroke="black" points="222,-305 222,-373 372,-373 372,-305 222,-305"/>
<text text-anchor="middle" x="297" y="-361" font-family="Helvetica,sans-Serif" font-size="10.00">tvm::Span</text>
<polyline fill="none" stroke="black" points="222,-354 372,-354 "/>
<text text-anchor="middle" x="297" y="-342" font-family="Helvetica,sans-Serif" font-size="10.00"> </text>
<polyline fill="none" stroke="black" points="222,-335 372,-335 "/>
<text text-anchor="start" x="230" y="-323" font-family="Helvetica,sans-Serif" font-size="10.00">+ TVM_DEFINE_OBJECT_REF</text>
<text text-anchor="start" x="230" y="-312" font-family="Helvetica,sans-Serif" font-size="10.00">_METHODS()</text>
</a>
</g>
</g>
<!-- Node5&#45;&gt;Node2 -->
<g id="edge4" class="edge"><title>Node5&#45;&gt;Node2</title>
<path fill="none" stroke="#404040" d="M297,-304.731C297,-289.088 297,-270.095 297,-252.715"/>
<polygon fill="none" stroke="#404040" points="297,-252.709 293,-246.709 297,-240.709 301,-246.709 297,-252.709"/>
<text text-anchor="middle" x="314.5" y="-262" font-family="Helvetica,sans-Serif" font-size="10.00"> +span</text>
</g>
<!-- Node6 -->
<g id="node6" class="node"><title>Node6</title>
<polygon fill="white" stroke="#bfbfbf" points="350,-427.5 350,-484.5 412,-484.5 412,-427.5 350,-427.5"/>
<text text-anchor="middle" x="381" y="-472.5" font-family="Helvetica,sans-Serif" font-size="10.00">ObjectRef</text>
<polyline fill="none" stroke="#bfbfbf" points="350,-465.5 412,-465.5 "/>
<text text-anchor="middle" x="381" y="-453.5" font-family="Helvetica,sans-Serif" font-size="10.00"> </text>
<polyline fill="none" stroke="#bfbfbf" points="350,-446.5 412,-446.5 "/>
<text text-anchor="middle" x="381" y="-434.5" font-family="Helvetica,sans-Serif" font-size="10.00"> </text>
</g>
<!-- Node6&#45;&gt;Node5 -->
<g id="edge5" class="edge"><title>Node6&#45;&gt;Node5</title>
<path fill="none" stroke="midnightblue" d="M354.765,-419.083C344.019,-404.371 331.662,-387.454 321.142,-373.052"/>
<polygon fill="none" stroke="midnightblue" points="352.155,-421.444 360.88,-427.455 357.808,-417.315 352.155,-421.444"/>
</g>
<!-- Node7 -->
<g id="node7" class="node"><title>Node7</title>
<g id="a_node7"><a xlink:href="classtvm_1_1Type.html" target="_top" xlink:title="Managed reference to TypeNode. ">
<polygon fill="white" stroke="black" points="390,-305 390,-373 540,-373 540,-305 390,-305"/>
<text text-anchor="middle" x="465" y="-361" font-family="Helvetica,sans-Serif" font-size="10.00">tvm::Type</text>
<polyline fill="none" stroke="black" points="390,-354 540,-354 "/>
<text text-anchor="middle" x="465" y="-342" font-family="Helvetica,sans-Serif" font-size="10.00"> </text>
<polyline fill="none" stroke="black" points="390,-335 540,-335 "/>
<text text-anchor="start" x="398" y="-323" font-family="Helvetica,sans-Serif" font-size="10.00">+ TVM_DEFINE_OBJECT_REF</text>
<text text-anchor="start" x="398" y="-312" font-family="Helvetica,sans-Serif" font-size="10.00">_METHODS()</text>
</a>
</g>
</g>
<!-- Node6&#45;&gt;Node7 -->
<g id="edge7" class="edge"><title>Node6&#45;&gt;Node7</title>
<path fill="none" stroke="midnightblue" d="M407.235,-419.083C417.981,-404.371 430.338,-387.454 440.858,-373.052"/>
<polygon fill="none" stroke="midnightblue" points="404.192,-417.315 401.12,-427.455 409.845,-421.444 404.192,-417.315"/>
</g>
<!-- Node7&#45;&gt;Node2 -->
<g id="edge6" class="edge"><title>Node7&#45;&gt;Node2</title>
<path fill="none" stroke="#404040" d="M423.903,-304.731C402.993,-287.804 377.235,-266.952 354.401,-248.468"/>
<polygon fill="none" stroke="#404040" points="354.144,-248.26 346.964,-247.593 344.817,-240.709 351.997,-241.375 354.144,-248.26"/>
<text text-anchor="middle" x="422.5" y="-262" font-family="Helvetica,sans-Serif" font-size="10.00"> +checked_type_</text>
</g>
</g>
</svg>
