<?xml version="1.0" encoding="UTF-8" standalone="no"?>
<!DOCTYPE svg PUBLIC "-//W3C//DTD SVG 1.1//EN"
 "http://www.w3.org/Graphics/SVG/1.1/DTD/svg11.dtd">
<!-- Generated by graphviz version 2.38.0 (20140413.2041)
 -->
<!-- Title: tvm::relay::RefWriteNode Pages: 1 -->
<svg width="716pt" height="492pt"
 viewBox="0.00 0.00 716.00 492.00" xmlns="http://www.w3.org/2000/svg" xmlns:xlink="http://www.w3.org/1999/xlink">
<g id="graph0" class="graph" transform="scale(1 1) rotate(0) translate(4 488)">
<title>tvm::relay::RefWriteNode</title>
<polygon fill="white" stroke="none" points="-4,4 -4,-488 712,-488 712,4 -4,4"/>
<!-- Node1 -->
<g id="node1" class="node"><title>Node1</title>
<polygon fill="#bfbfbf" stroke="black" points="277.5,-0.5 277.5,-101.5 482.5,-101.5 482.5,-0.5 277.5,-0.5"/>
<text text-anchor="middle" x="380" y="-89.5" font-family="Helvetica,sans-Serif" font-size="10.00">tvm::relay::RefWriteNode</text>
<polyline fill="none" stroke="black" points="277.5,-82.5 482.5,-82.5 "/>
<text text-anchor="start" x="285.5" y="-70.5" font-family="Helvetica,sans-Serif" font-size="10.00">+ _type_key</text>
<polyline fill="none" stroke="black" points="277.5,-63.5 482.5,-63.5 "/>
<text text-anchor="start" x="285.5" y="-51.5" font-family="Helvetica,sans-Serif" font-size="10.00">+ VisitAttrs()</text>
<text text-anchor="start" x="285.5" y="-40.5" font-family="Helvetica,sans-Serif" font-size="10.00">+ SEqualReduce()</text>
<text text-anchor="start" x="285.5" y="-29.5" font-family="Helvetica,sans-Serif" font-size="10.00">+ SHashReduce()</text>
<text text-anchor="start" x="285.5" y="-18.5" font-family="Helvetica,sans-Serif" font-size="10.00">+ TVM_DECLARE_FINAL_OBJECT_INFO()</text>
<text text-anchor="start" x="285.5" y="-7.5" font-family="Helvetica,sans-Serif" font-size="10.00">+ make()</text>
</g>
<!-- Node2 -->
<g id="node2" class="node"><title>Node2</title>
<g id="a_node2"><a xlink:href="classtvm_1_1RelayExprNode.html" target="_top" xlink:title="Base node of all non&#45;primitive expressions. ">
<polygon fill="white" stroke="black" points="222,-160.5 222,-239.5 426,-239.5 426,-160.5 222,-160.5"/>
<text text-anchor="middle" x="324" y="-227.5" font-family="Helvetica,sans-Serif" font-size="10.00">ExprNode</text>
<polyline fill="none" stroke="black" points="222,-220.5 426,-220.5 "/>
<text text-anchor="start" x="230" y="-208.5" font-family="Helvetica,sans-Serif" font-size="10.00">+ _type_key</text>
<polyline fill="none" stroke="black" points="222,-201.5 426,-201.5 "/>
<text text-anchor="start" x="230" y="-189.5" font-family="Helvetica,sans-Serif" font-size="10.00">+ checked_type()</text>
<text text-anchor="start" x="230" y="-178.5" font-family="Helvetica,sans-Serif" font-size="10.00">+ type_as()</text>
<text text-anchor="start" x="230" y="-167.5" font-family="Helvetica,sans-Serif" font-size="10.00">+ TVM_DECLARE_BASE_OBJECT_INFO()</text>
</a>
</g>
</g>
<!-- Node2&#45;&gt;Node1 -->
<g id="edge1" class="edge"><title>Node2&#45;&gt;Node1</title>
<path fill="none" stroke="midnightblue" d="M342.349,-150.833C348.347,-135.088 355.019,-117.576 361.059,-101.719"/>
<polygon fill="none" stroke="midnightblue" points="339.003,-149.787 338.713,-160.377 345.544,-152.279 339.003,-149.787"/>
</g>
<!-- Node3 -->
<g id="node3" class="node"><title>Node3</title>
<g id="a_node3"><a xlink:href="classtvm_1_1BaseExprNode.html" target="_top" xlink:title="Base type of all the expressions. ">
<polygon fill="white" stroke="black" points="0,-287.5 0,-388.5 204,-388.5 204,-287.5 0,-287.5"/>
<text text-anchor="middle" x="102" y="-376.5" font-family="Helvetica,sans-Serif" font-size="10.00">tvm::BaseExprNode</text>
<polyline fill="none" stroke="black" points="0,-369.5 204,-369.5 "/>
<text text-anchor="start" x="8" y="-357.5" font-family="Helvetica,sans-Serif" font-size="10.00">+ _type_key</text>
<text text-anchor="start" x="8" y="-346.5" font-family="Helvetica,sans-Serif" font-size="10.00">+ _type_has_method_sequal</text>
<text text-anchor="start" x="8" y="-335.5" font-family="Helvetica,sans-Serif" font-size="10.00">_reduce</text>
<text text-anchor="start" x="8" y="-324.5" font-family="Helvetica,sans-Serif" font-size="10.00">+ _type_has_method_shash</text>
<text text-anchor="start" x="8" y="-313.5" font-family="Helvetica,sans-Serif" font-size="10.00">_reduce</text>
<polyline fill="none" stroke="black" points="0,-306.5 204,-306.5 "/>
<text text-anchor="start" x="8" y="-294.5" font-family="Helvetica,sans-Serif" font-size="10.00">+ TVM_DECLARE_BASE_OBJECT_INFO()</text>
</a>
</g>
</g>
<!-- Node3&#45;&gt;Node2 -->
<g id="edge2" class="edge"><title>Node3&#45;&gt;Node2</title>
<path fill="none" stroke="midnightblue" d="M191.883,-281.937C215.011,-267.768 239.409,-252.821 260.859,-239.681"/>
<polygon fill="none" stroke="midnightblue" points="189.788,-279.115 183.089,-287.324 193.445,-285.084 189.788,-279.115"/>
</g>
<!-- Node4 -->
<g id="node4" class="node"><title>Node4</title>
<polygon fill="white" stroke="#bfbfbf" points="78.5,-426.5 78.5,-483.5 125.5,-483.5 125.5,-426.5 78.5,-426.5"/>
<text text-anchor="middle" x="102" y="-471.5" font-family="Helvetica,sans-Serif" font-size="10.00">Object</text>
<polyline fill="none" stroke="#bfbfbf" points="78.5,-464.5 125.5,-464.5 "/>
<text text-anchor="middle" x="102" y="-452.5" font-family="Helvetica,sans-Serif" font-size="10.00"> </text>
<polyline fill="none" stroke="#bfbfbf" points="78.5,-445.5 125.5,-445.5 "/>
<text text-anchor="middle" x="102" y="-433.5" font-family="Helvetica,sans-Serif" font-size="10.00"> </text>
</g>
<!-- Node4&#45;&gt;Node3 -->
<g id="edge3" class="edge"><title>Node4&#45;&gt;Node3</title>
<path fill="none" stroke="midnightblue" d="M102,-416.187C102,-407.435 102,-397.99 102,-388.812"/>
<polygon fill="none" stroke="midnightblue" points="98.5001,-416.455 102,-426.455 105.5,-416.455 98.5001,-416.455"/>
</g>
<!-- Node5 -->
<g id="node5" class="node"><title>Node5</title>
<g id="a_node5"><a xlink:href="classtvm_1_1Span.html" target="_top" xlink:title="{tvm::Span\n||+ TVM_DEFINE_OBJECT_REF\l_METHODS()\l}">
<polygon fill="white" stroke="black" points="222,-304 222,-372 372,-372 372,-304 222,-304"/>
<text text-anchor="middle" x="297" y="-360" font-family="Helvetica,sans-Serif" font-size="10.00">tvm::Span</text>
<polyline fill="none" stroke="black" points="222,-353 372,-353 "/>
<text text-anchor="middle" x="297" y="-341" font-family="Helvetica,sans-Serif" font-size="10.00"> </text>
<polyline fill="none" stroke="black" points="222,-334 372,-334 "/>
<text text-anchor="start" x="230" y="-322" font-family="Helvetica,sans-Serif" font-size="10.00">+ TVM_DEFINE_OBJECT_REF</text>
<text text-anchor="start" x="230" y="-311" font-family="Helvetica,sans-Serif" font-size="10.00">_METHODS()</text>
</a>
</g>
</g>
<!-- Node5&#45;&gt;Node2 -->
<g id="edge4" class="edge"><title>Node5&#45;&gt;Node2</title>
<path fill="none" stroke="#404040" d="M303.605,-303.731C306.71,-288.088 310.481,-269.095 313.932,-251.715"/>
<polygon fill="none" stroke="#404040" points="313.978,-251.479 311.223,-244.815 316.315,-239.709 319.07,-246.373 313.978,-251.479"/>
<text text-anchor="middle" x="330.5" y="-261" font-family="Helvetica,sans-Serif" font-size="10.00"> +span</text>
</g>
<!-- Node6 -->
<g id="node6" class="node"><title>Node6</title>
<polygon fill="white" stroke="#bfbfbf" points="434,-426.5 434,-483.5 496,-483.5 496,-426.5 434,-426.5"/>
<text text-anchor="middle" x="465" y="-471.5" font-family="Helvetica,sans-Serif" font-size="10.00">ObjectRef</text>
<polyline fill="none" stroke="#bfbfbf" points="434,-464.5 496,-464.5 "/>
<text text-anchor="middle" x="465" y="-452.5" font-family="Helvetica,sans-Serif" font-size="10.00"> </text>
<polyline fill="none" stroke="#bfbfbf" points="434,-445.5 496,-445.5 "/>
<text text-anchor="middle" x="465" y="-433.5" font-family="Helvetica,sans-Serif" font-size="10.00"> </text>
</g>
<!-- Node6&#45;&gt;Node5 -->
<g id="edge5" class="edge"><title>Node6&#45;&gt;Node5</title>
<path fill="none" stroke="midnightblue" d="M425.287,-426.815C401.305,-410.399 370.58,-389.367 345.211,-372.001"/>
<polygon fill="none" stroke="midnightblue" points="423.565,-429.878 433.794,-432.639 427.519,-424.102 423.565,-429.878"/>
</g>
<!-- Node7 -->
<g id="node7" class="node"><title>Node7</title>
<g id="a_node7"><a xlink:href="classtvm_1_1Type.html" target="_top" xlink:title="Managed reference to TypeNode. ">
<polygon fill="white" stroke="black" points="390,-304 390,-372 540,-372 540,-304 390,-304"/>
<text text-anchor="middle" x="465" y="-360" font-family="Helvetica,sans-Serif" font-size="10.00">tvm::Type</text>
<polyline fill="none" stroke="black" points="390,-353 540,-353 "/>
<text text-anchor="middle" x="465" y="-341" font-family="Helvetica,sans-Serif" font-size="10.00"> </text>
<polyline fill="none" stroke="black" points="390,-334 540,-334 "/>
<text text-anchor="start" x="398" y="-322" font-family="Helvetica,sans-Serif" font-size="10.00">+ TVM_DEFINE_OBJECT_REF</text>
<text text-anchor="start" x="398" y="-311" font-family="Helvetica,sans-Serif" font-size="10.00">_METHODS()</text>
</a>
</g>
</g>
<!-- Node6&#45;&gt;Node7 -->
<g id="edge7" class="edge"><title>Node6&#45;&gt;Node7</title>
<path fill="none" stroke="midnightblue" d="M465,-416.424C465,-402.11 465,-385.916 465,-372.052"/>
<polygon fill="none" stroke="midnightblue" points="461.5,-416.455 465,-426.455 468.5,-416.455 461.5,-416.455"/>
</g>
<!-- Node9 -->
<g id="node9" class="node"><title>Node9</title>
<g id="a_node9"><a xlink:href="classtvm_1_1BaseExpr.html" target="_top" xlink:title="Managed reference to BaseExprNode. ">
<polygon fill="white" stroke="black" points="558,-304 558,-372 708,-372 708,-304 558,-304"/>
<text text-anchor="middle" x="633" y="-360" font-family="Helvetica,sans-Serif" font-size="10.00">tvm::BaseExpr</text>
<polyline fill="none" stroke="black" points="558,-353 708,-353 "/>
<text text-anchor="middle" x="633" y="-341" font-family="Helvetica,sans-Serif" font-size="10.00"> </text>
<polyline fill="none" stroke="black" points="558,-334 708,-334 "/>
<text text-anchor="start" x="566" y="-322" font-family="Helvetica,sans-Serif" font-size="10.00">+ TVM_DEFINE_OBJECT_REF</text>
<text text-anchor="start" x="566" y="-311" font-family="Helvetica,sans-Serif" font-size="10.00">_METHODS()</text>
</a>
</g>
</g>
<!-- Node6&#45;&gt;Node9 -->
<g id="edge10" class="edge"><title>Node6&#45;&gt;Node9</title>
<path fill="none" stroke="midnightblue" d="M504.713,-426.815C528.695,-410.399 559.42,-389.367 584.789,-372.001"/>
<polygon fill="none" stroke="midnightblue" points="502.481,-424.102 496.206,-432.639 506.435,-429.878 502.481,-424.102"/>
</g>
<!-- Node7&#45;&gt;Node2 -->
<g id="edge6" class="edge"><title>Node7&#45;&gt;Node2</title>
<path fill="none" stroke="#404040" d="M430.508,-303.731C413.193,-287.031 391.919,-266.51 372.947,-248.212"/>
<polygon fill="none" stroke="#404040" points="372.769,-248.04 365.674,-246.754 364.132,-239.709 371.228,-240.996 372.769,-248.04"/>
<text text-anchor="middle" x="436.5" y="-261" font-family="Helvetica,sans-Serif" font-size="10.00"> +checked_type_</text>
</g>
<!-- Node8 -->
<g id="node8" class="node"><title>Node8</title>
<g id="a_node8"><a xlink:href="classtvm_1_1RelayExpr.html" target="_top" xlink:title="Managed reference to RelayExprNode. ">
<polygon fill="white" stroke="black" points="479,-166 479,-234 629,-234 629,-166 479,-166"/>
<text text-anchor="middle" x="554" y="-222" font-family="Helvetica,sans-Serif" font-size="10.00">tvm::RelayExpr</text>
<polyline fill="none" stroke="black" points="479,-215 629,-215 "/>
<text text-anchor="middle" x="554" y="-203" font-family="Helvetica,sans-Serif" font-size="10.00"> </text>
<polyline fill="none" stroke="black" points="479,-196 629,-196 "/>
<text text-anchor="start" x="487" y="-184" font-family="Helvetica,sans-Serif" font-size="10.00">+ TVM_DEFINE_OBJECT_REF</text>
<text text-anchor="start" x="487" y="-173" font-family="Helvetica,sans-Serif" font-size="10.00">_METHODS()</text>
</a>
</g>
</g>
<!-- Node8&#45;&gt;Node1 -->
<g id="edge8" class="edge"><title>Node8&#45;&gt;Node1</title>
<path fill="none" stroke="#404040" d="M514.517,-165.643C494.865,-149.041 470.546,-128.496 448.014,-109.46"/>
<polygon fill="none" stroke="#404040" points="447.986,-109.436 440.821,-108.62 438.819,-101.692 445.984,-102.509 447.986,-109.436"/>
<text text-anchor="middle" x="501.5" y="-134" font-family="Helvetica,sans-Serif" font-size="10.00"> +value</text>
<text text-anchor="middle" x="501.5" y="-123" font-family="Helvetica,sans-Serif" font-size="10.00">+ref</text>
</g>
<!-- Node9&#45;&gt;Node8 -->
<g id="edge9" class="edge"><title>Node9&#45;&gt;Node8</title>
<path fill="none" stroke="midnightblue" d="M608.626,-295.04C597.304,-275.548 584.028,-252.694 573.4,-234.397"/>
<polygon fill="none" stroke="midnightblue" points="605.625,-296.842 613.674,-303.731 611.678,-293.326 605.625,-296.842"/>
</g>
</g>
</svg>
