<?xml version="1.0" encoding="UTF-8" standalone="no"?>
<!DOCTYPE svg PUBLIC "-//W3C//DTD SVG 1.1//EN"
 "http://www.w3.org/Graphics/SVG/1.1/DTD/svg11.dtd">
<!-- Generated by graphviz version 2.38.0 (20140413.2041)
 -->
<!-- Title: tvm::ConstructorNode Pages: 1 -->
<svg width="650pt" height="660pt"
 viewBox="0.00 0.00 649.50 660.00" xmlns="http://www.w3.org/2000/svg" xmlns:xlink="http://www.w3.org/1999/xlink">
<g id="graph0" class="graph" transform="scale(1 1) rotate(0) translate(4 656)">
<title>tvm::ConstructorNode</title>
<polygon fill="white" stroke="none" points="-4,4 -4,-656 645.5,-656 645.5,4 -4,4"/>
<!-- Node1 -->
<g id="node1" class="node"><title>Node1</title>
<polygon fill="#bfbfbf" stroke="black" points="362.5,-0.5 362.5,-123.5 567.5,-123.5 567.5,-0.5 362.5,-0.5"/>
<text text-anchor="middle" x="465" y="-111.5" font-family="Helvetica,sans-Serif" font-size="10.00">tvm::ConstructorNode</text>
<polyline fill="none" stroke="black" points="362.5,-104.5 567.5,-104.5 "/>
<text text-anchor="start" x="370.5" y="-92.5" font-family="Helvetica,sans-Serif" font-size="10.00">+ name_hint</text>
<text text-anchor="start" x="370.5" y="-81.5" font-family="Helvetica,sans-Serif" font-size="10.00">+ tag</text>
<text text-anchor="start" x="370.5" y="-70.5" font-family="Helvetica,sans-Serif" font-size="10.00">+ _type_key</text>
<polyline fill="none" stroke="black" points="362.5,-63.5 567.5,-63.5 "/>
<text text-anchor="start" x="370.5" y="-51.5" font-family="Helvetica,sans-Serif" font-size="10.00">+ ConstructorNode()</text>
<text text-anchor="start" x="370.5" y="-40.5" font-family="Helvetica,sans-Serif" font-size="10.00">+ VisitAttrs()</text>
<text text-anchor="start" x="370.5" y="-29.5" font-family="Helvetica,sans-Serif" font-size="10.00">+ SEqualReduce()</text>
<text text-anchor="start" x="370.5" y="-18.5" font-family="Helvetica,sans-Serif" font-size="10.00">+ SHashReduce()</text>
<text text-anchor="start" x="370.5" y="-7.5" font-family="Helvetica,sans-Serif" font-size="10.00">+ TVM_DECLARE_FINAL_OBJECT_INFO()</text>
</g>
<!-- Node2 -->
<g id="node2" class="node"><title>Node2</title>
<g id="a_node2"><a xlink:href="classtvm_1_1RelayExprNode.html" target="_top" xlink:title="Base node of all non&#45;primitive expressions. ">
<polygon fill="white" stroke="black" points="168,-171.5 168,-250.5 372,-250.5 372,-171.5 168,-171.5"/>
<text text-anchor="middle" x="270" y="-238.5" font-family="Helvetica,sans-Serif" font-size="10.00">tvm::RelayExprNode</text>
<polyline fill="none" stroke="black" points="168,-231.5 372,-231.5 "/>
<text text-anchor="start" x="176" y="-219.5" font-family="Helvetica,sans-Serif" font-size="10.00">+ _type_key</text>
<polyline fill="none" stroke="black" points="168,-212.5 372,-212.5 "/>
<text text-anchor="start" x="176" y="-200.5" font-family="Helvetica,sans-Serif" font-size="10.00">+ checked_type()</text>
<text text-anchor="start" x="176" y="-189.5" font-family="Helvetica,sans-Serif" font-size="10.00">+ type_as()</text>
<text text-anchor="start" x="176" y="-178.5" font-family="Helvetica,sans-Serif" font-size="10.00">+ TVM_DECLARE_BASE_OBJECT_INFO()</text>
</a>
</g>
</g>
<!-- Node2&#45;&gt;Node1 -->
<g id="edge1" class="edge"><title>Node2&#45;&gt;Node1</title>
<path fill="none" stroke="midnightblue" d="M329.599,-165.072C346.974,-151.973 366.252,-137.441 384.683,-123.546"/>
<polygon fill="none" stroke="midnightblue" points="327.112,-162.563 321.234,-171.377 331.326,-168.153 327.112,-162.563"/>
</g>
<!-- Node3 -->
<g id="node3" class="node"><title>Node3</title>
<g id="a_node3"><a xlink:href="classtvm_1_1BaseExprNode.html" target="_top" xlink:title="Base type of all the expressions. ">
<polygon fill="white" stroke="black" points="0,-455.5 0,-556.5 204,-556.5 204,-455.5 0,-455.5"/>
<text text-anchor="middle" x="102" y="-544.5" font-family="Helvetica,sans-Serif" font-size="10.00">tvm::BaseExprNode</text>
<polyline fill="none" stroke="black" points="0,-537.5 204,-537.5 "/>
<text text-anchor="start" x="8" y="-525.5" font-family="Helvetica,sans-Serif" font-size="10.00">+ _type_key</text>
<text text-anchor="start" x="8" y="-514.5" font-family="Helvetica,sans-Serif" font-size="10.00">+ _type_has_method_sequal</text>
<text text-anchor="start" x="8" y="-503.5" font-family="Helvetica,sans-Serif" font-size="10.00">_reduce</text>
<text text-anchor="start" x="8" y="-492.5" font-family="Helvetica,sans-Serif" font-size="10.00">+ _type_has_method_shash</text>
<text text-anchor="start" x="8" y="-481.5" font-family="Helvetica,sans-Serif" font-size="10.00">_reduce</text>
<polyline fill="none" stroke="black" points="0,-474.5 204,-474.5 "/>
<text text-anchor="start" x="8" y="-462.5" font-family="Helvetica,sans-Serif" font-size="10.00">+ TVM_DECLARE_BASE_OBJECT_INFO()</text>
</a>
</g>
</g>
<!-- Node3&#45;&gt;Node2 -->
<g id="edge2" class="edge"><title>Node3&#45;&gt;Node2</title>
<path fill="none" stroke="midnightblue" d="M135.497,-446.579C168.856,-388.401 219.113,-300.749 247.813,-250.696"/>
<polygon fill="none" stroke="midnightblue" points="132.437,-444.88 130.499,-455.297 138.509,-448.362 132.437,-444.88"/>
</g>
<!-- Node4 -->
<g id="node4" class="node"><title>Node4</title>
<polygon fill="white" stroke="#bfbfbf" points="78.5,-594.5 78.5,-651.5 125.5,-651.5 125.5,-594.5 78.5,-594.5"/>
<text text-anchor="middle" x="102" y="-639.5" font-family="Helvetica,sans-Serif" font-size="10.00">Object</text>
<polyline fill="none" stroke="#bfbfbf" points="78.5,-632.5 125.5,-632.5 "/>
<text text-anchor="middle" x="102" y="-620.5" font-family="Helvetica,sans-Serif" font-size="10.00"> </text>
<polyline fill="none" stroke="#bfbfbf" points="78.5,-613.5 125.5,-613.5 "/>
<text text-anchor="middle" x="102" y="-601.5" font-family="Helvetica,sans-Serif" font-size="10.00"> </text>
</g>
<!-- Node4&#45;&gt;Node3 -->
<g id="edge3" class="edge"><title>Node4&#45;&gt;Node3</title>
<path fill="none" stroke="midnightblue" d="M102,-584.187C102,-575.435 102,-565.99 102,-556.812"/>
<polygon fill="none" stroke="midnightblue" points="98.5001,-584.455 102,-594.455 105.5,-584.455 98.5001,-584.455"/>
</g>
<!-- Node5 -->
<g id="node5" class="node"><title>Node5</title>
<g id="a_node5"><a xlink:href="classtvm_1_1Span.html" target="_top" xlink:title="{tvm::Span\n||+ TVM_DEFINE_OBJECT_REF\l_METHODS()\l}">
<polygon fill="white" stroke="black" points="222,-472 222,-540 372,-540 372,-472 222,-472"/>
<text text-anchor="middle" x="297" y="-528" font-family="Helvetica,sans-Serif" font-size="10.00">tvm::Span</text>
<polyline fill="none" stroke="black" points="222,-521 372,-521 "/>
<text text-anchor="middle" x="297" y="-509" font-family="Helvetica,sans-Serif" font-size="10.00"> </text>
<polyline fill="none" stroke="black" points="222,-502 372,-502 "/>
<text text-anchor="start" x="230" y="-490" font-family="Helvetica,sans-Serif" font-size="10.00">+ TVM_DEFINE_OBJECT_REF</text>
<text text-anchor="start" x="230" y="-479" font-family="Helvetica,sans-Serif" font-size="10.00">_METHODS()</text>
</a>
</g>
</g>
<!-- Node5&#45;&gt;Node2 -->
<g id="edge4" class="edge"><title>Node5&#45;&gt;Node2</title>
<path fill="none" stroke="#404040" d="M293.955,-471.959C289.269,-421.099 280.25,-323.233 274.715,-263.164"/>
<polygon fill="none" stroke="#404040" points="274.691,-262.9 270.157,-257.292 273.589,-250.951 278.123,-256.558 274.691,-262.9"/>
<text text-anchor="middle" x="308.5" y="-350.5" font-family="Helvetica,sans-Serif" font-size="10.00"> +span</text>
</g>
<!-- Node6 -->
<g id="node6" class="node"><title>Node6</title>
<polygon fill="white" stroke="#bfbfbf" points="434,-594.5 434,-651.5 496,-651.5 496,-594.5 434,-594.5"/>
<text text-anchor="middle" x="465" y="-639.5" font-family="Helvetica,sans-Serif" font-size="10.00">ObjectRef</text>
<polyline fill="none" stroke="#bfbfbf" points="434,-632.5 496,-632.5 "/>
<text text-anchor="middle" x="465" y="-620.5" font-family="Helvetica,sans-Serif" font-size="10.00"> </text>
<polyline fill="none" stroke="#bfbfbf" points="434,-613.5 496,-613.5 "/>
<text text-anchor="middle" x="465" y="-601.5" font-family="Helvetica,sans-Serif" font-size="10.00"> </text>
</g>
<!-- Node6&#45;&gt;Node5 -->
<g id="edge5" class="edge"><title>Node6&#45;&gt;Node5</title>
<path fill="none" stroke="midnightblue" d="M425.287,-594.815C401.305,-578.399 370.58,-557.367 345.211,-540.001"/>
<polygon fill="none" stroke="midnightblue" points="423.565,-597.878 433.794,-600.639 427.519,-592.102 423.565,-597.878"/>
</g>
<!-- Node7 -->
<g id="node7" class="node"><title>Node7</title>
<g id="a_node7"><a xlink:href="classtvm_1_1Type.html" target="_top" xlink:title="Managed reference to TypeNode. ">
<polygon fill="white" stroke="black" points="390,-472 390,-540 540,-540 540,-472 390,-472"/>
<text text-anchor="middle" x="465" y="-528" font-family="Helvetica,sans-Serif" font-size="10.00">tvm::Type</text>
<polyline fill="none" stroke="black" points="390,-521 540,-521 "/>
<text text-anchor="middle" x="465" y="-509" font-family="Helvetica,sans-Serif" font-size="10.00"> </text>
<polyline fill="none" stroke="black" points="390,-502 540,-502 "/>
<text text-anchor="start" x="398" y="-490" font-family="Helvetica,sans-Serif" font-size="10.00">+ TVM_DEFINE_OBJECT_REF</text>
<text text-anchor="start" x="398" y="-479" font-family="Helvetica,sans-Serif" font-size="10.00">_METHODS()</text>
</a>
</g>
</g>
<!-- Node6&#45;&gt;Node7 -->
<g id="edge7" class="edge"><title>Node6&#45;&gt;Node7</title>
<path fill="none" stroke="midnightblue" d="M465,-584.424C465,-570.11 465,-553.916 465,-540.052"/>
<polygon fill="none" stroke="midnightblue" points="461.5,-584.455 465,-594.455 468.5,-584.455 461.5,-584.455"/>
</g>
<!-- Node9 -->
<g id="node9" class="node"><title>Node9</title>
<g id="a_node9"><a xlink:href="classtvm_1_1Array.html" target="_top" xlink:title="{tvm::Array\&lt; tvm::Type \&gt;\n||+ Array()\l+ Array()\l+ Array()\l+ Array()\l+ Array()\l+ Array()\l+ Array()\l+ Array()\l+ operator=()\l+ operator=()\land 13 more...\l}">
<polygon fill="white" stroke="black" points="506.5,-269.5 506.5,-436.5 641.5,-436.5 641.5,-269.5 506.5,-269.5"/>
<text text-anchor="middle" x="574" y="-424.5" font-family="Helvetica,sans-Serif" font-size="10.00">tvm::Array&lt; tvm::Type &gt;</text>
<polyline fill="none" stroke="black" points="506.5,-417.5 641.5,-417.5 "/>
<text text-anchor="middle" x="574" y="-405.5" font-family="Helvetica,sans-Serif" font-size="10.00"> </text>
<polyline fill="none" stroke="black" points="506.5,-398.5 641.5,-398.5 "/>
<text text-anchor="start" x="514.5" y="-386.5" font-family="Helvetica,sans-Serif" font-size="10.00">+ Array()</text>
<text text-anchor="start" x="514.5" y="-375.5" font-family="Helvetica,sans-Serif" font-size="10.00">+ Array()</text>
<text text-anchor="start" x="514.5" y="-364.5" font-family="Helvetica,sans-Serif" font-size="10.00">+ Array()</text>
<text text-anchor="start" x="514.5" y="-353.5" font-family="Helvetica,sans-Serif" font-size="10.00">+ Array()</text>
<text text-anchor="start" x="514.5" y="-342.5" font-family="Helvetica,sans-Serif" font-size="10.00">+ Array()</text>
<text text-anchor="start" x="514.5" y="-331.5" font-family="Helvetica,sans-Serif" font-size="10.00">+ Array()</text>
<text text-anchor="start" x="514.5" y="-320.5" font-family="Helvetica,sans-Serif" font-size="10.00">+ Array()</text>
<text text-anchor="start" x="514.5" y="-309.5" font-family="Helvetica,sans-Serif" font-size="10.00">+ Array()</text>
<text text-anchor="start" x="514.5" y="-298.5" font-family="Helvetica,sans-Serif" font-size="10.00">+ operator=()</text>
<text text-anchor="start" x="514.5" y="-287.5" font-family="Helvetica,sans-Serif" font-size="10.00">+ operator=()</text>
<text text-anchor="start" x="514.5" y="-276.5" font-family="Helvetica,sans-Serif" font-size="10.00">and 13 more...</text>
</a>
</g>
</g>
<!-- Node6&#45;&gt;Node9 -->
<g id="edge11" class="edge"><title>Node6&#45;&gt;Node9</title>
<path fill="none" stroke="midnightblue" d="M505.042,-600.539C521.362,-589.692 538.765,-574.984 549,-557 569.549,-520.892 576.537,-475.387 578.067,-436.616"/>
<polygon fill="none" stroke="midnightblue" points="502.724,-597.864 496.14,-606.165 506.463,-603.782 502.724,-597.864"/>
</g>
<!-- Node7&#45;&gt;Node2 -->
<g id="edge6" class="edge"><title>Node7&#45;&gt;Node2</title>
<path fill="none" stroke="#404040" d="M411.685,-471.889C399.161,-461.984 386.89,-450.196 378,-437 334.613,-372.596 370.235,-335.418 330,-269 328.185,-266.005 326.172,-263.063 324.015,-260.192"/>
<polygon fill="none" stroke="#404040" points="323.842,-259.982 316.938,-257.9 316.204,-250.727 323.108,-252.808 323.842,-259.982"/>
<text text-anchor="middle" x="419.5" y="-350.5" font-family="Helvetica,sans-Serif" font-size="10.00"> +checked_type_</text>
</g>
<!-- Node8 -->
<g id="node8" class="node"><title>Node8</title>
<g id="a_node8"><a xlink:href="classtvm_1_1GlobalTypeVar.html" target="_top" xlink:title="Managed reference to GlobalTypeVarNode. ">
<polygon fill="white" stroke="black" points="390,-171.5 390,-250.5 540,-250.5 540,-171.5 390,-171.5"/>
<text text-anchor="middle" x="465" y="-238.5" font-family="Helvetica,sans-Serif" font-size="10.00">tvm::GlobalTypeVar</text>
<polyline fill="none" stroke="black" points="390,-231.5 540,-231.5 "/>
<text text-anchor="middle" x="465" y="-219.5" font-family="Helvetica,sans-Serif" font-size="10.00"> </text>
<polyline fill="none" stroke="black" points="390,-212.5 540,-212.5 "/>
<text text-anchor="start" x="398" y="-200.5" font-family="Helvetica,sans-Serif" font-size="10.00">+ GlobalTypeVar()</text>
<text text-anchor="start" x="398" y="-189.5" font-family="Helvetica,sans-Serif" font-size="10.00">+ TVM_DEFINE_OBJECT_REF</text>
<text text-anchor="start" x="398" y="-178.5" font-family="Helvetica,sans-Serif" font-size="10.00">_METHODS()</text>
</a>
</g>
</g>
<!-- Node7&#45;&gt;Node8 -->
<g id="edge9" class="edge"><title>Node7&#45;&gt;Node8</title>
<path fill="none" stroke="midnightblue" d="M465,-461.848C465,-404.95 465,-305.667 465,-250.951"/>
<polygon fill="none" stroke="midnightblue" points="461.5,-461.959 465,-471.959 468.5,-461.959 461.5,-461.959"/>
</g>
<!-- Node8&#45;&gt;Node1 -->
<g id="edge8" class="edge"><title>Node8&#45;&gt;Node1</title>
<path fill="none" stroke="#404040" d="M465,-171.377C465,-160.404 465,-148.08 465,-135.783"/>
<polygon fill="none" stroke="#404040" points="465,-135.546 461,-129.546 465,-123.546 469,-129.546 465,-135.546"/>
<text text-anchor="middle" x="494.5" y="-145" font-family="Helvetica,sans-Serif" font-size="10.00"> +belong_to</text>
</g>
<!-- Node9&#45;&gt;Node1 -->
<g id="edge10" class="edge"><title>Node9&#45;&gt;Node1</title>
<path fill="none" stroke="#404040" d="M571.08,-269.176C567.792,-237.567 561.357,-201.76 549,-171 543.777,-157.999 536.502,-145.255 528.397,-133.341"/>
<polygon fill="none" stroke="#404040" points="528.379,-133.317 521.641,-130.748 521.42,-123.541 528.159,-126.109 528.379,-133.317"/>
<text text-anchor="middle" x="589.5" y="-208.5" font-family="Helvetica,sans-Serif" font-size="10.00"> +inputs</text>
</g>
</g>
</svg>
