<?xml version="1.0" encoding="UTF-8" standalone="no"?>
<!DOCTYPE svg PUBLIC "-//W3C//DTD SVG 1.1//EN"
 "http://www.w3.org/Graphics/SVG/1.1/DTD/svg11.dtd">
<!-- Generated by graphviz version 2.38.0 (20140413.2041)
 -->
<!-- Title: tvm::tir::Var Pages: 1 -->
<svg width="158pt" height="596pt"
 viewBox="0.00 0.00 158.00 596.00" xmlns="http://www.w3.org/2000/svg" xmlns:xlink="http://www.w3.org/1999/xlink">
<g id="graph0" class="graph" transform="scale(1 1) rotate(0) translate(4 592)">
<title>tvm::tir::Var</title>
<polygon fill="white" stroke="none" points="-4,4 -4,-592 154,-592 154,4 -4,4"/>
<!-- Node1 -->
<g id="node1" class="node"><title>Node1</title>
<polygon fill="#bfbfbf" stroke="black" points="19,-127.5 19,-239.5 131,-239.5 131,-127.5 19,-127.5"/>
<text text-anchor="middle" x="75" y="-227.5" font-family="Helvetica,sans-Serif" font-size="10.00">tvm::tir::Var</text>
<polyline fill="none" stroke="black" points="19,-220.5 131,-220.5 "/>
<text text-anchor="middle" x="75" y="-208.5" font-family="Helvetica,sans-Serif" font-size="10.00"> </text>
<polyline fill="none" stroke="black" points="19,-201.5 131,-201.5 "/>
<text text-anchor="start" x="27" y="-189.5" font-family="Helvetica,sans-Serif" font-size="10.00">+ Var()</text>
<text text-anchor="start" x="27" y="-178.5" font-family="Helvetica,sans-Serif" font-size="10.00">+ Var()</text>
<text text-anchor="start" x="27" y="-167.5" font-family="Helvetica,sans-Serif" font-size="10.00">+ Var()</text>
<text text-anchor="start" x="27" y="-156.5" font-family="Helvetica,sans-Serif" font-size="10.00">+ copy_with_suffix()</text>
<text text-anchor="start" x="27" y="-145.5" font-family="Helvetica,sans-Serif" font-size="10.00">+ operator&#45;&gt;()</text>
<text text-anchor="start" x="27" y="-134.5" font-family="Helvetica,sans-Serif" font-size="10.00">+ get()</text>
</g>
<!-- Node5 -->
<g id="node5" class="node"><title>Node5</title>
<g id="a_node5"><a xlink:href="classtvm_1_1tir_1_1SizeVar.html" target="_top" xlink:title="a named variable represents a tensor index size ">
<polygon fill="white" stroke="black" points="28.5,-0.5 28.5,-90.5 121.5,-90.5 121.5,-0.5 28.5,-0.5"/>
<text text-anchor="middle" x="75" y="-78.5" font-family="Helvetica,sans-Serif" font-size="10.00">tvm::tir::SizeVar</text>
<polyline fill="none" stroke="black" points="28.5,-71.5 121.5,-71.5 "/>
<text text-anchor="middle" x="75" y="-59.5" font-family="Helvetica,sans-Serif" font-size="10.00"> </text>
<polyline fill="none" stroke="black" points="28.5,-52.5 121.5,-52.5 "/>
<text text-anchor="start" x="36.5" y="-40.5" font-family="Helvetica,sans-Serif" font-size="10.00">+ SizeVar()</text>
<text text-anchor="start" x="36.5" y="-29.5" font-family="Helvetica,sans-Serif" font-size="10.00">+ SizeVar()</text>
<text text-anchor="start" x="36.5" y="-18.5" font-family="Helvetica,sans-Serif" font-size="10.00">+ operator&#45;&gt;()</text>
<text text-anchor="start" x="36.5" y="-7.5" font-family="Helvetica,sans-Serif" font-size="10.00">+ get()</text>
</a>
</g>
</g>
<!-- Node1&#45;&gt;Node5 -->
<g id="edge4" class="edge"><title>Node1&#45;&gt;Node5</title>
<path fill="none" stroke="midnightblue" d="M75,-117.076C75,-108.072 75,-99.0069 75,-90.5144"/>
<polygon fill="none" stroke="midnightblue" points="71.5001,-117.184 75,-127.184 78.5001,-117.184 71.5001,-117.184"/>
</g>
<!-- Node2 -->
<g id="node2" class="node"><title>Node2</title>
<g id="a_node2"><a xlink:href="classtvm_1_1PrimExpr.html" target="_top" xlink:title="Reference to PrimExprNode. ">
<polygon fill="white" stroke="black" points="-1.42109e-14,-276.5 -1.42109e-14,-388.5 150,-388.5 150,-276.5 -1.42109e-14,-276.5"/>
<text text-anchor="middle" x="75" y="-376.5" font-family="Helvetica,sans-Serif" font-size="10.00">tvm::PrimExpr</text>
<polyline fill="none" stroke="black" points="-1.42109e-14,-369.5 150,-369.5 "/>
<text text-anchor="middle" x="75" y="-357.5" font-family="Helvetica,sans-Serif" font-size="10.00"> </text>
<polyline fill="none" stroke="black" points="-1.42109e-14,-350.5 150,-350.5 "/>
<text text-anchor="start" x="8" y="-338.5" font-family="Helvetica,sans-Serif" font-size="10.00">+ PrimExpr()</text>
<text text-anchor="start" x="8" y="-327.5" font-family="Helvetica,sans-Serif" font-size="10.00">+ PrimExpr()</text>
<text text-anchor="start" x="8" y="-316.5" font-family="Helvetica,sans-Serif" font-size="10.00">+ PrimExpr()</text>
<text text-anchor="start" x="8" y="-305.5" font-family="Helvetica,sans-Serif" font-size="10.00">+ dtype()</text>
<text text-anchor="start" x="8" y="-294.5" font-family="Helvetica,sans-Serif" font-size="10.00">+ TVM_DEFINE_OBJECT_REF</text>
<text text-anchor="start" x="8" y="-283.5" font-family="Helvetica,sans-Serif" font-size="10.00">_METHODS()</text>
</a>
</g>
</g>
<!-- Node2&#45;&gt;Node1 -->
<g id="edge1" class="edge"><title>Node2&#45;&gt;Node1</title>
<path fill="none" stroke="midnightblue" d="M75,-266.176C75,-257.427 75,-248.522 75,-239.965"/>
<polygon fill="none" stroke="midnightblue" points="71.5001,-266.344 75,-276.344 78.5001,-266.344 71.5001,-266.344"/>
</g>
<!-- Node3 -->
<g id="node3" class="node"><title>Node3</title>
<g id="a_node3"><a xlink:href="classtvm_1_1BaseExpr.html" target="_top" xlink:title="Managed reference to BaseExprNode. ">
<polygon fill="white" stroke="black" points="-1.42109e-14,-425.5 -1.42109e-14,-493.5 150,-493.5 150,-425.5 -1.42109e-14,-425.5"/>
<text text-anchor="middle" x="75" y="-481.5" font-family="Helvetica,sans-Serif" font-size="10.00">tvm::BaseExpr</text>
<polyline fill="none" stroke="black" points="-1.42109e-14,-474.5 150,-474.5 "/>
<text text-anchor="middle" x="75" y="-462.5" font-family="Helvetica,sans-Serif" font-size="10.00"> </text>
<polyline fill="none" stroke="black" points="-1.42109e-14,-455.5 150,-455.5 "/>
<text text-anchor="start" x="8" y="-443.5" font-family="Helvetica,sans-Serif" font-size="10.00">+ TVM_DEFINE_OBJECT_REF</text>
<text text-anchor="start" x="8" y="-432.5" font-family="Helvetica,sans-Serif" font-size="10.00">_METHODS()</text>
</a>
</g>
</g>
<!-- Node3&#45;&gt;Node2 -->
<g id="edge2" class="edge"><title>Node3&#45;&gt;Node2</title>
<path fill="none" stroke="midnightblue" d="M75,-415.182C75,-406.604 75,-397.493 75,-388.585"/>
<polygon fill="none" stroke="midnightblue" points="71.5001,-415.33 75,-425.33 78.5001,-415.331 71.5001,-415.33"/>
</g>
<!-- Node4 -->
<g id="node4" class="node"><title>Node4</title>
<polygon fill="white" stroke="#bfbfbf" points="44,-530.5 44,-587.5 106,-587.5 106,-530.5 44,-530.5"/>
<text text-anchor="middle" x="75" y="-575.5" font-family="Helvetica,sans-Serif" font-size="10.00">ObjectRef</text>
<polyline fill="none" stroke="#bfbfbf" points="44,-568.5 106,-568.5 "/>
<text text-anchor="middle" x="75" y="-556.5" font-family="Helvetica,sans-Serif" font-size="10.00"> </text>
<polyline fill="none" stroke="#bfbfbf" points="44,-549.5 106,-549.5 "/>
<text text-anchor="middle" x="75" y="-537.5" font-family="Helvetica,sans-Serif" font-size="10.00"> </text>
</g>
<!-- Node4&#45;&gt;Node3 -->
<g id="edge3" class="edge"><title>Node4&#45;&gt;Node3</title>
<path fill="none" stroke="midnightblue" d="M75,-520.063C75,-511.393 75,-502.243 75,-493.786"/>
<polygon fill="none" stroke="midnightblue" points="71.5001,-520.321 75,-530.321 78.5001,-520.321 71.5001,-520.321"/>
</g>
</g>
</svg>
