<?xml version="1.0" encoding="UTF-8" standalone="no"?>
<!DOCTYPE svg PUBLIC "-//W3C//DTD SVG 1.1//EN"
 "http://www.w3.org/Graphics/SVG/1.1/DTD/svg11.dtd">
<!-- Generated by graphviz version 2.38.0 (20140413.2041)
 -->
<!-- Title: tvm::tir::CallNode Pages: 1 -->
<svg width="669pt" height="877pt"
 viewBox="0.00 0.00 668.50 877.00" xmlns="http://www.w3.org/2000/svg" xmlns:xlink="http://www.w3.org/1999/xlink">
<g id="graph0" class="graph" transform="scale(1 1) rotate(0) translate(4 873)">
<title>tvm::tir::CallNode</title>
<polygon fill="white" stroke="none" points="-4,4 -4,-873 664.5,-873 664.5,4 -4,4"/>
<!-- Node1 -->
<g id="node1" class="node"><title>Node1</title>
<polygon fill="#bfbfbf" stroke="black" points="307.5,-0.5 307.5,-277.5 512.5,-277.5 512.5,-0.5 307.5,-0.5"/>
<text text-anchor="middle" x="410" y="-265.5" font-family="Helvetica,sans-Serif" font-size="10.00">tvm::tir::CallNode</text>
<polyline fill="none" stroke="black" points="307.5,-258.5 512.5,-258.5 "/>
<text text-anchor="start" x="315.5" y="-246.5" font-family="Helvetica,sans-Serif" font-size="10.00">+ name</text>
<text text-anchor="start" x="315.5" y="-235.5" font-family="Helvetica,sans-Serif" font-size="10.00">+ call_type</text>
<text text-anchor="start" x="315.5" y="-224.5" font-family="Helvetica,sans-Serif" font-size="10.00">+ value_index</text>
<text text-anchor="start" x="315.5" y="-213.5" font-family="Helvetica,sans-Serif" font-size="10.00">+ _type_key</text>
<text text-anchor="start" x="315.5" y="-202.5" font-family="Helvetica,sans-Serif" font-size="10.00">+ reinterpret</text>
<text text-anchor="start" x="315.5" y="-191.5" font-family="Helvetica,sans-Serif" font-size="10.00">+ bitwise_and</text>
<text text-anchor="start" x="315.5" y="-180.5" font-family="Helvetica,sans-Serif" font-size="10.00">+ bitwise_not</text>
<text text-anchor="start" x="315.5" y="-169.5" font-family="Helvetica,sans-Serif" font-size="10.00">+ bitwise_xor</text>
<text text-anchor="start" x="315.5" y="-158.5" font-family="Helvetica,sans-Serif" font-size="10.00">+ bitwise_or</text>
<text text-anchor="start" x="315.5" y="-147.5" font-family="Helvetica,sans-Serif" font-size="10.00">+ shift_left</text>
<text text-anchor="start" x="315.5" y="-136.5" font-family="Helvetica,sans-Serif" font-size="10.00">+ shift_right</text>
<text text-anchor="start" x="315.5" y="-125.5" font-family="Helvetica,sans-Serif" font-size="10.00">+ popcount</text>
<text text-anchor="start" x="315.5" y="-114.5" font-family="Helvetica,sans-Serif" font-size="10.00">+ likely</text>
<text text-anchor="start" x="315.5" y="-103.5" font-family="Helvetica,sans-Serif" font-size="10.00">and 6 more...</text>
<polyline fill="none" stroke="black" points="307.5,-96.5 512.5,-96.5 "/>
<text text-anchor="start" x="315.5" y="-84.5" font-family="Helvetica,sans-Serif" font-size="10.00">+ VisitAttrs()</text>
<text text-anchor="start" x="315.5" y="-73.5" font-family="Helvetica,sans-Serif" font-size="10.00">+ SEqualReduce()</text>
<text text-anchor="start" x="315.5" y="-62.5" font-family="Helvetica,sans-Serif" font-size="10.00">+ SHashReduce()</text>
<text text-anchor="start" x="315.5" y="-51.5" font-family="Helvetica,sans-Serif" font-size="10.00">+ is_pure()</text>
<text text-anchor="start" x="315.5" y="-40.5" font-family="Helvetica,sans-Serif" font-size="10.00">+ is_intrinsic()</text>
<text text-anchor="start" x="315.5" y="-29.5" font-family="Helvetica,sans-Serif" font-size="10.00">+ is_vectorizable()</text>
<text text-anchor="start" x="315.5" y="-18.5" font-family="Helvetica,sans-Serif" font-size="10.00">+ TVM_DECLARE_FINAL_OBJECT_INFO()</text>
<text text-anchor="start" x="315.5" y="-7.5" font-family="Helvetica,sans-Serif" font-size="10.00">+ make()</text>
</g>
<!-- Node2 -->
<g id="node2" class="node"><title>Node2</title>
<g id="a_node2"><a xlink:href="classtvm_1_1PrimExprNode.html" target="_top" xlink:title="Base node of all primitive expressions. ">
<polygon fill="white" stroke="black" points="113,-380.5 113,-437.5 317,-437.5 317,-380.5 113,-380.5"/>
<text text-anchor="middle" x="215" y="-425.5" font-family="Helvetica,sans-Serif" font-size="10.00">tvm::PrimExprNode</text>
<polyline fill="none" stroke="black" points="113,-418.5 317,-418.5 "/>
<text text-anchor="start" x="121" y="-406.5" font-family="Helvetica,sans-Serif" font-size="10.00">+ _type_key</text>
<polyline fill="none" stroke="black" points="113,-399.5 317,-399.5 "/>
<text text-anchor="start" x="121" y="-387.5" font-family="Helvetica,sans-Serif" font-size="10.00">+ TVM_DECLARE_BASE_OBJECT_INFO()</text>
</a>
</g>
</g>
<!-- Node2&#45;&gt;Node1 -->
<g id="edge1" class="edge"><title>Node2&#45;&gt;Node1</title>
<path fill="none" stroke="midnightblue" d="M241.198,-371.995C259.219,-347.227 284.409,-312.607 309.841,-277.654"/>
<polygon fill="none" stroke="midnightblue" points="238.187,-370.183 235.134,-380.329 243.848,-374.302 238.187,-370.183"/>
</g>
<!-- Node3 -->
<g id="node3" class="node"><title>Node3</title>
<g id="a_node3"><a xlink:href="classtvm_1_1BaseExprNode.html" target="_top" xlink:title="Base type of all the expressions. ">
<polygon fill="white" stroke="black" points="0,-606.5 0,-707.5 204,-707.5 204,-606.5 0,-606.5"/>
<text text-anchor="middle" x="102" y="-695.5" font-family="Helvetica,sans-Serif" font-size="10.00">tvm::BaseExprNode</text>
<polyline fill="none" stroke="black" points="0,-688.5 204,-688.5 "/>
<text text-anchor="start" x="8" y="-676.5" font-family="Helvetica,sans-Serif" font-size="10.00">+ _type_key</text>
<text text-anchor="start" x="8" y="-665.5" font-family="Helvetica,sans-Serif" font-size="10.00">+ _type_has_method_sequal</text>
<text text-anchor="start" x="8" y="-654.5" font-family="Helvetica,sans-Serif" font-size="10.00">_reduce</text>
<text text-anchor="start" x="8" y="-643.5" font-family="Helvetica,sans-Serif" font-size="10.00">+ _type_has_method_shash</text>
<text text-anchor="start" x="8" y="-632.5" font-family="Helvetica,sans-Serif" font-size="10.00">_reduce</text>
<polyline fill="none" stroke="black" points="0,-625.5 204,-625.5 "/>
<text text-anchor="start" x="8" y="-613.5" font-family="Helvetica,sans-Serif" font-size="10.00">+ TVM_DECLARE_BASE_OBJECT_INFO()</text>
</a>
</g>
</g>
<!-- Node3&#45;&gt;Node2 -->
<g id="edge2" class="edge"><title>Node3&#45;&gt;Node2</title>
<path fill="none" stroke="midnightblue" d="M129.089,-597.027C152.303,-546.491 184.701,-475.962 202.336,-437.57"/>
<polygon fill="none" stroke="midnightblue" points="125.861,-595.67 124.867,-606.218 132.222,-598.592 125.861,-595.67"/>
</g>
<!-- Node4 -->
<g id="node4" class="node"><title>Node4</title>
<polygon fill="white" stroke="#bfbfbf" points="78.5,-811.5 78.5,-868.5 125.5,-868.5 125.5,-811.5 78.5,-811.5"/>
<text text-anchor="middle" x="102" y="-856.5" font-family="Helvetica,sans-Serif" font-size="10.00">Object</text>
<polyline fill="none" stroke="#bfbfbf" points="78.5,-849.5 125.5,-849.5 "/>
<text text-anchor="middle" x="102" y="-837.5" font-family="Helvetica,sans-Serif" font-size="10.00"> </text>
<polyline fill="none" stroke="#bfbfbf" points="78.5,-830.5 125.5,-830.5 "/>
<text text-anchor="middle" x="102" y="-818.5" font-family="Helvetica,sans-Serif" font-size="10.00"> </text>
</g>
<!-- Node4&#45;&gt;Node3 -->
<g id="edge3" class="edge"><title>Node4&#45;&gt;Node3</title>
<path fill="none" stroke="midnightblue" d="M102,-800.876C102,-773.799 102,-737.183 102,-707.799"/>
<polygon fill="none" stroke="midnightblue" points="98.5001,-801.115 102,-811.115 105.5,-801.115 98.5001,-801.115"/>
</g>
<!-- Node5 -->
<g id="node5" class="node"><title>Node5</title>
<g id="a_node5"><a xlink:href="classtvm_1_1runtime_1_1DataType.html" target="_top" xlink:title="Runtime primitive data type. ">
<polygon fill="white" stroke="black" points="222.5,-540.5 222.5,-773.5 351.5,-773.5 351.5,-540.5 222.5,-540.5"/>
<text text-anchor="middle" x="287" y="-761.5" font-family="Helvetica,sans-Serif" font-size="10.00">tvm::runtime::DataType</text>
<polyline fill="none" stroke="black" points="222.5,-754.5 351.5,-754.5 "/>
<text text-anchor="middle" x="287" y="-742.5" font-family="Helvetica,sans-Serif" font-size="10.00"> </text>
<polyline fill="none" stroke="black" points="222.5,-735.5 351.5,-735.5 "/>
<text text-anchor="start" x="230.5" y="-723.5" font-family="Helvetica,sans-Serif" font-size="10.00">+ DataType()</text>
<text text-anchor="start" x="230.5" y="-712.5" font-family="Helvetica,sans-Serif" font-size="10.00">+ DataType()</text>
<text text-anchor="start" x="230.5" y="-701.5" font-family="Helvetica,sans-Serif" font-size="10.00">+ DataType()</text>
<text text-anchor="start" x="230.5" y="-690.5" font-family="Helvetica,sans-Serif" font-size="10.00">+ code()</text>
<text text-anchor="start" x="230.5" y="-679.5" font-family="Helvetica,sans-Serif" font-size="10.00">+ bits()</text>
<text text-anchor="start" x="230.5" y="-668.5" font-family="Helvetica,sans-Serif" font-size="10.00">+ bytes()</text>
<text text-anchor="start" x="230.5" y="-657.5" font-family="Helvetica,sans-Serif" font-size="10.00">+ lanes()</text>
<text text-anchor="start" x="230.5" y="-646.5" font-family="Helvetica,sans-Serif" font-size="10.00">+ is_scalar()</text>
<text text-anchor="start" x="230.5" y="-635.5" font-family="Helvetica,sans-Serif" font-size="10.00">+ is_bool()</text>
<text text-anchor="start" x="230.5" y="-624.5" font-family="Helvetica,sans-Serif" font-size="10.00">+ is_float()</text>
<text text-anchor="start" x="230.5" y="-613.5" font-family="Helvetica,sans-Serif" font-size="10.00">and 12 more...</text>
<text text-anchor="start" x="230.5" y="-602.5" font-family="Helvetica,sans-Serif" font-size="10.00">+ Int()</text>
<text text-anchor="start" x="230.5" y="-591.5" font-family="Helvetica,sans-Serif" font-size="10.00">+ UInt()</text>
<text text-anchor="start" x="230.5" y="-580.5" font-family="Helvetica,sans-Serif" font-size="10.00">+ Float()</text>
<text text-anchor="start" x="230.5" y="-569.5" font-family="Helvetica,sans-Serif" font-size="10.00">+ Bool()</text>
<text text-anchor="start" x="230.5" y="-558.5" font-family="Helvetica,sans-Serif" font-size="10.00">+ Handle()</text>
<text text-anchor="start" x="230.5" y="-547.5" font-family="Helvetica,sans-Serif" font-size="10.00">+ ShapeIndex()</text>
</a>
</g>
</g>
<!-- Node5&#45;&gt;Node2 -->
<g id="edge4" class="edge"><title>Node5&#45;&gt;Node2</title>
<path fill="none" stroke="#404040" d="M253.108,-540.203C243.56,-507.581 233.814,-474.282 226.568,-449.524"/>
<polygon fill="none" stroke="#404040" points="226.493,-449.269 220.969,-444.634 223.123,-437.752 228.647,-442.387 226.493,-449.269"/>
<text text-anchor="middle" x="266.5" y="-514" font-family="Helvetica,sans-Serif" font-size="10.00"> +dtype</text>
</g>
<!-- Node6 -->
<g id="node6" class="node"><title>Node6</title>
<g id="a_node6"><a xlink:href="classtvm_1_1tir_1_1FunctionRef.html" target="_top" xlink:title="reference to a function ">
<polygon fill="white" stroke="black" points="335,-375 335,-443 485,-443 485,-375 335,-375"/>
<text text-anchor="middle" x="410" y="-431" font-family="Helvetica,sans-Serif" font-size="10.00">tvm::tir::FunctionRef</text>
<polyline fill="none" stroke="black" points="335,-424 485,-424 "/>
<text text-anchor="middle" x="410" y="-412" font-family="Helvetica,sans-Serif" font-size="10.00"> </text>
<polyline fill="none" stroke="black" points="335,-405 485,-405 "/>
<text text-anchor="start" x="343" y="-393" font-family="Helvetica,sans-Serif" font-size="10.00">+ TVM_DEFINE_OBJECT_REF</text>
<text text-anchor="start" x="343" y="-382" font-family="Helvetica,sans-Serif" font-size="10.00">_METHODS()</text>
</a>
</g>
</g>
<!-- Node6&#45;&gt;Node1 -->
<g id="edge5" class="edge"><title>Node6&#45;&gt;Node1</title>
<path fill="none" stroke="#404040" d="M410,-374.869C410,-352.765 410,-321.969 410,-289.94"/>
<polygon fill="none" stroke="#404040" points="410,-289.62 406,-283.62 410,-277.62 414,-283.62 410,-289.62"/>
<text text-anchor="middle" x="426" y="-299" font-family="Helvetica,sans-Serif" font-size="10.00"> +func</text>
</g>
<!-- Node7 -->
<g id="node7" class="node"><title>Node7</title>
<polygon fill="white" stroke="#bfbfbf" points="441,-628.5 441,-685.5 503,-685.5 503,-628.5 441,-628.5"/>
<text text-anchor="middle" x="472" y="-673.5" font-family="Helvetica,sans-Serif" font-size="10.00">ObjectRef</text>
<polyline fill="none" stroke="#bfbfbf" points="441,-666.5 503,-666.5 "/>
<text text-anchor="middle" x="472" y="-654.5" font-family="Helvetica,sans-Serif" font-size="10.00"> </text>
<polyline fill="none" stroke="#bfbfbf" points="441,-647.5 503,-647.5 "/>
<text text-anchor="middle" x="472" y="-635.5" font-family="Helvetica,sans-Serif" font-size="10.00"> </text>
</g>
<!-- Node7&#45;&gt;Node6 -->
<g id="edge6" class="edge"><title>Node7&#45;&gt;Node6</title>
<path fill="none" stroke="midnightblue" d="M462.499,-618.301C450.438,-570.448 429.825,-488.659 418.344,-443.106"/>
<polygon fill="none" stroke="midnightblue" points="459.17,-619.417 465.008,-628.259 465.958,-617.707 459.17,-619.417"/>
</g>
<!-- Node8 -->
<g id="node8" class="node"><title>Node8</title>
<g id="a_node8"><a xlink:href="classtvm_1_1Array.html" target="_top" xlink:title="{tvm::Array\&lt; tvm::PrimExpr \&gt;\n||+ Array()\l+ Array()\l+ Array()\l+ Array()\l+ Array()\l+ Array()\l+ Array()\l+ Array()\l+ operator=()\l+ operator=()\land 13 more...\l}">
<polygon fill="white" stroke="black" points="503.5,-325.5 503.5,-492.5 660.5,-492.5 660.5,-325.5 503.5,-325.5"/>
<text text-anchor="middle" x="582" y="-480.5" font-family="Helvetica,sans-Serif" font-size="10.00">tvm::Array&lt; tvm::PrimExpr &gt;</text>
<polyline fill="none" stroke="black" points="503.5,-473.5 660.5,-473.5 "/>
<text text-anchor="middle" x="582" y="-461.5" font-family="Helvetica,sans-Serif" font-size="10.00"> </text>
<polyline fill="none" stroke="black" points="503.5,-454.5 660.5,-454.5 "/>
<text text-anchor="start" x="511.5" y="-442.5" font-family="Helvetica,sans-Serif" font-size="10.00">+ Array()</text>
<text text-anchor="start" x="511.5" y="-431.5" font-family="Helvetica,sans-Serif" font-size="10.00">+ Array()</text>
<text text-anchor="start" x="511.5" y="-420.5" font-family="Helvetica,sans-Serif" font-size="10.00">+ Array()</text>
<text text-anchor="start" x="511.5" y="-409.5" font-family="Helvetica,sans-Serif" font-size="10.00">+ Array()</text>
<text text-anchor="start" x="511.5" y="-398.5" font-family="Helvetica,sans-Serif" font-size="10.00">+ Array()</text>
<text text-anchor="start" x="511.5" y="-387.5" font-family="Helvetica,sans-Serif" font-size="10.00">+ Array()</text>
<text text-anchor="start" x="511.5" y="-376.5" font-family="Helvetica,sans-Serif" font-size="10.00">+ Array()</text>
<text text-anchor="start" x="511.5" y="-365.5" font-family="Helvetica,sans-Serif" font-size="10.00">+ Array()</text>
<text text-anchor="start" x="511.5" y="-354.5" font-family="Helvetica,sans-Serif" font-size="10.00">+ operator=()</text>
<text text-anchor="start" x="511.5" y="-343.5" font-family="Helvetica,sans-Serif" font-size="10.00">+ operator=()</text>
<text text-anchor="start" x="511.5" y="-332.5" font-family="Helvetica,sans-Serif" font-size="10.00">and 13 more...</text>
</a>
</g>
</g>
<!-- Node7&#45;&gt;Node8 -->
<g id="edge8" class="edge"><title>Node7&#45;&gt;Node8</title>
<path fill="none" stroke="midnightblue" d="M488.59,-618.898C503.503,-585.549 525.938,-535.375 545.084,-492.558"/>
<polygon fill="none" stroke="midnightblue" points="485.292,-617.701 484.405,-628.259 491.682,-620.559 485.292,-617.701"/>
</g>
<!-- Node8&#45;&gt;Node1 -->
<g id="edge7" class="edge"><title>Node8&#45;&gt;Node1</title>
<path fill="none" stroke="#404040" d="M528.991,-325.404C521.28,-313.39 513.152,-300.726 504.914,-287.89"/>
<polygon fill="none" stroke="#404040" points="504.771,-287.667 498.164,-284.778 498.29,-277.568 504.897,-280.457 504.771,-287.667"/>
<text text-anchor="middle" x="533.5" y="-299" font-family="Helvetica,sans-Serif" font-size="10.00"> +args</text>
</g>
</g>
</svg>
