<?xml version="1.0" encoding="UTF-8" standalone="no"?>
<!DOCTYPE svg PUBLIC "-//W3C//DTD SVG 1.1//EN"
 "http://www.w3.org/Graphics/SVG/1.1/DTD/svg11.dtd">
<!-- Generated by graphviz version 2.38.0 (20140413.2041)
 -->
<!-- Title: tvm::tir::ModNode Pages: 1 -->
<svg width="530pt" height="763pt"
 viewBox="0.00 0.00 530.00 763.00" xmlns="http://www.w3.org/2000/svg" xmlns:xlink="http://www.w3.org/1999/xlink">
<g id="graph0" class="graph" transform="scale(1 1) rotate(0) translate(4 759)">
<title>tvm::tir::ModNode</title>
<polygon fill="white" stroke="none" points="-4,4 -4,-759 526,-759 526,4 -4,4"/>
<!-- Node1 -->
<g id="node1" class="node"><title>Node1</title>
<polygon fill="#bfbfbf" stroke="black" points="317.5,-0.5 317.5,-57.5 420.5,-57.5 420.5,-0.5 317.5,-0.5"/>
<text text-anchor="middle" x="369" y="-45.5" font-family="Helvetica,sans-Serif" font-size="10.00">tvm::tir::ModNode</text>
<polyline fill="none" stroke="black" points="317.5,-38.5 420.5,-38.5 "/>
<text text-anchor="start" x="325.5" y="-26.5" font-family="Helvetica,sans-Serif" font-size="10.00">+ _type_key</text>
<polyline fill="none" stroke="black" points="317.5,-19.5 420.5,-19.5 "/>
<text text-anchor="middle" x="369" y="-7.5" font-family="Helvetica,sans-Serif" font-size="10.00"> </text>
</g>
<!-- Node2 -->
<g id="node2" class="node"><title>Node2</title>
<g id="a_node2"><a xlink:href="classtvm_1_1tir_1_1BinaryOpNode.html" target="_top" xlink:title="{tvm::tir::BinaryOpNode\l\&lt; ModNode \&gt;\n||+ VisitAttrs()\l+ SEqualReduce()\l+ SHashReduce()\l+ TVM_DECLARE_FINAL_OBJECT_INFO()\l+ make()\l}">
<polygon fill="white" stroke="black" points="266.5,-95.5 266.5,-207.5 471.5,-207.5 471.5,-95.5 266.5,-95.5"/>
<text text-anchor="start" x="274.5" y="-195.5" font-family="Helvetica,sans-Serif" font-size="10.00">tvm::tir::BinaryOpNode</text>
<text text-anchor="middle" x="369" y="-184.5" font-family="Helvetica,sans-Serif" font-size="10.00">&lt; ModNode &gt;</text>
<polyline fill="none" stroke="black" points="266.5,-177.5 471.5,-177.5 "/>
<text text-anchor="middle" x="369" y="-165.5" font-family="Helvetica,sans-Serif" font-size="10.00"> </text>
<polyline fill="none" stroke="black" points="266.5,-158.5 471.5,-158.5 "/>
<text text-anchor="start" x="274.5" y="-146.5" font-family="Helvetica,sans-Serif" font-size="10.00">+ VisitAttrs()</text>
<text text-anchor="start" x="274.5" y="-135.5" font-family="Helvetica,sans-Serif" font-size="10.00">+ SEqualReduce()</text>
<text text-anchor="start" x="274.5" y="-124.5" font-family="Helvetica,sans-Serif" font-size="10.00">+ SHashReduce()</text>
<text text-anchor="start" x="274.5" y="-113.5" font-family="Helvetica,sans-Serif" font-size="10.00">+ TVM_DECLARE_FINAL_OBJECT_INFO()</text>
<text text-anchor="start" x="274.5" y="-102.5" font-family="Helvetica,sans-Serif" font-size="10.00">+ make()</text>
</a>
</g>
</g>
<!-- Node2&#45;&gt;Node1 -->
<g id="edge1" class="edge"><title>Node2&#45;&gt;Node1</title>
<path fill="none" stroke="midnightblue" d="M369,-85.1187C369,-75.478 369,-66.0138 369,-57.7231"/>
<polygon fill="none" stroke="midnightblue" points="365.5,-85.1874 369,-95.1875 372.5,-85.1875 365.5,-85.1874"/>
</g>
<!-- Node3 -->
<g id="node3" class="node"><title>Node3</title>
<g id="a_node3"><a xlink:href="classtvm_1_1PrimExprNode.html" target="_top" xlink:title="Base node of all primitive expressions. ">
<polygon fill="white" stroke="black" points="150,-294 150,-351 354,-351 354,-294 150,-294"/>
<text text-anchor="middle" x="252" y="-339" font-family="Helvetica,sans-Serif" font-size="10.00">tvm::PrimExprNode</text>
<polyline fill="none" stroke="black" points="150,-332 354,-332 "/>
<text text-anchor="start" x="158" y="-320" font-family="Helvetica,sans-Serif" font-size="10.00">+ _type_key</text>
<polyline fill="none" stroke="black" points="150,-313 354,-313 "/>
<text text-anchor="start" x="158" y="-301" font-family="Helvetica,sans-Serif" font-size="10.00">+ TVM_DECLARE_BASE_OBJECT_INFO()</text>
</a>
</g>
</g>
<!-- Node3&#45;&gt;Node2 -->
<g id="edge2" class="edge"><title>Node3&#45;&gt;Node2</title>
<path fill="none" stroke="midnightblue" d="M276.81,-285.664C292.484,-263.024 313.053,-233.313 330.784,-207.701"/>
<polygon fill="none" stroke="midnightblue" points="273.873,-283.757 271.058,-293.971 279.628,-287.741 273.873,-283.757"/>
</g>
<!-- Node4 -->
<g id="node4" class="node"><title>Node4</title>
<g id="a_node4"><a xlink:href="classtvm_1_1BaseExprNode.html" target="_top" xlink:title="Base type of all the expressions. ">
<polygon fill="white" stroke="black" points="0,-492.5 0,-593.5 204,-593.5 204,-492.5 0,-492.5"/>
<text text-anchor="middle" x="102" y="-581.5" font-family="Helvetica,sans-Serif" font-size="10.00">tvm::BaseExprNode</text>
<polyline fill="none" stroke="black" points="0,-574.5 204,-574.5 "/>
<text text-anchor="start" x="8" y="-562.5" font-family="Helvetica,sans-Serif" font-size="10.00">+ _type_key</text>
<text text-anchor="start" x="8" y="-551.5" font-family="Helvetica,sans-Serif" font-size="10.00">+ _type_has_method_sequal</text>
<text text-anchor="start" x="8" y="-540.5" font-family="Helvetica,sans-Serif" font-size="10.00">_reduce</text>
<text text-anchor="start" x="8" y="-529.5" font-family="Helvetica,sans-Serif" font-size="10.00">+ _type_has_method_shash</text>
<text text-anchor="start" x="8" y="-518.5" font-family="Helvetica,sans-Serif" font-size="10.00">_reduce</text>
<polyline fill="none" stroke="black" points="0,-511.5 204,-511.5 "/>
<text text-anchor="start" x="8" y="-499.5" font-family="Helvetica,sans-Serif" font-size="10.00">+ TVM_DECLARE_BASE_OBJECT_INFO()</text>
</a>
</g>
</g>
<!-- Node4&#45;&gt;Node3 -->
<g id="edge3" class="edge"><title>Node4&#45;&gt;Node3</title>
<path fill="none" stroke="midnightblue" d="M141.801,-484.023C171.285,-441.074 210.155,-384.454 232.977,-351.21"/>
<polygon fill="none" stroke="midnightblue" points="138.812,-482.194 136.037,-492.419 144.583,-486.156 138.812,-482.194"/>
</g>
<!-- Node5 -->
<g id="node5" class="node"><title>Node5</title>
<polygon fill="white" stroke="#bfbfbf" points="78.5,-697.5 78.5,-754.5 125.5,-754.5 125.5,-697.5 78.5,-697.5"/>
<text text-anchor="middle" x="102" y="-742.5" font-family="Helvetica,sans-Serif" font-size="10.00">Object</text>
<polyline fill="none" stroke="#bfbfbf" points="78.5,-735.5 125.5,-735.5 "/>
<text text-anchor="middle" x="102" y="-723.5" font-family="Helvetica,sans-Serif" font-size="10.00"> </text>
<polyline fill="none" stroke="#bfbfbf" points="78.5,-716.5 125.5,-716.5 "/>
<text text-anchor="middle" x="102" y="-704.5" font-family="Helvetica,sans-Serif" font-size="10.00"> </text>
</g>
<!-- Node5&#45;&gt;Node4 -->
<g id="edge4" class="edge"><title>Node5&#45;&gt;Node4</title>
<path fill="none" stroke="midnightblue" d="M102,-686.876C102,-659.799 102,-623.183 102,-593.799"/>
<polygon fill="none" stroke="midnightblue" points="98.5001,-687.115 102,-697.115 105.5,-687.115 98.5001,-687.115"/>
</g>
<!-- Node6 -->
<g id="node6" class="node"><title>Node6</title>
<g id="a_node6"><a xlink:href="classtvm_1_1runtime_1_1DataType.html" target="_top" xlink:title="Runtime primitive data type. ">
<polygon fill="white" stroke="black" points="222.5,-426.5 222.5,-659.5 351.5,-659.5 351.5,-426.5 222.5,-426.5"/>
<text text-anchor="middle" x="287" y="-647.5" font-family="Helvetica,sans-Serif" font-size="10.00">tvm::runtime::DataType</text>
<polyline fill="none" stroke="black" points="222.5,-640.5 351.5,-640.5 "/>
<text text-anchor="middle" x="287" y="-628.5" font-family="Helvetica,sans-Serif" font-size="10.00"> </text>
<polyline fill="none" stroke="black" points="222.5,-621.5 351.5,-621.5 "/>
<text text-anchor="start" x="230.5" y="-609.5" font-family="Helvetica,sans-Serif" font-size="10.00">+ DataType()</text>
<text text-anchor="start" x="230.5" y="-598.5" font-family="Helvetica,sans-Serif" font-size="10.00">+ DataType()</text>
<text text-anchor="start" x="230.5" y="-587.5" font-family="Helvetica,sans-Serif" font-size="10.00">+ DataType()</text>
<text text-anchor="start" x="230.5" y="-576.5" font-family="Helvetica,sans-Serif" font-size="10.00">+ code()</text>
<text text-anchor="start" x="230.5" y="-565.5" font-family="Helvetica,sans-Serif" font-size="10.00">+ bits()</text>
<text text-anchor="start" x="230.5" y="-554.5" font-family="Helvetica,sans-Serif" font-size="10.00">+ bytes()</text>
<text text-anchor="start" x="230.5" y="-543.5" font-family="Helvetica,sans-Serif" font-size="10.00">+ lanes()</text>
<text text-anchor="start" x="230.5" y="-532.5" font-family="Helvetica,sans-Serif" font-size="10.00">+ is_scalar()</text>
<text text-anchor="start" x="230.5" y="-521.5" font-family="Helvetica,sans-Serif" font-size="10.00">+ is_bool()</text>
<text text-anchor="start" x="230.5" y="-510.5" font-family="Helvetica,sans-Serif" font-size="10.00">+ is_float()</text>
<text text-anchor="start" x="230.5" y="-499.5" font-family="Helvetica,sans-Serif" font-size="10.00">and 12 more...</text>
<text text-anchor="start" x="230.5" y="-488.5" font-family="Helvetica,sans-Serif" font-size="10.00">+ Int()</text>
<text text-anchor="start" x="230.5" y="-477.5" font-family="Helvetica,sans-Serif" font-size="10.00">+ UInt()</text>
<text text-anchor="start" x="230.5" y="-466.5" font-family="Helvetica,sans-Serif" font-size="10.00">+ Float()</text>
<text text-anchor="start" x="230.5" y="-455.5" font-family="Helvetica,sans-Serif" font-size="10.00">+ Bool()</text>
<text text-anchor="start" x="230.5" y="-444.5" font-family="Helvetica,sans-Serif" font-size="10.00">+ Handle()</text>
<text text-anchor="start" x="230.5" y="-433.5" font-family="Helvetica,sans-Serif" font-size="10.00">+ ShapeIndex()</text>
</a>
</g>
</g>
<!-- Node6&#45;&gt;Node3 -->
<g id="edge5" class="edge"><title>Node6&#45;&gt;Node3</title>
<path fill="none" stroke="#404040" d="M268.475,-426.352C264.842,-403.672 261.268,-381.362 258.383,-363.348"/>
<polygon fill="none" stroke="#404040" points="258.356,-363.178 253.457,-357.886 256.458,-351.329 261.356,-356.621 258.356,-363.178"/>
<text text-anchor="middle" x="285.5" y="-400" font-family="Helvetica,sans-Serif" font-size="10.00"> +dtype</text>
</g>
<!-- Node7 -->
<g id="node7" class="node"><title>Node7</title>
<g id="a_node7"><a xlink:href="classtvm_1_1PrimExpr.html" target="_top" xlink:title="Reference to PrimExprNode. ">
<polygon fill="white" stroke="black" points="372,-266.5 372,-378.5 522,-378.5 522,-266.5 372,-266.5"/>
<text text-anchor="middle" x="447" y="-366.5" font-family="Helvetica,sans-Serif" font-size="10.00">tvm::PrimExpr</text>
<polyline fill="none" stroke="black" points="372,-359.5 522,-359.5 "/>
<text text-anchor="middle" x="447" y="-347.5" font-family="Helvetica,sans-Serif" font-size="10.00"> </text>
<polyline fill="none" stroke="black" points="372,-340.5 522,-340.5 "/>
<text text-anchor="start" x="380" y="-328.5" font-family="Helvetica,sans-Serif" font-size="10.00">+ PrimExpr()</text>
<text text-anchor="start" x="380" y="-317.5" font-family="Helvetica,sans-Serif" font-size="10.00">+ PrimExpr()</text>
<text text-anchor="start" x="380" y="-306.5" font-family="Helvetica,sans-Serif" font-size="10.00">+ PrimExpr()</text>
<text text-anchor="start" x="380" y="-295.5" font-family="Helvetica,sans-Serif" font-size="10.00">+ dtype()</text>
<text text-anchor="start" x="380" y="-284.5" font-family="Helvetica,sans-Serif" font-size="10.00">+ TVM_DEFINE_OBJECT_REF</text>
<text text-anchor="start" x="380" y="-273.5" font-family="Helvetica,sans-Serif" font-size="10.00">_METHODS()</text>
</a>
</g>
</g>
<!-- Node7&#45;&gt;Node2 -->
<g id="edge6" class="edge"><title>Node7&#45;&gt;Node2</title>
<path fill="none" stroke="#404040" d="M421.46,-266.163C414.488,-251.058 406.862,-234.535 399.638,-218.883"/>
<polygon fill="none" stroke="#404040" points="399.493,-218.568 393.347,-214.796 394.464,-207.672 400.61,-211.444 399.493,-218.568"/>
<text text-anchor="middle" x="422" y="-240" font-family="Helvetica,sans-Serif" font-size="10.00"> +a</text>
<text text-anchor="middle" x="422" y="-229" font-family="Helvetica,sans-Serif" font-size="10.00">+b</text>
</g>
<!-- Node8 -->
<g id="node8" class="node"><title>Node8</title>
<g id="a_node8"><a xlink:href="classtvm_1_1BaseExpr.html" target="_top" xlink:title="Managed reference to BaseExprNode. ">
<polygon fill="white" stroke="black" points="372,-509 372,-577 522,-577 522,-509 372,-509"/>
<text text-anchor="middle" x="447" y="-565" font-family="Helvetica,sans-Serif" font-size="10.00">tvm::BaseExpr</text>
<polyline fill="none" stroke="black" points="372,-558 522,-558 "/>
<text text-anchor="middle" x="447" y="-546" font-family="Helvetica,sans-Serif" font-size="10.00"> </text>
<polyline fill="none" stroke="black" points="372,-539 522,-539 "/>
<text text-anchor="start" x="380" y="-527" font-family="Helvetica,sans-Serif" font-size="10.00">+ TVM_DEFINE_OBJECT_REF</text>
<text text-anchor="start" x="380" y="-516" font-family="Helvetica,sans-Serif" font-size="10.00">_METHODS()</text>
</a>
</g>
</g>
<!-- Node8&#45;&gt;Node7 -->
<g id="edge7" class="edge"><title>Node8&#45;&gt;Node7</title>
<path fill="none" stroke="midnightblue" d="M447,-498.609C447,-464.195 447,-415.873 447,-378.705"/>
<polygon fill="none" stroke="midnightblue" points="443.5,-498.815 447,-508.815 450.5,-498.815 443.5,-498.815"/>
</g>
<!-- Node9 -->
<g id="node9" class="node"><title>Node9</title>
<polygon fill="white" stroke="#bfbfbf" points="416,-697.5 416,-754.5 478,-754.5 478,-697.5 416,-697.5"/>
<text text-anchor="middle" x="447" y="-742.5" font-family="Helvetica,sans-Serif" font-size="10.00">ObjectRef</text>
<polyline fill="none" stroke="#bfbfbf" points="416,-735.5 478,-735.5 "/>
<text text-anchor="middle" x="447" y="-723.5" font-family="Helvetica,sans-Serif" font-size="10.00"> </text>
<polyline fill="none" stroke="#bfbfbf" points="416,-716.5 478,-716.5 "/>
<text text-anchor="middle" x="447" y="-704.5" font-family="Helvetica,sans-Serif" font-size="10.00"> </text>
</g>
<!-- Node9&#45;&gt;Node8 -->
<g id="edge8" class="edge"><title>Node9&#45;&gt;Node8</title>
<path fill="none" stroke="midnightblue" d="M447,-687.083C447,-654.57 447,-608.192 447,-577.141"/>
<polygon fill="none" stroke="midnightblue" points="443.5,-687.115 447,-697.115 450.5,-687.115 443.5,-687.115"/>
</g>
</g>
</svg>
