<?xml version="1.0" encoding="UTF-8" standalone="no"?>
<!DOCTYPE svg PUBLIC "-//W3C//DTD SVG 1.1//EN"
 "http://www.w3.org/Graphics/SVG/1.1/DTD/svg11.dtd">
<!-- Generated by graphviz version 2.38.0 (20140413.2041)
 -->
<!-- Title: tvm::te::ExternOpNode Pages: 1 -->
<svg width="560pt" height="836pt"
 viewBox="0.00 0.00 559.50 836.00" xmlns="http://www.w3.org/2000/svg" xmlns:xlink="http://www.w3.org/1999/xlink">
<g id="graph0" class="graph" transform="scale(1 1) rotate(0) translate(4 832)">
<title>tvm::te::ExternOpNode</title>
<polygon fill="white" stroke="none" points="-4,4 -4,-832 555.5,-832 555.5,4 -4,4"/>
<!-- Node1 -->
<g id="node1" class="node"><title>Node1</title>
<polygon fill="#bfbfbf" stroke="black" points="209.5,-0.5 209.5,-200.5 414.5,-200.5 414.5,-0.5 209.5,-0.5"/>
<text text-anchor="middle" x="312" y="-188.5" font-family="Helvetica,sans-Serif" font-size="10.00">tvm::te::ExternOpNode</text>
<polyline fill="none" stroke="black" points="209.5,-181.5 414.5,-181.5 "/>
<text text-anchor="start" x="217.5" y="-169.5" font-family="Helvetica,sans-Serif" font-size="10.00">+ _type_key</text>
<polyline fill="none" stroke="black" points="209.5,-162.5 414.5,-162.5 "/>
<text text-anchor="start" x="217.5" y="-150.5" font-family="Helvetica,sans-Serif" font-size="10.00">+ ExternOpNode()</text>
<text text-anchor="start" x="217.5" y="-139.5" font-family="Helvetica,sans-Serif" font-size="10.00">+ num_outputs()</text>
<text text-anchor="start" x="217.5" y="-128.5" font-family="Helvetica,sans-Serif" font-size="10.00">+ root_iter_vars()</text>
<text text-anchor="start" x="217.5" y="-117.5" font-family="Helvetica,sans-Serif" font-size="10.00">+ output_dtype()</text>
<text text-anchor="start" x="217.5" y="-106.5" font-family="Helvetica,sans-Serif" font-size="10.00">+ output_shape()</text>
<text text-anchor="start" x="217.5" y="-95.5" font-family="Helvetica,sans-Serif" font-size="10.00">+ InputTensors()</text>
<text text-anchor="start" x="217.5" y="-84.5" font-family="Helvetica,sans-Serif" font-size="10.00">+ ReplaceInputs()</text>
<text text-anchor="start" x="217.5" y="-73.5" font-family="Helvetica,sans-Serif" font-size="10.00">+ PropBoundToInputs()</text>
<text text-anchor="start" x="217.5" y="-62.5" font-family="Helvetica,sans-Serif" font-size="10.00">+ GatherBound()</text>
<text text-anchor="start" x="217.5" y="-51.5" font-family="Helvetica,sans-Serif" font-size="10.00">+ BuildRealize()</text>
<text text-anchor="start" x="217.5" y="-40.5" font-family="Helvetica,sans-Serif" font-size="10.00">+ BuildProvide()</text>
<text text-anchor="start" x="217.5" y="-29.5" font-family="Helvetica,sans-Serif" font-size="10.00">+ VisitAttrs()</text>
<text text-anchor="start" x="217.5" y="-18.5" font-family="Helvetica,sans-Serif" font-size="10.00">+ TVM_DECLARE_FINAL_OBJECT_INFO()</text>
<text text-anchor="start" x="217.5" y="-7.5" font-family="Helvetica,sans-Serif" font-size="10.00">+ make()</text>
</g>
<!-- Node2 -->
<g id="node2" class="node"><title>Node2</title>
<g id="a_node2"><a xlink:href="classtvm_1_1te_1_1OperationNode.html" target="_top" xlink:title="Base class of all operation nodes. ">
<polygon fill="white" stroke="black" points="0,-248.5 0,-437.5 204,-437.5 204,-248.5 0,-248.5"/>
<text text-anchor="middle" x="102" y="-425.5" font-family="Helvetica,sans-Serif" font-size="10.00">tvm::te::OperationNode</text>
<polyline fill="none" stroke="black" points="0,-418.5 204,-418.5 "/>
<text text-anchor="start" x="8" y="-406.5" font-family="Helvetica,sans-Serif" font-size="10.00">+ name</text>
<text text-anchor="start" x="8" y="-395.5" font-family="Helvetica,sans-Serif" font-size="10.00">+ tag</text>
<text text-anchor="start" x="8" y="-384.5" font-family="Helvetica,sans-Serif" font-size="10.00">+ _type_key</text>
<polyline fill="none" stroke="black" points="0,-377.5 204,-377.5 "/>
<text text-anchor="start" x="8" y="-365.5" font-family="Helvetica,sans-Serif" font-size="10.00">+ func_name()</text>
<text text-anchor="start" x="8" y="-354.5" font-family="Helvetica,sans-Serif" font-size="10.00">+ root_iter_vars()</text>
<text text-anchor="start" x="8" y="-343.5" font-family="Helvetica,sans-Serif" font-size="10.00">+ output_dtype()</text>
<text text-anchor="start" x="8" y="-332.5" font-family="Helvetica,sans-Serif" font-size="10.00">+ output_shape()</text>
<text text-anchor="start" x="8" y="-321.5" font-family="Helvetica,sans-Serif" font-size="10.00">+ InputTensors()</text>
<text text-anchor="start" x="8" y="-310.5" font-family="Helvetica,sans-Serif" font-size="10.00">+ ReplaceInputs()</text>
<text text-anchor="start" x="8" y="-299.5" font-family="Helvetica,sans-Serif" font-size="10.00">+ PropBoundToInputs()</text>
<text text-anchor="start" x="8" y="-288.5" font-family="Helvetica,sans-Serif" font-size="10.00">+ GatherBound()</text>
<text text-anchor="start" x="8" y="-277.5" font-family="Helvetica,sans-Serif" font-size="10.00">+ BuildRealize()</text>
<text text-anchor="start" x="8" y="-266.5" font-family="Helvetica,sans-Serif" font-size="10.00">+ BuildProvide()</text>
<text text-anchor="start" x="8" y="-255.5" font-family="Helvetica,sans-Serif" font-size="10.00">+ TVM_DECLARE_BASE_OBJECT_INFO()</text>
</a>
</g>
</g>
<!-- Node2&#45;&gt;Node1 -->
<g id="edge1" class="edge"><title>Node2&#45;&gt;Node1</title>
<path fill="none" stroke="midnightblue" d="M190.521,-240.622C202.009,-227.466 213.767,-214.001 225.226,-200.877"/>
<polygon fill="none" stroke="midnightblue" points="187.734,-238.493 183.793,-248.328 193.007,-243.097 187.734,-238.493"/>
</g>
<!-- Node3 -->
<g id="node3" class="node"><title>Node3</title>
<g id="a_node3"><a xlink:href="classtvm_1_1tir_1_1FunctionBaseNode.html" target="_top" xlink:title="Base node of internal functions. ">
<polygon fill="white" stroke="black" points="29,-653.5 29,-732.5 175,-732.5 175,-653.5 29,-653.5"/>
<text text-anchor="middle" x="102" y="-720.5" font-family="Helvetica,sans-Serif" font-size="10.00">tvm::tir::FunctionBaseNode</text>
<polyline fill="none" stroke="black" points="29,-713.5 175,-713.5 "/>
<text text-anchor="middle" x="102" y="-701.5" font-family="Helvetica,sans-Serif" font-size="10.00"> </text>
<polyline fill="none" stroke="black" points="29,-694.5 175,-694.5 "/>
<text text-anchor="start" x="37" y="-682.5" font-family="Helvetica,sans-Serif" font-size="10.00">+ ~FunctionBaseNode()</text>
<text text-anchor="start" x="37" y="-671.5" font-family="Helvetica,sans-Serif" font-size="10.00">+ func_name()</text>
<text text-anchor="start" x="37" y="-660.5" font-family="Helvetica,sans-Serif" font-size="10.00">+ num_outputs()</text>
</a>
</g>
</g>
<!-- Node3&#45;&gt;Node2 -->
<g id="edge2" class="edge"><title>Node3&#45;&gt;Node2</title>
<path fill="none" stroke="midnightblue" d="M102,-643.266C102,-590.171 102,-503.959 102,-437.672"/>
<polygon fill="none" stroke="midnightblue" points="98.5001,-643.428 102,-653.428 105.5,-643.428 98.5001,-643.428"/>
</g>
<!-- Node4 -->
<g id="node4" class="node"><title>Node4</title>
<polygon fill="white" stroke="#bfbfbf" points="78.5,-770.5 78.5,-827.5 125.5,-827.5 125.5,-770.5 78.5,-770.5"/>
<text text-anchor="middle" x="102" y="-815.5" font-family="Helvetica,sans-Serif" font-size="10.00">Object</text>
<polyline fill="none" stroke="#bfbfbf" points="78.5,-808.5 125.5,-808.5 "/>
<text text-anchor="middle" x="102" y="-796.5" font-family="Helvetica,sans-Serif" font-size="10.00"> </text>
<polyline fill="none" stroke="#bfbfbf" points="78.5,-789.5 125.5,-789.5 "/>
<text text-anchor="middle" x="102" y="-777.5" font-family="Helvetica,sans-Serif" font-size="10.00"> </text>
</g>
<!-- Node4&#45;&gt;Node3 -->
<g id="edge3" class="edge"><title>Node4&#45;&gt;Node3</title>
<path fill="none" stroke="midnightblue" d="M102,-760.232C102,-751.268 102,-741.693 102,-732.689"/>
<polygon fill="none" stroke="midnightblue" points="98.5001,-760.403 102,-770.403 105.5,-760.403 98.5001,-760.403"/>
</g>
<!-- Node5 -->
<g id="node5" class="node"><title>Node5</title>
<polygon fill="white" stroke="#bfbfbf" points="193,-659 193,-727 317,-727 317,-659 193,-659"/>
<text text-anchor="start" x="201" y="-715" font-family="Helvetica,sans-Serif" font-size="10.00">tvm::Map&lt; std::string,</text>
<text text-anchor="middle" x="255" y="-704" font-family="Helvetica,sans-Serif" font-size="10.00"> ObjectRef &gt;</text>
<polyline fill="none" stroke="#bfbfbf" points="193,-697 317,-697 "/>
<text text-anchor="middle" x="255" y="-685" font-family="Helvetica,sans-Serif" font-size="10.00"> </text>
<polyline fill="none" stroke="#bfbfbf" points="193,-678 317,-678 "/>
<text text-anchor="middle" x="255" y="-666" font-family="Helvetica,sans-Serif" font-size="10.00"> </text>
</g>
<!-- Node5&#45;&gt;Node2 -->
<g id="edge4" class="edge"><title>Node5&#45;&gt;Node2</title>
<path fill="none" stroke="#404040" d="M195.544,-658.843C191.657,-656.829 187.784,-654.865 184,-653 166.15,-644.201 155.021,-650.86 143,-635 140.099,-631.173 126.424,-531.149 115.653,-449.43"/>
<polygon fill="none" stroke="#404040" points="115.652,-449.417 110.904,-443.989 114.087,-437.519 118.835,-442.946 115.652,-449.417"/>
<text text-anchor="middle" x="160" y="-543" font-family="Helvetica,sans-Serif" font-size="10.00"> +attrs</text>
</g>
<!-- Node6 -->
<g id="node6" class="node"><title>Node6</title>
<polygon fill="white" stroke="#bfbfbf" points="333,-770.5 333,-827.5 395,-827.5 395,-770.5 333,-770.5"/>
<text text-anchor="middle" x="364" y="-815.5" font-family="Helvetica,sans-Serif" font-size="10.00">ObjectRef</text>
<polyline fill="none" stroke="#bfbfbf" points="333,-808.5 395,-808.5 "/>
<text text-anchor="middle" x="364" y="-796.5" font-family="Helvetica,sans-Serif" font-size="10.00"> </text>
<polyline fill="none" stroke="#bfbfbf" points="333,-789.5 395,-789.5 "/>
<text text-anchor="middle" x="364" y="-777.5" font-family="Helvetica,sans-Serif" font-size="10.00"> </text>
</g>
<!-- Node6&#45;&gt;Node5 -->
<g id="edge5" class="edge"><title>Node6&#45;&gt;Node5</title>
<path fill="none" stroke="midnightblue" d="M327.694,-763.359C315.512,-751.736 301.96,-738.806 289.889,-727.288"/>
<polygon fill="none" stroke="midnightblue" points="325.425,-766.032 335.076,-770.403 330.257,-760.967 325.425,-766.032"/>
</g>
<!-- Node7 -->
<g id="node7" class="node"><title>Node7</title>
<g id="a_node7"><a xlink:href="classtvm_1_1Array.html" target="_top" xlink:title="{tvm::Array\&lt; tvm::tir\l::Buffer \&gt;\n||+ Array()\l+ Array()\l+ Array()\l+ Array()\l+ Array()\l+ Array()\l+ Array()\l+ Array()\l+ operator=()\l+ operator=()\land 13 more...\l}">
<polygon fill="white" stroke="black" points="186.5,-456.5 186.5,-634.5 299.5,-634.5 299.5,-456.5 186.5,-456.5"/>
<text text-anchor="start" x="194.5" y="-622.5" font-family="Helvetica,sans-Serif" font-size="10.00">tvm::Array&lt; tvm::tir</text>
<text text-anchor="middle" x="243" y="-611.5" font-family="Helvetica,sans-Serif" font-size="10.00">::Buffer &gt;</text>
<polyline fill="none" stroke="black" points="186.5,-604.5 299.5,-604.5 "/>
<text text-anchor="middle" x="243" y="-592.5" font-family="Helvetica,sans-Serif" font-size="10.00"> </text>
<polyline fill="none" stroke="black" points="186.5,-585.5 299.5,-585.5 "/>
<text text-anchor="start" x="194.5" y="-573.5" font-family="Helvetica,sans-Serif" font-size="10.00">+ Array()</text>
<text text-anchor="start" x="194.5" y="-562.5" font-family="Helvetica,sans-Serif" font-size="10.00">+ Array()</text>
<text text-anchor="start" x="194.5" y="-551.5" font-family="Helvetica,sans-Serif" font-size="10.00">+ Array()</text>
<text text-anchor="start" x="194.5" y="-540.5" font-family="Helvetica,sans-Serif" font-size="10.00">+ Array()</text>
<text text-anchor="start" x="194.5" y="-529.5" font-family="Helvetica,sans-Serif" font-size="10.00">+ Array()</text>
<text text-anchor="start" x="194.5" y="-518.5" font-family="Helvetica,sans-Serif" font-size="10.00">+ Array()</text>
<text text-anchor="start" x="194.5" y="-507.5" font-family="Helvetica,sans-Serif" font-size="10.00">+ Array()</text>
<text text-anchor="start" x="194.5" y="-496.5" font-family="Helvetica,sans-Serif" font-size="10.00">+ Array()</text>
<text text-anchor="start" x="194.5" y="-485.5" font-family="Helvetica,sans-Serif" font-size="10.00">+ operator=()</text>
<text text-anchor="start" x="194.5" y="-474.5" font-family="Helvetica,sans-Serif" font-size="10.00">+ operator=()</text>
<text text-anchor="start" x="194.5" y="-463.5" font-family="Helvetica,sans-Serif" font-size="10.00">and 13 more...</text>
</a>
</g>
</g>
<!-- Node6&#45;&gt;Node7 -->
<g id="edge7" class="edge"><title>Node6&#45;&gt;Node7</title>
<path fill="none" stroke="midnightblue" d="M360.808,-760.251C356.696,-729.289 347.319,-685.432 326,-653 318.87,-642.153 311.86,-644.486 303,-635 301.86,-633.779 300.725,-632.535 299.598,-631.27"/>
<polygon fill="none" stroke="midnightblue" points="357.339,-760.713 362.011,-770.222 364.288,-759.874 357.339,-760.713"/>
</g>
<!-- Node8 -->
<g id="node8" class="node"><title>Node8</title>
<g id="a_node8"><a xlink:href="classtvm_1_1tir_1_1Stmt.html" target="_top" xlink:title="Container of all statements. ">
<polygon fill="white" stroke="black" points="309,-511.5 309,-579.5 459,-579.5 459,-511.5 309,-511.5"/>
<text text-anchor="middle" x="384" y="-567.5" font-family="Helvetica,sans-Serif" font-size="10.00">tvm::tir::Stmt</text>
<polyline fill="none" stroke="black" points="309,-560.5 459,-560.5 "/>
<text text-anchor="middle" x="384" y="-548.5" font-family="Helvetica,sans-Serif" font-size="10.00"> </text>
<polyline fill="none" stroke="black" points="309,-541.5 459,-541.5 "/>
<text text-anchor="start" x="317" y="-529.5" font-family="Helvetica,sans-Serif" font-size="10.00">+ TVM_DEFINE_OBJECT_REF</text>
<text text-anchor="start" x="317" y="-518.5" font-family="Helvetica,sans-Serif" font-size="10.00">_METHODS()</text>
</a>
</g>
</g>
<!-- Node6&#45;&gt;Node8 -->
<g id="edge9" class="edge"><title>Node6&#45;&gt;Node8</title>
<path fill="none" stroke="midnightblue" d="M367.028,-759.92C370.932,-710.827 377.658,-626.253 381.362,-579.672"/>
<polygon fill="none" stroke="midnightblue" points="363.521,-759.878 366.217,-770.124 370.499,-760.433 363.521,-759.878"/>
</g>
<!-- Node9 -->
<g id="node9" class="node"><title>Node9</title>
<g id="a_node9"><a xlink:href="classtvm_1_1Array.html" target="_top" xlink:title="{tvm::Array\&lt; tvm::te\l::Tensor \&gt;\n||+ Array()\l+ Array()\l+ Array()\l+ Array()\l+ Array()\l+ Array()\l+ Array()\l+ Array()\l+ operator=()\l+ operator=()\land 13 more...\l}">
<polygon fill="white" stroke="black" points="438.5,-254 438.5,-432 551.5,-432 551.5,-254 438.5,-254"/>
<text text-anchor="start" x="446.5" y="-420" font-family="Helvetica,sans-Serif" font-size="10.00">tvm::Array&lt; tvm::te</text>
<text text-anchor="middle" x="495" y="-409" font-family="Helvetica,sans-Serif" font-size="10.00">::Tensor &gt;</text>
<polyline fill="none" stroke="black" points="438.5,-402 551.5,-402 "/>
<text text-anchor="middle" x="495" y="-390" font-family="Helvetica,sans-Serif" font-size="10.00"> </text>
<polyline fill="none" stroke="black" points="438.5,-383 551.5,-383 "/>
<text text-anchor="start" x="446.5" y="-371" font-family="Helvetica,sans-Serif" font-size="10.00">+ Array()</text>
<text text-anchor="start" x="446.5" y="-360" font-family="Helvetica,sans-Serif" font-size="10.00">+ Array()</text>
<text text-anchor="start" x="446.5" y="-349" font-family="Helvetica,sans-Serif" font-size="10.00">+ Array()</text>
<text text-anchor="start" x="446.5" y="-338" font-family="Helvetica,sans-Serif" font-size="10.00">+ Array()</text>
<text text-anchor="start" x="446.5" y="-327" font-family="Helvetica,sans-Serif" font-size="10.00">+ Array()</text>
<text text-anchor="start" x="446.5" y="-316" font-family="Helvetica,sans-Serif" font-size="10.00">+ Array()</text>
<text text-anchor="start" x="446.5" y="-305" font-family="Helvetica,sans-Serif" font-size="10.00">+ Array()</text>
<text text-anchor="start" x="446.5" y="-294" font-family="Helvetica,sans-Serif" font-size="10.00">+ Array()</text>
<text text-anchor="start" x="446.5" y="-283" font-family="Helvetica,sans-Serif" font-size="10.00">+ operator=()</text>
<text text-anchor="start" x="446.5" y="-272" font-family="Helvetica,sans-Serif" font-size="10.00">+ operator=()</text>
<text text-anchor="start" x="446.5" y="-261" font-family="Helvetica,sans-Serif" font-size="10.00">and 13 more...</text>
</a>
</g>
</g>
<!-- Node6&#45;&gt;Node9 -->
<g id="edge11" class="edge"><title>Node6&#45;&gt;Node9</title>
<path fill="none" stroke="midnightblue" d="M393.838,-762.433C418.332,-731.047 451.564,-682.951 468,-635 490.457,-569.485 496.642,-491.102 497.523,-432.201"/>
<polygon fill="none" stroke="midnightblue" points="390.965,-760.423 387.499,-770.435 396.452,-764.77 390.965,-760.423"/>
</g>
<!-- Node7&#45;&gt;Node1 -->
<g id="edge6" class="edge"><title>Node7&#45;&gt;Node1</title>
<path fill="none" stroke="#404040" d="M238.511,-456.304C237.372,-396.83 239.521,-316.937 254,-248 256.493,-236.132 259.861,-223.981 263.728,-212.001"/>
<polygon fill="none" stroke="#404040" points="263.744,-211.954 261.869,-204.991 267.575,-200.583 269.45,-207.546 263.744,-211.954"/>
<text text-anchor="middle" x="308.5" y="-346" font-family="Helvetica,sans-Serif" font-size="10.00"> +output_placeholders</text>
<text text-anchor="middle" x="308.5" y="-335" font-family="Helvetica,sans-Serif" font-size="10.00">+input_placeholders</text>
</g>
<!-- Node8&#45;&gt;Node1 -->
<g id="edge8" class="edge"><title>Node8&#45;&gt;Node1</title>
<path fill="none" stroke="#404040" d="M384.486,-511.206C384.661,-455.936 382.338,-342.017 363,-248 360.599,-236.327 357.504,-224.313 354.028,-212.423"/>
<polygon fill="none" stroke="#404040" points="353.922,-212.075 348.351,-207.497 350.435,-200.593 356.006,-205.172 353.922,-212.075"/>
<text text-anchor="middle" x="401.5" y="-340.5" font-family="Helvetica,sans-Serif" font-size="10.00"> +body</text>
</g>
<!-- Node9&#45;&gt;Node1 -->
<g id="edge10" class="edge"><title>Node9&#45;&gt;Node1</title>
<path fill="none" stroke="#404040" d="M438.458,-267.06C433.573,-260.61 428.702,-254.188 424,-248 414.739,-235.812 405.03,-223.067 395.364,-210.397"/>
<polygon fill="none" stroke="#404040" points="395.269,-210.273 388.449,-207.93 387.989,-200.734 394.809,-203.077 395.269,-210.273"/>
<text text-anchor="middle" x="429.5" y="-222" font-family="Helvetica,sans-Serif" font-size="10.00"> +inputs</text>
</g>
</g>
</svg>
