<?xml version="1.0" encoding="UTF-8" standalone="no"?>
<!DOCTYPE svg PUBLIC "-//W3C//DTD SVG 1.1//EN"
 "http://www.w3.org/Graphics/SVG/1.1/DTD/svg11.dtd">
<!-- Generated by graphviz version 2.38.0 (20140413.2041)
 -->
<!-- Title: tvm::te::SplitNode Pages: 1 -->
<svg width="459pt" height="550pt"
 viewBox="0.00 0.00 459.00 550.00" xmlns="http://www.w3.org/2000/svg" xmlns:xlink="http://www.w3.org/1999/xlink">
<g id="graph0" class="graph" transform="scale(1 1) rotate(0) translate(4 546)">
<title>tvm::te::SplitNode</title>
<polygon fill="white" stroke="none" points="-4,4 -4,-546 455,-546 455,4 -4,4"/>
<!-- Node1 -->
<g id="node1" class="node"><title>Node1</title>
<polygon fill="#bfbfbf" stroke="black" points="137.5,-0.5 137.5,-79.5 342.5,-79.5 342.5,-0.5 137.5,-0.5"/>
<text text-anchor="middle" x="240" y="-67.5" font-family="Helvetica,sans-Serif" font-size="10.00">tvm::te::SplitNode</text>
<polyline fill="none" stroke="black" points="137.5,-60.5 342.5,-60.5 "/>
<text text-anchor="start" x="145.5" y="-48.5" font-family="Helvetica,sans-Serif" font-size="10.00">+ _type_key</text>
<polyline fill="none" stroke="black" points="137.5,-41.5 342.5,-41.5 "/>
<text text-anchor="start" x="145.5" y="-29.5" font-family="Helvetica,sans-Serif" font-size="10.00">+ VisitAttrs()</text>
<text text-anchor="start" x="145.5" y="-18.5" font-family="Helvetica,sans-Serif" font-size="10.00">+ TVM_DECLARE_FINAL_OBJECT_INFO()</text>
<text text-anchor="start" x="145.5" y="-7.5" font-family="Helvetica,sans-Serif" font-size="10.00">+ make()</text>
</g>
<!-- Node2 -->
<g id="node2" class="node"><title>Node2</title>
<g id="a_node2"><a xlink:href="classtvm_1_1te_1_1IterVarRelationNode.html" target="_top" xlink:title="base node of iteration var ">
<polygon fill="white" stroke="black" points="0,-166 0,-223 204,-223 204,-166 0,-166"/>
<text text-anchor="middle" x="102" y="-211" font-family="Helvetica,sans-Serif" font-size="10.00">tvm::te::IterVarRelationNode</text>
<polyline fill="none" stroke="black" points="0,-204 204,-204 "/>
<text text-anchor="start" x="8" y="-192" font-family="Helvetica,sans-Serif" font-size="10.00">+ _type_key</text>
<polyline fill="none" stroke="black" points="0,-185 204,-185 "/>
<text text-anchor="start" x="8" y="-173" font-family="Helvetica,sans-Serif" font-size="10.00">+ TVM_DECLARE_BASE_OBJECT_INFO()</text>
</a>
</g>
</g>
<!-- Node2&#45;&gt;Node1 -->
<g id="edge1" class="edge"><title>Node2&#45;&gt;Node1</title>
<path fill="none" stroke="midnightblue" d="M133.934,-158.21C155.22,-134.688 183.198,-103.771 205.074,-79.5954"/>
<polygon fill="none" stroke="midnightblue" points="131.105,-156.12 126.991,-165.883 136.296,-160.817 131.105,-156.12"/>
</g>
<!-- Node3 -->
<g id="node3" class="node"><title>Node3</title>
<polygon fill="white" stroke="#bfbfbf" points="78.5,-384 78.5,-441 125.5,-441 125.5,-384 78.5,-384"/>
<text text-anchor="middle" x="102" y="-429" font-family="Helvetica,sans-Serif" font-size="10.00">Object</text>
<polyline fill="none" stroke="#bfbfbf" points="78.5,-422 125.5,-422 "/>
<text text-anchor="middle" x="102" y="-410" font-family="Helvetica,sans-Serif" font-size="10.00"> </text>
<polyline fill="none" stroke="#bfbfbf" points="78.5,-403 125.5,-403 "/>
<text text-anchor="middle" x="102" y="-391" font-family="Helvetica,sans-Serif" font-size="10.00"> </text>
</g>
<!-- Node3&#45;&gt;Node2 -->
<g id="edge2" class="edge"><title>Node3&#45;&gt;Node2</title>
<path fill="none" stroke="midnightblue" d="M102,-373.629C102,-330.613 102,-261.448 102,-223.189"/>
<polygon fill="none" stroke="midnightblue" points="98.5001,-373.704 102,-383.704 105.5,-373.704 98.5001,-373.704"/>
</g>
<!-- Node4 -->
<g id="node4" class="node"><title>Node4</title>
<g id="a_node4"><a xlink:href="classtvm_1_1tir_1_1IterVar.html" target="_top" xlink:title="Iteration Variable, represents an iteration over an integer interval. ">
<polygon fill="white" stroke="black" points="187,-269.5 187,-359.5 309,-359.5 309,-269.5 187,-269.5"/>
<text text-anchor="middle" x="248" y="-347.5" font-family="Helvetica,sans-Serif" font-size="10.00">tvm::tir::IterVar</text>
<polyline fill="none" stroke="black" points="187,-340.5 309,-340.5 "/>
<text text-anchor="middle" x="248" y="-328.5" font-family="Helvetica,sans-Serif" font-size="10.00"> </text>
<polyline fill="none" stroke="black" points="187,-321.5 309,-321.5 "/>
<text text-anchor="start" x="195" y="-309.5" font-family="Helvetica,sans-Serif" font-size="10.00">+ IterVar()</text>
<text text-anchor="start" x="195" y="-298.5" font-family="Helvetica,sans-Serif" font-size="10.00">+ IterVar()</text>
<text text-anchor="start" x="195" y="-287.5" font-family="Helvetica,sans-Serif" font-size="10.00">+ operator&#45;&gt;()</text>
<text text-anchor="start" x="195" y="-276.5" font-family="Helvetica,sans-Serif" font-size="10.00">+ operator PrimExpr()</text>
</a>
</g>
</g>
<!-- Node4&#45;&gt;Node1 -->
<g id="edge3" class="edge"><title>Node4&#45;&gt;Node1</title>
<path fill="none" stroke="#404040" d="M246.706,-269.415C245.28,-220.849 242.991,-142.872 241.491,-91.7838"/>
<polygon fill="none" stroke="#404040" points="241.489,-91.7215 237.315,-85.8415 241.137,-79.7267 245.311,-85.6067 241.489,-91.7215"/>
<text text-anchor="middle" x="268.5" y="-203" font-family="Helvetica,sans-Serif" font-size="10.00"> +parent</text>
<text text-anchor="middle" x="268.5" y="-192" font-family="Helvetica,sans-Serif" font-size="10.00">+inner</text>
<text text-anchor="middle" x="268.5" y="-181" font-family="Helvetica,sans-Serif" font-size="10.00">+outer</text>
</g>
<!-- Node5 -->
<g id="node5" class="node"><title>Node5</title>
<polygon fill="white" stroke="#bfbfbf" points="252,-484.5 252,-541.5 314,-541.5 314,-484.5 252,-484.5"/>
<text text-anchor="middle" x="283" y="-529.5" font-family="Helvetica,sans-Serif" font-size="10.00">ObjectRef</text>
<polyline fill="none" stroke="#bfbfbf" points="252,-522.5 314,-522.5 "/>
<text text-anchor="middle" x="283" y="-510.5" font-family="Helvetica,sans-Serif" font-size="10.00"> </text>
<polyline fill="none" stroke="#bfbfbf" points="252,-503.5 314,-503.5 "/>
<text text-anchor="middle" x="283" y="-491.5" font-family="Helvetica,sans-Serif" font-size="10.00"> </text>
</g>
<!-- Node5&#45;&gt;Node4 -->
<g id="edge4" class="edge"><title>Node5&#45;&gt;Node4</title>
<path fill="none" stroke="midnightblue" d="M276.267,-474.196C270.443,-441.503 262.019,-394.204 255.882,-359.753"/>
<polygon fill="none" stroke="midnightblue" points="272.86,-475.032 278.06,-484.263 279.752,-473.804 272.86,-475.032"/>
</g>
<!-- Node7 -->
<g id="node7" class="node"><title>Node7</title>
<g id="a_node7"><a xlink:href="classtvm_1_1BaseExpr.html" target="_top" xlink:title="Managed reference to BaseExprNode. ">
<polygon fill="white" stroke="black" points="282,-378.5 282,-446.5 432,-446.5 432,-378.5 282,-378.5"/>
<text text-anchor="middle" x="357" y="-434.5" font-family="Helvetica,sans-Serif" font-size="10.00">tvm::BaseExpr</text>
<polyline fill="none" stroke="black" points="282,-427.5 432,-427.5 "/>
<text text-anchor="middle" x="357" y="-415.5" font-family="Helvetica,sans-Serif" font-size="10.00"> </text>
<polyline fill="none" stroke="black" points="282,-408.5 432,-408.5 "/>
<text text-anchor="start" x="290" y="-396.5" font-family="Helvetica,sans-Serif" font-size="10.00">+ TVM_DEFINE_OBJECT_REF</text>
<text text-anchor="start" x="290" y="-385.5" font-family="Helvetica,sans-Serif" font-size="10.00">_METHODS()</text>
</a>
</g>
</g>
<!-- Node5&#45;&gt;Node7 -->
<g id="edge7" class="edge"><title>Node5&#45;&gt;Node7</title>
<path fill="none" stroke="midnightblue" d="M309.999,-476.062C317.239,-466.425 325.032,-456.053 332.149,-446.578"/>
<polygon fill="none" stroke="midnightblue" points="307.018,-474.203 303.81,-484.3 312.615,-478.407 307.018,-474.203"/>
</g>
<!-- Node6 -->
<g id="node6" class="node"><title>Node6</title>
<g id="a_node6"><a xlink:href="classtvm_1_1PrimExpr.html" target="_top" xlink:title="Reference to PrimExprNode. ">
<polygon fill="white" stroke="black" points="301,-138.5 301,-250.5 451,-250.5 451,-138.5 301,-138.5"/>
<text text-anchor="middle" x="376" y="-238.5" font-family="Helvetica,sans-Serif" font-size="10.00">tvm::PrimExpr</text>
<polyline fill="none" stroke="black" points="301,-231.5 451,-231.5 "/>
<text text-anchor="middle" x="376" y="-219.5" font-family="Helvetica,sans-Serif" font-size="10.00"> </text>
<polyline fill="none" stroke="black" points="301,-212.5 451,-212.5 "/>
<text text-anchor="start" x="309" y="-200.5" font-family="Helvetica,sans-Serif" font-size="10.00">+ PrimExpr()</text>
<text text-anchor="start" x="309" y="-189.5" font-family="Helvetica,sans-Serif" font-size="10.00">+ PrimExpr()</text>
<text text-anchor="start" x="309" y="-178.5" font-family="Helvetica,sans-Serif" font-size="10.00">+ PrimExpr()</text>
<text text-anchor="start" x="309" y="-167.5" font-family="Helvetica,sans-Serif" font-size="10.00">+ dtype()</text>
<text text-anchor="start" x="309" y="-156.5" font-family="Helvetica,sans-Serif" font-size="10.00">+ TVM_DEFINE_OBJECT_REF</text>
<text text-anchor="start" x="309" y="-145.5" font-family="Helvetica,sans-Serif" font-size="10.00">_METHODS()</text>
</a>
</g>
</g>
<!-- Node6&#45;&gt;Node1 -->
<g id="edge5" class="edge"><title>Node6&#45;&gt;Node1</title>
<path fill="none" stroke="#404040" d="M326.901,-138.444C312.4,-122.183 296.652,-104.526 282.597,-88.7646"/>
<polygon fill="none" stroke="#404040" points="282.525,-88.6846 275.547,-86.869 274.538,-79.7287 281.517,-81.5443 282.525,-88.6846"/>
<text text-anchor="middle" x="328" y="-112" font-family="Helvetica,sans-Serif" font-size="10.00"> +factor</text>
<text text-anchor="middle" x="328" y="-101" font-family="Helvetica,sans-Serif" font-size="10.00">+nparts</text>
</g>
<!-- Node7&#45;&gt;Node6 -->
<g id="edge6" class="edge"><title>Node7&#45;&gt;Node6</title>
<path fill="none" stroke="midnightblue" d="M360.81,-368.188C363.784,-334.38 367.935,-287.182 371.147,-250.671"/>
<polygon fill="none" stroke="midnightblue" points="357.317,-367.955 359.927,-378.223 364.29,-368.569 357.317,-367.955"/>
</g>
</g>
</svg>
