<?xml version="1.0" encoding="UTF-8" standalone="no"?>
<!DOCTYPE svg PUBLIC "-//W3C//DTD SVG 1.1//EN"
 "http://www.w3.org/Graphics/SVG/1.1/DTD/svg11.dtd">
<!-- Generated by graphviz version 2.38.0 (20140413.2041)
 -->
<!-- Title: tvm::tir::CastNode Pages: 1 -->
<svg width="213pt" height="458pt"
 viewBox="0.00 0.00 213.00 458.00" xmlns="http://www.w3.org/2000/svg" xmlns:xlink="http://www.w3.org/1999/xlink">
<g id="graph0" class="graph" transform="scale(1 1) rotate(0) translate(4 454)">
<title>tvm::tir::CastNode</title>
<polygon fill="white" stroke="none" points="-4,4 -4,-454 209,-454 209,4 -4,4"/>
<!-- Node1 -->
<g id="node1" class="node"><title>Node1</title>
<polygon fill="#bfbfbf" stroke="black" points="-1.42109e-14,-0.5 -1.42109e-14,-112.5 205,-112.5 205,-0.5 -1.42109e-14,-0.5"/>
<text text-anchor="middle" x="102.5" y="-100.5" font-family="Helvetica,sans-Serif" font-size="10.00">tvm::tir::CastNode</text>
<polyline fill="none" stroke="black" points="-1.42109e-14,-93.5 205,-93.5 "/>
<text text-anchor="start" x="8" y="-81.5" font-family="Helvetica,sans-Serif" font-size="10.00">+ value</text>
<text text-anchor="start" x="8" y="-70.5" font-family="Helvetica,sans-Serif" font-size="10.00">+ _type_key</text>
<polyline fill="none" stroke="black" points="-1.42109e-14,-63.5 205,-63.5 "/>
<text text-anchor="start" x="8" y="-51.5" font-family="Helvetica,sans-Serif" font-size="10.00">+ VisitAttrs()</text>
<text text-anchor="start" x="8" y="-40.5" font-family="Helvetica,sans-Serif" font-size="10.00">+ SEqualReduce()</text>
<text text-anchor="start" x="8" y="-29.5" font-family="Helvetica,sans-Serif" font-size="10.00">+ SHashReduce()</text>
<text text-anchor="start" x="8" y="-18.5" font-family="Helvetica,sans-Serif" font-size="10.00">+ TVM_DECLARE_FINAL_OBJECT_INFO()</text>
<text text-anchor="start" x="8" y="-7.5" font-family="Helvetica,sans-Serif" font-size="10.00">+ make()</text>
</g>
<!-- Node2 -->
<g id="node2" class="node"><title>Node2</title>
<g id="a_node2"><a xlink:href="classtvm_1_1PrimExprNode.html" target="_top" xlink:title="Base node of all primitive expressions. ">
<polygon fill="white" stroke="black" points="0.5,-149.5 0.5,-217.5 204.5,-217.5 204.5,-149.5 0.5,-149.5"/>
<text text-anchor="middle" x="102.5" y="-205.5" font-family="Helvetica,sans-Serif" font-size="10.00">tvm::PrimExprNode</text>
<polyline fill="none" stroke="black" points="0.5,-198.5 204.5,-198.5 "/>
<text text-anchor="start" x="8.5" y="-186.5" font-family="Helvetica,sans-Serif" font-size="10.00">+ dtype</text>
<text text-anchor="start" x="8.5" y="-175.5" font-family="Helvetica,sans-Serif" font-size="10.00">+ _type_key</text>
<polyline fill="none" stroke="black" points="0.5,-168.5 204.5,-168.5 "/>
<text text-anchor="start" x="8.5" y="-156.5" font-family="Helvetica,sans-Serif" font-size="10.00">+ TVM_DECLARE_BASE_OBJECT_INFO()</text>
</a>
</g>
</g>
<!-- Node2&#45;&gt;Node1 -->
<g id="edge1" class="edge"><title>Node2&#45;&gt;Node1</title>
<path fill="none" stroke="midnightblue" d="M102.5,-139.182C102.5,-130.604 102.5,-121.493 102.5,-112.585"/>
<polygon fill="none" stroke="midnightblue" points="99.0001,-139.33 102.5,-149.33 106,-139.331 99.0001,-139.33"/>
</g>
<!-- Node3 -->
<g id="node3" class="node"><title>Node3</title>
<g id="a_node3"><a xlink:href="classtvm_1_1BaseExprNode.html" target="_top" xlink:title="Base type of all the expressions. ">
<polygon fill="white" stroke="black" points="0.5,-254.5 0.5,-355.5 204.5,-355.5 204.5,-254.5 0.5,-254.5"/>
<text text-anchor="middle" x="102.5" y="-343.5" font-family="Helvetica,sans-Serif" font-size="10.00">tvm::BaseExprNode</text>
<polyline fill="none" stroke="black" points="0.5,-336.5 204.5,-336.5 "/>
<text text-anchor="start" x="8.5" y="-324.5" font-family="Helvetica,sans-Serif" font-size="10.00">+ _type_key</text>
<text text-anchor="start" x="8.5" y="-313.5" font-family="Helvetica,sans-Serif" font-size="10.00">+ _type_has_method_sequal</text>
<text text-anchor="start" x="8.5" y="-302.5" font-family="Helvetica,sans-Serif" font-size="10.00">_reduce</text>
<text text-anchor="start" x="8.5" y="-291.5" font-family="Helvetica,sans-Serif" font-size="10.00">+ _type_has_method_shash</text>
<text text-anchor="start" x="8.5" y="-280.5" font-family="Helvetica,sans-Serif" font-size="10.00">_reduce</text>
<polyline fill="none" stroke="black" points="0.5,-273.5 204.5,-273.5 "/>
<text text-anchor="start" x="8.5" y="-261.5" font-family="Helvetica,sans-Serif" font-size="10.00">+ TVM_DECLARE_BASE_OBJECT_INFO()</text>
</a>
</g>
</g>
<!-- Node3&#45;&gt;Node2 -->
<g id="edge2" class="edge"><title>Node3&#45;&gt;Node2</title>
<path fill="none" stroke="midnightblue" d="M102.5,-244.172C102.5,-235.11 102.5,-226.05 102.5,-217.827"/>
<polygon fill="none" stroke="midnightblue" points="99.0001,-244.359 102.5,-254.359 106,-244.359 99.0001,-244.359"/>
</g>
<!-- Node4 -->
<g id="node4" class="node"><title>Node4</title>
<polygon fill="white" stroke="#bfbfbf" points="79,-392.5 79,-449.5 126,-449.5 126,-392.5 79,-392.5"/>
<text text-anchor="middle" x="102.5" y="-437.5" font-family="Helvetica,sans-Serif" font-size="10.00">Object</text>
<polyline fill="none" stroke="#bfbfbf" points="79,-430.5 126,-430.5 "/>
<text text-anchor="middle" x="102.5" y="-418.5" font-family="Helvetica,sans-Serif" font-size="10.00"> </text>
<polyline fill="none" stroke="#bfbfbf" points="79,-411.5 126,-411.5 "/>
<text text-anchor="middle" x="102.5" y="-399.5" font-family="Helvetica,sans-Serif" font-size="10.00"> </text>
</g>
<!-- Node4&#45;&gt;Node3 -->
<g id="edge3" class="edge"><title>Node4&#45;&gt;Node3</title>
<path fill="none" stroke="midnightblue" d="M102.5,-382.354C102.5,-373.796 102.5,-364.578 102.5,-355.608"/>
<polygon fill="none" stroke="midnightblue" points="99.0001,-382.404 102.5,-392.404 106,-382.404 99.0001,-382.404"/>
</g>
</g>
</svg>
