<?xml version="1.0" encoding="UTF-8" standalone="no"?>
<!DOCTYPE svg PUBLIC "-//W3C//DTD SVG 1.1//EN"
 "http://www.w3.org/Graphics/SVG/1.1/DTD/svg11.dtd">
<!-- Generated by graphviz version 2.38.0 (20140413.2041)
 -->
<!-- Title: tvm::tir::StmtNode Pages: 1 -->
<svg width="3112pt" height="441pt"
 viewBox="0.00 0.00 3112.00 441.00" xmlns="http://www.w3.org/2000/svg" xmlns:xlink="http://www.w3.org/1999/xlink">
<g id="graph0" class="graph" transform="scale(1 1) rotate(0) translate(4 437)">
<title>tvm::tir::StmtNode</title>
<polygon fill="white" stroke="none" points="-4,4 -4,-437 3108,-437 3108,4 -4,4"/>
<!-- Node1 -->
<g id="node1" class="node"><title>Node1</title>
<polygon fill="#bfbfbf" stroke="black" points="1449.5,-237.5 1449.5,-338.5 1653.5,-338.5 1653.5,-237.5 1449.5,-237.5"/>
<text text-anchor="middle" x="1551.5" y="-326.5" font-family="Helvetica,sans-Serif" font-size="10.00">tvm::tir::StmtNode</text>
<polyline fill="none" stroke="black" points="1449.5,-319.5 1653.5,-319.5 "/>
<text text-anchor="start" x="1457.5" y="-307.5" font-family="Helvetica,sans-Serif" font-size="10.00">+ _type_key</text>
<text text-anchor="start" x="1457.5" y="-296.5" font-family="Helvetica,sans-Serif" font-size="10.00">+ _type_has_method_sequal</text>
<text text-anchor="start" x="1457.5" y="-285.5" font-family="Helvetica,sans-Serif" font-size="10.00">_reduce</text>
<text text-anchor="start" x="1457.5" y="-274.5" font-family="Helvetica,sans-Serif" font-size="10.00">+ _type_has_method_shash</text>
<text text-anchor="start" x="1457.5" y="-263.5" font-family="Helvetica,sans-Serif" font-size="10.00">_reduce</text>
<polyline fill="none" stroke="black" points="1449.5,-256.5 1653.5,-256.5 "/>
<text text-anchor="start" x="1457.5" y="-244.5" font-family="Helvetica,sans-Serif" font-size="10.00">+ TVM_DECLARE_BASE_OBJECT_INFO()</text>
</g>
<!-- Node3 -->
<g id="node3" class="node"><title>Node3</title>
<g id="a_node3"><a xlink:href="classtvm_1_1tir_1_1AllocateNode.html" target="_top" xlink:title="Allocate a buffer that can be used in body. ">
<polygon fill="white" stroke="black" points="0,-0.5 0,-200.5 205,-200.5 205,-0.5 0,-0.5"/>
<text text-anchor="middle" x="102.5" y="-188.5" font-family="Helvetica,sans-Serif" font-size="10.00">tvm::tir::AllocateNode</text>
<polyline fill="none" stroke="black" points="0,-181.5 205,-181.5 "/>
<text text-anchor="start" x="8" y="-169.5" font-family="Helvetica,sans-Serif" font-size="10.00">+ buffer_var</text>
<text text-anchor="start" x="8" y="-158.5" font-family="Helvetica,sans-Serif" font-size="10.00">+ dtype</text>
<text text-anchor="start" x="8" y="-147.5" font-family="Helvetica,sans-Serif" font-size="10.00">+ extents</text>
<text text-anchor="start" x="8" y="-136.5" font-family="Helvetica,sans-Serif" font-size="10.00">+ condition</text>
<text text-anchor="start" x="8" y="-125.5" font-family="Helvetica,sans-Serif" font-size="10.00">+ body</text>
<text text-anchor="start" x="8" y="-114.5" font-family="Helvetica,sans-Serif" font-size="10.00">+ new_expr</text>
<text text-anchor="start" x="8" y="-103.5" font-family="Helvetica,sans-Serif" font-size="10.00">+ free_function</text>
<text text-anchor="start" x="8" y="-92.5" font-family="Helvetica,sans-Serif" font-size="10.00">+ _type_key</text>
<polyline fill="none" stroke="black" points="0,-85.5 205,-85.5 "/>
<text text-anchor="start" x="8" y="-73.5" font-family="Helvetica,sans-Serif" font-size="10.00">+ VisitAttrs()</text>
<text text-anchor="start" x="8" y="-62.5" font-family="Helvetica,sans-Serif" font-size="10.00">+ SEqualReduce()</text>
<text text-anchor="start" x="8" y="-51.5" font-family="Helvetica,sans-Serif" font-size="10.00">+ SHashReduce()</text>
<text text-anchor="start" x="8" y="-40.5" font-family="Helvetica,sans-Serif" font-size="10.00">+ constant_allocation_size()</text>
<text text-anchor="start" x="8" y="-29.5" font-family="Helvetica,sans-Serif" font-size="10.00">+ TVM_DECLARE_FINAL_OBJECT_INFO()</text>
<text text-anchor="start" x="8" y="-18.5" font-family="Helvetica,sans-Serif" font-size="10.00">+ make()</text>
<text text-anchor="start" x="8" y="-7.5" font-family="Helvetica,sans-Serif" font-size="10.00">+ constant_allocation_size()</text>
</a>
</g>
</g>
<!-- Node1&#45;&gt;Node3 -->
<g id="edge2" class="edge"><title>Node1&#45;&gt;Node3</title>
<path fill="none" stroke="midnightblue" d="M1439.31,-283.992C1137.77,-275.315 325.044,-247.832 213.5,-201 210.756,-199.848 208.034,-198.598 205.339,-197.263"/>
<polygon fill="none" stroke="midnightblue" points="1439.29,-287.492 1449.38,-284.28 1439.49,-280.495 1439.29,-287.492"/>
</g>
<!-- Node4 -->
<g id="node4" class="node"><title>Node4</title>
<g id="a_node4"><a xlink:href="classtvm_1_1tir_1_1AssertStmtNode.html" target="_top" xlink:title="Assert condition, if an error occurs, return the error message. ">
<polygon fill="white" stroke="black" points="223,-33.5 223,-167.5 428,-167.5 428,-33.5 223,-33.5"/>
<text text-anchor="middle" x="325.5" y="-155.5" font-family="Helvetica,sans-Serif" font-size="10.00">tvm::tir::AssertStmtNode</text>
<polyline fill="none" stroke="black" points="223,-148.5 428,-148.5 "/>
<text text-anchor="start" x="231" y="-136.5" font-family="Helvetica,sans-Serif" font-size="10.00">+ condition</text>
<text text-anchor="start" x="231" y="-125.5" font-family="Helvetica,sans-Serif" font-size="10.00">+ message</text>
<text text-anchor="start" x="231" y="-114.5" font-family="Helvetica,sans-Serif" font-size="10.00">+ body</text>
<text text-anchor="start" x="231" y="-103.5" font-family="Helvetica,sans-Serif" font-size="10.00">+ _type_key</text>
<polyline fill="none" stroke="black" points="223,-96.5 428,-96.5 "/>
<text text-anchor="start" x="231" y="-84.5" font-family="Helvetica,sans-Serif" font-size="10.00">+ VisitAttrs()</text>
<text text-anchor="start" x="231" y="-73.5" font-family="Helvetica,sans-Serif" font-size="10.00">+ SEqualReduce()</text>
<text text-anchor="start" x="231" y="-62.5" font-family="Helvetica,sans-Serif" font-size="10.00">+ SHashReduce()</text>
<text text-anchor="start" x="231" y="-51.5" font-family="Helvetica,sans-Serif" font-size="10.00">+ TVM_DECLARE_FINAL_OBJECT_INFO()</text>
<text text-anchor="start" x="231" y="-40.5" font-family="Helvetica,sans-Serif" font-size="10.00">+ make()</text>
</a>
</g>
</g>
<!-- Node1&#45;&gt;Node4 -->
<g id="edge3" class="edge"><title>Node1&#45;&gt;Node4</title>
<path fill="none" stroke="midnightblue" d="M1439.42,-287.406C1193.59,-286.847 614.789,-277.2 436.5,-201 418.057,-193.118 400.608,-180.889 385.241,-167.667"/>
<polygon fill="none" stroke="midnightblue" points="1439.44,-290.906 1449.45,-287.424 1439.45,-283.906 1439.44,-290.906"/>
</g>
<!-- Node5 -->
<g id="node5" class="node"><title>Node5</title>
<g id="a_node5"><a xlink:href="classtvm_1_1tir_1_1AttrStmtNode.html" target="_top" xlink:title="Define certain auxiliary attribute for the body to be a symbolic value. This provide auxiliary inform...">
<polygon fill="white" stroke="black" points="446,-28 446,-173 651,-173 651,-28 446,-28"/>
<text text-anchor="middle" x="548.5" y="-161" font-family="Helvetica,sans-Serif" font-size="10.00">tvm::tir::AttrStmtNode</text>
<polyline fill="none" stroke="black" points="446,-154 651,-154 "/>
<text text-anchor="start" x="454" y="-142" font-family="Helvetica,sans-Serif" font-size="10.00">+ node</text>
<text text-anchor="start" x="454" y="-131" font-family="Helvetica,sans-Serif" font-size="10.00">+ attr_key</text>
<text text-anchor="start" x="454" y="-120" font-family="Helvetica,sans-Serif" font-size="10.00">+ value</text>
<text text-anchor="start" x="454" y="-109" font-family="Helvetica,sans-Serif" font-size="10.00">+ body</text>
<text text-anchor="start" x="454" y="-98" font-family="Helvetica,sans-Serif" font-size="10.00">+ _type_key</text>
<polyline fill="none" stroke="black" points="446,-91 651,-91 "/>
<text text-anchor="start" x="454" y="-79" font-family="Helvetica,sans-Serif" font-size="10.00">+ VisitAttrs()</text>
<text text-anchor="start" x="454" y="-68" font-family="Helvetica,sans-Serif" font-size="10.00">+ SEqualReduce()</text>
<text text-anchor="start" x="454" y="-57" font-family="Helvetica,sans-Serif" font-size="10.00">+ SHashReduce()</text>
<text text-anchor="start" x="454" y="-46" font-family="Helvetica,sans-Serif" font-size="10.00">+ TVM_DECLARE_FINAL_OBJECT_INFO()</text>
<text text-anchor="start" x="454" y="-35" font-family="Helvetica,sans-Serif" font-size="10.00">+ make()</text>
</a>
</g>
</g>
<!-- Node1&#45;&gt;Node5 -->
<g id="edge4" class="edge"><title>Node1&#45;&gt;Node5</title>
<path fill="none" stroke="midnightblue" d="M1439.3,-284.854C1231.77,-279.47 796.607,-261.157 659.5,-201 643.859,-194.137 628.904,-184.2 615.323,-173.229"/>
<polygon fill="none" stroke="midnightblue" points="1439.23,-288.353 1449.31,-285.108 1439.41,-281.356 1439.23,-288.353"/>
</g>
<!-- Node6 -->
<g id="node6" class="node"><title>Node6</title>
<g id="a_node6"><a xlink:href="classtvm_1_1tir_1_1EvaluateNode.html" target="_top" xlink:title="Evaluates an expression. This is mostly used for putting a Call node into Stmt. ">
<polygon fill="white" stroke="black" points="669,-44.5 669,-156.5 874,-156.5 874,-44.5 669,-44.5"/>
<text text-anchor="middle" x="771.5" y="-144.5" font-family="Helvetica,sans-Serif" font-size="10.00">tvm::tir::EvaluateNode</text>
<polyline fill="none" stroke="black" points="669,-137.5 874,-137.5 "/>
<text text-anchor="start" x="677" y="-125.5" font-family="Helvetica,sans-Serif" font-size="10.00">+ value</text>
<text text-anchor="start" x="677" y="-114.5" font-family="Helvetica,sans-Serif" font-size="10.00">+ _type_key</text>
<polyline fill="none" stroke="black" points="669,-107.5 874,-107.5 "/>
<text text-anchor="start" x="677" y="-95.5" font-family="Helvetica,sans-Serif" font-size="10.00">+ VisitAttrs()</text>
<text text-anchor="start" x="677" y="-84.5" font-family="Helvetica,sans-Serif" font-size="10.00">+ SEqualReduce()</text>
<text text-anchor="start" x="677" y="-73.5" font-family="Helvetica,sans-Serif" font-size="10.00">+ SHashReduce()</text>
<text text-anchor="start" x="677" y="-62.5" font-family="Helvetica,sans-Serif" font-size="10.00">+ TVM_DECLARE_FINAL_OBJECT_INFO()</text>
<text text-anchor="start" x="677" y="-51.5" font-family="Helvetica,sans-Serif" font-size="10.00">+ make()</text>
</a>
</g>
</g>
<!-- Node1&#45;&gt;Node6 -->
<g id="edge5" class="edge"><title>Node1&#45;&gt;Node6</title>
<path fill="none" stroke="midnightblue" d="M1439.25,-280.641C1275.26,-269.996 979.164,-245.254 882.5,-201 859.557,-190.496 837.989,-173.561 820.077,-156.616"/>
<polygon fill="none" stroke="midnightblue" points="1439.17,-284.143 1449.38,-281.291 1439.62,-277.158 1439.17,-284.143"/>
</g>
<!-- Node7 -->
<g id="node7" class="node"><title>Node7</title>
<g id="a_node7"><a xlink:href="classtvm_1_1tir_1_1ForNode.html" target="_top" xlink:title="A for loop, with poissible type annotations. ">
<polygon fill="white" stroke="black" points="892,-17 892,-184 1097,-184 1097,-17 892,-17"/>
<text text-anchor="middle" x="994.5" y="-172" font-family="Helvetica,sans-Serif" font-size="10.00">tvm::tir::ForNode</text>
<polyline fill="none" stroke="black" points="892,-165 1097,-165 "/>
<text text-anchor="start" x="900" y="-153" font-family="Helvetica,sans-Serif" font-size="10.00">+ loop_var</text>
<text text-anchor="start" x="900" y="-142" font-family="Helvetica,sans-Serif" font-size="10.00">+ min</text>
<text text-anchor="start" x="900" y="-131" font-family="Helvetica,sans-Serif" font-size="10.00">+ extent</text>
<text text-anchor="start" x="900" y="-120" font-family="Helvetica,sans-Serif" font-size="10.00">+ for_type</text>
<text text-anchor="start" x="900" y="-109" font-family="Helvetica,sans-Serif" font-size="10.00">+ device_api</text>
<text text-anchor="start" x="900" y="-98" font-family="Helvetica,sans-Serif" font-size="10.00">+ body</text>
<text text-anchor="start" x="900" y="-87" font-family="Helvetica,sans-Serif" font-size="10.00">+ _type_key</text>
<polyline fill="none" stroke="black" points="892,-80 1097,-80 "/>
<text text-anchor="start" x="900" y="-68" font-family="Helvetica,sans-Serif" font-size="10.00">+ VisitAttrs()</text>
<text text-anchor="start" x="900" y="-57" font-family="Helvetica,sans-Serif" font-size="10.00">+ SEqualReduce()</text>
<text text-anchor="start" x="900" y="-46" font-family="Helvetica,sans-Serif" font-size="10.00">+ SHashReduce()</text>
<text text-anchor="start" x="900" y="-35" font-family="Helvetica,sans-Serif" font-size="10.00">+ TVM_DECLARE_FINAL_OBJECT_INFO()</text>
<text text-anchor="start" x="900" y="-24" font-family="Helvetica,sans-Serif" font-size="10.00">+ make()</text>
</a>
</g>
</g>
<!-- Node1&#45;&gt;Node7 -->
<g id="edge6" class="edge"><title>Node1&#45;&gt;Node7</title>
<path fill="none" stroke="midnightblue" d="M1439.08,-281.95C1345.56,-273.947 1211.14,-253.424 1105.5,-201 1096,-196.283 1086.69,-190.525 1077.76,-184.18"/>
<polygon fill="none" stroke="midnightblue" points="1438.89,-285.446 1449.14,-282.776 1439.46,-278.469 1438.89,-285.446"/>
</g>
<!-- Node8 -->
<g id="node8" class="node"><title>Node8</title>
<g id="a_node8"><a xlink:href="classtvm_1_1tir_1_1FreeNode.html" target="_top" xlink:title="Free the resources in the buffer before the scope ends. ">
<polygon fill="white" stroke="black" points="1115,-44.5 1115,-156.5 1320,-156.5 1320,-44.5 1115,-44.5"/>
<text text-anchor="middle" x="1217.5" y="-144.5" font-family="Helvetica,sans-Serif" font-size="10.00">tvm::tir::FreeNode</text>
<polyline fill="none" stroke="black" points="1115,-137.5 1320,-137.5 "/>
<text text-anchor="start" x="1123" y="-125.5" font-family="Helvetica,sans-Serif" font-size="10.00">+ buffer_var</text>
<text text-anchor="start" x="1123" y="-114.5" font-family="Helvetica,sans-Serif" font-size="10.00">+ _type_key</text>
<polyline fill="none" stroke="black" points="1115,-107.5 1320,-107.5 "/>
<text text-anchor="start" x="1123" y="-95.5" font-family="Helvetica,sans-Serif" font-size="10.00">+ VisitAttrs()</text>
<text text-anchor="start" x="1123" y="-84.5" font-family="Helvetica,sans-Serif" font-size="10.00">+ SEqualReduce()</text>
<text text-anchor="start" x="1123" y="-73.5" font-family="Helvetica,sans-Serif" font-size="10.00">+ SHashReduce()</text>
<text text-anchor="start" x="1123" y="-62.5" font-family="Helvetica,sans-Serif" font-size="10.00">+ TVM_DECLARE_FINAL_OBJECT_INFO()</text>
<text text-anchor="start" x="1123" y="-51.5" font-family="Helvetica,sans-Serif" font-size="10.00">+ make()</text>
</a>
</g>
</g>
<!-- Node1&#45;&gt;Node8 -->
<g id="edge7" class="edge"><title>Node1&#45;&gt;Node8</title>
<path fill="none" stroke="midnightblue" d="M1439.57,-252.848C1402.84,-239.319 1362.69,-221.936 1328.5,-201 1308.31,-188.634 1288.37,-172.396 1271.08,-156.635"/>
<polygon fill="none" stroke="midnightblue" points="1438.74,-256.268 1449.33,-256.383 1441.12,-249.687 1438.74,-256.268"/>
</g>
<!-- Node9 -->
<g id="node9" class="node"><title>Node9</title>
<g id="a_node9"><a xlink:href="classtvm_1_1tir_1_1IfThenElseNode.html" target="_top" xlink:title="IfThenElse statment. ">
<polygon fill="white" stroke="black" points="1338,-33.5 1338,-167.5 1543,-167.5 1543,-33.5 1338,-33.5"/>
<text text-anchor="middle" x="1440.5" y="-155.5" font-family="Helvetica,sans-Serif" font-size="10.00">tvm::tir::IfThenElseNode</text>
<polyline fill="none" stroke="black" points="1338,-148.5 1543,-148.5 "/>
<text text-anchor="start" x="1346" y="-136.5" font-family="Helvetica,sans-Serif" font-size="10.00">+ condition</text>
<text text-anchor="start" x="1346" y="-125.5" font-family="Helvetica,sans-Serif" font-size="10.00">+ then_case</text>
<text text-anchor="start" x="1346" y="-114.5" font-family="Helvetica,sans-Serif" font-size="10.00">+ else_case</text>
<text text-anchor="start" x="1346" y="-103.5" font-family="Helvetica,sans-Serif" font-size="10.00">+ _type_key</text>
<polyline fill="none" stroke="black" points="1338,-96.5 1543,-96.5 "/>
<text text-anchor="start" x="1346" y="-84.5" font-family="Helvetica,sans-Serif" font-size="10.00">+ VisitAttrs()</text>
<text text-anchor="start" x="1346" y="-73.5" font-family="Helvetica,sans-Serif" font-size="10.00">+ SEqualReduce()</text>
<text text-anchor="start" x="1346" y="-62.5" font-family="Helvetica,sans-Serif" font-size="10.00">+ SHashReduce()</text>
<text text-anchor="start" x="1346" y="-51.5" font-family="Helvetica,sans-Serif" font-size="10.00">+ TVM_DECLARE_FINAL_OBJECT_INFO()</text>
<text text-anchor="start" x="1346" y="-40.5" font-family="Helvetica,sans-Serif" font-size="10.00">+ make()</text>
</a>
</g>
</g>
<!-- Node1&#45;&gt;Node9 -->
<g id="edge8" class="edge"><title>Node1&#45;&gt;Node9</title>
<path fill="none" stroke="midnightblue" d="M1516.55,-228.588C1504.98,-209.263 1492.03,-187.621 1480.14,-167.752"/>
<polygon fill="none" stroke="midnightblue" points="1513.62,-230.506 1521.75,-237.289 1519.62,-226.911 1513.62,-230.506"/>
</g>
<!-- Node10 -->
<g id="node10" class="node"><title>Node10</title>
<g id="a_node10"><a xlink:href="classtvm_1_1tir_1_1LetStmtNode.html" target="_top" xlink:title="Let binding, bind var to value, then run body. ">
<polygon fill="white" stroke="black" points="1561,-33.5 1561,-167.5 1766,-167.5 1766,-33.5 1561,-33.5"/>
<text text-anchor="middle" x="1663.5" y="-155.5" font-family="Helvetica,sans-Serif" font-size="10.00">tvm::tir::LetStmtNode</text>
<polyline fill="none" stroke="black" points="1561,-148.5 1766,-148.5 "/>
<text text-anchor="start" x="1569" y="-136.5" font-family="Helvetica,sans-Serif" font-size="10.00">+ var</text>
<text text-anchor="start" x="1569" y="-125.5" font-family="Helvetica,sans-Serif" font-size="10.00">+ value</text>
<text text-anchor="start" x="1569" y="-114.5" font-family="Helvetica,sans-Serif" font-size="10.00">+ body</text>
<text text-anchor="start" x="1569" y="-103.5" font-family="Helvetica,sans-Serif" font-size="10.00">+ _type_key</text>
<polyline fill="none" stroke="black" points="1561,-96.5 1766,-96.5 "/>
<text text-anchor="start" x="1569" y="-84.5" font-family="Helvetica,sans-Serif" font-size="10.00">+ VisitAttrs()</text>
<text text-anchor="start" x="1569" y="-73.5" font-family="Helvetica,sans-Serif" font-size="10.00">+ SEqualReduce()</text>
<text text-anchor="start" x="1569" y="-62.5" font-family="Helvetica,sans-Serif" font-size="10.00">+ SHashReduce()</text>
<text text-anchor="start" x="1569" y="-51.5" font-family="Helvetica,sans-Serif" font-size="10.00">+ TVM_DECLARE_FINAL_OBJECT_INFO()</text>
<text text-anchor="start" x="1569" y="-40.5" font-family="Helvetica,sans-Serif" font-size="10.00">+ make()</text>
</a>
</g>
</g>
<!-- Node1&#45;&gt;Node10 -->
<g id="edge9" class="edge"><title>Node1&#45;&gt;Node10</title>
<path fill="none" stroke="midnightblue" d="M1586.77,-228.588C1598.44,-209.263 1611.5,-187.621 1623.5,-167.752"/>
<polygon fill="none" stroke="midnightblue" points="1583.69,-226.92 1581.51,-237.289 1589.68,-230.538 1583.69,-226.92"/>
</g>
<!-- Node11 -->
<g id="node11" class="node"><title>Node11</title>
<g id="a_node11"><a xlink:href="classtvm_1_1tir_1_1PrefetchNode.html" target="_top" xlink:title="A prefetch hint of func. ">
<polygon fill="white" stroke="black" points="1784,-28 1784,-173 1989,-173 1989,-28 1784,-28"/>
<text text-anchor="middle" x="1886.5" y="-161" font-family="Helvetica,sans-Serif" font-size="10.00">tvm::tir::PrefetchNode</text>
<polyline fill="none" stroke="black" points="1784,-154 1989,-154 "/>
<text text-anchor="start" x="1792" y="-142" font-family="Helvetica,sans-Serif" font-size="10.00">+ func</text>
<text text-anchor="start" x="1792" y="-131" font-family="Helvetica,sans-Serif" font-size="10.00">+ value_index</text>
<text text-anchor="start" x="1792" y="-120" font-family="Helvetica,sans-Serif" font-size="10.00">+ dtype</text>
<text text-anchor="start" x="1792" y="-109" font-family="Helvetica,sans-Serif" font-size="10.00">+ bounds</text>
<text text-anchor="start" x="1792" y="-98" font-family="Helvetica,sans-Serif" font-size="10.00">+ _type_key</text>
<polyline fill="none" stroke="black" points="1784,-91 1989,-91 "/>
<text text-anchor="start" x="1792" y="-79" font-family="Helvetica,sans-Serif" font-size="10.00">+ VisitAttrs()</text>
<text text-anchor="start" x="1792" y="-68" font-family="Helvetica,sans-Serif" font-size="10.00">+ SEqualReduce()</text>
<text text-anchor="start" x="1792" y="-57" font-family="Helvetica,sans-Serif" font-size="10.00">+ SHashReduce()</text>
<text text-anchor="start" x="1792" y="-46" font-family="Helvetica,sans-Serif" font-size="10.00">+ TVM_DECLARE_FINAL_OBJECT_INFO()</text>
<text text-anchor="start" x="1792" y="-35" font-family="Helvetica,sans-Serif" font-size="10.00">+ make()</text>
</a>
</g>
</g>
<!-- Node1&#45;&gt;Node11 -->
<g id="edge10" class="edge"><title>Node1&#45;&gt;Node11</title>
<path fill="none" stroke="midnightblue" d="M1663.41,-253.106C1700.45,-239.554 1741,-222.092 1775.5,-201 1788.64,-192.968 1801.67,-183.295 1813.92,-173.178"/>
<polygon fill="none" stroke="midnightblue" points="1661.79,-249.967 1653.57,-256.645 1664.16,-256.554 1661.79,-249.967"/>
</g>
<!-- Node12 -->
<g id="node12" class="node"><title>Node12</title>
<g id="a_node12"><a xlink:href="classtvm_1_1tir_1_1ProducerConsumerNode.html" target="_top" xlink:title="annotation node of producer/consumer relation. ">
<polygon fill="white" stroke="black" points="2007,-33.5 2007,-167.5 2212,-167.5 2212,-33.5 2007,-33.5"/>
<text text-anchor="middle" x="2109.5" y="-155.5" font-family="Helvetica,sans-Serif" font-size="10.00">tvm::tir::ProducerConsumerNode</text>
<polyline fill="none" stroke="black" points="2007,-148.5 2212,-148.5 "/>
<text text-anchor="start" x="2015" y="-136.5" font-family="Helvetica,sans-Serif" font-size="10.00">+ func</text>
<text text-anchor="start" x="2015" y="-125.5" font-family="Helvetica,sans-Serif" font-size="10.00">+ is_producer</text>
<text text-anchor="start" x="2015" y="-114.5" font-family="Helvetica,sans-Serif" font-size="10.00">+ body</text>
<text text-anchor="start" x="2015" y="-103.5" font-family="Helvetica,sans-Serif" font-size="10.00">+ _type_key</text>
<polyline fill="none" stroke="black" points="2007,-96.5 2212,-96.5 "/>
<text text-anchor="start" x="2015" y="-84.5" font-family="Helvetica,sans-Serif" font-size="10.00">+ VisitAttrs()</text>
<text text-anchor="start" x="2015" y="-73.5" font-family="Helvetica,sans-Serif" font-size="10.00">+ SEqualReduce()</text>
<text text-anchor="start" x="2015" y="-62.5" font-family="Helvetica,sans-Serif" font-size="10.00">+ SHashReduce()</text>
<text text-anchor="start" x="2015" y="-51.5" font-family="Helvetica,sans-Serif" font-size="10.00">+ TVM_DECLARE_FINAL_OBJECT_INFO()</text>
<text text-anchor="start" x="2015" y="-40.5" font-family="Helvetica,sans-Serif" font-size="10.00">+ make()</text>
</a>
</g>
</g>
<!-- Node1&#45;&gt;Node12 -->
<g id="edge11" class="edge"><title>Node1&#45;&gt;Node12</title>
<path fill="none" stroke="midnightblue" d="M1663.72,-282.036C1757.47,-274.089 1892.45,-253.6 1998.5,-201 2015.77,-192.433 2032.39,-180.425 2047.28,-167.705"/>
<polygon fill="none" stroke="midnightblue" points="1663.32,-278.557 1653.64,-282.856 1663.89,-285.534 1663.32,-278.557"/>
</g>
<!-- Node13 -->
<g id="node13" class="node"><title>Node13</title>
<g id="a_node13"><a xlink:href="classtvm_1_1tir_1_1ProvideNode.html" target="_top" xlink:title="Store value into mult&#45;dimensional array defined by func. ">
<polygon fill="white" stroke="black" points="2230,-28 2230,-173 2435,-173 2435,-28 2230,-28"/>
<text text-anchor="middle" x="2332.5" y="-161" font-family="Helvetica,sans-Serif" font-size="10.00">tvm::tir::ProvideNode</text>
<polyline fill="none" stroke="black" points="2230,-154 2435,-154 "/>
<text text-anchor="start" x="2238" y="-142" font-family="Helvetica,sans-Serif" font-size="10.00">+ func</text>
<text text-anchor="start" x="2238" y="-131" font-family="Helvetica,sans-Serif" font-size="10.00">+ value_index</text>
<text text-anchor="start" x="2238" y="-120" font-family="Helvetica,sans-Serif" font-size="10.00">+ value</text>
<text text-anchor="start" x="2238" y="-109" font-family="Helvetica,sans-Serif" font-size="10.00">+ args</text>
<text text-anchor="start" x="2238" y="-98" font-family="Helvetica,sans-Serif" font-size="10.00">+ _type_key</text>
<polyline fill="none" stroke="black" points="2230,-91 2435,-91 "/>
<text text-anchor="start" x="2238" y="-79" font-family="Helvetica,sans-Serif" font-size="10.00">+ VisitAttrs()</text>
<text text-anchor="start" x="2238" y="-68" font-family="Helvetica,sans-Serif" font-size="10.00">+ SEqualReduce()</text>
<text text-anchor="start" x="2238" y="-57" font-family="Helvetica,sans-Serif" font-size="10.00">+ SHashReduce()</text>
<text text-anchor="start" x="2238" y="-46" font-family="Helvetica,sans-Serif" font-size="10.00">+ TVM_DECLARE_FINAL_OBJECT_INFO()</text>
<text text-anchor="start" x="2238" y="-35" font-family="Helvetica,sans-Serif" font-size="10.00">+ make()</text>
</a>
</g>
</g>
<!-- Node1&#45;&gt;Node13 -->
<g id="edge12" class="edge"><title>Node1&#45;&gt;Node13</title>
<path fill="none" stroke="midnightblue" d="M1663.92,-280.655C1828.16,-270.028 2124.69,-245.31 2221.5,-201 2236.91,-193.945 2251.71,-183.987 2265.19,-173.072"/>
<polygon fill="none" stroke="midnightblue" points="1663.53,-277.173 1653.78,-281.304 1663.98,-284.158 1663.53,-277.173"/>
</g>
<!-- Node14 -->
<g id="node14" class="node"><title>Node14</title>
<g id="a_node14"><a xlink:href="classtvm_1_1tir_1_1RealizeNode.html" target="_top" xlink:title="Annotate the bounds where func need to be written and read in body. We will need to allocate space fo...">
<polygon fill="white" stroke="black" points="2453,-17 2453,-184 2658,-184 2658,-17 2453,-17"/>
<text text-anchor="middle" x="2555.5" y="-172" font-family="Helvetica,sans-Serif" font-size="10.00">tvm::tir::RealizeNode</text>
<polyline fill="none" stroke="black" points="2453,-165 2658,-165 "/>
<text text-anchor="start" x="2461" y="-153" font-family="Helvetica,sans-Serif" font-size="10.00">+ func</text>
<text text-anchor="start" x="2461" y="-142" font-family="Helvetica,sans-Serif" font-size="10.00">+ value_index</text>
<text text-anchor="start" x="2461" y="-131" font-family="Helvetica,sans-Serif" font-size="10.00">+ dtype</text>
<text text-anchor="start" x="2461" y="-120" font-family="Helvetica,sans-Serif" font-size="10.00">+ bounds</text>
<text text-anchor="start" x="2461" y="-109" font-family="Helvetica,sans-Serif" font-size="10.00">+ condition</text>
<text text-anchor="start" x="2461" y="-98" font-family="Helvetica,sans-Serif" font-size="10.00">+ body</text>
<text text-anchor="start" x="2461" y="-87" font-family="Helvetica,sans-Serif" font-size="10.00">+ _type_key</text>
<polyline fill="none" stroke="black" points="2453,-80 2658,-80 "/>
<text text-anchor="start" x="2461" y="-68" font-family="Helvetica,sans-Serif" font-size="10.00">+ VisitAttrs()</text>
<text text-anchor="start" x="2461" y="-57" font-family="Helvetica,sans-Serif" font-size="10.00">+ SEqualReduce()</text>
<text text-anchor="start" x="2461" y="-46" font-family="Helvetica,sans-Serif" font-size="10.00">+ SHashReduce()</text>
<text text-anchor="start" x="2461" y="-35" font-family="Helvetica,sans-Serif" font-size="10.00">+ TVM_DECLARE_FINAL_OBJECT_INFO()</text>
<text text-anchor="start" x="2461" y="-24" font-family="Helvetica,sans-Serif" font-size="10.00">+ make()</text>
</a>
</g>
</g>
<!-- Node1&#45;&gt;Node14 -->
<g id="edge13" class="edge"><title>Node1&#45;&gt;Node14</title>
<path fill="none" stroke="midnightblue" d="M1663.82,-284.865C1871.59,-279.499 2307.24,-261.217 2444.5,-201 2454.81,-196.477 2464.82,-190.619 2474.34,-184.009"/>
<polygon fill="none" stroke="midnightblue" points="1663.71,-281.367 1653.8,-285.119 1663.89,-288.365 1663.71,-281.367"/>
</g>
<!-- Node15 -->
<g id="node15" class="node"><title>Node15</title>
<g id="a_node15"><a xlink:href="classtvm_1_1tir_1_1SeqStmtNode.html" target="_top" xlink:title="The container of seq statement. Represent a sequence of statements. ">
<polygon fill="white" stroke="black" points="2676,-39 2676,-162 2881,-162 2881,-39 2676,-39"/>
<text text-anchor="middle" x="2778.5" y="-150" font-family="Helvetica,sans-Serif" font-size="10.00">tvm::tir::SeqStmtNode</text>
<polyline fill="none" stroke="black" points="2676,-143 2881,-143 "/>
<text text-anchor="start" x="2684" y="-131" font-family="Helvetica,sans-Serif" font-size="10.00">+ seq</text>
<text text-anchor="start" x="2684" y="-120" font-family="Helvetica,sans-Serif" font-size="10.00">+ _type_key</text>
<polyline fill="none" stroke="black" points="2676,-113 2881,-113 "/>
<text text-anchor="start" x="2684" y="-101" font-family="Helvetica,sans-Serif" font-size="10.00">+ size()</text>
<text text-anchor="start" x="2684" y="-90" font-family="Helvetica,sans-Serif" font-size="10.00">+ operator[]()</text>
<text text-anchor="start" x="2684" y="-79" font-family="Helvetica,sans-Serif" font-size="10.00">+ VisitAttrs()</text>
<text text-anchor="start" x="2684" y="-68" font-family="Helvetica,sans-Serif" font-size="10.00">+ SEqualReduce()</text>
<text text-anchor="start" x="2684" y="-57" font-family="Helvetica,sans-Serif" font-size="10.00">+ SHashReduce()</text>
<text text-anchor="start" x="2684" y="-46" font-family="Helvetica,sans-Serif" font-size="10.00">+ TVM_DECLARE_FINAL_OBJECT_INFO()</text>
</a>
</g>
</g>
<!-- Node1&#45;&gt;Node15 -->
<g id="edge14" class="edge"><title>Node1&#45;&gt;Node15</title>
<path fill="none" stroke="midnightblue" d="M1663.68,-287.415C1909.73,-286.874 2489.05,-277.262 2667.5,-201 2688.44,-192.05 2708.1,-177.496 2724.89,-162.248"/>
<polygon fill="none" stroke="midnightblue" points="1663.64,-283.915 1653.64,-287.433 1663.65,-290.915 1663.64,-283.915"/>
</g>
<!-- Node16 -->
<g id="node16" class="node"><title>Node16</title>
<g id="a_node16"><a xlink:href="classtvm_1_1tir_1_1StoreNode.html" target="_top" xlink:title="Store value to the buffer. ">
<polygon fill="white" stroke="black" points="2899,-28 2899,-173 3104,-173 3104,-28 2899,-28"/>
<text text-anchor="middle" x="3001.5" y="-161" font-family="Helvetica,sans-Serif" font-size="10.00">tvm::tir::StoreNode</text>
<polyline fill="none" stroke="black" points="2899,-154 3104,-154 "/>
<text text-anchor="start" x="2907" y="-142" font-family="Helvetica,sans-Serif" font-size="10.00">+ buffer_var</text>
<text text-anchor="start" x="2907" y="-131" font-family="Helvetica,sans-Serif" font-size="10.00">+ value</text>
<text text-anchor="start" x="2907" y="-120" font-family="Helvetica,sans-Serif" font-size="10.00">+ index</text>
<text text-anchor="start" x="2907" y="-109" font-family="Helvetica,sans-Serif" font-size="10.00">+ predicate</text>
<text text-anchor="start" x="2907" y="-98" font-family="Helvetica,sans-Serif" font-size="10.00">+ _type_key</text>
<polyline fill="none" stroke="black" points="2899,-91 3104,-91 "/>
<text text-anchor="start" x="2907" y="-79" font-family="Helvetica,sans-Serif" font-size="10.00">+ VisitAttrs()</text>
<text text-anchor="start" x="2907" y="-68" font-family="Helvetica,sans-Serif" font-size="10.00">+ SEqualReduce()</text>
<text text-anchor="start" x="2907" y="-57" font-family="Helvetica,sans-Serif" font-size="10.00">+ SHashReduce()</text>
<text text-anchor="start" x="2907" y="-46" font-family="Helvetica,sans-Serif" font-size="10.00">+ TVM_DECLARE_FINAL_OBJECT_INFO()</text>
<text text-anchor="start" x="2907" y="-35" font-family="Helvetica,sans-Serif" font-size="10.00">+ make()</text>
</a>
</g>
</g>
<!-- Node1&#45;&gt;Node16 -->
<g id="edge15" class="edge"><title>Node1&#45;&gt;Node16</title>
<path fill="none" stroke="midnightblue" d="M1663.77,-283.995C1965.54,-275.328 2778.87,-247.864 2890.5,-201 2906.49,-194.288 2921.71,-184.274 2935.47,-173.146"/>
<polygon fill="none" stroke="midnightblue" points="1663.59,-280.499 1653.69,-284.283 1663.79,-287.496 1663.59,-280.499"/>
</g>
<!-- Node2 -->
<g id="node2" class="node"><title>Node2</title>
<polygon fill="white" stroke="#bfbfbf" points="1528,-375.5 1528,-432.5 1575,-432.5 1575,-375.5 1528,-375.5"/>
<text text-anchor="middle" x="1551.5" y="-420.5" font-family="Helvetica,sans-Serif" font-size="10.00">Object</text>
<polyline fill="none" stroke="#bfbfbf" points="1528,-413.5 1575,-413.5 "/>
<text text-anchor="middle" x="1551.5" y="-401.5" font-family="Helvetica,sans-Serif" font-size="10.00"> </text>
<polyline fill="none" stroke="#bfbfbf" points="1528,-394.5 1575,-394.5 "/>
<text text-anchor="middle" x="1551.5" y="-382.5" font-family="Helvetica,sans-Serif" font-size="10.00"> </text>
</g>
<!-- Node2&#45;&gt;Node1 -->
<g id="edge1" class="edge"><title>Node2&#45;&gt;Node1</title>
<path fill="none" stroke="midnightblue" d="M1551.5,-365.354C1551.5,-356.796 1551.5,-347.578 1551.5,-338.608"/>
<polygon fill="none" stroke="midnightblue" points="1548,-365.404 1551.5,-375.404 1555,-365.404 1548,-365.404"/>
</g>
</g>
</svg>
