<?xml version="1.0" encoding="UTF-8" standalone="no"?>
<!DOCTYPE svg PUBLIC "-//W3C//DTD SVG 1.1//EN"
 "http://www.w3.org/Graphics/SVG/1.1/DTD/svg11.dtd">
<!-- Generated by graphviz version 2.38.0 (20140413.2041)
 -->
<!-- Title: tvm::te::OperationNode Pages: 1 -->
<svg width="296pt" height="420pt"
 viewBox="0.00 0.00 296.00 420.00" xmlns="http://www.w3.org/2000/svg" xmlns:xlink="http://www.w3.org/1999/xlink">
<g id="graph0" class="graph" transform="scale(1 1) rotate(0) translate(4 416)">
<title>tvm::te::OperationNode</title>
<polygon fill="white" stroke="none" points="-4,4 -4,-416 292,-416 292,4 -4,4"/>
<!-- Node1 -->
<g id="node1" class="node"><title>Node1</title>
<polygon fill="#bfbfbf" stroke="black" points="62,-0.5 62,-189.5 266,-189.5 266,-0.5 62,-0.5"/>
<text text-anchor="middle" x="164" y="-177.5" font-family="Helvetica,sans-Serif" font-size="10.00">tvm::te::OperationNode</text>
<polyline fill="none" stroke="black" points="62,-170.5 266,-170.5 "/>
<text text-anchor="start" x="70" y="-158.5" font-family="Helvetica,sans-Serif" font-size="10.00">+ name</text>
<text text-anchor="start" x="70" y="-147.5" font-family="Helvetica,sans-Serif" font-size="10.00">+ tag</text>
<text text-anchor="start" x="70" y="-136.5" font-family="Helvetica,sans-Serif" font-size="10.00">+ _type_key</text>
<polyline fill="none" stroke="black" points="62,-129.5 266,-129.5 "/>
<text text-anchor="start" x="70" y="-117.5" font-family="Helvetica,sans-Serif" font-size="10.00">+ func_name()</text>
<text text-anchor="start" x="70" y="-106.5" font-family="Helvetica,sans-Serif" font-size="10.00">+ root_iter_vars()</text>
<text text-anchor="start" x="70" y="-95.5" font-family="Helvetica,sans-Serif" font-size="10.00">+ output_dtype()</text>
<text text-anchor="start" x="70" y="-84.5" font-family="Helvetica,sans-Serif" font-size="10.00">+ output_shape()</text>
<text text-anchor="start" x="70" y="-73.5" font-family="Helvetica,sans-Serif" font-size="10.00">+ InputTensors()</text>
<text text-anchor="start" x="70" y="-62.5" font-family="Helvetica,sans-Serif" font-size="10.00">+ ReplaceInputs()</text>
<text text-anchor="start" x="70" y="-51.5" font-family="Helvetica,sans-Serif" font-size="10.00">+ PropBoundToInputs()</text>
<text text-anchor="start" x="70" y="-40.5" font-family="Helvetica,sans-Serif" font-size="10.00">+ GatherBound()</text>
<text text-anchor="start" x="70" y="-29.5" font-family="Helvetica,sans-Serif" font-size="10.00">+ BuildRealize()</text>
<text text-anchor="start" x="70" y="-18.5" font-family="Helvetica,sans-Serif" font-size="10.00">+ BuildProvide()</text>
<text text-anchor="start" x="70" y="-7.5" font-family="Helvetica,sans-Serif" font-size="10.00">+ TVM_DECLARE_BASE_OBJECT_INFO()</text>
</g>
<!-- Node2 -->
<g id="node2" class="node"><title>Node2</title>
<g id="a_node2"><a xlink:href="classtvm_1_1tir_1_1FunctionBaseNode.html" target="_top" xlink:title="Base node of internal functions. ">
<polygon fill="white" stroke="black" points="0,-237.5 0,-316.5 146,-316.5 146,-237.5 0,-237.5"/>
<text text-anchor="middle" x="73" y="-304.5" font-family="Helvetica,sans-Serif" font-size="10.00">tvm::tir::FunctionBaseNode</text>
<polyline fill="none" stroke="black" points="0,-297.5 146,-297.5 "/>
<text text-anchor="middle" x="73" y="-285.5" font-family="Helvetica,sans-Serif" font-size="10.00"> </text>
<polyline fill="none" stroke="black" points="0,-278.5 146,-278.5 "/>
<text text-anchor="start" x="8" y="-266.5" font-family="Helvetica,sans-Serif" font-size="10.00">+ ~FunctionBaseNode()</text>
<text text-anchor="start" x="8" y="-255.5" font-family="Helvetica,sans-Serif" font-size="10.00">+ func_name()</text>
<text text-anchor="start" x="8" y="-244.5" font-family="Helvetica,sans-Serif" font-size="10.00">+ num_outputs()</text>
</a>
</g>
</g>
<!-- Node2&#45;&gt;Node1 -->
<g id="edge1" class="edge"><title>Node2&#45;&gt;Node1</title>
<path fill="none" stroke="midnightblue" d="M97.2101,-228.112C103.242,-216.18 109.919,-202.973 116.65,-189.659"/>
<polygon fill="none" stroke="midnightblue" points="93.9101,-226.882 92.5218,-237.385 100.157,-230.04 93.9101,-226.882"/>
</g>
<!-- Node3 -->
<g id="node3" class="node"><title>Node3</title>
<polygon fill="white" stroke="#bfbfbf" points="49.5,-354.5 49.5,-411.5 96.5,-411.5 96.5,-354.5 49.5,-354.5"/>
<text text-anchor="middle" x="73" y="-399.5" font-family="Helvetica,sans-Serif" font-size="10.00">Object</text>
<polyline fill="none" stroke="#bfbfbf" points="49.5,-392.5 96.5,-392.5 "/>
<text text-anchor="middle" x="73" y="-380.5" font-family="Helvetica,sans-Serif" font-size="10.00"> </text>
<polyline fill="none" stroke="#bfbfbf" points="49.5,-373.5 96.5,-373.5 "/>
<text text-anchor="middle" x="73" y="-361.5" font-family="Helvetica,sans-Serif" font-size="10.00"> </text>
</g>
<!-- Node3&#45;&gt;Node2 -->
<g id="edge2" class="edge"><title>Node3&#45;&gt;Node2</title>
<path fill="none" stroke="midnightblue" d="M73,-344.232C73,-335.268 73,-325.693 73,-316.689"/>
<polygon fill="none" stroke="midnightblue" points="69.5001,-344.403 73,-354.403 76.5001,-344.403 69.5001,-344.403"/>
</g>
<!-- Node4 -->
<g id="node4" class="node"><title>Node4</title>
<polygon fill="white" stroke="#bfbfbf" points="164,-243 164,-311 288,-311 288,-243 164,-243"/>
<text text-anchor="start" x="172" y="-299" font-family="Helvetica,sans-Serif" font-size="10.00">tvm::Map&lt; std::string,</text>
<text text-anchor="middle" x="226" y="-288" font-family="Helvetica,sans-Serif" font-size="10.00"> ObjectRef &gt;</text>
<polyline fill="none" stroke="#bfbfbf" points="164,-281 288,-281 "/>
<text text-anchor="middle" x="226" y="-269" font-family="Helvetica,sans-Serif" font-size="10.00"> </text>
<polyline fill="none" stroke="#bfbfbf" points="164,-262 288,-262 "/>
<text text-anchor="middle" x="226" y="-250" font-family="Helvetica,sans-Serif" font-size="10.00"> </text>
</g>
<!-- Node4&#45;&gt;Node1 -->
<g id="edge3" class="edge"><title>Node4&#45;&gt;Node1</title>
<path fill="none" stroke="#404040" d="M214.628,-242.985C210.45,-230.854 205.463,-216.375 200.272,-201.307"/>
<polygon fill="none" stroke="#404040" points="200.182,-201.045 194.446,-196.674 196.274,-189.699 202.01,-194.069 200.182,-201.045"/>
<text text-anchor="middle" x="223" y="-211" font-family="Helvetica,sans-Serif" font-size="10.00"> +attrs</text>
</g>
<!-- Node5 -->
<g id="node5" class="node"><title>Node5</title>
<polygon fill="white" stroke="#bfbfbf" points="195,-354.5 195,-411.5 257,-411.5 257,-354.5 195,-354.5"/>
<text text-anchor="middle" x="226" y="-399.5" font-family="Helvetica,sans-Serif" font-size="10.00">ObjectRef</text>
<polyline fill="none" stroke="#bfbfbf" points="195,-392.5 257,-392.5 "/>
<text text-anchor="middle" x="226" y="-380.5" font-family="Helvetica,sans-Serif" font-size="10.00"> </text>
<polyline fill="none" stroke="#bfbfbf" points="195,-373.5 257,-373.5 "/>
<text text-anchor="middle" x="226" y="-361.5" font-family="Helvetica,sans-Serif" font-size="10.00"> </text>
</g>
<!-- Node5&#45;&gt;Node4 -->
<g id="edge4" class="edge"><title>Node5&#45;&gt;Node4</title>
<path fill="none" stroke="midnightblue" d="M226,-344.372C226,-333.55 226,-321.828 226,-311.288"/>
<polygon fill="none" stroke="midnightblue" points="222.5,-344.403 226,-354.403 229.5,-344.403 222.5,-344.403"/>
</g>
</g>
</svg>
