<?xml version="1.0" encoding="UTF-8" standalone="no"?>
<!DOCTYPE svg PUBLIC "-//W3C//DTD SVG 1.1//EN"
 "http://www.w3.org/Graphics/SVG/1.1/DTD/svg11.dtd">
<!-- Generated by graphviz version 2.38.0 (20140413.2041)
 -->
<!-- Title: tvm::te::BaseComputeOpNode Pages: 1 -->
<svg width="391pt" height="738pt"
 viewBox="0.00 0.00 391.00 738.00" xmlns="http://www.w3.org/2000/svg" xmlns:xlink="http://www.w3.org/1999/xlink">
<g id="graph0" class="graph" transform="scale(1 1) rotate(0) translate(4 734)">
<title>tvm::te::BaseComputeOpNode</title>
<polygon fill="white" stroke="none" points="-4,4 -4,-734 387,-734 387,4 -4,4"/>
<!-- Node1 -->
<g id="node1" class="node"><title>Node1</title>
<polygon fill="#bfbfbf" stroke="black" points="179,-0.5 179,-112.5 383,-112.5 383,-0.5 179,-0.5"/>
<text text-anchor="middle" x="281" y="-100.5" font-family="Helvetica,sans-Serif" font-size="10.00">tvm::te::BaseComputeOpNode</text>
<polyline fill="none" stroke="black" points="179,-93.5 383,-93.5 "/>
<text text-anchor="start" x="187" y="-81.5" font-family="Helvetica,sans-Serif" font-size="10.00">+ _type_key</text>
<polyline fill="none" stroke="black" points="179,-74.5 383,-74.5 "/>
<text text-anchor="start" x="187" y="-62.5" font-family="Helvetica,sans-Serif" font-size="10.00">+ root_iter_vars()</text>
<text text-anchor="start" x="187" y="-51.5" font-family="Helvetica,sans-Serif" font-size="10.00">+ output_shape()</text>
<text text-anchor="start" x="187" y="-40.5" font-family="Helvetica,sans-Serif" font-size="10.00">+ GatherBound()</text>
<text text-anchor="start" x="187" y="-29.5" font-family="Helvetica,sans-Serif" font-size="10.00">+ BuildRealize()</text>
<text text-anchor="start" x="187" y="-18.5" font-family="Helvetica,sans-Serif" font-size="10.00">+ num_schedulable_dims()</text>
<text text-anchor="start" x="187" y="-7.5" font-family="Helvetica,sans-Serif" font-size="10.00">+ TVM_DECLARE_BASE_OBJECT_INFO()</text>
</g>
<!-- Node2 -->
<g id="node2" class="node"><title>Node2</title>
<g id="a_node2"><a xlink:href="classtvm_1_1te_1_1OperationNode.html" target="_top" xlink:title="Base class of all operation nodes. ">
<polygon fill="white" stroke="black" points="76,-150.5 76,-339.5 280,-339.5 280,-150.5 76,-150.5"/>
<text text-anchor="middle" x="178" y="-327.5" font-family="Helvetica,sans-Serif" font-size="10.00">tvm::te::OperationNode</text>
<polyline fill="none" stroke="black" points="76,-320.5 280,-320.5 "/>
<text text-anchor="start" x="84" y="-308.5" font-family="Helvetica,sans-Serif" font-size="10.00">+ name</text>
<text text-anchor="start" x="84" y="-297.5" font-family="Helvetica,sans-Serif" font-size="10.00">+ tag</text>
<text text-anchor="start" x="84" y="-286.5" font-family="Helvetica,sans-Serif" font-size="10.00">+ _type_key</text>
<polyline fill="none" stroke="black" points="76,-279.5 280,-279.5 "/>
<text text-anchor="start" x="84" y="-267.5" font-family="Helvetica,sans-Serif" font-size="10.00">+ func_name()</text>
<text text-anchor="start" x="84" y="-256.5" font-family="Helvetica,sans-Serif" font-size="10.00">+ root_iter_vars()</text>
<text text-anchor="start" x="84" y="-245.5" font-family="Helvetica,sans-Serif" font-size="10.00">+ output_dtype()</text>
<text text-anchor="start" x="84" y="-234.5" font-family="Helvetica,sans-Serif" font-size="10.00">+ output_shape()</text>
<text text-anchor="start" x="84" y="-223.5" font-family="Helvetica,sans-Serif" font-size="10.00">+ InputTensors()</text>
<text text-anchor="start" x="84" y="-212.5" font-family="Helvetica,sans-Serif" font-size="10.00">+ ReplaceInputs()</text>
<text text-anchor="start" x="84" y="-201.5" font-family="Helvetica,sans-Serif" font-size="10.00">+ PropBoundToInputs()</text>
<text text-anchor="start" x="84" y="-190.5" font-family="Helvetica,sans-Serif" font-size="10.00">+ GatherBound()</text>
<text text-anchor="start" x="84" y="-179.5" font-family="Helvetica,sans-Serif" font-size="10.00">+ BuildRealize()</text>
<text text-anchor="start" x="84" y="-168.5" font-family="Helvetica,sans-Serif" font-size="10.00">+ BuildProvide()</text>
<text text-anchor="start" x="84" y="-157.5" font-family="Helvetica,sans-Serif" font-size="10.00">+ TVM_DECLARE_BASE_OBJECT_INFO()</text>
</a>
</g>
</g>
<!-- Node2&#45;&gt;Node1 -->
<g id="edge1" class="edge"><title>Node2&#45;&gt;Node1</title>
<path fill="none" stroke="midnightblue" d="M234.522,-141.656C240.051,-131.646 245.501,-121.778 250.615,-112.518"/>
<polygon fill="none" stroke="midnightblue" points="231.422,-140.031 229.651,-150.477 237.549,-143.415 231.422,-140.031"/>
</g>
<!-- Node3 -->
<g id="node3" class="node"><title>Node3</title>
<g id="a_node3"><a xlink:href="classtvm_1_1tir_1_1FunctionBaseNode.html" target="_top" xlink:title="Base node of internal functions. ">
<polygon fill="white" stroke="black" points="0,-555.5 0,-634.5 146,-634.5 146,-555.5 0,-555.5"/>
<text text-anchor="middle" x="73" y="-622.5" font-family="Helvetica,sans-Serif" font-size="10.00">tvm::tir::FunctionBaseNode</text>
<polyline fill="none" stroke="black" points="0,-615.5 146,-615.5 "/>
<text text-anchor="middle" x="73" y="-603.5" font-family="Helvetica,sans-Serif" font-size="10.00"> </text>
<polyline fill="none" stroke="black" points="0,-596.5 146,-596.5 "/>
<text text-anchor="start" x="8" y="-584.5" font-family="Helvetica,sans-Serif" font-size="10.00">+ ~FunctionBaseNode()</text>
<text text-anchor="start" x="8" y="-573.5" font-family="Helvetica,sans-Serif" font-size="10.00">+ func_name()</text>
<text text-anchor="start" x="8" y="-562.5" font-family="Helvetica,sans-Serif" font-size="10.00">+ num_outputs()</text>
</a>
</g>
</g>
<!-- Node3&#45;&gt;Node2 -->
<g id="edge2" class="edge"><title>Node3&#45;&gt;Node2</title>
<path fill="none" stroke="midnightblue" d="M87.6041,-545.598C103.616,-492.53 129.695,-406.097 149.737,-339.672"/>
<polygon fill="none" stroke="midnightblue" points="84.1759,-544.844 84.638,-555.428 90.8775,-546.866 84.1759,-544.844"/>
</g>
<!-- Node4 -->
<g id="node4" class="node"><title>Node4</title>
<polygon fill="white" stroke="#bfbfbf" points="49.5,-672.5 49.5,-729.5 96.5,-729.5 96.5,-672.5 49.5,-672.5"/>
<text text-anchor="middle" x="73" y="-717.5" font-family="Helvetica,sans-Serif" font-size="10.00">Object</text>
<polyline fill="none" stroke="#bfbfbf" points="49.5,-710.5 96.5,-710.5 "/>
<text text-anchor="middle" x="73" y="-698.5" font-family="Helvetica,sans-Serif" font-size="10.00"> </text>
<polyline fill="none" stroke="#bfbfbf" points="49.5,-691.5 96.5,-691.5 "/>
<text text-anchor="middle" x="73" y="-679.5" font-family="Helvetica,sans-Serif" font-size="10.00"> </text>
</g>
<!-- Node4&#45;&gt;Node3 -->
<g id="edge3" class="edge"><title>Node4&#45;&gt;Node3</title>
<path fill="none" stroke="midnightblue" d="M73,-662.232C73,-653.268 73,-643.693 73,-634.689"/>
<polygon fill="none" stroke="midnightblue" points="69.5001,-662.403 73,-672.403 76.5001,-662.403 69.5001,-662.403"/>
</g>
<!-- Node5 -->
<g id="node5" class="node"><title>Node5</title>
<polygon fill="white" stroke="#bfbfbf" points="164,-561 164,-629 288,-629 288,-561 164,-561"/>
<text text-anchor="start" x="172" y="-617" font-family="Helvetica,sans-Serif" font-size="10.00">tvm::Map&lt; std::string,</text>
<text text-anchor="middle" x="226" y="-606" font-family="Helvetica,sans-Serif" font-size="10.00"> ObjectRef &gt;</text>
<polyline fill="none" stroke="#bfbfbf" points="164,-599 288,-599 "/>
<text text-anchor="middle" x="226" y="-587" font-family="Helvetica,sans-Serif" font-size="10.00"> </text>
<polyline fill="none" stroke="#bfbfbf" points="164,-580 288,-580 "/>
<text text-anchor="middle" x="226" y="-568" font-family="Helvetica,sans-Serif" font-size="10.00"> </text>
</g>
<!-- Node5&#45;&gt;Node2 -->
<g id="edge4" class="edge"><title>Node5&#45;&gt;Node2</title>
<path fill="none" stroke="#404040" d="M219.938,-560.886C218.576,-553.064 217.185,-544.747 216,-537 206.617,-475.65 197.56,-406.799 190.643,-351.474"/>
<polygon fill="none" stroke="#404040" points="190.638,-351.431 185.927,-345.971 189.156,-339.523 193.866,-344.983 190.638,-351.431"/>
<text text-anchor="middle" x="233" y="-445" font-family="Helvetica,sans-Serif" font-size="10.00"> +attrs</text>
</g>
<!-- Node6 -->
<g id="node6" class="node"><title>Node6</title>
<polygon fill="white" stroke="#bfbfbf" points="262,-672.5 262,-729.5 324,-729.5 324,-672.5 262,-672.5"/>
<text text-anchor="middle" x="293" y="-717.5" font-family="Helvetica,sans-Serif" font-size="10.00">ObjectRef</text>
<polyline fill="none" stroke="#bfbfbf" points="262,-710.5 324,-710.5 "/>
<text text-anchor="middle" x="293" y="-698.5" font-family="Helvetica,sans-Serif" font-size="10.00"> </text>
<polyline fill="none" stroke="#bfbfbf" points="262,-691.5 324,-691.5 "/>
<text text-anchor="middle" x="293" y="-679.5" font-family="Helvetica,sans-Serif" font-size="10.00"> </text>
</g>
<!-- Node6&#45;&gt;Node5 -->
<g id="edge5" class="edge"><title>Node6&#45;&gt;Node5</title>
<path fill="none" stroke="midnightblue" d="M269.618,-663.706C262.411,-652.519 254.515,-640.262 247.445,-629.288"/>
<polygon fill="none" stroke="midnightblue" points="266.863,-665.892 275.221,-672.403 272.748,-662.101 266.863,-665.892"/>
</g>
<!-- Node7 -->
<g id="node7" class="node"><title>Node7</title>
<g id="a_node7"><a xlink:href="classtvm_1_1Array.html" target="_top" xlink:title="{tvm::Array\&lt; tvm::tir\l::IterVar \&gt;\n||+ Array()\l+ Array()\l+ Array()\l+ Array()\l+ Array()\l+ Array()\l+ Array()\l+ Array()\l+ operator=()\l+ operator=()\land 13 more...\l}">
<polygon fill="white" stroke="black" points="259.5,-358.5 259.5,-536.5 372.5,-536.5 372.5,-358.5 259.5,-358.5"/>
<text text-anchor="start" x="267.5" y="-524.5" font-family="Helvetica,sans-Serif" font-size="10.00">tvm::Array&lt; tvm::tir</text>
<text text-anchor="middle" x="316" y="-513.5" font-family="Helvetica,sans-Serif" font-size="10.00">::IterVar &gt;</text>
<polyline fill="none" stroke="black" points="259.5,-506.5 372.5,-506.5 "/>
<text text-anchor="middle" x="316" y="-494.5" font-family="Helvetica,sans-Serif" font-size="10.00"> </text>
<polyline fill="none" stroke="black" points="259.5,-487.5 372.5,-487.5 "/>
<text text-anchor="start" x="267.5" y="-475.5" font-family="Helvetica,sans-Serif" font-size="10.00">+ Array()</text>
<text text-anchor="start" x="267.5" y="-464.5" font-family="Helvetica,sans-Serif" font-size="10.00">+ Array()</text>
<text text-anchor="start" x="267.5" y="-453.5" font-family="Helvetica,sans-Serif" font-size="10.00">+ Array()</text>
<text text-anchor="start" x="267.5" y="-442.5" font-family="Helvetica,sans-Serif" font-size="10.00">+ Array()</text>
<text text-anchor="start" x="267.5" y="-431.5" font-family="Helvetica,sans-Serif" font-size="10.00">+ Array()</text>
<text text-anchor="start" x="267.5" y="-420.5" font-family="Helvetica,sans-Serif" font-size="10.00">+ Array()</text>
<text text-anchor="start" x="267.5" y="-409.5" font-family="Helvetica,sans-Serif" font-size="10.00">+ Array()</text>
<text text-anchor="start" x="267.5" y="-398.5" font-family="Helvetica,sans-Serif" font-size="10.00">+ Array()</text>
<text text-anchor="start" x="267.5" y="-387.5" font-family="Helvetica,sans-Serif" font-size="10.00">+ operator=()</text>
<text text-anchor="start" x="267.5" y="-376.5" font-family="Helvetica,sans-Serif" font-size="10.00">+ operator=()</text>
<text text-anchor="start" x="267.5" y="-365.5" font-family="Helvetica,sans-Serif" font-size="10.00">and 13 more...</text>
</a>
</g>
</g>
<!-- Node6&#45;&gt;Node7 -->
<g id="edge7" class="edge"><title>Node6&#45;&gt;Node7</title>
<path fill="none" stroke="midnightblue" d="M296.479,-661.962C299.509,-628.822 304.021,-579.49 307.943,-536.596"/>
<polygon fill="none" stroke="midnightblue" points="292.975,-661.847 295.549,-672.124 299.946,-662.485 292.975,-661.847"/>
</g>
<!-- Node7&#45;&gt;Node1 -->
<g id="edge6" class="edge"><title>Node7&#45;&gt;Node1</title>
<path fill="none" stroke="#404040" d="M308.058,-358.23C301.682,-287.366 292.864,-189.364 287.051,-124.751"/>
<polygon fill="none" stroke="#404040" points="287.041,-124.642 282.52,-119.025 285.966,-112.691 290.487,-118.308 287.041,-124.642"/>
<text text-anchor="middle" x="340" y="-248" font-family="Helvetica,sans-Serif" font-size="10.00"> +axis</text>
<text text-anchor="middle" x="340" y="-237" font-family="Helvetica,sans-Serif" font-size="10.00">+reduce_axis</text>
</g>
</g>
</svg>
