<?xml version="1.0" encoding="UTF-8" standalone="no"?>
<!DOCTYPE svg PUBLIC "-//W3C//DTD SVG 1.1//EN"
 "http://www.w3.org/Graphics/SVG/1.1/DTD/svg11.dtd">
<!-- Generated by graphviz version 2.38.0 (20140413.2041)
 -->
<!-- Title: tvm::TypeDataNode Pages: 1 -->
<svg width="658pt" height="616pt"
 viewBox="0.00 0.00 658.00 616.00" xmlns="http://www.w3.org/2000/svg" xmlns:xlink="http://www.w3.org/1999/xlink">
<g id="graph0" class="graph" transform="scale(1 1) rotate(0) translate(4 612)">
<title>tvm::TypeDataNode</title>
<polygon fill="white" stroke="none" points="-4,4 -4,-612 654,-612 654,4 -4,4"/>
<!-- Node1 -->
<g id="node1" class="node"><title>Node1</title>
<polygon fill="#bfbfbf" stroke="black" points="273,-0.5 273,-90.5 478,-90.5 478,-0.5 273,-0.5"/>
<text text-anchor="middle" x="375.5" y="-78.5" font-family="Helvetica,sans-Serif" font-size="10.00">tvm::TypeDataNode</text>
<polyline fill="none" stroke="black" points="273,-71.5 478,-71.5 "/>
<text text-anchor="start" x="281" y="-59.5" font-family="Helvetica,sans-Serif" font-size="10.00">+ _type_key</text>
<polyline fill="none" stroke="black" points="273,-52.5 478,-52.5 "/>
<text text-anchor="start" x="281" y="-40.5" font-family="Helvetica,sans-Serif" font-size="10.00">+ VisitAttrs()</text>
<text text-anchor="start" x="281" y="-29.5" font-family="Helvetica,sans-Serif" font-size="10.00">+ SEqualReduce()</text>
<text text-anchor="start" x="281" y="-18.5" font-family="Helvetica,sans-Serif" font-size="10.00">+ SHashReduce()</text>
<text text-anchor="start" x="281" y="-7.5" font-family="Helvetica,sans-Serif" font-size="10.00">+ TVM_DECLARE_FINAL_OBJECT_INFO()</text>
</g>
<!-- Node2 -->
<g id="node2" class="node"><title>Node2</title>
<g id="a_node2"><a xlink:href="classtvm_1_1TypeNode.html" target="_top" xlink:title="Type is the base type of all types. ">
<polygon fill="white" stroke="black" points="10.5,-138.5 10.5,-239.5 214.5,-239.5 214.5,-138.5 10.5,-138.5"/>
<text text-anchor="middle" x="112.5" y="-227.5" font-family="Helvetica,sans-Serif" font-size="10.00">tvm::TypeNode</text>
<polyline fill="none" stroke="black" points="10.5,-220.5 214.5,-220.5 "/>
<text text-anchor="start" x="18.5" y="-208.5" font-family="Helvetica,sans-Serif" font-size="10.00">+ _type_key</text>
<text text-anchor="start" x="18.5" y="-197.5" font-family="Helvetica,sans-Serif" font-size="10.00">+ _type_has_method_sequal</text>
<text text-anchor="start" x="18.5" y="-186.5" font-family="Helvetica,sans-Serif" font-size="10.00">_reduce</text>
<text text-anchor="start" x="18.5" y="-175.5" font-family="Helvetica,sans-Serif" font-size="10.00">+ _type_has_method_shash</text>
<text text-anchor="start" x="18.5" y="-164.5" font-family="Helvetica,sans-Serif" font-size="10.00">_reduce</text>
<polyline fill="none" stroke="black" points="10.5,-157.5 214.5,-157.5 "/>
<text text-anchor="start" x="18.5" y="-145.5" font-family="Helvetica,sans-Serif" font-size="10.00">+ TVM_DECLARE_BASE_OBJECT_INFO()</text>
</a>
</g>
</g>
<!-- Node2&#45;&gt;Node1 -->
<g id="edge1" class="edge"><title>Node2&#45;&gt;Node1</title>
<path fill="none" stroke="midnightblue" d="M213.727,-133.538C240.104,-119.346 268.2,-104.23 293.449,-90.6452"/>
<polygon fill="none" stroke="midnightblue" points="212.002,-130.491 204.854,-138.311 215.319,-136.656 212.002,-130.491"/>
</g>
<!-- Node3 -->
<g id="node3" class="node"><title>Node3</title>
<polygon fill="white" stroke="#bfbfbf" points="0,-450 0,-507 47,-507 47,-450 0,-450"/>
<text text-anchor="middle" x="23.5" y="-495" font-family="Helvetica,sans-Serif" font-size="10.00">Object</text>
<polyline fill="none" stroke="#bfbfbf" points="0,-488 47,-488 "/>
<text text-anchor="middle" x="23.5" y="-476" font-family="Helvetica,sans-Serif" font-size="10.00"> </text>
<polyline fill="none" stroke="#bfbfbf" points="0,-469 47,-469 "/>
<text text-anchor="middle" x="23.5" y="-457" font-family="Helvetica,sans-Serif" font-size="10.00"> </text>
</g>
<!-- Node3&#45;&gt;Node2 -->
<g id="edge2" class="edge"><title>Node3&#45;&gt;Node2</title>
<path fill="none" stroke="midnightblue" d="M35.0276,-440.262C50.8796,-389.055 79.4476,-296.77 97.1113,-239.711"/>
<polygon fill="none" stroke="midnightblue" points="31.6475,-439.345 32.0337,-449.933 38.3344,-441.416 31.6475,-439.345"/>
</g>
<!-- Node4 -->
<g id="node4" class="node"><title>Node4</title>
<g id="a_node4"><a xlink:href="classtvm_1_1Span.html" target="_top" xlink:title="{tvm::Span\n||+ TVM_DEFINE_OBJECT_REF\l_METHODS()\l}">
<polygon fill="white" stroke="black" points="64.5,-444.5 64.5,-512.5 214.5,-512.5 214.5,-444.5 64.5,-444.5"/>
<text text-anchor="middle" x="139.5" y="-500.5" font-family="Helvetica,sans-Serif" font-size="10.00">tvm::Span</text>
<polyline fill="none" stroke="black" points="64.5,-493.5 214.5,-493.5 "/>
<text text-anchor="middle" x="139.5" y="-481.5" font-family="Helvetica,sans-Serif" font-size="10.00"> </text>
<polyline fill="none" stroke="black" points="64.5,-474.5 214.5,-474.5 "/>
<text text-anchor="start" x="72.5" y="-462.5" font-family="Helvetica,sans-Serif" font-size="10.00">+ TVM_DEFINE_OBJECT_REF</text>
<text text-anchor="start" x="72.5" y="-451.5" font-family="Helvetica,sans-Serif" font-size="10.00">_METHODS()</text>
</a>
</g>
</g>
<!-- Node4&#45;&gt;Node2 -->
<g id="edge3" class="edge"><title>Node4&#45;&gt;Node2</title>
<path fill="none" stroke="#404040" d="M136.376,-444.239C131.964,-397.252 123.826,-310.605 118.291,-251.659"/>
<polygon fill="none" stroke="#404040" points="118.273,-251.473 113.73,-245.873 117.151,-239.526 121.695,-245.125 118.273,-251.473"/>
<text text-anchor="middle" x="152" y="-339.5" font-family="Helvetica,sans-Serif" font-size="10.00"> +span</text>
</g>
<!-- Node5 -->
<g id="node5" class="node"><title>Node5</title>
<polygon fill="white" stroke="#bfbfbf" points="347.5,-550.5 347.5,-607.5 409.5,-607.5 409.5,-550.5 347.5,-550.5"/>
<text text-anchor="middle" x="378.5" y="-595.5" font-family="Helvetica,sans-Serif" font-size="10.00">ObjectRef</text>
<polyline fill="none" stroke="#bfbfbf" points="347.5,-588.5 409.5,-588.5 "/>
<text text-anchor="middle" x="378.5" y="-576.5" font-family="Helvetica,sans-Serif" font-size="10.00"> </text>
<polyline fill="none" stroke="#bfbfbf" points="347.5,-569.5 409.5,-569.5 "/>
<text text-anchor="middle" x="378.5" y="-557.5" font-family="Helvetica,sans-Serif" font-size="10.00"> </text>
</g>
<!-- Node5&#45;&gt;Node4 -->
<g id="edge4" class="edge"><title>Node5&#45;&gt;Node4</title>
<path fill="none" stroke="midnightblue" d="M337.751,-561.206C304.102,-547.338 255.437,-527.282 214.744,-510.511"/>
<polygon fill="none" stroke="midnightblue" points="336.676,-564.548 347.255,-565.123 339.343,-558.076 336.676,-564.548"/>
</g>
<!-- Node7 -->
<g id="node7" class="node"><title>Node7</title>
<g id="a_node7"><a xlink:href="classtvm_1_1Type.html" target="_top" xlink:title="Managed reference to TypeNode. ">
<polygon fill="white" stroke="black" points="232.5,-444.5 232.5,-512.5 382.5,-512.5 382.5,-444.5 232.5,-444.5"/>
<text text-anchor="middle" x="307.5" y="-500.5" font-family="Helvetica,sans-Serif" font-size="10.00">tvm::Type</text>
<polyline fill="none" stroke="black" points="232.5,-493.5 382.5,-493.5 "/>
<text text-anchor="middle" x="307.5" y="-481.5" font-family="Helvetica,sans-Serif" font-size="10.00"> </text>
<polyline fill="none" stroke="black" points="232.5,-474.5 382.5,-474.5 "/>
<text text-anchor="start" x="240.5" y="-462.5" font-family="Helvetica,sans-Serif" font-size="10.00">+ TVM_DEFINE_OBJECT_REF</text>
<text text-anchor="start" x="240.5" y="-451.5" font-family="Helvetica,sans-Serif" font-size="10.00">_METHODS()</text>
</a>
</g>
</g>
<!-- Node5&#45;&gt;Node7 -->
<g id="edge7" class="edge"><title>Node5&#45;&gt;Node7</title>
<path fill="none" stroke="midnightblue" d="M352.595,-542.062C345.649,-532.425 338.172,-522.053 331.343,-512.578"/>
<polygon fill="none" stroke="midnightblue" points="349.847,-544.234 358.534,-550.3 355.525,-540.141 349.847,-544.234"/>
</g>
<!-- Node8 -->
<g id="node8" class="node"><title>Node8</title>
<g id="a_node8"><a xlink:href="classtvm_1_1Array.html" target="_top" xlink:title="{tvm::Array\&lt; tvm::Constructor \&gt;\n||+ Array()\l+ Array()\l+ Array()\l+ Array()\l+ Array()\l+ Array()\l+ Array()\l+ Array()\l+ operator=()\l+ operator=()\land 13 more...\l}">
<polygon fill="white" stroke="black" points="323.5,-258.5 323.5,-425.5 493.5,-425.5 493.5,-258.5 323.5,-258.5"/>
<text text-anchor="middle" x="408.5" y="-413.5" font-family="Helvetica,sans-Serif" font-size="10.00">tvm::Array&lt; tvm::Constructor &gt;</text>
<polyline fill="none" stroke="black" points="323.5,-406.5 493.5,-406.5 "/>
<text text-anchor="middle" x="408.5" y="-394.5" font-family="Helvetica,sans-Serif" font-size="10.00"> </text>
<polyline fill="none" stroke="black" points="323.5,-387.5 493.5,-387.5 "/>
<text text-anchor="start" x="331.5" y="-375.5" font-family="Helvetica,sans-Serif" font-size="10.00">+ Array()</text>
<text text-anchor="start" x="331.5" y="-364.5" font-family="Helvetica,sans-Serif" font-size="10.00">+ Array()</text>
<text text-anchor="start" x="331.5" y="-353.5" font-family="Helvetica,sans-Serif" font-size="10.00">+ Array()</text>
<text text-anchor="start" x="331.5" y="-342.5" font-family="Helvetica,sans-Serif" font-size="10.00">+ Array()</text>
<text text-anchor="start" x="331.5" y="-331.5" font-family="Helvetica,sans-Serif" font-size="10.00">+ Array()</text>
<text text-anchor="start" x="331.5" y="-320.5" font-family="Helvetica,sans-Serif" font-size="10.00">+ Array()</text>
<text text-anchor="start" x="331.5" y="-309.5" font-family="Helvetica,sans-Serif" font-size="10.00">+ Array()</text>
<text text-anchor="start" x="331.5" y="-298.5" font-family="Helvetica,sans-Serif" font-size="10.00">+ Array()</text>
<text text-anchor="start" x="331.5" y="-287.5" font-family="Helvetica,sans-Serif" font-size="10.00">+ operator=()</text>
<text text-anchor="start" x="331.5" y="-276.5" font-family="Helvetica,sans-Serif" font-size="10.00">+ operator=()</text>
<text text-anchor="start" x="331.5" y="-265.5" font-family="Helvetica,sans-Serif" font-size="10.00">and 13 more...</text>
</a>
</g>
</g>
<!-- Node5&#45;&gt;Node8 -->
<g id="edge9" class="edge"><title>Node5&#45;&gt;Node8</title>
<path fill="none" stroke="midnightblue" d="M386.657,-540.462C388.425,-531.494 390.164,-521.931 391.5,-513 395.736,-484.692 399.194,-453.57 401.859,-425.777"/>
<polygon fill="none" stroke="midnightblue" points="383.225,-539.774 384.667,-550.27 390.085,-541.165 383.225,-539.774"/>
</g>
<!-- Node9 -->
<g id="node9" class="node"><title>Node9</title>
<g id="a_node9"><a xlink:href="classtvm_1_1Array.html" target="_top" xlink:title="{tvm::Array\&lt; tvm::TypeVar \&gt;\n||+ Array()\l+ Array()\l+ Array()\l+ Array()\l+ Array()\l+ Array()\l+ Array()\l+ Array()\l+ operator=()\l+ operator=()\land 13 more...\l}">
<polygon fill="white" stroke="black" points="499,-258.5 499,-425.5 650,-425.5 650,-258.5 499,-258.5"/>
<text text-anchor="middle" x="574.5" y="-413.5" font-family="Helvetica,sans-Serif" font-size="10.00">tvm::Array&lt; tvm::TypeVar &gt;</text>
<polyline fill="none" stroke="black" points="499,-406.5 650,-406.5 "/>
<text text-anchor="middle" x="574.5" y="-394.5" font-family="Helvetica,sans-Serif" font-size="10.00"> </text>
<polyline fill="none" stroke="black" points="499,-387.5 650,-387.5 "/>
<text text-anchor="start" x="507" y="-375.5" font-family="Helvetica,sans-Serif" font-size="10.00">+ Array()</text>
<text text-anchor="start" x="507" y="-364.5" font-family="Helvetica,sans-Serif" font-size="10.00">+ Array()</text>
<text text-anchor="start" x="507" y="-353.5" font-family="Helvetica,sans-Serif" font-size="10.00">+ Array()</text>
<text text-anchor="start" x="507" y="-342.5" font-family="Helvetica,sans-Serif" font-size="10.00">+ Array()</text>
<text text-anchor="start" x="507" y="-331.5" font-family="Helvetica,sans-Serif" font-size="10.00">+ Array()</text>
<text text-anchor="start" x="507" y="-320.5" font-family="Helvetica,sans-Serif" font-size="10.00">+ Array()</text>
<text text-anchor="start" x="507" y="-309.5" font-family="Helvetica,sans-Serif" font-size="10.00">+ Array()</text>
<text text-anchor="start" x="507" y="-298.5" font-family="Helvetica,sans-Serif" font-size="10.00">+ Array()</text>
<text text-anchor="start" x="507" y="-287.5" font-family="Helvetica,sans-Serif" font-size="10.00">+ operator=()</text>
<text text-anchor="start" x="507" y="-276.5" font-family="Helvetica,sans-Serif" font-size="10.00">+ operator=()</text>
<text text-anchor="start" x="507" y="-265.5" font-family="Helvetica,sans-Serif" font-size="10.00">and 13 more...</text>
</a>
</g>
</g>
<!-- Node5&#45;&gt;Node9 -->
<g id="edge11" class="edge"><title>Node5&#45;&gt;Node9</title>
<path fill="none" stroke="midnightblue" d="M408.353,-542.207C434.129,-511.302 472.361,-465.462 505.655,-425.544"/>
<polygon fill="none" stroke="midnightblue" points="405.471,-540.198 401.753,-550.12 410.846,-544.682 405.471,-540.198"/>
</g>
<!-- Node6 -->
<g id="node6" class="node"><title>Node6</title>
<g id="a_node6"><a xlink:href="classtvm_1_1GlobalTypeVar.html" target="_top" xlink:title="Managed reference to GlobalTypeVarNode. ">
<polygon fill="white" stroke="black" points="232.5,-149.5 232.5,-228.5 382.5,-228.5 382.5,-149.5 232.5,-149.5"/>
<text text-anchor="middle" x="307.5" y="-216.5" font-family="Helvetica,sans-Serif" font-size="10.00">tvm::GlobalTypeVar</text>
<polyline fill="none" stroke="black" points="232.5,-209.5 382.5,-209.5 "/>
<text text-anchor="middle" x="307.5" y="-197.5" font-family="Helvetica,sans-Serif" font-size="10.00"> </text>
<polyline fill="none" stroke="black" points="232.5,-190.5 382.5,-190.5 "/>
<text text-anchor="start" x="240.5" y="-178.5" font-family="Helvetica,sans-Serif" font-size="10.00">+ GlobalTypeVar()</text>
<text text-anchor="start" x="240.5" y="-167.5" font-family="Helvetica,sans-Serif" font-size="10.00">+ TVM_DEFINE_OBJECT_REF</text>
<text text-anchor="start" x="240.5" y="-156.5" font-family="Helvetica,sans-Serif" font-size="10.00">_METHODS()</text>
</a>
</g>
</g>
<!-- Node6&#45;&gt;Node1 -->
<g id="edge5" class="edge"><title>Node6&#45;&gt;Node1</title>
<path fill="none" stroke="#404040" d="M326.081,-149.335C333.174,-134.575 341.403,-117.452 349.087,-101.462"/>
<polygon fill="none" stroke="#404040" points="349.101,-101.433 348.095,-94.2922 354.299,-90.6168 355.305,-97.7574 349.101,-101.433"/>
<text text-anchor="middle" x="367.5" y="-112" font-family="Helvetica,sans-Serif" font-size="10.00"> +header</text>
</g>
<!-- Node7&#45;&gt;Node6 -->
<g id="edge6" class="edge"><title>Node7&#45;&gt;Node6</title>
<path fill="none" stroke="midnightblue" d="M307.5,-433.977C307.5,-378.201 307.5,-282.35 307.5,-228.901"/>
<polygon fill="none" stroke="midnightblue" points="304,-434.239 307.5,-444.239 311,-434.239 304,-434.239"/>
</g>
<!-- Node8&#45;&gt;Node1 -->
<g id="edge8" class="edge"><title>Node8&#45;&gt;Node1</title>
<path fill="none" stroke="#404040" d="M408.21,-258.304C406.877,-213.767 403.309,-158.049 394.5,-109 394.111,-106.834 393.672,-104.637 393.192,-102.426"/>
<polygon fill="none" stroke="#404040" points="393.144,-102.229 387.835,-97.349 390.298,-90.5715 395.607,-95.4519 393.144,-102.229"/>
<text text-anchor="middle" x="444.5" y="-186.5" font-family="Helvetica,sans-Serif" font-size="10.00"> +constructors</text>
</g>
<!-- Node9&#45;&gt;Node1 -->
<g id="edge10" class="edge"><title>Node9&#45;&gt;Node1</title>
<path fill="none" stroke="#404040" d="M547.693,-258.33C532.742,-219.547 511.613,-174.047 484.5,-138 473.881,-123.882 460.691,-110.513 447.194,-98.5751"/>
<polygon fill="none" stroke="#404040" points="446.941,-98.3575 439.782,-97.4896 437.83,-90.5477 444.988,-91.4156 446.941,-98.3575"/>
<text text-anchor="middle" x="569.5" y="-186.5" font-family="Helvetica,sans-Serif" font-size="10.00"> +type_vars</text>
</g>
</g>
</svg>
