<?xml version="1.0" encoding="UTF-8" standalone="no"?>
<!DOCTYPE svg PUBLIC "-//W3C//DTD SVG 1.1//EN"
 "http://www.w3.org/Graphics/SVG/1.1/DTD/svg11.dtd">
<!-- Generated by graphviz version 2.38.0 (20140413.2041)
 -->
<!-- Title: tvm::tir::BijectiveLayoutNode Pages: 1 -->
<svg width="337pt" height="409pt"
 viewBox="0.00 0.00 337.00 409.00" xmlns="http://www.w3.org/2000/svg" xmlns:xlink="http://www.w3.org/1999/xlink">
<g id="graph0" class="graph" transform="scale(1 1) rotate(0) translate(4 405)">
<title>tvm::tir::BijectiveLayoutNode</title>
<polygon fill="white" stroke="none" points="-4,4 -4,-405 333,-405 333,4 -4,4"/>
<!-- Node1 -->
<g id="node1" class="node"><title>Node1</title>
<polygon fill="#bfbfbf" stroke="black" points="41,-0.5 41,-68.5 246,-68.5 246,-0.5 41,-0.5"/>
<text text-anchor="middle" x="143.5" y="-56.5" font-family="Helvetica,sans-Serif" font-size="10.00">tvm::tir::BijectiveLayoutNode</text>
<polyline fill="none" stroke="black" points="41,-49.5 246,-49.5 "/>
<text text-anchor="start" x="49" y="-37.5" font-family="Helvetica,sans-Serif" font-size="10.00">+ _type_key</text>
<polyline fill="none" stroke="black" points="41,-30.5 246,-30.5 "/>
<text text-anchor="start" x="49" y="-18.5" font-family="Helvetica,sans-Serif" font-size="10.00">+ VisitAttrs()</text>
<text text-anchor="start" x="49" y="-7.5" font-family="Helvetica,sans-Serif" font-size="10.00">+ TVM_DECLARE_FINAL_OBJECT_INFO()</text>
</g>
<!-- Node2 -->
<g id="node2" class="node"><title>Node2</title>
<polygon fill="white" stroke="#bfbfbf" points="0,-188 0,-245 47,-245 47,-188 0,-188"/>
<text text-anchor="middle" x="23.5" y="-233" font-family="Helvetica,sans-Serif" font-size="10.00">Object</text>
<polyline fill="none" stroke="#bfbfbf" points="0,-226 47,-226 "/>
<text text-anchor="middle" x="23.5" y="-214" font-family="Helvetica,sans-Serif" font-size="10.00"> </text>
<polyline fill="none" stroke="#bfbfbf" points="0,-207 47,-207 "/>
<text text-anchor="middle" x="23.5" y="-195" font-family="Helvetica,sans-Serif" font-size="10.00"> </text>
</g>
<!-- Node2&#45;&gt;Node1 -->
<g id="edge1" class="edge"><title>Node2&#45;&gt;Node1</title>
<path fill="none" stroke="midnightblue" d="M33.2238,-178.019C38.4206,-161.631 45.7815,-142.625 55.5,-127 68.8866,-105.478 88.0044,-84.8273 105.003,-68.6087"/>
<polygon fill="none" stroke="midnightblue" points="29.8013,-177.246 30.2661,-187.83 36.5034,-179.266 29.8013,-177.246"/>
</g>
<!-- Node3 -->
<g id="node3" class="node"><title>Node3</title>
<g id="a_node3"><a xlink:href="classtvm_1_1Array.html" target="_top" xlink:title="{tvm::Array\&lt; tvm::PrimExpr \&gt;\n||+ Array()\l+ Array()\l+ Array()\l+ Array()\l+ Array()\l+ Array()\l+ Array()\l+ Array()\l+ operator=()\l+ operator=()\land 13 more...\l}">
<polygon fill="white" stroke="black" points="65,-133 65,-300 222,-300 222,-133 65,-133"/>
<text text-anchor="middle" x="143.5" y="-288" font-family="Helvetica,sans-Serif" font-size="10.00">tvm::Array&lt; tvm::PrimExpr &gt;</text>
<polyline fill="none" stroke="black" points="65,-281 222,-281 "/>
<text text-anchor="middle" x="143.5" y="-269" font-family="Helvetica,sans-Serif" font-size="10.00"> </text>
<polyline fill="none" stroke="black" points="65,-262 222,-262 "/>
<text text-anchor="start" x="73" y="-250" font-family="Helvetica,sans-Serif" font-size="10.00">+ Array()</text>
<text text-anchor="start" x="73" y="-239" font-family="Helvetica,sans-Serif" font-size="10.00">+ Array()</text>
<text text-anchor="start" x="73" y="-228" font-family="Helvetica,sans-Serif" font-size="10.00">+ Array()</text>
<text text-anchor="start" x="73" y="-217" font-family="Helvetica,sans-Serif" font-size="10.00">+ Array()</text>
<text text-anchor="start" x="73" y="-206" font-family="Helvetica,sans-Serif" font-size="10.00">+ Array()</text>
<text text-anchor="start" x="73" y="-195" font-family="Helvetica,sans-Serif" font-size="10.00">+ Array()</text>
<text text-anchor="start" x="73" y="-184" font-family="Helvetica,sans-Serif" font-size="10.00">+ Array()</text>
<text text-anchor="start" x="73" y="-173" font-family="Helvetica,sans-Serif" font-size="10.00">+ Array()</text>
<text text-anchor="start" x="73" y="-162" font-family="Helvetica,sans-Serif" font-size="10.00">+ operator=()</text>
<text text-anchor="start" x="73" y="-151" font-family="Helvetica,sans-Serif" font-size="10.00">+ operator=()</text>
<text text-anchor="start" x="73" y="-140" font-family="Helvetica,sans-Serif" font-size="10.00">and 13 more...</text>
</a>
</g>
</g>
<!-- Node3&#45;&gt;Node1 -->
<g id="edge2" class="edge"><title>Node3&#45;&gt;Node1</title>
<path fill="none" stroke="#404040" d="M143.5,-132.875C143.5,-114.936 143.5,-96.6028 143.5,-80.7532"/>
<polygon fill="none" stroke="#404040" points="143.5,-80.6294 139.5,-74.6295 143.5,-68.6294 147.5,-74.6294 143.5,-80.6294"/>
<text text-anchor="middle" x="183.5" y="-101" font-family="Helvetica,sans-Serif" font-size="10.00"> +backward_rule</text>
<text text-anchor="middle" x="183.5" y="-90" font-family="Helvetica,sans-Serif" font-size="10.00">+forward_rule</text>
</g>
<!-- Node4 -->
<g id="node4" class="node"><title>Node4</title>
<polygon fill="white" stroke="#bfbfbf" points="197.5,-343.5 197.5,-400.5 259.5,-400.5 259.5,-343.5 197.5,-343.5"/>
<text text-anchor="middle" x="228.5" y="-388.5" font-family="Helvetica,sans-Serif" font-size="10.00">ObjectRef</text>
<polyline fill="none" stroke="#bfbfbf" points="197.5,-381.5 259.5,-381.5 "/>
<text text-anchor="middle" x="228.5" y="-369.5" font-family="Helvetica,sans-Serif" font-size="10.00"> </text>
<polyline fill="none" stroke="#bfbfbf" points="197.5,-362.5 259.5,-362.5 "/>
<text text-anchor="middle" x="228.5" y="-350.5" font-family="Helvetica,sans-Serif" font-size="10.00"> </text>
</g>
<!-- Node4&#45;&gt;Node3 -->
<g id="edge3" class="edge"><title>Node4&#45;&gt;Node3</title>
<path fill="none" stroke="midnightblue" d="M208.226,-334.388C202.428,-323.917 195.862,-312.06 189.19,-300.011"/>
<polygon fill="none" stroke="midnightblue" points="205.201,-336.15 213.107,-343.202 211.325,-332.758 205.201,-336.15"/>
</g>
<!-- Node5 -->
<g id="node5" class="node"><title>Node5</title>
<g id="a_node5"><a xlink:href="classtvm_1_1tir_1_1Layout.html" target="_top" xlink:title="Layout is to describe how data is organized within an N&#45;dimention tensor. It is composed of upper cas...">
<polygon fill="white" stroke="black" points="240,-127.5 240,-305.5 329,-305.5 329,-127.5 240,-127.5"/>
<text text-anchor="middle" x="284.5" y="-293.5" font-family="Helvetica,sans-Serif" font-size="10.00">tvm::tir::Layout</text>
<polyline fill="none" stroke="black" points="240,-286.5 329,-286.5 "/>
<text text-anchor="middle" x="284.5" y="-274.5" font-family="Helvetica,sans-Serif" font-size="10.00"> </text>
<polyline fill="none" stroke="black" points="240,-267.5 329,-267.5 "/>
<text text-anchor="start" x="248" y="-255.5" font-family="Helvetica,sans-Serif" font-size="10.00">+ Layout()</text>
<text text-anchor="start" x="248" y="-244.5" font-family="Helvetica,sans-Serif" font-size="10.00">+ Layout()</text>
<text text-anchor="start" x="248" y="-233.5" font-family="Helvetica,sans-Serif" font-size="10.00">+ Layout()</text>
<text text-anchor="start" x="248" y="-222.5" font-family="Helvetica,sans-Serif" font-size="10.00">+ Layout()</text>
<text text-anchor="start" x="248" y="-211.5" font-family="Helvetica,sans-Serif" font-size="10.00">+ Layout()</text>
<text text-anchor="start" x="248" y="-200.5" font-family="Helvetica,sans-Serif" font-size="10.00">+ operator&#45;&gt;()</text>
<text text-anchor="start" x="248" y="-189.5" font-family="Helvetica,sans-Serif" font-size="10.00">+ operator&#45;&gt;()</text>
<text text-anchor="start" x="248" y="-178.5" font-family="Helvetica,sans-Serif" font-size="10.00">+ SubLayout()</text>
<text text-anchor="start" x="248" y="-167.5" font-family="Helvetica,sans-Serif" font-size="10.00">+ Split()</text>
<text text-anchor="start" x="248" y="-156.5" font-family="Helvetica,sans-Serif" font-size="10.00">+ ndim()</text>
<text text-anchor="start" x="248" y="-145.5" font-family="Helvetica,sans-Serif" font-size="10.00">and 8 more...</text>
<text text-anchor="start" x="248" y="-134.5" font-family="Helvetica,sans-Serif" font-size="10.00">+ Undef()</text>
</a>
</g>
</g>
<!-- Node4&#45;&gt;Node5 -->
<g id="edge5" class="edge"><title>Node4&#45;&gt;Node5</title>
<path fill="none" stroke="midnightblue" d="M242.07,-333.803C245.248,-325.094 248.766,-315.45 252.378,-305.549"/>
<polygon fill="none" stroke="midnightblue" points="238.78,-332.608 238.641,-343.202 245.357,-335.008 238.78,-332.608"/>
</g>
<!-- Node5&#45;&gt;Node1 -->
<g id="edge4" class="edge"><title>Node5&#45;&gt;Node1</title>
<path fill="none" stroke="#404040" d="M253.94,-127.243C246.632,-112.876 237.87,-98.8433 227.5,-87 224.204,-83.2355 220.565,-79.659 216.703,-76.2766"/>
<polygon fill="none" stroke="#404040" points="216.692,-76.268 209.511,-75.6186 207.348,-68.7395 214.53,-69.3888 216.692,-76.268"/>
<text text-anchor="middle" x="274" y="-101" font-family="Helvetica,sans-Serif" font-size="10.00"> +dst_layout</text>
<text text-anchor="middle" x="274" y="-90" font-family="Helvetica,sans-Serif" font-size="10.00">+src_layout</text>
</g>
</g>
</svg>
