<?xml version="1.0" encoding="UTF-8" standalone="no"?>
<!DOCTYPE svg PUBLIC "-//W3C//DTD SVG 1.1//EN"
 "http://www.w3.org/Graphics/SVG/1.1/DTD/svg11.dtd">
<!-- Generated by graphviz version 2.38.0 (20140413.2041)
 -->
<!-- Title: tvm::PrimExpr Pages: 1 -->
<svg width="624pt" height="629pt"
 viewBox="0.00 0.00 624.00 629.00" xmlns="http://www.w3.org/2000/svg" xmlns:xlink="http://www.w3.org/1999/xlink">
<g id="graph0" class="graph" transform="scale(1 1) rotate(0) translate(4 625)">
<title>tvm::PrimExpr</title>
<polygon fill="white" stroke="none" points="-4,4 -4,-625 620,-625 620,4 -4,4"/>
<!-- Node1 -->
<g id="node1" class="node"><title>Node1</title>
<polygon fill="#bfbfbf" stroke="black" points="252,-309.5 252,-421.5 402,-421.5 402,-309.5 252,-309.5"/>
<text text-anchor="middle" x="327" y="-409.5" font-family="Helvetica,sans-Serif" font-size="10.00">tvm::PrimExpr</text>
<polyline fill="none" stroke="black" points="252,-402.5 402,-402.5 "/>
<text text-anchor="middle" x="327" y="-390.5" font-family="Helvetica,sans-Serif" font-size="10.00"> </text>
<polyline fill="none" stroke="black" points="252,-383.5 402,-383.5 "/>
<text text-anchor="start" x="260" y="-371.5" font-family="Helvetica,sans-Serif" font-size="10.00">+ PrimExpr()</text>
<text text-anchor="start" x="260" y="-360.5" font-family="Helvetica,sans-Serif" font-size="10.00">+ PrimExpr()</text>
<text text-anchor="start" x="260" y="-349.5" font-family="Helvetica,sans-Serif" font-size="10.00">+ PrimExpr()</text>
<text text-anchor="start" x="260" y="-338.5" font-family="Helvetica,sans-Serif" font-size="10.00">+ dtype()</text>
<text text-anchor="start" x="260" y="-327.5" font-family="Helvetica,sans-Serif" font-size="10.00">+ TVM_DEFINE_OBJECT_REF</text>
<text text-anchor="start" x="260" y="-316.5" font-family="Helvetica,sans-Serif" font-size="10.00">_METHODS()</text>
</g>
<!-- Node4 -->
<g id="node4" class="node"><title>Node4</title>
<g id="a_node4"><a xlink:href="classtvm_1_1FloatImm.html" target="_top" xlink:title="Managed reference class to FloatImmNode. ">
<polygon fill="white" stroke="black" points="0,-177 0,-256 150,-256 150,-177 0,-177"/>
<text text-anchor="middle" x="75" y="-244" font-family="Helvetica,sans-Serif" font-size="10.00">tvm::FloatImm</text>
<polyline fill="none" stroke="black" points="0,-237 150,-237 "/>
<text text-anchor="middle" x="75" y="-225" font-family="Helvetica,sans-Serif" font-size="10.00"> </text>
<polyline fill="none" stroke="black" points="0,-218 150,-218 "/>
<text text-anchor="start" x="8" y="-206" font-family="Helvetica,sans-Serif" font-size="10.00">+ FloatImm()</text>
<text text-anchor="start" x="8" y="-195" font-family="Helvetica,sans-Serif" font-size="10.00">+ TVM_DEFINE_OBJECT_REF</text>
<text text-anchor="start" x="8" y="-184" font-family="Helvetica,sans-Serif" font-size="10.00">_METHODS()</text>
</a>
</g>
</g>
<!-- Node1&#45;&gt;Node4 -->
<g id="edge3" class="edge"><title>Node1&#45;&gt;Node4</title>
<path fill="none" stroke="midnightblue" d="M242.751,-320.431C215.727,-305.814 185.852,-289.143 159,-273 150.162,-267.686 140.936,-261.874 131.97,-256.075"/>
<polygon fill="none" stroke="midnightblue" points="241.334,-323.643 251.798,-325.306 244.655,-317.481 241.334,-323.643"/>
</g>
<!-- Node5 -->
<g id="node5" class="node"><title>Node5</title>
<g id="a_node5"><a xlink:href="classtvm_1_1IntImm.html" target="_top" xlink:title="Managed reference class to IntImmNode. ">
<polygon fill="white" stroke="black" points="168,-177 168,-256 318,-256 318,-177 168,-177"/>
<text text-anchor="middle" x="243" y="-244" font-family="Helvetica,sans-Serif" font-size="10.00">tvm::IntImm</text>
<polyline fill="none" stroke="black" points="168,-237 318,-237 "/>
<text text-anchor="middle" x="243" y="-225" font-family="Helvetica,sans-Serif" font-size="10.00"> </text>
<polyline fill="none" stroke="black" points="168,-218 318,-218 "/>
<text text-anchor="start" x="176" y="-206" font-family="Helvetica,sans-Serif" font-size="10.00">+ IntImm()</text>
<text text-anchor="start" x="176" y="-195" font-family="Helvetica,sans-Serif" font-size="10.00">+ TVM_DEFINE_OBJECT_REF</text>
<text text-anchor="start" x="176" y="-184" font-family="Helvetica,sans-Serif" font-size="10.00">_METHODS()</text>
</a>
</g>
</g>
<!-- Node1&#45;&gt;Node5 -->
<g id="edge4" class="edge"><title>Node1&#45;&gt;Node5</title>
<path fill="none" stroke="midnightblue" d="M290.428,-300.5C281.764,-285.336 272.785,-269.624 265.002,-256.004"/>
<polygon fill="none" stroke="midnightblue" points="287.482,-302.398 295.483,-309.344 293.56,-298.925 287.482,-302.398"/>
</g>
<!-- Node7 -->
<g id="node7" class="node"><title>Node7</title>
<g id="a_node7"><a xlink:href="classtvm_1_1tir_1_1StringImm.html" target="_top" xlink:title="{tvm::tir::StringImm\n||+ TVM_DEFINE_OBJECT_REF\l_METHODS()\l}">
<polygon fill="white" stroke="black" points="336,-182.5 336,-250.5 486,-250.5 486,-182.5 336,-182.5"/>
<text text-anchor="middle" x="411" y="-238.5" font-family="Helvetica,sans-Serif" font-size="10.00">tvm::tir::StringImm</text>
<polyline fill="none" stroke="black" points="336,-231.5 486,-231.5 "/>
<text text-anchor="middle" x="411" y="-219.5" font-family="Helvetica,sans-Serif" font-size="10.00"> </text>
<polyline fill="none" stroke="black" points="336,-212.5 486,-212.5 "/>
<text text-anchor="start" x="344" y="-200.5" font-family="Helvetica,sans-Serif" font-size="10.00">+ TVM_DEFINE_OBJECT_REF</text>
<text text-anchor="start" x="344" y="-189.5" font-family="Helvetica,sans-Serif" font-size="10.00">_METHODS()</text>
</a>
</g>
</g>
<!-- Node1&#45;&gt;Node7 -->
<g id="edge6" class="edge"><title>Node1&#45;&gt;Node7</title>
<path fill="none" stroke="midnightblue" d="M363.594,-300.461C373.393,-283.312 383.591,-265.465 392.007,-250.737"/>
<polygon fill="none" stroke="midnightblue" points="360.44,-298.925 358.517,-309.344 366.518,-302.398 360.44,-298.925"/>
</g>
<!-- Node8 -->
<g id="node8" class="node"><title>Node8</title>
<g id="a_node8"><a xlink:href="classtvm_1_1tir_1_1Var.html" target="_top" xlink:title="a named variable in TVM ">
<polygon fill="white" stroke="black" points="504,-160.5 504,-272.5 616,-272.5 616,-160.5 504,-160.5"/>
<text text-anchor="middle" x="560" y="-260.5" font-family="Helvetica,sans-Serif" font-size="10.00">tvm::tir::Var</text>
<polyline fill="none" stroke="black" points="504,-253.5 616,-253.5 "/>
<text text-anchor="middle" x="560" y="-241.5" font-family="Helvetica,sans-Serif" font-size="10.00"> </text>
<polyline fill="none" stroke="black" points="504,-234.5 616,-234.5 "/>
<text text-anchor="start" x="512" y="-222.5" font-family="Helvetica,sans-Serif" font-size="10.00">+ Var()</text>
<text text-anchor="start" x="512" y="-211.5" font-family="Helvetica,sans-Serif" font-size="10.00">+ Var()</text>
<text text-anchor="start" x="512" y="-200.5" font-family="Helvetica,sans-Serif" font-size="10.00">+ Var()</text>
<text text-anchor="start" x="512" y="-189.5" font-family="Helvetica,sans-Serif" font-size="10.00">+ copy_with_suffix()</text>
<text text-anchor="start" x="512" y="-178.5" font-family="Helvetica,sans-Serif" font-size="10.00">+ operator&#45;&gt;()</text>
<text text-anchor="start" x="512" y="-167.5" font-family="Helvetica,sans-Serif" font-size="10.00">+ get()</text>
</a>
</g>
</g>
<!-- Node1&#45;&gt;Node8 -->
<g id="edge7" class="edge"><title>Node1&#45;&gt;Node8</title>
<path fill="none" stroke="midnightblue" d="M411.336,-322.987C438.742,-308.346 468.821,-291.015 495,-273 497.934,-270.981 500.889,-268.853 503.835,-266.654"/>
<polygon fill="none" stroke="midnightblue" points="409.355,-320.075 402.153,-327.846 412.629,-326.262 409.355,-320.075"/>
</g>
<!-- Node2 -->
<g id="node2" class="node"><title>Node2</title>
<g id="a_node2"><a xlink:href="classtvm_1_1BaseExpr.html" target="_top" xlink:title="Managed reference to BaseExprNode. ">
<polygon fill="white" stroke="black" points="252,-458.5 252,-526.5 402,-526.5 402,-458.5 252,-458.5"/>
<text text-anchor="middle" x="327" y="-514.5" font-family="Helvetica,sans-Serif" font-size="10.00">tvm::BaseExpr</text>
<polyline fill="none" stroke="black" points="252,-507.5 402,-507.5 "/>
<text text-anchor="middle" x="327" y="-495.5" font-family="Helvetica,sans-Serif" font-size="10.00"> </text>
<polyline fill="none" stroke="black" points="252,-488.5 402,-488.5 "/>
<text text-anchor="start" x="260" y="-476.5" font-family="Helvetica,sans-Serif" font-size="10.00">+ TVM_DEFINE_OBJECT_REF</text>
<text text-anchor="start" x="260" y="-465.5" font-family="Helvetica,sans-Serif" font-size="10.00">_METHODS()</text>
</a>
</g>
</g>
<!-- Node2&#45;&gt;Node1 -->
<g id="edge1" class="edge"><title>Node2&#45;&gt;Node1</title>
<path fill="none" stroke="midnightblue" d="M327,-448.182C327,-439.604 327,-430.493 327,-421.585"/>
<polygon fill="none" stroke="midnightblue" points="323.5,-448.33 327,-458.33 330.5,-448.331 323.5,-448.33"/>
</g>
<!-- Node3 -->
<g id="node3" class="node"><title>Node3</title>
<polygon fill="white" stroke="#bfbfbf" points="296,-563.5 296,-620.5 358,-620.5 358,-563.5 296,-563.5"/>
<text text-anchor="middle" x="327" y="-608.5" font-family="Helvetica,sans-Serif" font-size="10.00">ObjectRef</text>
<polyline fill="none" stroke="#bfbfbf" points="296,-601.5 358,-601.5 "/>
<text text-anchor="middle" x="327" y="-589.5" font-family="Helvetica,sans-Serif" font-size="10.00"> </text>
<polyline fill="none" stroke="#bfbfbf" points="296,-582.5 358,-582.5 "/>
<text text-anchor="middle" x="327" y="-570.5" font-family="Helvetica,sans-Serif" font-size="10.00"> </text>
</g>
<!-- Node3&#45;&gt;Node2 -->
<g id="edge2" class="edge"><title>Node3&#45;&gt;Node2</title>
<path fill="none" stroke="midnightblue" d="M327,-553.063C327,-544.393 327,-535.243 327,-526.786"/>
<polygon fill="none" stroke="midnightblue" points="323.5,-553.321 327,-563.321 330.5,-553.321 323.5,-553.321"/>
</g>
<!-- Node6 -->
<g id="node6" class="node"><title>Node6</title>
<g id="a_node6"><a xlink:href="classtvm_1_1Integer.html" target="_top" xlink:title="Container of constant int that adds more constructors. ">
<polygon fill="white" stroke="black" points="186.5,-0.5 186.5,-123.5 299.5,-123.5 299.5,-0.5 186.5,-0.5"/>
<text text-anchor="middle" x="243" y="-111.5" font-family="Helvetica,sans-Serif" font-size="10.00">tvm::Integer</text>
<polyline fill="none" stroke="black" points="186.5,-104.5 299.5,-104.5 "/>
<text text-anchor="middle" x="243" y="-92.5" font-family="Helvetica,sans-Serif" font-size="10.00"> </text>
<polyline fill="none" stroke="black" points="186.5,-85.5 299.5,-85.5 "/>
<text text-anchor="start" x="194.5" y="-73.5" font-family="Helvetica,sans-Serif" font-size="10.00">+ Integer()</text>
<text text-anchor="start" x="194.5" y="-62.5" font-family="Helvetica,sans-Serif" font-size="10.00">+ Integer()</text>
<text text-anchor="start" x="194.5" y="-51.5" font-family="Helvetica,sans-Serif" font-size="10.00">+ Integer()</text>
<text text-anchor="start" x="194.5" y="-40.5" font-family="Helvetica,sans-Serif" font-size="10.00">+ Integer()</text>
<text text-anchor="start" x="194.5" y="-29.5" font-family="Helvetica,sans-Serif" font-size="10.00">+ Integer()</text>
<text text-anchor="start" x="194.5" y="-18.5" font-family="Helvetica,sans-Serif" font-size="10.00">+ operator=()</text>
<text text-anchor="start" x="194.5" y="-7.5" font-family="Helvetica,sans-Serif" font-size="10.00">+ operator int64_t()</text>
</a>
</g>
</g>
<!-- Node5&#45;&gt;Node6 -->
<g id="edge5" class="edge"><title>Node5&#45;&gt;Node6</title>
<path fill="none" stroke="midnightblue" d="M243,-166.507C243,-152.892 243,-137.943 243,-123.743"/>
<polygon fill="none" stroke="midnightblue" points="239.5,-166.623 243,-176.623 246.5,-166.623 239.5,-166.623"/>
</g>
<!-- Node9 -->
<g id="node9" class="node"><title>Node9</title>
<g id="a_node9"><a xlink:href="classtvm_1_1tir_1_1SizeVar.html" target="_top" xlink:title="a named variable represents a tensor index size ">
<polygon fill="white" stroke="black" points="513.5,-17 513.5,-107 606.5,-107 606.5,-17 513.5,-17"/>
<text text-anchor="middle" x="560" y="-95" font-family="Helvetica,sans-Serif" font-size="10.00">tvm::tir::SizeVar</text>
<polyline fill="none" stroke="black" points="513.5,-88 606.5,-88 "/>
<text text-anchor="middle" x="560" y="-76" font-family="Helvetica,sans-Serif" font-size="10.00"> </text>
<polyline fill="none" stroke="black" points="513.5,-69 606.5,-69 "/>
<text text-anchor="start" x="521.5" y="-57" font-family="Helvetica,sans-Serif" font-size="10.00">+ SizeVar()</text>
<text text-anchor="start" x="521.5" y="-46" font-family="Helvetica,sans-Serif" font-size="10.00">+ SizeVar()</text>
<text text-anchor="start" x="521.5" y="-35" font-family="Helvetica,sans-Serif" font-size="10.00">+ operator&#45;&gt;()</text>
<text text-anchor="start" x="521.5" y="-24" font-family="Helvetica,sans-Serif" font-size="10.00">+ get()</text>
</a>
</g>
</g>
<!-- Node8&#45;&gt;Node9 -->
<g id="edge8" class="edge"><title>Node8&#45;&gt;Node9</title>
<path fill="none" stroke="midnightblue" d="M560,-150.093C560,-135.709 560,-120.799 560,-107.468"/>
<polygon fill="none" stroke="midnightblue" points="556.5,-150.444 560,-160.444 563.5,-150.444 556.5,-150.444"/>
</g>
</g>
</svg>
