<?xml version="1.0" encoding="UTF-8" standalone="no"?>
<!DOCTYPE svg PUBLIC "-//W3C//DTD SVG 1.1//EN"
 "http://www.w3.org/Graphics/SVG/1.1/DTD/svg11.dtd">
<!-- Generated by graphviz version 2.38.0 (20140413.2041)
 -->
<!-- Title: tvm::tir::ReduceNode Pages: 1 -->
<svg width="830pt" height="825pt"
 viewBox="0.00 0.00 830.00 825.00" xmlns="http://www.w3.org/2000/svg" xmlns:xlink="http://www.w3.org/1999/xlink">
<g id="graph0" class="graph" transform="scale(1 1) rotate(0) translate(4 821)">
<title>tvm::tir::ReduceNode</title>
<polygon fill="white" stroke="none" points="-4,4 -4,-821 826,-821 826,4 -4,4"/>
<!-- Node1 -->
<g id="node1" class="node"><title>Node1</title>
<polygon fill="#bfbfbf" stroke="black" points="418.5,-0.5 418.5,-112.5 623.5,-112.5 623.5,-0.5 418.5,-0.5"/>
<text text-anchor="middle" x="521" y="-100.5" font-family="Helvetica,sans-Serif" font-size="10.00">tvm::tir::ReduceNode</text>
<polyline fill="none" stroke="black" points="418.5,-93.5 623.5,-93.5 "/>
<text text-anchor="start" x="426.5" y="-81.5" font-family="Helvetica,sans-Serif" font-size="10.00">+ value_index</text>
<text text-anchor="start" x="426.5" y="-70.5" font-family="Helvetica,sans-Serif" font-size="10.00">+ _type_key</text>
<polyline fill="none" stroke="black" points="418.5,-63.5 623.5,-63.5 "/>
<text text-anchor="start" x="426.5" y="-51.5" font-family="Helvetica,sans-Serif" font-size="10.00">+ VisitAttrs()</text>
<text text-anchor="start" x="426.5" y="-40.5" font-family="Helvetica,sans-Serif" font-size="10.00">+ SEqualReduce()</text>
<text text-anchor="start" x="426.5" y="-29.5" font-family="Helvetica,sans-Serif" font-size="10.00">+ SHashReduce()</text>
<text text-anchor="start" x="426.5" y="-18.5" font-family="Helvetica,sans-Serif" font-size="10.00">+ TVM_DECLARE_FINAL_OBJECT_INFO()</text>
<text text-anchor="start" x="426.5" y="-7.5" font-family="Helvetica,sans-Serif" font-size="10.00">+ make()</text>
</g>
<!-- Node2 -->
<g id="node2" class="node"><title>Node2</title>
<g id="a_node2"><a xlink:href="classtvm_1_1PrimExprNode.html" target="_top" xlink:title="Base node of all primitive expressions. ">
<polygon fill="white" stroke="black" points="185,-188 185,-245 389,-245 389,-188 185,-188"/>
<text text-anchor="middle" x="287" y="-233" font-family="Helvetica,sans-Serif" font-size="10.00">tvm::PrimExprNode</text>
<polyline fill="none" stroke="black" points="185,-226 389,-226 "/>
<text text-anchor="start" x="193" y="-214" font-family="Helvetica,sans-Serif" font-size="10.00">+ _type_key</text>
<polyline fill="none" stroke="black" points="185,-207 389,-207 "/>
<text text-anchor="start" x="193" y="-195" font-family="Helvetica,sans-Serif" font-size="10.00">+ TVM_DECLARE_BASE_OBJECT_INFO()</text>
</a>
</g>
</g>
<!-- Node2&#45;&gt;Node1 -->
<g id="edge1" class="edge"><title>Node2&#45;&gt;Node1</title>
<path fill="none" stroke="midnightblue" d="M336.342,-182.183C366.256,-161.986 405.158,-135.718 439.538,-112.504"/>
<polygon fill="none" stroke="midnightblue" points="334.089,-179.482 327.76,-187.979 338.006,-185.283 334.089,-179.482"/>
</g>
<!-- Node3 -->
<g id="node3" class="node"><title>Node3</title>
<g id="a_node3"><a xlink:href="classtvm_1_1BaseExprNode.html" target="_top" xlink:title="Base type of all the expressions. ">
<polygon fill="white" stroke="black" points="0,-554.5 0,-655.5 204,-655.5 204,-554.5 0,-554.5"/>
<text text-anchor="middle" x="102" y="-643.5" font-family="Helvetica,sans-Serif" font-size="10.00">tvm::BaseExprNode</text>
<polyline fill="none" stroke="black" points="0,-636.5 204,-636.5 "/>
<text text-anchor="start" x="8" y="-624.5" font-family="Helvetica,sans-Serif" font-size="10.00">+ _type_key</text>
<text text-anchor="start" x="8" y="-613.5" font-family="Helvetica,sans-Serif" font-size="10.00">+ _type_has_method_sequal</text>
<text text-anchor="start" x="8" y="-602.5" font-family="Helvetica,sans-Serif" font-size="10.00">_reduce</text>
<text text-anchor="start" x="8" y="-591.5" font-family="Helvetica,sans-Serif" font-size="10.00">+ _type_has_method_shash</text>
<text text-anchor="start" x="8" y="-580.5" font-family="Helvetica,sans-Serif" font-size="10.00">_reduce</text>
<polyline fill="none" stroke="black" points="0,-573.5 204,-573.5 "/>
<text text-anchor="start" x="8" y="-561.5" font-family="Helvetica,sans-Serif" font-size="10.00">+ TVM_DECLARE_BASE_OBJECT_INFO()</text>
</a>
</g>
</g>
<!-- Node3&#45;&gt;Node2 -->
<g id="edge2" class="edge"><title>Node3&#45;&gt;Node2</title>
<path fill="none" stroke="midnightblue" d="M130.226,-545.031C170.777,-460.311 243.921,-307.501 273.772,-245.136"/>
<polygon fill="none" stroke="midnightblue" points="126.967,-543.732 125.807,-554.263 133.281,-546.754 126.967,-543.732"/>
</g>
<!-- Node4 -->
<g id="node4" class="node"><title>Node4</title>
<polygon fill="white" stroke="#bfbfbf" points="78.5,-759.5 78.5,-816.5 125.5,-816.5 125.5,-759.5 78.5,-759.5"/>
<text text-anchor="middle" x="102" y="-804.5" font-family="Helvetica,sans-Serif" font-size="10.00">Object</text>
<polyline fill="none" stroke="#bfbfbf" points="78.5,-797.5 125.5,-797.5 "/>
<text text-anchor="middle" x="102" y="-785.5" font-family="Helvetica,sans-Serif" font-size="10.00"> </text>
<polyline fill="none" stroke="#bfbfbf" points="78.5,-778.5 125.5,-778.5 "/>
<text text-anchor="middle" x="102" y="-766.5" font-family="Helvetica,sans-Serif" font-size="10.00"> </text>
</g>
<!-- Node4&#45;&gt;Node3 -->
<g id="edge3" class="edge"><title>Node4&#45;&gt;Node3</title>
<path fill="none" stroke="midnightblue" d="M102,-748.876C102,-721.799 102,-685.183 102,-655.799"/>
<polygon fill="none" stroke="midnightblue" points="98.5001,-749.115 102,-759.115 105.5,-749.115 98.5001,-749.115"/>
</g>
<!-- Node5 -->
<g id="node5" class="node"><title>Node5</title>
<g id="a_node5"><a xlink:href="classtvm_1_1runtime_1_1DataType.html" target="_top" xlink:title="Runtime primitive data type. ">
<polygon fill="white" stroke="black" points="222.5,-488.5 222.5,-721.5 351.5,-721.5 351.5,-488.5 222.5,-488.5"/>
<text text-anchor="middle" x="287" y="-709.5" font-family="Helvetica,sans-Serif" font-size="10.00">tvm::runtime::DataType</text>
<polyline fill="none" stroke="black" points="222.5,-702.5 351.5,-702.5 "/>
<text text-anchor="middle" x="287" y="-690.5" font-family="Helvetica,sans-Serif" font-size="10.00"> </text>
<polyline fill="none" stroke="black" points="222.5,-683.5 351.5,-683.5 "/>
<text text-anchor="start" x="230.5" y="-671.5" font-family="Helvetica,sans-Serif" font-size="10.00">+ DataType()</text>
<text text-anchor="start" x="230.5" y="-660.5" font-family="Helvetica,sans-Serif" font-size="10.00">+ DataType()</text>
<text text-anchor="start" x="230.5" y="-649.5" font-family="Helvetica,sans-Serif" font-size="10.00">+ DataType()</text>
<text text-anchor="start" x="230.5" y="-638.5" font-family="Helvetica,sans-Serif" font-size="10.00">+ code()</text>
<text text-anchor="start" x="230.5" y="-627.5" font-family="Helvetica,sans-Serif" font-size="10.00">+ bits()</text>
<text text-anchor="start" x="230.5" y="-616.5" font-family="Helvetica,sans-Serif" font-size="10.00">+ bytes()</text>
<text text-anchor="start" x="230.5" y="-605.5" font-family="Helvetica,sans-Serif" font-size="10.00">+ lanes()</text>
<text text-anchor="start" x="230.5" y="-594.5" font-family="Helvetica,sans-Serif" font-size="10.00">+ is_scalar()</text>
<text text-anchor="start" x="230.5" y="-583.5" font-family="Helvetica,sans-Serif" font-size="10.00">+ is_bool()</text>
<text text-anchor="start" x="230.5" y="-572.5" font-family="Helvetica,sans-Serif" font-size="10.00">+ is_float()</text>
<text text-anchor="start" x="230.5" y="-561.5" font-family="Helvetica,sans-Serif" font-size="10.00">and 12 more...</text>
<text text-anchor="start" x="230.5" y="-550.5" font-family="Helvetica,sans-Serif" font-size="10.00">+ Int()</text>
<text text-anchor="start" x="230.5" y="-539.5" font-family="Helvetica,sans-Serif" font-size="10.00">+ UInt()</text>
<text text-anchor="start" x="230.5" y="-528.5" font-family="Helvetica,sans-Serif" font-size="10.00">+ Float()</text>
<text text-anchor="start" x="230.5" y="-517.5" font-family="Helvetica,sans-Serif" font-size="10.00">+ Bool()</text>
<text text-anchor="start" x="230.5" y="-506.5" font-family="Helvetica,sans-Serif" font-size="10.00">+ Handle()</text>
<text text-anchor="start" x="230.5" y="-495.5" font-family="Helvetica,sans-Serif" font-size="10.00">+ ShapeIndex()</text>
</a>
</g>
</g>
<!-- Node5&#45;&gt;Node2 -->
<g id="edge4" class="edge"><title>Node5&#45;&gt;Node2</title>
<path fill="none" stroke="#404040" d="M283.32,-488.411C281.999,-429.342 281.224,-356.325 283,-291 283.297,-280.074 283.842,-268.244 284.436,-257.334"/>
<polygon fill="none" stroke="#404040" points="284.453,-257.039 280.806,-250.818 285.145,-245.059 288.792,-251.279 284.453,-257.039"/>
<text text-anchor="middle" x="302.5" y="-378" font-family="Helvetica,sans-Serif" font-size="10.00"> +dtype</text>
</g>
<!-- Node6 -->
<g id="node6" class="node"><title>Node6</title>
<g id="a_node6"><a xlink:href="classtvm_1_1tir_1_1CommReducer.html" target="_top" xlink:title="{tvm::tir::CommReducer\n||+ CommReducer()\l+ CommReducer()\l+ get()\l+ operator&#45;\&gt;()\l}">
<polygon fill="white" stroke="black" points="331,-335.5 331,-425.5 459,-425.5 459,-335.5 331,-335.5"/>
<text text-anchor="middle" x="395" y="-413.5" font-family="Helvetica,sans-Serif" font-size="10.00">tvm::tir::CommReducer</text>
<polyline fill="none" stroke="black" points="331,-406.5 459,-406.5 "/>
<text text-anchor="middle" x="395" y="-394.5" font-family="Helvetica,sans-Serif" font-size="10.00"> </text>
<polyline fill="none" stroke="black" points="331,-387.5 459,-387.5 "/>
<text text-anchor="start" x="339" y="-375.5" font-family="Helvetica,sans-Serif" font-size="10.00">+ CommReducer()</text>
<text text-anchor="start" x="339" y="-364.5" font-family="Helvetica,sans-Serif" font-size="10.00">+ CommReducer()</text>
<text text-anchor="start" x="339" y="-353.5" font-family="Helvetica,sans-Serif" font-size="10.00">+ get()</text>
<text text-anchor="start" x="339" y="-342.5" font-family="Helvetica,sans-Serif" font-size="10.00">+ operator&#45;&gt;()</text>
</a>
</g>
</g>
<!-- Node6&#45;&gt;Node1 -->
<g id="edge5" class="edge"><title>Node6&#45;&gt;Node1</title>
<path fill="none" stroke="#404040" d="M404.616,-335.471C415.258,-290.327 434.356,-218.623 460,-160 465.392,-147.674 471.976,-135.003 478.8,-122.955"/>
<polygon fill="none" stroke="#404040" points="478.812,-122.933 478.363,-115.736 484.834,-112.553 485.283,-119.75 478.812,-122.933"/>
<text text-anchor="middle" x="488.5" y="-214" font-family="Helvetica,sans-Serif" font-size="10.00"> +combiner</text>
</g>
<!-- Node7 -->
<g id="node7" class="node"><title>Node7</title>
<polygon fill="white" stroke="#bfbfbf" points="566,-759.5 566,-816.5 628,-816.5 628,-759.5 566,-759.5"/>
<text text-anchor="middle" x="597" y="-804.5" font-family="Helvetica,sans-Serif" font-size="10.00">ObjectRef</text>
<polyline fill="none" stroke="#bfbfbf" points="566,-797.5 628,-797.5 "/>
<text text-anchor="middle" x="597" y="-785.5" font-family="Helvetica,sans-Serif" font-size="10.00"> </text>
<polyline fill="none" stroke="#bfbfbf" points="566,-778.5 628,-778.5 "/>
<text text-anchor="middle" x="597" y="-766.5" font-family="Helvetica,sans-Serif" font-size="10.00"> </text>
</g>
<!-- Node7&#45;&gt;Node6 -->
<g id="edge6" class="edge"><title>Node7&#45;&gt;Node6</title>
<path fill="none" stroke="midnightblue" d="M561.119,-751.817C552.867,-742.605 544.59,-732.342 538,-722 475.292,-623.589 429.47,-493.007 408.219,-425.737"/>
<polygon fill="none" stroke="midnightblue" points="558.654,-754.307 568.007,-759.285 563.8,-749.561 558.654,-754.307"/>
</g>
<!-- Node8 -->
<g id="node8" class="node"><title>Node8</title>
<g id="a_node8"><a xlink:href="classtvm_1_1Array.html" target="_top" xlink:title="{tvm::Array\&lt; tvm::tir\l::IterVar \&gt;\n||+ Array()\l+ Array()\l+ Array()\l+ Array()\l+ Array()\l+ Array()\l+ Array()\l+ Array()\l+ operator=()\l+ operator=()\land 13 more...\l}">
<polygon fill="white" stroke="black" points="464.5,-291.5 464.5,-469.5 577.5,-469.5 577.5,-291.5 464.5,-291.5"/>
<text text-anchor="start" x="472.5" y="-457.5" font-family="Helvetica,sans-Serif" font-size="10.00">tvm::Array&lt; tvm::tir</text>
<text text-anchor="middle" x="521" y="-446.5" font-family="Helvetica,sans-Serif" font-size="10.00">::IterVar &gt;</text>
<polyline fill="none" stroke="black" points="464.5,-439.5 577.5,-439.5 "/>
<text text-anchor="middle" x="521" y="-427.5" font-family="Helvetica,sans-Serif" font-size="10.00"> </text>
<polyline fill="none" stroke="black" points="464.5,-420.5 577.5,-420.5 "/>
<text text-anchor="start" x="472.5" y="-408.5" font-family="Helvetica,sans-Serif" font-size="10.00">+ Array()</text>
<text text-anchor="start" x="472.5" y="-397.5" font-family="Helvetica,sans-Serif" font-size="10.00">+ Array()</text>
<text text-anchor="start" x="472.5" y="-386.5" font-family="Helvetica,sans-Serif" font-size="10.00">+ Array()</text>
<text text-anchor="start" x="472.5" y="-375.5" font-family="Helvetica,sans-Serif" font-size="10.00">+ Array()</text>
<text text-anchor="start" x="472.5" y="-364.5" font-family="Helvetica,sans-Serif" font-size="10.00">+ Array()</text>
<text text-anchor="start" x="472.5" y="-353.5" font-family="Helvetica,sans-Serif" font-size="10.00">+ Array()</text>
<text text-anchor="start" x="472.5" y="-342.5" font-family="Helvetica,sans-Serif" font-size="10.00">+ Array()</text>
<text text-anchor="start" x="472.5" y="-331.5" font-family="Helvetica,sans-Serif" font-size="10.00">+ Array()</text>
<text text-anchor="start" x="472.5" y="-320.5" font-family="Helvetica,sans-Serif" font-size="10.00">+ operator=()</text>
<text text-anchor="start" x="472.5" y="-309.5" font-family="Helvetica,sans-Serif" font-size="10.00">+ operator=()</text>
<text text-anchor="start" x="472.5" y="-298.5" font-family="Helvetica,sans-Serif" font-size="10.00">and 13 more...</text>
</a>
</g>
</g>
<!-- Node7&#45;&gt;Node8 -->
<g id="edge8" class="edge"><title>Node7&#45;&gt;Node8</title>
<path fill="none" stroke="midnightblue" d="M589.977,-749.531C578.138,-686.36 553.899,-557.033 537.545,-469.778"/>
<polygon fill="none" stroke="midnightblue" points="586.554,-750.263 591.836,-759.447 593.434,-748.973 586.554,-750.263"/>
</g>
<!-- Node9 -->
<g id="node9" class="node"><title>Node9</title>
<g id="a_node9"><a xlink:href="classtvm_1_1Array.html" target="_top" xlink:title="{tvm::Array\&lt; tvm::PrimExpr \&gt;\n||+ Array()\l+ Array()\l+ Array()\l+ Array()\l+ Array()\l+ Array()\l+ Array()\l+ Array()\l+ operator=()\l+ operator=()\land 13 more...\l}">
<polygon fill="white" stroke="black" points="582.5,-297 582.5,-464 739.5,-464 739.5,-297 582.5,-297"/>
<text text-anchor="middle" x="661" y="-452" font-family="Helvetica,sans-Serif" font-size="10.00">tvm::Array&lt; tvm::PrimExpr &gt;</text>
<polyline fill="none" stroke="black" points="582.5,-445 739.5,-445 "/>
<text text-anchor="middle" x="661" y="-433" font-family="Helvetica,sans-Serif" font-size="10.00"> </text>
<polyline fill="none" stroke="black" points="582.5,-426 739.5,-426 "/>
<text text-anchor="start" x="590.5" y="-414" font-family="Helvetica,sans-Serif" font-size="10.00">+ Array()</text>
<text text-anchor="start" x="590.5" y="-403" font-family="Helvetica,sans-Serif" font-size="10.00">+ Array()</text>
<text text-anchor="start" x="590.5" y="-392" font-family="Helvetica,sans-Serif" font-size="10.00">+ Array()</text>
<text text-anchor="start" x="590.5" y="-381" font-family="Helvetica,sans-Serif" font-size="10.00">+ Array()</text>
<text text-anchor="start" x="590.5" y="-370" font-family="Helvetica,sans-Serif" font-size="10.00">+ Array()</text>
<text text-anchor="start" x="590.5" y="-359" font-family="Helvetica,sans-Serif" font-size="10.00">+ Array()</text>
<text text-anchor="start" x="590.5" y="-348" font-family="Helvetica,sans-Serif" font-size="10.00">+ Array()</text>
<text text-anchor="start" x="590.5" y="-337" font-family="Helvetica,sans-Serif" font-size="10.00">+ Array()</text>
<text text-anchor="start" x="590.5" y="-326" font-family="Helvetica,sans-Serif" font-size="10.00">+ operator=()</text>
<text text-anchor="start" x="590.5" y="-315" font-family="Helvetica,sans-Serif" font-size="10.00">+ operator=()</text>
<text text-anchor="start" x="590.5" y="-304" font-family="Helvetica,sans-Serif" font-size="10.00">and 13 more...</text>
</a>
</g>
</g>
<!-- Node7&#45;&gt;Node9 -->
<g id="edge10" class="edge"><title>Node7&#45;&gt;Node9</title>
<path fill="none" stroke="midnightblue" d="M602.947,-749.322C613.138,-684.753 634.168,-551.507 647.921,-464.366"/>
<polygon fill="none" stroke="midnightblue" points="599.451,-749.024 601.349,-759.447 606.365,-750.115 599.451,-749.024"/>
</g>
<!-- Node11 -->
<g id="node11" class="node"><title>Node11</title>
<g id="a_node11"><a xlink:href="classtvm_1_1BaseExpr.html" target="_top" xlink:title="Managed reference to BaseExprNode. ">
<polygon fill="white" stroke="black" points="668,-571 668,-639 818,-639 818,-571 668,-571"/>
<text text-anchor="middle" x="743" y="-627" font-family="Helvetica,sans-Serif" font-size="10.00">tvm::BaseExpr</text>
<polyline fill="none" stroke="black" points="668,-620 818,-620 "/>
<text text-anchor="middle" x="743" y="-608" font-family="Helvetica,sans-Serif" font-size="10.00"> </text>
<polyline fill="none" stroke="black" points="668,-601 818,-601 "/>
<text text-anchor="start" x="676" y="-589" font-family="Helvetica,sans-Serif" font-size="10.00">+ TVM_DEFINE_OBJECT_REF</text>
<text text-anchor="start" x="676" y="-578" font-family="Helvetica,sans-Serif" font-size="10.00">_METHODS()</text>
</a>
</g>
</g>
<!-- Node7&#45;&gt;Node11 -->
<g id="edge13" class="edge"><title>Node7&#45;&gt;Node11</title>
<path fill="none" stroke="midnightblue" d="M632.186,-751.97C635.568,-748.325 638.893,-744.627 642,-741 670.565,-707.656 700.331,-667.039 720.084,-639.119"/>
<polygon fill="none" stroke="midnightblue" points="629.546,-749.668 625.213,-759.337 634.629,-754.48 629.546,-749.668"/>
</g>
<!-- Node8&#45;&gt;Node1 -->
<g id="edge7" class="edge"><title>Node8&#45;&gt;Node1</title>
<path fill="none" stroke="#404040" d="M521,-291.086C521,-238.677 521,-173.289 521,-125.036"/>
<polygon fill="none" stroke="#404040" points="521,-124.844 517,-118.844 521,-112.844 525,-118.844 521,-124.844"/>
<text text-anchor="middle" x="536.5" y="-214" font-family="Helvetica,sans-Serif" font-size="10.00"> +axis</text>
</g>
<!-- Node9&#45;&gt;Node1 -->
<g id="edge9" class="edge"><title>Node9&#45;&gt;Node1</title>
<path fill="none" stroke="#404040" d="M625.128,-296.995C601.779,-243.293 571.723,-174.163 549.909,-123.99"/>
<polygon fill="none" stroke="#404040" points="549.892,-123.952 543.831,-120.044 545.107,-112.947 551.168,-116.854 549.892,-123.952"/>
<text text-anchor="middle" x="637" y="-214" font-family="Helvetica,sans-Serif" font-size="10.00"> +source</text>
</g>
<!-- Node10 -->
<g id="node10" class="node"><title>Node10</title>
<g id="a_node10"><a xlink:href="classtvm_1_1PrimExpr.html" target="_top" xlink:title="Reference to PrimExprNode. ">
<polygon fill="white" stroke="black" points="672,-160.5 672,-272.5 822,-272.5 822,-160.5 672,-160.5"/>
<text text-anchor="middle" x="747" y="-260.5" font-family="Helvetica,sans-Serif" font-size="10.00">tvm::PrimExpr</text>
<polyline fill="none" stroke="black" points="672,-253.5 822,-253.5 "/>
<text text-anchor="middle" x="747" y="-241.5" font-family="Helvetica,sans-Serif" font-size="10.00"> </text>
<polyline fill="none" stroke="black" points="672,-234.5 822,-234.5 "/>
<text text-anchor="start" x="680" y="-222.5" font-family="Helvetica,sans-Serif" font-size="10.00">+ PrimExpr()</text>
<text text-anchor="start" x="680" y="-211.5" font-family="Helvetica,sans-Serif" font-size="10.00">+ PrimExpr()</text>
<text text-anchor="start" x="680" y="-200.5" font-family="Helvetica,sans-Serif" font-size="10.00">+ PrimExpr()</text>
<text text-anchor="start" x="680" y="-189.5" font-family="Helvetica,sans-Serif" font-size="10.00">+ dtype()</text>
<text text-anchor="start" x="680" y="-178.5" font-family="Helvetica,sans-Serif" font-size="10.00">+ TVM_DEFINE_OBJECT_REF</text>
<text text-anchor="start" x="680" y="-167.5" font-family="Helvetica,sans-Serif" font-size="10.00">_METHODS()</text>
</a>
</g>
</g>
<!-- Node10&#45;&gt;Node1 -->
<g id="edge11" class="edge"><title>Node10&#45;&gt;Node1</title>
<path fill="none" stroke="#404040" d="M671.745,-162.888C651.883,-149.002 630.262,-133.887 609.759,-119.553"/>
<polygon fill="none" stroke="#404040" points="609.631,-119.463 602.421,-119.304 599.796,-112.587 607.005,-112.747 609.631,-119.463"/>
<text text-anchor="middle" x="668.5" y="-134" font-family="Helvetica,sans-Serif" font-size="10.00"> +condition</text>
</g>
<!-- Node11&#45;&gt;Node10 -->
<g id="edge12" class="edge"><title>Node11&#45;&gt;Node10</title>
<path fill="none" stroke="midnightblue" d="M743.451,-560.383C744.183,-489.66 745.628,-350.09 746.43,-272.606"/>
<polygon fill="none" stroke="midnightblue" points="739.948,-560.677 743.344,-570.713 746.948,-560.75 739.948,-560.677"/>
</g>
</g>
</svg>
