<?xml version="1.0" encoding="UTF-8" standalone="no"?>
<!DOCTYPE svg PUBLIC "-//W3C//DTD SVG 1.1//EN"
 "http://www.w3.org/Graphics/SVG/1.1/DTD/svg11.dtd">
<!-- Generated by graphviz version 2.38.0 (20140413.2041)
 -->
<!-- Title: topi/include/topi/cuda/dense.h Pages: 1 -->
<svg width="3316pt" height="1192pt"
 viewBox="0.00 0.00 3316.00 1192.00" xmlns="http://www.w3.org/2000/svg" xmlns:xlink="http://www.w3.org/1999/xlink">
<g id="graph0" class="graph" transform="scale(1 1) rotate(0) translate(4 1188)">
<title>topi/include/topi/cuda/dense.h</title>
<polygon fill="white" stroke="none" points="-4,4 -4,-1188 3312,-1188 3312,4 -4,4"/>
<!-- Node1 -->
<g id="node1" class="node"><title>Node1</title>
<polygon fill="#bfbfbf" stroke="black" points="1861.5,-1153.5 1861.5,-1183.5 1980.5,-1183.5 1980.5,-1153.5 1861.5,-1153.5"/>
<text text-anchor="start" x="1869.5" y="-1171.5" font-family="Helvetica,sans-Serif" font-size="10.00">topi/include/topi/cuda</text>
<text text-anchor="middle" x="1921" y="-1160.5" font-family="Helvetica,sans-Serif" font-size="10.00">/dense.h</text>
</g>
<!-- Node2 -->
<g id="node2" class="node"><title>Node2</title>
<g id="a_node2"><a xlink:href="operation_8h.html" target="_top" xlink:title="Operation node can generate one or multiple Tensors. ">
<polygon fill="white" stroke="black" points="1444,-929.5 1444,-948.5 1550,-948.5 1550,-929.5 1444,-929.5"/>
<text text-anchor="middle" x="1497" y="-936.5" font-family="Helvetica,sans-Serif" font-size="10.00">tvm/te/operation.h</text>
</a>
</g>
</g>
<!-- Node1&#45;&gt;Node2 -->
<g id="edge1" class="edge"><title>Node1&#45;&gt;Node2</title>
<path fill="none" stroke="midnightblue" d="M1944.94,-1153.4C1996.08,-1121.6 2107.17,-1042.63 2054,-985 2021.07,-949.303 1698.88,-941.918 1560.08,-940.394"/>
<polygon fill="midnightblue" stroke="midnightblue" points="1560.05,-936.894 1550.01,-940.29 1559.97,-943.893 1560.05,-936.894"/>
</g>
<!-- Node39 -->
<g id="node39" class="node"><title>Node39</title>
<g id="a_node39"><a xlink:href="schedule__pass_8h.html" target="_top" xlink:title="Collection of Schedule pass functions. ">
<polygon fill="white" stroke="black" points="1914.5,-985.5 1914.5,-1004.5 2045.5,-1004.5 2045.5,-985.5 1914.5,-985.5"/>
<text text-anchor="middle" x="1980" y="-992.5" font-family="Helvetica,sans-Serif" font-size="10.00">tvm/te/schedule_pass.h</text>
</a>
</g>
</g>
<!-- Node1&#45;&gt;Node39 -->
<g id="edge149" class="edge"><title>Node1&#45;&gt;Node39</title>
<path fill="none" stroke="midnightblue" d="M1925.83,-1153.47C1936.46,-1122.57 1961.87,-1048.69 1973.72,-1014.25"/>
<polygon fill="midnightblue" stroke="midnightblue" points="1977.11,-1015.15 1977.06,-1004.56 1970.49,-1012.88 1977.11,-1015.15"/>
</g>
<!-- Node40 -->
<g id="node40" class="node"><title>Node40</title>
<g id="a_node40"><a xlink:href="generic__func_8h.html" target="_top" xlink:title="Generic function that can be specialzied on a per target basis. ">
<polygon fill="white" stroke="black" points="2124,-638.5 2124,-668.5 2230,-668.5 2230,-638.5 2124,-638.5"/>
<text text-anchor="start" x="2132" y="-656.5" font-family="Helvetica,sans-Serif" font-size="10.00">tvm/target/generic</text>
<text text-anchor="middle" x="2177" y="-645.5" font-family="Helvetica,sans-Serif" font-size="10.00">_func.h</text>
</a>
</g>
</g>
<!-- Node1&#45;&gt;Node40 -->
<g id="edge151" class="edge"><title>Node1&#45;&gt;Node40</title>
<path fill="none" stroke="midnightblue" d="M1980.52,-1163.08C2048.4,-1156.86 2153.78,-1143.22 2183,-1117 2205.5,-1096.81 2203,-1082.23 2203,-1052 2203,-1052 2203,-1052 2203,-770 2203,-737.738 2193.23,-701.618 2185.66,-678.499"/>
<polygon fill="midnightblue" stroke="midnightblue" points="2188.92,-677.196 2182.39,-668.852 2182.29,-679.447 2188.92,-677.196"/>
</g>
<!-- Node43 -->
<g id="node43" class="node"><title>Node43</title>
<g id="a_node43"><a xlink:href="tags_8h.html" target="_top" xlink:title="External function interface to rocBLAS libraries. ">
<polygon fill="white" stroke="black" points="1401,-985.5 1401,-1004.5 1469,-1004.5 1469,-985.5 1401,-985.5"/>
<text text-anchor="middle" x="1435" y="-992.5" font-family="Helvetica,sans-Serif" font-size="10.00">topi/tags.h</text>
</a>
</g>
</g>
<!-- Node1&#45;&gt;Node43 -->
<g id="edge166" class="edge"><title>Node1&#45;&gt;Node43</title>
<path fill="none" stroke="midnightblue" d="M1861.15,-1166.46C1770.66,-1162.14 1597.07,-1142.83 1479,-1061 1462.07,-1049.27 1449.8,-1028.74 1442.58,-1013.88"/>
<polygon fill="midnightblue" stroke="midnightblue" points="1445.72,-1012.34 1438.4,-1004.68 1439.35,-1015.24 1445.72,-1012.34"/>
</g>
<!-- Node44 -->
<g id="node44" class="node"><title>Node44</title>
<g id="a_node44"><a xlink:href="array__utils_8h.html" target="_top" xlink:title="Utility functions for handling arrays. ">
<polygon fill="white" stroke="black" points="2049.5,-1097.5 2049.5,-1116.5 2174.5,-1116.5 2174.5,-1097.5 2049.5,-1097.5"/>
<text text-anchor="middle" x="2112" y="-1104.5" font-family="Helvetica,sans-Serif" font-size="10.00">topi/detail/array_utils.h</text>
</a>
</g>
</g>
<!-- Node1&#45;&gt;Node44 -->
<g id="edge168" class="edge"><title>Node1&#45;&gt;Node44</title>
<path fill="none" stroke="midnightblue" d="M1966.26,-1153.4C1999.41,-1143.07 2043.85,-1129.23 2074.9,-1119.56"/>
<polygon fill="midnightblue" stroke="midnightblue" points="2075.98,-1122.89 2084.49,-1116.57 2073.9,-1116.2 2075.98,-1122.89"/>
</g>
<!-- Node45 -->
<g id="node45" class="node"><title>Node45</title>
<g id="a_node45"><a xlink:href="nn_2dense_8h.html" target="_top" xlink:title="Dense op constructions. ">
<polygon fill="white" stroke="black" points="1328.5,-1041.5 1328.5,-1060.5 1419.5,-1060.5 1419.5,-1041.5 1328.5,-1041.5"/>
<text text-anchor="middle" x="1374" y="-1048.5" font-family="Helvetica,sans-Serif" font-size="10.00">topi/nn/dense.h</text>
</a>
</g>
</g>
<!-- Node1&#45;&gt;Node45 -->
<g id="edge170" class="edge"><title>Node1&#45;&gt;Node45</title>
<path fill="none" stroke="midnightblue" d="M1861.1,-1166.38C1748.37,-1163.45 1509.43,-1153.05 1436,-1117 1414.21,-1106.3 1395.99,-1084.57 1385.06,-1069.19"/>
<polygon fill="midnightblue" stroke="midnightblue" points="1387.74,-1066.9 1379.23,-1060.59 1381.94,-1070.83 1387.74,-1066.9"/>
</g>
<!-- Node46 -->
<g id="node46" class="node"><title>Node46</title>
<g id="a_node46"><a xlink:href="cublas_8h.html" target="_top" xlink:title="External function interface to cuBLAS libraries. ">
<polygon fill="white" stroke="black" points="1522.5,-1041.5 1522.5,-1060.5 1635.5,-1060.5 1635.5,-1041.5 1522.5,-1041.5"/>
<text text-anchor="middle" x="1579" y="-1048.5" font-family="Helvetica,sans-Serif" font-size="10.00">topi/contrib/cublas.h</text>
</a>
</g>
</g>
<!-- Node1&#45;&gt;Node46 -->
<g id="edge174" class="edge"><title>Node1&#45;&gt;Node46</title>
<path fill="none" stroke="midnightblue" d="M1879.41,-1153.45C1811.31,-1130.46 1677.28,-1085.19 1613.85,-1063.77"/>
<polygon fill="midnightblue" stroke="midnightblue" points="1614.89,-1060.43 1604.29,-1060.54 1612.65,-1067.06 1614.89,-1060.43"/>
</g>
<!-- Node48 -->
<g id="node48" class="node"><title>Node48</title>
<g id="a_node48"><a xlink:href="generic_2extern_8h.html" target="_top" xlink:title="Schedule for extern followed by injective ops. ">
<polygon fill="white" stroke="black" points="1797,-1097.5 1797,-1116.5 1913,-1116.5 1913,-1097.5 1797,-1097.5"/>
<text text-anchor="middle" x="1855" y="-1104.5" font-family="Helvetica,sans-Serif" font-size="10.00">topi/generic/extern.h</text>
</a>
</g>
</g>
<!-- Node1&#45;&gt;Node48 -->
<g id="edge180" class="edge"><title>Node1&#45;&gt;Node48</title>
<path fill="none" stroke="midnightblue" d="M1905.36,-1153.4C1895.37,-1144.4 1882.42,-1132.72 1872.15,-1123.47"/>
<polygon fill="midnightblue" stroke="midnightblue" points="1874.37,-1120.75 1864.6,-1116.66 1869.69,-1125.95 1874.37,-1120.75"/>
</g>
<!-- Node3 -->
<g id="node3" class="node"><title>Node3</title>
<g id="a_node3"><a xlink:href="analyzer_8h.html" target="_top" xlink:title="Algebra expression simplifications. ">
<polygon fill="white" stroke="black" points="1653,-705.5 1653,-724.5 1765,-724.5 1765,-705.5 1653,-705.5"/>
<text text-anchor="middle" x="1709" y="-712.5" font-family="Helvetica,sans-Serif" font-size="10.00">tvm/arith/analyzer.h</text>
</a>
</g>
</g>
<!-- Node2&#45;&gt;Node3 -->
<g id="edge2" class="edge"><title>Node2&#45;&gt;Node3</title>
<path fill="none" stroke="midnightblue" d="M1505.31,-929.297C1537.16,-895.94 1651.78,-775.923 1693.59,-732.135"/>
<polygon fill="midnightblue" stroke="midnightblue" points="1696.14,-734.533 1700.52,-724.884 1691.08,-729.699 1696.14,-734.533"/>
</g>
<!-- Node11 -->
<g id="node11" class="node"><title>Node11</title>
<polygon fill="white" stroke="#bfbfbf" points="730,-6 730,-25 774,-25 774,-6 730,-6"/>
<text text-anchor="middle" x="752" y="-13" font-family="Helvetica,sans-Serif" font-size="10.00">string</text>
</g>
<!-- Node2&#45;&gt;Node11 -->
<g id="edge146" class="edge"><title>Node2&#45;&gt;Node11</title>
<path fill="none" stroke="midnightblue" d="M1443.9,-938.008C1215.18,-937.791 320.425,-934.288 202,-893 156.087,-876.993 114,-876.624 114,-828 114,-828 114,-828 114,-132 114,-93.8683 136.057,-84.3745 170,-67 267.103,-17.296 611.954,-15.466 719.634,-16.1494"/>
<polygon fill="midnightblue" stroke="midnightblue" points="719.843,-19.651 729.869,-16.2269 719.896,-12.6512 719.843,-19.651"/>
</g>
<!-- Node18 -->
<g id="node18" class="node"><title>Node18</title>
<polygon fill="white" stroke="#bfbfbf" points="1700.5,-123.5 1700.5,-142.5 1747.5,-142.5 1747.5,-123.5 1700.5,-123.5"/>
<text text-anchor="middle" x="1724" y="-130.5" font-family="Helvetica,sans-Serif" font-size="10.00">vector</text>
</g>
<!-- Node2&#45;&gt;Node18 -->
<g id="edge147" class="edge"><title>Node2&#45;&gt;Node18</title>
<path fill="none" stroke="midnightblue" d="M1550.14,-931.864C1679.08,-915.503 1998,-865.576 1998,-772 1998,-772 1998,-772 1998,-479 1998,-326.4 1956.47,-265.857 1831,-179 1818.46,-170.317 1783.32,-156.164 1756.71,-146.049"/>
<polygon fill="midnightblue" stroke="midnightblue" points="1757.94,-142.772 1747.34,-142.522 1755.47,-149.322 1757.94,-142.772"/>
</g>
<!-- Node19 -->
<g id="node19" class="node"><title>Node19</title>
<polygon fill="white" stroke="#bfbfbf" points="447.5,-123.5 447.5,-142.5 540.5,-142.5 540.5,-123.5 447.5,-123.5"/>
<text text-anchor="middle" x="494" y="-130.5" font-family="Helvetica,sans-Serif" font-size="10.00">unordered_map</text>
</g>
<!-- Node2&#45;&gt;Node19 -->
<g id="edge148" class="edge"><title>Node2&#45;&gt;Node19</title>
<path fill="none" stroke="midnightblue" d="M1443.99,-937.618C1253.76,-935.968 605.955,-927.861 402,-893 304.857,-876.396 190,-926.551 190,-828 190,-828 190,-828 190,-423 190,-292.584 238.71,-241.819 353,-179 381.278,-163.457 415.742,-152.335 443.518,-145.036"/>
<polygon fill="midnightblue" stroke="midnightblue" points="444.595,-148.374 453.425,-142.519 442.871,-141.589 444.595,-148.374"/>
</g>
<!-- Node29 -->
<g id="node29" class="node"><title>Node29</title>
<g id="a_node29"><a xlink:href="tir_2expr_8h.html" target="_top" xlink:title="TIR expressions. ">
<polygon fill="white" stroke="black" points="915,-582.5 915,-601.5 995,-601.5 995,-582.5 915,-582.5"/>
<text text-anchor="middle" x="955" y="-589.5" font-family="Helvetica,sans-Serif" font-size="10.00">tvm/tir/expr.h</text>
</a>
</g>
</g>
<!-- Node2&#45;&gt;Node29 -->
<g id="edge143" class="edge"><title>Node2&#45;&gt;Node29</title>
<path fill="none" stroke="midnightblue" d="M1443.7,-938.582C1216.94,-940.369 344,-939.978 344,-828 344,-828 344,-828 344,-714 344,-599.95 758.829,-591.698 904.87,-592.326"/>
<polygon fill="midnightblue" stroke="midnightblue" points="904.89,-595.826 914.911,-592.385 904.931,-588.826 904.89,-595.826"/>
</g>
<!-- Node32 -->
<g id="node32" class="node"><title>Node32</title>
<g id="a_node32"><a xlink:href="tensor_8h.html" target="_top" xlink:title="Dataflow tensor object. ">
<polygon fill="white" stroke="black" points="755,-761.5 755,-780.5 845,-780.5 845,-761.5 755,-761.5"/>
<text text-anchor="middle" x="800" y="-768.5" font-family="Helvetica,sans-Serif" font-size="10.00">tvm/te/tensor.h</text>
</a>
</g>
</g>
<!-- Node2&#45;&gt;Node32 -->
<g id="edge103" class="edge"><title>Node2&#45;&gt;Node32</title>
<path fill="none" stroke="midnightblue" d="M1443.89,-938.211C1292.17,-938.304 864.735,-934.816 819,-893 790.712,-867.137 792.84,-817.707 796.576,-790.72"/>
<polygon fill="midnightblue" stroke="midnightblue" points="800.061,-791.09 798.192,-780.662 793.15,-789.98 800.061,-791.09"/>
</g>
<!-- Node35 -->
<g id="node35" class="node"><title>Node35</title>
<g id="a_node35"><a xlink:href="tir_2op_8h.html" target="_top" xlink:title="Common operators defined for Expr. ">
<polygon fill="white" stroke="black" points="574,-705.5 574,-724.5 646,-724.5 646,-705.5 574,-705.5"/>
<text text-anchor="middle" x="610" y="-712.5" font-family="Helvetica,sans-Serif" font-size="10.00">tvm/tir/op.h</text>
</a>
</g>
</g>
<!-- Node2&#45;&gt;Node35 -->
<g id="edge144" class="edge"><title>Node2&#45;&gt;Node35</title>
<path fill="none" stroke="midnightblue" d="M1443.94,-937.574C1273.44,-935.861 746.728,-927.781 679,-893 625.928,-865.745 619.119,-838.967 605,-781 601.271,-765.691 603.077,-747.809 605.5,-734.681"/>
<polygon fill="midnightblue" stroke="midnightblue" points="608.997,-735.062 607.665,-724.551 602.152,-733.599 608.997,-735.062"/>
</g>
<!-- Node36 -->
<g id="node36" class="node"><title>Node36</title>
<g id="a_node36"><a xlink:href="schedule_8h.html" target="_top" xlink:title="Define a schedule. ">
<polygon fill="white" stroke="black" points="828.5,-873.5 828.5,-892.5 931.5,-892.5 931.5,-873.5 828.5,-873.5"/>
<text text-anchor="middle" x="880" y="-880.5" font-family="Helvetica,sans-Serif" font-size="10.00">tvm/te/schedule.h</text>
</a>
</g>
</g>
<!-- Node2&#45;&gt;Node36 -->
<g id="edge129" class="edge"><title>Node2&#45;&gt;Node36</title>
<path fill="none" stroke="midnightblue" d="M1443.86,-933.349C1330.11,-923.393 1063.53,-900.062 942.155,-889.44"/>
<polygon fill="midnightblue" stroke="midnightblue" points="942.188,-885.929 931.921,-888.544 941.577,-892.903 942.188,-885.929"/>
</g>
<!-- Node38 -->
<g id="node38" class="node"><title>Node38</title>
<g id="a_node38"><a xlink:href="buffer_8h.html" target="_top" xlink:title="Symbolic n&#45;dimensional array, to represent a memory buffer. ">
<polygon fill="white" stroke="black" points="614.5,-761.5 614.5,-780.5 701.5,-780.5 701.5,-761.5 614.5,-761.5"/>
<text text-anchor="middle" x="658" y="-768.5" font-family="Helvetica,sans-Serif" font-size="10.00">tvm/tir/buffer.h</text>
</a>
</g>
</g>
<!-- Node2&#45;&gt;Node38 -->
<g id="edge145" class="edge"><title>Node2&#45;&gt;Node38</title>
<path fill="none" stroke="midnightblue" d="M1443.84,-936.44C1303.34,-932.017 924.609,-918.064 802,-893 728.597,-877.995 686.293,-898.147 643,-837 633.199,-823.157 639.521,-803.88 646.727,-789.916"/>
<polygon fill="midnightblue" stroke="midnightblue" points="649.989,-791.261 651.911,-780.841 643.912,-787.788 649.989,-791.261"/>
</g>
<!-- Node4 -->
<g id="node4" class="node"><title>Node4</title>
<g id="a_node4"><a xlink:href="with_8h.html" target="_top" xlink:title="RAII wrapper function to enter and exit a context object similar to python&#39;s with syntax...">
<polygon fill="white" stroke="black" points="2505,-526.5 2505,-545.5 2611,-545.5 2611,-526.5 2505,-526.5"/>
<text text-anchor="middle" x="2558" y="-533.5" font-family="Helvetica,sans-Serif" font-size="10.00">tvm/support/with.h</text>
</a>
</g>
</g>
<!-- Node3&#45;&gt;Node4 -->
<g id="edge3" class="edge"><title>Node3&#45;&gt;Node4</title>
<path fill="none" stroke="midnightblue" d="M1765.12,-712.479C1862.31,-709.125 2067.98,-698.846 2239,-669 2352.74,-649.15 2389.34,-658.552 2490,-602 2512.14,-589.563 2532.47,-568.256 2545.02,-553.441"/>
<polygon fill="midnightblue" stroke="midnightblue" points="2547.83,-555.536 2551.47,-545.585 2542.42,-551.095 2547.83,-555.536"/>
</g>
<!-- Node7 -->
<g id="node7" class="node"><title>Node7</title>
<g id="a_node7"><a xlink:href="ir_2expr_8h.html" target="_top" xlink:title="Base expr nodes in TVM. ">
<polygon fill="white" stroke="black" points="1230.5,-526.5 1230.5,-545.5 1307.5,-545.5 1307.5,-526.5 1230.5,-526.5"/>
<text text-anchor="middle" x="1269" y="-533.5" font-family="Helvetica,sans-Serif" font-size="10.00">tvm/ir/expr.h</text>
</a>
</g>
</g>
<!-- Node3&#45;&gt;Node7 -->
<g id="edge6" class="edge"><title>Node3&#45;&gt;Node7</title>
<path fill="none" stroke="midnightblue" d="M1687.78,-705.463C1616.27,-676.697 1383.91,-583.224 1299.77,-549.378"/>
<polygon fill="midnightblue" stroke="midnightblue" points="1300.85,-546.04 1290.27,-545.555 1298.24,-552.534 1300.85,-546.04"/>
</g>
<!-- Node17 -->
<g id="node17" class="node"><title>Node17</title>
<polygon fill="white" stroke="#bfbfbf" points="2676.5,-123.5 2676.5,-142.5 2733.5,-142.5 2733.5,-123.5 2676.5,-123.5"/>
<text text-anchor="middle" x="2705" y="-130.5" font-family="Helvetica,sans-Serif" font-size="10.00">memory</text>
</g>
<!-- Node3&#45;&gt;Node17 -->
<g id="edge101" class="edge"><title>Node3&#45;&gt;Node17</title>
<path fill="none" stroke="midnightblue" d="M1727.27,-705.391C1778.57,-681.139 1928.12,-609.863 2050,-546 2331.08,-398.722 2456.73,-430.286 2674,-199 2686.55,-185.639 2694.89,-166.26 2699.73,-152.14"/>
<polygon fill="midnightblue" stroke="midnightblue" points="2703.09,-153.144 2702.76,-142.554 2696.41,-151.035 2703.09,-153.144"/>
</g>
<!-- Node3&#45;&gt;Node18 -->
<g id="edge99" class="edge"><title>Node3&#45;&gt;Node18</title>
<path fill="none" stroke="midnightblue" d="M1711.82,-705.302C1717.96,-685.563 1732,-635.766 1732,-593 1732,-593 1732,-593 1732,-479 1732,-373.06 1649.44,-369.083 1625,-266 1621.82,-252.594 1620.03,-247.849 1625,-235 1637.15,-203.607 1652.37,-202.975 1676,-179 1685.92,-168.933 1697.47,-158.083 1706.75,-149.56"/>
<polygon fill="midnightblue" stroke="midnightblue" points="1709.19,-152.07 1714.23,-142.747 1704.48,-146.896 1709.19,-152.07"/>
</g>
<!-- Node3&#45;&gt;Node19 -->
<g id="edge100" class="edge"><title>Node3&#45;&gt;Node19</title>
<path fill="none" stroke="midnightblue" d="M1652.86,-713.016C1488.37,-709.821 1009.51,-698.202 856,-669 763.907,-651.482 739.581,-644.451 656,-602 498.144,-521.825 467.997,-441.131 442,-266 439.977,-252.372 438.755,-248.39 442,-235 449.703,-203.209 469.252,-170.216 482.064,-150.924"/>
<polygon fill="midnightblue" stroke="midnightblue" points="484.986,-152.852 487.731,-142.619 479.204,-148.906 484.986,-152.852"/>
</g>
<!-- Node24 -->
<g id="node24" class="node"><title>Node24</title>
<polygon fill="white" stroke="#bfbfbf" points="750,-179.5 750,-198.5 792,-198.5 792,-179.5 750,-179.5"/>
<text text-anchor="middle" x="771" y="-186.5" font-family="Helvetica,sans-Serif" font-size="10.00">limits</text>
</g>
<!-- Node3&#45;&gt;Node24 -->
<g id="edge102" class="edge"><title>Node3&#45;&gt;Node24</title>
<path fill="none" stroke="midnightblue" d="M1652.88,-712.256C1504.08,-707.364 1101.87,-692.326 971,-669 958.265,-666.73 757.378,-610.91 748,-602 635.094,-494.727 730.536,-272.532 761.887,-207.961"/>
<polygon fill="midnightblue" stroke="midnightblue" points="765.177,-209.204 766.48,-198.69 758.905,-206.097 765.177,-209.204"/>
</g>
<!-- Node28 -->
<g id="node28" class="node"><title>Node28</title>
<g id="a_node28"><a xlink:href="int__set_8h.html" target="_top" xlink:title="Integer set. ">
<polygon fill="white" stroke="black" points="980,-644 980,-663 1084,-663 1084,-644 980,-644"/>
<text text-anchor="middle" x="1032" y="-651" font-family="Helvetica,sans-Serif" font-size="10.00">tvm/arith/int_set.h</text>
</a>
</g>
</g>
<!-- Node3&#45;&gt;Node28 -->
<g id="edge78" class="edge"><title>Node3&#45;&gt;Node28</title>
<path fill="none" stroke="midnightblue" d="M1652.6,-712.901C1543.79,-710.116 1297.53,-700.571 1093,-669 1086.72,-668.03 1080.13,-666.748 1073.69,-665.347"/>
<polygon fill="midnightblue" stroke="midnightblue" points="1074.31,-661.898 1063.78,-663.074 1072.75,-668.721 1074.31,-661.898"/>
</g>
<!-- Node5 -->
<g id="node5" class="node"><title>Node5</title>
<polygon fill="white" stroke="#bfbfbf" points="2567,-6 2567,-25 2653,-25 2653,-6 2567,-6"/>
<text text-anchor="middle" x="2610" y="-13" font-family="Helvetica,sans-Serif" font-size="10.00">dmlc/logging.h</text>
</g>
<!-- Node4&#45;&gt;Node5 -->
<g id="edge4" class="edge"><title>Node4&#45;&gt;Node5</title>
<path fill="none" stroke="midnightblue" d="M2611.19,-535.722C2750.97,-536.198 3118,-527.672 3118,-425 3118,-425 3118,-425 3118,-249.5 3118,-51.1122 2793.95,-20.9929 2663.48,-16.9062"/>
<polygon fill="midnightblue" stroke="midnightblue" points="2663.4,-13.403 2653.31,-16.6287 2663.21,-20.4004 2663.4,-13.403"/>
</g>
<!-- Node6 -->
<g id="node6" class="node"><title>Node6</title>
<polygon fill="white" stroke="#bfbfbf" points="3021,-6 3021,-25 3063,-25 3063,-6 3021,-6"/>
<text text-anchor="middle" x="3042" y="-13" font-family="Helvetica,sans-Serif" font-size="10.00">utility</text>
</g>
<!-- Node4&#45;&gt;Node6 -->
<g id="edge5" class="edge"><title>Node4&#45;&gt;Node6</title>
<path fill="none" stroke="midnightblue" d="M2611.37,-532.629C2726.47,-527.158 2994.77,-512.381 3083,-490 3153.03,-472.235 3232,-497.249 3232,-425 3232,-425 3232,-425 3232,-132 3232,-101.205 3230.4,-88.1307 3208,-67 3170.8,-31.9143 3109.95,-21.1542 3073.17,-17.8864"/>
<polygon fill="midnightblue" stroke="midnightblue" points="3073.26,-14.3834 3063.02,-17.1215 3072.73,-21.3636 3073.26,-14.3834"/>
</g>
<!-- Node8 -->
<g id="node8" class="node"><title>Node8</title>
<g id="a_node8"><a xlink:href="object_8h.html" target="_top" xlink:title="A managed object in the TVM runtime. ">
<polygon fill="white" stroke="red" points="2034.5,-67.5 2034.5,-86.5 2151.5,-86.5 2151.5,-67.5 2034.5,-67.5"/>
<text text-anchor="middle" x="2093" y="-74.5" font-family="Helvetica,sans-Serif" font-size="10.00">tvm/runtime/object.h</text>
</a>
</g>
</g>
<!-- Node7&#45;&gt;Node8 -->
<g id="edge7" class="edge"><title>Node7&#45;&gt;Node8</title>
<path fill="none" stroke="midnightblue" d="M1297.83,-526.481C1326.48,-517.858 1371.56,-503.854 1410,-490 1597.97,-422.245 1650.03,-414.758 1827,-322 1867.07,-300.998 1874.26,-290.949 1912,-266 1988,-215.754 2028.38,-220.675 2076,-143 2084.67,-128.861 2088.95,-110.376 2091.05,-96.7347"/>
<polygon fill="midnightblue" stroke="midnightblue" points="2094.54,-96.9801 2092.34,-86.617 2087.6,-96.0923 2094.54,-96.9801"/>
</g>
<!-- Node10 -->
<g id="node10" class="node"><title>Node10</title>
<polygon fill="white" stroke="#bfbfbf" points="1508,-6 1508,-25 1576,-25 1576,-6 1508,-6"/>
<text text-anchor="middle" x="1542" y="-13" font-family="Helvetica,sans-Serif" font-size="10.00">type_traits</text>
</g>
<!-- Node7&#45;&gt;Node10 -->
<g id="edge77" class="edge"><title>Node7&#45;&gt;Node10</title>
<path fill="none" stroke="midnightblue" d="M1250,-526.295C1219.67,-511.485 1160.24,-478.6 1126,-434 1107.25,-409.574 1102,-399.795 1102,-369 1102,-369 1102,-369 1102,-311 1102,-212.134 1412.67,-71.4797 1511.91,-29.0719"/>
<polygon fill="midnightblue" stroke="midnightblue" points="1513.53,-32.1867 1521.37,-25.0559 1510.8,-25.7438 1513.53,-32.1867"/>
</g>
<!-- Node7&#45;&gt;Node11 -->
<g id="edge74" class="edge"><title>Node7&#45;&gt;Node11</title>
<path fill="none" stroke="midnightblue" d="M1236.88,-526.363C1213.58,-519.095 1182.06,-507.122 1158,-490 1131.06,-470.823 1130.71,-458.944 1109,-434 1065.76,-384.332 1052.46,-373.958 1012,-322 927.087,-212.946 934.497,-161.886 834,-67 817.944,-51.8399 796.628,-38.8807 779.754,-29.8866"/>
<polygon fill="midnightblue" stroke="midnightblue" points="780.897,-26.538 770.405,-25.0626 777.687,-32.7586 780.897,-26.538"/>
</g>
<!-- Node12 -->
<g id="node12" class="node"><title>Node12</title>
<g id="a_node12"><a xlink:href="node_8h.html" target="_top" xlink:title="Definitions and helper macros for IR/AST nodes. ">
<polygon fill="white" stroke="red" points="1379,-358.5 1379,-377.5 1477,-377.5 1477,-358.5 1379,-358.5"/>
<text text-anchor="middle" x="1428" y="-365.5" font-family="Helvetica,sans-Serif" font-size="10.00">tvm/node/node.h</text>
</a>
</g>
</g>
<!-- Node7&#45;&gt;Node12 -->
<g id="edge13" class="edge"><title>Node7&#45;&gt;Node12</title>
<path fill="none" stroke="midnightblue" d="M1289.29,-526.351C1306.52,-518.419 1331.34,-505.558 1350,-490 1384.58,-461.158 1409.12,-412.977 1420.63,-386.966"/>
<polygon fill="midnightblue" stroke="midnightblue" points="1423.92,-388.157 1424.63,-377.586 1417.49,-385.409 1423.92,-388.157"/>
</g>
<!-- Node14 -->
<g id="node14" class="node"><title>Node14</title>
<g id="a_node14"><a xlink:href="node_2container_8h.html" target="_top" xlink:title="Array/Map container in the DSL graph. ">
<polygon fill="white" stroke="red" points="1699.5,-302.5 1699.5,-321.5 1818.5,-321.5 1818.5,-302.5 1699.5,-302.5"/>
<text text-anchor="middle" x="1759" y="-309.5" font-family="Helvetica,sans-Serif" font-size="10.00">tvm/node/container.h</text>
</a>
</g>
</g>
<!-- Node7&#45;&gt;Node14 -->
<g id="edge62" class="edge"><title>Node7&#45;&gt;Node14</title>
<path fill="none" stroke="midnightblue" d="M1289.61,-526.395C1310.84,-517.476 1344.85,-503.039 1374,-490 1500.69,-433.324 1530.61,-415.346 1657,-358 1681.54,-346.866 1709.55,-334.533 1730.01,-325.599"/>
<polygon fill="midnightblue" stroke="midnightblue" points="1731.62,-328.711 1739.39,-321.506 1728.83,-322.295 1731.62,-328.711"/>
</g>
<!-- Node7&#45;&gt;Node24 -->
<g id="edge76" class="edge"><title>Node7&#45;&gt;Node24</title>
<path fill="none" stroke="midnightblue" d="M1230.03,-528.815C1170.4,-517.863 1054.93,-490.657 974,-434 881.25,-369.07 806.619,-251.194 780.767,-207.182"/>
<polygon fill="midnightblue" stroke="midnightblue" points="783.791,-205.42 775.751,-198.519 777.733,-208.927 783.791,-205.42"/>
</g>
<!-- Node25 -->
<g id="node25" class="node"><title>Node25</title>
<g id="a_node25"><a xlink:href="span_8h.html" target="_top" xlink:title="Span information for debugging purposes. ">
<polygon fill="white" stroke="black" points="1282,-414.5 1282,-433.5 1362,-433.5 1362,-414.5 1282,-414.5"/>
<text text-anchor="middle" x="1322" y="-421.5" font-family="Helvetica,sans-Serif" font-size="10.00">tvm/ir/span.h</text>
</a>
</g>
</g>
<!-- Node7&#45;&gt;Node25 -->
<g id="edge63" class="edge"><title>Node7&#45;&gt;Node25</title>
<path fill="none" stroke="midnightblue" d="M1290.81,-526.447C1305.94,-519.221 1324.95,-507.264 1334,-490 1341.72,-475.258 1336.84,-456.358 1331.16,-442.742"/>
<polygon fill="midnightblue" stroke="midnightblue" points="1334.26,-441.098 1326.86,-433.516 1327.92,-444.058 1334.26,-441.098"/>
</g>
<!-- Node26 -->
<g id="node26" class="node"><title>Node26</title>
<g id="a_node26"><a xlink:href="ir_2type_8h.html" target="_top" xlink:title="IR/AST nodes for the unified type system in TVM. ">
<polygon fill="white" stroke="black" points="1248.5,-470.5 1248.5,-489.5 1325.5,-489.5 1325.5,-470.5 1248.5,-470.5"/>
<text text-anchor="middle" x="1287" y="-477.5" font-family="Helvetica,sans-Serif" font-size="10.00">tvm/ir/type.h</text>
</a>
</g>
</g>
<!-- Node7&#45;&gt;Node26 -->
<g id="edge67" class="edge"><title>Node7&#45;&gt;Node26</title>
<path fill="none" stroke="midnightblue" d="M1271.97,-526.083C1274.38,-518.849 1277.86,-508.409 1280.87,-499.397"/>
<polygon fill="midnightblue" stroke="midnightblue" points="1284.24,-500.345 1284.08,-489.751 1277.6,-498.131 1284.24,-500.345"/>
</g>
<!-- Node27 -->
<g id="node27" class="node"><title>Node27</title>
<polygon fill="white" stroke="#bfbfbf" points="864,-470.5 864,-489.5 926,-489.5 926,-470.5 864,-470.5"/>
<text text-anchor="middle" x="895" y="-477.5" font-family="Helvetica,sans-Serif" font-size="10.00">algorithm</text>
</g>
<!-- Node7&#45;&gt;Node27 -->
<g id="edge75" class="edge"><title>Node7&#45;&gt;Node27</title>
<path fill="none" stroke="midnightblue" d="M1230.38,-529.424C1159.5,-519.189 1009.21,-497.491 936.344,-486.969"/>
<polygon fill="midnightblue" stroke="midnightblue" points="936.57,-483.466 926.172,-485.501 935.57,-490.394 936.57,-483.466"/>
</g>
<!-- Node8&#45;&gt;Node5 -->
<g id="edge8" class="edge"><title>Node8&#45;&gt;Node5</title>
<path fill="none" stroke="midnightblue" d="M2151.55,-69.2614C2252.82,-57.6071 2459.16,-33.8602 2556.67,-22.6372"/>
<polygon fill="midnightblue" stroke="midnightblue" points="2557.35,-26.082 2566.89,-21.4615 2556.55,-19.1279 2557.35,-26.082"/>
</g>
<!-- Node8&#45;&gt;Node6 -->
<g id="edge12" class="edge"><title>Node8&#45;&gt;Node6</title>
<path fill="none" stroke="midnightblue" d="M2151.65,-72.3229C2332.05,-61.0124 2874.72,-26.9884 3010.79,-18.4567"/>
<polygon fill="midnightblue" stroke="midnightblue" points="3011.18,-21.9396 3020.94,-17.8206 3010.74,-14.9533 3011.18,-21.9396"/>
</g>
<!-- Node9 -->
<g id="node9" class="node"><title>Node9</title>
<g id="a_node9"><a xlink:href="c__runtime__api_8h.html" target="_top" xlink:title="tvm/runtime/c_runtime\l_api.h">
<polygon fill="white" stroke="red" points="2029.5,-0.5 2029.5,-30.5 2156.5,-30.5 2156.5,-0.5 2029.5,-0.5"/>
<text text-anchor="start" x="2037.5" y="-18.5" font-family="Helvetica,sans-Serif" font-size="10.00">tvm/runtime/c_runtime</text>
<text text-anchor="middle" x="2093" y="-7.5" font-family="Helvetica,sans-Serif" font-size="10.00">_api.h</text>
</a>
</g>
</g>
<!-- Node8&#45;&gt;Node9 -->
<g id="edge9" class="edge"><title>Node8&#45;&gt;Node9</title>
<path fill="none" stroke="midnightblue" d="M2093,-67.4751C2093,-60.471 2093,-50.1919 2093,-40.6956"/>
<polygon fill="midnightblue" stroke="midnightblue" points="2096.5,-40.5229 2093,-30.523 2089.5,-40.523 2096.5,-40.5229"/>
</g>
<!-- Node8&#45;&gt;Node10 -->
<g id="edge10" class="edge"><title>Node8&#45;&gt;Node10</title>
<path fill="none" stroke="midnightblue" d="M2034.29,-69.6606C1923.28,-57.6732 1684.9,-31.931 1586.2,-21.2725"/>
<polygon fill="midnightblue" stroke="midnightblue" points="1586.57,-17.7928 1576.25,-20.1989 1585.82,-24.7523 1586.57,-17.7928"/>
</g>
<!-- Node8&#45;&gt;Node11 -->
<g id="edge11" class="edge"><title>Node8&#45;&gt;Node11</title>
<path fill="none" stroke="midnightblue" d="M2034.08,-73.3859C1802.61,-63.1154 959.664,-25.714 784.151,-17.9265"/>
<polygon fill="midnightblue" stroke="midnightblue" points="784.161,-14.4236 774.016,-17.4768 783.851,-21.4168 784.161,-14.4236"/>
</g>
<!-- Node12&#45;&gt;Node6 -->
<g id="edge60" class="edge"><title>Node12&#45;&gt;Node6</title>
<path fill="none" stroke="midnightblue" d="M1477.18,-364.013C1718.79,-349.275 2770.96,-284.272 2838,-266 2902.63,-248.386 2923.37,-243.989 2973,-199 2994.74,-179.287 2995.21,-169.418 3008,-143 3025.44,-106.966 3034.97,-60.6723 3039.23,-35.2682"/>
<polygon fill="midnightblue" stroke="midnightblue" points="3042.72,-35.6012 3040.82,-25.178 3035.8,-34.5104 3042.72,-35.6012"/>
</g>
<!-- Node12&#45;&gt;Node8 -->
<g id="edge15" class="edge"><title>Node12&#45;&gt;Node8</title>
<path fill="none" stroke="midnightblue" d="M1433.87,-358.451C1440.01,-349.456 1449.86,-334.849 1458,-322 1497.69,-259.351 1487.12,-226.588 1544,-179 1597.62,-134.139 1623.05,-139.464 1691,-123 1805.87,-95.1659 1943.45,-84.4801 2024.23,-80.4253"/>
<polygon fill="midnightblue" stroke="midnightblue" points="2024.46,-83.9185 2034.28,-79.9406 2024.12,-76.9266 2024.46,-83.9185"/>
</g>
<!-- Node12&#45;&gt;Node9 -->
<g id="edge14" class="edge"><title>Node12&#45;&gt;Node9</title>
<path fill="none" stroke="midnightblue" d="M1430.82,-358.384C1438.01,-336.905 1458.13,-279.513 1482,-235 1516.17,-171.279 1533.36,-151.058 1600,-123 1679.61,-89.4792 1706.48,-104.823 1791,-87 1872.22,-69.8743 1965.14,-47.8075 2026.21,-32.9617"/>
<polygon fill="midnightblue" stroke="midnightblue" points="2027.22,-36.3184 2036.11,-30.5515 2025.57,-29.5172 2027.22,-36.3184"/>
</g>
<!-- Node12&#45;&gt;Node10 -->
<g id="edge61" class="edge"><title>Node12&#45;&gt;Node10</title>
<path fill="none" stroke="midnightblue" d="M1426.83,-358.448C1422.77,-325.855 1411.64,-207.028 1452,-123 1469.86,-85.8211 1503.81,-50.9556 1524.53,-31.7931"/>
<polygon fill="midnightblue" stroke="midnightblue" points="1526.94,-34.3287 1532.01,-25.0235 1522.24,-29.1385 1526.94,-34.3287"/>
</g>
<!-- Node12&#45;&gt;Node11 -->
<g id="edge58" class="edge"><title>Node12&#45;&gt;Node11</title>
<path fill="none" stroke="midnightblue" d="M1422.31,-358.388C1394.72,-317.389 1269.85,-140.925 1118,-67 1059.34,-38.4414 862.788,-23.3817 784.54,-18.4011"/>
<polygon fill="midnightblue" stroke="midnightblue" points="784.509,-14.8924 774.311,-17.7648 784.074,-21.8789 784.509,-14.8924"/>
</g>
<!-- Node13 -->
<g id="node13" class="node"><title>Node13</title>
<g id="a_node13"><a xlink:href="runtime_2memory_8h.html" target="_top" xlink:title="Runtime memory management. ">
<polygon fill="white" stroke="red" points="1918.5,-123.5 1918.5,-142.5 2045.5,-142.5 2045.5,-123.5 1918.5,-123.5"/>
<text text-anchor="middle" x="1982" y="-130.5" font-family="Helvetica,sans-Serif" font-size="10.00">tvm/runtime/memory.h</text>
</a>
</g>
</g>
<!-- Node12&#45;&gt;Node13 -->
<g id="edge16" class="edge"><title>Node12&#45;&gt;Node13</title>
<path fill="none" stroke="midnightblue" d="M1448.37,-358.431C1532.45,-323.069 1852.7,-188.381 1952.27,-146.502"/>
<polygon fill="midnightblue" stroke="midnightblue" points="1953.87,-149.627 1961.73,-142.524 1951.16,-143.174 1953.87,-149.627"/>
</g>
<!-- Node12&#45;&gt;Node14 -->
<g id="edge20" class="edge"><title>Node12&#45;&gt;Node14</title>
<path fill="none" stroke="midnightblue" d="M1477.2,-358.974C1535.66,-349.436 1633.28,-333.511 1696.89,-323.132"/>
<polygon fill="midnightblue" stroke="midnightblue" points="1697.49,-326.581 1706.8,-321.516 1696.37,-319.672 1697.49,-326.581"/>
</g>
<!-- Node12&#45;&gt;Node18 -->
<g id="edge59" class="edge"><title>Node12&#45;&gt;Node18</title>
<path fill="none" stroke="midnightblue" d="M1446.11,-358.45C1461.05,-350.662 1481.99,-337.954 1496,-322 1542.7,-268.834 1511.72,-224.397 1566,-179 1601.49,-149.317 1655.45,-139.183 1690.21,-135.742"/>
<polygon fill="midnightblue" stroke="midnightblue" points="1690.68,-139.215 1700.35,-134.875 1690.08,-132.241 1690.68,-139.215"/>
</g>
<!-- Node13&#45;&gt;Node6 -->
<g id="edge18" class="edge"><title>Node13&#45;&gt;Node6</title>
<path fill="none" stroke="midnightblue" d="M2045.53,-125.078C2246.62,-103.166 2864.6,-35.8303 3010.77,-19.9027"/>
<polygon fill="midnightblue" stroke="midnightblue" points="3011.28,-23.3677 3020.85,-18.805 3010.53,-16.4089 3011.28,-23.3677"/>
</g>
<!-- Node13&#45;&gt;Node8 -->
<g id="edge17" class="edge"><title>Node13&#45;&gt;Node8</title>
<path fill="none" stroke="midnightblue" d="M1999.83,-123.324C2017.72,-114.625 2045.48,-101.12 2066.05,-91.113"/>
<polygon fill="midnightblue" stroke="midnightblue" points="2067.75,-94.1765 2075.21,-86.6545 2064.69,-87.8819 2067.75,-94.1765"/>
</g>
<!-- Node13&#45;&gt;Node10 -->
<g id="edge19" class="edge"><title>Node13&#45;&gt;Node10</title>
<path fill="none" stroke="midnightblue" d="M1959.94,-123.459C1924.67,-110.041 1853.22,-83.8216 1791,-67 1720.24,-47.8685 1636.42,-32.2952 1586.32,-23.7223"/>
<polygon fill="midnightblue" stroke="midnightblue" points="1586.6,-20.22 1576.15,-22.0004 1585.43,-27.1217 1586.6,-20.22"/>
</g>
<!-- Node14&#45;&gt;Node6 -->
<g id="edge56" class="edge"><title>Node14&#45;&gt;Node6</title>
<path fill="none" stroke="midnightblue" d="M1818.74,-303.383C1823.56,-302.875 1828.36,-302.406 1833,-302 2081.33,-280.292 2747.34,-344.149 2950,-199 2979.06,-178.188 3019.36,-77.1081 3035.21,-34.9853"/>
<polygon fill="midnightblue" stroke="midnightblue" points="3038.56,-36.0099 3038.77,-25.4171 3032,-33.5687 3038.56,-36.0099"/>
</g>
<!-- Node14&#45;&gt;Node8 -->
<g id="edge21" class="edge"><title>Node14&#45;&gt;Node8</title>
<path fill="none" stroke="midnightblue" d="M1782.67,-302.383C1836.4,-281.869 1969.5,-225.604 2054,-143 2067.93,-129.379 2078.8,-109.771 2085.48,-95.6575"/>
<polygon fill="midnightblue" stroke="midnightblue" points="2088.68,-97.0716 2089.59,-86.5159 2082.3,-94.2004 2088.68,-97.0716"/>
</g>
<!-- Node14&#45;&gt;Node10 -->
<g id="edge53" class="edge"><title>Node14&#45;&gt;Node10</title>
<path fill="none" stroke="midnightblue" d="M1752.21,-302.434C1745.1,-293.425 1733.65,-278.806 1724,-266 1658.75,-179.39 1583.01,-73.9057 1554.07,-33.4258"/>
<polygon fill="midnightblue" stroke="midnightblue" points="1556.85,-31.2931 1548.19,-25.1892 1551.15,-35.3612 1556.85,-31.2931"/>
</g>
<!-- Node14&#45;&gt;Node11 -->
<g id="edge57" class="edge"><title>Node14&#45;&gt;Node11</title>
<path fill="none" stroke="midnightblue" d="M1742.29,-302.33C1672.68,-266.636 1398.09,-129.96 1156,-67 1020.93,-31.8742 853.901,-20.8913 784.548,-17.7046"/>
<polygon fill="midnightblue" stroke="midnightblue" points="784.419,-14.1957 774.276,-17.2575 784.114,-21.1891 784.419,-14.1957"/>
</g>
<!-- Node14&#45;&gt;Node13 -->
<g id="edge22" class="edge"><title>Node14&#45;&gt;Node13</title>
<path fill="none" stroke="midnightblue" d="M1767.6,-302.379C1789.74,-280.404 1850.99,-221.062 1908,-179 1923.68,-167.43 1942.45,-156.04 1957.17,-147.615"/>
<polygon fill="midnightblue" stroke="midnightblue" points="1959.18,-150.495 1966.17,-142.534 1955.74,-144.398 1959.18,-150.495"/>
</g>
<!-- Node15 -->
<g id="node15" class="node"><title>Node15</title>
<g id="a_node15"><a xlink:href="packed__func_8h.html" target="_top" xlink:title="Type&#45;erased function used across TVM API. ">
<polygon fill="white" stroke="black" points="2385.5,-235.5 2385.5,-265.5 2498.5,-265.5 2498.5,-235.5 2385.5,-235.5"/>
<text text-anchor="start" x="2393.5" y="-253.5" font-family="Helvetica,sans-Serif" font-size="10.00">tvm/runtime/packed</text>
<text text-anchor="middle" x="2442" y="-242.5" font-family="Helvetica,sans-Serif" font-size="10.00">_func.h</text>
</a>
</g>
</g>
<!-- Node14&#45;&gt;Node15 -->
<g id="edge23" class="edge"><title>Node14&#45;&gt;Node15</title>
<path fill="none" stroke="midnightblue" d="M1818.75,-303.534C1823.57,-302.992 1828.37,-302.474 1833,-302 2029.76,-281.884 2262.92,-264.285 2375.11,-256.205"/>
<polygon fill="midnightblue" stroke="midnightblue" points="2375.54,-259.683 2385.26,-255.476 2375.03,-252.701 2375.54,-259.683"/>
</g>
<!-- Node14&#45;&gt;Node18 -->
<g id="edge54" class="edge"><title>Node14&#45;&gt;Node18</title>
<path fill="none" stroke="midnightblue" d="M1754.61,-302.295C1745.56,-283.838 1725.12,-239.165 1718,-199 1716.45,-190.248 1717.41,-187.869 1718,-179 1718.57,-170.341 1719.77,-160.805 1720.94,-152.75"/>
<polygon fill="midnightblue" stroke="midnightblue" points="1724.44,-153.011 1722.51,-142.593 1717.52,-151.939 1724.44,-153.011"/>
</g>
<!-- Node14&#45;&gt;Node19 -->
<g id="edge55" class="edge"><title>Node14&#45;&gt;Node19</title>
<path fill="none" stroke="midnightblue" d="M1699.26,-302.641C1485.43,-272.721 759.776,-171.188 550.764,-141.943"/>
<polygon fill="midnightblue" stroke="midnightblue" points="551.014,-138.443 540.626,-140.524 550.044,-145.376 551.014,-138.443"/>
</g>
<!-- Node15&#45;&gt;Node5 -->
<g id="edge24" class="edge"><title>Node15&#45;&gt;Node5</title>
<path fill="none" stroke="midnightblue" d="M2498.52,-245.327C2618.86,-236.17 2890.6,-213.943 2904,-199 2982.79,-111.127 2767.51,-50.6453 2663.1,-27.2645"/>
<polygon fill="midnightblue" stroke="midnightblue" points="2663.57,-23.7847 2653.06,-25.0525 2662.07,-30.621 2663.57,-23.7847"/>
</g>
<!-- Node15&#45;&gt;Node6 -->
<g id="edge51" class="edge"><title>Node15&#45;&gt;Node6</title>
<path fill="none" stroke="midnightblue" d="M2498.74,-245.038C2622.63,-235.096 2907.71,-211.052 2925,-199 2978.65,-161.608 2951.54,-119.886 2990,-67 2999.46,-53.9904 3012.44,-41.3818 3023.06,-32.0174"/>
<polygon fill="midnightblue" stroke="midnightblue" points="3025.64,-34.4172 3030.97,-25.2572 3021.09,-29.0979 3025.64,-34.4172"/>
</g>
<!-- Node15&#45;&gt;Node8 -->
<g id="edge44" class="edge"><title>Node15&#45;&gt;Node8</title>
<path fill="none" stroke="midnightblue" d="M2498.73,-245.336C2561.35,-238.576 2648.96,-221.387 2614,-179 2557.42,-110.401 2289.97,-87.829 2161.81,-80.8752"/>
<polygon fill="midnightblue" stroke="midnightblue" points="2161.88,-77.3741 2151.71,-80.344 2161.51,-84.3645 2161.88,-77.3741"/>
</g>
<!-- Node15&#45;&gt;Node9 -->
<g id="edge25" class="edge"><title>Node15&#45;&gt;Node9</title>
<path fill="none" stroke="midnightblue" d="M2498.64,-244.81C2612.16,-235.138 2857.79,-212.735 2870,-199 2875.91,-192.357 2874.06,-186.909 2870,-179 2822.78,-86.974 2766.14,-92.8966 2666,-67 2573.54,-43.0884 2299.38,-26.7175 2166.65,-19.9672"/>
<polygon fill="midnightblue" stroke="midnightblue" points="2166.73,-16.467 2156.57,-19.4592 2166.38,-23.4582 2166.73,-16.467"/>
</g>
<!-- Node15&#45;&gt;Node10 -->
<g id="edge52" class="edge"><title>Node15&#45;&gt;Node10</title>
<path fill="none" stroke="midnightblue" d="M2385.3,-240.526C2328.94,-231.293 2240.14,-215.907 2164,-199 2129.9,-191.429 2122.23,-185.926 2088,-179 1977.11,-156.566 1944.85,-173.832 1836,-143 1814.55,-136.925 1811.16,-130.026 1790,-123 1723.7,-100.985 1700.36,-116.423 1637,-87 1606.74,-72.9495 1576.64,-48.3489 1558.67,-32.2413"/>
<polygon fill="midnightblue" stroke="midnightblue" points="1560.62,-29.2761 1550.88,-25.0997 1555.89,-34.4366 1560.62,-29.2761"/>
</g>
<!-- Node15&#45;&gt;Node11 -->
<g id="edge48" class="edge"><title>Node15&#45;&gt;Node11</title>
<path fill="none" stroke="midnightblue" d="M2385.48,-247.379C2314.47,-243.379 2189.59,-231.888 2088,-199 2069.84,-193.122 2068.17,-184.841 2050,-179 1938.94,-143.298 1900.19,-181.316 1790,-143 1773.44,-137.242 1772.72,-128.281 1756,-123 1565.52,-62.8337 1499.84,-142.65 1308,-87 1289.67,-81.6829 1288.28,-72.4727 1270,-67 1178.22,-39.5292 883.078,-22.9188 784.444,-18.0252"/>
<polygon fill="midnightblue" stroke="midnightblue" points="784.36,-14.517 774.201,-17.5243 784.018,-21.5086 784.36,-14.517"/>
</g>
<!-- Node16 -->
<g id="node16" class="node"><title>Node16</title>
<g id="a_node16"><a xlink:href="runtime_2module_8h.html" target="_top" xlink:title="Runtime container of the functions generated by TVM, This is used to support dynamically link...">
<polygon fill="white" stroke="red" points="2216,-179.5 2216,-198.5 2340,-198.5 2340,-179.5 2216,-179.5"/>
<text text-anchor="middle" x="2278" y="-186.5" font-family="Helvetica,sans-Serif" font-size="10.00">tvm/runtime/module.h</text>
</a>
</g>
</g>
<!-- Node15&#45;&gt;Node16 -->
<g id="edge26" class="edge"><title>Node15&#45;&gt;Node16</title>
<path fill="none" stroke="midnightblue" d="M2397.29,-235.399C2368.37,-225.372 2331.67,-212.028 2306.59,-202.405"/>
<polygon fill="midnightblue" stroke="midnightblue" points="2307.52,-199.014 2296.93,-198.658 2304.99,-205.539 2307.52,-199.014"/>
</g>
<!-- Node15&#45;&gt;Node17 -->
<g id="edge50" class="edge"><title>Node15&#45;&gt;Node17</title>
<path fill="none" stroke="midnightblue" d="M2498.86,-244.879C2542.33,-239.23 2602.36,-226.709 2648,-199 2667.58,-187.115 2684.06,-166.308 2694.19,-151.435"/>
<polygon fill="midnightblue" stroke="midnightblue" points="2697.37,-152.962 2699.9,-142.672 2691.51,-149.143 2697.37,-152.962"/>
</g>
<!-- Node15&#45;&gt;Node18 -->
<g id="edge47" class="edge"><title>Node15&#45;&gt;Node18</title>
<path fill="none" stroke="midnightblue" d="M2385.42,-246.677C2310.04,-241.867 2173.04,-229.448 2060,-199 2037.68,-192.989 2034.28,-185.14 2012,-179 1903.78,-149.176 1872.28,-163.957 1762,-143 1760.54,-142.723 1759.06,-142.428 1757.56,-142.119"/>
<polygon fill="midnightblue" stroke="midnightblue" points="1758.16,-138.669 1747.65,-139.946 1756.66,-145.507 1758.16,-138.669"/>
</g>
<!-- Node20 -->
<g id="node20" class="node"><title>Node20</title>
<g id="a_node20"><a xlink:href="ndarray_8h.html" target="_top" xlink:title="A device&#45;independent managed NDArray abstraction. ">
<polygon fill="white" stroke="red" points="2738.5,-179.5 2738.5,-198.5 2861.5,-198.5 2861.5,-179.5 2738.5,-179.5"/>
<text text-anchor="middle" x="2800" y="-186.5" font-family="Helvetica,sans-Serif" font-size="10.00">tvm/runtime/ndarray.h</text>
</a>
</g>
</g>
<!-- Node15&#45;&gt;Node20 -->
<g id="edge35" class="edge"><title>Node15&#45;&gt;Node20</title>
<path fill="none" stroke="midnightblue" d="M2498.73,-240.072C2564.18,-229.194 2671.4,-211.373 2738.72,-200.185"/>
<polygon fill="midnightblue" stroke="midnightblue" points="2739.47,-203.608 2748.76,-198.516 2738.32,-196.703 2739.47,-203.608"/>
</g>
<!-- Node21 -->
<g id="node21" class="node"><title>Node21</title>
<g id="a_node21"><a xlink:href="data__type_8h.html" target="_top" xlink:title="tvm/runtime/data_type.h">
<polygon fill="white" stroke="black" points="1646,-67.5 1646,-86.5 1782,-86.5 1782,-67.5 1646,-67.5"/>
<text text-anchor="middle" x="1714" y="-74.5" font-family="Helvetica,sans-Serif" font-size="10.00">tvm/runtime/data_type.h</text>
</a>
</g>
</g>
<!-- Node15&#45;&gt;Node21 -->
<g id="edge40" class="edge"><title>Node15&#45;&gt;Node21</title>
<path fill="none" stroke="midnightblue" d="M2385.02,-240.931C2336.83,-232.817 2266.35,-218.899 2207,-199 2187.02,-192.3 2184.21,-184.983 2164,-179 2054.25,-146.512 2020.42,-169.205 1909,-143 1849.69,-129.05 1782.75,-104.794 1744.74,-90.1845"/>
<polygon fill="midnightblue" stroke="midnightblue" points="1745.86,-86.8646 1735.27,-86.5133 1743.33,-93.3913 1745.86,-86.8646"/>
</g>
<!-- Node22 -->
<g id="node22" class="node"><title>Node22</title>
<polygon fill="white" stroke="#bfbfbf" points="2483.5,-179.5 2483.5,-198.5 2546.5,-198.5 2546.5,-179.5 2483.5,-179.5"/>
<text text-anchor="middle" x="2515" y="-186.5" font-family="Helvetica,sans-Serif" font-size="10.00">functional</text>
</g>
<!-- Node15&#45;&gt;Node22 -->
<g id="edge45" class="edge"><title>Node15&#45;&gt;Node22</title>
<path fill="none" stroke="midnightblue" d="M2459.3,-235.399C2470.45,-226.308 2484.95,-214.49 2496.36,-205.191"/>
<polygon fill="midnightblue" stroke="midnightblue" points="2498.84,-207.689 2504.38,-198.658 2494.42,-202.263 2498.84,-207.689"/>
</g>
<!-- Node23 -->
<g id="node23" class="node"><title>Node23</title>
<polygon fill="white" stroke="#bfbfbf" points="2564.5,-179.5 2564.5,-198.5 2605.5,-198.5 2605.5,-179.5 2564.5,-179.5"/>
<text text-anchor="middle" x="2585" y="-186.5" font-family="Helvetica,sans-Serif" font-size="10.00">tuple</text>
</g>
<!-- Node15&#45;&gt;Node23 -->
<g id="edge46" class="edge"><title>Node15&#45;&gt;Node23</title>
<path fill="none" stroke="midnightblue" d="M2475.89,-235.399C2499.88,-225.416 2531.77,-212.147 2554.88,-202.534"/>
<polygon fill="midnightblue" stroke="midnightblue" points="2556.3,-205.731 2564.19,-198.658 2553.61,-199.268 2556.3,-205.731"/>
</g>
<!-- Node15&#45;&gt;Node24 -->
<g id="edge49" class="edge"><title>Node15&#45;&gt;Node24</title>
<path fill="none" stroke="midnightblue" d="M2385.45,-247.486C2120.24,-238.043 1004.21,-198.304 802.365,-191.117"/>
<polygon fill="midnightblue" stroke="midnightblue" points="802.281,-187.612 792.163,-190.754 802.032,-194.607 802.281,-187.612"/>
</g>
<!-- Node16&#45;&gt;Node8 -->
<g id="edge28" class="edge"><title>Node16&#45;&gt;Node8</title>
<path fill="none" stroke="midnightblue" d="M2263.48,-179.368C2231.6,-160.412 2155.23,-115.001 2116.45,-91.9424"/>
<polygon fill="midnightblue" stroke="midnightblue" points="2117.83,-88.6938 2107.45,-86.5914 2114.26,-94.7106 2117.83,-88.6938"/>
</g>
<!-- Node16&#45;&gt;Node9 -->
<g id="edge27" class="edge"><title>Node16&#45;&gt;Node9</title>
<path fill="none" stroke="midnightblue" d="M2270.4,-179.348C2252.24,-158.861 2204.49,-106.168 2160,-67 2147.95,-56.3885 2133.85,-45.5514 2121.71,-36.6508"/>
<polygon fill="midnightblue" stroke="midnightblue" points="2123.42,-33.5692 2113.26,-30.5429 2119.31,-39.2404 2123.42,-33.5692"/>
</g>
<!-- Node16&#45;&gt;Node11 -->
<g id="edge32" class="edge"><title>Node16&#45;&gt;Node11</title>
<path fill="none" stroke="midnightblue" d="M2215.86,-181.289C2142.43,-173.158 2016.62,-158.598 1909,-143 1855.92,-135.307 1843.1,-130.542 1790,-123 1576.48,-92.6735 1522.52,-89.2001 1308,-67 1108.99,-46.4046 869.42,-26.189 784.091,-19.1312"/>
<polygon fill="midnightblue" stroke="midnightblue" points="784.258,-15.6332 774.004,-18.2989 783.683,-22.6095 784.258,-15.6332"/>
</g>
<!-- Node16&#45;&gt;Node13 -->
<g id="edge29" class="edge"><title>Node16&#45;&gt;Node13</title>
<path fill="none" stroke="midnightblue" d="M2231.1,-179.444C2178.92,-169.925 2094.63,-154.547 2038.77,-144.356"/>
<polygon fill="midnightblue" stroke="midnightblue" points="2039.15,-140.868 2028.68,-142.516 2037.89,-147.754 2039.15,-140.868"/>
</g>
<!-- Node16&#45;&gt;Node15 -->
<g id="edge34" class="edge"><title>Node16&#45;&gt;Node15</title>
<path fill="none" stroke="midnightblue" d="M2306.53,-198.571C2332.24,-207.216 2370.17,-220.817 2399.42,-231.79"/>
<polygon fill="midnightblue" stroke="midnightblue" points="2398.38,-235.14 2408.97,-235.399 2400.86,-228.592 2398.38,-235.14"/>
</g>
<!-- Node16&#45;&gt;Node17 -->
<g id="edge30" class="edge"><title>Node16&#45;&gt;Node17</title>
<path fill="none" stroke="midnightblue" d="M2340.34,-180.097C2343.27,-179.726 2346.16,-179.359 2349,-179 2464.33,-164.401 2600.69,-147.174 2666.13,-138.908"/>
<polygon fill="midnightblue" stroke="midnightblue" points="2666.91,-142.339 2676.39,-137.613 2666.03,-135.394 2666.91,-142.339"/>
</g>
<!-- Node16&#45;&gt;Node18 -->
<g id="edge31" class="edge"><title>Node16&#45;&gt;Node18</title>
<path fill="none" stroke="midnightblue" d="M2215.79,-181.937C2098.47,-170.501 1848.16,-146.103 1757.59,-137.274"/>
<polygon fill="midnightblue" stroke="midnightblue" points="1757.9,-133.787 1747.6,-136.301 1757.22,-140.754 1757.9,-133.787"/>
</g>
<!-- Node16&#45;&gt;Node19 -->
<g id="edge33" class="edge"><title>Node16&#45;&gt;Node19</title>
<path fill="none" stroke="midnightblue" d="M2215.81,-186.118C1938.6,-177.727 817.481,-143.791 551.023,-135.726"/>
<polygon fill="midnightblue" stroke="midnightblue" points="550.907,-132.221 540.805,-135.417 550.695,-139.218 550.907,-132.221"/>
</g>
<!-- Node20&#45;&gt;Node6 -->
<g id="edge39" class="edge"><title>Node20&#45;&gt;Node6</title>
<path fill="none" stroke="midnightblue" d="M2809.89,-179.194C2833.51,-158.373 2895.45,-105.01 2952,-67 2972.77,-53.0408 2997.66,-39.2829 3016,-29.661"/>
<polygon fill="midnightblue" stroke="midnightblue" points="3017.67,-32.7381 3024.93,-25.0273 3014.44,-26.524 3017.67,-32.7381"/>
</g>
<!-- Node20&#45;&gt;Node8 -->
<g id="edge37" class="edge"><title>Node20&#45;&gt;Node8</title>
<path fill="none" stroke="midnightblue" d="M2795.3,-179.327C2786.84,-164.703 2767.53,-135.514 2742,-123 2690.94,-97.9746 2318.63,-84.4756 2162.07,-79.8541"/>
<polygon fill="midnightblue" stroke="midnightblue" points="2161.72,-76.3426 2151.62,-79.5496 2161.52,-83.3396 2161.72,-76.3426"/>
</g>
<!-- Node20&#45;&gt;Node9 -->
<g id="edge36" class="edge"><title>Node20&#45;&gt;Node9</title>
<path fill="none" stroke="midnightblue" d="M2798.63,-179.205C2795.92,-164.936 2788.44,-136.939 2770,-123 2676.05,-51.9941 2322.61,-27.1208 2167.15,-19.4916"/>
<polygon fill="midnightblue" stroke="midnightblue" points="2166.91,-15.9761 2156.75,-18.9927 2166.57,-22.9681 2166.91,-15.9761"/>
</g>
<!-- Node20&#45;&gt;Node18 -->
<g id="edge38" class="edge"><title>Node20&#45;&gt;Node18</title>
<path fill="none" stroke="midnightblue" d="M2738.28,-184.903C2538.12,-174.857 1911.03,-143.386 1757.96,-135.704"/>
<polygon fill="midnightblue" stroke="midnightblue" points="1757.93,-132.198 1747.77,-135.193 1757.58,-139.19 1757.93,-132.198"/>
</g>
<!-- Node21&#45;&gt;Node5 -->
<g id="edge42" class="edge"><title>Node21&#45;&gt;Node5</title>
<path fill="none" stroke="midnightblue" d="M1782.08,-71.479C1953.74,-60.0795 2401.57,-30.3412 2556.4,-20.0591"/>
<polygon fill="midnightblue" stroke="midnightblue" points="2556.86,-23.5366 2566.61,-19.3816 2556.4,-16.552 2556.86,-23.5366"/>
</g>
<!-- Node21&#45;&gt;Node9 -->
<g id="edge41" class="edge"><title>Node21&#45;&gt;Node9</title>
<path fill="none" stroke="midnightblue" d="M1768.3,-67.4751C1834.18,-57.1326 1945.55,-39.649 2019.18,-28.0897"/>
<polygon fill="midnightblue" stroke="midnightblue" points="2019.97,-31.508 2029.31,-26.4993 2018.89,-24.5927 2019.97,-31.508"/>
</g>
<!-- Node21&#45;&gt;Node10 -->
<g id="edge43" class="edge"><title>Node21&#45;&gt;Node10</title>
<path fill="none" stroke="midnightblue" d="M1689.36,-67.4751C1659.72,-57.2246 1609.82,-39.9593 1576.4,-28.3994"/>
<polygon fill="midnightblue" stroke="midnightblue" points="1577.19,-24.9707 1566.6,-25.0091 1574.9,-31.5861 1577.19,-24.9707"/>
</g>
<!-- Node25&#45;&gt;Node8 -->
<g id="edge64" class="edge"><title>Node25&#45;&gt;Node8</title>
<path fill="none" stroke="midnightblue" d="M1326.07,-414.456C1347.12,-371.433 1448.63,-178.403 1600,-123 1676.09,-95.1485 1907.55,-83.9122 2024.23,-79.9249"/>
<polygon fill="midnightblue" stroke="midnightblue" points="2024.59,-83.4148 2034.47,-79.5834 2024.36,-76.4187 2024.59,-83.4148"/>
</g>
<!-- Node25&#45;&gt;Node11 -->
<g id="edge66" class="edge"><title>Node25&#45;&gt;Node11</title>
<path fill="none" stroke="midnightblue" d="M1318.31,-414.28C1298.38,-368.432 1198.71,-154.078 1042,-67 998.097,-42.6051 850.65,-25.9003 784.544,-19.458"/>
<polygon fill="midnightblue" stroke="midnightblue" points="784.58,-15.9455 774.292,-18.4779 783.913,-22.9137 784.58,-15.9455"/>
</g>
<!-- Node25&#45;&gt;Node12 -->
<g id="edge65" class="edge"><title>Node25&#45;&gt;Node12</title>
<path fill="none" stroke="midnightblue" d="M1339.03,-414.324C1356.03,-405.664 1382.38,-392.242 1401.99,-382.249"/>
<polygon fill="midnightblue" stroke="midnightblue" points="1403.69,-385.312 1411.01,-377.655 1400.51,-379.075 1403.69,-385.312"/>
</g>
<!-- Node26&#45;&gt;Node8 -->
<g id="edge68" class="edge"><title>Node26&#45;&gt;Node8</title>
<path fill="none" stroke="midnightblue" d="M1282.21,-470.397C1275.82,-457.771 1266.1,-433.598 1273,-414 1332.84,-244.135 1386.4,-186.316 1555,-123 1639.07,-91.4304 1898.69,-81.9092 2023.97,-79.1168"/>
<polygon fill="midnightblue" stroke="midnightblue" points="2024.29,-82.6109 2034.22,-78.8969 2024.14,-75.6125 2024.29,-82.6109"/>
</g>
<!-- Node26&#45;&gt;Node11 -->
<g id="edge73" class="edge"><title>Node26&#45;&gt;Node11</title>
<path fill="none" stroke="midnightblue" d="M1267.76,-470.415C1236.47,-454.986 1178,-419.41 1178,-369 1178,-369 1178,-369 1178,-311 1178,-177.806 1115.81,-139.385 1004,-67 935.113,-22.4018 835.139,-15.8198 784.302,-15.6491"/>
<polygon fill="midnightblue" stroke="midnightblue" points="784.211,-12.1494 774.228,-15.6986 784.245,-19.1493 784.211,-12.1494"/>
</g>
<!-- Node26&#45;&gt;Node12 -->
<g id="edge70" class="edge"><title>Node26&#45;&gt;Node12</title>
<path fill="none" stroke="midnightblue" d="M1307.58,-470.499C1325.39,-462.574 1351.31,-449.642 1371,-434 1388.55,-420.061 1405.01,-400.273 1415.69,-386.199"/>
<polygon fill="midnightblue" stroke="midnightblue" points="1418.7,-388.017 1421.83,-377.894 1413.07,-383.858 1418.7,-388.017"/>
</g>
<!-- Node26&#45;&gt;Node14 -->
<g id="edge71" class="edge"><title>Node26&#45;&gt;Node14</title>
<path fill="none" stroke="midnightblue" d="M1310.34,-470.357C1332.68,-461.858 1367.13,-448.135 1396,-434 1426.57,-419.03 1497.1,-369.87 1529,-358 1581.05,-338.636 1642.97,-327.129 1689.45,-320.605"/>
<polygon fill="midnightblue" stroke="midnightblue" points="1689.98,-324.064 1699.42,-319.248 1689.04,-317.128 1689.98,-324.064"/>
</g>
<!-- Node26&#45;&gt;Node21 -->
<g id="edge69" class="edge"><title>Node26&#45;&gt;Node21</title>
<path fill="none" stroke="midnightblue" d="M1272.92,-470.259C1261.65,-462.355 1246.65,-449.584 1240,-434 1216.96,-380.046 1220.64,-357.379 1240,-302 1263.07,-236.021 1279.54,-217.319 1338,-179 1390.92,-144.311 1567.56,-106.338 1658.64,-88.4395"/>
<polygon fill="midnightblue" stroke="midnightblue" points="1659.36,-91.8637 1668.51,-86.5125 1658.02,-84.9934 1659.36,-91.8637"/>
</g>
<!-- Node26&#45;&gt;Node25 -->
<g id="edge72" class="edge"><title>Node26&#45;&gt;Node25</title>
<path fill="none" stroke="midnightblue" d="M1292.78,-470.083C1297.67,-462.534 1304.83,-451.495 1310.83,-442.23"/>
<polygon fill="midnightblue" stroke="midnightblue" points="1313.83,-444.046 1316.33,-433.751 1307.95,-440.239 1313.83,-444.046"/>
</g>
<!-- Node28&#45;&gt;Node7 -->
<g id="edge79" class="edge"><title>Node28&#45;&gt;Node7</title>
<path fill="none" stroke="midnightblue" d="M1049.81,-643.819C1091.09,-623.703 1193.47,-573.807 1242.29,-550.018"/>
<polygon fill="midnightblue" stroke="midnightblue" points="1243.85,-553.152 1251.3,-545.624 1240.78,-546.859 1243.85,-553.152"/>
</g>
<!-- Node28&#45;&gt;Node19 -->
<g id="edge98" class="edge"><title>Node28&#45;&gt;Node19</title>
<path fill="none" stroke="midnightblue" d="M979.905,-646.944C875.836,-634.747 647.757,-602.146 596,-546 488.33,-429.199 489.667,-216.944 492.773,-152.832"/>
<polygon fill="midnightblue" stroke="midnightblue" points="496.279,-152.823 493.348,-142.642 489.29,-152.429 496.279,-152.823"/>
</g>
<!-- Node28&#45;&gt;Node29 -->
<g id="edge80" class="edge"><title>Node28&#45;&gt;Node29</title>
<path fill="none" stroke="midnightblue" d="M1020.97,-643.975C1008.73,-634.52 988.771,-619.096 974.007,-607.687"/>
<polygon fill="midnightblue" stroke="midnightblue" points="976.065,-604.854 966.012,-601.509 971.785,-610.393 976.065,-604.854"/>
</g>
<!-- Node29&#45;&gt;Node6 -->
<g id="edge97" class="edge"><title>Node29&#45;&gt;Node6</title>
<path fill="none" stroke="midnightblue" d="M995.148,-589.538C1079.43,-585.984 1280.74,-574.957 1447,-546 1544.7,-528.983 1567.23,-515.748 1663,-490 1874.18,-433.224 1922.51,-400.612 2137,-358 2470.29,-291.787 2577.44,-384.26 2896,-266 2970.87,-238.205 2995.29,-216.299 3027,-143 3037.38,-119.006 3040.95,-112.828 3045,-87 3046.38,-78.2184 3045.26,-75.885 3045,-67 3044.69,-56.5146 3044.01,-44.8208 3043.38,-35.3285"/>
<polygon fill="midnightblue" stroke="midnightblue" points="3046.86,-34.8014 3042.66,-25.0711 3039.87,-35.2916 3046.86,-34.8014"/>
</g>
<!-- Node29&#45;&gt;Node7 -->
<g id="edge91" class="edge"><title>Node29&#45;&gt;Node7</title>
<path fill="none" stroke="midnightblue" d="M995.087,-584.106C1052.56,-574.221 1158.27,-556.042 1220.21,-545.39"/>
<polygon fill="midnightblue" stroke="midnightblue" points="1220.87,-548.828 1230.14,-543.684 1219.69,-541.929 1220.87,-548.828"/>
</g>
<!-- Node29&#45;&gt;Node9 -->
<g id="edge89" class="edge"><title>Node29&#45;&gt;Node9</title>
<path fill="none" stroke="midnightblue" d="M972.198,-582.386C985.251,-574.794 1002.23,-562.389 1010,-546 1013.81,-537.967 1013.16,-534.309 1010,-526 1002.39,-505.99 990.371,-507.471 978,-490 961.561,-466.783 954.115,-461.544 947,-434 927.758,-359.51 918.481,-338.521 1012,-235 1147.82,-84.6518 1797.9,-33.558 2019.11,-20.3653"/>
<polygon fill="midnightblue" stroke="midnightblue" points="2019.54,-23.8462 2029.32,-19.7654 2019.13,-16.8583 2019.54,-23.8462"/>
</g>
<!-- Node29&#45;&gt;Node11 -->
<g id="edge92" class="edge"><title>Node29&#45;&gt;Node11</title>
<path fill="none" stroke="midnightblue" d="M926.549,-582.4C811.888,-545.923 383.561,-391.694 252,-87 248.476,-78.8393 246.039,-73.5936 252,-67 283.431,-32.2347 614.344,-20.2524 719.863,-17.2996"/>
<polygon fill="midnightblue" stroke="midnightblue" points="720.014,-20.7969 729.915,-17.0268 719.824,-13.7994 720.014,-20.7969"/>
</g>
<!-- Node29&#45;&gt;Node12 -->
<g id="edge81" class="edge"><title>Node29&#45;&gt;Node12</title>
<path fill="none" stroke="midnightblue" d="M995.053,-589.191C1076.82,-584.985 1259.94,-572.798 1316,-546 1376.47,-517.09 1390.21,-495.44 1417,-434 1423.37,-419.395 1426.06,-401.451 1427.2,-388.12"/>
<polygon fill="midnightblue" stroke="midnightblue" points="1430.71,-387.991 1427.84,-377.792 1423.73,-387.553 1430.71,-387.991"/>
</g>
<!-- Node29&#45;&gt;Node14 -->
<g id="edge82" class="edge"><title>Node29&#45;&gt;Node14</title>
<path fill="none" stroke="midnightblue" d="M995.124,-591.527C1067.46,-591.366 1223.77,-585.908 1348,-546 1512.19,-493.254 1683.91,-369.983 1740.05,-327.61"/>
<polygon fill="midnightblue" stroke="midnightblue" points="1742.2,-330.367 1748.04,-321.527 1737.96,-324.795 1742.2,-330.367"/>
</g>
<!-- Node29&#45;&gt;Node19 -->
<g id="edge94" class="edge"><title>Node29&#45;&gt;Node19</title>
<path fill="none" stroke="midnightblue" d="M936.884,-582.421C920.614,-574.264 896.509,-561.033 878,-546 707.272,-407.329 703.23,-332.807 546,-179 535.332,-168.564 522.684,-157.591 512.533,-149.093"/>
<polygon fill="midnightblue" stroke="midnightblue" points="514.628,-146.283 504.692,-142.603 510.164,-151.675 514.628,-146.283"/>
</g>
<!-- Node29&#45;&gt;Node21 -->
<g id="edge90" class="edge"><title>Node29&#45;&gt;Node21</title>
<path fill="none" stroke="midnightblue" d="M989.119,-582.458C1008.4,-575.796 1031.15,-564.48 1044,-546 1089.2,-481.002 1064,-448.167 1064,-369 1064,-369 1064,-369 1064,-311 1064,-145.199 1326.01,-148.501 1425,-123 1464.45,-112.837 1567.98,-97.7357 1639.76,-87.8792"/>
<polygon fill="midnightblue" stroke="midnightblue" points="1640.24,-91.3469 1649.67,-86.5242 1639.29,-84.4114 1640.24,-91.3469"/>
</g>
<!-- Node29&#45;&gt;Node24 -->
<g id="edge96" class="edge"><title>Node29&#45;&gt;Node24</title>
<path fill="none" stroke="midnightblue" d="M943.187,-582.403C922.237,-566.533 878.568,-530.529 855,-490 798.994,-393.69 778.732,-258.138 772.953,-208.849"/>
<polygon fill="midnightblue" stroke="midnightblue" points="776.411,-208.277 771.831,-198.723 769.453,-209.047 776.411,-208.277"/>
</g>
<!-- Node29&#45;&gt;Node27 -->
<g id="edge93" class="edge"><title>Node29&#45;&gt;Node27</title>
<path fill="none" stroke="midnightblue" d="M950.292,-582.368C940.478,-564.376 917.664,-522.55 904.615,-498.627"/>
<polygon fill="midnightblue" stroke="midnightblue" points="907.547,-496.694 899.686,-489.591 901.402,-500.046 907.547,-496.694"/>
</g>
<!-- Node30 -->
<g id="node30" class="node"><title>Node30</title>
<g id="a_node30"><a xlink:href="functor_8h.html" target="_top" xlink:title="Defines the Functor data structures. ">
<polygon fill="white" stroke="black" points="2358.5,-179.5 2358.5,-198.5 2465.5,-198.5 2465.5,-179.5 2358.5,-179.5"/>
<text text-anchor="middle" x="2412" y="-186.5" font-family="Helvetica,sans-Serif" font-size="10.00">tvm/node/functor.h</text>
</a>
</g>
</g>
<!-- Node29&#45;&gt;Node30 -->
<g id="edge83" class="edge"><title>Node29&#45;&gt;Node30</title>
<path fill="none" stroke="midnightblue" d="M995.034,-589.74C1072.23,-586.678 1246.71,-576.681 1390,-546 1797.02,-458.845 2264.97,-255.922 2383.56,-202.875"/>
<polygon fill="midnightblue" stroke="midnightblue" points="2385.34,-205.914 2393.03,-198.626 2382.47,-199.527 2385.34,-205.914"/>
</g>
<!-- Node31 -->
<g id="node31" class="node"><title>Node31</title>
<polygon fill="white" stroke="#bfbfbf" points="942.5,-526.5 942.5,-545.5 1001.5,-545.5 1001.5,-526.5 942.5,-526.5"/>
<text text-anchor="middle" x="972" y="-533.5" font-family="Helvetica,sans-Serif" font-size="10.00">iostream</text>
</g>
<!-- Node29&#45;&gt;Node31 -->
<g id="edge95" class="edge"><title>Node29&#45;&gt;Node31</title>
<path fill="none" stroke="midnightblue" d="M957.807,-582.083C960.085,-574.849 963.371,-564.409 966.208,-555.397"/>
<polygon fill="midnightblue" stroke="midnightblue" points="969.581,-556.341 969.245,-545.751 962.904,-554.239 969.581,-556.341"/>
</g>
<!-- Node30&#45;&gt;Node5 -->
<g id="edge84" class="edge"><title>Node30&#45;&gt;Node5</title>
<path fill="none" stroke="midnightblue" d="M2421.82,-179.495C2453.29,-152.236 2551.95,-66.7832 2592.41,-31.7316"/>
<polygon fill="midnightblue" stroke="midnightblue" points="2594.85,-34.2488 2600.12,-25.056 2590.27,-28.9576 2594.85,-34.2488"/>
</g>
<!-- Node30&#45;&gt;Node6 -->
<g id="edge88" class="edge"><title>Node30&#45;&gt;Node6</title>
<path fill="none" stroke="midnightblue" d="M2443.24,-179.495C2550.65,-150.257 2904,-54.0679 3011.01,-24.9355"/>
<polygon fill="midnightblue" stroke="midnightblue" points="3012.14,-28.257 3020.87,-22.2532 3010.3,-21.5028 3012.14,-28.257"/>
</g>
<!-- Node30&#45;&gt;Node8 -->
<g id="edge85" class="edge"><title>Node30&#45;&gt;Node8</title>
<path fill="none" stroke="midnightblue" d="M2387.23,-179.46C2330.82,-160.006 2192.63,-112.355 2127.73,-89.9768"/>
<polygon fill="midnightblue" stroke="midnightblue" points="2128.56,-86.5615 2117.97,-86.6104 2126.28,-93.1792 2128.56,-86.5615"/>
</g>
<!-- Node30&#45;&gt;Node10 -->
<g id="edge87" class="edge"><title>Node30&#45;&gt;Node10</title>
<path fill="none" stroke="midnightblue" d="M2398.76,-179.452C2362.39,-156.474 2257.2,-93.3356 2160,-67 2051.59,-37.628 1709.31,-22.5864 1586.45,-18.0284"/>
<polygon fill="midnightblue" stroke="midnightblue" points="1586.4,-14.5243 1576.28,-17.6565 1586.14,-21.5196 1586.4,-14.5243"/>
</g>
<!-- Node30&#45;&gt;Node18 -->
<g id="edge86" class="edge"><title>Node30&#45;&gt;Node18</title>
<path fill="none" stroke="midnightblue" d="M2358.42,-180.085C2355.23,-179.696 2352.08,-179.33 2349,-179 2123.77,-154.834 1851.44,-140.209 1757.64,-135.592"/>
<polygon fill="midnightblue" stroke="midnightblue" points="1757.77,-132.094 1747.61,-135.103 1757.43,-139.085 1757.77,-132.094"/>
</g>
<!-- Node32&#45;&gt;Node6 -->
<g id="edge127" class="edge"><title>Node32&#45;&gt;Node6</title>
<path fill="none" stroke="midnightblue" d="M845.174,-769.42C993.762,-767.237 1480.77,-757.873 1882,-725 2204.74,-698.557 3308,-748.826 3308,-425 3308,-425 3308,-425 3308,-132 3308,-30.7173 3143.74,-17.292 3073.38,-16.1871"/>
<polygon fill="midnightblue" stroke="midnightblue" points="3073.35,-12.6869 3063.32,-16.1042 3073.29,-19.6866 3073.35,-12.6869"/>
</g>
<!-- Node32&#45;&gt;Node10 -->
<g id="edge128" class="edge"><title>Node32&#45;&gt;Node10</title>
<path fill="none" stroke="midnightblue" d="M801.257,-761.152C803.059,-748.629 806.543,-725.027 810,-705 847.835,-485.804 835.03,-401.967 982,-235 1025.04,-186.108 1206.83,-74.0542 1225,-67 1317.57,-31.0656 1434.86,-20.689 1497.6,-17.7008"/>
<polygon fill="midnightblue" stroke="midnightblue" points="1498.09,-21.1831 1507.93,-17.2529 1497.79,-14.1896 1498.09,-21.1831"/>
</g>
<!-- Node32&#45;&gt;Node11 -->
<g id="edge125" class="edge"><title>Node32&#45;&gt;Node11</title>
<path fill="none" stroke="midnightblue" d="M754.828,-763.802C707.097,-756.685 629.902,-743.555 565,-725 481.197,-701.042 382,-741.66 382,-654.5 382,-654.5 382,-654.5 382,-591 382,-329.408 656.503,-92.2318 732.63,-31.4861"/>
<polygon fill="midnightblue" stroke="midnightblue" points="734.84,-34.2007 740.521,-25.2576 730.503,-28.7062 734.84,-34.2007"/>
</g>
<!-- Node32&#45;&gt;Node14 -->
<g id="edge104" class="edge"><title>Node32&#45;&gt;Node14</title>
<path fill="none" stroke="midnightblue" d="M845.187,-769.73C1038.52,-768.359 1787.79,-760.748 1822,-725 1917.56,-625.136 1860.05,-546.883 1822,-414 1812.53,-380.92 1788.73,-348.146 1773.24,-329.273"/>
<polygon fill="midnightblue" stroke="midnightblue" points="1775.92,-327.016 1766.8,-321.629 1770.57,-331.529 1775.92,-327.016"/>
</g>
<!-- Node32&#45;&gt;Node18 -->
<g id="edge126" class="edge"><title>Node32&#45;&gt;Node18</title>
<path fill="none" stroke="midnightblue" d="M845.156,-769.869C1033.6,-769.079 1751.82,-763.543 1845,-725 1887.88,-707.265 1922,-700.9 1922,-654.5 1922,-654.5 1922,-654.5 1922,-535 1922,-398.849 1933.23,-349.779 1860,-235 1833.62,-193.657 1783.91,-163.321 1752.45,-147.193"/>
<polygon fill="midnightblue" stroke="midnightblue" points="1753.83,-143.971 1743.32,-142.648 1750.71,-150.238 1753.83,-143.971"/>
</g>
<!-- Node32&#45;&gt;Node29 -->
<g id="edge117" class="edge"><title>Node32&#45;&gt;Node29</title>
<path fill="none" stroke="midnightblue" d="M801.895,-761.44C807.358,-738.573 825.155,-675.273 862,-638 876.682,-623.147 897.248,-612.496 915.308,-605.297"/>
<polygon fill="midnightblue" stroke="midnightblue" points="916.897,-608.439 925.03,-601.648 914.437,-601.886 916.897,-608.439"/>
</g>
<!-- Node33 -->
<g id="node33" class="node"><title>Node33</title>
<g id="a_node33"><a xlink:href="bound_8h.html" target="_top" xlink:title="Bound deducers. ">
<polygon fill="white" stroke="black" points="981,-705.5 981,-724.5 1083,-724.5 1083,-705.5 981,-705.5"/>
<text text-anchor="middle" x="1032" y="-712.5" font-family="Helvetica,sans-Serif" font-size="10.00">tvm/arith/bound.h</text>
</a>
</g>
</g>
<!-- Node32&#45;&gt;Node33 -->
<g id="edge105" class="edge"><title>Node32&#45;&gt;Node33</title>
<path fill="none" stroke="midnightblue" d="M836.761,-761.444C877.063,-752.063 941.809,-736.993 985.585,-726.804"/>
<polygon fill="midnightblue" stroke="midnightblue" points="986.465,-730.192 995.411,-724.516 984.878,-723.375 986.465,-730.192"/>
</g>
<!-- Node32&#45;&gt;Node35 -->
<g id="edge118" class="edge"><title>Node32&#45;&gt;Node35</title>
<path fill="none" stroke="midnightblue" d="M769.894,-761.444C737.374,-752.201 685.421,-737.436 649.609,-727.257"/>
<polygon fill="midnightblue" stroke="midnightblue" points="650.541,-723.884 639.965,-724.516 648.627,-730.617 650.541,-723.884"/>
</g>
<!-- Node33&#45;&gt;Node7 -->
<g id="edge107" class="edge"><title>Node33&#45;&gt;Node7</title>
<path fill="none" stroke="midnightblue" d="M1083.28,-709.925C1117.65,-704.919 1162.24,-693.778 1194,-669 1232.16,-639.229 1254.16,-584.253 1263.56,-555.547"/>
<polygon fill="midnightblue" stroke="midnightblue" points="1267.01,-556.213 1266.64,-545.625 1260.33,-554.137 1267.01,-556.213"/>
</g>
<!-- Node33&#45;&gt;Node14 -->
<g id="edge106" class="edge"><title>Node33&#45;&gt;Node14</title>
<path fill="none" stroke="midnightblue" d="M1083.02,-708.812C1205.02,-695.63 1509.74,-657.885 1594,-602 1694.93,-535.058 1741.2,-383.977 1754.65,-331.429"/>
<polygon fill="midnightblue" stroke="midnightblue" points="1758.1,-332.073 1757.09,-321.526 1751.3,-330.398 1758.1,-332.073"/>
</g>
<!-- Node33&#45;&gt;Node19 -->
<g id="edge116" class="edge"><title>Node33&#45;&gt;Node19</title>
<path fill="none" stroke="midnightblue" d="M992.115,-705.419C950.237,-696.398 882.475,-681.769 824,-669 589.421,-617.775 342,-665.107 342,-425 342,-425 342,-425 342,-311 342,-246.184 355.234,-221.696 404,-179 420.08,-164.921 441.346,-154.022 459.169,-146.478"/>
<polygon fill="midnightblue" stroke="midnightblue" points="460.707,-149.631 468.661,-142.633 458.079,-143.143 460.707,-149.631"/>
</g>
<!-- Node33&#45;&gt;Node28 -->
<g id="edge108" class="edge"><title>Node33&#45;&gt;Node28</title>
<path fill="none" stroke="midnightblue" d="M1032,-705.475C1032,-697.08 1032,-683.981 1032,-673.163"/>
<polygon fill="midnightblue" stroke="midnightblue" points="1035.5,-673.009 1032,-663.009 1028.5,-673.009 1035.5,-673.009"/>
</g>
<!-- Node33&#45;&gt;Node29 -->
<g id="edge109" class="edge"><title>Node33&#45;&gt;Node29</title>
<path fill="none" stroke="midnightblue" d="M1014.21,-705.478C1000.27,-697.864 981.533,-685.383 971,-669 959.969,-651.842 956.388,-628.422 955.304,-612.134"/>
<polygon fill="midnightblue" stroke="midnightblue" points="958.785,-611.576 954.885,-601.725 951.79,-611.857 958.785,-611.576"/>
</g>
<!-- Node34 -->
<g id="node34" class="node"><title>Node34</title>
<g id="a_node34"><a xlink:href="stmt_8h.html" target="_top" xlink:title="TIR statements. ">
<polygon fill="white" stroke="black" points="1102.5,-644 1102.5,-663 1185.5,-663 1185.5,-644 1102.5,-644"/>
<text text-anchor="middle" x="1144" y="-651" font-family="Helvetica,sans-Serif" font-size="10.00">tvm/tir/stmt.h</text>
</a>
</g>
</g>
<!-- Node33&#45;&gt;Node34 -->
<g id="edge110" class="edge"><title>Node33&#45;&gt;Node34</title>
<path fill="none" stroke="midnightblue" d="M1048.05,-705.475C1066.59,-695.622 1097.34,-679.288 1119.02,-667.77"/>
<polygon fill="midnightblue" stroke="midnightblue" points="1120.79,-670.792 1127.98,-663.009 1117.51,-664.61 1120.79,-670.792"/>
</g>
<!-- Node34&#45;&gt;Node6 -->
<g id="edge115" class="edge"><title>Node34&#45;&gt;Node6</title>
<path fill="none" stroke="midnightblue" d="M1185.56,-644.787C1473.16,-591.351 3156,-277.559 3156,-251.5 3156,-251.5 3156,-251.5 3156,-132 3156,-83.1978 3103.81,-47.5591 3070.05,-29.6129"/>
<polygon fill="midnightblue" stroke="midnightblue" points="3071.58,-26.4611 3061.08,-25.024 3068.39,-32.6934 3071.58,-26.4611"/>
</g>
<!-- Node34&#45;&gt;Node10 -->
<g id="edge112" class="edge"><title>Node34&#45;&gt;Node10</title>
<path fill="none" stroke="midnightblue" d="M1137.32,-643.762C1112.36,-610.222 1026,-485.753 1026,-369 1026,-369 1026,-369 1026,-311 1026,-94.5455 1372.73,-35.0681 1497.74,-20.6583"/>
<polygon fill="midnightblue" stroke="midnightblue" points="1498.19,-24.1297 1507.74,-19.5474 1497.42,-17.1725 1498.19,-24.1297"/>
</g>
<!-- Node34&#45;&gt;Node11 -->
<g id="edge113" class="edge"><title>Node34&#45;&gt;Node11</title>
<path fill="none" stroke="midnightblue" d="M1115.52,-643.932C1108.21,-641.863 1100.34,-639.747 1093,-638 1010.66,-618.408 980.587,-642.004 906,-602 782.846,-535.947 684,-328.674 684,-251.5 684,-251.5 684,-251.5 684,-132 684,-91.737 715.065,-53.1361 735.202,-32.3445"/>
<polygon fill="midnightblue" stroke="midnightblue" points="737.921,-34.5765 742.545,-25.0439 732.986,-29.6125 737.921,-34.5765"/>
</g>
<!-- Node34&#45;&gt;Node18 -->
<g id="edge114" class="edge"><title>Node34&#45;&gt;Node18</title>
<path fill="none" stroke="midnightblue" d="M1164.4,-643.995C1202.29,-627.741 1285.37,-589.95 1348,-546 1520.3,-425.084 1671.09,-212.465 1712.67,-151.052"/>
<polygon fill="midnightblue" stroke="midnightblue" points="1715.72,-152.784 1718.39,-142.531 1709.91,-148.881 1715.72,-152.784"/>
</g>
<!-- Node34&#45;&gt;Node29 -->
<g id="edge111" class="edge"><title>Node34&#45;&gt;Node29</title>
<path fill="none" stroke="midnightblue" d="M1116.92,-643.975C1084.08,-633.636 1028.57,-616.161 991.852,-604.602"/>
<polygon fill="midnightblue" stroke="midnightblue" points="992.618,-601.174 982.029,-601.509 990.516,-607.85 992.618,-601.174"/>
</g>
<!-- Node35&#45;&gt;Node10 -->
<g id="edge123" class="edge"><title>Node35&#45;&gt;Node10</title>
<path fill="none" stroke="midnightblue" d="M603.895,-705.191C598.245,-696.46 590.245,-682.478 587,-669 583.775,-655.605 584.696,-651.584 587,-638 617.429,-458.607 722,-433.455 722,-251.5 722,-251.5 722,-251.5 722,-132 722,-52.9659 1327.02,-24.4884 1497.67,-18.0279"/>
<polygon fill="midnightblue" stroke="midnightblue" points="1497.95,-21.5202 1507.81,-17.6508 1497.69,-14.525 1497.95,-21.5202"/>
</g>
<!-- Node35&#45;&gt;Node24 -->
<g id="edge124" class="edge"><title>Node35&#45;&gt;Node24</title>
<path fill="none" stroke="midnightblue" d="M573.785,-710.143C545.177,-705.236 506.173,-694.12 482,-669 436.402,-621.615 433.815,-590.968 444,-526 467.847,-373.882 504.05,-320.659 632,-235 665.039,-212.881 709.732,-200.978 739.42,-195.073"/>
<polygon fill="midnightblue" stroke="midnightblue" points="740.445,-198.442 749.629,-193.161 739.156,-191.562 740.445,-198.442"/>
</g>
<!-- Node35&#45;&gt;Node26 -->
<g id="edge119" class="edge"><title>Node35&#45;&gt;Node26</title>
<path fill="none" stroke="midnightblue" d="M613.27,-705.242C619.498,-689.669 634.479,-657.016 657,-638 758.147,-552.594 804.931,-559.517 933,-526 1039.75,-498.063 1169.31,-487.218 1238.27,-483.204"/>
<polygon fill="midnightblue" stroke="midnightblue" points="1238.61,-486.69 1248.4,-482.638 1238.22,-479.701 1238.61,-486.69"/>
</g>
<!-- Node35&#45;&gt;Node27 -->
<g id="edge122" class="edge"><title>Node35&#45;&gt;Node27</title>
<path fill="none" stroke="midnightblue" d="M604.8,-705.331C596.619,-690.455 582.953,-659.587 596,-638 652.683,-544.215 785.978,-503.687 853.802,-488.641"/>
<polygon fill="midnightblue" stroke="midnightblue" points="854.663,-492.036 863.71,-486.522 853.199,-485.191 854.663,-492.036"/>
</g>
<!-- Node35&#45;&gt;Node29 -->
<g id="edge120" class="edge"><title>Node35&#45;&gt;Node29</title>
<path fill="none" stroke="midnightblue" d="M618.444,-705.296C634.6,-689.205 671.699,-654.91 710,-638 773.476,-609.976 853.623,-599.403 904.611,-595.415"/>
<polygon fill="midnightblue" stroke="midnightblue" points="904.999,-598.896 914.719,-594.681 904.492,-591.914 904.999,-598.896"/>
</g>
<!-- Node35&#45;&gt;Node34 -->
<g id="edge121" class="edge"><title>Node35&#45;&gt;Node34</title>
<path fill="none" stroke="midnightblue" d="M646.063,-712.907C726.775,-709.967 927.852,-699.898 1093,-669 1097.78,-668.105 1102.76,-666.962 1107.66,-665.711"/>
<polygon fill="midnightblue" stroke="midnightblue" points="1108.76,-669.039 1117.49,-663.038 1106.92,-662.285 1108.76,-669.039"/>
</g>
<!-- Node36&#45;&gt;Node4 -->
<g id="edge140" class="edge"><title>Node36&#45;&gt;Node4</title>
<path fill="none" stroke="midnightblue" d="M931.825,-878.448C1122.09,-864.566 1799.14,-807.748 2339,-669 2421.27,-647.855 2452.41,-655.983 2518,-602 2533.15,-589.532 2544.15,-569.743 2550.74,-555.272"/>
<polygon fill="midnightblue" stroke="midnightblue" points="2554.05,-556.428 2554.75,-545.856 2547.61,-553.683 2554.05,-556.428"/>
</g>
<!-- Node36&#45;&gt;Node11 -->
<g id="edge141" class="edge"><title>Node36&#45;&gt;Node11</title>
<path fill="none" stroke="midnightblue" d="M828.228,-881.275C661.91,-877.566 152,-854.869 152,-716 152,-716 152,-716 152,-132 152,-93.8683 174.109,-84.4765 208,-67 298.071,-20.553 616.808,-16.4602 719.711,-16.3761"/>
<polygon fill="midnightblue" stroke="midnightblue" points="719.804,-19.8761 729.805,-16.3806 719.807,-12.8761 719.804,-19.8761"/>
</g>
<!-- Node36&#45;&gt;Node19 -->
<g id="edge142" class="edge"><title>Node36&#45;&gt;Node19</title>
<path fill="none" stroke="midnightblue" d="M828.292,-876.606C692.258,-861.294 329.662,-812.885 254,-725 198.966,-661.076 228,-621.351 228,-537 228,-537 228,-537 228,-479 228,-329.529 263.333,-272.436 380,-179 399.515,-163.371 425.133,-152.608 447.14,-145.538"/>
<polygon fill="midnightblue" stroke="midnightblue" points="448.416,-148.808 456.962,-142.545 446.376,-142.112 448.416,-148.808"/>
</g>
<!-- Node36&#45;&gt;Node29 -->
<g id="edge130" class="edge"><title>Node36&#45;&gt;Node29</title>
<path fill="none" stroke="midnightblue" d="M879.477,-873.446C878.393,-854.948 876,-809.837 876,-772 876,-772 876,-772 876,-714 876,-670.014 913.055,-629.522 936.409,-608.37"/>
<polygon fill="midnightblue" stroke="midnightblue" points="938.79,-610.938 944.015,-601.721 934.183,-605.668 938.79,-610.938"/>
</g>
<!-- Node36&#45;&gt;Node32 -->
<g id="edge131" class="edge"><title>Node36&#45;&gt;Node32</title>
<path fill="none" stroke="midnightblue" d="M873.723,-873.368C860.52,-855.215 829.674,-812.802 812.356,-788.99"/>
<polygon fill="midnightblue" stroke="midnightblue" points="814.961,-786.62 806.248,-780.591 809.299,-790.737 814.961,-786.62"/>
</g>
<!-- Node37 -->
<g id="node37" class="node"><title>Node37</title>
<g id="a_node37"><a xlink:href="tensor__intrin_8h.html" target="_top" xlink:title="Tensor intrinsic operations. ">
<polygon fill="white" stroke="black" points="652,-817.5 652,-836.5 772,-836.5 772,-817.5 652,-817.5"/>
<text text-anchor="middle" x="712" y="-824.5" font-family="Helvetica,sans-Serif" font-size="10.00">tvm/te/tensor_intrin.h</text>
</a>
</g>
</g>
<!-- Node36&#45;&gt;Node37 -->
<g id="edge132" class="edge"><title>Node36&#45;&gt;Node37</title>
<path fill="none" stroke="midnightblue" d="M853.38,-873.444C824.994,-864.32 779.863,-849.813 748.247,-839.651"/>
<polygon fill="midnightblue" stroke="midnightblue" points="749.087,-836.244 738.496,-836.516 746.945,-842.909 749.087,-836.244"/>
</g>
<!-- Node37&#45;&gt;Node11 -->
<g id="edge139" class="edge"><title>Node37&#45;&gt;Node11</title>
<path fill="none" stroke="midnightblue" d="M651.915,-819.608C584.916,-809.696 476.583,-785.028 405,-725 332.322,-664.054 304,-631.85 304,-537 304,-537 304,-537 304,-311 304,-111.879 616.851,-39.8954 719.679,-21.6136"/>
<polygon fill="midnightblue" stroke="midnightblue" points="720.524,-25.0197 729.784,-19.8712 719.334,-18.1215 720.524,-25.0197"/>
</g>
<!-- Node37&#45;&gt;Node32 -->
<g id="edge133" class="edge"><title>Node37&#45;&gt;Node32</title>
<path fill="none" stroke="midnightblue" d="M726.139,-817.324C739.866,-808.9 760.936,-795.971 777.064,-786.074"/>
<polygon fill="midnightblue" stroke="midnightblue" points="779.204,-788.868 785.896,-780.655 775.543,-782.902 779.204,-788.868"/>
</g>
<!-- Node37&#45;&gt;Node38 -->
<g id="edge134" class="edge"><title>Node37&#45;&gt;Node38</title>
<path fill="none" stroke="midnightblue" d="M703.083,-817.083C695.22,-809.22 683.569,-797.569 674.081,-788.081"/>
<polygon fill="midnightblue" stroke="midnightblue" points="676.297,-785.347 666.751,-780.751 671.347,-790.297 676.297,-785.347"/>
</g>
<!-- Node38&#45;&gt;Node11 -->
<g id="edge138" class="edge"><title>Node38&#45;&gt;Node11</title>
<path fill="none" stroke="midnightblue" d="M614.414,-766.155C551.578,-759.963 439.313,-746.278 405,-725 316.688,-670.236 266,-640.914 266,-537 266,-537 266,-537 266,-479 266,-372.396 190,-358.104 190,-251.5 190,-251.5 190,-251.5 190,-132 190,-94.1569 211.502,-84.6062 245,-67 328.018,-23.3666 621.367,-17.3693 719.643,-16.5961"/>
<polygon fill="midnightblue" stroke="midnightblue" points="719.874,-20.0948 729.851,-16.5295 719.829,-13.0949 719.874,-20.0948"/>
</g>
<!-- Node38&#45;&gt;Node14 -->
<g id="edge135" class="edge"><title>Node38&#45;&gt;Node14</title>
<path fill="none" stroke="midnightblue" d="M701.817,-764.936C715.907,-763.463 731.598,-761.988 746,-761 803.012,-757.091 1726.14,-756.232 1774,-725 1803.13,-705.988 1808,-689.287 1808,-654.5 1808,-654.5 1808,-654.5 1808,-479 1808,-423.091 1782.12,-360.763 1767.97,-330.88"/>
<polygon fill="midnightblue" stroke="midnightblue" points="1771.04,-329.19 1763.52,-321.727 1764.75,-332.251 1771.04,-329.19"/>
</g>
<!-- Node38&#45;&gt;Node29 -->
<g id="edge136" class="edge"><title>Node38&#45;&gt;Node29</title>
<path fill="none" stroke="midnightblue" d="M667.758,-761.208C693.57,-738.31 766.441,-675.983 836,-638 861.444,-624.106 892.078,-612.631 915.892,-604.745"/>
<polygon fill="midnightblue" stroke="midnightblue" points="917.208,-607.998 925.645,-601.589 915.053,-601.338 917.208,-607.998"/>
</g>
<!-- Node38&#45;&gt;Node35 -->
<g id="edge137" class="edge"><title>Node38&#45;&gt;Node35</title>
<path fill="none" stroke="midnightblue" d="M650.074,-761.083C643.154,-753.298 632.935,-741.801 624.548,-732.367"/>
<polygon fill="midnightblue" stroke="midnightblue" points="627.038,-729.9 617.779,-724.751 621.806,-734.55 627.038,-729.9"/>
</g>
<!-- Node39&#45;&gt;Node36 -->
<g id="edge150" class="edge"><title>Node39&#45;&gt;Node36</title>
<path fill="none" stroke="midnightblue" d="M1933.45,-985.455C1856.02,-971.548 1695.73,-944.057 1559,-929 1332.22,-904.026 1061.18,-891.123 941.723,-886.291"/>
<polygon fill="midnightblue" stroke="midnightblue" points="941.8,-882.791 931.668,-885.889 941.52,-889.786 941.8,-882.791"/>
</g>
<!-- Node40&#45;&gt;Node4 -->
<g id="edge152" class="edge"><title>Node40&#45;&gt;Node4</title>
<path fill="none" stroke="midnightblue" d="M2230.08,-649.026C2287.47,-643.881 2380.83,-631.434 2456,-602 2487.71,-589.584 2520.17,-566.816 2539.71,-551.793"/>
<polygon fill="midnightblue" stroke="midnightblue" points="2542.03,-554.427 2547.73,-545.5 2537.71,-548.92 2542.03,-554.427"/>
</g>
<!-- Node40&#45;&gt;Node6 -->
<g id="edge164" class="edge"><title>Node40&#45;&gt;Node6</title>
<path fill="none" stroke="midnightblue" d="M2230.18,-644.014C2292.47,-634.053 2398.75,-616.988 2490,-602 2564.48,-589.767 3089.09,-515.858 3160,-490 3213.35,-470.546 3270,-481.786 3270,-425 3270,-425 3270,-425 3270,-132 3270,-44.7524 3135.5,-23.3922 3073.11,-18.1773"/>
<polygon fill="midnightblue" stroke="midnightblue" points="3073.27,-14.6803 3063.04,-17.4247 3072.75,-21.6608 3073.27,-14.6803"/>
</g>
<!-- Node40&#45;&gt;Node11 -->
<g id="edge163" class="edge"><title>Node40&#45;&gt;Node11</title>
<path fill="none" stroke="midnightblue" d="M2123.88,-649.997C1978.2,-642.4 1560.65,-615.714 1221,-546 1136.85,-528.728 1114.17,-525.638 1036,-490 993.477,-470.612 977.923,-469.041 947,-434 833.133,-304.972 772.943,-97.9996 756.62,-35.1753"/>
<polygon fill="midnightblue" stroke="midnightblue" points="759.934,-34.004 754.08,-25.1734 753.149,-35.7273 759.934,-34.004"/>
</g>
<!-- Node40&#45;&gt;Node15 -->
<g id="edge153" class="edge"><title>Node40&#45;&gt;Node15</title>
<path fill="none" stroke="midnightblue" d="M2219.87,-638.479C2294.87,-613.326 2442,-560.933 2442,-537 2442,-537 2442,-537 2442,-367 2442,-335.495 2442,-299.155 2442,-275.783"/>
<polygon fill="midnightblue" stroke="midnightblue" points="2445.5,-275.725 2442,-265.725 2438.5,-275.725 2445.5,-275.725"/>
</g>
<!-- Node40&#45;&gt;Node18 -->
<g id="edge162" class="edge"><title>Node40&#45;&gt;Node18</title>
<path fill="none" stroke="midnightblue" d="M2173.34,-638.16C2158.11,-580.883 2094.82,-365.329 1974,-235 1903.66,-159.122 1857.69,-171.268 1757.65,-144.489"/>
<polygon fill="midnightblue" stroke="midnightblue" points="1758.37,-141.057 1747.8,-141.772 1756.5,-147.805 1758.37,-141.057"/>
</g>
<!-- Node40&#45;&gt;Node19 -->
<g id="edge165" class="edge"><title>Node40&#45;&gt;Node19</title>
<path fill="none" stroke="midnightblue" d="M2123.66,-652.425C1897.06,-651.829 1020.52,-646.636 906,-602 682.039,-514.705 536.623,-226.731 501.997,-151.898"/>
<polygon fill="midnightblue" stroke="midnightblue" points="505.181,-150.445 497.85,-142.796 498.811,-153.348 505.181,-150.445"/>
</g>
<!-- Node41 -->
<g id="node41" class="node"><title>Node41</title>
<g id="a_node41"><a xlink:href="target_8h.html" target="_top" xlink:title="Compilation target object. ">
<polygon fill="white" stroke="black" points="2178.5,-582.5 2178.5,-601.5 2287.5,-601.5 2287.5,-582.5 2178.5,-582.5"/>
<text text-anchor="middle" x="2233" y="-589.5" font-family="Helvetica,sans-Serif" font-size="10.00">tvm/target/target.h</text>
</a>
</g>
</g>
<!-- Node40&#45;&gt;Node41 -->
<g id="edge154" class="edge"><title>Node40&#45;&gt;Node41</title>
<path fill="none" stroke="midnightblue" d="M2190.27,-638.399C2198.58,-629.575 2209.3,-618.183 2217.92,-609.018"/>
<polygon fill="midnightblue" stroke="midnightblue" points="2220.55,-611.339 2224.85,-601.658 2215.45,-606.541 2220.55,-611.339"/>
</g>
<!-- Node41&#45;&gt;Node4 -->
<g id="edge155" class="edge"><title>Node41&#45;&gt;Node4</title>
<path fill="none" stroke="midnightblue" d="M2284.5,-582.444C2342.14,-572.865 2435.49,-557.356 2496.81,-547.167"/>
<polygon fill="midnightblue" stroke="midnightblue" points="2497.45,-550.608 2506.74,-545.516 2496.31,-543.703 2497.45,-550.608"/>
</g>
<!-- Node41&#45;&gt;Node6 -->
<g id="edge161" class="edge"><title>Node41&#45;&gt;Node6</title>
<path fill="none" stroke="midnightblue" d="M2258.28,-582.446C2296.27,-569.674 2370.42,-545.082 2434,-526 2777.98,-422.762 3194,-610.635 3194,-251.5 3194,-251.5 3194,-251.5 3194,-132 3194,-101.205 3191.53,-89.0146 3170,-67 3143.82,-40.2308 3101.71,-27.3101 3072.99,-21.3151"/>
<polygon fill="midnightblue" stroke="midnightblue" points="3073.56,-17.8592 3063.07,-19.407 3072.23,-24.7332 3073.56,-17.8592"/>
</g>
<!-- Node41&#45;&gt;Node7 -->
<g id="edge157" class="edge"><title>Node41&#45;&gt;Node7</title>
<path fill="none" stroke="midnightblue" d="M2178.41,-587.942C2007.02,-578.341 1481.37,-548.896 1317.98,-539.744"/>
<polygon fill="midnightblue" stroke="midnightblue" points="1317.93,-536.236 1307.75,-539.171 1317.54,-543.225 1317.93,-536.236"/>
</g>
<!-- Node41&#45;&gt;Node11 -->
<g id="edge158" class="edge"><title>Node41&#45;&gt;Node11</title>
<path fill="none" stroke="midnightblue" d="M2178.43,-590.561C1995.43,-588.307 1405.59,-574.5 1239,-490 1013.35,-375.541 1060.78,-218.323 858,-67 835.191,-49.9786 805.732,-36.5028 783.662,-27.768"/>
<polygon fill="midnightblue" stroke="midnightblue" points="784.682,-24.4105 774.092,-24.0926 782.172,-30.9452 784.682,-24.4105"/>
</g>
<!-- Node41&#45;&gt;Node14 -->
<g id="edge156" class="edge"><title>Node41&#45;&gt;Node14</title>
<path fill="none" stroke="midnightblue" d="M2218.29,-582.375C2150.29,-542.488 1866.02,-375.766 1782.3,-326.663"/>
<polygon fill="midnightblue" stroke="midnightblue" points="1783.93,-323.564 1773.53,-321.524 1780.39,-329.602 1783.93,-323.564"/>
</g>
<!-- Node41&#45;&gt;Node18 -->
<g id="edge159" class="edge"><title>Node41&#45;&gt;Node18</title>
<path fill="none" stroke="midnightblue" d="M2226.88,-582.349C2214.79,-564.377 2189,-521.314 2189,-481 2189,-481 2189,-481 2189,-423 2189,-278.463 2100.52,-248.881 1974,-179 1889.41,-132.278 1851.72,-164.082 1757.66,-144.148"/>
<polygon fill="midnightblue" stroke="midnightblue" points="1758.29,-140.702 1747.76,-141.905 1756.74,-147.529 1758.29,-140.702"/>
</g>
<!-- Node42 -->
<g id="node42" class="node"><title>Node42</title>
<polygon fill="white" stroke="#bfbfbf" points="2217,-526.5 2217,-545.5 2303,-545.5 2303,-526.5 2217,-526.5"/>
<text text-anchor="middle" x="2260" y="-533.5" font-family="Helvetica,sans-Serif" font-size="10.00">unordered_set</text>
</g>
<!-- Node41&#45;&gt;Node42 -->
<g id="edge160" class="edge"><title>Node41&#45;&gt;Node42</title>
<path fill="none" stroke="midnightblue" d="M2237.46,-582.083C2241.15,-574.691 2246.52,-563.953 2251.09,-554.811"/>
<polygon fill="midnightblue" stroke="midnightblue" points="2254.28,-556.261 2255.62,-545.751 2248.02,-553.13 2254.28,-556.261"/>
</g>
<!-- Node43&#45;&gt;Node11 -->
<g id="edge167" class="edge"><title>Node43&#45;&gt;Node11</title>
<path fill="none" stroke="midnightblue" d="M1400.88,-993.951C1194.32,-993.523 117.941,-989.355 62,-949 37.0249,-930.984 38,-914.795 38,-884 38,-884 38,-884 38,-132 38,-101.205 37.3929,-85.5159 62,-67 115.035,-27.0928 590.881,-18.4515 719.871,-16.8355"/>
<polygon fill="midnightblue" stroke="midnightblue" points="719.953,-20.3348 729.91,-16.7153 719.869,-13.3353 719.953,-20.3348"/>
</g>
<!-- Node44&#45;&gt;Node2 -->
<g id="edge169" class="edge"><title>Node44&#45;&gt;Node2</title>
<path fill="none" stroke="midnightblue" d="M2113.39,-1097.31C2116.43,-1074.78 2121.01,-1014.27 2088,-985 2049.19,-950.579 1704.79,-942.464 1560.33,-940.569"/>
<polygon fill="midnightblue" stroke="midnightblue" points="1560.33,-937.069 1550.29,-940.443 1560.24,-944.068 1560.33,-937.069"/>
</g>
<!-- Node45&#45;&gt;Node2 -->
<g id="edge171" class="edge"><title>Node45&#45;&gt;Node2</title>
<path fill="none" stroke="midnightblue" d="M1374.11,-1041.32C1374.73,-1027.71 1377.83,-1001.23 1392,-985 1406.01,-968.964 1426.73,-958.464 1446.08,-951.677"/>
<polygon fill="midnightblue" stroke="midnightblue" points="1447.3,-954.962 1455.73,-948.546 1445.14,-948.304 1447.3,-954.962"/>
</g>
<!-- Node45&#45;&gt;Node11 -->
<g id="edge173" class="edge"><title>Node45&#45;&gt;Node11</title>
<path fill="none" stroke="midnightblue" d="M1328.28,-1048.79C1089.87,-1042.17 0,-1008.2 0,-940 0,-940 0,-940 0,-132 0,-97.8442 11.6952,-84.5456 41,-67 99.7347,-31.8339 588.148,-19.7305 719.553,-17.0942"/>
<polygon fill="midnightblue" stroke="midnightblue" points="719.842,-20.5893 729.771,-16.894 719.704,-13.5907 719.842,-20.5893"/>
</g>
<!-- Node45&#45;&gt;Node43 -->
<g id="edge172" class="edge"><title>Node45&#45;&gt;Node43</title>
<path fill="none" stroke="midnightblue" d="M1383.8,-1041.32C1392.82,-1033.34 1406.41,-1021.31 1417.32,-1011.65"/>
<polygon fill="midnightblue" stroke="midnightblue" points="1419.85,-1014.08 1425.02,-1004.83 1415.21,-1008.84 1419.85,-1014.08"/>
</g>
<!-- Node46&#45;&gt;Node2 -->
<g id="edge175" class="edge"><title>Node46&#45;&gt;Node2</title>
<path fill="none" stroke="midnightblue" d="M1560.97,-1041.39C1546.77,-1033.73 1527.52,-1021.22 1516,-1005 1506.32,-991.37 1501.53,-972.829 1499.19,-959.037"/>
<polygon fill="midnightblue" stroke="midnightblue" points="1502.6,-958.193 1497.74,-948.78 1495.67,-959.172 1502.6,-958.193"/>
</g>
<!-- Node47 -->
<g id="node47" class="node"><title>Node47</title>
<g id="a_node47"><a xlink:href="detail_2extern_8h.html" target="_top" xlink:title="Helpers for using external functions. ">
<polygon fill="white" stroke="black" points="1525.5,-985.5 1525.5,-1004.5 1632.5,-1004.5 1632.5,-985.5 1525.5,-985.5"/>
<text text-anchor="middle" x="1579" y="-992.5" font-family="Helvetica,sans-Serif" font-size="10.00">topi/detail/extern.h</text>
</a>
</g>
</g>
<!-- Node46&#45;&gt;Node47 -->
<g id="edge176" class="edge"><title>Node46&#45;&gt;Node47</title>
<path fill="none" stroke="midnightblue" d="M1579,-1041.08C1579,-1034.01 1579,-1023.86 1579,-1014.99"/>
<polygon fill="midnightblue" stroke="midnightblue" points="1582.5,-1014.75 1579,-1004.75 1575.5,-1014.75 1582.5,-1014.75"/>
</g>
<!-- Node47&#45;&gt;Node2 -->
<g id="edge177" class="edge"><title>Node47&#45;&gt;Node2</title>
<path fill="none" stroke="midnightblue" d="M1565.83,-985.324C1553.15,-976.979 1533.77,-964.212 1518.79,-954.352"/>
<polygon fill="midnightblue" stroke="midnightblue" points="1520.42,-951.231 1510.14,-948.655 1516.57,-957.078 1520.42,-951.231"/>
</g>
<!-- Node47&#45;&gt;Node11 -->
<g id="edge179" class="edge"><title>Node47&#45;&gt;Node11</title>
<path fill="none" stroke="midnightblue" d="M1525.29,-989.01C1510.01,-987.646 1493.36,-986.212 1478,-985 1400.15,-978.858 76,-962.091 76,-884 76,-884 76,-884 76,-132 76,-93.8683 98.0109,-84.2848 132,-67 236.212,-14.0039 607.643,-14.5287 719.74,-15.9513"/>
<polygon fill="midnightblue" stroke="midnightblue" points="719.713,-19.4512 729.761,-16.09 719.81,-12.4518 719.713,-19.4512"/>
</g>
<!-- Node47&#45;&gt;Node18 -->
<g id="edge178" class="edge"><title>Node47&#45;&gt;Node18</title>
<path fill="none" stroke="midnightblue" d="M1625.72,-985.454C1727.46,-966.199 1960,-918.424 1960,-884 1960,-884 1960,-884 1960,-479 1960,-400.311 1790.64,-207.356 1738.86,-150.204"/>
<polygon fill="midnightblue" stroke="midnightblue" points="1741.17,-147.548 1731.85,-142.51 1736,-152.26 1741.17,-147.548"/>
</g>
<!-- Node48&#45;&gt;Node2 -->
<g id="edge181" class="edge"><title>Node48&#45;&gt;Node2</title>
<path fill="none" stroke="midnightblue" d="M1853.97,-1097.41C1852.09,-1084.39 1847.22,-1059.22 1836,-1041 1816.87,-1009.94 1808.76,-1001.04 1776,-985 1773.57,-983.81 1641.94,-962.881 1560.37,-949.99"/>
<polygon fill="midnightblue" stroke="midnightblue" points="1560.62,-946.485 1550.19,-948.382 1559.52,-953.4 1560.62,-946.485"/>
</g>
<!-- Node48&#45;&gt;Node39 -->
<g id="edge182" class="edge"><title>Node48&#45;&gt;Node39</title>
<path fill="none" stroke="midnightblue" d="M1864.81,-1097.37C1885.89,-1078.81 1935.78,-1034.91 1962.46,-1011.44"/>
<polygon fill="midnightblue" stroke="midnightblue" points="1965.04,-1013.83 1970.24,-1004.59 1960.42,-1008.57 1965.04,-1013.83"/>
</g>
<!-- Node48&#45;&gt;Node40 -->
<g id="edge183" class="edge"><title>Node48&#45;&gt;Node40</title>
<path fill="none" stroke="midnightblue" d="M1913.28,-1099.44C1999.25,-1086.16 2150,-1047.54 2150,-940 2150,-940 2150,-940 2150,-770 2150,-737.678 2160.15,-701.571 2168,-678.472"/>
<polygon fill="midnightblue" stroke="midnightblue" points="2171.38,-679.429 2171.41,-668.834 2164.78,-677.099 2171.38,-679.429"/>
</g>
<!-- Node48&#45;&gt;Node43 -->
<g id="edge184" class="edge"><title>Node48&#45;&gt;Node43</title>
<path fill="none" stroke="midnightblue" d="M1796.92,-1102.27C1713.05,-1096.23 1562.65,-1082.74 1513,-1061 1487.39,-1049.78 1463.57,-1027.51 1449.15,-1012.19"/>
<polygon fill="midnightblue" stroke="midnightblue" points="1451.48,-1009.55 1442.16,-1004.51 1446.3,-1014.26 1451.48,-1009.55"/>
</g>
<!-- Node49 -->
<g id="node49" class="node"><title>Node49</title>
<g id="a_node49"><a xlink:href="fuse_8h.html" target="_top" xlink:title="Fuse operation. ">
<polygon fill="white" stroke="black" points="1651,-985.5 1651,-1004.5 1747,-1004.5 1747,-985.5 1651,-985.5"/>
<text text-anchor="middle" x="1699" y="-992.5" font-family="Helvetica,sans-Serif" font-size="10.00">topi/detail/fuse.h</text>
</a>
</g>
</g>
<!-- Node48&#45;&gt;Node49 -->
<g id="edge185" class="edge"><title>Node48&#45;&gt;Node49</title>
<path fill="none" stroke="midnightblue" d="M1798.04,-1097.49C1757.03,-1090.06 1706.76,-1077.82 1694,-1061 1683.97,-1047.78 1687.07,-1028.38 1691.55,-1014.22"/>
<polygon fill="midnightblue" stroke="midnightblue" points="1694.92,-1015.19 1695.05,-1004.6 1688.34,-1012.8 1694.92,-1015.19"/>
</g>
<!-- Node50 -->
<g id="node50" class="node"><title>Node50</title>
<g id="a_node50"><a xlink:href="generic_2injective_8h.html" target="_top" xlink:title="Generic schedule for injective operations. ">
<polygon fill="white" stroke="black" points="1703,-1041.5 1703,-1060.5 1827,-1060.5 1827,-1041.5 1703,-1041.5"/>
<text text-anchor="middle" x="1765" y="-1048.5" font-family="Helvetica,sans-Serif" font-size="10.00">topi/generic/injective.h</text>
</a>
</g>
</g>
<!-- Node48&#45;&gt;Node50 -->
<g id="edge187" class="edge"><title>Node48&#45;&gt;Node50</title>
<path fill="none" stroke="midnightblue" d="M1840.54,-1097.32C1826.5,-1088.9 1804.95,-1075.97 1788.46,-1066.07"/>
<polygon fill="midnightblue" stroke="midnightblue" points="1789.8,-1062.8 1779.42,-1060.65 1786.2,-1068.8 1789.8,-1062.8"/>
</g>
<!-- Node49&#45;&gt;Node2 -->
<g id="edge186" class="edge"><title>Node49&#45;&gt;Node2</title>
<path fill="none" stroke="midnightblue" d="M1666.99,-985.444C1632.27,-976.162 1576.71,-961.309 1538.62,-951.127"/>
<polygon fill="midnightblue" stroke="midnightblue" points="1539.42,-947.718 1528.86,-948.516 1537.61,-954.48 1539.42,-947.718"/>
</g>
<!-- Node50&#45;&gt;Node2 -->
<g id="edge188" class="edge"><title>Node50&#45;&gt;Node2</title>
<path fill="none" stroke="midnightblue" d="M1766.65,-1041.5C1768.8,-1027.65 1770.72,-1000.24 1756,-985 1729.61,-957.683 1628.04,-946.865 1560.21,-942.639"/>
<polygon fill="midnightblue" stroke="midnightblue" points="1560.23,-939.134 1550.05,-942.039 1559.82,-946.122 1560.23,-939.134"/>
</g>
<!-- Node50&#45;&gt;Node39 -->
<g id="edge189" class="edge"><title>Node50&#45;&gt;Node39</title>
<path fill="none" stroke="midnightblue" d="M1799.07,-1041.44C1836.18,-1032.12 1895.66,-1017.18 1936.21,-1007"/>
<polygon fill="midnightblue" stroke="midnightblue" points="1937.25,-1010.35 1946.09,-1004.52 1935.54,-1003.56 1937.25,-1010.35"/>
</g>
<!-- Node50&#45;&gt;Node40 -->
<g id="edge190" class="edge"><title>Node50&#45;&gt;Node40</title>
<path fill="none" stroke="midnightblue" d="M1783.45,-1041.41C1833.07,-1018.26 1966.1,-955.889 1974,-949 2072.08,-863.42 2058.89,-809.871 2136,-705 2143,-695.485 2151.12,-685.317 2158.28,-676.617"/>
<polygon fill="midnightblue" stroke="midnightblue" points="2161.08,-678.722 2164.78,-668.794 2155.7,-674.247 2161.08,-678.722"/>
</g>
<!-- Node50&#45;&gt;Node43 -->
<g id="edge191" class="edge"><title>Node50&#45;&gt;Node43</title>
<path fill="none" stroke="midnightblue" d="M1712.71,-1041.44C1648.28,-1030.9 1539.94,-1013.17 1479.38,-1003.26"/>
<polygon fill="midnightblue" stroke="midnightblue" points="1479.8,-999.785 1469.37,-1001.62 1478.67,-1006.69 1479.8,-999.785"/>
</g>
<!-- Node50&#45;&gt;Node49 -->
<g id="edge192" class="edge"><title>Node50&#45;&gt;Node49</title>
<path fill="none" stroke="midnightblue" d="M1754.4,-1041.32C1744.54,-1033.26 1729.65,-1021.08 1717.78,-1011.37"/>
<polygon fill="midnightblue" stroke="midnightblue" points="1719.75,-1008.46 1709.8,-1004.83 1715.32,-1013.88 1719.75,-1008.46"/>
</g>
</g>
</svg>
