<?xml version="1.0" encoding="UTF-8" standalone="no"?>
<!DOCTYPE svg PUBLIC "-//W3C//DTD SVG 1.1//EN"
 "http://www.w3.org/Graphics/SVG/1.1/DTD/svg11.dtd">
<!-- Generated by graphviz version 2.38.0 (20140413.2041)
 -->
<!-- Title: topi/include/topi/detail/extern.h Pages: 1 -->
<svg width="3243pt" height="1192pt"
 viewBox="0.00 0.00 3243.00 1192.00" xmlns="http://www.w3.org/2000/svg" xmlns:xlink="http://www.w3.org/1999/xlink">
<g id="graph0" class="graph" transform="scale(1 1) rotate(0) translate(4 1188)">
<title>topi/include/topi/detail/extern.h</title>
<polygon fill="white" stroke="none" points="-4,4 -4,-1188 3239,-1188 3239,4 -4,4"/>
<!-- Node1 -->
<g id="node1" class="node"><title>Node1</title>
<polygon fill="#bfbfbf" stroke="black" points="2984,-1153.5 2984,-1183.5 3106,-1183.5 3106,-1153.5 2984,-1153.5"/>
<text text-anchor="start" x="2992" y="-1171.5" font-family="Helvetica,sans-Serif" font-size="10.00">topi/include/topi/detail</text>
<text text-anchor="middle" x="3045" y="-1160.5" font-family="Helvetica,sans-Serif" font-size="10.00">/extern.h</text>
</g>
<!-- Node2 -->
<g id="node2" class="node"><title>Node2</title>
<g id="a_node2"><a xlink:href="operation_8h.html" target="_top" xlink:title="Operation node can generate one or multiple Tensors. ">
<polygon fill="white" stroke="black" points="2429,-1097.5 2429,-1116.5 2535,-1116.5 2535,-1097.5 2429,-1097.5"/>
<text text-anchor="middle" x="2482" y="-1104.5" font-family="Helvetica,sans-Serif" font-size="10.00">tvm/te/operation.h</text>
</a>
</g>
</g>
<!-- Node1&#45;&gt;Node2 -->
<g id="edge1" class="edge"><title>Node1&#45;&gt;Node2</title>
<path fill="none" stroke="midnightblue" d="M2983.95,-1161.05C2876.4,-1149.68 2654.25,-1126.2 2545.2,-1114.68"/>
<polygon fill="midnightblue" stroke="midnightblue" points="2545.32,-1111.17 2535.01,-1113.6 2544.58,-1118.13 2545.32,-1111.17"/>
</g>
<!-- Node14 -->
<g id="node14" class="node"><title>Node14</title>
<polygon fill="white" stroke="#bfbfbf" points="2757,-62 2757,-81 2801,-81 2801,-62 2757,-62"/>
<text text-anchor="middle" x="2779" y="-69" font-family="Helvetica,sans-Serif" font-size="10.00">string</text>
</g>
<!-- Node1&#45;&gt;Node14 -->
<g id="edge188" class="edge"><title>Node1&#45;&gt;Node14</title>
<path fill="none" stroke="midnightblue" d="M3106.16,-1156.76C3161.71,-1143.07 3235,-1113.38 3235,-1052 3235,-1052 3235,-1052 3235,-188 3235,-146.512 3205.36,-141.034 3168,-123 3105.05,-92.6163 2892.92,-78.4885 2811.34,-74.0833"/>
<polygon fill="midnightblue" stroke="midnightblue" points="2811.34,-70.5783 2801.17,-73.5481 2810.97,-77.5687 2811.34,-70.5783"/>
</g>
<!-- Node24 -->
<g id="node24" class="node"><title>Node24</title>
<polygon fill="white" stroke="#bfbfbf" points="2050.5,-179.5 2050.5,-198.5 2097.5,-198.5 2097.5,-179.5 2050.5,-179.5"/>
<text text-anchor="middle" x="2074" y="-186.5" font-family="Helvetica,sans-Serif" font-size="10.00">vector</text>
</g>
<!-- Node1&#45;&gt;Node24 -->
<g id="edge187" class="edge"><title>Node1&#45;&gt;Node24</title>
<path fill="none" stroke="midnightblue" d="M3045,-1153.28C3045,-1131.48 3045,-1088.49 3045,-1052 3045,-1052 3045,-1052 3045,-770 3045,-487.551 2973.84,-311.683 2702,-235 2588.75,-203.053 2221.79,-193.013 2107.98,-190.628"/>
<polygon fill="midnightblue" stroke="midnightblue" points="2107.84,-187.125 2097.77,-190.421 2107.7,-194.123 2107.84,-187.125"/>
</g>
<!-- Node3 -->
<g id="node3" class="node"><title>Node3</title>
<g id="a_node3"><a xlink:href="analyzer_8h.html" target="_top" xlink:title="Algebra expression simplifications. ">
<polygon fill="white" stroke="black" points="486,-873.5 486,-892.5 598,-892.5 598,-873.5 486,-873.5"/>
<text text-anchor="middle" x="542" y="-880.5" font-family="Helvetica,sans-Serif" font-size="10.00">tvm/arith/analyzer.h</text>
</a>
</g>
</g>
<!-- Node2&#45;&gt;Node3 -->
<g id="edge2" class="edge"><title>Node2&#45;&gt;Node3</title>
<path fill="none" stroke="midnightblue" d="M2428.92,-1100.27C2350.75,-1091.82 2200.08,-1075.44 2072,-1061 1505.35,-997.127 821.035,-916.842 608.322,-891.813"/>
<polygon fill="midnightblue" stroke="midnightblue" points="608.594,-888.321 598.253,-890.628 607.776,-895.273 608.594,-888.321"/>
</g>
<!-- Node2&#45;&gt;Node14 -->
<g id="edge184" class="edge"><title>Node2&#45;&gt;Node14</title>
<path fill="none" stroke="midnightblue" d="M2535.16,-1103.42C2700.86,-1094.69 3197,-1062.96 3197,-996 3197,-996 3197,-996 3197,-188 3197,-148.382 3171.16,-141.254 3136,-123 3079.62,-93.7334 2888.26,-79.1313 2811.37,-74.3365"/>
<polygon fill="midnightblue" stroke="midnightblue" points="2811.5,-70.8381 2801.31,-73.7245 2811.08,-77.8251 2811.5,-70.8381"/>
</g>
<!-- Node2&#45;&gt;Node24 -->
<g id="edge185" class="edge"><title>Node2&#45;&gt;Node24</title>
<path fill="none" stroke="midnightblue" d="M2535.11,-1103.48C2622.63,-1098.66 2792.83,-1086.29 2847,-1061 2946.74,-1014.43 2931,-938.08 2931,-828 2931,-828 2931,-828 2931,-714 2931,-514.231 2931.47,-420.077 2779,-291 2731.92,-251.141 2711.82,-250.052 2652,-235 2547.84,-208.792 2215.63,-195.006 2108.01,-191.146"/>
<polygon fill="midnightblue" stroke="midnightblue" points="2107.85,-187.638 2097.73,-190.783 2107.6,-194.633 2107.85,-187.638"/>
</g>
<!-- Node25 -->
<g id="node25" class="node"><title>Node25</title>
<polygon fill="white" stroke="#bfbfbf" points="238.5,-179.5 238.5,-198.5 331.5,-198.5 331.5,-179.5 238.5,-179.5"/>
<text text-anchor="middle" x="285" y="-186.5" font-family="Helvetica,sans-Serif" font-size="10.00">unordered_map</text>
</g>
<!-- Node2&#45;&gt;Node25 -->
<g id="edge186" class="edge"><title>Node2&#45;&gt;Node25</title>
<path fill="none" stroke="midnightblue" d="M2428.97,-1105.04C2072.36,-1098.43 38,-1058 38,-996 38,-996 38,-996 38,-714 38,-516.248 92.3354,-470.181 176,-291 187.858,-265.604 185.526,-255.158 205,-235 218.386,-221.143 236.973,-210.337 252.862,-202.792"/>
<polygon fill="midnightblue" stroke="midnightblue" points="254.66,-205.82 262.335,-198.517 251.781,-199.44 254.66,-205.82"/>
</g>
<!-- Node43 -->
<g id="node43" class="node"><title>Node43</title>
<g id="a_node43"><a xlink:href="tir_2expr_8h.html" target="_top" xlink:title="TIR expressions. ">
<polygon fill="white" stroke="black" points="2003,-761.5 2003,-780.5 2083,-780.5 2083,-761.5 2003,-761.5"/>
<text text-anchor="middle" x="2043" y="-768.5" font-family="Helvetica,sans-Serif" font-size="10.00">tvm/tir/expr.h</text>
</a>
</g>
</g>
<!-- Node2&#45;&gt;Node43 -->
<g id="edge181" class="edge"><title>Node2&#45;&gt;Node43</title>
<path fill="none" stroke="midnightblue" d="M2535.31,-1102.91C2646.52,-1095 2893,-1069.22 2893,-996 2893,-996 2893,-996 2893,-938 2893,-856.003 2275.82,-793.216 2093.27,-776.438"/>
<polygon fill="midnightblue" stroke="midnightblue" points="2093.42,-772.937 2083.14,-775.513 2092.78,-779.908 2093.42,-772.937"/>
</g>
<!-- Node44 -->
<g id="node44" class="node"><title>Node44</title>
<g id="a_node44"><a xlink:href="tensor_8h.html" target="_top" xlink:title="Dataflow tensor object. ">
<polygon fill="white" stroke="black" points="1944,-929.5 1944,-948.5 2034,-948.5 2034,-929.5 1944,-929.5"/>
<text text-anchor="middle" x="1989" y="-936.5" font-family="Helvetica,sans-Serif" font-size="10.00">tvm/te/tensor.h</text>
</a>
</g>
</g>
<!-- Node2&#45;&gt;Node44 -->
<g id="edge141" class="edge"><title>Node2&#45;&gt;Node44</title>
<path fill="none" stroke="midnightblue" d="M2428.94,-1104.01C2339.13,-1099.92 2161.5,-1088.55 2106,-1061 2057.53,-1036.95 2017.97,-984.385 1999.78,-957.139"/>
<polygon fill="midnightblue" stroke="midnightblue" points="2002.65,-955.124 1994.26,-948.647 1996.78,-958.939 2002.65,-955.124"/>
</g>
<!-- Node47 -->
<g id="node47" class="node"><title>Node47</title>
<g id="a_node47"><a xlink:href="tir_2op_8h.html" target="_top" xlink:title="Common operators defined for Expr. ">
<polygon fill="white" stroke="black" points="2207,-873.5 2207,-892.5 2279,-892.5 2279,-873.5 2207,-873.5"/>
<text text-anchor="middle" x="2243" y="-880.5" font-family="Helvetica,sans-Serif" font-size="10.00">tvm/tir/op.h</text>
</a>
</g>
</g>
<!-- Node2&#45;&gt;Node47 -->
<g id="edge182" class="edge"><title>Node2&#45;&gt;Node47</title>
<path fill="none" stroke="midnightblue" d="M2473.81,-1097.24C2454.73,-1076.95 2405.65,-1025.39 2362,-985 2327.64,-953.201 2285.45,-918.318 2261.66,-898.999"/>
<polygon fill="midnightblue" stroke="midnightblue" points="2263.75,-896.188 2253.77,-892.62 2259.34,-901.63 2263.75,-896.188"/>
</g>
<!-- Node48 -->
<g id="node48" class="node"><title>Node48</title>
<g id="a_node48"><a xlink:href="schedule_8h.html" target="_top" xlink:title="Define a schedule. ">
<polygon fill="white" stroke="black" points="2115.5,-1041.5 2115.5,-1060.5 2218.5,-1060.5 2218.5,-1041.5 2115.5,-1041.5"/>
<text text-anchor="middle" x="2167" y="-1048.5" font-family="Helvetica,sans-Serif" font-size="10.00">tvm/te/schedule.h</text>
</a>
</g>
</g>
<!-- Node2&#45;&gt;Node48 -->
<g id="edge167" class="edge"><title>Node2&#45;&gt;Node48</title>
<path fill="none" stroke="midnightblue" d="M2432.09,-1097.44C2376.33,-1087.89 2286.11,-1072.42 2226.67,-1062.23"/>
<polygon fill="midnightblue" stroke="midnightblue" points="2227.13,-1058.76 2216.68,-1060.52 2225.94,-1065.66 2227.13,-1058.76"/>
</g>
<!-- Node50 -->
<g id="node50" class="node"><title>Node50</title>
<g id="a_node50"><a xlink:href="buffer_8h.html" target="_top" xlink:title="Symbolic n&#45;dimensional array, to represent a memory buffer. ">
<polygon fill="white" stroke="black" points="2469.5,-929.5 2469.5,-948.5 2556.5,-948.5 2556.5,-929.5 2469.5,-929.5"/>
<text text-anchor="middle" x="2513" y="-936.5" font-family="Helvetica,sans-Serif" font-size="10.00">tvm/tir/buffer.h</text>
</a>
</g>
</g>
<!-- Node2&#45;&gt;Node50 -->
<g id="edge183" class="edge"><title>Node2&#45;&gt;Node50</title>
<path fill="none" stroke="midnightblue" d="M2483.67,-1097.08C2488.55,-1070.95 2502.88,-994.211 2509.53,-958.577"/>
<polygon fill="midnightblue" stroke="midnightblue" points="2513,-959.041 2511.4,-948.568 2506.12,-957.756 2513,-959.041"/>
</g>
<!-- Node4 -->
<g id="node4" class="node"><title>Node4</title>
<g id="a_node4"><a xlink:href="with_8h.html" target="_top" xlink:title="RAII wrapper function to enter and exit a context object similar to python&#39;s with syntax...">
<polygon fill="white" stroke="black" points="294,-761.5 294,-780.5 400,-780.5 400,-761.5 294,-761.5"/>
<text text-anchor="middle" x="347" y="-768.5" font-family="Helvetica,sans-Serif" font-size="10.00">tvm/support/with.h</text>
</a>
</g>
</g>
<!-- Node3&#45;&gt;Node4 -->
<g id="edge3" class="edge"><title>Node3&#45;&gt;Node4</title>
<path fill="none" stroke="midnightblue" d="M504.814,-873.497C478.204,-866.354 442.243,-854.478 414,-837 392.803,-823.883 372.891,-803.063 360.372,-788.532"/>
<polygon fill="midnightblue" stroke="midnightblue" points="363.006,-786.226 353.901,-780.809 357.64,-790.722 363.006,-786.226"/>
</g>
<!-- Node7 -->
<g id="node7" class="node"><title>Node7</title>
<g id="a_node7"><a xlink:href="ir_2expr_8h.html" target="_top" xlink:title="Base expr nodes in TVM. ">
<polygon fill="white" stroke="black" points="1111.5,-705.5 1111.5,-724.5 1188.5,-724.5 1188.5,-705.5 1111.5,-705.5"/>
<text text-anchor="middle" x="1150" y="-712.5" font-family="Helvetica,sans-Serif" font-size="10.00">tvm/ir/expr.h</text>
</a>
</g>
</g>
<!-- Node3&#45;&gt;Node7 -->
<g id="edge6" class="edge"><title>Node3&#45;&gt;Node7</title>
<path fill="none" stroke="midnightblue" d="M547.058,-873.254C555.752,-859.056 574.94,-831.159 599,-817 684.328,-766.786 982.464,-732.558 1100.93,-720.65"/>
<polygon fill="midnightblue" stroke="midnightblue" points="1101.55,-724.106 1111.15,-719.633 1100.86,-717.14 1101.55,-724.106"/>
</g>
<!-- Node23 -->
<g id="node23" class="node"><title>Node23</title>
<polygon fill="white" stroke="#bfbfbf" points="1408.5,-179.5 1408.5,-198.5 1465.5,-198.5 1465.5,-179.5 1408.5,-179.5"/>
<text text-anchor="middle" x="1437" y="-186.5" font-family="Helvetica,sans-Serif" font-size="10.00">memory</text>
</g>
<!-- Node3&#45;&gt;Node23 -->
<g id="edge139" class="edge"><title>Node3&#45;&gt;Node23</title>
<path fill="none" stroke="midnightblue" d="M545.05,-873.116C549.731,-860.14 559.473,-835.536 572,-817 596.889,-780.173 1081.53,-255.447 1121,-235 1168.6,-210.339 1324.76,-197.25 1398.19,-192.328"/>
<polygon fill="midnightblue" stroke="midnightblue" points="1398.65,-195.806 1408.4,-191.661 1398.19,-188.82 1398.65,-195.806"/>
</g>
<!-- Node3&#45;&gt;Node24 -->
<g id="edge137" class="edge"><title>Node3&#45;&gt;Node24</title>
<path fill="none" stroke="midnightblue" d="M598.039,-877.152C784.968,-859.895 1383.11,-795.613 1521,-669 1669.7,-532.465 1499.2,-363.369 1655,-235 1669.85,-222.767 1943.22,-200.252 2040.22,-192.614"/>
<polygon fill="midnightblue" stroke="midnightblue" points="2040.66,-196.09 2050.36,-191.819 2040.12,-189.111 2040.66,-196.09"/>
</g>
<!-- Node3&#45;&gt;Node25 -->
<g id="edge138" class="edge"><title>Node3&#45;&gt;Node25</title>
<path fill="none" stroke="midnightblue" d="M531.927,-873.491C521.375,-864.529 504.368,-849.948 490,-837 453.328,-803.953 445.94,-793.747 409,-761 390.349,-744.466 382.714,-743.49 366,-725 345.83,-702.687 343.331,-694.877 328,-669 297.2,-617.013 266,-608.426 266,-548 266,-548 266,-548 266,-428.5 266,-342.275 225.173,-316.945 252,-235 255.49,-224.34 262.573,-214.117 269.286,-206.117"/>
<polygon fill="midnightblue" stroke="midnightblue" points="271.904,-208.439 275.98,-198.66 266.695,-203.763 271.904,-208.439"/>
</g>
<!-- Node31 -->
<g id="node31" class="node"><title>Node31</title>
<polygon fill="white" stroke="#bfbfbf" points="2519,-235.5 2519,-254.5 2561,-254.5 2561,-235.5 2519,-235.5"/>
<text text-anchor="middle" x="2540" y="-242.5" font-family="Helvetica,sans-Serif" font-size="10.00">limits</text>
</g>
<!-- Node3&#45;&gt;Node31 -->
<g id="edge140" class="edge"><title>Node3&#45;&gt;Node31</title>
<path fill="none" stroke="midnightblue" d="M598.308,-878.944C725.188,-872.003 1043.12,-854.307 1309,-837 1543.16,-821.758 2153.65,-838.562 2359,-725 2531.04,-629.857 2540.92,-341.641 2540.42,-264.927"/>
<polygon fill="midnightblue" stroke="midnightblue" points="2543.91,-264.79 2540.28,-254.839 2536.91,-264.887 2543.91,-264.79"/>
</g>
<!-- Node42 -->
<g id="node42" class="node"><title>Node42</title>
<g id="a_node42"><a xlink:href="int__set_8h.html" target="_top" xlink:title="Integer set. ">
<polygon fill="white" stroke="black" points="608,-817.5 608,-836.5 712,-836.5 712,-817.5 608,-817.5"/>
<text text-anchor="middle" x="660" y="-824.5" font-family="Helvetica,sans-Serif" font-size="10.00">tvm/arith/int_set.h</text>
</a>
</g>
</g>
<!-- Node3&#45;&gt;Node42 -->
<g id="edge121" class="edge"><title>Node3&#45;&gt;Node42</title>
<path fill="none" stroke="midnightblue" d="M560.697,-873.444C579.944,-864.636 610.152,-850.812 632.2,-840.722"/>
<polygon fill="midnightblue" stroke="midnightblue" points="633.753,-843.86 641.39,-836.516 630.84,-837.495 633.753,-843.86"/>
</g>
<!-- Node5 -->
<g id="node5" class="node"><title>Node5</title>
<polygon fill="white" stroke="#bfbfbf" points="1299,-62 1299,-81 1385,-81 1385,-62 1299,-62"/>
<text text-anchor="middle" x="1342" y="-69" font-family="Helvetica,sans-Serif" font-size="10.00">dmlc/logging.h</text>
</g>
<!-- Node4&#45;&gt;Node5 -->
<g id="edge4" class="edge"><title>Node4&#45;&gt;Node5</title>
<path fill="none" stroke="midnightblue" d="M369.548,-761.485C425.26,-740.624 574.104,-685.971 701,-649 768.064,-629.461 1261.98,-549.757 1312,-501 1335.24,-478.349 1331,-462.951 1331,-430.5 1331,-430.5 1331,-430.5 1331,-367 1331,-262.761 1337.97,-137.913 1340.81,-91.2792"/>
<polygon fill="midnightblue" stroke="midnightblue" points="1344.31,-91.3662 1341.44,-81.1685 1337.33,-90.9324 1344.31,-91.3662"/>
</g>
<!-- Node6 -->
<g id="node6" class="node"><title>Node6</title>
<polygon fill="white" stroke="#bfbfbf" points="453,-62 453,-81 495,-81 495,-62 453,-62"/>
<text text-anchor="middle" x="474" y="-69" font-family="Helvetica,sans-Serif" font-size="10.00">utility</text>
</g>
<!-- Node4&#45;&gt;Node6 -->
<g id="edge5" class="edge"><title>Node4&#45;&gt;Node6</title>
<path fill="none" stroke="midnightblue" d="M332.92,-761.498C272.471,-723.81 38,-564.993 38,-369 38,-369 38,-369 38,-188 38,-157.205 37.853,-142.112 62,-123 120.862,-76.4116 356.79,-72.2061 442.597,-72.255"/>
<polygon fill="midnightblue" stroke="midnightblue" points="442.748,-75.7553 452.757,-72.2816 442.767,-68.7553 442.748,-75.7553"/>
</g>
<!-- Node8 -->
<g id="node8" class="node"><title>Node8</title>
<g id="a_node8"><a xlink:href="object_8h.html" target="_top" xlink:title="A managed object in the TVM runtime. ">
<polygon fill="white" stroke="black" points="1158.5,-123.5 1158.5,-142.5 1275.5,-142.5 1275.5,-123.5 1158.5,-123.5"/>
<text text-anchor="middle" x="1217" y="-130.5" font-family="Helvetica,sans-Serif" font-size="10.00">tvm/runtime/object.h</text>
</a>
</g>
</g>
<!-- Node7&#45;&gt;Node8 -->
<g id="edge7" class="edge"><title>Node7&#45;&gt;Node8</title>
<path fill="none" stroke="midnightblue" d="M1111.28,-713.436C1064.35,-711.201 984.2,-702.294 925,-669 744.011,-567.211 705.305,-437.33 752,-235 758.089,-208.615 754.181,-195.036 776,-179 805.271,-157.488 1031.23,-143.23 1147.84,-137.227"/>
<polygon fill="midnightblue" stroke="midnightblue" points="1148.29,-140.709 1158.1,-136.706 1147.93,-133.719 1148.29,-140.709"/>
</g>
<!-- Node13 -->
<g id="node13" class="node"><title>Node13</title>
<polygon fill="white" stroke="#bfbfbf" points="735,-62 735,-81 803,-81 803,-62 735,-62"/>
<text text-anchor="middle" x="769" y="-69" font-family="Helvetica,sans-Serif" font-size="10.00">type_traits</text>
</g>
<!-- Node7&#45;&gt;Node13 -->
<g id="edge120" class="edge"><title>Node7&#45;&gt;Node13</title>
<path fill="none" stroke="midnightblue" d="M1111.27,-713.186C1058.91,-710.799 963.631,-701.847 890,-669 824.26,-639.673 811.309,-617.945 773,-557 675.257,-401.502 741.336,-158.804 762.89,-90.7709"/>
<polygon fill="midnightblue" stroke="midnightblue" points="766.278,-91.6699 766.04,-81.0778 759.621,-89.5065 766.278,-91.6699"/>
</g>
<!-- Node7&#45;&gt;Node14 -->
<g id="edge117" class="edge"><title>Node7&#45;&gt;Node14</title>
<path fill="none" stroke="midnightblue" d="M1188.86,-712.44C1449.31,-700.96 2931,-619.248 2931,-246 2931,-246 2931,-246 2931,-188 2931,-128.195 2855.48,-95.3149 2810.91,-81.1157"/>
<polygon fill="midnightblue" stroke="midnightblue" points="2811.69,-77.6954 2801.1,-78.1337 2809.65,-84.3924 2811.69,-77.6954"/>
</g>
<!-- Node16 -->
<g id="node16" class="node"><title>Node16</title>
<g id="a_node16"><a xlink:href="node_8h.html" target="_top" xlink:title="Definitions and helper macros for IR/AST nodes. ">
<polygon fill="white" stroke="black" points="1352,-537.5 1352,-556.5 1450,-556.5 1450,-537.5 1352,-537.5"/>
<text text-anchor="middle" x="1401" y="-544.5" font-family="Helvetica,sans-Serif" font-size="10.00">tvm/node/node.h</text>
</a>
</g>
</g>
<!-- Node7&#45;&gt;Node16 -->
<g id="edge17" class="edge"><title>Node7&#45;&gt;Node16</title>
<path fill="none" stroke="midnightblue" d="M1154.93,-705.192C1167.84,-682.924 1204.94,-623.954 1252,-593 1278.86,-575.332 1312.93,-564.367 1341.72,-557.69"/>
<polygon fill="midnightblue" stroke="midnightblue" points="1342.64,-561.07 1351.66,-555.504 1341.14,-554.234 1342.64,-561.07"/>
</g>
<!-- Node7&#45;&gt;Node31 -->
<g id="edge119" class="edge"><title>Node7&#45;&gt;Node31</title>
<path fill="none" stroke="midnightblue" d="M1188.67,-713.097C1329.15,-708.39 1822.78,-679.33 2176,-501 2316.45,-430.089 2329.08,-376.752 2461,-291 2478.43,-279.673 2498.82,-268.093 2514.53,-259.517"/>
<polygon fill="midnightblue" stroke="midnightblue" points="2516.5,-262.43 2523.63,-254.595 2513.17,-256.273 2516.5,-262.43"/>
</g>
<!-- Node34 -->
<g id="node34" class="node"><title>Node34</title>
<g id="a_node34"><a xlink:href="node_2container_8h.html" target="_top" xlink:title="Array/Map container in the DSL graph. ">
<polygon fill="white" stroke="black" points="845.5,-358.5 845.5,-377.5 964.5,-377.5 964.5,-358.5 845.5,-358.5"/>
<text text-anchor="middle" x="905" y="-365.5" font-family="Helvetica,sans-Serif" font-size="10.00">tvm/node/container.h</text>
</a>
</g>
</g>
<!-- Node7&#45;&gt;Node34 -->
<g id="edge105" class="edge"><title>Node7&#45;&gt;Node34</title>
<path fill="none" stroke="midnightblue" d="M1111.5,-713.127C1044.14,-709.334 912,-690.828 912,-604 912,-604 912,-604 912,-490 912,-453.834 908.845,-411.689 906.771,-387.895"/>
<polygon fill="midnightblue" stroke="midnightblue" points="910.244,-387.44 905.858,-377.796 903.273,-388.07 910.244,-387.44"/>
</g>
<!-- Node39 -->
<g id="node39" class="node"><title>Node39</title>
<g id="a_node39"><a xlink:href="span_8h.html" target="_top" xlink:title="Span information for debugging purposes. ">
<polygon fill="white" stroke="black" points="1261,-593.5 1261,-612.5 1341,-612.5 1341,-593.5 1261,-593.5"/>
<text text-anchor="middle" x="1301" y="-600.5" font-family="Helvetica,sans-Serif" font-size="10.00">tvm/ir/span.h</text>
</a>
</g>
</g>
<!-- Node7&#45;&gt;Node39 -->
<g id="edge106" class="edge"><title>Node7&#45;&gt;Node39</title>
<path fill="none" stroke="midnightblue" d="M1161.85,-705.368C1187.65,-686.573 1249.15,-641.768 1281.05,-618.533"/>
<polygon fill="midnightblue" stroke="midnightblue" points="1283.18,-621.309 1289.21,-612.591 1279.06,-615.651 1283.18,-621.309"/>
</g>
<!-- Node40 -->
<g id="node40" class="node"><title>Node40</title>
<g id="a_node40"><a xlink:href="ir_2type_8h.html" target="_top" xlink:title="IR/AST nodes for the unified type system in TVM. ">
<polygon fill="white" stroke="black" points="1435.5,-649.5 1435.5,-668.5 1512.5,-668.5 1512.5,-649.5 1435.5,-649.5"/>
<text text-anchor="middle" x="1474" y="-656.5" font-family="Helvetica,sans-Serif" font-size="10.00">tvm/ir/type.h</text>
</a>
</g>
</g>
<!-- Node7&#45;&gt;Node40 -->
<g id="edge110" class="edge"><title>Node7&#45;&gt;Node40</title>
<path fill="none" stroke="midnightblue" d="M1188.76,-707.54C1247.99,-697.668 1360.94,-678.843 1425.51,-668.081"/>
<polygon fill="midnightblue" stroke="midnightblue" points="1426.16,-671.522 1435.45,-666.425 1425.01,-664.617 1426.16,-671.522"/>
</g>
<!-- Node41 -->
<g id="node41" class="node"><title>Node41</title>
<polygon fill="white" stroke="#bfbfbf" points="2309,-649.5 2309,-668.5 2371,-668.5 2371,-649.5 2309,-649.5"/>
<text text-anchor="middle" x="2340" y="-656.5" font-family="Helvetica,sans-Serif" font-size="10.00">algorithm</text>
</g>
<!-- Node7&#45;&gt;Node41 -->
<g id="edge118" class="edge"><title>Node7&#45;&gt;Node41</title>
<path fill="none" stroke="midnightblue" d="M1188.78,-713.369C1331.28,-710.851 1839.32,-700.099 2257,-669 2270.57,-667.989 2285.35,-666.509 2298.63,-665.04"/>
<polygon fill="midnightblue" stroke="midnightblue" points="2299.37,-668.479 2308.91,-663.873 2298.58,-661.524 2299.37,-668.479"/>
</g>
<!-- Node8&#45;&gt;Node5 -->
<g id="edge8" class="edge"><title>Node8&#45;&gt;Node5</title>
<path fill="none" stroke="midnightblue" d="M1234.91,-123.475C1255.89,-113.49 1290.85,-96.8476 1315.09,-85.3075"/>
<polygon fill="midnightblue" stroke="midnightblue" points="1316.6,-88.4673 1324.12,-81.0091 1313.59,-82.1468 1316.6,-88.4673"/>
</g>
<!-- Node8&#45;&gt;Node6 -->
<g id="edge15" class="edge"><title>Node8&#45;&gt;Node6</title>
<path fill="none" stroke="midnightblue" d="M1158.24,-127.223C1141.38,-125.855 1122.96,-124.365 1106,-123 875.135,-104.417 596.81,-82.2648 505.016,-74.9654"/>
<polygon fill="midnightblue" stroke="midnightblue" points="505.25,-71.4731 495.004,-74.1694 504.696,-78.4511 505.25,-71.4731"/>
</g>
<!-- Node9 -->
<g id="node9" class="node"><title>Node9</title>
<g id="a_node9"><a xlink:href="c__runtime__api_8h.html" target="_top" xlink:title="tvm/runtime/c_runtime\l_api.h">
<polygon fill="white" stroke="black" points="2024.5,-56.5 2024.5,-86.5 2151.5,-86.5 2151.5,-56.5 2024.5,-56.5"/>
<text text-anchor="start" x="2032.5" y="-74.5" font-family="Helvetica,sans-Serif" font-size="10.00">tvm/runtime/c_runtime</text>
<text text-anchor="middle" x="2088" y="-63.5" font-family="Helvetica,sans-Serif" font-size="10.00">_api.h</text>
</a>
</g>
</g>
<!-- Node8&#45;&gt;Node9 -->
<g id="edge9" class="edge"><title>Node8&#45;&gt;Node9</title>
<path fill="none" stroke="midnightblue" d="M1275.5,-128.004C1429.22,-117.503 1844.36,-89.1435 2014.13,-77.5464"/>
<polygon fill="midnightblue" stroke="midnightblue" points="2014.48,-81.0304 2024.22,-76.857 2014,-74.0467 2014.48,-81.0304"/>
</g>
<!-- Node8&#45;&gt;Node13 -->
<g id="edge13" class="edge"><title>Node8&#45;&gt;Node13</title>
<path fill="none" stroke="midnightblue" d="M1158.43,-124.221C1067.64,-112.163 894.91,-89.2225 813.527,-78.4137"/>
<polygon fill="midnightblue" stroke="midnightblue" points="813.506,-74.8804 803.133,-77.0333 812.585,-81.8194 813.506,-74.8804"/>
</g>
<!-- Node8&#45;&gt;Node14 -->
<g id="edge14" class="edge"><title>Node8&#45;&gt;Node14</title>
<path fill="none" stroke="midnightblue" d="M1275.85,-129.758C1532.8,-119.971 2552.11,-81.1427 2746.78,-73.7273"/>
<polygon fill="midnightblue" stroke="midnightblue" points="2747.07,-77.2191 2756.93,-73.3409 2746.8,-70.2241 2747.07,-77.2191"/>
</g>
<!-- Node15 -->
<g id="node15" class="node"><title>Node15</title>
<polygon fill="white" stroke="#bfbfbf" points="1211,-62 1211,-81 1261,-81 1261,-62 1211,-62"/>
<text text-anchor="middle" x="1236" y="-69" font-family="Helvetica,sans-Serif" font-size="10.00">atomic</text>
</g>
<!-- Node8&#45;&gt;Node15 -->
<g id="edge16" class="edge"><title>Node8&#45;&gt;Node15</title>
<path fill="none" stroke="midnightblue" d="M1219.72,-123.475C1222.43,-114.992 1226.67,-101.704 1230.15,-90.8222"/>
<polygon fill="midnightblue" stroke="midnightblue" points="1233.57,-91.5999 1233.28,-81.0091 1226.91,-89.4705 1233.57,-91.5999"/>
</g>
<!-- Node10 -->
<g id="node10" class="node"><title>Node10</title>
<polygon fill="white" stroke="#bfbfbf" points="1953,-0.5 1953,-19.5 2043,-19.5 2043,-0.5 1953,-0.5"/>
<text text-anchor="middle" x="1998" y="-7.5" font-family="Helvetica,sans-Serif" font-size="10.00">dlpack/dlpack.h</text>
</g>
<!-- Node9&#45;&gt;Node10 -->
<g id="edge10" class="edge"><title>Node9&#45;&gt;Node10</title>
<path fill="none" stroke="midnightblue" d="M2066.67,-56.3993C2052.51,-47.0402 2033.99,-34.7924 2019.75,-25.3771"/>
<polygon fill="midnightblue" stroke="midnightblue" points="2021.37,-22.2531 2011.1,-19.6578 2017.51,-28.0923 2021.37,-22.2531"/>
</g>
<!-- Node11 -->
<g id="node11" class="node"><title>Node11</title>
<polygon fill="white" stroke="#bfbfbf" points="2061.5,-0.5 2061.5,-19.5 2114.5,-19.5 2114.5,-0.5 2061.5,-0.5"/>
<text text-anchor="middle" x="2088" y="-7.5" font-family="Helvetica,sans-Serif" font-size="10.00">stdint.h</text>
</g>
<!-- Node9&#45;&gt;Node11 -->
<g id="edge11" class="edge"><title>Node9&#45;&gt;Node11</title>
<path fill="none" stroke="midnightblue" d="M2088,-56.3993C2088,-48.4664 2088,-38.458 2088,-29.8583"/>
<polygon fill="midnightblue" stroke="midnightblue" points="2091.5,-29.6577 2088,-19.6578 2084.5,-29.6578 2091.5,-29.6577"/>
</g>
<!-- Node12 -->
<g id="node12" class="node"><title>Node12</title>
<polygon fill="white" stroke="#bfbfbf" points="2132.5,-0.5 2132.5,-19.5 2187.5,-19.5 2187.5,-0.5 2132.5,-0.5"/>
<text text-anchor="middle" x="2160" y="-7.5" font-family="Helvetica,sans-Serif" font-size="10.00">stddef.h</text>
</g>
<!-- Node9&#45;&gt;Node12 -->
<g id="edge12" class="edge"><title>Node9&#45;&gt;Node12</title>
<path fill="none" stroke="midnightblue" d="M2105.06,-56.3993C2116.06,-47.3076 2130.37,-35.4899 2141.62,-26.1909"/>
<polygon fill="midnightblue" stroke="midnightblue" points="2144.04,-28.726 2149.52,-19.6578 2139.59,-23.33 2144.04,-28.726"/>
</g>
<!-- Node16&#45;&gt;Node6 -->
<g id="edge103" class="edge"><title>Node16&#45;&gt;Node6</title>
<path fill="none" stroke="midnightblue" d="M1351.91,-544.279C1277.58,-540.788 1132.49,-530.497 1013,-501 755.392,-437.409 644.691,-420.105 498,-199 475.932,-165.737 472.973,-117.327 473.202,-91.0866"/>
<polygon fill="midnightblue" stroke="midnightblue" points="476.703,-91.1016 473.462,-81.0148 469.705,-90.9213 476.703,-91.1016"/>
</g>
<!-- Node16&#45;&gt;Node8 -->
<g id="edge19" class="edge"><title>Node16&#45;&gt;Node8</title>
<path fill="none" stroke="midnightblue" d="M1390.22,-537.237C1341.14,-497.052 1139.81,-329.196 1109,-255 1099.64,-232.454 1121.51,-183.163 1125,-179 1137.81,-163.702 1157.07,-153.169 1174.66,-146.163"/>
<polygon fill="midnightblue" stroke="midnightblue" points="1176.05,-149.381 1184.21,-142.625 1173.62,-142.817 1176.05,-149.381"/>
</g>
<!-- Node16&#45;&gt;Node9 -->
<g id="edge18" class="edge"><title>Node16&#45;&gt;Node9</title>
<path fill="none" stroke="midnightblue" d="M1450.38,-544.781C1584.44,-541.137 1952.99,-528.813 2071,-501 2183.83,-474.408 2215.88,-456.696 2301,-378 2369.52,-314.646 2413,-260.759 2368,-179 2328.35,-106.948 2230.84,-83.274 2162.09,-75.7031"/>
<polygon fill="midnightblue" stroke="midnightblue" points="2162.04,-72.1805 2151.74,-74.6601 2161.34,-79.1452 2162.04,-72.1805"/>
</g>
<!-- Node16&#45;&gt;Node13 -->
<g id="edge104" class="edge"><title>Node16&#45;&gt;Node13</title>
<path fill="none" stroke="midnightblue" d="M1351.69,-539.71C1270.33,-529.204 1114.48,-508.502 1090,-501 970.075,-464.253 917.172,-473.622 836,-378 762.658,-291.602 764.371,-143.017 767.507,-91.075"/>
<polygon fill="midnightblue" stroke="midnightblue" points="771.004,-91.2369 768.21,-81.0169 764.021,-90.7481 771.004,-91.2369"/>
</g>
<!-- Node16&#45;&gt;Node14 -->
<g id="edge101" class="edge"><title>Node16&#45;&gt;Node14</title>
<path fill="none" stroke="midnightblue" d="M1450.05,-545.077C1590.76,-542.09 1993.79,-531.077 2122,-501 2353.07,-446.791 2420.75,-415.066 2596,-255 2657.03,-199.259 2668.24,-181.128 2727,-123 2738.86,-111.268 2752.38,-98.1451 2762.66,-88.2176"/>
<polygon fill="midnightblue" stroke="midnightblue" points="2765.35,-90.4888 2770.12,-81.0286 2760.49,-85.4492 2765.35,-90.4888"/>
</g>
<!-- Node17 -->
<g id="node17" class="node"><title>Node17</title>
<g id="a_node17"><a xlink:href="runtime_2memory_8h.html" target="_top" xlink:title="Runtime memory management. ">
<polygon fill="white" stroke="black" points="806.5,-179.5 806.5,-198.5 933.5,-198.5 933.5,-179.5 806.5,-179.5"/>
<text text-anchor="middle" x="870" y="-186.5" font-family="Helvetica,sans-Serif" font-size="10.00">tvm/runtime/memory.h</text>
</a>
</g>
</g>
<!-- Node16&#45;&gt;Node17 -->
<g id="edge20" class="edge"><title>Node16&#45;&gt;Node17</title>
<path fill="none" stroke="midnightblue" d="M1351.8,-539.934C1286.02,-531.335 1176.21,-515.078 1164,-501 1138.64,-471.761 1177.86,-448.342 1160,-414 1129.36,-355.079 955.81,-243.275 892.831,-204.037"/>
<polygon fill="midnightblue" stroke="midnightblue" points="894.383,-200.881 884.04,-198.585 890.694,-206.83 894.383,-200.881"/>
</g>
<!-- Node19 -->
<g id="node19" class="node"><title>Node19</title>
<g id="a_node19"><a xlink:href="reflection_8h.html" target="_top" xlink:title="Reflection and serialization of compiler IR/AST nodes. ">
<polygon fill="white" stroke="black" points="1794.5,-481.5 1794.5,-500.5 1913.5,-500.5 1913.5,-481.5 1794.5,-481.5"/>
<text text-anchor="middle" x="1854" y="-488.5" font-family="Helvetica,sans-Serif" font-size="10.00">tvm/node/reflection.h</text>
</a>
</g>
</g>
<!-- Node16&#45;&gt;Node19 -->
<g id="edge25" class="edge"><title>Node16&#45;&gt;Node19</title>
<path fill="none" stroke="midnightblue" d="M1450.34,-540.118C1531.13,-530.488 1691.85,-511.329 1784.26,-500.314"/>
<polygon fill="midnightblue" stroke="midnightblue" points="1784.84,-503.769 1794.35,-499.11 1784.01,-496.819 1784.84,-503.769"/>
</g>
<!-- Node16&#45;&gt;Node24 -->
<g id="edge102" class="edge"><title>Node16&#45;&gt;Node24</title>
<path fill="none" stroke="midnightblue" d="M1450.05,-546.093C1548.4,-545.4 1776.28,-539.363 1963,-501 2058.61,-481.356 2171,-528.11 2171,-430.5 2171,-430.5 2171,-430.5 2171,-367 2171,-300.378 2117.5,-235.086 2089.96,-205.895"/>
<polygon fill="midnightblue" stroke="midnightblue" points="2092.42,-203.401 2082.95,-198.647 2087.39,-208.268 2092.42,-203.401"/>
</g>
<!-- Node32 -->
<g id="node32" class="node"><title>Node32</title>
<g id="a_node32"><a xlink:href="structural__equal_8h.html" target="_top" xlink:title="Structural equality comparison. ">
<polygon fill="white" stroke="black" points="1688.5,-414.5 1688.5,-444.5 1799.5,-444.5 1799.5,-414.5 1688.5,-414.5"/>
<text text-anchor="start" x="1696.5" y="-432.5" font-family="Helvetica,sans-Serif" font-size="10.00">tvm/node/structural</text>
<text text-anchor="middle" x="1744" y="-421.5" font-family="Helvetica,sans-Serif" font-size="10.00">_equal.h</text>
</a>
</g>
</g>
<!-- Node16&#45;&gt;Node32 -->
<g id="edge99" class="edge"><title>Node16&#45;&gt;Node32</title>
<path fill="none" stroke="midnightblue" d="M1426.5,-537.413C1482.67,-518.5 1617.97,-472.94 1692.54,-447.83"/>
<polygon fill="midnightblue" stroke="midnightblue" points="1693.84,-451.084 1702.2,-444.575 1691.61,-444.45 1693.84,-451.084"/>
</g>
<!-- Node16&#45;&gt;Node34 -->
<g id="edge98" class="edge"><title>Node16&#45;&gt;Node34</title>
<path fill="none" stroke="midnightblue" d="M1351.99,-538.987C1279.78,-528.479 1151.14,-509.027 1131,-501 1066.76,-475.398 1062.22,-447.992 1002,-414 980.287,-401.744 954.658,-389.962 935.198,-381.53"/>
<polygon fill="midnightblue" stroke="midnightblue" points="936.483,-378.273 925.912,-377.557 933.729,-384.708 936.483,-378.273"/>
</g>
<!-- Node36 -->
<g id="node36" class="node"><title>Node36</title>
<g id="a_node36"><a xlink:href="structural__hash_8h.html" target="_top" xlink:title="tvm/node/structural\l_hash.h">
<polygon fill="white" stroke="black" points="2009.5,-414.5 2009.5,-444.5 2120.5,-444.5 2120.5,-414.5 2009.5,-414.5"/>
<text text-anchor="start" x="2017.5" y="-432.5" font-family="Helvetica,sans-Serif" font-size="10.00">tvm/node/structural</text>
<text text-anchor="middle" x="2065" y="-421.5" font-family="Helvetica,sans-Serif" font-size="10.00">_hash.h</text>
</a>
</g>
</g>
<!-- Node16&#45;&gt;Node36 -->
<g id="edge100" class="edge"><title>Node16&#45;&gt;Node36</title>
<path fill="none" stroke="midnightblue" d="M1450.22,-544.075C1562.38,-539.312 1834.01,-525.552 1922,-501 1962.72,-489.638 2005.75,-466.739 2033.84,-450.113"/>
<polygon fill="midnightblue" stroke="midnightblue" points="2036.01,-452.896 2042.77,-444.742 2032.4,-446.898 2036.01,-452.896"/>
</g>
<!-- Node37 -->
<g id="node37" class="node"><title>Node37</title>
<g id="a_node37"><a xlink:href="repr__printer_8h.html" target="_top" xlink:title="Printer class to print repr string of each AST/IR nodes. ">
<polygon fill="white" stroke="black" points="1173,-481.5 1173,-500.5 1303,-500.5 1303,-481.5 1173,-481.5"/>
<text text-anchor="middle" x="1238" y="-488.5" font-family="Helvetica,sans-Serif" font-size="10.00">tvm/node/repr_printer.h</text>
</a>
</g>
</g>
<!-- Node16&#45;&gt;Node37 -->
<g id="edge95" class="edge"><title>Node16&#45;&gt;Node37</title>
<path fill="none" stroke="midnightblue" d="M1375.17,-537.444C1347.75,-528.359 1304.22,-513.939 1273.57,-503.783"/>
<polygon fill="midnightblue" stroke="midnightblue" points="1274.3,-500.339 1263.71,-500.516 1272.1,-506.984 1274.3,-500.339"/>
</g>
<!-- Node17&#45;&gt;Node6 -->
<g id="edge23" class="edge"><title>Node17&#45;&gt;Node6</title>
<path fill="none" stroke="midnightblue" d="M840.559,-179.413C767.631,-158.142 579.135,-103.164 504.796,-81.4823"/>
<polygon fill="midnightblue" stroke="midnightblue" points="505.668,-78.0909 495.088,-78.6508 503.708,-84.8109 505.668,-78.0909"/>
</g>
<!-- Node17&#45;&gt;Node8 -->
<g id="edge21" class="edge"><title>Node17&#45;&gt;Node8</title>
<path fill="none" stroke="midnightblue" d="M924.983,-179.444C986.659,-169.846 1086.61,-154.292 1152.07,-144.104"/>
<polygon fill="midnightblue" stroke="midnightblue" points="1152.93,-147.513 1162.27,-142.516 1151.85,-140.596 1152.93,-147.513"/>
</g>
<!-- Node17&#45;&gt;Node13 -->
<g id="edge24" class="edge"><title>Node17&#45;&gt;Node13</title>
<path fill="none" stroke="midnightblue" d="M862.409,-179.319C845.665,-160.172 805.329,-114.044 783.543,-89.1306"/>
<polygon fill="midnightblue" stroke="midnightblue" points="785.897,-86.5059 776.68,-81.282 780.628,-91.1138 785.897,-86.5059"/>
</g>
<!-- Node18 -->
<g id="node18" class="node"><title>Node18</title>
<polygon fill="white" stroke="#bfbfbf" points="846.5,-123.5 846.5,-142.5 893.5,-142.5 893.5,-123.5 846.5,-123.5"/>
<text text-anchor="middle" x="870" y="-130.5" font-family="Helvetica,sans-Serif" font-size="10.00">cstdlib</text>
</g>
<!-- Node17&#45;&gt;Node18 -->
<g id="edge22" class="edge"><title>Node17&#45;&gt;Node18</title>
<path fill="none" stroke="midnightblue" d="M870,-179.083C870,-172.006 870,-161.861 870,-152.986"/>
<polygon fill="midnightblue" stroke="midnightblue" points="873.5,-152.751 870,-142.751 866.5,-152.751 873.5,-152.751"/>
</g>
<!-- Node19&#45;&gt;Node8 -->
<g id="edge27" class="edge"><title>Node19&#45;&gt;Node8</title>
<path fill="none" stroke="midnightblue" d="M1812.37,-481.465C1776.52,-473.604 1723.66,-460.784 1679,-445 1647.68,-433.932 1641.51,-427.121 1611,-414 1477.1,-356.424 1446.76,-332.374 1307,-291 1226.26,-267.098 1174.58,-319.95 1121,-255 1089.38,-216.672 1153.83,-170.436 1191.84,-147.82"/>
<polygon fill="midnightblue" stroke="midnightblue" points="1193.96,-150.637 1200.86,-142.598 1190.45,-144.579 1193.96,-150.637"/>
</g>
<!-- Node19&#45;&gt;Node9 -->
<g id="edge26" class="edge"><title>Node19&#45;&gt;Node9</title>
<path fill="none" stroke="midnightblue" d="M1913.72,-485.602C1990.4,-479.213 2118.63,-465.804 2161,-445 2270.19,-391.387 2310.44,-366.957 2358,-255 2397.01,-163.181 2254.19,-111.267 2161.52,-87.8474"/>
<polygon fill="midnightblue" stroke="midnightblue" points="2162.14,-84.3974 2151.6,-85.4003 2160.47,-91.1936 2162.14,-84.3974"/>
</g>
<!-- Node19&#45;&gt;Node13 -->
<g id="edge94" class="edge"><title>Node19&#45;&gt;Node13</title>
<path fill="none" stroke="midnightblue" d="M1794.34,-483.096C1744.53,-476.354 1672.07,-464.255 1611,-445 1579.32,-435.012 1573.73,-426.611 1543,-414 1352.96,-336.003 1293.13,-346.092 1109,-255 1011.2,-206.616 999.515,-171.956 902,-123 870.644,-107.258 833.134,-93.4369 805.955,-84.2519"/>
<polygon fill="midnightblue" stroke="midnightblue" points="807.033,-80.9221 796.44,-81.0828 804.821,-87.5634 807.033,-80.9221"/>
</g>
<!-- Node19&#45;&gt;Node14 -->
<g id="edge93" class="edge"><title>Node19&#45;&gt;Node14</title>
<path fill="none" stroke="midnightblue" d="M1913.73,-488.7C1984.69,-485.718 2105.93,-476.053 2205,-445 2379.51,-390.302 2425.36,-366.92 2570,-255 2632.47,-206.662 2627.3,-172.312 2689,-123 2707.95,-107.855 2732.03,-94.6038 2750.51,-85.4797"/>
<polygon fill="midnightblue" stroke="midnightblue" points="2752.12,-88.5898 2759.61,-81.0964 2749.08,-82.2835 2752.12,-88.5898"/>
</g>
<!-- Node19&#45;&gt;Node17 -->
<g id="edge28" class="edge"><title>Node19&#45;&gt;Node17</title>
<path fill="none" stroke="midnightblue" d="M1794.42,-483.205C1739.08,-476.166 1654.68,-463.569 1583,-445 1310.44,-374.39 994.897,-243.449 899.056,-202.544"/>
<polygon fill="midnightblue" stroke="midnightblue" points="900.289,-199.264 889.718,-198.546 897.534,-205.699 900.289,-199.264"/>
</g>
<!-- Node20 -->
<g id="node20" class="node"><title>Node20</title>
<g id="a_node20"><a xlink:href="packed__func_8h.html" target="_top" xlink:title="Type&#45;erased function used across TVM API. ">
<polygon fill="white" stroke="black" points="1664.5,-291.5 1664.5,-321.5 1777.5,-321.5 1777.5,-291.5 1664.5,-291.5"/>
<text text-anchor="start" x="1672.5" y="-309.5" font-family="Helvetica,sans-Serif" font-size="10.00">tvm/runtime/packed</text>
<text text-anchor="middle" x="1721" y="-298.5" font-family="Helvetica,sans-Serif" font-size="10.00">_func.h</text>
</a>
</g>
</g>
<!-- Node19&#45;&gt;Node20 -->
<g id="edge29" class="edge"><title>Node19&#45;&gt;Node20</title>
<path fill="none" stroke="midnightblue" d="M1849.27,-481.317C1841.33,-466.937 1824.54,-437.437 1808,-414 1786.49,-383.521 1758.82,-350.572 1740.53,-329.523"/>
<polygon fill="midnightblue" stroke="midnightblue" points="1743,-327.026 1733.78,-321.803 1737.73,-331.634 1743,-327.026"/>
</g>
<!-- Node19&#45;&gt;Node24 -->
<g id="edge92" class="edge"><title>Node19&#45;&gt;Node24</title>
<path fill="none" stroke="midnightblue" d="M1868.6,-481.386C1912.36,-454.597 2042.3,-367.742 2089,-255 2095.36,-239.653 2089.88,-221.098 2083.84,-207.747"/>
<polygon fill="midnightblue" stroke="midnightblue" points="2086.91,-206.059 2079.29,-198.693 2080.65,-209.2 2086.91,-206.059"/>
</g>
<!-- Node26 -->
<g id="node26" class="node"><title>Node26</title>
<g id="a_node26"><a xlink:href="ndarray_8h.html" target="_top" xlink:title="A device&#45;independent managed NDArray abstraction. ">
<polygon fill="white" stroke="black" points="1723.5,-235.5 1723.5,-254.5 1846.5,-254.5 1846.5,-235.5 1723.5,-235.5"/>
<text text-anchor="middle" x="1785" y="-242.5" font-family="Helvetica,sans-Serif" font-size="10.00">tvm/runtime/ndarray.h</text>
</a>
</g>
</g>
<!-- Node19&#45;&gt;Node26 -->
<g id="edge65" class="edge"><title>Node19&#45;&gt;Node26</title>
<path fill="none" stroke="midnightblue" d="M1851.54,-481.316C1841.59,-446.11 1804.11,-313.561 1790.22,-264.452"/>
<polygon fill="midnightblue" stroke="midnightblue" points="1793.52,-263.25 1787.43,-254.58 1786.78,-265.155 1793.52,-263.25"/>
</g>
<!-- Node28 -->
<g id="node28" class="node"><title>Node28</title>
<g id="a_node28"><a xlink:href="data__type_8h.html" target="_top" xlink:title="tvm/runtime/data_type.h">
<polygon fill="white" stroke="black" points="2213,-235.5 2213,-254.5 2349,-254.5 2349,-235.5 2213,-235.5"/>
<text text-anchor="middle" x="2281" y="-242.5" font-family="Helvetica,sans-Serif" font-size="10.00">tvm/runtime/data_type.h</text>
</a>
</g>
</g>
<!-- Node19&#45;&gt;Node28 -->
<g id="edge66" class="edge"><title>Node19&#45;&gt;Node28</title>
<path fill="none" stroke="midnightblue" d="M1913.61,-485.762C1983.49,-479.853 2094.22,-467.271 2129,-445 2198.55,-400.466 2179.43,-353.858 2233,-291 2242.05,-280.376 2253.4,-269.641 2262.79,-261.321"/>
<polygon fill="midnightblue" stroke="midnightblue" points="2265.17,-263.892 2270.43,-254.696 2260.58,-258.604 2265.17,-263.892"/>
</g>
<!-- Node19&#45;&gt;Node32 -->
<g id="edge67" class="edge"><title>Node19&#45;&gt;Node32</title>
<path fill="none" stroke="midnightblue" d="M1838.24,-481.475C1822.78,-473.115 1798.7,-460.09 1778.75,-449.299"/>
<polygon fill="midnightblue" stroke="midnightblue" points="1780.39,-446.202 1769.92,-444.523 1777.06,-452.359 1780.39,-446.202"/>
</g>
<!-- Node19&#45;&gt;Node36 -->
<g id="edge86" class="edge"><title>Node19&#45;&gt;Node36</title>
<path fill="none" stroke="midnightblue" d="M1884.23,-481.475C1915.75,-472.588 1965.96,-458.429 2005.47,-447.286"/>
<polygon fill="midnightblue" stroke="midnightblue" points="2006.6,-450.606 2015.27,-444.523 2004.7,-443.868 2006.6,-450.606"/>
</g>
<!-- Node20&#45;&gt;Node5 -->
<g id="edge30" class="edge"><title>Node20&#45;&gt;Node5</title>
<path fill="none" stroke="midnightblue" d="M1698.15,-291.45C1630.59,-249.915 1432.32,-128.029 1364.82,-86.5261"/>
<polygon fill="midnightblue" stroke="midnightblue" points="1366.54,-83.4758 1356.18,-81.2201 1362.87,-89.439 1366.54,-83.4758"/>
</g>
<!-- Node20&#45;&gt;Node6 -->
<g id="edge63" class="edge"><title>Node20&#45;&gt;Node6</title>
<path fill="none" stroke="midnightblue" d="M1664.47,-304.733C1518.37,-301.525 1117.31,-284.92 797,-199 683.649,-168.595 555.705,-111.179 501.066,-85.4928"/>
<polygon fill="midnightblue" stroke="midnightblue" points="502.273,-82.192 491.737,-81.0795 499.28,-88.5197 502.273,-82.192"/>
</g>
<!-- Node20&#45;&gt;Node8 -->
<g id="edge56" class="edge"><title>Node20&#45;&gt;Node8</title>
<path fill="none" stroke="midnightblue" d="M1664.49,-297.884C1566.02,-284.554 1372.73,-258.107 1366,-255 1319.69,-233.619 1319.92,-210.755 1280,-179 1266.46,-168.226 1250.6,-156.907 1238.18,-148.317"/>
<polygon fill="midnightblue" stroke="midnightblue" points="1240.06,-145.359 1229.83,-142.59 1236.1,-151.132 1240.06,-145.359"/>
</g>
<!-- Node20&#45;&gt;Node9 -->
<g id="edge31" class="edge"><title>Node20&#45;&gt;Node9</title>
<path fill="none" stroke="midnightblue" d="M1762.97,-291.407C1789.7,-282.011 1824.85,-268.873 1855,-255 1898.14,-235.149 2003.16,-176.318 2037,-143 2051.62,-128.606 2065.08,-109.642 2074.5,-95.0088"/>
<polygon fill="midnightblue" stroke="midnightblue" points="2077.46,-96.8675 2079.81,-86.5365 2071.53,-93.1473 2077.46,-96.8675"/>
</g>
<!-- Node20&#45;&gt;Node13 -->
<g id="edge64" class="edge"><title>Node20&#45;&gt;Node13</title>
<path fill="none" stroke="midnightblue" d="M1664.27,-299.69C1590.7,-291.49 1466.93,-275.239 1426,-255 1348.76,-216.806 1362.56,-158.398 1284,-123 1200.37,-85.3192 922.485,-75.6202 813.452,-73.2378"/>
<polygon fill="midnightblue" stroke="midnightblue" points="813.205,-69.732 803.134,-73.0234 813.059,-76.7305 813.205,-69.732"/>
</g>
<!-- Node20&#45;&gt;Node14 -->
<g id="edge60" class="edge"><title>Node20&#45;&gt;Node14</title>
<path fill="none" stroke="midnightblue" d="M1777.55,-291.423C1810.59,-282.481 1852.78,-269.815 1889,-255 1906.66,-247.775 1909.99,-243.653 1927,-235 2039.51,-177.772 2064.94,-151.115 2188,-123 2397.1,-75.2283 2657.16,-71.7626 2746.85,-72.1303"/>
<polygon fill="midnightblue" stroke="midnightblue" points="2746.91,-75.6306 2756.93,-72.1914 2746.95,-68.6307 2746.91,-75.6306"/>
</g>
<!-- Node21 -->
<g id="node21" class="node"><title>Node21</title>
<g id="a_node21"><a xlink:href="runtime_2module_8h.html" target="_top" xlink:title="Runtime container of the functions generated by TVM, This is used to support dynamically link...">
<polygon fill="white" stroke="black" points="1446,-235.5 1446,-254.5 1570,-254.5 1570,-235.5 1446,-235.5"/>
<text text-anchor="middle" x="1508" y="-242.5" font-family="Helvetica,sans-Serif" font-size="10.00">tvm/runtime/module.h</text>
</a>
</g>
</g>
<!-- Node20&#45;&gt;Node21 -->
<g id="edge32" class="edge"><title>Node20&#45;&gt;Node21</title>
<path fill="none" stroke="midnightblue" d="M1664.96,-291.475C1626.39,-281.075 1576.41,-267.078 1543.27,-257.372"/>
<polygon fill="midnightblue" stroke="midnightblue" points="1544.14,-253.979 1533.55,-254.506 1542.16,-260.693 1544.14,-253.979"/>
</g>
<!-- Node20&#45;&gt;Node23 -->
<g id="edge62" class="edge"><title>Node20&#45;&gt;Node23</title>
<path fill="none" stroke="midnightblue" d="M1664.36,-297.322C1583.62,-285.393 1444.29,-263.697 1437,-255 1426.37,-242.317 1427.92,-222.84 1431.18,-208.511"/>
<polygon fill="midnightblue" stroke="midnightblue" points="1434.59,-209.324 1433.84,-198.756 1427.83,-207.486 1434.59,-209.324"/>
</g>
<!-- Node20&#45;&gt;Node24 -->
<g id="edge59" class="edge"><title>Node20&#45;&gt;Node24</title>
<path fill="none" stroke="midnightblue" d="M1777.72,-294.408C1819.54,-285.556 1877.51,-271.863 1927,-255 1938.87,-250.956 2006.56,-220.54 2045.81,-202.783"/>
<polygon fill="midnightblue" stroke="midnightblue" points="2047.47,-205.878 2055.13,-198.566 2044.58,-199.501 2047.47,-205.878"/>
</g>
<!-- Node20&#45;&gt;Node26 -->
<g id="edge42" class="edge"><title>Node20&#45;&gt;Node26</title>
<path fill="none" stroke="midnightblue" d="M1736.17,-291.399C1745.75,-282.486 1758.16,-270.952 1768.07,-261.741"/>
<polygon fill="midnightblue" stroke="midnightblue" points="1770.75,-264.03 1775.69,-254.658 1765.98,-258.903 1770.75,-264.03"/>
</g>
<!-- Node20&#45;&gt;Node28 -->
<g id="edge52" class="edge"><title>Node20&#45;&gt;Node28</title>
<path fill="none" stroke="midnightblue" d="M1777.52,-299.495C1878.07,-288.811 2088.19,-266.486 2202.63,-254.327"/>
<polygon fill="midnightblue" stroke="midnightblue" points="2203.15,-257.791 2212.73,-253.254 2202.41,-250.83 2203.15,-257.791"/>
</g>
<!-- Node29 -->
<g id="node29" class="node"><title>Node29</title>
<polygon fill="white" stroke="#bfbfbf" points="2017.5,-235.5 2017.5,-254.5 2080.5,-254.5 2080.5,-235.5 2017.5,-235.5"/>
<text text-anchor="middle" x="2049" y="-242.5" font-family="Helvetica,sans-Serif" font-size="10.00">functional</text>
</g>
<!-- Node20&#45;&gt;Node29 -->
<g id="edge57" class="edge"><title>Node20&#45;&gt;Node29</title>
<path fill="none" stroke="midnightblue" d="M1777.76,-295.204C1843.14,-283.343 1949.02,-264.137 2007.27,-253.57"/>
<polygon fill="midnightblue" stroke="midnightblue" points="2008.02,-256.992 2017.23,-251.763 2006.77,-250.104 2008.02,-256.992"/>
</g>
<!-- Node30 -->
<g id="node30" class="node"><title>Node30</title>
<polygon fill="white" stroke="#bfbfbf" points="1664.5,-235.5 1664.5,-254.5 1705.5,-254.5 1705.5,-235.5 1664.5,-235.5"/>
<text text-anchor="middle" x="1685" y="-242.5" font-family="Helvetica,sans-Serif" font-size="10.00">tuple</text>
</g>
<!-- Node20&#45;&gt;Node30 -->
<g id="edge58" class="edge"><title>Node20&#45;&gt;Node30</title>
<path fill="none" stroke="midnightblue" d="M1712.47,-291.399C1707.4,-283.021 1700.93,-272.327 1695.54,-263.423"/>
<polygon fill="midnightblue" stroke="midnightblue" points="1698.41,-261.402 1690.24,-254.658 1692.42,-265.025 1698.41,-261.402"/>
</g>
<!-- Node20&#45;&gt;Node31 -->
<g id="edge61" class="edge"><title>Node20&#45;&gt;Node31</title>
<path fill="none" stroke="midnightblue" d="M1777.62,-301.387C1937.01,-289.807 2385.9,-257.195 2508.64,-248.278"/>
<polygon fill="midnightblue" stroke="midnightblue" points="2509.13,-251.752 2518.85,-247.537 2508.62,-244.771 2509.13,-251.752"/>
</g>
<!-- Node21&#45;&gt;Node8 -->
<g id="edge35" class="edge"><title>Node21&#45;&gt;Node8</title>
<path fill="none" stroke="midnightblue" d="M1506.05,-235.213C1502.41,-220.956 1493.12,-192.976 1474,-179 1444.75,-157.626 1351.73,-145.395 1286.04,-139.225"/>
<polygon fill="midnightblue" stroke="midnightblue" points="1286.03,-135.709 1275.75,-138.286 1285.39,-142.68 1286.03,-135.709"/>
</g>
<!-- Node21&#45;&gt;Node9 -->
<g id="edge34" class="edge"><title>Node21&#45;&gt;Node9</title>
<path fill="none" stroke="midnightblue" d="M1512.17,-235.439C1524.07,-212.144 1560.69,-147.706 1613,-123 1682.24,-90.2978 1898.78,-78.4973 2014.06,-74.4603"/>
<polygon fill="midnightblue" stroke="midnightblue" points="2014.34,-77.9529 2024.21,-74.1156 2014.1,-70.957 2014.34,-77.9529"/>
</g>
<!-- Node21&#45;&gt;Node14 -->
<g id="edge39" class="edge"><title>Node21&#45;&gt;Node14</title>
<path fill="none" stroke="midnightblue" d="M1521.83,-235.5C1561.35,-211.775 1678.9,-145.13 1787,-123 1976.75,-84.1559 2597.27,-74.5984 2746.51,-72.8392"/>
<polygon fill="midnightblue" stroke="midnightblue" points="2746.85,-76.3356 2756.81,-72.7215 2746.77,-69.3361 2746.85,-76.3356"/>
</g>
<!-- Node21&#45;&gt;Node17 -->
<g id="edge36" class="edge"><title>Node21&#45;&gt;Node17</title>
<path fill="none" stroke="midnightblue" d="M1445.96,-238.749C1327.66,-228.736 1070.38,-206.96 943.612,-196.23"/>
<polygon fill="midnightblue" stroke="midnightblue" points="943.865,-192.739 933.605,-195.384 943.274,-199.715 943.865,-192.739"/>
</g>
<!-- Node21&#45;&gt;Node20 -->
<g id="edge41" class="edge"><title>Node21&#45;&gt;Node20</title>
<path fill="none" stroke="midnightblue" d="M1543.35,-254.506C1576.95,-263.353 1627.8,-277.44 1666.55,-288.568"/>
<polygon fill="midnightblue" stroke="midnightblue" points="1666.04,-292.066 1676.62,-291.475 1667.98,-285.34 1666.04,-292.066"/>
</g>
<!-- Node22 -->
<g id="node22" class="node"><title>Node22</title>
<polygon fill="white" stroke="#bfbfbf" points="1796,-123.5 1796,-142.5 1856,-142.5 1856,-123.5 1796,-123.5"/>
<text text-anchor="middle" x="1826" y="-130.5" font-family="Helvetica,sans-Serif" font-size="10.00">dmlc/io.h</text>
</g>
<!-- Node21&#45;&gt;Node22 -->
<g id="edge33" class="edge"><title>Node21&#45;&gt;Node22</title>
<path fill="none" stroke="midnightblue" d="M1532.69,-235.46C1588.93,-216.006 1726.68,-168.355 1791.38,-145.977"/>
<polygon fill="midnightblue" stroke="midnightblue" points="1792.8,-149.187 1801.11,-142.61 1790.51,-142.572 1792.8,-149.187"/>
</g>
<!-- Node21&#45;&gt;Node23 -->
<g id="edge37" class="edge"><title>Node21&#45;&gt;Node23</title>
<path fill="none" stroke="midnightblue" d="M1496.59,-235.324C1485.89,-227.185 1469.66,-214.839 1456.84,-205.087"/>
<polygon fill="midnightblue" stroke="midnightblue" points="1458.69,-202.102 1448.61,-198.834 1454.46,-207.673 1458.69,-202.102"/>
</g>
<!-- Node21&#45;&gt;Node24 -->
<g id="edge38" class="edge"><title>Node21&#45;&gt;Node24</title>
<path fill="none" stroke="midnightblue" d="M1570.19,-238.067C1689.66,-226.668 1947.62,-202.058 2040.12,-193.232"/>
<polygon fill="midnightblue" stroke="midnightblue" points="2040.69,-196.694 2050.32,-192.26 2040.03,-189.725 2040.69,-196.694"/>
</g>
<!-- Node21&#45;&gt;Node25 -->
<g id="edge40" class="edge"><title>Node21&#45;&gt;Node25</title>
<path fill="none" stroke="midnightblue" d="M1445.67,-241.248C1234.08,-231.905 545.145,-201.486 341.922,-192.513"/>
<polygon fill="midnightblue" stroke="midnightblue" points="341.912,-189.01 331.767,-192.065 341.603,-196.003 341.912,-189.01"/>
</g>
<!-- Node26&#45;&gt;Node6 -->
<g id="edge51" class="edge"><title>Node26&#45;&gt;Node6</title>
<path fill="none" stroke="midnightblue" d="M1758.05,-235.499C1715.87,-222.363 1631.56,-196.794 1559,-179 1437.86,-149.294 1407.65,-139.364 1284,-123 1244.78,-117.809 650.646,-82.8406 505.707,-74.3533"/>
<polygon fill="midnightblue" stroke="midnightblue" points="505.499,-70.8352 495.311,-73.7448 505.09,-77.8232 505.499,-70.8352"/>
</g>
<!-- Node26&#45;&gt;Node8 -->
<g id="edge44" class="edge"><title>Node26&#45;&gt;Node8</title>
<path fill="none" stroke="midnightblue" d="M1750.57,-235.494C1696.7,-222.353 1589.1,-196.776 1497,-179 1425.17,-165.137 1342.4,-152.207 1285.59,-143.798"/>
<polygon fill="midnightblue" stroke="midnightblue" points="1286.05,-140.328 1275.64,-142.333 1285.03,-147.253 1286.05,-140.328"/>
</g>
<!-- Node26&#45;&gt;Node9 -->
<g id="edge43" class="edge"><title>Node26&#45;&gt;Node9</title>
<path fill="none" stroke="midnightblue" d="M1824.78,-235.466C1854.11,-228.219 1894.42,-216.227 1927,-199 1981.86,-169.988 2036.77,-121.713 2066.15,-93.942"/>
<polygon fill="midnightblue" stroke="midnightblue" points="2068.93,-96.1268 2073.74,-86.6859 2064.09,-91.0677 2068.93,-96.1268"/>
</g>
<!-- Node26&#45;&gt;Node15 -->
<g id="edge49" class="edge"><title>Node26&#45;&gt;Node15</title>
<path fill="none" stroke="midnightblue" d="M1784.46,-235.45C1782.51,-212.741 1773.82,-150.764 1736,-123 1655.85,-64.1559 1387.98,-103.963 1290,-87 1283.72,-85.9132 1277.12,-84.4308 1270.76,-82.827"/>
<polygon fill="midnightblue" stroke="midnightblue" points="1271.63,-79.4358 1261.06,-80.2461 1269.83,-86.2004 1271.63,-79.4358"/>
</g>
<!-- Node26&#45;&gt;Node24 -->
<g id="edge50" class="edge"><title>Node26&#45;&gt;Node24</title>
<path fill="none" stroke="midnightblue" d="M1830.79,-235.444C1889.16,-224.537 1988.69,-205.94 2040.47,-196.265"/>
<polygon fill="midnightblue" stroke="midnightblue" points="2041.28,-199.675 2050.46,-194.398 2039.99,-192.794 2041.28,-199.675"/>
</g>
<!-- Node27 -->
<g id="node27" class="node"><title>Node27</title>
<g id="a_node27"><a xlink:href="serializer_8h.html" target="_top" xlink:title="Serializer extension to support TVM data types Include this file to enable serialization of DLDataTyp...">
<polygon fill="white" stroke="red" points="1788,-179.5 1788,-198.5 1918,-198.5 1918,-179.5 1788,-179.5"/>
<text text-anchor="middle" x="1853" y="-186.5" font-family="Helvetica,sans-Serif" font-size="10.00">tvm/runtime/serializer.h</text>
</a>
</g>
</g>
<!-- Node26&#45;&gt;Node27 -->
<g id="edge45" class="edge"><title>Node26&#45;&gt;Node27</title>
<path fill="none" stroke="midnightblue" d="M1790.81,-235.324C1799.43,-227.058 1814.98,-214.453 1828.5,-204.632"/>
<polygon fill="midnightblue" stroke="midnightblue" points="1830.83,-207.272 1836.99,-198.655 1826.8,-201.548 1830.83,-207.272"/>
</g>
<!-- Node27&#45;&gt;Node9 -->
<g id="edge47" class="edge"><title>Node27&#45;&gt;Node9</title>
<path fill="none" stroke="midnightblue" d="M1861.43,-179.191C1875.06,-165.405 1903.33,-138.69 1932,-123 1958.35,-108.576 1989.49,-97.4617 2016.99,-89.38"/>
<polygon fill="midnightblue" stroke="midnightblue" points="2018.29,-92.65 2026.94,-86.5392 2016.37,-85.9189 2018.29,-92.65"/>
</g>
<!-- Node27&#45;&gt;Node22 -->
<g id="edge46" class="edge"><title>Node27&#45;&gt;Node22</title>
<path fill="none" stroke="midnightblue" d="M1848.54,-179.083C1844.85,-171.691 1839.48,-160.953 1834.91,-151.811"/>
<polygon fill="midnightblue" stroke="midnightblue" points="1837.98,-150.13 1830.38,-142.751 1831.72,-153.261 1837.98,-150.13"/>
</g>
<!-- Node27&#45;&gt;Node26 -->
<g id="edge48" class="edge"><title>Node27&#45;&gt;Node26</title>
<path fill="none" stroke="midnightblue" d="M1847.02,-198.834C1838.37,-207.106 1822.92,-219.62 1809.48,-229.38"/>
<polygon fill="midnightblue" stroke="midnightblue" points="1807.2,-226.706 1801.04,-235.324 1811.23,-232.43 1807.2,-226.706"/>
</g>
<!-- Node28&#45;&gt;Node5 -->
<g id="edge54" class="edge"><title>Node28&#45;&gt;Node5</title>
<path fill="none" stroke="midnightblue" d="M2267.6,-235.414C2230.78,-212.339 2124.3,-148.98 2026,-123 1907.09,-91.5749 1534.69,-77.9827 1395.34,-73.906"/>
<polygon fill="midnightblue" stroke="midnightblue" points="1395.42,-70.4069 1385.32,-73.6176 1395.21,-77.404 1395.42,-70.4069"/>
</g>
<!-- Node28&#45;&gt;Node9 -->
<g id="edge53" class="edge"><title>Node28&#45;&gt;Node9</title>
<path fill="none" stroke="midnightblue" d="M2271.43,-235.495C2242.28,-209.589 2153.97,-131.122 2111.42,-93.3093"/>
<polygon fill="midnightblue" stroke="midnightblue" points="2113.59,-90.5562 2103.79,-86.53 2108.94,-95.7888 2113.59,-90.5562"/>
</g>
<!-- Node28&#45;&gt;Node13 -->
<g id="edge55" class="edge"><title>Node28&#45;&gt;Node13</title>
<path fill="none" stroke="midnightblue" d="M2258.93,-235.402C2218.9,-219.873 2135.72,-187.933 2106,-179 2000.69,-147.347 1973.93,-138.038 1865,-123 1759.73,-108.468 1005.17,-80.8979 813.293,-74.0628"/>
<polygon fill="midnightblue" stroke="midnightblue" points="813.14,-70.5552 803.022,-73.6976 812.891,-77.5508 813.14,-70.5552"/>
</g>
<!-- Node32&#45;&gt;Node14 -->
<g id="edge85" class="edge"><title>Node32&#45;&gt;Node14</title>
<path fill="none" stroke="midnightblue" d="M1799.83,-414.952C1931.05,-382.755 2255.68,-300.925 2358,-255 2365.16,-251.788 2470.34,-183.151 2477,-179 2517.62,-153.672 2524.75,-141.261 2569,-123 2629.39,-98.0767 2704.86,-83.6865 2746.9,-77.0367"/>
<polygon fill="midnightblue" stroke="midnightblue" points="2747.49,-80.4878 2756.84,-75.5111 2746.42,-73.5688 2747.49,-80.4878"/>
</g>
<!-- Node32&#45;&gt;Node28 -->
<g id="edge68" class="edge"><title>Node32&#45;&gt;Node28</title>
<path fill="none" stroke="midnightblue" d="M1776.4,-414.475C1848.51,-383.391 2020.64,-309.96 2081,-291 2127.95,-276.251 2182.54,-264.306 2222.81,-256.439"/>
<polygon fill="midnightblue" stroke="midnightblue" points="2223.57,-259.857 2232.72,-254.528 2222.24,-252.984 2223.57,-259.857"/>
</g>
<!-- Node33 -->
<g id="node33" class="node"><title>Node33</title>
<g id="a_node33"><a xlink:href="functor_8h.html" target="_top" xlink:title="Defines the Functor data structures. ">
<polygon fill="white" stroke="black" points="1130.5,-235.5 1130.5,-254.5 1237.5,-254.5 1237.5,-235.5 1130.5,-235.5"/>
<text text-anchor="middle" x="1184" y="-242.5" font-family="Helvetica,sans-Serif" font-size="10.00">tvm/node/functor.h</text>
</a>
</g>
</g>
<!-- Node32&#45;&gt;Node33 -->
<g id="edge69" class="edge"><title>Node32&#45;&gt;Node33</title>
<path fill="none" stroke="midnightblue" d="M1716.67,-414.474C1661.94,-386.933 1534.42,-325.47 1421,-291 1363.39,-273.491 1295.74,-261.455 1247.49,-254.267"/>
<polygon fill="midnightblue" stroke="midnightblue" points="1247.9,-250.79 1237.5,-252.807 1246.89,-257.717 1247.9,-250.79"/>
</g>
<!-- Node32&#45;&gt;Node34 -->
<g id="edge75" class="edge"><title>Node32&#45;&gt;Node34</title>
<path fill="none" stroke="midnightblue" d="M1688.3,-424.55C1540.39,-414.061 1137.97,-385.522 974.964,-373.962"/>
<polygon fill="midnightblue" stroke="midnightblue" points="974.801,-370.441 964.578,-373.225 974.306,-377.424 974.801,-370.441"/>
</g>
<!-- Node33&#45;&gt;Node5 -->
<g id="edge70" class="edge"><title>Node33&#45;&gt;Node5</title>
<path fill="none" stroke="midnightblue" d="M1193.11,-235.349C1211.03,-218.212 1251.92,-178.53 1284,-143 1300.01,-125.27 1317.27,-103.98 1328.76,-89.4677"/>
<polygon fill="midnightblue" stroke="midnightblue" points="1331.68,-91.4236 1335.11,-81.3999 1326.18,-87.0958 1331.68,-91.4236"/>
</g>
<!-- Node33&#45;&gt;Node6 -->
<g id="edge74" class="edge"><title>Node33&#45;&gt;Node6</title>
<path fill="none" stroke="midnightblue" d="M1168.37,-235.366C1126.59,-212.725 1008.28,-151.429 902,-123 757.281,-84.287 577.126,-75.239 505.491,-73.134"/>
<polygon fill="midnightblue" stroke="midnightblue" points="505.426,-69.6311 495.336,-72.8616 505.239,-76.6286 505.426,-69.6311"/>
</g>
<!-- Node33&#45;&gt;Node8 -->
<g id="edge71" class="edge"><title>Node33&#45;&gt;Node8</title>
<path fill="none" stroke="midnightblue" d="M1186.59,-235.368C1191.94,-217.537 1204.31,-176.295 1211.52,-152.272"/>
<polygon fill="midnightblue" stroke="midnightblue" points="1214.9,-153.175 1214.42,-142.591 1208.2,-151.164 1214.9,-153.175"/>
</g>
<!-- Node33&#45;&gt;Node13 -->
<g id="edge73" class="edge"><title>Node33&#45;&gt;Node13</title>
<path fill="none" stroke="midnightblue" d="M1181.3,-235.483C1173.64,-212.858 1149.46,-151.07 1106,-123 1058.44,-92.2815 893.607,-79.2674 813.454,-74.6557"/>
<polygon fill="midnightblue" stroke="midnightblue" points="813.368,-71.1456 803.189,-74.0845 812.979,-78.1348 813.368,-71.1456"/>
</g>
<!-- Node33&#45;&gt;Node24 -->
<g id="edge72" class="edge"><title>Node33&#45;&gt;Node24</title>
<path fill="none" stroke="midnightblue" d="M1237.61,-240.765C1359.87,-233.385 1668.7,-214.729 1927,-199 1965.75,-196.64 2010.26,-193.913 2040.05,-192.085"/>
<polygon fill="midnightblue" stroke="midnightblue" points="2040.56,-195.561 2050.32,-191.454 2040.13,-188.574 2040.56,-195.561"/>
</g>
<!-- Node34&#45;&gt;Node6 -->
<g id="edge83" class="edge"><title>Node34&#45;&gt;Node6</title>
<path fill="none" stroke="midnightblue" d="M888.99,-358.486C872.835,-349.755 847.3,-335.569 826,-322 695.211,-238.684 545.758,-126.955 493.36,-87.2535"/>
<polygon fill="midnightblue" stroke="midnightblue" points="495.344,-84.3654 485.263,-81.1058 491.111,-89.9405 495.344,-84.3654"/>
</g>
<!-- Node34&#45;&gt;Node8 -->
<g id="edge76" class="edge"><title>Node34&#45;&gt;Node8</title>
<path fill="none" stroke="midnightblue" d="M901.156,-358.261C891.791,-335.494 870.501,-273.454 898,-235 928.28,-192.659 1072.5,-160.102 1156.29,-144.381"/>
<polygon fill="midnightblue" stroke="midnightblue" points="1157,-147.809 1166.2,-142.548 1155.73,-140.926 1157,-147.809"/>
</g>
<!-- Node34&#45;&gt;Node13 -->
<g id="edge79" class="edge"><title>Node34&#45;&gt;Node13</title>
<path fill="none" stroke="midnightblue" d="M890.44,-358.244C878.026,-350.155 860.427,-337.127 849,-322 793.63,-248.697 775.834,-135.777 770.788,-91.3648"/>
<polygon fill="midnightblue" stroke="midnightblue" points="774.244,-90.7587 769.723,-81.1768 767.281,-91.4866 774.244,-90.7587"/>
</g>
<!-- Node34&#45;&gt;Node14 -->
<g id="edge84" class="edge"><title>Node34&#45;&gt;Node14</title>
<path fill="none" stroke="midnightblue" d="M964.684,-365.943C1144.63,-362.475 1680,-350.021 1852,-322 1960.04,-304.399 1984.8,-288.524 2089,-255 2253.22,-202.169 2286.88,-165.775 2454,-123 2559.19,-96.0745 2687.44,-81.2855 2746.44,-75.4596"/>
<polygon fill="midnightblue" stroke="midnightblue" points="2747.02,-78.9206 2756.63,-74.4752 2746.34,-71.953 2747.02,-78.9206"/>
</g>
<!-- Node34&#45;&gt;Node17 -->
<g id="edge77" class="edge"><title>Node34&#45;&gt;Node17</title>
<path fill="none" stroke="midnightblue" d="M891.936,-358.436C881.086,-350.471 866.427,-337.515 860,-322 844.301,-284.099 855.357,-234.877 863.489,-208.547"/>
<polygon fill="midnightblue" stroke="midnightblue" points="866.907,-209.358 866.709,-198.765 860.258,-207.169 866.907,-209.358"/>
</g>
<!-- Node34&#45;&gt;Node20 -->
<g id="edge78" class="edge"><title>Node34&#45;&gt;Node20</title>
<path fill="none" stroke="midnightblue" d="M964.672,-362.649C1113.09,-351.827 1498.14,-323.751 1654.02,-312.384"/>
<polygon fill="midnightblue" stroke="midnightblue" points="1654.67,-315.846 1664.39,-311.628 1654.16,-308.864 1654.67,-315.846"/>
</g>
<!-- Node34&#45;&gt;Node24 -->
<g id="edge80" class="edge"><title>Node34&#45;&gt;Node24</title>
<path fill="none" stroke="midnightblue" d="M964.556,-366.332C1135.99,-364.034 1628.45,-354.691 1786,-322 1869.17,-304.741 1888.43,-291.791 1965,-255 1996.8,-239.72 2031.46,-218.125 2052.97,-204.092"/>
<polygon fill="midnightblue" stroke="midnightblue" points="2054.91,-207.006 2061.33,-198.582 2051.05,-201.161 2054.91,-207.006"/>
</g>
<!-- Node34&#45;&gt;Node25 -->
<g id="edge82" class="edge"><title>Node34&#45;&gt;Node25</title>
<path fill="none" stroke="midnightblue" d="M848.468,-358.475C800.55,-350.702 730.22,-338.003 670,-322 535.819,-286.341 380.809,-227.659 315.99,-202.303"/>
<polygon fill="midnightblue" stroke="midnightblue" points="316.966,-198.926 306.379,-198.528 314.407,-205.441 316.966,-198.926"/>
</g>
<!-- Node35 -->
<g id="node35" class="node"><title>Node35</title>
<polygon fill="white" stroke="#bfbfbf" points="902.5,-297 902.5,-316 979.5,-316 979.5,-297 902.5,-297"/>
<text text-anchor="middle" x="941" y="-304" font-family="Helvetica,sans-Serif" font-size="10.00">initializer_list</text>
</g>
<!-- Node34&#45;&gt;Node35 -->
<g id="edge81" class="edge"><title>Node34&#45;&gt;Node35</title>
<path fill="none" stroke="midnightblue" d="M910.158,-358.475C915.451,-349.727 923.835,-335.869 930.527,-324.809"/>
<polygon fill="midnightblue" stroke="midnightblue" points="933.67,-326.377 935.852,-316.009 927.68,-322.753 933.67,-326.377"/>
</g>
<!-- Node36&#45;&gt;Node14 -->
<g id="edge90" class="edge"><title>Node36&#45;&gt;Node14</title>
<path fill="none" stroke="midnightblue" d="M2092.72,-414.313C2149.25,-385.248 2281.78,-316.491 2391,-255 2491.03,-198.686 2507.99,-169.375 2613,-123 2657.95,-103.148 2713.02,-88.0911 2747.06,-79.7788"/>
<polygon fill="midnightblue" stroke="midnightblue" points="2748,-83.1515 2756.91,-77.4178 2746.37,-76.3442 2748,-83.1515"/>
</g>
<!-- Node36&#45;&gt;Node28 -->
<g id="edge87" class="edge"><title>Node36&#45;&gt;Node28</title>
<path fill="none" stroke="midnightblue" d="M2075.88,-414.152C2096.73,-387.373 2144.7,-329.059 2195,-291 2212.07,-278.08 2233.39,-266.9 2250.52,-258.915"/>
<polygon fill="midnightblue" stroke="midnightblue" points="2252.4,-261.907 2260.06,-254.594 2249.51,-255.53 2252.4,-261.907"/>
</g>
<!-- Node36&#45;&gt;Node29 -->
<g id="edge91" class="edge"><title>Node36&#45;&gt;Node29</title>
<path fill="none" stroke="midnightblue" d="M2063.77,-414.483C2060.93,-382.097 2053.91,-302.037 2050.68,-265.159"/>
<polygon fill="midnightblue" stroke="midnightblue" points="2054.13,-264.475 2049.77,-254.819 2047.16,-265.086 2054.13,-264.475"/>
</g>
<!-- Node36&#45;&gt;Node33 -->
<g id="edge88" class="edge"><title>Node36&#45;&gt;Node33</title>
<path fill="none" stroke="midnightblue" d="M2011.48,-414.481C1908.65,-387.874 1676.08,-329.298 1478,-291 1399.04,-275.734 1307.35,-262.388 1247.63,-254.276"/>
<polygon fill="midnightblue" stroke="midnightblue" points="1247.97,-250.791 1237.6,-252.921 1247.04,-257.728 1247.97,-250.791"/>
</g>
<!-- Node36&#45;&gt;Node34 -->
<g id="edge89" class="edge"><title>Node36&#45;&gt;Node34</title>
<path fill="none" stroke="midnightblue" d="M2009.36,-425.255C1957.31,-422.245 1877.39,-417.687 1808,-414 1497.34,-397.496 1126.46,-379.574 974.809,-372.322"/>
<polygon fill="midnightblue" stroke="midnightblue" points="974.862,-368.821 964.706,-371.84 974.528,-375.813 974.862,-368.821"/>
</g>
<!-- Node37&#45;&gt;Node33 -->
<g id="edge96" class="edge"><title>Node37&#45;&gt;Node33</title>
<path fill="none" stroke="midnightblue" d="M1236.08,-481.316C1228.29,-446.11 1198.95,-313.561 1188.08,-264.452"/>
<polygon fill="midnightblue" stroke="midnightblue" points="1191.48,-263.587 1185.9,-254.58 1184.64,-265.1 1191.48,-263.587"/>
</g>
<!-- Node38 -->
<g id="node38" class="node"><title>Node38</title>
<polygon fill="white" stroke="#bfbfbf" points="1092.5,-420 1092.5,-439 1151.5,-439 1151.5,-420 1092.5,-420"/>
<text text-anchor="middle" x="1122" y="-427" font-family="Helvetica,sans-Serif" font-size="10.00">iostream</text>
</g>
<!-- Node37&#45;&gt;Node38 -->
<g id="edge97" class="edge"><title>Node37&#45;&gt;Node38</title>
<path fill="none" stroke="midnightblue" d="M1221.38,-481.475C1202.08,-471.578 1170.04,-455.142 1147.57,-443.615"/>
<polygon fill="midnightblue" stroke="midnightblue" points="1149.08,-440.459 1138.59,-439.009 1145.89,-446.687 1149.08,-440.459"/>
</g>
<!-- Node39&#45;&gt;Node8 -->
<g id="edge107" class="edge"><title>Node39&#45;&gt;Node8</title>
<path fill="none" stroke="midnightblue" d="M1260.78,-598.039C1135.4,-584.592 760,-535.558 760,-430.5 760,-430.5 760,-430.5 760,-367 760,-281.842 734.205,-236.522 797,-179 822.334,-155.793 1035.64,-142.448 1148.14,-136.963"/>
<polygon fill="midnightblue" stroke="midnightblue" points="1148.56,-140.447 1158.38,-136.472 1148.22,-133.455 1148.56,-140.447"/>
</g>
<!-- Node39&#45;&gt;Node14 -->
<g id="edge109" class="edge"><title>Node39&#45;&gt;Node14</title>
<path fill="none" stroke="midnightblue" d="M1341.47,-602.737C1486.33,-604.009 1990.45,-596.634 2367,-445 2476.72,-400.817 2513.96,-399.854 2603,-322 2684.45,-250.786 2747.9,-134.533 2770.28,-90.3244"/>
<polygon fill="midnightblue" stroke="midnightblue" points="2773.41,-91.8712 2774.75,-81.3603 2767.15,-88.7469 2773.41,-91.8712"/>
</g>
<!-- Node39&#45;&gt;Node16 -->
<g id="edge108" class="edge"><title>Node39&#45;&gt;Node16</title>
<path fill="none" stroke="midnightblue" d="M1317.07,-593.324C1332.96,-584.743 1357.51,-571.486 1375.96,-561.522"/>
<polygon fill="midnightblue" stroke="midnightblue" points="1377.84,-564.486 1384.97,-556.655 1374.51,-558.326 1377.84,-564.486"/>
</g>
<!-- Node40&#45;&gt;Node8 -->
<g id="edge111" class="edge"><title>Node40&#45;&gt;Node8</title>
<path fill="none" stroke="midnightblue" d="M1475.18,-649.462C1477.62,-630.994 1483,-585.939 1483,-548 1483,-548 1483,-548 1483,-367 1483,-323.408 1456.13,-316.805 1421,-291 1386.28,-265.497 1366.61,-279.249 1331,-255 1287.44,-225.34 1248.03,-176.44 1229,-150.831"/>
<polygon fill="midnightblue" stroke="midnightblue" points="1231.67,-148.544 1222.95,-142.528 1226.01,-152.67 1231.67,-148.544"/>
</g>
<!-- Node40&#45;&gt;Node14 -->
<g id="edge116" class="edge"><title>Node40&#45;&gt;Node14</title>
<path fill="none" stroke="midnightblue" d="M1512.58,-656.026C1659.48,-646.945 2193.94,-599.523 2557,-378 2675.31,-305.81 2709.16,-271.132 2762,-143 2768.97,-126.101 2773.5,-105.694 2776.12,-91.1936"/>
<polygon fill="midnightblue" stroke="midnightblue" points="2779.62,-91.4505 2777.82,-81.0108 2772.72,-90.2984 2779.62,-91.4505"/>
</g>
<!-- Node40&#45;&gt;Node16 -->
<g id="edge113" class="edge"><title>Node40&#45;&gt;Node16</title>
<path fill="none" stroke="midnightblue" d="M1468.27,-649.368C1456.22,-631.215 1428.08,-588.802 1412.28,-564.99"/>
<polygon fill="midnightblue" stroke="midnightblue" points="1415.15,-562.988 1406.7,-556.591 1409.31,-566.859 1415.15,-562.988"/>
</g>
<!-- Node40&#45;&gt;Node28 -->
<g id="edge112" class="edge"><title>Node40&#45;&gt;Node28</title>
<path fill="none" stroke="midnightblue" d="M1512.6,-650.889C1668.96,-621.565 2247,-507.922 2247,-430.5 2247,-430.5 2247,-430.5 2247,-367 2247,-329.155 2262.61,-287.051 2272.67,-263.83"/>
<polygon fill="midnightblue" stroke="midnightblue" points="2275.93,-265.128 2276.83,-254.572 2269.54,-262.259 2275.93,-265.128"/>
</g>
<!-- Node40&#45;&gt;Node34 -->
<g id="edge114" class="edge"><title>Node40&#45;&gt;Node34</title>
<path fill="none" stroke="midnightblue" d="M1463.73,-649.329C1436.54,-626.863 1359.65,-566.472 1285,-537 1203.03,-504.637 1172.34,-532.432 1090,-501 1045.28,-483.928 1037.07,-472.656 998,-445 970.65,-425.64 940.989,-400.638 922.697,-384.706"/>
<polygon fill="midnightblue" stroke="midnightblue" points="924.515,-381.644 914.69,-377.678 919.897,-386.905 924.515,-381.644"/>
</g>
<!-- Node40&#45;&gt;Node39 -->
<g id="edge115" class="edge"><title>Node40&#45;&gt;Node39</title>
<path fill="none" stroke="midnightblue" d="M1446.59,-649.444C1417.23,-640.28 1370.48,-625.688 1337.9,-615.519"/>
<polygon fill="midnightblue" stroke="midnightblue" points="1338.87,-612.155 1328.28,-612.516 1336.79,-618.837 1338.87,-612.155"/>
</g>
<!-- Node42&#45;&gt;Node7 -->
<g id="edge122" class="edge"><title>Node42&#45;&gt;Node7</title>
<path fill="none" stroke="midnightblue" d="M698.042,-817.46C786.323,-797.642 1004.96,-748.559 1102.13,-726.745"/>
<polygon fill="midnightblue" stroke="midnightblue" points="1102.99,-730.14 1111.98,-724.535 1101.46,-723.31 1102.99,-730.14"/>
</g>
<!-- Node42&#45;&gt;Node25 -->
<g id="edge136" class="edge"><title>Node42&#45;&gt;Node25</title>
<path fill="none" stroke="midnightblue" d="M640.86,-817.407C598.646,-797.493 496.946,-744.093 442,-669 384.495,-590.41 308.317,-286.448 289.394,-208.367"/>
<polygon fill="midnightblue" stroke="midnightblue" points="292.772,-207.441 287.027,-198.539 285.966,-209.081 292.772,-207.441"/>
</g>
<!-- Node42&#45;&gt;Node43 -->
<g id="edge123" class="edge"><title>Node42&#45;&gt;Node43</title>
<path fill="none" stroke="midnightblue" d="M712.108,-823.965C931.343,-815.405 1777.42,-782.37 1992.86,-773.958"/>
<polygon fill="midnightblue" stroke="midnightblue" points="1993.08,-777.452 2002.93,-773.565 1992.8,-770.457 1993.08,-777.452"/>
</g>
<!-- Node43&#45;&gt;Node6 -->
<g id="edge135" class="edge"><title>Node43&#45;&gt;Node6</title>
<path fill="none" stroke="midnightblue" d="M2002.78,-769.39C1800.2,-766.204 899.184,-750.637 846,-725 721.935,-665.196 489.874,-384.138 442,-255 420.61,-197.302 449.056,-123.928 464.802,-90.5242"/>
<polygon fill="midnightblue" stroke="midnightblue" points="468.135,-91.6742 469.388,-81.1537 461.848,-88.5967 468.135,-91.6742"/>
</g>
<!-- Node43&#45;&gt;Node7 -->
<g id="edge129" class="edge"><title>Node43&#45;&gt;Node7</title>
<path fill="none" stroke="midnightblue" d="M2002.86,-769.302C1882.15,-766.891 1511.99,-757.201 1207,-725 1204.29,-724.714 1201.52,-724.387 1198.72,-724.032"/>
<polygon fill="midnightblue" stroke="midnightblue" points="1198.95,-720.53 1188.56,-722.639 1197.99,-727.465 1198.95,-720.53"/>
</g>
<!-- Node43&#45;&gt;Node9 -->
<g id="edge127" class="edge"><title>Node43&#45;&gt;Node9</title>
<path fill="none" stroke="midnightblue" d="M2083.2,-767.528C2157.16,-762.453 2311.57,-749.243 2359,-725 2477.38,-664.493 2552.63,-681.493 2672,-322 2742.52,-109.611 2334.07,-77.1696 2161.85,-72.8424"/>
<polygon fill="midnightblue" stroke="midnightblue" points="2161.68,-69.3376 2151.6,-72.6111 2161.52,-76.3358 2161.68,-69.3376"/>
</g>
<!-- Node43&#45;&gt;Node14 -->
<g id="edge130" class="edge"><title>Node43&#45;&gt;Node14</title>
<path fill="none" stroke="midnightblue" d="M2083.04,-769.456C2149.4,-767.553 2285.69,-759.374 2395,-725 2610.93,-657.101 2969,-496.841 2969,-369 2969,-369 2969,-369 2969,-188 2969,-115.077 2865.54,-86.8841 2811.31,-77.1152"/>
<polygon fill="midnightblue" stroke="midnightblue" points="2811.61,-73.6161 2801.17,-75.3992 2810.44,-80.5181 2811.61,-73.6161"/>
</g>
<!-- Node43&#45;&gt;Node16 -->
<g id="edge124" class="edge"><title>Node43&#45;&gt;Node16</title>
<path fill="none" stroke="midnightblue" d="M2002.82,-769.158C1879.41,-765.725 1509.22,-748.84 1426,-669 1398.22,-642.352 1397.1,-593.61 1398.92,-566.841"/>
<polygon fill="midnightblue" stroke="midnightblue" points="1402.43,-566.816 1399.84,-556.543 1395.46,-566.192 1402.43,-566.816"/>
</g>
<!-- Node43&#45;&gt;Node25 -->
<g id="edge132" class="edge"><title>Node43&#45;&gt;Node25</title>
<path fill="none" stroke="midnightblue" d="M2002.74,-769.986C1793.35,-769.731 833.489,-766.306 708,-725 617.834,-695.321 532,-698.925 532,-604 532,-604 532,-604 532,-546 532,-525.21 347.755,-274.779 297.52,-206.885"/>
<polygon fill="midnightblue" stroke="midnightblue" points="300.118,-204.513 291.354,-198.56 294.493,-208.679 300.118,-204.513"/>
</g>
<!-- Node43&#45;&gt;Node28 -->
<g id="edge128" class="edge"><title>Node43&#45;&gt;Node28</title>
<path fill="none" stroke="midnightblue" d="M2083.41,-769.942C2139.09,-768.446 2241.43,-760.538 2320,-725 2361.43,-706.262 2399,-705.468 2399,-660 2399,-660 2399,-660 2399,-490 2399,-489.607 2316.77,-319.844 2289.6,-263.752"/>
<polygon fill="midnightblue" stroke="midnightblue" points="2292.71,-262.142 2285.2,-254.668 2286.41,-265.194 2292.71,-262.142"/>
</g>
<!-- Node43&#45;&gt;Node31 -->
<g id="edge134" class="edge"><title>Node43&#45;&gt;Node31</title>
<path fill="none" stroke="midnightblue" d="M2051.21,-761.342C2108.44,-701 2447.73,-343.283 2524.54,-262.295"/>
<polygon fill="midnightblue" stroke="midnightblue" points="2527.53,-264.236 2531.87,-254.572 2522.45,-259.419 2527.53,-264.236"/>
</g>
<!-- Node43&#45;&gt;Node33 -->
<g id="edge126" class="edge"><title>Node43&#45;&gt;Node33</title>
<path fill="none" stroke="midnightblue" d="M2002.9,-768.611C1892.55,-764.493 1586.18,-750.984 1489,-725 1376.45,-694.908 1314.34,-711.418 1252,-613 1195.05,-523.102 1407,-536.918 1407,-430.5 1407,-430.5 1407,-430.5 1407,-367 1407,-293.995 1313.53,-264.802 1247.61,-253.292"/>
<polygon fill="midnightblue" stroke="midnightblue" points="1248.13,-249.831 1237.7,-251.656 1246.99,-256.737 1248.13,-249.831"/>
</g>
<!-- Node43&#45;&gt;Node34 -->
<g id="edge125" class="edge"><title>Node43&#45;&gt;Node34</title>
<path fill="none" stroke="midnightblue" d="M2002.97,-769.109C1847.03,-765.481 1280.06,-750.769 1102,-725 981.554,-707.569 836,-781.701 836,-660 836,-660 836,-660 836,-546 836,-483.8 873.446,-417.186 893.167,-386.417"/>
<polygon fill="midnightblue" stroke="midnightblue" points="896.305,-388.015 898.877,-377.737 890.457,-384.168 896.305,-388.015"/>
</g>
<!-- Node43&#45;&gt;Node38 -->
<g id="edge133" class="edge"><title>Node43&#45;&gt;Node38</title>
<path fill="none" stroke="midnightblue" d="M2002.53,-769.171C1859.25,-766.007 1381.22,-753.404 1319,-725 1200.42,-670.871 1143.17,-504.574 1126.97,-448.887"/>
<polygon fill="midnightblue" stroke="midnightblue" points="1130.27,-447.706 1124.2,-439.026 1123.53,-449.6 1130.27,-447.706"/>
</g>
<!-- Node43&#45;&gt;Node41 -->
<g id="edge131" class="edge"><title>Node43&#45;&gt;Node41</title>
<path fill="none" stroke="midnightblue" d="M2083.17,-766.591C2145.15,-760.714 2260.55,-747.128 2295,-725 2312.45,-713.79 2324.98,-693.163 2332.32,-678.144"/>
<polygon fill="midnightblue" stroke="midnightblue" points="2335.6,-679.378 2336.56,-668.827 2329.23,-676.475 2335.6,-679.378"/>
</g>
<!-- Node44&#45;&gt;Node6 -->
<g id="edge165" class="edge"><title>Node44&#45;&gt;Node6</title>
<path fill="none" stroke="midnightblue" d="M1943.62,-938.08C1682.21,-938.38 374.08,-937.626 201,-893 140.365,-877.366 76,-890.618 76,-828 76,-828 76,-828 76,-714 76,-556.99 0,-526.01 0,-369 0,-369 0,-369 0,-188 0,-153.844 12.0992,-141.203 41,-123 108.008,-80.7949 354.815,-73.8456 442.684,-72.7149"/>
<polygon fill="midnightblue" stroke="midnightblue" points="442.864,-76.2132 452.825,-72.6016 442.786,-69.2136 442.864,-76.2132"/>
</g>
<!-- Node44&#45;&gt;Node13 -->
<g id="edge166" class="edge"><title>Node44&#45;&gt;Node13</title>
<path fill="none" stroke="midnightblue" d="M1943.7,-938.056C1675.67,-938.234 306.404,-936.985 230,-893 200.603,-876.076 190,-861.921 190,-828 190,-828 190,-828 190,-546 190,-465.541 152,-449.459 152,-369 152,-369 152,-369 152,-305.5 152,-239.681 171.36,-210.775 229,-179 395.157,-87.4022 628.417,-73.8255 724.733,-72.3445"/>
<polygon fill="midnightblue" stroke="midnightblue" points="725.018,-75.8415 734.977,-72.2255 724.937,-68.842 725.018,-75.8415"/>
</g>
<!-- Node44&#45;&gt;Node14 -->
<g id="edge163" class="edge"><title>Node44&#45;&gt;Node14</title>
<path fill="none" stroke="midnightblue" d="M2034.22,-937.239C2167.64,-934.651 2557.96,-924.52 2681,-893 2934.4,-828.085 3045,-692.082 3045,-430.5 3045,-430.5 3045,-430.5 3045,-188 3045,-87.1962 2882.29,-73.4209 2811.38,-72.2036"/>
<polygon fill="midnightblue" stroke="midnightblue" points="2811.25,-68.7024 2801.22,-72.1054 2811.19,-75.702 2811.25,-68.7024"/>
</g>
<!-- Node44&#45;&gt;Node24 -->
<g id="edge164" class="edge"><title>Node44&#45;&gt;Node24</title>
<path fill="none" stroke="midnightblue" d="M2034.1,-938.647C2206.89,-939.937 2817,-933.088 2817,-772 2817,-772 2817,-772 2817,-428.5 2817,-301.586 2728.26,-272.446 2607,-235 2513.05,-205.99 2209.84,-194.183 2107.84,-190.968"/>
<polygon fill="midnightblue" stroke="midnightblue" points="2107.89,-187.468 2097.78,-190.659 2107.67,-194.465 2107.89,-187.468"/>
</g>
<!-- Node44&#45;&gt;Node34 -->
<g id="edge142" class="edge"><title>Node44&#45;&gt;Node34</title>
<path fill="none" stroke="midnightblue" d="M1943.7,-938.252C1677.2,-939.555 322.741,-943.662 252,-893 226.963,-875.069 228,-858.795 228,-828 228,-828 228,-828 228,-770 228,-489.903 662.298,-401.244 835.202,-377.046"/>
<polygon fill="midnightblue" stroke="midnightblue" points="835.785,-380.499 845.218,-375.676 834.836,-373.564 835.785,-380.499"/>
</g>
<!-- Node44&#45;&gt;Node43 -->
<g id="edge155" class="edge"><title>Node44&#45;&gt;Node43</title>
<path fill="none" stroke="midnightblue" d="M1991.9,-929.075C2000.44,-902.832 2025.58,-825.545 2037.11,-790.117"/>
<polygon fill="midnightblue" stroke="midnightblue" points="2040.45,-791.16 2040.21,-780.568 2033.79,-788.995 2040.45,-791.16"/>
</g>
<!-- Node45 -->
<g id="node45" class="node"><title>Node45</title>
<g id="a_node45"><a xlink:href="bound_8h.html" target="_top" xlink:title="Bound deducers. ">
<polygon fill="white" stroke="black" points="1099,-873.5 1099,-892.5 1201,-892.5 1201,-873.5 1099,-873.5"/>
<text text-anchor="middle" x="1150" y="-880.5" font-family="Helvetica,sans-Serif" font-size="10.00">tvm/arith/bound.h</text>
</a>
</g>
</g>
<!-- Node44&#45;&gt;Node45 -->
<g id="edge143" class="edge"><title>Node44&#45;&gt;Node45</title>
<path fill="none" stroke="midnightblue" d="M1943.89,-935.097C1803.18,-926.04 1372.09,-898.294 1211.31,-887.946"/>
<polygon fill="midnightblue" stroke="midnightblue" points="1211.32,-884.439 1201.11,-887.29 1210.87,-891.425 1211.32,-884.439"/>
</g>
<!-- Node44&#45;&gt;Node47 -->
<g id="edge156" class="edge"><title>Node44&#45;&gt;Node47</title>
<path fill="none" stroke="midnightblue" d="M2029.25,-929.444C2074.82,-919.754 2148.96,-903.993 2196.84,-893.813"/>
<polygon fill="midnightblue" stroke="midnightblue" points="2197.59,-897.232 2206.64,-891.729 2196.14,-890.385 2197.59,-897.232"/>
</g>
<!-- Node45&#45;&gt;Node7 -->
<g id="edge145" class="edge"><title>Node45&#45;&gt;Node7</title>
<path fill="none" stroke="midnightblue" d="M1150,-873.075C1150,-846.945 1150,-770.211 1150,-734.577"/>
<polygon fill="midnightblue" stroke="midnightblue" points="1153.5,-734.568 1150,-724.568 1146.5,-734.568 1153.5,-734.568"/>
</g>
<!-- Node45&#45;&gt;Node25 -->
<g id="edge154" class="edge"><title>Node45&#45;&gt;Node25</title>
<path fill="none" stroke="midnightblue" d="M1098.95,-881.282C980.472,-879.063 690.042,-870.292 599,-837 409.525,-767.714 304,-693.745 304,-492 304,-492 304,-492 304,-428.5 304,-346.286 292.642,-248.632 287.49,-208.559"/>
<polygon fill="midnightblue" stroke="midnightblue" points="290.96,-208.103 286.189,-198.643 284.019,-209.014 290.96,-208.103"/>
</g>
<!-- Node45&#45;&gt;Node34 -->
<g id="edge144" class="edge"><title>Node45&#45;&gt;Node34</title>
<path fill="none" stroke="midnightblue" d="M1098.87,-874.1C983.952,-855.071 711.998,-802.464 670,-725 594.347,-585.46 810.101,-430.032 882.338,-383.133"/>
<polygon fill="midnightblue" stroke="midnightblue" points="884.253,-386.063 890.785,-377.721 880.477,-380.169 884.253,-386.063"/>
</g>
<!-- Node45&#45;&gt;Node42 -->
<g id="edge146" class="edge"><title>Node45&#45;&gt;Node42</title>
<path fill="none" stroke="midnightblue" d="M1098.71,-877.054C1018.93,-869.248 860.297,-853.28 726,-837 724.741,-836.847 723.468,-836.691 722.186,-836.532"/>
<polygon fill="midnightblue" stroke="midnightblue" points="722.581,-833.055 712.22,-835.267 721.7,-839.999 722.581,-833.055"/>
</g>
<!-- Node45&#45;&gt;Node43 -->
<g id="edge147" class="edge"><title>Node45&#45;&gt;Node43</title>
<path fill="none" stroke="midnightblue" d="M1201.22,-875.691C1358.81,-856.278 1835.27,-797.588 1992.24,-778.252"/>
<polygon fill="midnightblue" stroke="midnightblue" points="1993.05,-781.679 2002.55,-776.983 1992.2,-774.732 1993.05,-781.679"/>
</g>
<!-- Node46 -->
<g id="node46" class="node"><title>Node46</title>
<g id="a_node46"><a xlink:href="stmt_8h.html" target="_top" xlink:title="TIR statements. ">
<polygon fill="white" stroke="black" points="2055.5,-817.5 2055.5,-836.5 2138.5,-836.5 2138.5,-817.5 2055.5,-817.5"/>
<text text-anchor="middle" x="2097" y="-824.5" font-family="Helvetica,sans-Serif" font-size="10.00">tvm/tir/stmt.h</text>
</a>
</g>
</g>
<!-- Node45&#45;&gt;Node46 -->
<g id="edge148" class="edge"><title>Node45&#45;&gt;Node46</title>
<path fill="none" stroke="midnightblue" d="M1201.38,-881.36C1338.25,-879.232 1722.92,-870.492 2041,-837 2042.47,-836.845 2043.96,-836.678 2045.46,-836.5"/>
<polygon fill="midnightblue" stroke="midnightblue" points="2046.02,-839.957 2055.48,-835.189 2045.11,-833.016 2046.02,-839.957"/>
</g>
<!-- Node46&#45;&gt;Node6 -->
<g id="edge153" class="edge"><title>Node46&#45;&gt;Node6</title>
<path fill="none" stroke="midnightblue" d="M2055.45,-826.48C1905.17,-827.77 1375.99,-828.441 943,-781 804.26,-765.799 770.172,-755.614 634,-725 540.595,-704.001 506.534,-720.765 426,-669 323.367,-603.031 76,-368.006 76,-246 76,-246 76,-246 76,-188 76,-111.708 349.142,-82.554 442.871,-74.7958"/>
<polygon fill="midnightblue" stroke="midnightblue" points="443.195,-78.2812 452.883,-73.9927 442.635,-71.3037 443.195,-78.2812"/>
</g>
<!-- Node46&#45;&gt;Node13 -->
<g id="edge150" class="edge"><title>Node46&#45;&gt;Node13</title>
<path fill="none" stroke="midnightblue" d="M2055.22,-826.033C1860.7,-825.689 1043.33,-818.599 809,-725 739.111,-697.084 734.434,-666.986 682,-613 536.03,-462.712 387.228,-356.829 498,-179 546.231,-101.571 661.121,-80.3834 724.729,-74.6212"/>
<polygon fill="midnightblue" stroke="midnightblue" points="725.173,-78.0967 734.856,-73.7952 724.604,-71.1199 725.173,-78.0967"/>
</g>
<!-- Node46&#45;&gt;Node14 -->
<g id="edge151" class="edge"><title>Node46&#45;&gt;Node14</title>
<path fill="none" stroke="midnightblue" d="M2138.56,-825.858C2297.1,-824.218 2855,-807.935 2855,-660 2855,-660 2855,-660 2855,-602 2855,-478.357 3007,-492.643 3007,-369 3007,-369 3007,-369 3007,-188 3007,-101.382 2874.43,-79.7038 2811.47,-74.2927"/>
<polygon fill="midnightblue" stroke="midnightblue" points="2811.52,-70.7862 2801.28,-73.5074 2810.98,-77.7655 2811.52,-70.7862"/>
</g>
<!-- Node46&#45;&gt;Node24 -->
<g id="edge152" class="edge"><title>Node46&#45;&gt;Node24</title>
<path fill="none" stroke="midnightblue" d="M2138.65,-822.862C2275.57,-811.997 2703,-773.474 2703,-716 2703,-716 2703,-716 2703,-658 2703,-547.12 2795.48,-517.226 2755,-414 2713.23,-307.487 2676.28,-277.347 2570,-235 2485.61,-201.376 2205.6,-192.632 2107.95,-190.578"/>
<polygon fill="midnightblue" stroke="midnightblue" points="2107.82,-187.075 2097.75,-190.374 2107.68,-194.074 2107.82,-187.075"/>
</g>
<!-- Node46&#45;&gt;Node43 -->
<g id="edge149" class="edge"><title>Node46&#45;&gt;Node43</title>
<path fill="none" stroke="midnightblue" d="M2088.08,-817.083C2080.22,-809.22 2068.57,-797.569 2059.08,-788.081"/>
<polygon fill="midnightblue" stroke="midnightblue" points="2061.3,-785.347 2051.75,-780.751 2056.35,-790.297 2061.3,-785.347"/>
</g>
<!-- Node47&#45;&gt;Node13 -->
<g id="edge161" class="edge"><title>Node47&#45;&gt;Node13</title>
<path fill="none" stroke="midnightblue" d="M2206.93,-880.545C2053.7,-874.08 1441.69,-845.392 943,-781 804.579,-763.127 764.932,-773.34 634,-725 587.662,-707.892 578.791,-696.857 538,-669 499.596,-642.773 456,-650.506 456,-604 456,-604 456,-604 456,-546 456,-332.393 680.416,-141.037 749.2,-87.4031"/>
<polygon fill="midnightblue" stroke="midnightblue" points="751.7,-89.8955 757.489,-81.0222 747.43,-84.3486 751.7,-89.8955"/>
</g>
<!-- Node47&#45;&gt;Node31 -->
<g id="edge162" class="edge"><title>Node47&#45;&gt;Node31</title>
<path fill="none" stroke="midnightblue" d="M2279.22,-881.733C2393.81,-879.923 2741,-866.63 2741,-772 2741,-772 2741,-772 2741,-490 2741,-379.979 2617.75,-292.647 2564.27,-259.934"/>
<polygon fill="midnightblue" stroke="midnightblue" points="2565.82,-256.777 2555.44,-254.639 2562.22,-262.781 2565.82,-256.777"/>
</g>
<!-- Node47&#45;&gt;Node40 -->
<g id="edge157" class="edge"><title>Node47&#45;&gt;Node40</title>
<path fill="none" stroke="midnightblue" d="M2240.3,-873.336C2235.67,-859.75 2225.04,-833.303 2208,-817 2166.63,-777.423 2146.59,-778.239 2092,-761 1886.33,-696.051 1628.28,-671.11 1522.55,-663.175"/>
<polygon fill="midnightblue" stroke="midnightblue" points="1522.73,-659.679 1512.51,-662.438 1522.22,-666.66 1522.73,-659.679"/>
</g>
<!-- Node47&#45;&gt;Node41 -->
<g id="edge160" class="edge"><title>Node47&#45;&gt;Node41</title>
<path fill="none" stroke="midnightblue" d="M2247.84,-873.367C2260.79,-850.016 2296.85,-783.424 2320,-725 2326.12,-709.564 2331.55,-691.473 2335.2,-678.301"/>
<polygon fill="midnightblue" stroke="midnightblue" points="2338.6,-679.127 2337.83,-668.561 2331.85,-677.304 2338.6,-679.127"/>
</g>
<!-- Node47&#45;&gt;Node43 -->
<g id="edge158" class="edge"><title>Node47&#45;&gt;Node43</title>
<path fill="none" stroke="midnightblue" d="M2236.81,-873.097C2226.69,-859.182 2205.28,-832.294 2181,-817 2154.13,-800.074 2120.27,-788.907 2092.82,-781.931"/>
<polygon fill="midnightblue" stroke="midnightblue" points="2093.56,-778.51 2083.02,-779.548 2091.91,-785.312 2093.56,-778.51"/>
</g>
<!-- Node47&#45;&gt;Node46 -->
<g id="edge159" class="edge"><title>Node47&#45;&gt;Node46</title>
<path fill="none" stroke="midnightblue" d="M2219.87,-873.444C2195.52,-864.438 2156.99,-850.189 2129.58,-840.049"/>
<polygon fill="midnightblue" stroke="midnightblue" points="2130.62,-836.703 2120.03,-836.516 2128.19,-843.268 2130.62,-836.703"/>
</g>
<!-- Node48&#45;&gt;Node4 -->
<g id="edge178" class="edge"><title>Node48&#45;&gt;Node4</title>
<path fill="none" stroke="midnightblue" d="M2115.18,-1046.6C1848.38,-1028.89 636.058,-946.089 477,-893 431.954,-877.965 419.391,-870.768 386,-837 372.448,-823.295 361.638,-803.998 354.868,-789.992"/>
<polygon fill="midnightblue" stroke="midnightblue" points="358.035,-788.502 350.671,-780.885 351.678,-791.431 358.035,-788.502"/>
</g>
<!-- Node48&#45;&gt;Node14 -->
<g id="edge179" class="edge"><title>Node48&#45;&gt;Node14</title>
<path fill="none" stroke="midnightblue" d="M2218.84,-1045.34C2341,-1032.98 2654.79,-993.208 2896,-893 3114.37,-802.279 3159,-666.966 3159,-430.5 3159,-430.5 3159,-430.5 3159,-188 3159,-151.004 3139.02,-141.524 3107,-123 3057.07,-94.1199 2884.6,-79.5238 2811.82,-74.5344"/>
<polygon fill="midnightblue" stroke="midnightblue" points="2811.64,-71.0147 2801.43,-73.8413 2811.17,-77.9992 2811.64,-71.0147"/>
</g>
<!-- Node48&#45;&gt;Node25 -->
<g id="edge180" class="edge"><title>Node48&#45;&gt;Node25</title>
<path fill="none" stroke="midnightblue" d="M2115.48,-1050.01C1797.38,-1049.74 114,-1043.43 114,-940 114,-940 114,-940 114,-602 114,-493.075 190,-477.925 190,-369 190,-369 190,-369 190,-305.5 190,-260.518 233.51,-223.521 261.639,-204.303"/>
<polygon fill="midnightblue" stroke="midnightblue" points="263.725,-207.12 270.156,-198.7 259.878,-201.271 263.725,-207.12"/>
</g>
<!-- Node48&#45;&gt;Node43 -->
<g id="edge168" class="edge"><title>Node48&#45;&gt;Node43</title>
<path fill="none" stroke="midnightblue" d="M2167,-1041.44C2167,-1022.94 2167,-977.812 2167,-940 2167,-940 2167,-940 2167,-882 2167,-851.775 2167.17,-839.514 2147,-817 2132.68,-801.017 2111.69,-790.484 2092.3,-783.659"/>
<polygon fill="midnightblue" stroke="midnightblue" points="2093.25,-780.286 2082.65,-780.509 2091.07,-786.94 2093.25,-780.286"/>
</g>
<!-- Node48&#45;&gt;Node44 -->
<g id="edge169" class="edge"><title>Node48&#45;&gt;Node44</title>
<path fill="none" stroke="midnightblue" d="M2153.03,-1041.37C2122.36,-1022.41 2048.87,-977.001 2011.56,-953.942"/>
<polygon fill="midnightblue" stroke="midnightblue" points="2013.25,-950.871 2002.9,-948.591 2009.57,-956.826 2013.25,-950.871"/>
</g>
<!-- Node49 -->
<g id="node49" class="node"><title>Node49</title>
<g id="a_node49"><a xlink:href="tensor__intrin_8h.html" target="_top" xlink:title="Tensor intrinsic operations. ">
<polygon fill="white" stroke="black" points="2233,-985.5 2233,-1004.5 2353,-1004.5 2353,-985.5 2233,-985.5"/>
<text text-anchor="middle" x="2293" y="-992.5" font-family="Helvetica,sans-Serif" font-size="10.00">tvm/te/tensor_intrin.h</text>
</a>
</g>
</g>
<!-- Node48&#45;&gt;Node49 -->
<g id="edge170" class="edge"><title>Node48&#45;&gt;Node49</title>
<path fill="none" stroke="midnightblue" d="M2186.97,-1041.44C2207.61,-1032.6 2240.06,-1018.69 2263.63,-1008.59"/>
<polygon fill="midnightblue" stroke="midnightblue" points="2265.32,-1011.67 2273.13,-1004.52 2262.56,-1005.24 2265.32,-1011.67"/>
</g>
<!-- Node49&#45;&gt;Node14 -->
<g id="edge177" class="edge"><title>Node49&#45;&gt;Node14</title>
<path fill="none" stroke="midnightblue" d="M2353.2,-986.768C2479.87,-970.99 2769.74,-931.779 2861,-893 3078.03,-800.778 3121,-666.31 3121,-430.5 3121,-430.5 3121,-430.5 3121,-188 3121,-154.31 3109.85,-141.961 3082,-123 3038.27,-93.2284 2880.35,-79.2722 2811.49,-74.4983"/>
<polygon fill="midnightblue" stroke="midnightblue" points="2811.44,-70.9875 2801.23,-73.81 2810.97,-77.9718 2811.44,-70.9875"/>
</g>
<!-- Node49&#45;&gt;Node44 -->
<g id="edge171" class="edge"><title>Node49&#45;&gt;Node44</title>
<path fill="none" stroke="midnightblue" d="M2244.83,-985.444C2190.34,-975.765 2101.75,-960.029 2044.43,-949.847"/>
<polygon fill="midnightblue" stroke="midnightblue" points="2044.92,-946.378 2034.46,-948.075 2043.7,-953.271 2044.92,-946.378"/>
</g>
<!-- Node49&#45;&gt;Node50 -->
<g id="edge172" class="edge"><title>Node49&#45;&gt;Node50</title>
<path fill="none" stroke="midnightblue" d="M2327.86,-985.444C2365.92,-976.102 2426.96,-961.119 2468.46,-950.933"/>
<polygon fill="midnightblue" stroke="midnightblue" points="2469.43,-954.299 2478.3,-948.516 2467.76,-947.501 2469.43,-954.299"/>
</g>
<!-- Node50&#45;&gt;Node14 -->
<g id="edge176" class="edge"><title>Node50&#45;&gt;Node14</title>
<path fill="none" stroke="midnightblue" d="M2556.55,-936.158C2632.66,-932.24 2786.05,-921.029 2831,-893 3029.63,-769.135 3083,-664.588 3083,-430.5 3083,-430.5 3083,-430.5 3083,-188 3083,-157.205 3082.6,-142.786 3059,-123 3021.8,-91.8093 2876.66,-78.7444 2811.26,-74.3588"/>
<polygon fill="midnightblue" stroke="midnightblue" points="2811.32,-70.8552 2801.11,-73.7054 2810.87,-77.8408 2811.32,-70.8552"/>
</g>
<!-- Node50&#45;&gt;Node34 -->
<g id="edge173" class="edge"><title>Node50&#45;&gt;Node34</title>
<path fill="none" stroke="midnightblue" d="M2469.34,-937.109C2174.82,-931.09 489.421,-896.506 477,-893 381.924,-866.165 334.204,-866.666 285,-781 213.098,-655.816 738.879,-435.35 873.917,-381.245"/>
<polygon fill="midnightblue" stroke="midnightblue" points="875.314,-384.456 883.305,-377.5 872.72,-377.955 875.314,-384.456"/>
</g>
<!-- Node50&#45;&gt;Node43 -->
<g id="edge174" class="edge"><title>Node50&#45;&gt;Node43</title>
<path fill="none" stroke="midnightblue" d="M2493.65,-929.449C2445.83,-908.506 2317.97,-853.683 2208,-817 2168.18,-803.717 2122.02,-791.381 2088.67,-782.997"/>
<polygon fill="midnightblue" stroke="midnightblue" points="2089.3,-779.547 2078.75,-780.526 2087.6,-786.34 2089.3,-779.547"/>
</g>
<!-- Node50&#45;&gt;Node47 -->
<g id="edge175" class="edge"><title>Node50&#45;&gt;Node47</title>
<path fill="none" stroke="midnightblue" d="M2470.22,-929.444C2420.83,-919.567 2339.91,-903.382 2289.14,-893.229"/>
<polygon fill="midnightblue" stroke="midnightblue" points="2289.59,-889.75 2279.1,-891.22 2288.22,-896.614 2289.59,-889.75"/>
</g>
</g>
</svg>
