<?xml version="1.0" encoding="UTF-8" standalone="no"?>
<!DOCTYPE svg PUBLIC "-//W3C//DTD SVG 1.1//EN"
 "http://www.w3.org/Graphics/SVG/1.1/DTD/svg11.dtd">
<!-- Generated by graphviz version 2.38.0 (20140413.2041)
 -->
<!-- Title: include/tvm/runtime/device_api.h Pages: 1 -->
<svg width="1112pt" height="397pt"
 viewBox="0.00 0.00 1112.00 397.00" xmlns="http://www.w3.org/2000/svg" xmlns:xlink="http://www.w3.org/1999/xlink">
<g id="graph0" class="graph" transform="scale(1 1) rotate(0) translate(4 393)">
<title>include/tvm/runtime/device_api.h</title>
<polygon fill="white" stroke="none" points="-4,4 -4,-393 1108,-393 1108,4 -4,4"/>
<!-- Node1 -->
<g id="node1" class="node"><title>Node1</title>
<polygon fill="#bfbfbf" stroke="black" points="583.5,-358.5 583.5,-388.5 696.5,-388.5 696.5,-358.5 583.5,-358.5"/>
<text text-anchor="start" x="591.5" y="-376.5" font-family="Helvetica,sans-Serif" font-size="10.00">include/tvm/runtime</text>
<text text-anchor="middle" x="640" y="-365.5" font-family="Helvetica,sans-Serif" font-size="10.00">/device_api.h</text>
</g>
<!-- Node2 -->
<g id="node2" class="node"><title>Node2</title>
<g id="a_node2"><a xlink:href="c__runtime__api_8h.html" target="_top" xlink:title="tvm/runtime/c_runtime\l_api.h">
<polygon fill="white" stroke="black" points="71.5,-56.5 71.5,-86.5 198.5,-86.5 198.5,-56.5 71.5,-56.5"/>
<text text-anchor="start" x="79.5" y="-74.5" font-family="Helvetica,sans-Serif" font-size="10.00">tvm/runtime/c_runtime</text>
<text text-anchor="middle" x="135" y="-63.5" font-family="Helvetica,sans-Serif" font-size="10.00">_api.h</text>
</a>
</g>
</g>
<!-- Node1&#45;&gt;Node2 -->
<g id="edge1" class="edge"><title>Node1&#45;&gt;Node2</title>
<path fill="none" stroke="midnightblue" d="M583.47,-373.188C427.573,-373.578 3,-363.824 3,-246 3,-246 3,-246 3,-188 3,-141.401 50.1687,-109.241 88.1133,-90.909"/>
<polygon fill="midnightblue" stroke="midnightblue" points="89.926,-93.9265 97.5272,-86.5459 86.9825,-87.5755 89.926,-93.9265"/>
</g>
<!-- Node6 -->
<g id="node6" class="node"><title>Node6</title>
<g id="a_node6"><a xlink:href="packed__func_8h.html" target="_top" xlink:title="Type&#45;erased function used across TVM API. ">
<polygon fill="white" stroke="black" points="583.5,-291.5 583.5,-321.5 696.5,-321.5 696.5,-291.5 583.5,-291.5"/>
<text text-anchor="start" x="591.5" y="-309.5" font-family="Helvetica,sans-Serif" font-size="10.00">tvm/runtime/packed</text>
<text text-anchor="middle" x="640" y="-298.5" font-family="Helvetica,sans-Serif" font-size="10.00">_func.h</text>
</a>
</g>
</g>
<!-- Node1&#45;&gt;Node6 -->
<g id="edge5" class="edge"><title>Node1&#45;&gt;Node6</title>
<path fill="none" stroke="midnightblue" d="M640,-358.396C640,-350.645 640,-340.812 640,-331.86"/>
<polygon fill="midnightblue" stroke="midnightblue" points="643.5,-331.576 640,-321.577 636.5,-331.577 643.5,-331.576"/>
</g>
<!-- Node12 -->
<g id="node12" class="node"><title>Node12</title>
<polygon fill="white" stroke="#bfbfbf" points="1006,-62 1006,-81 1050,-81 1050,-62 1006,-62"/>
<text text-anchor="middle" x="1028" y="-69" font-family="Helvetica,sans-Serif" font-size="10.00">string</text>
</g>
<!-- Node1&#45;&gt;Node12 -->
<g id="edge52" class="edge"><title>Node1&#45;&gt;Node12</title>
<path fill="none" stroke="midnightblue" d="M696.896,-368.975C820.797,-359.739 1104,-329.496 1104,-246 1104,-246 1104,-246 1104,-188 1104,-146.312 1069.02,-108.03 1046.52,-87.7185"/>
<polygon fill="midnightblue" stroke="midnightblue" points="1048.73,-84.9985 1038.89,-81.0755 1044.14,-90.2796 1048.73,-84.9985"/>
</g>
<!-- Node3 -->
<g id="node3" class="node"><title>Node3</title>
<polygon fill="white" stroke="#bfbfbf" points="0,-0.5 0,-19.5 90,-19.5 90,-0.5 0,-0.5"/>
<text text-anchor="middle" x="45" y="-7.5" font-family="Helvetica,sans-Serif" font-size="10.00">dlpack/dlpack.h</text>
</g>
<!-- Node2&#45;&gt;Node3 -->
<g id="edge2" class="edge"><title>Node2&#45;&gt;Node3</title>
<path fill="none" stroke="midnightblue" d="M113.671,-56.3993C99.5146,-47.0402 80.9885,-34.7924 66.7469,-25.3771"/>
<polygon fill="midnightblue" stroke="midnightblue" points="68.3679,-22.2531 58.0958,-19.6578 64.5074,-28.0923 68.3679,-22.2531"/>
</g>
<!-- Node4 -->
<g id="node4" class="node"><title>Node4</title>
<polygon fill="white" stroke="#bfbfbf" points="108.5,-0.5 108.5,-19.5 161.5,-19.5 161.5,-0.5 108.5,-0.5"/>
<text text-anchor="middle" x="135" y="-7.5" font-family="Helvetica,sans-Serif" font-size="10.00">stdint.h</text>
</g>
<!-- Node2&#45;&gt;Node4 -->
<g id="edge3" class="edge"><title>Node2&#45;&gt;Node4</title>
<path fill="none" stroke="midnightblue" d="M135,-56.3993C135,-48.4664 135,-38.458 135,-29.8583"/>
<polygon fill="midnightblue" stroke="midnightblue" points="138.5,-29.6577 135,-19.6578 131.5,-29.6578 138.5,-29.6577"/>
</g>
<!-- Node5 -->
<g id="node5" class="node"><title>Node5</title>
<polygon fill="white" stroke="#bfbfbf" points="179.5,-0.5 179.5,-19.5 234.5,-19.5 234.5,-0.5 179.5,-0.5"/>
<text text-anchor="middle" x="207" y="-7.5" font-family="Helvetica,sans-Serif" font-size="10.00">stddef.h</text>
</g>
<!-- Node2&#45;&gt;Node5 -->
<g id="edge4" class="edge"><title>Node2&#45;&gt;Node5</title>
<path fill="none" stroke="midnightblue" d="M152.063,-56.3993C163.065,-47.3076 177.365,-35.4899 188.618,-26.1909"/>
<polygon fill="midnightblue" stroke="midnightblue" points="191.044,-28.726 196.523,-19.6578 186.585,-23.33 191.044,-28.726"/>
</g>
<!-- Node6&#45;&gt;Node2 -->
<g id="edge7" class="edge"><title>Node6&#45;&gt;Node2</title>
<path fill="none" stroke="midnightblue" d="M583.113,-301.627C464.681,-292.316 197.751,-264.412 139,-199 114.133,-171.314 120.418,-124.894 127.52,-96.6455"/>
<polygon fill="midnightblue" stroke="midnightblue" points="130.955,-97.355 130.219,-86.7857 124.203,-95.507 130.955,-97.355"/>
</g>
<!-- Node7 -->
<g id="node7" class="node"><title>Node7</title>
<polygon fill="white" stroke="#bfbfbf" points="556,-62 556,-81 642,-81 642,-62 556,-62"/>
<text text-anchor="middle" x="599" y="-69" font-family="Helvetica,sans-Serif" font-size="10.00">dmlc/logging.h</text>
</g>
<!-- Node6&#45;&gt;Node7 -->
<g id="edge6" class="edge"><title>Node6&#45;&gt;Node7</title>
<path fill="none" stroke="midnightblue" d="M583.375,-303.878C547.194,-299.536 502.755,-287.347 479,-255 459.007,-227.775 459.534,-206.604 479,-179 506.464,-140.055 547.662,-178.004 580,-143 593.013,-128.914 597.281,-106.857 598.596,-91.168"/>
<polygon fill="midnightblue" stroke="midnightblue" points="602.096,-91.2412 599.113,-81.0749 595.106,-90.8824 602.096,-91.2412"/>
</g>
<!-- Node8 -->
<g id="node8" class="node"><title>Node8</title>
<g id="a_node8"><a xlink:href="runtime_2module_8h.html" target="_top" xlink:title="Runtime container of the functions generated by TVM, This is used to support dynamically link...">
<polygon fill="white" stroke="black" points="488,-235.5 488,-254.5 612,-254.5 612,-235.5 488,-235.5"/>
<text text-anchor="middle" x="550" y="-242.5" font-family="Helvetica,sans-Serif" font-size="10.00">tvm/runtime/module.h</text>
</a>
</g>
</g>
<!-- Node6&#45;&gt;Node8 -->
<g id="edge8" class="edge"><title>Node6&#45;&gt;Node8</title>
<path fill="none" stroke="midnightblue" d="M612.831,-291.399C597.619,-282.129 579.288,-270.025 566.247,-260.647"/>
<polygon fill="midnightblue" stroke="midnightblue" points="568.284,-257.801 558.166,-254.658 564.116,-263.424 568.284,-257.801"/>
</g>
<!-- Node10 -->
<g id="node10" class="node"><title>Node10</title>
<g id="a_node10"><a xlink:href="object_8h.html" target="_top" xlink:title="A managed object in the TVM runtime. ">
<polygon fill="white" stroke="black" points="665.5,-123.5 665.5,-142.5 782.5,-142.5 782.5,-123.5 665.5,-123.5"/>
<text text-anchor="middle" x="724" y="-130.5" font-family="Helvetica,sans-Serif" font-size="10.00">tvm/runtime/object.h</text>
</a>
</g>
</g>
<!-- Node6&#45;&gt;Node10 -->
<g id="edge43" class="edge"><title>Node6&#45;&gt;Node10</title>
<path fill="none" stroke="midnightblue" d="M650.077,-291.294C663.801,-271.43 688.438,-233.866 704,-199 710.767,-183.838 716.135,-165.72 719.598,-152.469"/>
<polygon fill="midnightblue" stroke="midnightblue" points="723.022,-153.204 722.049,-142.654 716.231,-151.508 723.022,-153.204"/>
</g>
<!-- Node11 -->
<g id="node11" class="node"><title>Node11</title>
<polygon fill="white" stroke="#bfbfbf" points="742,-62 742,-81 810,-81 810,-62 742,-62"/>
<text text-anchor="middle" x="776" y="-69" font-family="Helvetica,sans-Serif" font-size="10.00">type_traits</text>
</g>
<!-- Node6&#45;&gt;Node11 -->
<g id="edge51" class="edge"><title>Node6&#45;&gt;Node11</title>
<path fill="none" stroke="midnightblue" d="M696.75,-302.566C764.849,-297.719 873.016,-285.348 898,-255 936.003,-208.837 912.57,-166.925 872,-123 855.859,-105.524 832.271,-92.998 812.516,-84.7928"/>
<polygon fill="midnightblue" stroke="midnightblue" points="813.762,-81.5221 803.176,-81.109 811.194,-88.0339 813.762,-81.5221"/>
</g>
<!-- Node6&#45;&gt;Node12 -->
<g id="edge47" class="edge"><title>Node6&#45;&gt;Node12</title>
<path fill="none" stroke="midnightblue" d="M696.753,-302.107C772.789,-296.541 902.518,-283.148 940,-255 995.058,-213.652 1017.37,-128.832 1024.82,-91.1972"/>
<polygon fill="midnightblue" stroke="midnightblue" points="1028.3,-91.6015 1026.68,-81.1326 1021.42,-90.3323 1028.3,-91.6015"/>
</g>
<!-- Node13 -->
<g id="node13" class="node"><title>Node13</title>
<polygon fill="white" stroke="#bfbfbf" points="880,-62 880,-81 922,-81 922,-62 880,-62"/>
<text text-anchor="middle" x="901" y="-69" font-family="Helvetica,sans-Serif" font-size="10.00">utility</text>
</g>
<!-- Node6&#45;&gt;Node13 -->
<g id="edge50" class="edge"><title>Node6&#45;&gt;Node13</title>
<path fill="none" stroke="midnightblue" d="M696.673,-302.711C769.032,-297.93 888.536,-285.536 919,-255 963.191,-210.705 928.926,-126.868 910.619,-90.3025"/>
<polygon fill="midnightblue" stroke="midnightblue" points="913.669,-88.5804 905.957,-81.315 907.455,-91.8035 913.669,-88.5804"/>
</g>
<!-- Node17 -->
<g id="node17" class="node"><title>Node17</title>
<polygon fill="white" stroke="#bfbfbf" points="638.5,-179.5 638.5,-198.5 695.5,-198.5 695.5,-179.5 638.5,-179.5"/>
<text text-anchor="middle" x="667" y="-186.5" font-family="Helvetica,sans-Serif" font-size="10.00">memory</text>
</g>
<!-- Node6&#45;&gt;Node17 -->
<g id="edge49" class="edge"><title>Node6&#45;&gt;Node17</title>
<path fill="none" stroke="midnightblue" d="M643.311,-291.337C648.175,-270.527 657.261,-231.663 662.656,-208.583"/>
<polygon fill="midnightblue" stroke="midnightblue" points="666.105,-209.204 664.973,-198.669 659.289,-207.61 666.105,-209.204"/>
</g>
<!-- Node18 -->
<g id="node18" class="node"><title>Node18</title>
<polygon fill="white" stroke="#bfbfbf" points="145.5,-123.5 145.5,-142.5 192.5,-142.5 192.5,-123.5 145.5,-123.5"/>
<text text-anchor="middle" x="169" y="-130.5" font-family="Helvetica,sans-Serif" font-size="10.00">vector</text>
</g>
<!-- Node6&#45;&gt;Node18 -->
<g id="edge46" class="edge"><title>Node6&#45;&gt;Node18</title>
<path fill="none" stroke="midnightblue" d="M583.312,-304.821C495.978,-301.025 327.014,-282.469 216,-199 199.36,-186.489 186.126,-166.423 177.995,-151.893"/>
<polygon fill="midnightblue" stroke="midnightblue" points="180.987,-150.065 173.202,-142.879 174.807,-153.351 180.987,-150.065"/>
</g>
<!-- Node20 -->
<g id="node20" class="node"><title>Node20</title>
<g id="a_node20"><a xlink:href="ndarray_8h.html" target="_top" xlink:title="A device&#45;independent managed NDArray abstraction. ">
<polygon fill="white" stroke="black" points="261.5,-179.5 261.5,-198.5 384.5,-198.5 384.5,-179.5 261.5,-179.5"/>
<text text-anchor="middle" x="323" y="-186.5" font-family="Helvetica,sans-Serif" font-size="10.00">tvm/runtime/ndarray.h</text>
</a>
</g>
</g>
<!-- Node6&#45;&gt;Node20 -->
<g id="edge28" class="edge"><title>Node6&#45;&gt;Node20</title>
<path fill="none" stroke="midnightblue" d="M583.436,-300.18C535.051,-294.021 464.484,-281.15 408,-255 381.298,-242.638 355.099,-220.691 339.003,-205.751"/>
<polygon fill="midnightblue" stroke="midnightblue" points="341.214,-203.024 331.557,-198.666 336.388,-208.095 341.214,-203.024"/>
</g>
<!-- Node23 -->
<g id="node23" class="node"><title>Node23</title>
<g id="a_node23"><a xlink:href="data__type_8h.html" target="_top" xlink:title="tvm/runtime/data_type.h">
<polygon fill="white" stroke="black" points="435,-123.5 435,-142.5 571,-142.5 571,-123.5 435,-123.5"/>
<text text-anchor="middle" x="503" y="-130.5" font-family="Helvetica,sans-Serif" font-size="10.00">tvm/runtime/data_type.h</text>
</a>
</g>
</g>
<!-- Node6&#45;&gt;Node23 -->
<g id="edge39" class="edge"><title>Node6&#45;&gt;Node23</title>
<path fill="none" stroke="midnightblue" d="M583.384,-298.455C532.331,-290.801 462.762,-276.684 446,-255 425.342,-228.276 431.27,-209.397 446,-179 452.397,-165.8 464.752,-155.303 476.329,-147.779"/>
<polygon fill="midnightblue" stroke="midnightblue" points="478.155,-150.765 484.918,-142.61 474.546,-144.768 478.155,-150.765"/>
</g>
<!-- Node24 -->
<g id="node24" class="node"><title>Node24</title>
<polygon fill="white" stroke="#bfbfbf" points="706.5,-235.5 706.5,-254.5 769.5,-254.5 769.5,-235.5 706.5,-235.5"/>
<text text-anchor="middle" x="738" y="-242.5" font-family="Helvetica,sans-Serif" font-size="10.00">functional</text>
</g>
<!-- Node6&#45;&gt;Node24 -->
<g id="edge44" class="edge"><title>Node6&#45;&gt;Node24</title>
<path fill="none" stroke="midnightblue" d="M663.225,-291.399C678.786,-281.951 699.197,-269.559 714.762,-260.109"/>
<polygon fill="midnightblue" stroke="midnightblue" points="717.009,-262.839 723.74,-254.658 713.376,-256.856 717.009,-262.839"/>
</g>
<!-- Node25 -->
<g id="node25" class="node"><title>Node25</title>
<polygon fill="white" stroke="#bfbfbf" points="787.5,-235.5 787.5,-254.5 828.5,-254.5 828.5,-235.5 787.5,-235.5"/>
<text text-anchor="middle" x="808" y="-242.5" font-family="Helvetica,sans-Serif" font-size="10.00">tuple</text>
</g>
<!-- Node6&#45;&gt;Node25 -->
<g id="edge45" class="edge"><title>Node6&#45;&gt;Node25</title>
<path fill="none" stroke="midnightblue" d="M679.814,-291.399C709.887,-280.748 750.524,-266.356 777.915,-256.655"/>
<polygon fill="midnightblue" stroke="midnightblue" points="779.105,-259.947 787.363,-253.309 776.768,-253.348 779.105,-259.947"/>
</g>
<!-- Node26 -->
<g id="node26" class="node"><title>Node26</title>
<polygon fill="white" stroke="#bfbfbf" points="847,-235.5 847,-254.5 889,-254.5 889,-235.5 847,-235.5"/>
<text text-anchor="middle" x="868" y="-242.5" font-family="Helvetica,sans-Serif" font-size="10.00">limits</text>
</g>
<!-- Node6&#45;&gt;Node26 -->
<g id="edge48" class="edge"><title>Node6&#45;&gt;Node26</title>
<path fill="none" stroke="midnightblue" d="M696.595,-291.496C736.037,-281.614 789.829,-267.89 837,-255 837.098,-254.973 837.196,-254.946 837.294,-254.919"/>
<polygon fill="midnightblue" stroke="midnightblue" points="837.997,-258.358 846.68,-252.286 836.106,-251.618 837.997,-258.358"/>
</g>
<!-- Node8&#45;&gt;Node2 -->
<g id="edge10" class="edge"><title>Node8&#45;&gt;Node2</title>
<path fill="none" stroke="midnightblue" d="M487.845,-243.092C392.958,-240.66 217.452,-231.732 165,-199 139.898,-183.336 137.338,-171.389 129,-143 124.602,-128.027 126.047,-110.553 128.618,-96.7481"/>
<polygon fill="midnightblue" stroke="midnightblue" points="132.124,-97.0965 130.832,-86.5808 125.285,-95.6073 132.124,-97.0965"/>
</g>
<!-- Node8&#45;&gt;Node6 -->
<g id="edge27" class="edge"><title>Node8&#45;&gt;Node6</title>
<path fill="none" stroke="midnightblue" d="M568.025,-254.658C581.934,-262.708 601.025,-275.001 616.14,-285.483"/>
<polygon fill="midnightblue" stroke="midnightblue" points="614.325,-288.486 624.511,-291.399 618.365,-282.769 614.325,-288.486"/>
</g>
<!-- Node9 -->
<g id="node9" class="node"><title>Node9</title>
<polygon fill="white" stroke="#bfbfbf" points="217,-62 217,-81 277,-81 277,-62 217,-62"/>
<text text-anchor="middle" x="247" y="-69" font-family="Helvetica,sans-Serif" font-size="10.00">dmlc/io.h</text>
</g>
<!-- Node8&#45;&gt;Node9 -->
<g id="edge9" class="edge"><title>Node8&#45;&gt;Node9</title>
<path fill="none" stroke="midnightblue" d="M487.795,-244.305C419.025,-242.688 306.063,-234.173 216,-199 175.573,-183.211 156.043,-181.496 136,-143 131.895,-135.116 131.189,-130.474 136,-123 140.653,-115.771 184.084,-97.3869 215.213,-84.9125"/>
<polygon fill="midnightblue" stroke="midnightblue" points="216.824,-88.0386 224.823,-81.0916 214.238,-81.5339 216.824,-88.0386"/>
</g>
<!-- Node8&#45;&gt;Node10 -->
<g id="edge11" class="edge"><title>Node8&#45;&gt;Node10</title>
<path fill="none" stroke="midnightblue" d="M559.145,-235.188C573.292,-221.866 601.706,-196.319 629,-179 649.208,-166.177 673.642,-154.683 692.669,-146.521"/>
<polygon fill="midnightblue" stroke="midnightblue" points="694.213,-149.669 702.075,-142.567 691.5,-143.216 694.213,-149.669"/>
</g>
<!-- Node8&#45;&gt;Node12 -->
<g id="edge25" class="edge"><title>Node8&#45;&gt;Node12</title>
<path fill="none" stroke="midnightblue" d="M612.166,-240.569C697.843,-235.055 847.174,-222.389 896,-199 949.495,-173.374 995.228,-117.753 1016.03,-89.5835"/>
<polygon fill="midnightblue" stroke="midnightblue" points="1019.09,-91.3236 1022.1,-81.1659 1013.41,-87.2283 1019.09,-91.3236"/>
</g>
<!-- Node15 -->
<g id="node15" class="node"><title>Node15</title>
<g id="a_node15"><a xlink:href="runtime_2memory_8h.html" target="_top" xlink:title="Runtime memory management. ">
<polygon fill="white" stroke="black" points="760.5,-179.5 760.5,-198.5 887.5,-198.5 887.5,-179.5 760.5,-179.5"/>
<text text-anchor="middle" x="824" y="-186.5" font-family="Helvetica,sans-Serif" font-size="10.00">tvm/runtime/memory.h</text>
</a>
</g>
</g>
<!-- Node8&#45;&gt;Node15 -->
<g id="edge18" class="edge"><title>Node8&#45;&gt;Node15</title>
<path fill="none" stroke="midnightblue" d="M593.416,-235.444C641.515,-225.964 719.095,-210.675 770.806,-200.483"/>
<polygon fill="midnightblue" stroke="midnightblue" points="771.653,-203.884 780.787,-198.516 770.299,-197.016 771.653,-203.884"/>
</g>
<!-- Node8&#45;&gt;Node17 -->
<g id="edge23" class="edge"><title>Node8&#45;&gt;Node17</title>
<path fill="none" stroke="midnightblue" d="M568.539,-235.444C587.623,-226.636 617.575,-212.812 639.436,-202.722"/>
<polygon fill="midnightblue" stroke="midnightblue" points="640.935,-205.885 648.548,-198.516 638.001,-199.529 640.935,-205.885"/>
</g>
<!-- Node8&#45;&gt;Node18 -->
<g id="edge24" class="edge"><title>Node8&#45;&gt;Node18</title>
<path fill="none" stroke="midnightblue" d="M487.851,-243.736C425.758,-241.411 328.754,-232.097 252,-199 225.38,-187.521 199.927,-165.364 184.388,-150.137"/>
<polygon fill="midnightblue" stroke="midnightblue" points="186.738,-147.536 177.212,-142.898 181.767,-152.464 186.738,-147.536"/>
</g>
<!-- Node19 -->
<g id="node19" class="node"><title>Node19</title>
<polygon fill="white" stroke="#bfbfbf" points="488.5,-179.5 488.5,-198.5 581.5,-198.5 581.5,-179.5 488.5,-179.5"/>
<text text-anchor="middle" x="535" y="-186.5" font-family="Helvetica,sans-Serif" font-size="10.00">unordered_map</text>
</g>
<!-- Node8&#45;&gt;Node19 -->
<g id="edge26" class="edge"><title>Node8&#45;&gt;Node19</title>
<path fill="none" stroke="midnightblue" d="M547.523,-235.083C545.514,-227.849 542.614,-217.409 540.11,-208.397"/>
<polygon fill="midnightblue" stroke="midnightblue" points="543.48,-207.449 537.431,-198.751 536.735,-209.323 543.48,-207.449"/>
</g>
<!-- Node10&#45;&gt;Node2 -->
<g id="edge13" class="edge"><title>Node10&#45;&gt;Node2</title>
<path fill="none" stroke="midnightblue" d="M665.3,-127.692C553.256,-119.341 311.657,-100.678 208.734,-86.9591"/>
<polygon fill="midnightblue" stroke="midnightblue" points="209.016,-83.4649 198.631,-85.5638 208.058,-90.3991 209.016,-83.4649"/>
</g>
<!-- Node10&#45;&gt;Node7 -->
<g id="edge12" class="edge"><title>Node10&#45;&gt;Node7</title>
<path fill="none" stroke="midnightblue" d="M706.091,-123.475C685.113,-113.49 650.15,-96.8476 625.907,-85.3075"/>
<polygon fill="midnightblue" stroke="midnightblue" points="627.41,-82.1468 616.876,-81.0091 624.401,-88.4673 627.41,-82.1468"/>
</g>
<!-- Node10&#45;&gt;Node11 -->
<g id="edge14" class="edge"><title>Node10&#45;&gt;Node11</title>
<path fill="none" stroke="midnightblue" d="M731.45,-123.475C739.328,-114.462 751.945,-100.025 761.744,-88.8118"/>
<polygon fill="midnightblue" stroke="midnightblue" points="764.618,-90.842 768.563,-81.0091 759.347,-86.2356 764.618,-90.842"/>
</g>
<!-- Node10&#45;&gt;Node12 -->
<g id="edge15" class="edge"><title>Node10&#45;&gt;Node12</title>
<path fill="none" stroke="midnightblue" d="M767.556,-123.475C829.405,-111.37 941.237,-89.4815 996.016,-78.7601"/>
<polygon fill="midnightblue" stroke="midnightblue" points="996.726,-82.1876 1005.87,-76.8319 995.381,-75.3179 996.726,-82.1876"/>
</g>
<!-- Node10&#45;&gt;Node13 -->
<g id="edge16" class="edge"><title>Node10&#45;&gt;Node13</title>
<path fill="none" stroke="midnightblue" d="M749.36,-123.475C781.289,-112.742 836.099,-94.317 870.345,-82.805"/>
<polygon fill="midnightblue" stroke="midnightblue" points="871.48,-86.116 879.843,-79.612 869.249,-79.4809 871.48,-86.116"/>
</g>
<!-- Node14 -->
<g id="node14" class="node"><title>Node14</title>
<polygon fill="white" stroke="#bfbfbf" points="435,-62 435,-81 485,-81 485,-62 435,-62"/>
<text text-anchor="middle" x="460" y="-69" font-family="Helvetica,sans-Serif" font-size="10.00">atomic</text>
</g>
<!-- Node10&#45;&gt;Node14 -->
<g id="edge17" class="edge"><title>Node10&#45;&gt;Node14</title>
<path fill="none" stroke="midnightblue" d="M686.175,-123.475C635.062,-111.955 544.64,-91.576 495.016,-80.3918"/>
<polygon fill="midnightblue" stroke="midnightblue" points="495.599,-76.9356 485.074,-78.1513 494.06,-83.7643 495.599,-76.9356"/>
</g>
<!-- Node15&#45;&gt;Node10 -->
<g id="edge19" class="edge"><title>Node15&#45;&gt;Node10</title>
<path fill="none" stroke="midnightblue" d="M807.933,-179.324C792.042,-170.743 767.493,-157.486 749.042,-147.522"/>
<polygon fill="midnightblue" stroke="midnightblue" points="750.489,-144.326 740.027,-142.655 747.163,-150.486 750.489,-144.326"/>
</g>
<!-- Node15&#45;&gt;Node11 -->
<g id="edge22" class="edge"><title>Node15&#45;&gt;Node11</title>
<path fill="none" stroke="midnightblue" d="M833.677,-179.458C846.67,-166.907 866.931,-142.827 856,-123 846.454,-105.686 828.198,-93.4888 811.532,-85.4248"/>
<polygon fill="midnightblue" stroke="midnightblue" points="812.539,-82.0407 801.982,-81.147 809.678,-88.4291 812.539,-82.0407"/>
</g>
<!-- Node15&#45;&gt;Node13 -->
<g id="edge21" class="edge"><title>Node15&#45;&gt;Node13</title>
<path fill="none" stroke="midnightblue" d="M835.618,-179.479C846.27,-171.169 861.88,-157.667 872,-143 883.128,-126.871 891.085,-105.816 895.816,-90.9284"/>
<polygon fill="midnightblue" stroke="midnightblue" points="899.172,-91.9204 898.69,-81.3366 892.467,-89.9111 899.172,-91.9204"/>
</g>
<!-- Node16 -->
<g id="node16" class="node"><title>Node16</title>
<polygon fill="white" stroke="#bfbfbf" points="800.5,-123.5 800.5,-142.5 847.5,-142.5 847.5,-123.5 800.5,-123.5"/>
<text text-anchor="middle" x="824" y="-130.5" font-family="Helvetica,sans-Serif" font-size="10.00">cstdlib</text>
</g>
<!-- Node15&#45;&gt;Node16 -->
<g id="edge20" class="edge"><title>Node15&#45;&gt;Node16</title>
<path fill="none" stroke="midnightblue" d="M824,-179.083C824,-172.006 824,-161.861 824,-152.986"/>
<polygon fill="midnightblue" stroke="midnightblue" points="827.5,-152.751 824,-142.751 820.5,-152.751 827.5,-152.751"/>
</g>
<!-- Node20&#45;&gt;Node2 -->
<g id="edge29" class="edge"><title>Node20&#45;&gt;Node2</title>
<path fill="none" stroke="midnightblue" d="M306.205,-179.489C289.252,-170.759 262.44,-156.575 240,-143 213.37,-126.89 184.038,-107.006 163.161,-92.4658"/>
<polygon fill="midnightblue" stroke="midnightblue" points="164.963,-89.4553 154.764,-86.5883 160.949,-95.1901 164.963,-89.4553"/>
</g>
<!-- Node20&#45;&gt;Node10 -->
<g id="edge30" class="edge"><title>Node20&#45;&gt;Node10</title>
<path fill="none" stroke="midnightblue" d="M384.777,-179.681C457.946,-169.828 579.459,-153.464 655.463,-143.229"/>
<polygon fill="midnightblue" stroke="midnightblue" points="655.973,-146.692 665.416,-141.889 655.038,-139.755 655.973,-146.692"/>
</g>
<!-- Node20&#45;&gt;Node13 -->
<g id="edge38" class="edge"><title>Node20&#45;&gt;Node13</title>
<path fill="none" stroke="midnightblue" d="M379.669,-179.479C431.922,-171.291 511.522,-157.978 580,-143 614.121,-135.537 621.994,-130.973 656,-123 732.492,-105.066 823.224,-87.2598 869.871,-78.3569"/>
<polygon fill="midnightblue" stroke="midnightblue" points="870.771,-81.7486 879.942,-76.4426 869.464,-74.8717 870.771,-81.7486"/>
</g>
<!-- Node20&#45;&gt;Node14 -->
<g id="edge36" class="edge"><title>Node20&#45;&gt;Node14</title>
<path fill="none" stroke="midnightblue" d="M336.676,-179.499C350.173,-170.889 371.172,-156.895 388,-143 408.944,-125.707 430.965,-103.46 445.054,-88.6282"/>
<polygon fill="midnightblue" stroke="midnightblue" points="447.71,-90.9132 452.008,-81.2295 442.609,-86.1191 447.71,-90.9132"/>
</g>
<!-- Node20&#45;&gt;Node18 -->
<g id="edge37" class="edge"><title>Node20&#45;&gt;Node18</title>
<path fill="none" stroke="midnightblue" d="M298.598,-179.444C272.576,-170.319 231.201,-155.811 202.219,-145.648"/>
<polygon fill="midnightblue" stroke="midnightblue" points="203.125,-142.257 192.53,-142.251 200.809,-148.863 203.125,-142.257"/>
</g>
<!-- Node21 -->
<g id="node21" class="node"><title>Node21</title>
<g id="a_node21"><a xlink:href="serializer_8h.html" target="_top" xlink:title="Serializer extension to support TVM data types Include this file to enable serialization of DLDataTyp...">
<polygon fill="white" stroke="black" points="249,-123.5 249,-142.5 379,-142.5 379,-123.5 249,-123.5"/>
<text text-anchor="middle" x="314" y="-130.5" font-family="Helvetica,sans-Serif" font-size="10.00">tvm/runtime/serializer.h</text>
</a>
</g>
</g>
<!-- Node20&#45;&gt;Node21 -->
<g id="edge31" class="edge"><title>Node20&#45;&gt;Node21</title>
<path fill="none" stroke="midnightblue" d="M316.348,-179.083C313.675,-172.006 311.547,-161.861 310.686,-152.986"/>
<polygon fill="midnightblue" stroke="midnightblue" points="314.175,-152.622 310.328,-142.751 307.18,-152.867 314.175,-152.622"/>
</g>
<!-- Node21&#45;&gt;Node2 -->
<g id="edge34" class="edge"><title>Node21&#45;&gt;Node2</title>
<path fill="none" stroke="midnightblue" d="M288.354,-123.475C261.958,-114.701 220.102,-100.788 186.781,-89.7123"/>
<polygon fill="midnightblue" stroke="midnightblue" points="187.78,-86.356 177.187,-86.523 185.572,-92.9987 187.78,-86.356"/>
</g>
<!-- Node21&#45;&gt;Node9 -->
<g id="edge32" class="edge"><title>Node21&#45;&gt;Node9</title>
<path fill="none" stroke="midnightblue" d="M304.401,-123.475C293.952,-114.197 277.032,-99.1706 264.264,-87.831"/>
<polygon fill="midnightblue" stroke="midnightblue" points="266.383,-85.0323 256.582,-81.0091 261.735,-90.2663 266.383,-85.0323"/>
</g>
<!-- Node21&#45;&gt;Node20 -->
<g id="edge35" class="edge"><title>Node21&#45;&gt;Node20</title>
<path fill="none" stroke="midnightblue" d="M320.59,-142.751C323.27,-149.78 325.413,-159.91 326.294,-168.805"/>
<polygon fill="midnightblue" stroke="midnightblue" points="322.807,-169.222 326.68,-179.083 329.802,-168.958 322.807,-169.222"/>
</g>
<!-- Node22 -->
<g id="node22" class="node"><title>Node22</title>
<polygon fill="white" stroke="#bfbfbf" points="295,-62 295,-81 389,-81 389,-62 295,-62"/>
<text text-anchor="middle" x="342" y="-69" font-family="Helvetica,sans-Serif" font-size="10.00">dmlc/serializer.h</text>
</g>
<!-- Node21&#45;&gt;Node22 -->
<g id="edge33" class="edge"><title>Node21&#45;&gt;Node22</title>
<path fill="none" stroke="midnightblue" d="M318.012,-123.475C322.087,-114.815 328.518,-101.149 333.696,-90.1453"/>
<polygon fill="midnightblue" stroke="midnightblue" points="336.905,-91.5476 337.996,-81.0091 330.571,-88.567 336.905,-91.5476"/>
</g>
<!-- Node23&#45;&gt;Node2 -->
<g id="edge40" class="edge"><title>Node23&#45;&gt;Node2</title>
<path fill="none" stroke="midnightblue" d="M441.851,-123.486C384.317,-115.29 295.515,-102.168 208.697,-87.0745"/>
<polygon fill="midnightblue" stroke="midnightblue" points="209.123,-83.5961 198.67,-85.3208 207.917,-90.4914 209.123,-83.5961"/>
</g>
<!-- Node23&#45;&gt;Node7 -->
<g id="edge41" class="edge"><title>Node23&#45;&gt;Node7</title>
<path fill="none" stroke="midnightblue" d="M516.754,-123.475C532.366,-113.799 558.063,-97.8721 576.583,-86.3941"/>
<polygon fill="midnightblue" stroke="midnightblue" points="578.615,-89.2522 585.271,-81.0091 574.927,-83.3023 578.615,-89.2522"/>
</g>
<!-- Node23&#45;&gt;Node11 -->
<g id="edge42" class="edge"><title>Node23&#45;&gt;Node11</title>
<path fill="none" stroke="midnightblue" d="M542.114,-123.475C592.288,-112.54 679.092,-93.6209 731.666,-82.1626"/>
<polygon fill="midnightblue" stroke="midnightblue" points="732.678,-85.5243 741.703,-79.975 731.187,-78.6849 732.678,-85.5243"/>
</g>
</g>
</svg>
