<?xml version="1.0" encoding="UTF-8" standalone="no"?>
<!DOCTYPE svg PUBLIC "-//W3C//DTD SVG 1.1//EN"
 "http://www.w3.org/Graphics/SVG/1.1/DTD/svg11.dtd">
<!-- Generated by graphviz version 2.38.0 (20140413.2041)
 -->
<!-- Title: include/tvm/relay Pages: 1 -->
<svg width="428pt" height="447pt"
 viewBox="0.00 0.00 428.00 447.00" xmlns="http://www.w3.org/2000/svg" xmlns:xlink="http://www.w3.org/1999/xlink">
<g id="graph0" class="graph" transform="scale(1 1) rotate(0) translate(4 443)">
<title>include/tvm/relay</title>
<polygon fill="white" stroke="none" points="-4,4 -4,-443 424,-443 424,4 -4,4"/>
<g id="clust1" class="cluster"><title>clusterdir_b4c7d8e826c599ba55146c099a14beb5</title>
<g id="a_clust1"><a xlink:href="dir_b4c7d8e826c599ba55146c099a14beb5.html" target="_top" xlink:title="tvm">
<polygon fill="#ddddee" stroke="black" points="250,-272 250,-431 408,-431 408,-272 250,-272"/>
<text text-anchor="middle" x="329" y="-419" font-family="Helvetica,sans-Serif" font-size="10.00">tvm</text>
</a>
</g>
</g>
<g id="clust2" class="cluster"><title>clusterdir_63946bee875c6d52bce55e72a67a86ad</title>
<g id="a_clust2"><a xlink:href="dir_63946bee875c6d52bce55e72a67a86ad.html" target="_top">
<polygon fill="#eeeeff" stroke="black" points="258,-280 258,-404 400,-404 400,-280 258,-280"/>
</a>
</g>
</g>
<!-- dir_63946bee875c6d52bce55e72a67a86ad -->
<g id="node1" class="node"><title>dir_63946bee875c6d52bce55e72a67a86ad</title>
<text text-anchor="middle" x="293" y="-375.5" font-family="Helvetica,sans-Serif" font-size="10.00">relay</text>
</g>
<!-- dir_519be2d4a83a987dbf989f1de527b870 -->
<g id="node2" class="node"><title>dir_519be2d4a83a987dbf989f1de527b870</title>
<g id="a_node2"><a xlink:href="dir_519be2d4a83a987dbf989f1de527b870.html" target="_top" xlink:title="attrs">
<polygon fill="white" stroke="black" points="392,-324 338,-324 338,-288 392,-288 392,-324"/>
<text text-anchor="middle" x="365" y="-303.5" font-family="Helvetica,sans-Serif" font-size="10.00">attrs</text>
</a>
</g>
</g>
<!-- dir_63946bee875c6d52bce55e72a67a86ad&#45;&gt;dir_519be2d4a83a987dbf989f1de527b870 -->
<g id="edge1" class="edge"><title>dir_63946bee875c6d52bce55e72a67a86ad&#45;&gt;dir_519be2d4a83a987dbf989f1de527b870</title>
<path fill="none" stroke="black" d="M310.798,-359.697C319.604,-351.135 330.382,-340.656 340.001,-331.304"/>
<polygon fill="black" stroke="black" points="342.677,-333.585 347.407,-324.104 337.797,-328.566 342.677,-333.585"/>
<g id="a_edge1&#45;headlabel"><a xlink:href="dir_000005_000009.html" target="_top" xlink:title="1">
<text text-anchor="middle" x="342.079" y="-335.626" font-family="Helvetica,sans-Serif" font-size="10.00">1</text>
</a>
</g>
</g>
<!-- dir_f97d855a3173728370e632aa77170e34 -->
<g id="node4" class="node"><title>dir_f97d855a3173728370e632aa77170e34</title>
<g id="a_node4"><a xlink:href="dir_f97d855a3173728370e632aa77170e34.html" target="_top" xlink:title="te">
<polygon fill="none" stroke="black" points="54,-324 0,-324 0,-288 54,-288 54,-324"/>
<text text-anchor="middle" x="27" y="-303.5" font-family="Helvetica,sans-Serif" font-size="10.00">te</text>
</a>
</g>
</g>
<!-- dir_63946bee875c6d52bce55e72a67a86ad&#45;&gt;dir_f97d855a3173728370e632aa77170e34 -->
<g id="edge2" class="edge"><title>dir_63946bee875c6d52bce55e72a67a86ad&#45;&gt;dir_f97d855a3173728370e632aa77170e34</title>
<path fill="none" stroke="black" d="M265.946,-372.098C223.299,-364.043 138.082,-346.619 68,-324 66.5792,-323.541 65.1386,-323.055 63.6894,-322.547"/>
<polygon fill="black" stroke="black" points="64.7097,-319.192 54.1173,-318.963 62.2552,-325.748 64.7097,-319.192"/>
<g id="a_edge2&#45;headlabel"><a xlink:href="dir_000005_000018.html" target="_top" xlink:title="4">
<text text-anchor="middle" x="69.0716" y="-315.293" font-family="Helvetica,sans-Serif" font-size="10.00">4</text>
</a>
</g>
</g>
<!-- dir_5da96592f3a7c442b838b075c58254c2 -->
<g id="node5" class="node"><title>dir_5da96592f3a7c442b838b075c58254c2</title>
<g id="a_node5"><a xlink:href="dir_5da96592f3a7c442b838b075c58254c2.html" target="_top" xlink:title="target">
<polygon fill="none" stroke="black" points="223,-324 169,-324 169,-288 223,-288 223,-324"/>
<text text-anchor="middle" x="196" y="-303.5" font-family="Helvetica,sans-Serif" font-size="10.00">target</text>
</a>
</g>
</g>
<!-- dir_63946bee875c6d52bce55e72a67a86ad&#45;&gt;dir_5da96592f3a7c442b838b075c58254c2 -->
<g id="edge3" class="edge"><title>dir_63946bee875c6d52bce55e72a67a86ad&#45;&gt;dir_5da96592f3a7c442b838b075c58254c2</title>
<path fill="none" stroke="black" d="M269.022,-359.697C256.689,-350.796 241.484,-339.823 228.147,-330.199"/>
<polygon fill="black" stroke="black" points="229.859,-327.118 219.702,-324.104 225.763,-332.794 229.859,-327.118"/>
<g id="a_edge3&#45;headlabel"><a xlink:href="dir_000005_000017.html" target="_top" xlink:title="4">
<text text-anchor="middle" x="234.435" y="-324.419" font-family="Helvetica,sans-Serif" font-size="10.00">4</text>
</a>
</g>
</g>
<!-- dir_6cd4295f6ad5aa17e5b568d0e5b190e5 -->
<g id="node6" class="node"><title>dir_6cd4295f6ad5aa17e5b568d0e5b190e5</title>
<g id="a_node6"><a xlink:href="dir_6cd4295f6ad5aa17e5b568d0e5b190e5.html" target="_top" xlink:title="node">
<polygon fill="none" stroke="black" points="158,-108 104,-108 104,-72 158,-72 158,-108"/>
<text text-anchor="middle" x="131" y="-87.5" font-family="Helvetica,sans-Serif" font-size="10.00">node</text>
</a>
</g>
</g>
<!-- dir_63946bee875c6d52bce55e72a67a86ad&#45;&gt;dir_6cd4295f6ad5aa17e5b568d0e5b190e5 -->
<g id="edge4" class="edge"><title>dir_63946bee875c6d52bce55e72a67a86ad&#45;&gt;dir_6cd4295f6ad5aa17e5b568d0e5b190e5</title>
<path fill="none" stroke="black" d="M265.981,-374.274C235.122,-369.619 185.603,-357.146 160,-324 112.955,-263.095 119.527,-165.3 126.22,-118.15"/>
<polygon fill="black" stroke="black" points="129.705,-118.51 127.761,-108.096 122.786,-117.45 129.705,-118.51"/>
<g id="a_edge4&#45;headlabel"><a xlink:href="dir_000005_000013.html" target="_top" xlink:title="4">
<text text-anchor="middle" x="131.967" y="-119.994" font-family="Helvetica,sans-Serif" font-size="10.00">4</text>
</a>
</g>
</g>
<!-- dir_72c2f11201cd7636dc7624de0754daa5 -->
<g id="node9" class="node"><title>dir_72c2f11201cd7636dc7624de0754daa5</title>
<g id="a_node9"><a xlink:href="dir_72c2f11201cd7636dc7624de0754daa5.html" target="_top" xlink:title="tir">
<polygon fill="none" stroke="black" points="92,-252 38,-252 38,-216 92,-216 92,-252"/>
<text text-anchor="middle" x="65" y="-231.5" font-family="Helvetica,sans-Serif" font-size="10.00">tir</text>
</a>
</g>
</g>
<!-- dir_63946bee875c6d52bce55e72a67a86ad&#45;&gt;dir_72c2f11201cd7636dc7624de0754daa5 -->
<g id="edge5" class="edge"><title>dir_63946bee875c6d52bce55e72a67a86ad&#45;&gt;dir_72c2f11201cd7636dc7624de0754daa5</title>
<path fill="none" stroke="black" d="M265.876,-376.221C226.265,-373.702 152.284,-363.593 106,-324 87.2855,-307.991 76.6258,-281.627 70.8955,-261.74"/>
<polygon fill="black" stroke="black" points="74.2664,-260.796 68.3318,-252.019 67.4978,-262.581 74.2664,-260.796"/>
<g id="a_edge5&#45;headlabel"><a xlink:href="dir_000005_000007.html" target="_top" xlink:title="3">
<text text-anchor="middle" x="77.9284" y="-261.047" font-family="Helvetica,sans-Serif" font-size="10.00">3</text>
</a>
</g>
</g>
<!-- dir_dc867ff9a37cad1764f1670dc7eba6c1 -->
<g id="node8" class="node"><title>dir_dc867ff9a37cad1764f1670dc7eba6c1</title>
<g id="a_node8"><a xlink:href="dir_dc867ff9a37cad1764f1670dc7eba6c1.html" target="_top" xlink:title="ir">
<polygon fill="none" stroke="black" points="278,-180 224,-180 224,-144 278,-144 278,-180"/>
<text text-anchor="middle" x="251" y="-159.5" font-family="Helvetica,sans-Serif" font-size="10.00">ir</text>
</a>
</g>
</g>
<!-- dir_519be2d4a83a987dbf989f1de527b870&#45;&gt;dir_dc867ff9a37cad1764f1670dc7eba6c1 -->
<g id="edge6" class="edge"><title>dir_519be2d4a83a987dbf989f1de527b870&#45;&gt;dir_dc867ff9a37cad1764f1670dc7eba6c1</title>
<path fill="none" stroke="black" d="M360.004,-287.828C353.837,-268.771 341.916,-237.829 324,-216 313.747,-203.508 299.899,-192.475 287.021,-183.755"/>
<polygon fill="black" stroke="black" points="288.607,-180.613 278.315,-178.098 284.793,-186.482 288.607,-180.613"/>
<g id="a_edge6&#45;headlabel"><a xlink:href="dir_000009_000004.html" target="_top" xlink:title="11">
<text text-anchor="middle" x="293.169" y="-177.69" font-family="Helvetica,sans-Serif" font-size="10.00">11</text>
</a>
</g>
</g>
<!-- dir_d523279167051dc3aad9a40981221f4d -->
<g id="node3" class="node"><title>dir_d523279167051dc3aad9a40981221f4d</title>
<g id="a_node3"><a xlink:href="dir_d523279167051dc3aad9a40981221f4d.html" target="_top" xlink:title="qnn">
<polygon fill="white" stroke="black" points="392,-396 338,-396 338,-360 392,-360 392,-396"/>
<text text-anchor="middle" x="365" y="-375.5" font-family="Helvetica,sans-Serif" font-size="10.00">qnn</text>
</a>
</g>
</g>
<!-- dir_404558507ed35459f0d7a6d81d8c508d -->
<g id="node7" class="node"><title>dir_404558507ed35459f0d7a6d81d8c508d</title>
<g id="a_node7"><a xlink:href="dir_404558507ed35459f0d7a6d81d8c508d.html" target="_top" xlink:title="runtime">
<polygon fill="white" stroke="red" points="223,-36 169,-36 169,-0 223,-0 223,-36"/>
<text text-anchor="middle" x="196" y="-15.5" font-family="Helvetica,sans-Serif" font-size="10.00">runtime</text>
</a>
</g>
</g>
<!-- dir_d523279167051dc3aad9a40981221f4d&#45;&gt;dir_404558507ed35459f0d7a6d81d8c508d -->
<g id="edge21" class="edge"><title>dir_d523279167051dc3aad9a40981221f4d&#45;&gt;dir_404558507ed35459f0d7a6d81d8c508d</title>
<path fill="none" stroke="black" d="M379.165,-359.851C386.69,-349.93 395.497,-336.89 401,-324 416.881,-286.801 420,-275.447 420,-235 420,-235 420,-235 420,-161 420,-73.549 296.706,-37.6987 233.063,-25.0185"/>
<polygon fill="black" stroke="black" points="233.497,-21.5385 223.02,-23.1112 232.191,-28.4156 233.497,-21.5385"/>
<g id="a_edge21&#45;headlabel"><a xlink:href="dir_000006_000008.html" target="_top" xlink:title="1">
<text text-anchor="middle" x="237.558" y="-16.9196" font-family="Helvetica,sans-Serif" font-size="10.00">1</text>
</a>
</g>
</g>
<!-- dir_d523279167051dc3aad9a40981221f4d&#45;&gt;dir_dc867ff9a37cad1764f1670dc7eba6c1 -->
<g id="edge22" class="edge"><title>dir_d523279167051dc3aad9a40981221f4d&#45;&gt;dir_dc867ff9a37cad1764f1670dc7eba6c1</title>
<path fill="none" stroke="black" d="M352.225,-359.813C344.967,-349.667 335.967,-336.417 329,-324 303.209,-278.032 303.556,-263.153 280,-216 275.525,-207.042 270.355,-197.395 265.63,-188.818"/>
<polygon fill="black" stroke="black" points="268.652,-187.051 260.732,-180.014 262.535,-190.454 268.652,-187.051"/>
<g id="a_edge22&#45;headlabel"><a xlink:href="dir_000006_000004.html" target="_top" xlink:title="1">
<text text-anchor="middle" x="272.881" y="-186.312" font-family="Helvetica,sans-Serif" font-size="10.00">1</text>
</a>
</g>
</g>
<!-- dir_f97d855a3173728370e632aa77170e34&#45;&gt;dir_6cd4295f6ad5aa17e5b568d0e5b190e5 -->
<g id="edge7" class="edge"><title>dir_f97d855a3173728370e632aa77170e34&#45;&gt;dir_6cd4295f6ad5aa17e5b568d0e5b190e5</title>
<path fill="none" stroke="black" d="M24.1772,-287.665C21.9078,-269.274 20.3547,-239.662 29,-216 43.8316,-175.406 77.8399,-138.335 102.52,-115.288"/>
<polygon fill="black" stroke="black" points="105.139,-117.636 110.169,-108.312 100.422,-112.465 105.139,-117.636"/>
<g id="a_edge7&#45;headlabel"><a xlink:href="dir_000018_000013.html" target="_top" xlink:title="1">
<text text-anchor="middle" x="104.397" y="-119.657" font-family="Helvetica,sans-Serif" font-size="10.00">1</text>
</a>
</g>
</g>
<!-- dir_f97d855a3173728370e632aa77170e34&#45;&gt;dir_72c2f11201cd7636dc7624de0754daa5 -->
<g id="edge8" class="edge"><title>dir_f97d855a3173728370e632aa77170e34&#45;&gt;dir_72c2f11201cd7636dc7624de0754daa5</title>
<path fill="none" stroke="black" d="M30.4775,-287.697C34.0558,-279.559 39.2077,-269.689 44.5142,-260.701"/>
<polygon fill="black" stroke="black" points="47.5464,-262.452 49.8198,-252.104 41.5894,-258.776 47.5464,-262.452"/>
<g id="a_edge8&#45;headlabel"><a xlink:href="dir_000018_000007.html" target="_top" xlink:title="7">
<text text-anchor="middle" x="48.0748" y="-264.502" font-family="Helvetica,sans-Serif" font-size="10.00">7</text>
</a>
</g>
</g>
<!-- dir_5da96592f3a7c442b838b075c58254c2&#45;&gt;dir_6cd4295f6ad5aa17e5b568d0e5b190e5 -->
<g id="edge9" class="edge"><title>dir_5da96592f3a7c442b838b075c58254c2&#45;&gt;dir_6cd4295f6ad5aa17e5b568d0e5b190e5</title>
<path fill="none" stroke="black" d="M190.791,-287.849C179.499,-250.675 152.699,-162.439 139.146,-117.82"/>
<polygon fill="black" stroke="black" points="142.489,-116.784 136.234,-108.232 135.792,-118.818 142.489,-116.784"/>
<g id="a_edge9&#45;headlabel"><a xlink:href="dir_000017_000013.html" target="_top" xlink:title="1">
<text text-anchor="middle" x="146.251" y="-116.898" font-family="Helvetica,sans-Serif" font-size="10.00">1</text>
</a>
</g>
</g>
<!-- dir_5da96592f3a7c442b838b075c58254c2&#45;&gt;dir_404558507ed35459f0d7a6d81d8c508d -->
<g id="edge10" class="edge"><title>dir_5da96592f3a7c442b838b075c58254c2&#45;&gt;dir_404558507ed35459f0d7a6d81d8c508d</title>
<path fill="none" stroke="black" d="M196,-287.966C196,-240.291 196,-105.185 196,-46.63"/>
<polygon fill="black" stroke="black" points="199.5,-46.3064 196,-36.3065 192.5,-46.3065 199.5,-46.3064"/>
<g id="a_edge10&#45;headlabel"><a xlink:href="dir_000017_000008.html" target="_top" xlink:title="2">
<text text-anchor="middle" x="202.339" y="-47.4011" font-family="Helvetica,sans-Serif" font-size="10.00">2</text>
</a>
</g>
</g>
<!-- dir_5da96592f3a7c442b838b075c58254c2&#45;&gt;dir_dc867ff9a37cad1764f1670dc7eba6c1 -->
<g id="edge11" class="edge"><title>dir_5da96592f3a7c442b838b075c58254c2&#45;&gt;dir_dc867ff9a37cad1764f1670dc7eba6c1</title>
<path fill="none" stroke="black" d="M202.634,-287.871C212.091,-263.457 229.532,-218.426 240.684,-189.635"/>
<polygon fill="black" stroke="black" points="243.994,-190.778 244.342,-180.189 237.467,-188.25 243.994,-190.778"/>
<g id="a_edge11&#45;headlabel"><a xlink:href="dir_000017_000004.html" target="_top" xlink:title="2">
<text text-anchor="middle" x="245.343" y="-192.656" font-family="Helvetica,sans-Serif" font-size="10.00">2</text>
</a>
</g>
</g>
<!-- dir_5da96592f3a7c442b838b075c58254c2&#45;&gt;dir_72c2f11201cd7636dc7624de0754daa5 -->
<g id="edge12" class="edge"><title>dir_5da96592f3a7c442b838b075c58254c2&#45;&gt;dir_72c2f11201cd7636dc7624de0754daa5</title>
<path fill="none" stroke="black" d="M168.857,-290.496C149.184,-279.984 122.384,-265.663 100.936,-254.203"/>
<polygon fill="black" stroke="black" points="102.578,-251.111 92.1085,-249.485 99.2788,-257.285 102.578,-251.111"/>
<g id="a_edge12&#45;headlabel"><a xlink:href="dir_000017_000007.html" target="_top" xlink:title="2">
<text text-anchor="middle" x="107.086" y="-247.801" font-family="Helvetica,sans-Serif" font-size="10.00">2</text>
</a>
</g>
</g>
<!-- dir_6cd4295f6ad5aa17e5b568d0e5b190e5&#45;&gt;dir_404558507ed35459f0d7a6d81d8c508d -->
<g id="edge13" class="edge"><title>dir_6cd4295f6ad5aa17e5b568d0e5b190e5&#45;&gt;dir_404558507ed35459f0d7a6d81d8c508d</title>
<path fill="none" stroke="black" d="M147.067,-71.6966C154.939,-63.2198 164.555,-52.8636 173.173,-43.5826"/>
<polygon fill="black" stroke="black" points="175.878,-45.8139 180.117,-36.1043 170.748,-41.0507 175.878,-45.8139"/>
<g id="a_edge13&#45;headlabel"><a xlink:href="dir_000013_000008.html" target="_top" xlink:title="17">
<text text-anchor="middle" x="175.512" y="-47.8799" font-family="Helvetica,sans-Serif" font-size="10.00">17</text>
</a>
</g>
</g>
<!-- dir_dc867ff9a37cad1764f1670dc7eba6c1&#45;&gt;dir_63946bee875c6d52bce55e72a67a86ad -->
<g id="edge14" class="edge"><title>dir_dc867ff9a37cad1764f1670dc7eba6c1&#45;&gt;dir_63946bee875c6d52bce55e72a67a86ad</title>
<path fill="none" stroke="black" d="M254.382,-180.232C261.677,-217.403 278.938,-305.352 287.7,-349.996"/>
<polygon fill="black" stroke="black" points="284.274,-350.711 289.634,-359.849 291.142,-349.362 284.274,-350.711"/>
<g id="a_edge14&#45;headlabel"><a xlink:href="dir_000004_000005.html" target="_top" xlink:title="2">
<text text-anchor="middle" x="280.795" y="-345.23" font-family="Helvetica,sans-Serif" font-size="10.00">2</text>
</a>
</g>
</g>
<!-- dir_dc867ff9a37cad1764f1670dc7eba6c1&#45;&gt;dir_6cd4295f6ad5aa17e5b568d0e5b190e5 -->
<g id="edge15" class="edge"><title>dir_dc867ff9a37cad1764f1670dc7eba6c1&#45;&gt;dir_6cd4295f6ad5aa17e5b568d0e5b190e5</title>
<path fill="none" stroke="black" d="M223.77,-145.116C206.893,-135.271 185.026,-122.515 166.761,-111.861"/>
<polygon fill="black" stroke="black" points="168.523,-108.837 158.122,-106.821 164.996,-114.883 168.523,-108.837"/>
<g id="a_edge15&#45;headlabel"><a xlink:href="dir_000004_000013.html" target="_top" xlink:title="12">
<text text-anchor="middle" x="173.059" y="-105.695" font-family="Helvetica,sans-Serif" font-size="10.00">12</text>
</a>
</g>
</g>
<!-- dir_dc867ff9a37cad1764f1670dc7eba6c1&#45;&gt;dir_404558507ed35459f0d7a6d81d8c508d -->
<g id="edge16" class="edge"><title>dir_dc867ff9a37cad1764f1670dc7eba6c1&#45;&gt;dir_404558507ed35459f0d7a6d81d8c508d</title>
<path fill="none" stroke="black" d="M244.366,-143.871C234.909,-119.457 217.468,-74.4258 206.316,-45.6351"/>
<polygon fill="black" stroke="black" points="209.533,-44.2501 202.658,-36.1893 203.006,-46.7784 209.533,-44.2501"/>
<g id="a_edge16&#45;headlabel"><a xlink:href="dir_000004_000008.html" target="_top" xlink:title="7">
<text text-anchor="middle" x="213.479" y="-44.0766" font-family="Helvetica,sans-Serif" font-size="10.00">7</text>
</a>
</g>
</g>
<!-- dir_72c2f11201cd7636dc7624de0754daa5&#45;&gt;dir_f97d855a3173728370e632aa77170e34 -->
<g id="edge17" class="edge"><title>dir_72c2f11201cd7636dc7624de0754daa5&#45;&gt;dir_f97d855a3173728370e632aa77170e34</title>
<path fill="none" stroke="black" d="M61.6098,-252.104C58.0574,-260.214 52.9197,-270.076 47.6158,-279.078"/>
<polygon fill="black" stroke="black" points="44.572,-277.346 42.309,-287.697 50.5326,-281.017 44.572,-277.346"/>
<g id="a_edge17&#45;headlabel"><a xlink:href="dir_000007_000018.html" target="_top" xlink:title="1">
<text text-anchor="middle" x="44.039" y="-270.297" font-family="Helvetica,sans-Serif" font-size="10.00">1</text>
</a>
</g>
</g>
<!-- dir_72c2f11201cd7636dc7624de0754daa5&#45;&gt;dir_6cd4295f6ad5aa17e5b568d0e5b190e5 -->
<g id="edge18" class="edge"><title>dir_72c2f11201cd7636dc7624de0754daa5&#45;&gt;dir_6cd4295f6ad5aa17e5b568d0e5b190e5</title>
<path fill="none" stroke="black" d="M72.8142,-215.917C81.0301,-197.984 94.3555,-168.979 106,-144 110.06,-135.291 114.527,-125.793 118.549,-117.275"/>
<polygon fill="black" stroke="black" points="121.745,-118.704 122.854,-108.167 115.416,-115.712 121.745,-118.704"/>
<g id="a_edge18&#45;headlabel"><a xlink:href="dir_000007_000013.html" target="_top" xlink:title="7">
<text text-anchor="middle" x="122.775" y="-120.667" font-family="Helvetica,sans-Serif" font-size="10.00">7</text>
</a>
</g>
</g>
<!-- dir_72c2f11201cd7636dc7624de0754daa5&#45;&gt;dir_404558507ed35459f0d7a6d81d8c508d -->
<g id="edge19" class="edge"><title>dir_72c2f11201cd7636dc7624de0754daa5&#45;&gt;dir_404558507ed35459f0d7a6d81d8c508d</title>
<path fill="none" stroke="black" d="M63.5955,-215.832C61.9184,-184.166 62.6638,-115.806 95,-72 110.604,-50.8616 137.163,-37.3979 159.131,-29.3316"/>
<polygon fill="black" stroke="black" points="160.523,-32.5542 168.845,-25.9971 158.25,-25.9334 160.523,-32.5542"/>
<g id="a_edge19&#45;headlabel"><a xlink:href="dir_000007_000008.html" target="_top" xlink:title="2">
<text text-anchor="middle" x="158.045" y="-33.9067" font-family="Helvetica,sans-Serif" font-size="10.00">2</text>
</a>
</g>
</g>
<!-- dir_72c2f11201cd7636dc7624de0754daa5&#45;&gt;dir_dc867ff9a37cad1764f1670dc7eba6c1 -->
<g id="edge20" class="edge"><title>dir_72c2f11201cd7636dc7624de0754daa5&#45;&gt;dir_dc867ff9a37cad1764f1670dc7eba6c1</title>
<path fill="none" stroke="black" d="M92.046,-222.821C124.28,-210.69 178.292,-190.363 214.282,-176.819"/>
<polygon fill="black" stroke="black" points="215.795,-179.989 223.921,-173.191 213.329,-173.438 215.795,-179.989"/>
<g id="a_edge20&#45;headlabel"><a xlink:href="dir_000007_000004.html" target="_top" xlink:title="4">
<text text-anchor="middle" x="213.431" y="-181.412" font-family="Helvetica,sans-Serif" font-size="10.00">4</text>
</a>
</g>
</g>
</g>
</svg>
