<?xml version="1.0" encoding="UTF-8" standalone="no"?>
<!DOCTYPE svg PUBLIC "-//W3C//DTD SVG 1.1//EN"
 "http://www.w3.org/Graphics/SVG/1.1/DTD/svg11.dtd">
<!-- Generated by graphviz version 2.38.0 (20140413.2041)
 -->
<!-- Title: include/tvm Pages: 1 -->
<svg width="430pt" height="615pt"
 viewBox="0.00 0.00 430.00 615.00" xmlns="http://www.w3.org/2000/svg" xmlns:xlink="http://www.w3.org/1999/xlink">
<g id="graph0" class="graph" transform="scale(1 1) rotate(0) translate(4 611)">
<title>include/tvm</title>
<polygon fill="white" stroke="none" points="-4,4 -4,-611 426,-611 426,4 -4,4"/>
<g id="clust1" class="cluster"><title>clusterdir_d44c64559bbebec7f509842c48db8b23</title>
<g id="a_clust1"><a xlink:href="dir_d44c64559bbebec7f509842c48db8b23.html" target="_top" xlink:title="include">
<polygon fill="#ddddee" stroke="black" points="8,-8 8,-599 414,-599 414,-8 8,-8"/>
<text text-anchor="middle" x="211" y="-587" font-family="Helvetica,sans-Serif" font-size="10.00">include</text>
</a>
</g>
</g>
<g id="clust2" class="cluster"><title>clusterdir_b4c7d8e826c599ba55146c099a14beb5</title>
<g id="a_clust2"><a xlink:href="dir_b4c7d8e826c599ba55146c099a14beb5.html" target="_top">
<polygon fill="#eeeeff" stroke="black" points="16,-16 16,-572 406,-572 406,-16 16,-16"/>
</a>
</g>
</g>
<!-- dir_b4c7d8e826c599ba55146c099a14beb5 -->
<g id="node1" class="node"><title>dir_b4c7d8e826c599ba55146c099a14beb5</title>
<text text-anchor="middle" x="340" y="-543.5" font-family="Helvetica,sans-Serif" font-size="10.00">tvm</text>
</g>
<!-- dir_194ecda214f05a38134392ac6a69b970 -->
<g id="node2" class="node"><title>dir_194ecda214f05a38134392ac6a69b970</title>
<g id="a_node2"><a xlink:href="dir_194ecda214f05a38134392ac6a69b970.html" target="_top" xlink:title="arith">
<polygon fill="white" stroke="black" points="264,-564 210,-564 210,-528 264,-528 264,-564"/>
<text text-anchor="middle" x="237" y="-543.5" font-family="Helvetica,sans-Serif" font-size="10.00">arith</text>
</a>
</g>
</g>
<!-- dir_dc867ff9a37cad1764f1670dc7eba6c1 -->
<g id="node4" class="node"><title>dir_dc867ff9a37cad1764f1670dc7eba6c1</title>
<g id="a_node4"><a xlink:href="dir_dc867ff9a37cad1764f1670dc7eba6c1.html" target="_top" xlink:title="ir">
<polygon fill="white" stroke="black" points="208,-492 154,-492 154,-456 208,-456 208,-492"/>
<text text-anchor="middle" x="181" y="-471.5" font-family="Helvetica,sans-Serif" font-size="10.00">ir</text>
</a>
</g>
</g>
<!-- dir_194ecda214f05a38134392ac6a69b970&#45;&gt;dir_dc867ff9a37cad1764f1670dc7eba6c1 -->
<g id="edge8" class="edge"><title>dir_194ecda214f05a38134392ac6a69b970&#45;&gt;dir_dc867ff9a37cad1764f1670dc7eba6c1</title>
<path fill="none" stroke="black" d="M223.157,-527.697C216.511,-519.389 208.422,-509.277 201.113,-500.141"/>
<polygon fill="black" stroke="black" points="203.664,-497.727 194.683,-492.104 198.197,-502.099 203.664,-497.727"/>
<g id="a_edge8&#45;headlabel"><a xlink:href="dir_000002_000004.html" target="_top" xlink:title="4">
<text text-anchor="middle" x="208.126" y="-496.26" font-family="Helvetica,sans-Serif" font-size="10.00">4</text>
</a>
</g>
</g>
<!-- dir_6cd4295f6ad5aa17e5b568d0e5b190e5 -->
<g id="node5" class="node"><title>dir_6cd4295f6ad5aa17e5b568d0e5b190e5</title>
<g id="a_node5"><a xlink:href="dir_6cd4295f6ad5aa17e5b568d0e5b190e5.html" target="_top" xlink:title="node">
<polygon fill="white" stroke="black" points="126,-132 72,-132 72,-96 126,-96 126,-132"/>
<text text-anchor="middle" x="99" y="-111.5" font-family="Helvetica,sans-Serif" font-size="10.00">node</text>
</a>
</g>
</g>
<!-- dir_194ecda214f05a38134392ac6a69b970&#45;&gt;dir_6cd4295f6ad5aa17e5b568d0e5b190e5 -->
<g id="edge7" class="edge"><title>dir_194ecda214f05a38134392ac6a69b970&#45;&gt;dir_6cd4295f6ad5aa17e5b568d0e5b190e5</title>
<path fill="none" stroke="black" d="M209.915,-532.612C172.817,-514.026 107.451,-475.128 78,-420 25.1439,-321.061 28.7603,-274.494 64,-168 67.1881,-158.366 72.6073,-148.809 78.2414,-140.519"/>
<polygon fill="black" stroke="black" points="81.0946,-142.546 84.1061,-132.388 75.4174,-138.451 81.0946,-142.546"/>
<g id="a_edge7&#45;headlabel"><a xlink:href="dir_000002_000013.html" target="_top" xlink:title="2">
<text text-anchor="middle" x="81.2946" y="-144.622" font-family="Helvetica,sans-Serif" font-size="10.00">2</text>
</a>
</g>
</g>
<!-- dir_fb1b1bc11a768ab8cf63a96a73170118 -->
<g id="node8" class="node"><title>dir_fb1b1bc11a768ab8cf63a96a73170118</title>
<g id="a_node8"><a xlink:href="dir_fb1b1bc11a768ab8cf63a96a73170118.html" target="_top" xlink:title="support">
<polygon fill="white" stroke="black" points="344,-132 290,-132 290,-96 344,-96 344,-132"/>
<text text-anchor="middle" x="317" y="-111.5" font-family="Helvetica,sans-Serif" font-size="10.00">support</text>
</a>
</g>
</g>
<!-- dir_194ecda214f05a38134392ac6a69b970&#45;&gt;dir_fb1b1bc11a768ab8cf63a96a73170118 -->
<g id="edge10" class="edge"><title>dir_194ecda214f05a38134392ac6a69b970&#45;&gt;dir_fb1b1bc11a768ab8cf63a96a73170118</title>
<path fill="none" stroke="black" d="M258.626,-527.96C285.138,-505.893 329.549,-464.9 354,-420 369.775,-391.032 367.97,-380.738 372,-348 381.835,-268.111 384.403,-241.682 352,-168 347.849,-158.561 342.06,-148.945 336.384,-140.542"/>
<polygon fill="black" stroke="black" points="339.195,-138.454 330.583,-132.282 333.466,-142.477 339.195,-138.454"/>
<g id="a_edge10&#45;headlabel"><a xlink:href="dir_000002_000016.html" target="_top" xlink:title="1">
<text text-anchor="middle" x="343.584" y="-137.264" font-family="Helvetica,sans-Serif" font-size="10.00">1</text>
</a>
</g>
</g>
<!-- dir_72c2f11201cd7636dc7624de0754daa5 -->
<g id="node11" class="node"><title>dir_72c2f11201cd7636dc7624de0754daa5</title>
<g id="a_node11"><a xlink:href="dir_72c2f11201cd7636dc7624de0754daa5.html" target="_top" xlink:title="tir">
<polygon fill="white" stroke="black" points="258,-276 204,-276 204,-240 258,-240 258,-276"/>
<text text-anchor="middle" x="231" y="-255.5" font-family="Helvetica,sans-Serif" font-size="10.00">tir</text>
</a>
</g>
</g>
<!-- dir_194ecda214f05a38134392ac6a69b970&#45;&gt;dir_72c2f11201cd7636dc7624de0754daa5 -->
<g id="edge9" class="edge"><title>dir_194ecda214f05a38134392ac6a69b970&#45;&gt;dir_72c2f11201cd7636dc7624de0754daa5</title>
<path fill="none" stroke="black" d="M236.643,-527.966C235.642,-480.291 232.808,-345.185 231.58,-286.63"/>
<polygon fill="black" stroke="black" points="235.072,-286.231 231.363,-276.306 228.074,-286.378 235.072,-286.231"/>
<g id="a_edge9&#45;headlabel"><a xlink:href="dir_000002_000007.html" target="_top" xlink:title="4">
<text text-anchor="middle" x="237.986" y="-287.265" font-family="Helvetica,sans-Serif" font-size="10.00">4</text>
</a>
</g>
</g>
<!-- dir_02be2c9d68e402f80df60bd528724ee5 -->
<g id="node3" class="node"><title>dir_02be2c9d68e402f80df60bd528724ee5</title>
<g id="a_node3"><a xlink:href="dir_02be2c9d68e402f80df60bd528724ee5.html" target="_top" xlink:title="driver">
<polygon fill="white" stroke="black" points="330,-420 276,-420 276,-384 330,-384 330,-420"/>
<text text-anchor="middle" x="303" y="-399.5" font-family="Helvetica,sans-Serif" font-size="10.00">driver</text>
</a>
</g>
</g>
<!-- dir_404558507ed35459f0d7a6d81d8c508d -->
<g id="node7" class="node"><title>dir_404558507ed35459f0d7a6d81d8c508d</title>
<g id="a_node7"><a xlink:href="dir_404558507ed35459f0d7a6d81d8c508d.html" target="_top" xlink:title="runtime">
<polygon fill="white" stroke="red" points="182,-60 128,-60 128,-24 182,-24 182,-60"/>
<text text-anchor="middle" x="155" y="-39.5" font-family="Helvetica,sans-Serif" font-size="10.00">runtime</text>
</a>
</g>
</g>
<!-- dir_02be2c9d68e402f80df60bd528724ee5&#45;&gt;dir_404558507ed35459f0d7a6d81d8c508d -->
<g id="edge23" class="edge"><title>dir_02be2c9d68e402f80df60bd528724ee5&#45;&gt;dir_404558507ed35459f0d7a6d81d8c508d</title>
<path fill="none" stroke="black" d="M313.909,-383.654C344.01,-333.362 421.608,-185.388 353,-96 333.541,-70.6469 243.908,-54.779 192.158,-47.5675"/>
<polygon fill="black" stroke="black" points="192.416,-44.0706 182.038,-46.2001 191.479,-51.0076 192.416,-44.0706"/>
<g id="a_edge23&#45;headlabel"><a xlink:href="dir_000003_000008.html" target="_top" xlink:title="1">
<text text-anchor="middle" x="196.359" y="-39.2381" font-family="Helvetica,sans-Serif" font-size="10.00">1</text>
</a>
</g>
</g>
<!-- dir_02be2c9d68e402f80df60bd528724ee5&#45;&gt;dir_fb1b1bc11a768ab8cf63a96a73170118 -->
<g id="edge25" class="edge"><title>dir_02be2c9d68e402f80df60bd528724ee5&#45;&gt;dir_fb1b1bc11a768ab8cf63a96a73170118</title>
<path fill="none" stroke="black" d="M304.863,-383.834C305.927,-373.468 307.204,-359.988 308,-348 312.935,-273.712 315.424,-185.908 316.435,-142.349"/>
<polygon fill="black" stroke="black" points="319.936,-142.339 316.661,-132.263 312.938,-142.182 319.936,-142.339"/>
<g id="a_edge25&#45;headlabel"><a xlink:href="dir_000003_000016.html" target="_top" xlink:title="1">
<text text-anchor="middle" x="322.694" y="-143.496" font-family="Helvetica,sans-Serif" font-size="10.00">1</text>
</a>
</g>
</g>
<!-- dir_5da96592f3a7c442b838b075c58254c2 -->
<g id="node9" class="node"><title>dir_5da96592f3a7c442b838b075c58254c2</title>
<g id="a_node9"><a xlink:href="dir_5da96592f3a7c442b838b075c58254c2.html" target="_top" xlink:title="target">
<polygon fill="white" stroke="black" points="158,-348 104,-348 104,-312 158,-312 158,-348"/>
<text text-anchor="middle" x="131" y="-327.5" font-family="Helvetica,sans-Serif" font-size="10.00">target</text>
</a>
</g>
</g>
<!-- dir_02be2c9d68e402f80df60bd528724ee5&#45;&gt;dir_5da96592f3a7c442b838b075c58254c2 -->
<g id="edge22" class="edge"><title>dir_02be2c9d68e402f80df60bd528724ee5&#45;&gt;dir_5da96592f3a7c442b838b075c58254c2</title>
<path fill="none" stroke="black" d="M275.746,-389.908C246.559,-378.03 200.079,-359.114 167.691,-345.932"/>
<polygon fill="black" stroke="black" points="168.708,-342.568 158.126,-342.04 166.069,-349.051 168.708,-342.568"/>
<g id="a_edge22&#45;headlabel"><a xlink:href="dir_000003_000017.html" target="_top" xlink:title="1">
<text text-anchor="middle" x="173.108" y="-338.793" font-family="Helvetica,sans-Serif" font-size="10.00">1</text>
</a>
</g>
</g>
<!-- dir_f97d855a3173728370e632aa77170e34 -->
<g id="node10" class="node"><title>dir_f97d855a3173728370e632aa77170e34</title>
<g id="a_node10"><a xlink:href="dir_f97d855a3173728370e632aa77170e34.html" target="_top" xlink:title="te">
<polygon fill="white" stroke="black" points="258,-204 204,-204 204,-168 258,-168 258,-204"/>
<text text-anchor="middle" x="231" y="-183.5" font-family="Helvetica,sans-Serif" font-size="10.00">te</text>
</a>
</g>
</g>
<!-- dir_02be2c9d68e402f80df60bd528724ee5&#45;&gt;dir_f97d855a3173728370e632aa77170e34 -->
<g id="edge21" class="edge"><title>dir_02be2c9d68e402f80df60bd528724ee5&#45;&gt;dir_f97d855a3173728370e632aa77170e34</title>
<path fill="none" stroke="black" d="M304.179,-383.556C305.524,-352.89 305.074,-288.02 282,-240 276.824,-229.228 268.617,-219.249 260.286,-210.923"/>
<polygon fill="black" stroke="black" points="262.682,-208.371 253.007,-204.053 257.877,-213.462 262.682,-208.371"/>
<g id="a_edge21&#45;headlabel"><a xlink:href="dir_000003_000018.html" target="_top" xlink:title="1">
<text text-anchor="middle" x="267.245" y="-206.273" font-family="Helvetica,sans-Serif" font-size="10.00">1</text>
</a>
</g>
</g>
<!-- dir_02be2c9d68e402f80df60bd528724ee5&#45;&gt;dir_72c2f11201cd7636dc7624de0754daa5 -->
<g id="edge24" class="edge"><title>dir_02be2c9d68e402f80df60bd528724ee5&#45;&gt;dir_72c2f11201cd7636dc7624de0754daa5</title>
<path fill="none" stroke="black" d="M294.315,-383.871C281.882,-359.35 258.904,-314.032 244.314,-285.259"/>
<polygon fill="black" stroke="black" points="247.36,-283.525 239.716,-276.189 241.116,-286.691 247.36,-283.525"/>
<g id="a_edge24&#45;headlabel"><a xlink:href="dir_000003_000007.html" target="_top" xlink:title="1">
<text text-anchor="middle" x="251.518" y="-282.947" font-family="Helvetica,sans-Serif" font-size="10.00">1</text>
</a>
</g>
</g>
<!-- dir_dc867ff9a37cad1764f1670dc7eba6c1&#45;&gt;dir_6cd4295f6ad5aa17e5b568d0e5b190e5 -->
<g id="edge27" class="edge"><title>dir_dc867ff9a37cad1764f1670dc7eba6c1&#45;&gt;dir_6cd4295f6ad5aa17e5b568d0e5b190e5</title>
<path fill="none" stroke="black" d="M153.803,-456.28C119.517,-432.871 65,-386.867 65,-331 65,-331 65,-331 65,-257 65,-217.196 64.4386,-206.378 75,-168 77.4657,-159.04 81.2587,-149.675 85.1067,-141.354"/>
<polygon fill="black" stroke="black" points="88.3556,-142.675 89.5729,-132.151 82.058,-139.619 88.3556,-142.675"/>
<g id="a_edge27&#45;headlabel"><a xlink:href="dir_000004_000013.html" target="_top" xlink:title="12">
<text text-anchor="middle" x="89.3406" y="-144.649" font-family="Helvetica,sans-Serif" font-size="10.00">12</text>
</a>
</g>
</g>
<!-- dir_63946bee875c6d52bce55e72a67a86ad -->
<g id="node6" class="node"><title>dir_63946bee875c6d52bce55e72a67a86ad</title>
<g id="a_node6"><a xlink:href="dir_63946bee875c6d52bce55e72a67a86ad.html" target="_top" xlink:title="relay">
<polygon fill="white" stroke="red" points="198,-420 144,-420 144,-384 198,-384 198,-420"/>
<text text-anchor="middle" x="171" y="-399.5" font-family="Helvetica,sans-Serif" font-size="10.00">relay</text>
</a>
</g>
</g>
<!-- dir_dc867ff9a37cad1764f1670dc7eba6c1&#45;&gt;dir_63946bee875c6d52bce55e72a67a86ad -->
<g id="edge26" class="edge"><title>dir_dc867ff9a37cad1764f1670dc7eba6c1&#45;&gt;dir_63946bee875c6d52bce55e72a67a86ad</title>
<path fill="none" stroke="black" d="M172.612,-455.697C170.715,-447.983 169.164,-438.712 168.278,-430.112"/>
<polygon fill="black" stroke="black" points="171.766,-429.823 167.548,-420.104 164.785,-430.332 171.766,-429.823"/>
<g id="a_edge26&#45;headlabel"><a xlink:href="dir_000004_000005.html" target="_top" xlink:title="2">
<text text-anchor="middle" x="174.859" y="-430.702" font-family="Helvetica,sans-Serif" font-size="10.00">2</text>
</a>
</g>
</g>
<!-- dir_dc867ff9a37cad1764f1670dc7eba6c1&#45;&gt;dir_404558507ed35459f0d7a6d81d8c508d -->
<g id="edge28" class="edge"><title>dir_dc867ff9a37cad1764f1670dc7eba6c1&#45;&gt;dir_404558507ed35459f0d7a6d81d8c508d</title>
<path fill="none" stroke="black" d="M208.264,-472.466C246.325,-470.205 315.077,-460.361 354,-420 405.412,-366.687 397,-333.064 397,-259 397,-259 397,-259 397,-185 397,-143.398 398.445,-124.353 368,-96 342.706,-72.4439 246.304,-55.659 192.272,-47.8773"/>
<polygon fill="black" stroke="black" points="192.454,-44.3686 182.064,-46.4417 191.479,-51.3003 192.454,-44.3686"/>
<g id="a_edge28&#45;headlabel"><a xlink:href="dir_000004_000008.html" target="_top" xlink:title="7">
<text text-anchor="middle" x="196.409" y="-39.5575" font-family="Helvetica,sans-Serif" font-size="10.00">7</text>
</a>
</g>
</g>
<!-- dir_dc867ff9a37cad1764f1670dc7eba6c1&#45;&gt;dir_fb1b1bc11a768ab8cf63a96a73170118 -->
<g id="edge29" class="edge"><title>dir_dc867ff9a37cad1764f1670dc7eba6c1&#45;&gt;dir_fb1b1bc11a768ab8cf63a96a73170118</title>
<path fill="none" stroke="black" d="M208.309,-472.85C245.013,-470.994 309.096,-461.573 339,-420 400.414,-334.622 353.603,-198.736 329.29,-141.642"/>
<polygon fill="black" stroke="black" points="332.392,-140 325.182,-132.238 325.977,-142.803 332.392,-140"/>
<g id="a_edge29&#45;headlabel"><a xlink:href="dir_000004_000016.html" target="_top" xlink:title="1">
<text text-anchor="middle" x="336.433" y="-139.658" font-family="Helvetica,sans-Serif" font-size="10.00">1</text>
</a>
</g>
</g>
<!-- dir_6cd4295f6ad5aa17e5b568d0e5b190e5&#45;&gt;dir_404558507ed35459f0d7a6d81d8c508d -->
<g id="edge20" class="edge"><title>dir_6cd4295f6ad5aa17e5b568d0e5b190e5&#45;&gt;dir_404558507ed35459f0d7a6d81d8c508d</title>
<path fill="none" stroke="black" d="M112.843,-95.6966C119.489,-87.3893 127.578,-77.2771 134.887,-68.1407"/>
<polygon fill="black" stroke="black" points="137.803,-70.0995 141.317,-60.1043 132.336,-65.7266 137.803,-70.0995"/>
<g id="a_edge20&#45;headlabel"><a xlink:href="dir_000013_000008.html" target="_top" xlink:title="17">
<text text-anchor="middle" x="137.774" y="-72.1801" font-family="Helvetica,sans-Serif" font-size="10.00">17</text>
</a>
</g>
</g>
<!-- dir_63946bee875c6d52bce55e72a67a86ad&#45;&gt;dir_dc867ff9a37cad1764f1670dc7eba6c1 -->
<g id="edge5" class="edge"><title>dir_63946bee875c6d52bce55e72a67a86ad&#45;&gt;dir_dc867ff9a37cad1764f1670dc7eba6c1</title>
<path fill="none" stroke="black" d="M179.339,-420.104C181.242,-427.791 182.802,-437.054 183.699,-445.665"/>
<polygon fill="black" stroke="black" points="180.213,-445.983 184.444,-455.697 187.194,-445.465 180.213,-445.983"/>
<g id="a_edge5&#45;headlabel"><a xlink:href="dir_000005_000004.html" target="_top" xlink:title="32">
<text text-anchor="middle" x="177.115" y="-440.109" font-family="Helvetica,sans-Serif" font-size="10.00">32</text>
</a>
</g>
</g>
<!-- dir_63946bee875c6d52bce55e72a67a86ad&#45;&gt;dir_6cd4295f6ad5aa17e5b568d0e5b190e5 -->
<g id="edge3" class="edge"><title>dir_63946bee875c6d52bce55e72a67a86ad&#45;&gt;dir_6cd4295f6ad5aa17e5b568d0e5b190e5</title>
<path fill="none" stroke="black" d="M143.989,-390.143C126.551,-381.544 105.269,-367.681 95,-348 59.927,-280.782 78.3472,-187.116 90.7373,-141.745"/>
<polygon fill="black" stroke="black" points="94.1235,-142.633 93.4948,-132.057 87.3909,-140.716 94.1235,-142.633"/>
<g id="a_edge3&#45;headlabel"><a xlink:href="dir_000005_000013.html" target="_top" xlink:title="4">
<text text-anchor="middle" x="95.8703" y="-144.367" font-family="Helvetica,sans-Serif" font-size="10.00">4</text>
</a>
</g>
</g>
<!-- dir_63946bee875c6d52bce55e72a67a86ad&#45;&gt;dir_404558507ed35459f0d7a6d81d8c508d -->
<g id="edge4" class="edge"><title>dir_63946bee875c6d52bce55e72a67a86ad&#45;&gt;dir_404558507ed35459f0d7a6d81d8c508d</title>
<path fill="none" stroke="black" d="M143.897,-393.033C122.355,-385.206 93.3728,-371.03 78,-348 42.1918,-294.355 64.0077,-268.373 60,-204 57.0163,-156.074 38.1107,-137.065 63,-96 75.2341,-75.8152 98.2464,-62.5629 118.194,-54.3579"/>
<polygon fill="black" stroke="black" points="119.592,-57.5707 127.68,-50.7272 117.089,-51.0332 119.592,-57.5707"/>
<g id="a_edge4&#45;headlabel"><a xlink:href="dir_000005_000008.html" target="_top" xlink:title="5">
<text text-anchor="middle" x="117.249" y="-59.0073" font-family="Helvetica,sans-Serif" font-size="10.00">5</text>
</a>
</g>
</g>
<!-- dir_63946bee875c6d52bce55e72a67a86ad&#45;&gt;dir_5da96592f3a7c442b838b075c58254c2 -->
<g id="edge2" class="edge"><title>dir_63946bee875c6d52bce55e72a67a86ad&#45;&gt;dir_5da96592f3a7c442b838b075c58254c2</title>
<path fill="none" stroke="black" d="M161.112,-383.697C156.511,-375.644 150.94,-365.894 145.847,-356.982"/>
<polygon fill="black" stroke="black" points="148.774,-355.05 140.774,-348.104 142.696,-358.523 148.774,-355.05"/>
<g id="a_edge2&#45;headlabel"><a xlink:href="dir_000005_000017.html" target="_top" xlink:title="4">
<text text-anchor="middle" x="153.023" y="-354.263" font-family="Helvetica,sans-Serif" font-size="10.00">4</text>
</a>
</g>
</g>
<!-- dir_63946bee875c6d52bce55e72a67a86ad&#45;&gt;dir_f97d855a3173728370e632aa77170e34 -->
<g id="edge1" class="edge"><title>dir_63946bee875c6d52bce55e72a67a86ad&#45;&gt;dir_f97d855a3173728370e632aa77170e34</title>
<path fill="none" stroke="black" d="M171.079,-383.912C171.748,-353.797 175.57,-289.752 195,-240 198.784,-230.311 204.607,-220.628 210.475,-212.24"/>
<polygon fill="black" stroke="black" points="213.415,-214.15 216.522,-204.021 207.777,-210.002 213.415,-214.15"/>
<g id="a_edge1&#45;headlabel"><a xlink:href="dir_000005_000018.html" target="_top" xlink:title="4">
<text text-anchor="middle" x="213.571" y="-216.228" font-family="Helvetica,sans-Serif" font-size="10.00">4</text>
</a>
</g>
</g>
<!-- dir_63946bee875c6d52bce55e72a67a86ad&#45;&gt;dir_72c2f11201cd7636dc7624de0754daa5 -->
<g id="edge6" class="edge"><title>dir_63946bee875c6d52bce55e72a67a86ad&#45;&gt;dir_72c2f11201cd7636dc7624de0754daa5</title>
<path fill="none" stroke="black" d="M178.237,-383.871C188.553,-359.457 207.581,-314.426 219.746,-285.635"/>
<polygon fill="black" stroke="black" points="223.069,-286.763 223.737,-276.189 216.621,-284.038 223.069,-286.763"/>
<g id="a_edge6&#45;headlabel"><a xlink:href="dir_000005_000007.html" target="_top" xlink:title="3">
<text text-anchor="middle" x="224.285" y="-288.679" font-family="Helvetica,sans-Serif" font-size="10.00">3</text>
</a>
</g>
</g>
<!-- dir_5da96592f3a7c442b838b075c58254c2&#45;&gt;dir_dc867ff9a37cad1764f1670dc7eba6c1 -->
<g id="edge17" class="edge"><title>dir_5da96592f3a7c442b838b075c58254c2&#45;&gt;dir_dc867ff9a37cad1764f1670dc7eba6c1</title>
<path fill="none" stroke="black" d="M128.534,-348.094C126.598,-366.542 125.595,-396.442 135,-420 139.177,-430.461 146.336,-440.279 153.779,-448.554"/>
<polygon fill="black" stroke="black" points="151.464,-451.196 160.914,-455.985 156.513,-446.347 151.464,-451.196"/>
<g id="a_edge17&#45;headlabel"><a xlink:href="dir_000017_000004.html" target="_top" xlink:title="2">
<text text-anchor="middle" x="146.926" y="-448.069" font-family="Helvetica,sans-Serif" font-size="10.00">2</text>
</a>
</g>
</g>
<!-- dir_5da96592f3a7c442b838b075c58254c2&#45;&gt;dir_6cd4295f6ad5aa17e5b568d0e5b190e5 -->
<g id="edge15" class="edge"><title>dir_5da96592f3a7c442b838b075c58254c2&#45;&gt;dir_6cd4295f6ad5aa17e5b568d0e5b190e5</title>
<path fill="none" stroke="black" d="M128.435,-311.849C122.9,-274.832 109.793,-187.181 103.095,-142.386"/>
<polygon fill="black" stroke="black" points="106.517,-141.605 101.577,-132.232 99.5943,-142.64 106.517,-141.605"/>
<g id="a_edge15&#45;headlabel"><a xlink:href="dir_000017_000013.html" target="_top" xlink:title="1">
<text text-anchor="middle" x="109.857" y="-142.24" font-family="Helvetica,sans-Serif" font-size="10.00">1</text>
</a>
</g>
</g>
<!-- dir_5da96592f3a7c442b838b075c58254c2&#45;&gt;dir_404558507ed35459f0d7a6d81d8c508d -->
<g id="edge16" class="edge"><title>dir_5da96592f3a7c442b838b075c58254c2&#45;&gt;dir_404558507ed35459f0d7a6d81d8c508d</title>
<path fill="none" stroke="black" d="M132.429,-311.966C136.43,-264.291 147.768,-129.185 152.681,-70.63"/>
<polygon fill="black" stroke="black" points="156.199,-70.5641 153.548,-60.3065 149.224,-69.9787 156.199,-70.5641"/>
<g id="a_edge16&#45;headlabel"><a xlink:href="dir_000017_000008.html" target="_top" xlink:title="2">
<text text-anchor="middle" x="158.728" y="-71.8836" font-family="Helvetica,sans-Serif" font-size="10.00">2</text>
</a>
</g>
</g>
<!-- dir_5da96592f3a7c442b838b075c58254c2&#45;&gt;dir_fb1b1bc11a768ab8cf63a96a73170118 -->
<g id="edge19" class="edge"><title>dir_5da96592f3a7c442b838b075c58254c2&#45;&gt;dir_fb1b1bc11a768ab8cf63a96a73170118</title>
<path fill="none" stroke="black" d="M137.411,-311.86C152.558,-271.506 189.689,-173.481 195,-168 217.942,-144.324 253.237,-130.572 279.972,-123.039"/>
<polygon fill="black" stroke="black" points="280.985,-126.391 289.756,-120.448 279.193,-119.625 280.985,-126.391"/>
<g id="a_edge19&#45;headlabel"><a xlink:href="dir_000017_000016.html" target="_top" xlink:title="2">
<text text-anchor="middle" x="278.237" y="-127.556" font-family="Helvetica,sans-Serif" font-size="10.00">2</text>
</a>
</g>
</g>
<!-- dir_5da96592f3a7c442b838b075c58254c2&#45;&gt;dir_72c2f11201cd7636dc7624de0754daa5 -->
<g id="edge18" class="edge"><title>dir_5da96592f3a7c442b838b075c58254c2&#45;&gt;dir_72c2f11201cd7636dc7624de0754daa5</title>
<path fill="none" stroke="black" d="M155.463,-311.876C168.296,-302.893 184.196,-291.763 198.094,-282.034"/>
<polygon fill="black" stroke="black" points="200.258,-284.792 206.443,-276.19 196.244,-279.057 200.258,-284.792"/>
<g id="a_edge18&#45;headlabel"><a xlink:href="dir_000017_000007.html" target="_top" xlink:title="2">
<text text-anchor="middle" x="198.941" y="-286.679" font-family="Helvetica,sans-Serif" font-size="10.00">2</text>
</a>
</g>
</g>
<!-- dir_f97d855a3173728370e632aa77170e34&#45;&gt;dir_194ecda214f05a38134392ac6a69b970 -->
<g id="edge11" class="edge"><title>dir_f97d855a3173728370e632aa77170e34&#45;&gt;dir_194ecda214f05a38134392ac6a69b970</title>
<path fill="none" stroke="black" d="M246.61,-204.226C254.373,-213.97 262.946,-226.816 267,-240 282.888,-291.667 254.656,-453.458 242.332,-518.012"/>
<polygon fill="black" stroke="black" points="238.891,-517.371 240.432,-527.853 245.764,-518.698 238.891,-517.371"/>
<g id="a_edge11&#45;headlabel"><a xlink:href="dir_000018_000002.html" target="_top" xlink:title="2">
<text text-anchor="middle" x="236.785" y="-510.803" font-family="Helvetica,sans-Serif" font-size="10.00">2</text>
</a>
</g>
</g>
<!-- dir_f97d855a3173728370e632aa77170e34&#45;&gt;dir_6cd4295f6ad5aa17e5b568d0e5b190e5 -->
<g id="edge12" class="edge"><title>dir_f97d855a3173728370e632aa77170e34&#45;&gt;dir_6cd4295f6ad5aa17e5b568d0e5b190e5</title>
<path fill="none" stroke="black" d="M203.969,-170.666C184.17,-160.166 157.081,-145.8 135.381,-134.293"/>
<polygon fill="black" stroke="black" points="136.923,-131.149 126.448,-129.556 133.643,-137.333 136.923,-131.149"/>
<g id="a_edge12&#45;headlabel"><a xlink:href="dir_000018_000013.html" target="_top" xlink:title="1">
<text text-anchor="middle" x="141.428" y="-127.824" font-family="Helvetica,sans-Serif" font-size="10.00">1</text>
</a>
</g>
</g>
<!-- dir_f97d855a3173728370e632aa77170e34&#45;&gt;dir_fb1b1bc11a768ab8cf63a96a73170118 -->
<g id="edge14" class="edge"><title>dir_f97d855a3173728370e632aa77170e34&#45;&gt;dir_fb1b1bc11a768ab8cf63a96a73170118</title>
<path fill="none" stroke="black" d="M252.258,-167.697C263.089,-158.881 276.418,-148.032 288.16,-138.474"/>
<polygon fill="black" stroke="black" points="290.44,-141.132 295.986,-132.104 286.021,-135.703 290.44,-141.132"/>
<g id="a_edge14&#45;headlabel"><a xlink:href="dir_000018_000016.html" target="_top" xlink:title="1">
<text text-anchor="middle" x="289.444" y="-143.103" font-family="Helvetica,sans-Serif" font-size="10.00">1</text>
</a>
</g>
</g>
<!-- dir_f97d855a3173728370e632aa77170e34&#45;&gt;dir_72c2f11201cd7636dc7624de0754daa5 -->
<g id="edge13" class="edge"><title>dir_f97d855a3173728370e632aa77170e34&#45;&gt;dir_72c2f11201cd7636dc7624de0754daa5</title>
<path fill="none" stroke="black" d="M236.895,-204.104C237.701,-211.791 237.937,-221.054 237.604,-229.665"/>
<polygon fill="black" stroke="black" points="234.109,-229.48 236.916,-239.697 241.092,-229.96 234.109,-229.48"/>
<g id="a_edge13&#45;headlabel"><a xlink:href="dir_000018_000007.html" target="_top" xlink:title="7">
<text text-anchor="middle" x="231.522" y="-223.2" font-family="Helvetica,sans-Serif" font-size="10.00">7</text>
</a>
</g>
</g>
<!-- dir_72c2f11201cd7636dc7624de0754daa5&#45;&gt;dir_dc867ff9a37cad1764f1670dc7eba6c1 -->
<g id="edge33" class="edge"><title>dir_72c2f11201cd7636dc7624de0754daa5&#45;&gt;dir_dc867ff9a37cad1764f1670dc7eba6c1</title>
<path fill="none" stroke="black" d="M230.165,-276.307C228.339,-306.224 222.804,-369.276 207,-420 204.165,-429.1 199.958,-438.583 195.751,-446.97"/>
<polygon fill="black" stroke="black" points="192.616,-445.412 191.073,-455.894 198.816,-448.661 192.616,-445.412"/>
<g id="a_edge33&#45;headlabel"><a xlink:href="dir_000007_000004.html" target="_top" xlink:title="4">
<text text-anchor="middle" x="191.77" y="-438.41" font-family="Helvetica,sans-Serif" font-size="10.00">4</text>
</a>
</g>
</g>
<!-- dir_72c2f11201cd7636dc7624de0754daa5&#45;&gt;dir_6cd4295f6ad5aa17e5b568d0e5b190e5 -->
<g id="edge31" class="edge"><title>dir_72c2f11201cd7636dc7624de0754daa5&#45;&gt;dir_6cd4295f6ad5aa17e5b568d0e5b190e5</title>
<path fill="none" stroke="black" d="M204.033,-239.998C190.008,-230.414 173.105,-217.646 160,-204 141.685,-184.93 125.022,-159.832 113.757,-141.151"/>
<polygon fill="black" stroke="black" points="116.625,-139.125 108.528,-132.292 110.597,-142.683 116.625,-139.125"/>
<g id="a_edge31&#45;headlabel"><a xlink:href="dir_000007_000013.html" target="_top" xlink:title="7">
<text text-anchor="middle" x="120.897" y="-138.277" font-family="Helvetica,sans-Serif" font-size="10.00">7</text>
</a>
</g>
</g>
<!-- dir_72c2f11201cd7636dc7624de0754daa5&#45;&gt;dir_404558507ed35459f0d7a6d81d8c508d -->
<g id="edge32" class="edge"><title>dir_72c2f11201cd7636dc7624de0754daa5&#45;&gt;dir_404558507ed35459f0d7a6d81d8c508d</title>
<path fill="none" stroke="black" d="M217,-239.779C209.526,-229.836 200.716,-216.797 195,-204 175.054,-159.347 163.97,-103.096 158.767,-70.2786"/>
<polygon fill="black" stroke="black" points="162.183,-69.4607 157.223,-60.0983 155.262,-70.51 162.183,-69.4607"/>
<g id="a_edge32&#45;headlabel"><a xlink:href="dir_000007_000008.html" target="_top" xlink:title="2">
<text text-anchor="middle" x="165.529" y="-70.0892" font-family="Helvetica,sans-Serif" font-size="10.00">2</text>
</a>
</g>
</g>
<!-- dir_72c2f11201cd7636dc7624de0754daa5&#45;&gt;dir_f97d855a3173728370e632aa77170e34 -->
<g id="edge30" class="edge"><title>dir_72c2f11201cd7636dc7624de0754daa5&#45;&gt;dir_f97d855a3173728370e632aa77170e34</title>
<path fill="none" stroke="black" d="M225.084,-239.697C224.289,-231.983 224.062,-222.712 224.405,-214.112"/>
<polygon fill="black" stroke="black" points="227.898,-214.324 225.105,-204.104 220.915,-213.836 227.898,-214.324"/>
<g id="a_edge30&#45;headlabel"><a xlink:href="dir_000007_000018.html" target="_top" xlink:title="1">
<text text-anchor="middle" x="230.48" y="-215.608" font-family="Helvetica,sans-Serif" font-size="10.00">1</text>
</a>
</g>
</g>
</g>
</svg>
