<?xml version="1.0" encoding="UTF-8" standalone="no"?>
<!DOCTYPE svg PUBLIC "-//W3C//DTD SVG 1.1//EN"
 "http://www.w3.org/Graphics/SVG/1.1/DTD/svg11.dtd">
<!-- Generated by graphviz version 2.38.0 (20140413.2041)
 -->
<!-- Title: include/tvm/ir/error.h Pages: 1 -->
<svg width="2796pt" height="957pt"
 viewBox="0.00 0.00 2796.00 957.00" xmlns="http://www.w3.org/2000/svg" xmlns:xlink="http://www.w3.org/1999/xlink">
<g id="graph0" class="graph" transform="scale(1 1) rotate(0) translate(4 953)">
<title>include/tvm/ir/error.h</title>
<polygon fill="white" stroke="none" points="-4,4 -4,-953 2792,-953 2792,4 -4,4"/>
<!-- Node1 -->
<g id="node1" class="node"><title>Node1</title>
<polygon fill="#bfbfbf" stroke="black" points="2220,-929.5 2220,-948.5 2336,-948.5 2336,-929.5 2220,-929.5"/>
<text text-anchor="middle" x="2278" y="-936.5" font-family="Helvetica,sans-Serif" font-size="10.00">include/tvm/ir/error.h</text>
</g>
<!-- Node2 -->
<g id="node2" class="node"><title>Node2</title>
<g id="a_node2"><a xlink:href="span_8h.html" target="_top" xlink:title="Span information for debugging purposes. ">
<polygon fill="white" stroke="black" points="1473,-593.5 1473,-612.5 1553,-612.5 1553,-593.5 1473,-593.5"/>
<text text-anchor="middle" x="1513" y="-600.5" font-family="Helvetica,sans-Serif" font-size="10.00">tvm/ir/span.h</text>
</a>
</g>
</g>
<!-- Node1&#45;&gt;Node2 -->
<g id="edge1" class="edge"><title>Node1&#45;&gt;Node2</title>
<path fill="none" stroke="midnightblue" d="M2219.93,-936.818C1944.72,-930.84 785,-901.301 785,-828 785,-828 785,-828 785,-714 785,-645.364 1297.46,-614.468 1462.47,-606.298"/>
<polygon fill="midnightblue" stroke="midnightblue" points="1463.01,-609.776 1472.82,-605.793 1462.66,-602.785 1463.01,-609.776"/>
</g>
<!-- Node10 -->
<g id="node10" class="node"><title>Node10</title>
<polygon fill="white" stroke="#bfbfbf" points="2207,-62 2207,-81 2251,-81 2251,-62 2207,-62"/>
<text text-anchor="middle" x="2229" y="-69" font-family="Helvetica,sans-Serif" font-size="10.00">string</text>
</g>
<!-- Node1&#45;&gt;Node10 -->
<g id="edge147" class="edge"><title>Node1&#45;&gt;Node10</title>
<path fill="none" stroke="midnightblue" d="M2336.34,-935.098C2453.01,-927.695 2704,-903.047 2704,-828 2704,-828 2704,-828 2704,-188 2704,-96.7191 2368.61,-77.29 2261.48,-73.4123"/>
<polygon fill="midnightblue" stroke="midnightblue" points="2261.39,-69.9072 2251.27,-73.0655 2261.15,-76.9031 2261.39,-69.9072"/>
</g>
<!-- Node21 -->
<g id="node21" class="node"><title>Node21</title>
<polygon fill="white" stroke="#bfbfbf" points="1068.5,-179.5 1068.5,-198.5 1115.5,-198.5 1115.5,-179.5 1068.5,-179.5"/>
<text text-anchor="middle" x="1092" y="-186.5" font-family="Helvetica,sans-Serif" font-size="10.00">vector</text>
</g>
<!-- Node1&#45;&gt;Node21 -->
<g id="edge148" class="edge"><title>Node1&#45;&gt;Node21</title>
<path fill="none" stroke="midnightblue" d="M2261.25,-929.42C2229,-912.717 2156.3,-874.205 2098,-837 1990.38,-768.32 1961.4,-752.705 1865,-669 1746.33,-565.953 1757.13,-490.796 1620,-414 1453.27,-320.627 1369.58,-410.091 1200,-322 1160.92,-301.699 1154.04,-289.76 1127,-255 1115.59,-240.328 1105.87,-221.418 1099.59,-207.781"/>
<polygon fill="midnightblue" stroke="midnightblue" points="1102.75,-206.259 1095.49,-198.538 1096.35,-209.098 1102.75,-206.259"/>
</g>
<!-- Node22 -->
<g id="node22" class="node"><title>Node22</title>
<polygon fill="white" stroke="#bfbfbf" points="2390.5,-179.5 2390.5,-198.5 2483.5,-198.5 2483.5,-179.5 2390.5,-179.5"/>
<text text-anchor="middle" x="2437" y="-186.5" font-family="Helvetica,sans-Serif" font-size="10.00">unordered_map</text>
</g>
<!-- Node1&#45;&gt;Node22 -->
<g id="edge150" class="edge"><title>Node1&#45;&gt;Node22</title>
<path fill="none" stroke="midnightblue" d="M2336.09,-933.645C2444.33,-923.922 2666,-895.74 2666,-828 2666,-828 2666,-828 2666,-490 2666,-357.372 2612.94,-319.846 2511,-235 2496.31,-222.769 2477.95,-211.587 2463.2,-203.429"/>
<polygon fill="midnightblue" stroke="midnightblue" points="2464.57,-200.188 2454.1,-198.524 2461.24,-206.35 2464.57,-200.188"/>
</g>
<!-- Node37 -->
<g id="node37" class="node"><title>Node37</title>
<g id="a_node37"><a xlink:href="ir_2module_8h.html" target="_top" xlink:title="IRModule that holds the functions and type definitions. ">
<polygon fill="white" stroke="black" points="1770,-873.5 1770,-892.5 1862,-892.5 1862,-873.5 1770,-873.5"/>
<text text-anchor="middle" x="1816" y="-880.5" font-family="Helvetica,sans-Serif" font-size="10.00">tvm/ir/module.h</text>
</a>
</g>
</g>
<!-- Node1&#45;&gt;Node37 -->
<g id="edge102" class="edge"><title>Node1&#45;&gt;Node37</title>
<path fill="none" stroke="midnightblue" d="M2219.67,-932.162C2141.38,-924.168 1998.03,-908.977 1876,-893 1874.74,-892.835 1873.46,-892.665 1872.17,-892.491"/>
<polygon fill="midnightblue" stroke="midnightblue" points="1872.55,-889.01 1862.16,-891.102 1871.59,-895.944 1872.55,-889.01"/>
</g>
<!-- Node46 -->
<g id="node46" class="node"><title>Node46</title>
<polygon fill="white" stroke="#bfbfbf" points="2732,-873.5 2732,-892.5 2788,-892.5 2788,-873.5 2732,-873.5"/>
<text text-anchor="middle" x="2760" y="-880.5" font-family="Helvetica,sans-Serif" font-size="10.00">sstream</text>
</g>
<!-- Node1&#45;&gt;Node46 -->
<g id="edge149" class="edge"><title>Node1&#45;&gt;Node46</title>
<path fill="none" stroke="midnightblue" d="M2336.27,-934.076C2420.76,-927.926 2582.04,-914.454 2718,-893 2719.24,-892.804 2720.5,-892.594 2721.78,-892.374"/>
<polygon fill="midnightblue" stroke="midnightblue" points="2722.43,-895.813 2731.61,-890.522 2721.14,-888.934 2722.43,-895.813"/>
</g>
<!-- Node3 -->
<g id="node3" class="node"><title>Node3</title>
<g id="a_node3"><a xlink:href="object_8h.html" target="_top" xlink:title="A managed object in the TVM runtime. ">
<polygon fill="white" stroke="black" points="404.5,-123.5 404.5,-142.5 521.5,-142.5 521.5,-123.5 404.5,-123.5"/>
<text text-anchor="middle" x="463" y="-130.5" font-family="Helvetica,sans-Serif" font-size="10.00">tvm/runtime/object.h</text>
</a>
</g>
</g>
<!-- Node2&#45;&gt;Node3 -->
<g id="edge2" class="edge"><title>Node2&#45;&gt;Node3</title>
<path fill="none" stroke="midnightblue" d="M1472.74,-601.488C1284.39,-598.677 489.49,-582.135 257,-501 203.929,-482.479 152,-486.71 152,-430.5 152,-430.5 152,-430.5 152,-305.5 152,-195.702 302.482,-155.673 394.094,-141.477"/>
<polygon fill="midnightblue" stroke="midnightblue" points="394.76,-144.917 404.138,-139.987 393.732,-137.993 394.76,-144.917"/>
</g>
<!-- Node2&#45;&gt;Node10 -->
<g id="edge101" class="edge"><title>Node2&#45;&gt;Node10</title>
<path fill="none" stroke="midnightblue" d="M1547.46,-593.41C1692.78,-556.207 2248,-403.735 2248,-246 2248,-246 2248,-246 2248,-188 2248,-153.405 2239.6,-113.745 2233.97,-91.0547"/>
<polygon fill="midnightblue" stroke="midnightblue" points="2237.29,-89.9237 2231.41,-81.1136 2230.51,-91.6707 2237.29,-89.9237"/>
</g>
<!-- Node13 -->
<g id="node13" class="node"><title>Node13</title>
<g id="a_node13"><a xlink:href="node_8h.html" target="_top" xlink:title="Definitions and helper macros for IR/AST nodes. ">
<polygon fill="white" stroke="black" points="1420,-537.5 1420,-556.5 1518,-556.5 1518,-537.5 1420,-537.5"/>
<text text-anchor="middle" x="1469" y="-544.5" font-family="Helvetica,sans-Serif" font-size="10.00">tvm/node/node.h</text>
</a>
</g>
</g>
<!-- Node2&#45;&gt;Node13 -->
<g id="edge12" class="edge"><title>Node2&#45;&gt;Node13</title>
<path fill="none" stroke="midnightblue" d="M1505.73,-593.083C1499.46,-585.377 1490.21,-574.033 1482.57,-564.653"/>
<polygon fill="midnightblue" stroke="midnightblue" points="1485.16,-562.293 1476.13,-556.751 1479.73,-566.714 1485.16,-562.293"/>
</g>
<!-- Node4 -->
<g id="node4" class="node"><title>Node4</title>
<polygon fill="white" stroke="#bfbfbf" points="257,-62 257,-81 343,-81 343,-62 257,-62"/>
<text text-anchor="middle" x="300" y="-69" font-family="Helvetica,sans-Serif" font-size="10.00">dmlc/logging.h</text>
</g>
<!-- Node3&#45;&gt;Node4 -->
<g id="edge3" class="edge"><title>Node3&#45;&gt;Node4</title>
<path fill="none" stroke="midnightblue" d="M439.646,-123.475C411.686,-113.269 364.674,-96.108 333.009,-84.5492"/>
<polygon fill="midnightblue" stroke="midnightblue" points="333.905,-81.1503 323.311,-81.0091 331.504,-87.7259 333.905,-81.1503"/>
</g>
<!-- Node5 -->
<g id="node5" class="node"><title>Node5</title>
<g id="a_node5"><a xlink:href="c__runtime__api_8h.html" target="_top" xlink:title="tvm/runtime/c_runtime\l_api.h">
<polygon fill="white" stroke="black" points="442.5,-56.5 442.5,-86.5 569.5,-86.5 569.5,-56.5 442.5,-56.5"/>
<text text-anchor="start" x="450.5" y="-74.5" font-family="Helvetica,sans-Serif" font-size="10.00">tvm/runtime/c_runtime</text>
<text text-anchor="middle" x="506" y="-63.5" font-family="Helvetica,sans-Serif" font-size="10.00">_api.h</text>
</a>
</g>
</g>
<!-- Node3&#45;&gt;Node5 -->
<g id="edge4" class="edge"><title>Node3&#45;&gt;Node5</title>
<path fill="none" stroke="midnightblue" d="M469.161,-123.475C474.549,-116.019 482.62,-104.852 489.835,-94.8685"/>
<polygon fill="midnightblue" stroke="midnightblue" points="492.845,-96.6781 495.866,-86.523 487.172,-92.5779 492.845,-96.6781"/>
</g>
<!-- Node9 -->
<g id="node9" class="node"><title>Node9</title>
<polygon fill="white" stroke="#bfbfbf" points="1834,-62 1834,-81 1902,-81 1902,-62 1834,-62"/>
<text text-anchor="middle" x="1868" y="-69" font-family="Helvetica,sans-Serif" font-size="10.00">type_traits</text>
</g>
<!-- Node3&#45;&gt;Node9 -->
<g id="edge8" class="edge"><title>Node3&#45;&gt;Node9</title>
<path fill="none" stroke="midnightblue" d="M521.582,-129.519C755.252,-119.624 1617.98,-83.0881 1823.73,-74.3747"/>
<polygon fill="midnightblue" stroke="midnightblue" points="1824.02,-77.8658 1833.86,-73.9457 1823.72,-70.872 1824.02,-77.8658"/>
</g>
<!-- Node3&#45;&gt;Node10 -->
<g id="edge9" class="edge"><title>Node3&#45;&gt;Node10</title>
<path fill="none" stroke="midnightblue" d="M521.631,-130.483C718.111,-125.334 1371.28,-107.69 1911,-87 2015.28,-83.0023 2138.74,-77.013 2196.35,-74.1452"/>
<polygon fill="midnightblue" stroke="midnightblue" points="2196.83,-77.6256 2206.64,-73.631 2196.48,-70.6343 2196.83,-77.6256"/>
</g>
<!-- Node11 -->
<g id="node11" class="node"><title>Node11</title>
<polygon fill="white" stroke="#bfbfbf" points="948,-62 948,-81 990,-81 990,-62 948,-62"/>
<text text-anchor="middle" x="969" y="-69" font-family="Helvetica,sans-Serif" font-size="10.00">utility</text>
</g>
<!-- Node3&#45;&gt;Node11 -->
<g id="edge10" class="edge"><title>Node3&#45;&gt;Node11</title>
<path fill="none" stroke="midnightblue" d="M521.539,-125.116C629.203,-112.456 855.175,-85.8845 937.849,-76.1631"/>
<polygon fill="midnightblue" stroke="midnightblue" points="938.349,-79.6284 947.872,-74.9844 937.532,-72.6763 938.349,-79.6284"/>
</g>
<!-- Node12 -->
<g id="node12" class="node"><title>Node12</title>
<polygon fill="white" stroke="#bfbfbf" points="751,-62 751,-81 801,-81 801,-62 751,-62"/>
<text text-anchor="middle" x="776" y="-69" font-family="Helvetica,sans-Serif" font-size="10.00">atomic</text>
</g>
<!-- Node3&#45;&gt;Node12 -->
<g id="edge11" class="edge"><title>Node3&#45;&gt;Node12</title>
<path fill="none" stroke="midnightblue" d="M507.845,-123.475C570.703,-111.526 683.703,-90.0453 740.854,-79.181"/>
<polygon fill="midnightblue" stroke="midnightblue" points="741.681,-82.5867 750.851,-77.2807 740.373,-75.7099 741.681,-82.5867"/>
</g>
<!-- Node6 -->
<g id="node6" class="node"><title>Node6</title>
<polygon fill="white" stroke="#bfbfbf" points="371,-0.5 371,-19.5 461,-19.5 461,-0.5 371,-0.5"/>
<text text-anchor="middle" x="416" y="-7.5" font-family="Helvetica,sans-Serif" font-size="10.00">dlpack/dlpack.h</text>
</g>
<!-- Node5&#45;&gt;Node6 -->
<g id="edge5" class="edge"><title>Node5&#45;&gt;Node6</title>
<path fill="none" stroke="midnightblue" d="M484.671,-56.3993C470.515,-47.0402 451.989,-34.7924 437.747,-25.3771"/>
<polygon fill="midnightblue" stroke="midnightblue" points="439.368,-22.2531 429.096,-19.6578 435.507,-28.0923 439.368,-22.2531"/>
</g>
<!-- Node7 -->
<g id="node7" class="node"><title>Node7</title>
<polygon fill="white" stroke="#bfbfbf" points="479.5,-0.5 479.5,-19.5 532.5,-19.5 532.5,-0.5 479.5,-0.5"/>
<text text-anchor="middle" x="506" y="-7.5" font-family="Helvetica,sans-Serif" font-size="10.00">stdint.h</text>
</g>
<!-- Node5&#45;&gt;Node7 -->
<g id="edge6" class="edge"><title>Node5&#45;&gt;Node7</title>
<path fill="none" stroke="midnightblue" d="M506,-56.3993C506,-48.4664 506,-38.458 506,-29.8583"/>
<polygon fill="midnightblue" stroke="midnightblue" points="509.5,-29.6577 506,-19.6578 502.5,-29.6578 509.5,-29.6577"/>
</g>
<!-- Node8 -->
<g id="node8" class="node"><title>Node8</title>
<polygon fill="white" stroke="#bfbfbf" points="550.5,-0.5 550.5,-19.5 605.5,-19.5 605.5,-0.5 550.5,-0.5"/>
<text text-anchor="middle" x="578" y="-7.5" font-family="Helvetica,sans-Serif" font-size="10.00">stddef.h</text>
</g>
<!-- Node5&#45;&gt;Node8 -->
<g id="edge7" class="edge"><title>Node5&#45;&gt;Node8</title>
<path fill="none" stroke="midnightblue" d="M523.063,-56.3993C534.065,-47.3076 548.365,-35.4899 559.618,-26.1909"/>
<polygon fill="midnightblue" stroke="midnightblue" points="562.044,-28.726 567.523,-19.6578 557.585,-23.33 562.044,-28.726"/>
</g>
<!-- Node13&#45;&gt;Node3 -->
<g id="edge14" class="edge"><title>Node13&#45;&gt;Node3</title>
<path fill="none" stroke="midnightblue" d="M1419.97,-545.36C1203.28,-542.377 340.101,-528.786 290,-501 185.564,-443.079 197.483,-341.253 252,-235 279.027,-182.324 343.697,-156.889 394.372,-144.752"/>
<polygon fill="midnightblue" stroke="midnightblue" points="395.328,-148.124 404.305,-142.497 393.779,-141.297 395.328,-148.124"/>
</g>
<!-- Node13&#45;&gt;Node5 -->
<g id="edge13" class="edge"><title>Node13&#45;&gt;Node5</title>
<path fill="none" stroke="midnightblue" d="M1419.9,-546.179C1206.53,-546.69 365.638,-545.817 257,-501 177.043,-468.015 114,-455.493 114,-369 114,-369 114,-369 114,-305.5 114,-159.1 318.536,-102.627 432.118,-82.554"/>
<polygon fill="midnightblue" stroke="midnightblue" points="432.881,-85.9743 442.146,-80.8345 431.698,-79.075 432.881,-85.9743"/>
</g>
<!-- Node13&#45;&gt;Node9 -->
<g id="edge100" class="edge"><title>Node13&#45;&gt;Node9</title>
<path fill="none" stroke="midnightblue" d="M1503.03,-537.466C1575.19,-518.179 1746.58,-465.932 1865,-378 1938.96,-323.078 1935.93,-270.213 1923,-179 1919.41,-153.702 1921.36,-145.884 1910,-123 1903.64,-110.203 1893.45,-97.8355 1884.7,-88.5425"/>
<polygon fill="midnightblue" stroke="midnightblue" points="1887.01,-85.9085 1877.51,-81.2338 1882.02,-90.8173 1887.01,-85.9085"/>
</g>
<!-- Node13&#45;&gt;Node10 -->
<g id="edge97" class="edge"><title>Node13&#45;&gt;Node10</title>
<path fill="none" stroke="midnightblue" d="M1515.81,-537.472C1555.09,-529.739 1612.41,-517.095 1661,-501 1834.03,-443.681 1886.29,-434.126 2030,-322 2115.54,-255.257 2138.61,-235.079 2196,-143 2206.58,-126.019 2215.96,-105.098 2221.99,-90.474"/>
<polygon fill="midnightblue" stroke="midnightblue" points="2225.28,-91.6695 2225.76,-81.0853 2218.79,-89.0632 2225.28,-91.6695"/>
</g>
<!-- Node13&#45;&gt;Node11 -->
<g id="edge99" class="edge"><title>Node13&#45;&gt;Node11</title>
<path fill="none" stroke="midnightblue" d="M1419.84,-545.452C1244.81,-543.244 652.533,-533.489 466,-501 383.042,-486.551 342.881,-506.16 285,-445 261.068,-419.712 266,-403.817 266,-369 266,-369 266,-369 266,-305.5 266,-161.848 801.588,-91.4546 937.792,-75.8757"/>
<polygon fill="midnightblue" stroke="midnightblue" points="938.415,-79.3277 947.961,-74.7303 937.632,-72.3717 938.415,-79.3277"/>
</g>
<!-- Node14 -->
<g id="node14" class="node"><title>Node14</title>
<g id="a_node14"><a xlink:href="runtime_2memory_8h.html" target="_top" xlink:title="Runtime memory management. ">
<polygon fill="white" stroke="black" points="1399.5,-179.5 1399.5,-198.5 1526.5,-198.5 1526.5,-179.5 1399.5,-179.5"/>
<text text-anchor="middle" x="1463" y="-186.5" font-family="Helvetica,sans-Serif" font-size="10.00">tvm/runtime/memory.h</text>
</a>
</g>
</g>
<!-- Node13&#45;&gt;Node14 -->
<g id="edge15" class="edge"><title>Node13&#45;&gt;Node14</title>
<path fill="none" stroke="midnightblue" d="M1468.7,-537.424C1468.28,-515.554 1469.38,-456.438 1491,-414 1525.81,-345.671 1549.17,-334.967 1612,-291 1647.26,-266.324 1718.33,-268.248 1691,-235 1671.66,-211.465 1595.79,-200.037 1536.83,-194.623"/>
<polygon fill="midnightblue" stroke="midnightblue" points="1537.04,-191.128 1526.78,-193.742 1536.43,-198.102 1537.04,-191.128"/>
</g>
<!-- Node16 -->
<g id="node16" class="node"><title>Node16</title>
<g id="a_node16"><a xlink:href="reflection_8h.html" target="_top" xlink:title="Reflection and serialization of compiler IR/AST nodes. ">
<polygon fill="white" stroke="black" points="1324.5,-481.5 1324.5,-500.5 1443.5,-500.5 1443.5,-481.5 1324.5,-481.5"/>
<text text-anchor="middle" x="1384" y="-488.5" font-family="Helvetica,sans-Serif" font-size="10.00">tvm/node/reflection.h</text>
</a>
</g>
</g>
<!-- Node13&#45;&gt;Node16 -->
<g id="edge20" class="edge"><title>Node13&#45;&gt;Node16</title>
<path fill="none" stroke="midnightblue" d="M1455.34,-537.324C1442.08,-528.9 1421.73,-515.971 1406.15,-506.074"/>
<polygon fill="midnightblue" stroke="midnightblue" points="1407.94,-503.063 1397.62,-500.655 1404.19,-508.971 1407.94,-503.063"/>
</g>
<!-- Node13&#45;&gt;Node21 -->
<g id="edge98" class="edge"><title>Node13&#45;&gt;Node21</title>
<path fill="none" stroke="midnightblue" d="M1419.65,-545.211C1292.44,-542.021 958.68,-525.948 892,-445 817.349,-354.375 997.307,-242.051 1066.38,-203.625"/>
<polygon fill="midnightblue" stroke="midnightblue" points="1068.27,-206.582 1075.35,-198.704 1064.9,-200.444 1068.27,-206.582"/>
</g>
<!-- Node30 -->
<g id="node30" class="node"><title>Node30</title>
<g id="a_node30"><a xlink:href="structural__equal_8h.html" target="_top" xlink:title="Structural equality comparison. ">
<polygon fill="white" stroke="black" points="901.5,-414.5 901.5,-444.5 1012.5,-444.5 1012.5,-414.5 901.5,-414.5"/>
<text text-anchor="start" x="909.5" y="-432.5" font-family="Helvetica,sans-Serif" font-size="10.00">tvm/node/structural</text>
<text text-anchor="middle" x="957" y="-421.5" font-family="Helvetica,sans-Serif" font-size="10.00">_equal.h</text>
</a>
</g>
</g>
<!-- Node13&#45;&gt;Node30 -->
<g id="edge95" class="edge"><title>Node13&#45;&gt;Node30</title>
<path fill="none" stroke="midnightblue" d="M1430.94,-537.413C1344.19,-517.844 1130.97,-469.745 1022.57,-445.291"/>
<polygon fill="midnightblue" stroke="midnightblue" points="1023.25,-441.858 1012.73,-443.071 1021.71,-448.686 1023.25,-441.858"/>
</g>
<!-- Node32 -->
<g id="node32" class="node"><title>Node32</title>
<g id="a_node32"><a xlink:href="node_2container_8h.html" target="_top" xlink:title="Array/Map container in the DSL graph. ">
<polygon fill="white" stroke="black" points="1712.5,-358.5 1712.5,-377.5 1831.5,-377.5 1831.5,-358.5 1712.5,-358.5"/>
<text text-anchor="middle" x="1772" y="-365.5" font-family="Helvetica,sans-Serif" font-size="10.00">tvm/node/container.h</text>
</a>
</g>
</g>
<!-- Node13&#45;&gt;Node32 -->
<g id="edge94" class="edge"><title>Node13&#45;&gt;Node32</title>
<path fill="none" stroke="midnightblue" d="M1483.61,-537.463C1532.2,-509.08 1688.62,-417.706 1748.44,-382.764"/>
<polygon fill="midnightblue" stroke="midnightblue" points="1750.31,-385.725 1757.18,-377.659 1746.78,-379.681 1750.31,-385.725"/>
</g>
<!-- Node34 -->
<g id="node34" class="node"><title>Node34</title>
<g id="a_node34"><a xlink:href="structural__hash_8h.html" target="_top" xlink:title="tvm/node/structural\l_hash.h">
<polygon fill="white" stroke="black" points="1500.5,-414.5 1500.5,-444.5 1611.5,-444.5 1611.5,-414.5 1500.5,-414.5"/>
<text text-anchor="start" x="1508.5" y="-432.5" font-family="Helvetica,sans-Serif" font-size="10.00">tvm/node/structural</text>
<text text-anchor="middle" x="1556" y="-421.5" font-family="Helvetica,sans-Serif" font-size="10.00">_hash.h</text>
</a>
</g>
</g>
<!-- Node13&#45;&gt;Node34 -->
<g id="edge96" class="edge"><title>Node13&#45;&gt;Node34</title>
<path fill="none" stroke="midnightblue" d="M1475.54,-537.319C1488.96,-519.502 1519.98,-478.324 1539.34,-452.615"/>
<polygon fill="midnightblue" stroke="midnightblue" points="1542.2,-454.639 1545.42,-444.545 1536.61,-450.427 1542.2,-454.639"/>
</g>
<!-- Node35 -->
<g id="node35" class="node"><title>Node35</title>
<g id="a_node35"><a xlink:href="repr__printer_8h.html" target="_top" xlink:title="Printer class to print repr string of each AST/IR nodes. ">
<polygon fill="white" stroke="black" points="475,-481.5 475,-500.5 605,-500.5 605,-481.5 475,-481.5"/>
<text text-anchor="middle" x="540" y="-488.5" font-family="Helvetica,sans-Serif" font-size="10.00">tvm/node/repr_printer.h</text>
</a>
</g>
</g>
<!-- Node13&#45;&gt;Node35 -->
<g id="edge91" class="edge"><title>Node13&#45;&gt;Node35</title>
<path fill="none" stroke="midnightblue" d="M1419.71,-543.135C1266.65,-534.238 798.828,-507.045 615.152,-496.368"/>
<polygon fill="midnightblue" stroke="midnightblue" points="615.229,-492.867 605.043,-495.781 614.823,-499.855 615.229,-492.867"/>
</g>
<!-- Node14&#45;&gt;Node3 -->
<g id="edge16" class="edge"><title>Node14&#45;&gt;Node3</title>
<path fill="none" stroke="midnightblue" d="M1399.33,-179.868C1396.18,-179.554 1393.05,-179.262 1390,-179 1069.86,-151.533 685.975,-139.552 531.92,-135.598"/>
<polygon fill="midnightblue" stroke="midnightblue" points="531.754,-132.093 521.668,-135.338 531.576,-139.09 531.754,-132.093"/>
</g>
<!-- Node14&#45;&gt;Node9 -->
<g id="edge19" class="edge"><title>Node14&#45;&gt;Node9</title>
<path fill="none" stroke="midnightblue" d="M1475.08,-179.3C1495.33,-165.168 1537.83,-137.363 1578,-123 1661.81,-93.0305 1765.8,-80.4656 1823.73,-75.4948"/>
<polygon fill="midnightblue" stroke="midnightblue" points="1824.32,-78.9587 1834,-74.6525 1823.74,-71.9821 1824.32,-78.9587"/>
</g>
<!-- Node14&#45;&gt;Node11 -->
<g id="edge18" class="edge"><title>Node14&#45;&gt;Node11</title>
<path fill="none" stroke="midnightblue" d="M1435.71,-179.408C1392.99,-166.151 1307.6,-140.421 1234,-123 1150.14,-103.149 1049.93,-85.7457 1000.2,-77.5264"/>
<polygon fill="midnightblue" stroke="midnightblue" points="1000.52,-74.0335 990.089,-75.8681 999.39,-80.9411 1000.52,-74.0335"/>
</g>
<!-- Node15 -->
<g id="node15" class="node"><title>Node15</title>
<polygon fill="white" stroke="#bfbfbf" points="1439.5,-123.5 1439.5,-142.5 1486.5,-142.5 1486.5,-123.5 1439.5,-123.5"/>
<text text-anchor="middle" x="1463" y="-130.5" font-family="Helvetica,sans-Serif" font-size="10.00">cstdlib</text>
</g>
<!-- Node14&#45;&gt;Node15 -->
<g id="edge17" class="edge"><title>Node14&#45;&gt;Node15</title>
<path fill="none" stroke="midnightblue" d="M1463,-179.083C1463,-172.006 1463,-161.861 1463,-152.986"/>
<polygon fill="midnightblue" stroke="midnightblue" points="1466.5,-152.751 1463,-142.751 1459.5,-152.751 1466.5,-152.751"/>
</g>
<!-- Node16&#45;&gt;Node3 -->
<g id="edge22" class="edge"><title>Node16&#45;&gt;Node3</title>
<path fill="none" stroke="midnightblue" d="M1324.39,-488.145C1190.63,-483.582 870.084,-470.297 765,-445 557.114,-394.955 439.571,-434.255 323,-255 290.998,-205.79 376.004,-165.184 427.29,-145.97"/>
<polygon fill="midnightblue" stroke="midnightblue" points="428.547,-149.237 436.745,-142.525 426.151,-142.66 428.547,-149.237"/>
</g>
<!-- Node16&#45;&gt;Node5 -->
<g id="edge21" class="edge"><title>Node16&#45;&gt;Node5</title>
<path fill="none" stroke="midnightblue" d="M1324.28,-489.111C1163.8,-486.328 725.854,-476.032 585,-445 506.094,-427.616 485.873,-418.574 416,-378 348.266,-338.668 291.407,-310.29 313,-235 329.183,-178.574 338.137,-160.856 383,-123 400.134,-108.542 421.97,-97.7859 442.475,-90.0036"/>
<polygon fill="midnightblue" stroke="midnightblue" points="443.878,-93.2181 452.093,-86.527 441.499,-86.635 443.878,-93.2181"/>
</g>
<!-- Node16&#45;&gt;Node9 -->
<g id="edge90" class="edge"><title>Node16&#45;&gt;Node9</title>
<path fill="none" stroke="midnightblue" d="M1443.66,-482.084C1553.14,-466.493 1780.38,-428.857 1840,-378 1911,-317.432 1919.18,-271.525 1907,-179 1903.64,-153.454 1900.9,-147.18 1892,-123 1887.91,-111.895 1882.28,-99.9146 1877.49,-90.411"/>
<polygon fill="midnightblue" stroke="midnightblue" points="1880.45,-88.5079 1872.75,-81.2291 1874.23,-91.7202 1880.45,-88.5079"/>
</g>
<!-- Node16&#45;&gt;Node10 -->
<g id="edge89" class="edge"><title>Node16&#45;&gt;Node10</title>
<path fill="none" stroke="midnightblue" d="M1443.73,-487.383C1512.48,-483.165 1628.24,-472.343 1724,-445 1851.58,-408.572 1888.18,-399.319 1996,-322 2094.92,-251.06 2185.09,-133.349 2216.88,-89.5802"/>
<polygon fill="midnightblue" stroke="midnightblue" points="2219.76,-91.5682 2222.76,-81.4062 2214.08,-87.481 2219.76,-91.5682"/>
</g>
<!-- Node16&#45;&gt;Node14 -->
<g id="edge23" class="edge"><title>Node16&#45;&gt;Node14</title>
<path fill="none" stroke="midnightblue" d="M1387.47,-481.209C1399.4,-450.581 1438.97,-345.501 1457,-255 1460.05,-239.699 1461.55,-222.056 1462.29,-209.016"/>
<polygon fill="midnightblue" stroke="midnightblue" points="1465.79,-209.069 1462.77,-198.916 1458.8,-208.741 1465.79,-209.069"/>
</g>
<!-- Node17 -->
<g id="node17" class="node"><title>Node17</title>
<g id="a_node17"><a xlink:href="packed__func_8h.html" target="_top" xlink:title="Type&#45;erased function used across TVM API. ">
<polygon fill="white" stroke="black" points="1253.5,-291.5 1253.5,-321.5 1366.5,-321.5 1366.5,-291.5 1253.5,-291.5"/>
<text text-anchor="start" x="1261.5" y="-309.5" font-family="Helvetica,sans-Serif" font-size="10.00">tvm/runtime/packed</text>
<text text-anchor="middle" x="1310" y="-298.5" font-family="Helvetica,sans-Serif" font-size="10.00">_func.h</text>
</a>
</g>
</g>
<!-- Node16&#45;&gt;Node17 -->
<g id="edge24" class="edge"><title>Node16&#45;&gt;Node17</title>
<path fill="none" stroke="midnightblue" d="M1380.43,-481.198C1369.49,-454.22 1336.17,-372.048 1319.59,-331.146"/>
<polygon fill="midnightblue" stroke="midnightblue" points="1322.76,-329.647 1315.76,-321.695 1316.27,-332.277 1322.76,-329.647"/>
</g>
<!-- Node16&#45;&gt;Node21 -->
<g id="edge88" class="edge"><title>Node16&#45;&gt;Node21</title>
<path fill="none" stroke="midnightblue" d="M1361.93,-481.353C1310.54,-460.383 1180.93,-402.559 1097,-322 1065.88,-292.133 1039.18,-275.507 1054,-235 1058.06,-223.908 1066.19,-213.665 1073.89,-205.763"/>
<polygon fill="midnightblue" stroke="midnightblue" points="1076.47,-208.135 1081.29,-198.695 1071.64,-203.075 1076.47,-208.135"/>
</g>
<!-- Node23 -->
<g id="node23" class="node"><title>Node23</title>
<g id="a_node23"><a xlink:href="ndarray_8h.html" target="_top" xlink:title="A device&#45;independent managed NDArray abstraction. ">
<polygon fill="white" stroke="black" points="764.5,-235.5 764.5,-254.5 887.5,-254.5 887.5,-235.5 764.5,-235.5"/>
<text text-anchor="middle" x="826" y="-242.5" font-family="Helvetica,sans-Serif" font-size="10.00">tvm/runtime/ndarray.h</text>
</a>
</g>
</g>
<!-- Node16&#45;&gt;Node23 -->
<g id="edge61" class="edge"><title>Node16&#45;&gt;Node23</title>
<path fill="none" stroke="midnightblue" d="M1324.19,-482.421C1235.11,-471.009 1076.71,-450.192 1065,-445 1038.99,-433.471 893.806,-306.037 843.312,-261.363"/>
<polygon fill="midnightblue" stroke="midnightblue" points="845.603,-258.717 835.796,-254.706 840.961,-263.957 845.603,-258.717"/>
</g>
<!-- Node26 -->
<g id="node26" class="node"><title>Node26</title>
<g id="a_node26"><a xlink:href="data__type_8h.html" target="_top" xlink:title="tvm/runtime/data_type.h">
<polygon fill="white" stroke="black" points="332,-235.5 332,-254.5 468,-254.5 468,-235.5 332,-235.5"/>
<text text-anchor="middle" x="400" y="-242.5" font-family="Helvetica,sans-Serif" font-size="10.00">tvm/runtime/data_type.h</text>
</a>
</g>
</g>
<!-- Node16&#45;&gt;Node26 -->
<g id="edge62" class="edge"><title>Node16&#45;&gt;Node26</title>
<path fill="none" stroke="midnightblue" d="M1324.23,-489.18C1230.92,-486.864 1045.44,-478.085 892,-445 728.772,-409.804 689.467,-390.089 537,-322 495.012,-303.249 448.73,-276.117 422.14,-259.853"/>
<polygon fill="midnightblue" stroke="midnightblue" points="423.944,-256.854 413.595,-254.585 420.27,-262.812 423.944,-256.854"/>
</g>
<!-- Node16&#45;&gt;Node30 -->
<g id="edge63" class="edge"><title>Node16&#45;&gt;Node30</title>
<path fill="none" stroke="midnightblue" d="M1324.19,-482.723C1230.19,-471.246 1055.58,-449.753 1027,-445 1025.55,-444.758 1024.08,-444.508 1022.6,-444.25"/>
<polygon fill="midnightblue" stroke="midnightblue" points="1023.17,-440.798 1012.71,-442.453 1021.92,-447.685 1023.17,-440.798"/>
</g>
<!-- Node16&#45;&gt;Node34 -->
<g id="edge82" class="edge"><title>Node16&#45;&gt;Node34</title>
<path fill="none" stroke="midnightblue" d="M1408.64,-481.475C1433.9,-472.739 1473.88,-458.907 1505.83,-447.855"/>
<polygon fill="midnightblue" stroke="midnightblue" points="1507.16,-451.1 1515.46,-444.523 1504.87,-444.485 1507.16,-451.1"/>
</g>
<!-- Node17&#45;&gt;Node3 -->
<g id="edge52" class="edge"><title>Node17&#45;&gt;Node3</title>
<path fill="none" stroke="midnightblue" d="M1253.48,-299.7C1226.16,-296.954 1192.88,-293.693 1163,-291 967.142,-273.347 912.08,-305.413 722,-255 709.823,-251.77 553.985,-177.524 490.071,-146.962"/>
<polygon fill="midnightblue" stroke="midnightblue" points="491.518,-143.775 480.986,-142.617 488.497,-150.089 491.518,-143.775"/>
</g>
<!-- Node17&#45;&gt;Node4 -->
<g id="edge25" class="edge"><title>Node17&#45;&gt;Node4</title>
<path fill="none" stroke="midnightblue" d="M1253.08,-303.184C1118.41,-297.348 783.318,-280.652 674,-255 608.958,-239.737 453.304,-175.62 395,-143 366.196,-126.885 336.119,-103.22 317.718,-87.8354"/>
<polygon fill="midnightblue" stroke="midnightblue" points="319.569,-84.8165 309.679,-81.0171 315.041,-90.1548 319.569,-84.8165"/>
</g>
<!-- Node17&#45;&gt;Node5 -->
<g id="edge26" class="edge"><title>Node17&#45;&gt;Node5</title>
<path fill="none" stroke="midnightblue" d="M1253.47,-299.786C1226.15,-297.06 1192.87,-293.791 1163,-291 981.752,-274.065 925.372,-319.119 755,-255 705.242,-236.274 583.068,-136.972 530.597,-93.2242"/>
<polygon fill="midnightblue" stroke="midnightblue" points="532.713,-90.4308 522.796,-86.7008 528.223,-95.8007 532.713,-90.4308"/>
</g>
<!-- Node17&#45;&gt;Node9 -->
<g id="edge60" class="edge"><title>Node17&#45;&gt;Node9</title>
<path fill="none" stroke="midnightblue" d="M1361.3,-291.427C1390.15,-282.646 1426.4,-270.138 1457,-255 1551.79,-208.099 1558.02,-165.197 1655,-123 1710.65,-98.7856 1779.76,-85.1299 1823.88,-78.2826"/>
<polygon fill="midnightblue" stroke="midnightblue" points="1824.62,-81.7109 1833.99,-76.7651 1823.58,-74.7884 1824.62,-81.7109"/>
</g>
<!-- Node17&#45;&gt;Node10 -->
<g id="edge56" class="edge"><title>Node17&#45;&gt;Node10</title>
<path fill="none" stroke="midnightblue" d="M1359.49,-291.472C1471.72,-259.659 1737.41,-184.372 1757,-179 1850.57,-153.345 1873.43,-144.673 1968,-123 2049.94,-104.223 2147.4,-86.6021 2196.82,-77.9968"/>
<polygon fill="midnightblue" stroke="midnightblue" points="2197.64,-81.4067 2206.89,-76.2513 2196.44,-74.5094 2197.64,-81.4067"/>
</g>
<!-- Node17&#45;&gt;Node11 -->
<g id="edge59" class="edge"><title>Node17&#45;&gt;Node11</title>
<path fill="none" stroke="midnightblue" d="M1281.84,-291.482C1267.11,-282.83 1249.93,-270.428 1239,-255 1203.71,-205.187 1245.57,-164.721 1201,-123 1172.16,-96.0059 1056.48,-81.1265 1000.14,-75.3516"/>
<polygon fill="midnightblue" stroke="midnightblue" points="1000.33,-71.8527 990.029,-74.3477 999.634,-78.8184 1000.33,-71.8527"/>
</g>
<!-- Node18 -->
<g id="node18" class="node"><title>Node18</title>
<g id="a_node18"><a xlink:href="runtime_2module_8h.html" target="_top" xlink:title="Runtime container of the functions generated by TVM, This is used to support dynamically link...">
<polygon fill="white" stroke="black" points="1248,-235.5 1248,-254.5 1372,-254.5 1372,-235.5 1248,-235.5"/>
<text text-anchor="middle" x="1310" y="-242.5" font-family="Helvetica,sans-Serif" font-size="10.00">tvm/runtime/module.h</text>
</a>
</g>
</g>
<!-- Node17&#45;&gt;Node18 -->
<g id="edge27" class="edge"><title>Node17&#45;&gt;Node18</title>
<path fill="none" stroke="midnightblue" d="M1304.16,-291.399C1303.13,-283.377 1302.97,-273.233 1303.69,-264.569"/>
<polygon fill="midnightblue" stroke="midnightblue" points="1307.16,-265.044 1305.07,-254.658 1300.23,-264.081 1307.16,-265.044"/>
</g>
<!-- Node20 -->
<g id="node20" class="node"><title>Node20</title>
<polygon fill="white" stroke="#bfbfbf" points="1324.5,-179.5 1324.5,-198.5 1381.5,-198.5 1381.5,-179.5 1324.5,-179.5"/>
<text text-anchor="middle" x="1353" y="-186.5" font-family="Helvetica,sans-Serif" font-size="10.00">memory</text>
</g>
<!-- Node17&#45;&gt;Node20 -->
<g id="edge58" class="edge"><title>Node17&#45;&gt;Node20</title>
<path fill="none" stroke="midnightblue" d="M1366.52,-298.352C1393.51,-291.782 1423.45,-279.178 1440,-255 1456.38,-231.062 1421.65,-212.42 1391.33,-201.354"/>
<polygon fill="midnightblue" stroke="midnightblue" points="1392.3,-197.988 1381.71,-198.031 1390.02,-204.604 1392.3,-197.988"/>
</g>
<!-- Node17&#45;&gt;Node21 -->
<g id="edge55" class="edge"><title>Node17&#45;&gt;Node21</title>
<path fill="none" stroke="midnightblue" d="M1279.7,-291.436C1258.81,-281.582 1230.5,-267.916 1206,-255 1173.94,-238.099 1137.7,-217.103 1114.86,-203.628"/>
<polygon fill="midnightblue" stroke="midnightblue" points="1116.62,-200.6 1106.23,-198.517 1113.05,-206.623 1116.62,-200.6"/>
</g>
<!-- Node17&#45;&gt;Node23 -->
<g id="edge37" class="edge"><title>Node17&#45;&gt;Node23</title>
<path fill="none" stroke="midnightblue" d="M1253.06,-298.5C1164.6,-287.626 994.335,-266.694 897.656,-254.809"/>
<polygon fill="midnightblue" stroke="midnightblue" points="898.027,-251.328 887.675,-253.582 897.173,-258.276 898.027,-251.328"/>
</g>
<!-- Node17&#45;&gt;Node26 -->
<g id="edge48" class="edge"><title>Node17&#45;&gt;Node26</title>
<path fill="none" stroke="midnightblue" d="M1253.36,-303.158C1120.14,-297.414 776.357,-281.222 478.543,-255.091"/>
<polygon fill="midnightblue" stroke="midnightblue" points="478.682,-251.59 468.413,-254.197 478.067,-258.563 478.682,-251.59"/>
</g>
<!-- Node27 -->
<g id="node27" class="node"><title>Node27</title>
<polygon fill="white" stroke="#bfbfbf" points="1738.5,-235.5 1738.5,-254.5 1801.5,-254.5 1801.5,-235.5 1738.5,-235.5"/>
<text text-anchor="middle" x="1770" y="-242.5" font-family="Helvetica,sans-Serif" font-size="10.00">functional</text>
</g>
<!-- Node17&#45;&gt;Node27 -->
<g id="edge53" class="edge"><title>Node17&#45;&gt;Node27</title>
<path fill="none" stroke="midnightblue" d="M1366.87,-298.144C1460.69,-286.009 1645.74,-262.073 1728.4,-251.38"/>
<polygon fill="midnightblue" stroke="midnightblue" points="1728.97,-254.837 1738.43,-250.083 1728.07,-247.895 1728.97,-254.837"/>
</g>
<!-- Node28 -->
<g id="node28" class="node"><title>Node28</title>
<polygon fill="white" stroke="#bfbfbf" points="1390.5,-235.5 1390.5,-254.5 1431.5,-254.5 1431.5,-235.5 1390.5,-235.5"/>
<text text-anchor="middle" x="1411" y="-242.5" font-family="Helvetica,sans-Serif" font-size="10.00">tuple</text>
</g>
<!-- Node17&#45;&gt;Node28 -->
<g id="edge54" class="edge"><title>Node17&#45;&gt;Node28</title>
<path fill="none" stroke="midnightblue" d="M1333.94,-291.399C1350.13,-281.862 1371.41,-269.325 1387.5,-259.842"/>
<polygon fill="midnightblue" stroke="midnightblue" points="1389.46,-262.749 1396.3,-254.658 1385.91,-256.718 1389.46,-262.749"/>
</g>
<!-- Node29 -->
<g id="node29" class="node"><title>Node29</title>
<polygon fill="white" stroke="#bfbfbf" points="1640,-235.5 1640,-254.5 1682,-254.5 1682,-235.5 1640,-235.5"/>
<text text-anchor="middle" x="1661" y="-242.5" font-family="Helvetica,sans-Serif" font-size="10.00">limits</text>
</g>
<!-- Node17&#45;&gt;Node29 -->
<g id="edge57" class="edge"><title>Node17&#45;&gt;Node29</title>
<path fill="none" stroke="midnightblue" d="M1366.78,-295.874C1441.49,-283.21 1570.23,-261.388 1629.48,-251.343"/>
<polygon fill="midnightblue" stroke="midnightblue" points="1630.43,-254.732 1639.7,-249.61 1629.26,-247.831 1630.43,-254.732"/>
</g>
<!-- Node18&#45;&gt;Node3 -->
<g id="edge30" class="edge"><title>Node18&#45;&gt;Node3</title>
<path fill="none" stroke="midnightblue" d="M1290.94,-235.41C1257.78,-220.912 1187,-191.908 1124,-179 1012.31,-156.116 677.219,-141.689 531.701,-136.344"/>
<polygon fill="midnightblue" stroke="midnightblue" points="531.678,-132.841 521.557,-135.975 531.424,-139.836 531.678,-132.841"/>
</g>
<!-- Node18&#45;&gt;Node5 -->
<g id="edge29" class="edge"><title>Node18&#45;&gt;Node5</title>
<path fill="none" stroke="midnightblue" d="M1247.99,-240.234C1169.11,-234.707 1028.95,-222.416 911,-199 822.556,-181.441 802.095,-169.8 716,-143 660.812,-125.821 598.044,-104.514 555.618,-89.8472"/>
<polygon fill="midnightblue" stroke="midnightblue" points="556.682,-86.5117 546.087,-86.5457 554.39,-93.1261 556.682,-86.5117"/>
</g>
<!-- Node18&#45;&gt;Node10 -->
<g id="edge34" class="edge"><title>Node18&#45;&gt;Node10</title>
<path fill="none" stroke="midnightblue" d="M1364.28,-235.49C1420.61,-226.244 1504.63,-211.165 1535,-199 1593.6,-175.526 1595.2,-143.227 1655,-123 1756.7,-88.6025 2091.34,-76.3856 2196.84,-73.3353"/>
<polygon fill="midnightblue" stroke="midnightblue" points="2196.98,-76.8328 2206.88,-73.053 2196.79,-69.8356 2196.98,-76.8328"/>
</g>
<!-- Node18&#45;&gt;Node14 -->
<g id="edge31" class="edge"><title>Node18&#45;&gt;Node14</title>
<path fill="none" stroke="midnightblue" d="M1334.24,-235.444C1359.87,-226.399 1400.49,-212.064 1429.24,-201.916"/>
<polygon fill="midnightblue" stroke="midnightblue" points="1430.61,-205.145 1438.87,-198.516 1428.28,-198.544 1430.61,-205.145"/>
</g>
<!-- Node18&#45;&gt;Node17 -->
<g id="edge36" class="edge"><title>Node18&#45;&gt;Node17</title>
<path fill="none" stroke="midnightblue" d="M1314.93,-254.658C1316.43,-261.655 1317.01,-271.857 1316.64,-281.289"/>
<polygon fill="midnightblue" stroke="midnightblue" points="1313.14,-281.153 1315.84,-291.399 1320.12,-281.709 1313.14,-281.153"/>
</g>
<!-- Node19 -->
<g id="node19" class="node"><title>Node19</title>
<polygon fill="white" stroke="#bfbfbf" points="1132,-123.5 1132,-142.5 1192,-142.5 1192,-123.5 1132,-123.5"/>
<text text-anchor="middle" x="1162" y="-130.5" font-family="Helvetica,sans-Serif" font-size="10.00">dmlc/io.h</text>
</g>
<!-- Node18&#45;&gt;Node19 -->
<g id="edge28" class="edge"><title>Node18&#45;&gt;Node19</title>
<path fill="none" stroke="midnightblue" d="M1306.98,-235.21C1301.85,-221.449 1290.16,-194.77 1272,-179 1252.05,-161.677 1224.54,-150.425 1202.02,-143.505"/>
<polygon fill="midnightblue" stroke="midnightblue" points="1202.97,-140.136 1192.39,-140.711 1201.02,-146.859 1202.97,-140.136"/>
</g>
<!-- Node18&#45;&gt;Node20 -->
<g id="edge32" class="edge"><title>Node18&#45;&gt;Node20</title>
<path fill="none" stroke="midnightblue" d="M1317.1,-235.083C1323.24,-227.377 1332.27,-216.033 1339.74,-206.653"/>
<polygon fill="midnightblue" stroke="midnightblue" points="1342.54,-208.754 1346.03,-198.751 1337.06,-204.394 1342.54,-208.754"/>
</g>
<!-- Node18&#45;&gt;Node21 -->
<g id="edge33" class="edge"><title>Node18&#45;&gt;Node21</title>
<path fill="none" stroke="midnightblue" d="M1275.46,-235.444C1234.37,-225.266 1166.25,-208.393 1125.59,-198.32"/>
<polygon fill="midnightblue" stroke="midnightblue" points="1126.18,-194.861 1115.63,-195.854 1124.5,-201.655 1126.18,-194.861"/>
</g>
<!-- Node18&#45;&gt;Node22 -->
<g id="edge35" class="edge"><title>Node18&#45;&gt;Node22</title>
<path fill="none" stroke="midnightblue" d="M1372.31,-235.803C1375.24,-235.511 1378.15,-235.241 1381,-235 1761.49,-202.834 2221.16,-193.227 2379.87,-190.758"/>
<polygon fill="midnightblue" stroke="midnightblue" points="2380.39,-194.251 2390.33,-190.599 2380.28,-187.252 2380.39,-194.251"/>
</g>
<!-- Node23&#45;&gt;Node3 -->
<g id="edge39" class="edge"><title>Node23&#45;&gt;Node3</title>
<path fill="none" stroke="midnightblue" d="M797.818,-235.46C733.225,-215.886 574.428,-167.766 501.165,-145.565"/>
<polygon fill="midnightblue" stroke="midnightblue" points="502,-142.161 491.414,-142.61 499.969,-148.86 502,-142.161"/>
</g>
<!-- Node23&#45;&gt;Node5 -->
<g id="edge38" class="edge"><title>Node23&#45;&gt;Node5</title>
<path fill="none" stroke="midnightblue" d="M810.131,-235.495C760.989,-209.158 610.484,-128.497 541.371,-91.4568"/>
<polygon fill="midnightblue" stroke="midnightblue" points="542.646,-88.1689 532.178,-86.53 539.339,-94.3387 542.646,-88.1689"/>
</g>
<!-- Node23&#45;&gt;Node11 -->
<g id="edge47" class="edge"><title>Node23&#45;&gt;Node11</title>
<path fill="none" stroke="midnightblue" d="M833.288,-235.26C855.954,-208.076 925.468,-124.708 955.237,-89.0059"/>
<polygon fill="midnightblue" stroke="midnightblue" points="958.18,-90.9412 961.896,-81.0194 952.804,-86.4583 958.18,-90.9412"/>
</g>
<!-- Node23&#45;&gt;Node12 -->
<g id="edge45" class="edge"><title>Node23&#45;&gt;Node12</title>
<path fill="none" stroke="midnightblue" d="M823.452,-235.26C815.661,-208.536 792.04,-127.517 781.353,-90.8618"/>
<polygon fill="midnightblue" stroke="midnightblue" points="784.643,-89.64 778.484,-81.0194 777.923,-91.5993 784.643,-89.64"/>
</g>
<!-- Node23&#45;&gt;Node21 -->
<g id="edge46" class="edge"><title>Node23&#45;&gt;Node21</title>
<path fill="none" stroke="midnightblue" d="M876.227,-235.43C921.353,-227.476 989.629,-214.816 1058.15,-199.052"/>
<polygon fill="midnightblue" stroke="midnightblue" points="1059.31,-202.376 1068.26,-196.704 1057.73,-195.558 1059.31,-202.376"/>
</g>
<!-- Node24 -->
<g id="node24" class="node"><title>Node24</title>
<g id="a_node24"><a xlink:href="serializer_8h.html" target="_top" xlink:title="Serializer extension to support TVM data types Include this file to enable serialization of DLDataTyp...">
<polygon fill="white" stroke="black" points="920,-179.5 920,-198.5 1050,-198.5 1050,-179.5 920,-179.5"/>
<text text-anchor="middle" x="985" y="-186.5" font-family="Helvetica,sans-Serif" font-size="10.00">tvm/runtime/serializer.h</text>
</a>
</g>
</g>
<!-- Node23&#45;&gt;Node24 -->
<g id="edge40" class="edge"><title>Node23&#45;&gt;Node24</title>
<path fill="none" stroke="midnightblue" d="M846.105,-235.444C870.969,-226.32 913.489,-211.813 945.027,-201.651"/>
<polygon fill="midnightblue" stroke="midnightblue" points="946.382,-204.892 954.844,-198.516 944.253,-198.224 946.382,-204.892"/>
</g>
<!-- Node24&#45;&gt;Node5 -->
<g id="edge43" class="edge"><title>Node24&#45;&gt;Node5</title>
<path fill="none" stroke="midnightblue" d="M949.753,-179.47C898.359,-167.035 799.84,-143.21 716,-123 668.684,-111.594 615.364,-98.7723 574.291,-88.9023"/>
<polygon fill="midnightblue" stroke="midnightblue" points="574.932,-85.4569 564.391,-86.5236 573.297,-92.2632 574.932,-85.4569"/>
</g>
<!-- Node24&#45;&gt;Node19 -->
<g id="edge41" class="edge"><title>Node24&#45;&gt;Node19</title>
<path fill="none" stroke="midnightblue" d="M1013.05,-179.444C1043.08,-170.28 1090.91,-155.688 1124.24,-145.519"/>
<polygon fill="midnightblue" stroke="midnightblue" points="1125.54,-148.782 1134.09,-142.516 1123.5,-142.087 1125.54,-148.782"/>
</g>
<!-- Node24&#45;&gt;Node23 -->
<g id="edge44" class="edge"><title>Node24&#45;&gt;Node23</title>
<path fill="none" stroke="midnightblue" d="M965.004,-198.516C940.192,-207.625 897.682,-222.129 866.112,-232.304"/>
<polygon fill="midnightblue" stroke="midnightblue" points="864.744,-229.067 856.283,-235.444 866.874,-235.735 864.744,-229.067"/>
</g>
<!-- Node25 -->
<g id="node25" class="node"><title>Node25</title>
<polygon fill="white" stroke="#bfbfbf" points="938,-123.5 938,-142.5 1032,-142.5 1032,-123.5 938,-123.5"/>
<text text-anchor="middle" x="985" y="-130.5" font-family="Helvetica,sans-Serif" font-size="10.00">dmlc/serializer.h</text>
</g>
<!-- Node24&#45;&gt;Node25 -->
<g id="edge42" class="edge"><title>Node24&#45;&gt;Node25</title>
<path fill="none" stroke="midnightblue" d="M985,-179.083C985,-172.006 985,-161.861 985,-152.986"/>
<polygon fill="midnightblue" stroke="midnightblue" points="988.5,-152.751 985,-142.751 981.5,-152.751 988.5,-152.751"/>
</g>
<!-- Node26&#45;&gt;Node4 -->
<g id="edge50" class="edge"><title>Node26&#45;&gt;Node4</title>
<path fill="none" stroke="midnightblue" d="M331.915,-239.984C302.808,-234.573 271.179,-223.036 252,-199 230.904,-172.561 234.828,-154.154 248,-123 254.092,-108.591 266.53,-96.2679 277.713,-87.4025"/>
<polygon fill="midnightblue" stroke="midnightblue" points="279.958,-90.0949 285.895,-81.3198 275.781,-84.4772 279.958,-90.0949"/>
</g>
<!-- Node26&#45;&gt;Node5 -->
<g id="edge49" class="edge"><title>Node26&#45;&gt;Node5</title>
<path fill="none" stroke="midnightblue" d="M396.475,-235.203C388.579,-213.945 371.899,-158.889 395,-123 404.387,-108.416 419.134,-97.9945 434.848,-90.5649"/>
<polygon fill="midnightblue" stroke="midnightblue" points="436.391,-93.7109 444.178,-86.5274 433.611,-87.2865 436.391,-93.7109"/>
</g>
<!-- Node26&#45;&gt;Node9 -->
<g id="edge51" class="edge"><title>Node26&#45;&gt;Node9</title>
<path fill="none" stroke="midnightblue" d="M425.549,-235.452C495.517,-212.473 696.512,-149.333 869,-123 1057.13,-94.2787 1655.38,-77.7207 1823.61,-73.5513"/>
<polygon fill="midnightblue" stroke="midnightblue" points="1823.92,-77.0449 1833.83,-73.3002 1823.75,-70.047 1823.92,-77.0449"/>
</g>
<!-- Node30&#45;&gt;Node10 -->
<g id="edge81" class="edge"><title>Node30&#45;&gt;Node10</title>
<path fill="none" stroke="midnightblue" d="M1012.82,-415.744C1093.33,-397.014 1246.49,-360.144 1375,-322 1490.2,-287.806 1516.07,-270.106 1631,-235 1845.52,-169.47 2107.27,-102.893 2197.03,-80.4408"/>
<polygon fill="midnightblue" stroke="midnightblue" points="2198.01,-83.8025 2206.87,-77.9842 2196.32,-77.011 2198.01,-83.8025"/>
</g>
<!-- Node30&#45;&gt;Node26 -->
<g id="edge64" class="edge"><title>Node30&#45;&gt;Node26</title>
<path fill="none" stroke="midnightblue" d="M914.218,-414.483C808.053,-379.698 534.026,-289.913 435.744,-257.712"/>
<polygon fill="midnightblue" stroke="midnightblue" points="436.578,-254.302 425.986,-254.514 434.399,-260.954 436.578,-254.302"/>
</g>
<!-- Node31 -->
<g id="node31" class="node"><title>Node31</title>
<g id="a_node31"><a xlink:href="functor_8h.html" target="_top" xlink:title="Defines the Functor data structures. ">
<polygon fill="white" stroke="black" points="486.5,-235.5 486.5,-254.5 593.5,-254.5 593.5,-235.5 486.5,-235.5"/>
<text text-anchor="middle" x="540" y="-242.5" font-family="Helvetica,sans-Serif" font-size="10.00">tvm/node/functor.h</text>
</a>
</g>
</g>
<!-- Node30&#45;&gt;Node31 -->
<g id="edge65" class="edge"><title>Node30&#45;&gt;Node31</title>
<path fill="none" stroke="midnightblue" d="M932.629,-414.344C885.941,-387.634 780.153,-329.072 686,-291 652.236,-277.347 612.689,-265.394 583.276,-257.245"/>
<polygon fill="midnightblue" stroke="midnightblue" points="583.89,-253.785 573.321,-254.525 582.045,-260.537 583.89,-253.785"/>
</g>
<!-- Node30&#45;&gt;Node32 -->
<g id="edge71" class="edge"><title>Node30&#45;&gt;Node32</title>
<path fill="none" stroke="midnightblue" d="M1012.7,-424.434C1157.06,-413.895 1543.11,-385.71 1702.1,-374.103"/>
<polygon fill="midnightblue" stroke="midnightblue" points="1702.52,-377.582 1712.24,-373.363 1702.01,-370.6 1702.52,-377.582"/>
</g>
<!-- Node31&#45;&gt;Node3 -->
<g id="edge67" class="edge"><title>Node31&#45;&gt;Node3</title>
<path fill="none" stroke="midnightblue" d="M530.575,-235.296C521.536,-226.644 507.844,-212.718 498,-199 487.282,-184.064 477.587,-165.459 471.133,-151.986"/>
<polygon fill="midnightblue" stroke="midnightblue" points="474.262,-150.415 466.866,-142.829 467.917,-153.372 474.262,-150.415"/>
</g>
<!-- Node31&#45;&gt;Node4 -->
<g id="edge66" class="edge"><title>Node31&#45;&gt;Node4</title>
<path fill="none" stroke="midnightblue" d="M498.667,-235.5C456.89,-226.421 395.641,-211.631 375,-199 346.286,-181.428 341.117,-171.987 324,-143 314.361,-126.676 307.89,-105.924 304.121,-91.1712"/>
<polygon fill="midnightblue" stroke="midnightblue" points="307.476,-90.1508 301.757,-81.2319 300.666,-91.7704 307.476,-90.1508"/>
</g>
<!-- Node31&#45;&gt;Node9 -->
<g id="edge69" class="edge"><title>Node31&#45;&gt;Node9</title>
<path fill="none" stroke="midnightblue" d="M593.541,-235.839C637.304,-228.434 700.464,-216.06 754,-199 834.793,-173.255 846.471,-142.473 929,-123 1102.17,-82.1404 1661.16,-74.2499 1823.44,-72.8072"/>
<polygon fill="midnightblue" stroke="midnightblue" points="1823.58,-76.3062 1833.55,-72.7212 1823.52,-69.3065 1823.58,-76.3062"/>
</g>
<!-- Node31&#45;&gt;Node11 -->
<g id="edge70" class="edge"><title>Node31&#45;&gt;Node11</title>
<path fill="none" stroke="midnightblue" d="M556.512,-235.39C597.35,-214.315 706.691,-159.218 802,-123 848.572,-105.302 904.24,-89.4989 938.089,-80.4617"/>
<polygon fill="midnightblue" stroke="midnightblue" points="939.085,-83.8186 947.859,-77.8797 937.296,-77.051 939.085,-83.8186"/>
</g>
<!-- Node31&#45;&gt;Node21 -->
<g id="edge68" class="edge"><title>Node31&#45;&gt;Node21</title>
<path fill="none" stroke="midnightblue" d="M593.836,-242.516C686.807,-239.261 883.466,-229.33 1058.42,-198.761"/>
<polygon fill="midnightblue" stroke="midnightblue" points="1059.09,-202.198 1068.32,-197.005 1057.87,-195.305 1059.09,-202.198"/>
</g>
<!-- Node32&#45;&gt;Node3 -->
<g id="edge72" class="edge"><title>Node32&#45;&gt;Node3</title>
<path fill="none" stroke="midnightblue" d="M1712.42,-363.419C1606.95,-356.85 1380.52,-341.721 1190,-322 1132.49,-316.047 729.437,-271.408 674,-255 596.358,-232.019 516.649,-175.579 481.529,-148.697"/>
<polygon fill="midnightblue" stroke="midnightblue" points="483.636,-145.902 473.589,-142.537 479.345,-151.432 483.636,-145.902"/>
</g>
<!-- Node32&#45;&gt;Node9 -->
<g id="edge75" class="edge"><title>Node32&#45;&gt;Node9</title>
<path fill="none" stroke="midnightblue" d="M1781.22,-358.394C1806.7,-334.49 1876.61,-268.181 1882,-255 1905.01,-198.734 1885.81,-124.652 1874.64,-90.7987"/>
<polygon fill="midnightblue" stroke="midnightblue" points="1877.93,-89.6042 1871.36,-81.2944 1871.31,-91.8891 1877.93,-89.6042"/>
</g>
<!-- Node32&#45;&gt;Node10 -->
<g id="edge80" class="edge"><title>Node32&#45;&gt;Node10</title>
<path fill="none" stroke="midnightblue" d="M1788.15,-358.374C1804.15,-349.67 1829.2,-335.606 1850,-322 1974.76,-240.403 1991.72,-198.94 2120,-123 2145.17,-108.1 2175.48,-94.369 2197.74,-84.9983"/>
<polygon fill="midnightblue" stroke="midnightblue" points="2199.15,-88.2002 2207.05,-81.135 2196.47,-81.7347 2199.15,-88.2002"/>
</g>
<!-- Node32&#45;&gt;Node11 -->
<g id="edge79" class="edge"><title>Node32&#45;&gt;Node11</title>
<path fill="none" stroke="midnightblue" d="M1753.92,-358.39C1740.44,-350.872 1723.03,-338.565 1715,-322 1708.99,-309.601 1706.87,-302.123 1715,-291 1748.08,-245.748 1860.71,-280.515 1828,-235 1728.61,-96.7139 1143.42,-76.0017 1000.48,-72.9955"/>
<polygon fill="midnightblue" stroke="midnightblue" points="1000.3,-69.4913 990.229,-72.7949 1000.16,-76.4899 1000.3,-69.4913"/>
</g>
<!-- Node32&#45;&gt;Node14 -->
<g id="edge73" class="edge"><title>Node32&#45;&gt;Node14</title>
<path fill="none" stroke="midnightblue" d="M1734.9,-358.458C1715.56,-351.918 1693.57,-340.724 1682,-322 1674.76,-310.28 1673.68,-301.982 1682,-291 1719.5,-241.504 1850.99,-281.646 1810,-235 1801.05,-224.811 1635.66,-206.934 1536.5,-197.057"/>
<polygon fill="midnightblue" stroke="midnightblue" points="1536.82,-193.572 1526.52,-196.068 1536.13,-200.538 1536.82,-193.572"/>
</g>
<!-- Node32&#45;&gt;Node17 -->
<g id="edge74" class="edge"><title>Node32&#45;&gt;Node17</title>
<path fill="none" stroke="midnightblue" d="M1712.08,-359.282C1625.68,-348.156 1466.65,-327.674 1376.65,-316.084"/>
<polygon fill="midnightblue" stroke="midnightblue" points="1376.93,-312.59 1366.56,-314.784 1376.03,-319.533 1376.93,-312.59"/>
</g>
<!-- Node32&#45;&gt;Node21 -->
<g id="edge76" class="edge"><title>Node32&#45;&gt;Node21</title>
<path fill="none" stroke="midnightblue" d="M1712.37,-364.003C1583.31,-357.217 1286.26,-339.871 1244,-322 1183.03,-296.218 1129.07,-236.329 1105.13,-206.916"/>
<polygon fill="midnightblue" stroke="midnightblue" points="1107.66,-204.473 1098.69,-198.837 1102.18,-208.838 1107.66,-204.473"/>
</g>
<!-- Node32&#45;&gt;Node22 -->
<g id="edge78" class="edge"><title>Node32&#45;&gt;Node22</title>
<path fill="none" stroke="midnightblue" d="M1804.07,-358.463C1913.47,-329.346 2271.93,-233.935 2395.04,-201.167"/>
<polygon fill="midnightblue" stroke="midnightblue" points="2396.1,-204.509 2404.86,-198.555 2394.3,-197.745 2396.1,-204.509"/>
</g>
<!-- Node33 -->
<g id="node33" class="node"><title>Node33</title>
<polygon fill="white" stroke="#bfbfbf" points="1724.5,-297 1724.5,-316 1801.5,-316 1801.5,-297 1724.5,-297"/>
<text text-anchor="middle" x="1763" y="-304" font-family="Helvetica,sans-Serif" font-size="10.00">initializer_list</text>
</g>
<!-- Node32&#45;&gt;Node33 -->
<g id="edge77" class="edge"><title>Node32&#45;&gt;Node33</title>
<path fill="none" stroke="midnightblue" d="M1770.71,-358.475C1769.44,-350.08 1767.46,-336.981 1765.82,-326.163"/>
<polygon fill="midnightblue" stroke="midnightblue" points="1769.24,-325.373 1764.29,-316.009 1762.32,-326.42 1769.24,-325.373"/>
</g>
<!-- Node34&#45;&gt;Node10 -->
<g id="edge86" class="edge"><title>Node34&#45;&gt;Node10</title>
<path fill="none" stroke="midnightblue" d="M1611.51,-426.718C1670.56,-423.012 1765.55,-411.778 1840,-378 2004.98,-303.149 2013.46,-232.213 2158,-123 2174.53,-110.508 2193.7,-96.9242 2207.95,-86.9946"/>
<polygon fill="midnightblue" stroke="midnightblue" points="2210.31,-89.6207 2216.53,-81.0453 2206.32,-83.8689 2210.31,-89.6207"/>
</g>
<!-- Node34&#45;&gt;Node26 -->
<g id="edge83" class="edge"><title>Node34&#45;&gt;Node26</title>
<path fill="none" stroke="midnightblue" d="M1500.47,-421.966C1425.22,-412.949 1286.75,-395.781 1169,-378 901.009,-337.531 582.181,-279.688 455.684,-256.35"/>
<polygon fill="midnightblue" stroke="midnightblue" points="456.304,-252.906 445.835,-254.531 455.033,-259.789 456.304,-252.906"/>
</g>
<!-- Node34&#45;&gt;Node27 -->
<g id="edge87" class="edge"><title>Node34&#45;&gt;Node27</title>
<path fill="none" stroke="midnightblue" d="M1561.41,-414.237C1572.63,-386.549 1600.98,-325.241 1644,-291 1657.49,-280.264 1697.7,-266.849 1729.1,-257.471"/>
<polygon fill="midnightblue" stroke="midnightblue" points="1730.34,-260.756 1738.95,-254.577 1728.36,-254.04 1730.34,-260.756"/>
</g>
<!-- Node34&#45;&gt;Node31 -->
<g id="edge84" class="edge"><title>Node34&#45;&gt;Node31</title>
<path fill="none" stroke="midnightblue" d="M1500.26,-418.273C1425.06,-404.495 1286.96,-379.246 1169,-358 958.872,-320.153 709.118,-275.899 598.131,-256.271"/>
<polygon fill="midnightblue" stroke="midnightblue" points="598.605,-252.801 588.148,-254.506 597.386,-259.694 598.605,-252.801"/>
</g>
<!-- Node34&#45;&gt;Node32 -->
<g id="edge85" class="edge"><title>Node34&#45;&gt;Node32</title>
<path fill="none" stroke="midnightblue" d="M1606.92,-414.475C1644.83,-404.03 1695.92,-389.958 1731.17,-380.247"/>
<polygon fill="midnightblue" stroke="midnightblue" points="1732.41,-383.536 1741.12,-377.506 1730.55,-376.788 1732.41,-383.536"/>
</g>
<!-- Node35&#45;&gt;Node31 -->
<g id="edge92" class="edge"><title>Node35&#45;&gt;Node31</title>
<path fill="none" stroke="midnightblue" d="M540,-481.316C540,-446.185 540,-314.119 540,-264.763"/>
<polygon fill="midnightblue" stroke="midnightblue" points="543.5,-264.58 540,-254.58 536.5,-264.58 543.5,-264.58"/>
</g>
<!-- Node36 -->
<g id="node36" class="node"><title>Node36</title>
<polygon fill="white" stroke="#bfbfbf" points="294.5,-420 294.5,-439 353.5,-439 353.5,-420 294.5,-420"/>
<text text-anchor="middle" x="324" y="-427" font-family="Helvetica,sans-Serif" font-size="10.00">iostream</text>
</g>
<!-- Node35&#45;&gt;Node36 -->
<g id="edge93" class="edge"><title>Node35&#45;&gt;Node36</title>
<path fill="none" stroke="midnightblue" d="M504.574,-481.419C469.674,-472.803 414.92,-458.854 368,-445 365.011,-444.117 361.919,-443.17 358.823,-442.197"/>
<polygon fill="midnightblue" stroke="midnightblue" points="359.636,-438.782 349.045,-439.053 357.493,-445.446 359.636,-438.782"/>
</g>
<!-- Node37&#45;&gt;Node10 -->
<g id="edge143" class="edge"><title>Node37&#45;&gt;Node10</title>
<path fill="none" stroke="midnightblue" d="M1862.01,-880.789C1991.26,-877.08 2355.75,-864.42 2472,-837 2545.1,-819.756 2628,-847.111 2628,-772 2628,-772 2628,-772 2628,-490 2628,-407.149 2666,-390.351 2666,-307.5 2666,-307.5 2666,-307.5 2666,-188 2666,-104.336 2362.82,-79.9136 2261.52,-74.0886"/>
<polygon fill="midnightblue" stroke="midnightblue" points="2261.45,-70.5796 2251.27,-73.5239 2261.06,-77.569 2261.45,-70.5796"/>
</g>
<!-- Node37&#45;&gt;Node21 -->
<g id="edge144" class="edge"><title>Node37&#45;&gt;Node21</title>
<path fill="none" stroke="midnightblue" d="M1769.99,-878.344C1551.92,-860.415 633,-777.87 633,-660 633,-660 633,-660 633,-602 633,-388.2 757.502,-339.542 944,-235 954.123,-229.325 1018.05,-210.798 1058.51,-199.362"/>
<polygon fill="midnightblue" stroke="midnightblue" points="1059.56,-202.7 1068.24,-196.619 1057.67,-195.963 1059.56,-202.7"/>
</g>
<!-- Node37&#45;&gt;Node22 -->
<g id="edge145" class="edge"><title>Node37&#45;&gt;Node22</title>
<path fill="none" stroke="midnightblue" d="M1862.1,-880.338C2028.73,-873.727 2590,-845.97 2590,-772 2590,-772 2590,-772 2590,-428.5 2590,-330.216 2496.81,-240.077 2455.89,-205.231"/>
<polygon fill="midnightblue" stroke="midnightblue" points="2457.92,-202.37 2448,-198.651 2453.44,-207.745 2457.92,-202.37"/>
</g>
<!-- Node38 -->
<g id="node38" class="node"><title>Node38</title>
<g id="a_node38"><a xlink:href="ir_2type_8h.html" target="_top" xlink:title="IR/AST nodes for the unified type system in TVM. ">
<polygon fill="white" stroke="black" points="1504.5,-649.5 1504.5,-668.5 1581.5,-668.5 1581.5,-649.5 1504.5,-649.5"/>
<text text-anchor="middle" x="1543" y="-656.5" font-family="Helvetica,sans-Serif" font-size="10.00">tvm/ir/type.h</text>
</a>
</g>
</g>
<!-- Node37&#45;&gt;Node38 -->
<g id="edge103" class="edge"><title>Node37&#45;&gt;Node38</title>
<path fill="none" stroke="midnightblue" d="M1791.64,-873.415C1770.03,-865.347 1737.95,-852.252 1712,-837 1645.38,-797.842 1626.55,-785.915 1579,-725 1567.49,-710.253 1557.46,-691.353 1550.94,-677.739"/>
<polygon fill="midnightblue" stroke="midnightblue" points="1554.04,-676.116 1546.66,-668.515 1547.69,-679.059 1554.04,-676.116"/>
</g>
<!-- Node39 -->
<g id="node39" class="node"><title>Node39</title>
<g id="a_node39"><a xlink:href="ir_2expr_8h.html" target="_top" xlink:title="Base expr nodes in TVM. ">
<polygon fill="white" stroke="black" points="1715.5,-705.5 1715.5,-724.5 1792.5,-724.5 1792.5,-705.5 1715.5,-705.5"/>
<text text-anchor="middle" x="1754" y="-712.5" font-family="Helvetica,sans-Serif" font-size="10.00">tvm/ir/expr.h</text>
</a>
</g>
</g>
<!-- Node37&#45;&gt;Node39 -->
<g id="edge110" class="edge"><title>Node37&#45;&gt;Node39</title>
<path fill="none" stroke="midnightblue" d="M1801.77,-873.199C1790.29,-865.257 1774.81,-852.466 1767,-837 1750.4,-804.11 1750.38,-759.883 1752.06,-735.025"/>
<polygon fill="midnightblue" stroke="midnightblue" points="1755.57,-735.054 1752.92,-724.795 1748.59,-734.464 1755.57,-735.054"/>
</g>
<!-- Node41 -->
<g id="node41" class="node"><title>Node41</title>
<g id="a_node41"><a xlink:href="ir_2function_8h.html" target="_top" xlink:title="Function nodes. ">
<polygon fill="white" stroke="black" points="2107.5,-817.5 2107.5,-836.5 2202.5,-836.5 2202.5,-817.5 2107.5,-817.5"/>
<text text-anchor="middle" x="2155" y="-824.5" font-family="Helvetica,sans-Serif" font-size="10.00">tvm/ir/function.h</text>
</a>
</g>
</g>
<!-- Node37&#45;&gt;Node41 -->
<g id="edge120" class="edge"><title>Node37&#45;&gt;Node41</title>
<path fill="none" stroke="midnightblue" d="M1862.07,-874.661C1923.2,-864.924 2031.11,-847.735 2097.5,-837.159"/>
<polygon fill="midnightblue" stroke="midnightblue" points="2098.07,-840.614 2107.39,-835.584 2096.96,-833.701 2098.07,-840.614"/>
</g>
<!-- Node44 -->
<g id="node44" class="node"><title>Node44</title>
<g id="a_node44"><a xlink:href="ir_2adt_8h.html" target="_top" xlink:title="Algebraic data type definitions. ">
<polygon fill="white" stroke="black" points="1648,-761.5 1648,-780.5 1720,-780.5 1720,-761.5 1648,-761.5"/>
<text text-anchor="middle" x="1684" y="-768.5" font-family="Helvetica,sans-Serif" font-size="10.00">tvm/ir/adt.h</text>
</a>
</g>
</g>
<!-- Node37&#45;&gt;Node44 -->
<g id="edge136" class="edge"><title>Node37&#45;&gt;Node44</title>
<path fill="none" stroke="midnightblue" d="M1794.98,-873.396C1777.47,-865.575 1752.5,-852.85 1734,-837 1718.01,-823.301 1703.81,-803.74 1694.67,-789.66"/>
<polygon fill="midnightblue" stroke="midnightblue" points="1697.47,-787.536 1689.19,-780.927 1691.54,-791.258 1697.47,-787.536"/>
</g>
<!-- Node45 -->
<g id="node45" class="node"><title>Node45</title>
<polygon fill="white" stroke="#bfbfbf" points="1776,-817.5 1776,-836.5 1862,-836.5 1862,-817.5 1776,-817.5"/>
<text text-anchor="middle" x="1819" y="-824.5" font-family="Helvetica,sans-Serif" font-size="10.00">unordered_set</text>
</g>
<!-- Node37&#45;&gt;Node45 -->
<g id="edge146" class="edge"><title>Node37&#45;&gt;Node45</title>
<path fill="none" stroke="midnightblue" d="M1816.5,-873.083C1816.89,-866.006 1817.45,-855.861 1817.95,-846.986"/>
<polygon fill="midnightblue" stroke="midnightblue" points="1821.45,-846.93 1818.51,-836.751 1814.46,-846.542 1821.45,-846.93"/>
</g>
<!-- Node38&#45;&gt;Node2 -->
<g id="edge108" class="edge"><title>Node38&#45;&gt;Node2</title>
<path fill="none" stroke="midnightblue" d="M1538.05,-649.083C1533.9,-641.613 1527.85,-630.724 1522.73,-621.52"/>
<polygon fill="midnightblue" stroke="midnightblue" points="1525.78,-619.793 1517.86,-612.751 1519.66,-623.192 1525.78,-619.793"/>
</g>
<!-- Node38&#45;&gt;Node3 -->
<g id="edge104" class="edge"><title>Node38&#45;&gt;Node3</title>
<path fill="none" stroke="midnightblue" d="M1504.29,-655.548C1408.74,-649.399 1154.04,-632.417 942,-613 711.841,-591.924 652.846,-595.775 425,-557 335.805,-541.821 38,-520.978 38,-430.5 38,-430.5 38,-430.5 38,-305.5 38,-238.74 58.9824,-208.237 119,-179 166.09,-156.06 307.984,-143.52 394.123,-137.836"/>
<polygon fill="midnightblue" stroke="midnightblue" points="394.587,-141.314 404.341,-137.177 394.136,-134.328 394.587,-141.314"/>
</g>
<!-- Node38&#45;&gt;Node10 -->
<g id="edge109" class="edge"><title>Node38&#45;&gt;Node10</title>
<path fill="none" stroke="midnightblue" d="M1581.64,-655.214C1734.15,-641.938 2286,-571.416 2286,-246 2286,-246 2286,-246 2286,-188 2286,-149.283 2259.93,-110.104 2243.05,-88.7979"/>
<polygon fill="midnightblue" stroke="midnightblue" points="2245.74,-86.5616 2236.69,-81.0574 2240.33,-91.0057 2245.74,-86.5616"/>
</g>
<!-- Node38&#45;&gt;Node13 -->
<g id="edge106" class="edge"><title>Node38&#45;&gt;Node13</title>
<path fill="none" stroke="midnightblue" d="M1513.12,-649.387C1495.46,-642.587 1474.55,-631.15 1464,-613 1455.83,-598.947 1458.4,-580.206 1462.23,-566.459"/>
<polygon fill="midnightblue" stroke="midnightblue" points="1465.64,-567.281 1465.39,-556.689 1458.98,-565.126 1465.64,-567.281"/>
</g>
<!-- Node38&#45;&gt;Node26 -->
<g id="edge105" class="edge"><title>Node38&#45;&gt;Node26</title>
<path fill="none" stroke="midnightblue" d="M1504.17,-654.59C1300.28,-636.282 359.974,-546.677 285,-445 237.378,-380.417 335.533,-294.505 379.827,-260.623"/>
<polygon fill="midnightblue" stroke="midnightblue" points="382.008,-263.362 387.909,-254.562 377.809,-257.762 382.008,-263.362"/>
</g>
<!-- Node38&#45;&gt;Node32 -->
<g id="edge107" class="edge"><title>Node38&#45;&gt;Node32</title>
<path fill="none" stroke="midnightblue" d="M1549.85,-649.351C1581.79,-609.049 1716.23,-439.376 1758.93,-385.495"/>
<polygon fill="midnightblue" stroke="midnightblue" points="1761.71,-387.627 1765.17,-377.615 1756.22,-383.28 1761.71,-387.627"/>
</g>
<!-- Node39&#45;&gt;Node2 -->
<g id="edge114" class="edge"><title>Node39&#45;&gt;Node2</title>
<path fill="none" stroke="midnightblue" d="M1735.09,-705.368C1692.85,-686.091 1590.68,-639.454 1541.02,-616.789"/>
<polygon fill="midnightblue" stroke="midnightblue" points="1542.37,-613.56 1531.82,-612.591 1539.47,-619.928 1542.37,-613.56"/>
</g>
<!-- Node39&#45;&gt;Node3 -->
<g id="edge111" class="edge"><title>Node39&#45;&gt;Node3</title>
<path fill="none" stroke="midnightblue" d="M1715.48,-709.71C1510.85,-686.884 555.659,-579.887 425,-557 251.458,-526.601 76,-545.185 76,-369 76,-369 76,-369 76,-305.5 76,-167.96 282.845,-139.862 394.093,-134.697"/>
<polygon fill="midnightblue" stroke="midnightblue" points="394.376,-138.188 404.223,-134.278 394.087,-131.194 394.376,-138.188"/>
</g>
<!-- Node39&#45;&gt;Node9 -->
<g id="edge119" class="edge"><title>Node39&#45;&gt;Node9</title>
<path fill="none" stroke="midnightblue" d="M1773.33,-705.426C1789.35,-697.623 1812.01,-684.908 1828,-669 1935.64,-561.905 1965.66,-524.107 2007,-378 2031.73,-290.605 2126.36,-414.357 1928,-123 1918.2,-108.6 1903.21,-95.98 1890.66,-86.9572"/>
<polygon fill="midnightblue" stroke="midnightblue" points="1892.29,-83.8306 1882.07,-81.0491 1888.32,-89.5988 1892.29,-83.8306"/>
</g>
<!-- Node39&#45;&gt;Node10 -->
<g id="edge116" class="edge"><title>Node39&#45;&gt;Node10</title>
<path fill="none" stroke="midnightblue" d="M1790.66,-705.397C1922.11,-673.504 2362,-557.303 2362,-430.5 2362,-430.5 2362,-430.5 2362,-244 2362,-172.492 2288.9,-112.753 2251.09,-86.6333"/>
<polygon fill="midnightblue" stroke="midnightblue" points="2252.98,-83.6884 2242.73,-81.0109 2249.08,-89.4966 2252.98,-83.6884"/>
</g>
<!-- Node39&#45;&gt;Node13 -->
<g id="edge112" class="edge"><title>Node39&#45;&gt;Node13</title>
<path fill="none" stroke="midnightblue" d="M1745.13,-705.171C1736.59,-696.427 1723.61,-682.434 1714,-669 1691.43,-637.431 1702.19,-616.101 1671,-593 1629.7,-562.411 1571.5,-551.956 1528.17,-548.685"/>
<polygon fill="midnightblue" stroke="midnightblue" points="1528.25,-545.183 1518.05,-548.03 1527.8,-552.169 1528.25,-545.183"/>
</g>
<!-- Node39&#45;&gt;Node29 -->
<g id="edge118" class="edge"><title>Node39&#45;&gt;Node29</title>
<path fill="none" stroke="midnightblue" d="M1770.21,-705.463C1783.06,-697.762 1800.26,-685.171 1809,-669 1875.06,-546.805 1869.02,-493.841 1840,-358 1833.18,-326.094 1834.5,-312.552 1810,-291 1792.43,-275.541 1730.42,-260.4 1692.15,-252.224"/>
<polygon fill="midnightblue" stroke="midnightblue" points="1692.55,-248.732 1682.05,-250.108 1691.12,-255.583 1692.55,-248.732"/>
</g>
<!-- Node39&#45;&gt;Node32 -->
<g id="edge113" class="edge"><title>Node39&#45;&gt;Node32</title>
<path fill="none" stroke="midnightblue" d="M1765.27,-705.427C1774.97,-697.275 1788.28,-684.046 1794,-669 1797.16,-660.691 1794.35,-657.882 1794,-649 1790.13,-550.392 1778.63,-432.7 1773.98,-387.726"/>
<polygon fill="midnightblue" stroke="midnightblue" points="1777.45,-387.277 1772.93,-377.695 1770.49,-388.004 1777.45,-387.277"/>
</g>
<!-- Node39&#45;&gt;Node38 -->
<g id="edge115" class="edge"><title>Node39&#45;&gt;Node38</title>
<path fill="none" stroke="midnightblue" d="M1720.57,-705.444C1684.14,-696.122 1625.77,-681.183 1585.97,-670.997"/>
<polygon fill="midnightblue" stroke="midnightblue" points="1586.83,-667.605 1576.28,-668.516 1585.1,-674.387 1586.83,-667.605"/>
</g>
<!-- Node40 -->
<g id="node40" class="node"><title>Node40</title>
<polygon fill="white" stroke="#bfbfbf" points="1723,-649.5 1723,-668.5 1785,-668.5 1785,-649.5 1723,-649.5"/>
<text text-anchor="middle" x="1754" y="-656.5" font-family="Helvetica,sans-Serif" font-size="10.00">algorithm</text>
</g>
<!-- Node39&#45;&gt;Node40 -->
<g id="edge117" class="edge"><title>Node39&#45;&gt;Node40</title>
<path fill="none" stroke="midnightblue" d="M1754,-705.083C1754,-698.006 1754,-687.861 1754,-678.986"/>
<polygon fill="midnightblue" stroke="midnightblue" points="1757.5,-678.751 1754,-668.751 1750.5,-678.751 1757.5,-678.751"/>
</g>
<!-- Node41&#45;&gt;Node9 -->
<g id="edge134" class="edge"><title>Node41&#45;&gt;Node9</title>
<path fill="none" stroke="midnightblue" d="M2202.67,-821.477C2300.33,-810.891 2514,-780.372 2514,-716 2514,-716 2514,-716 2514,-367 2514,-282.874 2549.35,-240.545 2492,-179 2452.16,-136.245 2047.73,-91.0139 1912.08,-76.9387"/>
<polygon fill="midnightblue" stroke="midnightblue" points="1912.34,-73.4474 1902.04,-75.9027 1911.63,-80.4105 1912.34,-73.4474"/>
</g>
<!-- Node41&#45;&gt;Node10 -->
<g id="edge135" class="edge"><title>Node41&#45;&gt;Node10</title>
<path fill="none" stroke="midnightblue" d="M2202.68,-826.254C2291.69,-825.78 2478.61,-820.017 2528,-781 2552.17,-761.911 2552,-746.795 2552,-716 2552,-716 2552,-716 2552,-428.5 2552,-286.57 2582.22,-193.433 2459,-123 2395.28,-86.5803 2307.83,-76.4057 2261.26,-73.577"/>
<polygon fill="midnightblue" stroke="midnightblue" points="2261.32,-70.0755 2251.15,-73.0407 2260.95,-77.0657 2261.32,-70.0755"/>
</g>
<!-- Node41&#45;&gt;Node39 -->
<g id="edge121" class="edge"><title>Node41&#45;&gt;Node39</title>
<path fill="none" stroke="midnightblue" d="M2123.87,-817.46C2052.13,-797.782 1875.22,-749.252 1794.88,-727.213"/>
<polygon fill="midnightblue" stroke="midnightblue" points="1795.68,-723.805 1785.11,-724.535 1793.83,-730.555 1795.68,-723.805"/>
</g>
<!-- Node42 -->
<g id="node42" class="node"><title>Node42</title>
<g id="a_node42"><a xlink:href="ir_2attrs_8h.html" target="_top" xlink:title="Helpers for attribute objects. ">
<polygon fill="white" stroke="black" points="2115.5,-761.5 2115.5,-780.5 2194.5,-780.5 2194.5,-761.5 2115.5,-761.5"/>
<text text-anchor="middle" x="2155" y="-768.5" font-family="Helvetica,sans-Serif" font-size="10.00">tvm/ir/attrs.h</text>
</a>
</g>
</g>
<!-- Node41&#45;&gt;Node42 -->
<g id="edge122" class="edge"><title>Node41&#45;&gt;Node42</title>
<path fill="none" stroke="midnightblue" d="M2155,-817.083C2155,-810.006 2155,-799.861 2155,-790.986"/>
<polygon fill="midnightblue" stroke="midnightblue" points="2158.5,-790.751 2155,-780.751 2151.5,-790.751 2158.5,-790.751"/>
</g>
<!-- Node42&#45;&gt;Node9 -->
<g id="edge131" class="edge"><title>Node42&#45;&gt;Node9</title>
<path fill="none" stroke="midnightblue" d="M2194.81,-769.633C2229.2,-766.984 2277.29,-757.225 2303,-725 2384.84,-622.424 2324,-561.721 2324,-430.5 2324,-430.5 2324,-430.5 2324,-305.5 2324,-121.87 2027.15,-82.8792 1912.47,-74.6677"/>
<polygon fill="midnightblue" stroke="midnightblue" points="1912.49,-71.1611 1902.27,-73.9851 1912.02,-78.1455 1912.49,-71.1611"/>
</g>
<!-- Node42&#45;&gt;Node10 -->
<g id="edge132" class="edge"><title>Node42&#45;&gt;Node10</title>
<path fill="none" stroke="midnightblue" d="M2194.55,-768.674C2244.04,-765.692 2330.38,-756.052 2397,-725 2438.21,-705.791 2476,-705.468 2476,-660 2476,-660 2476,-660 2476,-367 2476,-283.142 2538.87,-248.54 2492,-179 2439.52,-101.125 2319.36,-80.1746 2261.42,-74.5529"/>
<polygon fill="midnightblue" stroke="midnightblue" points="2261.62,-71.0574 2251.35,-73.6714 2261.01,-78.0307 2261.62,-71.0574"/>
</g>
<!-- Node42&#45;&gt;Node11 -->
<g id="edge133" class="edge"><title>Node42&#45;&gt;Node11</title>
<path fill="none" stroke="midnightblue" d="M2150.53,-761.468C2143.51,-748.512 2129.06,-723.437 2113,-705 2035.17,-615.66 2001.73,-606.816 1906,-537 1765.15,-434.283 1724.86,-405.019 1557,-358 1422.16,-320.231 1367.32,-388.342 1244,-322 1170.93,-282.692 1185.42,-234.78 1124,-179 1081.76,-140.641 1024.97,-105.026 993.166,-86.2823"/>
<polygon fill="midnightblue" stroke="midnightblue" points="994.919,-83.2532 984.518,-81.2384 991.393,-89.2999 994.919,-83.2532"/>
</g>
<!-- Node42&#45;&gt;Node17 -->
<g id="edge127" class="edge"><title>Node42&#45;&gt;Node17</title>
<path fill="none" stroke="midnightblue" d="M2146.14,-761.297C2094.77,-711.456 1828.11,-460.861 1557,-358 1498.23,-335.703 1427.67,-322.531 1377.04,-315.262"/>
<polygon fill="midnightblue" stroke="midnightblue" points="1377.26,-311.758 1366.87,-313.842 1376.29,-318.691 1377.26,-311.758"/>
</g>
<!-- Node42&#45;&gt;Node21 -->
<g id="edge129" class="edge"><title>Node42&#45;&gt;Node21</title>
<path fill="none" stroke="midnightblue" d="M2115.34,-768.589C1957.78,-761.515 1364.33,-720.838 944,-501 908.387,-482.374 890.535,-481.163 873,-445 842.376,-381.843 862.808,-344.706 908,-291 948.424,-242.96 1017.78,-213.835 1058.81,-199.925"/>
<polygon fill="midnightblue" stroke="midnightblue" points="1059.95,-203.237 1068.35,-196.792 1057.76,-196.587 1059.95,-203.237"/>
</g>
<!-- Node42&#45;&gt;Node22 -->
<g id="edge128" class="edge"><title>Node42&#45;&gt;Node22</title>
<path fill="none" stroke="midnightblue" d="M2194.77,-766.781C2237.25,-762.103 2305.68,-750.942 2359,-725 2399.89,-705.109 2438,-705.468 2438,-660 2438,-660 2438,-660 2438,-305.5 2438,-271.362 2437.56,-231.551 2437.26,-208.709"/>
<polygon fill="midnightblue" stroke="midnightblue" points="2440.76,-208.645 2437.13,-198.693 2433.76,-208.739 2440.76,-208.645"/>
</g>
<!-- Node42&#45;&gt;Node27 -->
<g id="edge130" class="edge"><title>Node42&#45;&gt;Node27</title>
<path fill="none" stroke="midnightblue" d="M2194.51,-766.81C2238.37,-761.224 2301.25,-746.021 2287,-705 2202.27,-461.107 1894.89,-303.004 1798.87,-258.722"/>
<polygon fill="midnightblue" stroke="midnightblue" points="1800.29,-255.524 1789.74,-254.563 1797.39,-261.894 1800.29,-255.524"/>
</g>
<!-- Node42&#45;&gt;Node30 -->
<g id="edge125" class="edge"><title>Node42&#45;&gt;Node30</title>
<path fill="none" stroke="midnightblue" d="M2128.23,-761.461C2102.13,-752.932 2061.45,-739.093 2027,-725 1953.39,-694.885 1938.88,-678.448 1865,-649 1717.99,-590.401 1680.56,-575.246 1527,-537 1434.26,-513.903 1408.54,-520.604 1315,-501 1279.13,-493.482 1270.88,-488.463 1235,-481 1142.88,-461.84 1116.19,-463.923 1022.61,-445.667"/>
<polygon fill="midnightblue" stroke="midnightblue" points="1023.22,-442.22 1012.73,-443.713 1021.86,-449.087 1023.22,-442.22"/>
</g>
<!-- Node42&#45;&gt;Node34 -->
<g id="edge126" class="edge"><title>Node42&#45;&gt;Node34</title>
<path fill="none" stroke="midnightblue" d="M2146.35,-761.204C2118.64,-733.425 2028.81,-646.259 1941,-593 1830.43,-525.934 1687.19,-473.481 1610.37,-447.805"/>
<polygon fill="midnightblue" stroke="midnightblue" points="1611.03,-444.336 1600.44,-444.51 1608.83,-450.98 1611.03,-444.336"/>
</g>
<!-- Node42&#45;&gt;Node39 -->
<g id="edge124" class="edge"><title>Node42&#45;&gt;Node39</title>
<path fill="none" stroke="midnightblue" d="M2115.45,-764.674C2041.7,-754.743 1883.39,-733.425 1803,-722.599"/>
<polygon fill="midnightblue" stroke="midnightblue" points="1803.04,-719.072 1792.66,-721.206 1802.1,-726.01 1803.04,-719.072"/>
</g>
<!-- Node43 -->
<g id="node43" class="node"><title>Node43</title>
<polygon fill="white" stroke="#bfbfbf" points="2183.5,-705.5 2183.5,-724.5 2278.5,-724.5 2278.5,-705.5 2183.5,-705.5"/>
<text text-anchor="middle" x="2231" y="-712.5" font-family="Helvetica,sans-Serif" font-size="10.00">dmlc/common.h</text>
</g>
<!-- Node42&#45;&gt;Node43 -->
<g id="edge123" class="edge"><title>Node42&#45;&gt;Node43</title>
<path fill="none" stroke="midnightblue" d="M2167.21,-761.324C2178.78,-753.107 2196.38,-740.602 2210.16,-730.807"/>
<polygon fill="midnightblue" stroke="midnightblue" points="2212.44,-733.479 2218.57,-724.834 2208.39,-727.773 2212.44,-733.479"/>
</g>
<!-- Node44&#45;&gt;Node3 -->
<g id="edge137" class="edge"><title>Node44&#45;&gt;Node3</title>
<path fill="none" stroke="midnightblue" d="M1647.84,-766.114C1486.58,-748.45 817.141,-671.606 277,-557 144.606,-528.909 0,-565.841 0,-430.5 0,-430.5 0,-430.5 0,-305.5 0,-238.499 24.13,-212.767 82,-179 133.482,-148.961 299.207,-138.929 394.269,-135.612"/>
<polygon fill="midnightblue" stroke="midnightblue" points="394.492,-139.106 404.37,-135.275 394.259,-132.11 394.492,-139.106"/>
</g>
<!-- Node44&#45;&gt;Node10 -->
<g id="edge142" class="edge"><title>Node44&#45;&gt;Node10</title>
<path fill="none" stroke="midnightblue" d="M1720.49,-769.746C1866.4,-766.648 2400,-734.533 2400,-430.5 2400,-430.5 2400,-430.5 2400,-305.5 2400,-205.539 2296.44,-120.054 2250.51,-87.0501"/>
<polygon fill="midnightblue" stroke="midnightblue" points="2252.33,-84.0519 2242.13,-81.1604 2248.3,-89.777 2252.33,-84.0519"/>
</g>
<!-- Node44&#45;&gt;Node13 -->
<g id="edge138" class="edge"><title>Node44&#45;&gt;Node13</title>
<path fill="none" stroke="midnightblue" d="M1680.12,-761.47C1667.14,-733.748 1622.62,-644.999 1562,-593 1545.38,-578.746 1523.47,-567.854 1505.09,-560.359"/>
<polygon fill="midnightblue" stroke="midnightblue" points="1506.16,-557.02 1495.57,-556.647 1503.61,-563.541 1506.16,-557.02"/>
</g>
<!-- Node44&#45;&gt;Node32 -->
<g id="edge139" class="edge"><title>Node44&#45;&gt;Node32</title>
<path fill="none" stroke="midnightblue" d="M1720.3,-765.729C1771.94,-757.443 1864.62,-733.859 1903,-669 1963.74,-566.358 1836.86,-430.397 1789.15,-384.721"/>
<polygon fill="midnightblue" stroke="midnightblue" points="1791.4,-382.029 1781.72,-377.724 1786.6,-387.126 1791.4,-382.029"/>
</g>
<!-- Node44&#45;&gt;Node38 -->
<g id="edge141" class="edge"><title>Node44&#45;&gt;Node38</title>
<path fill="none" stroke="midnightblue" d="M1665.49,-761.39C1648.85,-753.213 1624.15,-739.969 1605,-725 1586.48,-710.526 1568.28,-690.565 1556.44,-676.594"/>
<polygon fill="midnightblue" stroke="midnightblue" points="1559.02,-674.229 1549.94,-668.772 1553.64,-678.702 1559.02,-674.229"/>
</g>
<!-- Node44&#45;&gt;Node39 -->
<g id="edge140" class="edge"><title>Node44&#45;&gt;Node39</title>
<path fill="none" stroke="midnightblue" d="M1695.25,-761.324C1705.8,-753.185 1721.8,-740.839 1734.44,-731.087"/>
<polygon fill="midnightblue" stroke="midnightblue" points="1736.77,-733.713 1742.55,-724.834 1732.49,-728.171 1736.77,-733.713"/>
</g>
</g>
</svg>
