<?xml version="1.0" encoding="UTF-8" standalone="no"?>
<!DOCTYPE svg PUBLIC "-//W3C//DTD SVG 1.1//EN"
 "http://www.w3.org/Graphics/SVG/1.1/DTD/svg11.dtd">
<!-- Generated by graphviz version 2.38.0 (20140413.2041)
 -->
<!-- Title: include/tvm/relay/attrs/nn.h Pages: 1 -->
<svg width="2616pt" height="901pt"
 viewBox="0.00 0.00 2616.00 901.00" xmlns="http://www.w3.org/2000/svg" xmlns:xlink="http://www.w3.org/1999/xlink">
<g id="graph0" class="graph" transform="scale(1 1) rotate(0) translate(4 897)">
<title>include/tvm/relay/attrs/nn.h</title>
<polygon fill="white" stroke="none" points="-4,4 -4,-897 2612,-897 2612,4 -4,4"/>
<!-- Node1 -->
<g id="node1" class="node"><title>Node1</title>
<polygon fill="#bfbfbf" stroke="black" points="344,-873.5 344,-892.5 492,-892.5 492,-873.5 344,-873.5"/>
<text text-anchor="middle" x="418" y="-880.5" font-family="Helvetica,sans-Serif" font-size="10.00">include/tvm/relay/attrs/nn.h</text>
</g>
<!-- Node2 -->
<g id="node2" class="node"><title>Node2</title>
<g id="a_node2"><a xlink:href="ir_2attrs_8h.html" target="_top" xlink:title="Helpers for attribute objects. ">
<polygon fill="white" stroke="black" points="378.5,-761.5 378.5,-780.5 457.5,-780.5 457.5,-761.5 378.5,-761.5"/>
<text text-anchor="middle" x="418" y="-768.5" font-family="Helvetica,sans-Serif" font-size="10.00">tvm/ir/attrs.h</text>
</a>
</g>
</g>
<!-- Node1&#45;&gt;Node2 -->
<g id="edge1" class="edge"><title>Node1&#45;&gt;Node2</title>
<path fill="none" stroke="midnightblue" d="M418,-873.368C418,-855.617 418,-814.666 418,-790.597"/>
<polygon fill="midnightblue" stroke="midnightblue" points="421.5,-790.591 418,-780.591 414.5,-790.591 421.5,-790.591"/>
</g>
<!-- Node12 -->
<g id="node12" class="node"><title>Node12</title>
<polygon fill="white" stroke="#bfbfbf" points="282,-62 282,-81 326,-81 326,-62 282,-62"/>
<text text-anchor="middle" x="304" y="-69" font-family="Helvetica,sans-Serif" font-size="10.00">string</text>
</g>
<!-- Node1&#45;&gt;Node12 -->
<g id="edge146" class="edge"><title>Node1&#45;&gt;Node12</title>
<path fill="none" stroke="midnightblue" d="M343.752,-877.662C223.635,-868.587 0,-842.256 0,-772 0,-772 0,-772 0,-188 0,-151.822 18.3514,-142.223 49,-123 119.496,-78.7856 220.727,-72.0647 271.848,-71.7646"/>
<polygon fill="midnightblue" stroke="midnightblue" points="271.96,-75.2647 281.967,-71.7868 271.975,-68.2647 271.96,-75.2647"/>
</g>
<!-- Node42 -->
<g id="node42" class="node"><title>Node42</title>
<g id="a_node42"><a xlink:href="base_8h.html" target="_top" xlink:title="Base classes for the Relay IR. ">
<polygon fill="white" stroke="black" points="599.5,-817.5 599.5,-836.5 696.5,-836.5 696.5,-817.5 599.5,-817.5"/>
<text text-anchor="middle" x="648" y="-824.5" font-family="Helvetica,sans-Serif" font-size="10.00">tvm/relay/base.h</text>
</a>
</g>
</g>
<!-- Node1&#45;&gt;Node42 -->
<g id="edge128" class="edge"><title>Node1&#45;&gt;Node42</title>
<path fill="none" stroke="midnightblue" d="M454.444,-873.444C494.399,-864.063 558.587,-848.993 601.985,-838.804"/>
<polygon fill="midnightblue" stroke="midnightblue" points="602.791,-842.21 611.726,-836.516 601.191,-835.395 602.791,-842.21"/>
</g>
<!-- Node3 -->
<g id="node3" class="node"><title>Node3</title>
<polygon fill="white" stroke="#bfbfbf" points="104.5,-705.5 104.5,-724.5 199.5,-724.5 199.5,-705.5 104.5,-705.5"/>
<text text-anchor="middle" x="152" y="-712.5" font-family="Helvetica,sans-Serif" font-size="10.00">dmlc/common.h</text>
</g>
<!-- Node2&#45;&gt;Node3 -->
<g id="edge2" class="edge"><title>Node2&#45;&gt;Node3</title>
<path fill="none" stroke="midnightblue" d="M378.464,-761.974C332.062,-752.554 254.967,-736.903 203.817,-726.519"/>
<polygon fill="midnightblue" stroke="midnightblue" points="204.447,-723.076 193.95,-724.516 203.054,-729.936 204.447,-723.076"/>
</g>
<!-- Node4 -->
<g id="node4" class="node"><title>Node4</title>
<g id="a_node4"><a xlink:href="ir_2expr_8h.html" target="_top" xlink:title="Base expr nodes in TVM. ">
<polygon fill="white" stroke="black" points="1965.5,-705.5 1965.5,-724.5 2042.5,-724.5 2042.5,-705.5 1965.5,-705.5"/>
<text text-anchor="middle" x="2004" y="-712.5" font-family="Helvetica,sans-Serif" font-size="10.00">tvm/ir/expr.h</text>
</a>
</g>
</g>
<!-- Node2&#45;&gt;Node4 -->
<g id="edge3" class="edge"><title>Node2&#45;&gt;Node4</title>
<path fill="none" stroke="midnightblue" d="M457.6,-768.652C674.468,-761.268 1717.08,-725.769 1955.41,-717.654"/>
<polygon fill="midnightblue" stroke="midnightblue" points="1955.62,-721.149 1965.5,-717.311 1955.39,-714.153 1955.62,-721.149"/>
</g>
<!-- Node11 -->
<g id="node11" class="node"><title>Node11</title>
<polygon fill="white" stroke="#bfbfbf" points="2229,-62 2229,-81 2297,-81 2297,-62 2229,-62"/>
<text text-anchor="middle" x="2263" y="-69" font-family="Helvetica,sans-Serif" font-size="10.00">type_traits</text>
</g>
<!-- Node2&#45;&gt;Node11 -->
<g id="edge125" class="edge"><title>Node2&#45;&gt;Node11</title>
<path fill="none" stroke="midnightblue" d="M457.811,-769.53C692.382,-766.679 1889.46,-750.946 2051,-725 2136.66,-711.241 2165.03,-715.93 2238,-669 2448.07,-533.889 2608,-495.772 2608,-246 2608,-246 2608,-246 2608,-188 2608,-125.216 2399.95,-90.2919 2306.98,-77.819"/>
<polygon fill="midnightblue" stroke="midnightblue" points="2307.39,-74.3438 2297.02,-76.5107 2306.48,-81.2841 2307.39,-74.3438"/>
</g>
<!-- Node2&#45;&gt;Node12 -->
<g id="edge126" class="edge"><title>Node2&#45;&gt;Node12</title>
<path fill="none" stroke="midnightblue" d="M378.248,-769.688C301.47,-768.269 136.669,-760.992 95,-725 72.2225,-705.326 76,-690.098 76,-660 76,-660 76,-660 76,-188 76,-157.205 77.0498,-143.534 100,-123 148.23,-79.8482 227.56,-72.2501 271.74,-71.6534"/>
<polygon fill="midnightblue" stroke="midnightblue" points="271.921,-75.1531 281.914,-71.6325 271.907,-68.1531 271.921,-75.1531"/>
</g>
<!-- Node13 -->
<g id="node13" class="node"><title>Node13</title>
<polygon fill="white" stroke="#bfbfbf" points="941,-62 941,-81 983,-81 983,-62 941,-62"/>
<text text-anchor="middle" x="962" y="-69" font-family="Helvetica,sans-Serif" font-size="10.00">utility</text>
</g>
<!-- Node2&#45;&gt;Node13 -->
<g id="edge127" class="edge"><title>Node2&#45;&gt;Node13</title>
<path fill="none" stroke="midnightblue" d="M378.17,-764.892C322.456,-755.265 228,-728.798 228,-660 228,-660 228,-660 228,-244 228,-97.3289 790.773,-76.0232 930.762,-72.9923"/>
<polygon fill="midnightblue" stroke="midnightblue" points="930.897,-76.4904 940.824,-72.7908 930.756,-69.4918 930.897,-76.4904"/>
</g>
<!-- Node19 -->
<g id="node19" class="node"><title>Node19</title>
<g id="a_node19"><a xlink:href="packed__func_8h.html" target="_top" xlink:title="Type&#45;erased function used across TVM API. ">
<polygon fill="white" stroke="black" points="1201.5,-291.5 1201.5,-321.5 1314.5,-321.5 1314.5,-291.5 1201.5,-291.5"/>
<text text-anchor="start" x="1209.5" y="-309.5" font-family="Helvetica,sans-Serif" font-size="10.00">tvm/runtime/packed</text>
<text text-anchor="middle" x="1258" y="-298.5" font-family="Helvetica,sans-Serif" font-size="10.00">_func.h</text>
</a>
</g>
</g>
<!-- Node2&#45;&gt;Node19 -->
<g id="edge121" class="edge"><title>Node2&#45;&gt;Node19</title>
<path fill="none" stroke="midnightblue" d="M427.377,-761.315C490.309,-703.06 849.573,-371.081 878,-358 932.268,-333.029 1097.29,-318.246 1191.05,-311.642"/>
<polygon fill="midnightblue" stroke="midnightblue" points="1191.55,-315.116 1201.28,-310.934 1191.06,-308.133 1191.55,-315.116"/>
</g>
<!-- Node23 -->
<g id="node23" class="node"><title>Node23</title>
<polygon fill="white" stroke="#bfbfbf" points="810.5,-179.5 810.5,-198.5 857.5,-198.5 857.5,-179.5 810.5,-179.5"/>
<text text-anchor="middle" x="834" y="-186.5" font-family="Helvetica,sans-Serif" font-size="10.00">vector</text>
</g>
<!-- Node2&#45;&gt;Node23 -->
<g id="edge123" class="edge"><title>Node2&#45;&gt;Node23</title>
<path fill="none" stroke="midnightblue" d="M418,-761.442C418,-742.936 418,-697.812 418,-660 418,-660 418,-660 418,-490 418,-452.865 507.002,-310.436 632,-235 685.03,-202.996 758.24,-193.689 800.404,-191.024"/>
<polygon fill="midnightblue" stroke="midnightblue" points="800.628,-194.517 810.423,-190.479 800.248,-187.527 800.628,-194.517"/>
</g>
<!-- Node24 -->
<g id="node24" class="node"><title>Node24</title>
<polygon fill="white" stroke="#bfbfbf" points="370.5,-179.5 370.5,-198.5 463.5,-198.5 463.5,-179.5 370.5,-179.5"/>
<text text-anchor="middle" x="417" y="-186.5" font-family="Helvetica,sans-Serif" font-size="10.00">unordered_map</text>
</g>
<!-- Node2&#45;&gt;Node24 -->
<g id="edge122" class="edge"><title>Node2&#45;&gt;Node24</title>
<path fill="none" stroke="midnightblue" d="M397.355,-761.421C364.504,-746.231 304,-711.293 304,-660 304,-660 304,-660 304,-546 304,-410.414 379.385,-258.819 407.01,-207.819"/>
<polygon fill="midnightblue" stroke="midnightblue" points="410.246,-209.198 411.999,-198.749 404.112,-205.824 410.246,-209.198"/>
</g>
<!-- Node29 -->
<g id="node29" class="node"><title>Node29</title>
<polygon fill="white" stroke="#bfbfbf" points="826.5,-235.5 826.5,-254.5 889.5,-254.5 889.5,-235.5 826.5,-235.5"/>
<text text-anchor="middle" x="858" y="-242.5" font-family="Helvetica,sans-Serif" font-size="10.00">functional</text>
</g>
<!-- Node2&#45;&gt;Node29 -->
<g id="edge124" class="edge"><title>Node2&#45;&gt;Node29</title>
<path fill="none" stroke="midnightblue" d="M423.708,-761.402C432.169,-748.784 448.692,-724.619 464,-705 604.087,-525.468 789.532,-320.766 842.993,-262.335"/>
<polygon fill="midnightblue" stroke="midnightblue" points="845.727,-264.533 849.902,-254.796 840.566,-259.804 845.727,-264.533"/>
</g>
<!-- Node32 -->
<g id="node32" class="node"><title>Node32</title>
<g id="a_node32"><a xlink:href="structural__equal_8h.html" target="_top" xlink:title="Structural equality comparison. ">
<polygon fill="white" stroke="black" points="1334.5,-414.5 1334.5,-444.5 1445.5,-444.5 1445.5,-414.5 1334.5,-414.5"/>
<text text-anchor="start" x="1342.5" y="-432.5" font-family="Helvetica,sans-Serif" font-size="10.00">tvm/node/structural</text>
<text text-anchor="middle" x="1390" y="-421.5" font-family="Helvetica,sans-Serif" font-size="10.00">_equal.h</text>
</a>
</g>
</g>
<!-- Node2&#45;&gt;Node32 -->
<g id="edge119" class="edge"><title>Node2&#45;&gt;Node32</title>
<path fill="none" stroke="midnightblue" d="M451.542,-761.488C484.278,-752.978 535.383,-739.154 579,-725 671.426,-695.007 692.738,-682.369 784,-649 990.816,-573.38 1237.98,-484.826 1341.09,-447.969"/>
<polygon fill="midnightblue" stroke="midnightblue" points="1342.37,-451.227 1350.61,-444.566 1340.01,-444.636 1342.37,-451.227"/>
</g>
<!-- Node36 -->
<g id="node36" class="node"><title>Node36</title>
<g id="a_node36"><a xlink:href="structural__hash_8h.html" target="_top" xlink:title="tvm/node/structural\l_hash.h">
<polygon fill="white" stroke="black" points="1177.5,-414.5 1177.5,-444.5 1288.5,-444.5 1288.5,-414.5 1177.5,-414.5"/>
<text text-anchor="start" x="1185.5" y="-432.5" font-family="Helvetica,sans-Serif" font-size="10.00">tvm/node/structural</text>
<text text-anchor="middle" x="1233" y="-421.5" font-family="Helvetica,sans-Serif" font-size="10.00">_hash.h</text>
</a>
</g>
</g>
<!-- Node2&#45;&gt;Node36 -->
<g id="edge120" class="edge"><title>Node2&#45;&gt;Node36</title>
<path fill="none" stroke="midnightblue" d="M452.735,-761.448C479.722,-753.997 517.553,-741.75 548,-725 665.494,-660.361 667.149,-602.796 784,-537 846.733,-501.676 866.438,-499.558 936,-481 1014.23,-460.131 1106.44,-446.036 1167.13,-438.153"/>
<polygon fill="midnightblue" stroke="midnightblue" points="1167.86,-441.588 1177.33,-436.847 1166.97,-434.644 1167.86,-441.588"/>
</g>
<!-- Node5 -->
<g id="node5" class="node"><title>Node5</title>
<g id="a_node5"><a xlink:href="object_8h.html" target="_top" xlink:title="A managed object in the TVM runtime. ">
<polygon fill="white" stroke="black" points="1583.5,-123.5 1583.5,-142.5 1700.5,-142.5 1700.5,-123.5 1583.5,-123.5"/>
<text text-anchor="middle" x="1642" y="-130.5" font-family="Helvetica,sans-Serif" font-size="10.00">tvm/runtime/object.h</text>
</a>
</g>
</g>
<!-- Node4&#45;&gt;Node5 -->
<g id="edge4" class="edge"><title>Node4&#45;&gt;Node5</title>
<path fill="none" stroke="midnightblue" d="M2015.76,-705.292C2060.9,-670.739 2218.4,-539.089 2176,-414 2133.76,-289.401 2110.05,-244.576 1996,-179 1948.81,-151.868 1799.6,-140.781 1710.67,-136.496"/>
<polygon fill="midnightblue" stroke="midnightblue" points="1710.82,-132.999 1700.67,-136.03 1710.49,-139.991 1710.82,-132.999"/>
</g>
<!-- Node4&#45;&gt;Node11 -->
<g id="edge118" class="edge"><title>Node4&#45;&gt;Node11</title>
<path fill="none" stroke="midnightblue" d="M2029.56,-705.398C2053.57,-697.031 2090.3,-683.491 2121,-669 2126.71,-666.303 2215.06,-616.941 2220,-613 2324.39,-529.711 2450.92,-431.747 2513,-255 2547.41,-157.028 2387.43,-102.978 2306.92,-82.3639"/>
<polygon fill="midnightblue" stroke="midnightblue" points="2307.6,-78.9255 2297.05,-79.9016 2305.9,-85.7175 2307.6,-78.9255"/>
</g>
<!-- Node4&#45;&gt;Node12 -->
<g id="edge115" class="edge"><title>Node4&#45;&gt;Node12</title>
<path fill="none" stroke="midnightblue" d="M1965.47,-714.147C1803.22,-714.483 1175.23,-712.865 983,-669 696,-603.508 586.08,-595.766 388,-378 312.85,-295.382 305.94,-254.468 299,-143 297.905,-125.413 299.612,-105.372 301.322,-91.1644"/>
<polygon fill="midnightblue" stroke="midnightblue" points="304.801,-91.5517 302.64,-81.1796 297.861,-90.6353 304.801,-91.5517"/>
</g>
<!-- Node15 -->
<g id="node15" class="node"><title>Node15</title>
<g id="a_node15"><a xlink:href="node_8h.html" target="_top" xlink:title="Definitions and helper macros for IR/AST nodes. ">
<polygon fill="white" stroke="black" points="1791,-537.5 1791,-556.5 1889,-556.5 1889,-537.5 1791,-537.5"/>
<text text-anchor="middle" x="1840" y="-544.5" font-family="Helvetica,sans-Serif" font-size="10.00">tvm/node/node.h</text>
</a>
</g>
</g>
<!-- Node4&#45;&gt;Node15 -->
<g id="edge14" class="edge"><title>Node4&#45;&gt;Node15</title>
<path fill="none" stroke="midnightblue" d="M1995.18,-705.075C1968.7,-678.267 1889.59,-598.19 1855.69,-563.885"/>
<polygon fill="midnightblue" stroke="midnightblue" points="1857.98,-561.222 1848.46,-556.568 1853,-566.142 1857.98,-561.222"/>
</g>
<!-- Node31 -->
<g id="node31" class="node"><title>Node31</title>
<polygon fill="white" stroke="#bfbfbf" points="2462,-235.5 2462,-254.5 2504,-254.5 2504,-235.5 2462,-235.5"/>
<text text-anchor="middle" x="2483" y="-242.5" font-family="Helvetica,sans-Serif" font-size="10.00">limits</text>
</g>
<!-- Node4&#45;&gt;Node31 -->
<g id="edge117" class="edge"><title>Node4&#45;&gt;Node31</title>
<path fill="none" stroke="midnightblue" d="M2019.62,-705.496C2042.62,-692.994 2087.01,-668.972 2125,-649 2155.97,-632.722 2168.2,-635.492 2195,-613 2299.52,-525.269 2280.8,-464.589 2366,-358 2396.63,-319.687 2439.84,-281.586 2464.26,-261.196"/>
<polygon fill="midnightblue" stroke="midnightblue" points="2466.59,-263.817 2472.07,-254.751 2462.13,-258.42 2466.59,-263.817"/>
</g>
<!-- Node34 -->
<g id="node34" class="node"><title>Node34</title>
<g id="a_node34"><a xlink:href="node_2container_8h.html" target="_top" xlink:title="Array/Map container in the DSL graph. ">
<polygon fill="white" stroke="black" points="887.5,-358.5 887.5,-377.5 1006.5,-377.5 1006.5,-358.5 887.5,-358.5"/>
<text text-anchor="middle" x="947" y="-365.5" font-family="Helvetica,sans-Serif" font-size="10.00">tvm/node/container.h</text>
</a>
</g>
</g>
<!-- Node4&#45;&gt;Node34 -->
<g id="edge103" class="edge"><title>Node4&#45;&gt;Node34</title>
<path fill="none" stroke="midnightblue" d="M1965.46,-714.247C1771.55,-714.992 912,-712.193 912,-604 912,-604 912,-604 912,-490 912,-452.072 928.065,-409.998 938.427,-386.804"/>
<polygon fill="midnightblue" stroke="midnightblue" points="941.682,-388.103 942.708,-377.558 935.33,-385.162 941.682,-388.103"/>
</g>
<!-- Node39 -->
<g id="node39" class="node"><title>Node39</title>
<g id="a_node39"><a xlink:href="span_8h.html" target="_top" xlink:title="Span information for debugging purposes. ">
<polygon fill="white" stroke="black" points="1655,-593.5 1655,-612.5 1735,-612.5 1735,-593.5 1655,-593.5"/>
<text text-anchor="middle" x="1695" y="-600.5" font-family="Helvetica,sans-Serif" font-size="10.00">tvm/ir/span.h</text>
</a>
</g>
</g>
<!-- Node4&#45;&gt;Node39 -->
<g id="edge104" class="edge"><title>Node4&#45;&gt;Node39</title>
<path fill="none" stroke="midnightblue" d="M1965.15,-710.239C1921.59,-705.014 1849.53,-693.309 1792,-669 1762.02,-656.331 1731.48,-633.983 1712.89,-619.082"/>
<polygon fill="midnightblue" stroke="midnightblue" points="1714.96,-616.252 1705,-612.63 1710.53,-621.671 1714.96,-616.252"/>
</g>
<!-- Node40 -->
<g id="node40" class="node"><title>Node40</title>
<g id="a_node40"><a xlink:href="ir_2type_8h.html" target="_top" xlink:title="IR/AST nodes for the unified type system in TVM. ">
<polygon fill="white" stroke="black" points="1801.5,-649.5 1801.5,-668.5 1878.5,-668.5 1878.5,-649.5 1801.5,-649.5"/>
<text text-anchor="middle" x="1840" y="-656.5" font-family="Helvetica,sans-Serif" font-size="10.00">tvm/ir/type.h</text>
</a>
</g>
</g>
<!-- Node4&#45;&gt;Node40 -->
<g id="edge108" class="edge"><title>Node4&#45;&gt;Node40</title>
<path fill="none" stroke="midnightblue" d="M1978.01,-705.444C1950.3,-696.32 1906.25,-681.813 1875.38,-671.651"/>
<polygon fill="midnightblue" stroke="midnightblue" points="1876.46,-668.32 1865.86,-668.516 1874.27,-674.968 1876.46,-668.32"/>
</g>
<!-- Node41 -->
<g id="node41" class="node"><title>Node41</title>
<polygon fill="white" stroke="#bfbfbf" points="2167,-649.5 2167,-668.5 2229,-668.5 2229,-649.5 2167,-649.5"/>
<text text-anchor="middle" x="2198" y="-656.5" font-family="Helvetica,sans-Serif" font-size="10.00">algorithm</text>
</g>
<!-- Node4&#45;&gt;Node41 -->
<g id="edge116" class="edge"><title>Node4&#45;&gt;Node41</title>
<path fill="none" stroke="midnightblue" d="M2034.74,-705.444C2067.94,-696.201 2120.99,-681.436 2157.56,-671.257"/>
<polygon fill="midnightblue" stroke="midnightblue" points="2158.71,-674.57 2167.4,-668.516 2156.83,-667.826 2158.71,-674.57"/>
</g>
<!-- Node6 -->
<g id="node6" class="node"><title>Node6</title>
<polygon fill="white" stroke="#bfbfbf" points="1612,-62 1612,-81 1698,-81 1698,-62 1612,-62"/>
<text text-anchor="middle" x="1655" y="-69" font-family="Helvetica,sans-Serif" font-size="10.00">dmlc/logging.h</text>
</g>
<!-- Node5&#45;&gt;Node6 -->
<g id="edge5" class="edge"><title>Node5&#45;&gt;Node6</title>
<path fill="none" stroke="midnightblue" d="M1643.86,-123.475C1645.72,-114.992 1648.62,-101.704 1651,-90.8222"/>
<polygon fill="midnightblue" stroke="midnightblue" points="1654.43,-91.5257 1653.14,-81.0091 1647.59,-90.0315 1654.43,-91.5257"/>
</g>
<!-- Node7 -->
<g id="node7" class="node"><title>Node7</title>
<g id="a_node7"><a xlink:href="c__runtime__api_8h.html" target="_top" xlink:title="tvm/runtime/c_runtime\l_api.h">
<polygon fill="white" stroke="black" points="1730.5,-56.5 1730.5,-86.5 1857.5,-86.5 1857.5,-56.5 1730.5,-56.5"/>
<text text-anchor="start" x="1738.5" y="-74.5" font-family="Helvetica,sans-Serif" font-size="10.00">tvm/runtime/c_runtime</text>
<text text-anchor="middle" x="1794" y="-63.5" font-family="Helvetica,sans-Serif" font-size="10.00">_api.h</text>
</a>
</g>
</g>
<!-- Node5&#45;&gt;Node7 -->
<g id="edge6" class="edge"><title>Node5&#45;&gt;Node7</title>
<path fill="none" stroke="midnightblue" d="M1663.78,-123.475C1685.81,-114.852 1720.52,-101.264 1748.57,-90.2852"/>
<polygon fill="midnightblue" stroke="midnightblue" points="1750.14,-93.4274 1758.18,-86.523 1747.59,-86.909 1750.14,-93.4274"/>
</g>
<!-- Node5&#45;&gt;Node11 -->
<g id="edge10" class="edge"><title>Node5&#45;&gt;Node11</title>
<path fill="none" stroke="midnightblue" d="M1700.7,-126.376C1824.3,-114.533 2109.01,-87.2541 2218.75,-76.7398"/>
<polygon fill="midnightblue" stroke="midnightblue" points="2219.19,-80.2136 2228.81,-75.7757 2218.52,-73.2455 2219.19,-80.2136"/>
</g>
<!-- Node5&#45;&gt;Node12 -->
<g id="edge11" class="edge"><title>Node5&#45;&gt;Node12</title>
<path fill="none" stroke="midnightblue" d="M1583.22,-129.386C1352.51,-119.126 512.998,-81.794 336.643,-73.9516"/>
<polygon fill="midnightblue" stroke="midnightblue" points="336.595,-70.4461 326.449,-73.4983 336.284,-77.4392 336.595,-70.4461"/>
</g>
<!-- Node5&#45;&gt;Node13 -->
<g id="edge12" class="edge"><title>Node5&#45;&gt;Node13</title>
<path fill="none" stroke="midnightblue" d="M1583.44,-126.876C1444.52,-114.721 1098.83,-84.4729 993.173,-75.2276"/>
<polygon fill="midnightblue" stroke="midnightblue" points="993.421,-71.7361 983.154,-74.351 992.811,-78.7094 993.421,-71.7361"/>
</g>
<!-- Node14 -->
<g id="node14" class="node"><title>Node14</title>
<polygon fill="white" stroke="#bfbfbf" points="1409,-62 1409,-81 1459,-81 1459,-62 1409,-62"/>
<text text-anchor="middle" x="1434" y="-69" font-family="Helvetica,sans-Serif" font-size="10.00">atomic</text>
</g>
<!-- Node5&#45;&gt;Node14 -->
<g id="edge13" class="edge"><title>Node5&#45;&gt;Node14</title>
<path fill="none" stroke="midnightblue" d="M1612.2,-123.475C1574.3,-112.633 1508.96,-93.9435 1468.81,-82.4578"/>
<polygon fill="midnightblue" stroke="midnightblue" points="1469.75,-79.0874 1459.18,-79.7021 1467.83,-85.8174 1469.75,-79.0874"/>
</g>
<!-- Node8 -->
<g id="node8" class="node"><title>Node8</title>
<polygon fill="white" stroke="#bfbfbf" points="1659,-0.5 1659,-19.5 1749,-19.5 1749,-0.5 1659,-0.5"/>
<text text-anchor="middle" x="1704" y="-7.5" font-family="Helvetica,sans-Serif" font-size="10.00">dlpack/dlpack.h</text>
</g>
<!-- Node7&#45;&gt;Node8 -->
<g id="edge7" class="edge"><title>Node7&#45;&gt;Node8</title>
<path fill="none" stroke="midnightblue" d="M1772.67,-56.3993C1758.51,-47.0402 1739.99,-34.7924 1725.75,-25.3771"/>
<polygon fill="midnightblue" stroke="midnightblue" points="1727.37,-22.2531 1717.1,-19.6578 1723.51,-28.0923 1727.37,-22.2531"/>
</g>
<!-- Node9 -->
<g id="node9" class="node"><title>Node9</title>
<polygon fill="white" stroke="#bfbfbf" points="1767.5,-0.5 1767.5,-19.5 1820.5,-19.5 1820.5,-0.5 1767.5,-0.5"/>
<text text-anchor="middle" x="1794" y="-7.5" font-family="Helvetica,sans-Serif" font-size="10.00">stdint.h</text>
</g>
<!-- Node7&#45;&gt;Node9 -->
<g id="edge8" class="edge"><title>Node7&#45;&gt;Node9</title>
<path fill="none" stroke="midnightblue" d="M1794,-56.3993C1794,-48.4664 1794,-38.458 1794,-29.8583"/>
<polygon fill="midnightblue" stroke="midnightblue" points="1797.5,-29.6577 1794,-19.6578 1790.5,-29.6578 1797.5,-29.6577"/>
</g>
<!-- Node10 -->
<g id="node10" class="node"><title>Node10</title>
<polygon fill="white" stroke="#bfbfbf" points="1838.5,-0.5 1838.5,-19.5 1893.5,-19.5 1893.5,-0.5 1838.5,-0.5"/>
<text text-anchor="middle" x="1866" y="-7.5" font-family="Helvetica,sans-Serif" font-size="10.00">stddef.h</text>
</g>
<!-- Node7&#45;&gt;Node10 -->
<g id="edge9" class="edge"><title>Node7&#45;&gt;Node10</title>
<path fill="none" stroke="midnightblue" d="M1811.06,-56.3993C1822.06,-47.3076 1836.37,-35.4899 1847.62,-26.1909"/>
<polygon fill="midnightblue" stroke="midnightblue" points="1850.04,-28.726 1855.52,-19.6578 1845.59,-23.33 1850.04,-28.726"/>
</g>
<!-- Node15&#45;&gt;Node5 -->
<g id="edge16" class="edge"><title>Node15&#45;&gt;Node5</title>
<path fill="none" stroke="midnightblue" d="M1838.3,-537.308C1830.59,-499.323 1796.55,-344.904 1732,-235 1721.2,-216.613 1680.44,-173.492 1657.65,-149.978"/>
<polygon fill="midnightblue" stroke="midnightblue" points="1659.91,-147.275 1650.42,-142.552 1654.89,-152.158 1659.91,-147.275"/>
</g>
<!-- Node15&#45;&gt;Node7 -->
<g id="edge15" class="edge"><title>Node15&#45;&gt;Node7</title>
<path fill="none" stroke="midnightblue" d="M1855.93,-537.416C1935.83,-494.235 2290.21,-301.039 2321,-255 2339.97,-226.631 2345.6,-210.302 2332,-179 2317.46,-145.545 2305.19,-138.143 2272,-123 2201.81,-90.9699 1983.61,-78.8634 1867.86,-74.6098"/>
<polygon fill="midnightblue" stroke="midnightblue" points="1867.78,-71.1049 1857.66,-74.2458 1867.53,-78.1005 1867.78,-71.1049"/>
</g>
<!-- Node15&#45;&gt;Node11 -->
<g id="edge102" class="edge"><title>Node15&#45;&gt;Node11</title>
<path fill="none" stroke="midnightblue" d="M1889.27,-543.852C1969.49,-539.609 2124.12,-528.101 2171,-501 2242.77,-459.512 2369.66,-279.367 2390,-199 2398.29,-166.252 2410,-150.928 2391,-123 2372.31,-95.5276 2336.14,-83.0004 2307,-77.2881"/>
<polygon fill="midnightblue" stroke="midnightblue" points="2307.48,-73.8194 2297.03,-75.5384 2306.27,-80.714 2307.48,-73.8194"/>
</g>
<!-- Node15&#45;&gt;Node12 -->
<g id="edge99" class="edge"><title>Node15&#45;&gt;Node12</title>
<path fill="none" stroke="midnightblue" d="M1790.86,-544.78C1639.44,-540.781 1181.46,-526.821 1035,-501 763.88,-453.203 669.898,-476.445 442,-322 362.093,-267.848 348.884,-234.785 319,-143 313.437,-125.912 309.395,-105.81 306.918,-91.4533"/>
<polygon fill="midnightblue" stroke="midnightblue" points="310.332,-90.6444 305.268,-81.3382 303.424,-91.7713 310.332,-90.6444"/>
</g>
<!-- Node15&#45;&gt;Node13 -->
<g id="edge101" class="edge"><title>Node15&#45;&gt;Node13</title>
<path fill="none" stroke="midnightblue" d="M1790.82,-545.033C1682.01,-542.362 1412.84,-532.82 1190,-501 1074.27,-484.475 1039.74,-492.677 933,-445 801.337,-386.189 735.639,-383.396 670,-255 643.295,-202.764 632.216,-167.879 670,-123 703.103,-83.6809 862.417,-74.9753 930.757,-73.048"/>
<polygon fill="midnightblue" stroke="midnightblue" points="931.002,-76.543 940.911,-72.7932 930.827,-69.5452 931.002,-76.543"/>
</g>
<!-- Node16 -->
<g id="node16" class="node"><title>Node16</title>
<g id="a_node16"><a xlink:href="runtime_2memory_8h.html" target="_top" xlink:title="Runtime memory management. ">
<polygon fill="white" stroke="black" points="1860.5,-179.5 1860.5,-198.5 1987.5,-198.5 1987.5,-179.5 1860.5,-179.5"/>
<text text-anchor="middle" x="1924" y="-186.5" font-family="Helvetica,sans-Serif" font-size="10.00">tvm/runtime/memory.h</text>
</a>
</g>
</g>
<!-- Node15&#45;&gt;Node16 -->
<g id="edge17" class="edge"><title>Node15&#45;&gt;Node16</title>
<path fill="none" stroke="midnightblue" d="M1844.81,-537.313C1863.58,-502.9 1931.84,-372.296 1954,-255 1955.65,-246.266 1956.58,-243.507 1954,-235 1950.88,-224.705 1944.55,-214.612 1938.5,-206.602"/>
<polygon fill="midnightblue" stroke="midnightblue" points="1941.22,-204.399 1932.21,-198.818 1935.77,-208.797 1941.22,-204.399"/>
</g>
<!-- Node18 -->
<g id="node18" class="node"><title>Node18</title>
<g id="a_node18"><a xlink:href="reflection_8h.html" target="_top" xlink:title="Reflection and serialization of compiler IR/AST nodes. ">
<polygon fill="white" stroke="black" points="1547.5,-481.5 1547.5,-500.5 1666.5,-500.5 1666.5,-481.5 1547.5,-481.5"/>
<text text-anchor="middle" x="1607" y="-488.5" font-family="Helvetica,sans-Serif" font-size="10.00">tvm/node/reflection.h</text>
</a>
</g>
</g>
<!-- Node15&#45;&gt;Node18 -->
<g id="edge22" class="edge"><title>Node15&#45;&gt;Node18</title>
<path fill="none" stroke="midnightblue" d="M1803.08,-537.444C1762.6,-528.063 1697.58,-512.993 1653.62,-502.804"/>
<polygon fill="midnightblue" stroke="midnightblue" points="1654.28,-499.365 1643.75,-500.516 1652.7,-506.184 1654.28,-499.365"/>
</g>
<!-- Node15&#45;&gt;Node23 -->
<g id="edge100" class="edge"><title>Node15&#45;&gt;Node23</title>
<path fill="none" stroke="midnightblue" d="M1790.73,-544.606C1694.62,-541.3 1475.6,-530.881 1294,-501 1192.32,-484.269 1167.73,-474.532 1069,-445 982.813,-419.219 947.072,-435.636 878,-378 829.705,-337.701 824.091,-315.806 808,-255 803.546,-238.171 812.216,-219.825 820.718,-206.929"/>
<polygon fill="midnightblue" stroke="midnightblue" points="823.706,-208.767 826.688,-198.601 818.017,-204.689 823.706,-208.767"/>
</g>
<!-- Node15&#45;&gt;Node32 -->
<g id="edge97" class="edge"><title>Node15&#45;&gt;Node32</title>
<path fill="none" stroke="midnightblue" d="M1791,-538.887C1707.03,-526.673 1544.01,-502.835 1538,-501 1496.49,-488.33 1451.92,-465.738 1422.66,-449.541"/>
<polygon fill="midnightblue" stroke="midnightblue" points="1424.16,-446.368 1413.72,-444.528 1420.73,-452.473 1424.16,-446.368"/>
</g>
<!-- Node15&#45;&gt;Node34 -->
<g id="edge96" class="edge"><title>Node15&#45;&gt;Node34</title>
<path fill="none" stroke="midnightblue" d="M1790.85,-538.749C1786.17,-538.128 1781.5,-537.534 1777,-537 1608.54,-516.999 1564.28,-529.223 1397,-501 1293.68,-483.569 1268.53,-474.512 1168,-445 1100.06,-425.057 1022.05,-396.987 979.272,-381.138"/>
<polygon fill="midnightblue" stroke="midnightblue" points="980.278,-377.778 969.686,-377.572 977.838,-384.339 980.278,-377.778"/>
</g>
<!-- Node15&#45;&gt;Node36 -->
<g id="edge98" class="edge"><title>Node15&#45;&gt;Node36</title>
<path fill="none" stroke="midnightblue" d="M1790.83,-538.881C1786.16,-538.233 1781.49,-537.597 1777,-537 1646.94,-519.722 1612.64,-526.813 1484,-501 1414.31,-487.016 1335.68,-463.661 1285.29,-447.693"/>
<polygon fill="midnightblue" stroke="midnightblue" points="1286.19,-444.307 1275.6,-444.603 1284.06,-450.976 1286.19,-444.307"/>
</g>
<!-- Node37 -->
<g id="node37" class="node"><title>Node37</title>
<g id="a_node37"><a xlink:href="repr__printer_8h.html" target="_top" xlink:title="Printer class to print repr string of each AST/IR nodes. ">
<polygon fill="white" stroke="black" points="2032,-481.5 2032,-500.5 2162,-500.5 2162,-481.5 2032,-481.5"/>
<text text-anchor="middle" x="2097" y="-488.5" font-family="Helvetica,sans-Serif" font-size="10.00">tvm/node/repr_printer.h</text>
</a>
</g>
</g>
<!-- Node15&#45;&gt;Node37 -->
<g id="edge93" class="edge"><title>Node15&#45;&gt;Node37</title>
<path fill="none" stroke="midnightblue" d="M1880.72,-537.444C1925.65,-528.004 1998,-512.802 2046.5,-502.611"/>
<polygon fill="midnightblue" stroke="midnightblue" points="2047.4,-505.998 2056.47,-500.516 2045.96,-499.148 2047.4,-505.998"/>
</g>
<!-- Node16&#45;&gt;Node5 -->
<g id="edge18" class="edge"><title>Node16&#45;&gt;Node5</title>
<path fill="none" stroke="midnightblue" d="M1879.32,-179.444C1829.71,-169.944 1749.64,-154.611 1696.41,-144.42"/>
<polygon fill="midnightblue" stroke="midnightblue" points="1696.95,-140.96 1686.47,-142.516 1695.64,-147.835 1696.95,-140.96"/>
</g>
<!-- Node16&#45;&gt;Node11 -->
<g id="edge21" class="edge"><title>Node16&#45;&gt;Node11</title>
<path fill="none" stroke="midnightblue" d="M1936.62,-179.308C1957.31,-165.439 2000.13,-138.313 2040,-123 2099.94,-99.9754 2173.17,-85.8848 2218.96,-78.6311"/>
<polygon fill="midnightblue" stroke="midnightblue" points="2219.52,-82.0874 2228.86,-77.1017 2218.45,-75.1694 2219.52,-82.0874"/>
</g>
<!-- Node16&#45;&gt;Node13 -->
<g id="edge20" class="edge"><title>Node16&#45;&gt;Node13</title>
<path fill="none" stroke="midnightblue" d="M1916.94,-179.253C1904.44,-164.518 1876.83,-135.166 1846,-123 1805.55,-107.035 1145.73,-79.8294 993.264,-73.7353"/>
<polygon fill="midnightblue" stroke="midnightblue" points="993.31,-70.2345 983.179,-73.3335 993.032,-77.229 993.31,-70.2345"/>
</g>
<!-- Node17 -->
<g id="node17" class="node"><title>Node17</title>
<polygon fill="white" stroke="#bfbfbf" points="1900.5,-123.5 1900.5,-142.5 1947.5,-142.5 1947.5,-123.5 1900.5,-123.5"/>
<text text-anchor="middle" x="1924" y="-130.5" font-family="Helvetica,sans-Serif" font-size="10.00">cstdlib</text>
</g>
<!-- Node16&#45;&gt;Node17 -->
<g id="edge19" class="edge"><title>Node16&#45;&gt;Node17</title>
<path fill="none" stroke="midnightblue" d="M1924,-179.083C1924,-172.006 1924,-161.861 1924,-152.986"/>
<polygon fill="midnightblue" stroke="midnightblue" points="1927.5,-152.751 1924,-142.751 1920.5,-152.751 1927.5,-152.751"/>
</g>
<!-- Node18&#45;&gt;Node5 -->
<g id="edge24" class="edge"><title>Node18&#45;&gt;Node5</title>
<path fill="none" stroke="midnightblue" d="M1606.85,-481.249C1606.35,-444.246 1605.96,-297.098 1628,-179 1629.67,-170.052 1632.53,-160.383 1635.24,-152.309"/>
<polygon fill="midnightblue" stroke="midnightblue" points="1638.56,-153.404 1638.58,-142.809 1631.96,-151.077 1638.56,-153.404"/>
</g>
<!-- Node18&#45;&gt;Node7 -->
<g id="edge23" class="edge"><title>Node18&#45;&gt;Node7</title>
<path fill="none" stroke="midnightblue" d="M1639.19,-481.471C1770.42,-446.384 2260.09,-312.344 2301,-255 2410.56,-101.427 2032.93,-76.5569 1867.66,-72.9188"/>
<polygon fill="midnightblue" stroke="midnightblue" points="1867.63,-69.4177 1857.56,-72.7172 1867.49,-76.4163 1867.63,-69.4177"/>
</g>
<!-- Node18&#45;&gt;Node11 -->
<g id="edge92" class="edge"><title>Node18&#45;&gt;Node11</title>
<path fill="none" stroke="midnightblue" d="M1664.39,-481.448C1775.89,-463.309 2027.71,-414.83 2220,-322 2298.26,-284.218 2340.63,-280.043 2372,-199 2384.19,-167.5 2390.18,-151.465 2372,-123 2357.66,-100.547 2330.49,-87.9273 2306.86,-80.9183"/>
<polygon fill="midnightblue" stroke="midnightblue" points="2307.57,-77.4838 2297,-78.2456 2305.74,-84.24 2307.57,-77.4838"/>
</g>
<!-- Node18&#45;&gt;Node12 -->
<g id="edge91" class="edge"><title>Node18&#45;&gt;Node12</title>
<path fill="none" stroke="midnightblue" d="M1547.4,-486.261C1462.67,-480.409 1302.72,-467.377 1168,-445 1037.5,-423.324 1001.56,-425.248 878,-378 658.572,-294.092 624.959,-228.386 415,-123 387.804,-109.349 356.156,-95.1081 333.629,-85.2425"/>
<polygon fill="midnightblue" stroke="midnightblue" points="334.837,-81.9511 324.271,-81.1663 332.041,-88.3686 334.837,-81.9511"/>
</g>
<!-- Node18&#45;&gt;Node16 -->
<g id="edge25" class="edge"><title>Node18&#45;&gt;Node16</title>
<path fill="none" stroke="midnightblue" d="M1616.29,-481.385C1632.13,-466.85 1665.62,-436.814 1696,-414 1798.91,-336.729 1876.89,-368.261 1938,-255 1945.95,-240.266 1940.4,-221.364 1934.09,-207.746"/>
<polygon fill="midnightblue" stroke="midnightblue" points="1937.03,-205.803 1929.33,-198.519 1930.81,-209.011 1937.03,-205.803"/>
</g>
<!-- Node18&#45;&gt;Node19 -->
<g id="edge26" class="edge"><title>Node18&#45;&gt;Node19</title>
<path fill="none" stroke="midnightblue" d="M1600.46,-481.477C1579.92,-454.929 1516.41,-374.516 1488,-358 1438.01,-328.936 1373.05,-316.573 1324.92,-311.327"/>
<polygon fill="midnightblue" stroke="midnightblue" points="1325.22,-307.84 1314.92,-310.313 1324.52,-314.804 1325.22,-307.84"/>
</g>
<!-- Node18&#45;&gt;Node23 -->
<g id="edge90" class="edge"><title>Node18&#45;&gt;Node23</title>
<path fill="none" stroke="midnightblue" d="M1591.26,-481.273C1563.89,-466.31 1505.53,-435.313 1454,-414 1295.03,-348.246 1250.78,-343.633 1087,-291 1035.2,-274.354 1020.29,-275.759 970,-255 952.359,-247.718 949.123,-243.43 932,-235 909.009,-223.682 882.588,-211.602 862.977,-202.811"/>
<polygon fill="midnightblue" stroke="midnightblue" points="864.228,-199.537 853.67,-198.657 861.375,-205.929 864.228,-199.537"/>
</g>
<!-- Node25 -->
<g id="node25" class="node"><title>Node25</title>
<g id="a_node25"><a xlink:href="ndarray_8h.html" target="_top" xlink:title="A device&#45;independent managed NDArray abstraction. ">
<polygon fill="white" stroke="black" points="1338.5,-235.5 1338.5,-254.5 1461.5,-254.5 1461.5,-235.5 1338.5,-235.5"/>
<text text-anchor="middle" x="1400" y="-242.5" font-family="Helvetica,sans-Serif" font-size="10.00">tvm/runtime/ndarray.h</text>
</a>
</g>
</g>
<!-- Node18&#45;&gt;Node25 -->
<g id="edge63" class="edge"><title>Node18&#45;&gt;Node25</title>
<path fill="none" stroke="midnightblue" d="M1604.37,-481.475C1599.61,-466.817 1588.58,-436.268 1573,-414 1527.43,-348.849 1454.27,-287.909 1419.53,-260.784"/>
<polygon fill="midnightblue" stroke="midnightblue" points="1421.62,-257.976 1411.56,-254.635 1417.34,-263.517 1421.62,-257.976"/>
</g>
<!-- Node28 -->
<g id="node28" class="node"><title>Node28</title>
<g id="a_node28"><a xlink:href="data__type_8h.html" target="_top" xlink:title="tvm/runtime/data_type.h">
<polygon fill="white" stroke="black" points="2156,-235.5 2156,-254.5 2292,-254.5 2292,-235.5 2156,-235.5"/>
<text text-anchor="middle" x="2224" y="-242.5" font-family="Helvetica,sans-Serif" font-size="10.00">tvm/runtime/data_type.h</text>
</a>
</g>
</g>
<!-- Node18&#45;&gt;Node28 -->
<g id="edge64" class="edge"><title>Node18&#45;&gt;Node28</title>
<path fill="none" stroke="midnightblue" d="M1623.74,-481.35C1652.82,-466.502 1714.77,-435.674 1769,-414 1889.07,-366.015 1924.06,-367.747 2045,-322 2099.12,-301.528 2161,-274.404 2196,-258.71"/>
<polygon fill="midnightblue" stroke="midnightblue" points="2197.45,-261.897 2205.13,-254.602 2194.57,-255.514 2197.45,-261.897"/>
</g>
<!-- Node18&#45;&gt;Node32 -->
<g id="edge65" class="edge"><title>Node18&#45;&gt;Node32</title>
<path fill="none" stroke="midnightblue" d="M1575.91,-481.475C1543.43,-472.569 1491.64,-458.369 1450.96,-447.215"/>
<polygon fill="midnightblue" stroke="midnightblue" points="1451.71,-443.792 1441.14,-444.523 1449.86,-450.543 1451.71,-443.792"/>
</g>
<!-- Node18&#45;&gt;Node36 -->
<g id="edge84" class="edge"><title>Node18&#45;&gt;Node36</title>
<path fill="none" stroke="midnightblue" d="M1553.41,-481.475C1486.19,-470.78 1370.96,-452.447 1298.54,-440.928"/>
<polygon fill="midnightblue" stroke="midnightblue" points="1299.05,-437.463 1288.62,-439.349 1297.95,-444.377 1299.05,-437.463"/>
</g>
<!-- Node19&#45;&gt;Node5 -->
<g id="edge54" class="edge"><title>Node19&#45;&gt;Node5</title>
<path fill="none" stroke="midnightblue" d="M1314.54,-299.084C1377.35,-291.069 1473.88,-275.829 1504,-255 1536.86,-232.278 1522.38,-205.807 1552,-179 1567.74,-164.758 1588.81,-153.898 1606.61,-146.418"/>
<polygon fill="midnightblue" stroke="midnightblue" points="1608.12,-149.581 1616.1,-142.611 1605.52,-143.084 1608.12,-149.581"/>
</g>
<!-- Node19&#45;&gt;Node6 -->
<g id="edge27" class="edge"><title>Node19&#45;&gt;Node6</title>
<path fill="none" stroke="midnightblue" d="M1314.62,-302.171C1359.76,-297.239 1422.98,-285.053 1470,-255 1532.93,-214.78 1518.37,-172.834 1574,-123 1590.51,-108.211 1611.88,-95.0906 1628.52,-85.9321"/>
<polygon fill="midnightblue" stroke="midnightblue" points="1630.54,-88.8216 1637.7,-81.0149 1627.24,-82.6508 1630.54,-88.8216"/>
</g>
<!-- Node19&#45;&gt;Node7 -->
<g id="edge28" class="edge"><title>Node19&#45;&gt;Node7</title>
<path fill="none" stroke="midnightblue" d="M1314.73,-301.011C1370.54,-295.192 1457.41,-282.341 1528,-255 1628.54,-216.06 1728.3,-132.477 1771.59,-93.4181"/>
<polygon fill="midnightblue" stroke="midnightblue" points="1773.97,-95.9857 1779,-86.6638 1769.25,-90.8111 1773.97,-95.9857"/>
</g>
<!-- Node19&#45;&gt;Node11 -->
<g id="edge62" class="edge"><title>Node19&#45;&gt;Node11</title>
<path fill="none" stroke="midnightblue" d="M1314.55,-304.167C1455.83,-300.38 1821.21,-287.639 1938,-255 2065.35,-219.412 2196.45,-124.369 2244.19,-87.4528"/>
<polygon fill="midnightblue" stroke="midnightblue" points="2246.63,-89.9861 2252.36,-81.0711 2242.32,-84.4702 2246.63,-89.9861"/>
</g>
<!-- Node19&#45;&gt;Node12 -->
<g id="edge58" class="edge"><title>Node19&#45;&gt;Node12</title>
<path fill="none" stroke="midnightblue" d="M1201.26,-296.02C1138.86,-285.247 1042.84,-267.536 1008,-255 999.581,-251.971 874.403,-182.073 866,-179 753.761,-137.952 720.391,-145.401 603,-123 506.283,-104.544 391.292,-86.1006 336.353,-77.5025"/>
<polygon fill="midnightblue" stroke="midnightblue" points="336.609,-74.0001 326.189,-75.917 335.53,-80.9165 336.609,-74.0001"/>
</g>
<!-- Node19&#45;&gt;Node13 -->
<g id="edge61" class="edge"><title>Node19&#45;&gt;Node13</title>
<path fill="none" stroke="midnightblue" d="M1201.42,-295.792C1158.71,-287.522 1099.1,-273.948 1049,-255 1042.77,-252.644 946.438,-204.704 943,-199 922.355,-164.745 940.16,-116.081 952.534,-90.2345"/>
<polygon fill="midnightblue" stroke="midnightblue" points="955.695,-91.7397 957.072,-81.2348 949.445,-88.5881 955.695,-91.7397"/>
</g>
<!-- Node20 -->
<g id="node20" class="node"><title>Node20</title>
<g id="a_node20"><a xlink:href="runtime_2module_8h.html" target="_top" xlink:title="Runtime container of the functions generated by TVM, This is used to support dynamically link...">
<polygon fill="white" stroke="black" points="1196,-235.5 1196,-254.5 1320,-254.5 1320,-235.5 1196,-235.5"/>
<text text-anchor="middle" x="1258" y="-242.5" font-family="Helvetica,sans-Serif" font-size="10.00">tvm/runtime/module.h</text>
</a>
</g>
</g>
<!-- Node19&#45;&gt;Node20 -->
<g id="edge29" class="edge"><title>Node19&#45;&gt;Node20</title>
<path fill="none" stroke="midnightblue" d="M1252.16,-291.399C1251.13,-283.377 1250.97,-273.233 1251.69,-264.569"/>
<polygon fill="midnightblue" stroke="midnightblue" points="1255.16,-265.044 1253.07,-254.658 1248.23,-264.081 1255.16,-265.044"/>
</g>
<!-- Node22 -->
<g id="node22" class="node"><title>Node22</title>
<polygon fill="white" stroke="#bfbfbf" points="952.5,-179.5 952.5,-198.5 1009.5,-198.5 1009.5,-179.5 952.5,-179.5"/>
<text text-anchor="middle" x="981" y="-186.5" font-family="Helvetica,sans-Serif" font-size="10.00">memory</text>
</g>
<!-- Node19&#45;&gt;Node22 -->
<g id="edge60" class="edge"><title>Node19&#45;&gt;Node22</title>
<path fill="none" stroke="midnightblue" d="M1201.17,-292.334C1167.76,-283.664 1125.13,-270.966 1089,-255 1056.92,-240.823 1022.67,-218.919 1001.55,-204.52"/>
<polygon fill="midnightblue" stroke="midnightblue" points="1003.3,-201.476 993.083,-198.671 999.321,-207.235 1003.3,-201.476"/>
</g>
<!-- Node19&#45;&gt;Node23 -->
<g id="edge57" class="edge"><title>Node19&#45;&gt;Node23</title>
<path fill="none" stroke="midnightblue" d="M1237.97,-291.188C1211.68,-272.672 1166.71,-241.96 1148,-235 1097.06,-216.051 938.029,-199.573 867.852,-193.018"/>
<polygon fill="midnightblue" stroke="midnightblue" points="868.053,-189.522 857.774,-192.088 867.41,-196.492 868.053,-189.522"/>
</g>
<!-- Node19&#45;&gt;Node25 -->
<g id="edge39" class="edge"><title>Node19&#45;&gt;Node25</title>
<path fill="none" stroke="midnightblue" d="M1291.65,-291.399C1315.48,-281.416 1347.15,-268.147 1370.09,-258.534"/>
<polygon fill="midnightblue" stroke="midnightblue" points="1371.47,-261.751 1379.34,-254.658 1368.76,-255.294 1371.47,-261.751"/>
</g>
<!-- Node19&#45;&gt;Node28 -->
<g id="edge50" class="edge"><title>Node19&#45;&gt;Node28</title>
<path fill="none" stroke="midnightblue" d="M1314.82,-302C1479.43,-291.861 1956.87,-262.454 2145.76,-250.819"/>
<polygon fill="midnightblue" stroke="midnightblue" points="2146.12,-254.304 2155.88,-250.196 2145.69,-247.317 2146.12,-254.304"/>
</g>
<!-- Node19&#45;&gt;Node29 -->
<g id="edge55" class="edge"><title>Node19&#45;&gt;Node29</title>
<path fill="none" stroke="midnightblue" d="M1201.11,-297.038C1119.71,-284.929 971.861,-262.937 899.773,-252.214"/>
<polygon fill="midnightblue" stroke="midnightblue" points="900.11,-248.725 889.703,-250.716 899.08,-255.649 900.11,-248.725"/>
</g>
<!-- Node30 -->
<g id="node30" class="node"><title>Node30</title>
<polygon fill="white" stroke="#bfbfbf" points="1098.5,-235.5 1098.5,-254.5 1139.5,-254.5 1139.5,-235.5 1098.5,-235.5"/>
<text text-anchor="middle" x="1119" y="-242.5" font-family="Helvetica,sans-Serif" font-size="10.00">tuple</text>
</g>
<!-- Node19&#45;&gt;Node30 -->
<g id="edge56" class="edge"><title>Node19&#45;&gt;Node30</title>
<path fill="none" stroke="midnightblue" d="M1225.06,-291.399C1201.84,-281.461 1171.01,-268.265 1148.58,-258.662"/>
<polygon fill="midnightblue" stroke="midnightblue" points="1149.8,-255.375 1139.23,-254.658 1147.04,-261.811 1149.8,-255.375"/>
</g>
<!-- Node19&#45;&gt;Node31 -->
<g id="edge59" class="edge"><title>Node19&#45;&gt;Node31</title>
<path fill="none" stroke="midnightblue" d="M1314.53,-302.783C1471.22,-295.249 1924.37,-273.43 2301,-255 2353.83,-252.415 2415.29,-249.367 2451.57,-247.564"/>
<polygon fill="midnightblue" stroke="midnightblue" points="2452.17,-251.039 2461.98,-247.046 2451.82,-244.047 2452.17,-251.039"/>
</g>
<!-- Node20&#45;&gt;Node5 -->
<g id="edge32" class="edge"><title>Node20&#45;&gt;Node5</title>
<path fill="none" stroke="midnightblue" d="M1284.93,-235.478C1325.41,-222.748 1404.4,-198.208 1472,-179 1514.9,-166.811 1564.2,-153.88 1598.62,-145.023"/>
<polygon fill="midnightblue" stroke="midnightblue" points="1599.54,-148.4 1608.36,-142.524 1597.8,-141.619 1599.54,-148.4"/>
</g>
<!-- Node20&#45;&gt;Node7 -->
<g id="edge31" class="edge"><title>Node20&#45;&gt;Node7</title>
<path fill="none" stroke="midnightblue" d="M1273.43,-235.405C1313.6,-213.382 1425.26,-154.459 1525,-123 1543.45,-117.181 1647.27,-98.3317 1720.39,-85.3836"/>
<polygon fill="midnightblue" stroke="midnightblue" points="1721.25,-88.7853 1730.49,-83.5977 1720.03,-81.8922 1721.25,-88.7853"/>
</g>
<!-- Node20&#45;&gt;Node12 -->
<g id="edge36" class="edge"><title>Node20&#45;&gt;Node12</title>
<path fill="none" stroke="midnightblue" d="M1222.26,-235.449C1188.61,-227.117 1136.96,-213.601 1093,-199 1005.51,-169.94 989.765,-144.002 900,-123 689.157,-73.6698 426.36,-71.197 336.138,-71.9765"/>
<polygon fill="midnightblue" stroke="midnightblue" points="335.968,-68.478 326.006,-72.0847 336.042,-75.4776 335.968,-68.478"/>
</g>
<!-- Node20&#45;&gt;Node16 -->
<g id="edge33" class="edge"><title>Node20&#45;&gt;Node16</title>
<path fill="none" stroke="midnightblue" d="M1320.32,-235.919C1323.25,-235.596 1326.16,-235.288 1329,-235 1516.15,-216.073 1737.16,-201.356 1849.84,-194.399"/>
<polygon fill="midnightblue" stroke="midnightblue" points="1850.3,-197.877 1860.07,-193.77 1849.87,-190.89 1850.3,-197.877"/>
</g>
<!-- Node20&#45;&gt;Node19 -->
<g id="edge38" class="edge"><title>Node20&#45;&gt;Node19</title>
<path fill="none" stroke="midnightblue" d="M1262.93,-254.658C1264.43,-261.655 1265.01,-271.857 1264.64,-281.289"/>
<polygon fill="midnightblue" stroke="midnightblue" points="1261.14,-281.153 1263.84,-291.399 1268.12,-281.709 1261.14,-281.153"/>
</g>
<!-- Node21 -->
<g id="node21" class="node"><title>Node21</title>
<polygon fill="white" stroke="#bfbfbf" points="1100,-123.5 1100,-142.5 1160,-142.5 1160,-123.5 1100,-123.5"/>
<text text-anchor="middle" x="1130" y="-130.5" font-family="Helvetica,sans-Serif" font-size="10.00">dmlc/io.h</text>
</g>
<!-- Node20&#45;&gt;Node21 -->
<g id="edge30" class="edge"><title>Node20&#45;&gt;Node21</title>
<path fill="none" stroke="midnightblue" d="M1195.8,-236.368C1172.35,-230.185 1147.79,-219.044 1133,-199 1123.26,-185.802 1123.6,-166.667 1125.73,-152.575"/>
<polygon fill="midnightblue" stroke="midnightblue" points="1129.2,-153.044 1127.65,-142.564 1122.33,-151.723 1129.2,-153.044"/>
</g>
<!-- Node20&#45;&gt;Node22 -->
<g id="edge34" class="edge"><title>Node20&#45;&gt;Node22</title>
<path fill="none" stroke="midnightblue" d="M1212.22,-235.425C1165.02,-226.53 1089.3,-212.112 1024,-199 1022.55,-198.709 1021.08,-198.411 1019.58,-198.108"/>
<polygon fill="midnightblue" stroke="midnightblue" points="1020.17,-194.654 1009.67,-196.068 1018.76,-201.511 1020.17,-194.654"/>
</g>
<!-- Node20&#45;&gt;Node23 -->
<g id="edge35" class="edge"><title>Node20&#45;&gt;Node23</title>
<path fill="none" stroke="midnightblue" d="M1195.89,-236.09C1105.1,-224.526 939.195,-203.398 867.966,-194.326"/>
<polygon fill="midnightblue" stroke="midnightblue" points="868.129,-190.818 857.767,-193.027 867.245,-197.762 868.129,-190.818"/>
</g>
<!-- Node20&#45;&gt;Node24 -->
<g id="edge37" class="edge"><title>Node20&#45;&gt;Node24</title>
<path fill="none" stroke="midnightblue" d="M1195.77,-238.689C1180.18,-237.418 1163.48,-236.11 1148,-235 896.913,-217.002 596.988,-199.928 473.934,-193.113"/>
<polygon fill="midnightblue" stroke="midnightblue" points="473.809,-189.601 463.631,-192.544 473.422,-196.59 473.809,-189.601"/>
</g>
<!-- Node25&#45;&gt;Node5 -->
<g id="edge41" class="edge"><title>Node25&#45;&gt;Node5</title>
<path fill="none" stroke="midnightblue" d="M1413.27,-235.381C1434.11,-222.087 1476.07,-196.31 1514,-179 1543.13,-165.704 1577.42,-153.839 1603.18,-145.635"/>
<polygon fill="midnightblue" stroke="midnightblue" points="1604.46,-148.901 1612.95,-142.566 1602.36,-142.223 1604.46,-148.901"/>
</g>
<!-- Node25&#45;&gt;Node7 -->
<g id="edge40" class="edge"><title>Node25&#45;&gt;Node7</title>
<path fill="none" stroke="midnightblue" d="M1408.31,-235.299C1421.17,-222.123 1447.02,-196.764 1472,-179 1514.14,-149.026 1525.67,-141.405 1574,-123 1600.49,-112.911 1667.3,-98.0969 1720.4,-87.1202"/>
<polygon fill="midnightblue" stroke="midnightblue" points="1721.39,-90.4899 1730.48,-85.048 1719.98,-83.6332 1721.39,-90.4899"/>
</g>
<!-- Node25&#45;&gt;Node13 -->
<g id="edge49" class="edge"><title>Node25&#45;&gt;Node13</title>
<path fill="none" stroke="midnightblue" d="M1340.53,-235.477C1267.73,-224.811 1151.76,-206.977 1133,-199 1068.66,-171.651 1005.97,-115.573 977.669,-88.2126"/>
<polygon fill="midnightblue" stroke="midnightblue" points="979.914,-85.512 970.325,-81.0049 975.01,-90.5077 979.914,-85.512"/>
</g>
<!-- Node25&#45;&gt;Node14 -->
<g id="edge47" class="edge"><title>Node25&#45;&gt;Node14</title>
<path fill="none" stroke="midnightblue" d="M1387.26,-235.457C1359.29,-215.628 1297.08,-164.973 1324,-123 1340.35,-97.5029 1373.16,-84.7083 1398.71,-78.3952"/>
<polygon fill="midnightblue" stroke="midnightblue" points="1399.8,-81.7376 1408.8,-76.1386 1398.28,-74.9065 1399.8,-81.7376"/>
</g>
<!-- Node25&#45;&gt;Node23 -->
<g id="edge48" class="edge"><title>Node25&#45;&gt;Node23</title>
<path fill="none" stroke="midnightblue" d="M1338.44,-236.061C1335.25,-235.692 1332.09,-235.336 1329,-235 1238.98,-225.205 963.847,-201.224 867.641,-192.901"/>
<polygon fill="midnightblue" stroke="midnightblue" points="867.859,-189.407 857.594,-192.033 867.256,-196.381 867.859,-189.407"/>
</g>
<!-- Node26 -->
<g id="node26" class="node"><title>Node26</title>
<g id="a_node26"><a xlink:href="serializer_8h.html" target="_top" xlink:title="Serializer extension to support TVM data types Include this file to enable serialization of DLDataTyp...">
<polygon fill="white" stroke="black" points="1142,-179.5 1142,-198.5 1272,-198.5 1272,-179.5 1142,-179.5"/>
<text text-anchor="middle" x="1207" y="-186.5" font-family="Helvetica,sans-Serif" font-size="10.00">tvm/runtime/serializer.h</text>
</a>
</g>
</g>
<!-- Node25&#45;&gt;Node26 -->
<g id="edge42" class="edge"><title>Node25&#45;&gt;Node26</title>
<path fill="none" stroke="midnightblue" d="M1364.33,-235.444C1329.42,-226.241 1276.78,-211.562 1242.08,-201.388"/>
<polygon fill="midnightblue" stroke="midnightblue" points="1242.94,-197.994 1232.36,-198.516 1240.96,-204.707 1242.94,-197.994"/>
</g>
<!-- Node26&#45;&gt;Node7 -->
<g id="edge45" class="edge"><title>Node26&#45;&gt;Node7</title>
<path fill="none" stroke="midnightblue" d="M1227.72,-179.422C1262.63,-165.339 1335.66,-137.441 1400,-123 1534.04,-92.9134 1570.98,-106.298 1707,-87 1711.38,-86.3782 1715.88,-85.712 1720.42,-85.0193"/>
<polygon fill="midnightblue" stroke="midnightblue" points="1721.04,-88.465 1730.39,-83.4674 1719.97,-81.5484 1721.04,-88.465"/>
</g>
<!-- Node26&#45;&gt;Node21 -->
<g id="edge43" class="edge"><title>Node26&#45;&gt;Node21</title>
<path fill="none" stroke="midnightblue" d="M1194.63,-179.324C1182.84,-171.058 1164.87,-158.453 1150.86,-148.632"/>
<polygon fill="midnightblue" stroke="midnightblue" points="1152.54,-145.531 1142.34,-142.655 1148.52,-151.262 1152.54,-145.531"/>
</g>
<!-- Node26&#45;&gt;Node25 -->
<g id="edge46" class="edge"><title>Node26&#45;&gt;Node25</title>
<path fill="none" stroke="midnightblue" d="M1242.52,-198.516C1277.38,-207.703 1330.02,-222.381 1364.77,-232.568"/>
<polygon fill="midnightblue" stroke="midnightblue" points="1363.93,-235.967 1374.51,-235.444 1365.91,-229.254 1363.93,-235.967"/>
</g>
<!-- Node27 -->
<g id="node27" class="node"><title>Node27</title>
<polygon fill="white" stroke="#bfbfbf" points="1178,-123.5 1178,-142.5 1272,-142.5 1272,-123.5 1178,-123.5"/>
<text text-anchor="middle" x="1225" y="-130.5" font-family="Helvetica,sans-Serif" font-size="10.00">dmlc/serializer.h</text>
</g>
<!-- Node26&#45;&gt;Node27 -->
<g id="edge44" class="edge"><title>Node26&#45;&gt;Node27</title>
<path fill="none" stroke="midnightblue" d="M1209.97,-179.083C1212.38,-171.849 1215.86,-161.409 1218.87,-152.397"/>
<polygon fill="midnightblue" stroke="midnightblue" points="1222.24,-153.345 1222.08,-142.751 1215.6,-151.131 1222.24,-153.345"/>
</g>
<!-- Node28&#45;&gt;Node6 -->
<g id="edge52" class="edge"><title>Node28&#45;&gt;Node6</title>
<path fill="none" stroke="midnightblue" d="M2215.4,-235.272C2201.51,-221.597 2172.76,-195.032 2144,-179 1975.95,-85.3245 1910.41,-120.764 1721,-87 1714.71,-85.8786 1708.11,-84.578 1701.61,-83.2252"/>
<polygon fill="midnightblue" stroke="midnightblue" points="1702.06,-79.7425 1691.55,-81.0746 1700.6,-86.5879 1702.06,-79.7425"/>
</g>
<!-- Node28&#45;&gt;Node7 -->
<g id="edge51" class="edge"><title>Node28&#45;&gt;Node7</title>
<path fill="none" stroke="midnightblue" d="M2219.7,-235.311C2212.91,-222.151 2198.75,-196.813 2182,-179 2153.26,-148.436 2144.68,-139.252 2106,-123 2028.81,-90.569 1932.79,-78.8576 1867.82,-74.6878"/>
<polygon fill="midnightblue" stroke="midnightblue" points="1867.85,-71.1839 1857.66,-74.0814 1867.44,-78.1714 1867.85,-71.1839"/>
</g>
<!-- Node28&#45;&gt;Node11 -->
<g id="edge53" class="edge"><title>Node28&#45;&gt;Node11</title>
<path fill="none" stroke="midnightblue" d="M2233.16,-235.349C2241.36,-226.948 2252.86,-213.384 2258,-199 2271.02,-162.566 2268.5,-116.422 2265.65,-91.1511"/>
<polygon fill="midnightblue" stroke="midnightblue" points="2269.11,-90.5971 2264.38,-81.1186 2262.17,-91.4803 2269.11,-90.5971"/>
</g>
<!-- Node32&#45;&gt;Node12 -->
<g id="edge83" class="edge"><title>Node32&#45;&gt;Node12</title>
<path fill="none" stroke="midnightblue" d="M1347,-414.443C1287.95,-394.899 1178.65,-357.863 1087,-322 1017.11,-294.651 998.916,-288.98 932,-255 916.368,-247.062 914.029,-242.101 898,-235 835.215,-207.187 668.186,-164.593 603,-143 577.514,-134.558 571.863,-130.202 546,-123 471.969,-102.385 383.111,-85.9027 336.382,-77.8571"/>
<polygon fill="midnightblue" stroke="midnightblue" points="336.702,-74.3612 326.257,-76.1326 335.527,-81.2619 336.702,-74.3612"/>
</g>
<!-- Node32&#45;&gt;Node28 -->
<g id="edge66" class="edge"><title>Node32&#45;&gt;Node28</title>
<path fill="none" stroke="midnightblue" d="M1445.59,-423.163C1517.34,-415.733 1645.8,-400.59 1754,-378 1918.76,-343.602 2110.72,-283.141 2188.54,-257.75"/>
<polygon fill="midnightblue" stroke="midnightblue" points="2189.91,-260.986 2198.32,-254.548 2187.73,-254.334 2189.91,-260.986"/>
</g>
<!-- Node33 -->
<g id="node33" class="node"><title>Node33</title>
<g id="a_node33"><a xlink:href="functor_8h.html" target="_top" xlink:title="Defines the Functor data structures. ">
<polygon fill="white" stroke="black" points="1822.5,-235.5 1822.5,-254.5 1929.5,-254.5 1929.5,-235.5 1822.5,-235.5"/>
<text text-anchor="middle" x="1876" y="-242.5" font-family="Helvetica,sans-Serif" font-size="10.00">tvm/node/functor.h</text>
</a>
</g>
</g>
<!-- Node32&#45;&gt;Node33 -->
<g id="edge67" class="edge"><title>Node32&#45;&gt;Node33</title>
<path fill="none" stroke="midnightblue" d="M1445.61,-417.196C1518.48,-401.28 1649.28,-368.876 1754,-322 1792.2,-304.899 1832.72,-277.58 1856.12,-260.775"/>
<polygon fill="midnightblue" stroke="midnightblue" points="1858.46,-263.401 1864.48,-254.687 1854.34,-257.741 1858.46,-263.401"/>
</g>
<!-- Node32&#45;&gt;Node34 -->
<g id="edge73" class="edge"><title>Node32&#45;&gt;Node34</title>
<path fill="none" stroke="midnightblue" d="M1334.47,-419.592C1322.14,-417.685 1309.13,-415.726 1297,-414 1199.88,-400.188 1087.32,-386.049 1016.64,-377.395"/>
<polygon fill="midnightblue" stroke="midnightblue" points="1016.87,-373.898 1006.52,-376.159 1016.02,-380.846 1016.87,-373.898"/>
</g>
<!-- Node33&#45;&gt;Node5 -->
<g id="edge69" class="edge"><title>Node33&#45;&gt;Node5</title>
<path fill="none" stroke="midnightblue" d="M1857.64,-235.368C1816.71,-216.131 1717.83,-169.648 1669.51,-146.931"/>
<polygon fill="midnightblue" stroke="midnightblue" points="1670.82,-143.678 1660.28,-142.591 1667.84,-150.013 1670.82,-143.678"/>
</g>
<!-- Node33&#45;&gt;Node6 -->
<g id="edge68" class="edge"><title>Node33&#45;&gt;Node6</title>
<path fill="none" stroke="midnightblue" d="M1929.67,-237.755C1954.16,-231.922 1980.98,-220.671 1996,-199 2017.33,-168.214 1970.91,-132.169 1956,-123 1865.99,-67.6563 1824.88,-106.347 1721,-87 1714.79,-85.8441 1708.28,-84.5334 1701.86,-83.1842"/>
<polygon fill="midnightblue" stroke="midnightblue" points="1702.43,-79.7258 1691.92,-81.0488 1700.96,-86.5699 1702.43,-79.7258"/>
</g>
<!-- Node33&#45;&gt;Node11 -->
<g id="edge71" class="edge"><title>Node33&#45;&gt;Node11</title>
<path fill="none" stroke="midnightblue" d="M1907.32,-235.432C1935.47,-227.328 1977.69,-214.172 2013,-199 2078.41,-170.893 2090.34,-154.867 2154,-123 2180.97,-109.5 2212.25,-95.139 2234.36,-85.1965"/>
<polygon fill="midnightblue" stroke="midnightblue" points="2235.84,-88.3706 2243.54,-81.09 2232.98,-81.9817 2235.84,-88.3706"/>
</g>
<!-- Node33&#45;&gt;Node13 -->
<g id="edge72" class="edge"><title>Node33&#45;&gt;Node13</title>
<path fill="none" stroke="midnightblue" d="M1867.65,-235.17C1844.87,-211.768 1778.69,-148.222 1709,-123 1641.01,-98.3943 1126.94,-78.413 993.544,-73.6042"/>
<polygon fill="midnightblue" stroke="midnightblue" points="993.333,-70.0945 983.214,-73.2349 993.083,-77.0901 993.333,-70.0945"/>
</g>
<!-- Node33&#45;&gt;Node23 -->
<g id="edge70" class="edge"><title>Node33&#45;&gt;Node23</title>
<path fill="none" stroke="midnightblue" d="M1822.32,-242.054C1679.3,-236.729 1277.16,-220.848 943,-199 917.876,-197.357 889.536,-195.002 868.051,-193.113"/>
<polygon fill="midnightblue" stroke="midnightblue" points="868.068,-189.6 857.797,-192.201 867.448,-196.573 868.068,-189.6"/>
</g>
<!-- Node34&#45;&gt;Node5 -->
<g id="edge74" class="edge"><title>Node34&#45;&gt;Node5</title>
<path fill="none" stroke="midnightblue" d="M1006.54,-363.503C1081.19,-358.292 1212.75,-346.366 1323,-322 1416.6,-301.316 1448.95,-309.218 1528,-255 1563.95,-230.343 1559.63,-210.269 1590,-179 1600.27,-168.429 1612.72,-157.59 1622.87,-149.199"/>
<polygon fill="midnightblue" stroke="midnightblue" points="1625.2,-151.812 1630.75,-142.786 1620.79,-146.383 1625.2,-151.812"/>
</g>
<!-- Node34&#45;&gt;Node11 -->
<g id="edge77" class="edge"><title>Node34&#45;&gt;Node11</title>
<path fill="none" stroke="midnightblue" d="M1006.52,-364.664C1118.92,-359.834 1369.96,-347.044 1580,-322 1669.28,-311.356 1892.91,-280.907 1979,-255 2082.93,-223.726 2111.69,-211.35 2196,-143 2216.17,-126.644 2236.29,-104.492 2249.14,-89.4134"/>
<polygon fill="midnightblue" stroke="midnightblue" points="2252.07,-91.3638 2255.81,-81.45 2246.7,-86.8694 2252.07,-91.3638"/>
</g>
<!-- Node34&#45;&gt;Node12 -->
<g id="edge82" class="edge"><title>Node34&#45;&gt;Node12</title>
<path fill="none" stroke="midnightblue" d="M921.154,-358.437C895.005,-349.668 853.486,-335.453 818,-322 683.253,-270.916 647.031,-263.166 518,-199 445.326,-162.859 363.939,-111.55 325.86,-86.8626"/>
<polygon fill="midnightblue" stroke="midnightblue" points="327.433,-83.7104 317.144,-81.1851 323.613,-89.5758 327.433,-83.7104"/>
</g>
<!-- Node34&#45;&gt;Node13 -->
<g id="edge81" class="edge"><title>Node34&#45;&gt;Node13</title>
<path fill="none" stroke="midnightblue" d="M921.166,-358.401C901.514,-350.959 874.602,-338.747 855,-322 803.347,-277.872 768.836,-238.84 801,-179 828.528,-127.785 892.691,-97.0729 931.189,-82.5966"/>
<polygon fill="midnightblue" stroke="midnightblue" points="932.638,-85.7947 940.851,-79.1016 930.256,-79.2121 932.638,-85.7947"/>
</g>
<!-- Node34&#45;&gt;Node16 -->
<g id="edge75" class="edge"><title>Node34&#45;&gt;Node16</title>
<path fill="none" stroke="midnightblue" d="M1006.74,-364.568C1134.05,-359.024 1428.42,-344.192 1526,-322 1563.18,-313.544 1570.03,-303.666 1606,-291 1705.68,-255.895 1824.8,-219.528 1885.02,-201.528"/>
<polygon fill="midnightblue" stroke="midnightblue" points="1886.28,-204.804 1894.86,-198.593 1884.28,-198.096 1886.28,-204.804"/>
</g>
<!-- Node34&#45;&gt;Node19 -->
<g id="edge76" class="edge"><title>Node34&#45;&gt;Node19</title>
<path fill="none" stroke="midnightblue" d="M991.559,-358.475C1043.79,-348.481 1130.88,-331.82 1191.21,-320.279"/>
<polygon fill="midnightblue" stroke="midnightblue" points="1192.23,-323.646 1201.4,-318.329 1190.92,-316.771 1192.23,-323.646"/>
</g>
<!-- Node34&#45;&gt;Node23 -->
<g id="edge78" class="edge"><title>Node34&#45;&gt;Node23</title>
<path fill="none" stroke="midnightblue" d="M950.536,-358.423C956.21,-343.137 965.248,-310.924 950,-291 912.782,-242.369 854.218,-303.631 817,-255 806.517,-241.302 813.817,-221.741 821.854,-207.661"/>
<polygon fill="midnightblue" stroke="midnightblue" points="824.982,-209.26 827.326,-198.928 819.05,-205.543 824.982,-209.26"/>
</g>
<!-- Node34&#45;&gt;Node24 -->
<g id="edge80" class="edge"><title>Node34&#45;&gt;Node24</title>
<path fill="none" stroke="midnightblue" d="M913.065,-358.434C879.939,-349.884 828.211,-336.031 784,-322 658.414,-282.143 511.704,-226.611 448.544,-202.263"/>
<polygon fill="midnightblue" stroke="midnightblue" points="449.73,-198.969 439.14,-198.63 447.207,-205.498 449.73,-198.969"/>
</g>
<!-- Node35 -->
<g id="node35" class="node"><title>Node35</title>
<polygon fill="white" stroke="#bfbfbf" points="864.5,-297 864.5,-316 941.5,-316 941.5,-297 864.5,-297"/>
<text text-anchor="middle" x="903" y="-304" font-family="Helvetica,sans-Serif" font-size="10.00">initializer_list</text>
</g>
<!-- Node34&#45;&gt;Node35 -->
<g id="edge79" class="edge"><title>Node34&#45;&gt;Node35</title>
<path fill="none" stroke="midnightblue" d="M940.696,-358.475C934.096,-349.55 923.563,-335.307 915.307,-324.143"/>
<polygon fill="midnightblue" stroke="midnightblue" points="918.052,-321.968 909.292,-316.009 912.424,-326.131 918.052,-321.968"/>
</g>
<!-- Node36&#45;&gt;Node12 -->
<g id="edge88" class="edge"><title>Node36&#45;&gt;Node12</title>
<path fill="none" stroke="midnightblue" d="M1177.34,-423.916C1106.91,-417.357 982.225,-403.208 878,-378 641.654,-320.836 540.504,-363.028 361,-199 344.218,-183.665 321.198,-122.178 310.26,-90.9295"/>
<polygon fill="midnightblue" stroke="midnightblue" points="313.495,-89.5748 306.926,-81.2629 306.878,-91.8577 313.495,-89.5748"/>
</g>
<!-- Node36&#45;&gt;Node28 -->
<g id="edge85" class="edge"><title>Node36&#45;&gt;Node28</title>
<path fill="none" stroke="midnightblue" d="M1288.76,-418.231C1462.6,-386.217 1993.48,-288.452 2167.85,-256.34"/>
<polygon fill="midnightblue" stroke="midnightblue" points="2168.64,-259.754 2177.84,-254.5 2167.37,-252.869 2168.64,-259.754"/>
</g>
<!-- Node36&#45;&gt;Node29 -->
<g id="edge89" class="edge"><title>Node36&#45;&gt;Node29</title>
<path fill="none" stroke="midnightblue" d="M1177.35,-419.512C1141.77,-412.084 1095.6,-399.222 1059,-378 1010.87,-350.094 1015.63,-321.34 969,-291 946.932,-276.642 919.542,-265.48 897.492,-257.863"/>
<polygon fill="midnightblue" stroke="midnightblue" points="898.369,-254.466 887.775,-254.615 896.149,-261.105 898.369,-254.466"/>
</g>
<!-- Node36&#45;&gt;Node33 -->
<g id="edge86" class="edge"><title>Node36&#45;&gt;Node33</title>
<path fill="none" stroke="midnightblue" d="M1282.39,-414.483C1405.44,-379.557 1723.84,-289.186 1836.1,-257.324"/>
<polygon fill="midnightblue" stroke="midnightblue" points="1837.34,-260.612 1846,-254.514 1835.43,-253.878 1837.34,-260.612"/>
</g>
<!-- Node36&#45;&gt;Node34 -->
<g id="edge87" class="edge"><title>Node36&#45;&gt;Node34</title>
<path fill="none" stroke="midnightblue" d="M1177.18,-416.887C1125.16,-406.066 1048.27,-390.068 997.904,-379.59"/>
<polygon fill="midnightblue" stroke="midnightblue" points="998.392,-376.117 987.889,-377.507 996.966,-382.97 998.392,-376.117"/>
</g>
<!-- Node37&#45;&gt;Node33 -->
<g id="edge94" class="edge"><title>Node37&#45;&gt;Node33</title>
<path fill="none" stroke="midnightblue" d="M2096.27,-481.376C2093.21,-450.721 2078.7,-345.927 2020,-291 1998.2,-270.598 1967.26,-259.443 1939.64,-253.345"/>
<polygon fill="midnightblue" stroke="midnightblue" points="1940.14,-249.874 1929.64,-251.319 1938.75,-256.735 1940.14,-249.874"/>
</g>
<!-- Node38 -->
<g id="node38" class="node"><title>Node38</title>
<polygon fill="white" stroke="#bfbfbf" points="2108.5,-420 2108.5,-439 2167.5,-439 2167.5,-420 2108.5,-420"/>
<text text-anchor="middle" x="2138" y="-427" font-family="Helvetica,sans-Serif" font-size="10.00">iostream</text>
</g>
<!-- Node37&#45;&gt;Node38 -->
<g id="edge95" class="edge"><title>Node37&#45;&gt;Node38</title>
<path fill="none" stroke="midnightblue" d="M2102.87,-481.475C2108.96,-472.638 2118.64,-458.589 2126.3,-447.475"/>
<polygon fill="midnightblue" stroke="midnightblue" points="2129.34,-449.229 2132.14,-439.009 2123.58,-445.258 2129.34,-449.229"/>
</g>
<!-- Node39&#45;&gt;Node5 -->
<g id="edge105" class="edge"><title>Node39&#45;&gt;Node5</title>
<path fill="none" stroke="midnightblue" d="M1694.03,-593.477C1687.79,-538.335 1653.08,-231.807 1644.11,-152.655"/>
<polygon fill="midnightblue" stroke="midnightblue" points="1647.59,-152.226 1642.98,-142.683 1640.63,-153.014 1647.59,-152.226"/>
</g>
<!-- Node39&#45;&gt;Node12 -->
<g id="edge107" class="edge"><title>Node39&#45;&gt;Node12</title>
<path fill="none" stroke="midnightblue" d="M1654.78,-602.407C1508.46,-602.62 992.689,-592.256 603,-445 471.788,-395.418 418.336,-378.048 351,-255 325.553,-208.499 320.425,-194.973 310,-143 306.531,-125.704 305.066,-105.627 304.448,-91.3327"/>
<polygon fill="midnightblue" stroke="midnightblue" points="307.944,-91.1496 304.112,-81.272 300.948,-91.3833 307.944,-91.1496"/>
</g>
<!-- Node39&#45;&gt;Node15 -->
<g id="edge106" class="edge"><title>Node39&#45;&gt;Node15</title>
<path fill="none" stroke="midnightblue" d="M1717.98,-593.444C1742.16,-584.438 1780.42,-570.189 1807.65,-560.049"/>
<polygon fill="midnightblue" stroke="midnightblue" points="1808.98,-563.286 1817.13,-556.516 1806.54,-556.727 1808.98,-563.286"/>
</g>
<!-- Node40&#45;&gt;Node5 -->
<g id="edge109" class="edge"><title>Node40&#45;&gt;Node5</title>
<path fill="none" stroke="midnightblue" d="M1864.29,-649.47C1900.91,-634.881 1966,-601.43 1966,-548 1966,-548 1966,-548 1966,-490 1966,-309.266 1836.85,-301.533 1704,-179 1691.85,-167.79 1676.88,-156.856 1664.69,-148.573"/>
<polygon fill="midnightblue" stroke="midnightblue" points="1666.27,-145.422 1656.01,-142.796 1662.39,-151.25 1666.27,-145.422"/>
</g>
<!-- Node40&#45;&gt;Node12 -->
<g id="edge114" class="edge"><title>Node40&#45;&gt;Node12</title>
<path fill="none" stroke="midnightblue" d="M1801.41,-655.528C1675.9,-647.097 1268.25,-616.635 936,-557 834.57,-538.794 810.465,-527.947 711,-501 625.616,-477.868 599.666,-483.456 520,-445 391.831,-383.131 356.067,-335.266 315,-199 307.655,-174.629 305.682,-168.312 303,-143 302.064,-134.161 302.912,-131.888 303,-123 303.104,-112.527 303.328,-100.834 303.538,-91.339"/>
<polygon fill="midnightblue" stroke="midnightblue" points="307.044,-91.1563 303.778,-81.0772 300.045,-90.9926 307.044,-91.1563"/>
</g>
<!-- Node40&#45;&gt;Node15 -->
<g id="edge111" class="edge"><title>Node40&#45;&gt;Node15</title>
<path fill="none" stroke="midnightblue" d="M1840,-649.368C1840,-631.617 1840,-590.666 1840,-566.597"/>
<polygon fill="midnightblue" stroke="midnightblue" points="1843.5,-566.591 1840,-556.591 1836.5,-566.591 1843.5,-566.591"/>
</g>
<!-- Node40&#45;&gt;Node28 -->
<g id="edge110" class="edge"><title>Node40&#45;&gt;Node28</title>
<path fill="none" stroke="midnightblue" d="M1878.79,-654.537C1956.19,-645.309 2128.84,-612.597 2204,-501 2254.31,-426.299 2237.46,-309.912 2228.28,-264.774"/>
<polygon fill="midnightblue" stroke="midnightblue" points="2231.69,-263.944 2226.16,-254.903 2224.84,-265.415 2231.69,-263.944"/>
</g>
<!-- Node40&#45;&gt;Node34 -->
<g id="edge112" class="edge"><title>Node40&#45;&gt;Node34</title>
<path fill="none" stroke="midnightblue" d="M1830.13,-649.336C1813.55,-635.256 1778.51,-607.524 1744,-593 1460.93,-473.846 1351.82,-564.75 1069,-445 1030.25,-428.594 989.621,-400.829 966.396,-383.785"/>
<polygon fill="midnightblue" stroke="midnightblue" points="968.224,-380.782 958.113,-377.617 964.043,-386.396 968.224,-380.782"/>
</g>
<!-- Node40&#45;&gt;Node39 -->
<g id="edge113" class="edge"><title>Node40&#45;&gt;Node39</title>
<path fill="none" stroke="midnightblue" d="M1817.02,-649.444C1792.84,-640.438 1754.58,-626.189 1727.35,-616.049"/>
<polygon fill="midnightblue" stroke="midnightblue" points="1728.46,-612.727 1717.87,-612.516 1726.02,-619.286 1728.46,-612.727"/>
</g>
<!-- Node42&#45;&gt;Node12 -->
<g id="edge144" class="edge"><title>Node42&#45;&gt;Node12</title>
<path fill="none" stroke="midnightblue" d="M599.369,-822.362C454.854,-810.908 38,-772.933 38,-716 38,-716 38,-716 38,-188 38,-87.1962 200.714,-73.4209 271.619,-72.2036"/>
<polygon fill="midnightblue" stroke="midnightblue" points="271.813,-75.702 281.779,-72.1054 271.745,-68.7024 271.813,-75.702"/>
</g>
<!-- Node42&#45;&gt;Node15 -->
<g id="edge143" class="edge"><title>Node42&#45;&gt;Node15</title>
<path fill="none" stroke="midnightblue" d="M696.722,-825.853C950.17,-824.928 2112.2,-818.647 2268,-781 2324.04,-767.46 2354.27,-773.776 2385,-725 2454.23,-615.113 2718.28,-766.723 2165,-593 2074.98,-564.735 1965.39,-554.208 1899.24,-550.297"/>
<polygon fill="midnightblue" stroke="midnightblue" points="1899.19,-546.789 1889.01,-549.725 1898.8,-553.778 1899.19,-546.789"/>
</g>
<!-- Node42&#45;&gt;Node23 -->
<g id="edge145" class="edge"><title>Node42&#45;&gt;Node23</title>
<path fill="none" stroke="midnightblue" d="M645.409,-817.447C633.87,-777.921 589.475,-609.406 630,-481 667.951,-360.75 775.325,-247.033 817.088,-206.059"/>
<polygon fill="midnightblue" stroke="midnightblue" points="819.779,-208.325 824.526,-198.853 814.908,-203.298 819.779,-208.325"/>
</g>
<!-- Node42&#45;&gt;Node39 -->
<g id="edge129" class="edge"><title>Node42&#45;&gt;Node39</title>
<path fill="none" stroke="midnightblue" d="M688.402,-817.433C851.992,-782.747 1465.02,-652.765 1645.01,-614.599"/>
<polygon fill="midnightblue" stroke="midnightblue" points="1645.94,-617.98 1655,-612.482 1644.49,-611.132 1645.94,-617.98"/>
</g>
<!-- Node43 -->
<g id="node43" class="node"><title>Node43</title>
<g id="a_node43"><a xlink:href="tir_2expr_8h.html" target="_top" xlink:title="TIR expressions. ">
<polygon fill="white" stroke="black" points="2179,-761.5 2179,-780.5 2259,-780.5 2259,-761.5 2179,-761.5"/>
<text text-anchor="middle" x="2219" y="-768.5" font-family="Helvetica,sans-Serif" font-size="10.00">tvm/tir/expr.h</text>
</a>
</g>
</g>
<!-- Node42&#45;&gt;Node43 -->
<g id="edge130" class="edge"><title>Node42&#45;&gt;Node43</title>
<path fill="none" stroke="midnightblue" d="M696.74,-824.325C930.211,-816.3 1932.64,-781.843 2168.96,-773.72"/>
<polygon fill="midnightblue" stroke="midnightblue" points="2169.11,-777.217 2178.98,-773.376 2168.87,-770.221 2169.11,-777.217"/>
</g>
<!-- Node43&#45;&gt;Node4 -->
<g id="edge136" class="edge"><title>Node43&#45;&gt;Node4</title>
<path fill="none" stroke="midnightblue" d="M2184.93,-761.444C2147.82,-752.122 2088.34,-737.183 2047.79,-726.997"/>
<polygon fill="midnightblue" stroke="midnightblue" points="2048.46,-723.558 2037.91,-724.516 2046.75,-730.347 2048.46,-723.558"/>
</g>
<!-- Node43&#45;&gt;Node7 -->
<g id="edge134" class="edge"><title>Node43&#45;&gt;Node7</title>
<path fill="none" stroke="midnightblue" d="M2259.23,-761.947C2260.84,-761.627 2262.44,-761.31 2264,-761 2377.68,-738.45 2460.73,-774.82 2508,-669 2586.67,-492.871 2612.08,-400.51 2513,-235 2458.87,-144.579 2404.82,-153.672 2304,-123 2224.49,-98.8127 1989.46,-83.0348 1868.21,-76.2726"/>
<polygon fill="midnightblue" stroke="midnightblue" points="1868.08,-72.7603 1857.91,-75.7043 1867.7,-79.7497 1868.08,-72.7603"/>
</g>
<!-- Node43&#45;&gt;Node12 -->
<g id="edge137" class="edge"><title>Node43&#45;&gt;Node12</title>
<path fill="none" stroke="midnightblue" d="M2178.91,-769.532C1955.48,-766.827 868.655,-752.345 722,-725 574.696,-697.534 507.953,-720.92 404,-613 272.233,-476.204 314.87,-388.185 298,-199 294.998,-165.33 292.023,-156.673 295,-123 295.947,-112.288 298.003,-100.446 299.911,-90.9234"/>
<polygon fill="midnightblue" stroke="midnightblue" points="303.361,-91.5243 302.008,-81.0163 296.513,-90.0749 303.361,-91.5243"/>
</g>
<!-- Node43&#45;&gt;Node13 -->
<g id="edge142" class="edge"><title>Node43&#45;&gt;Node13</title>
<path fill="none" stroke="midnightblue" d="M2178.98,-769.684C1992.65,-767.764 1209.56,-754.653 983,-669 827.965,-610.388 684,-339.278 684,-307.5 684,-307.5 684,-307.5 684,-188 684,-82.3626 857.301,-71.5357 930.244,-71.6573"/>
<polygon fill="midnightblue" stroke="midnightblue" points="930.616,-75.1607 940.647,-71.7512 930.679,-68.161 930.616,-75.1607"/>
</g>
<!-- Node43&#45;&gt;Node15 -->
<g id="edge131" class="edge"><title>Node43&#45;&gt;Node15</title>
<path fill="none" stroke="midnightblue" d="M2224.33,-761.289C2236.76,-739.746 2264.64,-683.239 2238,-649 2196.63,-595.825 1999.4,-566.114 1899,-554.205"/>
<polygon fill="midnightblue" stroke="midnightblue" points="1899.35,-550.722 1889.01,-553.041 1898.54,-557.675 1899.35,-550.722"/>
</g>
<!-- Node43&#45;&gt;Node24 -->
<g id="edge139" class="edge"><title>Node43&#45;&gt;Node24</title>
<path fill="none" stroke="midnightblue" d="M2178.76,-769.822C1949.81,-768.676 819.46,-761.198 756,-725 543.432,-603.749 444.249,-288.978 421.962,-208.8"/>
<polygon fill="midnightblue" stroke="midnightblue" points="425.224,-207.458 419.227,-198.724 418.469,-209.291 425.224,-207.458"/>
</g>
<!-- Node43&#45;&gt;Node28 -->
<g id="edge135" class="edge"><title>Node43&#45;&gt;Node28</title>
<path fill="none" stroke="midnightblue" d="M2252.38,-761.458C2289.57,-751.662 2347.08,-735.592 2367,-725 2407.45,-703.49 2447,-705.812 2447,-660 2447,-660 2447,-660 2447,-602 2447,-448.317 2295.9,-306.425 2242.46,-261.045"/>
<polygon fill="midnightblue" stroke="midnightblue" points="2244.67,-258.335 2234.76,-254.603 2240.18,-263.704 2244.67,-258.335"/>
</g>
<!-- Node43&#45;&gt;Node31 -->
<g id="edge141" class="edge"><title>Node43&#45;&gt;Node31</title>
<path fill="none" stroke="midnightblue" d="M2257.82,-761.46C2308.33,-750.22 2391.7,-731.166 2405,-725 2449.44,-704.399 2494,-708.982 2494,-660 2494,-660 2494,-660 2494,-428.5 2494,-368.589 2488.02,-297.815 2484.88,-264.764"/>
<polygon fill="midnightblue" stroke="midnightblue" points="2488.35,-264.34 2483.9,-254.726 2481.39,-265.019 2488.35,-264.34"/>
</g>
<!-- Node43&#45;&gt;Node33 -->
<g id="edge133" class="edge"><title>Node43&#45;&gt;Node33</title>
<path fill="none" stroke="midnightblue" d="M2230.27,-761.427C2239.97,-753.275 2253.28,-740.046 2259,-725 2264.4,-710.797 2269.15,-670.15 2257,-649 2195.72,-542.287 2105.92,-591.921 2023,-501 1974.91,-448.277 1985.95,-419.642 1950,-358 1929.75,-323.277 1903.2,-284.503 1888.03,-262.898"/>
<polygon fill="midnightblue" stroke="midnightblue" points="1890.72,-260.652 1882.09,-254.504 1885.01,-264.691 1890.72,-260.652"/>
</g>
<!-- Node43&#45;&gt;Node34 -->
<g id="edge132" class="edge"><title>Node43&#45;&gt;Node34</title>
<path fill="none" stroke="midnightblue" d="M2178.8,-769.871C1952.63,-769.005 846.646,-762.84 786,-725 734.386,-692.796 722,-664.837 722,-604 722,-604 722,-604 722,-546 722,-453.343 841.325,-401.77 906.181,-380.582"/>
<polygon fill="midnightblue" stroke="midnightblue" points="907.241,-383.918 915.715,-377.558 905.124,-377.245 907.241,-383.918"/>
</g>
<!-- Node43&#45;&gt;Node38 -->
<g id="edge140" class="edge"><title>Node43&#45;&gt;Node38</title>
<path fill="none" stroke="midnightblue" d="M2258.12,-761.47C2291.75,-753.251 2336.45,-739.896 2347,-725 2380.91,-677.129 2372.78,-645.699 2347,-593 2309.49,-516.328 2216.42,-465.382 2168.14,-443.185"/>
<polygon fill="midnightblue" stroke="midnightblue" points="2169.38,-439.909 2158.83,-439.008 2166.52,-446.295 2169.38,-439.909"/>
</g>
<!-- Node43&#45;&gt;Node41 -->
<g id="edge138" class="edge"><title>Node43&#45;&gt;Node41</title>
<path fill="none" stroke="midnightblue" d="M2217.35,-761.368C2213.96,-743.617 2206.15,-702.666 2201.55,-678.597"/>
<polygon fill="midnightblue" stroke="midnightblue" points="2204.95,-677.758 2199.64,-668.591 2198.08,-679.07 2204.95,-677.758"/>
</g>
</g>
</svg>
