<?xml version="1.0" encoding="UTF-8" standalone="no"?>
<!DOCTYPE svg PUBLIC "-//W3C//DTD SVG 1.1//EN"
 "http://www.w3.org/Graphics/SVG/1.1/DTD/svg11.dtd">
<!-- Generated by graphviz version 2.38.0 (20140413.2041)
 -->
<!-- Title: include/tvm/relay/qnn/transform.h Pages: 1 -->
<svg width="3228pt" height="979pt"
 viewBox="0.00 0.00 3228.00 979.00" xmlns="http://www.w3.org/2000/svg" xmlns:xlink="http://www.w3.org/1999/xlink">
<g id="graph0" class="graph" transform="scale(1 1) rotate(0) translate(4 975)">
<title>include/tvm/relay/qnn/transform.h</title>
<polygon fill="white" stroke="none" points="-4,4 -4,-975 3224,-975 3224,4 -4,4"/>
<!-- Node1 -->
<g id="node1" class="node"><title>Node1</title>
<polygon fill="#bfbfbf" stroke="black" points="286.5,-940.5 286.5,-970.5 405.5,-970.5 405.5,-940.5 286.5,-940.5"/>
<text text-anchor="start" x="294.5" y="-958.5" font-family="Helvetica,sans-Serif" font-size="10.00">include/tvm/relay/qnn</text>
<text text-anchor="middle" x="346" y="-947.5" font-family="Helvetica,sans-Serif" font-size="10.00">/transform.h</text>
</g>
<!-- Node2 -->
<g id="node2" class="node"><title>Node2</title>
<g id="a_node2"><a xlink:href="c__runtime__api_8h.html" target="_top" xlink:title="tvm/runtime/c_runtime\l_api.h">
<polygon fill="white" stroke="black" points="1421.5,-56.5 1421.5,-86.5 1548.5,-86.5 1548.5,-56.5 1421.5,-56.5"/>
<text text-anchor="start" x="1429.5" y="-74.5" font-family="Helvetica,sans-Serif" font-size="10.00">tvm/runtime/c_runtime</text>
<text text-anchor="middle" x="1485" y="-63.5" font-family="Helvetica,sans-Serif" font-size="10.00">_api.h</text>
</a>
</g>
</g>
<!-- Node1&#45;&gt;Node2 -->
<g id="edge1" class="edge"><title>Node1&#45;&gt;Node2</title>
<path fill="none" stroke="midnightblue" d="M286.126,-947.038C187.097,-933.006 0,-898.607 0,-839 0,-839 0,-839 0,-781 0,-579.176 436.517,-192.491 626,-123 698.641,-96.3597 1216.26,-79.765 1411.09,-74.4034"/>
<polygon fill="midnightblue" stroke="midnightblue" points="1411.33,-77.8982 1421.23,-74.1264 1411.14,-70.9008 1411.33,-77.8982"/>
</g>
<!-- Node6 -->
<g id="node6" class="node"><title>Node6</title>
<g id="a_node6"><a xlink:href="include_2tvm_2relay_2transform_8h.html" target="_top" xlink:title="Relay specific transformation passes. ">
<polygon fill="white" stroke="black" points="631.5,-884.5 631.5,-903.5 752.5,-903.5 752.5,-884.5 631.5,-884.5"/>
<text text-anchor="middle" x="692" y="-891.5" font-family="Helvetica,sans-Serif" font-size="10.00">tvm/relay/transform.h</text>
</a>
</g>
</g>
<!-- Node1&#45;&gt;Node6 -->
<g id="edge5" class="edge"><title>Node1&#45;&gt;Node6</title>
<path fill="none" stroke="midnightblue" d="M405.874,-944.204C469.267,-933.302 568.749,-916.195 632.138,-905.294"/>
<polygon fill="midnightblue" stroke="midnightblue" points="633.114,-908.678 642.376,-903.534 631.928,-901.779 633.114,-908.678"/>
</g>
<!-- Node3 -->
<g id="node3" class="node"><title>Node3</title>
<polygon fill="white" stroke="#bfbfbf" points="1350,-0.5 1350,-19.5 1440,-19.5 1440,-0.5 1350,-0.5"/>
<text text-anchor="middle" x="1395" y="-7.5" font-family="Helvetica,sans-Serif" font-size="10.00">dlpack/dlpack.h</text>
</g>
<!-- Node2&#45;&gt;Node3 -->
<g id="edge2" class="edge"><title>Node2&#45;&gt;Node3</title>
<path fill="none" stroke="midnightblue" d="M1463.67,-56.3993C1449.51,-47.0402 1430.99,-34.7924 1416.75,-25.3771"/>
<polygon fill="midnightblue" stroke="midnightblue" points="1418.37,-22.2531 1408.1,-19.6578 1414.51,-28.0923 1418.37,-22.2531"/>
</g>
<!-- Node4 -->
<g id="node4" class="node"><title>Node4</title>
<polygon fill="white" stroke="#bfbfbf" points="1458.5,-0.5 1458.5,-19.5 1511.5,-19.5 1511.5,-0.5 1458.5,-0.5"/>
<text text-anchor="middle" x="1485" y="-7.5" font-family="Helvetica,sans-Serif" font-size="10.00">stdint.h</text>
</g>
<!-- Node2&#45;&gt;Node4 -->
<g id="edge3" class="edge"><title>Node2&#45;&gt;Node4</title>
<path fill="none" stroke="midnightblue" d="M1485,-56.3993C1485,-48.4664 1485,-38.458 1485,-29.8583"/>
<polygon fill="midnightblue" stroke="midnightblue" points="1488.5,-29.6577 1485,-19.6578 1481.5,-29.6578 1488.5,-29.6577"/>
</g>
<!-- Node5 -->
<g id="node5" class="node"><title>Node5</title>
<polygon fill="white" stroke="#bfbfbf" points="1529.5,-0.5 1529.5,-19.5 1584.5,-19.5 1584.5,-0.5 1529.5,-0.5"/>
<text text-anchor="middle" x="1557" y="-7.5" font-family="Helvetica,sans-Serif" font-size="10.00">stddef.h</text>
</g>
<!-- Node2&#45;&gt;Node5 -->
<g id="edge4" class="edge"><title>Node2&#45;&gt;Node5</title>
<path fill="none" stroke="midnightblue" d="M1502.06,-56.3993C1513.06,-47.3076 1527.37,-35.4899 1538.62,-26.1909"/>
<polygon fill="midnightblue" stroke="midnightblue" points="1541.04,-28.726 1546.52,-19.6578 1536.59,-23.33 1541.04,-28.726"/>
</g>
<!-- Node7 -->
<g id="node7" class="node"><title>Node7</title>
<g id="a_node7"><a xlink:href="include_2tvm_2relay_2attrs_2transform_8h.html" target="_top" xlink:title="Transform operators. ">
<polygon fill="white" stroke="black" points="430,-828.5 430,-847.5 576,-847.5 576,-828.5 430,-828.5"/>
<text text-anchor="middle" x="503" y="-835.5" font-family="Helvetica,sans-Serif" font-size="10.00">tvm/relay/attrs/transform.h</text>
</a>
</g>
</g>
<!-- Node6&#45;&gt;Node7 -->
<g id="edge6" class="edge"><title>Node6&#45;&gt;Node7</title>
<path fill="none" stroke="midnightblue" d="M662.052,-884.444C629.842,-875.241 578.466,-860.562 542.858,-850.388"/>
<polygon fill="midnightblue" stroke="midnightblue" points="543.384,-846.898 532.808,-847.516 541.461,-853.629 543.384,-846.898"/>
</g>
<!-- Node14 -->
<g id="node14" class="node"><title>Node14</title>
<polygon fill="white" stroke="#bfbfbf" points="705,-62 705,-81 749,-81 749,-62 705,-62"/>
<text text-anchor="middle" x="727" y="-69" font-family="Helvetica,sans-Serif" font-size="10.00">string</text>
</g>
<!-- Node6&#45;&gt;Node14 -->
<g id="edge194" class="edge"><title>Node6&#45;&gt;Node14</title>
<path fill="none" stroke="midnightblue" d="M634.729,-884.47C579.761,-876.051 494.483,-862.385 421,-848 208.763,-806.452 0,-820.265 0,-604 0,-604 0,-604 0,-193.5 0,-154.828 17.2404,-141.864 51,-123 107.59,-91.3793 567.505,-76.7809 694.578,-73.3264"/>
<polygon fill="midnightblue" stroke="midnightblue" points="694.919,-76.8187 704.822,-73.0527 694.732,-69.8212 694.919,-76.8187"/>
</g>
<!-- Node32 -->
<g id="node32" class="node"><title>Node32</title>
<g id="a_node32"><a xlink:href="relay_2expr_8h.html" target="_top" xlink:title="Relay expression language. ">
<polygon fill="white" stroke="black" points="687,-772.5 687,-791.5 781,-791.5 781,-772.5 687,-772.5"/>
<text text-anchor="middle" x="734" y="-779.5" font-family="Helvetica,sans-Serif" font-size="10.00">tvm/relay/expr.h</text>
</a>
</g>
</g>
<!-- Node6&#45;&gt;Node32 -->
<g id="edge145" class="edge"><title>Node6&#45;&gt;Node32</title>
<path fill="none" stroke="midnightblue" d="M697.089,-884.265C702.126,-875.362 709.813,-861.045 715,-848 721.109,-832.637 726.239,-814.538 729.623,-801.346"/>
<polygon fill="midnightblue" stroke="midnightblue" points="733.034,-802.133 732.038,-791.585 726.239,-800.452 733.034,-802.133"/>
</g>
<!-- Node39 -->
<g id="node39" class="node"><title>Node39</title>
<g id="a_node39"><a xlink:href="include_2tvm_2ir_2transform_8h.html" target="_top" xlink:title="tvm/ir/transform.h">
<polygon fill="white" stroke="black" points="2163,-828.5 2163,-847.5 2267,-847.5 2267,-828.5 2163,-828.5"/>
<text text-anchor="middle" x="2215" y="-835.5" font-family="Helvetica,sans-Serif" font-size="10.00">tvm/ir/transform.h</text>
</a>
</g>
</g>
<!-- Node6&#45;&gt;Node39 -->
<g id="edge131" class="edge"><title>Node6&#45;&gt;Node39</title>
<path fill="none" stroke="midnightblue" d="M752.865,-892.067C990.206,-888.285 1854.7,-873.127 2152.45,-848.005"/>
<polygon fill="midnightblue" stroke="midnightblue" points="2153.14,-851.458 2162.8,-847.107 2152.54,-844.484 2153.14,-851.458"/>
</g>
<!-- Node43 -->
<g id="node43" class="node"><title>Node43</title>
<g id="a_node43"><a xlink:href="relay_2function_8h.html" target="_top" xlink:title="Relay Function. ">
<polygon fill="white" stroke="black" points="594,-828.5 594,-847.5 706,-847.5 706,-828.5 594,-828.5"/>
<text text-anchor="middle" x="650" y="-835.5" font-family="Helvetica,sans-Serif" font-size="10.00">tvm/relay/function.h</text>
</a>
</g>
</g>
<!-- Node6&#45;&gt;Node43 -->
<g id="edge146" class="edge"><title>Node6&#45;&gt;Node43</title>
<path fill="none" stroke="midnightblue" d="M685.065,-884.083C679.071,-876.377 670.248,-865.033 662.952,-855.653"/>
<polygon fill="midnightblue" stroke="midnightblue" points="665.709,-853.496 656.806,-847.751 660.183,-857.793 665.709,-853.496"/>
</g>
<!-- Node44 -->
<g id="node44" class="node"><title>Node44</title>
<g id="a_node44"><a xlink:href="op__attr__types_8h.html" target="_top" xlink:title="The Expr and related elements in DataFlow construction. ">
<polygon fill="white" stroke="black" points="2005,-828.5 2005,-847.5 2145,-847.5 2145,-828.5 2005,-828.5"/>
<text text-anchor="middle" x="2075" y="-835.5" font-family="Helvetica,sans-Serif" font-size="10.00">tvm/relay/op_attr_types.h</text>
</a>
</g>
</g>
<!-- Node6&#45;&gt;Node44 -->
<g id="edge150" class="edge"><title>Node6&#45;&gt;Node44</title>
<path fill="none" stroke="midnightblue" d="M752.762,-890.628C974.897,-881.954 1743.06,-851.961 1994.58,-842.14"/>
<polygon fill="midnightblue" stroke="midnightblue" points="1994.88,-845.631 2004.74,-841.743 1994.61,-838.636 1994.88,-845.631"/>
</g>
<!-- Node50 -->
<g id="node50" class="node"><title>Node50</title>
<g id="a_node50"><a xlink:href="relay_2op_8h.html" target="_top" xlink:title="Primitive operators(builtin intrinsics). ">
<polygon fill="white" stroke="black" points="787,-828.5 787,-847.5 873,-847.5 873,-828.5 787,-828.5"/>
<text text-anchor="middle" x="830" y="-835.5" font-family="Helvetica,sans-Serif" font-size="10.00">tvm/relay/op.h</text>
</a>
</g>
</g>
<!-- Node6&#45;&gt;Node50 -->
<g id="edge190" class="edge"><title>Node6&#45;&gt;Node50</title>
<path fill="none" stroke="midnightblue" d="M713.867,-884.444C736.779,-875.478 772.975,-861.314 798.866,-851.183"/>
<polygon fill="midnightblue" stroke="midnightblue" points="800.199,-854.42 808.236,-847.516 797.648,-847.901 800.199,-854.42"/>
</g>
<!-- Node8 -->
<g id="node8" class="node"><title>Node8</title>
<g id="a_node8"><a xlink:href="ir_2attrs_8h.html" target="_top" xlink:title="Helpers for attribute objects. ">
<polygon fill="white" stroke="black" points="815.5,-593.5 815.5,-612.5 894.5,-612.5 894.5,-593.5 815.5,-593.5"/>
<text text-anchor="middle" x="855" y="-600.5" font-family="Helvetica,sans-Serif" font-size="10.00">tvm/ir/attrs.h</text>
</a>
</g>
</g>
<!-- Node7&#45;&gt;Node8 -->
<g id="edge7" class="edge"><title>Node7&#45;&gt;Node8</title>
<path fill="none" stroke="midnightblue" d="M510.198,-828.385C521.356,-815.32 543.857,-790.104 566,-772 644.456,-707.853 669.164,-697.769 758,-649 779.996,-636.925 805.805,-625.056 825.269,-616.542"/>
<polygon fill="midnightblue" stroke="midnightblue" points="826.755,-619.713 834.542,-612.529 823.975,-613.289 826.755,-619.713"/>
</g>
<!-- Node7&#45;&gt;Node14 -->
<g id="edge130" class="edge"><title>Node7&#45;&gt;Node14</title>
<path fill="none" stroke="midnightblue" d="M429.75,-835.207C346.171,-829.531 209.516,-808.758 120,-736 90.5532,-712.066 38,-590.951 38,-548 38,-548 38,-548 38,-193.5 38,-157.253 48.3073,-142.282 79,-123 131.462,-90.0421 570.83,-76.4658 694.641,-73.2729"/>
<polygon fill="midnightblue" stroke="midnightblue" points="695.062,-76.7635 704.97,-73.0119 694.885,-69.7657 695.062,-76.7635"/>
</g>
<!-- Node30 -->
<g id="node30" class="node"><title>Node30</title>
<g id="a_node30"><a xlink:href="base_8h.html" target="_top" xlink:title="Base classes for the Relay IR. ">
<polygon fill="white" stroke="black" points="849.5,-655 849.5,-674 946.5,-674 946.5,-655 849.5,-655"/>
<text text-anchor="middle" x="898" y="-662" font-family="Helvetica,sans-Serif" font-size="10.00">tvm/relay/base.h</text>
</a>
</g>
</g>
<!-- Node7&#45;&gt;Node30 -->
<g id="edge77" class="edge"><title>Node7&#45;&gt;Node30</title>
<path fill="none" stroke="midnightblue" d="M514.998,-828.423C545.888,-806.697 631.259,-748.893 710,-716 753.369,-697.883 805.1,-684.547 843.309,-676.143"/>
<polygon fill="midnightblue" stroke="midnightblue" points="844.175,-679.537 853.213,-674.009 842.7,-672.695 844.175,-679.537"/>
</g>
<!-- Node7&#45;&gt;Node32 -->
<g id="edge92" class="edge"><title>Node7&#45;&gt;Node32</title>
<path fill="none" stroke="midnightblue" d="M539.603,-828.444C579.731,-819.063 644.198,-803.993 687.785,-793.804"/>
<polygon fill="midnightblue" stroke="midnightblue" points="688.628,-797.201 697.569,-791.516 687.034,-790.385 688.628,-797.201"/>
</g>
<!-- Node9 -->
<g id="node9" class="node"><title>Node9</title>
<polygon fill="white" stroke="#bfbfbf" points="674.5,-537.5 674.5,-556.5 769.5,-556.5 769.5,-537.5 674.5,-537.5"/>
<text text-anchor="middle" x="722" y="-544.5" font-family="Helvetica,sans-Serif" font-size="10.00">dmlc/common.h</text>
</g>
<!-- Node8&#45;&gt;Node9 -->
<g id="edge8" class="edge"><title>Node8&#45;&gt;Node9</title>
<path fill="none" stroke="midnightblue" d="M833.926,-593.444C811.94,-584.517 777.266,-570.439 752.336,-560.317"/>
<polygon fill="midnightblue" stroke="midnightblue" points="753.558,-557.035 742.976,-556.516 750.924,-563.521 753.558,-557.035"/>
</g>
<!-- Node10 -->
<g id="node10" class="node"><title>Node10</title>
<g id="a_node10"><a xlink:href="ir_2expr_8h.html" target="_top" xlink:title="Base expr nodes in TVM. ">
<polygon fill="white" stroke="black" points="1404.5,-537.5 1404.5,-556.5 1481.5,-556.5 1481.5,-537.5 1404.5,-537.5"/>
<text text-anchor="middle" x="1443" y="-544.5" font-family="Helvetica,sans-Serif" font-size="10.00">tvm/ir/expr.h</text>
</a>
</g>
</g>
<!-- Node8&#45;&gt;Node10 -->
<g id="edge9" class="edge"><title>Node8&#45;&gt;Node10</title>
<path fill="none" stroke="midnightblue" d="M894.953,-598.331C999.352,-588.743 1280.08,-562.962 1393.98,-552.502"/>
<polygon fill="midnightblue" stroke="midnightblue" points="1394.51,-555.968 1404.15,-551.568 1393.87,-548.997 1394.51,-555.968"/>
</g>
<!-- Node13 -->
<g id="node13" class="node"><title>Node13</title>
<polygon fill="white" stroke="#bfbfbf" points="1603,-62 1603,-81 1671,-81 1671,-62 1603,-62"/>
<text text-anchor="middle" x="1637" y="-69" font-family="Helvetica,sans-Serif" font-size="10.00">type_traits</text>
</g>
<!-- Node8&#45;&gt;Node13 -->
<g id="edge74" class="edge"><title>Node8&#45;&gt;Node13</title>
<path fill="none" stroke="midnightblue" d="M855.774,-593.382C857.091,-580.737 860.303,-556.54 867,-537 887.525,-477.115 904.682,-463.414 955,-425 1162.26,-266.773 1217.76,-224.369 1458,-123 1502.46,-104.24 1556.01,-90.1732 1592.89,-81.7132"/>
<polygon fill="midnightblue" stroke="midnightblue" points="1593.84,-85.0869 1602.83,-79.4764 1592.31,-78.2577 1593.84,-85.0869"/>
</g>
<!-- Node8&#45;&gt;Node14 -->
<g id="edge75" class="edge"><title>Node8&#45;&gt;Node14</title>
<path fill="none" stroke="midnightblue" d="M815.315,-601.667C745.494,-598.762 608,-581.659 608,-492 608,-492 608,-492 608,-434 608,-284.359 384.331,-238.889 479,-123 505.879,-90.0964 633.673,-78.0865 694.576,-74.1801"/>
<polygon fill="midnightblue" stroke="midnightblue" points="695.016,-77.6599 704.786,-73.5613 694.593,-70.6727 695.016,-77.6599"/>
</g>
<!-- Node15 -->
<g id="node15" class="node"><title>Node15</title>
<polygon fill="white" stroke="#bfbfbf" points="2785,-62 2785,-81 2827,-81 2827,-62 2785,-62"/>
<text text-anchor="middle" x="2806" y="-69" font-family="Helvetica,sans-Serif" font-size="10.00">utility</text>
</g>
<!-- Node8&#45;&gt;Node15 -->
<g id="edge76" class="edge"><title>Node8&#45;&gt;Node15</title>
<path fill="none" stroke="midnightblue" d="M894.73,-602.021C995.229,-601.461 1267.4,-596.134 1490,-557 1611.52,-535.636 1638.32,-514.746 1757,-481 1988.54,-415.161 2062.11,-439.478 2278,-333 2380.84,-282.278 2383.29,-231.95 2485,-179 2585.23,-126.822 2716.17,-92.908 2775,-79.285"/>
<polygon fill="midnightblue" stroke="midnightblue" points="2775.83,-82.6869 2784.8,-77.051 2774.27,-75.8621 2775.83,-82.6869"/>
</g>
<!-- Node19 -->
<g id="node19" class="node"><title>Node19</title>
<g id="a_node19"><a xlink:href="packed__func_8h.html" target="_top" xlink:title="Type&#45;erased function used across TVM API. ">
<polygon fill="white" stroke="red" points="1551.5,-179.5 1551.5,-209.5 1664.5,-209.5 1664.5,-179.5 1551.5,-179.5"/>
<text text-anchor="start" x="1559.5" y="-197.5" font-family="Helvetica,sans-Serif" font-size="10.00">tvm/runtime/packed</text>
<text text-anchor="middle" x="1608" y="-186.5" font-family="Helvetica,sans-Serif" font-size="10.00">_func.h</text>
</a>
</g>
</g>
<!-- Node8&#45;&gt;Node19 -->
<g id="edge70" class="edge"><title>Node8&#45;&gt;Node19</title>
<path fill="none" stroke="midnightblue" d="M857.538,-593.193C864.015,-571.912 882.878,-516.81 914,-481 943.191,-447.412 957.865,-446.182 997,-425 1187.56,-321.856 1434.36,-244.748 1547.05,-212.332"/>
<polygon fill="midnightblue" stroke="midnightblue" points="1548.23,-215.635 1556.88,-209.52 1546.3,-208.905 1548.23,-215.635"/>
</g>
<!-- Node20 -->
<g id="node20" class="node"><title>Node20</title>
<polygon fill="white" stroke="#bfbfbf" points="635.5,-123.5 635.5,-142.5 698.5,-142.5 698.5,-123.5 635.5,-123.5"/>
<text text-anchor="middle" x="667" y="-130.5" font-family="Helvetica,sans-Serif" font-size="10.00">functional</text>
</g>
<!-- Node8&#45;&gt;Node20 -->
<g id="edge73" class="edge"><title>Node8&#45;&gt;Node20</title>
<path fill="none" stroke="midnightblue" d="M815.165,-597.3C766.017,-590.72 686.326,-577.248 665,-557 643.173,-536.276 646,-522.098 646,-492 646,-492 646,-492 646,-434 646,-374.729 620.089,-360.867 627,-302 633.508,-246.572 651.699,-182.929 661.143,-152.321"/>
<polygon fill="midnightblue" stroke="midnightblue" points="664.534,-153.205 664.189,-142.616 657.855,-151.109 664.534,-153.205"/>
</g>
<!-- Node21 -->
<g id="node21" class="node"><title>Node21</title>
<polygon fill="white" stroke="#bfbfbf" points="2385.5,-123.5 2385.5,-142.5 2432.5,-142.5 2432.5,-123.5 2385.5,-123.5"/>
<text text-anchor="middle" x="2409" y="-130.5" font-family="Helvetica,sans-Serif" font-size="10.00">vector</text>
</g>
<!-- Node8&#45;&gt;Node21 -->
<g id="edge72" class="edge"><title>Node8&#45;&gt;Node21</title>
<path fill="none" stroke="midnightblue" d="M894.526,-595.301C942.544,-587.012 1025.95,-572.134 1097,-557 1628.32,-443.831 1768.42,-421.012 2269,-210 2312.09,-191.838 2359.32,-164.518 2386.44,-148.057"/>
<polygon fill="midnightblue" stroke="midnightblue" points="2388.45,-150.929 2395.15,-142.72 2384.79,-144.96 2388.45,-150.929"/>
</g>
<!-- Node24 -->
<g id="node24" class="node"><title>Node24</title>
<polygon fill="white" stroke="#bfbfbf" points="2494.5,-185 2494.5,-204 2587.5,-204 2587.5,-185 2494.5,-185"/>
<text text-anchor="middle" x="2541" y="-192" font-family="Helvetica,sans-Serif" font-size="10.00">unordered_map</text>
</g>
<!-- Node8&#45;&gt;Node24 -->
<g id="edge71" class="edge"><title>Node8&#45;&gt;Node24</title>
<path fill="none" stroke="midnightblue" d="M890.604,-593.416C1107.79,-541.051 2253.03,-264.931 2495.77,-206.406"/>
<polygon fill="midnightblue" stroke="midnightblue" points="2496.76,-209.767 2505.66,-204.02 2495.12,-202.962 2496.76,-209.767"/>
</g>
<!-- Node25 -->
<g id="node25" class="node"><title>Node25</title>
<g id="a_node25"><a xlink:href="structural__equal_8h.html" target="_top" xlink:title="Structural equality comparison. ">
<polygon fill="white" stroke="red" points="1298.5,-302.5 1298.5,-332.5 1409.5,-332.5 1409.5,-302.5 1298.5,-302.5"/>
<text text-anchor="start" x="1306.5" y="-320.5" font-family="Helvetica,sans-Serif" font-size="10.00">tvm/node/structural</text>
<text text-anchor="middle" x="1354" y="-309.5" font-family="Helvetica,sans-Serif" font-size="10.00">_equal.h</text>
</a>
</g>
</g>
<!-- Node8&#45;&gt;Node25 -->
<g id="edge68" class="edge"><title>Node8&#45;&gt;Node25</title>
<path fill="none" stroke="midnightblue" d="M861.76,-593.166C868.564,-584.186 879.273,-569.811 888,-557 910.493,-523.983 905.166,-506.403 936,-481 993.356,-433.746 1197.6,-366.609 1297.77,-335.516"/>
<polygon fill="midnightblue" stroke="midnightblue" points="1298.9,-338.83 1307.42,-332.532 1296.84,-332.142 1298.9,-338.83"/>
</g>
<!-- Node26 -->
<g id="node26" class="node"><title>Node26</title>
<g id="a_node26"><a xlink:href="structural__hash_8h.html" target="_top" xlink:title="tvm/node/structural\l_hash.h">
<polygon fill="white" stroke="red" points="636.5,-302.5 636.5,-332.5 747.5,-332.5 747.5,-302.5 636.5,-302.5"/>
<text text-anchor="start" x="644.5" y="-320.5" font-family="Helvetica,sans-Serif" font-size="10.00">tvm/node/structural</text>
<text text-anchor="middle" x="692" y="-309.5" font-family="Helvetica,sans-Serif" font-size="10.00">_hash.h</text>
</a>
</g>
</g>
<!-- Node8&#45;&gt;Node26 -->
<g id="edge69" class="edge"><title>Node8&#45;&gt;Node26</title>
<path fill="none" stroke="midnightblue" d="M846.684,-593.413C830.818,-576.699 795.778,-538.166 773,-501 740.192,-447.469 713.262,-378.332 700.315,-342.467"/>
<polygon fill="midnightblue" stroke="midnightblue" points="703.548,-341.114 696.898,-332.866 696.954,-343.461 703.548,-341.114"/>
</g>
<!-- Node11 -->
<g id="node11" class="node"><title>Node11</title>
<g id="a_node11"><a xlink:href="object_8h.html" target="_top" xlink:title="A managed object in the TVM runtime. ">
<polygon fill="white" stroke="red" points="1741.5,-123.5 1741.5,-142.5 1858.5,-142.5 1858.5,-123.5 1741.5,-123.5"/>
<text text-anchor="middle" x="1800" y="-130.5" font-family="Helvetica,sans-Serif" font-size="10.00">tvm/runtime/object.h</text>
</a>
</g>
</g>
<!-- Node10&#45;&gt;Node11 -->
<g id="edge10" class="edge"><title>Node10&#45;&gt;Node11</title>
<path fill="none" stroke="midnightblue" d="M1481.75,-540.038C1521.89,-533.189 1586.04,-520.342 1639,-501 1847.88,-424.721 1948.97,-410.084 2046,-210 2052.01,-197.603 2054.82,-189.583 2046,-179 2023.8,-152.37 1933.56,-141.453 1868.81,-137.008"/>
<polygon fill="midnightblue" stroke="midnightblue" points="1868.86,-133.503 1858.65,-136.348 1868.4,-140.489 1868.86,-133.503"/>
</g>
<!-- Node10&#45;&gt;Node13 -->
<g id="edge67" class="edge"><title>Node10&#45;&gt;Node13</title>
<path fill="none" stroke="midnightblue" d="M1429.96,-537.495C1384.74,-506.893 1240.06,-399.063 1289,-302 1352.3,-176.451 1519.94,-109.285 1597.1,-84.1952"/>
<polygon fill="midnightblue" stroke="midnightblue" points="1598.46,-87.4355 1606.93,-81.0688 1596.34,-80.7649 1598.46,-87.4355"/>
</g>
<!-- Node10&#45;&gt;Node14 -->
<g id="edge64" class="edge"><title>Node10&#45;&gt;Node14</title>
<path fill="none" stroke="midnightblue" d="M1404.19,-542.437C1363.5,-537.496 1298.55,-526.141 1248,-501 1187.62,-470.972 1053.47,-380.901 977,-266 939.857,-210.19 978.237,-168.499 929,-123 881.909,-79.4838 803.1,-72.0263 759.133,-71.5502"/>
<polygon fill="midnightblue" stroke="midnightblue" points="759.002,-68.0503 749.005,-71.5586 759.008,-75.0503 759.002,-68.0503"/>
</g>
<!-- Node16 -->
<g id="node16" class="node"><title>Node16</title>
<g id="a_node16"><a xlink:href="node_8h.html" target="_top" xlink:title="Definitions and helper macros for IR/AST nodes. ">
<polygon fill="white" stroke="red" points="1541,-369.5 1541,-388.5 1639,-388.5 1639,-369.5 1541,-369.5"/>
<text text-anchor="middle" x="1590" y="-376.5" font-family="Helvetica,sans-Serif" font-size="10.00">tvm/node/node.h</text>
</a>
</g>
</g>
<!-- Node10&#45;&gt;Node16 -->
<g id="edge16" class="edge"><title>Node10&#45;&gt;Node16</title>
<path fill="none" stroke="midnightblue" d="M1450.9,-537.075C1474.54,-510.38 1544.96,-430.865 1575.55,-396.322"/>
<polygon fill="midnightblue" stroke="midnightblue" points="1578.4,-398.375 1582.41,-388.568 1573.16,-393.734 1578.4,-398.375"/>
</g>
<!-- Node18 -->
<g id="node18" class="node"><title>Node18</title>
<g id="a_node18"><a xlink:href="node_2container_8h.html" target="_top" xlink:title="Array/Map container in the DSL graph. ">
<polygon fill="white" stroke="black" points="1824.5,-246.5 1824.5,-265.5 1943.5,-265.5 1943.5,-246.5 1824.5,-246.5"/>
<text text-anchor="middle" x="1884" y="-253.5" font-family="Helvetica,sans-Serif" font-size="10.00">tvm/node/container.h</text>
</a>
</g>
</g>
<!-- Node10&#45;&gt;Node18 -->
<g id="edge53" class="edge"><title>Node10&#45;&gt;Node18</title>
<path fill="none" stroke="midnightblue" d="M1481.59,-538.768C1514.97,-531.689 1564.01,-519.286 1604,-501 1721.75,-447.154 1758.89,-432.283 1842,-333 1856.92,-315.173 1869.11,-291.243 1876.44,-275.034"/>
<polygon fill="midnightblue" stroke="midnightblue" points="1879.75,-276.204 1880.53,-265.638 1873.33,-273.406 1879.75,-276.204"/>
</g>
<!-- Node22 -->
<g id="node22" class="node"><title>Node22</title>
<polygon fill="white" stroke="#bfbfbf" points="1035,-123.5 1035,-142.5 1077,-142.5 1077,-123.5 1035,-123.5"/>
<text text-anchor="middle" x="1056" y="-130.5" font-family="Helvetica,sans-Serif" font-size="10.00">limits</text>
</g>
<!-- Node10&#45;&gt;Node22 -->
<g id="edge66" class="edge"><title>Node10&#45;&gt;Node22</title>
<path fill="none" stroke="midnightblue" d="M1404.43,-538.861C1352.46,-527.428 1259.8,-500.416 1202,-445 1111.95,-358.661 1071.59,-205.809 1059.83,-152.758"/>
<polygon fill="midnightblue" stroke="midnightblue" points="1063.21,-151.807 1057.7,-142.758 1056.36,-153.268 1063.21,-151.807"/>
</g>
<!-- Node27 -->
<g id="node27" class="node"><title>Node27</title>
<g id="a_node27"><a xlink:href="span_8h.html" target="_top" xlink:title="Span information for debugging purposes. ">
<polygon fill="white" stroke="black" points="1368,-425.5 1368,-444.5 1448,-444.5 1448,-425.5 1368,-425.5"/>
<text text-anchor="middle" x="1408" y="-432.5" font-family="Helvetica,sans-Serif" font-size="10.00">tvm/ir/span.h</text>
</a>
</g>
</g>
<!-- Node10&#45;&gt;Node27 -->
<g id="edge54" class="edge"><title>Node10&#45;&gt;Node27</title>
<path fill="none" stroke="midnightblue" d="M1440.25,-537.368C1434.58,-519.537 1421.46,-478.295 1413.81,-454.272"/>
<polygon fill="midnightblue" stroke="midnightblue" points="1417.1,-453.059 1410.73,-444.591 1410.43,-455.182 1417.1,-453.059"/>
</g>
<!-- Node28 -->
<g id="node28" class="node"><title>Node28</title>
<g id="a_node28"><a xlink:href="ir_2type_8h.html" target="_top" xlink:title="IR/AST nodes for the unified type system in TVM. ">
<polygon fill="white" stroke="red" points="1518.5,-481.5 1518.5,-500.5 1595.5,-500.5 1595.5,-481.5 1518.5,-481.5"/>
<text text-anchor="middle" x="1557" y="-488.5" font-family="Helvetica,sans-Serif" font-size="10.00">tvm/ir/type.h</text>
</a>
</g>
</g>
<!-- Node10&#45;&gt;Node28 -->
<g id="edge58" class="edge"><title>Node10&#45;&gt;Node28</title>
<path fill="none" stroke="midnightblue" d="M1461.06,-537.444C1479.57,-528.675 1508.58,-514.935 1529.86,-504.858"/>
<polygon fill="midnightblue" stroke="midnightblue" points="1531.48,-507.96 1539.02,-500.516 1528.49,-501.634 1531.48,-507.96"/>
</g>
<!-- Node29 -->
<g id="node29" class="node"><title>Node29</title>
<polygon fill="white" stroke="#bfbfbf" points="1766,-481.5 1766,-500.5 1828,-500.5 1828,-481.5 1766,-481.5"/>
<text text-anchor="middle" x="1797" y="-488.5" font-family="Helvetica,sans-Serif" font-size="10.00">algorithm</text>
</g>
<!-- Node10&#45;&gt;Node29 -->
<g id="edge65" class="edge"><title>Node10&#45;&gt;Node29</title>
<path fill="none" stroke="midnightblue" d="M1481.56,-540.118C1548.71,-529.874 1686.56,-508.847 1755.63,-498.31"/>
<polygon fill="midnightblue" stroke="midnightblue" points="1756.35,-501.741 1765.71,-496.773 1755.3,-494.821 1756.35,-501.741"/>
</g>
<!-- Node11&#45;&gt;Node2 -->
<g id="edge12" class="edge"><title>Node11&#45;&gt;Node2</title>
<path fill="none" stroke="midnightblue" d="M1754.87,-123.475C1703.62,-113.796 1619.26,-97.861 1558.49,-86.3821"/>
<polygon fill="midnightblue" stroke="midnightblue" points="1559.05,-82.9252 1548.57,-84.5083 1557.75,-89.8036 1559.05,-82.9252"/>
</g>
<!-- Node12 -->
<g id="node12" class="node"><title>Node12</title>
<polygon fill="white" stroke="#bfbfbf" points="1757,-62 1757,-81 1843,-81 1843,-62 1757,-62"/>
<text text-anchor="middle" x="1800" y="-69" font-family="Helvetica,sans-Serif" font-size="10.00">dmlc/logging.h</text>
</g>
<!-- Node11&#45;&gt;Node12 -->
<g id="edge11" class="edge"><title>Node11&#45;&gt;Node12</title>
<path fill="none" stroke="midnightblue" d="M1800,-123.475C1800,-115.08 1800,-101.981 1800,-91.1631"/>
<polygon fill="midnightblue" stroke="midnightblue" points="1803.5,-91.0091 1800,-81.0091 1796.5,-91.0091 1803.5,-91.0091"/>
</g>
<!-- Node11&#45;&gt;Node13 -->
<g id="edge13" class="edge"><title>Node11&#45;&gt;Node13</title>
<path fill="none" stroke="midnightblue" d="M1776.65,-123.475C1748.69,-113.269 1701.67,-96.108 1670.01,-84.5492"/>
<polygon fill="midnightblue" stroke="midnightblue" points="1670.9,-81.1503 1660.31,-81.0091 1668.5,-87.7259 1670.9,-81.1503"/>
</g>
<!-- Node11&#45;&gt;Node14 -->
<g id="edge14" class="edge"><title>Node11&#45;&gt;Node14</title>
<path fill="none" stroke="midnightblue" d="M1741.17,-128.738C1544.03,-117.806 910.693,-82.6862 759.592,-74.3073"/>
<polygon fill="midnightblue" stroke="midnightblue" points="759.347,-70.7884 749.168,-73.7293 758.959,-77.7777 759.347,-70.7884"/>
</g>
<!-- Node11&#45;&gt;Node15 -->
<g id="edge15" class="edge"><title>Node11&#45;&gt;Node15</title>
<path fill="none" stroke="midnightblue" d="M1858.8,-128.522C2047.22,-117.378 2631.91,-82.7968 2774.43,-74.3671"/>
<polygon fill="midnightblue" stroke="midnightblue" points="2774.88,-77.8468 2784.66,-73.7624 2774.47,-70.859 2774.88,-77.8468"/>
</g>
<!-- Node16&#45;&gt;Node2 -->
<g id="edge17" class="edge"><title>Node16&#45;&gt;Node2</title>
<path fill="none" stroke="midnightblue" d="M1578.27,-369.306C1567.99,-361.071 1553.41,-347.792 1545,-333 1500.31,-254.397 1488.89,-144.559 1485.99,-96.5522"/>
<polygon fill="midnightblue" stroke="midnightblue" points="1489.48,-96.3027 1485.45,-86.5033 1482.49,-96.6755 1489.48,-96.3027"/>
</g>
<!-- Node16&#45;&gt;Node11 -->
<g id="edge18" class="edge"><title>Node16&#45;&gt;Node11</title>
<path fill="none" stroke="midnightblue" d="M1591.06,-369.391C1593.21,-354.606 1599.09,-323.87 1613,-302 1624.99,-283.144 1737.48,-186.937 1781.99,-149.209"/>
<polygon fill="midnightblue" stroke="midnightblue" points="1784.33,-151.811 1789.71,-142.679 1779.81,-146.468 1784.33,-151.811"/>
</g>
<!-- Node16&#45;&gt;Node13 -->
<g id="edge52" class="edge"><title>Node16&#45;&gt;Node13</title>
<path fill="none" stroke="midnightblue" d="M1584.28,-369.479C1566.71,-342.311 1515.45,-255.049 1528,-179 1532.28,-153.068 1530.2,-143.215 1547,-123 1561.33,-105.749 1583.17,-93.2945 1601.74,-85.07"/>
<polygon fill="midnightblue" stroke="midnightblue" points="1603.23,-88.2423 1611.1,-81.1517 1600.52,-81.7854 1603.23,-88.2423"/>
</g>
<!-- Node16&#45;&gt;Node14 -->
<g id="edge49" class="edge"><title>Node16&#45;&gt;Node14</title>
<path fill="none" stroke="midnightblue" d="M1540.71,-375.581C1466.26,-371.115 1329.52,-359.491 1289,-333 1196.73,-272.676 1250.21,-181.863 1157,-123 1090.81,-81.197 847.62,-73.9878 759.314,-72.7525"/>
<polygon fill="midnightblue" stroke="midnightblue" points="759.14,-69.2502 749.097,-72.627 759.054,-76.2497 759.14,-69.2502"/>
</g>
<!-- Node16&#45;&gt;Node15 -->
<g id="edge51" class="edge"><title>Node16&#45;&gt;Node15</title>
<path fill="none" stroke="midnightblue" d="M1618.7,-369.388C1680.04,-350.927 1828.37,-305.966 1952,-266 2141.23,-204.827 2181.97,-166.613 2376,-123 2522.83,-89.996 2703.02,-77.7268 2774.57,-73.9471"/>
<polygon fill="midnightblue" stroke="midnightblue" points="2774.9,-77.4348 2784.71,-73.4304 2774.54,-70.4439 2774.9,-77.4348"/>
</g>
<!-- Node17 -->
<g id="node17" class="node"><title>Node17</title>
<g id="a_node17"><a xlink:href="runtime_2memory_8h.html" target="_top" xlink:title="Runtime memory management. ">
<polygon fill="white" stroke="red" points="1797.5,-185 1797.5,-204 1924.5,-204 1924.5,-185 1797.5,-185"/>
<text text-anchor="middle" x="1861" y="-192" font-family="Helvetica,sans-Serif" font-size="10.00">tvm/runtime/memory.h</text>
</a>
</g>
</g>
<!-- Node16&#45;&gt;Node17 -->
<g id="edge19" class="edge"><title>Node16&#45;&gt;Node17</title>
<path fill="none" stroke="midnightblue" d="M1594.12,-369.414C1601.84,-354.114 1619.78,-321.879 1643,-302 1697.85,-255.036 1776.99,-223.214 1823.3,-207.314"/>
<polygon fill="midnightblue" stroke="midnightblue" points="1824.58,-210.577 1832.94,-204.072 1822.34,-203.942 1824.58,-210.577"/>
</g>
<!-- Node16&#45;&gt;Node18 -->
<g id="edge23" class="edge"><title>Node16&#45;&gt;Node18</title>
<path fill="none" stroke="midnightblue" d="M1600.06,-369.477C1621.32,-351.62 1670.46,-311.174 1690,-302 1729.07,-283.658 1776.17,-272.503 1814.18,-265.888"/>
<polygon fill="midnightblue" stroke="midnightblue" points="1814.85,-269.324 1824.14,-264.222 1813.7,-262.42 1814.85,-269.324"/>
</g>
<!-- Node16&#45;&gt;Node21 -->
<g id="edge50" class="edge"><title>Node16&#45;&gt;Node21</title>
<path fill="none" stroke="midnightblue" d="M1626.85,-369.472C1723.69,-346.755 1992.99,-281.607 2212,-210 2272.29,-190.287 2341.08,-162.501 2379.34,-146.561"/>
<polygon fill="midnightblue" stroke="midnightblue" points="2380.96,-149.676 2388.83,-142.586 2378.26,-143.219 2380.96,-149.676"/>
</g>
<!-- Node16&#45;&gt;Node25 -->
<g id="edge42" class="edge"><title>Node16&#45;&gt;Node25</title>
<path fill="none" stroke="midnightblue" d="M1556.19,-369.475C1520.64,-360.513 1463.82,-346.188 1419.46,-335.003"/>
<polygon fill="midnightblue" stroke="midnightblue" points="1420.17,-331.574 1409.62,-332.523 1418.46,-338.362 1420.17,-331.574"/>
</g>
<!-- Node16&#45;&gt;Node26 -->
<g id="edge45" class="edge"><title>Node16&#45;&gt;Node26</title>
<path fill="none" stroke="midnightblue" d="M1540.76,-374.738C1389.23,-364.697 929.771,-334.254 757.858,-322.864"/>
<polygon fill="midnightblue" stroke="midnightblue" points="757.896,-319.359 747.687,-322.19 757.433,-326.343 757.896,-319.359"/>
</g>
<!-- Node17&#45;&gt;Node11 -->
<g id="edge20" class="edge"><title>Node17&#45;&gt;Node11</title>
<path fill="none" stroke="midnightblue" d="M1852.26,-184.975C1842.84,-175.785 1827.64,-160.956 1816.05,-149.656"/>
<polygon fill="midnightblue" stroke="midnightblue" points="1818.33,-146.986 1808.72,-142.509 1813.44,-151.997 1818.33,-146.986"/>
</g>
<!-- Node17&#45;&gt;Node13 -->
<g id="edge22" class="edge"><title>Node17&#45;&gt;Node13</title>
<path fill="none" stroke="midnightblue" d="M1865.31,-184.563C1871.66,-169.953 1881.32,-140.804 1867,-123 1855.38,-108.553 1744.74,-89.2234 1681.25,-79.185"/>
<polygon fill="midnightblue" stroke="midnightblue" points="1681.53,-75.6864 1671.11,-77.5974 1680.45,-82.6021 1681.53,-75.6864"/>
</g>
<!-- Node17&#45;&gt;Node15 -->
<g id="edge21" class="edge"><title>Node17&#45;&gt;Node15</title>
<path fill="none" stroke="midnightblue" d="M1885.01,-184.929C1928.98,-169.629 2025.71,-137.832 2110,-123 2363.59,-78.3799 2675.83,-73.0408 2774.55,-72.5141"/>
<polygon fill="midnightblue" stroke="midnightblue" points="2774.75,-76.0135 2784.74,-72.4734 2774.72,-69.0135 2774.75,-76.0135"/>
</g>
<!-- Node18&#45;&gt;Node11 -->
<g id="edge24" class="edge"><title>Node18&#45;&gt;Node11</title>
<path fill="none" stroke="midnightblue" d="M1937.83,-246.485C1990.06,-235.932 2057.44,-214.815 2028,-179 2008.11,-154.802 1928.48,-143.403 1868.88,-138.179"/>
<polygon fill="midnightblue" stroke="midnightblue" points="1869.02,-134.678 1858.76,-137.333 1868.43,-141.654 1869.02,-134.678"/>
</g>
<!-- Node18&#45;&gt;Node13 -->
<g id="edge36" class="edge"><title>Node18&#45;&gt;Node13</title>
<path fill="none" stroke="midnightblue" d="M1824.14,-247.625C1726.7,-235.552 1544.31,-212.638 1542,-210 1505.51,-168.398 1576.11,-112.472 1614.49,-86.6508"/>
<polygon fill="midnightblue" stroke="midnightblue" points="1616.6,-89.4586 1623.03,-81.0441 1612.75,-83.6073 1616.6,-89.4586"/>
</g>
<!-- Node18&#45;&gt;Node14 -->
<g id="edge41" class="edge"><title>Node18&#45;&gt;Node14</title>
<path fill="none" stroke="midnightblue" d="M1824.27,-247.69C1724.73,-235.475 1535.05,-212.042 1528,-210 1460.59,-190.472 1447.85,-174.242 1385,-143 1367.91,-134.505 1365.33,-128.327 1347,-123 1234.97,-90.4368 870.426,-76.868 759.391,-73.4264"/>
<polygon fill="midnightblue" stroke="midnightblue" points="759.263,-69.921 749.161,-73.116 759.05,-76.9178 759.263,-69.921"/>
</g>
<!-- Node18&#45;&gt;Node15 -->
<g id="edge40" class="edge"><title>Node18&#45;&gt;Node15</title>
<path fill="none" stroke="midnightblue" d="M1927.44,-246.472C1960.74,-239.101 2007.38,-226.948 2046,-210 2113.08,-180.565 2116.43,-145.951 2186,-123 2297.16,-86.3279 2664.65,-75.5516 2774.63,-73.1105"/>
<polygon fill="midnightblue" stroke="midnightblue" points="2774.82,-76.6073 2784.74,-72.8937 2774.67,-69.6089 2774.82,-76.6073"/>
</g>
<!-- Node18&#45;&gt;Node17 -->
<g id="edge25" class="edge"><title>Node18&#45;&gt;Node17</title>
<path fill="none" stroke="midnightblue" d="M1880.7,-246.475C1877.39,-237.904 1872.18,-224.427 1867.95,-213.483"/>
<polygon fill="midnightblue" stroke="midnightblue" points="1871.16,-212.075 1864.29,-204.009 1864.63,-214.598 1871.16,-212.075"/>
</g>
<!-- Node18&#45;&gt;Node19 -->
<g id="edge26" class="edge"><title>Node18&#45;&gt;Node19</title>
<path fill="none" stroke="midnightblue" d="M1844.46,-246.475C1800.21,-236.936 1727.78,-221.321 1674.72,-209.884"/>
<polygon fill="midnightblue" stroke="midnightblue" points="1675.23,-206.413 1664.72,-207.727 1673.75,-213.256 1675.23,-206.413"/>
</g>
<!-- Node18&#45;&gt;Node21 -->
<g id="edge37" class="edge"><title>Node18&#45;&gt;Node21</title>
<path fill="none" stroke="midnightblue" d="M1941.32,-246.491C1993.01,-238.427 2070.98,-225.296 2138,-210 2224.46,-190.267 2324.54,-160.314 2375.47,-144.55"/>
<polygon fill="midnightblue" stroke="midnightblue" points="2376.77,-147.813 2385.28,-141.503 2374.69,-141.129 2376.77,-147.813"/>
</g>
<!-- Node23 -->
<g id="node23" class="node"><title>Node23</title>
<polygon fill="white" stroke="#bfbfbf" points="1942.5,-185 1942.5,-204 2019.5,-204 2019.5,-185 1942.5,-185"/>
<text text-anchor="middle" x="1981" y="-192" font-family="Helvetica,sans-Serif" font-size="10.00">initializer_list</text>
</g>
<!-- Node18&#45;&gt;Node23 -->
<g id="edge38" class="edge"><title>Node18&#45;&gt;Node23</title>
<path fill="none" stroke="midnightblue" d="M1897.9,-246.475C1913.67,-236.799 1939.64,-220.872 1958.35,-209.394"/>
<polygon fill="midnightblue" stroke="midnightblue" points="1960.43,-212.221 1967.13,-204.009 1956.77,-206.254 1960.43,-212.221"/>
</g>
<!-- Node18&#45;&gt;Node24 -->
<g id="edge39" class="edge"><title>Node18&#45;&gt;Node24</title>
<path fill="none" stroke="midnightblue" d="M1943.75,-249.588C2069.75,-238.178 2361.15,-211.787 2484.36,-200.629"/>
<polygon fill="midnightblue" stroke="midnightblue" points="2484.71,-204.113 2494.35,-199.725 2484.07,-197.141 2484.71,-204.113"/>
</g>
<!-- Node19&#45;&gt;Node2 -->
<g id="edge28" class="edge"><title>Node19&#45;&gt;Node2</title>
<path fill="none" stroke="midnightblue" d="M1593.41,-179.145C1571.95,-158.04 1531.75,-118.492 1506.79,-93.9384"/>
<polygon fill="midnightblue" stroke="midnightblue" points="1509.16,-91.3546 1499.57,-86.8368 1504.25,-96.3448 1509.16,-91.3546"/>
</g>
<!-- Node19&#45;&gt;Node11 -->
<g id="edge29" class="edge"><title>Node19&#45;&gt;Node11</title>
<path fill="none" stroke="midnightblue" d="M1653.5,-179.399C1686.82,-169.073 1731.49,-155.231 1762.71,-145.556"/>
<polygon fill="midnightblue" stroke="midnightblue" points="1763.83,-148.874 1772.34,-142.571 1761.75,-142.188 1763.83,-148.874"/>
</g>
<!-- Node19&#45;&gt;Node12 -->
<g id="edge27" class="edge"><title>Node19&#45;&gt;Node12</title>
<path fill="none" stroke="midnightblue" d="M1624.06,-179.489C1641.71,-164.474 1671.26,-140.449 1699,-123 1722.21,-108.404 1750.2,-94.6844 1770.83,-85.2395"/>
<polygon fill="midnightblue" stroke="midnightblue" points="1772.35,-88.3925 1780.02,-81.0873 1769.47,-82.0127 1772.35,-88.3925"/>
</g>
<!-- Node19&#45;&gt;Node13 -->
<g id="edge35" class="edge"><title>Node19&#45;&gt;Node13</title>
<path fill="none" stroke="midnightblue" d="M1611.44,-179.145C1616.7,-157.203 1626.74,-115.327 1632.54,-91.0906"/>
<polygon fill="midnightblue" stroke="midnightblue" points="1636.02,-91.5925 1634.95,-81.0522 1629.22,-89.961 1636.02,-91.5925"/>
</g>
<!-- Node19&#45;&gt;Node14 -->
<g id="edge32" class="edge"><title>Node19&#45;&gt;Node14</title>
<path fill="none" stroke="midnightblue" d="M1572.35,-179.423C1528.87,-162.912 1452.77,-136.131 1385,-123 1148.08,-77.0919 855.581,-72.5415 759.349,-72.3705"/>
<polygon fill="midnightblue" stroke="midnightblue" points="759.113,-68.8706 749.112,-72.3681 759.111,-75.8706 759.113,-68.8706"/>
</g>
<!-- Node19&#45;&gt;Node15 -->
<g id="edge34" class="edge"><title>Node19&#45;&gt;Node15</title>
<path fill="none" stroke="midnightblue" d="M1634.04,-179.395C1652.32,-169.409 1677.28,-155.604 1699,-143 1713.83,-134.393 1715.6,-128.001 1732,-123 1833.99,-91.9057 2609.45,-76.0883 2774.98,-73.0472"/>
<polygon fill="midnightblue" stroke="midnightblue" points="2775.05,-76.5465 2784.98,-72.8653 2774.92,-69.5477 2775.05,-76.5465"/>
</g>
<!-- Node19&#45;&gt;Node20 -->
<g id="edge30" class="edge"><title>Node19&#45;&gt;Node20</title>
<path fill="none" stroke="midnightblue" d="M1551.26,-189.912C1378.38,-178.981 860.839,-146.257 709.194,-136.668"/>
<polygon fill="midnightblue" stroke="midnightblue" points="709.118,-133.156 698.917,-136.018 708.676,-140.142 709.118,-133.156"/>
</g>
<!-- Node19&#45;&gt;Node21 -->
<g id="edge31" class="edge"><title>Node19&#45;&gt;Node21</title>
<path fill="none" stroke="midnightblue" d="M1664.74,-188.812C1700.17,-185.913 1746.74,-182.157 1788,-179 2012.17,-161.849 2281.99,-142.864 2375.31,-136.345"/>
<polygon fill="midnightblue" stroke="midnightblue" points="2375.57,-139.836 2385.31,-135.648 2375.09,-132.853 2375.57,-139.836"/>
</g>
<!-- Node19&#45;&gt;Node22 -->
<g id="edge33" class="edge"><title>Node19&#45;&gt;Node22</title>
<path fill="none" stroke="midnightblue" d="M1551.26,-187.384C1435.73,-174.931 1176.56,-146.995 1087.08,-137.35"/>
<polygon fill="midnightblue" stroke="midnightblue" points="1087.35,-133.859 1077.03,-136.267 1086.6,-140.818 1087.35,-133.859"/>
</g>
<!-- Node25&#45;&gt;Node14 -->
<g id="edge44" class="edge"><title>Node25&#45;&gt;Node14</title>
<path fill="none" stroke="midnightblue" d="M1344.53,-302.396C1316.82,-261.56 1235.27,-144.748 1195,-123 1119.44,-82.187 852.492,-74.3499 759.351,-72.8519"/>
<polygon fill="midnightblue" stroke="midnightblue" points="759.178,-69.3491 749.128,-72.7021 759.075,-76.3483 759.178,-69.3491"/>
</g>
<!-- Node25&#45;&gt;Node18 -->
<g id="edge43" class="edge"><title>Node25&#45;&gt;Node18</title>
<path fill="none" stroke="midnightblue" d="M1409.72,-310.245C1507.04,-299.319 1707.76,-276.786 1814.19,-264.837"/>
<polygon fill="midnightblue" stroke="midnightblue" points="1814.64,-268.309 1824.19,-263.715 1813.86,-261.352 1814.64,-268.309"/>
</g>
<!-- Node26&#45;&gt;Node14 -->
<g id="edge47" class="edge"><title>Node26&#45;&gt;Node14</title>
<path fill="none" stroke="midnightblue" d="M694.033,-302.327C700.017,-260.607 717.572,-138.228 724.317,-91.2029"/>
<polygon fill="midnightblue" stroke="midnightblue" points="727.797,-91.591 725.753,-81.1953 720.868,-90.597 727.797,-91.591"/>
</g>
<!-- Node26&#45;&gt;Node18 -->
<g id="edge46" class="edge"><title>Node26&#45;&gt;Node18</title>
<path fill="none" stroke="midnightblue" d="M747.894,-313.71C943.644,-303.939 1598.06,-271.273 1814.12,-260.488"/>
<polygon fill="midnightblue" stroke="midnightblue" points="1814.56,-263.97 1824.38,-259.976 1814.21,-256.979 1814.56,-263.97"/>
</g>
<!-- Node26&#45;&gt;Node20 -->
<g id="edge48" class="edge"><title>Node26&#45;&gt;Node20</title>
<path fill="none" stroke="midnightblue" d="M690.08,-302.483C685.643,-270.097 674.676,-190.037 669.625,-153.159"/>
<polygon fill="midnightblue" stroke="midnightblue" points="673.033,-152.251 668.208,-142.819 666.098,-153.201 673.033,-152.251"/>
</g>
<!-- Node27&#45;&gt;Node11 -->
<g id="edge55" class="edge"><title>Node27&#45;&gt;Node11</title>
<path fill="none" stroke="midnightblue" d="M1418.14,-425.488C1453.41,-395.861 1574.01,-294.454 1673,-210 1689.06,-196.296 1691.4,-190.661 1709,-179 1728.18,-166.294 1751.46,-154.845 1769.67,-146.675"/>
<polygon fill="midnightblue" stroke="midnightblue" points="1771.2,-149.827 1778.95,-142.6 1768.39,-143.418 1771.2,-149.827"/>
</g>
<!-- Node27&#45;&gt;Node14 -->
<g id="edge57" class="edge"><title>Node27&#45;&gt;Node14</title>
<path fill="none" stroke="midnightblue" d="M1367.94,-425.596C1318.04,-413.24 1232.91,-385.705 1180,-333 1161.89,-314.958 1106.43,-138.366 1086,-123 1034.84,-84.5196 838.287,-75.3069 759.724,-73.1459"/>
<polygon fill="midnightblue" stroke="midnightblue" points="759.535,-69.6401 749.449,-72.8855 759.357,-76.6379 759.535,-69.6401"/>
</g>
<!-- Node27&#45;&gt;Node16 -->
<g id="edge56" class="edge"><title>Node27&#45;&gt;Node16</title>
<path fill="none" stroke="midnightblue" d="M1436.84,-425.444C1467.86,-416.241 1517.33,-401.562 1551.62,-391.388"/>
<polygon fill="midnightblue" stroke="midnightblue" points="1552.71,-394.716 1561.3,-388.516 1550.71,-388.006 1552.71,-394.716"/>
</g>
<!-- Node28&#45;&gt;Node11 -->
<g id="edge59" class="edge"><title>Node28&#45;&gt;Node11</title>
<path fill="none" stroke="midnightblue" d="M1565.91,-481.321C1582.97,-464.45 1620.96,-425.661 1648,-389 1709.89,-305.08 1768.89,-194.536 1790.92,-151.866"/>
<polygon fill="midnightblue" stroke="midnightblue" points="1794.14,-153.243 1795.59,-142.748 1787.91,-150.05 1794.14,-153.243"/>
</g>
<!-- Node28&#45;&gt;Node14 -->
<g id="edge63" class="edge"><title>Node28&#45;&gt;Node14</title>
<path fill="none" stroke="midnightblue" d="M1545.06,-481.368C1526.67,-468.281 1490.09,-443.038 1457,-425 1369.32,-377.2 1328.76,-396.888 1252,-333 1164.83,-260.44 1203.73,-182.216 1107,-123 1048.87,-87.4187 840.541,-76.4473 759.54,-73.4821"/>
<polygon fill="midnightblue" stroke="midnightblue" points="759.54,-69.9801 749.424,-73.1297 759.296,-76.9759 759.54,-69.9801"/>
</g>
<!-- Node28&#45;&gt;Node16 -->
<g id="edge60" class="edge"><title>Node28&#45;&gt;Node16</title>
<path fill="none" stroke="midnightblue" d="M1559.59,-481.368C1564.94,-463.537 1577.31,-422.295 1584.52,-398.272"/>
<polygon fill="midnightblue" stroke="midnightblue" points="1587.9,-399.175 1587.42,-388.591 1581.2,-397.164 1587.9,-399.175"/>
</g>
<!-- Node28&#45;&gt;Node18 -->
<g id="edge61" class="edge"><title>Node28&#45;&gt;Node18</title>
<path fill="none" stroke="midnightblue" d="M1573.31,-481.407C1590.44,-472.377 1618.14,-457.74 1642,-445 1688.31,-420.274 1703.54,-419.867 1746,-389 1795.85,-352.764 1846.06,-299.556 1869.83,-273.128"/>
<polygon fill="midnightblue" stroke="midnightblue" points="1872.55,-275.339 1876.59,-265.544 1867.32,-270.684 1872.55,-275.339"/>
</g>
<!-- Node28&#45;&gt;Node27 -->
<g id="edge62" class="edge"><title>Node28&#45;&gt;Node27</title>
<path fill="none" stroke="midnightblue" d="M1533.39,-481.444C1508.54,-472.438 1469.23,-458.189 1441.25,-448.049"/>
<polygon fill="midnightblue" stroke="midnightblue" points="1442.09,-444.633 1431.5,-444.516 1439.71,-451.214 1442.09,-444.633"/>
</g>
<!-- Node30&#45;&gt;Node14 -->
<g id="edge90" class="edge"><title>Node30&#45;&gt;Node14</title>
<path fill="none" stroke="midnightblue" d="M849.257,-660.378C760.547,-654.146 576.478,-638.527 518,-613 461.44,-588.31 304,-497.714 304,-436 304,-436 304,-436 304,-193.5 304,-160.401 302.352,-143.923 328,-123 383.971,-77.3402 610.096,-72.499 694.775,-72.3216"/>
<polygon fill="midnightblue" stroke="midnightblue" points="694.84,-75.8217 704.84,-72.3216 694.84,-68.8217 694.84,-75.8217"/>
</g>
<!-- Node30&#45;&gt;Node16 -->
<g id="edge89" class="edge"><title>Node30&#45;&gt;Node16</title>
<path fill="none" stroke="midnightblue" d="M910.9,-654.875C963.776,-619.957 1170.07,-487.955 1359,-425 1415.88,-406.048 1483.44,-394.037 1530.76,-387.238"/>
<polygon fill="midnightblue" stroke="midnightblue" points="1531.42,-390.68 1540.84,-385.824 1530.45,-383.747 1531.42,-390.68"/>
</g>
<!-- Node30&#45;&gt;Node21 -->
<g id="edge91" class="edge"><title>Node30&#45;&gt;Node21</title>
<path fill="none" stroke="midnightblue" d="M926.465,-654.984C935.506,-652.624 945.599,-650.343 955,-649 1069.13,-632.695 1888.04,-662.848 1992,-613 2221.6,-502.908 2194.88,-367.554 2366,-179 2374.92,-169.177 2385.17,-158.426 2393.43,-149.897"/>
<polygon fill="midnightblue" stroke="midnightblue" points="2396.16,-152.11 2400.62,-142.503 2391.14,-147.228 2396.16,-152.11"/>
</g>
<!-- Node30&#45;&gt;Node27 -->
<g id="edge78" class="edge"><title>Node30&#45;&gt;Node27</title>
<path fill="none" stroke="midnightblue" d="M917.062,-654.997C994.616,-620.402 1286.71,-490.105 1379.51,-448.708"/>
<polygon fill="midnightblue" stroke="midnightblue" points="1381.14,-451.816 1388.84,-444.546 1378.28,-445.423 1381.14,-451.816"/>
</g>
<!-- Node31 -->
<g id="node31" class="node"><title>Node31</title>
<g id="a_node31"><a xlink:href="tir_2expr_8h.html" target="_top" xlink:title="TIR expressions. ">
<polygon fill="white" stroke="red" points="1678,-593.5 1678,-612.5 1758,-612.5 1758,-593.5 1678,-593.5"/>
<text text-anchor="middle" x="1718" y="-600.5" font-family="Helvetica,sans-Serif" font-size="10.00">tvm/tir/expr.h</text>
</a>
</g>
</g>
<!-- Node30&#45;&gt;Node31 -->
<g id="edge79" class="edge"><title>Node30&#45;&gt;Node31</title>
<path fill="none" stroke="midnightblue" d="M927.07,-654.97C935.961,-652.67 945.818,-650.425 955,-649 1220.97,-607.712 1544.47,-603.601 1667.36,-603.674"/>
<polygon fill="midnightblue" stroke="midnightblue" points="1667.59,-607.174 1677.59,-603.69 1667.6,-600.175 1667.59,-607.174"/>
</g>
<!-- Node31&#45;&gt;Node2 -->
<g id="edge82" class="edge"><title>Node31&#45;&gt;Node2</title>
<path fill="none" stroke="midnightblue" d="M1677.74,-602.339C1604.75,-601.891 1446.41,-596.009 1320,-557 1104.36,-490.457 1058.23,-366.363 1026,-143 1024.73,-134.202 1020.07,-129.62 1026,-123 1051.2,-94.8703 1288.03,-80.7893 1411.26,-75.317"/>
<polygon fill="midnightblue" stroke="midnightblue" points="1411.54,-78.8083 1421.38,-74.8757 1411.23,-71.8149 1411.54,-78.8083"/>
</g>
<!-- Node31&#45;&gt;Node10 -->
<g id="edge83" class="edge"><title>Node31&#45;&gt;Node10</title>
<path fill="none" stroke="midnightblue" d="M1677.72,-594.09C1628.24,-584.375 1544.39,-567.909 1491.45,-557.513"/>
<polygon fill="midnightblue" stroke="midnightblue" points="1492.1,-554.075 1481.61,-555.582 1490.75,-560.943 1492.1,-554.075"/>
</g>
<!-- Node31&#45;&gt;Node14 -->
<g id="edge84" class="edge"><title>Node31&#45;&gt;Node14</title>
<path fill="none" stroke="midnightblue" d="M1677.79,-600.201C1581.46,-595.541 1339.8,-581.691 1263,-557 1215.61,-541.763 1205.36,-531.481 1166,-501 1083.26,-436.917 1066.31,-414.78 1001,-333 931.763,-246.298 952.695,-192.247 866,-123 834.506,-97.8443 789.365,-84.5503 759.16,-78.0301"/>
<polygon fill="midnightblue" stroke="midnightblue" points="759.642,-74.5566 749.145,-75.9979 758.249,-81.4168 759.642,-74.5566"/>
</g>
<!-- Node31&#45;&gt;Node15 -->
<g id="edge88" class="edge"><title>Node31&#45;&gt;Node15</title>
<path fill="none" stroke="midnightblue" d="M1754.61,-593.443C1855.15,-569.21 2142.72,-494.941 2364,-389 2545.46,-302.122 2591.69,-274.446 2744,-143 2762.98,-126.62 2781.53,-104.473 2793.32,-89.4021"/>
<polygon fill="midnightblue" stroke="midnightblue" points="2796.12,-91.5065 2799.43,-81.4433 2790.57,-87.2433 2796.12,-91.5065"/>
</g>
<!-- Node31&#45;&gt;Node16 -->
<g id="edge80" class="edge"><title>Node31&#45;&gt;Node16</title>
<path fill="none" stroke="midnightblue" d="M1712.98,-593.297C1693.99,-560.356 1626.27,-442.898 1600.27,-397.805"/>
<polygon fill="midnightblue" stroke="midnightblue" points="1603.15,-395.799 1595.12,-388.884 1597.09,-399.295 1603.15,-395.799"/>
</g>
<!-- Node31&#45;&gt;Node18 -->
<g id="edge81" class="edge"><title>Node31&#45;&gt;Node18</title>
<path fill="none" stroke="midnightblue" d="M1733.7,-593.479C1759.73,-578.479 1811.44,-544.755 1837,-501 1880.65,-426.273 1884.75,-318.83 1884.48,-275.832"/>
<polygon fill="midnightblue" stroke="midnightblue" points="1887.98,-275.65 1884.32,-265.705 1880.98,-275.758 1887.98,-275.65"/>
</g>
<!-- Node31&#45;&gt;Node22 -->
<g id="edge87" class="edge"><title>Node31&#45;&gt;Node22</title>
<path fill="none" stroke="midnightblue" d="M1677.87,-601.644C1592.73,-599.204 1390.21,-584.342 1248,-501 1115.78,-423.512 1095.02,-359.875 1063,-210 1058.9,-190.794 1057.2,-168.351 1056.5,-152.858"/>
<polygon fill="midnightblue" stroke="midnightblue" points="1059.98,-152.403 1056.13,-142.533 1052.99,-152.651 1059.98,-152.403"/>
</g>
<!-- Node31&#45;&gt;Node24 -->
<g id="edge86" class="edge"><title>Node31&#45;&gt;Node24</title>
<path fill="none" stroke="midnightblue" d="M1736.06,-593.447C1755.01,-584.449 1785.65,-569.839 1812,-557 2087.66,-422.675 2419.98,-256.236 2514.67,-208.719"/>
<polygon fill="midnightblue" stroke="midnightblue" points="2516.45,-211.742 2523.82,-204.128 2513.32,-205.485 2516.45,-211.742"/>
</g>
<!-- Node31&#45;&gt;Node29 -->
<g id="edge85" class="edge"><title>Node31&#45;&gt;Node29</title>
<path fill="none" stroke="midnightblue" d="M1723.52,-593.463C1731.69,-580.92 1747.59,-556.848 1762,-537 1768.91,-527.49 1776.94,-517.12 1783.56,-508.734"/>
<polygon fill="midnightblue" stroke="midnightblue" points="1786.36,-510.836 1789.85,-500.832 1780.88,-506.476 1786.36,-510.836"/>
</g>
<!-- Node32&#45;&gt;Node8 -->
<g id="edge93" class="edge"><title>Node32&#45;&gt;Node8</title>
<path fill="none" stroke="midnightblue" d="M732.584,-772.096C730.938,-759.096 729.436,-734.461 738,-716 758.306,-672.228 803.96,-636.814 831.856,-618.22"/>
<polygon fill="midnightblue" stroke="midnightblue" points="834.084,-620.947 840.573,-612.572 830.278,-615.073 834.084,-620.947"/>
</g>
<!-- Node32&#45;&gt;Node10 -->
<g id="edge94" class="edge"><title>Node32&#45;&gt;Node10</title>
<path fill="none" stroke="midnightblue" d="M741.459,-772.055C754.105,-757.571 781.29,-729.272 811,-716 916.307,-668.956 955.936,-707.283 1068,-680 1200.4,-647.765 1351.63,-586.737 1413.89,-560.502"/>
<polygon fill="midnightblue" stroke="midnightblue" points="1415.26,-563.723 1423.1,-556.6 1412.53,-557.278 1415.26,-563.723"/>
</g>
<!-- Node32&#45;&gt;Node14 -->
<g id="edge121" class="edge"><title>Node32&#45;&gt;Node14</title>
<path fill="none" stroke="midnightblue" d="M686.675,-773.455C554.323,-752.037 190,-690.784 190,-665.5 190,-665.5 190,-665.5 190,-546 190,-470.314 152,-455.686 152,-380 152,-380 152,-380 152,-193.5 152,-146.441 187.936,-141.975 231,-123 314.705,-86.1173 598.28,-75.7137 694.643,-73.2068"/>
<polygon fill="midnightblue" stroke="midnightblue" points="695.018,-76.6986 704.928,-72.951 694.844,-69.7008 695.018,-76.6986"/>
</g>
<!-- Node32&#45;&gt;Node20 -->
<g id="edge122" class="edge"><title>Node32&#45;&gt;Node20</title>
<path fill="none" stroke="midnightblue" d="M716.27,-772.4C676.245,-751.729 580.468,-694.832 556,-613 499.693,-424.684 571.169,-362.731 641,-179 644.686,-169.301 650.308,-159.235 655.381,-151.089"/>
<polygon fill="midnightblue" stroke="midnightblue" points="658.42,-152.837 660.937,-142.545 652.551,-149.02 658.42,-152.837"/>
</g>
<!-- Node32&#45;&gt;Node30 -->
<g id="edge123" class="edge"><title>Node32&#45;&gt;Node30</title>
<path fill="none" stroke="midnightblue" d="M734.127,-772.188C734.801,-758.399 738.096,-731.68 753,-716 775.604,-692.218 809.992,-679.631 839.607,-672.971"/>
<polygon fill="midnightblue" stroke="midnightblue" points="840.362,-676.389 849.443,-670.932 838.941,-669.535 840.362,-676.389"/>
</g>
<!-- Node33 -->
<g id="node33" class="node"><title>Node33</title>
<g id="a_node33"><a xlink:href="ir_2op_8h.html" target="_top" xlink:title="Primitive operators(builtin intrinsics) and registry for them. ">
<polygon fill="white" stroke="red" points="1283,-655 1283,-674 1351,-674 1351,-655 1283,-655"/>
<text text-anchor="middle" x="1317" y="-662" font-family="Helvetica,sans-Serif" font-size="10.00">tvm/ir/op.h</text>
</a>
</g>
</g>
<!-- Node32&#45;&gt;Node33 -->
<g id="edge95" class="edge"><title>Node32&#45;&gt;Node33</title>
<path fill="none" stroke="midnightblue" d="M747.151,-772.286C769.628,-757.872 817.342,-729.337 862,-716 938.233,-693.234 1173.51,-675.19 1272.44,-668.407"/>
<polygon fill="midnightblue" stroke="midnightblue" points="1272.96,-671.88 1282.7,-667.71 1272.49,-664.896 1272.96,-671.88"/>
</g>
<!-- Node34 -->
<g id="node34" class="node"><title>Node34</title>
<g id="a_node34"><a xlink:href="ir_2module_8h.html" target="_top" xlink:title="IRModule that holds the functions and type definitions. ">
<polygon fill="white" stroke="black" points="1901,-716.5 1901,-735.5 1993,-735.5 1993,-716.5 1901,-716.5"/>
<text text-anchor="middle" x="1947" y="-723.5" font-family="Helvetica,sans-Serif" font-size="10.00">tvm/ir/module.h</text>
</a>
</g>
</g>
<!-- Node32&#45;&gt;Node34 -->
<g id="edge102" class="edge"><title>Node32&#45;&gt;Node34</title>
<path fill="none" stroke="midnightblue" d="M781.179,-778.9C971.751,-770.416 1684.36,-738.692 1890.69,-729.507"/>
<polygon fill="midnightblue" stroke="midnightblue" points="1890.87,-733.002 1900.71,-729.061 1890.56,-726.009 1890.87,-733.002"/>
</g>
<!-- Node38 -->
<g id="node38" class="node"><title>Node38</title>
<g id="a_node38"><a xlink:href="relay_2type_8h.html" target="_top" xlink:title="Relay typed AST nodes. ">
<polygon fill="white" stroke="red" points="871.5,-716.5 871.5,-735.5 924.5,-735.5 924.5,-716.5 871.5,-716.5"/>
<text text-anchor="middle" x="898" y="-723.5" font-family="Helvetica,sans-Serif" font-size="10.00">./type.h</text>
</a>
</g>
</g>
<!-- Node32&#45;&gt;Node38 -->
<g id="edge124" class="edge"><title>Node32&#45;&gt;Node38</title>
<path fill="none" stroke="midnightblue" d="M759.986,-772.444C787.696,-763.32 831.752,-748.813 862.616,-738.651"/>
<polygon fill="midnightblue" stroke="midnightblue" points="863.732,-741.968 872.135,-735.516 861.542,-735.32 863.732,-741.968"/>
</g>
<!-- Node33&#45;&gt;Node8 -->
<g id="edge96" class="edge"><title>Node33&#45;&gt;Node8</title>
<path fill="none" stroke="midnightblue" d="M1282.65,-659.076C1201.83,-648.667 999.321,-622.587 904.911,-610.428"/>
<polygon fill="midnightblue" stroke="midnightblue" points="905.126,-606.927 894.761,-609.121 904.232,-613.869 905.126,-606.927"/>
</g>
<!-- Node33&#45;&gt;Node10 -->
<g id="edge97" class="edge"><title>Node33&#45;&gt;Node10</title>
<path fill="none" stroke="midnightblue" d="M1326.47,-654.819C1347.63,-635.421 1399,-588.331 1425.91,-563.662"/>
<polygon fill="midnightblue" stroke="midnightblue" points="1428.41,-566.119 1433.42,-556.782 1423.68,-560.959 1428.41,-566.119"/>
</g>
<!-- Node33&#45;&gt;Node14 -->
<g id="edge99" class="edge"><title>Node33&#45;&gt;Node14</title>
<path fill="none" stroke="midnightblue" d="M1282.88,-662.428C1200.28,-659.336 983.278,-648.239 806,-613 721.742,-596.251 689.004,-609.492 621,-557 524.243,-482.313 499.756,-422.86 518,-302 530.875,-216.71 525.587,-176.812 593,-123 623.11,-98.9648 665.87,-85.5234 694.931,-78.6575"/>
<polygon fill="midnightblue" stroke="midnightblue" points="695.971,-82.0116 704.968,-76.4181 694.446,-75.1796 695.971,-82.0116"/>
</g>
<!-- Node33&#45;&gt;Node15 -->
<g id="edge100" class="edge"><title>Node33&#45;&gt;Node15</title>
<path fill="none" stroke="midnightblue" d="M1351.09,-662.704C1535.78,-658.301 2410.06,-636.292 2462,-613 2678.73,-515.817 2710.83,-424.427 2813,-210 2830.2,-173.894 2846.59,-161.567 2836,-123 2832.68,-110.905 2825.62,-98.7742 2819.19,-89.4347"/>
<polygon fill="midnightblue" stroke="midnightblue" points="2821.85,-87.1408 2813.12,-81.13 2816.19,-91.2697 2821.85,-87.1408"/>
</g>
<!-- Node33&#45;&gt;Node21 -->
<g id="edge101" class="edge"><title>Node33&#45;&gt;Node21</title>
<path fill="none" stroke="midnightblue" d="M1351.16,-662.929C1490.56,-660.372 2012.06,-648.492 2076,-613 2175.36,-557.848 2356.4,-231.332 2399.57,-151.57"/>
<polygon fill="midnightblue" stroke="midnightblue" points="2402.67,-153.194 2404.34,-142.73 2396.51,-149.871 2402.67,-153.194"/>
</g>
<!-- Node33&#45;&gt;Node28 -->
<g id="edge98" class="edge"><title>Node33&#45;&gt;Node28</title>
<path fill="none" stroke="midnightblue" d="M1333.51,-654.918C1365.22,-638.101 1436.27,-598.791 1490,-557 1509.28,-542.004 1529.08,-522.135 1542.11,-508.329"/>
<polygon fill="midnightblue" stroke="midnightblue" points="1545.03,-510.322 1549.28,-500.614 1539.91,-505.557 1545.03,-510.322"/>
</g>
<!-- Node34&#45;&gt;Node10 -->
<g id="edge104" class="edge"><title>Node34&#45;&gt;Node10</title>
<path fill="none" stroke="midnightblue" d="M1900.76,-724.898C1838.16,-723.319 1723.95,-715.279 1634,-680 1562.01,-651.764 1490.65,-591.712 1459.41,-563.391"/>
<polygon fill="midnightblue" stroke="midnightblue" points="1461.75,-560.793 1452.02,-556.604 1457.01,-565.947 1461.75,-560.793"/>
</g>
<!-- Node34&#45;&gt;Node14 -->
<g id="edge117" class="edge"><title>Node34&#45;&gt;Node14</title>
<path fill="none" stroke="midnightblue" d="M1900.99,-725.154C1749.09,-725.23 1249.95,-722.037 840,-680 633.865,-658.863 380,-811.216 380,-604 380,-604 380,-604 380,-193.5 380,-145.1 419.346,-143.903 463,-123 540.604,-85.8403 643.373,-76.0118 694.798,-73.4208"/>
<polygon fill="midnightblue" stroke="midnightblue" points="695.13,-76.9097 704.965,-72.9706 694.82,-69.9165 695.13,-76.9097"/>
</g>
<!-- Node34&#45;&gt;Node21 -->
<g id="edge118" class="edge"><title>Node34&#45;&gt;Node21</title>
<path fill="none" stroke="midnightblue" d="M1993.01,-724.018C2174.86,-719.975 2835.47,-703.707 2873,-680 2975.67,-615.138 2996,-557.444 2996,-436 2996,-436 2996,-436 2996,-378 2996,-232.835 2874.5,-225.542 2737,-179 2633.77,-144.058 2503.51,-136.19 2442.9,-134.46"/>
<polygon fill="midnightblue" stroke="midnightblue" points="2442.84,-130.957 2432.76,-134.21 2442.67,-137.955 2442.84,-130.957"/>
</g>
<!-- Node34&#45;&gt;Node24 -->
<g id="edge119" class="edge"><title>Node34&#45;&gt;Node24</title>
<path fill="none" stroke="midnightblue" d="M1993.43,-722.772C2114.75,-715.899 2436.37,-690.574 2502,-613 2607.58,-488.212 2497.22,-406.905 2526,-246 2527.94,-235.142 2531.38,-223.305 2534.48,-213.823"/>
<polygon fill="midnightblue" stroke="midnightblue" points="2537.82,-214.889 2537.73,-204.295 2531.19,-212.628 2537.82,-214.889"/>
</g>
<!-- Node34&#45;&gt;Node28 -->
<g id="edge103" class="edge"><title>Node34&#45;&gt;Node28</title>
<path fill="none" stroke="midnightblue" d="M1912.04,-716.389C1856.81,-701.636 1747.57,-667.715 1669,-613 1631.56,-586.928 1631.1,-570.384 1600,-537 1590.96,-527.293 1580.7,-516.547 1572.47,-507.991"/>
<polygon fill="midnightblue" stroke="midnightblue" points="1574.77,-505.334 1565.31,-500.565 1569.73,-510.193 1574.77,-505.334"/>
</g>
<!-- Node35 -->
<g id="node35" class="node"><title>Node35</title>
<g id="a_node35"><a xlink:href="ir_2function_8h.html" target="_top" xlink:title="Function nodes. ">
<polygon fill="white" stroke="black" points="964.5,-655 964.5,-674 1059.5,-674 1059.5,-655 964.5,-655"/>
<text text-anchor="middle" x="1012" y="-662" font-family="Helvetica,sans-Serif" font-size="10.00">tvm/ir/function.h</text>
</a>
</g>
</g>
<!-- Node34&#45;&gt;Node35 -->
<g id="edge105" class="edge"><title>Node34&#45;&gt;Node35</title>
<path fill="none" stroke="midnightblue" d="M1900.95,-722.07C1745.61,-712.185 1241.05,-680.076 1069.62,-669.166"/>
<polygon fill="midnightblue" stroke="midnightblue" points="1069.73,-665.667 1059.53,-668.525 1069.29,-672.653 1069.73,-665.667"/>
</g>
<!-- Node36 -->
<g id="node36" class="node"><title>Node36</title>
<g id="a_node36"><a xlink:href="ir_2adt_8h.html" target="_top" xlink:title="Algebraic data type definitions. ">
<polygon fill="white" stroke="black" points="1911,-593.5 1911,-612.5 1983,-612.5 1983,-593.5 1911,-593.5"/>
<text text-anchor="middle" x="1947" y="-600.5" font-family="Helvetica,sans-Serif" font-size="10.00">tvm/ir/adt.h</text>
</a>
</g>
</g>
<!-- Node34&#45;&gt;Node36 -->
<g id="edge110" class="edge"><title>Node34&#45;&gt;Node36</title>
<path fill="none" stroke="midnightblue" d="M1947,-716.298C1947,-696.85 1947,-649.49 1947,-622.904"/>
<polygon fill="midnightblue" stroke="midnightblue" points="1950.5,-622.623 1947,-612.623 1943.5,-622.623 1950.5,-622.623"/>
</g>
<!-- Node37 -->
<g id="node37" class="node"><title>Node37</title>
<polygon fill="white" stroke="#bfbfbf" points="2184,-537.5 2184,-556.5 2270,-556.5 2270,-537.5 2184,-537.5"/>
<text text-anchor="middle" x="2227" y="-544.5" font-family="Helvetica,sans-Serif" font-size="10.00">unordered_set</text>
</g>
<!-- Node34&#45;&gt;Node37 -->
<g id="edge120" class="edge"><title>Node34&#45;&gt;Node37</title>
<path fill="none" stroke="midnightblue" d="M1960.5,-716.463C2005.22,-688.197 2148.76,-597.457 2204.54,-562.198"/>
<polygon fill="midnightblue" stroke="midnightblue" points="2206.72,-564.961 2213.3,-556.659 2202.98,-559.044 2206.72,-564.961"/>
</g>
<!-- Node35&#45;&gt;Node8 -->
<g id="edge107" class="edge"><title>Node35&#45;&gt;Node8</title>
<path fill="none" stroke="midnightblue" d="M989.506,-654.975C962.691,-644.813 917.685,-627.756 887.191,-616.2"/>
<polygon fill="midnightblue" stroke="midnightblue" points="888.044,-612.78 877.453,-612.509 885.563,-619.326 888.044,-612.78"/>
</g>
<!-- Node35&#45;&gt;Node10 -->
<g id="edge106" class="edge"><title>Node35&#45;&gt;Node10</title>
<path fill="none" stroke="midnightblue" d="M1022.54,-654.86C1041.77,-639.597 1084.43,-608.054 1126,-593 1216.97,-560.057 1330.78,-551.108 1394.32,-548.754"/>
<polygon fill="midnightblue" stroke="midnightblue" points="1394.57,-552.248 1404.45,-548.42 1394.34,-545.252 1394.57,-552.248"/>
</g>
<!-- Node35&#45;&gt;Node13 -->
<g id="edge108" class="edge"><title>Node35&#45;&gt;Node13</title>
<path fill="none" stroke="midnightblue" d="M1059.79,-660.505C1112.3,-657.296 1199.13,-652.23 1274,-649 1338.58,-646.214 2380.75,-644.854 2437,-613 2476.88,-590.416 2647.09,-309.974 2660,-266 2692.75,-154.463 2555.43,-143.441 2441,-123 2137.39,-68.7679 2055.14,-114.996 1748,-87 1726.08,-85.002 1701.83,-81.9338 1681.6,-79.1334"/>
<polygon fill="midnightblue" stroke="midnightblue" points="1681.81,-75.6289 1671.42,-77.7005 1680.84,-82.5605 1681.81,-75.6289"/>
</g>
<!-- Node35&#45;&gt;Node14 -->
<g id="edge109" class="edge"><title>Node35&#45;&gt;Node14</title>
<path fill="none" stroke="midnightblue" d="M982.009,-654.975C973.35,-652.758 963.85,-650.558 955,-649 875.601,-635.023 665.384,-650.469 594,-613 536.205,-582.664 531.165,-557.798 499,-501 428.356,-376.254 456.71,-308.598 518,-179 530.753,-152.033 531.006,-140.725 555,-123 596.921,-92.0317 657.601,-79.9696 694.557,-75.3304"/>
<polygon fill="midnightblue" stroke="midnightblue" points="695.229,-78.7764 704.767,-74.1626 694.434,-71.8218 695.229,-78.7764"/>
</g>
<!-- Node36&#45;&gt;Node10 -->
<g id="edge114" class="edge"><title>Node36&#45;&gt;Node10</title>
<path fill="none" stroke="midnightblue" d="M1910.75,-598.116C1821.81,-588.587 1592.71,-564.04 1491.87,-553.236"/>
<polygon fill="midnightblue" stroke="midnightblue" points="1491.98,-549.727 1481.66,-552.142 1491.23,-556.688 1491.98,-549.727"/>
</g>
<!-- Node36&#45;&gt;Node11 -->
<g id="edge111" class="edge"><title>Node36&#45;&gt;Node11</title>
<path fill="none" stroke="midnightblue" d="M1960.17,-593.275C1971.25,-585.206 1986.59,-572.19 1995,-557 2036.34,-482.329 2118.03,-244.241 2063,-179 2038.59,-150.059 1938.13,-139.73 1868.68,-136.044"/>
<polygon fill="midnightblue" stroke="midnightblue" points="1868.84,-132.548 1858.68,-135.547 1868.49,-139.539 1868.84,-132.548"/>
</g>
<!-- Node36&#45;&gt;Node14 -->
<g id="edge116" class="edge"><title>Node36&#45;&gt;Node14</title>
<path fill="none" stroke="midnightblue" d="M1944.66,-593.466C1940.84,-580.508 1932.45,-555.43 1920,-537 1873.04,-467.458 1842.06,-464.463 1768,-425 1572.74,-320.948 1502.99,-332.884 1319,-210 1270.84,-177.836 1274.96,-146.423 1222,-123 1138.51,-86.0779 855.478,-75.7 759.296,-73.2032"/>
<polygon fill="midnightblue" stroke="midnightblue" points="759.114,-69.6977 749.031,-72.9485 758.941,-76.6955 759.114,-69.6977"/>
</g>
<!-- Node36&#45;&gt;Node16 -->
<g id="edge112" class="edge"><title>Node36&#45;&gt;Node16</title>
<path fill="none" stroke="midnightblue" d="M1941.32,-593.48C1926.54,-571.886 1884.68,-514.368 1837,-481 1772.59,-435.928 1685.05,-406.232 1633.33,-391.331"/>
<polygon fill="midnightblue" stroke="midnightblue" points="1634.06,-387.9 1623.49,-388.548 1632.16,-394.636 1634.06,-387.9"/>
</g>
<!-- Node36&#45;&gt;Node18 -->
<g id="edge113" class="edge"><title>Node36&#45;&gt;Node18</title>
<path fill="none" stroke="midnightblue" d="M1956.02,-593.34C1964.07,-584.932 1975.3,-571.363 1980,-557 1982.77,-548.552 1980.64,-545.866 1980,-537 1972.42,-431.74 2000.56,-392.335 1946,-302 1937.92,-288.624 1924.2,-278.048 1911.72,-270.519"/>
<polygon fill="midnightblue" stroke="midnightblue" points="1913.37,-267.436 1902.94,-265.578 1909.94,-273.535 1913.37,-267.436"/>
</g>
<!-- Node36&#45;&gt;Node28 -->
<g id="edge115" class="edge"><title>Node36&#45;&gt;Node28</title>
<path fill="none" stroke="midnightblue" d="M1916.72,-593.46C1847.1,-573.822 1675.6,-525.45 1597.23,-503.348"/>
<polygon fill="midnightblue" stroke="midnightblue" points="1597.83,-499.881 1587.26,-500.535 1595.93,-506.618 1597.83,-499.881"/>
</g>
<!-- Node38&#45;&gt;Node8 -->
<g id="edge126" class="edge"><title>Node38&#45;&gt;Node8</title>
<path fill="none" stroke="midnightblue" d="M879.611,-716.471C865.899,-708.997 848.185,-696.71 840,-680 830.973,-661.572 838.035,-638.113 845.214,-622.167"/>
<polygon fill="midnightblue" stroke="midnightblue" points="848.499,-623.418 849.781,-612.901 842.22,-620.323 848.499,-623.418"/>
</g>
<!-- Node38&#45;&gt;Node14 -->
<g id="edge128" class="edge"><title>Node38&#45;&gt;Node14</title>
<path fill="none" stroke="midnightblue" d="M871.294,-724.122C769.522,-720.59 409.52,-706.327 366,-680 259.4,-615.513 228,-560.587 228,-436 228,-436 228,-436 228,-193.5 228,-160.401 226.145,-143.665 252,-123 286.533,-95.3988 593.082,-78.7418 694.547,-73.9465"/>
<polygon fill="midnightblue" stroke="midnightblue" points="694.972,-77.4306 704.799,-73.4696 694.647,-70.4381 694.972,-77.4306"/>
</g>
<!-- Node38&#45;&gt;Node28 -->
<g id="edge125" class="edge"><title>Node38&#45;&gt;Node28</title>
<path fill="none" stroke="midnightblue" d="M924.766,-724.362C1010.91,-722.003 1280,-712.175 1360,-680 1441.92,-647.055 1456.93,-622.62 1516,-557 1529.07,-542.478 1540.61,-523.298 1548.08,-509.543"/>
<polygon fill="midnightblue" stroke="midnightblue" points="1551.21,-511.109 1552.78,-500.63 1545.02,-507.849 1551.21,-511.109"/>
</g>
<!-- Node38&#45;&gt;Node30 -->
<g id="edge129" class="edge"><title>Node38&#45;&gt;Node30</title>
<path fill="none" stroke="midnightblue" d="M898,-716.475C898,-708.08 898,-694.981 898,-684.163"/>
<polygon fill="midnightblue" stroke="midnightblue" points="901.5,-684.009 898,-674.009 894.5,-684.009 901.5,-684.009"/>
</g>
<!-- Node38&#45;&gt;Node31 -->
<g id="edge127" class="edge"><title>Node38&#45;&gt;Node31</title>
<path fill="none" stroke="midnightblue" d="M924.688,-724.396C1031.32,-721.793 1426.87,-710.255 1548,-680 1603.14,-666.227 1662.73,-635.526 1694.64,-617.645"/>
<polygon fill="midnightblue" stroke="midnightblue" points="1696.66,-620.524 1703.62,-612.54 1693.2,-614.439 1696.66,-620.524"/>
</g>
<!-- Node39&#45;&gt;Node14 -->
<g id="edge144" class="edge"><title>Node39&#45;&gt;Node14</title>
<path fill="none" stroke="midnightblue" d="M2162.79,-829.022C2159.82,-828.654 2156.87,-828.31 2154,-828 1556.51,-763.649 1402.94,-796.094 805,-736 617.187,-717.124 519.999,-810.898 384,-680 304.718,-603.692 342,-546.039 342,-436 342,-436 342,-436 342,-193.5 342,-149.657 372.057,-143.141 411,-123 460.168,-97.5706 624.258,-81.1314 694.568,-75.0943"/>
<polygon fill="midnightblue" stroke="midnightblue" points="694.955,-78.5741 704.626,-74.247 694.368,-71.5988 694.955,-78.5741"/>
</g>
<!-- Node39&#45;&gt;Node18 -->
<g id="edge135" class="edge"><title>Node39&#45;&gt;Node18</title>
<path fill="none" stroke="midnightblue" d="M2267.31,-835.152C2397.32,-828.317 2719.24,-796.449 2642,-649 2516.32,-409.065 2391.57,-404.864 2141,-302 2080.57,-277.193 2006.67,-266.055 1953.66,-261.058"/>
<polygon fill="midnightblue" stroke="midnightblue" points="1953.95,-257.57 1943.67,-260.166 1953.32,-264.542 1953.95,-257.57"/>
</g>
<!-- Node39&#45;&gt;Node34 -->
<g id="edge143" class="edge"><title>Node39&#45;&gt;Node34</title>
<path fill="none" stroke="midnightblue" d="M2193.97,-828.368C2146.81,-809.01 2032.43,-762.065 1977.47,-739.507"/>
<polygon fill="midnightblue" stroke="midnightblue" points="1978.51,-736.151 1967.93,-735.591 1975.85,-742.626 1978.51,-736.151"/>
</g>
<!-- Node40 -->
<g id="node40" class="node"><title>Node40</title>
<g id="a_node40"><a xlink:href="with_8h.html" target="_top" xlink:title="RAII wrapper function to enter and exit a context object similar to python&#39;s with syntax...">
<polygon fill="white" stroke="black" points="3048,-537.5 3048,-556.5 3154,-556.5 3154,-537.5 3048,-537.5"/>
<text text-anchor="middle" x="3101" y="-544.5" font-family="Helvetica,sans-Serif" font-size="10.00">tvm/support/with.h</text>
</a>
</g>
</g>
<!-- Node39&#45;&gt;Node40 -->
<g id="edge132" class="edge"><title>Node39&#45;&gt;Node40</title>
<path fill="none" stroke="midnightblue" d="M2267.33,-836.595C2468.66,-834.358 3182,-819.878 3182,-727 3182,-727 3182,-727 3182,-663.5 3182,-620.997 3144.78,-583.043 3120.8,-563.002"/>
<polygon fill="midnightblue" stroke="midnightblue" points="3122.94,-560.229 3112.95,-556.682 3118.54,-565.68 3122.94,-560.229"/>
</g>
<!-- Node41 -->
<g id="node41" class="node"><title>Node41</title>
<g id="a_node41"><a xlink:href="error_8h.html" target="_top" xlink:title="Utilities for error tracking and reporting. ">
<polygon fill="white" stroke="black" points="2175.5,-772.5 2175.5,-791.5 2254.5,-791.5 2254.5,-772.5 2175.5,-772.5"/>
<text text-anchor="middle" x="2215" y="-779.5" font-family="Helvetica,sans-Serif" font-size="10.00">tvm/ir/error.h</text>
</a>
</g>
</g>
<!-- Node39&#45;&gt;Node41 -->
<g id="edge136" class="edge"><title>Node39&#45;&gt;Node41</title>
<path fill="none" stroke="midnightblue" d="M2215,-828.083C2215,-821.006 2215,-810.861 2215,-801.986"/>
<polygon fill="midnightblue" stroke="midnightblue" points="2218.5,-801.751 2215,-791.751 2211.5,-801.751 2218.5,-801.751"/>
</g>
<!-- Node40&#45;&gt;Node12 -->
<g id="edge133" class="edge"><title>Node40&#45;&gt;Node12</title>
<path fill="none" stroke="midnightblue" d="M3097.09,-537.365C3089.17,-519.073 3072,-474.907 3072,-436 3072,-436 3072,-436 3072,-378 3072,-270.37 3022.67,-240.008 2934,-179 2848.04,-119.854 2809.2,-138.414 2706,-123 2384.89,-75.0393 1993.62,-71.5708 1853.26,-72.0412"/>
<polygon fill="midnightblue" stroke="midnightblue" points="1853.19,-68.5414 1843.2,-72.0833 1853.22,-75.5413 1853.19,-68.5414"/>
</g>
<!-- Node40&#45;&gt;Node15 -->
<g id="edge134" class="edge"><title>Node40&#45;&gt;Node15</title>
<path fill="none" stroke="midnightblue" d="M3103.53,-537.097C3113.29,-501.887 3148,-368.832 3148,-257 3148,-257 3148,-257 3148,-193.5 3148,-151.774 3122.34,-143.514 3086,-123 3004.95,-77.2402 2891.51,-71.4846 2837.28,-71.6339"/>
<polygon fill="midnightblue" stroke="midnightblue" points="2837.21,-68.1342 2827.25,-71.7324 2837.28,-75.1339 2837.21,-68.1342"/>
</g>
<!-- Node41&#45;&gt;Node14 -->
<g id="edge139" class="edge"><title>Node41&#45;&gt;Node14</title>
<path fill="none" stroke="midnightblue" d="M2175.22,-781.087C1965.02,-781.36 988.61,-780.224 862,-736 736.039,-692.003 697.799,-666.104 621,-557 594.868,-519.876 578.862,-405.699 572,-333 562.944,-237.057 563.912,-196.703 626,-123 643.854,-101.807 672.784,-88.6211 695.115,-81.0616"/>
<polygon fill="midnightblue" stroke="midnightblue" points="696.373,-84.3345 704.848,-77.9757 694.258,-77.6619 696.373,-84.3345"/>
</g>
<!-- Node41&#45;&gt;Node21 -->
<g id="edge140" class="edge"><title>Node41&#45;&gt;Node21</title>
<path fill="none" stroke="midnightblue" d="M2254.71,-780.46C2441.07,-776.877 3220,-749.831 3220,-548 3220,-548 3220,-548 3220,-434 3220,-216.381 3012.05,-235.91 2802,-179 2672.7,-143.968 2512.27,-136.196 2443.22,-134.481"/>
<polygon fill="midnightblue" stroke="midnightblue" points="2443.02,-130.975 2432.94,-134.254 2442.86,-137.974 2443.02,-130.975"/>
</g>
<!-- Node41&#45;&gt;Node24 -->
<g id="edge142" class="edge"><title>Node41&#45;&gt;Node24</title>
<path fill="none" stroke="midnightblue" d="M2254.52,-780.966C2383.29,-779.976 2787.41,-769.655 2873,-680 3030.06,-515.491 2661.38,-269.837 2563.88,-209.334"/>
<polygon fill="midnightblue" stroke="midnightblue" points="2565.67,-206.325 2555.32,-204.065 2562,-212.287 2565.67,-206.325"/>
</g>
<!-- Node41&#45;&gt;Node27 -->
<g id="edge137" class="edge"><title>Node41&#45;&gt;Node27</title>
<path fill="none" stroke="midnightblue" d="M2175.46,-779.804C2004.57,-774.236 1335.25,-748.178 1274,-680 1206.98,-605.403 1336.64,-491.434 1388.17,-450.925"/>
<polygon fill="midnightblue" stroke="midnightblue" points="1390.51,-453.541 1396.28,-444.654 1386.23,-448.004 1390.51,-453.541"/>
</g>
<!-- Node41&#45;&gt;Node34 -->
<g id="edge138" class="edge"><title>Node41&#45;&gt;Node34</title>
<path fill="none" stroke="midnightblue" d="M2175.46,-773.032C2128.77,-763.626 2050.97,-747.949 1999.33,-737.543"/>
<polygon fill="midnightblue" stroke="midnightblue" points="1999.86,-734.08 1989.36,-735.536 1998.48,-740.942 1999.86,-734.08"/>
</g>
<!-- Node42 -->
<g id="node42" class="node"><title>Node42</title>
<polygon fill="white" stroke="#bfbfbf" points="2166,-593.5 2166,-612.5 2222,-612.5 2222,-593.5 2166,-593.5"/>
<text text-anchor="middle" x="2194" y="-600.5" font-family="Helvetica,sans-Serif" font-size="10.00">sstream</text>
</g>
<!-- Node41&#45;&gt;Node42 -->
<g id="edge141" class="edge"><title>Node41&#45;&gt;Node42</title>
<path fill="none" stroke="midnightblue" d="M2216.72,-772.489C2220.7,-751.251 2229.34,-694.366 2218,-649 2215.56,-639.245 2210.56,-629.29 2205.76,-621.231"/>
<polygon fill="midnightblue" stroke="midnightblue" points="2208.69,-619.322 2200.37,-612.768 2202.79,-623.083 2208.69,-619.322"/>
</g>
<!-- Node43&#45;&gt;Node14 -->
<g id="edge149" class="edge"><title>Node43&#45;&gt;Node14</title>
<path fill="none" stroke="midnightblue" d="M593.981,-829.191C468.295,-811.214 172.122,-766.14 138,-736 105.029,-706.877 76,-591.991 76,-548 76,-548 76,-548 76,-193.5 76,-160.401 73.8828,-143.333 100,-123 147.208,-86.2466 573.022,-75.4118 694.677,-73.0536"/>
<polygon fill="midnightblue" stroke="midnightblue" points="694.91,-76.5499 704.842,-72.8627 694.778,-69.5511 694.91,-76.5499"/>
</g>
<!-- Node43&#45;&gt;Node32 -->
<g id="edge148" class="edge"><title>Node43&#45;&gt;Node32</title>
<path fill="none" stroke="midnightblue" d="M663.496,-828.324C676.6,-819.9 696.712,-806.971 712.107,-797.074"/>
<polygon fill="midnightblue" stroke="midnightblue" points="714.018,-800.006 720.537,-791.655 710.233,-794.118 714.018,-800.006"/>
</g>
<!-- Node43&#45;&gt;Node35 -->
<g id="edge147" class="edge"><title>Node43&#45;&gt;Node35</title>
<path fill="none" stroke="midnightblue" d="M652.194,-828.247C655.839,-815.002 664.147,-789.555 678,-772 703.771,-739.344 714.829,-732.539 753,-716 836.676,-679.745 865.863,-699.254 955,-680 959.987,-678.923 965.199,-677.714 970.358,-676.465"/>
<polygon fill="midnightblue" stroke="midnightblue" points="971.277,-679.843 980.141,-674.04 969.593,-673.049 971.277,-679.843"/>
</g>
<!-- Node44&#45;&gt;Node14 -->
<g id="edge189" class="edge"><title>Node44&#45;&gt;Node14</title>
<path fill="none" stroke="midnightblue" d="M2005,-836.072C1759.67,-832.614 939.568,-819.248 678,-792 558.425,-779.544 152,-785.722 152,-665.5 152,-665.5 152,-665.5 152,-602 152,-526.314 114,-511.686 114,-436 114,-436 114,-436 114,-193.5 114,-150.274 142.106,-141.862 181,-123 272.518,-78.6183 591.68,-73.1429 694.684,-72.5454"/>
<polygon fill="midnightblue" stroke="midnightblue" points="694.804,-76.045 704.788,-72.4988 694.771,-69.045 694.804,-76.045"/>
</g>
<!-- Node44&#45;&gt;Node32 -->
<g id="edge165" class="edge"><title>Node44&#45;&gt;Node32</title>
<path fill="none" stroke="midnightblue" d="M2004.72,-834.436C1825.11,-827.842 1334.62,-809.578 926,-792 880.898,-790.06 829.848,-787.657 791.73,-785.822"/>
<polygon fill="midnightblue" stroke="midnightblue" points="791.495,-782.307 781.338,-785.321 791.157,-789.299 791.495,-782.307"/>
</g>
<!-- Node44&#45;&gt;Node38 -->
<g id="edge164" class="edge"><title>Node44&#45;&gt;Node38</title>
<path fill="none" stroke="midnightblue" d="M2004.9,-830.448C1783.11,-809.72 1101.51,-746.02 934.991,-730.457"/>
<polygon fill="midnightblue" stroke="midnightblue" points="935.059,-726.948 924.777,-729.503 934.408,-733.918 935.059,-726.948"/>
</g>
<!-- Node45 -->
<g id="node45" class="node"><title>Node45</title>
<g id="a_node45"><a xlink:href="tensor_8h.html" target="_top" xlink:title="Dataflow tensor object. ">
<polygon fill="white" stroke="red" points="2543,-655 2543,-674 2633,-674 2633,-655 2543,-655"/>
<text text-anchor="middle" x="2588" y="-662" font-family="Helvetica,sans-Serif" font-size="10.00">tvm/te/tensor.h</text>
</a>
</g>
</g>
<!-- Node44&#45;&gt;Node45 -->
<g id="edge151" class="edge"><title>Node44&#45;&gt;Node45</title>
<path fill="none" stroke="midnightblue" d="M2145.33,-828.971C2257.88,-816.116 2466.05,-792.311 2467,-792 2514.67,-776.376 2533.32,-774.896 2565,-736 2577.05,-721.204 2582.86,-699.908 2585.61,-684.599"/>
<polygon fill="midnightblue" stroke="midnightblue" points="2589.14,-684.677 2587.17,-674.266 2582.22,-683.63 2589.14,-684.677"/>
</g>
<!-- Node46 -->
<g id="node46" class="node"><title>Node46</title>
<g id="a_node46"><a xlink:href="schedule_8h.html" target="_top" xlink:title="Define a schedule. ">
<polygon fill="white" stroke="red" points="2453.5,-716.5 2453.5,-735.5 2556.5,-735.5 2556.5,-716.5 2453.5,-716.5"/>
<text text-anchor="middle" x="2505" y="-723.5" font-family="Helvetica,sans-Serif" font-size="10.00">tvm/te/schedule.h</text>
</a>
</g>
</g>
<!-- Node44&#45;&gt;Node46 -->
<g id="edge158" class="edge"><title>Node44&#45;&gt;Node46</title>
<path fill="none" stroke="midnightblue" d="M2145.32,-828.883C2249.26,-816.803 2432.44,-795.17 2439,-792 2461.75,-780.998 2481.44,-759.008 2493.26,-743.667"/>
<polygon fill="midnightblue" stroke="midnightblue" points="2496.14,-745.659 2499.27,-735.536 2490.51,-741.498 2496.14,-745.659"/>
</g>
<!-- Node47 -->
<g id="node47" class="node"><title>Node47</title>
<g id="a_node47"><a xlink:href="target_8h.html" target="_top" xlink:title="Compilation target object. ">
<polygon fill="white" stroke="black" points="2319.5,-593.5 2319.5,-612.5 2428.5,-612.5 2428.5,-593.5 2319.5,-593.5"/>
<text text-anchor="middle" x="2374" y="-600.5" font-family="Helvetica,sans-Serif" font-size="10.00">tvm/target/target.h</text>
</a>
</g>
</g>
<!-- Node44&#45;&gt;Node47 -->
<g id="edge166" class="edge"><title>Node44&#45;&gt;Node47</title>
<path fill="none" stroke="midnightblue" d="M2131.32,-828.495C2178.82,-820.434 2242.28,-807.304 2263,-792 2322.94,-747.727 2356.28,-660.582 2368.53,-622.521"/>
<polygon fill="midnightblue" stroke="midnightblue" points="2371.93,-623.36 2371.54,-612.772 2365.24,-621.292 2371.93,-623.36"/>
</g>
<!-- Node48 -->
<g id="node48" class="node"><title>Node48</title>
<g id="a_node48"><a xlink:href="generic__func_8h.html" target="_top" xlink:title="Generic function that can be specialzied on a per target basis. ">
<polygon fill="white" stroke="black" points="2758,-649.5 2758,-679.5 2864,-679.5 2864,-649.5 2758,-649.5"/>
<text text-anchor="start" x="2766" y="-667.5" font-family="Helvetica,sans-Serif" font-size="10.00">tvm/target/generic</text>
<text text-anchor="middle" x="2811" y="-656.5" font-family="Helvetica,sans-Serif" font-size="10.00">_func.h</text>
</a>
</g>
</g>
<!-- Node44&#45;&gt;Node48 -->
<g id="edge174" class="edge"><title>Node44&#45;&gt;Node48</title>
<path fill="none" stroke="midnightblue" d="M2145.21,-828.955C2148.18,-828.63 2151.12,-828.31 2154,-828 2312.12,-810.999 2355.89,-831.239 2510,-792 2610.48,-766.416 2721.04,-712.809 2775.98,-684.287"/>
<polygon fill="midnightblue" stroke="midnightblue" points="2777.7,-687.335 2784.94,-679.599 2774.46,-681.132 2777.7,-687.335"/>
</g>
<!-- Node49 -->
<g id="node49" class="node"><title>Node49</title>
<g id="a_node49"><a xlink:href="data__layout_8h.html" target="_top" xlink:title="Layout expression to describe the data organization of a tensor. And BijectiveLayout to mapping two d...">
<polygon fill="white" stroke="red" points="2093,-655 2093,-674 2209,-674 2209,-655 2093,-655"/>
<text text-anchor="middle" x="2151" y="-662" font-family="Helvetica,sans-Serif" font-size="10.00">tvm/tir/data_layout.h</text>
</a>
</g>
</g>
<!-- Node44&#45;&gt;Node49 -->
<g id="edge182" class="edge"><title>Node44&#45;&gt;Node49</title>
<path fill="none" stroke="midnightblue" d="M2078.87,-828.26C2090.77,-801.421 2126.93,-719.818 2143.07,-683.39"/>
<polygon fill="midnightblue" stroke="midnightblue" points="2146.37,-684.58 2147.22,-674.019 2139.97,-681.744 2146.37,-684.58"/>
</g>
<!-- Node45&#45;&gt;Node13 -->
<g id="edge157" class="edge"><title>Node45&#45;&gt;Node13</title>
<path fill="none" stroke="midnightblue" d="M2631.44,-654.983C2710.09,-638.313 2868,-598.547 2868,-548 2868,-548 2868,-548 2868,-490 2868,-324.695 2798.91,-274.524 2664,-179 2604.56,-136.915 2581.41,-137.325 2510,-123 2177.58,-56.3103 2085.72,-116.984 1748,-87 1726.08,-85.0534 1701.82,-81.9911 1681.6,-79.1814"/>
<polygon fill="midnightblue" stroke="midnightblue" points="1681.81,-75.6769 1671.42,-77.7423 1680.83,-82.608 1681.81,-75.6769"/>
</g>
<!-- Node45&#45;&gt;Node14 -->
<g id="edge154" class="edge"><title>Node45&#45;&gt;Node14</title>
<path fill="none" stroke="midnightblue" d="M2542.72,-661.671C2472.98,-658.866 2335.08,-653.368 2218,-649 1992.24,-640.577 1421.12,-668.02 1202,-613 1127.14,-594.203 959.827,-491.205 898,-445 843.94,-404.599 814,-385.989 814,-318.5 814,-318.5 814,-318.5 814,-193.5 814,-148.171 773.254,-108.215 747.532,-87.5072"/>
<polygon fill="midnightblue" stroke="midnightblue" points="749.51,-84.6119 739.465,-81.2425 745.216,-90.1405 749.51,-84.6119"/>
</g>
<!-- Node45&#45;&gt;Node15 -->
<g id="edge156" class="edge"><title>Node45&#45;&gt;Node15</title>
<path fill="none" stroke="midnightblue" d="M2633.1,-659.509C2704.62,-652.562 2840.21,-636.687 2882,-613 2972.21,-561.867 3034,-539.693 3034,-436 3034,-436 3034,-436 3034,-378 3034,-264.166 3084.29,-209.254 3010,-123 2987.72,-97.1254 2888.95,-82.0899 2837.47,-75.8763"/>
<polygon fill="midnightblue" stroke="midnightblue" points="2837.58,-72.3659 2827.24,-74.6836 2836.77,-79.3188 2837.58,-72.3659"/>
</g>
<!-- Node45&#45;&gt;Node18 -->
<g id="edge152" class="edge"><title>Node45&#45;&gt;Node18</title>
<path fill="none" stroke="midnightblue" d="M2542.93,-662.72C2461.55,-659.143 2288.05,-641.361 2175,-557 2058.01,-469.7 2080.55,-394.959 1968,-302 1952.01,-288.789 1931.53,-277.724 1914.79,-269.872"/>
<polygon fill="midnightblue" stroke="midnightblue" points="1915.99,-266.571 1905.44,-265.628 1913.1,-272.946 1915.99,-266.571"/>
</g>
<!-- Node45&#45;&gt;Node21 -->
<g id="edge155" class="edge"><title>Node45&#45;&gt;Node21</title>
<path fill="none" stroke="midnightblue" d="M2609.61,-654.976C2628.4,-646.65 2655.3,-632.402 2673,-613 2734.2,-545.916 2772.96,-513.584 2753,-425 2726.13,-305.753 2728.92,-250.806 2630,-179 2600.52,-157.598 2497.12,-143.533 2442.84,-137.446"/>
<polygon fill="midnightblue" stroke="midnightblue" points="2443,-133.943 2432.68,-136.336 2442.24,-140.902 2443,-133.943"/>
</g>
<!-- Node45&#45;&gt;Node31 -->
<g id="edge153" class="edge"><title>Node45&#45;&gt;Node31</title>
<path fill="none" stroke="midnightblue" d="M2542.75,-660.406C2394.44,-650.262 1923.59,-618.06 1768.26,-607.437"/>
<polygon fill="midnightblue" stroke="midnightblue" points="1768.27,-603.93 1758.06,-606.739 1767.79,-610.914 1768.27,-603.93"/>
</g>
<!-- Node46&#45;&gt;Node14 -->
<g id="edge162" class="edge"><title>Node46&#45;&gt;Node14</title>
<path fill="none" stroke="midnightblue" d="M2453.34,-724.081C2190.03,-719.334 1003.48,-697.15 840,-680 564.309,-651.078 266,-713.204 266,-436 266,-436 266,-436 266,-193.5 266,-157.253 276.718,-142.92 307,-123 370.759,-81.0578 607.81,-73.9325 694.759,-72.7361"/>
<polygon fill="midnightblue" stroke="midnightblue" points="694.875,-76.2351 704.832,-72.6153 694.791,-69.2356 694.875,-76.2351"/>
</g>
<!-- Node46&#45;&gt;Node24 -->
<g id="edge163" class="edge"><title>Node46&#45;&gt;Node24</title>
<path fill="none" stroke="midnightblue" d="M2505.84,-716.341C2507.82,-700.631 2514.24,-667.364 2534,-649 2574.78,-611.092 2620.76,-657.673 2654,-613 2674.16,-585.9 2659.68,-570.297 2654,-537 2642.28,-468.273 2624.04,-455.145 2602,-389 2580.6,-324.772 2556.95,-247.916 2546.49,-213.597"/>
<polygon fill="midnightblue" stroke="midnightblue" points="2549.84,-212.568 2543.58,-204.019 2543.14,-214.605 2549.84,-212.568"/>
</g>
<!-- Node46&#45;&gt;Node31 -->
<g id="edge159" class="edge"><title>Node46&#45;&gt;Node31</title>
<path fill="none" stroke="midnightblue" d="M2453.26,-721.117C2373.63,-714.77 2216.35,-700.763 2084,-680 1967.68,-661.751 1832.39,-631.194 1763.46,-614.942"/>
<polygon fill="midnightblue" stroke="midnightblue" points="1763.91,-611.454 1753.38,-612.556 1762.3,-618.265 1763.91,-611.454"/>
</g>
<!-- Node46&#45;&gt;Node40 -->
<g id="edge161" class="edge"><title>Node46&#45;&gt;Node40</title>
<path fill="none" stroke="midnightblue" d="M2556.64,-722.661C2659.1,-717.563 2884.55,-703.948 2958,-680 3013.87,-661.782 3032.83,-656.811 3072,-613 3083.96,-599.626 3091.68,-580.515 3096.12,-566.476"/>
<polygon fill="midnightblue" stroke="midnightblue" points="3099.59,-567.089 3099,-556.51 3092.87,-565.145 3099.59,-567.089"/>
</g>
<!-- Node46&#45;&gt;Node45 -->
<g id="edge160" class="edge"><title>Node46&#45;&gt;Node45</title>
<path fill="none" stroke="midnightblue" d="M2516.89,-716.475C2530.2,-706.931 2552,-691.307 2567.96,-679.868"/>
<polygon fill="midnightblue" stroke="midnightblue" points="2570.04,-682.68 2576.13,-674.009 2565.96,-676.991 2570.04,-682.68"/>
</g>
<!-- Node47&#45;&gt;Node10 -->
<g id="edge169" class="edge"><title>Node47&#45;&gt;Node10</title>
<path fill="none" stroke="midnightblue" d="M2319.34,-598.485C2292.69,-596.791 2260.18,-594.751 2231,-593 1951.23,-576.208 1615.49,-557.522 1491.81,-550.688"/>
<polygon fill="midnightblue" stroke="midnightblue" points="1491.72,-547.178 1481.54,-550.122 1491.33,-554.168 1491.72,-547.178"/>
</g>
<!-- Node47&#45;&gt;Node14 -->
<g id="edge170" class="edge"><title>Node47&#45;&gt;Node14</title>
<path fill="none" stroke="midnightblue" d="M2363.11,-593.337C2345.97,-579.984 2311.31,-554.13 2279,-537 1928.33,-351.095 1814.13,-363.214 1448,-210 1360.08,-173.209 1344.18,-147.209 1252,-123 1070.22,-75.2607 842.443,-71.6101 759.282,-72.0387"/>
<polygon fill="midnightblue" stroke="midnightblue" points="759.169,-68.5394 749.196,-72.1152 759.222,-75.5392 759.169,-68.5394"/>
</g>
<!-- Node47&#45;&gt;Node15 -->
<g id="edge173" class="edge"><title>Node47&#45;&gt;Node15</title>
<path fill="none" stroke="midnightblue" d="M2389.3,-593.286C2457.94,-553.136 2737.62,-377.858 2820,-143 2826.05,-125.755 2820.6,-105.168 2814.82,-90.7067"/>
<polygon fill="midnightblue" stroke="midnightblue" points="2817.95,-89.1349 2810.72,-81.3946 2811.55,-91.957 2817.95,-89.1349"/>
</g>
<!-- Node47&#45;&gt;Node18 -->
<g id="edge168" class="edge"><title>Node47&#45;&gt;Node18</title>
<path fill="none" stroke="midnightblue" d="M2370.54,-593.446C2361.89,-572.726 2337.81,-518.776 2307,-481 2229.71,-386.221 2207.71,-356.048 2098,-302 2052.91,-279.788 1997.23,-268.515 1953.96,-262.807"/>
<polygon fill="midnightblue" stroke="midnightblue" points="1954.17,-259.305 1943.81,-261.539 1953.3,-266.252 1954.17,-259.305"/>
</g>
<!-- Node47&#45;&gt;Node21 -->
<g id="edge171" class="edge"><title>Node47&#45;&gt;Node21</title>
<path fill="none" stroke="midnightblue" d="M2374.69,-593.451C2378.05,-551.571 2393.05,-363.866 2404,-210 2405.38,-190.661 2406.82,-168.543 2407.8,-153.174"/>
<polygon fill="midnightblue" stroke="midnightblue" points="2411.31,-153.096 2408.45,-142.894 2404.32,-152.653 2411.31,-153.096"/>
</g>
<!-- Node47&#45;&gt;Node37 -->
<g id="edge172" class="edge"><title>Node47&#45;&gt;Node37</title>
<path fill="none" stroke="midnightblue" d="M2350.71,-593.444C2326.19,-584.438 2287.4,-570.189 2259.8,-560.049"/>
<polygon fill="midnightblue" stroke="midnightblue" points="2260.78,-556.679 2250.18,-556.516 2258.36,-563.25 2260.78,-556.679"/>
</g>
<!-- Node47&#45;&gt;Node40 -->
<g id="edge167" class="edge"><title>Node47&#45;&gt;Node40</title>
<path fill="none" stroke="midnightblue" d="M2428.64,-597.941C2560.73,-588.13 2896.79,-563.168 3037.51,-552.716"/>
<polygon fill="midnightblue" stroke="midnightblue" points="3037.99,-556.19 3047.7,-551.959 3037.47,-549.21 3037.99,-556.19"/>
</g>
<!-- Node48&#45;&gt;Node14 -->
<g id="edge179" class="edge"><title>Node48&#45;&gt;Node14</title>
<path fill="none" stroke="midnightblue" d="M2757.77,-658.265C2724.52,-655.161 2680.8,-651.381 2642,-649 2324.16,-629.497 1510.74,-667.243 1212,-557 1121.97,-523.777 852,-414.464 852,-318.5 852,-318.5 852,-318.5 852,-193.5 852,-140.821 793.978,-103.758 756.995,-85.4842"/>
<polygon fill="midnightblue" stroke="midnightblue" points="758.175,-82.1699 747.641,-81.0377 755.17,-88.492 758.175,-82.1699"/>
</g>
<!-- Node48&#45;&gt;Node15 -->
<g id="edge180" class="edge"><title>Node48&#45;&gt;Node15</title>
<path fill="none" stroke="midnightblue" d="M2864.23,-662.796C2941.2,-658.806 3083.08,-639.812 3163,-557 3183.9,-535.342 3182,-522.098 3182,-492 3182,-492 3182,-492 3182,-434 3182,-355.313 3186,-335.687 3186,-257 3186,-257 3186,-257 3186,-193.5 3186,-149.657 3155.92,-143.19 3117,-123 3068.49,-97.8342 2906.25,-81.1883 2837.36,-75.0935"/>
<polygon fill="midnightblue" stroke="midnightblue" points="2837.4,-71.5842 2827.14,-74.2062 2836.8,-78.5579 2837.4,-71.5842"/>
</g>
<!-- Node48&#45;&gt;Node19 -->
<g id="edge176" class="edge"><title>Node48&#45;&gt;Node19</title>
<path fill="none" stroke="midnightblue" d="M2787.15,-649.358C2734.11,-617.234 2603.81,-534.574 2512,-445 2454.61,-389.004 2471.42,-342.135 2402,-302 2339.4,-265.806 1854.53,-218.135 1674.77,-201.519"/>
<polygon fill="midnightblue" stroke="midnightblue" points="1674.93,-198.019 1664.65,-200.587 1674.29,-204.99 1674.93,-198.019"/>
</g>
<!-- Node48&#45;&gt;Node21 -->
<g id="edge178" class="edge"><title>Node48&#45;&gt;Node21</title>
<path fill="none" stroke="midnightblue" d="M2839.84,-649.495C2854.58,-640.918 2871.56,-628.582 2882,-613 2943.72,-520.886 2979.63,-470.056 2934,-369 2846.98,-176.275 2544.71,-141.593 2442.83,-135.362"/>
<polygon fill="midnightblue" stroke="midnightblue" points="2442.96,-131.864 2432.78,-134.802 2442.57,-138.853 2442.96,-131.864"/>
</g>
<!-- Node48&#45;&gt;Node24 -->
<g id="edge181" class="edge"><title>Node48&#45;&gt;Node24</title>
<path fill="none" stroke="midnightblue" d="M2811.95,-649.348C2812.47,-634.84 2812.06,-611.803 2806,-593 2750.43,-420.539 2704.73,-387.857 2592,-246 2581.97,-233.376 2569.05,-220.611 2558.72,-211.073"/>
<polygon fill="midnightblue" stroke="midnightblue" points="2560.86,-208.292 2551.1,-204.18 2556.17,-213.484 2560.86,-208.292"/>
</g>
<!-- Node48&#45;&gt;Node40 -->
<g id="edge175" class="edge"><title>Node48&#45;&gt;Node40</title>
<path fill="none" stroke="midnightblue" d="M2855.47,-649.454C2884.84,-639.876 2924.03,-626.521 2958,-613 2999.25,-596.583 3045.87,-574.758 3074.34,-561.044"/>
<polygon fill="midnightblue" stroke="midnightblue" points="3076.15,-564.061 3083.62,-556.553 3073.1,-557.76 3076.15,-564.061"/>
</g>
<!-- Node48&#45;&gt;Node47 -->
<g id="edge177" class="edge"><title>Node48&#45;&gt;Node47</title>
<path fill="none" stroke="midnightblue" d="M2757.85,-656.264C2677.55,-645.33 2525.5,-624.628 2438.82,-612.825"/>
<polygon fill="midnightblue" stroke="midnightblue" points="2439.22,-609.347 2428.84,-611.466 2438.27,-616.283 2439.22,-609.347"/>
</g>
<!-- Node49&#45;&gt;Node14 -->
<g id="edge184" class="edge"><title>Node49&#45;&gt;Node14</title>
<path fill="none" stroke="midnightblue" d="M2092.94,-662.821C1909.4,-660.316 1343.33,-649.736 1164,-613 1093.47,-598.552 1075.39,-591.137 1012,-557 880.706,-486.292 776,-467.623 776,-318.5 776,-318.5 776,-318.5 776,-193.5 776,-154.036 753.331,-112.278 738.83,-89.6036"/>
<polygon fill="midnightblue" stroke="midnightblue" points="741.648,-87.519 733.206,-81.1169 735.813,-91.386 741.648,-87.519"/>
</g>
<!-- Node49&#45;&gt;Node15 -->
<g id="edge187" class="edge"><title>Node49&#45;&gt;Node15</title>
<path fill="none" stroke="midnightblue" d="M2209.18,-660.637C2307.69,-655.09 2502.72,-640.894 2565,-613 2759.52,-525.883 2837.77,-471.025 2896,-266 2913.36,-204.863 2928.11,-177.845 2896,-123 2883.32,-101.342 2857.57,-88.266 2836.85,-80.8643"/>
<polygon fill="midnightblue" stroke="midnightblue" points="2837.75,-77.4775 2827.16,-77.6739 2835.56,-84.1262 2837.75,-77.4775"/>
</g>
<!-- Node49&#45;&gt;Node21 -->
<g id="edge186" class="edge"><title>Node49&#45;&gt;Node21</title>
<path fill="none" stroke="midnightblue" d="M2209.15,-659.48C2311.53,-651.891 2515.48,-634.29 2540,-613 2686.86,-485.5 2718.76,-329.848 2596,-179 2576.9,-155.535 2491.15,-142.742 2442.67,-137.27"/>
<polygon fill="midnightblue" stroke="midnightblue" points="2442.96,-133.781 2432.64,-136.183 2442.21,-140.74 2442.96,-133.781"/>
</g>
<!-- Node49&#45;&gt;Node29 -->
<g id="edge188" class="edge"><title>Node49&#45;&gt;Node29</title>
<path fill="none" stroke="midnightblue" d="M2092.89,-656.123C2029.79,-647.347 1933.77,-631.531 1902,-613 1857.92,-587.287 1823.09,-536.282 1806.9,-509.443"/>
<polygon fill="midnightblue" stroke="midnightblue" points="1809.87,-507.593 1801.79,-500.74 1803.83,-511.136 1809.87,-507.593"/>
</g>
<!-- Node49&#45;&gt;Node31 -->
<g id="edge183" class="edge"><title>Node49&#45;&gt;Node31</title>
<path fill="none" stroke="midnightblue" d="M2092.6,-655.476C2007.11,-643.727 1849.28,-622.04 1768.51,-610.94"/>
<polygon fill="midnightblue" stroke="midnightblue" points="1768.49,-607.405 1758.11,-609.511 1767.54,-614.34 1768.49,-607.405"/>
</g>
<!-- Node49&#45;&gt;Node42 -->
<g id="edge185" class="edge"><title>Node49&#45;&gt;Node42</title>
<path fill="none" stroke="midnightblue" d="M2157.16,-654.975C2163.61,-646.05 2173.9,-631.807 2181.97,-620.643"/>
<polygon fill="midnightblue" stroke="midnightblue" points="2184.83,-622.664 2187.85,-612.509 2179.16,-618.564 2184.83,-622.664"/>
</g>
<!-- Node50&#45;&gt;Node32 -->
<g id="edge193" class="edge"><title>Node50&#45;&gt;Node32</title>
<path fill="none" stroke="midnightblue" d="M814.576,-828.324C799.46,-819.822 776.185,-806.729 758.529,-796.797"/>
<polygon fill="midnightblue" stroke="midnightblue" points="759.817,-793.507 749.386,-791.655 756.386,-799.608 759.817,-793.507"/>
</g>
<!-- Node50&#45;&gt;Node33 -->
<g id="edge191" class="edge"><title>Node50&#45;&gt;Node33</title>
<path fill="none" stroke="midnightblue" d="M854.15,-828.495C934.148,-800.324 1190.64,-709.997 1283.25,-677.385"/>
<polygon fill="midnightblue" stroke="midnightblue" points="1284.43,-680.679 1292.7,-674.056 1282.11,-674.076 1284.43,-680.679"/>
</g>
<!-- Node50&#45;&gt;Node38 -->
<g id="edge192" class="edge"><title>Node50&#45;&gt;Node38</title>
<path fill="none" stroke="midnightblue" d="M835.336,-828.368C846.508,-810.296 872.545,-768.176 887.301,-744.307"/>
<polygon fill="midnightblue" stroke="midnightblue" points="890.408,-745.938 892.689,-735.591 884.454,-742.257 890.408,-745.938"/>
</g>
</g>
</svg>
