<?xml version="1.0" encoding="UTF-8" standalone="no"?>
<!DOCTYPE svg PUBLIC "-//W3C//DTD SVG 1.1//EN"
 "http://www.w3.org/Graphics/SVG/1.1/DTD/svg11.dtd">
<!-- Generated by graphviz version 2.38.0 (20140413.2041)
 -->
<!-- Title: Graphical Class Hierarchy Pages: 1 -->
<svg width="509pt" height="199pt"
 viewBox="0.00 0.00 509.00 199.00" xmlns="http://www.w3.org/2000/svg" xmlns:xlink="http://www.w3.org/1999/xlink">
<g id="graph0" class="graph" transform="scale(1 1) rotate(0) translate(4 195)">
<title>Graphical Class Hierarchy</title>
<polygon fill="white" stroke="none" points="-4,4 -4,-195 505,-195 505,4 -4,4"/>
<!-- Node1 -->
<g id="node1" class="node"><title>Node1</title>
<g id="a_node1"><a xlink:href="classtvm_1_1runtime_1_1ObjectRef.html" target="_top" xlink:title="Base class of all object reference. ">
<polygon fill="white" stroke="black" points="0,-95.5 0,-114.5 130,-114.5 130,-95.5 0,-95.5"/>
<text text-anchor="middle" x="65" y="-102.5" font-family="Helvetica,sans-Serif" font-size="10.00">tvm::runtime::ObjectRef</text>
</a>
</g>
</g>
<!-- Node2 -->
<g id="node2" class="node"><title>Node2</title>
<g id="a_node2"><a xlink:href="classtvm_1_1runtime_1_1ADT.html" target="_top" xlink:title="reference to algebraic data type objects. ">
<polygon fill="white" stroke="black" points="185,-171.5 185,-190.5 289,-190.5 289,-171.5 185,-171.5"/>
<text text-anchor="middle" x="237" y="-178.5" font-family="Helvetica,sans-Serif" font-size="10.00">tvm::runtime::ADT</text>
</a>
</g>
</g>
<!-- Node1&#45;&gt;Node2 -->
<g id="edge1" class="edge"><title>Node1&#45;&gt;Node2</title>
<path fill="none" stroke="midnightblue" d="M88.9025,-120.288C108.64,-132.908 138.255,-150.545 166,-162 174.846,-165.652 184.609,-168.811 193.965,-171.446"/>
<polygon fill="midnightblue" stroke="midnightblue" points="90.6082,-117.222 80.3147,-114.714 86.7972,-123.094 90.6082,-117.222"/>
</g>
<!-- Node3 -->
<g id="node3" class="node"><title>Node3</title>
<g id="a_node3"><a xlink:href="classtvm_1_1runtime_1_1Module.html" target="_top" xlink:title="Module container of TVM. ">
<polygon fill="white" stroke="black" points="177.5,-133.5 177.5,-152.5 296.5,-152.5 296.5,-133.5 177.5,-133.5"/>
<text text-anchor="middle" x="237" y="-140.5" font-family="Helvetica,sans-Serif" font-size="10.00">tvm::runtime::Module</text>
</a>
</g>
</g>
<!-- Node1&#45;&gt;Node3 -->
<g id="edge2" class="edge"><title>Node1&#45;&gt;Node3</title>
<path fill="none" stroke="midnightblue" d="M118.898,-116.824C142.865,-122.182 170.824,-128.431 193.41,-133.48"/>
<polygon fill="midnightblue" stroke="midnightblue" points="119.421,-113.355 108.898,-114.589 117.894,-120.186 119.421,-113.355"/>
</g>
<!-- Node4 -->
<g id="node4" class="node"><title>Node4</title>
<g id="a_node4"><a xlink:href="classtvm_1_1runtime_1_1NDArray.html" target="_top" xlink:title="Managed NDArray. The array is backed by reference counted blocks. ">
<polygon fill="white" stroke="black" points="174.5,-95.5 174.5,-114.5 299.5,-114.5 299.5,-95.5 174.5,-95.5"/>
<text text-anchor="middle" x="237" y="-102.5" font-family="Helvetica,sans-Serif" font-size="10.00">tvm::runtime::NDArray</text>
</a>
</g>
</g>
<!-- Node1&#45;&gt;Node4 -->
<g id="edge3" class="edge"><title>Node1&#45;&gt;Node4</title>
<path fill="none" stroke="midnightblue" d="M140.568,-105C151.885,-105 163.451,-105 174.45,-105"/>
<polygon fill="midnightblue" stroke="midnightblue" points="140.27,-101.5 130.27,-105 140.27,-108.5 140.27,-101.5"/>
</g>
<!-- Node5 -->
<g id="node5" class="node"><title>Node5</title>
<g id="a_node5"><a xlink:href="classtvm_1_1runtime_1_1String.html" target="_top" xlink:title="Reference to string objects. ">
<polygon fill="white" stroke="black" points="180.5,-57.5 180.5,-76.5 293.5,-76.5 293.5,-57.5 180.5,-57.5"/>
<text text-anchor="middle" x="237" y="-64.5" font-family="Helvetica,sans-Serif" font-size="10.00">tvm::runtime::String</text>
</a>
</g>
</g>
<!-- Node1&#45;&gt;Node5 -->
<g id="edge4" class="edge"><title>Node1&#45;&gt;Node5</title>
<path fill="none" stroke="midnightblue" d="M118.898,-93.1757C142.865,-87.8184 170.824,-81.5689 193.41,-76.5201"/>
<polygon fill="midnightblue" stroke="midnightblue" points="117.894,-89.8138 108.898,-95.411 119.421,-96.6452 117.894,-89.8138"/>
</g>
<!-- Node6 -->
<g id="node6" class="node"><title>Node6</title>
<g id="a_node6"><a xlink:href="classtvm_1_1runtime_1_1vm_1_1Closure.html" target="_top" xlink:title="reference to closure. ">
<polygon fill="white" stroke="black" points="166,-19.5 166,-38.5 308,-38.5 308,-19.5 166,-19.5"/>
<text text-anchor="middle" x="237" y="-26.5" font-family="Helvetica,sans-Serif" font-size="10.00">tvm::runtime::vm::Closure</text>
</a>
</g>
</g>
<!-- Node1&#45;&gt;Node6 -->
<g id="edge5" class="edge"><title>Node1&#45;&gt;Node6</title>
<path fill="none" stroke="midnightblue" d="M88.9025,-89.7122C108.64,-77.0921 138.255,-59.4554 166,-48 174.846,-44.3477 184.609,-41.1894 193.965,-38.5537"/>
<polygon fill="midnightblue" stroke="midnightblue" points="86.7972,-86.906 80.3147,-95.2863 90.6082,-92.7777 86.7972,-86.906"/>
</g>
<!-- Node7 -->
<g id="node7" class="node"><title>Node7</title>
<g id="a_node7"><a xlink:href="classtvm_1_1relay_1_1InterpreterClosure.html" target="_top" xlink:title="tvm::relay::InterpreterClosure">
<polygon fill="white" stroke="black" points="344,-38.5 344,-57.5 501,-57.5 501,-38.5 344,-38.5"/>
<text text-anchor="middle" x="422.5" y="-45.5" font-family="Helvetica,sans-Serif" font-size="10.00">tvm::relay::InterpreterClosure</text>
</a>
</g>
</g>
<!-- Node6&#45;&gt;Node7 -->
<g id="edge6" class="edge"><title>Node6&#45;&gt;Node7</title>
<path fill="none" stroke="midnightblue" d="M318.353,-37.3199C326.779,-38.1923 335.335,-39.0783 343.731,-39.9476"/>
<polygon fill="midnightblue" stroke="midnightblue" points="318.466,-33.813 308.159,-36.2644 317.745,-40.7758 318.466,-33.813"/>
</g>
<!-- Node8 -->
<g id="node8" class="node"><title>Node8</title>
<g id="a_node8"><a xlink:href="classtvm_1_1runtime_1_1vm_1_1VMClosure.html" target="_top" xlink:title="reference to closure. ">
<polygon fill="white" stroke="black" points="344,-0.5 344,-19.5 501,-19.5 501,-0.5 344,-0.5"/>
<text text-anchor="middle" x="422.5" y="-7.5" font-family="Helvetica,sans-Serif" font-size="10.00">tvm::runtime::vm::VMClosure</text>
</a>
</g>
</g>
<!-- Node6&#45;&gt;Node8 -->
<g id="edge7" class="edge"><title>Node6&#45;&gt;Node8</title>
<path fill="none" stroke="midnightblue" d="M318.353,-20.6801C326.779,-19.8077 335.335,-18.9217 343.731,-18.0524"/>
<polygon fill="midnightblue" stroke="midnightblue" points="317.745,-17.2242 308.159,-21.7356 318.466,-24.187 317.745,-17.2242"/>
</g>
</g>
</svg>
