<?xml version="1.0" encoding="UTF-8" standalone="no"?>
<!DOCTYPE svg PUBLIC "-//W3C//DTD SVG 1.1//EN"
 "http://www.w3.org/Graphics/SVG/1.1/DTD/svg11.dtd">
<!-- Generated by graphviz version 2.38.0 (20140413.2041)
 -->
<!-- Title: include/tvm/relay/interpreter.h Pages: 1 -->
<svg width="3193pt" height="957pt"
 viewBox="0.00 0.00 3193.27 957.00" xmlns="http://www.w3.org/2000/svg" xmlns:xlink="http://www.w3.org/1999/xlink">
<g id="graph0" class="graph" transform="scale(1 1) rotate(0) translate(4 953)">
<title>include/tvm/relay/interpreter.h</title>
<polygon fill="white" stroke="none" points="-4,4 -4,-953 3189.27,-953 3189.27,4 -4,4"/>
<!-- Node1 -->
<g id="node1" class="node"><title>Node1</title>
<polygon fill="#bfbfbf" stroke="black" points="1964.5,-929.5 1964.5,-948.5 2125.5,-948.5 2125.5,-929.5 1964.5,-929.5"/>
<text text-anchor="middle" x="2045" y="-936.5" font-family="Helvetica,sans-Serif" font-size="10.00">include/tvm/relay/interpreter.h</text>
</g>
<!-- Node2 -->
<g id="node2" class="node"><title>Node2</title>
<g id="a_node2"><a xlink:href="ir_2module_8h.html" target="_top" xlink:title="IRModule that holds the functions and type definitions. ">
<polygon fill="white" stroke="black" points="814,-705.5 814,-724.5 906,-724.5 906,-705.5 814,-705.5"/>
<text text-anchor="middle" x="860" y="-712.5" font-family="Helvetica,sans-Serif" font-size="10.00">tvm/ir/module.h</text>
</a>
</g>
</g>
<!-- Node1&#45;&gt;Node2 -->
<g id="edge1" class="edge"><title>Node1&#45;&gt;Node2</title>
<path fill="none" stroke="midnightblue" d="M1964.49,-933.56C1758.71,-921.624 1217.59,-886.373 1045,-837 990.727,-821.474 977.623,-812.825 931,-781 910.001,-766.666 888.884,-746.412 875.207,-732.337"/>
<polygon fill="midnightblue" stroke="midnightblue" points="877.506,-729.676 868.071,-724.855 872.44,-734.507 877.506,-729.676"/>
</g>
<!-- Node4 -->
<g id="node4" class="node"><title>Node4</title>
<g id="a_node4"><a xlink:href="object_8h.html" target="_top" xlink:title="A managed object in the TVM runtime. ">
<polygon fill="white" stroke="black" points="842.5,-123.5 842.5,-142.5 959.5,-142.5 959.5,-123.5 842.5,-123.5"/>
<text text-anchor="middle" x="901" y="-130.5" font-family="Helvetica,sans-Serif" font-size="10.00">tvm/runtime/object.h</text>
</a>
</g>
</g>
<!-- Node1&#45;&gt;Node4 -->
<g id="edge156" class="edge"><title>Node1&#45;&gt;Node4</title>
<path fill="none" stroke="midnightblue" d="M1964.45,-937.784C1594.47,-936.273 76,-924.212 76,-828 76,-828 76,-828 76,-714 76,-538.815 493.314,-246.433 655,-179 711.983,-155.235 781.566,-143.986 832.168,-138.682"/>
<polygon fill="midnightblue" stroke="midnightblue" points="832.742,-142.143 842.345,-137.669 832.048,-135.177 832.742,-142.143"/>
</g>
<!-- Node36 -->
<g id="node36" class="node"><title>Node36</title>
<g id="a_node36"><a xlink:href="relay_2expr_8h.html" target="_top" xlink:title="Relay expression language. ">
<polygon fill="white" stroke="black" points="1656,-873.5 1656,-892.5 1750,-892.5 1750,-873.5 1656,-873.5"/>
<text text-anchor="middle" x="1703" y="-880.5" font-family="Helvetica,sans-Serif" font-size="10.00">tvm/relay/expr.h</text>
</a>
</g>
</g>
<!-- Node1&#45;&gt;Node36 -->
<g id="edge102" class="edge"><title>Node1&#45;&gt;Node36</title>
<path fill="none" stroke="midnightblue" d="M1990.81,-929.444C1927.79,-919.493 1824.22,-903.14 1760.02,-893.002"/>
<polygon fill="midnightblue" stroke="midnightblue" points="1760.48,-889.533 1750.06,-891.431 1759.39,-896.448 1760.48,-889.533"/>
</g>
<!-- Node46 -->
<g id="node46" class="node"><title>Node46</title>
<g id="a_node46"><a xlink:href="runtime_2container_8h.html" target="_top" xlink:title="Common POD(plain old data) container types. ">
<polygon fill="white" stroke="black" points="2464,-246.5 2464,-265.5 2596,-265.5 2596,-246.5 2464,-246.5"/>
<text text-anchor="middle" x="2530" y="-253.5" font-family="Helvetica,sans-Serif" font-size="10.00">tvm/runtime/container.h</text>
</a>
</g>
</g>
<!-- Node1&#45;&gt;Node46 -->
<g id="edge157" class="edge"><title>Node1&#45;&gt;Node46</title>
<path fill="none" stroke="midnightblue" d="M2125.54,-931.687C2240,-920.46 2436,-891.906 2436,-828 2436,-828 2436,-828 2436,-602 2436,-472.467 2498.45,-324.893 2521.54,-274.742"/>
<polygon fill="midnightblue" stroke="midnightblue" points="2524.77,-276.102 2525.84,-265.561 2518.43,-273.136 2524.77,-276.102"/>
</g>
<!-- Node48 -->
<g id="node48" class="node"><title>Node48</title>
<g id="a_node48"><a xlink:href="vm_8h.html" target="_top" xlink:title="A virtual machine for executing Relay programs. ">
<polygon fill="white" stroke="black" points="1871.5,-308 1871.5,-327 1974.5,-327 1974.5,-308 1871.5,-308"/>
<text text-anchor="middle" x="1923" y="-315" font-family="Helvetica,sans-Serif" font-size="10.00">tvm/runtime/vm.h</text>
</a>
</g>
</g>
<!-- Node1&#45;&gt;Node48 -->
<g id="edge167" class="edge"><title>Node1&#45;&gt;Node48</title>
<path fill="none" stroke="midnightblue" d="M2117.95,-929.456C2218.39,-915.624 2387,-884.056 2387,-828 2387,-828 2387,-828 2387,-714 2387,-490.75 2072.04,-366.904 1961.1,-330.207"/>
<polygon fill="midnightblue" stroke="midnightblue" points="1961.92,-326.791 1951.33,-327.024 1959.75,-333.447 1961.92,-326.791"/>
</g>
<!-- Node49 -->
<g id="node49" class="node"><title>Node49</title>
<g id="a_node49"><a xlink:href="target_8h.html" target="_top" xlink:title="Compilation target object. ">
<polygon fill="white" stroke="black" points="2779.5,-593.5 2779.5,-612.5 2888.5,-612.5 2888.5,-593.5 2779.5,-593.5"/>
<text text-anchor="middle" x="2834" y="-600.5" font-family="Helvetica,sans-Serif" font-size="10.00">tvm/target/target.h</text>
</a>
</g>
</g>
<!-- Node1&#45;&gt;Node49 -->
<g id="edge177" class="edge"><title>Node1&#45;&gt;Node49</title>
<path fill="none" stroke="midnightblue" d="M2125.63,-938.777C2347.28,-939.007 2957.38,-926.192 3079,-781 3145.36,-701.775 2964.6,-639.688 2877.68,-615.262"/>
<polygon fill="midnightblue" stroke="midnightblue" points="2878.39,-611.826 2867.82,-612.538 2876.53,-618.574 2878.39,-611.826"/>
</g>
<!-- Node3 -->
<g id="node3" class="node"><title>Node3</title>
<g id="a_node3"><a xlink:href="ir_2type_8h.html" target="_top" xlink:title="IR/AST nodes for the unified type system in TVM. ">
<polygon fill="white" stroke="black" points="616.5,-481.5 616.5,-500.5 693.5,-500.5 693.5,-481.5 616.5,-481.5"/>
<text text-anchor="middle" x="655" y="-488.5" font-family="Helvetica,sans-Serif" font-size="10.00">tvm/ir/type.h</text>
</a>
</g>
</g>
<!-- Node2&#45;&gt;Node3 -->
<g id="edge2" class="edge"><title>Node2&#45;&gt;Node3</title>
<path fill="none" stroke="midnightblue" d="M813.74,-711.132C779.138,-706.765 732.546,-695.895 701,-669 654.126,-629.038 651.879,-547.993 653.54,-511.083"/>
<polygon fill="midnightblue" stroke="midnightblue" points="657.054,-510.951 654.164,-500.758 650.067,-510.528 657.054,-510.951"/>
</g>
<!-- Node11 -->
<g id="node11" class="node"><title>Node11</title>
<polygon fill="white" stroke="#bfbfbf" points="1080,-62 1080,-81 1124,-81 1124,-62 1080,-62"/>
<text text-anchor="middle" x="1102" y="-69" font-family="Helvetica,sans-Serif" font-size="10.00">string</text>
</g>
<!-- Node2&#45;&gt;Node11 -->
<g id="edge98" class="edge"><title>Node2&#45;&gt;Node11</title>
<path fill="none" stroke="midnightblue" d="M813.884,-710.336C674.321,-698.636 266,-659.651 266,-604 266,-604 266,-604 266,-546 266,-373.253 39.1942,-320.7 138,-179 245.154,-25.3268 379.023,-130.976 955,-87 994.398,-83.992 1039.62,-79.3523 1069.39,-76.1346"/>
<polygon fill="midnightblue" stroke="midnightblue" points="1070.05,-79.5829 1079.61,-75.0192 1069.29,-72.6241 1070.05,-79.5829"/>
</g>
<!-- Node21 -->
<g id="node21" class="node"><title>Node21</title>
<polygon fill="white" stroke="#bfbfbf" points="2324.5,-123.5 2324.5,-142.5 2371.5,-142.5 2371.5,-123.5 2324.5,-123.5"/>
<text text-anchor="middle" x="2348" y="-130.5" font-family="Helvetica,sans-Serif" font-size="10.00">vector</text>
</g>
<!-- Node2&#45;&gt;Node21 -->
<g id="edge99" class="edge"><title>Node2&#45;&gt;Node21</title>
<path fill="none" stroke="midnightblue" d="M906.182,-714.309C1109.65,-715.388 1920.57,-716.644 2023,-669 2094.65,-635.673 1975.79,-808.031 2326,-266 2341.56,-241.923 2350.64,-237.705 2358,-210 2361.54,-196.684 2359.5,-192.696 2358,-179 2357.03,-170.14 2355.01,-160.472 2353.04,-152.375"/>
<polygon fill="midnightblue" stroke="midnightblue" points="2356.38,-151.333 2350.48,-142.533 2349.61,-153.092 2356.38,-151.333"/>
</g>
<!-- Node25 -->
<g id="node25" class="node"><title>Node25</title>
<polygon fill="white" stroke="#bfbfbf" points="1504.5,-185 1504.5,-204 1597.5,-204 1597.5,-185 1504.5,-185"/>
<text text-anchor="middle" x="1551" y="-192" font-family="Helvetica,sans-Serif" font-size="10.00">unordered_map</text>
</g>
<!-- Node2&#45;&gt;Node25 -->
<g id="edge100" class="edge"><title>Node2&#45;&gt;Node25</title>
<path fill="none" stroke="midnightblue" d="M906.007,-711.667C1076.94,-702.596 1668.91,-667.465 1732,-613 1840.92,-518.966 1712.07,-427.68 1642,-302 1627.47,-275.945 1624.25,-268.789 1605,-246 1594.18,-233.185 1580.33,-220.293 1569.37,-210.743"/>
<polygon fill="midnightblue" stroke="midnightblue" points="1571.52,-207.981 1561.65,-204.148 1566.98,-213.304 1571.52,-207.981"/>
</g>
<!-- Node29 -->
<g id="node29" class="node"><title>Node29</title>
<g id="a_node29"><a xlink:href="ir_2expr_8h.html" target="_top" xlink:title="Base expr nodes in TVM. ">
<polygon fill="white" stroke="black" points="1014.5,-537.5 1014.5,-556.5 1091.5,-556.5 1091.5,-537.5 1014.5,-537.5"/>
<text text-anchor="middle" x="1053" y="-544.5" font-family="Helvetica,sans-Serif" font-size="10.00">tvm/ir/expr.h</text>
</a>
</g>
</g>
<!-- Node2&#45;&gt;Node29 -->
<g id="edge65" class="edge"><title>Node2&#45;&gt;Node29</title>
<path fill="none" stroke="midnightblue" d="M865.876,-705.417C880.757,-684.166 921.962,-628.273 967,-593 983.746,-579.885 1004.89,-568.763 1022.02,-560.857"/>
<polygon fill="midnightblue" stroke="midnightblue" points="1023.87,-563.86 1031.58,-556.583 1021.02,-557.469 1023.87,-563.86"/>
</g>
<!-- Node31 -->
<g id="node31" class="node"><title>Node31</title>
<g id="a_node31"><a xlink:href="ir_2function_8h.html" target="_top" xlink:title="Function nodes. ">
<polygon fill="white" stroke="black" points="710.5,-649.5 710.5,-668.5 805.5,-668.5 805.5,-649.5 710.5,-649.5"/>
<text text-anchor="middle" x="758" y="-656.5" font-family="Helvetica,sans-Serif" font-size="10.00">tvm/ir/function.h</text>
</a>
</g>
</g>
<!-- Node2&#45;&gt;Node31 -->
<g id="edge75" class="edge"><title>Node2&#45;&gt;Node31</title>
<path fill="none" stroke="midnightblue" d="M843.612,-705.324C827.329,-696.703 802.133,-683.364 783.284,-673.386"/>
<polygon fill="midnightblue" stroke="midnightblue" points="784.823,-670.24 774.347,-668.655 781.548,-676.427 784.823,-670.24"/>
</g>
<!-- Node34 -->
<g id="node34" class="node"><title>Node34</title>
<g id="a_node34"><a xlink:href="ir_2adt_8h.html" target="_top" xlink:title="Algebraic data type definitions. ">
<polygon fill="white" stroke="black" points="684,-593.5 684,-612.5 756,-612.5 756,-593.5 684,-593.5"/>
<text text-anchor="middle" x="720" y="-600.5" font-family="Helvetica,sans-Serif" font-size="10.00">tvm/ir/adt.h</text>
</a>
</g>
</g>
<!-- Node2&#45;&gt;Node34 -->
<g id="edge91" class="edge"><title>Node2&#45;&gt;Node34</title>
<path fill="none" stroke="midnightblue" d="M855.745,-705.359C848.701,-691.805 833.444,-665.401 814,-649 796.923,-634.596 774.451,-623.618 755.761,-616.112"/>
<polygon fill="midnightblue" stroke="midnightblue" points="756.971,-612.827 746.381,-612.504 754.458,-619.361 756.971,-612.827"/>
</g>
<!-- Node35 -->
<g id="node35" class="node"><title>Node35</title>
<polygon fill="white" stroke="#bfbfbf" points="2464,-537.5 2464,-556.5 2550,-556.5 2550,-537.5 2464,-537.5"/>
<text text-anchor="middle" x="2507" y="-544.5" font-family="Helvetica,sans-Serif" font-size="10.00">unordered_set</text>
</g>
<!-- Node2&#45;&gt;Node35 -->
<g id="edge101" class="edge"><title>Node2&#45;&gt;Node35</title>
<path fill="none" stroke="midnightblue" d="M906.309,-714.092C1105.71,-714.221 1891.94,-711.944 2135,-669 2266.77,-645.718 2416.07,-586.598 2477.85,-560.597"/>
<polygon fill="midnightblue" stroke="midnightblue" points="2479.5,-563.7 2487.34,-556.574 2476.77,-557.256 2479.5,-563.7"/>
</g>
<!-- Node3&#45;&gt;Node4 -->
<g id="edge3" class="edge"><title>Node3&#45;&gt;Node4</title>
<path fill="none" stroke="midnightblue" d="M654.738,-481.356C654.005,-440.894 656.402,-268.41 746,-179 768.721,-156.327 802.143,-144.935 832.14,-139.267"/>
<polygon fill="midnightblue" stroke="midnightblue" points="832.893,-142.689 842.161,-137.557 831.715,-135.789 832.893,-142.689"/>
</g>
<!-- Node3&#45;&gt;Node11 -->
<g id="edge64" class="edge"><title>Node3&#45;&gt;Node11</title>
<path fill="none" stroke="midnightblue" d="M642.634,-481.365C582.515,-438.42 328.217,-245.048 442,-123 480.964,-81.2055 898.062,-91.805 955,-87 994.373,-83.6773 1039.6,-79.1017 1069.37,-75.985"/>
<polygon fill="midnightblue" stroke="midnightblue" points="1070.03,-79.4358 1079.6,-74.9078 1069.29,-72.4743 1070.03,-79.4358"/>
</g>
<!-- Node14 -->
<g id="node14" class="node"><title>Node14</title>
<g id="a_node14"><a xlink:href="data__type_8h.html" target="_top" xlink:title="tvm/runtime/data_type.h">
<polygon fill="white" stroke="black" points="650,-123.5 650,-142.5 786,-142.5 786,-123.5 650,-123.5"/>
<text text-anchor="middle" x="718" y="-130.5" font-family="Helvetica,sans-Serif" font-size="10.00">tvm/runtime/data_type.h</text>
</a>
</g>
</g>
<!-- Node3&#45;&gt;Node14 -->
<g id="edge13" class="edge"><title>Node3&#45;&gt;Node14</title>
<path fill="none" stroke="midnightblue" d="M648.895,-481.191C643.245,-472.46 635.245,-458.478 632,-445 617.124,-383.21 622.514,-364.844 632,-302 640.54,-245.425 639.673,-227.518 670,-179 677.211,-167.463 688.103,-156.92 697.69,-148.944"/>
<polygon fill="midnightblue" stroke="midnightblue" points="699.988,-151.588 705.653,-142.635 695.641,-146.101 699.988,-151.588"/>
</g>
<!-- Node15 -->
<g id="node15" class="node"><title>Node15</title>
<g id="a_node15"><a xlink:href="node_8h.html" target="_top" xlink:title="Definitions and helper macros for IR/AST nodes. ">
<polygon fill="white" stroke="red" points="918,-369.5 918,-388.5 1016,-388.5 1016,-369.5 918,-369.5"/>
<text text-anchor="middle" x="967" y="-376.5" font-family="Helvetica,sans-Serif" font-size="10.00">tvm/node/node.h</text>
</a>
</g>
</g>
<!-- Node3&#45;&gt;Node15 -->
<g id="edge17" class="edge"><title>Node3&#45;&gt;Node15</title>
<path fill="none" stroke="midnightblue" d="M669.222,-481.485C692.493,-467.864 740.481,-441.08 784,-425 825.096,-409.815 873.271,-398.204 909.874,-390.582"/>
<polygon fill="midnightblue" stroke="midnightblue" points="910.779,-393.969 919.876,-388.538 909.378,-387.111 910.779,-393.969"/>
</g>
<!-- Node18 -->
<g id="node18" class="node"><title>Node18</title>
<g id="a_node18"><a xlink:href="node_2container_8h.html" target="_top" xlink:title="Array/Map container in the DSL graph. ">
<polygon fill="white" stroke="black" points="1251.5,-246.5 1251.5,-265.5 1370.5,-265.5 1370.5,-246.5 1251.5,-246.5"/>
<text text-anchor="middle" x="1311" y="-253.5" font-family="Helvetica,sans-Serif" font-size="10.00">tvm/node/container.h</text>
</a>
</g>
</g>
<!-- Node3&#45;&gt;Node18 -->
<g id="edge59" class="edge"><title>Node3&#45;&gt;Node18</title>
<path fill="none" stroke="midnightblue" d="M693.879,-483.754C739.344,-476.115 816.697,-462.069 882,-445 959.577,-424.723 1155.4,-372.819 1225,-333 1253.24,-316.843 1280.44,-290.379 1296.44,-273.329"/>
<polygon fill="midnightblue" stroke="midnightblue" points="1299.17,-275.535 1303.35,-265.801 1294.01,-270.801 1299.17,-275.535"/>
</g>
<!-- Node28 -->
<g id="node28" class="node"><title>Node28</title>
<g id="a_node28"><a xlink:href="span_8h.html" target="_top" xlink:title="Span information for debugging purposes. ">
<polygon fill="white" stroke="black" points="793,-425.5 793,-444.5 873,-444.5 873,-425.5 793,-425.5"/>
<text text-anchor="middle" x="833" y="-432.5" font-family="Helvetica,sans-Serif" font-size="10.00">tvm/ir/span.h</text>
</a>
</g>
</g>
<!-- Node3&#45;&gt;Node28 -->
<g id="edge60" class="edge"><title>Node3&#45;&gt;Node28</title>
<path fill="none" stroke="midnightblue" d="M683.205,-481.444C713.41,-472.28 761.511,-457.688 795.029,-447.519"/>
<polygon fill="midnightblue" stroke="midnightblue" points="796.374,-450.769 804.927,-444.516 794.342,-444.07 796.374,-450.769"/>
</g>
<!-- Node5 -->
<g id="node5" class="node"><title>Node5</title>
<polygon fill="white" stroke="#bfbfbf" points="1711,-62 1711,-81 1797,-81 1797,-62 1711,-62"/>
<text text-anchor="middle" x="1754" y="-69" font-family="Helvetica,sans-Serif" font-size="10.00">dmlc/logging.h</text>
</g>
<!-- Node4&#45;&gt;Node5 -->
<g id="edge4" class="edge"><title>Node4&#45;&gt;Node5</title>
<path fill="none" stroke="midnightblue" d="M959.63,-127.91C1117.32,-116.911 1548.81,-86.8128 1700.45,-76.2356"/>
<polygon fill="midnightblue" stroke="midnightblue" points="1701.14,-79.6958 1710.87,-75.5083 1700.65,-72.7128 1701.14,-79.6958"/>
</g>
<!-- Node6 -->
<g id="node6" class="node"><title>Node6</title>
<g id="a_node6"><a xlink:href="c__runtime__api_8h.html" target="_top" xlink:title="tvm/runtime/c_runtime\l_api.h">
<polygon fill="white" stroke="black" points="750.5,-56.5 750.5,-86.5 877.5,-86.5 877.5,-56.5 750.5,-56.5"/>
<text text-anchor="start" x="758.5" y="-74.5" font-family="Helvetica,sans-Serif" font-size="10.00">tvm/runtime/c_runtime</text>
<text text-anchor="middle" x="814" y="-63.5" font-family="Helvetica,sans-Serif" font-size="10.00">_api.h</text>
</a>
</g>
</g>
<!-- Node4&#45;&gt;Node6 -->
<g id="edge5" class="edge"><title>Node4&#45;&gt;Node6</title>
<path fill="none" stroke="midnightblue" d="M888.535,-123.475C876.642,-115.341 858.291,-102.791 842.774,-92.1788"/>
<polygon fill="midnightblue" stroke="midnightblue" points="844.734,-89.2792 834.504,-86.523 840.783,-95.0571 844.734,-89.2792"/>
</g>
<!-- Node10 -->
<g id="node10" class="node"><title>Node10</title>
<polygon fill="white" stroke="#bfbfbf" points="664,-62 664,-81 732,-81 732,-62 664,-62"/>
<text text-anchor="middle" x="698" y="-69" font-family="Helvetica,sans-Serif" font-size="10.00">type_traits</text>
</g>
<!-- Node4&#45;&gt;Node10 -->
<g id="edge9" class="edge"><title>Node4&#45;&gt;Node10</title>
<path fill="none" stroke="midnightblue" d="M868.68,-123.43C836.261,-114.713 784.973,-100.588 741,-87 738.248,-86.1496 735.405,-85.2463 732.553,-84.3226"/>
<polygon fill="midnightblue" stroke="midnightblue" points="733.535,-80.961 722.942,-81.1506 731.341,-87.6084 733.535,-80.961"/>
</g>
<!-- Node4&#45;&gt;Node11 -->
<g id="edge10" class="edge"><title>Node4&#45;&gt;Node11</title>
<path fill="none" stroke="midnightblue" d="M929.798,-123.475C966.967,-112.473 1031.44,-93.3883 1070.07,-81.9524"/>
<polygon fill="midnightblue" stroke="midnightblue" points="1071.17,-85.2756 1079.77,-79.081 1069.19,-78.5635 1071.17,-85.2756"/>
</g>
<!-- Node12 -->
<g id="node12" class="node"><title>Node12</title>
<polygon fill="white" stroke="#bfbfbf" points="2813,-62 2813,-81 2855,-81 2855,-62 2813,-62"/>
<text text-anchor="middle" x="2834" y="-69" font-family="Helvetica,sans-Serif" font-size="10.00">utility</text>
</g>
<!-- Node4&#45;&gt;Node12 -->
<g id="edge11" class="edge"><title>Node4&#45;&gt;Node12</title>
<path fill="none" stroke="midnightblue" d="M959.642,-130.195C1255.75,-121.08 2581.21,-80.2812 2802.59,-73.4667"/>
<polygon fill="midnightblue" stroke="midnightblue" points="2802.96,-76.9571 2812.85,-73.151 2802.75,-69.9604 2802.96,-76.9571"/>
</g>
<!-- Node13 -->
<g id="node13" class="node"><title>Node13</title>
<polygon fill="white" stroke="#bfbfbf" points="896,-62 896,-81 946,-81 946,-62 896,-62"/>
<text text-anchor="middle" x="921" y="-69" font-family="Helvetica,sans-Serif" font-size="10.00">atomic</text>
</g>
<!-- Node4&#45;&gt;Node13 -->
<g id="edge12" class="edge"><title>Node4&#45;&gt;Node13</title>
<path fill="none" stroke="midnightblue" d="M903.866,-123.475C906.717,-114.992 911.183,-101.704 914.841,-90.8222"/>
<polygon fill="midnightblue" stroke="midnightblue" points="918.271,-91.6031 918.14,-81.0091 911.636,-89.3727 918.271,-91.6031"/>
</g>
<!-- Node7 -->
<g id="node7" class="node"><title>Node7</title>
<polygon fill="white" stroke="#bfbfbf" points="679,-0.5 679,-19.5 769,-19.5 769,-0.5 679,-0.5"/>
<text text-anchor="middle" x="724" y="-7.5" font-family="Helvetica,sans-Serif" font-size="10.00">dlpack/dlpack.h</text>
</g>
<!-- Node6&#45;&gt;Node7 -->
<g id="edge6" class="edge"><title>Node6&#45;&gt;Node7</title>
<path fill="none" stroke="midnightblue" d="M792.671,-56.3993C778.515,-47.0402 759.989,-34.7924 745.747,-25.3771"/>
<polygon fill="midnightblue" stroke="midnightblue" points="747.368,-22.2531 737.096,-19.6578 743.507,-28.0923 747.368,-22.2531"/>
</g>
<!-- Node8 -->
<g id="node8" class="node"><title>Node8</title>
<polygon fill="white" stroke="#bfbfbf" points="787.5,-0.5 787.5,-19.5 840.5,-19.5 840.5,-0.5 787.5,-0.5"/>
<text text-anchor="middle" x="814" y="-7.5" font-family="Helvetica,sans-Serif" font-size="10.00">stdint.h</text>
</g>
<!-- Node6&#45;&gt;Node8 -->
<g id="edge7" class="edge"><title>Node6&#45;&gt;Node8</title>
<path fill="none" stroke="midnightblue" d="M814,-56.3993C814,-48.4664 814,-38.458 814,-29.8583"/>
<polygon fill="midnightblue" stroke="midnightblue" points="817.5,-29.6577 814,-19.6578 810.5,-29.6578 817.5,-29.6577"/>
</g>
<!-- Node9 -->
<g id="node9" class="node"><title>Node9</title>
<polygon fill="white" stroke="#bfbfbf" points="858.5,-0.5 858.5,-19.5 913.5,-19.5 913.5,-0.5 858.5,-0.5"/>
<text text-anchor="middle" x="886" y="-7.5" font-family="Helvetica,sans-Serif" font-size="10.00">stddef.h</text>
</g>
<!-- Node6&#45;&gt;Node9 -->
<g id="edge8" class="edge"><title>Node6&#45;&gt;Node9</title>
<path fill="none" stroke="midnightblue" d="M831.063,-56.3993C842.065,-47.3076 856.365,-35.4899 867.618,-26.1909"/>
<polygon fill="midnightblue" stroke="midnightblue" points="870.044,-28.726 875.523,-19.6578 865.585,-23.33 870.044,-28.726"/>
</g>
<!-- Node14&#45;&gt;Node5 -->
<g id="edge15" class="edge"><title>Node14&#45;&gt;Node5</title>
<path fill="none" stroke="midnightblue" d="M786.088,-126.407C801.509,-125.214 817.814,-124.01 833,-123 1162.69,-101.063 1559.24,-81.6819 1700.69,-74.9876"/>
<polygon fill="midnightblue" stroke="midnightblue" points="1701,-78.4768 1710.82,-74.509 1700.67,-71.4846 1701,-78.4768"/>
</g>
<!-- Node14&#45;&gt;Node6 -->
<g id="edge14" class="edge"><title>Node14&#45;&gt;Node6</title>
<path fill="none" stroke="midnightblue" d="M731.754,-123.475C744.999,-115.266 765.503,-102.558 782.724,-91.8845"/>
<polygon fill="midnightblue" stroke="midnightblue" points="784.719,-94.7661 791.375,-86.523 781.031,-88.8162 784.719,-94.7661"/>
</g>
<!-- Node14&#45;&gt;Node10 -->
<g id="edge16" class="edge"><title>Node14&#45;&gt;Node10</title>
<path fill="none" stroke="midnightblue" d="M715.134,-123.475C712.283,-114.992 707.817,-101.704 704.159,-90.8222"/>
<polygon fill="midnightblue" stroke="midnightblue" points="707.364,-89.3727 700.86,-81.0091 700.729,-91.6031 707.364,-89.3727"/>
</g>
<!-- Node15&#45;&gt;Node4 -->
<g id="edge19" class="edge"><title>Node15&#45;&gt;Node4</title>
<path fill="none" stroke="midnightblue" d="M917.882,-369.897C896.317,-363.632 872.991,-352.556 860,-333 821.479,-275.01 866.722,-188.156 889.469,-151.411"/>
<polygon fill="midnightblue" stroke="midnightblue" points="892.525,-153.13 894.953,-142.817 886.623,-149.365 892.525,-153.13"/>
</g>
<!-- Node15&#45;&gt;Node6 -->
<g id="edge18" class="edge"><title>Node15&#45;&gt;Node6</title>
<path fill="none" stroke="midnightblue" d="M917.72,-374.874C827.468,-366.169 637.446,-333.347 556,-210 534.694,-177.733 531.408,-152.839 556,-123 580.972,-92.6999 685.6,-94.6733 740.107,-86.8708"/>
<polygon fill="midnightblue" stroke="midnightblue" points="741.015,-90.2677 750.302,-85.1675 739.862,-83.3634 741.015,-90.2677"/>
</g>
<!-- Node15&#45;&gt;Node10 -->
<g id="edge58" class="edge"><title>Node15&#45;&gt;Node10</title>
<path fill="none" stroke="midnightblue" d="M917.57,-377.739C794.366,-373.993 475.678,-344.468 366,-143 361.75,-135.193 360.206,-129.741 366,-123 402.549,-80.4715 571.628,-73.3426 653.429,-72.4263"/>
<polygon fill="midnightblue" stroke="midnightblue" points="653.93,-75.9223 663.9,-72.3378 653.871,-68.9226 653.93,-75.9223"/>
</g>
<!-- Node15&#45;&gt;Node11 -->
<g id="edge55" class="edge"><title>Node15&#45;&gt;Node11</title>
<path fill="none" stroke="midnightblue" d="M954.219,-369.369C943.606,-361.36 929.269,-348.379 923,-333 917.799,-320.242 918.643,-315.071 923,-302 954.642,-207.074 1044.44,-121.683 1083.48,-87.875"/>
<polygon fill="midnightblue" stroke="midnightblue" points="1086.09,-90.2574 1091.43,-81.1075 1081.55,-84.9294 1086.09,-90.2574"/>
</g>
<!-- Node15&#45;&gt;Node12 -->
<g id="edge57" class="edge"><title>Node15&#45;&gt;Node12</title>
<path fill="none" stroke="midnightblue" d="M1016.37,-377.718C1260.07,-375.871 2335.84,-362.307 2654,-266 2739.85,-240.014 2773.9,-223.231 2814,-143 2822.34,-126.314 2827.69,-105.615 2830.73,-90.973"/>
<polygon fill="midnightblue" stroke="midnightblue" points="2834.18,-91.605 2832.63,-81.1241 2827.3,-90.2837 2834.18,-91.605"/>
</g>
<!-- Node16 -->
<g id="node16" class="node"><title>Node16</title>
<g id="a_node16"><a xlink:href="runtime_2memory_8h.html" target="_top" xlink:title="Runtime memory management. ">
<polygon fill="white" stroke="black" points="1168.5,-185 1168.5,-204 1295.5,-204 1295.5,-185 1168.5,-185"/>
<text text-anchor="middle" x="1232" y="-192" font-family="Helvetica,sans-Serif" font-size="10.00">tvm/runtime/memory.h</text>
</a>
</g>
</g>
<!-- Node15&#45;&gt;Node16 -->
<g id="edge20" class="edge"><title>Node15&#45;&gt;Node16</title>
<path fill="none" stroke="midnightblue" d="M956.881,-369.034C941.431,-354.247 915.324,-324.174 931,-302 982.161,-229.63 1086.83,-206.116 1158.21,-198.66"/>
<polygon fill="midnightblue" stroke="midnightblue" points="1158.87,-202.113 1168.49,-197.673 1158.2,-195.145 1158.87,-202.113"/>
</g>
<!-- Node15&#45;&gt;Node18 -->
<g id="edge25" class="edge"><title>Node15&#45;&gt;Node18</title>
<path fill="none" stroke="midnightblue" d="M1016.37,-373.879C1062.55,-368.678 1132.66,-357.278 1189,-333 1210.97,-323.533 1212.84,-314.879 1233,-302 1250.46,-290.847 1270.74,-279.185 1286.24,-270.527"/>
<polygon fill="midnightblue" stroke="midnightblue" points="1288.16,-273.465 1295.21,-265.557 1284.77,-267.343 1288.16,-273.465"/>
</g>
<!-- Node15&#45;&gt;Node21 -->
<g id="edge56" class="edge"><title>Node15&#45;&gt;Node21</title>
<path fill="none" stroke="midnightblue" d="M1016.27,-377.917C1193.08,-377.291 1795.05,-372.258 1983,-333 2125.67,-303.2 2171.02,-298.276 2287,-210 2308.38,-193.725 2326.71,-168.39 2337.55,-151.502"/>
<polygon fill="midnightblue" stroke="midnightblue" points="2340.73,-153.011 2343.03,-142.668 2334.78,-149.321 2340.73,-153.011"/>
</g>
<!-- Node26 -->
<g id="node26" class="node"><title>Node26</title>
<g id="a_node26"><a xlink:href="structural__equal_8h.html" target="_top" xlink:title="Structural equality comparison. ">
<polygon fill="white" stroke="red" points="940.5,-302.5 940.5,-332.5 1051.5,-332.5 1051.5,-302.5 940.5,-302.5"/>
<text text-anchor="start" x="948.5" y="-320.5" font-family="Helvetica,sans-Serif" font-size="10.00">tvm/node/structural</text>
<text text-anchor="middle" x="996" y="-309.5" font-family="Helvetica,sans-Serif" font-size="10.00">_equal.h</text>
</a>
</g>
</g>
<!-- Node15&#45;&gt;Node26 -->
<g id="edge46" class="edge"><title>Node15&#45;&gt;Node26</title>
<path fill="none" stroke="midnightblue" d="M971.155,-369.475C974.679,-362.245 979.904,-351.525 984.654,-341.779"/>
<polygon fill="midnightblue" stroke="midnightblue" points="987.93,-343.046 989.165,-332.523 981.638,-339.979 987.93,-343.046"/>
</g>
<!-- Node27 -->
<g id="node27" class="node"><title>Node27</title>
<g id="a_node27"><a xlink:href="structural__hash_8h.html" target="_top" xlink:title="tvm/node/structural\l_hash.h">
<polygon fill="white" stroke="red" points="1069.5,-302.5 1069.5,-332.5 1180.5,-332.5 1180.5,-302.5 1069.5,-302.5"/>
<text text-anchor="start" x="1077.5" y="-320.5" font-family="Helvetica,sans-Serif" font-size="10.00">tvm/node/structural</text>
<text text-anchor="middle" x="1125" y="-309.5" font-family="Helvetica,sans-Serif" font-size="10.00">_hash.h</text>
</a>
</g>
</g>
<!-- Node15&#45;&gt;Node27 -->
<g id="edge50" class="edge"><title>Node15&#45;&gt;Node27</title>
<path fill="none" stroke="midnightblue" d="M989.638,-369.475C1012.64,-360.814 1048.93,-347.145 1078.15,-336.141"/>
<polygon fill="midnightblue" stroke="midnightblue" points="1079.64,-339.323 1087.76,-332.523 1077.17,-332.772 1079.64,-339.323"/>
</g>
<!-- Node16&#45;&gt;Node4 -->
<g id="edge21" class="edge"><title>Node16&#45;&gt;Node4</title>
<path fill="none" stroke="midnightblue" d="M1184.58,-184.975C1124.85,-174.239 1022.31,-155.806 958.271,-144.295"/>
<polygon fill="midnightblue" stroke="midnightblue" points="958.798,-140.834 948.336,-142.509 957.559,-147.723 958.798,-140.834"/>
</g>
<!-- Node16&#45;&gt;Node10 -->
<g id="edge24" class="edge"><title>Node16&#45;&gt;Node10</title>
<path fill="none" stroke="midnightblue" d="M1203.71,-184.91C1155.65,-170.545 1054.78,-141.416 968,-123 868.076,-101.794 840.191,-111.406 741,-87 737.608,-86.1653 734.1,-85.1847 730.62,-84.1338"/>
<polygon fill="midnightblue" stroke="midnightblue" points="731.59,-80.7694 720.999,-81.0487 729.452,-87.4351 731.59,-80.7694"/>
</g>
<!-- Node16&#45;&gt;Node12 -->
<g id="edge23" class="edge"><title>Node16&#45;&gt;Node12</title>
<path fill="none" stroke="midnightblue" d="M1247.91,-184.934C1278.08,-169.188 1346.17,-136.063 1408,-123 1548.65,-93.2874 2606.54,-75.9398 2802.74,-72.9609"/>
<polygon fill="midnightblue" stroke="midnightblue" points="2802.99,-76.4577 2812.93,-72.8074 2802.88,-69.4585 2802.99,-76.4577"/>
</g>
<!-- Node17 -->
<g id="node17" class="node"><title>Node17</title>
<polygon fill="white" stroke="#bfbfbf" points="1208.5,-123.5 1208.5,-142.5 1255.5,-142.5 1255.5,-123.5 1208.5,-123.5"/>
<text text-anchor="middle" x="1232" y="-130.5" font-family="Helvetica,sans-Serif" font-size="10.00">cstdlib</text>
</g>
<!-- Node16&#45;&gt;Node17 -->
<g id="edge22" class="edge"><title>Node16&#45;&gt;Node17</title>
<path fill="none" stroke="midnightblue" d="M1232,-184.975C1232,-176.58 1232,-163.481 1232,-152.663"/>
<polygon fill="midnightblue" stroke="midnightblue" points="1235.5,-152.509 1232,-142.509 1228.5,-152.509 1235.5,-152.509"/>
</g>
<!-- Node18&#45;&gt;Node4 -->
<g id="edge26" class="edge"><title>Node18&#45;&gt;Node4</title>
<path fill="none" stroke="midnightblue" d="M1251.45,-249.88C1197.73,-244.061 1117.08,-232.319 1050,-210 1002.47,-194.186 951.341,-165.176 923.045,-147.935"/>
<polygon fill="midnightblue" stroke="midnightblue" points="924.71,-144.849 914.362,-142.575 921.033,-150.806 924.71,-144.849"/>
</g>
<!-- Node18&#45;&gt;Node10 -->
<g id="edge40" class="edge"><title>Node18&#45;&gt;Node10</title>
<path fill="none" stroke="midnightblue" d="M1251.28,-252.535C1183.19,-248.463 1069.13,-237.781 975,-210 908.071,-190.246 895.447,-174.147 833,-143 815.921,-134.482 811.909,-131.851 795,-123 770.715,-110.288 742.97,-95.8522 723.392,-85.6803"/>
<polygon fill="midnightblue" stroke="midnightblue" points="724.976,-82.5589 714.488,-81.0556 721.749,-88.7709 724.976,-82.5589"/>
</g>
<!-- Node18&#45;&gt;Node11 -->
<g id="edge45" class="edge"><title>Node18&#45;&gt;Node11</title>
<path fill="none" stroke="midnightblue" d="M1311.64,-246.242C1312.39,-231.753 1312.59,-202.1 1304,-179 1293.34,-150.332 1288.78,-140.93 1264,-123 1224.74,-94.5945 1169.05,-81.8432 1134.26,-76.3565"/>
<polygon fill="midnightblue" stroke="midnightblue" points="1134.57,-72.8653 1124.17,-74.8777 1133.55,-79.7913 1134.57,-72.8653"/>
</g>
<!-- Node18&#45;&gt;Node12 -->
<g id="edge44" class="edge"><title>Node18&#45;&gt;Node12</title>
<path fill="none" stroke="midnightblue" d="M1370.87,-254.839C1493.1,-253.732 1767.01,-247.054 1852,-210 1870.75,-201.827 1867.6,-187.922 1886,-179 2053.39,-97.8334 2657.01,-77.1078 2802.36,-73.2487"/>
<polygon fill="midnightblue" stroke="midnightblue" points="2802.86,-76.7369 2812.77,-72.9806 2802.68,-69.7393 2802.86,-76.7369"/>
</g>
<!-- Node18&#45;&gt;Node16 -->
<g id="edge27" class="edge"><title>Node18&#45;&gt;Node16</title>
<path fill="none" stroke="midnightblue" d="M1299.68,-246.475C1287.13,-237.02 1266.65,-221.596 1251.5,-210.187"/>
<polygon fill="midnightblue" stroke="midnightblue" points="1253.39,-207.23 1243.3,-204.009 1249.18,-212.821 1253.39,-207.23"/>
</g>
<!-- Node19 -->
<g id="node19" class="node"><title>Node19</title>
<g id="a_node19"><a xlink:href="packed__func_8h.html" target="_top" xlink:title="Type&#45;erased function used across TVM API. ">
<polygon fill="white" stroke="red" points="1730.5,-179.5 1730.5,-209.5 1843.5,-209.5 1843.5,-179.5 1730.5,-179.5"/>
<text text-anchor="start" x="1738.5" y="-197.5" font-family="Helvetica,sans-Serif" font-size="10.00">tvm/runtime/packed</text>
<text text-anchor="middle" x="1787" y="-186.5" font-family="Helvetica,sans-Serif" font-size="10.00">_func.h</text>
</a>
</g>
</g>
<!-- Node18&#45;&gt;Node19 -->
<g id="edge28" class="edge"><title>Node18&#45;&gt;Node19</title>
<path fill="none" stroke="midnightblue" d="M1370.8,-247.525C1459.97,-236.378 1627.23,-215.472 1720.26,-203.842"/>
<polygon fill="midnightblue" stroke="midnightblue" points="1720.91,-207.288 1730.4,-202.575 1720.05,-200.342 1720.91,-207.288"/>
</g>
<!-- Node18&#45;&gt;Node21 -->
<g id="edge41" class="edge"><title>Node18&#45;&gt;Node21</title>
<path fill="none" stroke="midnightblue" d="M1370.76,-251.999C1475.43,-246.37 1698.62,-232.703 1886,-210 2047.08,-190.484 2237.85,-155.196 2314.07,-140.597"/>
<polygon fill="midnightblue" stroke="midnightblue" points="2314.9,-144.003 2324.05,-138.678 2313.57,-137.129 2314.9,-144.003"/>
</g>
<!-- Node24 -->
<g id="node24" class="node"><title>Node24</title>
<polygon fill="white" stroke="#bfbfbf" points="2166.5,-185 2166.5,-204 2243.5,-204 2243.5,-185 2166.5,-185"/>
<text text-anchor="middle" x="2205" y="-192" font-family="Helvetica,sans-Serif" font-size="10.00">initializer_list</text>
</g>
<!-- Node18&#45;&gt;Node24 -->
<g id="edge42" class="edge"><title>Node18&#45;&gt;Node24</title>
<path fill="none" stroke="midnightblue" d="M1370.59,-252.575C1499.44,-247.094 1813.54,-232.454 2076,-210 2102.62,-207.722 2132.26,-204.444 2156.4,-201.581"/>
<polygon fill="midnightblue" stroke="midnightblue" points="2156.87,-205.049 2166.39,-200.383 2156.04,-198.099 2156.87,-205.049"/>
</g>
<!-- Node18&#45;&gt;Node25 -->
<g id="edge43" class="edge"><title>Node18&#45;&gt;Node25</title>
<path fill="none" stroke="midnightblue" d="M1345.39,-246.475C1387.89,-235.937 1460.3,-217.986 1506.87,-206.441"/>
<polygon fill="midnightblue" stroke="midnightblue" points="1507.81,-209.813 1516.68,-204.009 1506.13,-203.018 1507.81,-209.813"/>
</g>
<!-- Node19&#45;&gt;Node4 -->
<g id="edge32" class="edge"><title>Node19&#45;&gt;Node4</title>
<path fill="none" stroke="midnightblue" d="M1730.16,-181.129C1725.38,-180.322 1720.62,-179.596 1716,-179 1572.42,-160.475 1138.85,-142.855 969.663,-136.496"/>
<polygon fill="midnightblue" stroke="midnightblue" points="969.754,-132.997 959.631,-136.12 969.493,-139.992 969.754,-132.997"/>
</g>
<!-- Node19&#45;&gt;Node5 -->
<g id="edge29" class="edge"><title>Node19&#45;&gt;Node5</title>
<path fill="none" stroke="midnightblue" d="M1783.08,-179.145C1777.07,-157.104 1765.58,-114.947 1758.98,-90.7626"/>
<polygon fill="midnightblue" stroke="midnightblue" points="1762.34,-89.7789 1756.33,-81.0522 1755.59,-91.6207 1762.34,-89.7789"/>
</g>
<!-- Node19&#45;&gt;Node6 -->
<g id="edge30" class="edge"><title>Node19&#45;&gt;Node6</title>
<path fill="none" stroke="midnightblue" d="M1760.58,-179.451C1722.01,-158.942 1654.72,-123.197 1654,-123 1492.47,-78.7902 1072.35,-106.602 887.821,-86.8856"/>
<polygon fill="midnightblue" stroke="midnightblue" points="887.945,-83.3769 877.611,-85.7156 887.148,-90.3314 887.945,-83.3769"/>
</g>
<!-- Node19&#45;&gt;Node10 -->
<g id="edge39" class="edge"><title>Node19&#45;&gt;Node10</title>
<path fill="none" stroke="midnightblue" d="M1744.61,-179.464C1718.1,-170.186 1683.51,-157.155 1654,-143 1638.19,-135.417 1636.82,-127.951 1620,-123 1432.46,-67.7854 933.23,-122.593 741,-87 737.102,-86.2783 733.076,-85.2803 729.122,-84.1423"/>
<polygon fill="midnightblue" stroke="midnightblue" points="730.147,-80.7956 719.557,-81.1033 728.027,-87.467 730.147,-80.7956"/>
</g>
<!-- Node19&#45;&gt;Node11 -->
<g id="edge35" class="edge"><title>Node19&#45;&gt;Node11</title>
<path fill="none" stroke="midnightblue" d="M1773.4,-179.457C1756.2,-162.713 1724.85,-135.435 1692,-123 1588.59,-83.8506 1242.38,-74.8375 1134.43,-72.9571"/>
<polygon fill="midnightblue" stroke="midnightblue" points="1134.23,-69.4534 1124.17,-72.7877 1134.11,-76.4524 1134.23,-69.4534"/>
</g>
<!-- Node19&#45;&gt;Node12 -->
<g id="edge38" class="edge"><title>Node19&#45;&gt;Node12</title>
<path fill="none" stroke="midnightblue" d="M1787.36,-179.457C1788.62,-162.979 1793.45,-136.232 1811,-123 1851.55,-92.4268 2634.62,-76.2003 2802.49,-73.0652"/>
<polygon fill="midnightblue" stroke="midnightblue" points="2802.71,-76.5619 2812.64,-72.8777 2802.58,-69.5631 2802.71,-76.5619"/>
</g>
<!-- Node19&#45;&gt;Node14 -->
<g id="edge31" class="edge"><title>Node19&#45;&gt;Node14</title>
<path fill="none" stroke="midnightblue" d="M1730.38,-188.475C1694.71,-185.431 1647.69,-181.64 1606,-179 1262.76,-157.265 1176.26,-164.42 833,-143 821.132,-142.259 808.584,-141.378 796.308,-140.462"/>
<polygon fill="midnightblue" stroke="midnightblue" points="796.318,-136.952 786.082,-139.685 795.788,-143.932 796.318,-136.952"/>
</g>
<!-- Node20 -->
<g id="node20" class="node"><title>Node20</title>
<polygon fill="white" stroke="#bfbfbf" points="1548.5,-123.5 1548.5,-142.5 1611.5,-142.5 1611.5,-123.5 1548.5,-123.5"/>
<text text-anchor="middle" x="1580" y="-130.5" font-family="Helvetica,sans-Serif" font-size="10.00">functional</text>
</g>
<!-- Node19&#45;&gt;Node20 -->
<g id="edge33" class="edge"><title>Node19&#45;&gt;Node20</title>
<path fill="none" stroke="midnightblue" d="M1738.21,-179.475C1702.03,-169.075 1653.33,-155.078 1619.56,-145.372"/>
<polygon fill="midnightblue" stroke="midnightblue" points="1620.17,-141.905 1609.59,-142.506 1618.24,-148.633 1620.17,-141.905"/>
</g>
<!-- Node19&#45;&gt;Node21 -->
<g id="edge34" class="edge"><title>Node19&#45;&gt;Node21</title>
<path fill="none" stroke="midnightblue" d="M1843.62,-187.495C1959.61,-175.193 2221.16,-147.453 2314.29,-137.576"/>
<polygon fill="midnightblue" stroke="midnightblue" points="2314.71,-141.05 2324.29,-136.515 2313.97,-134.089 2314.71,-141.05"/>
</g>
<!-- Node22 -->
<g id="node22" class="node"><title>Node22</title>
<polygon fill="white" stroke="#bfbfbf" points="1417,-123.5 1417,-142.5 1459,-142.5 1459,-123.5 1417,-123.5"/>
<text text-anchor="middle" x="1438" y="-130.5" font-family="Helvetica,sans-Serif" font-size="10.00">limits</text>
</g>
<!-- Node19&#45;&gt;Node22 -->
<g id="edge36" class="edge"><title>Node19&#45;&gt;Node22</title>
<path fill="none" stroke="midnightblue" d="M1730.46,-181.735C1725.57,-180.785 1720.7,-179.86 1716,-179 1626.87,-162.693 1521.1,-146.414 1469.49,-138.668"/>
<polygon fill="midnightblue" stroke="midnightblue" points="1469.73,-135.165 1459.33,-137.147 1468.7,-142.088 1469.73,-135.165"/>
</g>
<!-- Node23 -->
<g id="node23" class="node"><title>Node23</title>
<polygon fill="white" stroke="#bfbfbf" points="1820.5,-123.5 1820.5,-142.5 1877.5,-142.5 1877.5,-123.5 1820.5,-123.5"/>
<text text-anchor="middle" x="1849" y="-130.5" font-family="Helvetica,sans-Serif" font-size="10.00">memory</text>
</g>
<!-- Node19&#45;&gt;Node23 -->
<g id="edge37" class="edge"><title>Node19&#45;&gt;Node23</title>
<path fill="none" stroke="midnightblue" d="M1801.69,-179.399C1810.98,-170.486 1823,-158.952 1832.6,-149.741"/>
<polygon fill="midnightblue" stroke="midnightblue" points="1835.19,-152.107 1839.98,-142.658 1830.34,-147.057 1835.19,-152.107"/>
</g>
<!-- Node26&#45;&gt;Node11 -->
<g id="edge49" class="edge"><title>Node26&#45;&gt;Node11</title>
<path fill="none" stroke="midnightblue" d="M1002.16,-302.327C1020.36,-260.431 1073.9,-137.191 1094.13,-90.6105"/>
<polygon fill="midnightblue" stroke="midnightblue" points="1097.45,-91.7618 1098.22,-81.1953 1091.03,-88.9726 1097.45,-91.7618"/>
</g>
<!-- Node26&#45;&gt;Node14 -->
<g id="edge47" class="edge"><title>Node26&#45;&gt;Node14</title>
<path fill="none" stroke="midnightblue" d="M957.439,-302.45C912.865,-285.057 838.639,-252.46 784,-210 762.112,-192.991 742.009,-167.881 729.882,-151.24"/>
<polygon fill="midnightblue" stroke="midnightblue" points="732.651,-149.094 724.005,-142.971 726.946,-153.15 732.651,-149.094"/>
</g>
<!-- Node26&#45;&gt;Node18 -->
<g id="edge48" class="edge"><title>Node26&#45;&gt;Node18</title>
<path fill="none" stroke="midnightblue" d="M1051.82,-303.697C1054.58,-303.112 1057.32,-302.543 1060,-302 1124.47,-288.924 1198.66,-275.867 1249.57,-267.212"/>
<polygon fill="midnightblue" stroke="midnightblue" points="1250.16,-270.662 1259.43,-265.541 1248.99,-263.761 1250.16,-270.662"/>
</g>
<!-- Node27&#45;&gt;Node11 -->
<g id="edge53" class="edge"><title>Node27&#45;&gt;Node11</title>
<path fill="none" stroke="midnightblue" d="M1123.66,-302.327C1119.73,-260.607 1108.2,-138.228 1103.76,-91.2029"/>
<polygon fill="midnightblue" stroke="midnightblue" points="1107.24,-90.8227 1102.82,-81.1953 1100.27,-91.4797 1107.24,-90.8227"/>
</g>
<!-- Node27&#45;&gt;Node14 -->
<g id="edge51" class="edge"><title>Node27&#45;&gt;Node14</title>
<path fill="none" stroke="midnightblue" d="M1086.26,-302.45C1034.13,-283.203 938.849,-246.811 860,-210 817.391,-190.108 769.484,-163.554 741.628,-147.674"/>
<polygon fill="midnightblue" stroke="midnightblue" points="743.069,-144.466 732.652,-142.531 739.588,-150.54 743.069,-144.466"/>
</g>
<!-- Node27&#45;&gt;Node18 -->
<g id="edge52" class="edge"><title>Node27&#45;&gt;Node18</title>
<path fill="none" stroke="midnightblue" d="M1169.08,-302.399C1201.22,-292.118 1244.26,-278.351 1274.48,-268.682"/>
<polygon fill="midnightblue" stroke="midnightblue" points="1275.75,-271.951 1284.21,-265.571 1273.62,-265.284 1275.75,-271.951"/>
</g>
<!-- Node27&#45;&gt;Node20 -->
<g id="edge54" class="edge"><title>Node27&#45;&gt;Node20</title>
<path fill="none" stroke="midnightblue" d="M1145.37,-302.307C1168.12,-286.913 1206.45,-262.353 1242,-246 1344.89,-198.672 1473.61,-161.725 1538.51,-144.539"/>
<polygon fill="midnightblue" stroke="midnightblue" points="1539.58,-147.877 1548.36,-141.952 1537.8,-141.106 1539.58,-147.877"/>
</g>
<!-- Node28&#45;&gt;Node4 -->
<g id="edge61" class="edge"><title>Node28&#45;&gt;Node4</title>
<path fill="none" stroke="midnightblue" d="M831.522,-425.391C826.152,-391.506 810.34,-264.981 857,-179 863.145,-167.677 872.963,-157.238 881.767,-149.271"/>
<polygon fill="midnightblue" stroke="midnightblue" points="884.122,-151.863 889.433,-142.695 879.564,-146.55 884.122,-151.863"/>
</g>
<!-- Node28&#45;&gt;Node11 -->
<g id="edge63" class="edge"><title>Node28&#45;&gt;Node11</title>
<path fill="none" stroke="midnightblue" d="M819.925,-425.341C763.309,-386.86 546.336,-228.6 641,-123 644.601,-118.983 965.555,-86.2699 1069.74,-75.7472"/>
<polygon fill="midnightblue" stroke="midnightblue" points="1070.36,-79.202 1079.96,-74.7156 1069.66,-72.2373 1070.36,-79.202"/>
</g>
<!-- Node28&#45;&gt;Node15 -->
<g id="edge62" class="edge"><title>Node28&#45;&gt;Node15</title>
<path fill="none" stroke="midnightblue" d="M854.233,-425.444C876.384,-416.517 911.319,-402.439 936.436,-392.317"/>
<polygon fill="midnightblue" stroke="midnightblue" points="937.9,-395.501 945.867,-388.516 935.283,-389.008 937.9,-395.501"/>
</g>
<!-- Node29&#45;&gt;Node3 -->
<g id="edge70" class="edge"><title>Node29&#45;&gt;Node3</title>
<path fill="none" stroke="midnightblue" d="M1014.24,-539.21C1009.45,-538.432 1004.62,-537.676 1000,-537 870.62,-518.049 837.38,-519.951 708,-501 706.701,-500.81 705.386,-500.613 704.058,-500.412"/>
<polygon fill="midnightblue" stroke="midnightblue" points="704.178,-496.888 693.755,-498.79 703.089,-503.803 704.178,-496.888"/>
</g>
<!-- Node29&#45;&gt;Node4 -->
<g id="edge66" class="edge"><title>Node29&#45;&gt;Node4</title>
<path fill="none" stroke="midnightblue" d="M1015.17,-537.491C947.56,-521.419 810.543,-484.635 784,-445 773.951,-429.994 733.621,-343.796 841,-179 849.383,-166.134 862.777,-155.572 874.785,-147.921"/>
<polygon fill="midnightblue" stroke="midnightblue" points="876.809,-150.789 883.591,-142.649 873.214,-144.783 876.809,-150.789"/>
</g>
<!-- Node29&#45;&gt;Node10 -->
<g id="edge74" class="edge"><title>Node29&#45;&gt;Node10</title>
<path fill="none" stroke="midnightblue" d="M1014.44,-543.083C913.234,-535.291 645.213,-513.718 607,-501 469.661,-455.293 444.764,-418.541 328,-333 309.838,-319.694 261.265,-286.52 252,-266 178.941,-104.197 527.019,-77.6512 653.518,-73.3292"/>
<polygon fill="midnightblue" stroke="midnightblue" points="653.761,-76.8234 663.647,-73.0148 653.544,-69.8268 653.761,-76.8234"/>
</g>
<!-- Node29&#45;&gt;Node11 -->
<g id="edge71" class="edge"><title>Node29&#45;&gt;Node11</title>
<path fill="none" stroke="midnightblue" d="M1014.35,-540.562C960.245,-532.528 865.081,-516.734 834,-501 655.104,-410.436 414.168,-350.535 518,-179 545.795,-133.082 573.625,-138.545 625,-123 635.704,-119.761 964.481,-86.3826 1069.85,-75.7409"/>
<polygon fill="midnightblue" stroke="midnightblue" points="1070.29,-79.2138 1079.89,-74.7271 1069.59,-72.2492 1070.29,-79.2138"/>
</g>
<!-- Node29&#45;&gt;Node15 -->
<g id="edge67" class="edge"><title>Node29&#45;&gt;Node15</title>
<path fill="none" stroke="midnightblue" d="M1048.38,-537.075C1034.72,-510.719 994.395,-432.878 976.15,-397.661"/>
<polygon fill="midnightblue" stroke="midnightblue" points="979.147,-395.837 971.439,-388.568 972.931,-399.057 979.147,-395.837"/>
</g>
<!-- Node29&#45;&gt;Node18 -->
<g id="edge68" class="edge"><title>Node29&#45;&gt;Node18</title>
<path fill="none" stroke="midnightblue" d="M1067.39,-537.477C1103.08,-515.869 1197.4,-455.886 1261,-389 1281.73,-367.203 1287.94,-360.972 1299,-333 1306.35,-314.407 1309.21,-291.576 1310.31,-275.819"/>
<polygon fill="midnightblue" stroke="midnightblue" points="1313.81,-275.928 1310.85,-265.757 1306.82,-275.557 1313.81,-275.928"/>
</g>
<!-- Node29&#45;&gt;Node22 -->
<g id="edge73" class="edge"><title>Node29&#45;&gt;Node22</title>
<path fill="none" stroke="midnightblue" d="M1075.73,-537.347C1096.27,-529.141 1127.02,-515.879 1152,-501 1276.76,-426.687 1304.78,-390.817 1379,-266 1401.9,-227.487 1421.55,-178.506 1431.35,-152.379"/>
<polygon fill="midnightblue" stroke="midnightblue" points="1434.75,-153.272 1434.93,-142.678 1428.18,-150.85 1434.75,-153.272"/>
</g>
<!-- Node29&#45;&gt;Node28 -->
<g id="edge69" class="edge"><title>Node29&#45;&gt;Node28</title>
<path fill="none" stroke="midnightblue" d="M1035.74,-537.368C997.342,-518.171 904.684,-471.842 859.148,-449.074"/>
<polygon fill="midnightblue" stroke="midnightblue" points="860.692,-445.933 850.183,-444.591 857.562,-452.194 860.692,-445.933"/>
</g>
<!-- Node30 -->
<g id="node30" class="node"><title>Node30</title>
<polygon fill="white" stroke="#bfbfbf" points="1195,-481.5 1195,-500.5 1257,-500.5 1257,-481.5 1195,-481.5"/>
<text text-anchor="middle" x="1226" y="-488.5" font-family="Helvetica,sans-Serif" font-size="10.00">algorithm</text>
</g>
<!-- Node29&#45;&gt;Node30 -->
<g id="edge72" class="edge"><title>Node29&#45;&gt;Node30</title>
<path fill="none" stroke="midnightblue" d="M1080.41,-537.444C1109.77,-528.28 1156.52,-513.688 1189.1,-503.519"/>
<polygon fill="midnightblue" stroke="midnightblue" points="1190.21,-506.837 1198.72,-500.516 1188.13,-500.155 1190.21,-506.837"/>
</g>
<!-- Node31&#45;&gt;Node10 -->
<g id="edge89" class="edge"><title>Node31&#45;&gt;Node10</title>
<path fill="none" stroke="midnightblue" d="M710.295,-656.943C612.909,-654.152 394.795,-644.479 328,-613 133.389,-521.283 0,-472.14 0,-257 0,-257 0,-257 0,-193.5 0,-126.85 500.462,-86.3162 653.848,-75.4582"/>
<polygon fill="midnightblue" stroke="midnightblue" points="654.131,-78.9471 663.862,-74.7567 653.641,-71.9642 654.131,-78.9471"/>
</g>
<!-- Node31&#45;&gt;Node11 -->
<g id="edge90" class="edge"><title>Node31&#45;&gt;Node11</title>
<path fill="none" stroke="midnightblue" d="M710.328,-656.871C637.99,-652.603 500.339,-634.102 419,-557 295.925,-440.335 318.874,-341.61 367,-179 375.263,-151.08 376.101,-138.095 401,-123 453.748,-91.0203 893.52,-92.0283 955,-87 994.381,-83.7791 1039.61,-79.1828 1069.38,-76.0334"/>
<polygon fill="midnightblue" stroke="midnightblue" points="1070.03,-79.4834 1079.61,-74.9438 1069.29,-72.5228 1070.03,-79.4834"/>
</g>
<!-- Node31&#45;&gt;Node29 -->
<g id="edge76" class="edge"><title>Node31&#45;&gt;Node29</title>
<path fill="none" stroke="midnightblue" d="M774.198,-649.319C799.611,-635.943 850.637,-610.057 896,-593 932.641,-579.222 975.423,-567.217 1007.07,-559.08"/>
<polygon fill="midnightblue" stroke="midnightblue" points="1008.09,-562.43 1016.93,-556.577 1006.37,-555.645 1008.09,-562.43"/>
</g>
<!-- Node32 -->
<g id="node32" class="node"><title>Node32</title>
<g id="a_node32"><a xlink:href="ir_2attrs_8h.html" target="_top" xlink:title="Helpers for attribute objects. ">
<polygon fill="white" stroke="black" points="1644.5,-593.5 1644.5,-612.5 1723.5,-612.5 1723.5,-593.5 1644.5,-593.5"/>
<text text-anchor="middle" x="1684" y="-600.5" font-family="Helvetica,sans-Serif" font-size="10.00">tvm/ir/attrs.h</text>
</a>
</g>
</g>
<!-- Node31&#45;&gt;Node32 -->
<g id="edge77" class="edge"><title>Node31&#45;&gt;Node32</title>
<path fill="none" stroke="midnightblue" d="M805.514,-655.229C963.859,-645.995 1472.68,-616.323 1634.26,-606.901"/>
<polygon fill="midnightblue" stroke="midnightblue" points="1634.61,-610.386 1644.39,-606.31 1634.21,-603.398 1634.61,-610.386"/>
</g>
<!-- Node32&#45;&gt;Node10 -->
<g id="edge86" class="edge"><title>Node32&#45;&gt;Node10</title>
<path fill="none" stroke="midnightblue" d="M1644.28,-600.8C1468.54,-595.133 760.453,-568.466 550,-501 416.489,-458.2 379.628,-434.587 283,-333 234.024,-281.51 212.806,-244.653 240,-179 253.47,-146.481 264.386,-138.474 296,-123 358.215,-92.5479 562.64,-79.0616 653.634,-74.4604"/>
<polygon fill="midnightblue" stroke="midnightblue" points="654.078,-77.9429 663.893,-73.9551 653.733,-70.9513 654.078,-77.9429"/>
</g>
<!-- Node32&#45;&gt;Node11 -->
<g id="edge87" class="edge"><title>Node32&#45;&gt;Node11</title>
<path fill="none" stroke="midnightblue" d="M1684,-593.172C1683.58,-579.831 1681.1,-554.258 1669,-537 1621.58,-469.372 1513,-518.596 1513,-436 1513,-436 1513,-436 1513,-378 1513,-227.443 1417.77,-202.633 1290,-123 1241,-92.4621 1173.68,-80.1927 1134.31,-75.4091"/>
<polygon fill="midnightblue" stroke="midnightblue" points="1134.55,-71.9141 1124.22,-74.2738 1133.76,-78.8702 1134.55,-71.9141"/>
</g>
<!-- Node32&#45;&gt;Node12 -->
<g id="edge88" class="edge"><title>Node32&#45;&gt;Node12</title>
<path fill="none" stroke="midnightblue" d="M1715.05,-593.407C1835.46,-560.094 2267.96,-440.555 2330,-425 2508.62,-380.213 2561.61,-397.754 2734,-333 2888.48,-274.973 2978.55,-290.271 3053,-143 3057.01,-135.067 3058.53,-129.956 3053,-123 3029.88,-93.9458 2920.11,-80.1808 2865.29,-75.0297"/>
<polygon fill="midnightblue" stroke="midnightblue" points="2865.38,-71.5233 2855.1,-74.1123 2864.75,-78.4951 2865.38,-71.5233"/>
</g>
<!-- Node32&#45;&gt;Node19 -->
<g id="edge82" class="edge"><title>Node32&#45;&gt;Node19</title>
<path fill="none" stroke="midnightblue" d="M1723.6,-596.138C1747.64,-590.393 1776.75,-579.1 1793,-557 1860.36,-465.422 1816.04,-415.641 1813,-302 1812.33,-277.084 1815.94,-270.208 1810,-246 1807.72,-236.719 1803.76,-227.049 1799.76,-218.685"/>
<polygon fill="midnightblue" stroke="midnightblue" points="1802.78,-216.906 1795.14,-209.567 1796.53,-220.069 1802.78,-216.906"/>
</g>
<!-- Node32&#45;&gt;Node20 -->
<g id="edge85" class="edge"><title>Node32&#45;&gt;Node20</title>
<path fill="none" stroke="midnightblue" d="M1698.37,-593.33C1709.88,-585.469 1725.19,-572.722 1732,-557 1735.53,-548.844 1733.01,-545.831 1732,-537 1723.74,-464.863 1711.6,-362.521 1658,-246 1641.02,-209.082 1611.78,-171.363 1594.33,-150.485"/>
<polygon fill="midnightblue" stroke="midnightblue" points="1596.79,-147.972 1587.65,-142.62 1591.46,-152.506 1596.79,-147.972"/>
</g>
<!-- Node32&#45;&gt;Node21 -->
<g id="edge84" class="edge"><title>Node32&#45;&gt;Node21</title>
<path fill="none" stroke="midnightblue" d="M1716.24,-593.488C1743.16,-585.763 1782.14,-573.125 1814,-557 1874.58,-526.337 2274.46,-262.919 2317,-210 2330.64,-193.035 2339.04,-169.257 2343.59,-152.837"/>
<polygon fill="midnightblue" stroke="midnightblue" points="2347.07,-153.374 2346.15,-142.819 2340.29,-151.642 2347.07,-153.374"/>
</g>
<!-- Node32&#45;&gt;Node25 -->
<g id="edge83" class="edge"><title>Node32&#45;&gt;Node25</title>
<path fill="none" stroke="midnightblue" d="M1693.02,-593.34C1701.07,-584.932 1712.3,-571.363 1717,-557 1719.77,-548.552 1718.99,-545.662 1717,-537 1686.16,-402.996 1595.36,-260.638 1562.8,-212.509"/>
<polygon fill="midnightblue" stroke="midnightblue" points="1565.63,-210.449 1557.09,-204.17 1559.85,-214.4 1565.63,-210.449"/>
</g>
<!-- Node32&#45;&gt;Node26 -->
<g id="edge80" class="edge"><title>Node32&#45;&gt;Node26</title>
<path fill="none" stroke="midnightblue" d="M1650.68,-593.484C1619.61,-585.227 1572.15,-571.805 1532,-557 1340.18,-486.274 1119.64,-379.832 1033.35,-337.163"/>
<polygon fill="midnightblue" stroke="midnightblue" points="1034.73,-333.943 1024.22,-332.639 1031.62,-340.215 1034.73,-333.943"/>
</g>
<!-- Node32&#45;&gt;Node27 -->
<g id="edge81" class="edge"><title>Node32&#45;&gt;Node27</title>
<path fill="none" stroke="midnightblue" d="M1681.26,-593.34C1676.36,-579.265 1664.69,-551.541 1645,-537 1591.24,-497.299 1558.19,-532.025 1499,-501 1453.82,-477.321 1456.78,-451.18 1413,-425 1341.82,-382.429 1250.78,-352.266 1190.31,-335.153"/>
<polygon fill="midnightblue" stroke="midnightblue" points="1191.08,-331.733 1180.51,-332.416 1189.2,-338.476 1191.08,-331.733"/>
</g>
<!-- Node32&#45;&gt;Node29 -->
<g id="edge79" class="edge"><title>Node32&#45;&gt;Node29</title>
<path fill="none" stroke="midnightblue" d="M1644.05,-598.581C1533.23,-589.097 1222.19,-562.479 1101.61,-552.16"/>
<polygon fill="midnightblue" stroke="midnightblue" points="1101.83,-548.666 1091.57,-551.301 1101.23,-555.641 1101.83,-548.666"/>
</g>
<!-- Node33 -->
<g id="node33" class="node"><title>Node33</title>
<polygon fill="white" stroke="#bfbfbf" points="1541.5,-537.5 1541.5,-556.5 1636.5,-556.5 1636.5,-537.5 1541.5,-537.5"/>
<text text-anchor="middle" x="1589" y="-544.5" font-family="Helvetica,sans-Serif" font-size="10.00">dmlc/common.h</text>
</g>
<!-- Node32&#45;&gt;Node33 -->
<g id="edge78" class="edge"><title>Node32&#45;&gt;Node33</title>
<path fill="none" stroke="midnightblue" d="M1668.74,-593.324C1653.78,-584.822 1630.75,-571.729 1613.27,-561.797"/>
<polygon fill="midnightblue" stroke="midnightblue" points="1614.65,-558.553 1604.23,-556.655 1611.19,-564.639 1614.65,-558.553"/>
</g>
<!-- Node34&#45;&gt;Node3 -->
<g id="edge96" class="edge"><title>Node34&#45;&gt;Node3</title>
<path fill="none" stroke="midnightblue" d="M714.9,-593.368C704.22,-575.296 679.332,-533.176 665.227,-509.307"/>
<polygon fill="midnightblue" stroke="midnightblue" points="668.177,-507.42 660.077,-500.591 662.151,-510.981 668.177,-507.42"/>
</g>
<!-- Node34&#45;&gt;Node4 -->
<g id="edge92" class="edge"><title>Node34&#45;&gt;Node4</title>
<path fill="none" stroke="midnightblue" d="M683.723,-596.132C598.173,-580.443 394.469,-531.292 442,-425 508.943,-275.298 571.911,-255.427 717,-179 752.771,-160.157 796.621,-149.034 832.54,-142.562"/>
<polygon fill="midnightblue" stroke="midnightblue" points="833.186,-146.002 842.447,-140.857 831.998,-139.104 833.186,-146.002"/>
</g>
<!-- Node34&#45;&gt;Node11 -->
<g id="edge97" class="edge"><title>Node34&#45;&gt;Node11</title>
<path fill="none" stroke="midnightblue" d="M683.936,-598.099C596.433,-587.638 380,-555.359 380,-492 380,-492 380,-492 380,-378 380,-263.067 335.475,-197.492 423,-123 468.118,-84.6005 895.957,-91.9085 955,-87 994.377,-83.7264 1039.6,-79.1408 1069.38,-76.0084"/>
<polygon fill="midnightblue" stroke="midnightblue" points="1070.03,-79.4588 1079.61,-74.9252 1069.29,-72.4977 1070.03,-79.4588"/>
</g>
<!-- Node34&#45;&gt;Node15 -->
<g id="edge93" class="edge"><title>Node34&#45;&gt;Node15</title>
<path fill="none" stroke="midnightblue" d="M727.75,-593.309C739.225,-580.573 761.583,-556.265 782,-537 839.939,-482.332 913.226,-422.762 947.572,-395.361"/>
<polygon fill="midnightblue" stroke="midnightblue" points="950.159,-397.776 955.808,-388.812 945.803,-392.296 950.159,-397.776"/>
</g>
<!-- Node34&#45;&gt;Node18 -->
<g id="edge94" class="edge"><title>Node34&#45;&gt;Node18</title>
<path fill="none" stroke="midnightblue" d="M749.109,-593.415C835.411,-566.819 1094.19,-478.71 1260,-333 1278.78,-316.496 1293.74,-291.57 1302.48,-274.809"/>
<polygon fill="midnightblue" stroke="midnightblue" points="1305.76,-276.085 1307.1,-265.576 1299.5,-272.954 1305.76,-276.085"/>
</g>
<!-- Node34&#45;&gt;Node29 -->
<g id="edge95" class="edge"><title>Node34&#45;&gt;Node29</title>
<path fill="none" stroke="midnightblue" d="M756.271,-596.118C816.477,-586.355 937.082,-566.798 1004.52,-555.862"/>
<polygon fill="midnightblue" stroke="midnightblue" points="1005.16,-559.304 1014.47,-554.248 1004.04,-552.394 1005.16,-559.304"/>
</g>
<!-- Node36&#45;&gt;Node2 -->
<g id="edge125" class="edge"><title>Node36&#45;&gt;Node2</title>
<path fill="none" stroke="midnightblue" d="M1655.68,-880.785C1533.12,-877.265 1207.72,-865.444 1104,-837 1016.22,-812.925 922.482,-756.637 881.385,-730.195"/>
<polygon fill="midnightblue" stroke="midnightblue" points="883.057,-727.108 872.766,-724.589 879.24,-732.976 883.057,-727.108"/>
</g>
<!-- Node36&#45;&gt;Node11 -->
<g id="edge126" class="edge"><title>Node36&#45;&gt;Node11</title>
<path fill="none" stroke="midnightblue" d="M1655.88,-881.265C1392.45,-876.857 114,-851.372 114,-772 114,-772 114,-772 114,-714 114,-535.006 38,-497.494 38,-318.5 38,-318.5 38,-318.5 38,-255 38,-173.28 91.4892,-156.56 166,-123 246.016,-86.9605 867.469,-93.3095 955,-87 994.411,-84.1592 1039.63,-79.4854 1069.39,-76.2141"/>
<polygon fill="midnightblue" stroke="midnightblue" points="1070.06,-79.661 1079.62,-75.0784 1069.29,-72.7038 1070.06,-79.661"/>
</g>
<!-- Node36&#45;&gt;Node20 -->
<g id="edge127" class="edge"><title>Node36&#45;&gt;Node20</title>
<path fill="none" stroke="midnightblue" d="M1750.2,-878.447C1893.06,-867.07 2311,-828.92 2311,-772 2311,-772 2311,-772 2311,-714 2311,-644.33 1866.59,-377.514 1813,-333 1734.32,-267.652 1721.5,-243.35 1642,-179 1628.69,-168.226 1613.09,-156.907 1600.86,-148.316"/>
<polygon fill="midnightblue" stroke="midnightblue" points="1602.85,-145.433 1592.64,-142.59 1598.85,-151.177 1602.85,-145.433"/>
</g>
<!-- Node36&#45;&gt;Node29 -->
<g id="edge104" class="edge"><title>Node36&#45;&gt;Node29</title>
<path fill="none" stroke="midnightblue" d="M1655.62,-878.095C1516.35,-865.985 1118,-826.578 1118,-772 1118,-772 1118,-772 1118,-658 1118,-627.775 1113.59,-618.894 1098,-593 1091.28,-581.84 1081.21,-571.414 1072.29,-563.414"/>
<polygon fill="midnightblue" stroke="midnightblue" points="1074.43,-560.64 1064.56,-556.797 1069.88,-565.958 1074.43,-560.64"/>
</g>
<!-- Node36&#45;&gt;Node32 -->
<g id="edge103" class="edge"><title>Node36&#45;&gt;Node32</title>
<path fill="none" stroke="midnightblue" d="M1702.41,-873.375C1699.77,-834.782 1689.02,-677.454 1685.29,-622.807"/>
<polygon fill="midnightblue" stroke="midnightblue" points="1688.76,-622.262 1684.58,-612.524 1681.77,-622.74 1688.76,-622.262"/>
</g>
<!-- Node37 -->
<g id="node37" class="node"><title>Node37</title>
<g id="a_node37"><a xlink:href="ir_2op_8h.html" target="_top" xlink:title="Primitive operators(builtin intrinsics) and registry for them. ">
<polygon fill="white" stroke="black" points="1537,-817.5 1537,-836.5 1605,-836.5 1605,-817.5 1537,-817.5"/>
<text text-anchor="middle" x="1571" y="-824.5" font-family="Helvetica,sans-Serif" font-size="10.00">tvm/ir/op.h</text>
</a>
</g>
</g>
<!-- Node36&#45;&gt;Node37 -->
<g id="edge105" class="edge"><title>Node36&#45;&gt;Node37</title>
<path fill="none" stroke="midnightblue" d="M1682.08,-873.444C1660.26,-864.517 1625.85,-850.439 1601.11,-840.317"/>
<polygon fill="midnightblue" stroke="midnightblue" points="1602.4,-837.063 1591.82,-836.516 1599.75,-843.542 1602.4,-837.063"/>
</g>
<!-- Node42 -->
<g id="node42" class="node"><title>Node42</title>
<g id="a_node42"><a xlink:href="base_8h.html" target="_top" xlink:title="Base classes for the Relay IR. ">
<polygon fill="white" stroke="black" points="1959.5,-649.5 1959.5,-668.5 2014.5,-668.5 2014.5,-649.5 1959.5,-649.5"/>
<text text-anchor="middle" x="1987" y="-656.5" font-family="Helvetica,sans-Serif" font-size="10.00">./base.h</text>
</a>
</g>
</g>
<!-- Node36&#45;&gt;Node42 -->
<g id="edge128" class="edge"><title>Node36&#45;&gt;Node42</title>
<path fill="none" stroke="midnightblue" d="M1750.21,-876.459C1803.11,-869.44 1884.66,-855.937 1909,-837 1960.42,-797 1978.7,-715.975 1984.54,-679.076"/>
<polygon fill="midnightblue" stroke="midnightblue" points="1988.06,-679.151 1986.02,-668.755 1981.14,-678.155 1988.06,-679.151"/>
</g>
<!-- Node44 -->
<g id="node44" class="node"><title>Node44</title>
<g id="a_node44"><a xlink:href="relay_2type_8h.html" target="_top" xlink:title="Relay typed AST nodes. ">
<polygon fill="white" stroke="black" points="1847.5,-817.5 1847.5,-836.5 1900.5,-836.5 1900.5,-817.5 1847.5,-817.5"/>
<text text-anchor="middle" x="1874" y="-824.5" font-family="Helvetica,sans-Serif" font-size="10.00">./type.h</text>
</a>
</g>
</g>
<!-- Node36&#45;&gt;Node44 -->
<g id="edge144" class="edge"><title>Node36&#45;&gt;Node44</title>
<path fill="none" stroke="midnightblue" d="M1730.1,-873.444C1759.07,-864.293 1805.2,-849.728 1837.39,-839.561"/>
<polygon fill="midnightblue" stroke="midnightblue" points="1838.83,-842.776 1847.31,-836.428 1836.72,-836.101 1838.83,-842.776"/>
</g>
<!-- Node37&#45;&gt;Node3 -->
<g id="edge114" class="edge"><title>Node37&#45;&gt;Node3</title>
<path fill="none" stroke="midnightblue" d="M1536.86,-825.12C1324.2,-819.42 190,-785.75 190,-716 190,-716 190,-716 190,-658 190,-570.336 486.841,-516.786 606.183,-498.8"/>
<polygon fill="midnightblue" stroke="midnightblue" points="606.777,-502.25 616.154,-497.318 605.748,-495.326 606.777,-502.25"/>
</g>
<!-- Node37&#45;&gt;Node11 -->
<g id="edge122" class="edge"><title>Node37&#45;&gt;Node11</title>
<path fill="none" stroke="midnightblue" d="M1536.91,-825.77C1367.73,-824.466 617.333,-816.735 387,-781 279.915,-764.386 152,-824.366 152,-716 152,-716 152,-716 152,-255 152,-139.444 265.514,-156.851 376,-123 499.26,-85.2356 826.499,-97.329 955,-87 994.386,-83.8341 1039.61,-79.2266 1069.38,-76.0596"/>
<polygon fill="midnightblue" stroke="midnightblue" points="1070.04,-79.5091 1079.61,-74.9633 1069.29,-72.549 1070.04,-79.5091"/>
</g>
<!-- Node37&#45;&gt;Node12 -->
<g id="edge123" class="edge"><title>Node37&#45;&gt;Node12</title>
<path fill="none" stroke="midnightblue" d="M1605.36,-821.697C1665.55,-814.076 1793.93,-797.457 1902,-781 2492.2,-691.129 3184,-977.001 3184,-380 3184,-380 3184,-380 3184,-316.5 3184,-226.461 3198.38,-173.749 3124,-123 3082.21,-94.4868 2931.62,-79.8724 2865.5,-74.7124"/>
<polygon fill="midnightblue" stroke="midnightblue" points="2865.51,-71.2034 2855.27,-73.9378 2864.98,-78.1834 2865.51,-71.2034"/>
</g>
<!-- Node37&#45;&gt;Node21 -->
<g id="edge124" class="edge"><title>Node37&#45;&gt;Node21</title>
<path fill="none" stroke="midnightblue" d="M1605.18,-821.441C1719.17,-805.58 2083.77,-749.364 2166,-669 2306.55,-531.638 2267.5,-445.285 2348,-266 2364.48,-229.299 2383.09,-217.945 2373,-179 2370.45,-169.175 2365.25,-159.212 2360.24,-151.166"/>
<polygon fill="midnightblue" stroke="midnightblue" points="2363.08,-149.114 2354.63,-142.725 2357.25,-152.99 2363.08,-149.114"/>
</g>
<!-- Node37&#45;&gt;Node29 -->
<g id="edge113" class="edge"><title>Node37&#45;&gt;Node29</title>
<path fill="none" stroke="midnightblue" d="M1554.68,-817.305C1500.41,-788.377 1321.01,-692.693 1173,-613 1140.03,-595.25 1102.04,-574.647 1077.79,-561.475"/>
<polygon fill="midnightblue" stroke="midnightblue" points="1079.36,-558.345 1068.9,-556.647 1076.02,-564.496 1079.36,-558.345"/>
</g>
<!-- Node37&#45;&gt;Node32 -->
<g id="edge107" class="edge"><title>Node37&#45;&gt;Node32</title>
<path fill="none" stroke="midnightblue" d="M1563.34,-817.183C1553.46,-804.696 1538.41,-781.138 1546,-761 1569.76,-697.992 1631.57,-643.841 1663.8,-618.809"/>
<polygon fill="midnightblue" stroke="midnightblue" points="1666.2,-621.377 1672.05,-612.538 1661.97,-615.804 1666.2,-621.377"/>
</g>
<!-- Node38 -->
<g id="node38" class="node"><title>Node38</title>
<polygon fill="white" stroke="#bfbfbf" points="1146,-761.5 1146,-780.5 1232,-780.5 1232,-761.5 1146,-761.5"/>
<text text-anchor="middle" x="1189" y="-768.5" font-family="Helvetica,sans-Serif" font-size="10.00">dmlc/registry.h</text>
</g>
<!-- Node37&#45;&gt;Node38 -->
<g id="edge106" class="edge"><title>Node37&#45;&gt;Node38</title>
<path fill="none" stroke="midnightblue" d="M1536.81,-821.484C1477.55,-813.607 1351.93,-796.695 1246,-781 1244.75,-780.814 1243.48,-780.625 1242.2,-780.432"/>
<polygon fill="midnightblue" stroke="midnightblue" points="1242.66,-776.963 1232.25,-778.917 1241.61,-783.883 1242.66,-776.963"/>
</g>
<!-- Node39 -->
<g id="node39" class="node"><title>Node39</title>
<g id="a_node39"><a xlink:href="registry_8h.html" target="_top" xlink:title="This file defines the TVM global function registry. ">
<polygon fill="white" stroke="black" points="2026,-246.5 2026,-265.5 2148,-265.5 2148,-246.5 2026,-246.5"/>
<text text-anchor="middle" x="2087" y="-253.5" font-family="Helvetica,sans-Serif" font-size="10.00">tvm/runtime/registry.h</text>
</a>
</g>
</g>
<!-- Node37&#45;&gt;Node39 -->
<g id="edge108" class="edge"><title>Node37&#45;&gt;Node39</title>
<path fill="none" stroke="midnightblue" d="M1605.19,-821.47C1695.05,-807.459 1931,-756.18 1931,-604 1931,-604 1931,-604 1931,-546 1931,-428.938 2031.34,-313.757 2071.07,-272.735"/>
<polygon fill="midnightblue" stroke="midnightblue" points="2073.64,-275.12 2078.17,-265.541 2068.65,-270.206 2073.64,-275.12"/>
</g>
<!-- Node40 -->
<g id="node40" class="node"><title>Node40</title>
<g id="a_node40"><a xlink:href="type__relation_8h.html" target="_top" xlink:title="Type relation and function for type inference(checking). ">
<polygon fill="white" stroke="black" points="1555.5,-761.5 1555.5,-780.5 1674.5,-780.5 1674.5,-761.5 1555.5,-761.5"/>
<text text-anchor="middle" x="1615" y="-768.5" font-family="Helvetica,sans-Serif" font-size="10.00">tvm/ir/type_relation.h</text>
</a>
</g>
</g>
<!-- Node37&#45;&gt;Node40 -->
<g id="edge115" class="edge"><title>Node37&#45;&gt;Node40</title>
<path fill="none" stroke="midnightblue" d="M1578.27,-817.083C1584.54,-809.377 1593.79,-798.033 1601.43,-788.653"/>
<polygon fill="midnightblue" stroke="midnightblue" points="1604.27,-790.714 1607.87,-780.751 1598.84,-786.293 1604.27,-790.714"/>
</g>
<!-- Node39&#45;&gt;Node11 -->
<g id="edge110" class="edge"><title>Node39&#45;&gt;Node11</title>
<path fill="none" stroke="midnightblue" d="M2065.99,-246.489C2049.24,-238.88 2026,-226.403 2010,-210 1979.16,-178.39 1999.35,-146.557 1962,-123 1890.96,-78.1977 1282.45,-73.1381 1134.38,-72.5708"/>
<polygon fill="midnightblue" stroke="midnightblue" points="1134.15,-69.0701 1124.14,-72.5361 1134.13,-76.0701 1134.15,-69.0701"/>
</g>
<!-- Node39&#45;&gt;Node12 -->
<g id="edge112" class="edge"><title>Node39&#45;&gt;Node12</title>
<path fill="none" stroke="midnightblue" d="M2092.89,-246.195C2103.78,-230.547 2128.56,-197.779 2157,-179 2219.17,-137.95 2242.27,-139.172 2315,-123 2496.83,-82.5661 2721.65,-74.506 2802.89,-72.8997"/>
<polygon fill="midnightblue" stroke="midnightblue" points="2803.01,-76.3982 2812.95,-72.72 2802.89,-69.3993 2803.01,-76.3982"/>
</g>
<!-- Node39&#45;&gt;Node19 -->
<g id="edge109" class="edge"><title>Node39&#45;&gt;Node19</title>
<path fill="none" stroke="midnightblue" d="M2044.02,-246.475C1994.24,-236.603 1911.66,-220.224 1853.56,-208.702"/>
<polygon fill="midnightblue" stroke="midnightblue" points="1854.23,-205.266 1843.74,-206.753 1852.87,-212.132 1854.23,-205.266"/>
</g>
<!-- Node39&#45;&gt;Node21 -->
<g id="edge111" class="edge"><title>Node39&#45;&gt;Node21</title>
<path fill="none" stroke="midnightblue" d="M2138.76,-246.461C2172.3,-239.606 2216.22,-228.08 2252,-210 2268.64,-201.589 2307.57,-169.008 2330.41,-149.339"/>
<polygon fill="midnightblue" stroke="midnightblue" points="2332.76,-151.936 2338.03,-142.745 2328.18,-146.643 2332.76,-151.936"/>
</g>
<!-- Node40&#45;&gt;Node2 -->
<g id="edge117" class="edge"><title>Node40&#45;&gt;Node2</title>
<path fill="none" stroke="midnightblue" d="M1555.36,-767.833C1434.97,-763.084 1154.44,-750.127 920,-725 918.733,-724.864 917.453,-724.721 916.162,-724.572"/>
<polygon fill="midnightblue" stroke="midnightblue" points="916.494,-721.086 906.137,-723.321 915.627,-728.032 916.494,-721.086"/>
</g>
<!-- Node40&#45;&gt;Node3 -->
<g id="edge116" class="edge"><title>Node40&#45;&gt;Node3</title>
<path fill="none" stroke="midnightblue" d="M1561.44,-761.435C1445.18,-742.023 1161.78,-690.283 934,-613 838.345,-580.546 729.837,-529.02 681.112,-505.054"/>
<polygon fill="midnightblue" stroke="midnightblue" points="682.433,-501.803 671.917,-500.509 679.331,-508.078 682.433,-501.803"/>
</g>
<!-- Node40&#45;&gt;Node32 -->
<g id="edge121" class="edge"><title>Node40&#45;&gt;Node32</title>
<path fill="none" stroke="midnightblue" d="M1618.71,-761.075C1629.62,-734.832 1661.74,-657.545 1676.47,-622.117"/>
<polygon fill="midnightblue" stroke="midnightblue" points="1679.83,-623.146 1680.44,-612.568 1673.37,-620.459 1679.83,-623.146"/>
</g>
<!-- Node41 -->
<g id="node41" class="node"><title>Node41</title>
<g id="a_node41"><a xlink:href="env__func_8h.html" target="_top" xlink:title="Serializable global function used in IR. ">
<polygon fill="white" stroke="red" points="2339.5,-425.5 2339.5,-444.5 2438.5,-444.5 2438.5,-425.5 2339.5,-425.5"/>
<text text-anchor="middle" x="2389" y="-432.5" font-family="Helvetica,sans-Serif" font-size="10.00">tvm/ir/env_func.h</text>
</a>
</g>
</g>
<!-- Node40&#45;&gt;Node41 -->
<g id="edge118" class="edge"><title>Node40&#45;&gt;Node41</title>
<path fill="none" stroke="midnightblue" d="M1674.6,-769.023C1775.02,-765.138 1981.92,-747.369 2135,-669 2243.59,-613.407 2243.66,-561.863 2335,-481 2346.42,-470.889 2359.56,-459.923 2370.02,-451.348"/>
<polygon fill="midnightblue" stroke="midnightblue" points="2372.54,-453.81 2378.08,-444.778 2368.12,-448.384 2372.54,-453.81"/>
</g>
<!-- Node41&#45;&gt;Node11 -->
<g id="edge119" class="edge"><title>Node41&#45;&gt;Node11</title>
<path fill="none" stroke="midnightblue" d="M2418.94,-425.467C2511.42,-397.563 2781.5,-303.612 2700,-179 2666.01,-127.032 2632.55,-136.755 2572,-123 2499.53,-106.537 1342.96,-78.2483 1134.17,-73.2618"/>
<polygon fill="midnightblue" stroke="midnightblue" points="1134.23,-69.7623 1124.15,-73.023 1134.07,-76.7603 1134.23,-69.7623"/>
</g>
<!-- Node41&#45;&gt;Node12 -->
<g id="edge120" class="edge"><title>Node41&#45;&gt;Node12</title>
<path fill="none" stroke="midnightblue" d="M2438.7,-434.68C2584.18,-433.559 3004.06,-407.102 3086,-143 3088.63,-134.51 3091.63,-129.875 3086,-123 3058.45,-89.3849 2926.91,-77.6868 2865.59,-74.0149"/>
<polygon fill="midnightblue" stroke="midnightblue" points="2865.53,-70.5057 2855.35,-73.4373 2865.13,-77.4946 2865.53,-70.5057"/>
</g>
<!-- Node42&#45;&gt;Node11 -->
<g id="edge142" class="edge"><title>Node42&#45;&gt;Node11</title>
<path fill="none" stroke="midnightblue" d="M1990.85,-649.111C2004.26,-618.178 2050.11,-512.367 2088,-425 2118.65,-354.327 2141.34,-341.425 2157,-266 2177.14,-168.997 2079.39,-156.069 1986,-123 1904.54,-94.1546 1284.09,-77.0194 1134.42,-73.2789"/>
<polygon fill="midnightblue" stroke="midnightblue" points="1134.16,-69.7717 1124.08,-73.0233 1133.99,-76.7695 1134.16,-69.7717"/>
</g>
<!-- Node42&#45;&gt;Node15 -->
<g id="edge141" class="edge"><title>Node42&#45;&gt;Node15</title>
<path fill="none" stroke="midnightblue" d="M1959.45,-658.216C1846.5,-658.798 1418.95,-657.927 1293,-613 1156.68,-564.372 1026.62,-440.892 982.679,-396.342"/>
<polygon fill="midnightblue" stroke="midnightblue" points="984.983,-393.692 975.494,-388.978 979.972,-398.58 984.983,-393.692"/>
</g>
<!-- Node42&#45;&gt;Node21 -->
<g id="edge143" class="edge"><title>Node42&#45;&gt;Node21</title>
<path fill="none" stroke="midnightblue" d="M2002.85,-649.439C2030.12,-633.425 2083,-596.16 2083,-548 2083,-548 2083,-548 2083,-490 2083,-395.016 2163.8,-403.005 2228,-333 2277.97,-278.509 2309.73,-277.456 2340,-210 2348.13,-191.883 2349.49,-168.972 2349.21,-153.065"/>
<polygon fill="midnightblue" stroke="midnightblue" points="2352.7,-152.739 2348.8,-142.889 2345.71,-153.024 2352.7,-152.739"/>
</g>
<!-- Node42&#45;&gt;Node28 -->
<g id="edge129" class="edge"><title>Node42&#45;&gt;Node28</title>
<path fill="none" stroke="midnightblue" d="M1959.43,-658.252C1839.14,-659.068 1359.92,-659.296 1218,-613 1158.69,-593.654 1155.54,-565.403 1100,-537 1039.23,-505.923 1020.86,-505.088 957,-481 926.679,-469.563 891.992,-457.021 867.029,-448.089"/>
<polygon fill="midnightblue" stroke="midnightblue" points="867.897,-444.683 857.302,-444.616 865.542,-451.275 867.897,-444.683"/>
</g>
<!-- Node43 -->
<g id="node43" class="node"><title>Node43</title>
<g id="a_node43"><a xlink:href="tir_2expr_8h.html" target="_top" xlink:title="TIR expressions. ">
<polygon fill="white" stroke="red" points="1302,-593.5 1302,-612.5 1382,-612.5 1382,-593.5 1302,-593.5"/>
<text text-anchor="middle" x="1342" y="-600.5" font-family="Helvetica,sans-Serif" font-size="10.00">tvm/tir/expr.h</text>
</a>
</g>
</g>
<!-- Node42&#45;&gt;Node43 -->
<g id="edge130" class="edge"><title>Node42&#45;&gt;Node43</title>
<path fill="none" stroke="midnightblue" d="M1959.29,-655.68C1859.98,-647.366 1521.03,-618.988 1392.22,-608.204"/>
<polygon fill="midnightblue" stroke="midnightblue" points="1392.48,-604.714 1382.23,-607.368 1391.9,-611.69 1392.48,-604.714"/>
</g>
<!-- Node43&#45;&gt;Node6 -->
<g id="edge133" class="edge"><title>Node43&#45;&gt;Node6</title>
<path fill="none" stroke="midnightblue" d="M1301.83,-597.242C1152.75,-579.489 638.222,-517.298 607,-501 458.385,-423.421 416.476,-370.178 367,-210 354.748,-170.335 365.944,-145.239 401,-123 462.714,-83.8501 650.793,-97.2679 740.215,-86.8483"/>
<polygon fill="midnightblue" stroke="midnightblue" points="740.91,-90.2867 750.358,-85.4938 739.983,-83.3483 740.91,-90.2867"/>
</g>
<!-- Node43&#45;&gt;Node11 -->
<g id="edge136" class="edge"><title>Node43&#45;&gt;Node11</title>
<path fill="none" stroke="midnightblue" d="M1339.44,-593.249C1334.25,-574.738 1323,-530.179 1323,-492 1323,-492 1323,-492 1323,-378 1323,-273.655 1216.46,-297.099 1159,-210 1155.5,-204.699 1123.76,-126.451 1109.22,-90.4203"/>
<polygon fill="midnightblue" stroke="midnightblue" points="1112.44,-89.0606 1105.46,-81.0952 1105.95,-91.6785 1112.44,-89.0606"/>
</g>
<!-- Node43&#45;&gt;Node12 -->
<g id="edge140" class="edge"><title>Node43&#45;&gt;Node12</title>
<path fill="none" stroke="midnightblue" d="M1373.19,-593.469C1402.8,-585.101 1448.39,-571.515 1487,-557 1507.49,-549.299 1511.25,-543.953 1532,-537 2036.47,-367.977 2202.7,-460.253 2698,-266 2744.7,-247.684 2760.99,-245.932 2796,-210 2819.59,-185.787 2823.29,-175.662 2832,-143 2836.53,-126.01 2836.61,-105.896 2835.8,-91.5098"/>
<polygon fill="midnightblue" stroke="midnightblue" points="2839.28,-91.0765 2835.04,-81.3693 2832.3,-91.605 2839.28,-91.0765"/>
</g>
<!-- Node43&#45;&gt;Node14 -->
<g id="edge134" class="edge"><title>Node43&#45;&gt;Node14</title>
<path fill="none" stroke="midnightblue" d="M1301.89,-599.652C1154.75,-590.622 650.977,-555.87 607,-501 516.704,-388.338 567.252,-297.317 650,-179 659.559,-165.333 674.721,-154.714 688.305,-147.233"/>
<polygon fill="midnightblue" stroke="midnightblue" points="690.087,-150.252 697.369,-142.557 686.877,-144.032 690.087,-150.252"/>
</g>
<!-- Node43&#45;&gt;Node15 -->
<g id="edge131" class="edge"><title>Node43&#45;&gt;Node15</title>
<path fill="none" stroke="midnightblue" d="M1335.11,-593.254C1328.2,-584.342 1317.41,-570.018 1309,-557 1287.93,-524.406 1294.62,-507.214 1266,-481 1198.69,-419.348 1092.37,-395.165 1026.31,-385.793"/>
<polygon fill="midnightblue" stroke="midnightblue" points="1026.45,-382.28 1016.07,-384.413 1025.51,-389.217 1026.45,-382.28"/>
</g>
<!-- Node43&#45;&gt;Node18 -->
<g id="edge132" class="edge"><title>Node43&#45;&gt;Node18</title>
<path fill="none" stroke="midnightblue" d="M1342.45,-593.49C1343.92,-562.959 1347.93,-456.117 1337,-369 1332.79,-335.452 1322.77,-297.266 1316.47,-275.267"/>
<polygon fill="midnightblue" stroke="midnightblue" points="1319.81,-274.217 1313.64,-265.603 1313.09,-276.184 1319.81,-274.217"/>
</g>
<!-- Node43&#45;&gt;Node22 -->
<g id="edge139" class="edge"><title>Node43&#45;&gt;Node22</title>
<path fill="none" stroke="midnightblue" d="M1372.39,-593.466C1430.36,-575.125 1551,-526.126 1551,-436 1551,-436 1551,-436 1551,-316.5 1551,-297.445 1478.87,-192.344 1449.87,-150.854"/>
<polygon fill="midnightblue" stroke="midnightblue" points="1452.68,-148.774 1444.08,-142.596 1446.95,-152.793 1452.68,-148.774"/>
</g>
<!-- Node43&#45;&gt;Node25 -->
<g id="edge138" class="edge"><title>Node43&#45;&gt;Node25</title>
<path fill="none" stroke="midnightblue" d="M1352,-593.414C1382.93,-565.834 1475,-475.699 1475,-380 1475,-380 1475,-380 1475,-316.5 1475,-272.975 1510.7,-232.275 1533.16,-210.972"/>
<polygon fill="midnightblue" stroke="midnightblue" points="1535.73,-213.363 1540.75,-204.031 1531.01,-208.198 1535.73,-213.363"/>
</g>
<!-- Node43&#45;&gt;Node29 -->
<g id="edge135" class="edge"><title>Node43&#45;&gt;Node29</title>
<path fill="none" stroke="midnightblue" d="M1301.82,-594.492C1249.54,-584.725 1158.28,-567.671 1102,-557.156"/>
<polygon fill="midnightblue" stroke="midnightblue" points="1102.39,-553.669 1091.92,-555.272 1101.11,-560.549 1102.39,-553.669"/>
</g>
<!-- Node43&#45;&gt;Node30 -->
<g id="edge137" class="edge"><title>Node43&#45;&gt;Node30</title>
<path fill="none" stroke="midnightblue" d="M1324.29,-593.361C1309.03,-585.347 1287,-572.363 1271,-557 1256.5,-543.078 1243.86,-523.812 1235.7,-509.873"/>
<polygon fill="midnightblue" stroke="midnightblue" points="1238.55,-507.804 1230.59,-500.817 1232.46,-511.246 1238.55,-507.804"/>
</g>
<!-- Node44&#45;&gt;Node3 -->
<g id="edge145" class="edge"><title>Node44&#45;&gt;Node3</title>
<path fill="none" stroke="midnightblue" d="M1851.93,-817.487C1816.65,-804.107 1745.18,-777.938 1683,-761 1526.24,-718.301 1121.68,-662.723 967,-613 946.164,-606.302 942.143,-601.56 922,-593 861.082,-567.111 845.935,-560.352 784,-537 752.651,-525.18 716.624,-512.704 690.624,-503.894"/>
<polygon fill="midnightblue" stroke="midnightblue" points="691.43,-500.472 680.835,-500.59 689.191,-507.104 691.43,-500.472"/>
</g>
<!-- Node44&#45;&gt;Node11 -->
<g id="edge154" class="edge"><title>Node44&#45;&gt;Node11</title>
<path fill="none" stroke="midnightblue" d="M1900.74,-825.764C2073.61,-824.142 3027.63,-813.729 3079,-781 3129.96,-748.529 3141,-720.426 3141,-660 3141,-660 3141,-660 3141,-546 3141,-275.373 2969.33,-171.037 2703,-123 2623.02,-108.574 1353.73,-78.3761 1134.22,-73.2478"/>
<polygon fill="midnightblue" stroke="midnightblue" points="1134.09,-69.7439 1124.01,-73.0097 1133.93,-76.742 1134.09,-69.7439"/>
</g>
<!-- Node44&#45;&gt;Node32 -->
<g id="edge150" class="edge"><title>Node44&#45;&gt;Node32</title>
<path fill="none" stroke="midnightblue" d="M1876.34,-817.249C1881.47,-796.093 1891.53,-741.247 1869,-705 1838.38,-655.739 1774.75,-628.759 1730.73,-615.354"/>
<polygon fill="midnightblue" stroke="midnightblue" points="1731.68,-611.986 1721.1,-612.542 1729.72,-618.705 1731.68,-611.986"/>
</g>
<!-- Node44&#45;&gt;Node39 -->
<g id="edge151" class="edge"><title>Node44&#45;&gt;Node39</title>
<path fill="none" stroke="midnightblue" d="M1900.71,-817.636C1978.09,-793.308 2197,-723.803 2197,-716 2197,-716 2197,-716 2197,-658 2197,-576.858 2121,-573.142 2121,-492 2121,-492 2121,-492 2121,-434 2121,-375.219 2102.69,-307.398 2092.95,-275.455"/>
<polygon fill="midnightblue" stroke="midnightblue" points="2096.23,-274.223 2089.9,-265.726 2089.55,-276.315 2096.23,-274.223"/>
</g>
<!-- Node44&#45;&gt;Node40 -->
<g id="edge149" class="edge"><title>Node44&#45;&gt;Node40</title>
<path fill="none" stroke="midnightblue" d="M1847.26,-820.424C1804.55,-811.52 1720.23,-793.94 1665.8,-782.591"/>
<polygon fill="midnightblue" stroke="midnightblue" points="1666.5,-779.162 1656,-780.548 1665.07,-786.015 1666.5,-779.162"/>
</g>
<!-- Node44&#45;&gt;Node41 -->
<g id="edge152" class="edge"><title>Node44&#45;&gt;Node41</title>
<path fill="none" stroke="midnightblue" d="M1900.74,-825.015C1970.83,-822.03 2158.07,-811.354 2211,-781 2297.53,-731.378 2349,-703.751 2349,-604 2349,-604 2349,-604 2349,-546 2349,-511.617 2366.47,-474.631 2378.32,-453.503"/>
<polygon fill="midnightblue" stroke="midnightblue" points="2381.42,-455.133 2383.44,-444.731 2375.38,-451.607 2381.42,-455.133"/>
</g>
<!-- Node44&#45;&gt;Node42 -->
<g id="edge155" class="edge"><title>Node44&#45;&gt;Node42</title>
<path fill="none" stroke="midnightblue" d="M1880.45,-817.463C1887.2,-808.478 1898.03,-793.878 1907,-781 1932.43,-744.496 1960.86,-700.752 1976.04,-677.144"/>
<polygon fill="midnightblue" stroke="midnightblue" points="1979.06,-678.911 1981.52,-668.604 1973.17,-675.132 1979.06,-678.911"/>
</g>
<!-- Node44&#45;&gt;Node43 -->
<g id="edge153" class="edge"><title>Node44&#45;&gt;Node43</title>
<path fill="none" stroke="midnightblue" d="M1864.44,-817.431C1849.69,-804.428 1820.24,-779.291 1793,-761 1684.8,-688.357 1647.19,-685.216 1522,-649 1477.31,-636.072 1425.76,-623.409 1389.31,-614.826"/>
<polygon fill="midnightblue" stroke="midnightblue" points="1389.98,-611.389 1379.44,-612.517 1388.38,-618.205 1389.98,-611.389"/>
</g>
<!-- Node45 -->
<g id="node45" class="node"><title>Node45</title>
<g id="a_node45"><a xlink:href="tensor__type_8h.html" target="_top" xlink:title="Polymorphic tensor types. ">
<polygon fill="white" stroke="black" points="976.5,-593.5 976.5,-612.5 1089.5,-612.5 1089.5,-593.5 976.5,-593.5"/>
<text text-anchor="middle" x="1033" y="-600.5" font-family="Helvetica,sans-Serif" font-size="10.00">tvm/ir/tensor_type.h</text>
</a>
</g>
</g>
<!-- Node44&#45;&gt;Node45 -->
<g id="edge146" class="edge"><title>Node44&#45;&gt;Node45</title>
<path fill="none" stroke="midnightblue" d="M1858.62,-817.451C1809.54,-790.177 1659.51,-706.9 1654,-705 1552.12,-669.873 1238.38,-628.895 1099.88,-611.952"/>
<polygon fill="midnightblue" stroke="midnightblue" points="1100.17,-608.461 1089.82,-610.726 1099.32,-615.41 1100.17,-608.461"/>
</g>
<!-- Node45&#45;&gt;Node3 -->
<g id="edge147" class="edge"><title>Node45&#45;&gt;Node3</title>
<path fill="none" stroke="midnightblue" d="M1026.28,-593.054C1014.85,-578.57 990.109,-550.269 962,-537 858.894,-488.327 820.659,-518.546 708,-501 706.703,-500.798 705.389,-500.591 704.063,-500.38"/>
<polygon fill="midnightblue" stroke="midnightblue" points="704.199,-496.857 693.767,-498.709 703.077,-503.766 704.199,-496.857"/>
</g>
<!-- Node45&#45;&gt;Node29 -->
<g id="edge148" class="edge"><title>Node45&#45;&gt;Node29</title>
<path fill="none" stroke="midnightblue" d="M1036.3,-593.083C1038.98,-585.849 1042.85,-575.409 1046.19,-566.397"/>
<polygon fill="midnightblue" stroke="midnightblue" points="1049.57,-567.344 1049.76,-556.751 1043,-564.913 1049.57,-567.344"/>
</g>
<!-- Node46&#45;&gt;Node4 -->
<g id="edge160" class="edge"><title>Node46&#45;&gt;Node4</title>
<path fill="none" stroke="midnightblue" d="M2463.72,-253.089C2297.02,-247.995 1863.44,-232.905 1721,-210 1668.74,-201.596 1658.23,-187.618 1606,-179 1484.9,-159.019 1122.21,-142.774 969.73,-136.638"/>
<polygon fill="midnightblue" stroke="midnightblue" points="969.689,-133.133 959.557,-136.231 969.409,-140.128 969.689,-133.133"/>
</g>
<!-- Node46&#45;&gt;Node5 -->
<g id="edge158" class="edge"><title>Node46&#45;&gt;Node5</title>
<path fill="none" stroke="midnightblue" d="M2549.3,-246.48C2563.43,-239.081 2581.56,-226.887 2590,-210 2607.29,-175.415 2616.5,-151.154 2590,-123 2563.1,-94.4239 1986.79,-78.1256 1807.05,-73.7239"/>
<polygon fill="midnightblue" stroke="midnightblue" points="1807.12,-70.2247 1797.04,-73.481 1806.95,-77.2226 1807.12,-70.2247"/>
</g>
<!-- Node46&#45;&gt;Node10 -->
<g id="edge164" class="edge"><title>Node46&#45;&gt;Node10</title>
<path fill="none" stroke="midnightblue" d="M2529.26,-246.358C2527.51,-230.97 2521.83,-198.6 2504,-179 2463.31,-134.268 2438.97,-136.378 2380,-123 2024.72,-42.4029 1099.83,-149.926 741,-87 737.011,-86.3005 732.89,-85.2972 728.851,-84.1404"/>
<polygon fill="midnightblue" stroke="midnightblue" points="729.693,-80.7352 719.102,-81.034 727.567,-87.4048 729.693,-80.7352"/>
</g>
<!-- Node46&#45;&gt;Node11 -->
<g id="edge163" class="edge"><title>Node46&#45;&gt;Node11</title>
<path fill="none" stroke="midnightblue" d="M2535.57,-246.484C2550.07,-223.176 2585.57,-157.76 2552,-123 2539.25,-109.803 1347.81,-78.7767 1134.5,-73.3251"/>
<polygon fill="midnightblue" stroke="midnightblue" points="1134.36,-69.8204 1124.27,-73.0641 1134.18,-76.8181 1134.36,-69.8204"/>
</g>
<!-- Node46&#45;&gt;Node12 -->
<g id="edge165" class="edge"><title>Node46&#45;&gt;Node12</title>
<path fill="none" stroke="midnightblue" d="M2595.07,-246.498C2628.21,-240.072 2668.12,-228.972 2700,-210 2745.66,-182.824 2744.71,-160.852 2782,-123 2793.57,-111.258 2806.91,-98.3108 2817.19,-88.4661"/>
<polygon fill="midnightblue" stroke="midnightblue" points="2819.86,-90.7547 2824.67,-81.3183 2815.02,-85.6911 2819.86,-90.7547"/>
</g>
<!-- Node46&#45;&gt;Node16 -->
<g id="edge159" class="edge"><title>Node46&#45;&gt;Node16</title>
<path fill="none" stroke="midnightblue" d="M2464,-252.397C2300.03,-245.872 1861.01,-228.046 1495,-210 1431.2,-206.854 1358.72,-202.824 1306.03,-199.812"/>
<polygon fill="midnightblue" stroke="midnightblue" points="1305.95,-196.301 1295.76,-199.223 1305.55,-203.29 1305.95,-196.301"/>
</g>
<!-- Node46&#45;&gt;Node21 -->
<g id="edge166" class="edge"><title>Node46&#45;&gt;Node21</title>
<path fill="none" stroke="midnightblue" d="M2526.1,-246.387C2518.6,-230.751 2500.69,-197.6 2476,-179 2447.97,-157.888 2409.22,-146.109 2381.72,-139.95"/>
<polygon fill="midnightblue" stroke="midnightblue" points="2382.28,-136.491 2371.77,-137.856 2380.84,-143.341 2382.28,-136.491"/>
</g>
<!-- Node46&#45;&gt;Node24 -->
<g id="edge162" class="edge"><title>Node46&#45;&gt;Node24</title>
<path fill="none" stroke="midnightblue" d="M2483.44,-246.475C2422.42,-235.304 2315.89,-215.802 2253.79,-204.432"/>
<polygon fill="midnightblue" stroke="midnightblue" points="2254.31,-200.97 2243.85,-202.612 2253.05,-207.856 2254.31,-200.97"/>
</g>
<!-- Node47 -->
<g id="node47" class="node"><title>Node47</title>
<polygon fill="white" stroke="#bfbfbf" points="2642.5,-185 2642.5,-204 2691.5,-204 2691.5,-185 2642.5,-185"/>
<text text-anchor="middle" x="2667" y="-192" font-family="Helvetica,sans-Serif" font-size="10.00">cstring</text>
</g>
<!-- Node46&#45;&gt;Node47 -->
<g id="edge161" class="edge"><title>Node46&#45;&gt;Node47</title>
<path fill="none" stroke="midnightblue" d="M2549.63,-246.475C2572.82,-236.401 2611.62,-219.553 2638.21,-208.002"/>
<polygon fill="midnightblue" stroke="midnightblue" points="2639.63,-211.203 2647.41,-204.009 2636.84,-204.782 2639.63,-211.203"/>
</g>
<!-- Node48&#45;&gt;Node4 -->
<g id="edge168" class="edge"><title>Node48&#45;&gt;Node4</title>
<path fill="none" stroke="midnightblue" d="M1871.37,-310.32C1795.73,-301.174 1650.38,-283.252 1527,-266 1445.08,-254.545 1239.75,-227.95 1159,-210 1077.76,-191.941 984.594,-162.192 935.478,-145.782"/>
<polygon fill="midnightblue" stroke="midnightblue" points="936.567,-142.456 925.973,-142.589 934.338,-149.091 936.567,-142.456"/>
</g>
<!-- Node48&#45;&gt;Node11 -->
<g id="edge173" class="edge"><title>Node48&#45;&gt;Node11</title>
<path fill="none" stroke="midnightblue" d="M1924.61,-307.762C1929.74,-276.766 1942.31,-171.351 1886,-123 1828.26,-73.4217 1275.31,-71.9065 1134.5,-72.3327"/>
<polygon fill="midnightblue" stroke="midnightblue" points="1134.33,-68.8332 1124.35,-72.3692 1134.36,-75.8331 1134.33,-68.8332"/>
</g>
<!-- Node48&#45;&gt;Node12 -->
<g id="edge175" class="edge"><title>Node48&#45;&gt;Node12</title>
<path fill="none" stroke="midnightblue" d="M1974.77,-312.724C2133.23,-301.159 2601.17,-266.95 2605,-266 2665.27,-251.049 2684.52,-248.795 2733,-210 2775.84,-175.719 2809.57,-119.051 2824.94,-90.3463"/>
<polygon fill="midnightblue" stroke="midnightblue" points="2828.22,-91.6137 2829.75,-81.1296 2822.02,-88.3726 2828.22,-91.6137"/>
</g>
<!-- Node48&#45;&gt;Node16 -->
<g id="edge169" class="edge"><title>Node48&#45;&gt;Node16</title>
<path fill="none" stroke="midnightblue" d="M1875.78,-307.988C1801.56,-294.634 1653.06,-268.011 1527,-246 1445.83,-231.827 1352.03,-215.836 1292.39,-205.717"/>
<polygon fill="midnightblue" stroke="midnightblue" points="1292.83,-202.243 1282.39,-204.021 1291.66,-209.144 1292.83,-202.243"/>
</g>
<!-- Node48&#45;&gt;Node19 -->
<g id="edge170" class="edge"><title>Node48&#45;&gt;Node19</title>
<path fill="none" stroke="midnightblue" d="M1913.94,-307.627C1900.01,-294.074 1872.39,-267.519 1848,-246 1836.58,-235.924 1823.62,-225.114 1812.6,-216.09"/>
<polygon fill="midnightblue" stroke="midnightblue" points="1814.56,-213.178 1804.6,-209.58 1810.15,-218.607 1814.56,-213.178"/>
</g>
<!-- Node48&#45;&gt;Node21 -->
<g id="edge176" class="edge"><title>Node48&#45;&gt;Node21</title>
<path fill="none" stroke="midnightblue" d="M1932.96,-307.981C1949.63,-293.972 1984.55,-265.668 2017,-246 2075.99,-210.243 2091.94,-201.931 2157,-179 2210.6,-160.108 2275.45,-146.73 2314.12,-139.701"/>
<polygon fill="midnightblue" stroke="midnightblue" points="2315.08,-143.086 2324.31,-137.887 2313.85,-136.195 2315.08,-143.086"/>
</g>
<!-- Node48&#45;&gt;Node23 -->
<g id="edge172" class="edge"><title>Node48&#45;&gt;Node23</title>
<path fill="none" stroke="midnightblue" d="M1919.43,-307.698C1907.98,-279.452 1871.99,-190.7 1856.36,-152.161"/>
<polygon fill="midnightblue" stroke="midnightblue" points="1859.53,-150.666 1852.53,-142.714 1853.05,-153.296 1859.53,-150.666"/>
</g>
<!-- Node48&#45;&gt;Node25 -->
<g id="edge174" class="edge"><title>Node48&#45;&gt;Node25</title>
<path fill="none" stroke="midnightblue" d="M1896.84,-307.992C1831.77,-286.824 1662.44,-231.749 1587.55,-207.388"/>
<polygon fill="midnightblue" stroke="midnightblue" points="1588.22,-203.926 1577.63,-204.161 1586.05,-210.583 1588.22,-203.926"/>
</g>
<!-- Node48&#45;&gt;Node39 -->
<g id="edge171" class="edge"><title>Node48&#45;&gt;Node39</title>
<path fill="none" stroke="midnightblue" d="M1946.5,-307.975C1974.63,-297.769 2021.93,-280.608 2053.79,-269.049"/>
<polygon fill="midnightblue" stroke="midnightblue" points="2055.34,-272.21 2063.55,-265.509 2052.95,-265.63 2055.34,-272.21"/>
</g>
<!-- Node49&#45;&gt;Node11 -->
<g id="edge183" class="edge"><title>Node49&#45;&gt;Node11</title>
<path fill="none" stroke="midnightblue" d="M2839.28,-593.231C2849.73,-575.043 2872,-531.601 2872,-492 2872,-492 2872,-492 2872,-255 2872,-133.264 2750.39,-151.323 2632,-123 2594.27,-113.974 1351.89,-79.3837 1134.35,-73.3882"/>
<polygon fill="midnightblue" stroke="midnightblue" points="1134.31,-69.8859 1124.21,-73.1093 1134.11,-76.8833 1134.31,-69.8859"/>
</g>
<!-- Node49&#45;&gt;Node12 -->
<g id="edge186" class="edge"><title>Node49&#45;&gt;Node12</title>
<path fill="none" stroke="midnightblue" d="M2888.67,-596.236C2945.12,-589.351 3028.45,-576.289 3054,-557 3124.76,-503.585 3146,-468.659 3146,-380 3146,-380 3146,-380 3146,-316.5 3146,-228.205 3164.72,-184.123 3101,-123 3067.61,-90.9703 2928.63,-78.376 2865.48,-74.2379"/>
<polygon fill="midnightblue" stroke="midnightblue" points="2865.51,-70.7333 2855.32,-73.6025 2865.08,-77.7197 2865.51,-70.7333"/>
</g>
<!-- Node49&#45;&gt;Node18 -->
<g id="edge181" class="edge"><title>Node49&#45;&gt;Node18</title>
<path fill="none" stroke="midnightblue" d="M2819.12,-593.305C2768.75,-564.291 2599.31,-470.101 2447,-425 2395.32,-409.697 1620.21,-300.351 1380.86,-266.778"/>
<polygon fill="midnightblue" stroke="midnightblue" points="1381.27,-263.302 1370.88,-265.379 1380.3,-270.234 1381.27,-263.302"/>
</g>
<!-- Node49&#45;&gt;Node21 -->
<g id="edge184" class="edge"><title>Node49&#45;&gt;Node21</title>
<path fill="none" stroke="midnightblue" d="M2828.72,-593.231C2818.27,-575.043 2796,-531.601 2796,-492 2796,-492 2796,-492 2796,-255 2796,-200.581 2750.16,-200.111 2700,-179 2642.92,-154.975 2458.4,-140.932 2381.81,-136.009"/>
<polygon fill="midnightblue" stroke="midnightblue" points="2381.94,-132.511 2371.74,-135.375 2381.5,-139.497 2381.94,-132.511"/>
</g>
<!-- Node49&#45;&gt;Node29 -->
<g id="edge182" class="edge"><title>Node49&#45;&gt;Node29</title>
<path fill="none" stroke="midnightblue" d="M2779.24,-600.34C2512.91,-592.265 1355.62,-557.175 1102.17,-549.491"/>
<polygon fill="midnightblue" stroke="midnightblue" points="1101.91,-545.982 1091.81,-549.177 1101.7,-552.978 1101.91,-545.982"/>
</g>
<!-- Node49&#45;&gt;Node35 -->
<g id="edge185" class="edge"><title>Node49&#45;&gt;Node35</title>
<path fill="none" stroke="midnightblue" d="M2782.19,-593.444C2721.58,-583.435 2621.76,-566.951 2560.45,-556.827"/>
<polygon fill="midnightblue" stroke="midnightblue" points="2560.65,-553.313 2550.22,-555.137 2559.51,-560.219 2560.65,-553.313"/>
</g>
<!-- Node50 -->
<g id="node50" class="node"><title>Node50</title>
<g id="a_node50"><a xlink:href="with_8h.html" target="_top" xlink:title="RAII wrapper function to enter and exit a context object similar to python&#39;s with syntax...">
<polygon fill="white" stroke="black" points="2938,-123.5 2938,-142.5 3044,-142.5 3044,-123.5 2938,-123.5"/>
<text text-anchor="middle" x="2991" y="-130.5" font-family="Helvetica,sans-Serif" font-size="10.00">tvm/support/with.h</text>
</a>
</g>
</g>
<!-- Node49&#45;&gt;Node50 -->
<g id="edge178" class="edge"><title>Node49&#45;&gt;Node50</title>
<path fill="none" stroke="midnightblue" d="M2888.74,-599.278C2957.05,-592.594 3065,-569.733 3065,-492 3065,-492 3065,-492 3065,-255 3065,-211.796 3030.24,-170.977 3008.37,-149.567"/>
<polygon fill="midnightblue" stroke="midnightblue" points="3010.65,-146.911 3000.98,-142.589 3005.85,-152 3010.65,-146.911"/>
</g>
<!-- Node50&#45;&gt;Node5 -->
<g id="edge179" class="edge"><title>Node50&#45;&gt;Node5</title>
<path fill="none" stroke="midnightblue" d="M2937.7,-128.433C2910.81,-126.688 2877.68,-124.619 2848,-123 2448.29,-101.198 1966.09,-81.1002 1807.43,-74.6495"/>
<polygon fill="midnightblue" stroke="midnightblue" points="1807.15,-71.1351 1797.02,-74.2266 1806.87,-78.1294 1807.15,-71.1351"/>
</g>
<!-- Node50&#45;&gt;Node12 -->
<g id="edge180" class="edge"><title>Node50&#45;&gt;Node12</title>
<path fill="none" stroke="midnightblue" d="M2968.51,-123.475C2941.39,-113.197 2895.66,-95.8679 2865.16,-84.3078"/>
<polygon fill="midnightblue" stroke="midnightblue" points="2866.04,-80.8982 2855.44,-80.6271 2863.56,-87.4439 2866.04,-80.8982"/>
</g>
</g>
</svg>
