<?xml version="1.0" encoding="UTF-8" standalone="no"?>
<!DOCTYPE svg PUBLIC "-//W3C//DTD SVG 1.1//EN"
 "http://www.w3.org/Graphics/SVG/1.1/DTD/svg11.dtd">
<!-- Generated by graphviz version 2.38.0 (20140413.2041)
 -->
<!-- Title: include/tvm/ir/attrs.h Pages: 1 -->
<svg width="2492pt" height="789pt"
 viewBox="0.00 0.00 2491.50 789.00" xmlns="http://www.w3.org/2000/svg" xmlns:xlink="http://www.w3.org/1999/xlink">
<g id="graph0" class="graph" transform="scale(1 1) rotate(0) translate(4 785)">
<title>include/tvm/ir/attrs.h</title>
<polygon fill="white" stroke="none" points="-4,4 -4,-785 2487.5,-785 2487.5,4 -4,4"/>
<!-- Node1 -->
<g id="node1" class="node"><title>Node1</title>
<polygon fill="#bfbfbf" stroke="black" points="302.5,-761.5 302.5,-780.5 418.5,-780.5 418.5,-761.5 302.5,-761.5"/>
<text text-anchor="middle" x="360.5" y="-768.5" font-family="Helvetica,sans-Serif" font-size="10.00">include/tvm/ir/attrs.h</text>
</g>
<!-- Node2 -->
<g id="node2" class="node"><title>Node2</title>
<polygon fill="white" stroke="#bfbfbf" points="0,-705.5 0,-724.5 95,-724.5 95,-705.5 0,-705.5"/>
<text text-anchor="middle" x="47.5" y="-712.5" font-family="Helvetica,sans-Serif" font-size="10.00">dmlc/common.h</text>
</g>
<!-- Node1&#45;&gt;Node2 -->
<g id="edge1" class="edge"><title>Node1&#45;&gt;Node2</title>
<path fill="none" stroke="midnightblue" d="M310.904,-761.444C254.931,-751.787 164.008,-736.1 104.981,-725.917"/>
<polygon fill="midnightblue" stroke="midnightblue" points="105.519,-722.458 95.0692,-724.207 104.329,-729.356 105.519,-722.458"/>
</g>
<!-- Node3 -->
<g id="node3" class="node"><title>Node3</title>
<g id="a_node3"><a xlink:href="ir_2expr_8h.html" target="_top" xlink:title="Base expr nodes in TVM. ">
<polygon fill="white" stroke="black" points="1336,-705.5 1336,-724.5 1413,-724.5 1413,-705.5 1336,-705.5"/>
<text text-anchor="middle" x="1374.5" y="-712.5" font-family="Helvetica,sans-Serif" font-size="10.00">tvm/ir/expr.h</text>
</a>
</g>
</g>
<!-- Node1&#45;&gt;Node3 -->
<g id="edge2" class="edge"><title>Node1&#45;&gt;Node3</title>
<path fill="none" stroke="midnightblue" d="M418.659,-766.903C600.746,-757.206 1157.72,-727.544 1325.91,-718.588"/>
<polygon fill="midnightblue" stroke="midnightblue" points="1326.15,-722.08 1335.95,-718.053 1325.78,-715.09 1326.15,-722.08"/>
</g>
<!-- Node10 -->
<g id="node10" class="node"><title>Node10</title>
<polygon fill="white" stroke="#bfbfbf" points="331.5,-62 331.5,-81 399.5,-81 399.5,-62 331.5,-62"/>
<text text-anchor="middle" x="365.5" y="-69" font-family="Helvetica,sans-Serif" font-size="10.00">type_traits</text>
</g>
<!-- Node1&#45;&gt;Node10 -->
<g id="edge124" class="edge"><title>Node1&#45;&gt;Node10</title>
<path fill="none" stroke="midnightblue" d="M302.22,-767.584C232.046,-761.187 123.5,-738.589 123.5,-660 123.5,-660 123.5,-660 123.5,-188 123.5,-101.431 251.187,-79.6852 321.062,-74.266"/>
<polygon fill="midnightblue" stroke="midnightblue" points="321.606,-77.7367 331.341,-73.5539 321.123,-70.7535 321.606,-77.7367"/>
</g>
<!-- Node11 -->
<g id="node11" class="node"><title>Node11</title>
<polygon fill="white" stroke="#bfbfbf" points="2214.5,-62 2214.5,-81 2258.5,-81 2258.5,-62 2214.5,-62"/>
<text text-anchor="middle" x="2236.5" y="-69" font-family="Helvetica,sans-Serif" font-size="10.00">string</text>
</g>
<!-- Node1&#45;&gt;Node11 -->
<g id="edge125" class="edge"><title>Node1&#45;&gt;Node11</title>
<path fill="none" stroke="midnightblue" d="M418.828,-770.167C691.851,-770.704 1845.28,-770.203 2202.5,-725 2329.67,-708.907 2483.5,-788.187 2483.5,-660 2483.5,-660 2483.5,-660 2483.5,-188 2483.5,-94.3111 2335.87,-76.4515 2268.88,-73.1702"/>
<polygon fill="midnightblue" stroke="midnightblue" points="2268.99,-69.6719 2258.86,-72.7594 2268.7,-76.666 2268.99,-69.6719"/>
</g>
<!-- Node12 -->
<g id="node12" class="node"><title>Node12</title>
<polygon fill="white" stroke="#bfbfbf" points="708.5,-62 708.5,-81 750.5,-81 750.5,-62 708.5,-62"/>
<text text-anchor="middle" x="729.5" y="-69" font-family="Helvetica,sans-Serif" font-size="10.00">utility</text>
</g>
<!-- Node1&#45;&gt;Node12 -->
<g id="edge126" class="edge"><title>Node1&#45;&gt;Node12</title>
<path fill="none" stroke="midnightblue" d="M339.855,-761.421C307.004,-746.231 246.5,-711.293 246.5,-660 246.5,-660 246.5,-660 246.5,-546 246.5,-342.205 240.64,-212.971 423.5,-123 515.636,-77.6672 640.315,-71.8508 697.919,-71.8328"/>
<polygon fill="midnightblue" stroke="midnightblue" points="698.174,-75.3342 708.194,-71.8925 698.215,-68.3343 698.174,-75.3342"/>
</g>
<!-- Node18 -->
<g id="node18" class="node"><title>Node18</title>
<g id="a_node18"><a xlink:href="packed__func_8h.html" target="_top" xlink:title="Type&#45;erased function used across TVM API. ">
<polygon fill="white" stroke="black" points="1271,-291.5 1271,-321.5 1384,-321.5 1384,-291.5 1271,-291.5"/>
<text text-anchor="start" x="1279" y="-309.5" font-family="Helvetica,sans-Serif" font-size="10.00">tvm/runtime/packed</text>
<text text-anchor="middle" x="1327.5" y="-298.5" font-family="Helvetica,sans-Serif" font-size="10.00">_func.h</text>
</a>
</g>
</g>
<!-- Node1&#45;&gt;Node18 -->
<g id="edge120" class="edge"><title>Node1&#45;&gt;Node18</title>
<path fill="none" stroke="midnightblue" d="M418.57,-769.054C703.443,-764.04 1939.5,-737.802 1939.5,-660 1939.5,-660 1939.5,-660 1939.5,-490 1939.5,-377.237 1553.12,-328.45 1394.37,-313.165"/>
<polygon fill="midnightblue" stroke="midnightblue" points="1394.54,-309.665 1384.25,-312.206 1393.88,-316.634 1394.54,-309.665"/>
</g>
<!-- Node22 -->
<g id="node22" class="node"><title>Node22</title>
<polygon fill="white" stroke="#bfbfbf" points="1506,-179.5 1506,-198.5 1553,-198.5 1553,-179.5 1506,-179.5"/>
<text text-anchor="middle" x="1529.5" y="-186.5" font-family="Helvetica,sans-Serif" font-size="10.00">vector</text>
</g>
<!-- Node1&#45;&gt;Node22 -->
<g id="edge122" class="edge"><title>Node1&#45;&gt;Node22</title>
<path fill="none" stroke="midnightblue" d="M418.737,-769.994C752.487,-769.586 2407.5,-762.403 2407.5,-660 2407.5,-660 2407.5,-660 2407.5,-602 2407.5,-384.713 2278.72,-332.435 2084.5,-235 2037.94,-211.641 1676.33,-195.716 1563.21,-191.266"/>
<polygon fill="midnightblue" stroke="midnightblue" points="1563.18,-187.763 1553.06,-190.871 1562.91,-194.757 1563.18,-187.763"/>
</g>
<!-- Node23 -->
<g id="node23" class="node"><title>Node23</title>
<polygon fill="white" stroke="#bfbfbf" points="380,-179.5 380,-198.5 473,-198.5 473,-179.5 380,-179.5"/>
<text text-anchor="middle" x="426.5" y="-186.5" font-family="Helvetica,sans-Serif" font-size="10.00">unordered_map</text>
</g>
<!-- Node1&#45;&gt;Node23 -->
<g id="edge121" class="edge"><title>Node1&#45;&gt;Node23</title>
<path fill="none" stroke="midnightblue" d="M304.674,-761.462C279.836,-755.111 251.888,-744.087 232.5,-725 210.555,-703.395 208.5,-690.795 208.5,-660 208.5,-660 208.5,-660 208.5,-546 208.5,-393.594 355.605,-251.352 408.134,-205.418"/>
<polygon fill="midnightblue" stroke="midnightblue" points="410.691,-207.834 415.985,-198.657 406.124,-202.53 410.691,-207.834"/>
</g>
<!-- Node28 -->
<g id="node28" class="node"><title>Node28</title>
<polygon fill="white" stroke="#bfbfbf" points="1582,-235.5 1582,-254.5 1645,-254.5 1645,-235.5 1582,-235.5"/>
<text text-anchor="middle" x="1613.5" y="-242.5" font-family="Helvetica,sans-Serif" font-size="10.00">functional</text>
</g>
<!-- Node1&#45;&gt;Node28 -->
<g id="edge123" class="edge"><title>Node1&#45;&gt;Node28</title>
<path fill="none" stroke="midnightblue" d="M418.659,-769.488C642.398,-767.294 1447.74,-757.28 1701.5,-725 1814.88,-710.577 1874.94,-752.957 1952.5,-669 2006.41,-610.642 1977.5,-571.447 1977.5,-492 1977.5,-492 1977.5,-492 1977.5,-428.5 1977.5,-285.751 1751.02,-254.65 1655.35,-247.881"/>
<polygon fill="midnightblue" stroke="midnightblue" points="1655.37,-244.375 1645.17,-247.217 1654.92,-251.36 1655.37,-244.375"/>
</g>
<!-- Node31 -->
<g id="node31" class="node"><title>Node31</title>
<g id="a_node31"><a xlink:href="structural__equal_8h.html" target="_top" xlink:title="Structural equality comparison. ">
<polygon fill="white" stroke="black" points="579,-414.5 579,-444.5 690,-444.5 690,-414.5 579,-414.5"/>
<text text-anchor="start" x="587" y="-432.5" font-family="Helvetica,sans-Serif" font-size="10.00">tvm/node/structural</text>
<text text-anchor="middle" x="634.5" y="-421.5" font-family="Helvetica,sans-Serif" font-size="10.00">_equal.h</text>
</a>
</g>
</g>
<!-- Node1&#45;&gt;Node31 -->
<g id="edge118" class="edge"><title>Node1&#45;&gt;Node31</title>
<path fill="none" stroke="midnightblue" d="M356.645,-761.495C345.069,-734.58 313.39,-649.698 346.5,-593 394.168,-511.372 499.656,-467.524 568.868,-446.625"/>
<polygon fill="midnightblue" stroke="midnightblue" points="570.197,-449.883 578.806,-443.707 568.225,-443.167 570.197,-449.883"/>
</g>
<!-- Node35 -->
<g id="node35" class="node"><title>Node35</title>
<g id="a_node35"><a xlink:href="structural__hash_8h.html" target="_top" xlink:title="tvm/node/structural\l_hash.h">
<polygon fill="white" stroke="black" points="901,-414.5 901,-444.5 1012,-444.5 1012,-414.5 901,-414.5"/>
<text text-anchor="start" x="909" y="-432.5" font-family="Helvetica,sans-Serif" font-size="10.00">tvm/node/structural</text>
<text text-anchor="middle" x="956.5" y="-421.5" font-family="Helvetica,sans-Serif" font-size="10.00">_hash.h</text>
</a>
</g>
</g>
<!-- Node1&#45;&gt;Node35 -->
<g id="edge119" class="edge"><title>Node1&#45;&gt;Node35</title>
<path fill="none" stroke="midnightblue" d="M382.871,-761.461C458.112,-732.156 707.281,-630.311 885.5,-501 905.074,-486.798 924.356,-467.193 937.875,-452.261"/>
<polygon fill="midnightblue" stroke="midnightblue" points="940.735,-454.312 944.758,-444.511 935.501,-449.664 940.735,-454.312"/>
</g>
<!-- Node4 -->
<g id="node4" class="node"><title>Node4</title>
<g id="a_node4"><a xlink:href="object_8h.html" target="_top" xlink:title="A managed object in the TVM runtime. ">
<polygon fill="white" stroke="black" points="1072,-123.5 1072,-142.5 1189,-142.5 1189,-123.5 1072,-123.5"/>
<text text-anchor="middle" x="1130.5" y="-130.5" font-family="Helvetica,sans-Serif" font-size="10.00">tvm/runtime/object.h</text>
</a>
</g>
</g>
<!-- Node3&#45;&gt;Node4 -->
<g id="edge3" class="edge"><title>Node3&#45;&gt;Node4</title>
<path fill="none" stroke="midnightblue" d="M1413.08,-713.267C1501.09,-710.164 1721.53,-694.205 1882.5,-613 1953.85,-577.006 2015.5,-571.914 2015.5,-492 2015.5,-492 2015.5,-492 2015.5,-428.5 2015.5,-392.253 2000.97,-382.766 1974.5,-358 1884.66,-273.935 1839.1,-284.592 1726.5,-235 1685.94,-217.135 1673.63,-217.807 1633.5,-199 1616.93,-191.233 1614.98,-184.437 1597.5,-179 1525,-156.448 1310.43,-142.877 1199.16,-137.167"/>
<polygon fill="midnightblue" stroke="midnightblue" points="1199.21,-133.665 1189.05,-136.655 1198.86,-140.657 1199.21,-133.665"/>
</g>
<!-- Node3&#45;&gt;Node10 -->
<g id="edge117" class="edge"><title>Node3&#45;&gt;Node10</title>
<path fill="none" stroke="midnightblue" d="M1335.81,-713.22C1178.55,-709.881 591.909,-695.731 513.5,-669 350.338,-613.375 161.5,-374.44 161.5,-307.5 161.5,-307.5 161.5,-307.5 161.5,-188 161.5,-115.093 261.389,-87.6646 321.372,-77.7666"/>
<polygon fill="midnightblue" stroke="midnightblue" points="322.009,-81.2098 331.355,-76.2193 320.937,-74.2924 322.009,-81.2098"/>
</g>
<!-- Node3&#45;&gt;Node11 -->
<g id="edge114" class="edge"><title>Node3&#45;&gt;Node11</title>
<path fill="none" stroke="midnightblue" d="M1413.25,-714.399C1605.26,-715.364 2445.5,-707.288 2445.5,-492 2445.5,-492 2445.5,-492 2445.5,-188 2445.5,-108.383 2327.88,-83.2204 2269.11,-75.6169"/>
<polygon fill="midnightblue" stroke="midnightblue" points="2269.21,-72.1038 2258.87,-74.3923 2268.38,-79.0543 2269.21,-72.1038"/>
</g>
<!-- Node14 -->
<g id="node14" class="node"><title>Node14</title>
<g id="a_node14"><a xlink:href="node_8h.html" target="_top" xlink:title="Definitions and helper macros for IR/AST nodes. ">
<polygon fill="white" stroke="black" points="907.5,-537.5 907.5,-556.5 1005.5,-556.5 1005.5,-537.5 907.5,-537.5"/>
<text text-anchor="middle" x="956.5" y="-544.5" font-family="Helvetica,sans-Serif" font-size="10.00">tvm/node/node.h</text>
</a>
</g>
</g>
<!-- Node3&#45;&gt;Node14 -->
<g id="edge13" class="edge"><title>Node3&#45;&gt;Node14</title>
<path fill="none" stroke="midnightblue" d="M1351.44,-705.48C1305.44,-688.414 1199.05,-648.615 1110.5,-613 1066.77,-595.412 1016.54,-573.977 985.659,-560.656"/>
<polygon fill="midnightblue" stroke="midnightblue" points="986.914,-557.385 976.346,-556.631 984.137,-563.811 986.914,-557.385"/>
</g>
<!-- Node30 -->
<g id="node30" class="node"><title>Node30</title>
<polygon fill="white" stroke="#bfbfbf" points="2033.5,-235.5 2033.5,-254.5 2075.5,-254.5 2075.5,-235.5 2033.5,-235.5"/>
<text text-anchor="middle" x="2054.5" y="-242.5" font-family="Helvetica,sans-Serif" font-size="10.00">limits</text>
</g>
<!-- Node3&#45;&gt;Node30 -->
<g id="edge116" class="edge"><title>Node3&#45;&gt;Node30</title>
<path fill="none" stroke="midnightblue" d="M1413.08,-714.344C1502.52,-714.377 1730.56,-710.042 1915.5,-669 1996.91,-650.934 2091.5,-687.386 2091.5,-604 2091.5,-604 2091.5,-604 2091.5,-367 2091.5,-328.901 2074.52,-286.887 2063.56,-263.75"/>
<polygon fill="midnightblue" stroke="midnightblue" points="2066.59,-261.964 2059.04,-254.53 2060.3,-265.049 2066.59,-261.964"/>
</g>
<!-- Node33 -->
<g id="node33" class="node"><title>Node33</title>
<g id="a_node33"><a xlink:href="node_2container_8h.html" target="_top" xlink:title="Array/Map container in the DSL graph. ">
<polygon fill="white" stroke="black" points="562,-358.5 562,-377.5 681,-377.5 681,-358.5 562,-358.5"/>
<text text-anchor="middle" x="621.5" y="-365.5" font-family="Helvetica,sans-Serif" font-size="10.00">tvm/node/container.h</text>
</a>
</g>
</g>
<!-- Node3&#45;&gt;Node33 -->
<g id="edge102" class="edge"><title>Node3&#45;&gt;Node33</title>
<path fill="none" stroke="midnightblue" d="M1335.98,-713.601C1159.47,-711.276 436.5,-696.127 436.5,-604 436.5,-604 436.5,-604 436.5,-490 436.5,-426.774 513.116,-394.814 567.738,-380.062"/>
<polygon fill="midnightblue" stroke="midnightblue" points="568.848,-383.39 577.658,-377.504 567.1,-376.612 568.848,-383.39"/>
</g>
<!-- Node38 -->
<g id="node38" class="node"><title>Node38</title>
<g id="a_node38"><a xlink:href="span_8h.html" target="_top" xlink:title="Span information for debugging purposes. ">
<polygon fill="white" stroke="black" points="1793.5,-593.5 1793.5,-612.5 1873.5,-612.5 1873.5,-593.5 1793.5,-593.5"/>
<text text-anchor="middle" x="1833.5" y="-600.5" font-family="Helvetica,sans-Serif" font-size="10.00">tvm/ir/span.h</text>
</a>
</g>
</g>
<!-- Node3&#45;&gt;Node38 -->
<g id="edge103" class="edge"><title>Node3&#45;&gt;Node38</title>
<path fill="none" stroke="midnightblue" d="M1378.51,-705.429C1385.78,-690.96 1402.64,-661.998 1426.5,-649 1495.74,-611.277 1701.35,-623.487 1779.5,-613 1780.77,-612.829 1782.06,-612.652 1783.36,-612.468"/>
<polygon fill="midnightblue" stroke="midnightblue" points="1784.06,-615.902 1793.44,-610.968 1783.03,-608.978 1784.06,-615.902"/>
</g>
<!-- Node39 -->
<g id="node39" class="node"><title>Node39</title>
<g id="a_node39"><a xlink:href="ir_2type_8h.html" target="_top" xlink:title="IR/AST nodes for the unified type system in TVM. ">
<polygon fill="white" stroke="black" points="1302,-649.5 1302,-668.5 1379,-668.5 1379,-649.5 1302,-649.5"/>
<text text-anchor="middle" x="1340.5" y="-656.5" font-family="Helvetica,sans-Serif" font-size="10.00">tvm/ir/type.h</text>
</a>
</g>
</g>
<!-- Node3&#45;&gt;Node39 -->
<g id="edge107" class="edge"><title>Node3&#45;&gt;Node39</title>
<path fill="none" stroke="midnightblue" d="M1368.89,-705.083C1364.13,-697.534 1357.18,-686.495 1351.35,-677.23"/>
<polygon fill="midnightblue" stroke="midnightblue" points="1354.3,-675.349 1346.01,-668.751 1348.38,-679.078 1354.3,-675.349"/>
</g>
<!-- Node40 -->
<g id="node40" class="node"><title>Node40</title>
<polygon fill="white" stroke="#bfbfbf" points="1435.5,-649.5 1435.5,-668.5 1497.5,-668.5 1497.5,-649.5 1435.5,-649.5"/>
<text text-anchor="middle" x="1466.5" y="-656.5" font-family="Helvetica,sans-Serif" font-size="10.00">algorithm</text>
</g>
<!-- Node3&#45;&gt;Node40 -->
<g id="edge115" class="edge"><title>Node3&#45;&gt;Node40</title>
<path fill="none" stroke="midnightblue" d="M1389.28,-705.324C1403.77,-696.822 1426.07,-683.729 1442.99,-673.797"/>
<polygon fill="midnightblue" stroke="midnightblue" points="1444.9,-676.735 1451.76,-668.655 1441.36,-670.698 1444.9,-676.735"/>
</g>
<!-- Node5 -->
<g id="node5" class="node"><title>Node5</title>
<polygon fill="white" stroke="#bfbfbf" points="996.5,-62 996.5,-81 1082.5,-81 1082.5,-62 996.5,-62"/>
<text text-anchor="middle" x="1039.5" y="-69" font-family="Helvetica,sans-Serif" font-size="10.00">dmlc/logging.h</text>
</g>
<!-- Node4&#45;&gt;Node5 -->
<g id="edge4" class="edge"><title>Node4&#45;&gt;Node5</title>
<path fill="none" stroke="midnightblue" d="M1117.46,-123.475C1102.73,-113.843 1078.53,-98.0175 1060.99,-86.5517"/>
<polygon fill="midnightblue" stroke="midnightblue" points="1062.8,-83.5522 1052.51,-81.0091 1058.97,-89.411 1062.8,-83.5522"/>
</g>
<!-- Node6 -->
<g id="node6" class="node"><title>Node6</title>
<g id="a_node6"><a xlink:href="c__runtime__api_8h.html" target="_top" xlink:title="tvm/runtime/c_runtime\l_api.h">
<polygon fill="white" stroke="black" points="1591,-56.5 1591,-86.5 1718,-86.5 1718,-56.5 1591,-56.5"/>
<text text-anchor="start" x="1599" y="-74.5" font-family="Helvetica,sans-Serif" font-size="10.00">tvm/runtime/c_runtime</text>
<text text-anchor="middle" x="1654.5" y="-63.5" font-family="Helvetica,sans-Serif" font-size="10.00">_api.h</text>
</a>
</g>
</g>
<!-- Node4&#45;&gt;Node6 -->
<g id="edge5" class="edge"><title>Node4&#45;&gt;Node6</title>
<path fill="none" stroke="midnightblue" d="M1189.08,-125.348C1284.97,-114.46 1475.25,-92.8539 1580.38,-80.9163"/>
<polygon fill="midnightblue" stroke="midnightblue" points="1581.05,-84.3627 1590.59,-79.7567 1580.26,-77.4074 1581.05,-84.3627"/>
</g>
<!-- Node4&#45;&gt;Node10 -->
<g id="edge9" class="edge"><title>Node4&#45;&gt;Node10</title>
<path fill="none" stroke="midnightblue" d="M1071.74,-127.43C924.072,-115.944 539.932,-86.0669 409.544,-75.9256"/>
<polygon fill="midnightblue" stroke="midnightblue" points="409.76,-72.4319 399.518,-75.1459 409.217,-79.4109 409.76,-72.4319"/>
</g>
<!-- Node4&#45;&gt;Node11 -->
<g id="edge10" class="edge"><title>Node4&#45;&gt;Node11</title>
<path fill="none" stroke="midnightblue" d="M1189.18,-128.843C1390.67,-118.004 2050.3,-82.5168 2204.2,-74.2378"/>
<polygon fill="midnightblue" stroke="midnightblue" points="2204.59,-77.7217 2214.39,-73.6895 2204.22,-70.7318 2204.59,-77.7217"/>
</g>
<!-- Node4&#45;&gt;Node12 -->
<g id="edge11" class="edge"><title>Node4&#45;&gt;Node12</title>
<path fill="none" stroke="midnightblue" d="M1073.05,-123.475C987.12,-110.725 828.056,-87.1236 760.812,-77.1461"/>
<polygon fill="midnightblue" stroke="midnightblue" points="761.239,-73.6712 750.834,-75.6655 760.212,-80.5954 761.239,-73.6712"/>
</g>
<!-- Node13 -->
<g id="node13" class="node"><title>Node13</title>
<polygon fill="white" stroke="#bfbfbf" points="1313.5,-62 1313.5,-81 1363.5,-81 1363.5,-62 1313.5,-62"/>
<text text-anchor="middle" x="1338.5" y="-69" font-family="Helvetica,sans-Serif" font-size="10.00">atomic</text>
</g>
<!-- Node4&#45;&gt;Node13 -->
<g id="edge12" class="edge"><title>Node4&#45;&gt;Node13</title>
<path fill="none" stroke="midnightblue" d="M1160.3,-123.475C1198.2,-112.633 1263.54,-93.9435 1303.69,-82.4578"/>
<polygon fill="midnightblue" stroke="midnightblue" points="1304.67,-85.8174 1313.32,-79.7021 1302.75,-79.0874 1304.67,-85.8174"/>
</g>
<!-- Node7 -->
<g id="node7" class="node"><title>Node7</title>
<polygon fill="white" stroke="#bfbfbf" points="1519.5,-0.5 1519.5,-19.5 1609.5,-19.5 1609.5,-0.5 1519.5,-0.5"/>
<text text-anchor="middle" x="1564.5" y="-7.5" font-family="Helvetica,sans-Serif" font-size="10.00">dlpack/dlpack.h</text>
</g>
<!-- Node6&#45;&gt;Node7 -->
<g id="edge6" class="edge"><title>Node6&#45;&gt;Node7</title>
<path fill="none" stroke="midnightblue" d="M1633.17,-56.3993C1619.01,-47.0402 1600.49,-34.7924 1586.25,-25.3771"/>
<polygon fill="midnightblue" stroke="midnightblue" points="1587.87,-22.2531 1577.6,-19.6578 1584.01,-28.0923 1587.87,-22.2531"/>
</g>
<!-- Node8 -->
<g id="node8" class="node"><title>Node8</title>
<polygon fill="white" stroke="#bfbfbf" points="1628,-0.5 1628,-19.5 1681,-19.5 1681,-0.5 1628,-0.5"/>
<text text-anchor="middle" x="1654.5" y="-7.5" font-family="Helvetica,sans-Serif" font-size="10.00">stdint.h</text>
</g>
<!-- Node6&#45;&gt;Node8 -->
<g id="edge7" class="edge"><title>Node6&#45;&gt;Node8</title>
<path fill="none" stroke="midnightblue" d="M1654.5,-56.3993C1654.5,-48.4664 1654.5,-38.458 1654.5,-29.8583"/>
<polygon fill="midnightblue" stroke="midnightblue" points="1658,-29.6577 1654.5,-19.6578 1651,-29.6578 1658,-29.6577"/>
</g>
<!-- Node9 -->
<g id="node9" class="node"><title>Node9</title>
<polygon fill="white" stroke="#bfbfbf" points="1699,-0.5 1699,-19.5 1754,-19.5 1754,-0.5 1699,-0.5"/>
<text text-anchor="middle" x="1726.5" y="-7.5" font-family="Helvetica,sans-Serif" font-size="10.00">stddef.h</text>
</g>
<!-- Node6&#45;&gt;Node9 -->
<g id="edge8" class="edge"><title>Node6&#45;&gt;Node9</title>
<path fill="none" stroke="midnightblue" d="M1671.56,-56.3993C1682.56,-47.3076 1696.87,-35.4899 1708.12,-26.1909"/>
<polygon fill="midnightblue" stroke="midnightblue" points="1710.54,-28.726 1716.02,-19.6578 1706.09,-23.33 1710.54,-28.726"/>
</g>
<!-- Node14&#45;&gt;Node4 -->
<g id="edge15" class="edge"><title>Node14&#45;&gt;Node4</title>
<path fill="none" stroke="midnightblue" d="M968.894,-537.422C992.26,-520.128 1040.5,-478.601 1040.5,-430.5 1040.5,-430.5 1040.5,-430.5 1040.5,-367 1040.5,-281.415 1093.99,-189.307 1118.5,-151.602"/>
<polygon fill="midnightblue" stroke="midnightblue" points="1121.7,-153.108 1124.31,-142.841 1115.87,-149.236 1121.7,-153.108"/>
</g>
<!-- Node14&#45;&gt;Node6 -->
<g id="edge14" class="edge"><title>Node14&#45;&gt;Node6</title>
<path fill="none" stroke="midnightblue" d="M1005.52,-545.108C1109.02,-542.624 1357.22,-533.491 1562.5,-501 1665.99,-484.62 1693.85,-482.986 1791.5,-445 1941.4,-386.689 2029.72,-399.915 2099.5,-255 2170.48,-107.6 1872.17,-78.9232 1728.25,-73.5817"/>
<polygon fill="midnightblue" stroke="midnightblue" points="1728.27,-70.0807 1718.16,-73.2361 1728.03,-77.0765 1728.27,-70.0807"/>
</g>
<!-- Node14&#45;&gt;Node10 -->
<g id="edge101" class="edge"><title>Node14&#45;&gt;Node10</title>
<path fill="none" stroke="midnightblue" d="M907.164,-542.991C817.323,-537.062 630.666,-522.547 569.5,-501 563.249,-498.798 383.978,-385.511 374.5,-378 298.985,-318.16 271.309,-273.804 288.5,-179 293.243,-152.845 294.538,-144.97 309.5,-123 318.896,-109.204 332.823,-96.6234 344.438,-87.4698"/>
<polygon fill="midnightblue" stroke="midnightblue" points="346.894,-90.0004 352.755,-81.1747 342.669,-84.4188 346.894,-90.0004"/>
</g>
<!-- Node14&#45;&gt;Node11 -->
<g id="edge98" class="edge"><title>Node14&#45;&gt;Node11</title>
<path fill="none" stroke="midnightblue" d="M1005.85,-545.906C1118.32,-545.001 1401.96,-538.805 1635.5,-501 1732.97,-485.221 1756.78,-476.086 1850.5,-445 1925.62,-420.083 1947.65,-418.758 2015.5,-378 2060.84,-350.762 2204.92,-218.322 2218.5,-199 2238.79,-170.127 2243.24,-158.248 2241.5,-123 2240.98,-112.375 2239.83,-100.537 2238.77,-90.9956"/>
<polygon fill="midnightblue" stroke="midnightblue" points="2242.25,-90.5831 2237.61,-81.0588 2235.3,-91.3985 2242.25,-90.5831"/>
</g>
<!-- Node14&#45;&gt;Node12 -->
<g id="edge100" class="edge"><title>Node14&#45;&gt;Node12</title>
<path fill="none" stroke="midnightblue" d="M907.174,-544.304C822.817,-540.653 655.043,-529.897 604.5,-501 457.092,-416.723 425.458,-359.659 370.5,-199 367.623,-190.59 365.183,-186.123 370.5,-179 410.507,-125.401 618.125,-89.1614 698.072,-77.0021"/>
<polygon fill="midnightblue" stroke="midnightblue" points="698.669,-80.4517 708.041,-75.5105 697.633,-73.5288 698.669,-80.4517"/>
</g>
<!-- Node15 -->
<g id="node15" class="node"><title>Node15</title>
<g id="a_node15"><a xlink:href="runtime_2memory_8h.html" target="_top" xlink:title="Runtime memory management. ">
<polygon fill="white" stroke="black" points="720,-179.5 720,-198.5 847,-198.5 847,-179.5 720,-179.5"/>
<text text-anchor="middle" x="783.5" y="-186.5" font-family="Helvetica,sans-Serif" font-size="10.00">tvm/runtime/memory.h</text>
</a>
</g>
</g>
<!-- Node14&#45;&gt;Node15 -->
<g id="edge16" class="edge"><title>Node14&#45;&gt;Node15</title>
<path fill="none" stroke="midnightblue" d="M907.292,-542.939C849.406,-538.191 758.503,-526.758 737.5,-501 664.905,-411.971 742.769,-259.12 772.763,-207.565"/>
<polygon fill="midnightblue" stroke="midnightblue" points="775.96,-209.038 778.065,-198.654 769.944,-205.458 775.96,-209.038"/>
</g>
<!-- Node17 -->
<g id="node17" class="node"><title>Node17</title>
<g id="a_node17"><a xlink:href="reflection_8h.html" target="_top" xlink:title="Reflection and serialization of compiler IR/AST nodes. ">
<polygon fill="white" stroke="black" points="1069,-481.5 1069,-500.5 1188,-500.5 1188,-481.5 1069,-481.5"/>
<text text-anchor="middle" x="1128.5" y="-488.5" font-family="Helvetica,sans-Serif" font-size="10.00">tvm/node/reflection.h</text>
</a>
</g>
</g>
<!-- Node14&#45;&gt;Node17 -->
<g id="edge21" class="edge"><title>Node14&#45;&gt;Node17</title>
<path fill="none" stroke="midnightblue" d="M983.754,-537.444C1012.94,-528.28 1059.42,-513.688 1091.81,-503.519"/>
<polygon fill="midnightblue" stroke="midnightblue" points="1092.88,-506.851 1101.37,-500.516 1090.78,-500.173 1092.88,-506.851"/>
</g>
<!-- Node14&#45;&gt;Node22 -->
<g id="edge99" class="edge"><title>Node14&#45;&gt;Node22</title>
<path fill="none" stroke="midnightblue" d="M1005.54,-543.155C1165.97,-533.355 1667.55,-498.625 1714.5,-445 1754.95,-398.807 1859.59,-435.331 1675.5,-235 1667.72,-226.538 1603.56,-208.909 1562.92,-198.403"/>
<polygon fill="midnightblue" stroke="midnightblue" points="1563.7,-194.99 1553.15,-195.895 1561.96,-201.77 1563.7,-194.99"/>
</g>
<!-- Node14&#45;&gt;Node31 -->
<g id="edge96" class="edge"><title>Node14&#45;&gt;Node31</title>
<path fill="none" stroke="midnightblue" d="M907.266,-545.853C854.318,-543.79 769.053,-534.84 704.5,-501 682.717,-489.581 663.482,-469.01 650.716,-453.025"/>
<polygon fill="midnightblue" stroke="midnightblue" points="653.185,-450.495 644.314,-444.704 647.637,-454.763 653.185,-450.495"/>
</g>
<!-- Node14&#45;&gt;Node33 -->
<g id="edge95" class="edge"><title>Node14&#45;&gt;Node33</title>
<path fill="none" stroke="midnightblue" d="M907.431,-543.106C850.228,-538.615 753.454,-527.524 674.5,-501 624.365,-484.157 596.711,-490.352 569.5,-445 562.411,-433.186 563.772,-426.531 569.5,-414 575.277,-401.36 586.552,-390.911 597.131,-383.274"/>
<polygon fill="midnightblue" stroke="midnightblue" points="599.349,-386.001 605.717,-377.533 595.458,-380.182 599.349,-386.001"/>
</g>
<!-- Node14&#45;&gt;Node35 -->
<g id="edge97" class="edge"><title>Node14&#45;&gt;Node35</title>
<path fill="none" stroke="midnightblue" d="M956.5,-537.319C956.5,-519.967 956.5,-480.457 956.5,-454.658"/>
<polygon fill="midnightblue" stroke="midnightblue" points="960,-454.545 956.5,-444.545 953,-454.545 960,-454.545"/>
</g>
<!-- Node36 -->
<g id="node36" class="node"><title>Node36</title>
<g id="a_node36"><a xlink:href="repr__printer_8h.html" target="_top" xlink:title="Printer class to print repr string of each AST/IR nodes. ">
<polygon fill="white" stroke="black" points="746.5,-481.5 746.5,-500.5 876.5,-500.5 876.5,-481.5 746.5,-481.5"/>
<text text-anchor="middle" x="811.5" y="-488.5" font-family="Helvetica,sans-Serif" font-size="10.00">tvm/node/repr_printer.h</text>
</a>
</g>
</g>
<!-- Node14&#45;&gt;Node36 -->
<g id="edge92" class="edge"><title>Node14&#45;&gt;Node36</title>
<path fill="none" stroke="midnightblue" d="M933.524,-537.444C909.343,-528.438 871.082,-514.189 843.854,-504.049"/>
<polygon fill="midnightblue" stroke="midnightblue" points="844.961,-500.727 834.368,-500.516 842.518,-507.286 844.961,-500.727"/>
</g>
<!-- Node15&#45;&gt;Node4 -->
<g id="edge17" class="edge"><title>Node15&#45;&gt;Node4</title>
<path fill="none" stroke="midnightblue" d="M838.483,-179.444C900.159,-169.846 1000.11,-154.292 1065.57,-144.104"/>
<polygon fill="midnightblue" stroke="midnightblue" points="1066.43,-147.513 1075.77,-142.516 1065.35,-140.596 1066.43,-147.513"/>
</g>
<!-- Node15&#45;&gt;Node10 -->
<g id="edge20" class="edge"><title>Node15&#45;&gt;Node10</title>
<path fill="none" stroke="midnightblue" d="M771.309,-179.274C750.887,-165.104 708.006,-137.247 667.5,-123 579.273,-91.9677 469.675,-79.7375 409.752,-75.1229"/>
<polygon fill="midnightblue" stroke="midnightblue" points="409.74,-71.6127 399.511,-74.3716 409.228,-78.5939 409.74,-71.6127"/>
</g>
<!-- Node15&#45;&gt;Node12 -->
<g id="edge19" class="edge"><title>Node15&#45;&gt;Node12</title>
<path fill="none" stroke="midnightblue" d="M779.441,-179.319C770.646,-160.506 749.673,-115.648 737.895,-90.4553"/>
<polygon fill="midnightblue" stroke="midnightblue" points="741.012,-88.8585 733.606,-81.282 734.671,-91.8232 741.012,-88.8585"/>
</g>
<!-- Node16 -->
<g id="node16" class="node"><title>Node16</title>
<polygon fill="white" stroke="#bfbfbf" points="834,-123.5 834,-142.5 881,-142.5 881,-123.5 834,-123.5"/>
<text text-anchor="middle" x="857.5" y="-130.5" font-family="Helvetica,sans-Serif" font-size="10.00">cstdlib</text>
</g>
<!-- Node15&#45;&gt;Node16 -->
<g id="edge18" class="edge"><title>Node15&#45;&gt;Node16</title>
<path fill="none" stroke="midnightblue" d="M795.389,-179.324C806.65,-171.107 823.787,-158.602 837.209,-148.807"/>
<polygon fill="midnightblue" stroke="midnightblue" points="839.38,-151.556 845.394,-142.834 835.253,-145.901 839.38,-151.556"/>
</g>
<!-- Node17&#45;&gt;Node4 -->
<g id="edge23" class="edge"><title>Node17&#45;&gt;Node4</title>
<path fill="none" stroke="midnightblue" d="M1126.71,-481.176C1120.34,-448.496 1099.6,-331.27 1109.5,-235 1112.52,-205.688 1120.33,-172.334 1125.53,-152.242"/>
<polygon fill="midnightblue" stroke="midnightblue" points="1128.92,-153.117 1128.1,-142.553 1122.15,-151.32 1128.92,-153.117"/>
</g>
<!-- Node17&#45;&gt;Node6 -->
<g id="edge22" class="edge"><title>Node17&#45;&gt;Node6</title>
<path fill="none" stroke="midnightblue" d="M1188.1,-487.596C1327.56,-481.662 1666.97,-465.312 1714.5,-445 1767.75,-422.242 1762.01,-388.069 1811.5,-358 1922.33,-290.666 2010.74,-361.663 2084.5,-255 2089.56,-247.689 2088.5,-242.94 2084.5,-235 2065.72,-197.682 1971.84,-139.6 1933.5,-123 1867.56,-94.4465 1786.09,-82.0364 1728.26,-76.6434"/>
<polygon fill="midnightblue" stroke="midnightblue" points="1728.37,-73.14 1718.1,-75.7459 1727.76,-80.1128 1728.37,-73.14"/>
</g>
<!-- Node17&#45;&gt;Node10 -->
<g id="edge91" class="edge"><title>Node17&#45;&gt;Node10</title>
<path fill="none" stroke="midnightblue" d="M1068.55,-486.964C933.878,-479.886 615.513,-461.628 569.5,-445 431.5,-395.131 367.102,-385.234 299.5,-255 269.292,-196.805 323.153,-121.623 350.722,-88.9117"/>
<polygon fill="midnightblue" stroke="midnightblue" points="353.5,-91.0511 357.405,-81.2021 348.21,-86.4663 353.5,-91.0511"/>
</g>
<!-- Node17&#45;&gt;Node11 -->
<g id="edge90" class="edge"><title>Node17&#45;&gt;Node11</title>
<path fill="none" stroke="midnightblue" d="M1188.13,-489.353C1322.73,-487.3 1646.36,-478.886 1749.5,-445 1818.38,-422.37 1821.25,-387.454 1887.5,-358 1941.5,-333.993 1960.62,-343.909 2015.5,-322 2074.77,-298.34 2092.23,-294.314 2142.5,-255 2191.3,-216.833 2204.63,-201.334 2225.5,-143 2231.56,-126.066 2234.28,-105.664 2235.51,-91.1741"/>
<polygon fill="midnightblue" stroke="midnightblue" points="2239.01,-91.2155 2236.2,-81.0004 2232.03,-90.7389 2239.01,-91.2155"/>
</g>
<!-- Node17&#45;&gt;Node15 -->
<g id="edge24" class="edge"><title>Node17&#45;&gt;Node15</title>
<path fill="none" stroke="midnightblue" d="M1123.46,-481.066C1102.58,-444.849 1018.99,-307.446 913.5,-235 890.21,-219.006 860.685,-208.184 835.661,-201.17"/>
<polygon fill="midnightblue" stroke="midnightblue" points="836.523,-197.778 825.958,-198.575 834.714,-204.54 836.523,-197.778"/>
</g>
<!-- Node17&#45;&gt;Node18 -->
<g id="edge25" class="edge"><title>Node17&#45;&gt;Node18</title>
<path fill="none" stroke="midnightblue" d="M1137.83,-481.442C1167.56,-454.176 1260.67,-368.785 1304.39,-328.69"/>
<polygon fill="midnightblue" stroke="midnightblue" points="1306.95,-331.093 1311.96,-321.755 1302.22,-325.934 1306.95,-331.093"/>
</g>
<!-- Node17&#45;&gt;Node22 -->
<g id="edge89" class="edge"><title>Node17&#45;&gt;Node22</title>
<path fill="none" stroke="midnightblue" d="M1188.12,-489.257C1329.54,-485.886 1673.5,-467.558 1673.5,-369 1673.5,-369 1673.5,-369 1673.5,-305.5 1673.5,-272.93 1675.69,-258.841 1653.5,-235 1640.97,-221.537 1595.35,-207.254 1563.1,-198.479"/>
<polygon fill="midnightblue" stroke="midnightblue" points="1563.72,-195.022 1553.15,-195.832 1561.92,-201.787 1563.72,-195.022"/>
</g>
<!-- Node24 -->
<g id="node24" class="node"><title>Node24</title>
<g id="a_node24"><a xlink:href="ndarray_8h.html" target="_top" xlink:title="A device&#45;independent managed NDArray abstraction. ">
<polygon fill="white" stroke="black" points="1816,-235.5 1816,-254.5 1939,-254.5 1939,-235.5 1816,-235.5"/>
<text text-anchor="middle" x="1877.5" y="-242.5" font-family="Helvetica,sans-Serif" font-size="10.00">tvm/runtime/ndarray.h</text>
</a>
</g>
</g>
<!-- Node17&#45;&gt;Node24 -->
<g id="edge62" class="edge"><title>Node17&#45;&gt;Node24</title>
<path fill="none" stroke="midnightblue" d="M1188.12,-488.368C1323.63,-484.21 1646.3,-471.61 1687.5,-445 1724.6,-421.04 1706.93,-391.675 1735.5,-358 1771.03,-316.123 1824.29,-279.188 1854.48,-259.989"/>
<polygon fill="midnightblue" stroke="midnightblue" points="1856.44,-262.889 1863.06,-254.615 1852.72,-256.957 1856.44,-262.889"/>
</g>
<!-- Node27 -->
<g id="node27" class="node"><title>Node27</title>
<g id="a_node27"><a xlink:href="data__type_8h.html" target="_top" xlink:title="tvm/runtime/data_type.h">
<polygon fill="white" stroke="black" points="529.5,-235.5 529.5,-254.5 665.5,-254.5 665.5,-235.5 529.5,-235.5"/>
<text text-anchor="middle" x="597.5" y="-242.5" font-family="Helvetica,sans-Serif" font-size="10.00">tvm/runtime/data_type.h</text>
</a>
</g>
</g>
<!-- Node17&#45;&gt;Node27 -->
<g id="edge63" class="edge"><title>Node17&#45;&gt;Node27</title>
<path fill="none" stroke="midnightblue" d="M1068.75,-485.132C1019.71,-479.627 949.204,-468.201 891.5,-445 831.519,-420.884 672.423,-302.665 616.927,-260.761"/>
<polygon fill="midnightblue" stroke="midnightblue" points="619.026,-257.961 608.94,-254.717 614.802,-263.543 619.026,-257.961"/>
</g>
<!-- Node17&#45;&gt;Node31 -->
<g id="edge64" class="edge"><title>Node17&#45;&gt;Node31</title>
<path fill="none" stroke="midnightblue" d="M1068.83,-483.606C992.095,-475.276 854.756,-459.998 737.5,-445 725.465,-443.461 712.653,-441.73 700.3,-440.016"/>
<polygon fill="midnightblue" stroke="midnightblue" points="700.447,-436.502 690.059,-438.584 699.477,-443.435 700.447,-436.502"/>
</g>
<!-- Node17&#45;&gt;Node35 -->
<g id="edge83" class="edge"><title>Node17&#45;&gt;Node35</title>
<path fill="none" stroke="midnightblue" d="M1103.86,-481.475C1078.6,-472.739 1038.62,-458.907 1006.67,-447.855"/>
<polygon fill="midnightblue" stroke="midnightblue" points="1007.63,-444.485 997.037,-444.523 1005.34,-451.1 1007.63,-444.485"/>
</g>
<!-- Node18&#45;&gt;Node4 -->
<g id="edge53" class="edge"><title>Node18&#45;&gt;Node4</title>
<path fill="none" stroke="midnightblue" d="M1270.73,-296.795C1242.05,-289.793 1208.55,-277.273 1185.5,-255 1159.39,-229.766 1171.02,-211.832 1155.5,-179 1151.11,-169.708 1145.62,-159.683 1140.9,-151.459"/>
<polygon fill="midnightblue" stroke="midnightblue" points="1143.9,-149.653 1135.83,-142.784 1137.85,-153.184 1143.9,-149.653"/>
</g>
<!-- Node18&#45;&gt;Node5 -->
<g id="edge26" class="edge"><title>Node18&#45;&gt;Node5</title>
<path fill="none" stroke="midnightblue" d="M1296.78,-291.415C1280.86,-282.814 1262.17,-270.482 1249.5,-255 1209.57,-206.199 1243.53,-166.093 1197.5,-123 1169.11,-96.4246 1126.71,-83.8343 1092.98,-77.8696"/>
<polygon fill="midnightblue" stroke="midnightblue" points="1093.25,-74.3671 1082.82,-76.223 1092.13,-81.277 1093.25,-74.3671"/>
</g>
<!-- Node18&#45;&gt;Node6 -->
<g id="edge27" class="edge"><title>Node18&#45;&gt;Node6</title>
<path fill="none" stroke="midnightblue" d="M1373.61,-291.443C1405.58,-280.99 1444.64,-266.591 1457.5,-255 1485.7,-229.58 1471.3,-207.394 1496.5,-179 1530.57,-140.618 1581.37,-109.644 1616.11,-91.1953"/>
<polygon fill="midnightblue" stroke="midnightblue" points="1617.77,-94.2791 1625.02,-86.5531 1614.53,-88.0717 1617.77,-94.2791"/>
</g>
<!-- Node18&#45;&gt;Node10 -->
<g id="edge61" class="edge"><title>Node18&#45;&gt;Node10</title>
<path fill="none" stroke="midnightblue" d="M1270.66,-305.914C1171.29,-305.376 960.213,-298.607 788.5,-255 727.129,-239.415 715.662,-224.03 657.5,-199 561.197,-157.556 447.214,-108.043 394.683,-85.198"/>
<polygon fill="midnightblue" stroke="midnightblue" points="395.879,-81.9016 385.313,-81.1225 393.087,-88.3207 395.879,-81.9016"/>
</g>
<!-- Node18&#45;&gt;Node11 -->
<g id="edge57" class="edge"><title>Node18&#45;&gt;Node11</title>
<path fill="none" stroke="midnightblue" d="M1384.17,-300.922C1537.26,-288.55 1947.69,-255.355 1948.5,-255 2027.35,-220.256 2016.64,-167.373 2090.5,-123 2126.85,-101.16 2174,-87.0334 2204.74,-79.4236"/>
<polygon fill="midnightblue" stroke="midnightblue" points="2205.58,-82.8207 2214.49,-77.091 2203.95,-76.0126 2205.58,-82.8207"/>
</g>
<!-- Node18&#45;&gt;Node12 -->
<g id="edge60" class="edge"><title>Node18&#45;&gt;Node12</title>
<path fill="none" stroke="midnightblue" d="M1276.8,-291.439C1245.02,-282.151 1203.42,-269.119 1167.5,-255 1040.2,-204.964 1016.8,-173.036 889.5,-123 845.468,-105.693 792.903,-90.0186 760.357,-80.8723"/>
<polygon fill="midnightblue" stroke="midnightblue" points="761.102,-77.4467 750.53,-78.1383 759.226,-84.1906 761.102,-77.4467"/>
</g>
<!-- Node19 -->
<g id="node19" class="node"><title>Node19</title>
<g id="a_node19"><a xlink:href="runtime_2module_8h.html" target="_top" xlink:title="Runtime container of the functions generated by TVM, This is used to support dynamically link...">
<polygon fill="white" stroke="black" points="1265.5,-235.5 1265.5,-254.5 1389.5,-254.5 1389.5,-235.5 1265.5,-235.5"/>
<text text-anchor="middle" x="1327.5" y="-242.5" font-family="Helvetica,sans-Serif" font-size="10.00">tvm/runtime/module.h</text>
</a>
</g>
</g>
<!-- Node18&#45;&gt;Node19 -->
<g id="edge28" class="edge"><title>Node18&#45;&gt;Node19</title>
<path fill="none" stroke="midnightblue" d="M1321.66,-291.399C1320.63,-283.377 1320.47,-273.233 1321.19,-264.569"/>
<polygon fill="midnightblue" stroke="midnightblue" points="1324.66,-265.044 1322.57,-254.658 1317.73,-264.081 1324.66,-265.044"/>
</g>
<!-- Node21 -->
<g id="node21" class="node"><title>Node21</title>
<polygon fill="white" stroke="#bfbfbf" points="1246,-179.5 1246,-198.5 1303,-198.5 1303,-179.5 1246,-179.5"/>
<text text-anchor="middle" x="1274.5" y="-186.5" font-family="Helvetica,sans-Serif" font-size="10.00">memory</text>
</g>
<!-- Node18&#45;&gt;Node21 -->
<g id="edge59" class="edge"><title>Node18&#45;&gt;Node21</title>
<path fill="none" stroke="midnightblue" d="M1295.35,-291.336C1280.67,-283.034 1264.75,-270.997 1256.5,-255 1248.72,-239.927 1255.51,-221.103 1262.87,-207.597"/>
<polygon fill="midnightblue" stroke="midnightblue" points="1265.98,-209.208 1268.13,-198.832 1259.98,-205.606 1265.98,-209.208"/>
</g>
<!-- Node18&#45;&gt;Node22 -->
<g id="edge56" class="edge"><title>Node18&#45;&gt;Node22</title>
<path fill="none" stroke="midnightblue" d="M1384.35,-298.552C1418.37,-291.994 1460.8,-279.335 1491.5,-255 1506.83,-242.847 1517.23,-222.686 1523.21,-208.035"/>
<polygon fill="midnightblue" stroke="midnightblue" points="1526.54,-209.126 1526.8,-198.534 1520,-206.652 1526.54,-209.126"/>
</g>
<!-- Node18&#45;&gt;Node24 -->
<g id="edge38" class="edge"><title>Node18&#45;&gt;Node24</title>
<path fill="none" stroke="midnightblue" d="M1384.03,-299.384C1484.78,-288.485 1695.16,-265.726 1805.87,-253.75"/>
<polygon fill="midnightblue" stroke="midnightblue" points="1806.37,-257.215 1815.94,-252.66 1805.62,-250.256 1806.37,-257.215"/>
</g>
<!-- Node18&#45;&gt;Node27 -->
<g id="edge49" class="edge"><title>Node18&#45;&gt;Node27</title>
<path fill="none" stroke="midnightblue" d="M1270.83,-300.881C1141.44,-290.335 824.102,-264.47 676.005,-252.399"/>
<polygon fill="midnightblue" stroke="midnightblue" points="675.891,-248.878 665.639,-251.554 675.322,-255.855 675.891,-248.878"/>
</g>
<!-- Node18&#45;&gt;Node28 -->
<g id="edge54" class="edge"><title>Node18&#45;&gt;Node28</title>
<path fill="none" stroke="midnightblue" d="M1384,-293.745C1439.33,-282.236 1522.31,-264.971 1571.87,-254.661"/>
<polygon fill="midnightblue" stroke="midnightblue" points="1572.83,-258.035 1581.91,-252.572 1571.41,-251.182 1572.83,-258.035"/>
</g>
<!-- Node29 -->
<g id="node29" class="node"><title>Node29</title>
<polygon fill="white" stroke="#bfbfbf" points="1408,-235.5 1408,-254.5 1449,-254.5 1449,-235.5 1408,-235.5"/>
<text text-anchor="middle" x="1428.5" y="-242.5" font-family="Helvetica,sans-Serif" font-size="10.00">tuple</text>
</g>
<!-- Node18&#45;&gt;Node29 -->
<g id="edge55" class="edge"><title>Node18&#45;&gt;Node29</title>
<path fill="none" stroke="midnightblue" d="M1351.44,-291.399C1367.63,-281.862 1388.91,-269.325 1405,-259.842"/>
<polygon fill="midnightblue" stroke="midnightblue" points="1406.96,-262.749 1413.8,-254.658 1403.41,-256.718 1406.96,-262.749"/>
</g>
<!-- Node18&#45;&gt;Node30 -->
<g id="edge58" class="edge"><title>Node18&#45;&gt;Node30</title>
<path fill="none" stroke="midnightblue" d="M1384,-302.008C1497.41,-294.807 1760.82,-277.112 1981.5,-255 1995.2,-253.627 2010.31,-251.815 2023.21,-250.176"/>
<polygon fill="midnightblue" stroke="midnightblue" points="2023.98,-253.606 2033.44,-248.854 2023.08,-246.664 2023.98,-253.606"/>
</g>
<!-- Node19&#45;&gt;Node4 -->
<g id="edge31" class="edge"><title>Node19&#45;&gt;Node4</title>
<path fill="none" stroke="midnightblue" d="M1328,-235.06C1328.26,-221.094 1326.6,-194.138 1311.5,-179 1295.55,-163.017 1243.27,-151.094 1198.97,-143.55"/>
<polygon fill="midnightblue" stroke="midnightblue" points="1199.51,-140.092 1189.08,-141.914 1198.37,-146.998 1199.51,-140.092"/>
</g>
<!-- Node19&#45;&gt;Node6 -->
<g id="edge30" class="edge"><title>Node19&#45;&gt;Node6</title>
<path fill="none" stroke="midnightblue" d="M1341.96,-235.376C1362.83,-222.926 1402.62,-199.192 1436.5,-179 1478.27,-154.102 1486.97,-144.677 1530.5,-123 1554.9,-110.851 1582.96,-99.2375 1606.21,-90.2172"/>
<polygon fill="midnightblue" stroke="midnightblue" points="1607.77,-93.3663 1615.85,-86.5161 1605.26,-86.831 1607.77,-93.3663"/>
</g>
<!-- Node19&#45;&gt;Node11 -->
<g id="edge35" class="edge"><title>Node19&#45;&gt;Node11</title>
<path fill="none" stroke="midnightblue" d="M1389.81,-235.882C1392.75,-235.569 1395.66,-235.273 1398.5,-235 1521.09,-223.251 1836.03,-241.811 1951.5,-199 2004.17,-179.471 2002.07,-147.762 2052.5,-123 2102.64,-98.3757 2166.57,-84.2791 2204.36,-77.5258"/>
<polygon fill="midnightblue" stroke="midnightblue" points="2205.04,-80.9616 2214.3,-75.8132 2203.85,-74.0634 2205.04,-80.9616"/>
</g>
<!-- Node19&#45;&gt;Node15 -->
<g id="edge32" class="edge"><title>Node19&#45;&gt;Node15</title>
<path fill="none" stroke="midnightblue" d="M1265.36,-237.832C1164.49,-227.819 965.539,-208.07 857.51,-197.347"/>
<polygon fill="midnightblue" stroke="midnightblue" points="857.643,-193.843 847.346,-196.338 856.951,-200.808 857.643,-193.843"/>
</g>
<!-- Node19&#45;&gt;Node18 -->
<g id="edge37" class="edge"><title>Node19&#45;&gt;Node18</title>
<path fill="none" stroke="midnightblue" d="M1332.43,-254.658C1333.93,-261.655 1334.51,-271.857 1334.14,-281.289"/>
<polygon fill="midnightblue" stroke="midnightblue" points="1330.64,-281.153 1333.34,-291.399 1337.62,-281.709 1330.64,-281.153"/>
</g>
<!-- Node20 -->
<g id="node20" class="node"><title>Node20</title>
<polygon fill="white" stroke="#bfbfbf" points="1676.5,-123.5 1676.5,-142.5 1736.5,-142.5 1736.5,-123.5 1676.5,-123.5"/>
<text text-anchor="middle" x="1706.5" y="-130.5" font-family="Helvetica,sans-Serif" font-size="10.00">dmlc/io.h</text>
</g>
<!-- Node19&#45;&gt;Node20 -->
<g id="edge29" class="edge"><title>Node19&#45;&gt;Node20</title>
<path fill="none" stroke="midnightblue" d="M1346.93,-235.381C1378.01,-221.856 1441.06,-195.492 1496.5,-179 1554.61,-161.715 1623.62,-148.234 1666.24,-140.697"/>
<polygon fill="midnightblue" stroke="midnightblue" points="1666.97,-144.122 1676.22,-138.955 1665.77,-137.226 1666.97,-144.122"/>
</g>
<!-- Node19&#45;&gt;Node21 -->
<g id="edge33" class="edge"><title>Node19&#45;&gt;Node21</title>
<path fill="none" stroke="midnightblue" d="M1318.75,-235.083C1311.03,-227.22 1299.6,-215.569 1290.28,-206.081"/>
<polygon fill="midnightblue" stroke="midnightblue" points="1292.59,-203.436 1283.09,-198.751 1287.6,-208.34 1292.59,-203.436"/>
</g>
<!-- Node19&#45;&gt;Node22 -->
<g id="edge34" class="edge"><title>Node19&#45;&gt;Node22</title>
<path fill="none" stroke="midnightblue" d="M1359.51,-235.444C1396.72,-225.494 1457.88,-209.145 1495.81,-199.007"/>
<polygon fill="midnightblue" stroke="midnightblue" points="1497.09,-202.287 1505.85,-196.323 1495.28,-195.524 1497.09,-202.287"/>
</g>
<!-- Node19&#45;&gt;Node23 -->
<g id="edge36" class="edge"><title>Node19&#45;&gt;Node23</title>
<path fill="none" stroke="midnightblue" d="M1265.22,-240.267C1098.39,-230.269 643.31,-202.994 483.167,-193.396"/>
<polygon fill="midnightblue" stroke="midnightblue" points="483.243,-189.895 473.052,-192.79 482.824,-196.882 483.243,-189.895"/>
</g>
<!-- Node24&#45;&gt;Node4 -->
<g id="edge40" class="edge"><title>Node24&#45;&gt;Node4</title>
<path fill="none" stroke="midnightblue" d="M1830.17,-235.467C1790.09,-227.689 1731.37,-214.988 1681.5,-199 1659.49,-191.945 1655.94,-184.539 1633.5,-179 1481.62,-141.508 1297.09,-134.419 1199.22,-133.564"/>
<polygon fill="midnightblue" stroke="midnightblue" points="1199.18,-130.064 1189.16,-133.496 1199.13,-137.064 1199.18,-130.064"/>
</g>
<!-- Node24&#45;&gt;Node6 -->
<g id="edge39" class="edge"><title>Node24&#45;&gt;Node6</title>
<path fill="none" stroke="midnightblue" d="M1859.51,-235.48C1843.69,-227.455 1820.6,-214.387 1803.5,-199 1771.91,-170.581 1777.65,-150.786 1745.5,-123 1730.99,-110.456 1712.86,-99.6313 1696.62,-91.257"/>
<polygon fill="midnightblue" stroke="midnightblue" points="1697.82,-87.9463 1687.31,-86.615 1694.7,-94.2104 1697.82,-87.9463"/>
</g>
<!-- Node24&#45;&gt;Node12 -->
<g id="edge48" class="edge"><title>Node24&#45;&gt;Node12</title>
<path fill="none" stroke="midnightblue" d="M1835.25,-235.428C1800.76,-227.784 1751.11,-215.289 1709.5,-199 1691.73,-192.043 1689.73,-184.659 1671.5,-179 1495.14,-124.244 904.145,-83.6505 760.947,-74.4642"/>
<polygon fill="midnightblue" stroke="midnightblue" points="760.885,-70.9532 750.682,-73.8105 760.44,-77.9391 760.885,-70.9532"/>
</g>
<!-- Node24&#45;&gt;Node13 -->
<g id="edge46" class="edge"><title>Node24&#45;&gt;Node13</title>
<path fill="none" stroke="midnightblue" d="M1857.01,-235.451C1825.56,-222.473 1763.37,-197.369 1709.5,-179 1587.59,-137.43 1439.59,-98.244 1373.41,-81.2977"/>
<polygon fill="midnightblue" stroke="midnightblue" points="1374.06,-77.8521 1363.51,-78.7719 1372.33,-84.635 1374.06,-77.8521"/>
</g>
<!-- Node24&#45;&gt;Node22 -->
<g id="edge47" class="edge"><title>Node24&#45;&gt;Node22</title>
<path fill="none" stroke="midnightblue" d="M1822.36,-235.444C1749.5,-224.137 1623.37,-204.566 1563.25,-195.238"/>
<polygon fill="midnightblue" stroke="midnightblue" points="1563.58,-191.747 1553.17,-193.672 1562.51,-198.664 1563.58,-191.747"/>
</g>
<!-- Node25 -->
<g id="node25" class="node"><title>Node25</title>
<g id="a_node25"><a xlink:href="serializer_8h.html" target="_top" xlink:title="Serializer extension to support TVM data types Include this file to enable serialization of DLDataTyp...">
<polygon fill="white" stroke="black" points="1812.5,-179.5 1812.5,-198.5 1942.5,-198.5 1942.5,-179.5 1812.5,-179.5"/>
<text text-anchor="middle" x="1877.5" y="-186.5" font-family="Helvetica,sans-Serif" font-size="10.00">tvm/runtime/serializer.h</text>
</a>
</g>
</g>
<!-- Node24&#45;&gt;Node25 -->
<g id="edge41" class="edge"><title>Node24&#45;&gt;Node25</title>
<path fill="none" stroke="midnightblue" d="M1872.33,-235.083C1870.82,-227.927 1870.39,-217.635 1871.04,-208.691"/>
<polygon fill="midnightblue" stroke="midnightblue" points="1874.52,-209.126 1872.37,-198.751 1867.58,-208.2 1874.52,-209.126"/>
</g>
<!-- Node25&#45;&gt;Node6 -->
<g id="edge44" class="edge"><title>Node25&#45;&gt;Node6</title>
<path fill="none" stroke="midnightblue" d="M1866.07,-179.428C1848.08,-166.198 1811.81,-140.504 1778.5,-123 1754.73,-110.51 1727.17,-99.0112 1704.08,-90.151"/>
<polygon fill="midnightblue" stroke="midnightblue" points="1705.07,-86.784 1694.48,-86.5201 1702.59,-93.3314 1705.07,-86.784"/>
</g>
<!-- Node25&#45;&gt;Node20 -->
<g id="edge42" class="edge"><title>Node25&#45;&gt;Node20</title>
<path fill="none" stroke="midnightblue" d="M1850.4,-179.444C1821.51,-170.32 1775.58,-155.813 1743.39,-145.651"/>
<polygon fill="midnightblue" stroke="midnightblue" points="1744.06,-142.19 1733.47,-142.516 1741.95,-148.865 1744.06,-142.19"/>
</g>
<!-- Node25&#45;&gt;Node24 -->
<g id="edge45" class="edge"><title>Node25&#45;&gt;Node24</title>
<path fill="none" stroke="midnightblue" d="M1882.63,-198.751C1884.16,-205.858 1884.6,-216.136 1883.97,-225.101"/>
<polygon fill="midnightblue" stroke="midnightblue" points="1880.49,-224.713 1882.67,-235.083 1887.43,-225.622 1880.49,-224.713"/>
</g>
<!-- Node26 -->
<g id="node26" class="node"><title>Node26</title>
<polygon fill="white" stroke="#bfbfbf" points="1830.5,-123.5 1830.5,-142.5 1924.5,-142.5 1924.5,-123.5 1830.5,-123.5"/>
<text text-anchor="middle" x="1877.5" y="-130.5" font-family="Helvetica,sans-Serif" font-size="10.00">dmlc/serializer.h</text>
</g>
<!-- Node25&#45;&gt;Node26 -->
<g id="edge43" class="edge"><title>Node25&#45;&gt;Node26</title>
<path fill="none" stroke="midnightblue" d="M1877.5,-179.083C1877.5,-172.006 1877.5,-161.861 1877.5,-152.986"/>
<polygon fill="midnightblue" stroke="midnightblue" points="1881,-152.751 1877.5,-142.751 1874,-152.751 1881,-152.751"/>
</g>
<!-- Node27&#45;&gt;Node5 -->
<g id="edge51" class="edge"><title>Node27&#45;&gt;Node5</title>
<path fill="none" stroke="midnightblue" d="M611.603,-235.49C632.826,-222.774 674.343,-198.254 710.5,-179 760.326,-152.468 771.351,-142.02 824.5,-123 878.254,-103.764 942.213,-89.8203 986.321,-81.5202"/>
<polygon fill="midnightblue" stroke="midnightblue" points="987.056,-84.9438 996.252,-79.6835 985.783,-78.0605 987.056,-84.9438"/>
</g>
<!-- Node27&#45;&gt;Node6 -->
<g id="edge50" class="edge"><title>Node27&#45;&gt;Node6</title>
<path fill="none" stroke="midnightblue" d="M649.917,-235.495C823.505,-207.33 1379.99,-117.039 1581.11,-84.4081"/>
<polygon fill="midnightblue" stroke="midnightblue" points="1581.67,-87.8618 1590.99,-82.8054 1580.55,-80.9522 1581.67,-87.8618"/>
</g>
<!-- Node27&#45;&gt;Node10 -->
<g id="edge52" class="edge"><title>Node27&#45;&gt;Node10</title>
<path fill="none" stroke="midnightblue" d="M585.995,-235.495C548.888,-208.065 432.067,-121.708 385.22,-87.0776"/>
<polygon fill="midnightblue" stroke="midnightblue" points="387.196,-84.186 377.074,-81.056 383.035,-89.815 387.196,-84.186"/>
</g>
<!-- Node31&#45;&gt;Node11 -->
<g id="edge82" class="edge"><title>Node31&#45;&gt;Node11</title>
<path fill="none" stroke="midnightblue" d="M690.06,-420.424C705.418,-418.261 722.096,-415.976 737.5,-414 886.98,-394.821 1952.13,-327.047 2084.5,-255 2121.46,-234.883 2196.1,-130.839 2224.85,-89.4801"/>
<polygon fill="midnightblue" stroke="midnightblue" points="2227.89,-91.2422 2230.69,-81.0256 2222.13,-87.2626 2227.89,-91.2422"/>
</g>
<!-- Node31&#45;&gt;Node27 -->
<g id="edge65" class="edge"><title>Node31&#45;&gt;Node27</title>
<path fill="none" stroke="midnightblue" d="M595.38,-414.483C579.072,-406.474 561.795,-394.64 552.5,-378 543.862,-362.535 543.077,-331.811 560.5,-291 565.146,-280.117 573.274,-269.782 580.73,-261.768"/>
<polygon fill="midnightblue" stroke="midnightblue" points="583.278,-264.169 587.809,-254.592 578.295,-259.253 583.278,-264.169"/>
</g>
<!-- Node32 -->
<g id="node32" class="node"><title>Node32</title>
<g id="a_node32"><a xlink:href="functor_8h.html" target="_top" xlink:title="Defines the Functor data structures. ">
<polygon fill="white" stroke="black" points="798,-235.5 798,-254.5 905,-254.5 905,-235.5 798,-235.5"/>
<text text-anchor="middle" x="851.5" y="-242.5" font-family="Helvetica,sans-Serif" font-size="10.00">tvm/node/functor.h</text>
</a>
</g>
</g>
<!-- Node31&#45;&gt;Node32 -->
<g id="edge66" class="edge"><title>Node31&#45;&gt;Node32</title>
<path fill="none" stroke="midnightblue" d="M651.167,-414.483C691.092,-380.905 791.952,-296.08 833.345,-261.268"/>
<polygon fill="midnightblue" stroke="midnightblue" points="835.614,-263.934 841.014,-254.819 831.108,-258.577 835.614,-263.934"/>
</g>
<!-- Node31&#45;&gt;Node33 -->
<g id="edge72" class="edge"><title>Node31&#45;&gt;Node33</title>
<path fill="none" stroke="midnightblue" d="M631.419,-414.399C629.666,-406.377 627.45,-396.233 625.557,-387.569"/>
<polygon fill="midnightblue" stroke="midnightblue" points="628.946,-386.68 623.392,-377.658 622.107,-388.174 628.946,-386.68"/>
</g>
<!-- Node32&#45;&gt;Node4 -->
<g id="edge68" class="edge"><title>Node32&#45;&gt;Node4</title>
<path fill="none" stroke="midnightblue" d="M865.563,-235.43C888.104,-221.973 934.012,-195.7 975.5,-179 1010.92,-164.743 1052.54,-152.915 1083.73,-144.969"/>
<polygon fill="midnightblue" stroke="midnightblue" points="1084.62,-148.354 1093.47,-142.527 1082.92,-141.564 1084.62,-148.354"/>
</g>
<!-- Node32&#45;&gt;Node5 -->
<g id="edge67" class="edge"><title>Node32&#45;&gt;Node5</title>
<path fill="none" stroke="midnightblue" d="M860.823,-235.495C890.58,-208.35 983.596,-123.497 1022.32,-88.1742"/>
<polygon fill="midnightblue" stroke="midnightblue" points="1025.09,-90.3813 1030.12,-81.056 1020.37,-85.2098 1025.09,-90.3813"/>
</g>
<!-- Node32&#45;&gt;Node10 -->
<g id="edge70" class="edge"><title>Node32&#45;&gt;Node10</title>
<path fill="none" stroke="midnightblue" d="M813.893,-235.473C782.408,-227.739 736.635,-215.096 698.5,-199 635.065,-172.225 627.411,-148.618 563.5,-123 512.35,-102.497 450.374,-88.2823 409.542,-80.2737"/>
<polygon fill="midnightblue" stroke="midnightblue" points="410.116,-76.8202 399.636,-78.3712 408.796,-83.6945 410.116,-76.8202"/>
</g>
<!-- Node32&#45;&gt;Node12 -->
<g id="edge71" class="edge"><title>Node32&#45;&gt;Node12</title>
<path fill="none" stroke="midnightblue" d="M805.937,-235.483C769.256,-227.592 721.982,-214.717 710.5,-199 686.686,-166.403 706.271,-116.317 719.629,-90.0145"/>
<polygon fill="midnightblue" stroke="midnightblue" points="722.721,-91.6546 724.341,-81.1842 716.545,-88.3594 722.721,-91.6546"/>
</g>
<!-- Node32&#45;&gt;Node22 -->
<g id="edge69" class="edge"><title>Node32&#45;&gt;Node22</title>
<path fill="none" stroke="midnightblue" d="M905.268,-239.718C1039.4,-229.035 1385.85,-201.441 1495.62,-192.699"/>
<polygon fill="midnightblue" stroke="midnightblue" points="1496.09,-196.172 1505.78,-191.889 1495.53,-189.194 1496.09,-196.172"/>
</g>
<!-- Node33&#45;&gt;Node4 -->
<g id="edge73" class="edge"><title>Node33&#45;&gt;Node4</title>
<path fill="none" stroke="midnightblue" d="M652.177,-358.387C706.797,-342.375 823.606,-305.055 913.5,-255 962.272,-227.843 964.74,-206.18 1013.5,-179 1038.45,-165.093 1068.57,-153.617 1092,-145.736"/>
<polygon fill="midnightblue" stroke="midnightblue" points="1093.19,-149.029 1101.6,-142.581 1091.01,-142.379 1093.19,-149.029"/>
</g>
<!-- Node33&#45;&gt;Node10 -->
<g id="edge76" class="edge"><title>Node33&#45;&gt;Node10</title>
<path fill="none" stroke="midnightblue" d="M583.665,-358.475C557.075,-351.377 521.41,-339.566 493.5,-322 428.07,-280.82 401.49,-269.827 370.5,-199 354.99,-163.553 358.447,-117.039 362.119,-91.44"/>
<polygon fill="midnightblue" stroke="midnightblue" points="365.623,-91.6937 363.754,-81.265 358.712,-90.583 365.623,-91.6937"/>
</g>
<!-- Node33&#45;&gt;Node11 -->
<g id="edge81" class="edge"><title>Node33&#45;&gt;Node11</title>
<path fill="none" stroke="midnightblue" d="M681.156,-367.323C817.935,-367.289 1164.4,-362.788 1450.5,-322 1510.59,-313.434 1523.58,-300.666 1583.5,-291 1757.53,-262.925 1816.57,-324.665 1978.5,-255 2060.08,-219.906 2054.2,-171.631 2128.5,-123 2152.79,-107.103 2182.88,-93.4677 2205.12,-84.387"/>
<polygon fill="midnightblue" stroke="midnightblue" points="2206.45,-87.6247 2214.44,-80.6623 2203.85,-81.125 2206.45,-87.6247"/>
</g>
<!-- Node33&#45;&gt;Node12 -->
<g id="edge80" class="edge"><title>Node33&#45;&gt;Node12</title>
<path fill="none" stroke="midnightblue" d="M605.732,-358.406C571.431,-338.504 495.077,-286.97 520.5,-235 558.007,-158.328 651.079,-107.382 699.363,-85.1852"/>
<polygon fill="midnightblue" stroke="midnightblue" points="700.982,-88.2953 708.672,-81.0078 698.116,-81.9088 700.982,-88.2953"/>
</g>
<!-- Node33&#45;&gt;Node15 -->
<g id="edge74" class="edge"><title>Node33&#45;&gt;Node15</title>
<path fill="none" stroke="midnightblue" d="M628.09,-358.427C634.992,-349.412 646.115,-334.788 655.5,-322 683.592,-283.721 683.58,-268.224 717.5,-235 729.778,-222.974 745.634,-212.047 758.728,-203.972"/>
<polygon fill="midnightblue" stroke="midnightblue" points="760.894,-206.755 767.683,-198.621 757.303,-200.746 760.894,-206.755"/>
</g>
<!-- Node33&#45;&gt;Node18 -->
<g id="edge75" class="edge"><title>Node33&#45;&gt;Node18</title>
<path fill="none" stroke="midnightblue" d="M681.085,-361.978C811.817,-350.961 1123.07,-324.729 1260.41,-313.154"/>
<polygon fill="midnightblue" stroke="midnightblue" points="1261.12,-316.607 1270.79,-312.28 1260.53,-309.632 1261.12,-316.607"/>
</g>
<!-- Node33&#45;&gt;Node22 -->
<g id="edge77" class="edge"><title>Node33&#45;&gt;Node22</title>
<path fill="none" stroke="midnightblue" d="M681.053,-366.903C837.859,-366.11 1259.22,-360.362 1392.5,-322 1451.95,-304.889 1477.18,-304.333 1514.5,-255 1524.44,-241.868 1527.96,-223.271 1529.13,-209.332"/>
<polygon fill="midnightblue" stroke="midnightblue" points="1532.65,-209.102 1529.65,-198.94 1525.66,-208.753 1532.65,-209.102"/>
</g>
<!-- Node33&#45;&gt;Node23 -->
<g id="edge79" class="edge"><title>Node33&#45;&gt;Node23</title>
<path fill="none" stroke="midnightblue" d="M595.707,-358.439C575.696,-350.947 548.006,-338.653 527.5,-322 486.204,-288.464 452.006,-234.772 436.1,-207.347"/>
<polygon fill="midnightblue" stroke="midnightblue" points="439.069,-205.487 431.088,-198.518 432.981,-208.943 439.069,-205.487"/>
</g>
<!-- Node34 -->
<g id="node34" class="node"><title>Node34</title>
<polygon fill="white" stroke="#bfbfbf" points="570,-297 570,-316 647,-316 647,-297 570,-297"/>
<text text-anchor="middle" x="608.5" y="-304" font-family="Helvetica,sans-Serif" font-size="10.00">initializer_list</text>
</g>
<!-- Node33&#45;&gt;Node34 -->
<g id="edge78" class="edge"><title>Node33&#45;&gt;Node34</title>
<path fill="none" stroke="midnightblue" d="M619.637,-358.475C617.784,-349.992 614.881,-336.704 612.503,-325.822"/>
<polygon fill="midnightblue" stroke="midnightblue" points="615.913,-325.032 610.359,-316.009 609.074,-326.526 615.913,-325.032"/>
</g>
<!-- Node35&#45;&gt;Node11 -->
<g id="edge87" class="edge"><title>Node35&#45;&gt;Node11</title>
<path fill="none" stroke="midnightblue" d="M1012.16,-426.592C1218.13,-418.575 1934.56,-381.916 2117.5,-255 2178.6,-212.613 2216.03,-127.7 2230.12,-90.5741"/>
<polygon fill="midnightblue" stroke="midnightblue" points="2233.45,-91.657 2233.61,-81.0634 2226.88,-89.2463 2233.45,-91.657"/>
</g>
<!-- Node35&#45;&gt;Node27 -->
<g id="edge84" class="edge"><title>Node35&#45;&gt;Node27</title>
<path fill="none" stroke="midnightblue" d="M935.33,-414.462C912.591,-399.637 875.178,-375.969 841.5,-358 766.443,-317.952 674.383,-278.078 627.718,-258.487"/>
<polygon fill="midnightblue" stroke="midnightblue" points="629.047,-255.25 618.471,-254.622 626.348,-261.708 629.047,-255.25"/>
</g>
<!-- Node35&#45;&gt;Node28 -->
<g id="edge88" class="edge"><title>Node35&#45;&gt;Node28</title>
<path fill="none" stroke="midnightblue" d="M1012.25,-424.608C1112.65,-416.075 1329.08,-390.675 1497.5,-322 1535.12,-306.659 1573.55,-278.52 1595.37,-261.121"/>
<polygon fill="midnightblue" stroke="midnightblue" points="1597.84,-263.622 1603.4,-254.602 1593.43,-258.188 1597.84,-263.622"/>
</g>
<!-- Node35&#45;&gt;Node32 -->
<g id="edge85" class="edge"><title>Node35&#45;&gt;Node32</title>
<path fill="none" stroke="midnightblue" d="M948.867,-414.309C935.299,-389.213 905.92,-335.451 879.5,-291 873.966,-281.69 867.602,-271.428 862.341,-263.058"/>
<polygon fill="midnightblue" stroke="midnightblue" points="865.274,-261.147 856.973,-254.563 859.356,-264.886 865.274,-261.147"/>
</g>
<!-- Node35&#45;&gt;Node33 -->
<g id="edge86" class="edge"><title>Node35&#45;&gt;Node33</title>
<path fill="none" stroke="midnightblue" d="M900.806,-418.608C839.562,-407.73 741.618,-390.334 679.479,-379.298"/>
<polygon fill="midnightblue" stroke="midnightblue" points="679.905,-375.819 669.447,-377.516 678.681,-382.711 679.905,-375.819"/>
</g>
<!-- Node36&#45;&gt;Node32 -->
<g id="edge93" class="edge"><title>Node36&#45;&gt;Node32</title>
<path fill="none" stroke="midnightblue" d="M812.924,-481.316C818.695,-446.11 840.424,-313.561 848.475,-264.452"/>
<polygon fill="midnightblue" stroke="midnightblue" points="851.93,-265.015 850.093,-254.58 845.022,-263.882 851.93,-265.015"/>
</g>
<!-- Node37 -->
<g id="node37" class="node"><title>Node37</title>
<polygon fill="white" stroke="#bfbfbf" points="747,-420 747,-439 806,-439 806,-420 747,-420"/>
<text text-anchor="middle" x="776.5" y="-427" font-family="Helvetica,sans-Serif" font-size="10.00">iostream</text>
</g>
<!-- Node36&#45;&gt;Node37 -->
<g id="edge94" class="edge"><title>Node36&#45;&gt;Node37</title>
<path fill="none" stroke="midnightblue" d="M806.485,-481.475C801.339,-472.727 793.188,-458.869 786.682,-447.809"/>
<polygon fill="midnightblue" stroke="midnightblue" points="789.592,-445.854 781.505,-439.009 783.559,-449.403 789.592,-445.854"/>
</g>
<!-- Node38&#45;&gt;Node4 -->
<g id="edge104" class="edge"><title>Node38&#45;&gt;Node4</title>
<path fill="none" stroke="midnightblue" d="M1840.75,-593.308C1856.29,-573.579 1890.4,-523.803 1877.5,-481 1838.47,-351.54 1810.77,-310.354 1698.5,-235 1661.7,-210.3 1646.36,-216.177 1605.5,-199 1585.7,-190.675 1582.23,-184.633 1561.5,-179 1495.02,-160.934 1303.06,-145.685 1199.19,-138.469"/>
<polygon fill="midnightblue" stroke="midnightblue" points="1199.33,-134.971 1189.11,-137.775 1198.85,-141.954 1199.33,-134.971"/>
</g>
<!-- Node38&#45;&gt;Node11 -->
<g id="edge106" class="edge"><title>Node38&#45;&gt;Node11</title>
<path fill="none" stroke="midnightblue" d="M1873.79,-595.382C1998.44,-572.384 2369.5,-483.944 2369.5,-246 2369.5,-246 2369.5,-246 2369.5,-188 2369.5,-134.575 2307.57,-100.279 2268.22,-83.8839"/>
<polygon fill="midnightblue" stroke="midnightblue" points="2269.35,-80.5629 2258.76,-80.1005 2266.75,-87.0627 2269.35,-80.5629"/>
</g>
<!-- Node38&#45;&gt;Node14 -->
<g id="edge105" class="edge"><title>Node38&#45;&gt;Node14</title>
<path fill="none" stroke="midnightblue" d="M1793.25,-599.522C1652.56,-590.859 1182.33,-561.905 1015.68,-551.644"/>
<polygon fill="midnightblue" stroke="midnightblue" points="1015.81,-548.145 1005.61,-551.024 1015.38,-555.132 1015.81,-548.145"/>
</g>
<!-- Node39&#45;&gt;Node4 -->
<g id="edge108" class="edge"><title>Node39&#45;&gt;Node4</title>
<path fill="none" stroke="midnightblue" d="M1336.37,-649.351C1316.2,-606.951 1226.69,-416.576 1167.5,-255 1154.39,-219.208 1142.05,-176.346 1135.46,-152.442"/>
<polygon fill="midnightblue" stroke="midnightblue" points="1138.79,-151.342 1132.79,-142.614 1132.04,-153.183 1138.79,-151.342"/>
</g>
<!-- Node39&#45;&gt;Node11 -->
<g id="edge113" class="edge"><title>Node39&#45;&gt;Node11</title>
<path fill="none" stroke="midnightblue" d="M1379.01,-653.758C1393.84,-652.18 1410.95,-650.427 1426.5,-649 1628.95,-630.419 1682.59,-649.937 1882.5,-613 2162.45,-561.275 2407.5,-530.692 2407.5,-246 2407.5,-246 2407.5,-246 2407.5,-188 2407.5,-121.61 2317.89,-90.8136 2268.41,-78.8691"/>
<polygon fill="midnightblue" stroke="midnightblue" points="2269.03,-75.4219 2258.51,-76.6004 2267.47,-82.2451 2269.03,-75.4219"/>
</g>
<!-- Node39&#45;&gt;Node14 -->
<g id="edge110" class="edge"><title>Node39&#45;&gt;Node14</title>
<path fill="none" stroke="midnightblue" d="M1310.69,-649.46C1242.13,-629.822 1073.27,-581.45 996.114,-559.348"/>
<polygon fill="midnightblue" stroke="midnightblue" points="996.871,-555.924 986.293,-556.535 994.943,-562.653 996.871,-555.924"/>
</g>
<!-- Node39&#45;&gt;Node27 -->
<g id="edge109" class="edge"><title>Node39&#45;&gt;Node27</title>
<path fill="none" stroke="midnightblue" d="M1301.84,-658.362C1213.8,-658.397 992.105,-654.013 812.5,-613 744.341,-597.436 728.214,-587.901 665.5,-557 622.901,-536.01 605.254,-537.186 574.5,-501 557.076,-480.498 558.268,-471.041 551.5,-445 534.274,-378.721 516.943,-352.773 546.5,-291 552.473,-278.518 563.664,-268.034 574.045,-260.334"/>
<polygon fill="midnightblue" stroke="midnightblue" points="576.2,-263.099 582.442,-254.538 572.223,-257.338 576.2,-263.099"/>
</g>
<!-- Node39&#45;&gt;Node33 -->
<g id="edge111" class="edge"><title>Node39&#45;&gt;Node33</title>
<path fill="none" stroke="midnightblue" d="M1301.83,-658.875C1186.25,-659.702 837.053,-649.043 604.5,-501 568.115,-477.837 542.211,-452.578 561.5,-414 568.228,-400.543 581.106,-390.067 593.212,-382.621"/>
<polygon fill="midnightblue" stroke="midnightblue" points="595.233,-385.498 602.204,-377.52 591.779,-379.41 595.233,-385.498"/>
</g>
<!-- Node39&#45;&gt;Node38 -->
<g id="edge112" class="edge"><title>Node39&#45;&gt;Node38</title>
<path fill="none" stroke="midnightblue" d="M1379.24,-651.076C1384.03,-650.321 1388.87,-649.608 1393.5,-649 1564.33,-626.561 1608.63,-635.177 1779.5,-613 1780.77,-612.835 1782.06,-612.662 1783.36,-612.483"/>
<polygon fill="midnightblue" stroke="midnightblue" points="1784.06,-615.918 1793.44,-611.006 1783.04,-608.992 1784.06,-615.918"/>
</g>
</g>
</svg>
