<?xml version="1.0" encoding="UTF-8" standalone="no"?>
<!DOCTYPE svg PUBLIC "-//W3C//DTD SVG 1.1//EN"
 "http://www.w3.org/Graphics/SVG/1.1/DTD/svg11.dtd">
<!-- Generated by graphviz version 2.38.0 (20140413.2041)
 -->
<!-- Title: include/tvm/tir/lowered_func.h Pages: 1 -->
<svg width="874pt" height="486pt"
 viewBox="0.00 0.00 873.50 486.00" xmlns="http://www.w3.org/2000/svg" xmlns:xlink="http://www.w3.org/1999/xlink">
<g id="graph0" class="graph" transform="scale(1 1) rotate(0) translate(4 482)">
<title>include/tvm/tir/lowered_func.h</title>
<polygon fill="white" stroke="none" points="-4,4 -4,-482 869.5,-482 869.5,4 -4,4"/>
<!-- Node1 -->
<g id="node1" class="node"><title>Node1</title>
<polygon fill="#bfbfbf" stroke="black" points="109.5,-447.5 109.5,-477.5 234.5,-477.5 234.5,-447.5 109.5,-447.5"/>
<text text-anchor="start" x="117.5" y="-465.5" font-family="Helvetica,sans-Serif" font-size="10.00">include/tvm/tir/lowered</text>
<text text-anchor="middle" x="172" y="-454.5" font-family="Helvetica,sans-Serif" font-size="10.00">_func.h</text>
</g>
<!-- Node2 -->
<g id="node2" class="node"><title>Node2</title>
<g id="a_node2"><a xlink:href="driver__api_8h.html" target="_top" xlink:title="Compiler driver APIs to drive the compilation. ">
<polygon fill="white" stroke="black" points="0,-380.5 0,-410.5 102,-410.5 102,-380.5 0,-380.5"/>
<text text-anchor="start" x="8" y="-398.5" font-family="Helvetica,sans-Serif" font-size="10.00">include/tvm/driver</text>
<text text-anchor="middle" x="51" y="-387.5" font-family="Helvetica,sans-Serif" font-size="10.00">/driver_api.h</text>
</a>
</g>
</g>
<!-- Node1&#45;&gt;Node2 -->
<g id="edge1" class="edge"><title>Node1&#45;&gt;Node2</title>
<path fill="none" stroke="midnightblue" d="M136.77,-442.575C117.737,-432.35 94.6345,-419.94 77.204,-410.577"/>
<polygon fill="midnightblue" stroke="midnightblue" points="135.279,-445.747 145.745,-447.396 138.592,-439.58 135.279,-445.747"/>
</g>
<!-- Node3 -->
<g id="node3" class="node"><title>Node3</title>
<g id="a_node3"><a xlink:href="codegen_8h.html" target="_top" xlink:title="Translates IRModule to runtime::Module. ">
<polygon fill="white" stroke="black" points="120,-380.5 120,-410.5 224,-410.5 224,-380.5 120,-380.5"/>
<text text-anchor="start" x="128" y="-398.5" font-family="Helvetica,sans-Serif" font-size="10.00">include/tvm/target</text>
<text text-anchor="middle" x="172" y="-387.5" font-family="Helvetica,sans-Serif" font-size="10.00">/codegen.h</text>
</a>
</g>
</g>
<!-- Node1&#45;&gt;Node3 -->
<g id="edge2" class="edge"><title>Node1&#45;&gt;Node3</title>
<path fill="none" stroke="midnightblue" d="M172,-437.108C172,-428.154 172,-418.323 172,-410.577"/>
<polygon fill="midnightblue" stroke="midnightblue" points="168.5,-437.396 172,-447.396 175.5,-437.396 168.5,-437.396"/>
</g>
<!-- Node4 -->
<g id="node4" class="node"><title>Node4</title>
<g id="a_node4"><a xlink:href="ir__pass_8h.html" target="_top" xlink:title="Collection of IR pass functions. ">
<polygon fill="white" stroke="black" points="242,-380.5 242,-410.5 336,-410.5 336,-380.5 242,-380.5"/>
<text text-anchor="start" x="250" y="-398.5" font-family="Helvetica,sans-Serif" font-size="10.00">include/tvm/tir/ir</text>
<text text-anchor="middle" x="289" y="-387.5" font-family="Helvetica,sans-Serif" font-size="10.00">_pass.h</text>
</a>
</g>
</g>
<!-- Node1&#45;&gt;Node4 -->
<g id="edge3" class="edge"><title>Node1&#45;&gt;Node4</title>
<path fill="none" stroke="midnightblue" d="M206.316,-442.435C224.673,-432.237 246.885,-419.897 263.662,-410.577"/>
<polygon fill="midnightblue" stroke="midnightblue" points="204.429,-439.48 197.387,-447.396 207.829,-445.599 204.429,-439.48"/>
</g>
<!-- Node5 -->
<g id="node5" class="node"><title>Node5</title>
<g id="a_node5"><a xlink:href="constant__utils_8h.html" target="_top" xlink:title="Utility functions for handling constants in TVM expressions. ">
<polygon fill="white" stroke="black" points="283,-313.5 283,-343.5 405,-343.5 405,-313.5 283,-313.5"/>
<text text-anchor="start" x="291" y="-331.5" font-family="Helvetica,sans-Serif" font-size="10.00">topi/include/topi/detail</text>
<text text-anchor="middle" x="344" y="-320.5" font-family="Helvetica,sans-Serif" font-size="10.00">/constant_utils.h</text>
</a>
</g>
</g>
<!-- Node4&#45;&gt;Node5 -->
<g id="edge4" class="edge"><title>Node4&#45;&gt;Node5</title>
<path fill="none" stroke="midnightblue" d="M307.416,-372.736C315.553,-363.119 324.886,-352.089 332.089,-343.577"/>
<polygon fill="midnightblue" stroke="midnightblue" points="304.722,-370.501 300.934,-380.396 310.065,-375.023 304.722,-370.501"/>
</g>
<!-- Node7 -->
<g id="node7" class="node"><title>Node7</title>
<g id="a_node7"><a xlink:href="elemwise_8h.html" target="_top" xlink:title="Elementwise op constructions. ">
<polygon fill="white" stroke="black" points="143.5,-129 143.5,-148 292.5,-148 292.5,-129 143.5,-129"/>
<text text-anchor="middle" x="218" y="-136" font-family="Helvetica,sans-Serif" font-size="10.00">topi/include/topi/elemwise.h</text>
</a>
</g>
</g>
<!-- Node4&#45;&gt;Node7 -->
<g id="edge25" class="edge"><title>Node4&#45;&gt;Node7</title>
<path fill="none" stroke="midnightblue" d="M281.839,-370.775C279.321,-362.334 276.498,-352.754 274,-344 252.381,-268.25 227.774,-176.242 220.282,-148.09"/>
<polygon fill="midnightblue" stroke="midnightblue" points="278.492,-371.801 284.716,-380.375 285.198,-369.791 278.492,-371.801"/>
</g>
<!-- Node9 -->
<g id="node9" class="node"><title>Node9</title>
<g id="a_node9"><a xlink:href="nn_2pooling_8h.html" target="_top" xlink:title="Pooling op constructions. ">
<polygon fill="white" stroke="black" points="62.5,-0.5 62.5,-30.5 169.5,-30.5 169.5,-0.5 62.5,-0.5"/>
<text text-anchor="start" x="70.5" y="-18.5" font-family="Helvetica,sans-Serif" font-size="10.00">topi/include/topi/nn</text>
<text text-anchor="middle" x="116" y="-7.5" font-family="Helvetica,sans-Serif" font-size="10.00">/pooling.h</text>
</a>
</g>
</g>
<!-- Node4&#45;&gt;Node9 -->
<g id="edge28" class="edge"><title>Node4&#45;&gt;Node9</title>
<path fill="none" stroke="midnightblue" d="M239.202,-376.846C172.111,-351.506 61,-303.37 61,-262.5 61,-262.5 61,-262.5 61,-137.5 61,-95.7338 88.4941,-52.5405 104.604,-30.8168"/>
<polygon fill="midnightblue" stroke="midnightblue" points="238.17,-380.196 248.763,-380.415 240.619,-373.638 238.17,-380.196"/>
</g>
<!-- Node14 -->
<g id="node14" class="node"><title>Node14</title>
<g id="a_node14"><a xlink:href="nn_2bnn_8h.html" target="_top" xlink:title="Binary op constructions. ">
<polygon fill="white" stroke="black" points="758.5,-246.5 758.5,-276.5 865.5,-276.5 865.5,-246.5 758.5,-246.5"/>
<text text-anchor="start" x="766.5" y="-264.5" font-family="Helvetica,sans-Serif" font-size="10.00">topi/include/topi/nn</text>
<text text-anchor="middle" x="812" y="-253.5" font-family="Helvetica,sans-Serif" font-size="10.00">/bnn.h</text>
</a>
</g>
</g>
<!-- Node4&#45;&gt;Node14 -->
<g id="edge26" class="edge"><title>Node4&#45;&gt;Node14</title>
<path fill="none" stroke="midnightblue" d="M341.93,-376.971C364.805,-368.43 391.441,-357.15 414,-344 433.129,-332.849 432.572,-321.543 453,-313 575.67,-261.697 619.069,-300.174 750,-277 752.721,-276.518 755.502,-275.992 758.306,-275.436"/>
<polygon fill="midnightblue" stroke="midnightblue" points="340.57,-373.742 332.379,-380.462 342.973,-380.316 340.57,-373.742"/>
</g>
<!-- Node16 -->
<g id="node16" class="node"><title>Node16</title>
<g id="a_node16"><a xlink:href="topi_2include_2topi_2nn_8h.html" target="_top" xlink:title="NN op constructions. ">
<polygon fill="white" stroke="black" points="89,-252 89,-271 205,-271 205,-252 89,-252"/>
<text text-anchor="middle" x="147" y="-259" font-family="Helvetica,sans-Serif" font-size="10.00">topi/include/topi/nn.h</text>
</a>
</g>
</g>
<!-- Node4&#45;&gt;Node16 -->
<g id="edge29" class="edge"><title>Node4&#45;&gt;Node16</title>
<path fill="none" stroke="midnightblue" d="M258.477,-374.683C245.775,-365.885 231.181,-355.036 219,-344 192.415,-319.916 165.632,-286.688 153.588,-271.156"/>
<polygon fill="midnightblue" stroke="midnightblue" points="256.679,-377.692 266.916,-380.422 260.616,-371.904 256.679,-377.692"/>
</g>
<!-- Node18 -->
<g id="node18" class="node"><title>Node18</title>
<g id="a_node18"><a xlink:href="dilate_8h.html" target="_top" xlink:title="Dilate op constructions. ">
<polygon fill="white" stroke="black" points="461.5,-313.5 461.5,-343.5 568.5,-343.5 568.5,-313.5 461.5,-313.5"/>
<text text-anchor="start" x="469.5" y="-331.5" font-family="Helvetica,sans-Serif" font-size="10.00">topi/include/topi/nn</text>
<text text-anchor="middle" x="515" y="-320.5" font-family="Helvetica,sans-Serif" font-size="10.00">/dilate.h</text>
</a>
</g>
</g>
<!-- Node4&#45;&gt;Node18 -->
<g id="edge27" class="edge"><title>Node4&#45;&gt;Node18</title>
<path fill="none" stroke="midnightblue" d="M345.754,-378.177C382.787,-367.526 430.637,-353.764 466.006,-343.591"/>
<polygon fill="midnightblue" stroke="midnightblue" points="344.745,-374.825 336.102,-380.953 346.68,-381.553 344.745,-374.825"/>
</g>
<!-- Node6 -->
<g id="node6" class="node"><title>Node6</title>
<g id="a_node6"><a xlink:href="broadcast_8h.html" target="_top" xlink:title="Broadcast op constructions. ">
<polygon fill="white" stroke="black" points="299,-190.5 299,-209.5 451,-209.5 451,-190.5 299,-190.5"/>
<text text-anchor="middle" x="375" y="-197.5" font-family="Helvetica,sans-Serif" font-size="10.00">topi/include/topi/broadcast.h</text>
</a>
</g>
</g>
<!-- Node5&#45;&gt;Node6 -->
<g id="edge5" class="edge"><title>Node5&#45;&gt;Node6</title>
<path fill="none" stroke="midnightblue" d="M341.186,-302.874C340.127,-286.41 340.318,-264.465 346,-246 350.319,-231.964 360.353,-218.113 367.403,-209.564"/>
<polygon fill="midnightblue" stroke="midnightblue" points="337.737,-303.617 342.068,-313.286 344.712,-303.027 337.737,-303.617"/>
</g>
<!-- Node8 -->
<g id="node8" class="node"><title>Node8</title>
<g id="a_node8"><a xlink:href="reduction_8h.html" target="_top" xlink:title="Reduction op constructors. ">
<polygon fill="white" stroke="black" points="264.5,-67.5 264.5,-86.5 413.5,-86.5 413.5,-67.5 264.5,-67.5"/>
<text text-anchor="middle" x="339" y="-74.5" font-family="Helvetica,sans-Serif" font-size="10.00">topi/include/topi/reduction.h</text>
</a>
</g>
</g>
<!-- Node5&#45;&gt;Node8 -->
<g id="edge19" class="edge"><title>Node5&#45;&gt;Node8</title>
<path fill="none" stroke="midnightblue" d="M329.923,-304.73C316.632,-281.79 297.633,-244.889 290,-210 288.1,-201.317 288.18,-198.701 290,-190 294.476,-168.602 323.477,-109.119 334.635,-86.6997"/>
<polygon fill="midnightblue" stroke="midnightblue" points="326.938,-306.558 335.048,-313.375 332.959,-302.988 326.938,-306.558"/>
</g>
<!-- Node11 -->
<g id="node11" class="node"><title>Node11</title>
<g id="a_node11"><a xlink:href="reorg_8h.html" target="_top" xlink:title="Reorg op constructions. ">
<polygon fill="white" stroke="black" points="499,-0.5 499,-30.5 621,-30.5 621,-0.5 499,-0.5"/>
<text text-anchor="start" x="507" y="-18.5" font-family="Helvetica,sans-Serif" font-size="10.00">topi/include/topi/vision</text>
<text text-anchor="middle" x="560" y="-7.5" font-family="Helvetica,sans-Serif" font-size="10.00">/reorg.h</text>
</a>
</g>
</g>
<!-- Node5&#45;&gt;Node11 -->
<g id="edge24" class="edge"><title>Node5&#45;&gt;Node11</title>
<path fill="none" stroke="midnightblue" d="M409.002,-310.684C486.049,-289.182 606.95,-249.932 630,-210 665.897,-147.811 602.272,-63.9912 573.276,-30.8453"/>
<polygon fill="midnightblue" stroke="midnightblue" points="407.61,-307.437 398.902,-313.471 409.473,-314.185 407.61,-307.437"/>
</g>
<!-- Node13 -->
<g id="node13" class="node"><title>Node13</title>
<g id="a_node13"><a xlink:href="detail_2broadcast_8h.html" target="_top" xlink:title="Detail broadcast. ">
<polygon fill="white" stroke="black" points="355,-246.5 355,-276.5 477,-276.5 477,-246.5 355,-246.5"/>
<text text-anchor="start" x="363" y="-264.5" font-family="Helvetica,sans-Serif" font-size="10.00">topi/include/topi/detail</text>
<text text-anchor="middle" x="416" y="-253.5" font-family="Helvetica,sans-Serif" font-size="10.00">/broadcast.h</text>
</a>
</g>
</g>
<!-- Node5&#45;&gt;Node13 -->
<g id="edge13" class="edge"><title>Node5&#45;&gt;Node13</title>
<path fill="none" stroke="midnightblue" d="M367.153,-306.598C378.025,-296.783 390.696,-285.344 400.408,-276.577"/>
<polygon fill="midnightblue" stroke="midnightblue" points="364.7,-304.097 359.623,-313.396 369.391,-309.293 364.7,-304.097"/>
</g>
<!-- Node5&#45;&gt;Node14 -->
<g id="edge15" class="edge"><title>Node5&#45;&gt;Node14</title>
<path fill="none" stroke="midnightblue" d="M415.208,-313.585C416.481,-313.384 417.746,-313.189 419,-313 565.325,-290.937 604.131,-301.895 750,-277 752.724,-276.535 755.508,-276.023 758.313,-275.476"/>
<polygon fill="midnightblue" stroke="midnightblue" points="414.62,-310.134 405.324,-315.216 415.76,-317.041 414.62,-310.134"/>
</g>
<!-- Node15 -->
<g id="node15" class="node"><title>Node15</title>
<g id="a_node15"><a xlink:href="flatten_8h.html" target="_top" xlink:title="Softmax op constructions. ">
<polygon fill="white" stroke="black" points="633.5,-246.5 633.5,-276.5 740.5,-276.5 740.5,-246.5 633.5,-246.5"/>
<text text-anchor="start" x="641.5" y="-264.5" font-family="Helvetica,sans-Serif" font-size="10.00">topi/include/topi/nn</text>
<text text-anchor="middle" x="687" y="-253.5" font-family="Helvetica,sans-Serif" font-size="10.00">/flatten.h</text>
</a>
</g>
</g>
<!-- Node5&#45;&gt;Node15 -->
<g id="edge16" class="edge"><title>Node5&#45;&gt;Node15</title>
<path fill="none" stroke="midnightblue" d="M415.228,-313.706C416.495,-313.468 417.753,-313.233 419,-313 507.784,-296.428 530.378,-294.42 619,-277 623.619,-276.092 628.409,-275.124 633.211,-274.136"/>
<polygon fill="midnightblue" stroke="midnightblue" points="414.559,-310.27 405.383,-315.566 415.859,-317.149 414.559,-310.27"/>
</g>
<!-- Node5&#45;&gt;Node16 -->
<g id="edge17" class="edge"><title>Node5&#45;&gt;Node16</title>
<path fill="none" stroke="midnightblue" d="M291.287,-310.108C252.962,-297.462 202.743,-280.892 172.783,-271.007"/>
<polygon fill="midnightblue" stroke="midnightblue" points="290.661,-313.586 301.254,-313.396 292.854,-306.939 290.661,-313.586"/>
</g>
<!-- Node17 -->
<g id="node17" class="node"><title>Node17</title>
<g id="a_node17"><a xlink:href="topi_2include_2topi_2transform_8h.html" target="_top" xlink:title="Transform op constructors. ">
<polygon fill="white" stroke="black" points="469,-190.5 469,-209.5 621,-209.5 621,-190.5 469,-190.5"/>
<text text-anchor="middle" x="545" y="-197.5" font-family="Helvetica,sans-Serif" font-size="10.00">topi/include/topi/transform.h</text>
</a>
</g>
</g>
<!-- Node5&#45;&gt;Node17 -->
<g id="edge20" class="edge"><title>Node5&#45;&gt;Node17</title>
<path fill="none" stroke="midnightblue" d="M415.123,-310.916C439.084,-303.145 465.037,-292.162 486,-277 511.851,-258.303 531.97,-225.199 540.52,-209.595"/>
<polygon fill="midnightblue" stroke="midnightblue" points="413.864,-307.642 405.35,-313.947 415.938,-314.327 413.864,-307.642"/>
</g>
<!-- Node6&#45;&gt;Node7 -->
<g id="edge6" class="edge"><title>Node6&#45;&gt;Node7</title>
<path fill="none" stroke="midnightblue" d="M342.762,-186.782C312.252,-175.22 267.248,-158.164 240.453,-148.009"/>
<polygon fill="midnightblue" stroke="midnightblue" points="341.914,-190.204 352.506,-190.475 344.395,-183.658 341.914,-190.204"/>
</g>
<!-- Node6&#45;&gt;Node8 -->
<g id="edge12" class="edge"><title>Node6&#45;&gt;Node8</title>
<path fill="none" stroke="midnightblue" d="M369.555,-180.7C361.67,-154.197 347.381,-106.169 341.566,-86.6232"/>
<polygon fill="midnightblue" stroke="midnightblue" points="366.205,-181.711 372.411,-190.298 372.914,-179.715 366.205,-181.711"/>
</g>
<!-- Node12 -->
<g id="node12" class="node"><title>Node12</title>
<g id="a_node12"><a xlink:href="bias__add_8h.html" target="_top" xlink:title="bias_add op constructions ">
<polygon fill="white" stroke="black" points="386.5,-123.5 386.5,-153.5 493.5,-153.5 493.5,-123.5 386.5,-123.5"/>
<text text-anchor="start" x="394.5" y="-141.5" font-family="Helvetica,sans-Serif" font-size="10.00">topi/include/topi/nn</text>
<text text-anchor="middle" x="440" y="-130.5" font-family="Helvetica,sans-Serif" font-size="10.00">/bias_add.h</text>
</a>
</g>
</g>
<!-- Node6&#45;&gt;Node12 -->
<g id="edge11" class="edge"><title>Node6&#45;&gt;Node12</title>
<path fill="none" stroke="midnightblue" d="M391.773,-183.646C401.933,-174.346 414.795,-162.572 424.681,-153.523"/>
<polygon fill="midnightblue" stroke="midnightblue" points="389.326,-181.141 384.313,-190.475 394.052,-186.305 389.326,-181.141"/>
</g>
<!-- Node7&#45;&gt;Node8 -->
<g id="edge7" class="edge"><title>Node7&#45;&gt;Node8</title>
<path fill="none" stroke="midnightblue" d="M244.395,-124.521C267.861,-112.982 301.493,-96.4433 321.696,-86.5091"/>
<polygon fill="midnightblue" stroke="midnightblue" points="242.766,-121.422 235.336,-128.975 245.855,-127.703 242.766,-121.422"/>
</g>
<!-- Node8&#45;&gt;Node9 -->
<g id="edge8" class="edge"><title>Node8&#45;&gt;Node9</title>
<path fill="none" stroke="midnightblue" d="M297.245,-64.859C260.835,-55.1442 207.844,-41.0055 168.557,-30.523"/>
<polygon fill="midnightblue" stroke="midnightblue" points="296.485,-68.2788 307.05,-67.4751 298.29,-61.5154 296.485,-68.2788"/>
</g>
<!-- Node10 -->
<g id="node10" class="node"><title>Node10</title>
<g id="a_node10"><a xlink:href="nn_2softmax_8h.html" target="_top" xlink:title="Softmax op constructions. ">
<polygon fill="white" stroke="black" points="285.5,-0.5 285.5,-30.5 392.5,-30.5 392.5,-0.5 285.5,-0.5"/>
<text text-anchor="start" x="293.5" y="-18.5" font-family="Helvetica,sans-Serif" font-size="10.00">topi/include/topi/nn</text>
<text text-anchor="middle" x="339" y="-7.5" font-family="Helvetica,sans-Serif" font-size="10.00">/softmax.h</text>
</a>
</g>
</g>
<!-- Node8&#45;&gt;Node10 -->
<g id="edge9" class="edge"><title>Node8&#45;&gt;Node10</title>
<path fill="none" stroke="midnightblue" d="M339,-57.2349C339,-48.5864 339,-38.4969 339,-30.523"/>
<polygon fill="midnightblue" stroke="midnightblue" points="335.5,-57.4751 339,-67.4751 342.5,-57.4751 335.5,-57.4751"/>
</g>
<!-- Node8&#45;&gt;Node11 -->
<g id="edge10" class="edge"><title>Node8&#45;&gt;Node11</title>
<path fill="none" stroke="midnightblue" d="M380.381,-64.859C416.464,-55.1442 468.98,-41.0055 507.915,-30.523"/>
<polygon fill="midnightblue" stroke="midnightblue" points="379.41,-61.4956 370.664,-67.4751 381.23,-68.2549 379.41,-61.4956"/>
</g>
<!-- Node13&#45;&gt;Node6 -->
<g id="edge14" class="edge"><title>Node13&#45;&gt;Node6</title>
<path fill="none" stroke="midnightblue" d="M400.568,-238.104C393.734,-228.187 386.098,-217.106 380.966,-209.658"/>
<polygon fill="midnightblue" stroke="midnightblue" points="397.727,-240.151 406.284,-246.399 403.491,-236.179 397.727,-240.151"/>
</g>
<!-- Node16&#45;&gt;Node9 -->
<g id="edge18" class="edge"><title>Node16&#45;&gt;Node9</title>
<path fill="none" stroke="midnightblue" d="M144.627,-241.823C138.661,-194.867 123.135,-72.6596 117.818,-30.8061"/>
<polygon fill="midnightblue" stroke="midnightblue" points="141.164,-242.337 145.897,-251.816 148.108,-241.454 141.164,-242.337"/>
</g>
<!-- Node17&#45;&gt;Node8 -->
<g id="edge22" class="edge"><title>Node17&#45;&gt;Node8</title>
<path fill="none" stroke="midnightblue" d="M539.592,-180.92C533.475,-163.553 521.834,-137.826 503,-123 477.597,-103.003 443.92,-91.8802 413.696,-85.698"/>
<polygon fill="midnightblue" stroke="midnightblue" points="536.28,-182.055 542.702,-190.482 542.937,-179.89 536.28,-182.055"/>
</g>
<!-- Node17&#45;&gt;Node11 -->
<g id="edge23" class="edge"><title>Node17&#45;&gt;Node11</title>
<path fill="none" stroke="midnightblue" d="M546.571,-179.881C549.595,-143.088 556.161,-63.2059 558.833,-30.6947"/>
<polygon fill="midnightblue" stroke="midnightblue" points="543.054,-179.945 545.723,-190.198 550.031,-180.518 543.054,-179.945"/>
</g>
<!-- Node17&#45;&gt;Node12 -->
<g id="edge21" class="edge"><title>Node17&#45;&gt;Node12</title>
<path fill="none" stroke="midnightblue" d="M521.251,-185.542C504.395,-175.991 481.822,-163.199 464.746,-153.523"/>
<polygon fill="midnightblue" stroke="midnightblue" points="519.53,-188.59 529.956,-190.475 522.981,-182.5 519.53,-188.59"/>
</g>
</g>
</svg>
