<?xml version="1.0" encoding="UTF-8" standalone="no"?>
<!DOCTYPE svg PUBLIC "-//W3C//DTD SVG 1.1//EN"
 "http://www.w3.org/Graphics/SVG/1.1/DTD/svg11.dtd">
<!-- Generated by graphviz version 2.38.0 (20140413.2041)
 -->
<!-- Title: topi/include/topi/nn/dense.h Pages: 1 -->
<svg width="3301pt" height="1192pt"
 viewBox="0.00 0.00 3301.00 1192.00" xmlns="http://www.w3.org/2000/svg" xmlns:xlink="http://www.w3.org/1999/xlink">
<g id="graph0" class="graph" transform="scale(1 1) rotate(0) translate(4 1188)">
<title>topi/include/topi/nn/dense.h</title>
<polygon fill="white" stroke="none" points="-4,4 -4,-1188 3297,-1188 3297,4 -4,4"/>
<!-- Node1 -->
<g id="node1" class="node"><title>Node1</title>
<polygon fill="#bfbfbf" stroke="black" points="3143.5,-1153.5 3143.5,-1183.5 3250.5,-1183.5 3250.5,-1153.5 3143.5,-1153.5"/>
<text text-anchor="start" x="3151.5" y="-1171.5" font-family="Helvetica,sans-Serif" font-size="10.00">topi/include/topi/nn</text>
<text text-anchor="middle" x="3197" y="-1160.5" font-family="Helvetica,sans-Serif" font-size="10.00">/dense.h</text>
</g>
<!-- Node2 -->
<g id="node2" class="node"><title>Node2</title>
<g id="a_node2"><a xlink:href="operation_8h.html" target="_top" xlink:title="Operation node can generate one or multiple Tensors. ">
<polygon fill="white" stroke="black" points="2443,-1097.5 2443,-1116.5 2549,-1116.5 2549,-1097.5 2443,-1097.5"/>
<text text-anchor="middle" x="2496" y="-1104.5" font-family="Helvetica,sans-Serif" font-size="10.00">tvm/te/operation.h</text>
</a>
</g>
</g>
<!-- Node1&#45;&gt;Node2 -->
<g id="edge1" class="edge"><title>Node1&#45;&gt;Node2</title>
<path fill="none" stroke="midnightblue" d="M3143.45,-1162.95C3016.18,-1152.15 2696.07,-1124.98 2559.42,-1113.38"/>
<polygon fill="midnightblue" stroke="midnightblue" points="2559.38,-1109.87 2549.12,-1112.51 2558.79,-1116.84 2559.38,-1109.87"/>
</g>
<!-- Node14 -->
<g id="node14" class="node"><title>Node14</title>
<polygon fill="white" stroke="#bfbfbf" points="2852,-62 2852,-81 2896,-81 2896,-62 2852,-62"/>
<text text-anchor="middle" x="2874" y="-69" font-family="Helvetica,sans-Serif" font-size="10.00">string</text>
</g>
<!-- Node1&#45;&gt;Node14 -->
<g id="edge185" class="edge"><title>Node1&#45;&gt;Node14</title>
<path fill="none" stroke="midnightblue" d="M3197,-1153.28C3197,-1131.48 3197,-1088.49 3197,-1052 3197,-1052 3197,-1052 3197,-188 3197,-149.282 3172.69,-142.079 3139,-123 3063.51,-80.2486 2958.52,-72.9252 2906.24,-72.1431"/>
<polygon fill="midnightblue" stroke="midnightblue" points="2906.25,-68.643 2896.22,-72.0651 2906.19,-75.6428 2906.25,-68.643"/>
</g>
<!-- Node50 -->
<g id="node50" class="node"><title>Node50</title>
<g id="a_node50"><a xlink:href="tags_8h.html" target="_top" xlink:title="External function interface to rocBLAS libraries. ">
<polygon fill="white" stroke="black" points="3225,-1041.5 3225,-1060.5 3293,-1060.5 3293,-1041.5 3225,-1041.5"/>
<text text-anchor="middle" x="3259" y="-1048.5" font-family="Helvetica,sans-Serif" font-size="10.00">topi/tags.h</text>
</a>
</g>
</g>
<!-- Node1&#45;&gt;Node50 -->
<g id="edge183" class="edge"><title>Node1&#45;&gt;Node50</title>
<path fill="none" stroke="midnightblue" d="M3204.6,-1153.34C3215.93,-1132.24 3237.21,-1092.6 3249.53,-1069.65"/>
<polygon fill="midnightblue" stroke="midnightblue" points="3252.7,-1071.14 3254.35,-1060.67 3246.53,-1067.82 3252.7,-1071.14"/>
</g>
<!-- Node3 -->
<g id="node3" class="node"><title>Node3</title>
<g id="a_node3"><a xlink:href="analyzer_8h.html" target="_top" xlink:title="Algebra expression simplifications. ">
<polygon fill="white" stroke="black" points="723,-873.5 723,-892.5 835,-892.5 835,-873.5 723,-873.5"/>
<text text-anchor="middle" x="779" y="-880.5" font-family="Helvetica,sans-Serif" font-size="10.00">tvm/arith/analyzer.h</text>
</a>
</g>
</g>
<!-- Node2&#45;&gt;Node3 -->
<g id="edge2" class="edge"><title>Node2&#45;&gt;Node3</title>
<path fill="none" stroke="midnightblue" d="M2442.72,-1103.08C2342.1,-1097.28 2117.32,-1082.94 1929,-1061 1507.68,-1011.93 1003.83,-924.274 836.285,-894.346"/>
<polygon fill="midnightblue" stroke="midnightblue" points="836.668,-890.859 826.208,-892.543 835.435,-897.75 836.668,-890.859"/>
</g>
<!-- Node2&#45;&gt;Node14 -->
<g id="edge180" class="edge"><title>Node2&#45;&gt;Node14</title>
<path fill="none" stroke="midnightblue" d="M2549.22,-1106.32C2641.79,-1105.77 2837.86,-1099.6 2998,-1061 3073.02,-1042.92 3159,-1073.17 3159,-996 3159,-996 3159,-996 3159,-188 3159,-152.088 3141.19,-142.45 3111,-123 3046.89,-81.6941 2954.72,-73.5653 2906.39,-72.3387"/>
<polygon fill="midnightblue" stroke="midnightblue" points="2906.27,-68.8362 2896.21,-72.1675 2906.15,-75.8352 2906.27,-68.8362"/>
</g>
<!-- Node24 -->
<g id="node24" class="node"><title>Node24</title>
<polygon fill="white" stroke="#bfbfbf" points="2171.5,-179.5 2171.5,-198.5 2218.5,-198.5 2218.5,-179.5 2171.5,-179.5"/>
<text text-anchor="middle" x="2195" y="-186.5" font-family="Helvetica,sans-Serif" font-size="10.00">vector</text>
</g>
<!-- Node2&#45;&gt;Node24 -->
<g id="edge181" class="edge"><title>Node2&#45;&gt;Node24</title>
<path fill="none" stroke="midnightblue" d="M2549.02,-1102.24C2699.93,-1090.85 3121,-1053.88 3121,-996 3121,-996 3121,-996 3121,-882 3121,-755.307 2440.99,-260.775 2388,-235 2335.74,-209.58 2268.42,-198.114 2228.67,-193.255"/>
<polygon fill="midnightblue" stroke="midnightblue" points="2229.04,-189.774 2218.7,-192.105 2228.24,-196.728 2229.04,-189.774"/>
</g>
<!-- Node25 -->
<g id="node25" class="node"><title>Node25</title>
<polygon fill="white" stroke="#bfbfbf" points="210.5,-179.5 210.5,-198.5 303.5,-198.5 303.5,-179.5 210.5,-179.5"/>
<text text-anchor="middle" x="257" y="-186.5" font-family="Helvetica,sans-Serif" font-size="10.00">unordered_map</text>
</g>
<!-- Node2&#45;&gt;Node25 -->
<g id="edge182" class="edge"><title>Node2&#45;&gt;Node25</title>
<path fill="none" stroke="midnightblue" d="M2442.71,-1105.09C2080.98,-1098.73 0,-1059.37 0,-996 0,-996 0,-996 0,-305.5 0,-218.368 124.42,-196.571 200.119,-191.373"/>
<polygon fill="midnightblue" stroke="midnightblue" points="200.69,-194.844 210.459,-190.744 200.265,-187.857 200.69,-194.844"/>
</g>
<!-- Node42 -->
<g id="node42" class="node"><title>Node42</title>
<g id="a_node42"><a xlink:href="tir_2expr_8h.html" target="_top" xlink:title="TIR expressions. ">
<polygon fill="white" stroke="black" points="1987,-761.5 1987,-780.5 2067,-780.5 2067,-761.5 1987,-761.5"/>
<text text-anchor="middle" x="2027" y="-768.5" font-family="Helvetica,sans-Serif" font-size="10.00">tvm/tir/expr.h</text>
</a>
</g>
</g>
<!-- Node2&#45;&gt;Node42 -->
<g id="edge177" class="edge"><title>Node2&#45;&gt;Node42</title>
<path fill="none" stroke="midnightblue" d="M2442.98,-1106.59C2304.56,-1106.7 1943,-1097.31 1943,-996 1943,-996 1943,-996 1943,-882 1943,-840.731 1980.81,-805.325 2005.69,-786.49"/>
<polygon fill="midnightblue" stroke="midnightblue" points="2007.85,-789.251 2013.88,-780.537 2003.73,-783.592 2007.85,-789.251"/>
</g>
<!-- Node43 -->
<g id="node43" class="node"><title>Node43</title>
<g id="a_node43"><a xlink:href="tensor_8h.html" target="_top" xlink:title="Dataflow tensor object. ">
<polygon fill="white" stroke="black" points="2432,-929.5 2432,-948.5 2522,-948.5 2522,-929.5 2432,-929.5"/>
<text text-anchor="middle" x="2477" y="-936.5" font-family="Helvetica,sans-Serif" font-size="10.00">tvm/te/tensor.h</text>
</a>
</g>
</g>
<!-- Node2&#45;&gt;Node43 -->
<g id="edge137" class="edge"><title>Node2&#45;&gt;Node43</title>
<path fill="none" stroke="midnightblue" d="M2494.98,-1097.08C2491.99,-1070.95 2483.2,-994.211 2479.13,-958.577"/>
<polygon fill="midnightblue" stroke="midnightblue" points="2482.6,-958.105 2477.98,-948.568 2475.64,-958.901 2482.6,-958.105"/>
</g>
<!-- Node46 -->
<g id="node46" class="node"><title>Node46</title>
<g id="a_node46"><a xlink:href="tir_2op_8h.html" target="_top" xlink:title="Common operators defined for Expr. ">
<polygon fill="white" stroke="black" points="2080,-873.5 2080,-892.5 2152,-892.5 2152,-873.5 2080,-873.5"/>
<text text-anchor="middle" x="2116" y="-880.5" font-family="Helvetica,sans-Serif" font-size="10.00">tvm/tir/op.h</text>
</a>
</g>
</g>
<!-- Node2&#45;&gt;Node46 -->
<g id="edge178" class="edge"><title>Node2&#45;&gt;Node46</title>
<path fill="none" stroke="midnightblue" d="M2481.1,-1097.3C2422.93,-1063.31 2210.75,-939.356 2139.51,-897.735"/>
<polygon fill="midnightblue" stroke="midnightblue" points="2141.19,-894.665 2130.79,-892.643 2137.66,-900.709 2141.19,-894.665"/>
</g>
<!-- Node47 -->
<g id="node47" class="node"><title>Node47</title>
<g id="a_node47"><a xlink:href="schedule_8h.html" target="_top" xlink:title="Define a schedule. ">
<polygon fill="white" stroke="black" points="2589.5,-1041.5 2589.5,-1060.5 2692.5,-1060.5 2692.5,-1041.5 2589.5,-1041.5"/>
<text text-anchor="middle" x="2641" y="-1048.5" font-family="Helvetica,sans-Serif" font-size="10.00">tvm/te/schedule.h</text>
</a>
</g>
</g>
<!-- Node2&#45;&gt;Node47 -->
<g id="edge163" class="edge"><title>Node2&#45;&gt;Node47</title>
<path fill="none" stroke="midnightblue" d="M2518.98,-1097.44C2543.16,-1088.44 2581.42,-1074.19 2608.65,-1064.05"/>
<polygon fill="midnightblue" stroke="midnightblue" points="2609.98,-1067.29 2618.13,-1060.52 2607.54,-1060.73 2609.98,-1067.29"/>
</g>
<!-- Node49 -->
<g id="node49" class="node"><title>Node49</title>
<g id="a_node49"><a xlink:href="buffer_8h.html" target="_top" xlink:title="Symbolic n&#45;dimensional array, to represent a memory buffer. ">
<polygon fill="white" stroke="black" points="2568.5,-929.5 2568.5,-948.5 2655.5,-948.5 2655.5,-929.5 2568.5,-929.5"/>
<text text-anchor="middle" x="2612" y="-936.5" font-family="Helvetica,sans-Serif" font-size="10.00">tvm/tir/buffer.h</text>
</a>
</g>
</g>
<!-- Node2&#45;&gt;Node49 -->
<g id="edge179" class="edge"><title>Node2&#45;&gt;Node49</title>
<path fill="none" stroke="midnightblue" d="M2500.7,-1097.47C2511.99,-1077.25 2541.92,-1025.08 2572,-985 2579.53,-974.967 2588.79,-964.452 2596.5,-956.112"/>
<polygon fill="midnightblue" stroke="midnightblue" points="2599.27,-958.275 2603.58,-948.595 2594.18,-953.477 2599.27,-958.275"/>
</g>
<!-- Node4 -->
<g id="node4" class="node"><title>Node4</title>
<g id="a_node4"><a xlink:href="with_8h.html" target="_top" xlink:title="RAII wrapper function to enter and exit a context object similar to python&#39;s with syntax...">
<polygon fill="white" stroke="black" points="2797,-761.5 2797,-780.5 2903,-780.5 2903,-761.5 2797,-761.5"/>
<text text-anchor="middle" x="2850" y="-768.5" font-family="Helvetica,sans-Serif" font-size="10.00">tvm/support/with.h</text>
</a>
</g>
</g>
<!-- Node3&#45;&gt;Node4 -->
<g id="edge3" class="edge"><title>Node3&#45;&gt;Node4</title>
<path fill="none" stroke="midnightblue" d="M835.311,-881.957C1097.64,-881.544 2201.54,-877.391 2544,-837 2640.17,-825.658 2750.81,-798.586 2809.12,-783.196"/>
<polygon fill="midnightblue" stroke="midnightblue" points="2810.27,-786.509 2819.04,-780.556 2808.48,-779.745 2810.27,-786.509"/>
</g>
<!-- Node7 -->
<g id="node7" class="node"><title>Node7</title>
<g id="a_node7"><a xlink:href="ir_2expr_8h.html" target="_top" xlink:title="Base expr nodes in TVM. ">
<polygon fill="white" stroke="black" points="1291.5,-705.5 1291.5,-724.5 1368.5,-724.5 1368.5,-705.5 1291.5,-705.5"/>
<text text-anchor="middle" x="1330" y="-712.5" font-family="Helvetica,sans-Serif" font-size="10.00">tvm/ir/expr.h</text>
</a>
</g>
</g>
<!-- Node3&#45;&gt;Node7 -->
<g id="edge6" class="edge"><title>Node3&#45;&gt;Node7</title>
<path fill="none" stroke="midnightblue" d="M775.127,-873.308C769.715,-859.683 761.93,-833.185 775,-817 838.226,-738.706 1157.61,-721.028 1281.13,-717.1"/>
<polygon fill="midnightblue" stroke="midnightblue" points="1281.53,-720.59 1291.42,-716.79 1281.32,-713.593 1281.53,-720.59"/>
</g>
<!-- Node23 -->
<g id="node23" class="node"><title>Node23</title>
<polygon fill="white" stroke="#bfbfbf" points="1097.5,-179.5 1097.5,-198.5 1154.5,-198.5 1154.5,-179.5 1097.5,-179.5"/>
<text text-anchor="middle" x="1126" y="-186.5" font-family="Helvetica,sans-Serif" font-size="10.00">memory</text>
</g>
<!-- Node3&#45;&gt;Node23 -->
<g id="edge135" class="edge"><title>Node3&#45;&gt;Node23</title>
<path fill="none" stroke="midnightblue" d="M749.357,-873.456C656.866,-845.036 383.189,-746.685 442,-593 518.378,-393.409 573.601,-333.986 763,-235 818.68,-205.9 1005.14,-194.901 1086.96,-191.406"/>
<polygon fill="midnightblue" stroke="midnightblue" points="1087.48,-194.888 1097.32,-190.98 1087.19,-187.894 1087.48,-194.888"/>
</g>
<!-- Node3&#45;&gt;Node24 -->
<g id="edge133" class="edge"><title>Node3&#45;&gt;Node24</title>
<path fill="none" stroke="midnightblue" d="M835.303,-879.77C1093.91,-869.039 2159.99,-819.331 2272,-725 2432.38,-589.936 2254.13,-283.07 2206.2,-207.204"/>
<polygon fill="midnightblue" stroke="midnightblue" points="2209.14,-205.305 2200.8,-198.769 2203.25,-209.078 2209.14,-205.305"/>
</g>
<!-- Node3&#45;&gt;Node25 -->
<g id="edge134" class="edge"><title>Node3&#45;&gt;Node25</title>
<path fill="none" stroke="midnightblue" d="M722.606,-880.863C599.544,-877.834 310.537,-867.596 218,-837 166.248,-819.889 114,-826.507 114,-772 114,-772 114,-772 114,-305.5 114,-251.32 176.893,-218.204 219.26,-202.043"/>
<polygon fill="midnightblue" stroke="midnightblue" points="220.558,-205.295 228.748,-198.573 218.154,-198.721 220.558,-205.295"/>
</g>
<!-- Node30 -->
<g id="node30" class="node"><title>Node30</title>
<polygon fill="white" stroke="#bfbfbf" points="218,-235.5 218,-254.5 260,-254.5 260,-235.5 218,-235.5"/>
<text text-anchor="middle" x="239" y="-242.5" font-family="Helvetica,sans-Serif" font-size="10.00">limits</text>
</g>
<!-- Node3&#45;&gt;Node30 -->
<g id="edge136" class="edge"><title>Node3&#45;&gt;Node30</title>
<path fill="none" stroke="midnightblue" d="M722.741,-880.211C611.771,-876.129 368.628,-864.29 290,-837 239.922,-819.619 190,-825.008 190,-772 190,-772 190,-772 190,-428.5 190,-366.309 216.869,-296.15 230.814,-263.926"/>
<polygon fill="midnightblue" stroke="midnightblue" points="234.132,-265.078 234.99,-254.518 227.734,-262.238 234.132,-265.078"/>
</g>
<!-- Node41 -->
<g id="node41" class="node"><title>Node41</title>
<g id="a_node41"><a xlink:href="int__set_8h.html" target="_top" xlink:title="Integer set. ">
<polygon fill="white" stroke="black" points="784,-817.5 784,-836.5 888,-836.5 888,-817.5 784,-817.5"/>
<text text-anchor="middle" x="836" y="-824.5" font-family="Helvetica,sans-Serif" font-size="10.00">tvm/arith/int_set.h</text>
</a>
</g>
</g>
<!-- Node3&#45;&gt;Node41 -->
<g id="edge117" class="edge"><title>Node3&#45;&gt;Node41</title>
<path fill="none" stroke="midnightblue" d="M788.158,-873.324C796.501,-865.42 809.032,-853.548 819.177,-843.938"/>
<polygon fill="midnightblue" stroke="midnightblue" points="821.823,-846.252 826.675,-836.834 817.009,-841.171 821.823,-846.252"/>
</g>
<!-- Node5 -->
<g id="node5" class="node"><title>Node5</title>
<polygon fill="white" stroke="#bfbfbf" points="1540,-62 1540,-81 1626,-81 1626,-62 1540,-62"/>
<text text-anchor="middle" x="1583" y="-69" font-family="Helvetica,sans-Serif" font-size="10.00">dmlc/logging.h</text>
</g>
<!-- Node4&#45;&gt;Node5 -->
<g id="edge4" class="edge"><title>Node4&#45;&gt;Node5</title>
<path fill="none" stroke="midnightblue" d="M2845.98,-761.093C2830.96,-726.982 2779,-601.091 2779,-492 2779,-492 2779,-492 2779,-367 2779,-128.227 1868.88,-81.929 1636.5,-73.9992"/>
<polygon fill="midnightblue" stroke="midnightblue" points="1636.38,-70.4935 1626.27,-73.6602 1636.15,-77.4897 1636.38,-70.4935"/>
</g>
<!-- Node6 -->
<g id="node6" class="node"><title>Node6</title>
<polygon fill="white" stroke="#bfbfbf" points="2050,-62 2050,-81 2092,-81 2092,-62 2050,-62"/>
<text text-anchor="middle" x="2071" y="-69" font-family="Helvetica,sans-Serif" font-size="10.00">utility</text>
</g>
<!-- Node4&#45;&gt;Node6 -->
<g id="edge5" class="edge"><title>Node4&#45;&gt;Node6</title>
<path fill="none" stroke="midnightblue" d="M2847.73,-761.188C2840.28,-731.419 2817,-631.775 2817,-548 2817,-548 2817,-548 2817,-367 2817,-242.413 2786.57,-185.847 2679,-123 2628.95,-93.7584 2219.89,-77.5993 2102.43,-73.5313"/>
<polygon fill="midnightblue" stroke="midnightblue" points="2102.41,-70.0288 2092.3,-73.1856 2102.17,-77.0247 2102.41,-70.0288"/>
</g>
<!-- Node8 -->
<g id="node8" class="node"><title>Node8</title>
<g id="a_node8"><a xlink:href="object_8h.html" target="_top" xlink:title="A managed object in the TVM runtime. ">
<polygon fill="white" stroke="black" points="1410.5,-123.5 1410.5,-142.5 1527.5,-142.5 1527.5,-123.5 1410.5,-123.5"/>
<text text-anchor="middle" x="1469" y="-130.5" font-family="Helvetica,sans-Serif" font-size="10.00">tvm/runtime/object.h</text>
</a>
</g>
</g>
<!-- Node7&#45;&gt;Node8 -->
<g id="edge7" class="edge"><title>Node7&#45;&gt;Node8</title>
<path fill="none" stroke="midnightblue" d="M1291.22,-708.833C1178.14,-692.878 853.066,-640.375 794,-557 696.469,-419.328 640.282,-298.884 759,-179 803.474,-134.09 1230.75,-132.228 1400.24,-133.286"/>
<polygon fill="midnightblue" stroke="midnightblue" points="1400.27,-136.787 1410.29,-133.354 1400.32,-129.787 1400.27,-136.787"/>
</g>
<!-- Node13 -->
<g id="node13" class="node"><title>Node13</title>
<polygon fill="white" stroke="#bfbfbf" points="501,-62 501,-81 569,-81 569,-62 501,-62"/>
<text text-anchor="middle" x="535" y="-69" font-family="Helvetica,sans-Serif" font-size="10.00">type_traits</text>
</g>
<!-- Node7&#45;&gt;Node13 -->
<g id="edge116" class="edge"><title>Node7&#45;&gt;Node13</title>
<path fill="none" stroke="midnightblue" d="M1291.43,-711.866C1227.09,-707.665 1094.15,-696.245 985,-669 790.312,-620.406 750.654,-569.137 593,-445 557.883,-417.349 536.26,-418.797 518,-378 473.009,-277.48 512.039,-139.409 528.509,-90.5345"/>
<polygon fill="midnightblue" stroke="midnightblue" points="531.835,-91.6254 531.813,-81.0306 525.223,-89.327 531.835,-91.6254"/>
</g>
<!-- Node7&#45;&gt;Node14 -->
<g id="edge113" class="edge"><title>Node7&#45;&gt;Node14</title>
<path fill="none" stroke="midnightblue" d="M1368.75,-713.239C1526.85,-708.964 2136.32,-681.021 2594,-501 2636.1,-484.441 2647.66,-477.625 2679,-445 2787.56,-331.984 2805.45,-289.536 2861,-143 2867.41,-126.103 2870.73,-105.696 2872.4,-91.1951"/>
<polygon fill="midnightblue" stroke="midnightblue" points="2875.91,-91.3102 2873.42,-81.0116 2868.94,-90.6138 2875.91,-91.3102"/>
</g>
<!-- Node16 -->
<g id="node16" class="node"><title>Node16</title>
<g id="a_node16"><a xlink:href="node_8h.html" target="_top" xlink:title="Definitions and helper macros for IR/AST nodes. ">
<polygon fill="white" stroke="black" points="1595,-537.5 1595,-556.5 1693,-556.5 1693,-537.5 1595,-537.5"/>
<text text-anchor="middle" x="1644" y="-544.5" font-family="Helvetica,sans-Serif" font-size="10.00">tvm/node/node.h</text>
</a>
</g>
</g>
<!-- Node7&#45;&gt;Node16 -->
<g id="edge17" class="edge"><title>Node7&#45;&gt;Node16</title>
<path fill="none" stroke="midnightblue" d="M1368.65,-712.953C1414.21,-710.213 1490.94,-700.783 1548,-669 1591,-645.048 1621.69,-593.239 1635.62,-565.833"/>
<polygon fill="midnightblue" stroke="midnightblue" points="1638.87,-567.153 1640.12,-556.633 1632.58,-564.073 1638.87,-567.153"/>
</g>
<!-- Node7&#45;&gt;Node30 -->
<g id="edge115" class="edge"><title>Node7&#45;&gt;Node30</title>
<path fill="none" stroke="midnightblue" d="M1291.34,-711.61C1175.49,-704.335 836.222,-682.154 788,-669 781.096,-667.117 562.151,-560.658 556,-557 473.202,-507.764 380,-526.831 380,-430.5 380,-430.5 380,-430.5 380,-367 380,-309.215 310.957,-273.052 269.499,-256.546"/>
<polygon fill="midnightblue" stroke="midnightblue" points="270.7,-253.258 260.109,-252.954 268.199,-259.796 270.7,-253.258"/>
</g>
<!-- Node33 -->
<g id="node33" class="node"><title>Node33</title>
<g id="a_node33"><a xlink:href="node_2container_8h.html" target="_top" xlink:title="Array/Map container in the DSL graph. ">
<polygon fill="white" stroke="black" points="1597.5,-358.5 1597.5,-377.5 1716.5,-377.5 1716.5,-358.5 1597.5,-358.5"/>
<text text-anchor="middle" x="1657" y="-365.5" font-family="Helvetica,sans-Serif" font-size="10.00">tvm/node/container.h</text>
</a>
</g>
</g>
<!-- Node7&#45;&gt;Node33 -->
<g id="edge101" class="edge"><title>Node7&#45;&gt;Node33</title>
<path fill="none" stroke="midnightblue" d="M1330,-705.442C1330,-686.936 1330,-641.812 1330,-604 1330,-604 1330,-604 1330,-490 1330,-445.841 1355.68,-435.949 1394,-414 1426.16,-395.576 1520.89,-382.602 1587.39,-375.463"/>
<polygon fill="midnightblue" stroke="midnightblue" points="1587.82,-378.937 1597.4,-374.41 1587.09,-371.976 1587.82,-378.937"/>
</g>
<!-- Node38 -->
<g id="node38" class="node"><title>Node38</title>
<g id="a_node38"><a xlink:href="span_8h.html" target="_top" xlink:title="Span information for debugging purposes. ">
<polygon fill="white" stroke="black" points="1512,-593.5 1512,-612.5 1592,-612.5 1592,-593.5 1512,-593.5"/>
<text text-anchor="middle" x="1552" y="-600.5" font-family="Helvetica,sans-Serif" font-size="10.00">tvm/ir/span.h</text>
</a>
</g>
</g>
<!-- Node7&#45;&gt;Node38 -->
<g id="edge102" class="edge"><title>Node7&#45;&gt;Node38</title>
<path fill="none" stroke="midnightblue" d="M1368.62,-709.416C1418.77,-702.757 1502.66,-688.98 1526,-669 1539.69,-657.285 1546.24,-637.346 1549.33,-622.634"/>
<polygon fill="midnightblue" stroke="midnightblue" points="1552.81,-623.078 1551.08,-612.624 1545.91,-621.872 1552.81,-623.078"/>
</g>
<!-- Node39 -->
<g id="node39" class="node"><title>Node39</title>
<g id="a_node39"><a xlink:href="ir_2type_8h.html" target="_top" xlink:title="IR/AST nodes for the unified type system in TVM. ">
<polygon fill="white" stroke="black" points="1440.5,-649.5 1440.5,-668.5 1517.5,-668.5 1517.5,-649.5 1440.5,-649.5"/>
<text text-anchor="middle" x="1479" y="-656.5" font-family="Helvetica,sans-Serif" font-size="10.00">tvm/ir/type.h</text>
</a>
</g>
</g>
<!-- Node7&#45;&gt;Node39 -->
<g id="edge106" class="edge"><title>Node7&#45;&gt;Node39</title>
<path fill="none" stroke="midnightblue" d="M1353.61,-705.444C1378.46,-696.438 1417.77,-682.189 1445.75,-672.049"/>
<polygon fill="midnightblue" stroke="midnightblue" points="1447.29,-675.214 1455.5,-668.516 1444.91,-668.633 1447.29,-675.214"/>
</g>
<!-- Node40 -->
<g id="node40" class="node"><title>Node40</title>
<polygon fill="white" stroke="#bfbfbf" points="674,-649.5 674,-668.5 736,-668.5 736,-649.5 674,-649.5"/>
<text text-anchor="middle" x="705" y="-656.5" font-family="Helvetica,sans-Serif" font-size="10.00">algorithm</text>
</g>
<!-- Node7&#45;&gt;Node40 -->
<g id="edge114" class="edge"><title>Node7&#45;&gt;Node40</title>
<path fill="none" stroke="midnightblue" d="M1291.48,-712.61C1198.19,-708.896 952.841,-697.05 750,-669 748.895,-668.847 747.776,-668.684 746.649,-668.513"/>
<polygon fill="midnightblue" stroke="midnightblue" points="746.833,-664.994 736.39,-666.777 745.666,-671.896 746.833,-664.994"/>
</g>
<!-- Node8&#45;&gt;Node5 -->
<g id="edge8" class="edge"><title>Node8&#45;&gt;Node5</title>
<path fill="none" stroke="midnightblue" d="M1485.33,-123.475C1504.21,-113.622 1535.51,-97.2883 1557.58,-85.7697"/>
<polygon fill="midnightblue" stroke="midnightblue" points="1559.45,-88.7389 1566.7,-81.0091 1556.21,-82.5333 1559.45,-88.7389"/>
</g>
<!-- Node8&#45;&gt;Node6 -->
<g id="edge15" class="edge"><title>Node8&#45;&gt;Node6</title>
<path fill="none" stroke="midnightblue" d="M1527.54,-126.214C1652.87,-113.827 1943.52,-85.1002 2039.56,-75.6072"/>
<polygon fill="midnightblue" stroke="midnightblue" points="2040.17,-79.064 2049.78,-74.5973 2039.48,-72.098 2040.17,-79.064"/>
</g>
<!-- Node9 -->
<g id="node9" class="node"><title>Node9</title>
<g id="a_node9"><a xlink:href="c__runtime__api_8h.html" target="_top" xlink:title="tvm/runtime/c_runtime\l_api.h">
<polygon fill="white" stroke="black" points="853.5,-56.5 853.5,-86.5 980.5,-86.5 980.5,-56.5 853.5,-56.5"/>
<text text-anchor="start" x="861.5" y="-74.5" font-family="Helvetica,sans-Serif" font-size="10.00">tvm/runtime/c_runtime</text>
<text text-anchor="middle" x="917" y="-63.5" font-family="Helvetica,sans-Serif" font-size="10.00">_api.h</text>
</a>
</g>
</g>
<!-- Node8&#45;&gt;Node9 -->
<g id="edge9" class="edge"><title>Node8&#45;&gt;Node9</title>
<path fill="none" stroke="midnightblue" d="M1410.45,-125.689C1309.28,-114.784 1101.95,-92.436 990.975,-80.4737"/>
<polygon fill="midnightblue" stroke="midnightblue" points="991.187,-76.9764 980.869,-79.3844 990.436,-83.9361 991.187,-76.9764"/>
</g>
<!-- Node8&#45;&gt;Node13 -->
<g id="edge13" class="edge"><title>Node8&#45;&gt;Node13</title>
<path fill="none" stroke="midnightblue" d="M1410.22,-128.255C1237.29,-117.239 732.813,-85.1016 579.626,-75.3429"/>
<polygon fill="midnightblue" stroke="midnightblue" points="579.416,-71.8225 569.213,-74.6795 578.971,-78.8083 579.416,-71.8225"/>
</g>
<!-- Node8&#45;&gt;Node14 -->
<g id="edge14" class="edge"><title>Node8&#45;&gt;Node14</title>
<path fill="none" stroke="midnightblue" d="M1527.66,-129.492C1570,-127.684 1628.53,-125.186 1680,-123 2141.13,-103.414 2702.43,-79.7346 2841.62,-73.8652"/>
<polygon fill="midnightblue" stroke="midnightblue" points="2841.79,-77.3614 2851.63,-73.4431 2841.49,-70.3676 2841.79,-77.3614"/>
</g>
<!-- Node15 -->
<g id="node15" class="node"><title>Node15</title>
<polygon fill="white" stroke="#bfbfbf" points="1339,-62 1339,-81 1389,-81 1389,-62 1339,-62"/>
<text text-anchor="middle" x="1364" y="-69" font-family="Helvetica,sans-Serif" font-size="10.00">atomic</text>
</g>
<!-- Node8&#45;&gt;Node15 -->
<g id="edge16" class="edge"><title>Node8&#45;&gt;Node15</title>
<path fill="none" stroke="midnightblue" d="M1453.96,-123.475C1436.72,-113.711 1408.26,-97.5807 1387.97,-86.0808"/>
<polygon fill="midnightblue" stroke="midnightblue" points="1389.44,-82.8942 1379.02,-81.0091 1385.99,-88.9843 1389.44,-82.8942"/>
</g>
<!-- Node10 -->
<g id="node10" class="node"><title>Node10</title>
<polygon fill="white" stroke="#bfbfbf" points="782,-0.5 782,-19.5 872,-19.5 872,-0.5 782,-0.5"/>
<text text-anchor="middle" x="827" y="-7.5" font-family="Helvetica,sans-Serif" font-size="10.00">dlpack/dlpack.h</text>
</g>
<!-- Node9&#45;&gt;Node10 -->
<g id="edge10" class="edge"><title>Node9&#45;&gt;Node10</title>
<path fill="none" stroke="midnightblue" d="M895.671,-56.3993C881.515,-47.0402 862.989,-34.7924 848.747,-25.3771"/>
<polygon fill="midnightblue" stroke="midnightblue" points="850.368,-22.2531 840.096,-19.6578 846.507,-28.0923 850.368,-22.2531"/>
</g>
<!-- Node11 -->
<g id="node11" class="node"><title>Node11</title>
<polygon fill="white" stroke="#bfbfbf" points="890.5,-0.5 890.5,-19.5 943.5,-19.5 943.5,-0.5 890.5,-0.5"/>
<text text-anchor="middle" x="917" y="-7.5" font-family="Helvetica,sans-Serif" font-size="10.00">stdint.h</text>
</g>
<!-- Node9&#45;&gt;Node11 -->
<g id="edge11" class="edge"><title>Node9&#45;&gt;Node11</title>
<path fill="none" stroke="midnightblue" d="M917,-56.3993C917,-48.4664 917,-38.458 917,-29.8583"/>
<polygon fill="midnightblue" stroke="midnightblue" points="920.5,-29.6577 917,-19.6578 913.5,-29.6578 920.5,-29.6577"/>
</g>
<!-- Node12 -->
<g id="node12" class="node"><title>Node12</title>
<polygon fill="white" stroke="#bfbfbf" points="961.5,-0.5 961.5,-19.5 1016.5,-19.5 1016.5,-0.5 961.5,-0.5"/>
<text text-anchor="middle" x="989" y="-7.5" font-family="Helvetica,sans-Serif" font-size="10.00">stddef.h</text>
</g>
<!-- Node9&#45;&gt;Node12 -->
<g id="edge12" class="edge"><title>Node9&#45;&gt;Node12</title>
<path fill="none" stroke="midnightblue" d="M934.063,-56.3993C945.065,-47.3076 959.365,-35.4899 970.618,-26.1909"/>
<polygon fill="midnightblue" stroke="midnightblue" points="973.044,-28.726 978.523,-19.6578 968.585,-23.33 973.044,-28.726"/>
</g>
<!-- Node16&#45;&gt;Node6 -->
<g id="edge99" class="edge"><title>Node16&#45;&gt;Node6</title>
<path fill="none" stroke="midnightblue" d="M1693.05,-544.142C1806.65,-539.438 2080.68,-525.65 2114,-501 2147.64,-476.112 2125.37,-447.832 2150,-414 2214.2,-325.801 2291.22,-354.021 2337,-255 2377.42,-167.571 2325.48,-239.867 2171,-143 2142.28,-124.994 2110.52,-102.045 2090.66,-87.3105"/>
<polygon fill="midnightblue" stroke="midnightblue" points="2092.53,-84.3421 2082.42,-81.1657 2088.34,-89.9519 2092.53,-84.3421"/>
</g>
<!-- Node16&#45;&gt;Node8 -->
<g id="edge19" class="edge"><title>Node16&#45;&gt;Node8</title>
<path fill="none" stroke="midnightblue" d="M1594.98,-543.061C1470.96,-535.439 1153.26,-514.682 1135,-501 1066.64,-449.774 1084.56,-405.153 1065,-322 1050.43,-260.079 1023.86,-221.711 1071,-179 1094.87,-157.374 1292.65,-143.481 1400.12,-137.454"/>
<polygon fill="midnightblue" stroke="midnightblue" points="1400.43,-140.942 1410.22,-136.896 1400.05,-133.953 1400.43,-140.942"/>
</g>
<!-- Node16&#45;&gt;Node9 -->
<g id="edge18" class="edge"><title>Node16&#45;&gt;Node9</title>
<path fill="none" stroke="midnightblue" d="M1594.76,-544.111C1480.45,-539.363 1199.89,-525.521 1109,-501 1052.95,-485.88 1041.3,-473.974 991,-445 873.714,-377.445 800.807,-381.627 753,-255 731.004,-196.739 750.869,-161.266 800,-123 817.931,-109.034 840.312,-98.145 860.684,-90.112"/>
<polygon fill="midnightblue" stroke="midnightblue" points="862.076,-93.3273 870.186,-86.5094 859.595,-86.7819 862.076,-93.3273"/>
</g>
<!-- Node16&#45;&gt;Node13 -->
<g id="edge100" class="edge"><title>Node16&#45;&gt;Node13</title>
<path fill="none" stroke="midnightblue" d="M1594.88,-544.532C1471.78,-540.491 1152.59,-527.692 1050,-501 811.872,-439.045 752.967,-379.735 586,-199 564.889,-176.148 555.691,-171.831 544,-143 537.268,-126.398 535.277,-105.952 534.815,-91.3609"/>
<polygon fill="midnightblue" stroke="midnightblue" points="538.312,-91.0642 534.711,-81.1003 531.313,-91.1354 538.312,-91.0642"/>
</g>
<!-- Node16&#45;&gt;Node14 -->
<g id="edge97" class="edge"><title>Node16&#45;&gt;Node14</title>
<path fill="none" stroke="midnightblue" d="M1693.34,-545.961C1782.92,-544.91 1977.75,-538.099 2137,-501 2353.08,-450.661 2403.13,-418.312 2603,-322 2655.94,-296.488 2671.89,-292.674 2717,-255 2779.45,-202.837 2837.72,-124.458 2862.05,-89.9106"/>
<polygon fill="midnightblue" stroke="midnightblue" points="2865.14,-91.5933 2867.98,-81.3869 2859.4,-87.5928 2865.14,-91.5933"/>
</g>
<!-- Node17 -->
<g id="node17" class="node"><title>Node17</title>
<g id="a_node17"><a xlink:href="runtime_2memory_8h.html" target="_top" xlink:title="Runtime memory management. ">
<polygon fill="white" stroke="black" points="1649.5,-179.5 1649.5,-198.5 1776.5,-198.5 1776.5,-179.5 1649.5,-179.5"/>
<text text-anchor="middle" x="1713" y="-186.5" font-family="Helvetica,sans-Serif" font-size="10.00">tvm/runtime/memory.h</text>
</a>
</g>
</g>
<!-- Node16&#45;&gt;Node17 -->
<g id="edge20" class="edge"><title>Node16&#45;&gt;Node17</title>
<path fill="none" stroke="midnightblue" d="M1684.51,-537.485C1731.77,-525.357 1808.68,-498.389 1850,-445 1902.77,-376.83 1880.29,-340.764 1889,-255 1889.9,-246.157 1894.45,-242.021 1889,-235 1881.4,-225.212 1816.79,-210.48 1768.04,-200.565"/>
<polygon fill="midnightblue" stroke="midnightblue" points="1768.71,-197.129 1758.21,-198.588 1767.33,-203.992 1768.71,-197.129"/>
</g>
<!-- Node19 -->
<g id="node19" class="node"><title>Node19</title>
<g id="a_node19"><a xlink:href="reflection_8h.html" target="_top" xlink:title="Reflection and serialization of compiler IR/AST nodes. ">
<polygon fill="white" stroke="black" points="1144.5,-481.5 1144.5,-500.5 1263.5,-500.5 1263.5,-481.5 1144.5,-481.5"/>
<text text-anchor="middle" x="1204" y="-488.5" font-family="Helvetica,sans-Serif" font-size="10.00">tvm/node/reflection.h</text>
</a>
</g>
</g>
<!-- Node16&#45;&gt;Node19 -->
<g id="edge25" class="edge"><title>Node16&#45;&gt;Node19</title>
<path fill="none" stroke="midnightblue" d="M1594.81,-539.963C1516.53,-530.356 1363.35,-511.557 1273.77,-500.563"/>
<polygon fill="midnightblue" stroke="midnightblue" points="1274.06,-497.072 1263.71,-499.328 1273.21,-504.02 1274.06,-497.072"/>
</g>
<!-- Node16&#45;&gt;Node24 -->
<g id="edge98" class="edge"><title>Node16&#45;&gt;Node24</title>
<path fill="none" stroke="midnightblue" d="M1681.59,-537.455C1762.41,-517.981 1956.85,-465.135 2099,-378 2161.02,-339.98 2187.27,-325.024 2207,-255 2211.38,-239.467 2207.32,-221.386 2202.78,-208.242"/>
<polygon fill="midnightblue" stroke="midnightblue" points="2205.9,-206.593 2199.03,-198.528 2199.37,-209.117 2205.9,-206.593"/>
</g>
<!-- Node31 -->
<g id="node31" class="node"><title>Node31</title>
<g id="a_node31"><a xlink:href="structural__equal_8h.html" target="_top" xlink:title="Structural equality comparison. ">
<polygon fill="white" stroke="black" points="1730.5,-414.5 1730.5,-444.5 1841.5,-444.5 1841.5,-414.5 1730.5,-414.5"/>
<text text-anchor="start" x="1738.5" y="-432.5" font-family="Helvetica,sans-Serif" font-size="10.00">tvm/node/structural</text>
<text text-anchor="middle" x="1786" y="-421.5" font-family="Helvetica,sans-Serif" font-size="10.00">_equal.h</text>
</a>
</g>
</g>
<!-- Node16&#45;&gt;Node31 -->
<g id="edge95" class="edge"><title>Node16&#45;&gt;Node31</title>
<path fill="none" stroke="midnightblue" d="M1654.67,-537.319C1677.05,-519.115 1729.42,-476.523 1760.84,-450.961"/>
<polygon fill="midnightblue" stroke="midnightblue" points="1763.18,-453.571 1768.73,-444.545 1758.77,-448.14 1763.18,-453.571"/>
</g>
<!-- Node16&#45;&gt;Node33 -->
<g id="edge94" class="edge"><title>Node16&#45;&gt;Node33</title>
<path fill="none" stroke="midnightblue" d="M1635.55,-537.383C1615.55,-515.902 1568.68,-458.508 1592,-414 1599.28,-400.108 1613.01,-389.652 1625.98,-382.333"/>
<polygon fill="midnightblue" stroke="midnightblue" points="1627.93,-385.266 1635.19,-377.553 1624.7,-379.053 1627.93,-385.266"/>
</g>
<!-- Node35 -->
<g id="node35" class="node"><title>Node35</title>
<g id="a_node35"><a xlink:href="structural__hash_8h.html" target="_top" xlink:title="tvm/node/structural\l_hash.h">
<polygon fill="white" stroke="black" points="1601.5,-414.5 1601.5,-444.5 1712.5,-444.5 1712.5,-414.5 1601.5,-414.5"/>
<text text-anchor="start" x="1609.5" y="-432.5" font-family="Helvetica,sans-Serif" font-size="10.00">tvm/node/structural</text>
<text text-anchor="middle" x="1657" y="-421.5" font-family="Helvetica,sans-Serif" font-size="10.00">_hash.h</text>
</a>
</g>
</g>
<!-- Node16&#45;&gt;Node35 -->
<g id="edge96" class="edge"><title>Node16&#45;&gt;Node35</title>
<path fill="none" stroke="midnightblue" d="M1644.98,-537.319C1646.93,-519.967 1651.38,-480.457 1654.28,-454.658"/>
<polygon fill="midnightblue" stroke="midnightblue" points="1657.78,-454.874 1655.42,-444.545 1650.82,-454.091 1657.78,-454.874"/>
</g>
<!-- Node36 -->
<g id="node36" class="node"><title>Node36</title>
<g id="a_node36"><a xlink:href="repr__printer_8h.html" target="_top" xlink:title="Printer class to print repr string of each AST/IR nodes. ">
<polygon fill="white" stroke="black" points="1975,-481.5 1975,-500.5 2105,-500.5 2105,-481.5 1975,-481.5"/>
<text text-anchor="middle" x="2040" y="-488.5" font-family="Helvetica,sans-Serif" font-size="10.00">tvm/node/repr_printer.h</text>
</a>
</g>
</g>
<!-- Node16&#45;&gt;Node36 -->
<g id="edge91" class="edge"><title>Node16&#45;&gt;Node36</title>
<path fill="none" stroke="midnightblue" d="M1693.35,-539.27C1762.35,-529.862 1888.09,-512.715 1967.67,-501.864"/>
<polygon fill="midnightblue" stroke="midnightblue" points="1968.18,-505.326 1977.62,-500.507 1967.23,-498.39 1968.18,-505.326"/>
</g>
<!-- Node17&#45;&gt;Node6 -->
<g id="edge23" class="edge"><title>Node17&#45;&gt;Node6</title>
<path fill="none" stroke="midnightblue" d="M1720.64,-179.188C1733.58,-164.895 1761.29,-136.864 1791,-123 1874.96,-83.821 1986.21,-74.9441 2039.68,-72.9978"/>
<polygon fill="midnightblue" stroke="midnightblue" points="2039.99,-76.49 2049.88,-72.6865 2039.78,-69.4932 2039.99,-76.49"/>
</g>
<!-- Node17&#45;&gt;Node8 -->
<g id="edge21" class="edge"><title>Node17&#45;&gt;Node8</title>
<path fill="none" stroke="midnightblue" d="M1674.34,-179.444C1631.86,-170.043 1563.57,-154.929 1517.53,-144.739"/>
<polygon fill="midnightblue" stroke="midnightblue" points="1518,-141.26 1507.48,-142.516 1516.49,-148.095 1518,-141.26"/>
</g>
<!-- Node17&#45;&gt;Node13 -->
<g id="edge24" class="edge"><title>Node17&#45;&gt;Node13</title>
<path fill="none" stroke="midnightblue" d="M1694.93,-179.281C1663.49,-164.588 1596.3,-135.298 1536,-123 1524.1,-120.573 770.746,-83.9279 579.011,-74.6314"/>
<polygon fill="midnightblue" stroke="midnightblue" points="579.164,-71.1348 569.006,-74.1464 578.825,-78.1266 579.164,-71.1348"/>
</g>
<!-- Node18 -->
<g id="node18" class="node"><title>Node18</title>
<polygon fill="white" stroke="#bfbfbf" points="1689.5,-123.5 1689.5,-142.5 1736.5,-142.5 1736.5,-123.5 1689.5,-123.5"/>
<text text-anchor="middle" x="1713" y="-130.5" font-family="Helvetica,sans-Serif" font-size="10.00">cstdlib</text>
</g>
<!-- Node17&#45;&gt;Node18 -->
<g id="edge22" class="edge"><title>Node17&#45;&gt;Node18</title>
<path fill="none" stroke="midnightblue" d="M1713,-179.083C1713,-172.006 1713,-161.861 1713,-152.986"/>
<polygon fill="midnightblue" stroke="midnightblue" points="1716.5,-152.751 1713,-142.751 1709.5,-152.751 1716.5,-152.751"/>
</g>
<!-- Node19&#45;&gt;Node8 -->
<g id="edge27" class="edge"><title>Node19&#45;&gt;Node8</title>
<path fill="none" stroke="midnightblue" d="M1195.26,-481.425C1156.06,-441.97 1002.05,-275.696 1088,-179 1108.34,-156.115 1296.02,-142.889 1400.16,-137.253"/>
<polygon fill="midnightblue" stroke="midnightblue" points="1400.48,-140.742 1410.28,-136.716 1400.1,-133.752 1400.48,-140.742"/>
</g>
<!-- Node19&#45;&gt;Node9 -->
<g id="edge26" class="edge"><title>Node19&#45;&gt;Node9</title>
<path fill="none" stroke="midnightblue" d="M1158.25,-481.479C1125.01,-474.298 1079.47,-462.384 1042,-445 1033.49,-441.054 767.384,-263.289 763,-255 727.291,-187.479 822.749,-122.619 879.068,-91.5628"/>
<polygon fill="midnightblue" stroke="midnightblue" points="880.944,-94.5272 888.08,-86.6958 877.618,-88.3679 880.944,-94.5272"/>
</g>
<!-- Node19&#45;&gt;Node13 -->
<g id="edge90" class="edge"><title>Node19&#45;&gt;Node13</title>
<path fill="none" stroke="midnightblue" d="M1144.38,-483.445C1100.67,-477.212 1040.55,-465.622 991,-445 806.975,-368.409 772.244,-322.772 616,-199 587.661,-176.551 576.112,-173.689 557,-143 547.062,-127.042 541.291,-106.236 538.174,-91.3715"/>
<polygon fill="midnightblue" stroke="midnightblue" points="541.575,-90.519 536.282,-81.3408 534.696,-91.8162 541.575,-90.519"/>
</g>
<!-- Node19&#45;&gt;Node14 -->
<g id="edge89" class="edge"><title>Node19&#45;&gt;Node14</title>
<path fill="none" stroke="midnightblue" d="M1263.68,-488.593C1412.79,-484.705 1798.63,-472.25 1924,-445 2005.38,-427.311 2021.87,-409.417 2099,-378 2363.56,-270.24 2419.42,-217.516 2689,-123 2741.7,-104.524 2804.76,-88.5798 2841.98,-79.7815"/>
<polygon fill="midnightblue" stroke="midnightblue" points="2842.82,-83.1788 2851.76,-77.4932 2841.23,-76.3628 2842.82,-83.1788"/>
</g>
<!-- Node19&#45;&gt;Node17 -->
<g id="edge28" class="edge"><title>Node19&#45;&gt;Node17</title>
<path fill="none" stroke="midnightblue" d="M1210.34,-481.212C1222.04,-465.591 1248.53,-432.865 1278,-414 1381.24,-347.914 1430.03,-380.03 1538,-322 1601.43,-287.911 1666.69,-232.104 1696.43,-205.305"/>
<polygon fill="midnightblue" stroke="midnightblue" points="1698.81,-207.877 1703.85,-198.558 1694.09,-202.7 1698.81,-207.877"/>
</g>
<!-- Node20 -->
<g id="node20" class="node"><title>Node20</title>
<g id="a_node20"><a xlink:href="packed__func_8h.html" target="_top" xlink:title="Type&#45;erased function used across TVM API. ">
<polygon fill="white" stroke="black" points="1360.5,-291.5 1360.5,-321.5 1473.5,-321.5 1473.5,-291.5 1360.5,-291.5"/>
<text text-anchor="start" x="1368.5" y="-309.5" font-family="Helvetica,sans-Serif" font-size="10.00">tvm/runtime/packed</text>
<text text-anchor="middle" x="1417" y="-298.5" font-family="Helvetica,sans-Serif" font-size="10.00">_func.h</text>
</a>
</g>
</g>
<!-- Node19&#45;&gt;Node20 -->
<g id="edge29" class="edge"><title>Node19&#45;&gt;Node20</title>
<path fill="none" stroke="midnightblue" d="M1203.65,-481.187C1203.23,-457.692 1205.44,-392.971 1240,-358 1268.75,-328.916 1312.98,-316.29 1350.04,-310.936"/>
<polygon fill="midnightblue" stroke="midnightblue" points="1350.81,-314.365 1360.28,-309.611 1349.91,-307.423 1350.81,-314.365"/>
</g>
<!-- Node19&#45;&gt;Node24 -->
<g id="edge88" class="edge"><title>Node19&#45;&gt;Node24</title>
<path fill="none" stroke="midnightblue" d="M1263.72,-488.739C1401.92,-485.355 1740.36,-474.257 1850,-445 2016.88,-400.47 2097.72,-401.624 2189,-255 2197.52,-241.321 2198.42,-222.785 2197.55,-209.007"/>
<polygon fill="midnightblue" stroke="midnightblue" points="2201,-208.365 2196.52,-198.765 2194.03,-209.064 2201,-208.365"/>
</g>
<!-- Node26 -->
<g id="node26" class="node"><title>Node26</title>
<g id="a_node26"><a xlink:href="ndarray_8h.html" target="_top" xlink:title="A device&#45;independent managed NDArray abstraction. ">
<polygon fill="white" stroke="red" points="1154.5,-235.5 1154.5,-254.5 1277.5,-254.5 1277.5,-235.5 1154.5,-235.5"/>
<text text-anchor="middle" x="1216" y="-242.5" font-family="Helvetica,sans-Serif" font-size="10.00">tvm/runtime/ndarray.h</text>
</a>
</g>
</g>
<!-- Node19&#45;&gt;Node26 -->
<g id="edge61" class="edge"><title>Node19&#45;&gt;Node26</title>
<path fill="none" stroke="midnightblue" d="M1203.5,-481.377C1203.01,-472.322 1202.28,-457.666 1202,-445 1200.53,-378.738 1209.08,-300.341 1213.49,-264.978"/>
<polygon fill="midnightblue" stroke="midnightblue" points="1217.01,-265.079 1214.81,-254.715 1210.06,-264.188 1217.01,-265.079"/>
</g>
<!-- Node27 -->
<g id="node27" class="node"><title>Node27</title>
<g id="a_node27"><a xlink:href="data__type_8h.html" target="_top" xlink:title="tvm/runtime/data_type.h">
<polygon fill="white" stroke="black" points="772,-235.5 772,-254.5 908,-254.5 908,-235.5 772,-235.5"/>
<text text-anchor="middle" x="840" y="-242.5" font-family="Helvetica,sans-Serif" font-size="10.00">tvm/runtime/data_type.h</text>
</a>
</g>
</g>
<!-- Node19&#45;&gt;Node27 -->
<g id="edge62" class="edge"><title>Node19&#45;&gt;Node27</title>
<path fill="none" stroke="midnightblue" d="M1174.76,-481.415C1150.6,-473.686 1115.88,-461.08 1088,-445 1038.26,-416.316 905.618,-302.861 857.634,-261.333"/>
<polygon fill="midnightblue" stroke="midnightblue" points="859.791,-258.571 849.943,-254.665 855.206,-263.86 859.791,-258.571"/>
</g>
<!-- Node19&#45;&gt;Node31 -->
<g id="edge63" class="edge"><title>Node19&#45;&gt;Node31</title>
<path fill="none" stroke="midnightblue" d="M1263.62,-487.384C1358.33,-482.663 1549.05,-470.854 1720.46,-444.933"/>
<polygon fill="midnightblue" stroke="midnightblue" points="1721.07,-448.381 1730.42,-443.407 1720.01,-441.461 1721.07,-448.381"/>
</g>
<!-- Node19&#45;&gt;Node35 -->
<g id="edge82" class="edge"><title>Node19&#45;&gt;Node35</title>
<path fill="none" stroke="midnightblue" d="M1263.69,-482.16C1348.5,-471.02 1503.34,-450.683 1591.32,-439.127"/>
<polygon fill="midnightblue" stroke="midnightblue" points="1591.99,-442.569 1601.45,-437.797 1591.08,-435.629 1591.99,-442.569"/>
</g>
<!-- Node20&#45;&gt;Node5 -->
<g id="edge30" class="edge"><title>Node20&#45;&gt;Node5</title>
<path fill="none" stroke="midnightblue" d="M1453.67,-291.373C1471.39,-283.021 1491.83,-270.929 1506,-255 1550.13,-205.383 1571.5,-126.781 1579.33,-91.1515"/>
<polygon fill="midnightblue" stroke="midnightblue" points="1582.8,-91.6889 1581.41,-81.1848 1575.94,-90.2589 1582.8,-91.6889"/>
</g>
<!-- Node20&#45;&gt;Node6 -->
<g id="edge59" class="edge"><title>Node20&#45;&gt;Node6</title>
<path fill="none" stroke="midnightblue" d="M1473.55,-291.665C1546.45,-273.256 1676.72,-238.412 1785,-199 1883.05,-163.312 1995.07,-109.913 2044.82,-85.5091"/>
<polygon fill="midnightblue" stroke="midnightblue" points="2046.5,-88.5866 2053.92,-81.0288 2043.41,-82.3068 2046.5,-88.5866"/>
</g>
<!-- Node20&#45;&gt;Node8 -->
<g id="edge52" class="edge"><title>Node20&#45;&gt;Node8</title>
<path fill="none" stroke="midnightblue" d="M1449.15,-291.336C1463.83,-283.034 1479.75,-270.997 1488,-255 1505.23,-221.598 1489.61,-176.64 1478.29,-152.005"/>
<polygon fill="midnightblue" stroke="midnightblue" points="1481.33,-150.249 1473.81,-142.785 1475.03,-153.309 1481.33,-150.249"/>
</g>
<!-- Node20&#45;&gt;Node9 -->
<g id="edge31" class="edge"><title>Node20&#45;&gt;Node9</title>
<path fill="none" stroke="midnightblue" d="M1360.48,-304.381C1300.39,-301.231 1203.9,-290.46 1129,-255 1045.2,-215.325 968.48,-133.323 934.889,-94.1944"/>
<polygon fill="midnightblue" stroke="midnightblue" points="937.525,-91.8911 928.389,-86.5262 932.185,-96.4175 937.525,-91.8911"/>
</g>
<!-- Node20&#45;&gt;Node13 -->
<g id="edge60" class="edge"><title>Node20&#45;&gt;Node13</title>
<path fill="none" stroke="midnightblue" d="M1360.48,-300.365C1295.05,-293.587 1184.44,-279.54 1092,-255 1000.49,-230.708 982.659,-209.408 893,-179 779.684,-140.568 643.721,-102.207 576.636,-83.7818"/>
<polygon fill="midnightblue" stroke="midnightblue" points="577.43,-80.3707 566.861,-81.1046 575.581,-87.122 577.43,-80.3707"/>
</g>
<!-- Node20&#45;&gt;Node14 -->
<g id="edge56" class="edge"><title>Node20&#45;&gt;Node14</title>
<path fill="none" stroke="midnightblue" d="M1473.52,-293.82C1522.38,-283.683 1594.89,-268.548 1658,-255 1698.49,-246.309 1708.5,-243.655 1749,-235 1945.65,-192.972 1995.26,-184.584 2192,-143 2233.36,-134.257 2243.19,-129.263 2285,-123 2495.95,-91.4033 2752.59,-77.8257 2841.69,-73.8349"/>
<polygon fill="midnightblue" stroke="midnightblue" points="2842.12,-77.3198 2851.95,-73.385 2841.81,-70.3265 2842.12,-77.3198"/>
</g>
<!-- Node21 -->
<g id="node21" class="node"><title>Node21</title>
<g id="a_node21"><a xlink:href="runtime_2module_8h.html" target="_top" xlink:title="Runtime container of the functions generated by TVM, This is used to support dynamically link...">
<polygon fill="white" stroke="black" points="1355,-235.5 1355,-254.5 1479,-254.5 1479,-235.5 1355,-235.5"/>
<text text-anchor="middle" x="1417" y="-242.5" font-family="Helvetica,sans-Serif" font-size="10.00">tvm/runtime/module.h</text>
</a>
</g>
</g>
<!-- Node20&#45;&gt;Node21 -->
<g id="edge32" class="edge"><title>Node20&#45;&gt;Node21</title>
<path fill="none" stroke="midnightblue" d="M1411.16,-291.399C1410.13,-283.377 1409.97,-273.233 1410.69,-264.569"/>
<polygon fill="midnightblue" stroke="midnightblue" points="1414.16,-265.044 1412.07,-254.658 1407.23,-264.081 1414.16,-265.044"/>
</g>
<!-- Node20&#45;&gt;Node23 -->
<g id="edge58" class="edge"><title>Node20&#45;&gt;Node23</title>
<path fill="none" stroke="midnightblue" d="M1360.39,-301.876C1290.19,-296.242 1175.95,-282.98 1145,-255 1132.07,-243.314 1127.75,-223.371 1126.39,-208.649"/>
<polygon fill="midnightblue" stroke="midnightblue" points="1129.89,-208.427 1125.85,-198.633 1122.9,-208.809 1129.89,-208.427"/>
</g>
<!-- Node20&#45;&gt;Node24 -->
<g id="edge55" class="edge"><title>Node20&#45;&gt;Node24</title>
<path fill="none" stroke="midnightblue" d="M1473.58,-301.808C1540.54,-296.322 1654.81,-283.43 1749,-255 1769.18,-248.909 1771.7,-240.688 1792,-235 1861.4,-215.549 2077.57,-198.427 2161.35,-192.35"/>
<polygon fill="midnightblue" stroke="midnightblue" points="2161.63,-195.839 2171.35,-191.632 2161.12,-188.857 2161.63,-195.839"/>
</g>
<!-- Node20&#45;&gt;Node26 -->
<g id="edge42" class="edge"><title>Node20&#45;&gt;Node26</title>
<path fill="none" stroke="midnightblue" d="M1369.62,-291.475C1334.49,-281.075 1287.21,-267.078 1254.42,-257.372"/>
<polygon fill="midnightblue" stroke="midnightblue" points="1255.32,-253.989 1244.74,-254.506 1253.33,-260.701 1255.32,-253.989"/>
</g>
<!-- Node20&#45;&gt;Node27 -->
<g id="edge48" class="edge"><title>Node20&#45;&gt;Node27</title>
<path fill="none" stroke="midnightblue" d="M1360.36,-299.659C1256.62,-288.962 1035.97,-266.208 918.082,-254.052"/>
<polygon fill="midnightblue" stroke="midnightblue" points="918.348,-250.561 908.041,-253.016 917.63,-257.524 918.348,-250.561"/>
</g>
<!-- Node28 -->
<g id="node28" class="node"><title>Node28</title>
<polygon fill="white" stroke="#bfbfbf" points="1801.5,-235.5 1801.5,-254.5 1864.5,-254.5 1864.5,-235.5 1801.5,-235.5"/>
<text text-anchor="middle" x="1833" y="-242.5" font-family="Helvetica,sans-Serif" font-size="10.00">functional</text>
</g>
<!-- Node20&#45;&gt;Node28 -->
<g id="edge53" class="edge"><title>Node20&#45;&gt;Node28</title>
<path fill="none" stroke="midnightblue" d="M1473.57,-298.807C1546.28,-289.967 1676.35,-273.359 1787,-255 1788.46,-254.759 1789.93,-254.506 1791.43,-254.246"/>
<polygon fill="midnightblue" stroke="midnightblue" points="1792.16,-257.67 1801.37,-252.437 1790.9,-250.784 1792.16,-257.67"/>
</g>
<!-- Node29 -->
<g id="node29" class="node"><title>Node29</title>
<polygon fill="white" stroke="#bfbfbf" points="1295.5,-235.5 1295.5,-254.5 1336.5,-254.5 1336.5,-235.5 1295.5,-235.5"/>
<text text-anchor="middle" x="1316" y="-242.5" font-family="Helvetica,sans-Serif" font-size="10.00">tuple</text>
</g>
<!-- Node20&#45;&gt;Node29 -->
<g id="edge54" class="edge"><title>Node20&#45;&gt;Node29</title>
<path fill="none" stroke="midnightblue" d="M1393.06,-291.399C1376.87,-281.862 1355.59,-269.325 1339.5,-259.842"/>
<polygon fill="midnightblue" stroke="midnightblue" points="1341.09,-256.718 1330.7,-254.658 1337.54,-262.749 1341.09,-256.718"/>
</g>
<!-- Node20&#45;&gt;Node30 -->
<g id="edge57" class="edge"><title>Node20&#45;&gt;Node30</title>
<path fill="none" stroke="midnightblue" d="M1360.18,-302.63C1151.27,-292.078 429.593,-255.627 270.284,-247.58"/>
<polygon fill="midnightblue" stroke="midnightblue" points="270.37,-244.08 260.206,-247.071 270.017,-251.071 270.37,-244.08"/>
</g>
<!-- Node21&#45;&gt;Node8 -->
<g id="edge35" class="edge"><title>Node21&#45;&gt;Node8</title>
<path fill="none" stroke="midnightblue" d="M1424.83,-235.3C1432.24,-226.65 1443.22,-212.726 1450,-199 1457.32,-184.175 1462.33,-166.023 1465.36,-152.674"/>
<polygon fill="midnightblue" stroke="midnightblue" points="1468.81,-153.274 1467.45,-142.767 1461.96,-151.831 1468.81,-153.274"/>
</g>
<!-- Node21&#45;&gt;Node9 -->
<g id="edge34" class="edge"><title>Node21&#45;&gt;Node9</title>
<path fill="none" stroke="midnightblue" d="M1396.62,-235.35C1346.87,-214.416 1215.01,-160.027 1102,-123 1063.25,-110.303 1019.23,-98.1959 983.852,-89.0203"/>
<polygon fill="midnightblue" stroke="midnightblue" points="984.672,-85.6173 974.115,-86.512 982.926,-92.396 984.672,-85.6173"/>
</g>
<!-- Node21&#45;&gt;Node14 -->
<g id="edge39" class="edge"><title>Node21&#45;&gt;Node14</title>
<path fill="none" stroke="midnightblue" d="M1479.29,-237.179C1552.55,-228.971 1677.8,-214.365 1785,-199 1990.99,-169.476 2040.45,-148.264 2247,-123 2474.05,-95.2297 2749.3,-79.0957 2841.88,-74.147"/>
<polygon fill="midnightblue" stroke="midnightblue" points="2842.2,-77.6349 2852,-73.6118 2841.83,-70.6447 2842.2,-77.6349"/>
</g>
<!-- Node21&#45;&gt;Node17 -->
<g id="edge36" class="edge"><title>Node21&#45;&gt;Node17</title>
<path fill="none" stroke="midnightblue" d="M1463.9,-235.444C1516.08,-225.925 1600.37,-210.547 1656.23,-200.356"/>
<polygon fill="midnightblue" stroke="midnightblue" points="1657.11,-203.754 1666.32,-198.516 1655.85,-196.868 1657.11,-203.754"/>
</g>
<!-- Node21&#45;&gt;Node20 -->
<g id="edge41" class="edge"><title>Node21&#45;&gt;Node20</title>
<path fill="none" stroke="midnightblue" d="M1421.93,-254.658C1423.43,-261.655 1424.01,-271.857 1423.64,-281.289"/>
<polygon fill="midnightblue" stroke="midnightblue" points="1420.14,-281.153 1422.84,-291.399 1427.12,-281.709 1420.14,-281.153"/>
</g>
<!-- Node22 -->
<g id="node22" class="node"><title>Node22</title>
<polygon fill="white" stroke="#bfbfbf" points="1381,-179.5 1381,-198.5 1441,-198.5 1441,-179.5 1381,-179.5"/>
<text text-anchor="middle" x="1411" y="-186.5" font-family="Helvetica,sans-Serif" font-size="10.00">dmlc/io.h</text>
</g>
<!-- Node21&#45;&gt;Node22 -->
<g id="edge33" class="edge"><title>Node21&#45;&gt;Node22</title>
<path fill="none" stroke="midnightblue" d="M1416.01,-235.083C1415.21,-227.927 1414.07,-217.635 1413.08,-208.691"/>
<polygon fill="midnightblue" stroke="midnightblue" points="1416.56,-208.303 1411.97,-198.751 1409.6,-209.076 1416.56,-208.303"/>
</g>
<!-- Node21&#45;&gt;Node23 -->
<g id="edge37" class="edge"><title>Node21&#45;&gt;Node23</title>
<path fill="none" stroke="midnightblue" d="M1370.89,-235.444C1313.95,-224.877 1218.1,-207.091 1164.77,-197.194"/>
<polygon fill="midnightblue" stroke="midnightblue" points="1165.16,-193.708 1154.69,-195.325 1163.89,-200.59 1165.16,-193.708"/>
</g>
<!-- Node21&#45;&gt;Node24 -->
<g id="edge38" class="edge"><title>Node21&#45;&gt;Node24</title>
<path fill="none" stroke="midnightblue" d="M1479.02,-239.695C1635.4,-228.841 2041.8,-200.633 2161.41,-192.331"/>
<polygon fill="midnightblue" stroke="midnightblue" points="2161.71,-195.819 2171.44,-191.635 2161.23,-188.836 2161.71,-195.819"/>
</g>
<!-- Node21&#45;&gt;Node25 -->
<g id="edge40" class="edge"><title>Node21&#45;&gt;Node25</title>
<path fill="none" stroke="midnightblue" d="M1354.98,-235.916C1351.61,-235.58 1348.26,-235.271 1345,-235 951.404,-202.317 475.639,-193.009 313.937,-190.69"/>
<polygon fill="midnightblue" stroke="midnightblue" points="313.793,-187.188 303.745,-190.547 313.695,-194.187 313.793,-187.188"/>
</g>
<!-- Node26&#45;&gt;Node6 -->
<g id="edge47" class="edge"><title>Node26&#45;&gt;Node6</title>
<path fill="none" stroke="midnightblue" d="M1233.33,-235.324C1261.66,-221.477 1319.95,-194.382 1372,-179 1501,-140.881 1921.42,-89.9761 2039.75,-76.1138"/>
<polygon fill="midnightblue" stroke="midnightblue" points="2040.41,-79.5613 2049.93,-74.9254 2039.59,-72.6085 2040.41,-79.5613"/>
</g>
<!-- Node26&#45;&gt;Node8 -->
<g id="edge44" class="edge"><title>Node26&#45;&gt;Node8</title>
<path fill="none" stroke="midnightblue" d="M1224.64,-235.5C1239.17,-221.656 1270,-194.256 1301,-179 1334.27,-162.63 1374.28,-151.61 1406.9,-144.575"/>
<polygon fill="midnightblue" stroke="midnightblue" points="1407.7,-147.984 1416.78,-142.518 1406.27,-141.131 1407.7,-147.984"/>
</g>
<!-- Node26&#45;&gt;Node9 -->
<g id="edge43" class="edge"><title>Node26&#45;&gt;Node9</title>
<path fill="none" stroke="midnightblue" d="M1210.78,-235.39C1202.24,-221.877 1184.08,-195.53 1163,-179 1107.49,-135.479 1031.48,-106.16 978.701,-89.4819"/>
<polygon fill="midnightblue" stroke="midnightblue" points="979.715,-86.1319 969.127,-86.5143 977.642,-92.8181 979.715,-86.1319"/>
</g>
<!-- Node26&#45;&gt;Node15 -->
<g id="edge45" class="edge"><title>Node26&#45;&gt;Node15</title>
<path fill="none" stroke="midnightblue" d="M1222.07,-235.37C1231.07,-222.712 1248.66,-198.498 1265,-179 1293.05,-145.519 1328.41,-108.644 1348.38,-88.2585"/>
<polygon fill="midnightblue" stroke="midnightblue" points="1350.95,-90.6405 1355.47,-81.0585 1345.96,-85.73 1350.95,-90.6405"/>
</g>
<!-- Node26&#45;&gt;Node24 -->
<g id="edge46" class="edge"><title>Node26&#45;&gt;Node24</title>
<path fill="none" stroke="midnightblue" d="M1277.81,-235.786C1280.57,-235.503 1283.31,-235.239 1286,-235 1626.73,-204.709 2041.25,-193.468 2161.08,-190.72"/>
<polygon fill="midnightblue" stroke="midnightblue" points="2161.51,-194.211 2171.43,-190.487 2161.35,-187.213 2161.51,-194.211"/>
</g>
<!-- Node27&#45;&gt;Node5 -->
<g id="edge50" class="edge"><title>Node27&#45;&gt;Node5</title>
<path fill="none" stroke="midnightblue" d="M854.897,-235.426C879.783,-221.476 931.751,-193.926 979,-179 1176.75,-116.532 1423.21,-87.4714 1529.8,-77.143"/>
<polygon fill="midnightblue" stroke="midnightblue" points="1530.35,-80.6062 1539.98,-76.1729 1529.69,-73.6378 1530.35,-80.6062"/>
</g>
<!-- Node27&#45;&gt;Node9 -->
<g id="edge49" class="edge"><title>Node27&#45;&gt;Node9</title>
<path fill="none" stroke="midnightblue" d="M835.361,-235.359C829.2,-222.685 819.881,-198.453 827,-179 839.744,-144.176 869.462,-112.894 891.278,-93.3846"/>
<polygon fill="midnightblue" stroke="midnightblue" points="893.663,-95.9486 898.911,-86.7449 889.069,-90.667 893.663,-95.9486"/>
</g>
<!-- Node27&#45;&gt;Node13 -->
<g id="edge51" class="edge"><title>Node27&#45;&gt;Node13</title>
<path fill="none" stroke="midnightblue" d="M792.703,-235.442C736.283,-223.218 641.623,-196.104 578,-143 561.188,-128.967 549.129,-106.581 542.137,-90.8056"/>
<polygon fill="midnightblue" stroke="midnightblue" points="545.183,-89.0131 538.11,-81.1244 538.719,-91.7017 545.183,-89.0131"/>
</g>
<!-- Node31&#45;&gt;Node14 -->
<g id="edge81" class="edge"><title>Node31&#45;&gt;Node14</title>
<path fill="none" stroke="midnightblue" d="M1841.9,-419.269C1883.29,-411.311 1940.5,-397.92 1988,-378 2084.58,-337.498 2100.88,-311.599 2189,-255 2277.37,-198.244 2286.26,-158.796 2385,-123 2469.6,-92.3294 2746.62,-77.9217 2841.66,-73.7953"/>
<polygon fill="midnightblue" stroke="midnightblue" points="2841.97,-77.2852 2851.81,-73.3637 2841.67,-70.2915 2841.97,-77.2852"/>
</g>
<!-- Node31&#45;&gt;Node27 -->
<g id="edge64" class="edge"><title>Node31&#45;&gt;Node27</title>
<path fill="none" stroke="midnightblue" d="M1730.38,-415.839C1727.21,-415.197 1724.07,-414.579 1721,-414 1458.05,-364.398 1387.27,-379.795 1126,-322 1077.66,-311.306 1066.79,-303.927 1019,-291 973.621,-278.726 921.467,-265.742 885.206,-256.891"/>
<polygon fill="midnightblue" stroke="midnightblue" points="885.963,-253.474 875.419,-254.509 884.307,-260.275 885.963,-253.474"/>
</g>
<!-- Node32 -->
<g id="node32" class="node"><title>Node32</title>
<g id="a_node32"><a xlink:href="functor_8h.html" target="_top" xlink:title="Defines the Functor data structures. ">
<polygon fill="white" stroke="black" points="2073.5,-235.5 2073.5,-254.5 2180.5,-254.5 2180.5,-235.5 2073.5,-235.5"/>
<text text-anchor="middle" x="2127" y="-242.5" font-family="Helvetica,sans-Serif" font-size="10.00">tvm/node/functor.h</text>
</a>
</g>
</g>
<!-- Node31&#45;&gt;Node32 -->
<g id="edge65" class="edge"><title>Node31&#45;&gt;Node32</title>
<path fill="none" stroke="midnightblue" d="M1841.51,-417.644C1875.98,-409.581 1920.5,-396.71 1957,-378 2019.65,-345.886 2082.16,-289.547 2110.8,-262.033"/>
<polygon fill="midnightblue" stroke="midnightblue" points="2113.54,-264.259 2118.26,-254.779 2108.66,-259.241 2113.54,-264.259"/>
</g>
<!-- Node31&#45;&gt;Node33 -->
<g id="edge71" class="edge"><title>Node31&#45;&gt;Node33</title>
<path fill="none" stroke="midnightblue" d="M1755.43,-414.399C1734.07,-404.55 1705.78,-391.501 1685.02,-381.922"/>
<polygon fill="midnightblue" stroke="midnightblue" points="1686.32,-378.668 1675.77,-377.658 1683.39,-385.024 1686.32,-378.668"/>
</g>
<!-- Node32&#45;&gt;Node5 -->
<g id="edge66" class="edge"><title>Node32&#45;&gt;Node5</title>
<path fill="none" stroke="midnightblue" d="M2116.88,-235.499C2089.38,-212.913 2010.17,-151.213 1933,-123 1832.5,-86.2579 1706.6,-76.138 1636.48,-73.4208"/>
<polygon fill="midnightblue" stroke="midnightblue" points="1636.25,-69.9107 1626.13,-73.0583 1636,-76.9064 1636.25,-69.9107"/>
</g>
<!-- Node32&#45;&gt;Node6 -->
<g id="edge70" class="edge"><title>Node32&#45;&gt;Node6</title>
<path fill="none" stroke="midnightblue" d="M2124.15,-235.26C2115.42,-208.536 2088.96,-127.517 2077,-90.8618"/>
<polygon fill="midnightblue" stroke="midnightblue" points="2080.21,-89.439 2073.78,-81.0194 2073.56,-91.6119 2080.21,-89.439"/>
</g>
<!-- Node32&#45;&gt;Node8 -->
<g id="edge67" class="edge"><title>Node32&#45;&gt;Node8</title>
<path fill="none" stroke="midnightblue" d="M2085.52,-235.473C2021.29,-222.414 1893.81,-197.077 1785,-179 1700.03,-164.883 1601.75,-151.32 1537.64,-142.842"/>
<polygon fill="midnightblue" stroke="midnightblue" points="1538.03,-139.362 1527.66,-141.525 1537.11,-146.302 1538.03,-139.362"/>
</g>
<!-- Node32&#45;&gt;Node13 -->
<g id="edge69" class="edge"><title>Node32&#45;&gt;Node13</title>
<path fill="none" stroke="midnightblue" d="M2106.78,-235.466C2050.63,-212.238 1887.53,-147.957 1745,-123 1547.62,-88.4385 1044.19,-95.6964 844,-87 749.856,-82.9104 639.602,-77.615 579.55,-74.688"/>
<polygon fill="midnightblue" stroke="midnightblue" points="579.449,-71.179 569.29,-74.1871 579.108,-78.1706 579.449,-71.179"/>
</g>
<!-- Node32&#45;&gt;Node24 -->
<g id="edge68" class="edge"><title>Node32&#45;&gt;Node24</title>
<path fill="none" stroke="midnightblue" d="M2137.93,-235.324C2148.17,-227.185 2163.72,-214.839 2176,-205.087"/>
<polygon fill="midnightblue" stroke="midnightblue" points="2178.22,-207.794 2183.88,-198.834 2173.87,-202.312 2178.22,-207.794"/>
</g>
<!-- Node33&#45;&gt;Node6 -->
<g id="edge79" class="edge"><title>Node33&#45;&gt;Node6</title>
<path fill="none" stroke="midnightblue" d="M1716.83,-361.027C1754.03,-355.25 1801.69,-343.961 1839,-322 1944.42,-259.939 2030.93,-135.305 2060.28,-89.7123"/>
<polygon fill="midnightblue" stroke="midnightblue" points="2063.4,-91.3279 2065.8,-81.0088 2057.49,-87.5782 2063.4,-91.3279"/>
</g>
<!-- Node33&#45;&gt;Node8 -->
<g id="edge72" class="edge"><title>Node33&#45;&gt;Node8</title>
<path fill="none" stroke="midnightblue" d="M1654.61,-358.347C1646.2,-329.375 1615.43,-234.483 1559,-179 1544.18,-164.429 1523.7,-153.682 1506.02,-146.352"/>
<polygon fill="midnightblue" stroke="midnightblue" points="1507.12,-143.027 1496.54,-142.629 1504.56,-149.542 1507.12,-143.027"/>
</g>
<!-- Node33&#45;&gt;Node13 -->
<g id="edge75" class="edge"><title>Node33&#45;&gt;Node13</title>
<path fill="none" stroke="midnightblue" d="M1597.32,-359.253C1535.52,-350.992 1436.27,-337.046 1351,-322 1205.76,-296.372 1168.04,-294.688 1026,-255 882.895,-215.015 849.993,-195.525 711,-143 659.435,-123.514 600.017,-99.3524 565.087,-84.9715"/>
<polygon fill="midnightblue" stroke="midnightblue" points="566.069,-81.5905 555.49,-81.0125 563.4,-88.0615 566.069,-81.5905"/>
</g>
<!-- Node33&#45;&gt;Node14 -->
<g id="edge80" class="edge"><title>Node33&#45;&gt;Node14</title>
<path fill="none" stroke="midnightblue" d="M1716.69,-361.598C1761.92,-355.897 1824.82,-344.467 1876,-322 1897.57,-312.53 1899.22,-303.795 1919,-291 1960.8,-263.965 1971.07,-256.424 2016,-235 2081.55,-203.745 2252.02,-138.356 2323,-123 2516.81,-81.07 2756.31,-73.9254 2841.81,-72.7307"/>
<polygon fill="midnightblue" stroke="midnightblue" points="2841.97,-76.2292 2851.92,-72.6078 2841.88,-69.2297 2841.97,-76.2292"/>
</g>
<!-- Node33&#45;&gt;Node17 -->
<g id="edge73" class="edge"><title>Node33&#45;&gt;Node17</title>
<path fill="none" stroke="midnightblue" d="M1704.55,-358.424C1757.3,-346 1839.4,-317.268 1873,-255 1877.22,-247.177 1878.37,-242.085 1873,-235 1861.36,-219.64 1818.32,-208.058 1779.8,-200.493"/>
<polygon fill="midnightblue" stroke="midnightblue" points="1780.09,-196.985 1769.61,-198.562 1778.78,-203.863 1780.09,-196.985"/>
</g>
<!-- Node33&#45;&gt;Node20 -->
<g id="edge74" class="edge"><title>Node33&#45;&gt;Node20</title>
<path fill="none" stroke="midnightblue" d="M1622.61,-358.475C1586.39,-349.494 1528.44,-335.128 1483.28,-323.933"/>
<polygon fill="midnightblue" stroke="midnightblue" points="1484.11,-320.532 1473.56,-321.523 1482.43,-327.327 1484.11,-320.532"/>
</g>
<!-- Node33&#45;&gt;Node24 -->
<g id="edge76" class="edge"><title>Node33&#45;&gt;Node24</title>
<path fill="none" stroke="midnightblue" d="M1716.76,-365.354C1771.58,-361.883 1853.89,-351.639 1919,-322 1938.84,-312.97 1938.81,-303.003 1957,-291 2001.8,-261.44 2014.7,-256.224 2064,-235 2096.51,-221.003 2134.95,-208.225 2161.74,-199.892"/>
<polygon fill="midnightblue" stroke="midnightblue" points="2162.88,-203.205 2171.41,-196.922 2160.82,-196.514 2162.88,-203.205"/>
</g>
<!-- Node33&#45;&gt;Node25 -->
<g id="edge78" class="edge"><title>Node33&#45;&gt;Node25</title>
<path fill="none" stroke="midnightblue" d="M1597.14,-363.224C1498.68,-356.722 1296.43,-342.144 1126,-322 818.484,-285.654 452.475,-223.991 313.921,-199.983"/>
<polygon fill="midnightblue" stroke="midnightblue" points="314.402,-196.514 303.951,-198.252 313.205,-203.411 314.402,-196.514"/>
</g>
<!-- Node34 -->
<g id="node34" class="node"><title>Node34</title>
<polygon fill="white" stroke="#bfbfbf" points="1685.5,-297 1685.5,-316 1762.5,-316 1762.5,-297 1685.5,-297"/>
<text text-anchor="middle" x="1724" y="-304" font-family="Helvetica,sans-Serif" font-size="10.00">initializer_list</text>
</g>
<!-- Node33&#45;&gt;Node34 -->
<g id="edge77" class="edge"><title>Node33&#45;&gt;Node34</title>
<path fill="none" stroke="midnightblue" d="M1666.6,-358.475C1677.05,-349.197 1693.97,-334.171 1706.74,-322.831"/>
<polygon fill="midnightblue" stroke="midnightblue" points="1709.27,-325.266 1714.42,-316.009 1704.62,-320.032 1709.27,-325.266"/>
</g>
<!-- Node35&#45;&gt;Node14 -->
<g id="edge86" class="edge"><title>Node35&#45;&gt;Node14</title>
<path fill="none" stroke="midnightblue" d="M1712.79,-415.089C1751.28,-405.528 1803.52,-391.942 1849,-378 2012.48,-327.878 2409.43,-165.727 2575,-123 2670.58,-98.3353 2786.55,-82.7102 2841.76,-76.1143"/>
<polygon fill="midnightblue" stroke="midnightblue" points="2842.45,-79.5579 2851.97,-74.9155 2841.63,-72.6057 2842.45,-79.5579"/>
</g>
<!-- Node35&#45;&gt;Node27 -->
<g id="edge83" class="edge"><title>Node35&#45;&gt;Node27</title>
<path fill="none" stroke="midnightblue" d="M1601.47,-423.007C1527.34,-415.24 1392.15,-399.557 1278,-378 1175.47,-358.636 1149.87,-352.242 1050,-322 985.208,-302.379 911.109,-274.169 870.539,-258.213"/>
<polygon fill="midnightblue" stroke="midnightblue" points="871.798,-254.947 861.212,-254.528 869.226,-261.458 871.798,-254.947"/>
</g>
<!-- Node35&#45;&gt;Node28 -->
<g id="edge87" class="edge"><title>Node35&#45;&gt;Node28</title>
<path fill="none" stroke="midnightblue" d="M1678.58,-414.494C1692.5,-404.985 1710.62,-391.69 1725,-378 1764.15,-340.719 1802.39,-289.474 1821.11,-263.146"/>
<polygon fill="midnightblue" stroke="midnightblue" points="1824.19,-264.839 1827.08,-254.645 1818.47,-260.812 1824.19,-264.839"/>
</g>
<!-- Node35&#45;&gt;Node32 -->
<g id="edge84" class="edge"><title>Node35&#45;&gt;Node32</title>
<path fill="none" stroke="midnightblue" d="M1700.12,-414.39C1758.76,-394.931 1866.7,-358.149 1957,-322 2008.08,-301.552 2066.38,-274.7 2099.73,-258.998"/>
<polygon fill="midnightblue" stroke="midnightblue" points="2101.29,-262.128 2108.84,-254.691 2098.3,-255.8 2101.29,-262.128"/>
</g>
<!-- Node35&#45;&gt;Node33 -->
<g id="edge85" class="edge"><title>Node35&#45;&gt;Node33</title>
<path fill="none" stroke="midnightblue" d="M1657,-414.399C1657,-406.466 1657,-396.458 1657,-387.858"/>
<polygon fill="midnightblue" stroke="midnightblue" points="1660.5,-387.658 1657,-377.658 1653.5,-387.658 1660.5,-387.658"/>
</g>
<!-- Node36&#45;&gt;Node32 -->
<g id="edge92" class="edge"><title>Node36&#45;&gt;Node32</title>
<path fill="none" stroke="midnightblue" d="M2043.1,-481.316C2055.68,-446.036 2103.11,-313.002 2120.53,-264.143"/>
<polygon fill="midnightblue" stroke="midnightblue" points="2123.88,-265.175 2123.94,-254.58 2117.29,-262.824 2123.88,-265.175"/>
</g>
<!-- Node37 -->
<g id="node37" class="node"><title>Node37</title>
<polygon fill="white" stroke="#bfbfbf" points="2159.5,-420 2159.5,-439 2218.5,-439 2218.5,-420 2159.5,-420"/>
<text text-anchor="middle" x="2189" y="-427" font-family="Helvetica,sans-Serif" font-size="10.00">iostream</text>
</g>
<!-- Node36&#45;&gt;Node37 -->
<g id="edge93" class="edge"><title>Node36&#45;&gt;Node37</title>
<path fill="none" stroke="midnightblue" d="M2061.35,-481.475C2086.69,-471.357 2129.14,-454.405 2158.07,-442.851"/>
<polygon fill="midnightblue" stroke="midnightblue" points="2159.7,-445.968 2167.69,-439.009 2157.11,-439.467 2159.7,-445.968"/>
</g>
<!-- Node38&#45;&gt;Node8 -->
<g id="edge103" class="edge"><title>Node38&#45;&gt;Node8</title>
<path fill="none" stroke="midnightblue" d="M1511.6,-597.924C1378.84,-583.777 958.933,-532.805 860,-445 789.088,-382.064 785.17,-347.184 763,-255 726.819,-104.56 912.967,-199.812 1051,-179 1173.46,-160.537 1317.21,-146.78 1400.24,-139.602"/>
<polygon fill="midnightblue" stroke="midnightblue" points="1400.64,-143.08 1410.3,-138.738 1400.04,-136.106 1400.64,-143.08"/>
</g>
<!-- Node38&#45;&gt;Node14 -->
<g id="edge105" class="edge"><title>Node38&#45;&gt;Node14</title>
<path fill="none" stroke="midnightblue" d="M1592.27,-599.956C1688.98,-594.01 1940.86,-572.33 2137,-501 2445.04,-388.974 2771.68,-150.088 2854.2,-87.6743"/>
<polygon fill="midnightblue" stroke="midnightblue" points="2856.79,-90.099 2862.64,-81.2618 2852.56,-84.5257 2856.79,-90.099"/>
</g>
<!-- Node38&#45;&gt;Node16 -->
<g id="edge104" class="edge"><title>Node38&#45;&gt;Node16</title>
<path fill="none" stroke="midnightblue" d="M1566.78,-593.324C1581.27,-584.822 1603.57,-571.729 1620.49,-561.797"/>
<polygon fill="midnightblue" stroke="midnightblue" points="1622.4,-564.735 1629.26,-556.655 1618.86,-558.698 1622.4,-564.735"/>
</g>
<!-- Node39&#45;&gt;Node8 -->
<g id="edge107" class="edge"><title>Node39&#45;&gt;Node8</title>
<path fill="none" stroke="midnightblue" d="M1440.36,-653.685C1365.91,-643.054 1203.87,-608.132 1135,-501 1097.66,-442.91 1153.37,-462.278 1238,-414 1286.69,-386.227 1298.62,-377.963 1351,-358 1407.42,-336.495 1437.72,-363.048 1482,-322 1529.26,-278.19 1527.74,-239.667 1506,-179 1502.06,-168.003 1494.14,-157.769 1486.64,-149.848"/>
<polygon fill="midnightblue" stroke="midnightblue" points="1489.02,-147.278 1479.44,-142.755 1484.11,-152.266 1489.02,-147.278"/>
</g>
<!-- Node39&#45;&gt;Node14 -->
<g id="edge112" class="edge"><title>Node39&#45;&gt;Node14</title>
<path fill="none" stroke="midnightblue" d="M1517.6,-653.977C1670.9,-636.611 2247.77,-557.957 2649,-322 2749.56,-262.859 2780.39,-242.685 2841,-143 2851.4,-125.903 2860.81,-105 2866.89,-90.4123"/>
<polygon fill="midnightblue" stroke="midnightblue" points="2870.17,-91.6328 2870.7,-81.0512 2863.69,-88.9932 2870.17,-91.6328"/>
</g>
<!-- Node39&#45;&gt;Node16 -->
<g id="edge109" class="edge"><title>Node39&#45;&gt;Node16</title>
<path fill="none" stroke="midnightblue" d="M1479.83,-649.097C1481.6,-635.184 1487,-608.297 1503,-593 1525,-571.965 1556.83,-560.761 1584.68,-554.795"/>
<polygon fill="midnightblue" stroke="midnightblue" points="1585.59,-558.182 1594.74,-552.825 1584.25,-551.313 1585.59,-558.182"/>
</g>
<!-- Node39&#45;&gt;Node27 -->
<g id="edge108" class="edge"><title>Node39&#45;&gt;Node27</title>
<path fill="none" stroke="midnightblue" d="M1440.44,-655.88C1296.37,-647.455 798,-613.569 798,-548 798,-548 798,-548 798,-490 798,-404.74 823.214,-305.12 834.57,-264.577"/>
<polygon fill="midnightblue" stroke="midnightblue" points="837.99,-265.346 837.373,-254.769 831.259,-263.422 837.99,-265.346"/>
</g>
<!-- Node39&#45;&gt;Node33 -->
<g id="edge110" class="edge"><title>Node39&#45;&gt;Node33</title>
<path fill="none" stroke="midnightblue" d="M1474.55,-649.424C1465.54,-631.244 1446,-587.278 1446,-548 1446,-548 1446,-548 1446,-490 1446,-423.498 1525.85,-393.026 1587.31,-379.421"/>
<polygon fill="midnightblue" stroke="midnightblue" points="1588.32,-382.785 1597.38,-377.302 1586.88,-375.935 1588.32,-382.785"/>
</g>
<!-- Node39&#45;&gt;Node38 -->
<g id="edge111" class="edge"><title>Node39&#45;&gt;Node38</title>
<path fill="none" stroke="midnightblue" d="M1490.73,-649.324C1501.84,-641.107 1518.74,-628.602 1531.98,-618.807"/>
<polygon fill="midnightblue" stroke="midnightblue" points="1534.1,-621.595 1540.06,-612.834 1529.94,-615.967 1534.1,-621.595"/>
</g>
<!-- Node41&#45;&gt;Node7 -->
<g id="edge118" class="edge"><title>Node41&#45;&gt;Node7</title>
<path fill="none" stroke="midnightblue" d="M874.352,-817.46C963.354,-797.642 1183.78,-748.559 1281.74,-726.745"/>
<polygon fill="midnightblue" stroke="midnightblue" points="1282.67,-730.124 1291.67,-724.535 1281.15,-723.292 1282.67,-730.124"/>
</g>
<!-- Node41&#45;&gt;Node25 -->
<g id="edge132" class="edge"><title>Node41&#45;&gt;Node25</title>
<path fill="none" stroke="midnightblue" d="M788.884,-817.482C722.665,-804.238 599.588,-774.901 505,-725 469.761,-706.41 464.319,-695.977 435,-669 280.736,-527.057 250.998,-460.381 209,-255 207.219,-246.291 205.466,-243.156 209,-235 214.268,-222.84 224.62,-212.459 234.365,-204.743"/>
<polygon fill="midnightblue" stroke="midnightblue" points="236.644,-207.412 242.63,-198.67 232.499,-201.771 236.644,-207.412"/>
</g>
<!-- Node41&#45;&gt;Node42 -->
<g id="edge119" class="edge"><title>Node41&#45;&gt;Node42</title>
<path fill="none" stroke="midnightblue" d="M888.326,-823.628C1085.6,-814.683 1782.97,-783.064 1976.73,-774.279"/>
<polygon fill="midnightblue" stroke="midnightblue" points="1977.07,-777.767 1986.91,-773.818 1976.76,-770.774 1977.07,-777.767"/>
</g>
<!-- Node42&#45;&gt;Node6 -->
<g id="edge131" class="edge"><title>Node42&#45;&gt;Node6</title>
<path fill="none" stroke="midnightblue" d="M2067.24,-762.724C2124.65,-752.156 2224.86,-732.955 2240,-725 2443.69,-617.979 2492.95,-540.527 2565,-322 2631.01,-121.797 2221.03,-81.496 2102.45,-74.0646"/>
<polygon fill="midnightblue" stroke="midnightblue" points="2102.41,-70.5562 2092.22,-73.4609 2102,-77.5441 2102.41,-70.5562"/>
</g>
<!-- Node42&#45;&gt;Node7 -->
<g id="edge125" class="edge"><title>Node42&#45;&gt;Node7</title>
<path fill="none" stroke="midnightblue" d="M1986.96,-762.855C1982.26,-762.157 1977.53,-761.517 1973,-761 1716.83,-731.768 1650.52,-750.972 1394,-725 1388.97,-724.49 1383.72,-723.881 1378.49,-723.223"/>
<polygon fill="midnightblue" stroke="midnightblue" points="1378.89,-719.746 1368.52,-721.911 1377.98,-726.686 1378.89,-719.746"/>
</g>
<!-- Node42&#45;&gt;Node9 -->
<g id="edge123" class="edge"><title>Node42&#45;&gt;Node9</title>
<path fill="none" stroke="midnightblue" d="M1986.9,-769.655C1852.53,-768.183 1406,-760.738 1039,-725 871.716,-708.71 812.52,-749.543 665,-669 631.276,-650.587 608,-642.423 608,-604 608,-604 608,-604 608,-546 608,-344.042 616.032,-248.831 774,-123 794.091,-106.996 819.637,-95.856 843.562,-88.1968"/>
<polygon fill="midnightblue" stroke="midnightblue" points="844.79,-91.4818 853.341,-85.2257 842.755,-84.7842 844.79,-91.4818"/>
</g>
<!-- Node42&#45;&gt;Node14 -->
<g id="edge126" class="edge"><title>Node42&#45;&gt;Node14</title>
<path fill="none" stroke="midnightblue" d="M2067.12,-763.787C2115.84,-755.977 2200.37,-741.569 2272,-725 2451.87,-683.392 2516.6,-712.671 2672,-613 2709.46,-588.974 2931,-352.002 2931,-307.5 2931,-307.5 2931,-307.5 2931,-188 2931,-149.283 2904.93,-110.104 2888.05,-88.7979"/>
<polygon fill="midnightblue" stroke="midnightblue" points="2890.74,-86.5616 2881.69,-81.0574 2885.33,-91.0057 2890.74,-86.5616"/>
</g>
<!-- Node42&#45;&gt;Node16 -->
<g id="edge120" class="edge"><title>Node42&#45;&gt;Node16</title>
<path fill="none" stroke="midnightblue" d="M2011.99,-761.297C1953.35,-727.31 1739.5,-603.356 1667.7,-561.735"/>
<polygon fill="midnightblue" stroke="midnightblue" points="1669.32,-558.629 1658.91,-556.643 1665.81,-564.685 1669.32,-558.629"/>
</g>
<!-- Node42&#45;&gt;Node25 -->
<g id="edge128" class="edge"><title>Node42&#45;&gt;Node25</title>
<path fill="none" stroke="midnightblue" d="M1986.89,-770.324C1797.33,-771.591 990.34,-773.958 744,-725 674.204,-711.129 648.893,-714.284 594,-669 518.062,-606.354 424.828,-367.606 363,-291 335.82,-257.324 297.91,-223.77 275.563,-205.069"/>
<polygon fill="midnightblue" stroke="midnightblue" points="277.752,-202.337 267.815,-198.66 273.29,-207.731 277.752,-202.337"/>
</g>
<!-- Node42&#45;&gt;Node27 -->
<g id="edge124" class="edge"><title>Node42&#45;&gt;Node27</title>
<path fill="none" stroke="midnightblue" d="M1987,-770.303C1771.32,-771.514 753.497,-771.735 665,-669 551.323,-537.035 760.54,-321.003 823.109,-261.56"/>
<polygon fill="midnightblue" stroke="midnightblue" points="825.711,-263.918 830.607,-254.522 820.92,-258.814 825.711,-263.918"/>
</g>
<!-- Node42&#45;&gt;Node30 -->
<g id="edge130" class="edge"><title>Node42&#45;&gt;Node30</title>
<path fill="none" stroke="midnightblue" d="M1986.71,-770.196C1764.57,-771.085 694.399,-772.839 556,-725 476.69,-697.586 462.173,-673.477 404,-613 362.297,-569.645 354.823,-554.845 328,-501 313.242,-471.373 304,-463.599 304,-430.5 304,-430.5 304,-430.5 304,-367 304,-331.578 297.674,-321.698 280,-291 273.83,-280.284 264.736,-269.963 256.679,-261.915"/>
<polygon fill="midnightblue" stroke="midnightblue" points="258.765,-259.068 249.115,-254.694 253.931,-264.131 258.765,-259.068"/>
</g>
<!-- Node42&#45;&gt;Node32 -->
<g id="edge122" class="edge"><title>Node42&#45;&gt;Node32</title>
<path fill="none" stroke="midnightblue" d="M2066.89,-761.457C2110.08,-751.876 2175.88,-736.213 2199,-725 2242.11,-704.093 2285,-707.911 2285,-660 2285,-660 2285,-660 2285,-546 2285,-424.891 2182.95,-304.679 2142.88,-262.145"/>
<polygon fill="midnightblue" stroke="midnightblue" points="2145.39,-259.71 2135.95,-254.91 2140.34,-264.552 2145.39,-259.71"/>
</g>
<!-- Node42&#45;&gt;Node33 -->
<g id="edge121" class="edge"><title>Node42&#45;&gt;Node33</title>
<path fill="none" stroke="midnightblue" d="M1986.86,-767.135C1849.7,-756.817 1408,-719.009 1408,-660 1408,-660 1408,-660 1408,-490 1408,-409.898 1513.53,-382.809 1587.19,-373.657"/>
<polygon fill="midnightblue" stroke="midnightblue" points="1587.83,-377.107 1597.36,-372.481 1587.02,-370.153 1587.83,-377.107"/>
</g>
<!-- Node42&#45;&gt;Node37 -->
<g id="edge129" class="edge"><title>Node42&#45;&gt;Node37</title>
<path fill="none" stroke="midnightblue" d="M2058.05,-761.467C2118.7,-743.881 2247,-701.742 2247,-660 2247,-660 2247,-660 2247,-602 2247,-542.981 2215.8,-478.273 2199.16,-447.975"/>
<polygon fill="midnightblue" stroke="midnightblue" points="2202.11,-446.069 2194.15,-439.077 2196.01,-449.507 2202.11,-446.069"/>
</g>
<!-- Node42&#45;&gt;Node40 -->
<g id="edge127" class="edge"><title>Node42&#45;&gt;Node40</title>
<path fill="none" stroke="midnightblue" d="M1986.98,-768.211C1875.32,-763.084 1550.92,-747.264 1282,-725 1045.06,-705.383 985.041,-704.796 750,-669 748.897,-668.832 747.781,-668.656 746.655,-668.472"/>
<polygon fill="midnightblue" stroke="midnightblue" points="746.861,-664.955 736.406,-666.666 745.647,-671.848 746.861,-664.955"/>
</g>
<!-- Node43&#45;&gt;Node6 -->
<g id="edge161" class="edge"><title>Node43&#45;&gt;Node6</title>
<path fill="none" stroke="midnightblue" d="M2504.15,-929.455C2531.87,-920.641 2576.1,-906.341 2614,-893 2647.37,-881.256 2887.94,-806.934 2912,-781 2932.47,-758.933 2931,-746.098 2931,-716 2931,-716 2931,-716 2931,-490 2931,-299.369 2886.25,-193.154 2709,-123 2596.64,-78.5313 2214.65,-73.172 2102.32,-72.5657"/>
<polygon fill="midnightblue" stroke="midnightblue" points="2102.03,-69.0645 2092.01,-72.5197 2101.99,-76.0644 2102.03,-69.0645"/>
</g>
<!-- Node43&#45;&gt;Node13 -->
<g id="edge162" class="edge"><title>Node43&#45;&gt;Node13</title>
<path fill="none" stroke="midnightblue" d="M2431.84,-937.919C2170.87,-937.309 853.326,-932.302 450,-893 282.081,-876.637 76,-996.714 76,-828 76,-828 76,-828 76,-367 76,-247.677 82.8992,-179.496 188,-123 239.446,-95.3456 408.722,-80.7757 490.286,-75.2123"/>
<polygon fill="midnightblue" stroke="midnightblue" points="490.978,-78.6741 500.723,-74.5171 490.513,-71.6896 490.978,-78.6741"/>
</g>
<!-- Node43&#45;&gt;Node14 -->
<g id="edge159" class="edge"><title>Node43&#45;&gt;Node14</title>
<path fill="none" stroke="midnightblue" d="M2521.87,-929.428C2563.03,-921.228 2625.53,-907.928 2679,-893 2802.55,-858.504 2862.5,-879.224 2945,-781 2998.61,-717.174 3007,-687.353 3007,-604 3007,-604 3007,-604 3007,-188 3007,-134.575 2945.07,-100.279 2905.72,-83.8839"/>
<polygon fill="midnightblue" stroke="midnightblue" points="2906.85,-80.5629 2896.26,-80.1005 2904.25,-87.0627 2906.85,-80.5629"/>
</g>
<!-- Node43&#45;&gt;Node24 -->
<g id="edge160" class="edge"><title>Node43&#45;&gt;Node24</title>
<path fill="none" stroke="midnightblue" d="M2510.66,-929.483C2554.89,-916.036 2627,-885.321 2627,-828 2627,-828 2627,-828 2627,-714 2627,-592.244 2464.27,-299.504 2361,-235 2319.92,-209.338 2264.25,-198.13 2228.97,-193.361"/>
<polygon fill="midnightblue" stroke="midnightblue" points="2229.07,-189.847 2218.72,-192.079 2228.2,-196.793 2229.07,-189.847"/>
</g>
<!-- Node43&#45;&gt;Node33 -->
<g id="edge138" class="edge"><title>Node43&#45;&gt;Node33</title>
<path fill="none" stroke="midnightblue" d="M2431.97,-937.736C2126.08,-935.723 363.208,-920.513 290,-837 171.274,-701.562 478.93,-708.294 649,-649 917.731,-555.309 1030.84,-652.119 1272,-501 1314.29,-474.499 1299.55,-438.553 1343,-414 1383.49,-391.118 1507.26,-378.841 1586.77,-373.136"/>
<polygon fill="midnightblue" stroke="midnightblue" points="1587.47,-376.595 1597.2,-372.407 1586.98,-369.612 1587.47,-376.595"/>
</g>
<!-- Node43&#45;&gt;Node42 -->
<g id="edge151" class="edge"><title>Node43&#45;&gt;Node42</title>
<path fill="none" stroke="midnightblue" d="M2453.75,-929.425C2379.23,-901.932 2146.09,-815.932 2059.66,-784.05"/>
<polygon fill="midnightblue" stroke="midnightblue" points="2060.7,-780.701 2050.11,-780.524 2058.28,-787.269 2060.7,-780.701"/>
</g>
<!-- Node44 -->
<g id="node44" class="node"><title>Node44</title>
<g id="a_node44"><a xlink:href="bound_8h.html" target="_top" xlink:title="Bound deducers. ">
<polygon fill="white" stroke="black" points="2170,-873.5 2170,-892.5 2272,-892.5 2272,-873.5 2170,-873.5"/>
<text text-anchor="middle" x="2221" y="-880.5" font-family="Helvetica,sans-Serif" font-size="10.00">tvm/arith/bound.h</text>
</a>
</g>
</g>
<!-- Node43&#45;&gt;Node44 -->
<g id="edge139" class="edge"><title>Node43&#45;&gt;Node44</title>
<path fill="none" stroke="midnightblue" d="M2436.44,-929.444C2391.68,-920.004 2319.62,-904.802 2271.3,-894.611"/>
<polygon fill="midnightblue" stroke="midnightblue" points="2271.88,-891.156 2261.37,-892.516 2270.44,-898.005 2271.88,-891.156"/>
</g>
<!-- Node43&#45;&gt;Node46 -->
<g id="edge152" class="edge"><title>Node43&#45;&gt;Node46</title>
<path fill="none" stroke="midnightblue" d="M2431.87,-932.381C2372.42,-924.8 2264.38,-910.411 2162.47,-893.176"/>
<polygon fill="midnightblue" stroke="midnightblue" points="2162.76,-889.674 2152.32,-891.445 2161.59,-896.575 2162.76,-889.674"/>
</g>
<!-- Node44&#45;&gt;Node7 -->
<g id="edge141" class="edge"><title>Node44&#45;&gt;Node7</title>
<path fill="none" stroke="midnightblue" d="M2197.54,-873.376C2174.67,-864.784 2139.05,-850.9 2109,-837 2091.68,-828.987 2089.18,-822.818 2071,-817 1781.8,-724.433 1694.79,-766.587 1394,-725 1388.99,-724.307 1383.76,-723.579 1378.54,-722.85"/>
<polygon fill="midnightblue" stroke="midnightblue" points="1378.97,-719.376 1368.58,-721.454 1377.99,-726.308 1378.97,-719.376"/>
</g>
<!-- Node44&#45;&gt;Node25 -->
<g id="edge150" class="edge"><title>Node44&#45;&gt;Node25</title>
<path fill="none" stroke="midnightblue" d="M2169.97,-874.068C2166.94,-873.683 2163.93,-873.323 2161,-873 1584.82,-809.513 1435.74,-848.35 860,-781 783.509,-772.052 582.901,-766.458 518,-725 470.257,-694.502 342,-434.788 342,-430.5 342,-430.5 342,-430.5 342,-367 342,-302.155 295.069,-235.95 270.951,-206.208"/>
<polygon fill="midnightblue" stroke="midnightblue" points="273.628,-203.954 264.543,-198.503 268.246,-208.43 273.628,-203.954"/>
</g>
<!-- Node44&#45;&gt;Node33 -->
<g id="edge140" class="edge"><title>Node44&#45;&gt;Node33</title>
<path fill="none" stroke="midnightblue" d="M2230.74,-873.326C2254.55,-851.373 2315.37,-790.665 2337,-725 2355.06,-670.151 2228.29,-414.95 2227,-414 2187.52,-385 1870.05,-373.967 1726.75,-370.436"/>
<polygon fill="midnightblue" stroke="midnightblue" points="1726.82,-366.937 1716.74,-370.194 1726.65,-373.935 1726.82,-366.937"/>
</g>
<!-- Node44&#45;&gt;Node41 -->
<g id="edge142" class="edge"><title>Node44&#45;&gt;Node41</title>
<path fill="none" stroke="midnightblue" d="M2169.99,-873.94C2166.95,-873.587 2163.94,-873.269 2161,-873 1676.27,-828.562 1088.16,-826.835 898.29,-827.578"/>
<polygon fill="midnightblue" stroke="midnightblue" points="898.202,-824.078 888.217,-827.621 898.232,-831.078 898.202,-824.078"/>
</g>
<!-- Node44&#45;&gt;Node42 -->
<g id="edge143" class="edge"><title>Node44&#45;&gt;Node42</title>
<path fill="none" stroke="midnightblue" d="M2206.57,-873.475C2185.3,-860.946 2144.24,-836.892 2109,-817 2089.85,-806.19 2068.01,-794.224 2051.69,-785.351"/>
<polygon fill="midnightblue" stroke="midnightblue" points="2053.24,-782.209 2042.78,-780.515 2049.9,-788.361 2053.24,-782.209"/>
</g>
<!-- Node45 -->
<g id="node45" class="node"><title>Node45</title>
<g id="a_node45"><a xlink:href="stmt_8h.html" target="_top" xlink:title="TIR statements. ">
<polygon fill="white" stroke="black" points="2452.5,-817.5 2452.5,-836.5 2535.5,-836.5 2535.5,-817.5 2452.5,-817.5"/>
<text text-anchor="middle" x="2494" y="-824.5" font-family="Helvetica,sans-Serif" font-size="10.00">tvm/tir/stmt.h</text>
</a>
</g>
</g>
<!-- Node44&#45;&gt;Node45 -->
<g id="edge144" class="edge"><title>Node44&#45;&gt;Node45</title>
<path fill="none" stroke="midnightblue" d="M2264.26,-873.444C2312.6,-863.88 2390.84,-848.404 2442.36,-838.215"/>
<polygon fill="midnightblue" stroke="midnightblue" points="2443.16,-841.625 2452.29,-836.251 2441.8,-834.758 2443.16,-841.625"/>
</g>
<!-- Node45&#45;&gt;Node6 -->
<g id="edge149" class="edge"><title>Node45&#45;&gt;Node6</title>
<path fill="none" stroke="midnightblue" d="M2498.93,-817.252C2526.97,-767.218 2665,-516.527 2665,-430.5 2665,-430.5 2665,-430.5 2665,-188 2665,-72.2543 2224.92,-70.1917 2102.35,-71.8618"/>
<polygon fill="midnightblue" stroke="midnightblue" points="2102.09,-68.3654 2092.14,-72.0203 2102.19,-75.3646 2102.09,-68.3654"/>
</g>
<!-- Node45&#45;&gt;Node13 -->
<g id="edge146" class="edge"><title>Node45&#45;&gt;Node13</title>
<path fill="none" stroke="midnightblue" d="M2452.19,-825.115C2194.23,-819.47 824.301,-786.75 649,-725 501.014,-672.872 474.271,-596.643 434,-445 397.572,-307.827 490.57,-142.635 523.757,-89.6996"/>
<polygon fill="midnightblue" stroke="midnightblue" points="526.782,-91.4659 529.213,-81.1538 520.882,-87.6991 526.782,-91.4659"/>
</g>
<!-- Node45&#45;&gt;Node14 -->
<g id="edge147" class="edge"><title>Node45&#45;&gt;Node14</title>
<path fill="none" stroke="midnightblue" d="M2512.62,-817.397C2600.44,-775.408 2969,-582.792 2969,-307.5 2969,-307.5 2969,-307.5 2969,-188 2969,-143.018 2925.49,-106.021 2897.36,-86.8025"/>
<polygon fill="midnightblue" stroke="midnightblue" points="2899.12,-83.7713 2888.84,-81.2 2895.28,-89.6196 2899.12,-83.7713"/>
</g>
<!-- Node45&#45;&gt;Node24 -->
<g id="edge148" class="edge"><title>Node45&#45;&gt;Node24</title>
<path fill="none" stroke="midnightblue" d="M2491.44,-817.249C2486.25,-798.738 2475,-754.179 2475,-716 2475,-716 2475,-716 2475,-490 2475,-425.567 2386.66,-276.055 2337,-235 2328.45,-227.932 2267.58,-210.127 2228.36,-199.15"/>
<polygon fill="midnightblue" stroke="midnightblue" points="2229.23,-195.759 2218.66,-196.45 2227.36,-202.503 2229.23,-195.759"/>
</g>
<!-- Node45&#45;&gt;Node42 -->
<g id="edge145" class="edge"><title>Node45&#45;&gt;Node42</title>
<path fill="none" stroke="midnightblue" d="M2452.44,-819.083C2447.58,-818.344 2442.68,-817.632 2438,-817 2308.14,-799.467 2154.49,-784.057 2077.01,-776.657"/>
<polygon fill="midnightblue" stroke="midnightblue" points="2077.33,-773.172 2067.05,-775.71 2076.67,-780.141 2077.33,-773.172"/>
</g>
<!-- Node46&#45;&gt;Node13 -->
<g id="edge157" class="edge"><title>Node46&#45;&gt;Node13</title>
<path fill="none" stroke="midnightblue" d="M2079.92,-882.297C1883.55,-883.7 941.753,-887.639 656,-837 578.087,-823.193 557.767,-816.401 487,-781 324.802,-699.861 152,-729.361 152,-548 152,-548 152,-548 152,-188 152,-117.988 389.555,-86.6146 490.488,-76.4441"/>
<polygon fill="midnightblue" stroke="midnightblue" points="491.064,-79.9044 500.674,-75.4432 490.38,-72.938 491.064,-79.9044"/>
</g>
<!-- Node46&#45;&gt;Node30 -->
<g id="edge158" class="edge"><title>Node46&#45;&gt;Node30</title>
<path fill="none" stroke="midnightblue" d="M2079.76,-881.553C1876.68,-878.945 884.234,-864.857 751,-837 523.378,-789.407 412.199,-765.391 309,-557 258.295,-454.61 243.847,-315.105 240.153,-264.936"/>
<polygon fill="midnightblue" stroke="midnightblue" points="243.625,-264.399 239.459,-254.658 236.641,-264.871 243.625,-264.399"/>
</g>
<!-- Node46&#45;&gt;Node39 -->
<g id="edge153" class="edge"><title>Node46&#45;&gt;Node39</title>
<path fill="none" stroke="midnightblue" d="M2115.98,-873.354C2115.41,-850.949 2110.58,-790.694 2076,-761 1993.58,-690.225 1655.09,-667.896 1527.74,-661.921"/>
<polygon fill="midnightblue" stroke="midnightblue" points="1527.66,-658.413 1517.51,-661.455 1527.35,-665.406 1527.66,-658.413"/>
</g>
<!-- Node46&#45;&gt;Node40 -->
<g id="edge156" class="edge"><title>Node46&#45;&gt;Node40</title>
<path fill="none" stroke="midnightblue" d="M2079.69,-881.898C1870.82,-881.172 829.804,-875.62 775,-837 722.124,-799.739 709.183,-715.971 706.021,-678.606"/>
<polygon fill="midnightblue" stroke="midnightblue" points="709.51,-678.333 705.32,-668.602 702.527,-678.822 709.51,-678.333"/>
</g>
<!-- Node46&#45;&gt;Node42 -->
<g id="edge154" class="edge"><title>Node46&#45;&gt;Node42</title>
<path fill="none" stroke="midnightblue" d="M2109.02,-873.368C2094.26,-855.135 2059.71,-812.426 2040.49,-788.675"/>
<polygon fill="midnightblue" stroke="midnightblue" points="2042.96,-786.164 2033.95,-780.591 2037.52,-790.567 2042.96,-786.164"/>
</g>
<!-- Node46&#45;&gt;Node45 -->
<g id="edge155" class="edge"><title>Node46&#45;&gt;Node45</title>
<path fill="none" stroke="midnightblue" d="M2152.31,-874.533C2155.25,-873.992 2158.17,-873.474 2161,-873 2260.13,-856.406 2376.65,-841.767 2442.26,-833.966"/>
<polygon fill="midnightblue" stroke="midnightblue" points="2442.82,-837.424 2452.34,-832.774 2442,-830.472 2442.82,-837.424"/>
</g>
<!-- Node47&#45;&gt;Node4 -->
<g id="edge174" class="edge"><title>Node47&#45;&gt;Node4</title>
<path fill="none" stroke="midnightblue" d="M2692.61,-1049.57C2776.93,-1047.85 2939.25,-1039.95 2983,-1005 3007.06,-985.781 3007,-970.795 3007,-940 3007,-940 3007,-940 3007,-882 3007,-827.739 2943.32,-797.976 2897.07,-783.516"/>
<polygon fill="midnightblue" stroke="midnightblue" points="2897.79,-780.077 2887.21,-780.576 2895.79,-786.786 2897.79,-780.077"/>
</g>
<!-- Node47&#45;&gt;Node14 -->
<g id="edge175" class="edge"><title>Node47&#45;&gt;Node14</title>
<path fill="none" stroke="midnightblue" d="M2692.59,-1047.27C2779.48,-1042.07 2950.93,-1029.06 3006,-1005 3047.04,-987.071 3083,-984.785 3083,-940 3083,-940 3083,-940 3083,-882 3083,-806.314 3121,-791.686 3121,-716 3121,-716 3121,-716 3121,-188 3121,-94.3111 2973.37,-76.4515 2906.38,-73.1702"/>
<polygon fill="midnightblue" stroke="midnightblue" points="2906.49,-69.6719 2896.36,-72.7594 2906.2,-76.666 2906.49,-69.6719"/>
</g>
<!-- Node47&#45;&gt;Node25 -->
<g id="edge176" class="edge"><title>Node47&#45;&gt;Node25</title>
<path fill="none" stroke="midnightblue" d="M2589.3,-1049.21C2223.3,-1043.45 38,-1006.31 38,-940 38,-940 38,-940 38,-367 38,-295.235 73.8701,-278.433 131,-235 152.29,-218.814 179.917,-208.085 203.874,-201.178"/>
<polygon fill="midnightblue" stroke="midnightblue" points="204.817,-204.549 213.54,-198.537 202.972,-197.797 204.817,-204.549"/>
</g>
<!-- Node47&#45;&gt;Node42 -->
<g id="edge164" class="edge"><title>Node47&#45;&gt;Node42</title>
<path fill="none" stroke="midnightblue" d="M2664.79,-1041.5C2680.72,-1034.41 2700.46,-1022.61 2710,-1005 2714.23,-997.184 2713,-993.369 2710,-985 2691.44,-933.177 2562.23,-825.116 2544,-817 2461.39,-780.22 2190.46,-773.452 2077.33,-772.244"/>
<polygon fill="midnightblue" stroke="midnightblue" points="2077.24,-768.743 2067.21,-772.146 2077.17,-775.743 2077.24,-768.743"/>
</g>
<!-- Node47&#45;&gt;Node43 -->
<g id="edge165" class="edge"><title>Node47&#45;&gt;Node43</title>
<path fill="none" stroke="midnightblue" d="M2627.72,-1041.46C2613.78,-1032.47 2591.26,-1017.87 2572,-1005 2546.18,-987.749 2516.7,-967.492 2497.52,-954.234"/>
<polygon fill="midnightblue" stroke="midnightblue" points="2499.45,-951.314 2489.24,-948.501 2495.47,-957.07 2499.45,-951.314"/>
</g>
<!-- Node48 -->
<g id="node48" class="node"><title>Node48</title>
<g id="a_node48"><a xlink:href="tensor__intrin_8h.html" target="_top" xlink:title="Tensor intrinsic operations. ">
<polygon fill="white" stroke="black" points="2581,-985.5 2581,-1004.5 2701,-1004.5 2701,-985.5 2581,-985.5"/>
<text text-anchor="middle" x="2641" y="-992.5" font-family="Helvetica,sans-Serif" font-size="10.00">tvm/te/tensor_intrin.h</text>
</a>
</g>
</g>
<!-- Node47&#45;&gt;Node48 -->
<g id="edge166" class="edge"><title>Node47&#45;&gt;Node48</title>
<path fill="none" stroke="midnightblue" d="M2641,-1041.08C2641,-1034.01 2641,-1023.86 2641,-1014.99"/>
<polygon fill="midnightblue" stroke="midnightblue" points="2644.5,-1014.75 2641,-1004.75 2637.5,-1014.75 2644.5,-1014.75"/>
</g>
<!-- Node48&#45;&gt;Node14 -->
<g id="edge173" class="edge"><title>Node48&#45;&gt;Node14</title>
<path fill="none" stroke="midnightblue" d="M2701.05,-990.142C2813.59,-981.256 3045,-954.421 3045,-884 3045,-884 3045,-884 3045,-826 3045,-750.314 3083,-735.686 3083,-660 3083,-660 3083,-660 3083,-188 3083,-108.383 2965.38,-83.2204 2906.61,-75.6169"/>
<polygon fill="midnightblue" stroke="midnightblue" points="2906.71,-72.1038 2896.37,-74.3923 2905.88,-79.0543 2906.71,-72.1038"/>
</g>
<!-- Node48&#45;&gt;Node43 -->
<g id="edge167" class="edge"><title>Node48&#45;&gt;Node43</title>
<path fill="none" stroke="midnightblue" d="M2615.01,-985.444C2587.3,-976.32 2543.25,-961.813 2512.38,-951.651"/>
<polygon fill="midnightblue" stroke="midnightblue" points="2513.46,-948.32 2502.86,-948.516 2511.27,-954.968 2513.46,-948.32"/>
</g>
<!-- Node48&#45;&gt;Node49 -->
<g id="edge168" class="edge"><title>Node48&#45;&gt;Node49</title>
<path fill="none" stroke="midnightblue" d="M2636.21,-985.083C2632.24,-977.691 2626.47,-966.953 2621.57,-957.811"/>
<polygon fill="midnightblue" stroke="midnightblue" points="2624.51,-955.905 2616.7,-948.751 2618.35,-959.217 2624.51,-955.905"/>
</g>
<!-- Node49&#45;&gt;Node14 -->
<g id="edge172" class="edge"><title>Node49&#45;&gt;Node14</title>
<path fill="none" stroke="midnightblue" d="M2655.53,-935.608C2727.14,-930.98 2865.98,-918.888 2907,-893 3027.37,-817.033 3045,-746.337 3045,-604 3045,-604 3045,-604 3045,-188 3045,-157.205 3043.02,-144.526 3021,-123 2989.74,-92.4484 2939.19,-80.3412 2906.28,-75.5689"/>
<polygon fill="midnightblue" stroke="midnightblue" points="2906.62,-72.0847 2896.26,-74.2631 2905.72,-79.026 2906.62,-72.0847"/>
</g>
<!-- Node49&#45;&gt;Node33 -->
<g id="edge169" class="edge"><title>Node49&#45;&gt;Node33</title>
<path fill="none" stroke="midnightblue" d="M2609.38,-929.363C2591.17,-871.14 2477.54,-534.613 2249,-414 2203.82,-390.157 1873.61,-376.256 1726.91,-371.197"/>
<polygon fill="midnightblue" stroke="midnightblue" points="1726.78,-367.691 1716.67,-370.848 1726.54,-374.687 1726.78,-367.691"/>
</g>
<!-- Node49&#45;&gt;Node42 -->
<g id="edge170" class="edge"><title>Node49&#45;&gt;Node42</title>
<path fill="none" stroke="midnightblue" d="M2582.12,-929.459C2512.75,-909.634 2335.37,-858.987 2187,-817 2146.29,-805.479 2099.72,-792.393 2067.36,-783.314"/>
<polygon fill="midnightblue" stroke="midnightblue" points="2067.96,-779.845 2057.38,-780.514 2066.07,-786.585 2067.96,-779.845"/>
</g>
<!-- Node49&#45;&gt;Node46 -->
<g id="edge171" class="edge"><title>Node49&#45;&gt;Node46</title>
<path fill="none" stroke="midnightblue" d="M2568.29,-933.033C2556.22,-931.691 2543.1,-930.261 2531,-929 2369.88,-912.211 2326.13,-917.031 2162.23,-893.052"/>
<polygon fill="midnightblue" stroke="midnightblue" points="2162.7,-889.583 2152.29,-891.584 2161.68,-896.507 2162.7,-889.583"/>
</g>
<!-- Node50&#45;&gt;Node14 -->
<g id="edge184" class="edge"><title>Node50&#45;&gt;Node14</title>
<path fill="none" stroke="midnightblue" d="M3257.43,-1041.48C3254.18,-1023.04 3247,-978.037 3247,-940 3247,-940 3247,-940 3247,-188 3247,-154.976 3238.13,-141.834 3211,-123 3162.02,-88.9932 2981.21,-77.2299 2906.57,-73.7656"/>
<polygon fill="midnightblue" stroke="midnightblue" points="2906.5,-70.2591 2896.35,-73.313 2906.19,-77.2522 2906.5,-70.2591"/>
</g>
</g>
</svg>
