<?xml version="1.0" encoding="UTF-8" standalone="no"?>
<!DOCTYPE svg PUBLIC "-//W3C//DTD SVG 1.1//EN"
 "http://www.w3.org/Graphics/SVG/1.1/DTD/svg11.dtd">
<!-- Generated by graphviz version 2.38.0 (20140413.2041)
 -->
<!-- Title: include/tvm/node/reflection.h Pages: 1 -->
<svg width="1825pt" height="509pt"
 viewBox="0.00 0.00 1825.00 509.00" xmlns="http://www.w3.org/2000/svg" xmlns:xlink="http://www.w3.org/1999/xlink">
<g id="graph0" class="graph" transform="scale(1 1) rotate(0) translate(4 505)">
<title>include/tvm/node/reflection.h</title>
<polygon fill="white" stroke="none" points="-4,4 -4,-505 1821,-505 1821,4 -4,4"/>
<!-- Node1 -->
<g id="node1" class="node"><title>Node1</title>
<polygon fill="#bfbfbf" stroke="black" points="949.5,-481.5 949.5,-500.5 1104.5,-500.5 1104.5,-481.5 949.5,-481.5"/>
<text text-anchor="middle" x="1027" y="-488.5" font-family="Helvetica,sans-Serif" font-size="10.00">include/tvm/node/reflection.h</text>
</g>
<!-- Node2 -->
<g id="node2" class="node"><title>Node2</title>
<g id="a_node2"><a xlink:href="c__runtime__api_8h.html" target="_top" xlink:title="tvm/runtime/c_runtime\l_api.h">
<polygon fill="white" stroke="black" points="162.5,-56.5 162.5,-86.5 289.5,-86.5 289.5,-56.5 162.5,-56.5"/>
<text text-anchor="start" x="170.5" y="-74.5" font-family="Helvetica,sans-Serif" font-size="10.00">tvm/runtime/c_runtime</text>
<text text-anchor="middle" x="226" y="-63.5" font-family="Helvetica,sans-Serif" font-size="10.00">_api.h</text>
</a>
</g>
</g>
<!-- Node1&#45;&gt;Node2 -->
<g id="edge1" class="edge"><title>Node1&#45;&gt;Node2</title>
<path fill="none" stroke="midnightblue" d="M949.387,-488.99C710.133,-484.857 0,-464.545 0,-369 0,-369 0,-369 0,-188 0,-118.217 86.4918,-90.5716 152.462,-79.6347"/>
<polygon fill="midnightblue" stroke="midnightblue" points="153.103,-83.0771 162.445,-78.079 152.025,-76.1606 153.103,-83.0771"/>
</g>
<!-- Node6 -->
<g id="node6" class="node"><title>Node6</title>
<g id="a_node6"><a xlink:href="object_8h.html" target="_top" xlink:title="A managed object in the TVM runtime. ">
<polygon fill="white" stroke="black" points="777.5,-123.5 777.5,-142.5 894.5,-142.5 894.5,-123.5 777.5,-123.5"/>
<text text-anchor="middle" x="836" y="-130.5" font-family="Helvetica,sans-Serif" font-size="10.00">tvm/runtime/object.h</text>
</a>
</g>
</g>
<!-- Node1&#45;&gt;Node6 -->
<g id="edge5" class="edge"><title>Node1&#45;&gt;Node6</title>
<path fill="none" stroke="midnightblue" d="M1030.86,-481.386C1050.8,-436.254 1139.73,-227.296 1099,-179 1074.59,-150.059 974.126,-139.73 904.684,-136.044"/>
<polygon fill="midnightblue" stroke="midnightblue" points="904.837,-132.548 894.676,-135.547 904.49,-139.539 904.837,-132.548"/>
</g>
<!-- Node8 -->
<g id="node8" class="node"><title>Node8</title>
<polygon fill="white" stroke="#bfbfbf" points="1377,-62 1377,-81 1445,-81 1445,-62 1377,-62"/>
<text text-anchor="middle" x="1411" y="-69" font-family="Helvetica,sans-Serif" font-size="10.00">type_traits</text>
</g>
<!-- Node1&#45;&gt;Node8 -->
<g id="edge83" class="edge"><title>Node1&#45;&gt;Node8</title>
<path fill="none" stroke="midnightblue" d="M1104.55,-488.593C1242.28,-485.349 1523.84,-475.148 1617,-445 1678.5,-425.098 1741,-433.639 1741,-369 1741,-369 1741,-369 1741,-305.5 1741,-167.062 1544.8,-103.586 1454.97,-81.777"/>
<polygon fill="midnightblue" stroke="midnightblue" points="1455.61,-78.3323 1445.07,-79.4393 1454,-85.1448 1455.61,-78.3323"/>
</g>
<!-- Node9 -->
<g id="node9" class="node"><title>Node9</title>
<polygon fill="white" stroke="#bfbfbf" points="1579,-62 1579,-81 1623,-81 1623,-62 1579,-62"/>
<text text-anchor="middle" x="1601" y="-69" font-family="Helvetica,sans-Serif" font-size="10.00">string</text>
</g>
<!-- Node1&#45;&gt;Node9 -->
<g id="edge82" class="edge"><title>Node1&#45;&gt;Node9</title>
<path fill="none" stroke="midnightblue" d="M1104.56,-488.983C1254.08,-486.317 1576.83,-476.939 1683,-445 1748.57,-425.277 1817,-437.468 1817,-369 1817,-369 1817,-369 1817,-188 1817,-105.762 1693.74,-81.8614 1633.44,-75.0895"/>
<polygon fill="midnightblue" stroke="midnightblue" points="1633.61,-71.5882 1623.3,-74.046 1632.89,-78.5515 1633.61,-71.5882"/>
</g>
<!-- Node12 -->
<g id="node12" class="node"><title>Node12</title>
<g id="a_node12"><a xlink:href="runtime_2memory_8h.html" target="_top" xlink:title="Runtime memory management. ">
<polygon fill="white" stroke="black" points="596.5,-179.5 596.5,-198.5 723.5,-198.5 723.5,-179.5 596.5,-179.5"/>
<text text-anchor="middle" x="660" y="-186.5" font-family="Helvetica,sans-Serif" font-size="10.00">tvm/runtime/memory.h</text>
</a>
</g>
</g>
<!-- Node1&#45;&gt;Node12 -->
<g id="edge12" class="edge"><title>Node1&#45;&gt;Node12</title>
<path fill="none" stroke="midnightblue" d="M949.409,-483.679C776.172,-468.525 373,-427.023 373,-369 373,-369 373,-369 373,-305.5 373,-256.082 521.296,-218.03 604.69,-200.538"/>
<polygon fill="midnightblue" stroke="midnightblue" points="605.438,-203.957 614.524,-198.507 604.023,-197.102 605.438,-203.957"/>
</g>
<!-- Node14 -->
<g id="node14" class="node"><title>Node14</title>
<g id="a_node14"><a xlink:href="packed__func_8h.html" target="_top" xlink:title="Type&#45;erased function used across TVM API. ">
<polygon fill="white" stroke="black" points="818.5,-291.5 818.5,-321.5 931.5,-321.5 931.5,-291.5 818.5,-291.5"/>
<text text-anchor="start" x="826.5" y="-309.5" font-family="Helvetica,sans-Serif" font-size="10.00">tvm/runtime/packed</text>
<text text-anchor="middle" x="875" y="-298.5" font-family="Helvetica,sans-Serif" font-size="10.00">_func.h</text>
</a>
</g>
</g>
<!-- Node1&#45;&gt;Node14 -->
<g id="edge17" class="edge"><title>Node1&#45;&gt;Node14</title>
<path fill="none" stroke="midnightblue" d="M1015.58,-481.372C1004.58,-472.776 987.763,-458.89 975,-445 940.73,-407.702 907.471,-358.625 889.266,-330.319"/>
<polygon fill="midnightblue" stroke="midnightblue" points="892.013,-328.117 883.689,-321.563 886.109,-331.878 892.013,-328.117"/>
</g>
<!-- Node18 -->
<g id="node18" class="node"><title>Node18</title>
<polygon fill="white" stroke="#bfbfbf" points="932.5,-179.5 932.5,-198.5 979.5,-198.5 979.5,-179.5 932.5,-179.5"/>
<text text-anchor="middle" x="956" y="-186.5" font-family="Helvetica,sans-Serif" font-size="10.00">vector</text>
</g>
<!-- Node1&#45;&gt;Node18 -->
<g id="edge81" class="edge"><title>Node1&#45;&gt;Node18</title>
<path fill="none" stroke="midnightblue" d="M1022.34,-481.485C1012.19,-462.119 989,-413.037 989,-369 989,-369 989,-369 989,-305.5 989,-269.854 974.288,-230.317 964.51,-207.977"/>
<polygon fill="midnightblue" stroke="midnightblue" points="967.637,-206.398 960.314,-198.741 961.264,-209.293 967.637,-206.398"/>
</g>
<!-- Node20 -->
<g id="node20" class="node"><title>Node20</title>
<g id="a_node20"><a xlink:href="ndarray_8h.html" target="_top" xlink:title="A device&#45;independent managed NDArray abstraction. ">
<polygon fill="white" stroke="black" points="221.5,-235.5 221.5,-254.5 344.5,-254.5 344.5,-235.5 221.5,-235.5"/>
<text text-anchor="middle" x="283" y="-242.5" font-family="Helvetica,sans-Serif" font-size="10.00">tvm/runtime/ndarray.h</text>
</a>
</g>
</g>
<!-- Node1&#45;&gt;Node20 -->
<g id="edge54" class="edge"><title>Node1&#45;&gt;Node20</title>
<path fill="none" stroke="midnightblue" d="M949.313,-489.414C783.355,-487.5 405.499,-479.377 359,-445 299.869,-401.284 286.744,-305.423 283.831,-264.795"/>
<polygon fill="midnightblue" stroke="midnightblue" points="287.318,-264.463 283.241,-254.684 280.33,-264.871 287.318,-264.463"/>
</g>
<!-- Node23 -->
<g id="node23" class="node"><title>Node23</title>
<g id="a_node23"><a xlink:href="data__type_8h.html" target="_top" xlink:title="tvm/runtime/data_type.h">
<polygon fill="white" stroke="black" points="1381,-235.5 1381,-254.5 1517,-254.5 1517,-235.5 1381,-235.5"/>
<text text-anchor="middle" x="1449" y="-242.5" font-family="Helvetica,sans-Serif" font-size="10.00">tvm/runtime/data_type.h</text>
</a>
</g>
</g>
<!-- Node1&#45;&gt;Node23 -->
<g id="edge55" class="edge"><title>Node1&#45;&gt;Node23</title>
<path fill="none" stroke="midnightblue" d="M1104.62,-486.625C1184.42,-481.801 1302.08,-470.507 1339,-445 1403.72,-400.29 1434.33,-304.613 1444.72,-264.402"/>
<polygon fill="midnightblue" stroke="midnightblue" points="1448.14,-265.166 1447.13,-254.619 1441.34,-263.494 1448.14,-265.166"/>
</g>
<!-- Node27 -->
<g id="node27" class="node"><title>Node27</title>
<g id="a_node27"><a xlink:href="structural__equal_8h.html" target="_top" xlink:title="Structural equality comparison. ">
<polygon fill="white" stroke="black" points="1219.5,-414.5 1219.5,-444.5 1330.5,-444.5 1330.5,-414.5 1219.5,-414.5"/>
<text text-anchor="start" x="1227.5" y="-432.5" font-family="Helvetica,sans-Serif" font-size="10.00">tvm/node/structural</text>
<text text-anchor="middle" x="1275" y="-421.5" font-family="Helvetica,sans-Serif" font-size="10.00">_equal.h</text>
</a>
</g>
</g>
<!-- Node1&#45;&gt;Node27 -->
<g id="edge56" class="edge"><title>Node1&#45;&gt;Node27</title>
<path fill="none" stroke="midnightblue" d="M1062.53,-481.475C1100.79,-472.295 1162.51,-457.49 1209.59,-446.194"/>
<polygon fill="midnightblue" stroke="midnightblue" points="1210.49,-449.577 1219.4,-443.84 1208.86,-442.77 1210.49,-449.577"/>
</g>
<!-- Node31 -->
<g id="node31" class="node"><title>Node31</title>
<g id="a_node31"><a xlink:href="structural__hash_8h.html" target="_top" xlink:title="tvm/node/structural\l_hash.h">
<polygon fill="white" stroke="black" points="1497.5,-414.5 1497.5,-444.5 1608.5,-444.5 1608.5,-414.5 1497.5,-414.5"/>
<text text-anchor="start" x="1505.5" y="-432.5" font-family="Helvetica,sans-Serif" font-size="10.00">tvm/node/structural</text>
<text text-anchor="middle" x="1553" y="-421.5" font-family="Helvetica,sans-Serif" font-size="10.00">_hash.h</text>
</a>
</g>
</g>
<!-- Node1&#45;&gt;Node31 -->
<g id="edge75" class="edge"><title>Node1&#45;&gt;Node31</title>
<path fill="none" stroke="midnightblue" d="M1104.77,-484.845C1195.79,-478.23 1350.88,-465.145 1483,-445 1484.46,-444.778 1485.93,-444.545 1487.41,-444.303"/>
<polygon fill="midnightblue" stroke="midnightblue" points="1488.06,-447.744 1497.31,-442.59 1486.86,-440.847 1488.06,-447.744"/>
</g>
<!-- Node3 -->
<g id="node3" class="node"><title>Node3</title>
<polygon fill="white" stroke="#bfbfbf" points="91,-0.5 91,-19.5 181,-19.5 181,-0.5 91,-0.5"/>
<text text-anchor="middle" x="136" y="-7.5" font-family="Helvetica,sans-Serif" font-size="10.00">dlpack/dlpack.h</text>
</g>
<!-- Node2&#45;&gt;Node3 -->
<g id="edge2" class="edge"><title>Node2&#45;&gt;Node3</title>
<path fill="none" stroke="midnightblue" d="M204.671,-56.3993C190.515,-47.0402 171.989,-34.7924 157.747,-25.3771"/>
<polygon fill="midnightblue" stroke="midnightblue" points="159.368,-22.2531 149.096,-19.6578 155.507,-28.0923 159.368,-22.2531"/>
</g>
<!-- Node4 -->
<g id="node4" class="node"><title>Node4</title>
<polygon fill="white" stroke="#bfbfbf" points="199.5,-0.5 199.5,-19.5 252.5,-19.5 252.5,-0.5 199.5,-0.5"/>
<text text-anchor="middle" x="226" y="-7.5" font-family="Helvetica,sans-Serif" font-size="10.00">stdint.h</text>
</g>
<!-- Node2&#45;&gt;Node4 -->
<g id="edge3" class="edge"><title>Node2&#45;&gt;Node4</title>
<path fill="none" stroke="midnightblue" d="M226,-56.3993C226,-48.4664 226,-38.458 226,-29.8583"/>
<polygon fill="midnightblue" stroke="midnightblue" points="229.5,-29.6577 226,-19.6578 222.5,-29.6578 229.5,-29.6577"/>
</g>
<!-- Node5 -->
<g id="node5" class="node"><title>Node5</title>
<polygon fill="white" stroke="#bfbfbf" points="270.5,-0.5 270.5,-19.5 325.5,-19.5 325.5,-0.5 270.5,-0.5"/>
<text text-anchor="middle" x="298" y="-7.5" font-family="Helvetica,sans-Serif" font-size="10.00">stddef.h</text>
</g>
<!-- Node2&#45;&gt;Node5 -->
<g id="edge4" class="edge"><title>Node2&#45;&gt;Node5</title>
<path fill="none" stroke="midnightblue" d="M243.063,-56.3993C254.065,-47.3076 268.365,-35.4899 279.618,-26.1909"/>
<polygon fill="midnightblue" stroke="midnightblue" points="282.044,-28.726 287.523,-19.6578 277.585,-23.33 282.044,-28.726"/>
</g>
<!-- Node6&#45;&gt;Node2 -->
<g id="edge7" class="edge"><title>Node6&#45;&gt;Node2</title>
<path fill="none" stroke="midnightblue" d="M777.234,-126.268C665.417,-115.361 422.29,-91.6463 299.746,-79.6933"/>
<polygon fill="midnightblue" stroke="midnightblue" points="299.995,-76.201 289.703,-78.7136 299.316,-83.168 299.995,-76.201"/>
</g>
<!-- Node7 -->
<g id="node7" class="node"><title>Node7</title>
<polygon fill="white" stroke="#bfbfbf" points="1048,-62 1048,-81 1134,-81 1134,-62 1048,-62"/>
<text text-anchor="middle" x="1091" y="-69" font-family="Helvetica,sans-Serif" font-size="10.00">dmlc/logging.h</text>
</g>
<!-- Node6&#45;&gt;Node7 -->
<g id="edge6" class="edge"><title>Node6&#45;&gt;Node7</title>
<path fill="none" stroke="midnightblue" d="M872.535,-123.475C917.886,-112.893 995.276,-94.8356 1044.73,-83.2966"/>
<polygon fill="midnightblue" stroke="midnightblue" points="1045.59,-86.6899 1054.53,-81.0091 1044,-79.873 1045.59,-86.6899"/>
</g>
<!-- Node6&#45;&gt;Node8 -->
<g id="edge8" class="edge"><title>Node6&#45;&gt;Node8</title>
<path fill="none" stroke="midnightblue" d="M894.565,-125.94C1009.95,-114 1264.37,-87.6726 1366.9,-77.0635"/>
<polygon fill="midnightblue" stroke="midnightblue" points="1367.33,-80.5381 1376.91,-76.0273 1366.61,-73.5752 1367.33,-80.5381"/>
</g>
<!-- Node6&#45;&gt;Node9 -->
<g id="edge9" class="edge"><title>Node6&#45;&gt;Node9</title>
<path fill="none" stroke="midnightblue" d="M894.835,-128.22C1004.75,-121.046 1248.75,-104.593 1454,-87 1493.37,-83.6256 1538.6,-79.0605 1568.37,-75.9604"/>
<polygon fill="midnightblue" stroke="midnightblue" points="1569.02,-79.4116 1578.6,-74.8895 1568.29,-72.4497 1569.02,-79.4116"/>
</g>
<!-- Node10 -->
<g id="node10" class="node"><title>Node10</title>
<polygon fill="white" stroke="#bfbfbf" points="709,-62 709,-81 751,-81 751,-62 709,-62"/>
<text text-anchor="middle" x="730" y="-69" font-family="Helvetica,sans-Serif" font-size="10.00">utility</text>
</g>
<!-- Node6&#45;&gt;Node10 -->
<g id="edge10" class="edge"><title>Node6&#45;&gt;Node10</title>
<path fill="none" stroke="midnightblue" d="M820.813,-123.475C803.338,-113.666 774.421,-97.4346 753.917,-85.925"/>
<polygon fill="midnightblue" stroke="midnightblue" points="755.592,-82.8519 745.159,-81.0091 752.166,-88.956 755.592,-82.8519"/>
</g>
<!-- Node11 -->
<g id="node11" class="node"><title>Node11</title>
<polygon fill="white" stroke="#bfbfbf" points="479,-62 479,-81 529,-81 529,-62 479,-62"/>
<text text-anchor="middle" x="504" y="-69" font-family="Helvetica,sans-Serif" font-size="10.00">atomic</text>
</g>
<!-- Node6&#45;&gt;Node11 -->
<g id="edge11" class="edge"><title>Node6&#45;&gt;Node11</title>
<path fill="none" stroke="midnightblue" d="M788.432,-123.475C721.114,-111.41 599.573,-89.6283 539.534,-78.8684"/>
<polygon fill="midnightblue" stroke="midnightblue" points="539.871,-75.373 529.41,-77.0539 538.636,-82.2632 539.871,-75.373"/>
</g>
<!-- Node12&#45;&gt;Node6 -->
<g id="edge13" class="edge"><title>Node12&#45;&gt;Node6</title>
<path fill="none" stroke="midnightblue" d="M687.888,-179.444C717.754,-170.28 765.315,-155.688 798.456,-145.519"/>
<polygon fill="midnightblue" stroke="midnightblue" points="799.709,-148.796 808.243,-142.516 797.656,-142.104 799.709,-148.796"/>
</g>
<!-- Node12&#45;&gt;Node8 -->
<g id="edge16" class="edge"><title>Node12&#45;&gt;Node8</title>
<path fill="none" stroke="midnightblue" d="M715.528,-179.46C858.587,-157.458 1237.58,-99.1709 1366.98,-79.2704"/>
<polygon fill="midnightblue" stroke="midnightblue" points="1367.58,-82.7191 1376.93,-77.7396 1366.52,-75.8004 1367.58,-82.7191"/>
</g>
<!-- Node12&#45;&gt;Node10 -->
<g id="edge15" class="edge"><title>Node12&#45;&gt;Node10</title>
<path fill="none" stroke="midnightblue" d="M666.438,-179.207C672.899,-170.258 683.011,-155.907 691,-143 701.782,-125.582 712.991,-105.02 720.61,-90.6115"/>
<polygon fill="midnightblue" stroke="midnightblue" points="723.927,-91.823 725.466,-81.3407 717.726,-88.575 723.927,-91.823"/>
</g>
<!-- Node13 -->
<g id="node13" class="node"><title>Node13</title>
<polygon fill="white" stroke="#bfbfbf" points="635.5,-123.5 635.5,-142.5 682.5,-142.5 682.5,-123.5 635.5,-123.5"/>
<text text-anchor="middle" x="659" y="-130.5" font-family="Helvetica,sans-Serif" font-size="10.00">cstdlib</text>
</g>
<!-- Node12&#45;&gt;Node13 -->
<g id="edge14" class="edge"><title>Node12&#45;&gt;Node13</title>
<path fill="none" stroke="midnightblue" d="M659.835,-179.083C659.704,-172.006 659.516,-161.861 659.352,-152.986"/>
<polygon fill="midnightblue" stroke="midnightblue" points="662.847,-152.685 659.162,-142.751 655.848,-152.814 662.847,-152.685"/>
</g>
<!-- Node14&#45;&gt;Node2 -->
<g id="edge19" class="edge"><title>Node14&#45;&gt;Node2</title>
<path fill="none" stroke="midnightblue" d="M818.37,-306.382C702.907,-307.047 432.559,-302.806 212,-255 141.232,-239.661 100.48,-258.354 59,-199 41.4993,-173.958 75.5716,-133.942 88,-123 106.263,-106.921 130.072,-95.8137 152.76,-88.2049"/>
<polygon fill="midnightblue" stroke="midnightblue" points="153.919,-91.5094 162.396,-85.1539 151.805,-84.836 153.919,-91.5094"/>
</g>
<!-- Node14&#45;&gt;Node6 -->
<g id="edge45" class="edge"><title>Node14&#45;&gt;Node6</title>
<path fill="none" stroke="midnightblue" d="M871.808,-291.465C864.813,-260.704 848.127,-187.329 840.253,-152.7"/>
<polygon fill="midnightblue" stroke="midnightblue" points="843.577,-151.535 837.947,-142.56 836.751,-153.087 843.577,-151.535"/>
</g>
<!-- Node14&#45;&gt;Node7 -->
<g id="edge18" class="edge"><title>Node14&#45;&gt;Node7</title>
<path fill="none" stroke="midnightblue" d="M877.376,-291.11C882.149,-265.957 894.939,-213.402 923,-179 960.069,-133.555 1021.89,-101.537 1059.31,-85.1306"/>
<polygon fill="midnightblue" stroke="midnightblue" points="1060.9,-88.2564 1068.72,-81.1078 1058.15,-81.8197 1060.9,-88.2564"/>
</g>
<!-- Node14&#45;&gt;Node8 -->
<g id="edge53" class="edge"><title>Node14&#45;&gt;Node8</title>
<path fill="none" stroke="midnightblue" d="M931.669,-301.389C1039.2,-293.197 1264.86,-273.985 1295,-255 1357.45,-215.662 1392.39,-129.115 1405.25,-91.0666"/>
<polygon fill="midnightblue" stroke="midnightblue" points="1408.66,-91.9008 1408.41,-81.3087 1402,-89.7402 1408.66,-91.9008"/>
</g>
<!-- Node14&#45;&gt;Node9 -->
<g id="edge49" class="edge"><title>Node14&#45;&gt;Node9</title>
<path fill="none" stroke="midnightblue" d="M931.619,-302.375C1035.3,-296.115 1251.47,-280.418 1322,-255 1432.04,-215.347 1542.2,-124.579 1583.73,-88.1017"/>
<polygon fill="midnightblue" stroke="midnightblue" points="1586.15,-90.6263 1591.31,-81.3699 1581.51,-85.3915 1586.15,-90.6263"/>
</g>
<!-- Node14&#45;&gt;Node10 -->
<g id="edge52" class="edge"><title>Node14&#45;&gt;Node10</title>
<path fill="none" stroke="midnightblue" d="M818.458,-302.218C702.357,-294.097 444.01,-268.435 397,-199 360.518,-145.115 609.047,-94.3377 698.653,-77.9726"/>
<polygon fill="midnightblue" stroke="midnightblue" points="699.543,-81.3687 708.763,-76.1495 698.301,-74.4798 699.543,-81.3687"/>
</g>
<!-- Node15 -->
<g id="node15" class="node"><title>Node15</title>
<g id="a_node15"><a xlink:href="runtime_2module_8h.html" target="_top" xlink:title="Runtime container of the functions generated by TVM, This is used to support dynamically link...">
<polygon fill="white" stroke="black" points="603,-235.5 603,-254.5 727,-254.5 727,-235.5 603,-235.5"/>
<text text-anchor="middle" x="665" y="-242.5" font-family="Helvetica,sans-Serif" font-size="10.00">tvm/runtime/module.h</text>
</a>
</g>
</g>
<!-- Node14&#45;&gt;Node15 -->
<g id="edge20" class="edge"><title>Node14&#45;&gt;Node15</title>
<path fill="none" stroke="midnightblue" d="M819.669,-291.475C781.784,-281.12 732.773,-267.199 700.119,-257.498"/>
<polygon fill="midnightblue" stroke="midnightblue" points="700.71,-254.021 690.126,-254.506 698.702,-260.727 700.71,-254.021"/>
</g>
<!-- Node17 -->
<g id="node17" class="node"><title>Node17</title>
<polygon fill="white" stroke="#bfbfbf" points="406.5,-179.5 406.5,-198.5 463.5,-198.5 463.5,-179.5 406.5,-179.5"/>
<text text-anchor="middle" x="435" y="-186.5" font-family="Helvetica,sans-Serif" font-size="10.00">memory</text>
</g>
<!-- Node14&#45;&gt;Node17 -->
<g id="edge51" class="edge"><title>Node14&#45;&gt;Node17</title>
<path fill="none" stroke="midnightblue" d="M818.485,-298.897C761.164,-291.377 670.272,-277.176 594,-255 546.197,-241.101 493.128,-217.69 461.988,-203.082"/>
<polygon fill="midnightblue" stroke="midnightblue" points="463.217,-199.792 452.682,-198.672 460.219,-206.117 463.217,-199.792"/>
</g>
<!-- Node14&#45;&gt;Node18 -->
<g id="edge48" class="edge"><title>Node14&#45;&gt;Node18</title>
<path fill="none" stroke="midnightblue" d="M892.593,-291.442C903.547,-282.012 917.342,-268.823 927,-255 937.164,-240.453 945.05,-221.772 950.016,-208.173"/>
<polygon fill="midnightblue" stroke="midnightblue" points="953.39,-209.127 953.36,-198.532 946.776,-206.833 953.39,-209.127"/>
</g>
<!-- Node14&#45;&gt;Node20 -->
<g id="edge30" class="edge"><title>Node14&#45;&gt;Node20</title>
<path fill="none" stroke="midnightblue" d="M818.237,-299.795C709.973,-288.914 474.175,-265.214 355.008,-253.237"/>
<polygon fill="midnightblue" stroke="midnightblue" points="355.192,-249.738 344.892,-252.221 354.492,-256.703 355.192,-249.738"/>
</g>
<!-- Node14&#45;&gt;Node23 -->
<g id="edge41" class="edge"><title>Node14&#45;&gt;Node23</title>
<path fill="none" stroke="midnightblue" d="M931.833,-299.798C1023.45,-290.576 1209.46,-271.73 1367,-255 1368.28,-254.864 1369.57,-254.726 1370.88,-254.587"/>
<polygon fill="midnightblue" stroke="midnightblue" points="1371.42,-258.049 1380.99,-253.502 1370.67,-251.089 1371.42,-258.049"/>
</g>
<!-- Node24 -->
<g id="node24" class="node"><title>Node24</title>
<polygon fill="white" stroke="#bfbfbf" points="1649.5,-235.5 1649.5,-254.5 1712.5,-254.5 1712.5,-235.5 1649.5,-235.5"/>
<text text-anchor="middle" x="1681" y="-242.5" font-family="Helvetica,sans-Serif" font-size="10.00">functional</text>
</g>
<!-- Node14&#45;&gt;Node24 -->
<g id="edge46" class="edge"><title>Node14&#45;&gt;Node24</title>
<path fill="none" stroke="midnightblue" d="M931.676,-301.316C1084.83,-290.01 1504.49,-259.03 1638.95,-249.104"/>
<polygon fill="midnightblue" stroke="midnightblue" points="1639.52,-252.571 1649.24,-248.345 1639.01,-245.59 1639.52,-252.571"/>
</g>
<!-- Node25 -->
<g id="node25" class="node"><title>Node25</title>
<polygon fill="white" stroke="#bfbfbf" points="745.5,-235.5 745.5,-254.5 786.5,-254.5 786.5,-235.5 745.5,-235.5"/>
<text text-anchor="middle" x="766" y="-242.5" font-family="Helvetica,sans-Serif" font-size="10.00">tuple</text>
</g>
<!-- Node14&#45;&gt;Node25 -->
<g id="edge47" class="edge"><title>Node14&#45;&gt;Node25</title>
<path fill="none" stroke="midnightblue" d="M849.169,-291.399C831.533,-281.773 808.3,-269.09 790.872,-259.577"/>
<polygon fill="midnightblue" stroke="midnightblue" points="792.315,-256.377 781.86,-254.658 788.961,-262.521 792.315,-256.377"/>
</g>
<!-- Node26 -->
<g id="node26" class="node"><title>Node26</title>
<polygon fill="white" stroke="#bfbfbf" points="805,-235.5 805,-254.5 847,-254.5 847,-235.5 805,-235.5"/>
<text text-anchor="middle" x="826" y="-242.5" font-family="Helvetica,sans-Serif" font-size="10.00">limits</text>
</g>
<!-- Node14&#45;&gt;Node26 -->
<g id="edge50" class="edge"><title>Node14&#45;&gt;Node26</title>
<path fill="none" stroke="midnightblue" d="M863.388,-291.399C856.267,-282.753 847.117,-271.642 839.651,-262.576"/>
<polygon fill="midnightblue" stroke="midnightblue" points="842.189,-260.152 833.13,-254.658 836.785,-264.602 842.189,-260.152"/>
</g>
<!-- Node15&#45;&gt;Node2 -->
<g id="edge22" class="edge"><title>Node15&#45;&gt;Node2</title>
<path fill="none" stroke="midnightblue" d="M643.239,-235.364C620.812,-226.421 584.867,-211.964 554,-199 533.446,-190.367 528.656,-187.385 508,-179 426.805,-146.04 331.179,-110.633 274.738,-90.0822"/>
<polygon fill="midnightblue" stroke="midnightblue" points="275.601,-86.6719 265.007,-86.5448 273.21,-93.2507 275.601,-86.6719"/>
</g>
<!-- Node15&#45;&gt;Node6 -->
<g id="edge23" class="edge"><title>Node15&#45;&gt;Node6</title>
<path fill="none" stroke="midnightblue" d="M690.251,-235.407C711.428,-227.592 741.974,-214.871 766,-199 787.284,-184.941 808.262,-164.311 821.618,-150.082"/>
<polygon fill="midnightblue" stroke="midnightblue" points="824.357,-152.273 828.545,-142.541 819.202,-147.537 824.357,-152.273"/>
</g>
<!-- Node15&#45;&gt;Node9 -->
<g id="edge27" class="edge"><title>Node15&#45;&gt;Node9</title>
<path fill="none" stroke="midnightblue" d="M695.375,-235.391C743.4,-221.996 839.951,-195.948 923,-179 1169.72,-128.653 1471.13,-88.8545 1568.81,-76.4979"/>
<polygon fill="midnightblue" stroke="midnightblue" points="1569.44,-79.9465 1578.92,-75.2248 1568.56,-73.0013 1569.44,-79.9465"/>
</g>
<!-- Node15&#45;&gt;Node12 -->
<g id="edge24" class="edge"><title>Node15&#45;&gt;Node12</title>
<path fill="none" stroke="midnightblue" d="M664.174,-235.083C663.519,-228.006 662.58,-217.861 661.758,-208.986"/>
<polygon fill="midnightblue" stroke="midnightblue" points="665.217,-208.386 660.81,-198.751 658.247,-209.031 665.217,-208.386"/>
</g>
<!-- Node15&#45;&gt;Node14 -->
<g id="edge29" class="edge"><title>Node15&#45;&gt;Node14</title>
<path fill="none" stroke="midnightblue" d="M699.919,-254.506C733.077,-263.353 783.215,-277.44 821.399,-288.568"/>
<polygon fill="midnightblue" stroke="midnightblue" points="820.748,-292.024 831.329,-291.475 822.715,-285.306 820.748,-292.024"/>
</g>
<!-- Node16 -->
<g id="node16" class="node"><title>Node16</title>
<polygon fill="white" stroke="#bfbfbf" points="254,-123.5 254,-142.5 314,-142.5 314,-123.5 254,-123.5"/>
<text text-anchor="middle" x="284" y="-130.5" font-family="Helvetica,sans-Serif" font-size="10.00">dmlc/io.h</text>
</g>
<!-- Node15&#45;&gt;Node16 -->
<g id="edge21" class="edge"><title>Node15&#45;&gt;Node16</title>
<path fill="none" stroke="midnightblue" d="M632.322,-235.483C601.852,-227.224 555.326,-213.801 516,-199 495.896,-191.434 492.316,-185.977 472,-179 422.242,-161.913 362.927,-148.879 324.418,-141.341"/>
<polygon fill="midnightblue" stroke="midnightblue" points="324.615,-137.815 314.134,-139.362 323.292,-144.688 324.615,-137.815"/>
</g>
<!-- Node15&#45;&gt;Node17 -->
<g id="edge25" class="edge"><title>Node15&#45;&gt;Node17</title>
<path fill="none" stroke="midnightblue" d="M628.556,-235.444C586.223,-225.504 516.685,-209.178 473.496,-199.038"/>
<polygon fill="midnightblue" stroke="midnightblue" points="474.179,-195.603 463.644,-196.725 472.579,-202.418 474.179,-195.603"/>
</g>
<!-- Node15&#45;&gt;Node18 -->
<g id="edge26" class="edge"><title>Node15&#45;&gt;Node18</title>
<path fill="none" stroke="midnightblue" d="M711.11,-235.444C769.883,-224.537 870.102,-205.94 922.24,-196.265"/>
<polygon fill="midnightblue" stroke="midnightblue" points="923.108,-199.663 932.302,-194.398 921.831,-192.781 923.108,-199.663"/>
</g>
<!-- Node19 -->
<g id="node19" class="node"><title>Node19</title>
<polygon fill="white" stroke="#bfbfbf" points="997.5,-179.5 997.5,-198.5 1090.5,-198.5 1090.5,-179.5 997.5,-179.5"/>
<text text-anchor="middle" x="1044" y="-186.5" font-family="Helvetica,sans-Serif" font-size="10.00">unordered_map</text>
</g>
<!-- Node15&#45;&gt;Node19 -->
<g id="edge28" class="edge"><title>Node15&#45;&gt;Node19</title>
<path fill="none" stroke="midnightblue" d="M727.278,-235.717C790.205,-227.258 890.501,-213.534 987.301,-199.078"/>
<polygon fill="midnightblue" stroke="midnightblue" points="987.889,-202.529 997.26,-197.587 986.852,-195.607 987.889,-202.529"/>
</g>
<!-- Node20&#45;&gt;Node2 -->
<g id="edge31" class="edge"><title>Node20&#45;&gt;Node2</title>
<path fill="none" stroke="midnightblue" d="M274.878,-235.437C267.243,-226.889 256.103,-213.038 250,-199 235.416,-165.457 229.671,-123.114 227.423,-96.9238"/>
<polygon fill="midnightblue" stroke="midnightblue" points="230.899,-96.4701 226.658,-86.761 223.919,-96.9954 230.899,-96.4701"/>
</g>
<!-- Node20&#45;&gt;Node6 -->
<g id="edge32" class="edge"><title>Node20&#45;&gt;Node6</title>
<path fill="none" stroke="midnightblue" d="M294.224,-235.445C313.851,-221 356.212,-192.073 397,-179 431.348,-167.991 652.716,-148.828 767.369,-139.465"/>
<polygon fill="midnightblue" stroke="midnightblue" points="767.767,-142.944 777.451,-138.644 767.2,-135.967 767.767,-142.944"/>
</g>
<!-- Node20&#45;&gt;Node10 -->
<g id="edge40" class="edge"><title>Node20&#45;&gt;Node10</title>
<path fill="none" stroke="midnightblue" d="M286.299,-235.367C292.116,-221.333 305.547,-193.665 326,-179 444.588,-93.9715 626.278,-76.8121 698.663,-73.3622"/>
<polygon fill="midnightblue" stroke="midnightblue" points="699.079,-76.8479 708.924,-72.9319 698.786,-69.8541 699.079,-76.8479"/>
</g>
<!-- Node20&#45;&gt;Node11 -->
<g id="edge38" class="edge"><title>Node20&#45;&gt;Node11</title>
<path fill="none" stroke="midnightblue" d="M281.48,-235.347C279.634,-222.232 277.9,-196.953 288,-179 308.925,-141.806 328.28,-142.961 366,-123 399.438,-105.304 440.442,-91.1648 469.027,-82.399"/>
<polygon fill="midnightblue" stroke="midnightblue" points="470.388,-85.6445 478.959,-79.416 468.375,-78.9404 470.388,-85.6445"/>
</g>
<!-- Node20&#45;&gt;Node18 -->
<g id="edge39" class="edge"><title>Node20&#45;&gt;Node18</title>
<path fill="none" stroke="midnightblue" d="M344.508,-239.065C482.856,-227.964 814.823,-201.328 922.009,-192.727"/>
<polygon fill="midnightblue" stroke="midnightblue" points="922.552,-196.195 932.24,-191.906 921.992,-189.218 922.552,-196.195"/>
</g>
<!-- Node21 -->
<g id="node21" class="node"><title>Node21</title>
<g id="a_node21"><a xlink:href="serializer_8h.html" target="_top" xlink:title="Serializer extension to support TVM data types Include this file to enable serialization of DLDataTyp...">
<polygon fill="white" stroke="black" points="68,-179.5 68,-198.5 198,-198.5 198,-179.5 68,-179.5"/>
<text text-anchor="middle" x="133" y="-186.5" font-family="Helvetica,sans-Serif" font-size="10.00">tvm/runtime/serializer.h</text>
</a>
</g>
</g>
<!-- Node20&#45;&gt;Node21 -->
<g id="edge33" class="edge"><title>Node20&#45;&gt;Node21</title>
<path fill="none" stroke="midnightblue" d="M254.143,-235.444C227.271,-226.478 187.708,-212.314 161.091,-202.183"/>
<polygon fill="midnightblue" stroke="midnightblue" points="162.166,-198.846 151.577,-198.516 159.649,-205.378 162.166,-198.846"/>
</g>
<!-- Node21&#45;&gt;Node2 -->
<g id="edge36" class="edge"><title>Node21&#45;&gt;Node2</title>
<path fill="none" stroke="midnightblue" d="M121.421,-179.345C105.882,-166.654 81.6868,-142.4 95,-123 108.335,-103.568 130.285,-91.6101 152.44,-84.2534"/>
<polygon fill="midnightblue" stroke="midnightblue" points="153.705,-87.5275 162.262,-81.2803 151.676,-80.8277 153.705,-87.5275"/>
</g>
<!-- Node21&#45;&gt;Node16 -->
<g id="edge34" class="edge"><title>Node21&#45;&gt;Node16</title>
<path fill="none" stroke="midnightblue" d="M156.926,-179.444C182.219,-170.399 222.302,-156.064 250.68,-145.916"/>
<polygon fill="midnightblue" stroke="midnightblue" points="251.948,-149.179 260.186,-142.516 249.591,-142.588 251.948,-149.179"/>
</g>
<!-- Node21&#45;&gt;Node20 -->
<g id="edge37" class="edge"><title>Node21&#45;&gt;Node20</title>
<path fill="none" stroke="midnightblue" d="M161.737,-198.516C188.571,-207.467 228.135,-221.629 254.79,-231.772"/>
<polygon fill="midnightblue" stroke="midnightblue" points="253.731,-235.115 264.321,-235.444 256.248,-228.583 253.731,-235.115"/>
</g>
<!-- Node22 -->
<g id="node22" class="node"><title>Node22</title>
<polygon fill="white" stroke="#bfbfbf" points="104,-123.5 104,-142.5 198,-142.5 198,-123.5 104,-123.5"/>
<text text-anchor="middle" x="151" y="-130.5" font-family="Helvetica,sans-Serif" font-size="10.00">dmlc/serializer.h</text>
</g>
<!-- Node21&#45;&gt;Node22 -->
<g id="edge35" class="edge"><title>Node21&#45;&gt;Node22</title>
<path fill="none" stroke="midnightblue" d="M135.972,-179.083C138.384,-171.849 141.864,-161.409 144.868,-152.397"/>
<polygon fill="midnightblue" stroke="midnightblue" points="148.241,-153.345 148.083,-142.751 141.6,-151.131 148.241,-153.345"/>
</g>
<!-- Node23&#45;&gt;Node2 -->
<g id="edge42" class="edge"><title>Node23&#45;&gt;Node2</title>
<path fill="none" stroke="midnightblue" d="M1380.78,-239.902C1354.03,-238.324 1323.08,-236.534 1295,-235 1137.7,-226.404 739.732,-237.61 587,-199 566.956,-193.933 563.951,-187.265 545,-179 483.193,-152.046 467.85,-144.674 404,-123 366.902,-110.407 324.752,-98.351 290.783,-89.1786"/>
<polygon fill="midnightblue" stroke="midnightblue" points="291.541,-85.7582 280.976,-86.5489 289.728,-92.5194 291.541,-85.7582"/>
</g>
<!-- Node23&#45;&gt;Node7 -->
<g id="edge43" class="edge"><title>Node23&#45;&gt;Node7</title>
<path fill="none" stroke="midnightblue" d="M1437.36,-235.213C1408.12,-213.496 1328.67,-156.624 1255,-123 1217.05,-105.68 1171.56,-92.1991 1138.12,-83.5392"/>
<polygon fill="midnightblue" stroke="midnightblue" points="1138.71,-80.077 1128.15,-81.0075 1136.98,-86.8615 1138.71,-80.077"/>
</g>
<!-- Node23&#45;&gt;Node8 -->
<g id="edge44" class="edge"><title>Node23&#45;&gt;Node8</title>
<path fill="none" stroke="midnightblue" d="M1447.53,-235.444C1444.07,-215.589 1434.94,-164.882 1425,-123 1422.43,-112.195 1419.13,-100.213 1416.38,-90.6327"/>
<polygon fill="midnightblue" stroke="midnightblue" points="1419.74,-89.6449 1413.57,-81.0276 1413.02,-91.6079 1419.74,-89.6449"/>
</g>
<!-- Node27&#45;&gt;Node9 -->
<g id="edge74" class="edge"><title>Node27&#45;&gt;Node9</title>
<path fill="none" stroke="midnightblue" d="M1306.42,-414.3C1360.8,-388.577 1473.83,-329.921 1549,-255 1588.42,-215.714 1595.5,-197.837 1605,-143 1608,-125.653 1606.38,-105.583 1604.37,-91.3033"/>
<polygon fill="midnightblue" stroke="midnightblue" points="1607.8,-90.5764 1602.76,-81.2558 1600.89,-91.6836 1607.8,-90.5764"/>
</g>
<!-- Node27&#45;&gt;Node23 -->
<g id="edge57" class="edge"><title>Node27&#45;&gt;Node23</title>
<path fill="none" stroke="midnightblue" d="M1288.36,-414.483C1320.04,-381.256 1399.57,-297.846 1433.39,-262.375"/>
<polygon fill="midnightblue" stroke="midnightblue" points="1436.22,-264.472 1440.59,-254.819 1431.16,-259.641 1436.22,-264.472"/>
</g>
<!-- Node28 -->
<g id="node28" class="node"><title>Node28</title>
<g id="a_node28"><a xlink:href="functor_8h.html" target="_top" xlink:title="Defines the Functor data structures. ">
<polygon fill="white" stroke="black" points="1179.5,-235.5 1179.5,-254.5 1286.5,-254.5 1286.5,-235.5 1179.5,-235.5"/>
<text text-anchor="middle" x="1233" y="-242.5" font-family="Helvetica,sans-Serif" font-size="10.00">tvm/node/functor.h</text>
</a>
</g>
</g>
<!-- Node27&#45;&gt;Node28 -->
<g id="edge58" class="edge"><title>Node27&#45;&gt;Node28</title>
<path fill="none" stroke="midnightblue" d="M1273.5,-414.228C1270.63,-389.007 1263.51,-335.058 1251,-291 1248.41,-281.894 1244.63,-272.101 1241.19,-263.983"/>
<polygon fill="midnightblue" stroke="midnightblue" points="1244.37,-262.522 1237.14,-254.775 1237.96,-265.338 1244.37,-262.522"/>
</g>
<!-- Node29 -->
<g id="node29" class="node"><title>Node29</title>
<g id="a_node29"><a xlink:href="node_2container_8h.html" target="_top" xlink:title="Array/Map container in the DSL graph. ">
<polygon fill="white" stroke="black" points="1110.5,-358.5 1110.5,-377.5 1229.5,-377.5 1229.5,-358.5 1110.5,-358.5"/>
<text text-anchor="middle" x="1170" y="-365.5" font-family="Helvetica,sans-Serif" font-size="10.00">tvm/node/container.h</text>
</a>
</g>
</g>
<!-- Node27&#45;&gt;Node29 -->
<g id="edge64" class="edge"><title>Node27&#45;&gt;Node29</title>
<path fill="none" stroke="midnightblue" d="M1250.12,-414.399C1233.29,-404.862 1211.16,-392.325 1194.43,-382.842"/>
<polygon fill="midnightblue" stroke="midnightblue" points="1195.7,-379.543 1185.28,-377.658 1192.25,-385.633 1195.7,-379.543"/>
</g>
<!-- Node28&#45;&gt;Node6 -->
<g id="edge60" class="edge"><title>Node28&#45;&gt;Node6</title>
<path fill="none" stroke="midnightblue" d="M1227.73,-235.495C1218.31,-221.127 1197.12,-192.311 1171,-179 1125.78,-155.958 988.735,-143.51 904.592,-137.859"/>
<polygon fill="midnightblue" stroke="midnightblue" points="904.811,-134.366 894.603,-137.203 904.352,-141.351 904.811,-134.366"/>
</g>
<!-- Node28&#45;&gt;Node7 -->
<g id="edge59" class="edge"><title>Node28&#45;&gt;Node7</title>
<path fill="none" stroke="midnightblue" d="M1236.6,-235.354C1245.06,-213.467 1263.47,-155.315 1235,-123 1212.1,-97.016 1175.04,-84.4009 1144.25,-78.2767"/>
<polygon fill="midnightblue" stroke="midnightblue" points="1144.55,-74.7727 1134.08,-76.4387 1143.3,-81.6612 1144.55,-74.7727"/>
</g>
<!-- Node28&#45;&gt;Node8 -->
<g id="edge62" class="edge"><title>Node28&#45;&gt;Node8</title>
<path fill="none" stroke="midnightblue" d="M1242.07,-235.26C1270.53,-207.845 1358.28,-123.29 1394.8,-88.1085"/>
<polygon fill="midnightblue" stroke="midnightblue" points="1397.38,-90.4782 1402.16,-81.0194 1392.53,-85.4373 1397.38,-90.4782"/>
</g>
<!-- Node28&#45;&gt;Node10 -->
<g id="edge63" class="edge"><title>Node28&#45;&gt;Node10</title>
<path fill="none" stroke="midnightblue" d="M1230.84,-235.315C1226.85,-221.206 1216.97,-193.433 1198,-179 1127.91,-125.681 854.488,-87.8029 761.307,-76.2189"/>
<polygon fill="midnightblue" stroke="midnightblue" points="761.463,-72.7117 751.111,-74.9672 760.61,-79.6596 761.463,-72.7117"/>
</g>
<!-- Node28&#45;&gt;Node18 -->
<g id="edge61" class="edge"><title>Node28&#45;&gt;Node18</title>
<path fill="none" stroke="midnightblue" d="M1179.18,-235.586C1131.58,-227.813 1060.08,-215.33 989.633,-199.226"/>
<polygon fill="midnightblue" stroke="midnightblue" points="990.234,-195.773 979.703,-196.93 988.657,-202.593 990.234,-195.773"/>
</g>
<!-- Node29&#45;&gt;Node6 -->
<g id="edge65" class="edge"><title>Node29&#45;&gt;Node6</title>
<path fill="none" stroke="midnightblue" d="M1184.08,-358.259C1195.35,-350.355 1210.35,-337.584 1217,-322 1222.41,-309.329 1223.1,-303.354 1217,-291 1205.35,-267.406 1186.65,-275.375 1170,-255 1146.23,-225.909 1163.27,-201.256 1133,-179 1097.72,-153.055 980.886,-141.784 904.702,-137.1"/>
<polygon fill="midnightblue" stroke="midnightblue" points="904.886,-133.605 894.697,-136.508 904.473,-140.593 904.886,-133.605"/>
</g>
<!-- Node29&#45;&gt;Node8 -->
<g id="edge68" class="edge"><title>Node29&#45;&gt;Node8</title>
<path fill="none" stroke="midnightblue" d="M1221.17,-358.465C1310.66,-342.382 1489.54,-304.692 1526,-255 1569.94,-195.114 1476.77,-118.478 1432.56,-86.992"/>
<polygon fill="midnightblue" stroke="midnightblue" points="1434.39,-83.9985 1424.19,-81.1475 1430.39,-89.7396 1434.39,-83.9985"/>
</g>
<!-- Node29&#45;&gt;Node9 -->
<g id="edge73" class="edge"><title>Node29&#45;&gt;Node9</title>
<path fill="none" stroke="midnightblue" d="M1229.62,-363.459C1307.18,-355.8 1442.6,-331.583 1526,-255 1574.95,-210.05 1592.78,-128.418 1598.55,-91.5168"/>
<polygon fill="midnightblue" stroke="midnightblue" points="1602.07,-91.6052 1600.02,-81.2107 1595.14,-90.6152 1602.07,-91.6052"/>
</g>
<!-- Node29&#45;&gt;Node10 -->
<g id="edge72" class="edge"><title>Node29&#45;&gt;Node10</title>
<path fill="none" stroke="midnightblue" d="M1110.32,-365.142C975.558,-359.506 654.715,-337.516 594,-255 588.732,-247.84 588.565,-242.034 594,-235 632.753,-184.84 693.247,-249.16 732,-199 756.195,-167.683 745.342,-117.787 736.79,-90.9766"/>
<polygon fill="midnightblue" stroke="midnightblue" points="740.034,-89.6463 733.484,-81.3188 733.412,-91.9134 740.034,-89.6463"/>
</g>
<!-- Node29&#45;&gt;Node12 -->
<g id="edge66" class="edge"><title>Node29&#45;&gt;Node12</title>
<path fill="none" stroke="midnightblue" d="M1110.46,-367.091C964.46,-366.694 597.887,-361.713 561,-322 534.685,-293.669 540.066,-267.51 561,-235 571.306,-218.995 588.851,-208.617 606.334,-201.916"/>
<polygon fill="midnightblue" stroke="midnightblue" points="607.697,-205.147 615.994,-198.559 605.4,-198.535 607.697,-205.147"/>
</g>
<!-- Node29&#45;&gt;Node14 -->
<g id="edge67" class="edge"><title>Node29&#45;&gt;Node14</title>
<path fill="none" stroke="midnightblue" d="M1127.73,-358.475C1079.11,-348.669 998.664,-332.442 941.602,-320.933"/>
<polygon fill="midnightblue" stroke="midnightblue" points="942.083,-317.46 931.588,-318.914 940.699,-324.322 942.083,-317.46"/>
</g>
<!-- Node29&#45;&gt;Node18 -->
<g id="edge69" class="edge"><title>Node29&#45;&gt;Node18</title>
<path fill="none" stroke="midnightblue" d="M1154.03,-358.383C1138.82,-349.901 1115.57,-336.191 1097,-322 1083.8,-311.917 1006.59,-238.384 972.341,-205.647"/>
<polygon fill="midnightblue" stroke="midnightblue" points="974.635,-202.997 964.989,-198.614 969.796,-208.055 974.635,-202.997"/>
</g>
<!-- Node29&#45;&gt;Node19 -->
<g id="edge71" class="edge"><title>Node29&#45;&gt;Node19</title>
<path fill="none" stroke="midnightblue" d="M1159.25,-358.457C1148.93,-349.923 1133.29,-336.083 1122,-322 1091.87,-284.411 1065.36,-234 1052.41,-207.681"/>
<polygon fill="midnightblue" stroke="midnightblue" points="1055.5,-206.034 1047.99,-198.56 1049.2,-209.085 1055.5,-206.034"/>
</g>
<!-- Node30 -->
<g id="node30" class="node"><title>Node30</title>
<polygon fill="white" stroke="#bfbfbf" points="1131.5,-297 1131.5,-316 1208.5,-316 1208.5,-297 1131.5,-297"/>
<text text-anchor="middle" x="1170" y="-304" font-family="Helvetica,sans-Serif" font-size="10.00">initializer_list</text>
</g>
<!-- Node29&#45;&gt;Node30 -->
<g id="edge70" class="edge"><title>Node29&#45;&gt;Node30</title>
<path fill="none" stroke="midnightblue" d="M1170,-358.475C1170,-350.08 1170,-336.981 1170,-326.163"/>
<polygon fill="midnightblue" stroke="midnightblue" points="1173.5,-326.009 1170,-316.009 1166.5,-326.009 1173.5,-326.009"/>
</g>
<!-- Node31&#45;&gt;Node9 -->
<g id="edge79" class="edge"><title>Node31&#45;&gt;Node9</title>
<path fill="none" stroke="midnightblue" d="M1599.01,-414.48C1665.09,-391.158 1779,-337.66 1779,-246 1779,-246 1779,-246 1779,-188 1779,-119.244 1684.39,-89.3508 1633.12,-78.1996"/>
<polygon fill="midnightblue" stroke="midnightblue" points="1633.68,-74.7429 1623.18,-76.1552 1632.27,-81.5992 1633.68,-74.7429"/>
</g>
<!-- Node31&#45;&gt;Node23 -->
<g id="edge76" class="edge"><title>Node31&#45;&gt;Node23</title>
<path fill="none" stroke="midnightblue" d="M1546.82,-414.399C1535.48,-388.99 1509.99,-334.149 1483,-291 1476.83,-281.142 1469.07,-270.747 1462.52,-262.434"/>
<polygon fill="midnightblue" stroke="midnightblue" points="1465.25,-260.236 1456.25,-254.635 1459.79,-264.622 1465.25,-260.236"/>
</g>
<!-- Node31&#45;&gt;Node24 -->
<g id="edge80" class="edge"><title>Node31&#45;&gt;Node24</title>
<path fill="none" stroke="midnightblue" d="M1562.83,-414.483C1585.94,-381.536 1643.65,-299.25 1668.88,-263.283"/>
<polygon fill="midnightblue" stroke="midnightblue" points="1671.94,-265.016 1674.81,-254.819 1666.21,-260.996 1671.94,-265.016"/>
</g>
<!-- Node31&#45;&gt;Node28 -->
<g id="edge77" class="edge"><title>Node31&#45;&gt;Node28</title>
<path fill="none" stroke="midnightblue" d="M1528.42,-414.483C1468.67,-380.406 1316.37,-293.544 1257.11,-259.748"/>
<polygon fill="midnightblue" stroke="midnightblue" points="1258.53,-256.529 1248.11,-254.615 1255.06,-262.61 1258.53,-256.529"/>
</g>
<!-- Node31&#45;&gt;Node29 -->
<g id="edge78" class="edge"><title>Node31&#45;&gt;Node29</title>
<path fill="none" stroke="midnightblue" d="M1497.31,-419.848C1427.66,-409.028 1308.63,-390.536 1234.92,-379.085"/>
<polygon fill="midnightblue" stroke="midnightblue" points="1235.25,-375.594 1224.83,-377.518 1234.17,-382.511 1235.25,-375.594"/>
</g>
</g>
</svg>
