<?xml version="1.0" encoding="UTF-8" standalone="no"?>
<!DOCTYPE svg PUBLIC "-//W3C//DTD SVG 1.1//EN"
 "http://www.w3.org/Graphics/SVG/1.1/DTD/svg11.dtd">
<!-- Generated by graphviz version 2.38.0 (20140413.2041)
 -->
<!-- Title: include/tvm/runtime/registry.h Pages: 1 -->
<svg width="1490pt" height="352pt"
 viewBox="0.00 0.00 1490.00 352.00" xmlns="http://www.w3.org/2000/svg" xmlns:xlink="http://www.w3.org/1999/xlink">
<g id="graph0" class="graph" transform="scale(1 1) rotate(0) translate(4 348)">
<title>include/tvm/runtime/registry.h</title>
<polygon fill="white" stroke="none" points="-4,4 -4,-348 1486,-348 1486,4 -4,4"/>
<!-- Node1 -->
<g id="node1" class="node"><title>Node1</title>
<polygon fill="#bfbfbf" stroke="black" points="603,-313.5 603,-343.5 716,-343.5 716,-313.5 603,-313.5"/>
<text text-anchor="start" x="611" y="-331.5" font-family="Helvetica,sans-Serif" font-size="10.00">include/tvm/runtime</text>
<text text-anchor="middle" x="659.5" y="-320.5" font-family="Helvetica,sans-Serif" font-size="10.00">/registry.h</text>
</g>
<!-- Node2 -->
<g id="node2" class="node"><title>Node2</title>
<g id="a_node2"><a xlink:href="ir_2op_8h.html" target="_top" xlink:title="Primitive operators(builtin intrinsics) and registry for them. ">
<polygon fill="white" stroke="black" points="607,-257.5 607,-276.5 712,-276.5 712,-257.5 607,-257.5"/>
<text text-anchor="middle" x="659.5" y="-264.5" font-family="Helvetica,sans-Serif" font-size="10.00">include/tvm/ir/op.h</text>
</a>
</g>
</g>
<!-- Node1&#45;&gt;Node2 -->
<g id="edge1" class="edge"><title>Node1&#45;&gt;Node2</title>
<path fill="none" stroke="midnightblue" d="M659.5,-303.289C659.5,-293.857 659.5,-283.655 659.5,-276.658"/>
<polygon fill="midnightblue" stroke="midnightblue" points="656,-303.399 659.5,-313.399 663,-303.399 656,-303.399"/>
</g>
<!-- Node19 -->
<g id="node19" class="node"><title>Node19</title>
<g id="a_node19"><a xlink:href="relay_2type_8h.html" target="_top" xlink:title="Relay typed AST nodes. ">
<polygon fill="white" stroke="black" points="458,-257.5 458,-276.5 589,-276.5 589,-257.5 458,-257.5"/>
<text text-anchor="middle" x="523.5" y="-264.5" font-family="Helvetica,sans-Serif" font-size="10.00">include/tvm/relay/type.h</text>
</a>
</g>
</g>
<!-- Node1&#45;&gt;Node19 -->
<g id="edge32" class="edge"><title>Node1&#45;&gt;Node19</title>
<path fill="none" stroke="midnightblue" d="M618.064,-309.372C593.238,-298.511 562.808,-285.197 543.289,-276.658"/>
<polygon fill="midnightblue" stroke="midnightblue" points="616.705,-312.598 627.27,-313.399 619.511,-306.185 616.705,-312.598"/>
</g>
<!-- Node20 -->
<g id="node20" class="node"><title>Node20</title>
<g id="a_node20"><a xlink:href="vm_8h.html" target="_top" xlink:title="A virtual machine for executing Relay programs. ">
<polygon fill="white" stroke="black" points="1105.5,-201.5 1105.5,-220.5 1245.5,-220.5 1245.5,-201.5 1105.5,-201.5"/>
<text text-anchor="middle" x="1175.5" y="-208.5" font-family="Helvetica,sans-Serif" font-size="10.00">include/tvm/runtime/vm.h</text>
</a>
</g>
</g>
<!-- Node1&#45;&gt;Node20 -->
<g id="edge38" class="edge"><title>Node1&#45;&gt;Node20</title>
<path fill="none" stroke="midnightblue" d="M726.136,-312.584C835.61,-288.08 1050.07,-240.076 1137.26,-220.559"/>
<polygon fill="midnightblue" stroke="midnightblue" points="725.191,-309.209 716.197,-314.809 726.72,-316.04 725.191,-309.209"/>
</g>
<!-- Node3 -->
<g id="node3" class="node"><title>Node3</title>
<g id="a_node3"><a xlink:href="relay_2expr_8h.html" target="_top" xlink:title="Relay expression language. ">
<polygon fill="white" stroke="black" points="594,-201.5 594,-220.5 725,-220.5 725,-201.5 594,-201.5"/>
<text text-anchor="middle" x="659.5" y="-208.5" font-family="Helvetica,sans-Serif" font-size="10.00">include/tvm/relay/expr.h</text>
</a>
</g>
</g>
<!-- Node2&#45;&gt;Node3 -->
<g id="edge2" class="edge"><title>Node2&#45;&gt;Node3</title>
<path fill="none" stroke="midnightblue" d="M659.5,-246.805C659.5,-237.91 659.5,-227.78 659.5,-220.751"/>
<polygon fill="midnightblue" stroke="midnightblue" points="656,-247.083 659.5,-257.083 663,-247.083 656,-247.083"/>
</g>
<!-- Node16 -->
<g id="node16" class="node"><title>Node16</title>
<g id="a_node16"><a xlink:href="relay_2op_8h.html" target="_top" xlink:title="Primitive operators(builtin intrinsics). ">
<polygon fill="white" stroke="black" points="487.5,-140 487.5,-159 609.5,-159 609.5,-140 487.5,-140"/>
<text text-anchor="middle" x="548.5" y="-147" font-family="Helvetica,sans-Serif" font-size="10.00">include/tvm/relay/op.h</text>
</a>
</g>
</g>
<!-- Node2&#45;&gt;Node16 -->
<g id="edge31" class="edge"><title>Node2&#45;&gt;Node16</title>
<path fill="none" stroke="midnightblue" d="M629.236,-252.78C614.363,-245.142 596.998,-234.382 584.5,-221 567.053,-202.318 555.954,-173.567 551.189,-159.24"/>
<polygon fill="midnightblue" stroke="midnightblue" points="628.053,-256.098 638.574,-257.345 631.128,-249.809 628.053,-256.098"/>
</g>
<!-- Node4 -->
<g id="node4" class="node"><title>Node4</title>
<g id="a_node4"><a xlink:href="type__functor_8h.html" target="_top" xlink:title="A way to defined arbitrary function signature with dispatch on types. ">
<polygon fill="white" stroke="black" points="0,-67.5 0,-97.5 105,-97.5 105,-67.5 0,-67.5"/>
<text text-anchor="start" x="8" y="-85.5" font-family="Helvetica,sans-Serif" font-size="10.00">include/tvm/ir/type</text>
<text text-anchor="middle" x="52.5" y="-74.5" font-family="Helvetica,sans-Serif" font-size="10.00">_functor.h</text>
</a>
</g>
</g>
<!-- Node3&#45;&gt;Node4 -->
<g id="edge3" class="edge"><title>Node3&#45;&gt;Node4</title>
<path fill="none" stroke="midnightblue" d="M583.835,-208.126C438.746,-203.937 132.205,-191.982 92.5,-165 69.4255,-149.32 59.137,-116.362 54.9845,-97.5139"/>
<polygon fill="midnightblue" stroke="midnightblue" points="583.902,-211.63 593.997,-208.415 584.1,-204.632 583.902,-211.63"/>
</g>
<!-- Node5 -->
<g id="node5" class="node"><title>Node5</title>
<g id="a_node5"><a xlink:href="relay_2adt_8h.html" target="_top" xlink:title="Algebraic data types for Relay. ">
<polygon fill="white" stroke="black" points="101.5,-140 101.5,-159 227.5,-159 227.5,-140 101.5,-140"/>
<text text-anchor="middle" x="164.5" y="-147" font-family="Helvetica,sans-Serif" font-size="10.00">include/tvm/relay/adt.h</text>
</a>
</g>
</g>
<!-- Node3&#45;&gt;Node5 -->
<g id="edge4" class="edge"><title>Node3&#45;&gt;Node5</title>
<path fill="none" stroke="midnightblue" d="M583.566,-203.64C499.632,-196.187 360.547,-182.589 241.5,-165 230.062,-163.31 217.73,-161.144 206.36,-159.004"/>
<polygon fill="midnightblue" stroke="midnightblue" points="583.506,-207.148 593.775,-204.54 584.121,-200.175 583.506,-207.148"/>
</g>
<!-- Node6 -->
<g id="node6" class="node"><title>Node6</title>
<g id="a_node6"><a xlink:href="analysis_8h.html" target="_top" xlink:title="The set of Relay analysis passes written in C++. ">
<polygon fill="white" stroke="black" points="134,-73 134,-92 283,-92 283,-73 134,-73"/>
<text text-anchor="middle" x="208.5" y="-80" font-family="Helvetica,sans-Serif" font-size="10.00">include/tvm/relay/analysis.h</text>
</a>
</g>
</g>
<!-- Node3&#45;&gt;Node6 -->
<g id="edge9" class="edge"><title>Node3&#45;&gt;Node6</title>
<path fill="none" stroke="midnightblue" d="M583.616,-207.945C486.641,-204.168 325.13,-193.663 273.5,-165 242.645,-147.87 221.081,-109.549 212.557,-92.2591"/>
<polygon fill="midnightblue" stroke="midnightblue" points="583.538,-211.445 593.662,-208.321 583.8,-204.45 583.538,-211.445"/>
</g>
<!-- Node7 -->
<g id="node7" class="node"><title>Node7</title>
<g id="a_node7"><a xlink:href="relay_2expr__functor_8h.html" target="_top" xlink:title="A more powerful visitor which enables defining arbitrary function signatures with type based dispatch...">
<polygon fill="white" stroke="black" points="307.5,-67.5 307.5,-97.5 429.5,-97.5 429.5,-67.5 307.5,-67.5"/>
<text text-anchor="start" x="315.5" y="-85.5" font-family="Helvetica,sans-Serif" font-size="10.00">include/tvm/relay/expr</text>
<text text-anchor="middle" x="368.5" y="-74.5" font-family="Helvetica,sans-Serif" font-size="10.00">_functor.h</text>
</a>
</g>
</g>
<!-- Node3&#45;&gt;Node7 -->
<g id="edge14" class="edge"><title>Node3&#45;&gt;Node7</title>
<path fill="none" stroke="midnightblue" d="M587.288,-199.594C553.067,-192.802 512.366,-181.948 478.5,-165 459.008,-155.246 457.878,-147.155 440.5,-134 423.701,-121.283 404.091,-107.601 389.582,-97.6911"/>
<polygon fill="midnightblue" stroke="midnightblue" points="586.741,-203.053 597.22,-201.488 588.053,-196.177 586.741,-203.053"/>
</g>
<!-- Node8 -->
<g id="node8" class="node"><title>Node8</title>
<g id="a_node8"><a xlink:href="pattern__functor_8h.html" target="_top" xlink:title="A more powerful visitor on ADT patterns that enables defining arbitrary function signatures with type...">
<polygon fill="white" stroke="black" points="460,-67.5 460,-97.5 597,-97.5 597,-67.5 460,-67.5"/>
<text text-anchor="start" x="468" y="-85.5" font-family="Helvetica,sans-Serif" font-size="10.00">include/tvm/relay/pattern</text>
<text text-anchor="middle" x="528.5" y="-74.5" font-family="Helvetica,sans-Serif" font-size="10.00">_functor.h</text>
</a>
</g>
</g>
<!-- Node3&#45;&gt;Node8 -->
<g id="edge29" class="edge"><title>Node3&#45;&gt;Node8</title>
<path fill="none" stroke="midnightblue" d="M653.109,-191.858C646.516,-175.204 634.885,-150.659 618.5,-134 603.047,-118.288 581.667,-106.017 563.623,-97.5063"/>
<polygon fill="midnightblue" stroke="midnightblue" points="649.933,-193.358 656.713,-201.5 656.49,-190.907 649.933,-193.358"/>
</g>
<!-- Node9 -->
<g id="node9" class="node"><title>Node9</title>
<g id="a_node9"><a xlink:href="relay_2attrs_2memory_8h.html" target="_top" xlink:title="Attributes for memory operators. ">
<polygon fill="white" stroke="black" points="1015.5,-134.5 1015.5,-164.5 1139.5,-164.5 1139.5,-134.5 1015.5,-134.5"/>
<text text-anchor="start" x="1023.5" y="-152.5" font-family="Helvetica,sans-Serif" font-size="10.00">include/tvm/relay/attrs</text>
<text text-anchor="middle" x="1077.5" y="-141.5" font-family="Helvetica,sans-Serif" font-size="10.00">/memory.h</text>
</a>
</g>
</g>
<!-- Node3&#45;&gt;Node9 -->
<g id="edge10" class="edge"><title>Node3&#45;&gt;Node9</title>
<path fill="none" stroke="midnightblue" d="M735.202,-201.31C804.625,-193.04 910.207,-179.702 1001.5,-165 1006.01,-164.274 1010.66,-163.485 1015.34,-162.662"/>
<polygon fill="midnightblue" stroke="midnightblue" points="734.746,-197.84 725.228,-202.493 735.57,-204.791 734.746,-197.84"/>
</g>
<!-- Node10 -->
<g id="node10" class="node"><title>Node10</title>
<g id="a_node10"><a xlink:href="include_2tvm_2relay_2attrs_2transform_8h.html" target="_top" xlink:title="Transform operators. ">
<polygon fill="white" stroke="black" points="703.5,-134.5 703.5,-164.5 827.5,-164.5 827.5,-134.5 703.5,-134.5"/>
<text text-anchor="start" x="711.5" y="-152.5" font-family="Helvetica,sans-Serif" font-size="10.00">include/tvm/relay/attrs</text>
<text text-anchor="middle" x="765.5" y="-141.5" font-family="Helvetica,sans-Serif" font-size="10.00">/transform.h</text>
</a>
</g>
</g>
<!-- Node3&#45;&gt;Node10 -->
<g id="edge11" class="edge"><title>Node3&#45;&gt;Node10</title>
<path fill="none" stroke="midnightblue" d="M683.475,-196.542C700.491,-186.991 723.28,-174.199 740.518,-164.523"/>
<polygon fill="midnightblue" stroke="midnightblue" points="681.694,-193.528 674.687,-201.475 685.121,-199.632 681.694,-193.528"/>
</g>
<!-- Node11 -->
<g id="node11" class="node"><title>Node11</title>
<g id="a_node11"><a xlink:href="include_2tvm_2relay_2transform_8h.html" target="_top" xlink:title="Relay specific transformation passes. ">
<polygon fill="white" stroke="black" points="615.5,-73 615.5,-92 773.5,-92 773.5,-73 615.5,-73"/>
<text text-anchor="middle" x="694.5" y="-80" font-family="Helvetica,sans-Serif" font-size="10.00">include/tvm/relay/transform.h</text>
</a>
</g>
</g>
<!-- Node3&#45;&gt;Node11 -->
<g id="edge30" class="edge"><title>Node3&#45;&gt;Node11</title>
<path fill="none" stroke="midnightblue" d="M664.672,-191.306C672.345,-163.576 686.441,-112.628 692.077,-92.2557"/>
<polygon fill="midnightblue" stroke="midnightblue" points="661.199,-190.734 661.906,-201.305 667.946,-192.601 661.199,-190.734"/>
</g>
<!-- Node13 -->
<g id="node13" class="node"><title>Node13</title>
<g id="a_node13"><a xlink:href="feature_8h.html" target="_top" xlink:title="Detect features used in Expr/Module. ">
<polygon fill="white" stroke="black" points="1158,-140 1158,-159 1303,-159 1303,-140 1158,-140"/>
<text text-anchor="middle" x="1230.5" y="-147" font-family="Helvetica,sans-Serif" font-size="10.00">include/tvm/relay/feature.h</text>
</a>
</g>
</g>
<!-- Node3&#45;&gt;Node13 -->
<g id="edge15" class="edge"><title>Node3&#45;&gt;Node13</title>
<path fill="none" stroke="midnightblue" d="M735.575,-204.971C831.935,-198.148 1002.98,-184.528 1148.5,-165 1160.82,-163.346 1174.12,-161.167 1186.35,-159.003"/>
<polygon fill="midnightblue" stroke="midnightblue" points="735.074,-201.497 725.344,-205.689 735.565,-208.48 735.074,-201.497"/>
</g>
<!-- Node14 -->
<g id="node14" class="node"><title>Node14</title>
<g id="a_node14"><a xlink:href="relay_2function_8h.html" target="_top" xlink:title="Relay Function. ">
<polygon fill="white" stroke="black" points="283,-140 283,-159 432,-159 432,-140 283,-140"/>
<text text-anchor="middle" x="357.5" y="-147" font-family="Helvetica,sans-Serif" font-size="10.00">include/tvm/relay/function.h</text>
</a>
</g>
</g>
<!-- Node3&#45;&gt;Node14 -->
<g id="edge16" class="edge"><title>Node3&#45;&gt;Node14</title>
<path fill="none" stroke="midnightblue" d="M606.074,-199.474C547.545,-187.943 454.809,-169.672 400.689,-159.009"/>
<polygon fill="midnightblue" stroke="midnightblue" points="605.743,-202.976 616.231,-201.475 607.096,-196.108 605.743,-202.976"/>
</g>
<!-- Node15 -->
<g id="node15" class="node"><title>Node15</title>
<g id="a_node15"><a xlink:href="interpreter_8h.html" target="_top" xlink:title="An interpreter for Relay. ">
<polygon fill="white" stroke="black" points="1321,-140 1321,-159 1482,-159 1482,-140 1321,-140"/>
<text text-anchor="middle" x="1401.5" y="-147" font-family="Helvetica,sans-Serif" font-size="10.00">include/tvm/relay/interpreter.h</text>
</a>
</g>
</g>
<!-- Node3&#45;&gt;Node15 -->
<g id="edge20" class="edge"><title>Node3&#45;&gt;Node15</title>
<path fill="none" stroke="midnightblue" d="M735.367,-207.057C857.316,-201.813 1104.37,-189.074 1312.5,-165 1326.03,-163.435 1340.64,-161.259 1354.04,-159.068"/>
<polygon fill="midnightblue" stroke="midnightblue" points="734.869,-203.575 725.027,-207.496 735.167,-210.568 734.869,-203.575"/>
</g>
<!-- Node3&#45;&gt;Node16 -->
<g id="edge21" class="edge"><title>Node3&#45;&gt;Node16</title>
<path fill="none" stroke="midnightblue" d="M634.71,-196.712C613.212,-185.188 582.742,-168.855 564.374,-159.009"/>
<polygon fill="midnightblue" stroke="midnightblue" points="633.129,-199.835 643.596,-201.475 636.436,-193.666 633.129,-199.835"/>
</g>
<!-- Node17 -->
<g id="node17" class="node"><title>Node17</title>
<g id="a_node17"><a xlink:href="op__attr__types_8h.html" target="_top" xlink:title="The Expr and related elements in DataFlow construction. ">
<polygon fill="white" stroke="black" points="846,-134.5 846,-164.5 959,-164.5 959,-134.5 846,-134.5"/>
<text text-anchor="start" x="854" y="-152.5" font-family="Helvetica,sans-Serif" font-size="10.00">include/tvm/relay/op</text>
<text text-anchor="middle" x="902.5" y="-141.5" font-family="Helvetica,sans-Serif" font-size="10.00">_attr_types.h</text>
</a>
</g>
</g>
<!-- Node3&#45;&gt;Node17 -->
<g id="edge25" class="edge"><title>Node3&#45;&gt;Node17</title>
<path fill="none" stroke="midnightblue" d="M704.274,-199.037C744.112,-189.282 802.579,-174.966 845.697,-164.408"/>
<polygon fill="midnightblue" stroke="midnightblue" points="703.197,-195.697 694.316,-201.475 704.861,-202.496 703.197,-195.697"/>
</g>
<!-- Node18 -->
<g id="node18" class="node"><title>Node18</title>
<g id="a_node18"><a xlink:href="op__strategy_8h.html" target="_top" xlink:title="The Relay operator Strategy and related data structure. ">
<polygon fill="white" stroke="black" points="888,-67.5 888,-97.5 1001,-97.5 1001,-67.5 888,-67.5"/>
<text text-anchor="start" x="896" y="-85.5" font-family="Helvetica,sans-Serif" font-size="10.00">include/tvm/relay/op</text>
<text text-anchor="middle" x="944.5" y="-74.5" font-family="Helvetica,sans-Serif" font-size="10.00">_strategy.h</text>
</a>
</g>
</g>
<!-- Node3&#45;&gt;Node18 -->
<g id="edge28" class="edge"><title>Node3&#45;&gt;Node18</title>
<path fill="none" stroke="midnightblue" d="M735.497,-209.82C816.81,-207.82 938.098,-199.01 967.5,-165 984.134,-145.759 967.783,-115.304 955.431,-97.5784"/>
<polygon fill="midnightblue" stroke="midnightblue" points="735.215,-206.326 725.293,-210.041 735.366,-213.324 735.215,-206.326"/>
</g>
<!-- Node5&#45;&gt;Node4 -->
<g id="edge5" class="edge"><title>Node5&#45;&gt;Node4</title>
<path fill="none" stroke="midnightblue" d="M140.555,-134.604C121.748,-123.689 95.6684,-108.553 76.7765,-97.589"/>
<polygon fill="midnightblue" stroke="midnightblue" points="138.989,-137.741 149.395,-139.734 142.503,-131.687 138.989,-137.741"/>
</g>
<!-- Node5&#45;&gt;Node6 -->
<g id="edge6" class="edge"><title>Node5&#45;&gt;Node6</title>
<path fill="none" stroke="midnightblue" d="M176.073,-131.404C184.623,-118.773 195.906,-102.104 202.66,-92.1273"/>
<polygon fill="midnightblue" stroke="midnightblue" points="173.141,-129.491 170.434,-139.734 178.938,-133.415 173.141,-129.491"/>
</g>
<!-- Node5&#45;&gt;Node7 -->
<g id="edge7" class="edge"><title>Node5&#45;&gt;Node7</title>
<path fill="none" stroke="midnightblue" d="M201.299,-136.775C235.89,-125.753 287.705,-109.244 324.473,-97.5281"/>
<polygon fill="midnightblue" stroke="midnightblue" points="200.055,-133.498 191.59,-139.869 202.18,-140.167 200.055,-133.498"/>
</g>
<!-- Node5&#45;&gt;Node8 -->
<g id="edge8" class="edge"><title>Node5&#45;&gt;Node8</title>
<path fill="none" stroke="midnightblue" d="M222.472,-138.148C287.043,-126.617 391.344,-107.992 459.921,-95.7463"/>
<polygon fill="midnightblue" stroke="midnightblue" points="221.69,-134.732 212.461,-139.936 222.921,-141.623 221.69,-134.732"/>
</g>
<!-- Node10&#45;&gt;Node11 -->
<g id="edge12" class="edge"><title>Node10&#45;&gt;Node11</title>
<path fill="none" stroke="midnightblue" d="M742.381,-127.335C729.346,-115.401 713.764,-101.136 703.997,-92.1945"/>
<polygon fill="midnightblue" stroke="midnightblue" points="740.355,-130.225 750.094,-134.396 745.082,-125.062 740.355,-130.225"/>
</g>
<!-- Node12 -->
<g id="node12" class="node"><title>Node12</title>
<g id="a_node12"><a xlink:href="include_2tvm_2relay_2qnn_2transform_8h.html" target="_top" xlink:title="include/tvm/relay/qnn\l/transform.h">
<polygon fill="white" stroke="black" points="635,-0.5 635,-30.5 754,-30.5 754,-0.5 635,-0.5"/>
<text text-anchor="start" x="643" y="-18.5" font-family="Helvetica,sans-Serif" font-size="10.00">include/tvm/relay/qnn</text>
<text text-anchor="middle" x="694.5" y="-7.5" font-family="Helvetica,sans-Serif" font-size="10.00">/transform.h</text>
</a>
</g>
</g>
<!-- Node11&#45;&gt;Node12 -->
<g id="edge13" class="edge"><title>Node11&#45;&gt;Node12</title>
<path fill="none" stroke="midnightblue" d="M694.5,-62.4107C694.5,-52.222 694.5,-39.901 694.5,-30.589"/>
<polygon fill="midnightblue" stroke="midnightblue" points="691,-62.7338 694.5,-72.7338 698,-62.7338 691,-62.7338"/>
</g>
<!-- Node14&#45;&gt;Node6 -->
<g id="edge17" class="edge"><title>Node14&#45;&gt;Node6</title>
<path fill="none" stroke="midnightblue" d="M328.344,-135.781C298.836,-122.909 254.013,-103.355 228.368,-92.1672"/>
<polygon fill="midnightblue" stroke="midnightblue" points="327.149,-139.078 337.714,-139.869 329.948,-132.662 327.149,-139.078"/>
</g>
<!-- Node14&#45;&gt;Node7 -->
<g id="edge18" class="edge"><title>Node14&#45;&gt;Node7</title>
<path fill="none" stroke="midnightblue" d="M360.675,-129.739C362.41,-119.487 364.523,-107.001 366.116,-97.589"/>
<polygon fill="midnightblue" stroke="midnightblue" points="357.201,-129.29 358.984,-139.734 364.103,-130.458 357.201,-129.29"/>
</g>
<!-- Node14&#45;&gt;Node11 -->
<g id="edge19" class="edge"><title>Node14&#45;&gt;Node11</title>
<path fill="none" stroke="midnightblue" d="M411.746,-138.037C478.028,-125.253 588.901,-103.868 650.266,-92.0317"/>
<polygon fill="midnightblue" stroke="midnightblue" points="411.06,-134.605 401.903,-139.936 412.385,-141.478 411.06,-134.605"/>
</g>
<!-- Node16&#45;&gt;Node7 -->
<g id="edge22" class="edge"><title>Node16&#45;&gt;Node7</title>
<path fill="none" stroke="midnightblue" d="M514.844,-136.346C484.334,-125.329 439.372,-109.093 407.347,-97.5281"/>
<polygon fill="midnightblue" stroke="midnightblue" points="514.003,-139.764 524.597,-139.869 516.381,-133.18 514.003,-139.764"/>
</g>
<!-- Node16&#45;&gt;Node8 -->
<g id="edge23" class="edge"><title>Node16&#45;&gt;Node8</title>
<path fill="none" stroke="midnightblue" d="M542.828,-130.065C539.655,-119.753 535.762,-107.101 532.835,-97.589"/>
<polygon fill="midnightblue" stroke="midnightblue" points="539.517,-131.205 545.803,-139.734 546.207,-129.147 539.517,-131.205"/>
</g>
<!-- Node16&#45;&gt;Node11 -->
<g id="edge24" class="edge"><title>Node16&#45;&gt;Node11</title>
<path fill="none" stroke="midnightblue" d="M577.069,-135.781C605.982,-122.909 649.904,-103.355 675.032,-92.1672"/>
<polygon fill="midnightblue" stroke="midnightblue" points="575.6,-132.604 567.888,-139.869 578.447,-138.999 575.6,-132.604"/>
</g>
<!-- Node17&#45;&gt;Node11 -->
<g id="edge27" class="edge"><title>Node17&#45;&gt;Node11</title>
<path fill="none" stroke="midnightblue" d="M847.875,-131.43C807.313,-118.754 753.702,-102.001 721.792,-92.0287"/>
<polygon fill="midnightblue" stroke="midnightblue" points="847.034,-134.834 857.623,-134.476 849.122,-128.152 847.034,-134.834"/>
</g>
<!-- Node17&#45;&gt;Node18 -->
<g id="edge26" class="edge"><title>Node17&#45;&gt;Node18</title>
<path fill="none" stroke="midnightblue" d="M917.124,-125.867C923.203,-116.459 930.069,-105.833 935.404,-97.5765"/>
<polygon fill="midnightblue" stroke="midnightblue" points="914.101,-124.097 911.613,-134.396 919.98,-127.896 914.101,-124.097"/>
</g>
<!-- Node19&#45;&gt;Node3 -->
<g id="edge35" class="edge"><title>Node19&#45;&gt;Node3</title>
<path fill="none" stroke="midnightblue" d="M554.635,-253.638C580.157,-243.504 615.609,-229.427 638.051,-220.516"/>
<polygon fill="midnightblue" stroke="midnightblue" points="553.052,-250.5 545.05,-257.444 555.635,-257.006 553.052,-250.5"/>
</g>
<!-- Node19&#45;&gt;Node5 -->
<g id="edge33" class="edge"><title>Node19&#45;&gt;Node5</title>
<path fill="none" stroke="midnightblue" d="M487.231,-254.331C415.078,-231.118 255.02,-179.623 191.366,-159.143"/>
<polygon fill="midnightblue" stroke="midnightblue" points="486.219,-257.682 496.81,-257.413 488.362,-251.019 486.219,-257.682"/>
</g>
<!-- Node19&#45;&gt;Node6 -->
<g id="edge34" class="edge"><title>Node19&#45;&gt;Node6</title>
<path fill="none" stroke="midnightblue" d="M447.659,-259.421C335.951,-247.973 135.699,-220.151 92.5,-165 65.5608,-130.607 131.745,-104.727 174.868,-92.0885"/>
<polygon fill="midnightblue" stroke="midnightblue" points="447.555,-262.928 457.855,-260.445 448.255,-255.963 447.555,-262.928"/>
</g>
<!-- Node19&#45;&gt;Node16 -->
<g id="edge36" class="edge"><title>Node19&#45;&gt;Node16</title>
<path fill="none" stroke="midnightblue" d="M527.503,-247.505C532.967,-222.261 542.543,-178.019 546.599,-159.282"/>
<polygon fill="midnightblue" stroke="midnightblue" points="524.074,-246.805 525.379,-257.319 530.915,-248.286 524.074,-246.805"/>
</g>
<!-- Node19&#45;&gt;Node17 -->
<g id="edge37" class="edge"><title>Node19&#45;&gt;Node17</title>
<path fill="none" stroke="midnightblue" d="M586.254,-255.679C628.403,-247.988 684.907,-236.2 733.5,-221 784.018,-205.198 840.312,-180.129 873.498,-164.532"/>
<polygon fill="midnightblue" stroke="midnightblue" points="585.629,-252.235 576.406,-257.449 586.867,-259.125 585.629,-252.235"/>
</g>
<!-- Node20&#45;&gt;Node15 -->
<g id="edge39" class="edge"><title>Node20&#45;&gt;Node15</title>
<path fill="none" stroke="midnightblue" d="M1217.68,-198.896C1261.57,-187.34 1329.35,-169.495 1369.18,-159.009"/>
<polygon fill="midnightblue" stroke="midnightblue" points="1216.66,-195.544 1207.88,-201.475 1218.44,-202.314 1216.66,-195.544"/>
</g>
</g>
</svg>
