<?xml version="1.0" encoding="UTF-8" standalone="no"?>
<!DOCTYPE svg PUBLIC "-//W3C//DTD SVG 1.1//EN"
 "http://www.w3.org/Graphics/SVG/1.1/DTD/svg11.dtd">
<!-- Generated by graphviz version 2.38.0 (20140413.2041)
 -->
<!-- Title: include/tvm/runtime/registry.h Pages: 1 -->
<svg width="1359pt" height="397pt"
 viewBox="0.00 0.00 1359.00 397.00" xmlns="http://www.w3.org/2000/svg" xmlns:xlink="http://www.w3.org/1999/xlink">
<g id="graph0" class="graph" transform="scale(1 1) rotate(0) translate(4 393)">
<title>include/tvm/runtime/registry.h</title>
<polygon fill="white" stroke="none" points="-4,4 -4,-393 1355,-393 1355,4 -4,4"/>
<!-- Node1 -->
<g id="node1" class="node"><title>Node1</title>
<polygon fill="#bfbfbf" stroke="black" points="605.5,-358.5 605.5,-388.5 718.5,-388.5 718.5,-358.5 605.5,-358.5"/>
<text text-anchor="start" x="613.5" y="-376.5" font-family="Helvetica,sans-Serif" font-size="10.00">include/tvm/runtime</text>
<text text-anchor="middle" x="662" y="-365.5" font-family="Helvetica,sans-Serif" font-size="10.00">/registry.h</text>
</g>
<!-- Node2 -->
<g id="node2" class="node"><title>Node2</title>
<g id="a_node2"><a xlink:href="packed__func_8h.html" target="_top" xlink:title="Type&#45;erased function used across TVM API. ">
<polygon fill="white" stroke="black" points="875.5,-291.5 875.5,-321.5 988.5,-321.5 988.5,-291.5 875.5,-291.5"/>
<text text-anchor="start" x="883.5" y="-309.5" font-family="Helvetica,sans-Serif" font-size="10.00">tvm/runtime/packed</text>
<text text-anchor="middle" x="932" y="-298.5" font-family="Helvetica,sans-Serif" font-size="10.00">_func.h</text>
</a>
</g>
</g>
<!-- Node1&#45;&gt;Node2 -->
<g id="edge1" class="edge"><title>Node1&#45;&gt;Node2</title>
<path fill="none" stroke="midnightblue" d="M718.601,-358.874C761.442,-348.56 820.402,-334.366 865.494,-323.511"/>
<polygon fill="midnightblue" stroke="midnightblue" points="866.571,-326.852 875.474,-321.108 864.932,-320.046 866.571,-326.852"/>
</g>
<!-- Node12 -->
<g id="node12" class="node"><title>Node12</title>
<polygon fill="white" stroke="#bfbfbf" points="1141,-62 1141,-81 1185,-81 1185,-62 1141,-62"/>
<text text-anchor="middle" x="1163" y="-69" font-family="Helvetica,sans-Serif" font-size="10.00">string</text>
</g>
<!-- Node1&#45;&gt;Node12 -->
<g id="edge51" class="edge"><title>Node1&#45;&gt;Node12</title>
<path fill="none" stroke="midnightblue" d="M718.677,-368.071C883.492,-354.437 1351,-310.115 1351,-246 1351,-246 1351,-246 1351,-188 1351,-115.816 1249.14,-87.319 1195.37,-77.3049"/>
<polygon fill="midnightblue" stroke="midnightblue" points="1195.76,-73.8194 1185.3,-75.541 1194.55,-80.7143 1195.76,-73.8194"/>
</g>
<!-- Node13 -->
<g id="node13" class="node"><title>Node13</title>
<polygon fill="white" stroke="#bfbfbf" points="55,-62 55,-81 97,-81 97,-62 55,-62"/>
<text text-anchor="middle" x="76" y="-69" font-family="Helvetica,sans-Serif" font-size="10.00">utility</text>
</g>
<!-- Node1&#45;&gt;Node13 -->
<g id="edge53" class="edge"><title>Node1&#45;&gt;Node13</title>
<path fill="none" stroke="midnightblue" d="M605.272,-367.639C444.938,-353.145 0,-307.394 0,-246 0,-246 0,-246 0,-188 0,-146.312 34.9778,-108.03 57.4751,-87.7185"/>
<polygon fill="midnightblue" stroke="midnightblue" points="59.8638,-90.2796 65.1111,-81.0755 55.2693,-84.9985 59.8638,-90.2796"/>
</g>
<!-- Node18 -->
<g id="node18" class="node"><title>Node18</title>
<polygon fill="white" stroke="#bfbfbf" points="366.5,-179.5 366.5,-198.5 413.5,-198.5 413.5,-179.5 366.5,-179.5"/>
<text text-anchor="middle" x="390" y="-186.5" font-family="Helvetica,sans-Serif" font-size="10.00">vector</text>
</g>
<!-- Node1&#45;&gt;Node18 -->
<g id="edge52" class="edge"><title>Node1&#45;&gt;Node18</title>
<path fill="none" stroke="midnightblue" d="M619.407,-358.454C569.968,-340.529 488.063,-305.65 432,-255 417.239,-241.664 405.503,-222.011 398.231,-207.809"/>
<polygon fill="midnightblue" stroke="midnightblue" points="401.271,-206.057 393.745,-198.6 394.978,-209.123 401.271,-206.057"/>
</g>
<!-- Node3 -->
<g id="node3" class="node"><title>Node3</title>
<polygon fill="white" stroke="#bfbfbf" points="878,-62 878,-81 964,-81 964,-62 878,-62"/>
<text text-anchor="middle" x="921" y="-69" font-family="Helvetica,sans-Serif" font-size="10.00">dmlc/logging.h</text>
</g>
<!-- Node2&#45;&gt;Node3 -->
<g id="edge2" class="edge"><title>Node2&#45;&gt;Node3</title>
<path fill="none" stroke="midnightblue" d="M988.776,-305.153C1072.35,-303.299 1222.26,-294.406 1256,-255 1342.24,-154.278 1088.7,-99.4769 974.088,-80.3744"/>
<polygon fill="midnightblue" stroke="midnightblue" points="974.537,-76.9015 964.104,-78.7421 973.408,-83.8098 974.537,-76.9015"/>
</g>
<!-- Node4 -->
<g id="node4" class="node"><title>Node4</title>
<g id="a_node4"><a xlink:href="c__runtime__api_8h.html" target="_top" xlink:title="tvm/runtime/c_runtime\l_api.h">
<polygon fill="white" stroke="black" points="435.5,-56.5 435.5,-86.5 562.5,-86.5 562.5,-56.5 435.5,-56.5"/>
<text text-anchor="start" x="443.5" y="-74.5" font-family="Helvetica,sans-Serif" font-size="10.00">tvm/runtime/c_runtime</text>
<text text-anchor="middle" x="499" y="-63.5" font-family="Helvetica,sans-Serif" font-size="10.00">_api.h</text>
</a>
</g>
</g>
<!-- Node2&#45;&gt;Node4 -->
<g id="edge3" class="edge"><title>Node2&#45;&gt;Node4</title>
<path fill="none" stroke="midnightblue" d="M875.426,-297.826C774.559,-283.063 569.404,-247.795 518,-199 490.578,-172.97 491.226,-125.614 494.737,-96.8094"/>
<polygon fill="midnightblue" stroke="midnightblue" points="498.223,-97.1555 496.17,-86.7614 491.293,-96.167 498.223,-97.1555"/>
</g>
<!-- Node8 -->
<g id="node8" class="node"><title>Node8</title>
<g id="a_node8"><a xlink:href="runtime_2module_8h.html" target="_top" xlink:title="Runtime container of the functions generated by TVM, This is used to support dynamically link...">
<polygon fill="white" stroke="black" points="714,-235.5 714,-254.5 838,-254.5 838,-235.5 714,-235.5"/>
<text text-anchor="middle" x="776" y="-242.5" font-family="Helvetica,sans-Serif" font-size="10.00">tvm/runtime/module.h</text>
</a>
</g>
</g>
<!-- Node2&#45;&gt;Node8 -->
<g id="edge7" class="edge"><title>Node2&#45;&gt;Node8</title>
<path fill="none" stroke="midnightblue" d="M889.19,-291.399C861.734,-281.416 827.015,-268.147 803.238,-258.534"/>
<polygon fill="midnightblue" stroke="midnightblue" points="804.351,-255.207 793.77,-254.658 801.699,-261.685 804.351,-255.207"/>
</g>
<!-- Node10 -->
<g id="node10" class="node"><title>Node10</title>
<g id="a_node10"><a xlink:href="object_8h.html" target="_top" xlink:title="A managed object in the TVM runtime. ">
<polygon fill="white" stroke="black" points="679.5,-123.5 679.5,-142.5 796.5,-142.5 796.5,-123.5 679.5,-123.5"/>
<text text-anchor="middle" x="738" y="-130.5" font-family="Helvetica,sans-Serif" font-size="10.00">tvm/runtime/object.h</text>
</a>
</g>
</g>
<!-- Node2&#45;&gt;Node10 -->
<g id="edge42" class="edge"><title>Node2&#45;&gt;Node10</title>
<path fill="none" stroke="midnightblue" d="M939.396,-291.124C951.412,-265.522 971.323,-211.66 945,-179 936.019,-167.857 861.433,-153.628 804.341,-144.186"/>
<polygon fill="midnightblue" stroke="midnightblue" points="804.698,-140.698 794.264,-142.538 803.568,-147.606 804.698,-140.698"/>
</g>
<!-- Node11 -->
<g id="node11" class="node"><title>Node11</title>
<polygon fill="white" stroke="#bfbfbf" points="747,-62 747,-81 815,-81 815,-62 747,-62"/>
<text text-anchor="middle" x="781" y="-69" font-family="Helvetica,sans-Serif" font-size="10.00">type_traits</text>
</g>
<!-- Node2&#45;&gt;Node11 -->
<g id="edge50" class="edge"><title>Node2&#45;&gt;Node11</title>
<path fill="none" stroke="midnightblue" d="M946.115,-291.455C954.546,-282.03 964.472,-268.842 969,-255 974.883,-237.016 973.081,-190.134 964,-179 928.806,-135.851 890.984,-172.883 844,-143 822.233,-129.156 803.449,-105.74 792.188,-89.7226"/>
<polygon fill="midnightblue" stroke="midnightblue" points="794.97,-87.5885 786.462,-81.2746 789.176,-91.5161 794.97,-87.5885"/>
</g>
<!-- Node2&#45;&gt;Node12 -->
<g id="edge46" class="edge"><title>Node2&#45;&gt;Node12</title>
<path fill="none" stroke="midnightblue" d="M988.82,-305.59C1076.57,-304.401 1238.85,-296.481 1276,-255 1298.54,-229.829 1291.53,-209.964 1278,-179 1259.6,-136.882 1215.42,-103.98 1187.49,-86.4678"/>
<polygon fill="midnightblue" stroke="midnightblue" points="1189.06,-83.3291 1178.7,-81.1279 1185.43,-89.3115 1189.06,-83.3291"/>
</g>
<!-- Node2&#45;&gt;Node13 -->
<g id="edge49" class="edge"><title>Node2&#45;&gt;Node13</title>
<path fill="none" stroke="midnightblue" d="M875.495,-306.175C722.209,-307.308 301.495,-305.587 174,-255 114.123,-231.242 97.6186,-205.496 82,-143 77.7229,-125.886 76.3563,-105.787 75.9808,-91.4379"/>
<polygon fill="midnightblue" stroke="midnightblue" points="79.4793,-91.2856 75.8554,-81.3298 72.4798,-91.3725 79.4793,-91.2856"/>
</g>
<!-- Node17 -->
<g id="node17" class="node"><title>Node17</title>
<polygon fill="white" stroke="#bfbfbf" points="879.5,-179.5 879.5,-198.5 936.5,-198.5 936.5,-179.5 879.5,-179.5"/>
<text text-anchor="middle" x="908" y="-186.5" font-family="Helvetica,sans-Serif" font-size="10.00">memory</text>
</g>
<!-- Node2&#45;&gt;Node17 -->
<g id="edge48" class="edge"><title>Node2&#45;&gt;Node17</title>
<path fill="none" stroke="midnightblue" d="M929.057,-291.337C924.733,-270.527 916.657,-231.663 911.861,-208.583"/>
<polygon fill="midnightblue" stroke="midnightblue" points="915.263,-207.748 909.801,-198.669 908.409,-209.172 915.263,-207.748"/>
</g>
<!-- Node2&#45;&gt;Node18 -->
<g id="edge45" class="edge"><title>Node2&#45;&gt;Node18</title>
<path fill="none" stroke="midnightblue" d="M875.159,-303.522C767.528,-299.096 538.277,-286.22 466,-255 440.717,-244.079 417.587,-221.736 403.649,-206.319"/>
<polygon fill="midnightblue" stroke="midnightblue" points="406.109,-203.814 396.896,-198.582 400.835,-208.418 406.109,-203.814"/>
</g>
<!-- Node20 -->
<g id="node20" class="node"><title>Node20</title>
<g id="a_node20"><a xlink:href="ndarray_8h.html" target="_top" xlink:title="A device&#45;independent managed NDArray abstraction. ">
<polygon fill="white" stroke="black" points="183.5,-235.5 183.5,-254.5 306.5,-254.5 306.5,-235.5 183.5,-235.5"/>
<text text-anchor="middle" x="245" y="-242.5" font-family="Helvetica,sans-Serif" font-size="10.00">tvm/runtime/ndarray.h</text>
</a>
</g>
</g>
<!-- Node2&#45;&gt;Node20 -->
<g id="edge27" class="edge"><title>Node2&#45;&gt;Node20</title>
<path fill="none" stroke="midnightblue" d="M875.488,-300.606C751.174,-289.839 454.152,-264.114 316.852,-252.223"/>
<polygon fill="midnightblue" stroke="midnightblue" points="317.114,-248.733 306.849,-251.357 316.51,-255.707 317.114,-248.733"/>
</g>
<!-- Node23 -->
<g id="node23" class="node"><title>Node23</title>
<g id="a_node23"><a xlink:href="data__type_8h.html" target="_top" xlink:title="tvm/runtime/data_type.h">
<polygon fill="white" stroke="black" points="853,-123.5 853,-142.5 989,-142.5 989,-123.5 853,-123.5"/>
<text text-anchor="middle" x="921" y="-130.5" font-family="Helvetica,sans-Serif" font-size="10.00">tvm/runtime/data_type.h</text>
</a>
</g>
</g>
<!-- Node2&#45;&gt;Node23 -->
<g id="edge38" class="edge"><title>Node2&#45;&gt;Node23</title>
<path fill="none" stroke="midnightblue" d="M968.697,-291.297C984.711,-283.152 1002.07,-271.259 1012,-255 1029.65,-226.113 1035.16,-207.568 1017,-179 1006.84,-163.01 989.324,-152.603 972.017,-145.875"/>
<polygon fill="midnightblue" stroke="midnightblue" points="973.065,-142.533 962.471,-142.503 970.734,-149.134 973.065,-142.533"/>
</g>
<!-- Node24 -->
<g id="node24" class="node"><title>Node24</title>
<polygon fill="white" stroke="#bfbfbf" points="1064.5,-235.5 1064.5,-254.5 1127.5,-254.5 1127.5,-235.5 1064.5,-235.5"/>
<text text-anchor="middle" x="1096" y="-242.5" font-family="Helvetica,sans-Serif" font-size="10.00">functional</text>
</g>
<!-- Node2&#45;&gt;Node24 -->
<g id="edge43" class="edge"><title>Node2&#45;&gt;Node24</title>
<path fill="none" stroke="midnightblue" d="M970.866,-291.399C998.751,-281.283 1035.94,-267.791 1062.51,-258.149"/>
<polygon fill="midnightblue" stroke="midnightblue" points="1063.93,-261.359 1072.14,-254.658 1061.54,-254.778 1063.93,-261.359"/>
</g>
<!-- Node25 -->
<g id="node25" class="node"><title>Node25</title>
<polygon fill="white" stroke="#bfbfbf" points="1145.5,-235.5 1145.5,-254.5 1186.5,-254.5 1186.5,-235.5 1145.5,-235.5"/>
<text text-anchor="middle" x="1166" y="-242.5" font-family="Helvetica,sans-Serif" font-size="10.00">tuple</text>
</g>
<!-- Node2&#45;&gt;Node25 -->
<g id="edge44" class="edge"><title>Node2&#45;&gt;Node25</title>
<path fill="none" stroke="midnightblue" d="M988.912,-292.198C1027.61,-282.972 1080.19,-270.088 1135.41,-255.06"/>
<polygon fill="midnightblue" stroke="midnightblue" points="1136.66,-258.346 1145.38,-252.33 1134.81,-251.594 1136.66,-258.346"/>
</g>
<!-- Node26 -->
<g id="node26" class="node"><title>Node26</title>
<polygon fill="white" stroke="#bfbfbf" points="1205,-235.5 1205,-254.5 1247,-254.5 1247,-235.5 1205,-235.5"/>
<text text-anchor="middle" x="1226" y="-242.5" font-family="Helvetica,sans-Serif" font-size="10.00">limits</text>
</g>
<!-- Node2&#45;&gt;Node26 -->
<g id="edge47" class="edge"><title>Node2&#45;&gt;Node26</title>
<path fill="none" stroke="midnightblue" d="M988.502,-296.214C1041.98,-287.057 1124.37,-271.995 1195,-255 1195.1,-254.976 1195.2,-254.952 1195.3,-254.928"/>
<polygon fill="midnightblue" stroke="midnightblue" points="1195.94,-258.379 1204.72,-252.459 1194.16,-251.607 1195.94,-258.379"/>
</g>
<!-- Node5 -->
<g id="node5" class="node"><title>Node5</title>
<polygon fill="white" stroke="#bfbfbf" points="364,-0.5 364,-19.5 454,-19.5 454,-0.5 364,-0.5"/>
<text text-anchor="middle" x="409" y="-7.5" font-family="Helvetica,sans-Serif" font-size="10.00">dlpack/dlpack.h</text>
</g>
<!-- Node4&#45;&gt;Node5 -->
<g id="edge4" class="edge"><title>Node4&#45;&gt;Node5</title>
<path fill="none" stroke="midnightblue" d="M477.671,-56.3993C463.515,-47.0402 444.989,-34.7924 430.747,-25.3771"/>
<polygon fill="midnightblue" stroke="midnightblue" points="432.368,-22.2531 422.096,-19.6578 428.507,-28.0923 432.368,-22.2531"/>
</g>
<!-- Node6 -->
<g id="node6" class="node"><title>Node6</title>
<polygon fill="white" stroke="#bfbfbf" points="472.5,-0.5 472.5,-19.5 525.5,-19.5 525.5,-0.5 472.5,-0.5"/>
<text text-anchor="middle" x="499" y="-7.5" font-family="Helvetica,sans-Serif" font-size="10.00">stdint.h</text>
</g>
<!-- Node4&#45;&gt;Node6 -->
<g id="edge5" class="edge"><title>Node4&#45;&gt;Node6</title>
<path fill="none" stroke="midnightblue" d="M499,-56.3993C499,-48.4664 499,-38.458 499,-29.8583"/>
<polygon fill="midnightblue" stroke="midnightblue" points="502.5,-29.6577 499,-19.6578 495.5,-29.6578 502.5,-29.6577"/>
</g>
<!-- Node7 -->
<g id="node7" class="node"><title>Node7</title>
<polygon fill="white" stroke="#bfbfbf" points="543.5,-0.5 543.5,-19.5 598.5,-19.5 598.5,-0.5 543.5,-0.5"/>
<text text-anchor="middle" x="571" y="-7.5" font-family="Helvetica,sans-Serif" font-size="10.00">stddef.h</text>
</g>
<!-- Node4&#45;&gt;Node7 -->
<g id="edge6" class="edge"><title>Node4&#45;&gt;Node7</title>
<path fill="none" stroke="midnightblue" d="M516.063,-56.3993C527.065,-47.3076 541.365,-35.4899 552.618,-26.1909"/>
<polygon fill="midnightblue" stroke="midnightblue" points="555.044,-28.726 560.523,-19.6578 550.585,-23.33 555.044,-28.726"/>
</g>
<!-- Node8&#45;&gt;Node2 -->
<g id="edge26" class="edge"><title>Node8&#45;&gt;Node2</title>
<path fill="none" stroke="midnightblue" d="M803.629,-254.658C828.068,-263.272 863.831,-276.746 891.466,-287.658"/>
<polygon fill="midnightblue" stroke="midnightblue" points="890.285,-290.955 900.87,-291.399 892.872,-284.451 890.285,-290.955"/>
</g>
<!-- Node8&#45;&gt;Node4 -->
<g id="edge9" class="edge"><title>Node8&#45;&gt;Node4</title>
<path fill="none" stroke="midnightblue" d="M713.85,-239.558C651.931,-233.89 562.505,-221.942 537,-199 507.974,-172.891 500.748,-125.561 499.164,-96.783"/>
<polygon fill="midnightblue" stroke="midnightblue" points="502.661,-96.6112 498.8,-86.7448 495.665,-96.8653 502.661,-96.6112"/>
</g>
<!-- Node9 -->
<g id="node9" class="node"><title>Node9</title>
<polygon fill="white" stroke="#bfbfbf" points="372,-123.5 372,-142.5 432,-142.5 432,-123.5 372,-123.5"/>
<text text-anchor="middle" x="402" y="-130.5" font-family="Helvetica,sans-Serif" font-size="10.00">dmlc/io.h</text>
</g>
<!-- Node8&#45;&gt;Node9 -->
<g id="edge8" class="edge"><title>Node8&#45;&gt;Node9</title>
<path fill="none" stroke="midnightblue" d="M713.926,-240.836C657.56,-236.323 572.949,-225.399 504,-199 472.199,-186.824 439.758,-163.992 420.249,-148.89"/>
<polygon fill="midnightblue" stroke="midnightblue" points="422.259,-146.017 412.243,-142.561 417.917,-151.508 422.259,-146.017"/>
</g>
<!-- Node8&#45;&gt;Node10 -->
<g id="edge10" class="edge"><title>Node8&#45;&gt;Node10</title>
<path fill="none" stroke="midnightblue" d="M781.983,-235.232C789.934,-222.4 801.991,-197.973 793,-179 786.872,-166.068 775.006,-155.617 763.859,-148.053"/>
<polygon fill="midnightblue" stroke="midnightblue" points="765.528,-144.968 755.198,-142.614 761.805,-150.896 765.528,-144.968"/>
</g>
<!-- Node8&#45;&gt;Node12 -->
<g id="edge24" class="edge"><title>Node8&#45;&gt;Node12</title>
<path fill="none" stroke="midnightblue" d="M786.016,-235.379C802.485,-221.61 836.784,-194.621 870,-179 923.478,-153.851 942.267,-162.651 998,-143 1047.52,-125.539 1103.36,-100.507 1135.73,-85.4443"/>
<polygon fill="midnightblue" stroke="midnightblue" points="1137.42,-88.5192 1144.99,-81.1091 1134.45,-82.1797 1137.42,-88.5192"/>
</g>
<!-- Node15 -->
<g id="node15" class="node"><title>Node15</title>
<g id="a_node15"><a xlink:href="runtime_2memory_8h.html" target="_top" xlink:title="Runtime memory management. ">
<polygon fill="white" stroke="black" points="546.5,-179.5 546.5,-198.5 673.5,-198.5 673.5,-179.5 546.5,-179.5"/>
<text text-anchor="middle" x="610" y="-186.5" font-family="Helvetica,sans-Serif" font-size="10.00">tvm/runtime/memory.h</text>
</a>
</g>
</g>
<!-- Node8&#45;&gt;Node15 -->
<g id="edge17" class="edge"><title>Node8&#45;&gt;Node15</title>
<path fill="none" stroke="midnightblue" d="M749.697,-235.444C721.649,-226.32 677.056,-211.813 645.816,-201.651"/>
<polygon fill="midnightblue" stroke="midnightblue" points="646.772,-198.282 636.18,-198.516 644.607,-204.938 646.772,-198.282"/>
</g>
<!-- Node8&#45;&gt;Node17 -->
<g id="edge22" class="edge"><title>Node8&#45;&gt;Node17</title>
<path fill="none" stroke="midnightblue" d="M796.916,-235.444C818.736,-226.517 853.15,-212.439 877.892,-202.317"/>
<polygon fill="midnightblue" stroke="midnightblue" points="879.252,-205.542 887.182,-198.516 876.601,-199.063 879.252,-205.542"/>
</g>
<!-- Node8&#45;&gt;Node18 -->
<g id="edge23" class="edge"><title>Node8&#45;&gt;Node18</title>
<path fill="none" stroke="midnightblue" d="M713.779,-237.927C643.921,-230.651 527.333,-217.135 428,-199 426.541,-198.734 425.054,-198.447 423.554,-198.146"/>
<polygon fill="midnightblue" stroke="midnightblue" points="424.151,-194.694 413.637,-195.999 422.67,-201.535 424.151,-194.694"/>
</g>
<!-- Node19 -->
<g id="node19" class="node"><title>Node19</title>
<polygon fill="white" stroke="#bfbfbf" points="691.5,-179.5 691.5,-198.5 784.5,-198.5 784.5,-179.5 691.5,-179.5"/>
<text text-anchor="middle" x="738" y="-186.5" font-family="Helvetica,sans-Serif" font-size="10.00">unordered_map</text>
</g>
<!-- Node8&#45;&gt;Node19 -->
<g id="edge25" class="edge"><title>Node8&#45;&gt;Node19</title>
<path fill="none" stroke="midnightblue" d="M769.725,-235.083C764.358,-227.455 756.482,-216.264 749.921,-206.941"/>
<polygon fill="midnightblue" stroke="midnightblue" points="752.775,-204.915 744.158,-198.751 747.051,-208.943 752.775,-204.915"/>
</g>
<!-- Node10&#45;&gt;Node3 -->
<g id="edge11" class="edge"><title>Node10&#45;&gt;Node3</title>
<path fill="none" stroke="midnightblue" d="M764.219,-123.475C796.018,-113.136 849.765,-95.6611 885.317,-84.1017"/>
<polygon fill="midnightblue" stroke="midnightblue" points="886.401,-87.4297 894.829,-81.0091 884.237,-80.7727 886.401,-87.4297"/>
</g>
<!-- Node10&#45;&gt;Node4 -->
<g id="edge12" class="edge"><title>Node10&#45;&gt;Node4</title>
<path fill="none" stroke="midnightblue" d="M703.757,-123.475C667.758,-114.513 610.219,-100.188 565.29,-89.0032"/>
<polygon fill="midnightblue" stroke="midnightblue" points="565.877,-85.5425 555.328,-86.523 564.186,-92.3352 565.877,-85.5425"/>
</g>
<!-- Node10&#45;&gt;Node11 -->
<g id="edge13" class="edge"><title>Node10&#45;&gt;Node11</title>
<path fill="none" stroke="midnightblue" d="M744.161,-123.475C750.611,-114.55 760.904,-100.307 768.973,-89.1425"/>
<polygon fill="midnightblue" stroke="midnightblue" points="771.83,-91.1642 774.851,-81.0091 766.156,-87.064 771.83,-91.1642"/>
</g>
<!-- Node10&#45;&gt;Node12 -->
<g id="edge14" class="edge"><title>Node10&#45;&gt;Node12</title>
<path fill="none" stroke="midnightblue" d="M796.648,-123.789C887.401,-111.084 1058.84,-87.0817 1130.37,-77.0679"/>
<polygon fill="midnightblue" stroke="midnightblue" points="1131.16,-80.4925 1140.57,-75.6397 1130.18,-73.5601 1131.16,-80.4925"/>
</g>
<!-- Node10&#45;&gt;Node13 -->
<g id="edge15" class="edge"><title>Node10&#45;&gt;Node13</title>
<path fill="none" stroke="midnightblue" d="M679.173,-126.845C584.824,-118.56 393.83,-101.717 232,-87 188.868,-83.0776 139.041,-78.425 107.533,-75.4681"/>
<polygon fill="midnightblue" stroke="midnightblue" points="107.476,-71.9474 97.1928,-74.4968 106.822,-78.9168 107.476,-71.9474"/>
</g>
<!-- Node14 -->
<g id="node14" class="node"><title>Node14</title>
<polygon fill="white" stroke="#bfbfbf" points="241,-62 241,-81 291,-81 291,-62 241,-62"/>
<text text-anchor="middle" x="266" y="-69" font-family="Helvetica,sans-Serif" font-size="10.00">atomic</text>
</g>
<!-- Node10&#45;&gt;Node14 -->
<g id="edge16" class="edge"><title>Node10&#45;&gt;Node14</title>
<path fill="none" stroke="midnightblue" d="M679.175,-124.585C579.843,-112.063 381.824,-87.1007 301.291,-76.9487"/>
<polygon fill="midnightblue" stroke="midnightblue" points="301.533,-73.4516 291.173,-75.6733 300.657,-80.3966 301.533,-73.4516"/>
</g>
<!-- Node15&#45;&gt;Node10 -->
<g id="edge18" class="edge"><title>Node15&#45;&gt;Node10</title>
<path fill="none" stroke="midnightblue" d="M630.282,-179.444C651.347,-170.557 684.517,-156.563 708.486,-146.451"/>
<polygon fill="midnightblue" stroke="midnightblue" points="709.96,-149.628 717.813,-142.516 707.239,-143.179 709.96,-149.628"/>
</g>
<!-- Node15&#45;&gt;Node11 -->
<g id="edge21" class="edge"><title>Node15&#45;&gt;Node11</title>
<path fill="none" stroke="midnightblue" d="M616.135,-179.397C626.125,-165.894 647.103,-139.56 670,-123 693.013,-106.356 722.387,-93.2881 745.137,-84.6192"/>
<polygon fill="midnightblue" stroke="midnightblue" points="746.593,-87.8125 754.76,-81.0623 744.166,-81.2467 746.593,-87.8125"/>
</g>
<!-- Node15&#45;&gt;Node13 -->
<g id="edge20" class="edge"><title>Node15&#45;&gt;Node13</title>
<path fill="none" stroke="midnightblue" d="M591.703,-179.352C561.177,-165.296 497.619,-137.598 441,-123 377.843,-106.717 183.726,-84.3339 107.342,-75.8992"/>
<polygon fill="midnightblue" stroke="midnightblue" points="107.694,-72.4169 97.3717,-74.8037 106.93,-79.375 107.694,-72.4169"/>
</g>
<!-- Node16 -->
<g id="node16" class="node"><title>Node16</title>
<polygon fill="white" stroke="#bfbfbf" points="575.5,-123.5 575.5,-142.5 622.5,-142.5 622.5,-123.5 575.5,-123.5"/>
<text text-anchor="middle" x="599" y="-130.5" font-family="Helvetica,sans-Serif" font-size="10.00">cstdlib</text>
</g>
<!-- Node15&#45;&gt;Node16 -->
<g id="edge19" class="edge"><title>Node15&#45;&gt;Node16</title>
<path fill="none" stroke="midnightblue" d="M608.184,-179.083C606.726,-171.927 604.629,-161.635 602.807,-152.691"/>
<polygon fill="midnightblue" stroke="midnightblue" points="606.208,-151.851 600.783,-142.751 599.349,-153.248 606.208,-151.851"/>
</g>
<!-- Node20&#45;&gt;Node4 -->
<g id="edge28" class="edge"><title>Node20&#45;&gt;Node4</title>
<path fill="none" stroke="midnightblue" d="M218.071,-235.356C201.281,-228.411 181.022,-216.825 171,-199 158.737,-177.19 179.653,-131.044 189,-123 223.532,-93.2805 345.067,-80.8427 425.309,-75.7882"/>
<polygon fill="midnightblue" stroke="midnightblue" points="425.598,-79.2772 435.369,-75.1794 425.176,-72.29 425.598,-79.2772"/>
</g>
<!-- Node20&#45;&gt;Node10 -->
<g id="edge29" class="edge"><title>Node20&#45;&gt;Node10</title>
<path fill="none" stroke="midnightblue" d="M259.276,-235.277C287.061,-218.365 346.602,-182.465 357,-179 385.827,-169.392 567.15,-150.617 668.916,-140.625"/>
<polygon fill="midnightblue" stroke="midnightblue" points="669.498,-144.085 679.11,-139.627 668.816,-137.118 669.498,-144.085"/>
</g>
<!-- Node20&#45;&gt;Node13 -->
<g id="edge37" class="edge"><title>Node20&#45;&gt;Node13</title>
<path fill="none" stroke="midnightblue" d="M194.991,-235.442C170.86,-229.027 143.081,-217.955 124,-199 93.9622,-169.16 82.4273,-118.627 78.2309,-91.3349"/>
<polygon fill="midnightblue" stroke="midnightblue" points="81.6667,-90.6253 76.8493,-81.189 74.7307,-91.5699 81.6667,-90.6253"/>
</g>
<!-- Node20&#45;&gt;Node14 -->
<g id="edge35" class="edge"><title>Node20&#45;&gt;Node14</title>
<path fill="none" stroke="midnightblue" d="M194.491,-235.487C173.321,-229.153 150.712,-218.136 138,-199 119.31,-170.864 118.997,-150.925 138,-123 158.618,-92.7008 200.492,-80.5806 230.742,-75.7324"/>
<polygon fill="midnightblue" stroke="midnightblue" points="231.488,-79.162 240.903,-74.3029 230.513,-72.2302 231.488,-79.162"/>
</g>
<!-- Node20&#45;&gt;Node18 -->
<g id="edge36" class="edge"><title>Node20&#45;&gt;Node18</title>
<path fill="none" stroke="midnightblue" d="M267.976,-235.444C292.157,-226.438 330.418,-212.189 357.646,-202.049"/>
<polygon fill="midnightblue" stroke="midnightblue" points="358.982,-205.286 367.132,-198.516 356.539,-198.727 358.982,-205.286"/>
</g>
<!-- Node21 -->
<g id="node21" class="node"><title>Node21</title>
<g id="a_node21"><a xlink:href="serializer_8h.html" target="_top" xlink:title="Serializer extension to support TVM data types Include this file to enable serialization of DLDataTyp...">
<polygon fill="white" stroke="black" points="180,-179.5 180,-198.5 310,-198.5 310,-179.5 180,-179.5"/>
<text text-anchor="middle" x="245" y="-186.5" font-family="Helvetica,sans-Serif" font-size="10.00">tvm/runtime/serializer.h</text>
</a>
</g>
</g>
<!-- Node20&#45;&gt;Node21 -->
<g id="edge30" class="edge"><title>Node20&#45;&gt;Node21</title>
<path fill="none" stroke="midnightblue" d="M239.834,-235.083C238.324,-227.927 237.894,-217.635 238.542,-208.691"/>
<polygon fill="midnightblue" stroke="midnightblue" points="242.015,-209.126 239.869,-198.751 235.077,-208.2 242.015,-209.126"/>
</g>
<!-- Node21&#45;&gt;Node4 -->
<g id="edge33" class="edge"><title>Node21&#45;&gt;Node4</title>
<path fill="none" stroke="midnightblue" d="M259.178,-179.29C280.985,-166.101 324.299,-140.726 363,-123 390.107,-110.584 421.224,-98.8526 446.848,-89.8274"/>
<polygon fill="midnightblue" stroke="midnightblue" points="448.088,-93.1015 456.379,-86.5051 445.784,-86.4915 448.088,-93.1015"/>
</g>
<!-- Node21&#45;&gt;Node9 -->
<g id="edge31" class="edge"><title>Node21&#45;&gt;Node9</title>
<path fill="none" stroke="midnightblue" d="M269.877,-179.444C296.289,-170.359 338.215,-155.939 367.742,-145.783"/>
<polygon fill="midnightblue" stroke="midnightblue" points="368.921,-149.079 377.239,-142.516 366.645,-142.459 368.921,-149.079"/>
</g>
<!-- Node21&#45;&gt;Node20 -->
<g id="edge34" class="edge"><title>Node21&#45;&gt;Node20</title>
<path fill="none" stroke="midnightblue" d="M250.131,-198.751C251.657,-205.858 252.104,-216.136 251.472,-225.101"/>
<polygon fill="midnightblue" stroke="midnightblue" points="247.993,-224.713 250.166,-235.083 254.934,-225.622 247.993,-224.713"/>
</g>
<!-- Node22 -->
<g id="node22" class="node"><title>Node22</title>
<polygon fill="white" stroke="#bfbfbf" points="198,-123.5 198,-142.5 292,-142.5 292,-123.5 198,-123.5"/>
<text text-anchor="middle" x="245" y="-130.5" font-family="Helvetica,sans-Serif" font-size="10.00">dmlc/serializer.h</text>
</g>
<!-- Node21&#45;&gt;Node22 -->
<g id="edge32" class="edge"><title>Node21&#45;&gt;Node22</title>
<path fill="none" stroke="midnightblue" d="M245,-179.083C245,-172.006 245,-161.861 245,-152.986"/>
<polygon fill="midnightblue" stroke="midnightblue" points="248.5,-152.751 245,-142.751 241.5,-152.751 248.5,-152.751"/>
</g>
<!-- Node23&#45;&gt;Node3 -->
<g id="edge40" class="edge"><title>Node23&#45;&gt;Node3</title>
<path fill="none" stroke="midnightblue" d="M921,-123.475C921,-115.08 921,-101.981 921,-91.1631"/>
<polygon fill="midnightblue" stroke="midnightblue" points="924.5,-91.0091 921,-81.0091 917.5,-91.0091 924.5,-91.0091"/>
</g>
<!-- Node23&#45;&gt;Node4 -->
<g id="edge39" class="edge"><title>Node23&#45;&gt;Node4</title>
<path fill="none" stroke="midnightblue" d="M860.538,-123.475C784.699,-112.782 654.721,-94.4559 573.014,-82.9356"/>
<polygon fill="midnightblue" stroke="midnightblue" points="573.193,-79.4264 562.803,-81.4959 572.216,-86.3578 573.193,-79.4264"/>
</g>
<!-- Node23&#45;&gt;Node11 -->
<g id="edge41" class="edge"><title>Node23&#45;&gt;Node11</title>
<path fill="none" stroke="midnightblue" d="M900.941,-123.475C877.238,-113.401 837.594,-96.5525 810.417,-85.0023"/>
<polygon fill="midnightblue" stroke="midnightblue" points="811.594,-81.6994 801.021,-81.0091 808.856,-88.1417 811.594,-81.6994"/>
</g>
</g>
</svg>
