<?xml version="1.0" encoding="UTF-8" standalone="no"?>
<!DOCTYPE svg PUBLIC "-//W3C//DTD SVG 1.1//EN"
 "http://www.w3.org/Graphics/SVG/1.1/DTD/svg11.dtd">
<!-- Generated by graphviz version 2.38.0 (20140413.2041)
 -->
<!-- Title: include/tvm/relay/op.h Pages: 1 -->
<svg width="3227pt" height="1125pt"
 viewBox="0.00 0.00 3227.00 1125.00" xmlns="http://www.w3.org/2000/svg" xmlns:xlink="http://www.w3.org/1999/xlink">
<g id="graph0" class="graph" transform="scale(1 1) rotate(0) translate(4 1121)">
<title>include/tvm/relay/op.h</title>
<polygon fill="white" stroke="none" points="-4,4 -4,-1121 3223,-1121 3223,4 -4,4"/>
<!-- Node1 -->
<g id="node1" class="node"><title>Node1</title>
<polygon fill="#bfbfbf" stroke="black" points="1560,-1097.5 1560,-1116.5 1682,-1116.5 1682,-1097.5 1560,-1097.5"/>
<text text-anchor="middle" x="1621" y="-1104.5" font-family="Helvetica,sans-Serif" font-size="10.00">include/tvm/relay/op.h</text>
</g>
<!-- Node2 -->
<g id="node2" class="node"><title>Node2</title>
<g id="a_node2"><a xlink:href="ir_2op_8h.html" target="_top" xlink:title="Primitive operators(builtin intrinsics) and registry for them. ">
<polygon fill="white" stroke="black" points="1065,-985.5 1065,-1004.5 1133,-1004.5 1133,-985.5 1065,-985.5"/>
<text text-anchor="middle" x="1099" y="-992.5" font-family="Helvetica,sans-Serif" font-size="10.00">tvm/ir/op.h</text>
</a>
</g>
</g>
<!-- Node1&#45;&gt;Node2 -->
<g id="edge1" class="edge"><title>Node1&#45;&gt;Node2</title>
<path fill="none" stroke="midnightblue" d="M1580.47,-1097.46C1484.35,-1077.2 1243.13,-1026.37 1143.31,-1005.34"/>
<polygon fill="midnightblue" stroke="midnightblue" points="1143.76,-1001.86 1133.26,-1003.22 1142.32,-1008.71 1143.76,-1001.86"/>
</g>
<!-- Node46 -->
<g id="node46" class="node"><title>Node46</title>
<g id="a_node46"><a xlink:href="relay_2type_8h.html" target="_top" xlink:title="Relay typed AST nodes. ">
<polygon fill="white" stroke="black" points="1573.5,-985.5 1573.5,-1004.5 1668.5,-1004.5 1668.5,-985.5 1573.5,-985.5"/>
<text text-anchor="middle" x="1621" y="-992.5" font-family="Helvetica,sans-Serif" font-size="10.00">tvm/relay/type.h</text>
</a>
</g>
</g>
<!-- Node1&#45;&gt;Node46 -->
<g id="edge158" class="edge"><title>Node1&#45;&gt;Node46</title>
<path fill="none" stroke="midnightblue" d="M1621,-1097.37C1621,-1079.62 1621,-1038.67 1621,-1014.6"/>
<polygon fill="midnightblue" stroke="midnightblue" points="1624.5,-1014.59 1621,-1004.59 1617.5,-1014.59 1624.5,-1014.59"/>
</g>
<!-- Node50 -->
<g id="node50" class="node"><title>Node50</title>
<g id="a_node50"><a xlink:href="relay_2expr_8h.html" target="_top" xlink:title="Relay expression language. ">
<polygon fill="white" stroke="black" points="2040,-1041.5 2040,-1060.5 2134,-1060.5 2134,-1041.5 2040,-1041.5"/>
<text text-anchor="middle" x="2087" y="-1048.5" font-family="Helvetica,sans-Serif" font-size="10.00">tvm/relay/expr.h</text>
</a>
</g>
</g>
<!-- Node1&#45;&gt;Node50 -->
<g id="edge187" class="edge"><title>Node1&#45;&gt;Node50</title>
<path fill="none" stroke="midnightblue" d="M1682.4,-1098.88C1773.1,-1088.38 1941.63,-1068.85 2029.83,-1058.62"/>
<polygon fill="midnightblue" stroke="midnightblue" points="2030.39,-1062.08 2039.92,-1057.46 2029.58,-1055.13 2030.39,-1062.08"/>
</g>
<!-- Node3 -->
<g id="node3" class="node"><title>Node3</title>
<polygon fill="white" stroke="#bfbfbf" points="764,-929.5 764,-948.5 850,-948.5 850,-929.5 764,-929.5"/>
<text text-anchor="middle" x="807" y="-936.5" font-family="Helvetica,sans-Serif" font-size="10.00">dmlc/registry.h</text>
</g>
<!-- Node2&#45;&gt;Node3 -->
<g id="edge2" class="edge"><title>Node2&#45;&gt;Node3</title>
<path fill="none" stroke="midnightblue" d="M1064.93,-987.7C1014.59,-978.39 919.868,-960.873 860.286,-949.854"/>
<polygon fill="midnightblue" stroke="midnightblue" points="860.784,-946.387 850.314,-948.01 859.511,-953.27 860.784,-946.387"/>
</g>
<!-- Node4 -->
<g id="node4" class="node"><title>Node4</title>
<g id="a_node4"><a xlink:href="ir_2attrs_8h.html" target="_top" xlink:title="Helpers for attribute objects. ">
<polygon fill="white" stroke="black" points="2436.5,-761.5 2436.5,-780.5 2515.5,-780.5 2515.5,-761.5 2436.5,-761.5"/>
<text text-anchor="middle" x="2476" y="-768.5" font-family="Helvetica,sans-Serif" font-size="10.00">tvm/ir/attrs.h</text>
</a>
</g>
</g>
<!-- Node2&#45;&gt;Node4 -->
<g id="edge3" class="edge"><title>Node2&#45;&gt;Node4</title>
<path fill="none" stroke="midnightblue" d="M1133.34,-989.849C1238.07,-977.061 1562.55,-936.498 1830,-893 2053.39,-856.668 2318.42,-803.997 2426.46,-782.117"/>
<polygon fill="midnightblue" stroke="midnightblue" points="2427.32,-785.515 2436.42,-780.097 2425.92,-778.655 2427.32,-785.515"/>
</g>
<!-- Node6 -->
<g id="node6" class="node"><title>Node6</title>
<g id="a_node6"><a xlink:href="ir_2expr_8h.html" target="_top" xlink:title="Base expr nodes in TVM. ">
<polygon fill="white" stroke="black" points="1755.5,-705.5 1755.5,-724.5 1832.5,-724.5 1832.5,-705.5 1755.5,-705.5"/>
<text text-anchor="middle" x="1794" y="-712.5" font-family="Helvetica,sans-Serif" font-size="10.00">tvm/ir/expr.h</text>
</a>
</g>
</g>
<!-- Node2&#45;&gt;Node6 -->
<g id="edge127" class="edge"><title>Node2&#45;&gt;Node6</title>
<path fill="none" stroke="midnightblue" d="M1104.53,-985.095C1113.62,-971.177 1133,-944.286 1156,-929 1169.28,-920.171 1624.9,-771.169 1757.9,-727.771"/>
<polygon fill="midnightblue" stroke="midnightblue" points="1759.2,-731.027 1767.62,-724.598 1757.03,-724.373 1759.2,-731.027"/>
</g>
<!-- Node13 -->
<g id="node13" class="node"><title>Node13</title>
<polygon fill="white" stroke="#bfbfbf" points="2511,-62 2511,-81 2555,-81 2555,-62 2511,-62"/>
<text text-anchor="middle" x="2533" y="-69" font-family="Helvetica,sans-Serif" font-size="10.00">string</text>
</g>
<!-- Node2&#45;&gt;Node13 -->
<g id="edge155" class="edge"><title>Node2&#45;&gt;Node13</title>
<path fill="none" stroke="midnightblue" d="M1133.27,-992.89C1354.36,-985.457 2581.41,-940.051 2940,-837 3040.95,-807.99 3143,-821.034 3143,-716 3143,-716 3143,-716 3143,-188 3143,-151.553 3124.94,-140.554 3093,-123 3001.3,-72.6024 2670.45,-71.1989 2565.31,-72.0743"/>
<polygon fill="midnightblue" stroke="midnightblue" points="2565.26,-68.5745 2555.3,-72.1707 2565.33,-75.5742 2565.26,-68.5745"/>
</g>
<!-- Node14 -->
<g id="node14" class="node"><title>Node14</title>
<polygon fill="white" stroke="#bfbfbf" points="188,-62 188,-81 230,-81 230,-62 188,-62"/>
<text text-anchor="middle" x="209" y="-69" font-family="Helvetica,sans-Serif" font-size="10.00">utility</text>
</g>
<!-- Node2&#45;&gt;Node14 -->
<g id="edge156" class="edge"><title>Node2&#45;&gt;Node14</title>
<path fill="none" stroke="midnightblue" d="M1064.9,-994.251C879.405,-995.177 0,-993.778 0,-884 0,-884 0,-884 0,-188 0,-107.798 119.356,-82.8533 177.674,-75.452"/>
<polygon fill="midnightblue" stroke="midnightblue" points="178.285,-78.9044 187.81,-74.2648 177.471,-71.9519 178.285,-78.9044"/>
</g>
<!-- Node22 -->
<g id="node22" class="node"><title>Node22</title>
<polygon fill="white" stroke="#bfbfbf" points="783.5,-179.5 783.5,-198.5 830.5,-198.5 830.5,-179.5 783.5,-179.5"/>
<text text-anchor="middle" x="807" y="-186.5" font-family="Helvetica,sans-Serif" font-size="10.00">vector</text>
</g>
<!-- Node2&#45;&gt;Node22 -->
<g id="edge157" class="edge"><title>Node2&#45;&gt;Node22</title>
<path fill="none" stroke="midnightblue" d="M1064.79,-993.147C908.044,-988.794 266,-965.963 266,-884 266,-884 266,-884 266,-367 266,-353.585 655.418,-235.526 773.476,-200.043"/>
<polygon fill="midnightblue" stroke="midnightblue" points="774.835,-203.29 783.406,-197.061 772.822,-196.585 774.835,-203.29"/>
</g>
<!-- Node37 -->
<g id="node37" class="node"><title>Node37</title>
<g id="a_node37"><a xlink:href="ir_2type_8h.html" target="_top" xlink:title="IR/AST nodes for the unified type system in TVM. ">
<polygon fill="white" stroke="black" points="1490.5,-649.5 1490.5,-668.5 1567.5,-668.5 1567.5,-649.5 1490.5,-649.5"/>
<text text-anchor="middle" x="1529" y="-656.5" font-family="Helvetica,sans-Serif" font-size="10.00">tvm/ir/type.h</text>
</a>
</g>
</g>
<!-- Node2&#45;&gt;Node37 -->
<g id="edge128" class="edge"><title>Node2&#45;&gt;Node37</title>
<path fill="none" stroke="midnightblue" d="M1100.19,-985.426C1106.49,-943.903 1140.1,-763.319 1255,-705 1327.44,-668.235 1423.23,-660.373 1480.25,-659.293"/>
<polygon fill="midnightblue" stroke="midnightblue" points="1480.47,-662.79 1490.43,-659.165 1480.39,-655.791 1480.47,-662.79"/>
</g>
<!-- Node39 -->
<g id="node39" class="node"><title>Node39</title>
<g id="a_node39"><a xlink:href="registry_8h.html" target="_top" xlink:title="This file defines the TVM global function registry. ">
<polygon fill="white" stroke="black" points="633,-358.5 633,-377.5 755,-377.5 755,-358.5 633,-358.5"/>
<text text-anchor="middle" x="694" y="-365.5" font-family="Helvetica,sans-Serif" font-size="10.00">tvm/runtime/registry.h</text>
</a>
</g>
</g>
<!-- Node2&#45;&gt;Node39 -->
<g id="edge122" class="edge"><title>Node2&#45;&gt;Node39</title>
<path fill="none" stroke="midnightblue" d="M1064.63,-994.217C947.188,-994.047 569,-985.61 569,-884 569,-884 569,-884 569,-490 569,-437.321 627.022,-400.258 664.005,-381.984"/>
<polygon fill="midnightblue" stroke="midnightblue" points="665.83,-384.992 673.359,-377.538 662.825,-378.67 665.83,-384.992"/>
</g>
<!-- Node40 -->
<g id="node40" class="node"><title>Node40</title>
<g id="a_node40"><a xlink:href="type__relation_8h.html" target="_top" xlink:title="Type relation and function for type inference(checking). ">
<polygon fill="white" stroke="black" points="1165.5,-929.5 1165.5,-948.5 1284.5,-948.5 1284.5,-929.5 1165.5,-929.5"/>
<text text-anchor="middle" x="1225" y="-936.5" font-family="Helvetica,sans-Serif" font-size="10.00">tvm/ir/type_relation.h</text>
</a>
</g>
</g>
<!-- Node2&#45;&gt;Node40 -->
<g id="edge129" class="edge"><title>Node2&#45;&gt;Node40</title>
<path fill="none" stroke="midnightblue" d="M1118.97,-985.444C1139.61,-976.596 1172.06,-962.687 1195.63,-952.586"/>
<polygon fill="midnightblue" stroke="midnightblue" points="1197.32,-955.673 1205.13,-948.516 1194.56,-949.239 1197.32,-955.673"/>
</g>
<!-- Node5 -->
<g id="node5" class="node"><title>Node5</title>
<polygon fill="white" stroke="#bfbfbf" points="2704.5,-705.5 2704.5,-724.5 2799.5,-724.5 2799.5,-705.5 2704.5,-705.5"/>
<text text-anchor="middle" x="2752" y="-712.5" font-family="Helvetica,sans-Serif" font-size="10.00">dmlc/common.h</text>
</g>
<!-- Node4&#45;&gt;Node5 -->
<g id="edge4" class="edge"><title>Node4&#45;&gt;Node5</title>
<path fill="none" stroke="midnightblue" d="M2515.54,-762.263C2563.57,-752.866 2644.81,-736.973 2698.42,-726.482"/>
<polygon fill="midnightblue" stroke="midnightblue" points="2699.29,-729.879 2708.43,-724.524 2697.95,-723.01 2699.29,-729.879"/>
</g>
<!-- Node4&#45;&gt;Node6 -->
<g id="edge5" class="edge"><title>Node4&#45;&gt;Node6</title>
<path fill="none" stroke="midnightblue" d="M2436.38,-766.863C2318.75,-757.549 1971.67,-730.068 1842.85,-719.868"/>
<polygon fill="midnightblue" stroke="midnightblue" points="1843.12,-716.378 1832.87,-719.078 1842.57,-723.357 1843.12,-716.378"/>
</g>
<!-- Node12 -->
<g id="node12" class="node"><title>Node12</title>
<polygon fill="white" stroke="#bfbfbf" points="1920,-62 1920,-81 1988,-81 1988,-62 1920,-62"/>
<text text-anchor="middle" x="1954" y="-69" font-family="Helvetica,sans-Serif" font-size="10.00">type_traits</text>
</g>
<!-- Node4&#45;&gt;Node12 -->
<g id="edge119" class="edge"><title>Node4&#45;&gt;Node12</title>
<path fill="none" stroke="midnightblue" d="M2510.43,-761.457C2532.24,-754.599 2559.83,-743.074 2579,-725 2763.34,-551.168 2941.75,-336.158 2743,-179 2689.81,-136.942 2507.22,-151.868 2440,-143 2276.91,-121.485 2083.57,-92.3522 1998.24,-79.3073"/>
<polygon fill="midnightblue" stroke="midnightblue" points="1998.55,-75.8141 1988.13,-77.7607 1997.49,-82.7335 1998.55,-75.8141"/>
</g>
<!-- Node4&#45;&gt;Node13 -->
<g id="edge120" class="edge"><title>Node4&#45;&gt;Node13</title>
<path fill="none" stroke="midnightblue" d="M2515.52,-770.132C2597.45,-769.603 2782.08,-763.989 2829,-725 2855.62,-702.879 2894,-635.575 2894,-492 2894,-492 2894,-492 2894,-428.5 2894,-343.256 2953,-331.244 2953,-246 2953,-246 2953,-246 2953,-188 2953,-148.077 2926.51,-141.243 2891,-123 2834.34,-93.8937 2642.51,-79.1977 2565.45,-74.3571"/>
<polygon fill="midnightblue" stroke="midnightblue" points="2565.55,-70.8573 2555.36,-73.739 2565.13,-77.8442 2565.55,-70.8573"/>
</g>
<!-- Node4&#45;&gt;Node14 -->
<g id="edge121" class="edge"><title>Node4&#45;&gt;Node14</title>
<path fill="none" stroke="midnightblue" d="M2436.23,-769.594C2326.06,-768.028 2007.71,-760.524 1746,-725 1626.72,-708.809 1598.42,-695.513 1481,-669 1377.11,-645.543 1351.13,-639.609 1248,-613 1157.38,-589.617 1135,-582.669 1045,-557 930.045,-524.216 902.102,-513.264 787,-481 615.618,-432.96 565.079,-444.546 400,-378 293.888,-335.225 264.45,-302.171 215,-199 200.04,-167.788 194.295,-157.414 198,-123 199.146,-112.356 201.613,-100.664 203.921,-91.213"/>
<polygon fill="midnightblue" stroke="midnightblue" points="207.358,-91.9024 206.468,-81.345 200.58,-90.1527 207.358,-91.9024"/>
</g>
<!-- Node19 -->
<g id="node19" class="node"><title>Node19</title>
<g id="a_node19"><a xlink:href="packed__func_8h.html" target="_top" xlink:title="Type&#45;erased function used across TVM API. ">
<polygon fill="white" stroke="black" points="1119.5,-291.5 1119.5,-321.5 1232.5,-321.5 1232.5,-291.5 1119.5,-291.5"/>
<text text-anchor="start" x="1127.5" y="-309.5" font-family="Helvetica,sans-Serif" font-size="10.00">tvm/runtime/packed</text>
<text text-anchor="middle" x="1176" y="-298.5" font-family="Helvetica,sans-Serif" font-size="10.00">_func.h</text>
</a>
</g>
</g>
<!-- Node4&#45;&gt;Node19 -->
<g id="edge115" class="edge"><title>Node4&#45;&gt;Node19</title>
<path fill="none" stroke="midnightblue" d="M2453.39,-761.492C2400.23,-741.53 2263.13,-690.256 2148,-649 2076.68,-623.444 2060.64,-610.781 1987,-593 1812.5,-550.868 1765.34,-557.476 1587,-537 1542.56,-531.897 1217.03,-533.226 1186,-501 1142,-455.301 1157.4,-371.926 1168.56,-331.182"/>
<polygon fill="midnightblue" stroke="midnightblue" points="1171.93,-332.143 1171.34,-321.564 1165.2,-330.201 1171.93,-332.143"/>
</g>
<!-- Node4&#45;&gt;Node22 -->
<g id="edge117" class="edge"><title>Node4&#45;&gt;Node22</title>
<path fill="none" stroke="midnightblue" d="M2436.41,-763.353C2225.05,-727.715 1234.53,-558.734 1109,-501 1030.29,-464.799 889.082,-313.491 844,-255 832.63,-240.248 822.385,-221.621 815.575,-208.093"/>
<polygon fill="midnightblue" stroke="midnightblue" points="818.612,-206.336 811.074,-198.89 812.323,-209.411 818.612,-206.336"/>
</g>
<!-- Node23 -->
<g id="node23" class="node"><title>Node23</title>
<polygon fill="white" stroke="#bfbfbf" points="2641.5,-179.5 2641.5,-198.5 2734.5,-198.5 2734.5,-179.5 2641.5,-179.5"/>
<text text-anchor="middle" x="2688" y="-186.5" font-family="Helvetica,sans-Serif" font-size="10.00">unordered_map</text>
</g>
<!-- Node4&#45;&gt;Node23 -->
<g id="edge116" class="edge"><title>Node4&#45;&gt;Node23</title>
<path fill="none" stroke="midnightblue" d="M2515.68,-770.815C2595.36,-771.51 2770.45,-767.983 2808,-725 2880.35,-642.187 2791.41,-331.67 2739,-235 2732.4,-222.835 2721.16,-212.378 2710.91,-204.614"/>
<polygon fill="midnightblue" stroke="midnightblue" points="2712.83,-201.686 2702.65,-198.747 2708.77,-207.392 2712.83,-201.686"/>
</g>
<!-- Node26 -->
<g id="node26" class="node"><title>Node26</title>
<polygon fill="white" stroke="#bfbfbf" points="2536.5,-235.5 2536.5,-254.5 2599.5,-254.5 2599.5,-235.5 2536.5,-235.5"/>
<text text-anchor="middle" x="2568" y="-242.5" font-family="Helvetica,sans-Serif" font-size="10.00">functional</text>
</g>
<!-- Node4&#45;&gt;Node26 -->
<g id="edge118" class="edge"><title>Node4&#45;&gt;Node26</title>
<path fill="none" stroke="midnightblue" d="M2496.64,-761.421C2529.5,-746.231 2590,-711.293 2590,-660 2590,-660 2590,-660 2590,-490 2590,-405.815 2576.85,-305.951 2570.88,-264.975"/>
<polygon fill="midnightblue" stroke="midnightblue" points="2574.31,-264.214 2569.38,-254.837 2567.38,-265.243 2574.31,-264.214"/>
</g>
<!-- Node29 -->
<g id="node29" class="node"><title>Node29</title>
<g id="a_node29"><a xlink:href="structural__equal_8h.html" target="_top" xlink:title="Structural equality comparison. ">
<polygon fill="white" stroke="black" points="1786.5,-414.5 1786.5,-444.5 1897.5,-444.5 1897.5,-414.5 1786.5,-414.5"/>
<text text-anchor="start" x="1794.5" y="-432.5" font-family="Helvetica,sans-Serif" font-size="10.00">tvm/node/structural</text>
<text text-anchor="middle" x="1842" y="-421.5" font-family="Helvetica,sans-Serif" font-size="10.00">_equal.h</text>
</a>
</g>
</g>
<!-- Node4&#45;&gt;Node29 -->
<g id="edge113" class="edge"><title>Node4&#45;&gt;Node29</title>
<path fill="none" stroke="midnightblue" d="M2473.53,-761.307C2469.74,-748.568 2461.9,-724.256 2452,-705 2419.52,-641.834 2401.14,-625.535 2338,-593 2192.52,-518.035 2005.44,-467.964 1907.86,-444.974"/>
<polygon fill="midnightblue" stroke="midnightblue" points="1908.38,-441.501 1897.85,-442.635 1906.79,-448.318 1908.38,-441.501"/>
</g>
<!-- Node33 -->
<g id="node33" class="node"><title>Node33</title>
<g id="a_node33"><a xlink:href="structural__hash_8h.html" target="_top" xlink:title="tvm/node/structural\l_hash.h">
<polygon fill="white" stroke="black" points="2070.5,-414.5 2070.5,-444.5 2181.5,-444.5 2181.5,-414.5 2070.5,-414.5"/>
<text text-anchor="start" x="2078.5" y="-432.5" font-family="Helvetica,sans-Serif" font-size="10.00">tvm/node/structural</text>
<text text-anchor="middle" x="2126" y="-421.5" font-family="Helvetica,sans-Serif" font-size="10.00">_hash.h</text>
</a>
</g>
</g>
<!-- Node4&#45;&gt;Node33 -->
<g id="edge114" class="edge"><title>Node4&#45;&gt;Node33</title>
<path fill="none" stroke="midnightblue" d="M2480.08,-761.358C2492.31,-734.037 2525.73,-648.083 2490,-593 2423.95,-491.18 2277.57,-452.604 2191.92,-438.404"/>
<polygon fill="midnightblue" stroke="midnightblue" points="2192.21,-434.906 2181.79,-436.791 2191.11,-441.819 2192.21,-434.906"/>
</g>
<!-- Node7 -->
<g id="node7" class="node"><title>Node7</title>
<g id="a_node7"><a xlink:href="object_8h.html" target="_top" xlink:title="A managed object in the TVM runtime. ">
<polygon fill="white" stroke="black" points="1228.5,-123.5 1228.5,-142.5 1345.5,-142.5 1345.5,-123.5 1228.5,-123.5"/>
<text text-anchor="middle" x="1287" y="-130.5" font-family="Helvetica,sans-Serif" font-size="10.00">tvm/runtime/object.h</text>
</a>
</g>
</g>
<!-- Node6&#45;&gt;Node7 -->
<g id="edge6" class="edge"><title>Node6&#45;&gt;Node7</title>
<path fill="none" stroke="midnightblue" d="M1782.41,-705.377C1761.11,-689.652 1716.35,-657.18 1699,-649 1484.35,-547.826 1328.66,-690.631 1186,-501 1180.66,-493.897 1183.75,-489.599 1186,-481 1200.59,-425.268 1298.41,-310.732 1313,-255 1322.53,-218.605 1306.86,-175.393 1296,-151.714"/>
<polygon fill="midnightblue" stroke="midnightblue" points="1299.09,-150.06 1291.6,-142.57 1292.79,-153.098 1299.09,-150.06"/>
</g>
<!-- Node6&#45;&gt;Node12 -->
<g id="edge112" class="edge"><title>Node6&#45;&gt;Node12</title>
<path fill="none" stroke="midnightblue" d="M1810.49,-705.374C1827.8,-696.316 1855.81,-681.657 1880,-669 2020.23,-595.614 2088.18,-618.702 2194,-501 2232.92,-457.712 2229.8,-435.479 2239,-378 2262.73,-229.638 2061.47,-121.354 1983.78,-85.4241"/>
<polygon fill="midnightblue" stroke="midnightblue" points="1985.06,-82.1654 1974.51,-81.2136 1982.17,-88.538 1985.06,-82.1654"/>
</g>
<!-- Node6&#45;&gt;Node13 -->
<g id="edge109" class="edge"><title>Node6&#45;&gt;Node13</title>
<path fill="none" stroke="midnightblue" d="M1832.66,-707.889C1873.46,-700.844 1939.3,-687.772 1994,-669 2264.01,-576.34 2839,-305.716 2839,-246 2839,-246 2839,-246 2839,-188 2839,-129.971 2643.95,-90.9791 2565.3,-77.6152"/>
<polygon fill="midnightblue" stroke="midnightblue" points="2565.45,-74.0914 2555.01,-75.9003 2564.3,-80.9962 2565.45,-74.0914"/>
</g>
<!-- Node16 -->
<g id="node16" class="node"><title>Node16</title>
<g id="a_node16"><a xlink:href="node_8h.html" target="_top" xlink:title="Definitions and helper macros for IR/AST nodes. ">
<polygon fill="white" stroke="black" points="1480,-537.5 1480,-556.5 1578,-556.5 1578,-537.5 1480,-537.5"/>
<text text-anchor="middle" x="1529" y="-544.5" font-family="Helvetica,sans-Serif" font-size="10.00">tvm/node/node.h</text>
</a>
</g>
</g>
<!-- Node6&#45;&gt;Node16 -->
<g id="edge15" class="edge"><title>Node6&#45;&gt;Node16</title>
<path fill="none" stroke="midnightblue" d="M1787.18,-705.069C1776.54,-691.591 1754.84,-665.844 1732,-649 1677.15,-608.557 1603.65,-576.624 1561.81,-560.187"/>
<polygon fill="midnightblue" stroke="midnightblue" points="1562.97,-556.884 1552.38,-556.536 1560.44,-563.411 1562.97,-556.884"/>
</g>
<!-- Node28 -->
<g id="node28" class="node"><title>Node28</title>
<polygon fill="white" stroke="#bfbfbf" points="2476,-235.5 2476,-254.5 2518,-254.5 2518,-235.5 2476,-235.5"/>
<text text-anchor="middle" x="2497" y="-242.5" font-family="Helvetica,sans-Serif" font-size="10.00">limits</text>
</g>
<!-- Node6&#45;&gt;Node28 -->
<g id="edge111" class="edge"><title>Node6&#45;&gt;Node28</title>
<path fill="none" stroke="midnightblue" d="M1832.76,-705.55C1866.41,-697.7 1916.17,-684.849 1958,-669 1997.59,-653.998 2263.81,-522.978 2300,-501 2335.86,-479.219 2347.68,-475.955 2376,-445 2429.41,-386.626 2471.87,-301.219 2488.91,-264.214"/>
<polygon fill="midnightblue" stroke="midnightblue" points="2492.26,-265.296 2493.2,-254.743 2485.88,-262.408 2492.26,-265.296"/>
</g>
<!-- Node31 -->
<g id="node31" class="node"><title>Node31</title>
<g id="a_node31"><a xlink:href="node_2container_8h.html" target="_top" xlink:title="Array/Map container in the DSL graph. ">
<polygon fill="white" stroke="black" points="1534.5,-358.5 1534.5,-377.5 1653.5,-377.5 1653.5,-358.5 1534.5,-358.5"/>
<text text-anchor="middle" x="1594" y="-365.5" font-family="Helvetica,sans-Serif" font-size="10.00">tvm/node/container.h</text>
</a>
</g>
</g>
<!-- Node6&#45;&gt;Node31 -->
<g id="edge97" class="edge"><title>Node6&#45;&gt;Node31</title>
<path fill="none" stroke="midnightblue" d="M1789.22,-705.105C1782.43,-692.525 1769.53,-668.857 1758,-649 1719.34,-582.424 1706.83,-567.476 1668,-501 1644.25,-460.345 1617.49,-411.923 1603.57,-386.531"/>
<polygon fill="midnightblue" stroke="midnightblue" points="1606.61,-384.802 1598.74,-377.709 1600.47,-388.162 1606.61,-384.802"/>
</g>
<!-- Node36 -->
<g id="node36" class="node"><title>Node36</title>
<g id="a_node36"><a xlink:href="span_8h.html" target="_top" xlink:title="Span information for debugging purposes. ">
<polygon fill="white" stroke="black" points="1898,-593.5 1898,-612.5 1978,-612.5 1978,-593.5 1898,-593.5"/>
<text text-anchor="middle" x="1938" y="-600.5" font-family="Helvetica,sans-Serif" font-size="10.00">tvm/ir/span.h</text>
</a>
</g>
</g>
<!-- Node6&#45;&gt;Node36 -->
<g id="edge98" class="edge"><title>Node6&#45;&gt;Node36</title>
<path fill="none" stroke="midnightblue" d="M1805.3,-705.368C1829.8,-686.653 1888.06,-642.151 1918.58,-618.832"/>
<polygon fill="midnightblue" stroke="midnightblue" points="1920.93,-621.443 1926.75,-612.591 1916.68,-615.881 1920.93,-621.443"/>
</g>
<!-- Node6&#45;&gt;Node37 -->
<g id="edge102" class="edge"><title>Node6&#45;&gt;Node37</title>
<path fill="none" stroke="midnightblue" d="M1755.47,-706.148C1708.36,-696.55 1628.62,-680.3 1577.42,-669.867"/>
<polygon fill="midnightblue" stroke="midnightblue" points="1578.08,-666.429 1567.58,-667.862 1576.68,-673.288 1578.08,-666.429"/>
</g>
<!-- Node38 -->
<g id="node38" class="node"><title>Node38</title>
<polygon fill="white" stroke="#bfbfbf" points="1628,-649.5 1628,-668.5 1690,-668.5 1690,-649.5 1628,-649.5"/>
<text text-anchor="middle" x="1659" y="-656.5" font-family="Helvetica,sans-Serif" font-size="10.00">algorithm</text>
</g>
<!-- Node6&#45;&gt;Node38 -->
<g id="edge110" class="edge"><title>Node6&#45;&gt;Node38</title>
<path fill="none" stroke="midnightblue" d="M1772.61,-705.444C1750.29,-696.517 1715.1,-682.439 1689.79,-672.317"/>
<polygon fill="midnightblue" stroke="midnightblue" points="1690.88,-668.981 1680.29,-668.516 1688.28,-675.48 1690.88,-668.981"/>
</g>
<!-- Node8 -->
<g id="node8" class="node"><title>Node8</title>
<polygon fill="white" stroke="#bfbfbf" points="1547,-62 1547,-81 1633,-81 1633,-62 1547,-62"/>
<text text-anchor="middle" x="1590" y="-69" font-family="Helvetica,sans-Serif" font-size="10.00">dmlc/logging.h</text>
</g>
<!-- Node7&#45;&gt;Node8 -->
<g id="edge7" class="edge"><title>Node7&#45;&gt;Node8</title>
<path fill="none" stroke="midnightblue" d="M1330.41,-123.475C1384.86,-112.783 1478.18,-94.4578 1536.85,-82.9374"/>
<polygon fill="midnightblue" stroke="midnightblue" points="1537.53,-86.3705 1546.67,-81.0091 1536.18,-79.5017 1537.53,-86.3705"/>
</g>
<!-- Node9 -->
<g id="node9" class="node"><title>Node9</title>
<g id="a_node9"><a xlink:href="c__runtime__api_8h.html" target="_top" xlink:title="tvm/runtime/c_runtime\l_api.h">
<polygon fill="white" stroke="red" points="624.5,-56.5 624.5,-86.5 751.5,-86.5 751.5,-56.5 624.5,-56.5"/>
<text text-anchor="start" x="632.5" y="-74.5" font-family="Helvetica,sans-Serif" font-size="10.00">tvm/runtime/c_runtime</text>
<text text-anchor="middle" x="688" y="-63.5" font-family="Helvetica,sans-Serif" font-size="10.00">_api.h</text>
</a>
</g>
</g>
<!-- Node7&#45;&gt;Node9 -->
<g id="edge8" class="edge"><title>Node7&#45;&gt;Node9</title>
<path fill="none" stroke="midnightblue" d="M1228.45,-124.64C1223.56,-124.069 1218.7,-123.515 1214,-123 1052.88,-105.337 863.609,-88 761.793,-78.9527"/>
<polygon fill="midnightblue" stroke="midnightblue" points="761.887,-75.4473 751.616,-78.0502 761.268,-82.42 761.887,-75.4473"/>
</g>
<!-- Node7&#45;&gt;Node12 -->
<g id="edge11" class="edge"><title>Node7&#45;&gt;Node12</title>
<path fill="none" stroke="midnightblue" d="M1345.61,-126.772C1477.06,-115.045 1793.04,-86.8589 1909.72,-76.4497"/>
<polygon fill="midnightblue" stroke="midnightblue" points="1910.08,-79.9315 1919.73,-75.5567 1909.46,-72.9592 1910.08,-79.9315"/>
</g>
<!-- Node7&#45;&gt;Node13 -->
<g id="edge12" class="edge"><title>Node7&#45;&gt;Node13</title>
<path fill="none" stroke="midnightblue" d="M1345.84,-129.19C1565.57,-118.698 2333.94,-82.0058 2500.85,-74.0354"/>
<polygon fill="midnightblue" stroke="midnightblue" points="2501.14,-77.5256 2510.96,-73.5525 2500.8,-70.5336 2501.14,-77.5256"/>
</g>
<!-- Node7&#45;&gt;Node14 -->
<g id="edge13" class="edge"><title>Node7&#45;&gt;Node14</title>
<path fill="none" stroke="midnightblue" d="M1228.28,-128.759C1030.03,-117.817 389.598,-82.4681 240.312,-74.2282"/>
<polygon fill="midnightblue" stroke="midnightblue" points="240.219,-70.7179 230.041,-73.6614 239.833,-77.7072 240.219,-70.7179"/>
</g>
<!-- Node15 -->
<g id="node15" class="node"><title>Node15</title>
<polygon fill="white" stroke="#bfbfbf" points="926,-62 926,-81 976,-81 976,-62 926,-62"/>
<text text-anchor="middle" x="951" y="-69" font-family="Helvetica,sans-Serif" font-size="10.00">atomic</text>
</g>
<!-- Node7&#45;&gt;Node15 -->
<g id="edge14" class="edge"><title>Node7&#45;&gt;Node15</title>
<path fill="none" stroke="midnightblue" d="M1238.86,-123.475C1170.56,-111.38 1047.11,-89.5188 986.506,-78.7875"/>
<polygon fill="midnightblue" stroke="midnightblue" points="986.753,-75.2768 976.295,-76.9794 985.532,-82.1696 986.753,-75.2768"/>
</g>
<!-- Node10 -->
<g id="node10" class="node"><title>Node10</title>
<polygon fill="white" stroke="#bfbfbf" points="598,-0.5 598,-19.5 688,-19.5 688,-0.5 598,-0.5"/>
<text text-anchor="middle" x="643" y="-7.5" font-family="Helvetica,sans-Serif" font-size="10.00">dlpack/dlpack.h</text>
</g>
<!-- Node9&#45;&gt;Node10 -->
<g id="edge9" class="edge"><title>Node9&#45;&gt;Node10</title>
<path fill="none" stroke="midnightblue" d="M677.336,-56.3993C670.864,-47.8424 662.566,-36.8708 655.749,-27.857"/>
<polygon fill="midnightblue" stroke="midnightblue" points="658.372,-25.5223 649.548,-19.6578 652.789,-29.7449 658.372,-25.5223"/>
</g>
<!-- Node11 -->
<g id="node11" class="node"><title>Node11</title>
<polygon fill="white" stroke="#bfbfbf" points="706.5,-0.5 706.5,-19.5 759.5,-19.5 759.5,-0.5 706.5,-0.5"/>
<text text-anchor="middle" x="733" y="-7.5" font-family="Helvetica,sans-Serif" font-size="10.00">stdint.h</text>
</g>
<!-- Node9&#45;&gt;Node11 -->
<g id="edge10" class="edge"><title>Node9&#45;&gt;Node11</title>
<path fill="none" stroke="midnightblue" d="M698.664,-56.3993C705.136,-47.8424 713.434,-36.8708 720.251,-27.857"/>
<polygon fill="midnightblue" stroke="midnightblue" points="723.211,-29.7449 726.452,-19.6578 717.628,-25.5223 723.211,-29.7449"/>
</g>
<!-- Node16&#45;&gt;Node7 -->
<g id="edge17" class="edge"><title>Node16&#45;&gt;Node7</title>
<path fill="none" stroke="midnightblue" d="M1529.07,-537.433C1529.29,-487.447 1527.92,-233.811 1478,-179 1468.95,-169.062 1398.46,-154.274 1345.73,-144.393"/>
<polygon fill="midnightblue" stroke="midnightblue" points="1346.25,-140.93 1335.78,-142.546 1344.97,-147.812 1346.25,-140.93"/>
</g>
<!-- Node16&#45;&gt;Node9 -->
<g id="edge16" class="edge"><title>Node16&#45;&gt;Node9</title>
<path fill="none" stroke="midnightblue" d="M1479.95,-544.18C1400.99,-540.485 1241.19,-529.842 1109,-501 989.948,-475.024 968.122,-439.655 849,-414 694.4,-380.705 635.879,-449.853 495,-378 365.461,-311.93 193.865,-232.104 290,-123 311.021,-99.1427 504.564,-83.6255 613.807,-76.6893"/>
<polygon fill="midnightblue" stroke="midnightblue" points="614.345,-80.1626 624.107,-76.0449 613.908,-73.1762 614.345,-80.1626"/>
</g>
<!-- Node16&#45;&gt;Node12 -->
<g id="edge96" class="edge"><title>Node16&#45;&gt;Node12</title>
<path fill="none" stroke="midnightblue" d="M1578.1,-544.727C1714.73,-540.242 2095.48,-521.047 2190,-445 2320.66,-339.872 2054.91,-141.91 1975.49,-86.9647"/>
<polygon fill="midnightblue" stroke="midnightblue" points="1977.4,-84.0295 1967.17,-81.2628 1973.44,-89.8034 1977.4,-84.0295"/>
</g>
<!-- Node16&#45;&gt;Node13 -->
<g id="edge93" class="edge"><title>Node16&#45;&gt;Node13</title>
<path fill="none" stroke="midnightblue" d="M1578.1,-544.09C1695.76,-539.184 1991.15,-524.824 2087,-501 2148.05,-485.826 2166.85,-482.982 2217,-445 2363.85,-333.777 2351.81,-257.214 2478,-123 2489.75,-110.507 2504.04,-97.4411 2515.11,-87.7301"/>
<polygon fill="midnightblue" stroke="midnightblue" points="2517.58,-90.2161 2522.85,-81.0231 2513,-84.9252 2517.58,-90.2161"/>
</g>
<!-- Node16&#45;&gt;Node14 -->
<g id="edge95" class="edge"><title>Node16&#45;&gt;Node14</title>
<path fill="none" stroke="midnightblue" d="M1479.84,-544.633C1390.53,-541.462 1196,-531.388 1035,-501 898.582,-475.252 870.924,-442.239 735,-414 611.723,-388.389 574.821,-413.432 454,-378 426.148,-369.832 359.25,-339.375 336,-322 303.981,-298.071 300.218,-286.801 276,-255 240.148,-207.921 220.676,-199.778 204,-143 199.034,-126.093 201.213,-105.969 204.084,-91.5577"/>
<polygon fill="midnightblue" stroke="midnightblue" points="207.59,-91.9246 206.411,-81.3956 200.767,-90.3621 207.59,-91.9246"/>
</g>
<!-- Node17 -->
<g id="node17" class="node"><title>Node17</title>
<g id="a_node17"><a xlink:href="runtime_2memory_8h.html" target="_top" xlink:title="Runtime memory management. ">
<polygon fill="white" stroke="red" points="1342.5,-179.5 1342.5,-198.5 1469.5,-198.5 1469.5,-179.5 1342.5,-179.5"/>
<text text-anchor="middle" x="1406" y="-186.5" font-family="Helvetica,sans-Serif" font-size="10.00">tvm/runtime/memory.h</text>
</a>
</g>
</g>
<!-- Node16&#45;&gt;Node17 -->
<g id="edge18" class="edge"><title>Node16&#45;&gt;Node17</title>
<path fill="none" stroke="midnightblue" d="M1479.8,-540.252C1452.9,-534.587 1421.08,-523.337 1401,-501 1337.49,-430.336 1320.8,-377.087 1361,-291 1371.55,-268.417 1393.11,-277.419 1404,-255 1411.02,-240.561 1410.85,-222.109 1409.33,-208.557"/>
<polygon fill="midnightblue" stroke="midnightblue" points="1412.77,-207.904 1407.85,-198.521 1405.84,-208.924 1412.77,-207.904"/>
</g>
<!-- Node18 -->
<g id="node18" class="node"><title>Node18</title>
<g id="a_node18"><a xlink:href="reflection_8h.html" target="_top" xlink:title="Reflection and serialization of compiler IR/AST nodes. ">
<polygon fill="white" stroke="black" points="1195.5,-481.5 1195.5,-500.5 1314.5,-500.5 1314.5,-481.5 1195.5,-481.5"/>
<text text-anchor="middle" x="1255" y="-488.5" font-family="Helvetica,sans-Serif" font-size="10.00">tvm/node/reflection.h</text>
</a>
</g>
</g>
<!-- Node16&#45;&gt;Node18 -->
<g id="edge22" class="edge"><title>Node16&#45;&gt;Node18</title>
<path fill="none" stroke="midnightblue" d="M1485.58,-537.444C1437.48,-527.964 1359.91,-512.675 1308.19,-502.483"/>
<polygon fill="midnightblue" stroke="midnightblue" points="1308.7,-499.016 1298.21,-500.516 1307.35,-505.884 1308.7,-499.016"/>
</g>
<!-- Node16&#45;&gt;Node22 -->
<g id="edge94" class="edge"><title>Node16&#45;&gt;Node22</title>
<path fill="none" stroke="midnightblue" d="M1479.8,-544.145C1390.3,-540.127 1204.74,-528.653 1147,-501 1026.81,-443.445 1039.28,-371.385 933,-291 907.279,-271.546 895.475,-274.775 870,-255 851.289,-240.476 832.773,-220.524 820.708,-206.569"/>
<polygon fill="midnightblue" stroke="midnightblue" points="823.222,-204.122 814.085,-198.757 817.882,-208.648 823.222,-204.122"/>
</g>
<!-- Node16&#45;&gt;Node29 -->
<g id="edge91" class="edge"><title>Node16&#45;&gt;Node29</title>
<path fill="none" stroke="midnightblue" d="M1578.06,-546.585C1658.87,-546.383 1814.5,-540.696 1849,-501 1859.95,-488.404 1857.32,-469.355 1852.44,-454.232"/>
<polygon fill="midnightblue" stroke="midnightblue" points="1855.6,-452.675 1848.84,-444.517 1849.03,-455.11 1855.6,-452.675"/>
</g>
<!-- Node16&#45;&gt;Node31 -->
<g id="edge90" class="edge"><title>Node16&#45;&gt;Node31</title>
<path fill="none" stroke="midnightblue" d="M1532.14,-537.463C1542.11,-510.311 1573.25,-425.512 1587.16,-387.618"/>
<polygon fill="midnightblue" stroke="midnightblue" points="1590.58,-388.462 1590.74,-377.868 1584.01,-386.049 1590.58,-388.462"/>
</g>
<!-- Node16&#45;&gt;Node33 -->
<g id="edge92" class="edge"><title>Node16&#45;&gt;Node33</title>
<path fill="none" stroke="midnightblue" d="M1578.04,-541.544C1644.1,-535.069 1765.16,-521.545 1867,-501 1938.67,-486.542 2019.77,-463.327 2071.82,-447.518"/>
<polygon fill="midnightblue" stroke="midnightblue" points="2072.97,-450.826 2081.52,-444.558 2070.93,-444.131 2072.97,-450.826"/>
</g>
<!-- Node34 -->
<g id="node34" class="node"><title>Node34</title>
<g id="a_node34"><a xlink:href="repr__printer_8h.html" target="_top" xlink:title="Printer class to print repr string of each AST/IR nodes. ">
<polygon fill="white" stroke="black" points="1710,-481.5 1710,-500.5 1840,-500.5 1840,-481.5 1710,-481.5"/>
<text text-anchor="middle" x="1775" y="-488.5" font-family="Helvetica,sans-Serif" font-size="10.00">tvm/node/repr_printer.h</text>
</a>
</g>
</g>
<!-- Node16&#45;&gt;Node34 -->
<g id="edge87" class="edge"><title>Node16&#45;&gt;Node34</title>
<path fill="none" stroke="midnightblue" d="M1567.98,-537.444C1610.89,-528.023 1679.95,-512.866 1726.37,-502.675"/>
<polygon fill="midnightblue" stroke="midnightblue" points="1727.19,-506.079 1736.2,-500.516 1725.69,-499.242 1727.19,-506.079"/>
</g>
<!-- Node17&#45;&gt;Node7 -->
<g id="edge19" class="edge"><title>Node17&#45;&gt;Node7</title>
<path fill="none" stroke="midnightblue" d="M1387.14,-179.444C1367.73,-170.636 1337.27,-156.812 1315.04,-146.722"/>
<polygon fill="midnightblue" stroke="midnightblue" points="1316.32,-143.462 1305.77,-142.516 1313.43,-149.836 1316.32,-143.462"/>
</g>
<!-- Node17&#45;&gt;Node12 -->
<g id="edge21" class="edge"><title>Node17&#45;&gt;Node12</title>
<path fill="none" stroke="midnightblue" d="M1446.09,-179.437C1504.54,-166.961 1616.6,-143.085 1712,-123 1781.2,-108.429 1861.58,-91.6933 1910.08,-81.6164"/>
<polygon fill="midnightblue" stroke="midnightblue" points="1910.85,-85.0312 1919.93,-79.5703 1909.42,-78.1775 1910.85,-85.0312"/>
</g>
<!-- Node17&#45;&gt;Node14 -->
<g id="edge20" class="edge"><title>Node17&#45;&gt;Node14</title>
<path fill="none" stroke="midnightblue" d="M1342.49,-181.872C1122.79,-160.673 399.779,-90.9085 240.306,-75.5208"/>
<polygon fill="midnightblue" stroke="midnightblue" points="240.509,-72.0242 230.219,-74.5475 239.837,-78.9918 240.509,-72.0242"/>
</g>
<!-- Node18&#45;&gt;Node7 -->
<g id="edge24" class="edge"><title>Node18&#45;&gt;Node7</title>
<path fill="none" stroke="midnightblue" d="M1240.08,-481.4C1197.61,-456.884 1072.55,-384.389 970,-322 877.876,-265.956 701.159,-258.51 774,-179 803.43,-146.876 1085.46,-137.582 1218.35,-134.976"/>
<polygon fill="midnightblue" stroke="midnightblue" points="1218.5,-138.474 1228.43,-134.786 1218.37,-131.476 1218.5,-138.474"/>
</g>
<!-- Node18&#45;&gt;Node9 -->
<g id="edge23" class="edge"><title>Node18&#45;&gt;Node9</title>
<path fill="none" stroke="midnightblue" d="M1213.92,-481.439C1121.34,-462.155 903.175,-416.774 887,-414 663.421,-375.656 517.151,-450.444 402,-255 347.963,-163.283 512.77,-110.107 614.354,-86.7665"/>
<polygon fill="midnightblue" stroke="midnightblue" points="615.293,-90.1427 624.281,-84.5337 613.757,-83.3133 615.293,-90.1427"/>
</g>
<!-- Node18&#45;&gt;Node12 -->
<g id="edge86" class="edge"><title>Node18&#45;&gt;Node12</title>
<path fill="none" stroke="midnightblue" d="M1272.84,-481.406C1291.58,-472.374 1321.88,-457.737 1348,-445 1426.79,-406.577 1442.15,-386.64 1525,-358 1551.08,-348.982 1993.62,-276.444 2011,-255 2052.23,-204.121 1996.06,-123.279 1968.13,-88.8695"/>
<polygon fill="midnightblue" stroke="midnightblue" points="1970.8,-86.6103 1961.71,-81.1683 1965.42,-91.0914 1970.8,-86.6103"/>
</g>
<!-- Node18&#45;&gt;Node13 -->
<g id="edge85" class="edge"><title>Node18&#45;&gt;Node13</title>
<path fill="none" stroke="midnightblue" d="M1288.41,-481.45C1358.16,-463.459 1524.22,-419.889 1662,-378 1744.7,-352.858 1956.58,-298.963 2031,-255 2105.47,-211.008 2095.84,-160.043 2174,-123 2231.72,-95.6461 2423.56,-79.9239 2500.58,-74.5828"/>
<polygon fill="midnightblue" stroke="midnightblue" points="2500.92,-78.0678 2510.66,-73.8979 2500.45,-71.0839 2500.92,-78.0678"/>
</g>
<!-- Node18&#45;&gt;Node17 -->
<g id="edge25" class="edge"><title>Node18&#45;&gt;Node17</title>
<path fill="none" stroke="midnightblue" d="M1255.81,-481.422C1259.03,-451.78 1273.2,-352.149 1323,-291 1342.88,-266.59 1364.16,-279.439 1384,-255 1394.78,-241.718 1400.39,-222.883 1403.24,-208.904"/>
<polygon fill="midnightblue" stroke="midnightblue" points="1406.71,-209.386 1404.97,-198.934 1399.81,-208.186 1406.71,-209.386"/>
</g>
<!-- Node18&#45;&gt;Node19 -->
<g id="edge26" class="edge"><title>Node18&#45;&gt;Node19</title>
<path fill="none" stroke="midnightblue" d="M1253.78,-481.322C1251.57,-466.947 1246.27,-437.455 1237,-414 1224.93,-383.446 1205.27,-351.065 1191.54,-330.14"/>
<polygon fill="midnightblue" stroke="midnightblue" points="1194.34,-328.027 1185.88,-321.646 1188.51,-331.908 1194.34,-328.027"/>
</g>
<!-- Node18&#45;&gt;Node22 -->
<g id="edge84" class="edge"><title>Node18&#45;&gt;Node22</title>
<path fill="none" stroke="midnightblue" d="M1250.17,-481.039C1241.56,-465.722 1222.26,-434.207 1199,-414 1142.78,-365.161 967.809,-293.398 904,-255 876.86,-238.668 846.713,-218.057 827.342,-204.476"/>
<polygon fill="midnightblue" stroke="midnightblue" points="829.193,-201.499 819.003,-198.597 825.159,-207.22 829.193,-201.499"/>
</g>
<!-- Node24 -->
<g id="node24" class="node"><title>Node24</title>
<g id="a_node24"><a xlink:href="ndarray_8h.html" target="_top" xlink:title="A device&#45;independent managed NDArray abstraction. ">
<polygon fill="white" stroke="red" points="446.5,-235.5 446.5,-254.5 569.5,-254.5 569.5,-235.5 446.5,-235.5"/>
<text text-anchor="middle" x="508" y="-242.5" font-family="Helvetica,sans-Serif" font-size="10.00">tvm/runtime/ndarray.h</text>
</a>
</g>
</g>
<!-- Node18&#45;&gt;Node24 -->
<g id="edge57" class="edge"><title>Node18&#45;&gt;Node24</title>
<path fill="none" stroke="midnightblue" d="M1233.51,-481.461C1194.99,-466.375 1111.45,-434.655 1039,-414 993.371,-400.991 665.654,-340.589 622,-322 616.995,-319.869 560.927,-281.972 529.332,-260.516"/>
<polygon fill="midnightblue" stroke="midnightblue" points="531.002,-257.419 520.764,-254.692 527.067,-263.208 531.002,-257.419"/>
</g>
<!-- Node25 -->
<g id="node25" class="node"><title>Node25</title>
<g id="a_node25"><a xlink:href="data__type_8h.html" target="_top" xlink:title="tvm/runtime/data_type.h">
<polygon fill="white" stroke="black" points="1866,-235.5 1866,-254.5 2002,-254.5 2002,-235.5 1866,-235.5"/>
<text text-anchor="middle" x="1934" y="-242.5" font-family="Helvetica,sans-Serif" font-size="10.00">tvm/runtime/data_type.h</text>
</a>
</g>
</g>
<!-- Node18&#45;&gt;Node25 -->
<g id="edge58" class="edge"><title>Node18&#45;&gt;Node25</title>
<path fill="none" stroke="midnightblue" d="M1265.97,-481.424C1311.03,-446.373 1482.51,-314.728 1546,-291 1574.24,-280.447 1750.47,-262.841 1855.46,-253.073"/>
<polygon fill="midnightblue" stroke="midnightblue" points="1856.07,-256.532 1865.7,-252.124 1855.42,-249.562 1856.07,-256.532"/>
</g>
<!-- Node18&#45;&gt;Node29 -->
<g id="edge59" class="edge"><title>Node18&#45;&gt;Node29</title>
<path fill="none" stroke="midnightblue" d="M1314.52,-483.967C1425,-472.768 1661.01,-448.845 1776.13,-437.177"/>
<polygon fill="midnightblue" stroke="midnightblue" points="1776.62,-440.645 1786.21,-436.155 1775.91,-433.681 1776.62,-440.645"/>
</g>
<!-- Node18&#45;&gt;Node33 -->
<g id="edge78" class="edge"><title>Node18&#45;&gt;Node33</title>
<path fill="none" stroke="midnightblue" d="M1314.8,-488.119C1444.08,-483.696 1759.17,-470.99 2022,-445 2034.38,-443.776 2047.55,-442.173 2060.22,-440.482"/>
<polygon fill="midnightblue" stroke="midnightblue" points="2060.8,-443.934 2070.24,-439.111 2059.85,-436.999 2060.8,-443.934"/>
</g>
<!-- Node19&#45;&gt;Node7 -->
<g id="edge48" class="edge"><title>Node19&#45;&gt;Node7</title>
<path fill="none" stroke="midnightblue" d="M1157.45,-291.357C1127.79,-267.028 1075.81,-216.281 1105,-179 1119.13,-160.951 1172.8,-149.141 1218.23,-142.168"/>
<polygon fill="midnightblue" stroke="midnightblue" points="1219,-145.593 1228.38,-140.668 1217.97,-138.668 1219,-145.593"/>
</g>
<!-- Node19&#45;&gt;Node8 -->
<g id="edge27" class="edge"><title>Node19&#45;&gt;Node8</title>
<path fill="none" stroke="midnightblue" d="M1232.56,-297.206C1260.38,-290.329 1292.29,-277.797 1313,-255 1336.49,-229.148 1310.03,-205.313 1333,-179 1385.73,-118.589 1478.17,-91.741 1536.62,-80.3317"/>
<polygon fill="midnightblue" stroke="midnightblue" points="1537.58,-83.7136 1546.77,-78.4396 1536.3,-76.8322 1537.58,-83.7136"/>
</g>
<!-- Node19&#45;&gt;Node9 -->
<g id="edge28" class="edge"><title>Node19&#45;&gt;Node9</title>
<path fill="none" stroke="midnightblue" d="M1131.87,-291.47C1103.76,-282.099 1066.78,-268.966 1035,-255 973,-227.754 797.729,-132.598 722.738,-91.5679"/>
<polygon fill="midnightblue" stroke="midnightblue" points="724.136,-88.3427 713.683,-86.6099 720.774,-94.4825 724.136,-88.3427"/>
</g>
<!-- Node19&#45;&gt;Node12 -->
<g id="edge56" class="edge"><title>Node19&#45;&gt;Node12</title>
<path fill="none" stroke="midnightblue" d="M1222.92,-291.45C1364.45,-249.061 1785.45,-122.978 1915.38,-84.0672"/>
<polygon fill="midnightblue" stroke="midnightblue" points="1916.7,-87.3231 1925.28,-81.1012 1914.7,-80.6173 1916.7,-87.3231"/>
</g>
<!-- Node19&#45;&gt;Node13 -->
<g id="edge52" class="edge"><title>Node19&#45;&gt;Node13</title>
<path fill="none" stroke="midnightblue" d="M1232.96,-303.038C1362.75,-297.055 1677.2,-280.357 1780,-255 1926.19,-218.943 1946.38,-161.29 2092,-123 2241.18,-83.7746 2426.67,-75.0158 2500.5,-73.0611"/>
<polygon fill="midnightblue" stroke="midnightblue" points="2500.65,-76.5586 2510.56,-72.8193 2500.48,-69.5606 2500.65,-76.5586"/>
</g>
<!-- Node19&#45;&gt;Node14 -->
<g id="edge55" class="edge"><title>Node19&#45;&gt;Node14</title>
<path fill="none" stroke="midnightblue" d="M1119.23,-298.462C1096.76,-295.848 1070.69,-293.029 1047,-291 911.704,-279.412 561.739,-308.661 437,-255 391.653,-235.492 394.064,-210.433 356,-179 313.242,-143.691 259.815,-106.607 230.586,-86.8684"/>
<polygon fill="midnightblue" stroke="midnightblue" points="232.243,-83.7651 221.99,-81.0936 228.339,-89.5755 232.243,-83.7651"/>
</g>
<!-- Node20 -->
<g id="node20" class="node"><title>Node20</title>
<g id="a_node20"><a xlink:href="runtime_2module_8h.html" target="_top" xlink:title="Runtime container of the functions generated by TVM, This is used to support dynamically link...">
<polygon fill="white" stroke="red" points="1180,-235.5 1180,-254.5 1304,-254.5 1304,-235.5 1180,-235.5"/>
<text text-anchor="middle" x="1242" y="-242.5" font-family="Helvetica,sans-Serif" font-size="10.00">tvm/runtime/module.h</text>
</a>
</g>
</g>
<!-- Node19&#45;&gt;Node20 -->
<g id="edge29" class="edge"><title>Node19&#45;&gt;Node20</title>
<path fill="none" stroke="midnightblue" d="M1185.8,-291.399C1194.81,-282.218 1208.04,-270.258 1219.51,-260.918"/>
<polygon fill="midnightblue" stroke="midnightblue" points="1221.77,-263.592 1227.47,-254.658 1217.44,-258.091 1221.77,-263.592"/>
</g>
<!-- Node21 -->
<g id="node21" class="node"><title>Node21</title>
<polygon fill="white" stroke="#bfbfbf" points="1114.5,-179.5 1114.5,-198.5 1171.5,-198.5 1171.5,-179.5 1114.5,-179.5"/>
<text text-anchor="middle" x="1143" y="-186.5" font-family="Helvetica,sans-Serif" font-size="10.00">memory</text>
</g>
<!-- Node19&#45;&gt;Node21 -->
<g id="edge54" class="edge"><title>Node19&#45;&gt;Node21</title>
<path fill="none" stroke="midnightblue" d="M1171.95,-291.337C1166.01,-270.527 1154.9,-231.663 1148.31,-208.583"/>
<polygon fill="midnightblue" stroke="midnightblue" points="1151.59,-207.323 1145.48,-198.669 1144.86,-209.246 1151.59,-207.323"/>
</g>
<!-- Node19&#45;&gt;Node22 -->
<g id="edge51" class="edge"><title>Node19&#45;&gt;Node22</title>
<path fill="none" stroke="midnightblue" d="M1121.81,-291.459C1087.22,-282.084 1041.61,-268.95 1002,-255 980.201,-247.323 975.742,-242.836 954,-235 915.592,-221.157 870.6,-207.791 840.605,-199.274"/>
<polygon fill="midnightblue" stroke="midnightblue" points="841.23,-195.814 830.656,-196.471 839.332,-202.551 841.23,-195.814"/>
</g>
<!-- Node19&#45;&gt;Node24 -->
<g id="edge38" class="edge"><title>Node19&#45;&gt;Node24</title>
<path fill="none" stroke="midnightblue" d="M1119.2,-298.761C1096.73,-296.187 1070.66,-293.317 1047,-291 879.906,-274.637 683.296,-259.18 579.906,-251.345"/>
<polygon fill="midnightblue" stroke="midnightblue" points="580.127,-247.852 569.892,-250.588 579.6,-254.832 580.127,-247.852"/>
</g>
<!-- Node19&#45;&gt;Node25 -->
<g id="edge44" class="edge"><title>Node19&#45;&gt;Node25</title>
<path fill="none" stroke="midnightblue" d="M1232.66,-301.052C1366.47,-290.549 1702.27,-264.19 1855.53,-252.16"/>
<polygon fill="midnightblue" stroke="midnightblue" points="1856.1,-255.625 1865.8,-251.354 1855.56,-248.647 1856.1,-255.625"/>
</g>
<!-- Node19&#45;&gt;Node26 -->
<g id="edge49" class="edge"><title>Node19&#45;&gt;Node26</title>
<path fill="none" stroke="midnightblue" d="M1232.73,-303.233C1305.34,-300.341 1435.03,-295.211 1546,-291 1978.68,-274.583 2092.47,-309.458 2526.33,-254.81"/>
<polygon fill="midnightblue" stroke="midnightblue" points="2526.83,-258.274 2536.31,-253.544 2525.95,-251.33 2526.83,-258.274"/>
</g>
<!-- Node27 -->
<g id="node27" class="node"><title>Node27</title>
<polygon fill="white" stroke="#bfbfbf" points="1044.5,-235.5 1044.5,-254.5 1085.5,-254.5 1085.5,-235.5 1044.5,-235.5"/>
<text text-anchor="middle" x="1065" y="-242.5" font-family="Helvetica,sans-Serif" font-size="10.00">tuple</text>
</g>
<!-- Node19&#45;&gt;Node27 -->
<g id="edge50" class="edge"><title>Node19&#45;&gt;Node27</title>
<path fill="none" stroke="midnightblue" d="M1149.69,-291.399C1131.74,-281.773 1108.08,-269.09 1090.33,-259.577"/>
<polygon fill="midnightblue" stroke="midnightblue" points="1091.62,-256.297 1081.15,-254.658 1088.31,-262.467 1091.62,-256.297"/>
</g>
<!-- Node19&#45;&gt;Node28 -->
<g id="edge53" class="edge"><title>Node19&#45;&gt;Node28</title>
<path fill="none" stroke="midnightblue" d="M1232.76,-302.943C1459.03,-292.752 2292.73,-255.201 2465.52,-247.418"/>
<polygon fill="midnightblue" stroke="midnightblue" points="2465.88,-250.905 2475.72,-246.959 2465.57,-243.912 2465.88,-250.905"/>
</g>
<!-- Node20&#45;&gt;Node7 -->
<g id="edge31" class="edge"><title>Node20&#45;&gt;Node7</title>
<path fill="none" stroke="midnightblue" d="M1244.04,-235.385C1247.17,-222.744 1253.67,-198.551 1262,-179 1266.03,-169.545 1271.48,-159.504 1276.27,-151.311"/>
<polygon fill="midnightblue" stroke="midnightblue" points="1279.3,-153.062 1281.45,-142.688 1273.3,-149.454 1279.3,-153.062"/>
</g>
<!-- Node20&#45;&gt;Node9 -->
<g id="edge30" class="edge"><title>Node20&#45;&gt;Node9</title>
<path fill="none" stroke="midnightblue" d="M1235.73,-235.217C1225.5,-221.467 1203.95,-194.801 1180,-179 1120.6,-139.814 1098.91,-140.74 1030,-123 939.007,-99.576 831.407,-85.9156 761.54,-78.8371"/>
<polygon fill="midnightblue" stroke="midnightblue" points="761.809,-75.3467 751.512,-77.8401 761.117,-82.3124 761.809,-75.3467"/>
</g>
<!-- Node20&#45;&gt;Node13 -->
<g id="edge35" class="edge"><title>Node20&#45;&gt;Node13</title>
<path fill="none" stroke="midnightblue" d="M1286.89,-235.497C1425.41,-209.295 1840.57,-131.068 1902,-123 2130.23,-93.0246 2407.4,-78.2939 2500.64,-73.9283"/>
<polygon fill="midnightblue" stroke="midnightblue" points="2501.01,-77.4152 2510.84,-73.4582 2500.69,-70.4226 2501.01,-77.4152"/>
</g>
<!-- Node20&#45;&gt;Node17 -->
<g id="edge32" class="edge"><title>Node20&#45;&gt;Node17</title>
<path fill="none" stroke="midnightblue" d="M1267.99,-235.444C1295.7,-226.32 1339.75,-211.813 1370.62,-201.651"/>
<polygon fill="midnightblue" stroke="midnightblue" points="1371.73,-204.968 1380.14,-198.516 1369.54,-198.32 1371.73,-204.968"/>
</g>
<!-- Node20&#45;&gt;Node19 -->
<g id="edge37" class="edge"><title>Node20&#45;&gt;Node19</title>
<path fill="none" stroke="midnightblue" d="M1237.33,-254.658C1230.26,-262.558 1217.48,-274.543 1205.32,-284.893"/>
<polygon fill="midnightblue" stroke="midnightblue" points="1202.94,-282.318 1197.48,-291.399 1207.41,-287.704 1202.94,-282.318"/>
</g>
<!-- Node20&#45;&gt;Node21 -->
<g id="edge33" class="edge"><title>Node20&#45;&gt;Node21</title>
<path fill="none" stroke="midnightblue" d="M1226.09,-235.324C1210.36,-226.743 1186.06,-213.486 1167.79,-203.522"/>
<polygon fill="midnightblue" stroke="midnightblue" points="1169.32,-200.37 1158.87,-198.655 1165.97,-206.516 1169.32,-200.37"/>
</g>
<!-- Node20&#45;&gt;Node22 -->
<g id="edge34" class="edge"><title>Node20&#45;&gt;Node22</title>
<path fill="none" stroke="midnightblue" d="M1179.68,-236.263C1086.3,-224.672 913.321,-203.198 840.593,-194.17"/>
<polygon fill="midnightblue" stroke="midnightblue" points="840.967,-190.69 830.612,-192.931 840.104,-197.636 840.967,-190.69"/>
</g>
<!-- Node20&#45;&gt;Node23 -->
<g id="edge36" class="edge"><title>Node20&#45;&gt;Node23</title>
<path fill="none" stroke="midnightblue" d="M1304.13,-241.68C1543.18,-232.753 2401.59,-200.696 2631.19,-192.122"/>
<polygon fill="midnightblue" stroke="midnightblue" points="2631.46,-195.614 2641.32,-191.743 2631.2,-188.619 2631.46,-195.614"/>
</g>
<!-- Node24&#45;&gt;Node7 -->
<g id="edge40" class="edge"><title>Node24&#45;&gt;Node7</title>
<path fill="none" stroke="midnightblue" d="M518.953,-235.293C538.124,-220.618 579.58,-191.353 620,-179 730.222,-145.314 1070.88,-136.811 1218.08,-134.692"/>
<polygon fill="midnightblue" stroke="midnightblue" points="1218.39,-138.188 1228.34,-134.55 1218.29,-131.189 1218.39,-138.188"/>
</g>
<!-- Node24&#45;&gt;Node9 -->
<g id="edge39" class="edge"><title>Node24&#45;&gt;Node9</title>
<path fill="none" stroke="midnightblue" d="M508.026,-235.379C508.565,-213.551 513.003,-155.525 544,-123 562.556,-103.529 589.041,-91.5597 614.248,-84.2037"/>
<polygon fill="midnightblue" stroke="midnightblue" points="615.459,-87.5021 624.198,-81.5115 613.631,-80.7451 615.459,-87.5021"/>
</g>
<!-- Node24&#45;&gt;Node14 -->
<g id="edge43" class="edge"><title>Node24&#45;&gt;Node14</title>
<path fill="none" stroke="midnightblue" d="M502.486,-235.459C487.728,-213.307 444.97,-153.61 394,-123 345.083,-93.6228 278.747,-80.9462 240.239,-75.7758"/>
<polygon fill="midnightblue" stroke="midnightblue" points="240.512,-72.2826 230.154,-74.5088 239.639,-79.228 240.512,-72.2826"/>
</g>
<!-- Node24&#45;&gt;Node15 -->
<g id="edge41" class="edge"><title>Node24&#45;&gt;Node15</title>
<path fill="none" stroke="midnightblue" d="M514.05,-235.438C524.345,-221.506 546.638,-193.981 572,-179 686.467,-111.386 845.793,-85.0355 915.723,-76.2783"/>
<polygon fill="midnightblue" stroke="midnightblue" points="916.259,-79.7391 925.768,-75.0656 915.42,-72.7896 916.259,-79.7391"/>
</g>
<!-- Node24&#45;&gt;Node22 -->
<g id="edge42" class="edge"><title>Node24&#45;&gt;Node22</title>
<path fill="none" stroke="midnightblue" d="M555.377,-235.444C616.202,-224.459 720.226,-205.672 773.461,-196.057"/>
<polygon fill="midnightblue" stroke="midnightblue" points="774.185,-199.483 783.403,-194.262 772.941,-192.595 774.185,-199.483"/>
</g>
<!-- Node25&#45;&gt;Node8 -->
<g id="edge46" class="edge"><title>Node25&#45;&gt;Node8</title>
<path fill="none" stroke="midnightblue" d="M1936.27,-235.354C1939.28,-221.792 1942.83,-195.379 1930,-179 1861.25,-91.2078 1720.73,-74.2486 1643.61,-71.8975"/>
<polygon fill="midnightblue" stroke="midnightblue" points="1643.24,-68.3881 1633.16,-71.6568 1643.08,-75.3863 1643.24,-68.3881"/>
</g>
<!-- Node25&#45;&gt;Node9 -->
<g id="edge45" class="edge"><title>Node25&#45;&gt;Node9</title>
<path fill="none" stroke="midnightblue" d="M1911.28,-235.398C1875.32,-222.014 1802.93,-195.979 1740,-179 1621.26,-146.962 1590.88,-139.452 1469,-123 1460.29,-121.824 954.807,-89.5176 761.801,-77.2048"/>
<polygon fill="midnightblue" stroke="midnightblue" points="761.948,-73.7072 751.746,-76.5634 761.503,-80.693 761.948,-73.7072"/>
</g>
<!-- Node25&#45;&gt;Node12 -->
<g id="edge47" class="edge"><title>Node25&#45;&gt;Node12</title>
<path fill="none" stroke="midnightblue" d="M1943.29,-235.395C1951.58,-227.025 1963.14,-213.483 1968,-199 1980.42,-161.954 1969,-115.73 1960.75,-90.6825"/>
<polygon fill="midnightblue" stroke="midnightblue" points="1963.99,-89.337 1957.39,-81.0526 1957.38,-91.6474 1963.99,-89.337"/>
</g>
<!-- Node29&#45;&gt;Node13 -->
<g id="edge77" class="edge"><title>Node29&#45;&gt;Node13</title>
<path fill="none" stroke="midnightblue" d="M1868.31,-414.47C1932.33,-380.044 2100.74,-287.717 2234,-199 2280.76,-167.868 2284.35,-147.304 2335,-123 2390.05,-96.5838 2460.58,-82.8608 2500.89,-76.704"/>
<polygon fill="midnightblue" stroke="midnightblue" points="2501.55,-80.1443 2510.94,-75.231 2500.54,-73.2183 2501.55,-80.1443"/>
</g>
<!-- Node29&#45;&gt;Node25 -->
<g id="edge60" class="edge"><title>Node29&#45;&gt;Node25</title>
<path fill="none" stroke="midnightblue" d="M1849.07,-414.483C1865.53,-381.817 1906.45,-300.647 1924.82,-264.211"/>
<polygon fill="midnightblue" stroke="midnightblue" points="1928.18,-265.324 1929.55,-254.819 1921.93,-262.173 1928.18,-265.324"/>
</g>
<!-- Node30 -->
<g id="node30" class="node"><title>Node30</title>
<g id="a_node30"><a xlink:href="functor_8h.html" target="_top" xlink:title="Defines the Functor data structures. ">
<polygon fill="white" stroke="black" points="1664.5,-235.5 1664.5,-254.5 1771.5,-254.5 1771.5,-235.5 1664.5,-235.5"/>
<text text-anchor="middle" x="1718" y="-242.5" font-family="Helvetica,sans-Serif" font-size="10.00">tvm/node/functor.h</text>
</a>
</g>
</g>
<!-- Node29&#45;&gt;Node30 -->
<g id="edge61" class="edge"><title>Node29&#45;&gt;Node30</title>
<path fill="none" stroke="midnightblue" d="M1832.48,-414.483C1810.09,-381.536 1754.18,-299.25 1729.74,-263.283"/>
<polygon fill="midnightblue" stroke="midnightblue" points="1732.51,-261.123 1723.99,-254.819 1726.72,-265.057 1732.51,-261.123"/>
</g>
<!-- Node29&#45;&gt;Node31 -->
<g id="edge67" class="edge"><title>Node29&#45;&gt;Node31</title>
<path fill="none" stroke="midnightblue" d="M1786.34,-415.147C1742.01,-404.512 1680.74,-389.81 1639.36,-379.882"/>
<polygon fill="midnightblue" stroke="midnightblue" points="1640.09,-376.458 1629.55,-377.529 1638.46,-383.265 1640.09,-376.458"/>
</g>
<!-- Node30&#45;&gt;Node7 -->
<g id="edge63" class="edge"><title>Node30&#45;&gt;Node7</title>
<path fill="none" stroke="midnightblue" d="M1704.56,-235.478C1681.62,-221.346 1632.99,-193.216 1588,-179 1510.56,-154.534 1417.62,-143.226 1355.69,-138.094"/>
<polygon fill="midnightblue" stroke="midnightblue" points="1355.89,-134.599 1345.65,-137.293 1355.34,-141.577 1355.89,-134.599"/>
</g>
<!-- Node30&#45;&gt;Node8 -->
<g id="edge62" class="edge"><title>Node30&#45;&gt;Node8</title>
<path fill="none" stroke="midnightblue" d="M1725.27,-235.253C1734.97,-222.448 1749.84,-198.054 1740,-179 1715.62,-131.792 1659.58,-100.965 1623.33,-85.1646"/>
<polygon fill="midnightblue" stroke="midnightblue" points="1624.24,-81.7533 1613.67,-81.1055 1621.53,-88.2066 1624.24,-81.7533"/>
</g>
<!-- Node30&#45;&gt;Node12 -->
<g id="edge65" class="edge"><title>Node30&#45;&gt;Node12</title>
<path fill="none" stroke="midnightblue" d="M1725.39,-235.262C1747.73,-208.915 1813.76,-131.536 1826,-123 1851.8,-105.007 1884.93,-92.1628 1911.01,-83.9314"/>
<polygon fill="midnightblue" stroke="midnightblue" points="1912.09,-87.2623 1920.64,-81.0014 1910.05,-80.5658 1912.09,-87.2623"/>
</g>
<!-- Node30&#45;&gt;Node14 -->
<g id="edge66" class="edge"><title>Node30&#45;&gt;Node14</title>
<path fill="none" stroke="midnightblue" d="M1708.73,-235.316C1693.14,-221.208 1660.1,-193.437 1627,-179 1598.62,-166.621 1384.73,-126.805 1354,-123 1240.91,-108.996 413.312,-79.6155 240.554,-73.5927"/>
<polygon fill="midnightblue" stroke="midnightblue" points="240.471,-70.0878 230.356,-73.2378 240.228,-77.0836 240.471,-70.0878"/>
</g>
<!-- Node30&#45;&gt;Node22 -->
<g id="edge64" class="edge"><title>Node30&#45;&gt;Node22</title>
<path fill="none" stroke="midnightblue" d="M1664.41,-240.824C1495.82,-230.83 979.258,-200.211 841.217,-192.028"/>
<polygon fill="midnightblue" stroke="midnightblue" points="841.039,-188.512 830.85,-191.414 840.625,-195.499 841.039,-188.512"/>
</g>
<!-- Node31&#45;&gt;Node7 -->
<g id="edge68" class="edge"><title>Node31&#45;&gt;Node7</title>
<path fill="none" stroke="midnightblue" d="M1580.98,-358.19C1570,-350.068 1554.71,-337.02 1546,-322 1513.23,-265.488 1559.02,-224.354 1512,-179 1500.68,-168.079 1417.67,-153.503 1355.75,-143.94"/>
<polygon fill="midnightblue" stroke="midnightblue" points="1356.03,-140.443 1345.62,-142.391 1354.97,-147.362 1356.03,-140.443"/>
</g>
<!-- Node31&#45;&gt;Node12 -->
<g id="edge71" class="edge"><title>Node31&#45;&gt;Node12</title>
<path fill="none" stroke="midnightblue" d="M1611.67,-358.389C1645.94,-341.261 1723.09,-300.614 1780,-255 1846.79,-201.47 1913.06,-123.247 1940.64,-89.2786"/>
<polygon fill="midnightblue" stroke="midnightblue" points="1943.53,-91.2653 1947.08,-81.2815 1938.08,-86.8749 1943.53,-91.2653"/>
</g>
<!-- Node31&#45;&gt;Node13 -->
<g id="edge76" class="edge"><title>Node31&#45;&gt;Node13</title>
<path fill="none" stroke="midnightblue" d="M1634.09,-358.465C1747.26,-334.287 2062.23,-266.346 2082,-255 2151.81,-214.927 2134.79,-160.521 2206,-123 2256.88,-96.193 2428.2,-80.4273 2500.44,-74.8297"/>
<polygon fill="midnightblue" stroke="midnightblue" points="2501.04,-78.2939 2510.75,-74.0479 2500.52,-71.3139 2501.04,-78.2939"/>
</g>
<!-- Node31&#45;&gt;Node14 -->
<g id="edge75" class="edge"><title>Node31&#45;&gt;Node14</title>
<path fill="none" stroke="midnightblue" d="M1534.17,-363.653C1307.07,-350.638 505.944,-301.805 402,-255 317.883,-217.123 247.377,-127.001 220.574,-89.4155"/>
<polygon fill="midnightblue" stroke="midnightblue" points="223.323,-87.2391 214.72,-81.0555 217.589,-91.2544 223.323,-87.2391"/>
</g>
<!-- Node31&#45;&gt;Node17 -->
<g id="edge69" class="edge"><title>Node31&#45;&gt;Node17</title>
<path fill="none" stroke="midnightblue" d="M1565.64,-358.367C1547.73,-351.427 1525.66,-339.842 1513,-322 1490.29,-290.002 1521.54,-266.394 1498,-235 1486.3,-219.395 1467.74,-208.902 1450.34,-202.004"/>
<polygon fill="midnightblue" stroke="midnightblue" points="1451.44,-198.679 1440.85,-198.532 1449.04,-205.253 1451.44,-198.679"/>
</g>
<!-- Node31&#45;&gt;Node19 -->
<g id="edge70" class="edge"><title>Node31&#45;&gt;Node19</title>
<path fill="none" stroke="midnightblue" d="M1534.11,-358.475C1456.93,-347.489 1323.16,-328.447 1242.77,-317.005"/>
<polygon fill="midnightblue" stroke="midnightblue" points="1243.16,-313.524 1232.76,-315.58 1242.17,-320.454 1243.16,-313.524"/>
</g>
<!-- Node31&#45;&gt;Node22 -->
<g id="edge72" class="edge"><title>Node31&#45;&gt;Node22</title>
<path fill="none" stroke="midnightblue" d="M1534.3,-364.161C1423.06,-358.424 1188.28,-344.085 1110,-322 1079.97,-313.526 1075.58,-303.534 1047,-291 1006.41,-273.199 994.946,-271.967 954,-255 912.311,-237.725 864.631,-216.337 835.165,-202.926"/>
<polygon fill="midnightblue" stroke="midnightblue" points="836.457,-199.668 825.906,-198.701 833.551,-206.036 836.457,-199.668"/>
</g>
<!-- Node31&#45;&gt;Node23 -->
<g id="edge74" class="edge"><title>Node31&#45;&gt;Node23</title>
<path fill="none" stroke="midnightblue" d="M1653.68,-360.106C1722.91,-351.912 1840.42,-337.4 1941,-322 2201.52,-282.111 2511.22,-223.921 2634.01,-200.419"/>
<polygon fill="midnightblue" stroke="midnightblue" points="2634.75,-203.84 2643.91,-198.521 2633.43,-196.966 2634.75,-203.84"/>
</g>
<!-- Node32 -->
<g id="node32" class="node"><title>Node32</title>
<polygon fill="white" stroke="#bfbfbf" points="1555.5,-297 1555.5,-316 1632.5,-316 1632.5,-297 1555.5,-297"/>
<text text-anchor="middle" x="1594" y="-304" font-family="Helvetica,sans-Serif" font-size="10.00">initializer_list</text>
</g>
<!-- Node31&#45;&gt;Node32 -->
<g id="edge73" class="edge"><title>Node31&#45;&gt;Node32</title>
<path fill="none" stroke="midnightblue" d="M1594,-358.475C1594,-350.08 1594,-336.981 1594,-326.163"/>
<polygon fill="midnightblue" stroke="midnightblue" points="1597.5,-326.009 1594,-316.009 1590.5,-326.009 1597.5,-326.009"/>
</g>
<!-- Node33&#45;&gt;Node13 -->
<g id="edge82" class="edge"><title>Node33&#45;&gt;Node13</title>
<path fill="none" stroke="midnightblue" d="M2135.85,-414.487C2176.12,-357.328 2327.59,-143.857 2358,-123 2401.79,-92.9683 2463.43,-80.6065 2500.66,-75.6552"/>
<polygon fill="midnightblue" stroke="midnightblue" points="2501.43,-79.087 2510.93,-74.3957 2500.58,-72.139 2501.43,-79.087"/>
</g>
<!-- Node33&#45;&gt;Node25 -->
<g id="edge79" class="edge"><title>Node33&#45;&gt;Node25</title>
<path fill="none" stroke="midnightblue" d="M2131.98,-414.166C2142.3,-386.893 2159.74,-327.047 2131,-291 2116.02,-272.21 2060.65,-260.643 2012.41,-253.95"/>
<polygon fill="midnightblue" stroke="midnightblue" points="2012.62,-250.447 2002.24,-252.595 2011.69,-257.385 2012.62,-250.447"/>
</g>
<!-- Node33&#45;&gt;Node26 -->
<g id="edge83" class="edge"><title>Node33&#45;&gt;Node26</title>
<path fill="none" stroke="midnightblue" d="M2159.95,-414.483C2243.5,-379.984 2458.08,-291.387 2537.68,-258.518"/>
<polygon fill="midnightblue" stroke="midnightblue" points="2539.23,-261.667 2547.13,-254.615 2536.56,-255.197 2539.23,-261.667"/>
</g>
<!-- Node33&#45;&gt;Node30 -->
<g id="edge80" class="edge"><title>Node33&#45;&gt;Node30</title>
<path fill="none" stroke="midnightblue" d="M2127.36,-414.221C2129.19,-385.948 2128.76,-322.829 2093,-291 2070.24,-270.742 1882.85,-256.179 1781.89,-249.72"/>
<polygon fill="midnightblue" stroke="midnightblue" points="1782,-246.221 1771.8,-249.084 1781.56,-253.207 1782,-246.221"/>
</g>
<!-- Node33&#45;&gt;Node31 -->
<g id="edge81" class="edge"><title>Node33&#45;&gt;Node31</title>
<path fill="none" stroke="midnightblue" d="M2070.45,-420.402C2054.8,-418.216 2037.74,-415.925 2022,-414 1895.86,-398.58 1748.4,-383.786 1663.64,-375.593"/>
<polygon fill="midnightblue" stroke="midnightblue" points="1663.91,-372.103 1653.62,-374.627 1663.24,-379.07 1663.91,-372.103"/>
</g>
<!-- Node34&#45;&gt;Node30 -->
<g id="edge88" class="edge"><title>Node34&#45;&gt;Node30</title>
<path fill="none" stroke="midnightblue" d="M1772.97,-481.316C1764.75,-446.11 1733.78,-313.561 1722.31,-264.452"/>
<polygon fill="midnightblue" stroke="midnightblue" points="1725.69,-263.522 1720,-254.58 1718.87,-265.114 1725.69,-263.522"/>
</g>
<!-- Node35 -->
<g id="node35" class="node"><title>Node35</title>
<polygon fill="white" stroke="#bfbfbf" points="1954.5,-420 1954.5,-439 2013.5,-439 2013.5,-420 1954.5,-420"/>
<text text-anchor="middle" x="1984" y="-427" font-family="Helvetica,sans-Serif" font-size="10.00">iostream</text>
</g>
<!-- Node34&#45;&gt;Node35 -->
<g id="edge89" class="edge"><title>Node34&#45;&gt;Node35</title>
<path fill="none" stroke="midnightblue" d="M1808.33,-481.455C1841.76,-472.757 1894.65,-458.646 1940,-445 1942.98,-444.102 1946.07,-443.144 1949.17,-442.164"/>
<polygon fill="midnightblue" stroke="midnightblue" points="1950.5,-445.411 1958.94,-439.008 1948.35,-438.75 1950.5,-445.411"/>
</g>
<!-- Node36&#45;&gt;Node7 -->
<g id="edge99" class="edge"><title>Node36&#45;&gt;Node7</title>
<path fill="none" stroke="midnightblue" d="M1933.51,-593.294C1922.04,-571.761 1889.68,-515.277 1849,-481 1821.64,-457.948 1805.36,-466.809 1777,-445 1650.06,-347.392 1674.97,-254.955 1534,-179 1518.33,-170.556 1422.07,-154.564 1354.47,-144.096"/>
<polygon fill="midnightblue" stroke="midnightblue" points="1354.71,-140.592 1344.29,-142.529 1353.64,-147.511 1354.71,-140.592"/>
</g>
<!-- Node36&#45;&gt;Node13 -->
<g id="edge101" class="edge"><title>Node36&#45;&gt;Node13</title>
<path fill="none" stroke="midnightblue" d="M1976.8,-593.458C2084.21,-568.223 2390.47,-485.343 2587,-322 2622.18,-292.76 2652.03,-279.633 2642,-235 2635.96,-208.135 2605.43,-145.094 2589,-123 2578.91,-109.439 2564.76,-96.7134 2553.21,-87.4288"/>
<polygon fill="midnightblue" stroke="midnightblue" points="2555.03,-84.4147 2544.99,-81.0428 2550.74,-89.9423 2555.03,-84.4147"/>
</g>
<!-- Node36&#45;&gt;Node16 -->
<g id="edge100" class="edge"><title>Node36&#45;&gt;Node16</title>
<path fill="none" stroke="midnightblue" d="M1897.66,-596.674C1825.14,-587.099 1672.43,-566.938 1588.09,-555.802"/>
<polygon fill="midnightblue" stroke="midnightblue" points="1588.53,-552.329 1578.16,-554.49 1587.61,-559.269 1588.53,-552.329"/>
</g>
<!-- Node37&#45;&gt;Node7 -->
<g id="edge103" class="edge"><title>Node37&#45;&gt;Node7</title>
<path fill="none" stroke="midnightblue" d="M1490.17,-649.887C1394.45,-629.425 1140.05,-572.232 935,-501 843.433,-469.19 825.654,-448.326 735,-414 686.498,-395.635 670.751,-400.452 624,-378 534.327,-334.935 484.211,-342.562 437,-255 395.591,-178.2 457.175,-205.568 571,-179 692.679,-150.598 1063.44,-139.074 1218.1,-135.418"/>
<polygon fill="midnightblue" stroke="midnightblue" points="1218.5,-138.91 1228.42,-135.179 1218.34,-131.912 1218.5,-138.91"/>
</g>
<!-- Node37&#45;&gt;Node13 -->
<g id="edge108" class="edge"><title>Node37&#45;&gt;Node13</title>
<path fill="none" stroke="midnightblue" d="M1567.69,-650.17C1609.01,-641.651 1676.36,-627.324 1734,-613 1968.06,-554.832 2054.62,-586.41 2250,-445 2391.2,-342.803 2494.55,-150.161 2524.27,-90.5454"/>
<polygon fill="midnightblue" stroke="midnightblue" points="2527.55,-91.8123 2528.82,-81.2943 2521.27,-88.7228 2527.55,-91.8123"/>
</g>
<!-- Node37&#45;&gt;Node16 -->
<g id="edge105" class="edge"><title>Node37&#45;&gt;Node16</title>
<path fill="none" stroke="midnightblue" d="M1529,-649.368C1529,-631.617 1529,-590.666 1529,-566.597"/>
<polygon fill="midnightblue" stroke="midnightblue" points="1532.5,-566.591 1529,-556.591 1525.5,-566.591 1532.5,-566.591"/>
</g>
<!-- Node37&#45;&gt;Node25 -->
<g id="edge104" class="edge"><title>Node37&#45;&gt;Node25</title>
<path fill="none" stroke="midnightblue" d="M1558.98,-649.405C1685.51,-612.995 2170.26,-472.105 2190,-445 2219.75,-404.16 2220.8,-353.49 2152,-291 2131.61,-272.479 2066.32,-260.631 2012.47,-253.767"/>
<polygon fill="midnightblue" stroke="midnightblue" points="2012.57,-250.253 2002.21,-252.502 2011.71,-257.2 2012.57,-250.253"/>
</g>
<!-- Node37&#45;&gt;Node31 -->
<g id="edge106" class="edge"><title>Node37&#45;&gt;Node31</title>
<path fill="none" stroke="midnightblue" d="M1535.85,-649.476C1548.74,-632.869 1576.24,-594.513 1587,-557 1604.15,-497.2 1599.65,-422.315 1596.23,-387.895"/>
<polygon fill="midnightblue" stroke="midnightblue" points="1599.7,-387.418 1595.14,-377.853 1592.74,-388.172 1599.7,-387.418"/>
</g>
<!-- Node37&#45;&gt;Node36 -->
<g id="edge107" class="edge"><title>Node37&#45;&gt;Node36</title>
<path fill="none" stroke="midnightblue" d="M1567.68,-653.599C1632.98,-646.055 1769.21,-629.835 1884,-613 1885.27,-612.814 1886.56,-612.622 1887.85,-612.426"/>
<polygon fill="midnightblue" stroke="midnightblue" points="1888.58,-615.855 1897.92,-610.858 1887.5,-608.939 1888.58,-615.855"/>
</g>
<!-- Node39&#45;&gt;Node13 -->
<g id="edge124" class="edge"><title>Node39&#45;&gt;Node13</title>
<path fill="none" stroke="midnightblue" d="M755.149,-362.355C856.287,-354.585 1064.75,-338.205 1241,-322 1376.68,-309.525 1410.29,-303.148 1546,-291 1649.23,-281.759 1918,-300.752 2011,-255 2081.87,-220.132 2059.97,-159.538 2130,-123 2194.53,-89.3303 2417.07,-77.1232 2500.8,-73.6592"/>
<polygon fill="midnightblue" stroke="midnightblue" points="2501.14,-77.1488 2510.99,-73.253 2500.86,-70.1543 2501.14,-77.1488"/>
</g>
<!-- Node39&#45;&gt;Node14 -->
<g id="edge126" class="edge"><title>Node39&#45;&gt;Node14</title>
<path fill="none" stroke="midnightblue" d="M657.588,-358.469C595.451,-343.072 465.968,-307.304 366,-255 291.648,-216.099 254.472,-216.509 214,-143 205.323,-127.24 204.945,-106.405 206.206,-91.4799"/>
<polygon fill="midnightblue" stroke="midnightblue" points="209.7,-91.7374 207.38,-81.3997 202.747,-90.9278 209.7,-91.7374"/>
</g>
<!-- Node39&#45;&gt;Node19 -->
<g id="edge123" class="edge"><title>Node39&#45;&gt;Node19</title>
<path fill="none" stroke="midnightblue" d="M755.046,-359.464C845.723,-348.271 1015.37,-327.329 1109.24,-315.741"/>
<polygon fill="midnightblue" stroke="midnightblue" points="1109.7,-319.212 1119.19,-314.513 1108.84,-312.264 1109.7,-319.212"/>
</g>
<!-- Node39&#45;&gt;Node22 -->
<g id="edge125" class="edge"><title>Node39&#45;&gt;Node22</title>
<path fill="none" stroke="midnightblue" d="M694.718,-358.35C696.986,-335.796 705.745,-274.228 736,-235 746.601,-221.255 762.679,-210.568 776.855,-203.064"/>
<polygon fill="midnightblue" stroke="midnightblue" points="778.433,-206.189 785.82,-198.593 775.309,-199.925 778.433,-206.189"/>
</g>
<!-- Node40&#45;&gt;Node4 -->
<g id="edge154" class="edge"><title>Node40&#45;&gt;Node4</title>
<path fill="none" stroke="midnightblue" d="M1284.72,-937.501C1386.49,-935.681 1599.65,-927.639 1776,-893 1856.96,-877.097 1875.97,-866.569 1953,-837 1973.05,-829.302 1976.24,-822.525 1997,-817 2149.6,-776.38 2338.06,-771.214 2426.18,-771.289"/>
<polygon fill="midnightblue" stroke="midnightblue" points="2426.41,-774.79 2436.42,-771.323 2426.43,-767.79 2426.41,-774.79"/>
</g>
<!-- Node40&#45;&gt;Node37 -->
<g id="edge130" class="edge"><title>Node40&#45;&gt;Node37</title>
<path fill="none" stroke="midnightblue" d="M1223.3,-929.483C1219.78,-911.056 1212,-866.076 1212,-828 1212,-828 1212,-828 1212,-770 1212,-713.895 1391.47,-679.943 1480.33,-666.571"/>
<polygon fill="midnightblue" stroke="midnightblue" points="1481.06,-670.002 1490.45,-665.08 1480.04,-663.077 1481.06,-670.002"/>
</g>
<!-- Node41 -->
<g id="node41" class="node"><title>Node41</title>
<g id="a_node41"><a xlink:href="ir_2module_8h.html" target="_top" xlink:title="IRModule that holds the functions and type definitions. ">
<polygon fill="white" stroke="black" points="1675,-873.5 1675,-892.5 1767,-892.5 1767,-873.5 1675,-873.5"/>
<text text-anchor="middle" x="1721" y="-880.5" font-family="Helvetica,sans-Serif" font-size="10.00">tvm/ir/module.h</text>
</a>
</g>
</g>
<!-- Node40&#45;&gt;Node41 -->
<g id="edge131" class="edge"><title>Node40&#45;&gt;Node41</title>
<path fill="none" stroke="midnightblue" d="M1284.83,-931.486C1381.44,-920.969 1570.46,-900.389 1664.74,-890.125"/>
<polygon fill="midnightblue" stroke="midnightblue" points="1665.37,-893.577 1674.93,-889.016 1664.61,-886.619 1665.37,-893.577"/>
</g>
<!-- Node45 -->
<g id="node45" class="node"><title>Node45</title>
<g id="a_node45"><a xlink:href="env__func_8h.html" target="_top" xlink:title="Serializable global function used in IR. ">
<polygon fill="white" stroke="black" points="749.5,-537.5 749.5,-556.5 848.5,-556.5 848.5,-537.5 749.5,-537.5"/>
<text text-anchor="middle" x="799" y="-544.5" font-family="Helvetica,sans-Serif" font-size="10.00">tvm/ir/env_func.h</text>
</a>
</g>
</g>
<!-- Node40&#45;&gt;Node45 -->
<g id="edge150" class="edge"><title>Node40&#45;&gt;Node45</title>
<path fill="none" stroke="midnightblue" d="M1183.69,-929.445C1084.11,-907.639 839,-846.407 839,-772 839,-772 839,-772 839,-658 839,-623.617 821.526,-586.631 809.677,-565.503"/>
<polygon fill="midnightblue" stroke="midnightblue" points="812.623,-563.607 804.562,-556.731 806.576,-567.133 812.623,-563.607"/>
</g>
<!-- Node41&#45;&gt;Node6 -->
<g id="edge133" class="edge"><title>Node41&#45;&gt;Node6</title>
<path fill="none" stroke="midnightblue" d="M1715.89,-873.377C1709.07,-860.726 1698.69,-836.522 1706,-817 1719.61,-780.661 1752.86,-748.786 1774.37,-730.993"/>
<polygon fill="midnightblue" stroke="midnightblue" points="1776.63,-733.664 1782.24,-724.675 1772.25,-728.206 1776.63,-733.664"/>
</g>
<!-- Node41&#45;&gt;Node13 -->
<g id="edge146" class="edge"><title>Node41&#45;&gt;Node13</title>
<path fill="none" stroke="midnightblue" d="M1767.04,-882.153C1954.19,-882.475 2658.35,-880.695 2876,-837 2945.77,-822.993 2976.45,-832.078 3026,-781 3102.13,-702.514 3105,-657.346 3105,-548 3105,-548 3105,-548 3105,-188 3105,-154.31 3094.5,-140.965 3066,-123 3023.58,-96.2587 2673.89,-78.7148 2565.14,-73.8657"/>
<polygon fill="midnightblue" stroke="midnightblue" points="2565.25,-70.3669 2555.1,-73.4236 2564.94,-77.3602 2565.25,-70.3669"/>
</g>
<!-- Node41&#45;&gt;Node22 -->
<g id="edge147" class="edge"><title>Node41&#45;&gt;Node22</title>
<path fill="none" stroke="midnightblue" d="M1674.68,-879.203C1559.77,-871.46 1253.05,-845.874 1006,-781 939.983,-763.665 922.764,-757.971 863,-725 699.034,-634.542 653.686,-562.896 624,-378 610.07,-291.24 721.058,-228.479 776.603,-202.816"/>
<polygon fill="midnightblue" stroke="midnightblue" points="778.288,-205.896 785.969,-198.598 775.414,-199.513 778.288,-205.896"/>
</g>
<!-- Node41&#45;&gt;Node23 -->
<g id="edge148" class="edge"><title>Node41&#45;&gt;Node23</title>
<path fill="none" stroke="midnightblue" d="M1767.04,-882.054C1986.71,-881.835 2921.17,-875.335 3005,-781 3068.04,-710.053 3003.81,-433.273 2946,-358 2884.86,-278.384 2774.57,-225.165 2720.15,-202.463"/>
<polygon fill="midnightblue" stroke="midnightblue" points="2721.24,-199.129 2710.66,-198.579 2718.59,-205.607 2721.24,-199.129"/>
</g>
<!-- Node41&#45;&gt;Node37 -->
<g id="edge132" class="edge"><title>Node41&#45;&gt;Node37</title>
<path fill="none" stroke="midnightblue" d="M1713.47,-873.297C1684.74,-840.079 1581.69,-720.918 1543.43,-676.684"/>
<polygon fill="midnightblue" stroke="midnightblue" points="1545.87,-674.158 1536.68,-668.884 1540.58,-678.737 1545.87,-674.158"/>
</g>
<!-- Node42 -->
<g id="node42" class="node"><title>Node42</title>
<g id="a_node42"><a xlink:href="ir_2function_8h.html" target="_top" xlink:title="Function nodes. ">
<polygon fill="white" stroke="black" points="2428.5,-817.5 2428.5,-836.5 2523.5,-836.5 2523.5,-817.5 2428.5,-817.5"/>
<text text-anchor="middle" x="2476" y="-824.5" font-family="Helvetica,sans-Serif" font-size="10.00">tvm/ir/function.h</text>
</a>
</g>
</g>
<!-- Node41&#45;&gt;Node42 -->
<g id="edge134" class="edge"><title>Node41&#45;&gt;Node42</title>
<path fill="none" stroke="midnightblue" d="M1767.09,-878.703C1898.25,-869.322 2273.37,-842.493 2418.08,-832.142"/>
<polygon fill="midnightblue" stroke="midnightblue" points="2418.37,-835.631 2428.1,-831.426 2417.87,-828.649 2418.37,-835.631"/>
</g>
<!-- Node43 -->
<g id="node43" class="node"><title>Node43</title>
<g id="a_node43"><a xlink:href="ir_2adt_8h.html" target="_top" xlink:title="Algebraic data type definitions. ">
<polygon fill="white" stroke="black" points="1379,-761.5 1379,-780.5 1451,-780.5 1451,-761.5 1379,-761.5"/>
<text text-anchor="middle" x="1415" y="-768.5" font-family="Helvetica,sans-Serif" font-size="10.00">tvm/ir/adt.h</text>
</a>
</g>
</g>
<!-- Node41&#45;&gt;Node43 -->
<g id="edge139" class="edge"><title>Node41&#45;&gt;Node43</title>
<path fill="none" stroke="midnightblue" d="M1697.24,-873.46C1643.24,-854.047 1511.12,-806.551 1448.7,-784.115"/>
<polygon fill="midnightblue" stroke="midnightblue" points="1449.55,-780.7 1438.95,-780.61 1447.18,-787.287 1449.55,-780.7"/>
</g>
<!-- Node44 -->
<g id="node44" class="node"><title>Node44</title>
<polygon fill="white" stroke="#bfbfbf" points="1715,-817.5 1715,-836.5 1801,-836.5 1801,-817.5 1715,-817.5"/>
<text text-anchor="middle" x="1758" y="-824.5" font-family="Helvetica,sans-Serif" font-size="10.00">unordered_set</text>
</g>
<!-- Node41&#45;&gt;Node44 -->
<g id="edge149" class="edge"><title>Node41&#45;&gt;Node44</title>
<path fill="none" stroke="midnightblue" d="M1727.11,-873.083C1732.28,-865.534 1739.85,-854.495 1746.19,-845.23"/>
<polygon fill="midnightblue" stroke="midnightblue" points="1749.24,-846.979 1752,-836.751 1743.46,-843.022 1749.24,-846.979"/>
</g>
<!-- Node42&#45;&gt;Node4 -->
<g id="edge136" class="edge"><title>Node42&#45;&gt;Node4</title>
<path fill="none" stroke="midnightblue" d="M2476,-817.083C2476,-810.006 2476,-799.861 2476,-790.986"/>
<polygon fill="midnightblue" stroke="midnightblue" points="2479.5,-790.751 2476,-780.751 2472.5,-790.751 2479.5,-790.751"/>
</g>
<!-- Node42&#45;&gt;Node6 -->
<g id="edge135" class="edge"><title>Node42&#45;&gt;Node6</title>
<path fill="none" stroke="midnightblue" d="M2428.32,-826.063C2337.41,-825.246 2133.51,-818.899 1967,-781 1913.75,-768.881 1854.84,-744.146 1821.33,-728.926"/>
<polygon fill="midnightblue" stroke="midnightblue" points="1822.73,-725.716 1812.18,-724.719 1819.8,-732.076 1822.73,-725.716"/>
</g>
<!-- Node42&#45;&gt;Node12 -->
<g id="edge137" class="edge"><title>Node42&#45;&gt;Node12</title>
<path fill="none" stroke="midnightblue" d="M2523.82,-824.106C2637.6,-818.3 2915,-795.946 2915,-716 2915,-716 2915,-716 2915,-658 2915,-583.836 2932,-566.164 2932,-492 2932,-492 2932,-492 2932,-428.5 2932,-296.044 2885.38,-242.251 2769,-179 2633.86,-105.552 2148.39,-80.2828 1998.44,-74.1338"/>
<polygon fill="midnightblue" stroke="midnightblue" points="1998.36,-70.628 1988.23,-73.7237 1998.08,-77.6224 1998.36,-70.628"/>
</g>
<!-- Node42&#45;&gt;Node13 -->
<g id="edge138" class="edge"><title>Node42&#45;&gt;Node13</title>
<path fill="none" stroke="midnightblue" d="M2523.71,-826.281C2625.77,-826.088 2861.51,-821.164 2929,-781 2977.58,-752.089 3067,-521.46 3067,-430.5 3067,-430.5 3067,-430.5 3067,-188 3067,-157.205 3067.37,-141.83 3043,-123 3005.18,-93.7755 2671.56,-78.0328 2565.33,-73.7287"/>
<polygon fill="midnightblue" stroke="midnightblue" points="2565.35,-70.2265 2555.22,-73.3256 2565.07,-77.2209 2565.35,-70.2265"/>
</g>
<!-- Node43&#45;&gt;Node6 -->
<g id="edge143" class="edge"><title>Node43&#45;&gt;Node6</title>
<path fill="none" stroke="midnightblue" d="M1451.31,-762.532C1454.25,-761.991 1457.17,-761.473 1460,-761 1561.07,-744.103 1680.16,-729.264 1745.32,-721.576"/>
<polygon fill="midnightblue" stroke="midnightblue" points="1745.78,-725.046 1755.31,-720.404 1744.97,-718.094 1745.78,-725.046"/>
</g>
<!-- Node43&#45;&gt;Node7 -->
<g id="edge140" class="edge"><title>Node43&#45;&gt;Node7</title>
<path fill="none" stroke="midnightblue" d="M1392.6,-761.438C1318.11,-731.582 1078.48,-624.037 990,-445 933.835,-331.345 981.616,-239.545 1093,-179 1131.62,-158.007 1179.73,-146.766 1218.38,-140.77"/>
<polygon fill="midnightblue" stroke="midnightblue" points="1219.11,-144.199 1228.5,-139.284 1218.1,-137.274 1219.11,-144.199"/>
</g>
<!-- Node43&#45;&gt;Node13 -->
<g id="edge145" class="edge"><title>Node43&#45;&gt;Node13</title>
<path fill="none" stroke="midnightblue" d="M1451.29,-762.407C1454.23,-761.894 1457.16,-761.417 1460,-761 1628.28,-736.289 1675.11,-762.539 1841,-725 2074.55,-672.151 2130.38,-631.724 2331,-501 2399.98,-456.056 2575.06,-330.448 2608,-255 2621.77,-223.455 2567.7,-128.967 2543.82,-89.8012"/>
<polygon fill="midnightblue" stroke="midnightblue" points="2546.68,-87.7816 2538.45,-81.1078 2540.73,-91.4564 2546.68,-87.7816"/>
</g>
<!-- Node43&#45;&gt;Node16 -->
<g id="edge141" class="edge"><title>Node43&#45;&gt;Node16</title>
<path fill="none" stroke="midnightblue" d="M1419.47,-761.297C1436.38,-728.356 1496.7,-610.898 1519.86,-565.805"/>
<polygon fill="midnightblue" stroke="midnightblue" points="1522.98,-567.378 1524.44,-556.884 1516.76,-564.181 1522.98,-567.378"/>
</g>
<!-- Node43&#45;&gt;Node31 -->
<g id="edge142" class="edge"><title>Node43&#45;&gt;Node31</title>
<path fill="none" stroke="midnightblue" d="M1415.86,-761.128C1419.2,-729.373 1433.04,-618.912 1471,-537 1499.63,-475.208 1552.74,-413.375 1578.79,-385.03"/>
<polygon fill="midnightblue" stroke="midnightblue" points="1581.41,-387.351 1585.66,-377.647 1576.29,-382.581 1581.41,-387.351"/>
</g>
<!-- Node43&#45;&gt;Node37 -->
<g id="edge144" class="edge"><title>Node43&#45;&gt;Node37</title>
<path fill="none" stroke="midnightblue" d="M1423.95,-761.368C1443.09,-742.894 1488.28,-699.293 1512.68,-675.744"/>
<polygon fill="midnightblue" stroke="midnightblue" points="1515.33,-678.054 1520.1,-668.591 1510.47,-673.016 1515.33,-678.054"/>
</g>
<!-- Node45&#45;&gt;Node13 -->
<g id="edge152" class="edge"><title>Node45&#45;&gt;Node13</title>
<path fill="none" stroke="midnightblue" d="M848.515,-543.214C1050.64,-531.608 1807.23,-485.799 1906,-445 1912.51,-442.31 2291.65,-126.063 2298,-123 2365.47,-90.4378 2453.87,-78.7107 2500.67,-74.6099"/>
<polygon fill="midnightblue" stroke="midnightblue" points="2501.14,-78.0836 2510.82,-73.7842 2500.57,-71.1067 2501.14,-78.0836"/>
</g>
<!-- Node45&#45;&gt;Node14 -->
<g id="edge153" class="edge"><title>Node45&#45;&gt;Node14</title>
<path fill="none" stroke="midnightblue" d="M766.095,-537.46C732.174,-528.592 677.789,-514.196 631,-501 546.679,-477.22 524.863,-473.447 442,-445 371.12,-420.666 181.584,-374.391 128,-322 64.1377,-259.559 51.9177,-198.269 100,-123 116.973,-96.4303 151.91,-83.6304 177.676,-77.6029"/>
<polygon fill="midnightblue" stroke="midnightblue" points="178.671,-80.9699 187.732,-75.4789 177.225,-74.121 178.671,-80.9699"/>
</g>
<!-- Node45&#45;&gt;Node18 -->
<g id="edge151" class="edge"><title>Node45&#45;&gt;Node18</title>
<path fill="none" stroke="midnightblue" d="M848.668,-540.118C930.099,-530.475 1092.22,-511.277 1185.18,-500.269"/>
<polygon fill="midnightblue" stroke="midnightblue" points="1185.81,-503.718 1195.33,-499.066 1184.99,-496.766 1185.81,-503.718"/>
</g>
<!-- Node46&#45;&gt;Node4 -->
<g id="edge164" class="edge"><title>Node46&#45;&gt;Node4</title>
<path fill="none" stroke="midnightblue" d="M1668.55,-988.498C1724.93,-981.494 1821.52,-967.985 1903,-949 2111.98,-900.307 2355.84,-815.302 2442.98,-784.007"/>
<polygon fill="midnightblue" stroke="midnightblue" points="2444.36,-787.23 2452.59,-780.548 2441.99,-780.645 2444.36,-787.23"/>
</g>
<!-- Node46&#45;&gt;Node13 -->
<g id="edge180" class="edge"><title>Node46&#45;&gt;Node13</title>
<path fill="none" stroke="midnightblue" d="M1668.76,-993.546C1910.79,-990.881 2995.32,-974.44 3119,-893 3169.47,-859.769 3181,-832.426 3181,-772 3181,-772 3181,-772 3181,-188 3181,-157.205 3181.54,-141.61 3157,-123 3109.56,-87.0162 2686.11,-75.6335 2565.14,-73.1014"/>
<polygon fill="midnightblue" stroke="midnightblue" points="2565.1,-69.6 2555.03,-72.8959 2564.96,-76.5986 2565.1,-69.6"/>
</g>
<!-- Node46&#45;&gt;Node37 -->
<g id="edge159" class="edge"><title>Node46&#45;&gt;Node37</title>
<path fill="none" stroke="midnightblue" d="M1573.21,-987.087C1486.7,-973.22 1313,-938.58 1313,-884 1313,-884 1313,-884 1313,-826 1313,-739.356 1423.62,-691.71 1486.53,-671.617"/>
<polygon fill="midnightblue" stroke="midnightblue" points="1487.68,-674.927 1496.19,-668.628 1485.61,-668.24 1487.68,-674.927"/>
</g>
<!-- Node46&#45;&gt;Node39 -->
<g id="edge165" class="edge"><title>Node46&#45;&gt;Node39</title>
<path fill="none" stroke="midnightblue" d="M1573.34,-994.505C1477.25,-994.56 1253.96,-989.813 1072,-949 1002.97,-933.517 988.3,-920.218 923,-893 867.931,-870.046 845.804,-876.397 801,-837 663.743,-716.309 683.123,-458.979 691.503,-387.663"/>
<polygon fill="midnightblue" stroke="midnightblue" points="695.001,-387.896 692.771,-377.538 688.055,-387.025 695.001,-387.896"/>
</g>
<!-- Node46&#45;&gt;Node40 -->
<g id="edge163" class="edge"><title>Node46&#45;&gt;Node40</title>
<path fill="none" stroke="midnightblue" d="M1573.23,-987.486C1503.79,-978.017 1374.55,-960.393 1294.54,-949.483"/>
<polygon fill="midnightblue" stroke="midnightblue" points="1294.93,-946.004 1284.55,-948.121 1293.99,-952.94 1294.93,-946.004"/>
</g>
<!-- Node46&#45;&gt;Node45 -->
<g id="edge166" class="edge"><title>Node46&#45;&gt;Node45</title>
<path fill="none" stroke="midnightblue" d="M1573.32,-992.681C1488.55,-989.608 1306.39,-979.712 1156,-949 1075.16,-932.491 1055.52,-923.854 979,-893 863.89,-846.588 763,-840.115 763,-716 763,-716 763,-716 763,-658 763,-623.982 778.744,-586.85 789.409,-565.6"/>
<polygon fill="midnightblue" stroke="midnightblue" points="792.62,-567.012 794.145,-556.527 786.415,-563.772 792.62,-567.012"/>
</g>
<!-- Node47 -->
<g id="node47" class="node"><title>Node47</title>
<g id="a_node47"><a xlink:href="tensor__type_8h.html" target="_top" xlink:title="Polymorphic tensor types. ">
<polygon fill="white" stroke="black" points="1469.5,-761.5 1469.5,-780.5 1582.5,-780.5 1582.5,-761.5 1469.5,-761.5"/>
<text text-anchor="middle" x="1526" y="-768.5" font-family="Helvetica,sans-Serif" font-size="10.00">tvm/ir/tensor_type.h</text>
</a>
</g>
</g>
<!-- Node46&#45;&gt;Node47 -->
<g id="edge160" class="edge"><title>Node46&#45;&gt;Node47</title>
<path fill="none" stroke="midnightblue" d="M1617.28,-985.297C1603.21,-952.425 1553.13,-835.391 1533.74,-790.09"/>
<polygon fill="midnightblue" stroke="midnightblue" points="1536.95,-788.7 1529.8,-780.884 1530.52,-791.454 1536.95,-788.7"/>
</g>
<!-- Node48 -->
<g id="node48" class="node"><title>Node48</title>
<g id="a_node48"><a xlink:href="tir_2expr_8h.html" target="_top" xlink:title="TIR expressions. ">
<polygon fill="white" stroke="black" points="1976,-761.5 1976,-780.5 2056,-780.5 2056,-761.5 1976,-761.5"/>
<text text-anchor="middle" x="2016" y="-768.5" font-family="Helvetica,sans-Serif" font-size="10.00">tvm/tir/expr.h</text>
</a>
</g>
</g>
<!-- Node46&#45;&gt;Node48 -->
<g id="edge167" class="edge"><title>Node46&#45;&gt;Node48</title>
<path fill="none" stroke="midnightblue" d="M1634.35,-985.474C1661.28,-968.234 1723.99,-927.9 1776,-893 1825.34,-859.888 1832.99,-843.855 1886,-817 1914.12,-802.755 1947.8,-791.237 1973.83,-783.421"/>
<polygon fill="midnightblue" stroke="midnightblue" points="1975.15,-786.681 1983.76,-780.506 1973.18,-779.964 1975.15,-786.681"/>
</g>
<!-- Node49 -->
<g id="node49" class="node"><title>Node49</title>
<g id="a_node49"><a xlink:href="base_8h.html" target="_top" xlink:title="Base classes for the Relay IR. ">
<polygon fill="white" stroke="black" points="1895.5,-817.5 1895.5,-836.5 1944.5,-836.5 1944.5,-817.5 1895.5,-817.5"/>
<text text-anchor="middle" x="1920" y="-824.5" font-family="Helvetica,sans-Serif" font-size="10.00">base.h</text>
</a>
</g>
</g>
<!-- Node46&#45;&gt;Node49 -->
<g id="edge181" class="edge"><title>Node46&#45;&gt;Node49</title>
<path fill="none" stroke="midnightblue" d="M1668.74,-991.551C1734.94,-987.206 1850,-975.924 1881,-949 1911.04,-922.912 1918.11,-873.574 1919.67,-846.661"/>
<polygon fill="midnightblue" stroke="midnightblue" points="1923.16,-846.758 1920.05,-836.632 1916.17,-846.492 1923.16,-846.758"/>
</g>
<!-- Node47&#45;&gt;Node6 -->
<g id="edge162" class="edge"><title>Node47&#45;&gt;Node6</title>
<path fill="none" stroke="midnightblue" d="M1568.47,-761.444C1616.52,-751.761 1694.65,-736.018 1745.18,-725.836"/>
<polygon fill="midnightblue" stroke="midnightblue" points="1746.1,-729.221 1755.21,-723.815 1744.72,-722.359 1746.1,-729.221"/>
</g>
<!-- Node47&#45;&gt;Node37 -->
<g id="edge161" class="edge"><title>Node47&#45;&gt;Node37</title>
<path fill="none" stroke="midnightblue" d="M1526.24,-761.368C1526.72,-743.617 1527.84,-702.666 1528.49,-678.597"/>
<polygon fill="midnightblue" stroke="midnightblue" points="1531.99,-678.683 1528.77,-668.591 1524.99,-678.492 1531.99,-678.683"/>
</g>
<!-- Node48&#45;&gt;Node6 -->
<g id="edge173" class="edge"><title>Node48&#45;&gt;Node6</title>
<path fill="none" stroke="midnightblue" d="M1980.82,-761.444C1942.42,-752.102 1880.82,-737.119 1838.94,-726.933"/>
<polygon fill="midnightblue" stroke="midnightblue" points="1839.56,-723.479 1829.01,-724.516 1837.9,-730.281 1839.56,-723.479"/>
</g>
<!-- Node48&#45;&gt;Node9 -->
<g id="edge171" class="edge"><title>Node48&#45;&gt;Node9</title>
<path fill="none" stroke="midnightblue" d="M1975.77,-765.169C1909.92,-757.201 1775.02,-740.627 1661,-725 1355.8,-683.173 1263.83,-725.362 977,-613 918.22,-589.973 911.488,-568.882 857,-537 683.136,-435.269 619.596,-442.27 458,-322 424.217,-296.857 407.116,-293.907 391,-255 386.082,-243.127 379.719,-206.585 392,-179 406.836,-145.676 419.66,-139.872 452,-123 502.461,-96.6738 565.818,-84.0673 614.178,-78.033"/>
<polygon fill="midnightblue" stroke="midnightblue" points="614.739,-81.4912 624.259,-76.8426 613.918,-74.5395 614.739,-81.4912"/>
</g>
<!-- Node48&#45;&gt;Node13 -->
<g id="edge174" class="edge"><title>Node48&#45;&gt;Node13</title>
<path fill="none" stroke="midnightblue" d="M2056.23,-765.647C2223.6,-746.446 2856,-662.606 2856,-492 2856,-492 2856,-492 2856,-428.5 2856,-346.854 2877,-327.646 2877,-246 2877,-246 2877,-246 2877,-188 2877,-122.601 2650.74,-87.3115 2565.21,-76.3089"/>
<polygon fill="midnightblue" stroke="midnightblue" points="2565.4,-72.8049 2555.04,-75.03 2564.53,-79.7502 2565.4,-72.8049"/>
</g>
<!-- Node48&#45;&gt;Node14 -->
<g id="edge179" class="edge"><title>Node48&#45;&gt;Node14</title>
<path fill="none" stroke="midnightblue" d="M1975.57,-768.953C1844.13,-764.854 1417.64,-746.075 1075,-669 625.028,-567.782 389.99,-678.197 97,-322 40.713,-253.57 25.2946,-188.469 85,-123 109.305,-96.3486 149.706,-83.452 177.758,-77.4276"/>
<polygon fill="midnightblue" stroke="midnightblue" points="178.711,-80.8073 187.846,-75.4407 177.358,-73.9392 178.711,-80.8073"/>
</g>
<!-- Node48&#45;&gt;Node16 -->
<g id="edge168" class="edge"><title>Node48&#45;&gt;Node16</title>
<path fill="none" stroke="midnightblue" d="M1975.96,-769.31C1916.11,-767.142 1800.55,-758.531 1709,-725 1664.76,-708.798 1653.66,-700.903 1619,-669 1584.48,-637.227 1554.18,-590.642 1539.12,-565.553"/>
<polygon fill="midnightblue" stroke="midnightblue" points="1542.04,-563.621 1533.95,-556.784 1536.01,-567.176 1542.04,-563.621"/>
</g>
<!-- Node48&#45;&gt;Node23 -->
<g id="edge176" class="edge"><title>Node48&#45;&gt;Node23</title>
<path fill="none" stroke="midnightblue" d="M2056.41,-769.023C2110.02,-766.44 2206.65,-757.256 2282,-725 2521.8,-622.345 2652.54,-290.535 2681.7,-208.481"/>
<polygon fill="midnightblue" stroke="midnightblue" points="2685.09,-209.39 2685.08,-198.795 2678.48,-207.085 2685.09,-209.39"/>
</g>
<!-- Node48&#45;&gt;Node25 -->
<g id="edge172" class="edge"><title>Node48&#45;&gt;Node25</title>
<path fill="none" stroke="midnightblue" d="M2056.17,-765.334C2108.92,-758.537 2197.91,-744.557 2224,-725 2347.1,-632.721 2450.3,-548.716 2376,-414 2305.43,-286.042 2119.29,-254.805 2012.43,-247.648"/>
<polygon fill="midnightblue" stroke="midnightblue" points="2012.53,-244.149 2002.34,-247.029 2012.1,-251.135 2012.53,-244.149"/>
</g>
<!-- Node48&#45;&gt;Node28 -->
<g id="edge178" class="edge"><title>Node48&#45;&gt;Node28</title>
<path fill="none" stroke="midnightblue" d="M2056.03,-768.186C2104.28,-764.708 2186.87,-754.565 2251,-725 2326.88,-690.02 2477.35,-530.281 2490,-501 2525.32,-419.271 2509.48,-308.65 2501.05,-264.915"/>
<polygon fill="midnightblue" stroke="midnightblue" points="2504.43,-263.965 2499.01,-254.861 2497.57,-265.357 2504.43,-263.965"/>
</g>
<!-- Node48&#45;&gt;Node30 -->
<g id="edge170" class="edge"><title>Node48&#45;&gt;Node30</title>
<path fill="none" stroke="midnightblue" d="M2056.2,-765.253C2113.02,-756.051 2210,-730.08 2210,-660 2210,-660 2210,-660 2210,-546 2210,-465.998 2125.47,-492.369 2061,-445 2043.16,-431.89 2040.42,-426.286 2022,-414 1924.48,-348.953 1799.77,-285.819 1745.39,-259.202"/>
<polygon fill="midnightblue" stroke="midnightblue" points="1746.61,-255.899 1736.08,-254.664 1743.54,-262.191 1746.61,-255.899"/>
</g>
<!-- Node48&#45;&gt;Node31 -->
<g id="edge169" class="edge"><title>Node48&#45;&gt;Node31</title>
<path fill="none" stroke="midnightblue" d="M2017.43,-761.348C2021.53,-733.254 2030.49,-643.492 1987,-593 1899.86,-491.825 1807.86,-581.067 1701,-501 1663.61,-472.985 1672.34,-449.528 1642,-414 1632.94,-403.385 1621.59,-392.65 1612.2,-384.329"/>
<polygon fill="midnightblue" stroke="midnightblue" points="1614.41,-381.612 1604.56,-377.701 1609.82,-386.899 1614.41,-381.612"/>
</g>
<!-- Node48&#45;&gt;Node35 -->
<g id="edge177" class="edge"><title>Node48&#45;&gt;Node35</title>
<path fill="none" stroke="midnightblue" d="M2030.73,-761.373C2043.26,-753.367 2060.93,-740.387 2072,-725 2089.99,-700.004 2096,-690.795 2096,-660 2096,-660 2096,-660 2096,-602 2096,-534.753 2034.89,-473.276 2002.95,-445.737"/>
<polygon fill="midnightblue" stroke="midnightblue" points="2005.06,-442.938 1995.15,-439.188 2000.56,-448.299 2005.06,-442.938"/>
</g>
<!-- Node48&#45;&gt;Node38 -->
<g id="edge175" class="edge"><title>Node48&#45;&gt;Node38</title>
<path fill="none" stroke="midnightblue" d="M1975.91,-769.182C1921.69,-766.79 1822.92,-757.832 1746,-725 1718.53,-713.277 1691.75,-691.178 1675.32,-676.03"/>
<polygon fill="midnightblue" stroke="midnightblue" points="1677.39,-673.17 1667.72,-668.834 1672.58,-678.252 1677.39,-673.17"/>
</g>
<!-- Node49&#45;&gt;Node13 -->
<g id="edge185" class="edge"><title>Node49&#45;&gt;Node13</title>
<path fill="none" stroke="midnightblue" d="M1944.85,-826.047C2076.5,-825.893 2692.41,-820.032 2852,-725 2937.94,-673.824 2991,-648.025 2991,-548 2991,-548 2991,-548 2991,-490 2991,-407.149 3029,-390.351 3029,-307.5 3029,-307.5 3029,-307.5 3029,-188 3029,-92.4873 2675.71,-75.9254 2565.46,-73.0823"/>
<polygon fill="midnightblue" stroke="midnightblue" points="2565.36,-69.579 2555.28,-72.8415 2565.19,-76.577 2565.36,-69.579"/>
</g>
<!-- Node49&#45;&gt;Node16 -->
<g id="edge184" class="edge"><title>Node49&#45;&gt;Node16</title>
<path fill="none" stroke="midnightblue" d="M1895.3,-823.979C1788.28,-815.223 1370,-781 1370,-781 1301.33,-706.478 1447.56,-600.194 1506.14,-562.186"/>
<polygon fill="midnightblue" stroke="midnightblue" points="1508.21,-565.022 1514.75,-556.688 1504.44,-559.124 1508.21,-565.022"/>
</g>
<!-- Node49&#45;&gt;Node22 -->
<g id="edge186" class="edge"><title>Node49&#45;&gt;Node22</title>
<path fill="none" stroke="midnightblue" d="M1895.1,-823.942C1872.81,-822.105 1839.22,-819.349 1810,-817 1608.72,-800.821 915,-861.926 915,-660 915,-660 915,-660 915,-602 915,-561.118 834.405,-283.414 812.46,-208.557"/>
<polygon fill="midnightblue" stroke="midnightblue" points="815.739,-207.3 809.563,-198.691 809.023,-209.272 815.739,-207.3"/>
</g>
<!-- Node49&#45;&gt;Node36 -->
<g id="edge182" class="edge"><title>Node49&#45;&gt;Node36</title>
<path fill="none" stroke="midnightblue" d="M1920.71,-817.297C1923.35,-784.633 1932.74,-668.866 1936.46,-622.957"/>
<polygon fill="midnightblue" stroke="midnightblue" points="1939.96,-623.134 1937.28,-612.884 1932.98,-622.568 1939.96,-623.134"/>
</g>
<!-- Node49&#45;&gt;Node48 -->
<g id="edge183" class="edge"><title>Node49&#45;&gt;Node48</title>
<path fill="none" stroke="midnightblue" d="M1935.42,-817.324C1950.54,-808.822 1973.82,-795.729 1991.47,-785.797"/>
<polygon fill="midnightblue" stroke="midnightblue" points="1993.61,-788.608 2000.61,-780.655 1990.18,-782.507 1993.61,-788.608"/>
</g>
<!-- Node50&#45;&gt;Node2 -->
<g id="edge190" class="edge"><title>Node50&#45;&gt;Node2</title>
<path fill="none" stroke="midnightblue" d="M2039.68,-1047.41C1871.89,-1038.24 1306.69,-1007.35 1143.48,-998.431"/>
<polygon fill="midnightblue" stroke="midnightblue" points="1143.49,-994.927 1133.32,-997.876 1143.11,-1001.92 1143.49,-994.927"/>
</g>
<!-- Node50&#45;&gt;Node4 -->
<g id="edge188" class="edge"><title>Node50&#45;&gt;Node4</title>
<path fill="none" stroke="midnightblue" d="M2134.27,-1049.72C2330.03,-1047.96 3067,-1035.02 3067,-940 3067,-940 3067,-940 3067,-882 3067,-827.145 2668.4,-788.2 2525.9,-776.03"/>
<polygon fill="midnightblue" stroke="midnightblue" points="2525.95,-772.522 2515.69,-775.166 2525.36,-779.497 2525.95,-772.522"/>
</g>
<!-- Node50&#45;&gt;Node6 -->
<g id="edge189" class="edge"><title>Node50&#45;&gt;Node6</title>
<path fill="none" stroke="midnightblue" d="M2078.23,-1041.38C2049.55,-1013.07 1956.37,-919.992 1886,-837 1855.72,-801.283 1823.21,-756.946 1806.12,-733.098"/>
<polygon fill="midnightblue" stroke="midnightblue" points="1808.82,-730.862 1800.16,-724.753 1803.12,-734.927 1808.82,-730.862"/>
</g>
<!-- Node50&#45;&gt;Node13 -->
<g id="edge192" class="edge"><title>Node50&#45;&gt;Node13</title>
<path fill="none" stroke="midnightblue" d="M2134.2,-1050.45C2348.44,-1051.87 3219,-1050.82 3219,-940 3219,-940 3219,-940 3219,-188 3219,-154.31 3208.65,-140.728 3180,-123 3127.45,-90.4843 2689.83,-76.6119 2565.71,-73.3084"/>
<polygon fill="midnightblue" stroke="midnightblue" points="2565.43,-69.8001 2555.34,-73.038 2565.25,-76.7977 2565.43,-69.8001"/>
</g>
<!-- Node50&#45;&gt;Node26 -->
<g id="edge193" class="edge"><title>Node50&#45;&gt;Node26</title>
<path fill="none" stroke="midnightblue" d="M2134.18,-1050.11C2293.19,-1050.09 2808.34,-1046.72 2968,-1005 3022.23,-990.831 3051.45,-996.628 3081,-949 3125.05,-878.001 3112.9,-838.226 3081,-761 2976.05,-506.919 2678.27,-312.352 2591.81,-259.985"/>
<polygon fill="midnightblue" stroke="midnightblue" points="2593.37,-256.842 2583,-254.7 2589.77,-262.845 2593.37,-256.842"/>
</g>
<!-- Node50&#45;&gt;Node41 -->
<g id="edge191" class="edge"><title>Node50&#45;&gt;Node41</title>
<path fill="none" stroke="midnightblue" d="M2068.09,-1041.42C2007.98,-1014.16 1820.98,-929.348 1749.33,-896.851"/>
<polygon fill="midnightblue" stroke="midnightblue" points="1750.57,-893.567 1740.01,-892.624 1747.67,-899.942 1750.57,-893.567"/>
</g>
<!-- Node50&#45;&gt;Node46 -->
<g id="edge195" class="edge"><title>Node50&#45;&gt;Node46</title>
<path fill="none" stroke="midnightblue" d="M2039.75,-1044.53C1953.78,-1034.56 1772.04,-1013.5 1678.82,-1002.7"/>
<polygon fill="midnightblue" stroke="midnightblue" points="1679.06,-999.204 1668.72,-1001.53 1678.25,-1006.16 1679.06,-999.204"/>
</g>
<!-- Node50&#45;&gt;Node49 -->
<g id="edge194" class="edge"><title>Node50&#45;&gt;Node49</title>
<path fill="none" stroke="midnightblue" d="M2091.35,-1041.35C2101.2,-1020.41 2122.74,-966.019 2101,-929 2069.37,-875.134 1997.42,-847.881 1954.37,-835.915"/>
<polygon fill="midnightblue" stroke="midnightblue" points="1955.17,-832.507 1944.6,-833.327 1953.37,-839.273 1955.17,-832.507"/>
</g>
</g>
</svg>
