<?xml version="1.0" encoding="UTF-8" standalone="no"?>
<!DOCTYPE svg PUBLIC "-//W3C//DTD SVG 1.1//EN"
 "http://www.w3.org/Graphics/SVG/1.1/DTD/svg11.dtd">
<!-- Generated by graphviz version 2.38.0 (20140413.2041)
 -->
<!-- Title: include/tvm/runtime/container.h Pages: 1 -->
<svg width="731pt" height="274pt"
 viewBox="0.00 0.00 730.50 274.00" xmlns="http://www.w3.org/2000/svg" xmlns:xlink="http://www.w3.org/1999/xlink">
<g id="graph0" class="graph" transform="scale(1 1) rotate(0) translate(4 270)">
<title>include/tvm/runtime/container.h</title>
<polygon fill="white" stroke="none" points="-4,4 -4,-270 726.5,-270 726.5,4 -4,4"/>
<!-- Node1 -->
<g id="node1" class="node"><title>Node1</title>
<polygon fill="#bfbfbf" stroke="black" points="390.5,-235.5 390.5,-265.5 503.5,-265.5 503.5,-235.5 390.5,-235.5"/>
<text text-anchor="start" x="398.5" y="-253.5" font-family="Helvetica,sans-Serif" font-size="10.00">include/tvm/runtime</text>
<text text-anchor="middle" x="447" y="-242.5" font-family="Helvetica,sans-Serif" font-size="10.00">/container.h</text>
</g>
<!-- Node2 -->
<g id="node2" class="node"><title>Node2</title>
<polygon fill="white" stroke="#bfbfbf" points="0,-62 0,-81 86,-81 86,-62 0,-62"/>
<text text-anchor="middle" x="43" y="-69" font-family="Helvetica,sans-Serif" font-size="10.00">dmlc/logging.h</text>
</g>
<!-- Node1&#45;&gt;Node2 -->
<g id="edge1" class="edge"><title>Node1&#45;&gt;Node2</title>
<path fill="none" stroke="midnightblue" d="M390.413,-245.252C339.406,-239.72 263.371,-227.167 203,-199 142.801,-170.913 84.9118,-116.062 58.2726,-88.7537"/>
<polygon fill="midnightblue" stroke="midnightblue" points="60.4917,-86.0114 51.0406,-81.223 55.4428,-90.86 60.4917,-86.0114"/>
</g>
<!-- Node3 -->
<g id="node3" class="node"><title>Node3</title>
<g id="a_node3"><a xlink:href="runtime_2memory_8h.html" target="_top" xlink:title="Runtime memory management. ">
<polygon fill="white" stroke="black" points="284.5,-179.5 284.5,-198.5 411.5,-198.5 411.5,-179.5 284.5,-179.5"/>
<text text-anchor="middle" x="348" y="-186.5" font-family="Helvetica,sans-Serif" font-size="10.00">tvm/runtime/memory.h</text>
</a>
</g>
</g>
<!-- Node1&#45;&gt;Node3 -->
<g id="edge2" class="edge"><title>Node1&#45;&gt;Node3</title>
<path fill="none" stroke="midnightblue" d="M423.538,-235.399C407.669,-225.862 386.809,-213.325 371.032,-203.842"/>
<polygon fill="midnightblue" stroke="midnightblue" points="372.779,-200.809 362.405,-198.658 369.174,-206.809 372.779,-200.809"/>
</g>
<!-- Node4 -->
<g id="node4" class="node"><title>Node4</title>
<g id="a_node4"><a xlink:href="object_8h.html" target="_top" xlink:title="A managed object in the TVM runtime. ">
<polygon fill="white" stroke="black" points="197.5,-123.5 197.5,-142.5 314.5,-142.5 314.5,-123.5 197.5,-123.5"/>
<text text-anchor="middle" x="256" y="-130.5" font-family="Helvetica,sans-Serif" font-size="10.00">tvm/runtime/object.h</text>
</a>
</g>
</g>
<!-- Node1&#45;&gt;Node4 -->
<g id="edge16" class="edge"><title>Node1&#45;&gt;Node4</title>
<path fill="none" stroke="midnightblue" d="M390.403,-246.571C352.961,-241.688 305.351,-229.387 275,-199 262.937,-186.923 258.446,-167.637 256.817,-153.205"/>
<polygon fill="midnightblue" stroke="midnightblue" points="260.282,-152.607 256.036,-142.901 253.302,-153.137 260.282,-152.607"/>
</g>
<!-- Node9 -->
<g id="node9" class="node"><title>Node9</title>
<polygon fill="white" stroke="#bfbfbf" points="104,-62 104,-81 172,-81 172,-62 104,-62"/>
<text text-anchor="middle" x="138" y="-69" font-family="Helvetica,sans-Serif" font-size="10.00">type_traits</text>
</g>
<!-- Node1&#45;&gt;Node9 -->
<g id="edge20" class="edge"><title>Node1&#45;&gt;Node9</title>
<path fill="none" stroke="midnightblue" d="M390.287,-244.476C325.361,-235.553 220.696,-210.897 164,-143 151.485,-128.013 144.717,-106.452 141.253,-91.1268"/>
<polygon fill="midnightblue" stroke="midnightblue" points="144.672,-90.3735 139.28,-81.2531 137.808,-91.7451 144.672,-90.3735"/>
</g>
<!-- Node10 -->
<g id="node10" class="node"><title>Node10</title>
<polygon fill="white" stroke="#bfbfbf" points="404,-62 404,-81 448,-81 448,-62 404,-62"/>
<text text-anchor="middle" x="426" y="-69" font-family="Helvetica,sans-Serif" font-size="10.00">string</text>
</g>
<!-- Node1&#45;&gt;Node10 -->
<g id="edge19" class="edge"><title>Node1&#45;&gt;Node10</title>
<path fill="none" stroke="midnightblue" d="M445.317,-235.315C441.558,-203.633 432.479,-127.109 428.245,-91.4186"/>
<polygon fill="midnightblue" stroke="midnightblue" points="431.707,-90.892 427.053,-81.3741 424.755,-91.7168 431.707,-90.892"/>
</g>
<!-- Node11 -->
<g id="node11" class="node"><title>Node11</title>
<polygon fill="white" stroke="#bfbfbf" points="466,-62 466,-81 508,-81 508,-62 466,-62"/>
<text text-anchor="middle" x="487" y="-69" font-family="Helvetica,sans-Serif" font-size="10.00">utility</text>
</g>
<!-- Node1&#45;&gt;Node11 -->
<g id="edge21" class="edge"><title>Node1&#45;&gt;Node11</title>
<path fill="none" stroke="midnightblue" d="M450.206,-235.315C457.365,-203.633 474.659,-127.109 482.725,-91.4186"/>
<polygon fill="midnightblue" stroke="midnightblue" points="486.204,-91.8996 484.995,-81.3741 479.376,-90.3566 486.204,-91.8996"/>
</g>
<!-- Node14 -->
<g id="node14" class="node"><title>Node14</title>
<polygon fill="white" stroke="#bfbfbf" points="513.5,-179.5 513.5,-198.5 562.5,-198.5 562.5,-179.5 513.5,-179.5"/>
<text text-anchor="middle" x="538" y="-186.5" font-family="Helvetica,sans-Serif" font-size="10.00">cstring</text>
</g>
<!-- Node1&#45;&gt;Node14 -->
<g id="edge17" class="edge"><title>Node1&#45;&gt;Node14</title>
<path fill="none" stroke="midnightblue" d="M468.566,-235.399C482.88,-226.04 501.612,-213.792 516.011,-204.377"/>
<polygon fill="midnightblue" stroke="midnightblue" points="518.304,-207.06 524.759,-198.658 514.474,-201.201 518.304,-207.06"/>
</g>
<!-- Node15 -->
<g id="node15" class="node"><title>Node15</title>
<polygon fill="white" stroke="#bfbfbf" points="580.5,-179.5 580.5,-198.5 657.5,-198.5 657.5,-179.5 580.5,-179.5"/>
<text text-anchor="middle" x="619" y="-186.5" font-family="Helvetica,sans-Serif" font-size="10.00">initializer_list</text>
</g>
<!-- Node1&#45;&gt;Node15 -->
<g id="edge18" class="edge"><title>Node1&#45;&gt;Node15</title>
<path fill="none" stroke="midnightblue" d="M487.762,-235.399C517.224,-225.207 556.589,-211.59 584.499,-201.935"/>
<polygon fill="midnightblue" stroke="midnightblue" points="585.917,-205.148 594.224,-198.571 583.629,-198.533 585.917,-205.148"/>
</g>
<!-- Node16 -->
<g id="node16" class="node"><title>Node16</title>
<polygon fill="white" stroke="#bfbfbf" points="675.5,-179.5 675.5,-198.5 722.5,-198.5 722.5,-179.5 675.5,-179.5"/>
<text text-anchor="middle" x="699" y="-186.5" font-family="Helvetica,sans-Serif" font-size="10.00">vector</text>
</g>
<!-- Node1&#45;&gt;Node16 -->
<g id="edge22" class="edge"><title>Node1&#45;&gt;Node16</title>
<path fill="none" stroke="midnightblue" d="M503.702,-237.278C545.891,-228.003 605.107,-214.606 665.223,-199.373"/>
<polygon fill="midnightblue" stroke="midnightblue" points="666.443,-202.674 675.269,-196.813 664.714,-195.891 666.443,-202.674"/>
</g>
<!-- Node3&#45;&gt;Node4 -->
<g id="edge3" class="edge"><title>Node3&#45;&gt;Node4</title>
<path fill="none" stroke="midnightblue" d="M333.219,-179.324C318.733,-170.822 296.427,-157.729 279.507,-147.797"/>
<polygon fill="midnightblue" stroke="midnightblue" points="281.141,-144.698 270.745,-142.655 277.597,-150.735 281.141,-144.698"/>
</g>
<!-- Node3&#45;&gt;Node9 -->
<g id="edge15" class="edge"><title>Node3&#45;&gt;Node9</title>
<path fill="none" stroke="midnightblue" d="M284.472,-180.285C253.226,-174.086 216.301,-162.951 188,-143 169.086,-129.667 154.815,-106.813 146.457,-90.748"/>
<polygon fill="midnightblue" stroke="midnightblue" points="149.383,-88.768 141.829,-81.3397 143.102,-91.8578 149.383,-88.768"/>
</g>
<!-- Node3&#45;&gt;Node11 -->
<g id="edge14" class="edge"><title>Node3&#45;&gt;Node11</title>
<path fill="none" stroke="midnightblue" d="M347.412,-179.289C346.977,-165.637 348.149,-139.103 362,-123 391.444,-88.7688 415.522,-104.842 457,-87 458.196,-86.4857 459.413,-85.9498 460.639,-85.4"/>
<polygon fill="midnightblue" stroke="midnightblue" points="462.4,-88.4405 469.986,-81.044 459.444,-82.0956 462.4,-88.4405"/>
</g>
<!-- Node13 -->
<g id="node13" class="node"><title>Node13</title>
<polygon fill="white" stroke="#bfbfbf" points="371.5,-123.5 371.5,-142.5 418.5,-142.5 418.5,-123.5 371.5,-123.5"/>
<text text-anchor="middle" x="395" y="-130.5" font-family="Helvetica,sans-Serif" font-size="10.00">cstdlib</text>
</g>
<!-- Node3&#45;&gt;Node13 -->
<g id="edge13" class="edge"><title>Node3&#45;&gt;Node13</title>
<path fill="none" stroke="midnightblue" d="M355.761,-179.083C362.537,-171.298 372.543,-159.801 380.755,-150.367"/>
<polygon fill="midnightblue" stroke="midnightblue" points="383.458,-152.592 387.383,-142.751 378.178,-147.996 383.458,-152.592"/>
</g>
<!-- Node4&#45;&gt;Node2 -->
<g id="edge4" class="edge"><title>Node4&#45;&gt;Node2</title>
<path fill="none" stroke="midnightblue" d="M225.482,-123.475C188.075,-113.026 124.573,-95.2868 83.2131,-83.7332"/>
<polygon fill="midnightblue" stroke="midnightblue" points="84.0341,-80.3286 73.4611,-81.0091 82.1507,-87.0705 84.0341,-80.3286"/>
</g>
<!-- Node5 -->
<g id="node5" class="node"><title>Node5</title>
<g id="a_node5"><a xlink:href="c__runtime__api_8h.html" target="_top" xlink:title="tvm/runtime/c_runtime\l_api.h">
<polygon fill="white" stroke="black" points="190.5,-56.5 190.5,-86.5 317.5,-86.5 317.5,-56.5 190.5,-56.5"/>
<text text-anchor="start" x="198.5" y="-74.5" font-family="Helvetica,sans-Serif" font-size="10.00">tvm/runtime/c_runtime</text>
<text text-anchor="middle" x="254" y="-63.5" font-family="Helvetica,sans-Serif" font-size="10.00">_api.h</text>
</a>
</g>
</g>
<!-- Node4&#45;&gt;Node5 -->
<g id="edge5" class="edge"><title>Node4&#45;&gt;Node5</title>
<path fill="none" stroke="midnightblue" d="M255.713,-123.475C255.478,-116.471 255.133,-106.192 254.813,-96.6956"/>
<polygon fill="midnightblue" stroke="midnightblue" points="258.305,-96.3997 254.471,-86.523 251.309,-96.6349 258.305,-96.3997"/>
</g>
<!-- Node4&#45;&gt;Node9 -->
<g id="edge9" class="edge"><title>Node4&#45;&gt;Node9</title>
<path fill="none" stroke="midnightblue" d="M239.093,-123.475C219.466,-113.578 186.869,-97.1416 164.01,-85.6151"/>
<polygon fill="midnightblue" stroke="midnightblue" points="165.38,-82.3863 154.875,-81.0091 162.228,-88.6367 165.38,-82.3863"/>
</g>
<!-- Node4&#45;&gt;Node10 -->
<g id="edge10" class="edge"><title>Node4&#45;&gt;Node10</title>
<path fill="none" stroke="midnightblue" d="M285.934,-123.485C314.343,-115.128 358.067,-101.551 395,-87 396.417,-86.4419 397.86,-85.8503 399.311,-85.2374"/>
<polygon fill="midnightblue" stroke="midnightblue" points="401.077,-88.2822 408.787,-81.0149 398.228,-81.8884 401.077,-88.2822"/>
</g>
<!-- Node4&#45;&gt;Node11 -->
<g id="edge11" class="edge"><title>Node4&#45;&gt;Node11</title>
<path fill="none" stroke="midnightblue" d="M309.832,-123.425C350.853,-116.062 408.373,-103.941 457,-87 458.615,-86.4374 460.257,-85.8113 461.898,-85.144"/>
<polygon fill="midnightblue" stroke="midnightblue" points="463.401,-88.3061 471.097,-81.025 460.54,-81.9174 463.401,-88.3061"/>
</g>
<!-- Node12 -->
<g id="node12" class="node"><title>Node12</title>
<polygon fill="white" stroke="#bfbfbf" points="336,-62 336,-81 386,-81 386,-62 336,-62"/>
<text text-anchor="middle" x="361" y="-69" font-family="Helvetica,sans-Serif" font-size="10.00">atomic</text>
</g>
<!-- Node4&#45;&gt;Node12 -->
<g id="edge12" class="edge"><title>Node4&#45;&gt;Node12</title>
<path fill="none" stroke="midnightblue" d="M271.044,-123.475C288.275,-113.711 316.74,-97.5807 337.034,-86.0808"/>
<polygon fill="midnightblue" stroke="midnightblue" points="339.009,-88.9843 345.984,-81.0091 335.558,-82.8942 339.009,-88.9843"/>
</g>
<!-- Node6 -->
<g id="node6" class="node"><title>Node6</title>
<polygon fill="white" stroke="#bfbfbf" points="119,-0.5 119,-19.5 209,-19.5 209,-0.5 119,-0.5"/>
<text text-anchor="middle" x="164" y="-7.5" font-family="Helvetica,sans-Serif" font-size="10.00">dlpack/dlpack.h</text>
</g>
<!-- Node5&#45;&gt;Node6 -->
<g id="edge6" class="edge"><title>Node5&#45;&gt;Node6</title>
<path fill="none" stroke="midnightblue" d="M232.671,-56.3993C218.515,-47.0402 199.989,-34.7924 185.747,-25.3771"/>
<polygon fill="midnightblue" stroke="midnightblue" points="187.368,-22.2531 177.096,-19.6578 183.507,-28.0923 187.368,-22.2531"/>
</g>
<!-- Node7 -->
<g id="node7" class="node"><title>Node7</title>
<polygon fill="white" stroke="#bfbfbf" points="227.5,-0.5 227.5,-19.5 280.5,-19.5 280.5,-0.5 227.5,-0.5"/>
<text text-anchor="middle" x="254" y="-7.5" font-family="Helvetica,sans-Serif" font-size="10.00">stdint.h</text>
</g>
<!-- Node5&#45;&gt;Node7 -->
<g id="edge7" class="edge"><title>Node5&#45;&gt;Node7</title>
<path fill="none" stroke="midnightblue" d="M254,-56.3993C254,-48.4664 254,-38.458 254,-29.8583"/>
<polygon fill="midnightblue" stroke="midnightblue" points="257.5,-29.6577 254,-19.6578 250.5,-29.6578 257.5,-29.6577"/>
</g>
<!-- Node8 -->
<g id="node8" class="node"><title>Node8</title>
<polygon fill="white" stroke="#bfbfbf" points="298.5,-0.5 298.5,-19.5 353.5,-19.5 353.5,-0.5 298.5,-0.5"/>
<text text-anchor="middle" x="326" y="-7.5" font-family="Helvetica,sans-Serif" font-size="10.00">stddef.h</text>
</g>
<!-- Node5&#45;&gt;Node8 -->
<g id="edge8" class="edge"><title>Node5&#45;&gt;Node8</title>
<path fill="none" stroke="midnightblue" d="M271.063,-56.3993C282.065,-47.3076 296.365,-35.4899 307.618,-26.1909"/>
<polygon fill="midnightblue" stroke="midnightblue" points="310.044,-28.726 315.523,-19.6578 305.585,-23.33 310.044,-28.726"/>
</g>
</g>
</svg>
