<?xml version="1.0" encoding="UTF-8" standalone="no"?>
<!DOCTYPE svg PUBLIC "-//W3C//DTD SVG 1.1//EN"
 "http://www.w3.org/Graphics/SVG/1.1/DTD/svg11.dtd">
<!-- Generated by graphviz version 2.38.0 (20140413.2041)
 -->
<!-- Title: tvm::relay::ROIAlignAttrs Pages: 1 -->
<svg width="356pt" height="614pt"
 viewBox="0.00 0.00 355.50 614.00" xmlns="http://www.w3.org/2000/svg" xmlns:xlink="http://www.w3.org/1999/xlink">
<g id="graph0" class="graph" transform="scale(1 1) rotate(0) translate(4 610)">
<title>tvm::relay::ROIAlignAttrs</title>
<polygon fill="white" stroke="none" points="-4,4 -4,-610 351.5,-610 351.5,4 -4,4"/>
<!-- Node1 -->
<g id="node1" class="node"><title>Node1</title>
<polygon fill="#bfbfbf" stroke="black" points="132,-0.5 132,-79.5 272,-79.5 272,-0.5 132,-0.5"/>
<text text-anchor="middle" x="202" y="-67.5" font-family="Helvetica,sans-Serif" font-size="10.00">tvm::relay::ROIAlignAttrs</text>
<polyline fill="none" stroke="black" points="132,-60.5 272,-60.5 "/>
<text text-anchor="start" x="140" y="-48.5" font-family="Helvetica,sans-Serif" font-size="10.00">+ spatial_scale</text>
<text text-anchor="start" x="140" y="-37.5" font-family="Helvetica,sans-Serif" font-size="10.00">+ sample_ratio</text>
<text text-anchor="start" x="140" y="-26.5" font-family="Helvetica,sans-Serif" font-size="10.00">+ layout</text>
<polyline fill="none" stroke="black" points="132,-19.5 272,-19.5 "/>
<text text-anchor="start" x="140" y="-7.5" font-family="Helvetica,sans-Serif" font-size="10.00">+ TVM_DECLARE_ATTRS()</text>
</g>
<!-- Node2 -->
<g id="node2" class="node"><title>Node2</title>
<g id="a_node2"><a xlink:href="classtvm_1_1AttrsNode.html" target="_top" xlink:title="{tvm::AttrsNode\&lt; ROIAlign\lAttrs \&gt;\n||+ VisitAttrs()\l+ VisitNonDefaultAttrs()\l+ InitByPackedArgs()\l+ SEqualReduce()\l+ SHashReduce()\l+ ListFieldInfo()\l}">
<polygon fill="white" stroke="black" points="32,-149.5 32,-272.5 172,-272.5 172,-149.5 32,-149.5"/>
<text text-anchor="start" x="40" y="-260.5" font-family="Helvetica,sans-Serif" font-size="10.00">tvm::AttrsNode&lt; ROIAlign</text>
<text text-anchor="middle" x="102" y="-249.5" font-family="Helvetica,sans-Serif" font-size="10.00">Attrs &gt;</text>
<polyline fill="none" stroke="black" points="32,-242.5 172,-242.5 "/>
<text text-anchor="middle" x="102" y="-230.5" font-family="Helvetica,sans-Serif" font-size="10.00"> </text>
<polyline fill="none" stroke="black" points="32,-223.5 172,-223.5 "/>
<text text-anchor="start" x="40" y="-211.5" font-family="Helvetica,sans-Serif" font-size="10.00">+ VisitAttrs()</text>
<text text-anchor="start" x="40" y="-200.5" font-family="Helvetica,sans-Serif" font-size="10.00">+ VisitNonDefaultAttrs()</text>
<text text-anchor="start" x="40" y="-189.5" font-family="Helvetica,sans-Serif" font-size="10.00">+ InitByPackedArgs()</text>
<text text-anchor="start" x="40" y="-178.5" font-family="Helvetica,sans-Serif" font-size="10.00">+ SEqualReduce()</text>
<text text-anchor="start" x="40" y="-167.5" font-family="Helvetica,sans-Serif" font-size="10.00">+ SHashReduce()</text>
<text text-anchor="start" x="40" y="-156.5" font-family="Helvetica,sans-Serif" font-size="10.00">+ ListFieldInfo()</text>
</a>
</g>
</g>
<!-- Node2&#45;&gt;Node1 -->
<g id="edge1" class="edge"><title>Node2&#45;&gt;Node1</title>
<path fill="none" stroke="midnightblue" d="M143.054,-140.619C155.396,-119.76 168.49,-97.6318 179.194,-79.542"/>
<polygon fill="none" stroke="midnightblue" points="139.9,-139.076 137.82,-149.464 145.925,-142.641 139.9,-139.076"/>
</g>
<!-- Node3 -->
<g id="node3" class="node"><title>Node3</title>
<g id="a_node3"><a xlink:href="classtvm_1_1BaseAttrsNode.html" target="_top" xlink:title="Base class of all attribute class. ">
<polygon fill="white" stroke="black" points="0,-332.5 0,-510.5 204,-510.5 204,-332.5 0,-332.5"/>
<text text-anchor="middle" x="102" y="-498.5" font-family="Helvetica,sans-Serif" font-size="10.00">tvm::BaseAttrsNode</text>
<polyline fill="none" stroke="black" points="0,-491.5 204,-491.5 "/>
<text text-anchor="start" x="8" y="-479.5" font-family="Helvetica,sans-Serif" font-size="10.00">+ _type_has_method_sequal</text>
<text text-anchor="start" x="8" y="-468.5" font-family="Helvetica,sans-Serif" font-size="10.00">_reduce</text>
<text text-anchor="start" x="8" y="-457.5" font-family="Helvetica,sans-Serif" font-size="10.00">+ _type_has_method_shash</text>
<text text-anchor="start" x="8" y="-446.5" font-family="Helvetica,sans-Serif" font-size="10.00">_reduce</text>
<text text-anchor="start" x="8" y="-435.5" font-family="Helvetica,sans-Serif" font-size="10.00">+ _type_key</text>
<polyline fill="none" stroke="black" points="0,-428.5 204,-428.5 "/>
<text text-anchor="start" x="8" y="-416.5" font-family="Helvetica,sans-Serif" font-size="10.00">+ ~BaseAttrsNode()</text>
<text text-anchor="start" x="8" y="-405.5" font-family="Helvetica,sans-Serif" font-size="10.00">+ VisitAttrs()</text>
<text text-anchor="start" x="8" y="-394.5" font-family="Helvetica,sans-Serif" font-size="10.00">+ InitBySeq()</text>
<text text-anchor="start" x="8" y="-383.5" font-family="Helvetica,sans-Serif" font-size="10.00">+ PrintDocString()</text>
<text text-anchor="start" x="8" y="-372.5" font-family="Helvetica,sans-Serif" font-size="10.00">+ VisitNonDefaultAttrs()</text>
<text text-anchor="start" x="8" y="-361.5" font-family="Helvetica,sans-Serif" font-size="10.00">+ ListFieldInfo()</text>
<text text-anchor="start" x="8" y="-350.5" font-family="Helvetica,sans-Serif" font-size="10.00">+ InitByPackedArgs()</text>
<text text-anchor="start" x="8" y="-339.5" font-family="Helvetica,sans-Serif" font-size="10.00">+ TVM_DECLARE_BASE_OBJECT_INFO()</text>
</a>
</g>
</g>
<!-- Node3&#45;&gt;Node2 -->
<g id="edge2" class="edge"><title>Node3&#45;&gt;Node2</title>
<path fill="none" stroke="midnightblue" d="M102,-321.95C102,-305.133 102,-288.117 102,-272.661"/>
<polygon fill="none" stroke="midnightblue" points="98.5001,-322.379 102,-332.379 105.5,-322.379 98.5001,-322.379"/>
</g>
<!-- Node4 -->
<g id="node4" class="node"><title>Node4</title>
<polygon fill="white" stroke="#bfbfbf" points="78.5,-548.5 78.5,-605.5 125.5,-605.5 125.5,-548.5 78.5,-548.5"/>
<text text-anchor="middle" x="102" y="-593.5" font-family="Helvetica,sans-Serif" font-size="10.00">Object</text>
<polyline fill="none" stroke="#bfbfbf" points="78.5,-586.5 125.5,-586.5 "/>
<text text-anchor="middle" x="102" y="-574.5" font-family="Helvetica,sans-Serif" font-size="10.00"> </text>
<polyline fill="none" stroke="#bfbfbf" points="78.5,-567.5 125.5,-567.5 "/>
<text text-anchor="middle" x="102" y="-555.5" font-family="Helvetica,sans-Serif" font-size="10.00"> </text>
</g>
<!-- Node4&#45;&gt;Node3 -->
<g id="edge3" class="edge"><title>Node4&#45;&gt;Node3</title>
<path fill="none" stroke="midnightblue" d="M102,-537.957C102,-529.471 102,-520.13 102,-510.549"/>
<polygon fill="none" stroke="midnightblue" points="98.5001,-538.202 102,-548.202 105.5,-538.202 98.5001,-538.202"/>
</g>
<!-- Node5 -->
<g id="node5" class="node"><title>Node5</title>
<g id="a_node5"><a xlink:href="classtvm_1_1Array.html" target="_top" xlink:title="{tvm::Array\&lt; tvm::PrimExpr \&gt;\n||+ Array()\l+ Array()\l+ Array()\l+ Array()\l+ Array()\l+ Array()\l+ Array()\l+ Array()\l+ operator=()\l+ operator=()\land 13 more...\l}">
<polygon fill="white" stroke="black" points="190.5,-127.5 190.5,-294.5 347.5,-294.5 347.5,-127.5 190.5,-127.5"/>
<text text-anchor="middle" x="269" y="-282.5" font-family="Helvetica,sans-Serif" font-size="10.00">tvm::Array&lt; tvm::PrimExpr &gt;</text>
<polyline fill="none" stroke="black" points="190.5,-275.5 347.5,-275.5 "/>
<text text-anchor="middle" x="269" y="-263.5" font-family="Helvetica,sans-Serif" font-size="10.00"> </text>
<polyline fill="none" stroke="black" points="190.5,-256.5 347.5,-256.5 "/>
<text text-anchor="start" x="198.5" y="-244.5" font-family="Helvetica,sans-Serif" font-size="10.00">+ Array()</text>
<text text-anchor="start" x="198.5" y="-233.5" font-family="Helvetica,sans-Serif" font-size="10.00">+ Array()</text>
<text text-anchor="start" x="198.5" y="-222.5" font-family="Helvetica,sans-Serif" font-size="10.00">+ Array()</text>
<text text-anchor="start" x="198.5" y="-211.5" font-family="Helvetica,sans-Serif" font-size="10.00">+ Array()</text>
<text text-anchor="start" x="198.5" y="-200.5" font-family="Helvetica,sans-Serif" font-size="10.00">+ Array()</text>
<text text-anchor="start" x="198.5" y="-189.5" font-family="Helvetica,sans-Serif" font-size="10.00">+ Array()</text>
<text text-anchor="start" x="198.5" y="-178.5" font-family="Helvetica,sans-Serif" font-size="10.00">+ Array()</text>
<text text-anchor="start" x="198.5" y="-167.5" font-family="Helvetica,sans-Serif" font-size="10.00">+ Array()</text>
<text text-anchor="start" x="198.5" y="-156.5" font-family="Helvetica,sans-Serif" font-size="10.00">+ operator=()</text>
<text text-anchor="start" x="198.5" y="-145.5" font-family="Helvetica,sans-Serif" font-size="10.00">+ operator=()</text>
<text text-anchor="start" x="198.5" y="-134.5" font-family="Helvetica,sans-Serif" font-size="10.00">and 13 more...</text>
</a>
</g>
</g>
<!-- Node5&#45;&gt;Node1 -->
<g id="edge4" class="edge"><title>Node5&#45;&gt;Node1</title>
<path fill="none" stroke="#404040" d="M236.285,-127.48C231.302,-114.912 226.297,-102.285 221.709,-90.7132"/>
<polygon fill="none" stroke="#404040" points="221.699,-90.6891 215.77,-86.5856 217.277,-79.5337 223.206,-83.6372 221.699,-90.6891"/>
<text text-anchor="middle" x="262" y="-101" font-family="Helvetica,sans-Serif" font-size="10.00"> +pooled_size</text>
</g>
<!-- Node6 -->
<g id="node6" class="node"><title>Node6</title>
<polygon fill="white" stroke="#bfbfbf" points="238,-393 238,-450 300,-450 300,-393 238,-393"/>
<text text-anchor="middle" x="269" y="-438" font-family="Helvetica,sans-Serif" font-size="10.00">ObjectRef</text>
<polyline fill="none" stroke="#bfbfbf" points="238,-431 300,-431 "/>
<text text-anchor="middle" x="269" y="-419" font-family="Helvetica,sans-Serif" font-size="10.00"> </text>
<polyline fill="none" stroke="#bfbfbf" points="238,-412 300,-412 "/>
<text text-anchor="middle" x="269" y="-400" font-family="Helvetica,sans-Serif" font-size="10.00"> </text>
</g>
<!-- Node6&#45;&gt;Node5 -->
<g id="edge5" class="edge"><title>Node6&#45;&gt;Node5</title>
<path fill="none" stroke="midnightblue" d="M269,-382.512C269,-357.995 269,-325.126 269,-294.791"/>
<polygon fill="none" stroke="midnightblue" points="265.5,-382.813 269,-392.813 272.5,-382.813 265.5,-382.813"/>
</g>
</g>
</svg>
