<?xml version="1.0" encoding="UTF-8" standalone="no"?>
<!DOCTYPE svg PUBLIC "-//W3C//DTD SVG 1.1//EN"
 "http://www.w3.org/Graphics/SVG/1.1/DTD/svg11.dtd">
<!-- Generated by graphviz version 2.38.0 (20140413.2041)
 -->
<!-- Title: tvm::relay::MultiBoxPriorAttrs Pages: 1 -->
<svg width="357pt" height="636pt"
 viewBox="0.00 0.00 356.50 636.00" xmlns="http://www.w3.org/2000/svg" xmlns:xlink="http://www.w3.org/1999/xlink">
<g id="graph0" class="graph" transform="scale(1 1) rotate(0) translate(4 632)">
<title>tvm::relay::MultiBoxPriorAttrs</title>
<polygon fill="white" stroke="none" points="-4,4 -4,-632 352.5,-632 352.5,4 -4,4"/>
<!-- Node1 -->
<g id="node1" class="node"><title>Node1</title>
<polygon fill="#bfbfbf" stroke="black" points="132,-0.5 132,-68.5 272,-68.5 272,-0.5 132,-0.5"/>
<text text-anchor="start" x="140" y="-56.5" font-family="Helvetica,sans-Serif" font-size="10.00">tvm::relay::MultiBoxPrior</text>
<text text-anchor="middle" x="202" y="-45.5" font-family="Helvetica,sans-Serif" font-size="10.00">Attrs</text>
<polyline fill="none" stroke="black" points="132,-38.5 272,-38.5 "/>
<text text-anchor="start" x="140" y="-26.5" font-family="Helvetica,sans-Serif" font-size="10.00">+ clip</text>
<polyline fill="none" stroke="black" points="132,-19.5 272,-19.5 "/>
<text text-anchor="start" x="140" y="-7.5" font-family="Helvetica,sans-Serif" font-size="10.00">+ TVM_DECLARE_ATTRS()</text>
</g>
<!-- Node2 -->
<g id="node2" class="node"><title>Node2</title>
<g id="a_node2"><a xlink:href="classtvm_1_1AttrsNode.html" target="_top" xlink:title="{tvm::AttrsNode\&lt; MultiBox\lPriorAttrs \&gt;\n||+ VisitAttrs()\l+ VisitNonDefaultAttrs()\l+ InitByPackedArgs()\l+ SEqualReduce()\l+ SHashReduce()\l+ ListFieldInfo()\l}">
<polygon fill="white" stroke="black" points="31,-171.5 31,-294.5 173,-294.5 173,-171.5 31,-171.5"/>
<text text-anchor="start" x="39" y="-282.5" font-family="Helvetica,sans-Serif" font-size="10.00">tvm::AttrsNode&lt; MultiBox</text>
<text text-anchor="middle" x="102" y="-271.5" font-family="Helvetica,sans-Serif" font-size="10.00">PriorAttrs &gt;</text>
<polyline fill="none" stroke="black" points="31,-264.5 173,-264.5 "/>
<text text-anchor="middle" x="102" y="-252.5" font-family="Helvetica,sans-Serif" font-size="10.00"> </text>
<polyline fill="none" stroke="black" points="31,-245.5 173,-245.5 "/>
<text text-anchor="start" x="39" y="-233.5" font-family="Helvetica,sans-Serif" font-size="10.00">+ VisitAttrs()</text>
<text text-anchor="start" x="39" y="-222.5" font-family="Helvetica,sans-Serif" font-size="10.00">+ VisitNonDefaultAttrs()</text>
<text text-anchor="start" x="39" y="-211.5" font-family="Helvetica,sans-Serif" font-size="10.00">+ InitByPackedArgs()</text>
<text text-anchor="start" x="39" y="-200.5" font-family="Helvetica,sans-Serif" font-size="10.00">+ SEqualReduce()</text>
<text text-anchor="start" x="39" y="-189.5" font-family="Helvetica,sans-Serif" font-size="10.00">+ SHashReduce()</text>
<text text-anchor="start" x="39" y="-178.5" font-family="Helvetica,sans-Serif" font-size="10.00">+ ListFieldInfo()</text>
</a>
</g>
</g>
<!-- Node2&#45;&gt;Node1 -->
<g id="edge1" class="edge"><title>Node2&#45;&gt;Node1</title>
<path fill="none" stroke="midnightblue" d="M137.539,-162.166C153.719,-130.372 172.11,-94.2347 185.095,-68.7189"/>
<polygon fill="none" stroke="midnightblue" points="134.236,-160.94 132.819,-171.44 140.474,-164.115 134.236,-160.94"/>
</g>
<!-- Node3 -->
<g id="node3" class="node"><title>Node3</title>
<g id="a_node3"><a xlink:href="classtvm_1_1BaseAttrsNode.html" target="_top" xlink:title="Base class of all attribute class. ">
<polygon fill="white" stroke="black" points="0,-354.5 0,-532.5 204,-532.5 204,-354.5 0,-354.5"/>
<text text-anchor="middle" x="102" y="-520.5" font-family="Helvetica,sans-Serif" font-size="10.00">tvm::BaseAttrsNode</text>
<polyline fill="none" stroke="black" points="0,-513.5 204,-513.5 "/>
<text text-anchor="start" x="8" y="-501.5" font-family="Helvetica,sans-Serif" font-size="10.00">+ _type_has_method_sequal</text>
<text text-anchor="start" x="8" y="-490.5" font-family="Helvetica,sans-Serif" font-size="10.00">_reduce</text>
<text text-anchor="start" x="8" y="-479.5" font-family="Helvetica,sans-Serif" font-size="10.00">+ _type_has_method_shash</text>
<text text-anchor="start" x="8" y="-468.5" font-family="Helvetica,sans-Serif" font-size="10.00">_reduce</text>
<text text-anchor="start" x="8" y="-457.5" font-family="Helvetica,sans-Serif" font-size="10.00">+ _type_key</text>
<polyline fill="none" stroke="black" points="0,-450.5 204,-450.5 "/>
<text text-anchor="start" x="8" y="-438.5" font-family="Helvetica,sans-Serif" font-size="10.00">+ ~BaseAttrsNode()</text>
<text text-anchor="start" x="8" y="-427.5" font-family="Helvetica,sans-Serif" font-size="10.00">+ VisitAttrs()</text>
<text text-anchor="start" x="8" y="-416.5" font-family="Helvetica,sans-Serif" font-size="10.00">+ InitBySeq()</text>
<text text-anchor="start" x="8" y="-405.5" font-family="Helvetica,sans-Serif" font-size="10.00">+ PrintDocString()</text>
<text text-anchor="start" x="8" y="-394.5" font-family="Helvetica,sans-Serif" font-size="10.00">+ VisitNonDefaultAttrs()</text>
<text text-anchor="start" x="8" y="-383.5" font-family="Helvetica,sans-Serif" font-size="10.00">+ ListFieldInfo()</text>
<text text-anchor="start" x="8" y="-372.5" font-family="Helvetica,sans-Serif" font-size="10.00">+ InitByPackedArgs()</text>
<text text-anchor="start" x="8" y="-361.5" font-family="Helvetica,sans-Serif" font-size="10.00">+ TVM_DECLARE_BASE_OBJECT_INFO()</text>
</a>
</g>
</g>
<!-- Node3&#45;&gt;Node2 -->
<g id="edge2" class="edge"><title>Node3&#45;&gt;Node2</title>
<path fill="none" stroke="midnightblue" d="M102,-343.95C102,-327.133 102,-310.117 102,-294.661"/>
<polygon fill="none" stroke="midnightblue" points="98.5001,-344.379 102,-354.379 105.5,-344.379 98.5001,-344.379"/>
</g>
<!-- Node4 -->
<g id="node4" class="node"><title>Node4</title>
<polygon fill="white" stroke="#bfbfbf" points="78.5,-570.5 78.5,-627.5 125.5,-627.5 125.5,-570.5 78.5,-570.5"/>
<text text-anchor="middle" x="102" y="-615.5" font-family="Helvetica,sans-Serif" font-size="10.00">Object</text>
<polyline fill="none" stroke="#bfbfbf" points="78.5,-608.5 125.5,-608.5 "/>
<text text-anchor="middle" x="102" y="-596.5" font-family="Helvetica,sans-Serif" font-size="10.00"> </text>
<polyline fill="none" stroke="#bfbfbf" points="78.5,-589.5 125.5,-589.5 "/>
<text text-anchor="middle" x="102" y="-577.5" font-family="Helvetica,sans-Serif" font-size="10.00"> </text>
</g>
<!-- Node4&#45;&gt;Node3 -->
<g id="edge3" class="edge"><title>Node4&#45;&gt;Node3</title>
<path fill="none" stroke="midnightblue" d="M102,-559.957C102,-551.471 102,-542.13 102,-532.549"/>
<polygon fill="none" stroke="midnightblue" points="98.5001,-560.202 102,-570.202 105.5,-560.202 98.5001,-560.202"/>
</g>
<!-- Node5 -->
<g id="node5" class="node"><title>Node5</title>
<g id="a_node5"><a xlink:href="classtvm_1_1Array.html" target="_top" xlink:title="{tvm::Array\&lt; tvm::PrimExpr \&gt;\n||+ Array()\l+ Array()\l+ Array()\l+ Array()\l+ Array()\l+ Array()\l+ Array()\l+ Array()\l+ operator=()\l+ operator=()\land 13 more...\l}">
<polygon fill="white" stroke="black" points="191.5,-149.5 191.5,-316.5 348.5,-316.5 348.5,-149.5 191.5,-149.5"/>
<text text-anchor="middle" x="270" y="-304.5" font-family="Helvetica,sans-Serif" font-size="10.00">tvm::Array&lt; tvm::PrimExpr &gt;</text>
<polyline fill="none" stroke="black" points="191.5,-297.5 348.5,-297.5 "/>
<text text-anchor="middle" x="270" y="-285.5" font-family="Helvetica,sans-Serif" font-size="10.00"> </text>
<polyline fill="none" stroke="black" points="191.5,-278.5 348.5,-278.5 "/>
<text text-anchor="start" x="199.5" y="-266.5" font-family="Helvetica,sans-Serif" font-size="10.00">+ Array()</text>
<text text-anchor="start" x="199.5" y="-255.5" font-family="Helvetica,sans-Serif" font-size="10.00">+ Array()</text>
<text text-anchor="start" x="199.5" y="-244.5" font-family="Helvetica,sans-Serif" font-size="10.00">+ Array()</text>
<text text-anchor="start" x="199.5" y="-233.5" font-family="Helvetica,sans-Serif" font-size="10.00">+ Array()</text>
<text text-anchor="start" x="199.5" y="-222.5" font-family="Helvetica,sans-Serif" font-size="10.00">+ Array()</text>
<text text-anchor="start" x="199.5" y="-211.5" font-family="Helvetica,sans-Serif" font-size="10.00">+ Array()</text>
<text text-anchor="start" x="199.5" y="-200.5" font-family="Helvetica,sans-Serif" font-size="10.00">+ Array()</text>
<text text-anchor="start" x="199.5" y="-189.5" font-family="Helvetica,sans-Serif" font-size="10.00">+ Array()</text>
<text text-anchor="start" x="199.5" y="-178.5" font-family="Helvetica,sans-Serif" font-size="10.00">+ operator=()</text>
<text text-anchor="start" x="199.5" y="-167.5" font-family="Helvetica,sans-Serif" font-size="10.00">+ operator=()</text>
<text text-anchor="start" x="199.5" y="-156.5" font-family="Helvetica,sans-Serif" font-size="10.00">and 13 more...</text>
</a>
</g>
</g>
<!-- Node5&#45;&gt;Node1 -->
<g id="edge4" class="edge"><title>Node5&#45;&gt;Node1</title>
<path fill="none" stroke="#404040" d="M241.359,-149.236C233.167,-125.563 224.549,-100.659 217.472,-80.2099"/>
<polygon fill="none" stroke="#404040" points="217.423,-80.0678 211.681,-75.7058 213.499,-68.7276 219.241,-73.0895 217.423,-80.0678"/>
<text text-anchor="middle" x="254.5" y="-123" font-family="Helvetica,sans-Serif" font-size="10.00"> +sizes</text>
<text text-anchor="middle" x="254.5" y="-112" font-family="Helvetica,sans-Serif" font-size="10.00">+offsets</text>
<text text-anchor="middle" x="254.5" y="-101" font-family="Helvetica,sans-Serif" font-size="10.00">+ratios</text>
<text text-anchor="middle" x="254.5" y="-90" font-family="Helvetica,sans-Serif" font-size="10.00">+steps</text>
</g>
<!-- Node6 -->
<g id="node6" class="node"><title>Node6</title>
<polygon fill="white" stroke="#bfbfbf" points="239,-415 239,-472 301,-472 301,-415 239,-415"/>
<text text-anchor="middle" x="270" y="-460" font-family="Helvetica,sans-Serif" font-size="10.00">ObjectRef</text>
<polyline fill="none" stroke="#bfbfbf" points="239,-453 301,-453 "/>
<text text-anchor="middle" x="270" y="-441" font-family="Helvetica,sans-Serif" font-size="10.00"> </text>
<polyline fill="none" stroke="#bfbfbf" points="239,-434 301,-434 "/>
<text text-anchor="middle" x="270" y="-422" font-family="Helvetica,sans-Serif" font-size="10.00"> </text>
</g>
<!-- Node6&#45;&gt;Node5 -->
<g id="edge5" class="edge"><title>Node6&#45;&gt;Node5</title>
<path fill="none" stroke="midnightblue" d="M270,-404.512C270,-379.995 270,-347.126 270,-316.791"/>
<polygon fill="none" stroke="midnightblue" points="266.5,-404.813 270,-414.813 273.5,-404.813 266.5,-404.813"/>
</g>
</g>
</svg>
