<?xml version="1.0" encoding="UTF-8" standalone="no"?>
<!DOCTYPE svg PUBLIC "-//W3C//DTD SVG 1.1//EN"
 "http://www.w3.org/Graphics/SVG/1.1/DTD/svg11.dtd">
<!-- Generated by graphviz version 2.38.0 (20140413.2041)
 -->
<!-- Title: tvm::relay::Conv2DAttrs Pages: 1 -->
<svg width="614pt" height="858pt"
 viewBox="0.00 0.00 613.50 858.00" xmlns="http://www.w3.org/2000/svg" xmlns:xlink="http://www.w3.org/1999/xlink">
<g id="graph0" class="graph" transform="scale(1 1) rotate(0) translate(4 854)">
<title>tvm::relay::Conv2DAttrs</title>
<polygon fill="white" stroke="none" points="-4,4 -4,-854 609.5,-854 609.5,4 -4,4"/>
<!-- Node1 -->
<g id="node1" class="node"><title>Node1</title>
<polygon fill="#bfbfbf" stroke="black" points="202,-0.5 202,-90.5 342,-90.5 342,-0.5 202,-0.5"/>
<text text-anchor="middle" x="272" y="-78.5" font-family="Helvetica,sans-Serif" font-size="10.00">tvm::relay::Conv2DAttrs</text>
<polyline fill="none" stroke="black" points="202,-71.5 342,-71.5 "/>
<text text-anchor="start" x="210" y="-59.5" font-family="Helvetica,sans-Serif" font-size="10.00">+ groups</text>
<text text-anchor="start" x="210" y="-48.5" font-family="Helvetica,sans-Serif" font-size="10.00">+ data_layout</text>
<text text-anchor="start" x="210" y="-37.5" font-family="Helvetica,sans-Serif" font-size="10.00">+ kernel_layout</text>
<text text-anchor="start" x="210" y="-26.5" font-family="Helvetica,sans-Serif" font-size="10.00">+ out_layout</text>
<polyline fill="none" stroke="black" points="202,-19.5 342,-19.5 "/>
<text text-anchor="start" x="210" y="-7.5" font-family="Helvetica,sans-Serif" font-size="10.00">+ TVM_DECLARE_ATTRS()</text>
</g>
<!-- Node2 -->
<g id="node2" class="node"><title>Node2</title>
<g id="a_node2"><a xlink:href="classtvm_1_1AttrsNode.html" target="_top" xlink:title="{tvm::AttrsNode\&lt; Conv2DAttrs \&gt;\n||+ VisitAttrs()\l+ VisitNonDefaultAttrs()\l+ InitByPackedArgs()\l+ SEqualReduce()\l+ SHashReduce()\l+ ListFieldInfo()\l}">
<polygon fill="white" stroke="black" points="15.5,-199 15.5,-311 188.5,-311 188.5,-199 15.5,-199"/>
<text text-anchor="middle" x="102" y="-299" font-family="Helvetica,sans-Serif" font-size="10.00">tvm::AttrsNode&lt; Conv2DAttrs &gt;</text>
<polyline fill="none" stroke="black" points="15.5,-292 188.5,-292 "/>
<text text-anchor="middle" x="102" y="-280" font-family="Helvetica,sans-Serif" font-size="10.00"> </text>
<polyline fill="none" stroke="black" points="15.5,-273 188.5,-273 "/>
<text text-anchor="start" x="23.5" y="-261" font-family="Helvetica,sans-Serif" font-size="10.00">+ VisitAttrs()</text>
<text text-anchor="start" x="23.5" y="-250" font-family="Helvetica,sans-Serif" font-size="10.00">+ VisitNonDefaultAttrs()</text>
<text text-anchor="start" x="23.5" y="-239" font-family="Helvetica,sans-Serif" font-size="10.00">+ InitByPackedArgs()</text>
<text text-anchor="start" x="23.5" y="-228" font-family="Helvetica,sans-Serif" font-size="10.00">+ SEqualReduce()</text>
<text text-anchor="start" x="23.5" y="-217" font-family="Helvetica,sans-Serif" font-size="10.00">+ SHashReduce()</text>
<text text-anchor="start" x="23.5" y="-206" font-family="Helvetica,sans-Serif" font-size="10.00">+ ListFieldInfo()</text>
</a>
</g>
</g>
<!-- Node2&#45;&gt;Node1 -->
<g id="edge1" class="edge"><title>Node2&#45;&gt;Node1</title>
<path fill="none" stroke="midnightblue" d="M146.819,-190.735C165.879,-164.814 188.799,-134.885 211,-109 216.232,-102.9 221.912,-96.6473 227.63,-90.566"/>
<polygon fill="none" stroke="midnightblue" points="143.852,-188.863 140.772,-199 149.501,-192.996 143.852,-188.863"/>
</g>
<!-- Node3 -->
<g id="node3" class="node"><title>Node3</title>
<g id="a_node3"><a xlink:href="classtvm_1_1BaseAttrsNode.html" target="_top" xlink:title="Base class of all attribute class. ">
<polygon fill="white" stroke="black" points="0,-576.5 0,-754.5 204,-754.5 204,-576.5 0,-576.5"/>
<text text-anchor="middle" x="102" y="-742.5" font-family="Helvetica,sans-Serif" font-size="10.00">tvm::BaseAttrsNode</text>
<polyline fill="none" stroke="black" points="0,-735.5 204,-735.5 "/>
<text text-anchor="start" x="8" y="-723.5" font-family="Helvetica,sans-Serif" font-size="10.00">+ _type_has_method_sequal</text>
<text text-anchor="start" x="8" y="-712.5" font-family="Helvetica,sans-Serif" font-size="10.00">_reduce</text>
<text text-anchor="start" x="8" y="-701.5" font-family="Helvetica,sans-Serif" font-size="10.00">+ _type_has_method_shash</text>
<text text-anchor="start" x="8" y="-690.5" font-family="Helvetica,sans-Serif" font-size="10.00">_reduce</text>
<text text-anchor="start" x="8" y="-679.5" font-family="Helvetica,sans-Serif" font-size="10.00">+ _type_key</text>
<polyline fill="none" stroke="black" points="0,-672.5 204,-672.5 "/>
<text text-anchor="start" x="8" y="-660.5" font-family="Helvetica,sans-Serif" font-size="10.00">+ ~BaseAttrsNode()</text>
<text text-anchor="start" x="8" y="-649.5" font-family="Helvetica,sans-Serif" font-size="10.00">+ VisitAttrs()</text>
<text text-anchor="start" x="8" y="-638.5" font-family="Helvetica,sans-Serif" font-size="10.00">+ InitBySeq()</text>
<text text-anchor="start" x="8" y="-627.5" font-family="Helvetica,sans-Serif" font-size="10.00">+ PrintDocString()</text>
<text text-anchor="start" x="8" y="-616.5" font-family="Helvetica,sans-Serif" font-size="10.00">+ VisitNonDefaultAttrs()</text>
<text text-anchor="start" x="8" y="-605.5" font-family="Helvetica,sans-Serif" font-size="10.00">+ ListFieldInfo()</text>
<text text-anchor="start" x="8" y="-594.5" font-family="Helvetica,sans-Serif" font-size="10.00">+ InitByPackedArgs()</text>
<text text-anchor="start" x="8" y="-583.5" font-family="Helvetica,sans-Serif" font-size="10.00">+ TVM_DECLARE_BASE_OBJECT_INFO()</text>
</a>
</g>
</g>
<!-- Node3&#45;&gt;Node2 -->
<g id="edge2" class="edge"><title>Node3&#45;&gt;Node2</title>
<path fill="none" stroke="midnightblue" d="M102,-566.275C102,-486.31 102,-376.346 102,-311.078"/>
<polygon fill="none" stroke="midnightblue" points="98.5001,-566.364 102,-576.365 105.5,-566.365 98.5001,-566.364"/>
</g>
<!-- Node4 -->
<g id="node4" class="node"><title>Node4</title>
<polygon fill="white" stroke="#bfbfbf" points="78.5,-792.5 78.5,-849.5 125.5,-849.5 125.5,-792.5 78.5,-792.5"/>
<text text-anchor="middle" x="102" y="-837.5" font-family="Helvetica,sans-Serif" font-size="10.00">Object</text>
<polyline fill="none" stroke="#bfbfbf" points="78.5,-830.5 125.5,-830.5 "/>
<text text-anchor="middle" x="102" y="-818.5" font-family="Helvetica,sans-Serif" font-size="10.00"> </text>
<polyline fill="none" stroke="#bfbfbf" points="78.5,-811.5 125.5,-811.5 "/>
<text text-anchor="middle" x="102" y="-799.5" font-family="Helvetica,sans-Serif" font-size="10.00"> </text>
</g>
<!-- Node4&#45;&gt;Node3 -->
<g id="edge3" class="edge"><title>Node4&#45;&gt;Node3</title>
<path fill="none" stroke="midnightblue" d="M102,-781.957C102,-773.471 102,-764.13 102,-754.549"/>
<polygon fill="none" stroke="midnightblue" points="98.5001,-782.202 102,-792.202 105.5,-782.202 98.5001,-782.202"/>
</g>
<!-- Node5 -->
<g id="node5" class="node"><title>Node5</title>
<g id="a_node5"><a xlink:href="classtvm_1_1Array.html" target="_top" xlink:title="{tvm::Array\&lt; tvm::PrimExpr \&gt;\n||+ Array()\l+ Array()\l+ Array()\l+ Array()\l+ Array()\l+ Array()\l+ Array()\l+ Array()\l+ operator=()\l+ operator=()\land 13 more...\l}">
<polygon fill="white" stroke="black" points="149.5,-390.5 149.5,-557.5 306.5,-557.5 306.5,-390.5 149.5,-390.5"/>
<text text-anchor="middle" x="228" y="-545.5" font-family="Helvetica,sans-Serif" font-size="10.00">tvm::Array&lt; tvm::PrimExpr &gt;</text>
<polyline fill="none" stroke="black" points="149.5,-538.5 306.5,-538.5 "/>
<text text-anchor="middle" x="228" y="-526.5" font-family="Helvetica,sans-Serif" font-size="10.00"> </text>
<polyline fill="none" stroke="black" points="149.5,-519.5 306.5,-519.5 "/>
<text text-anchor="start" x="157.5" y="-507.5" font-family="Helvetica,sans-Serif" font-size="10.00">+ Array()</text>
<text text-anchor="start" x="157.5" y="-496.5" font-family="Helvetica,sans-Serif" font-size="10.00">+ Array()</text>
<text text-anchor="start" x="157.5" y="-485.5" font-family="Helvetica,sans-Serif" font-size="10.00">+ Array()</text>
<text text-anchor="start" x="157.5" y="-474.5" font-family="Helvetica,sans-Serif" font-size="10.00">+ Array()</text>
<text text-anchor="start" x="157.5" y="-463.5" font-family="Helvetica,sans-Serif" font-size="10.00">+ Array()</text>
<text text-anchor="start" x="157.5" y="-452.5" font-family="Helvetica,sans-Serif" font-size="10.00">+ Array()</text>
<text text-anchor="start" x="157.5" y="-441.5" font-family="Helvetica,sans-Serif" font-size="10.00">+ Array()</text>
<text text-anchor="start" x="157.5" y="-430.5" font-family="Helvetica,sans-Serif" font-size="10.00">+ Array()</text>
<text text-anchor="start" x="157.5" y="-419.5" font-family="Helvetica,sans-Serif" font-size="10.00">+ operator=()</text>
<text text-anchor="start" x="157.5" y="-408.5" font-family="Helvetica,sans-Serif" font-size="10.00">+ operator=()</text>
<text text-anchor="start" x="157.5" y="-397.5" font-family="Helvetica,sans-Serif" font-size="10.00">and 13 more...</text>
</a>
</g>
</g>
<!-- Node5&#45;&gt;Node1 -->
<g id="edge4" class="edge"><title>Node5&#45;&gt;Node1</title>
<path fill="none" stroke="#404040" d="M220.968,-390.472C217.161,-322.075 216.321,-222.701 234,-138 236.504,-126.003 240.558,-113.596 245.105,-101.937"/>
<polygon fill="none" stroke="#404040" points="245.215,-101.669 243.796,-94.5988 249.777,-90.5699 251.195,-97.6401 245.215,-101.669"/>
<text text-anchor="middle" x="266.5" y="-269" font-family="Helvetica,sans-Serif" font-size="10.00"> +kernel_size</text>
<text text-anchor="middle" x="266.5" y="-258" font-family="Helvetica,sans-Serif" font-size="10.00">+strides</text>
<text text-anchor="middle" x="266.5" y="-247" font-family="Helvetica,sans-Serif" font-size="10.00">+dilation</text>
<text text-anchor="middle" x="266.5" y="-236" font-family="Helvetica,sans-Serif" font-size="10.00">+padding</text>
</g>
<!-- Node6 -->
<g id="node6" class="node"><title>Node6</title>
<polygon fill="white" stroke="#bfbfbf" points="246,-792.5 246,-849.5 308,-849.5 308,-792.5 246,-792.5"/>
<text text-anchor="middle" x="277" y="-837.5" font-family="Helvetica,sans-Serif" font-size="10.00">ObjectRef</text>
<polyline fill="none" stroke="#bfbfbf" points="246,-830.5 308,-830.5 "/>
<text text-anchor="middle" x="277" y="-818.5" font-family="Helvetica,sans-Serif" font-size="10.00"> </text>
<polyline fill="none" stroke="#bfbfbf" points="246,-811.5 308,-811.5 "/>
<text text-anchor="middle" x="277" y="-799.5" font-family="Helvetica,sans-Serif" font-size="10.00"> </text>
</g>
<!-- Node6&#45;&gt;Node5 -->
<g id="edge5" class="edge"><title>Node6&#45;&gt;Node5</title>
<path fill="none" stroke="midnightblue" d="M271.64,-782.264C264.027,-728.658 249.881,-629.062 239.758,-557.784"/>
<polygon fill="none" stroke="midnightblue" points="268.201,-782.942 273.073,-792.35 275.132,-781.958 268.201,-782.942"/>
</g>
<!-- Node8 -->
<g id="node8" class="node"><title>Node8</title>
<g id="a_node8"><a xlink:href="classtvm_1_1BaseExpr.html" target="_top" xlink:title="Managed reference to BaseExprNode. ">
<polygon fill="white" stroke="black" points="278,-631.5 278,-699.5 428,-699.5 428,-631.5 278,-631.5"/>
<text text-anchor="middle" x="353" y="-687.5" font-family="Helvetica,sans-Serif" font-size="10.00">tvm::BaseExpr</text>
<polyline fill="none" stroke="black" points="278,-680.5 428,-680.5 "/>
<text text-anchor="middle" x="353" y="-668.5" font-family="Helvetica,sans-Serif" font-size="10.00"> </text>
<polyline fill="none" stroke="black" points="278,-661.5 428,-661.5 "/>
<text text-anchor="start" x="286" y="-649.5" font-family="Helvetica,sans-Serif" font-size="10.00">+ TVM_DEFINE_OBJECT_REF</text>
<text text-anchor="start" x="286" y="-638.5" font-family="Helvetica,sans-Serif" font-size="10.00">_METHODS()</text>
</a>
</g>
</g>
<!-- Node6&#45;&gt;Node8 -->
<g id="edge8" class="edge"><title>Node6&#45;&gt;Node8</title>
<path fill="none" stroke="midnightblue" d="M295.201,-783.239C307.782,-757.828 324.381,-724.302 336.562,-699.7"/>
<polygon fill="none" stroke="midnightblue" points="292.064,-781.688 290.763,-792.202 298.337,-784.794 292.064,-781.688"/>
</g>
<!-- Node7 -->
<g id="node7" class="node"><title>Node7</title>
<g id="a_node7"><a xlink:href="classtvm_1_1PrimExpr.html" target="_top" xlink:title="Reference to PrimExprNode. ">
<polygon fill="white" stroke="black" points="308,-199 308,-311 458,-311 458,-199 308,-199"/>
<text text-anchor="middle" x="383" y="-299" font-family="Helvetica,sans-Serif" font-size="10.00">tvm::PrimExpr</text>
<polyline fill="none" stroke="black" points="308,-292 458,-292 "/>
<text text-anchor="middle" x="383" y="-280" font-family="Helvetica,sans-Serif" font-size="10.00"> </text>
<polyline fill="none" stroke="black" points="308,-273 458,-273 "/>
<text text-anchor="start" x="316" y="-261" font-family="Helvetica,sans-Serif" font-size="10.00">+ PrimExpr()</text>
<text text-anchor="start" x="316" y="-250" font-family="Helvetica,sans-Serif" font-size="10.00">+ PrimExpr()</text>
<text text-anchor="start" x="316" y="-239" font-family="Helvetica,sans-Serif" font-size="10.00">+ PrimExpr()</text>
<text text-anchor="start" x="316" y="-228" font-family="Helvetica,sans-Serif" font-size="10.00">+ dtype()</text>
<text text-anchor="start" x="316" y="-217" font-family="Helvetica,sans-Serif" font-size="10.00">+ TVM_DEFINE_OBJECT_REF</text>
<text text-anchor="start" x="316" y="-206" font-family="Helvetica,sans-Serif" font-size="10.00">_METHODS()</text>
</a>
</g>
</g>
<!-- Node7&#45;&gt;Node1 -->
<g id="edge6" class="edge"><title>Node7&#45;&gt;Node1</title>
<path fill="none" stroke="#404040" d="M353.545,-198.939C337.414,-168.784 317.487,-131.532 301.369,-101.402"/>
<polygon fill="none" stroke="#404040" points="301.278,-101.231 294.921,-97.8276 295.618,-90.6502 301.975,-94.054 301.278,-101.231"/>
<text text-anchor="middle" x="339.5" y="-112" font-family="Helvetica,sans-Serif" font-size="10.00"> +channels</text>
</g>
<!-- Node8&#45;&gt;Node7 -->
<g id="edge7" class="edge"><title>Node8&#45;&gt;Node7</title>
<path fill="none" stroke="midnightblue" d="M356.164,-621.418C361.648,-546.746 372.91,-393.398 378.954,-311.095"/>
<polygon fill="none" stroke="midnightblue" points="352.672,-621.187 355.43,-631.417 359.653,-621.7 352.672,-621.187"/>
</g>
<!-- Node9 -->
<g id="node9" class="node"><title>Node9</title>
<g id="a_node9"><a xlink:href="classtvm_1_1runtime_1_1DataType.html" target="_top" xlink:title="Runtime primitive data type. ">
<polygon fill="white" stroke="black" points="476.5,-138.5 476.5,-371.5 605.5,-371.5 605.5,-138.5 476.5,-138.5"/>
<text text-anchor="middle" x="541" y="-359.5" font-family="Helvetica,sans-Serif" font-size="10.00">tvm::runtime::DataType</text>
<polyline fill="none" stroke="black" points="476.5,-352.5 605.5,-352.5 "/>
<text text-anchor="middle" x="541" y="-340.5" font-family="Helvetica,sans-Serif" font-size="10.00"> </text>
<polyline fill="none" stroke="black" points="476.5,-333.5 605.5,-333.5 "/>
<text text-anchor="start" x="484.5" y="-321.5" font-family="Helvetica,sans-Serif" font-size="10.00">+ DataType()</text>
<text text-anchor="start" x="484.5" y="-310.5" font-family="Helvetica,sans-Serif" font-size="10.00">+ DataType()</text>
<text text-anchor="start" x="484.5" y="-299.5" font-family="Helvetica,sans-Serif" font-size="10.00">+ DataType()</text>
<text text-anchor="start" x="484.5" y="-288.5" font-family="Helvetica,sans-Serif" font-size="10.00">+ code()</text>
<text text-anchor="start" x="484.5" y="-277.5" font-family="Helvetica,sans-Serif" font-size="10.00">+ bits()</text>
<text text-anchor="start" x="484.5" y="-266.5" font-family="Helvetica,sans-Serif" font-size="10.00">+ bytes()</text>
<text text-anchor="start" x="484.5" y="-255.5" font-family="Helvetica,sans-Serif" font-size="10.00">+ lanes()</text>
<text text-anchor="start" x="484.5" y="-244.5" font-family="Helvetica,sans-Serif" font-size="10.00">+ is_scalar()</text>
<text text-anchor="start" x="484.5" y="-233.5" font-family="Helvetica,sans-Serif" font-size="10.00">+ is_bool()</text>
<text text-anchor="start" x="484.5" y="-222.5" font-family="Helvetica,sans-Serif" font-size="10.00">+ is_float()</text>
<text text-anchor="start" x="484.5" y="-211.5" font-family="Helvetica,sans-Serif" font-size="10.00">and 12 more...</text>
<text text-anchor="start" x="484.5" y="-200.5" font-family="Helvetica,sans-Serif" font-size="10.00">+ Int()</text>
<text text-anchor="start" x="484.5" y="-189.5" font-family="Helvetica,sans-Serif" font-size="10.00">+ UInt()</text>
<text text-anchor="start" x="484.5" y="-178.5" font-family="Helvetica,sans-Serif" font-size="10.00">+ Float()</text>
<text text-anchor="start" x="484.5" y="-167.5" font-family="Helvetica,sans-Serif" font-size="10.00">+ Bool()</text>
<text text-anchor="start" x="484.5" y="-156.5" font-family="Helvetica,sans-Serif" font-size="10.00">+ Handle()</text>
<text text-anchor="start" x="484.5" y="-145.5" font-family="Helvetica,sans-Serif" font-size="10.00">+ ShapeIndex()</text>
</a>
</g>
</g>
<!-- Node9&#45;&gt;Node1 -->
<g id="edge9" class="edge"><title>Node9&#45;&gt;Node1</title>
<path fill="none" stroke="#404040" d="M476.422,-146.998C473.372,-143.85 470.23,-140.838 467,-138 434.284,-109.257 390.981,-87.7302 353.494,-72.802"/>
<polygon fill="none" stroke="#404040" points="353.256,-72.7101 346.217,-74.2757 342.065,-68.3802 349.104,-66.8146 353.256,-72.7101"/>
<text text-anchor="middle" x="470" y="-112" font-family="Helvetica,sans-Serif" font-size="10.00"> +out_dtype</text>
</g>
</g>
</svg>
