<?xml version="1.0" encoding="UTF-8" standalone="no"?>
<!DOCTYPE svg PUBLIC "-//W3C//DTD SVG 1.1//EN"
 "http://www.w3.org/Graphics/SVG/1.1/DTD/svg11.dtd">
<!-- Generated by graphviz version 2.38.0 (20140413.2041)
 -->
<!-- Title: tvm::relay::DeformableConv2DAttrs Pages: 1 -->
<svg width="606pt" height="880pt"
 viewBox="0.00 0.00 605.50 880.00" xmlns="http://www.w3.org/2000/svg" xmlns:xlink="http://www.w3.org/1999/xlink">
<g id="graph0" class="graph" transform="scale(1 1) rotate(0) translate(4 876)">
<title>tvm::relay::DeformableConv2DAttrs</title>
<polygon fill="white" stroke="none" points="-4,4 -4,-876 601.5,-876 601.5,4 -4,4"/>
<!-- Node1 -->
<g id="node1" class="node"><title>Node1</title>
<polygon fill="#bfbfbf" stroke="black" points="186,-0.5 186,-112.5 342,-112.5 342,-0.5 186,-0.5"/>
<text text-anchor="start" x="194" y="-100.5" font-family="Helvetica,sans-Serif" font-size="10.00">tvm::relay::DeformableConv2</text>
<text text-anchor="middle" x="264" y="-89.5" font-family="Helvetica,sans-Serif" font-size="10.00">DAttrs</text>
<polyline fill="none" stroke="black" points="186,-82.5 342,-82.5 "/>
<text text-anchor="start" x="194" y="-70.5" font-family="Helvetica,sans-Serif" font-size="10.00">+ deformable_groups</text>
<text text-anchor="start" x="194" y="-59.5" font-family="Helvetica,sans-Serif" font-size="10.00">+ groups</text>
<text text-anchor="start" x="194" y="-48.5" font-family="Helvetica,sans-Serif" font-size="10.00">+ data_layout</text>
<text text-anchor="start" x="194" y="-37.5" font-family="Helvetica,sans-Serif" font-size="10.00">+ kernel_layout</text>
<text text-anchor="start" x="194" y="-26.5" font-family="Helvetica,sans-Serif" font-size="10.00">+ out_layout</text>
<polyline fill="none" stroke="black" points="186,-19.5 342,-19.5 "/>
<text text-anchor="start" x="194" y="-7.5" font-family="Helvetica,sans-Serif" font-size="10.00">+ TVM_DECLARE_ATTRS()</text>
</g>
<!-- Node2 -->
<g id="node2" class="node"><title>Node2</title>
<g id="a_node2"><a xlink:href="classtvm_1_1AttrsNode.html" target="_top" xlink:title="{tvm::AttrsNode\&lt; Deformable\lConv2DAttrs \&gt;\n||+ VisitAttrs()\l+ VisitNonDefaultAttrs()\l+ InitByPackedArgs()\l+ SEqualReduce()\l+ SHashReduce()\l+ ListFieldInfo()\l}">
<polygon fill="white" stroke="black" points="23,-215.5 23,-338.5 181,-338.5 181,-215.5 23,-215.5"/>
<text text-anchor="start" x="31" y="-326.5" font-family="Helvetica,sans-Serif" font-size="10.00">tvm::AttrsNode&lt; Deformable</text>
<text text-anchor="middle" x="102" y="-315.5" font-family="Helvetica,sans-Serif" font-size="10.00">Conv2DAttrs &gt;</text>
<polyline fill="none" stroke="black" points="23,-308.5 181,-308.5 "/>
<text text-anchor="middle" x="102" y="-296.5" font-family="Helvetica,sans-Serif" font-size="10.00"> </text>
<polyline fill="none" stroke="black" points="23,-289.5 181,-289.5 "/>
<text text-anchor="start" x="31" y="-277.5" font-family="Helvetica,sans-Serif" font-size="10.00">+ VisitAttrs()</text>
<text text-anchor="start" x="31" y="-266.5" font-family="Helvetica,sans-Serif" font-size="10.00">+ VisitNonDefaultAttrs()</text>
<text text-anchor="start" x="31" y="-255.5" font-family="Helvetica,sans-Serif" font-size="10.00">+ InitByPackedArgs()</text>
<text text-anchor="start" x="31" y="-244.5" font-family="Helvetica,sans-Serif" font-size="10.00">+ SEqualReduce()</text>
<text text-anchor="start" x="31" y="-233.5" font-family="Helvetica,sans-Serif" font-size="10.00">+ SHashReduce()</text>
<text text-anchor="start" x="31" y="-222.5" font-family="Helvetica,sans-Serif" font-size="10.00">+ ListFieldInfo()</text>
</a>
</g>
</g>
<!-- Node2&#45;&gt;Node1 -->
<g id="edge1" class="edge"><title>Node2&#45;&gt;Node1</title>
<path fill="none" stroke="midnightblue" d="M148.465,-206.768C165.219,-182.489 184.551,-155.24 203,-131 207.519,-125.062 212.335,-118.941 217.202,-112.884"/>
<polygon fill="none" stroke="midnightblue" points="145.434,-204.998 142.652,-215.222 151.202,-208.965 145.434,-204.998"/>
</g>
<!-- Node3 -->
<g id="node3" class="node"><title>Node3</title>
<g id="a_node3"><a xlink:href="classtvm_1_1BaseAttrsNode.html" target="_top" xlink:title="Base class of all attribute class. ">
<polygon fill="white" stroke="black" points="0,-598.5 0,-776.5 204,-776.5 204,-598.5 0,-598.5"/>
<text text-anchor="middle" x="102" y="-764.5" font-family="Helvetica,sans-Serif" font-size="10.00">tvm::BaseAttrsNode</text>
<polyline fill="none" stroke="black" points="0,-757.5 204,-757.5 "/>
<text text-anchor="start" x="8" y="-745.5" font-family="Helvetica,sans-Serif" font-size="10.00">+ _type_has_method_sequal</text>
<text text-anchor="start" x="8" y="-734.5" font-family="Helvetica,sans-Serif" font-size="10.00">_reduce</text>
<text text-anchor="start" x="8" y="-723.5" font-family="Helvetica,sans-Serif" font-size="10.00">+ _type_has_method_shash</text>
<text text-anchor="start" x="8" y="-712.5" font-family="Helvetica,sans-Serif" font-size="10.00">_reduce</text>
<text text-anchor="start" x="8" y="-701.5" font-family="Helvetica,sans-Serif" font-size="10.00">+ _type_key</text>
<polyline fill="none" stroke="black" points="0,-694.5 204,-694.5 "/>
<text text-anchor="start" x="8" y="-682.5" font-family="Helvetica,sans-Serif" font-size="10.00">+ ~BaseAttrsNode()</text>
<text text-anchor="start" x="8" y="-671.5" font-family="Helvetica,sans-Serif" font-size="10.00">+ VisitAttrs()</text>
<text text-anchor="start" x="8" y="-660.5" font-family="Helvetica,sans-Serif" font-size="10.00">+ InitBySeq()</text>
<text text-anchor="start" x="8" y="-649.5" font-family="Helvetica,sans-Serif" font-size="10.00">+ PrintDocString()</text>
<text text-anchor="start" x="8" y="-638.5" font-family="Helvetica,sans-Serif" font-size="10.00">+ VisitNonDefaultAttrs()</text>
<text text-anchor="start" x="8" y="-627.5" font-family="Helvetica,sans-Serif" font-size="10.00">+ ListFieldInfo()</text>
<text text-anchor="start" x="8" y="-616.5" font-family="Helvetica,sans-Serif" font-size="10.00">+ InitByPackedArgs()</text>
<text text-anchor="start" x="8" y="-605.5" font-family="Helvetica,sans-Serif" font-size="10.00">+ TVM_DECLARE_BASE_OBJECT_INFO()</text>
</a>
</g>
</g>
<!-- Node3&#45;&gt;Node2 -->
<g id="edge2" class="edge"><title>Node3&#45;&gt;Node2</title>
<path fill="none" stroke="midnightblue" d="M102,-588.068C102,-510.306 102,-404.274 102,-338.526"/>
<polygon fill="none" stroke="midnightblue" points="98.5001,-588.364 102,-598.365 105.5,-588.365 98.5001,-588.364"/>
</g>
<!-- Node4 -->
<g id="node4" class="node"><title>Node4</title>
<polygon fill="white" stroke="#bfbfbf" points="78.5,-814.5 78.5,-871.5 125.5,-871.5 125.5,-814.5 78.5,-814.5"/>
<text text-anchor="middle" x="102" y="-859.5" font-family="Helvetica,sans-Serif" font-size="10.00">Object</text>
<polyline fill="none" stroke="#bfbfbf" points="78.5,-852.5 125.5,-852.5 "/>
<text text-anchor="middle" x="102" y="-840.5" font-family="Helvetica,sans-Serif" font-size="10.00"> </text>
<polyline fill="none" stroke="#bfbfbf" points="78.5,-833.5 125.5,-833.5 "/>
<text text-anchor="middle" x="102" y="-821.5" font-family="Helvetica,sans-Serif" font-size="10.00"> </text>
</g>
<!-- Node4&#45;&gt;Node3 -->
<g id="edge3" class="edge"><title>Node4&#45;&gt;Node3</title>
<path fill="none" stroke="midnightblue" d="M102,-803.957C102,-795.471 102,-786.13 102,-776.549"/>
<polygon fill="none" stroke="midnightblue" points="98.5001,-804.202 102,-814.202 105.5,-804.202 98.5001,-804.202"/>
</g>
<!-- Node5 -->
<g id="node5" class="node"><title>Node5</title>
<g id="a_node5"><a xlink:href="classtvm_1_1Array.html" target="_top" xlink:title="{tvm::Array\&lt; tvm::PrimExpr \&gt;\n||+ Array()\l+ Array()\l+ Array()\l+ Array()\l+ Array()\l+ Array()\l+ Array()\l+ Array()\l+ operator=()\l+ operator=()\land 13 more...\l}">
<polygon fill="white" stroke="black" points="145.5,-412.5 145.5,-579.5 302.5,-579.5 302.5,-412.5 145.5,-412.5"/>
<text text-anchor="middle" x="224" y="-567.5" font-family="Helvetica,sans-Serif" font-size="10.00">tvm::Array&lt; tvm::PrimExpr &gt;</text>
<polyline fill="none" stroke="black" points="145.5,-560.5 302.5,-560.5 "/>
<text text-anchor="middle" x="224" y="-548.5" font-family="Helvetica,sans-Serif" font-size="10.00"> </text>
<polyline fill="none" stroke="black" points="145.5,-541.5 302.5,-541.5 "/>
<text text-anchor="start" x="153.5" y="-529.5" font-family="Helvetica,sans-Serif" font-size="10.00">+ Array()</text>
<text text-anchor="start" x="153.5" y="-518.5" font-family="Helvetica,sans-Serif" font-size="10.00">+ Array()</text>
<text text-anchor="start" x="153.5" y="-507.5" font-family="Helvetica,sans-Serif" font-size="10.00">+ Array()</text>
<text text-anchor="start" x="153.5" y="-496.5" font-family="Helvetica,sans-Serif" font-size="10.00">+ Array()</text>
<text text-anchor="start" x="153.5" y="-485.5" font-family="Helvetica,sans-Serif" font-size="10.00">+ Array()</text>
<text text-anchor="start" x="153.5" y="-474.5" font-family="Helvetica,sans-Serif" font-size="10.00">+ Array()</text>
<text text-anchor="start" x="153.5" y="-463.5" font-family="Helvetica,sans-Serif" font-size="10.00">+ Array()</text>
<text text-anchor="start" x="153.5" y="-452.5" font-family="Helvetica,sans-Serif" font-size="10.00">+ Array()</text>
<text text-anchor="start" x="153.5" y="-441.5" font-family="Helvetica,sans-Serif" font-size="10.00">+ operator=()</text>
<text text-anchor="start" x="153.5" y="-430.5" font-family="Helvetica,sans-Serif" font-size="10.00">+ operator=()</text>
<text text-anchor="start" x="153.5" y="-419.5" font-family="Helvetica,sans-Serif" font-size="10.00">and 13 more...</text>
</a>
</g>
</g>
<!-- Node5&#45;&gt;Node1 -->
<g id="edge4" class="edge"><title>Node5&#45;&gt;Node1</title>
<path fill="none" stroke="#404040" d="M216.56,-412.342C212.305,-344.082 210.495,-244.966 226,-160 228.159,-148.168 231.578,-135.912 235.501,-124.168"/>
<polygon fill="none" stroke="#404040" points="235.578,-123.947 233.798,-116.96 239.563,-112.629 241.344,-119.616 235.578,-123.947"/>
<text text-anchor="middle" x="258.5" y="-291" font-family="Helvetica,sans-Serif" font-size="10.00"> +kernel_size</text>
<text text-anchor="middle" x="258.5" y="-280" font-family="Helvetica,sans-Serif" font-size="10.00">+strides</text>
<text text-anchor="middle" x="258.5" y="-269" font-family="Helvetica,sans-Serif" font-size="10.00">+dilation</text>
<text text-anchor="middle" x="258.5" y="-258" font-family="Helvetica,sans-Serif" font-size="10.00">+padding</text>
</g>
<!-- Node6 -->
<g id="node6" class="node"><title>Node6</title>
<polygon fill="white" stroke="#bfbfbf" points="244,-814.5 244,-871.5 306,-871.5 306,-814.5 244,-814.5"/>
<text text-anchor="middle" x="275" y="-859.5" font-family="Helvetica,sans-Serif" font-size="10.00">ObjectRef</text>
<polyline fill="none" stroke="#bfbfbf" points="244,-852.5 306,-852.5 "/>
<text text-anchor="middle" x="275" y="-840.5" font-family="Helvetica,sans-Serif" font-size="10.00"> </text>
<polyline fill="none" stroke="#bfbfbf" points="244,-833.5 306,-833.5 "/>
<text text-anchor="middle" x="275" y="-821.5" font-family="Helvetica,sans-Serif" font-size="10.00"> </text>
</g>
<!-- Node6&#45;&gt;Node5 -->
<g id="edge5" class="edge"><title>Node6&#45;&gt;Node5</title>
<path fill="none" stroke="midnightblue" d="M269.422,-804.264C261.497,-750.658 246.774,-651.062 236.238,-579.784"/>
<polygon fill="none" stroke="midnightblue" points="265.988,-804.97 270.913,-814.35 272.913,-803.946 265.988,-804.97"/>
</g>
<!-- Node8 -->
<g id="node8" class="node"><title>Node8</title>
<g id="a_node8"><a xlink:href="classtvm_1_1BaseExpr.html" target="_top" xlink:title="Managed reference to BaseExprNode. ">
<polygon fill="white" stroke="black" points="275,-653.5 275,-721.5 425,-721.5 425,-653.5 275,-653.5"/>
<text text-anchor="middle" x="350" y="-709.5" font-family="Helvetica,sans-Serif" font-size="10.00">tvm::BaseExpr</text>
<polyline fill="none" stroke="black" points="275,-702.5 425,-702.5 "/>
<text text-anchor="middle" x="350" y="-690.5" font-family="Helvetica,sans-Serif" font-size="10.00"> </text>
<polyline fill="none" stroke="black" points="275,-683.5 425,-683.5 "/>
<text text-anchor="start" x="283" y="-671.5" font-family="Helvetica,sans-Serif" font-size="10.00">+ TVM_DEFINE_OBJECT_REF</text>
<text text-anchor="start" x="283" y="-660.5" font-family="Helvetica,sans-Serif" font-size="10.00">_METHODS()</text>
</a>
</g>
</g>
<!-- Node6&#45;&gt;Node8 -->
<g id="edge8" class="edge"><title>Node6&#45;&gt;Node8</title>
<path fill="none" stroke="midnightblue" d="M293.125,-804.904C305.521,-779.534 321.81,-746.195 333.778,-721.7"/>
<polygon fill="none" stroke="midnightblue" points="289.827,-803.681 288.582,-814.202 296.117,-806.754 289.827,-803.681"/>
</g>
<!-- Node7 -->
<g id="node7" class="node"><title>Node7</title>
<g id="a_node7"><a xlink:href="classtvm_1_1PrimExpr.html" target="_top" xlink:title="Reference to PrimExprNode. ">
<polygon fill="white" stroke="black" points="300,-221 300,-333 450,-333 450,-221 300,-221"/>
<text text-anchor="middle" x="375" y="-321" font-family="Helvetica,sans-Serif" font-size="10.00">tvm::PrimExpr</text>
<polyline fill="none" stroke="black" points="300,-314 450,-314 "/>
<text text-anchor="middle" x="375" y="-302" font-family="Helvetica,sans-Serif" font-size="10.00"> </text>
<polyline fill="none" stroke="black" points="300,-295 450,-295 "/>
<text text-anchor="start" x="308" y="-283" font-family="Helvetica,sans-Serif" font-size="10.00">+ PrimExpr()</text>
<text text-anchor="start" x="308" y="-272" font-family="Helvetica,sans-Serif" font-size="10.00">+ PrimExpr()</text>
<text text-anchor="start" x="308" y="-261" font-family="Helvetica,sans-Serif" font-size="10.00">+ PrimExpr()</text>
<text text-anchor="start" x="308" y="-250" font-family="Helvetica,sans-Serif" font-size="10.00">+ dtype()</text>
<text text-anchor="start" x="308" y="-239" font-family="Helvetica,sans-Serif" font-size="10.00">+ TVM_DEFINE_OBJECT_REF</text>
<text text-anchor="start" x="308" y="-228" font-family="Helvetica,sans-Serif" font-size="10.00">_METHODS()</text>
</a>
</g>
</g>
<!-- Node7&#45;&gt;Node1 -->
<g id="edge6" class="edge"><title>Node7&#45;&gt;Node1</title>
<path fill="none" stroke="#404040" d="M346.99,-220.863C331.938,-191.234 313.277,-154.5 297.465,-123.374"/>
<polygon fill="none" stroke="#404040" points="297.436,-123.318 291.152,-119.78 292.001,-112.619 298.285,-116.157 297.436,-123.318"/>
<text text-anchor="middle" x="334.5" y="-134" font-family="Helvetica,sans-Serif" font-size="10.00"> +channels</text>
</g>
<!-- Node8&#45;&gt;Node7 -->
<g id="edge7" class="edge"><title>Node8&#45;&gt;Node7</title>
<path fill="none" stroke="midnightblue" d="M352.637,-643.418C357.206,-568.746 366.591,-415.398 371.628,-333.095"/>
<polygon fill="none" stroke="midnightblue" points="349.142,-643.222 352.025,-653.417 356.129,-643.649 349.142,-643.222"/>
</g>
<!-- Node9 -->
<g id="node9" class="node"><title>Node9</title>
<g id="a_node9"><a xlink:href="classtvm_1_1runtime_1_1DataType.html" target="_top" xlink:title="Runtime primitive data type. ">
<polygon fill="white" stroke="black" points="468.5,-160.5 468.5,-393.5 597.5,-393.5 597.5,-160.5 468.5,-160.5"/>
<text text-anchor="middle" x="533" y="-381.5" font-family="Helvetica,sans-Serif" font-size="10.00">tvm::runtime::DataType</text>
<polyline fill="none" stroke="black" points="468.5,-374.5 597.5,-374.5 "/>
<text text-anchor="middle" x="533" y="-362.5" font-family="Helvetica,sans-Serif" font-size="10.00"> </text>
<polyline fill="none" stroke="black" points="468.5,-355.5 597.5,-355.5 "/>
<text text-anchor="start" x="476.5" y="-343.5" font-family="Helvetica,sans-Serif" font-size="10.00">+ DataType()</text>
<text text-anchor="start" x="476.5" y="-332.5" font-family="Helvetica,sans-Serif" font-size="10.00">+ DataType()</text>
<text text-anchor="start" x="476.5" y="-321.5" font-family="Helvetica,sans-Serif" font-size="10.00">+ DataType()</text>
<text text-anchor="start" x="476.5" y="-310.5" font-family="Helvetica,sans-Serif" font-size="10.00">+ code()</text>
<text text-anchor="start" x="476.5" y="-299.5" font-family="Helvetica,sans-Serif" font-size="10.00">+ bits()</text>
<text text-anchor="start" x="476.5" y="-288.5" font-family="Helvetica,sans-Serif" font-size="10.00">+ bytes()</text>
<text text-anchor="start" x="476.5" y="-277.5" font-family="Helvetica,sans-Serif" font-size="10.00">+ lanes()</text>
<text text-anchor="start" x="476.5" y="-266.5" font-family="Helvetica,sans-Serif" font-size="10.00">+ is_scalar()</text>
<text text-anchor="start" x="476.5" y="-255.5" font-family="Helvetica,sans-Serif" font-size="10.00">+ is_bool()</text>
<text text-anchor="start" x="476.5" y="-244.5" font-family="Helvetica,sans-Serif" font-size="10.00">+ is_float()</text>
<text text-anchor="start" x="476.5" y="-233.5" font-family="Helvetica,sans-Serif" font-size="10.00">and 12 more...</text>
<text text-anchor="start" x="476.5" y="-222.5" font-family="Helvetica,sans-Serif" font-size="10.00">+ Int()</text>
<text text-anchor="start" x="476.5" y="-211.5" font-family="Helvetica,sans-Serif" font-size="10.00">+ UInt()</text>
<text text-anchor="start" x="476.5" y="-200.5" font-family="Helvetica,sans-Serif" font-size="10.00">+ Float()</text>
<text text-anchor="start" x="476.5" y="-189.5" font-family="Helvetica,sans-Serif" font-size="10.00">+ Bool()</text>
<text text-anchor="start" x="476.5" y="-178.5" font-family="Helvetica,sans-Serif" font-size="10.00">+ Handle()</text>
<text text-anchor="start" x="476.5" y="-167.5" font-family="Helvetica,sans-Serif" font-size="10.00">+ ShapeIndex()</text>
</a>
</g>
</g>
<!-- Node9&#45;&gt;Node1 -->
<g id="edge9" class="edge"><title>Node9&#45;&gt;Node1</title>
<path fill="none" stroke="#404040" d="M468.253,-169.186C465.251,-165.985 462.165,-162.91 459,-160 428.382,-131.849 388.588,-109.118 352.939,-92.2826"/>
<polygon fill="none" stroke="#404040" points="352.92,-92.2739 345.796,-93.393 342.023,-87.2476 349.147,-86.1285 352.92,-92.2739"/>
<text text-anchor="middle" x="467" y="-134" font-family="Helvetica,sans-Serif" font-size="10.00"> +out_dtype</text>
</g>
</g>
</svg>
