<?xml version="1.0" encoding="UTF-8" standalone="no"?>
<!DOCTYPE svg PUBLIC "-//W3C//DTD SVG 1.1//EN"
 "http://www.w3.org/Graphics/SVG/1.1/DTD/svg11.dtd">
<!-- Generated by graphviz version 2.38.0 (20140413.2041)
 -->
<!-- Title: tvm::relay::AllocTensorAttrs Pages: 1 -->
<svg width="566pt" height="941pt"
 viewBox="0.00 0.00 565.50 941.00" xmlns="http://www.w3.org/2000/svg" xmlns:xlink="http://www.w3.org/1999/xlink">
<g id="graph0" class="graph" transform="scale(1 1) rotate(0) translate(4 937)">
<title>tvm::relay::AllocTensorAttrs</title>
<polygon fill="white" stroke="none" points="-4,4 -4,-937 561.5,-937 561.5,4 -4,4"/>
<!-- Node1 -->
<g id="node1" class="node"><title>Node1</title>
<polygon fill="#bfbfbf" stroke="black" points="193,-0.5 193,-57.5 339,-57.5 339,-0.5 193,-0.5"/>
<text text-anchor="middle" x="266" y="-45.5" font-family="Helvetica,sans-Serif" font-size="10.00">tvm::relay::AllocTensorAttrs</text>
<polyline fill="none" stroke="black" points="193,-38.5 339,-38.5 "/>
<text text-anchor="middle" x="266" y="-26.5" font-family="Helvetica,sans-Serif" font-size="10.00"> </text>
<polyline fill="none" stroke="black" points="193,-19.5 339,-19.5 "/>
<text text-anchor="start" x="201" y="-7.5" font-family="Helvetica,sans-Serif" font-size="10.00">+ TVM_DECLARE_ATTRS()</text>
</g>
<!-- Node2 -->
<g id="node2" class="node"><title>Node2</title>
<g id="a_node2"><a xlink:href="classtvm_1_1AttrsNode.html" target="_top" xlink:title="{tvm::AttrsNode\&lt; AllocTensor\lAttrs \&gt;\n||+ VisitAttrs()\l+ VisitNonDefaultAttrs()\l+ InitByPackedArgs()\l+ SEqualReduce()\l+ SHashReduce()\l+ ListFieldInfo()\l}">
<polygon fill="white" stroke="black" points="42.5,-160.5 42.5,-283.5 197.5,-283.5 197.5,-160.5 42.5,-160.5"/>
<text text-anchor="start" x="50.5" y="-271.5" font-family="Helvetica,sans-Serif" font-size="10.00">tvm::AttrsNode&lt; AllocTensor</text>
<text text-anchor="middle" x="120" y="-260.5" font-family="Helvetica,sans-Serif" font-size="10.00">Attrs &gt;</text>
<polyline fill="none" stroke="black" points="42.5,-253.5 197.5,-253.5 "/>
<text text-anchor="middle" x="120" y="-241.5" font-family="Helvetica,sans-Serif" font-size="10.00"> </text>
<polyline fill="none" stroke="black" points="42.5,-234.5 197.5,-234.5 "/>
<text text-anchor="start" x="50.5" y="-222.5" font-family="Helvetica,sans-Serif" font-size="10.00">+ VisitAttrs()</text>
<text text-anchor="start" x="50.5" y="-211.5" font-family="Helvetica,sans-Serif" font-size="10.00">+ VisitNonDefaultAttrs()</text>
<text text-anchor="start" x="50.5" y="-200.5" font-family="Helvetica,sans-Serif" font-size="10.00">+ InitByPackedArgs()</text>
<text text-anchor="start" x="50.5" y="-189.5" font-family="Helvetica,sans-Serif" font-size="10.00">+ SEqualReduce()</text>
<text text-anchor="start" x="50.5" y="-178.5" font-family="Helvetica,sans-Serif" font-size="10.00">+ SHashReduce()</text>
<text text-anchor="start" x="50.5" y="-167.5" font-family="Helvetica,sans-Serif" font-size="10.00">+ ListFieldInfo()</text>
</a>
</g>
</g>
<!-- Node2&#45;&gt;Node1 -->
<g id="edge1" class="edge"><title>Node2&#45;&gt;Node1</title>
<path fill="none" stroke="midnightblue" d="M162.479,-151.763C178.76,-127.025 198.202,-99.4803 218,-76 223.283,-69.7348 229.327,-63.4066 235.305,-57.5321"/>
<polygon fill="none" stroke="midnightblue" points="159.387,-150.097 156.857,-160.385 165.251,-153.921 159.387,-150.097"/>
</g>
<!-- Node3 -->
<g id="node3" class="node"><title>Node3</title>
<g id="a_node3"><a xlink:href="classtvm_1_1BaseAttrsNode.html" target="_top" xlink:title="Base class of all attribute class. ">
<polygon fill="white" stroke="black" points="0,-386.5 0,-564.5 204,-564.5 204,-386.5 0,-386.5"/>
<text text-anchor="middle" x="102" y="-552.5" font-family="Helvetica,sans-Serif" font-size="10.00">tvm::BaseAttrsNode</text>
<polyline fill="none" stroke="black" points="0,-545.5 204,-545.5 "/>
<text text-anchor="start" x="8" y="-533.5" font-family="Helvetica,sans-Serif" font-size="10.00">+ _type_has_method_sequal</text>
<text text-anchor="start" x="8" y="-522.5" font-family="Helvetica,sans-Serif" font-size="10.00">_reduce</text>
<text text-anchor="start" x="8" y="-511.5" font-family="Helvetica,sans-Serif" font-size="10.00">+ _type_has_method_shash</text>
<text text-anchor="start" x="8" y="-500.5" font-family="Helvetica,sans-Serif" font-size="10.00">_reduce</text>
<text text-anchor="start" x="8" y="-489.5" font-family="Helvetica,sans-Serif" font-size="10.00">+ _type_key</text>
<polyline fill="none" stroke="black" points="0,-482.5 204,-482.5 "/>
<text text-anchor="start" x="8" y="-470.5" font-family="Helvetica,sans-Serif" font-size="10.00">+ ~BaseAttrsNode()</text>
<text text-anchor="start" x="8" y="-459.5" font-family="Helvetica,sans-Serif" font-size="10.00">+ VisitAttrs()</text>
<text text-anchor="start" x="8" y="-448.5" font-family="Helvetica,sans-Serif" font-size="10.00">+ InitBySeq()</text>
<text text-anchor="start" x="8" y="-437.5" font-family="Helvetica,sans-Serif" font-size="10.00">+ PrintDocString()</text>
<text text-anchor="start" x="8" y="-426.5" font-family="Helvetica,sans-Serif" font-size="10.00">+ VisitNonDefaultAttrs()</text>
<text text-anchor="start" x="8" y="-415.5" font-family="Helvetica,sans-Serif" font-size="10.00">+ ListFieldInfo()</text>
<text text-anchor="start" x="8" y="-404.5" font-family="Helvetica,sans-Serif" font-size="10.00">+ InitByPackedArgs()</text>
<text text-anchor="start" x="8" y="-393.5" font-family="Helvetica,sans-Serif" font-size="10.00">+ TVM_DECLARE_BASE_OBJECT_INFO()</text>
</a>
</g>
</g>
<!-- Node3&#45;&gt;Node2 -->
<g id="edge2" class="edge"><title>Node3&#45;&gt;Node2</title>
<path fill="none" stroke="midnightblue" d="M109.038,-376.17C111.265,-345.041 113.662,-311.555 115.645,-283.855"/>
<polygon fill="none" stroke="midnightblue" points="105.544,-375.96 108.321,-386.184 112.526,-376.46 105.544,-375.96"/>
</g>
<!-- Node4 -->
<g id="node4" class="node"><title>Node4</title>
<polygon fill="white" stroke="#bfbfbf" points="78.5,-775 78.5,-832 125.5,-832 125.5,-775 78.5,-775"/>
<text text-anchor="middle" x="102" y="-820" font-family="Helvetica,sans-Serif" font-size="10.00">Object</text>
<polyline fill="none" stroke="#bfbfbf" points="78.5,-813 125.5,-813 "/>
<text text-anchor="middle" x="102" y="-801" font-family="Helvetica,sans-Serif" font-size="10.00"> </text>
<polyline fill="none" stroke="#bfbfbf" points="78.5,-794 125.5,-794 "/>
<text text-anchor="middle" x="102" y="-782" font-family="Helvetica,sans-Serif" font-size="10.00"> </text>
</g>
<!-- Node4&#45;&gt;Node3 -->
<g id="edge3" class="edge"><title>Node4&#45;&gt;Node3</title>
<path fill="none" stroke="midnightblue" d="M102,-764.921C102,-716.336 102,-630.195 102,-564.664"/>
<polygon fill="none" stroke="midnightblue" points="98.5001,-764.986 102,-774.986 105.5,-764.986 98.5001,-764.986"/>
</g>
<!-- Node5 -->
<g id="node5" class="node"><title>Node5</title>
<g id="a_node5"><a xlink:href="classtvm_1_1Array.html" target="_top" xlink:title="{tvm::Array\&lt; tvm::PrimExpr \&gt;\n||+ Array()\l+ Array()\l+ Array()\l+ Array()\l+ Array()\l+ Array()\l+ Array()\l+ Array()\l+ operator=()\l+ operator=()\land 13 more...\l}">
<polygon fill="white" stroke="black" points="153.5,-583.5 153.5,-750.5 310.5,-750.5 310.5,-583.5 153.5,-583.5"/>
<text text-anchor="middle" x="232" y="-738.5" font-family="Helvetica,sans-Serif" font-size="10.00">tvm::Array&lt; tvm::PrimExpr &gt;</text>
<polyline fill="none" stroke="black" points="153.5,-731.5 310.5,-731.5 "/>
<text text-anchor="middle" x="232" y="-719.5" font-family="Helvetica,sans-Serif" font-size="10.00"> </text>
<polyline fill="none" stroke="black" points="153.5,-712.5 310.5,-712.5 "/>
<text text-anchor="start" x="161.5" y="-700.5" font-family="Helvetica,sans-Serif" font-size="10.00">+ Array()</text>
<text text-anchor="start" x="161.5" y="-689.5" font-family="Helvetica,sans-Serif" font-size="10.00">+ Array()</text>
<text text-anchor="start" x="161.5" y="-678.5" font-family="Helvetica,sans-Serif" font-size="10.00">+ Array()</text>
<text text-anchor="start" x="161.5" y="-667.5" font-family="Helvetica,sans-Serif" font-size="10.00">+ Array()</text>
<text text-anchor="start" x="161.5" y="-656.5" font-family="Helvetica,sans-Serif" font-size="10.00">+ Array()</text>
<text text-anchor="start" x="161.5" y="-645.5" font-family="Helvetica,sans-Serif" font-size="10.00">+ Array()</text>
<text text-anchor="start" x="161.5" y="-634.5" font-family="Helvetica,sans-Serif" font-size="10.00">+ Array()</text>
<text text-anchor="start" x="161.5" y="-623.5" font-family="Helvetica,sans-Serif" font-size="10.00">+ Array()</text>
<text text-anchor="start" x="161.5" y="-612.5" font-family="Helvetica,sans-Serif" font-size="10.00">+ operator=()</text>
<text text-anchor="start" x="161.5" y="-601.5" font-family="Helvetica,sans-Serif" font-size="10.00">+ operator=()</text>
<text text-anchor="start" x="161.5" y="-590.5" font-family="Helvetica,sans-Serif" font-size="10.00">and 13 more...</text>
</a>
</g>
</g>
<!-- Node5&#45;&gt;Node1 -->
<g id="edge4" class="edge"><title>Node5&#45;&gt;Node1</title>
<path fill="none" stroke="#404040" d="M230.59,-583.459C229.676,-473.784 231.353,-274.16 251,-105 252.35,-93.3763 254.548,-80.8677 256.85,-69.4609"/>
<polygon fill="none" stroke="#404040" points="256.874,-69.3506 254.2,-62.6533 259.354,-57.6098 262.028,-64.3071 256.874,-69.3506"/>
<text text-anchor="middle" x="272" y="-360" font-family="Helvetica,sans-Serif" font-size="10.00"> +assert_shape</text>
</g>
<!-- Node6 -->
<g id="node6" class="node"><title>Node6</title>
<polygon fill="white" stroke="#bfbfbf" points="233,-875.5 233,-932.5 295,-932.5 295,-875.5 233,-875.5"/>
<text text-anchor="middle" x="264" y="-920.5" font-family="Helvetica,sans-Serif" font-size="10.00">ObjectRef</text>
<polyline fill="none" stroke="#bfbfbf" points="233,-913.5 295,-913.5 "/>
<text text-anchor="middle" x="264" y="-901.5" font-family="Helvetica,sans-Serif" font-size="10.00"> </text>
<polyline fill="none" stroke="#bfbfbf" points="233,-894.5 295,-894.5 "/>
<text text-anchor="middle" x="264" y="-882.5" font-family="Helvetica,sans-Serif" font-size="10.00"> </text>
</g>
<!-- Node6&#45;&gt;Node5 -->
<g id="edge5" class="edge"><title>Node6&#45;&gt;Node5</title>
<path fill="none" stroke="midnightblue" d="M255.918,-865.451C254.147,-856.483 252.388,-846.923 251,-838 246.594,-809.682 242.81,-778.558 239.805,-750.766"/>
<polygon fill="none" stroke="midnightblue" points="252.489,-866.153 257.905,-875.259 259.35,-864.763 252.489,-866.153"/>
</g>
<!-- Node10 -->
<g id="node10" class="node"><title>Node10</title>
<g id="a_node10"><a xlink:href="classtvm_1_1BaseExpr.html" target="_top" xlink:title="Managed reference to BaseExprNode. ">
<polygon fill="white" stroke="black" points="260,-769.5 260,-837.5 410,-837.5 410,-769.5 260,-769.5"/>
<text text-anchor="middle" x="335" y="-825.5" font-family="Helvetica,sans-Serif" font-size="10.00">tvm::BaseExpr</text>
<polyline fill="none" stroke="black" points="260,-818.5 410,-818.5 "/>
<text text-anchor="middle" x="335" y="-806.5" font-family="Helvetica,sans-Serif" font-size="10.00"> </text>
<polyline fill="none" stroke="black" points="260,-799.5 410,-799.5 "/>
<text text-anchor="start" x="268" y="-787.5" font-family="Helvetica,sans-Serif" font-size="10.00">+ TVM_DEFINE_OBJECT_REF</text>
<text text-anchor="start" x="268" y="-776.5" font-family="Helvetica,sans-Serif" font-size="10.00">_METHODS()</text>
</a>
</g>
</g>
<!-- Node6&#45;&gt;Node10 -->
<g id="edge10" class="edge"><title>Node6&#45;&gt;Node10</title>
<path fill="none" stroke="midnightblue" d="M289.905,-867.062C296.851,-857.425 304.328,-847.053 311.157,-837.578"/>
<polygon fill="none" stroke="midnightblue" points="286.975,-865.141 283.966,-875.3 292.653,-869.234 286.975,-865.141"/>
</g>
<!-- Node7 -->
<g id="node7" class="node"><title>Node7</title>
<g id="a_node7"><a xlink:href="classtvm_1_1runtime_1_1DataType.html" target="_top" xlink:title="Runtime primitive data type. ">
<polygon fill="white" stroke="black" points="428.5,-105.5 428.5,-338.5 557.5,-338.5 557.5,-105.5 428.5,-105.5"/>
<text text-anchor="middle" x="493" y="-326.5" font-family="Helvetica,sans-Serif" font-size="10.00">tvm::runtime::DataType</text>
<polyline fill="none" stroke="black" points="428.5,-319.5 557.5,-319.5 "/>
<text text-anchor="middle" x="493" y="-307.5" font-family="Helvetica,sans-Serif" font-size="10.00"> </text>
<polyline fill="none" stroke="black" points="428.5,-300.5 557.5,-300.5 "/>
<text text-anchor="start" x="436.5" y="-288.5" font-family="Helvetica,sans-Serif" font-size="10.00">+ DataType()</text>
<text text-anchor="start" x="436.5" y="-277.5" font-family="Helvetica,sans-Serif" font-size="10.00">+ DataType()</text>
<text text-anchor="start" x="436.5" y="-266.5" font-family="Helvetica,sans-Serif" font-size="10.00">+ DataType()</text>
<text text-anchor="start" x="436.5" y="-255.5" font-family="Helvetica,sans-Serif" font-size="10.00">+ code()</text>
<text text-anchor="start" x="436.5" y="-244.5" font-family="Helvetica,sans-Serif" font-size="10.00">+ bits()</text>
<text text-anchor="start" x="436.5" y="-233.5" font-family="Helvetica,sans-Serif" font-size="10.00">+ bytes()</text>
<text text-anchor="start" x="436.5" y="-222.5" font-family="Helvetica,sans-Serif" font-size="10.00">+ lanes()</text>
<text text-anchor="start" x="436.5" y="-211.5" font-family="Helvetica,sans-Serif" font-size="10.00">+ is_scalar()</text>
<text text-anchor="start" x="436.5" y="-200.5" font-family="Helvetica,sans-Serif" font-size="10.00">+ is_bool()</text>
<text text-anchor="start" x="436.5" y="-189.5" font-family="Helvetica,sans-Serif" font-size="10.00">+ is_float()</text>
<text text-anchor="start" x="436.5" y="-178.5" font-family="Helvetica,sans-Serif" font-size="10.00">and 12 more...</text>
<text text-anchor="start" x="436.5" y="-167.5" font-family="Helvetica,sans-Serif" font-size="10.00">+ Int()</text>
<text text-anchor="start" x="436.5" y="-156.5" font-family="Helvetica,sans-Serif" font-size="10.00">+ UInt()</text>
<text text-anchor="start" x="436.5" y="-145.5" font-family="Helvetica,sans-Serif" font-size="10.00">+ Float()</text>
<text text-anchor="start" x="436.5" y="-134.5" font-family="Helvetica,sans-Serif" font-size="10.00">+ Bool()</text>
<text text-anchor="start" x="436.5" y="-123.5" font-family="Helvetica,sans-Serif" font-size="10.00">+ Handle()</text>
<text text-anchor="start" x="436.5" y="-112.5" font-family="Helvetica,sans-Serif" font-size="10.00">+ ShapeIndex()</text>
</a>
</g>
</g>
<!-- Node7&#45;&gt;Node1 -->
<g id="edge6" class="edge"><title>Node7&#45;&gt;Node1</title>
<path fill="none" stroke="#404040" d="M428.498,-114.458C425.419,-111.16 422.251,-107.993 419,-105 399.183,-86.7562 374.107,-72.0021 350.02,-60.5634"/>
<polygon fill="none" stroke="#404040" points="349.957,-60.5344 342.837,-61.6746 339.046,-55.5404 346.166,-54.4002 349.957,-60.5344"/>
<text text-anchor="middle" x="413.5" y="-79" font-family="Helvetica,sans-Serif" font-size="10.00"> +dtype</text>
</g>
<!-- Node8 -->
<g id="node8" class="node"><title>Node8</title>
<g id="a_node8"><a xlink:href="classtvm_1_1relay_1_1Constant.html" target="_top" xlink:title="{tvm::relay::Constant\n||+ Constant()\l+ TVM_DEFINE_OBJECT_REF\l_METHODS()\l}">
<polygon fill="white" stroke="black" points="260,-182.5 260,-261.5 410,-261.5 410,-182.5 260,-182.5"/>
<text text-anchor="middle" x="335" y="-249.5" font-family="Helvetica,sans-Serif" font-size="10.00">tvm::relay::Constant</text>
<polyline fill="none" stroke="black" points="260,-242.5 410,-242.5 "/>
<text text-anchor="middle" x="335" y="-230.5" font-family="Helvetica,sans-Serif" font-size="10.00"> </text>
<polyline fill="none" stroke="black" points="260,-223.5 410,-223.5 "/>
<text text-anchor="start" x="268" y="-211.5" font-family="Helvetica,sans-Serif" font-size="10.00">+ Constant()</text>
<text text-anchor="start" x="268" y="-200.5" font-family="Helvetica,sans-Serif" font-size="10.00">+ TVM_DEFINE_OBJECT_REF</text>
<text text-anchor="start" x="268" y="-189.5" font-family="Helvetica,sans-Serif" font-size="10.00">_METHODS()</text>
</a>
</g>
</g>
<!-- Node8&#45;&gt;Node1 -->
<g id="edge7" class="edge"><title>Node8&#45;&gt;Node1</title>
<path fill="none" stroke="#404040" d="M321.037,-182.348C309.147,-149.437 292.142,-102.364 280.189,-69.2755"/>
<polygon fill="none" stroke="#404040" points="280.109,-69.056 274.309,-64.772 276.032,-57.7698 281.833,-62.0538 280.109,-69.056"/>
<text text-anchor="middle" x="323.5" y="-79" font-family="Helvetica,sans-Serif" font-size="10.00"> +const_shape</text>
</g>
<!-- Node9 -->
<g id="node9" class="node"><title>Node9</title>
<g id="a_node9"><a xlink:href="classtvm_1_1RelayExpr.html" target="_top" xlink:title="Managed reference to RelayExprNode. ">
<polygon fill="white" stroke="black" points="260,-441.5 260,-509.5 410,-509.5 410,-441.5 260,-441.5"/>
<text text-anchor="middle" x="335" y="-497.5" font-family="Helvetica,sans-Serif" font-size="10.00">Expr</text>
<polyline fill="none" stroke="black" points="260,-490.5 410,-490.5 "/>
<text text-anchor="middle" x="335" y="-478.5" font-family="Helvetica,sans-Serif" font-size="10.00"> </text>
<polyline fill="none" stroke="black" points="260,-471.5 410,-471.5 "/>
<text text-anchor="start" x="268" y="-459.5" font-family="Helvetica,sans-Serif" font-size="10.00">+ TVM_DEFINE_OBJECT_REF</text>
<text text-anchor="start" x="268" y="-448.5" font-family="Helvetica,sans-Serif" font-size="10.00">_METHODS()</text>
</a>
</g>
</g>
<!-- Node9&#45;&gt;Node8 -->
<g id="edge8" class="edge"><title>Node9&#45;&gt;Node8</title>
<path fill="none" stroke="midnightblue" d="M335,-431.336C335,-383.597 335,-307.386 335,-261.572"/>
<polygon fill="none" stroke="midnightblue" points="331.5,-431.362 335,-441.362 338.5,-431.362 331.5,-431.362"/>
</g>
<!-- Node10&#45;&gt;Node9 -->
<g id="edge9" class="edge"><title>Node10&#45;&gt;Node9</title>
<path fill="none" stroke="midnightblue" d="M335,-759.388C335,-693.463 335,-569.014 335,-509.64"/>
<polygon fill="none" stroke="midnightblue" points="331.5,-759.447 335,-769.447 338.5,-759.447 331.5,-759.447"/>
</g>
</g>
</svg>
