<?xml version="1.0" encoding="UTF-8" standalone="no"?>
<!DOCTYPE svg PUBLIC "-//W3C//DTD SVG 1.1//EN"
 "http://www.w3.org/Graphics/SVG/1.1/DTD/svg11.dtd">
<!-- Generated by graphviz version 2.38.0 (20140413.2041)
 -->
<!-- Title: tvm::relay::BinaryConv2DAttrs Pages: 1 -->
<svg width="608pt" height="880pt"
 viewBox="0.00 0.00 607.50 880.00" xmlns="http://www.w3.org/2000/svg" xmlns:xlink="http://www.w3.org/1999/xlink">
<g id="graph0" class="graph" transform="scale(1 1) rotate(0) translate(4 876)">
<title>tvm::relay::BinaryConv2DAttrs</title>
<polygon fill="white" stroke="none" points="-4,4 -4,-876 603.5,-876 603.5,4 -4,4"/>
<!-- Node1 -->
<g id="node1" class="node"><title>Node1</title>
<polygon fill="#bfbfbf" stroke="black" points="185.5,-0.5 185.5,-101.5 346.5,-101.5 346.5,-0.5 185.5,-0.5"/>
<text text-anchor="middle" x="266" y="-89.5" font-family="Helvetica,sans-Serif" font-size="10.00">tvm::relay::BinaryConv2DAttrs</text>
<polyline fill="none" stroke="black" points="185.5,-82.5 346.5,-82.5 "/>
<text text-anchor="start" x="193.5" y="-70.5" font-family="Helvetica,sans-Serif" font-size="10.00">+ activation_bits</text>
<text text-anchor="start" x="193.5" y="-59.5" font-family="Helvetica,sans-Serif" font-size="10.00">+ weight_bits</text>
<text text-anchor="start" x="193.5" y="-48.5" font-family="Helvetica,sans-Serif" font-size="10.00">+ data_layout</text>
<text text-anchor="start" x="193.5" y="-37.5" font-family="Helvetica,sans-Serif" font-size="10.00">+ kernel_layout</text>
<text text-anchor="start" x="193.5" y="-26.5" font-family="Helvetica,sans-Serif" font-size="10.00">+ unipolar</text>
<polyline fill="none" stroke="black" points="185.5,-19.5 346.5,-19.5 "/>
<text text-anchor="start" x="193.5" y="-7.5" font-family="Helvetica,sans-Serif" font-size="10.00">+ TVM_DECLARE_ATTRS()</text>
</g>
<!-- Node2 -->
<g id="node2" class="node"><title>Node2</title>
<g id="a_node2"><a xlink:href="classtvm_1_1AttrsNode.html" target="_top" xlink:title="{tvm::AttrsNode\&lt; BinaryConv2\lDAttrs \&gt;\n||+ VisitAttrs()\l+ VisitNonDefaultAttrs()\l+ InitByPackedArgs()\l+ SEqualReduce()\l+ SHashReduce()\l+ ListFieldInfo()\l}">
<polygon fill="white" stroke="black" points="21.5,-215.5 21.5,-338.5 182.5,-338.5 182.5,-215.5 21.5,-215.5"/>
<text text-anchor="start" x="29.5" y="-326.5" font-family="Helvetica,sans-Serif" font-size="10.00">tvm::AttrsNode&lt; BinaryConv2</text>
<text text-anchor="middle" x="102" y="-315.5" font-family="Helvetica,sans-Serif" font-size="10.00">DAttrs &gt;</text>
<polyline fill="none" stroke="black" points="21.5,-308.5 182.5,-308.5 "/>
<text text-anchor="middle" x="102" y="-296.5" font-family="Helvetica,sans-Serif" font-size="10.00"> </text>
<polyline fill="none" stroke="black" points="21.5,-289.5 182.5,-289.5 "/>
<text text-anchor="start" x="29.5" y="-277.5" font-family="Helvetica,sans-Serif" font-size="10.00">+ VisitAttrs()</text>
<text text-anchor="start" x="29.5" y="-266.5" font-family="Helvetica,sans-Serif" font-size="10.00">+ VisitNonDefaultAttrs()</text>
<text text-anchor="start" x="29.5" y="-255.5" font-family="Helvetica,sans-Serif" font-size="10.00">+ InitByPackedArgs()</text>
<text text-anchor="start" x="29.5" y="-244.5" font-family="Helvetica,sans-Serif" font-size="10.00">+ SEqualReduce()</text>
<text text-anchor="start" x="29.5" y="-233.5" font-family="Helvetica,sans-Serif" font-size="10.00">+ SHashReduce()</text>
<text text-anchor="start" x="29.5" y="-222.5" font-family="Helvetica,sans-Serif" font-size="10.00">+ ListFieldInfo()</text>
</a>
</g>
</g>
<!-- Node2&#45;&gt;Node1 -->
<g id="edge1" class="edge"><title>Node2&#45;&gt;Node1</title>
<path fill="none" stroke="midnightblue" d="M144.527,-206.865C162.331,-179.215 183.794,-147.473 205,-120 209.652,-113.974 214.703,-107.817 219.842,-101.79"/>
<polygon fill="none" stroke="midnightblue" points="141.568,-204.997 139.123,-215.306 147.463,-208.771 141.568,-204.997"/>
</g>
<!-- Node3 -->
<g id="node3" class="node"><title>Node3</title>
<g id="a_node3"><a xlink:href="classtvm_1_1BaseAttrsNode.html" target="_top" xlink:title="Base class of all attribute class. ">
<polygon fill="white" stroke="black" points="0,-598.5 0,-776.5 204,-776.5 204,-598.5 0,-598.5"/>
<text text-anchor="middle" x="102" y="-764.5" font-family="Helvetica,sans-Serif" font-size="10.00">tvm::BaseAttrsNode</text>
<polyline fill="none" stroke="black" points="0,-757.5 204,-757.5 "/>
<text text-anchor="start" x="8" y="-745.5" font-family="Helvetica,sans-Serif" font-size="10.00">+ _type_has_method_sequal</text>
<text text-anchor="start" x="8" y="-734.5" font-family="Helvetica,sans-Serif" font-size="10.00">_reduce</text>
<text text-anchor="start" x="8" y="-723.5" font-family="Helvetica,sans-Serif" font-size="10.00">+ _type_has_method_shash</text>
<text text-anchor="start" x="8" y="-712.5" font-family="Helvetica,sans-Serif" font-size="10.00">_reduce</text>
<text text-anchor="start" x="8" y="-701.5" font-family="Helvetica,sans-Serif" font-size="10.00">+ _type_key</text>
<polyline fill="none" stroke="black" points="0,-694.5 204,-694.5 "/>
<text text-anchor="start" x="8" y="-682.5" font-family="Helvetica,sans-Serif" font-size="10.00">+ ~BaseAttrsNode()</text>
<text text-anchor="start" x="8" y="-671.5" font-family="Helvetica,sans-Serif" font-size="10.00">+ VisitAttrs()</text>
<text text-anchor="start" x="8" y="-660.5" font-family="Helvetica,sans-Serif" font-size="10.00">+ InitBySeq()</text>
<text text-anchor="start" x="8" y="-649.5" font-family="Helvetica,sans-Serif" font-size="10.00">+ PrintDocString()</text>
<text text-anchor="start" x="8" y="-638.5" font-family="Helvetica,sans-Serif" font-size="10.00">+ VisitNonDefaultAttrs()</text>
<text text-anchor="start" x="8" y="-627.5" font-family="Helvetica,sans-Serif" font-size="10.00">+ ListFieldInfo()</text>
<text text-anchor="start" x="8" y="-616.5" font-family="Helvetica,sans-Serif" font-size="10.00">+ InitByPackedArgs()</text>
<text text-anchor="start" x="8" y="-605.5" font-family="Helvetica,sans-Serif" font-size="10.00">+ TVM_DECLARE_BASE_OBJECT_INFO()</text>
</a>
</g>
</g>
<!-- Node3&#45;&gt;Node2 -->
<g id="edge2" class="edge"><title>Node3&#45;&gt;Node2</title>
<path fill="none" stroke="midnightblue" d="M102,-588.068C102,-510.306 102,-404.274 102,-338.526"/>
<polygon fill="none" stroke="midnightblue" points="98.5001,-588.364 102,-598.365 105.5,-588.365 98.5001,-588.364"/>
</g>
<!-- Node4 -->
<g id="node4" class="node"><title>Node4</title>
<polygon fill="white" stroke="#bfbfbf" points="78.5,-814.5 78.5,-871.5 125.5,-871.5 125.5,-814.5 78.5,-814.5"/>
<text text-anchor="middle" x="102" y="-859.5" font-family="Helvetica,sans-Serif" font-size="10.00">Object</text>
<polyline fill="none" stroke="#bfbfbf" points="78.5,-852.5 125.5,-852.5 "/>
<text text-anchor="middle" x="102" y="-840.5" font-family="Helvetica,sans-Serif" font-size="10.00"> </text>
<polyline fill="none" stroke="#bfbfbf" points="78.5,-833.5 125.5,-833.5 "/>
<text text-anchor="middle" x="102" y="-821.5" font-family="Helvetica,sans-Serif" font-size="10.00"> </text>
</g>
<!-- Node4&#45;&gt;Node3 -->
<g id="edge3" class="edge"><title>Node4&#45;&gt;Node3</title>
<path fill="none" stroke="midnightblue" d="M102,-803.957C102,-795.471 102,-786.13 102,-776.549"/>
<polygon fill="none" stroke="midnightblue" points="98.5001,-804.202 102,-814.202 105.5,-804.202 98.5001,-804.202"/>
</g>
<!-- Node5 -->
<g id="node5" class="node"><title>Node5</title>
<g id="a_node5"><a xlink:href="classtvm_1_1Array.html" target="_top" xlink:title="{tvm::Array\&lt; tvm::PrimExpr \&gt;\n||+ Array()\l+ Array()\l+ Array()\l+ Array()\l+ Array()\l+ Array()\l+ Array()\l+ Array()\l+ operator=()\l+ operator=()\land 13 more...\l}">
<polygon fill="white" stroke="black" points="146.5,-412.5 146.5,-579.5 303.5,-579.5 303.5,-412.5 146.5,-412.5"/>
<text text-anchor="middle" x="225" y="-567.5" font-family="Helvetica,sans-Serif" font-size="10.00">tvm::Array&lt; tvm::PrimExpr &gt;</text>
<polyline fill="none" stroke="black" points="146.5,-560.5 303.5,-560.5 "/>
<text text-anchor="middle" x="225" y="-548.5" font-family="Helvetica,sans-Serif" font-size="10.00"> </text>
<polyline fill="none" stroke="black" points="146.5,-541.5 303.5,-541.5 "/>
<text text-anchor="start" x="154.5" y="-529.5" font-family="Helvetica,sans-Serif" font-size="10.00">+ Array()</text>
<text text-anchor="start" x="154.5" y="-518.5" font-family="Helvetica,sans-Serif" font-size="10.00">+ Array()</text>
<text text-anchor="start" x="154.5" y="-507.5" font-family="Helvetica,sans-Serif" font-size="10.00">+ Array()</text>
<text text-anchor="start" x="154.5" y="-496.5" font-family="Helvetica,sans-Serif" font-size="10.00">+ Array()</text>
<text text-anchor="start" x="154.5" y="-485.5" font-family="Helvetica,sans-Serif" font-size="10.00">+ Array()</text>
<text text-anchor="start" x="154.5" y="-474.5" font-family="Helvetica,sans-Serif" font-size="10.00">+ Array()</text>
<text text-anchor="start" x="154.5" y="-463.5" font-family="Helvetica,sans-Serif" font-size="10.00">+ Array()</text>
<text text-anchor="start" x="154.5" y="-452.5" font-family="Helvetica,sans-Serif" font-size="10.00">+ Array()</text>
<text text-anchor="start" x="154.5" y="-441.5" font-family="Helvetica,sans-Serif" font-size="10.00">+ operator=()</text>
<text text-anchor="start" x="154.5" y="-430.5" font-family="Helvetica,sans-Serif" font-size="10.00">+ operator=()</text>
<text text-anchor="start" x="154.5" y="-419.5" font-family="Helvetica,sans-Serif" font-size="10.00">and 13 more...</text>
</a>
</g>
</g>
<!-- Node5&#45;&gt;Node1 -->
<g id="edge4" class="edge"><title>Node5&#45;&gt;Node1</title>
<path fill="none" stroke="#404040" d="M218.249,-412.398C214.458,-344.171 213.078,-245.072 228,-160 230.71,-144.552 235.359,-128.366 240.495,-113.366"/>
<polygon fill="none" stroke="#404040" points="240.652,-112.926 238.905,-105.93 244.691,-101.626 246.438,-108.622 240.652,-112.926"/>
<text text-anchor="middle" x="260.5" y="-285.5" font-family="Helvetica,sans-Serif" font-size="10.00"> +kernel_size</text>
<text text-anchor="middle" x="260.5" y="-274.5" font-family="Helvetica,sans-Serif" font-size="10.00">+strides</text>
<text text-anchor="middle" x="260.5" y="-263.5" font-family="Helvetica,sans-Serif" font-size="10.00">+padding</text>
</g>
<!-- Node6 -->
<g id="node6" class="node"><title>Node6</title>
<polygon fill="white" stroke="#bfbfbf" points="244,-814.5 244,-871.5 306,-871.5 306,-814.5 244,-814.5"/>
<text text-anchor="middle" x="275" y="-859.5" font-family="Helvetica,sans-Serif" font-size="10.00">ObjectRef</text>
<polyline fill="none" stroke="#bfbfbf" points="244,-852.5 306,-852.5 "/>
<text text-anchor="middle" x="275" y="-840.5" font-family="Helvetica,sans-Serif" font-size="10.00"> </text>
<polyline fill="none" stroke="#bfbfbf" points="244,-833.5 306,-833.5 "/>
<text text-anchor="middle" x="275" y="-821.5" font-family="Helvetica,sans-Serif" font-size="10.00"> </text>
</g>
<!-- Node6&#45;&gt;Node5 -->
<g id="edge5" class="edge"><title>Node6&#45;&gt;Node5</title>
<path fill="none" stroke="midnightblue" d="M269.531,-804.264C261.762,-750.658 247.328,-651.062 236.998,-579.784"/>
<polygon fill="none" stroke="midnightblue" points="266.095,-804.956 270.993,-814.35 273.022,-803.952 266.095,-804.956"/>
</g>
<!-- Node8 -->
<g id="node8" class="node"><title>Node8</title>
<g id="a_node8"><a xlink:href="classtvm_1_1BaseExpr.html" target="_top" xlink:title="Managed reference to BaseExprNode. ">
<polygon fill="white" stroke="black" points="275,-653.5 275,-721.5 425,-721.5 425,-653.5 275,-653.5"/>
<text text-anchor="middle" x="350" y="-709.5" font-family="Helvetica,sans-Serif" font-size="10.00">tvm::BaseExpr</text>
<polyline fill="none" stroke="black" points="275,-702.5 425,-702.5 "/>
<text text-anchor="middle" x="350" y="-690.5" font-family="Helvetica,sans-Serif" font-size="10.00"> </text>
<polyline fill="none" stroke="black" points="275,-683.5 425,-683.5 "/>
<text text-anchor="start" x="283" y="-671.5" font-family="Helvetica,sans-Serif" font-size="10.00">+ TVM_DEFINE_OBJECT_REF</text>
<text text-anchor="start" x="283" y="-660.5" font-family="Helvetica,sans-Serif" font-size="10.00">_METHODS()</text>
</a>
</g>
</g>
<!-- Node6&#45;&gt;Node8 -->
<g id="edge8" class="edge"><title>Node6&#45;&gt;Node8</title>
<path fill="none" stroke="midnightblue" d="M293.125,-804.904C305.521,-779.534 321.81,-746.195 333.778,-721.7"/>
<polygon fill="none" stroke="midnightblue" points="289.827,-803.681 288.582,-814.202 296.117,-806.754 289.827,-803.681"/>
</g>
<!-- Node7 -->
<g id="node7" class="node"><title>Node7</title>
<g id="a_node7"><a xlink:href="classtvm_1_1PrimExpr.html" target="_top" xlink:title="Reference to PrimExprNode. ">
<polygon fill="white" stroke="black" points="302,-221 302,-333 452,-333 452,-221 302,-221"/>
<text text-anchor="middle" x="377" y="-321" font-family="Helvetica,sans-Serif" font-size="10.00">tvm::PrimExpr</text>
<polyline fill="none" stroke="black" points="302,-314 452,-314 "/>
<text text-anchor="middle" x="377" y="-302" font-family="Helvetica,sans-Serif" font-size="10.00"> </text>
<polyline fill="none" stroke="black" points="302,-295 452,-295 "/>
<text text-anchor="start" x="310" y="-283" font-family="Helvetica,sans-Serif" font-size="10.00">+ PrimExpr()</text>
<text text-anchor="start" x="310" y="-272" font-family="Helvetica,sans-Serif" font-size="10.00">+ PrimExpr()</text>
<text text-anchor="start" x="310" y="-261" font-family="Helvetica,sans-Serif" font-size="10.00">+ PrimExpr()</text>
<text text-anchor="start" x="310" y="-250" font-family="Helvetica,sans-Serif" font-size="10.00">+ dtype()</text>
<text text-anchor="start" x="310" y="-239" font-family="Helvetica,sans-Serif" font-size="10.00">+ TVM_DEFINE_OBJECT_REF</text>
<text text-anchor="start" x="310" y="-228" font-family="Helvetica,sans-Serif" font-size="10.00">_METHODS()</text>
</a>
</g>
</g>
<!-- Node7&#45;&gt;Node1 -->
<g id="edge6" class="edge"><title>Node7&#45;&gt;Node1</title>
<path fill="none" stroke="#404040" d="M349.704,-220.917C333.441,-188.096 312.776,-146.395 296.049,-112.64"/>
<polygon fill="none" stroke="#404040" points="295.867,-112.273 289.619,-108.673 290.539,-101.521 296.787,-105.121 295.867,-112.273"/>
<text text-anchor="middle" x="336.5" y="-128.5" font-family="Helvetica,sans-Serif" font-size="10.00"> +channels</text>
</g>
<!-- Node8&#45;&gt;Node7 -->
<g id="edge7" class="edge"><title>Node8&#45;&gt;Node7</title>
<path fill="none" stroke="midnightblue" d="M352.848,-643.418C357.783,-568.746 367.919,-415.398 373.358,-333.095"/>
<polygon fill="none" stroke="midnightblue" points="349.354,-643.208 352.187,-653.417 356.339,-643.669 349.354,-643.208"/>
</g>
<!-- Node9 -->
<g id="node9" class="node"><title>Node9</title>
<g id="a_node9"><a xlink:href="classtvm_1_1runtime_1_1DataType.html" target="_top" xlink:title="Runtime primitive data type. ">
<polygon fill="white" stroke="black" points="470.5,-160.5 470.5,-393.5 599.5,-393.5 599.5,-160.5 470.5,-160.5"/>
<text text-anchor="middle" x="535" y="-381.5" font-family="Helvetica,sans-Serif" font-size="10.00">tvm::runtime::DataType</text>
<polyline fill="none" stroke="black" points="470.5,-374.5 599.5,-374.5 "/>
<text text-anchor="middle" x="535" y="-362.5" font-family="Helvetica,sans-Serif" font-size="10.00"> </text>
<polyline fill="none" stroke="black" points="470.5,-355.5 599.5,-355.5 "/>
<text text-anchor="start" x="478.5" y="-343.5" font-family="Helvetica,sans-Serif" font-size="10.00">+ DataType()</text>
<text text-anchor="start" x="478.5" y="-332.5" font-family="Helvetica,sans-Serif" font-size="10.00">+ DataType()</text>
<text text-anchor="start" x="478.5" y="-321.5" font-family="Helvetica,sans-Serif" font-size="10.00">+ DataType()</text>
<text text-anchor="start" x="478.5" y="-310.5" font-family="Helvetica,sans-Serif" font-size="10.00">+ code()</text>
<text text-anchor="start" x="478.5" y="-299.5" font-family="Helvetica,sans-Serif" font-size="10.00">+ bits()</text>
<text text-anchor="start" x="478.5" y="-288.5" font-family="Helvetica,sans-Serif" font-size="10.00">+ bytes()</text>
<text text-anchor="start" x="478.5" y="-277.5" font-family="Helvetica,sans-Serif" font-size="10.00">+ lanes()</text>
<text text-anchor="start" x="478.5" y="-266.5" font-family="Helvetica,sans-Serif" font-size="10.00">+ is_scalar()</text>
<text text-anchor="start" x="478.5" y="-255.5" font-family="Helvetica,sans-Serif" font-size="10.00">+ is_bool()</text>
<text text-anchor="start" x="478.5" y="-244.5" font-family="Helvetica,sans-Serif" font-size="10.00">+ is_float()</text>
<text text-anchor="start" x="478.5" y="-233.5" font-family="Helvetica,sans-Serif" font-size="10.00">and 12 more...</text>
<text text-anchor="start" x="478.5" y="-222.5" font-family="Helvetica,sans-Serif" font-size="10.00">+ Int()</text>
<text text-anchor="start" x="478.5" y="-211.5" font-family="Helvetica,sans-Serif" font-size="10.00">+ UInt()</text>
<text text-anchor="start" x="478.5" y="-200.5" font-family="Helvetica,sans-Serif" font-size="10.00">+ Float()</text>
<text text-anchor="start" x="478.5" y="-189.5" font-family="Helvetica,sans-Serif" font-size="10.00">+ Bool()</text>
<text text-anchor="start" x="478.5" y="-178.5" font-family="Helvetica,sans-Serif" font-size="10.00">+ Handle()</text>
<text text-anchor="start" x="478.5" y="-167.5" font-family="Helvetica,sans-Serif" font-size="10.00">+ ShapeIndex()</text>
</a>
</g>
</g>
<!-- Node9&#45;&gt;Node1 -->
<g id="edge9" class="edge"><title>Node9&#45;&gt;Node1</title>
<path fill="none" stroke="#404040" d="M470.419,-169.544C467.362,-166.221 464.22,-163.026 461,-160 431.227,-132.02 392.847,-108.75 358.022,-91.0637"/>
<polygon fill="none" stroke="#404040" points="357.603,-90.8558 350.45,-91.7699 346.855,-85.5187 354.008,-84.6047 357.603,-90.8558"/>
<text text-anchor="middle" x="470" y="-134" font-family="Helvetica,sans-Serif" font-size="10.00"> +out_dtype</text>
<text text-anchor="middle" x="470" y="-123" font-family="Helvetica,sans-Serif" font-size="10.00">+pack_dtype</text>
</g>
</g>
</svg>
