<?xml version="1.0" encoding="UTF-8" standalone="no"?>
<!DOCTYPE svg PUBLIC "-//W3C//DTD SVG 1.1//EN"
 "http://www.w3.org/Graphics/SVG/1.1/DTD/svg11.dtd">
<!-- Generated by graphviz version 2.38.0 (20140413.2041)
 -->
<!-- Title: include/tvm/node/structural_hash.h Pages: 1 -->
<svg width="1420pt" height="453pt"
 viewBox="0.00 0.00 1420.20 453.00" xmlns="http://www.w3.org/2000/svg" xmlns:xlink="http://www.w3.org/1999/xlink">
<g id="graph0" class="graph" transform="scale(1 1) rotate(0) translate(4 449)">
<title>include/tvm/node/structural_hash.h</title>
<polygon fill="white" stroke="none" points="-4,4 -4,-449 1416.2,-449 1416.2,4 -4,4"/>
<!-- Node1 -->
<g id="node1" class="node"><title>Node1</title>
<polygon fill="#bfbfbf" stroke="black" points="455.197,-414.5 455.197,-444.5 603.197,-444.5 603.197,-414.5 455.197,-414.5"/>
<text text-anchor="start" x="463.197" y="-432.5" font-family="Helvetica,sans-Serif" font-size="10.00">include/tvm/node/structural</text>
<text text-anchor="middle" x="529.197" y="-421.5" font-family="Helvetica,sans-Serif" font-size="10.00">_hash.h</text>
</g>
<!-- Node2 -->
<g id="node2" class="node"><title>Node2</title>
<g id="a_node2"><a xlink:href="data__type_8h.html" target="_top" xlink:title="tvm/runtime/data_type.h">
<polygon fill="white" stroke="black" points="14.1973,-123.5 14.1973,-142.5 150.197,-142.5 150.197,-123.5 14.1973,-123.5"/>
<text text-anchor="middle" x="82.1973" y="-130.5" font-family="Helvetica,sans-Serif" font-size="10.00">tvm/runtime/data_type.h</text>
</a>
</g>
</g>
<!-- Node1&#45;&gt;Node2 -->
<g id="edge1" class="edge"><title>Node1&#45;&gt;Node2</title>
<path fill="none" stroke="midnightblue" d="M454.954,-426.047C314.582,-419.378 24.1973,-395.007 24.1973,-307.5 24.1973,-307.5 24.1973,-307.5 24.1973,-244 24.1973,-207.163 49.9625,-170.565 67.1477,-150.251"/>
<polygon fill="midnightblue" stroke="midnightblue" points="69.9107,-152.41 73.8873,-142.589 64.6547,-147.786 69.9107,-152.41"/>
</g>
<!-- Node9 -->
<g id="node9" class="node"><title>Node9</title>
<g id="a_node9"><a xlink:href="functor_8h.html" target="_top" xlink:title="Defines the Functor data structures. ">
<polygon fill="white" stroke="black" points="171.697,-179.5 171.697,-198.5 278.697,-198.5 278.697,-179.5 171.697,-179.5"/>
<text text-anchor="middle" x="225.197" y="-186.5" font-family="Helvetica,sans-Serif" font-size="10.00">tvm/node/functor.h</text>
</a>
</g>
</g>
<!-- Node1&#45;&gt;Node9 -->
<g id="edge8" class="edge"><title>Node1&#45;&gt;Node9</title>
<path fill="none" stroke="midnightblue" d="M455.011,-415.525C365.615,-398.204 223.477,-364.689 192.197,-322 166.47,-286.888 194.879,-233.93 212.818,-207.011"/>
<polygon fill="midnightblue" stroke="midnightblue" points="215.796,-208.859 218.621,-198.647 210.045,-204.868 215.796,-208.859"/>
</g>
<!-- Node11 -->
<g id="node11" class="node"><title>Node11</title>
<polygon fill="white" stroke="#bfbfbf" points="1255.2,-62 1255.2,-81 1299.2,-81 1299.2,-62 1255.2,-62"/>
<text text-anchor="middle" x="1277.2" y="-69" font-family="Helvetica,sans-Serif" font-size="10.00">string</text>
</g>
<!-- Node1&#45;&gt;Node11 -->
<g id="edge67" class="edge"><title>Node1&#45;&gt;Node11</title>
<path fill="none" stroke="midnightblue" d="M603.341,-426.094C815.892,-418.221 1412.2,-388.879 1412.2,-307.5 1412.2,-307.5 1412.2,-307.5 1412.2,-188 1412.2,-133.859 1348.73,-99.6629 1308.83,-83.514"/>
<polygon fill="midnightblue" stroke="midnightblue" points="1310.08,-80.2443 1299.49,-79.8865 1307.54,-86.7694 1310.08,-80.2443"/>
</g>
<!-- Node15 -->
<g id="node15" class="node"><title>Node15</title>
<g id="a_node15"><a xlink:href="node_2container_8h.html" target="_top" xlink:title="Array/Map container in the DSL graph. ">
<polygon fill="white" stroke="black" points="469.697,-358.5 469.697,-377.5 588.697,-377.5 588.697,-358.5 469.697,-358.5"/>
<text text-anchor="middle" x="529.197" y="-365.5" font-family="Helvetica,sans-Serif" font-size="10.00">tvm/node/container.h</text>
</a>
</g>
</g>
<!-- Node1&#45;&gt;Node15 -->
<g id="edge20" class="edge"><title>Node1&#45;&gt;Node15</title>
<path fill="none" stroke="midnightblue" d="M529.197,-414.399C529.197,-406.466 529.197,-396.458 529.197,-387.858"/>
<polygon fill="midnightblue" stroke="midnightblue" points="532.697,-387.658 529.197,-377.658 525.697,-387.658 532.697,-387.658"/>
</g>
<!-- Node26 -->
<g id="node26" class="node"><title>Node26</title>
<polygon fill="white" stroke="#bfbfbf" points="1282.7,-235.5 1282.7,-254.5 1345.7,-254.5 1345.7,-235.5 1282.7,-235.5"/>
<text text-anchor="middle" x="1314.2" y="-242.5" font-family="Helvetica,sans-Serif" font-size="10.00">functional</text>
</g>
<!-- Node1&#45;&gt;Node26 -->
<g id="edge68" class="edge"><title>Node1&#45;&gt;Node26</title>
<path fill="none" stroke="midnightblue" d="M589.492,-414.483C742.421,-378.929 1142.5,-285.917 1272.64,-255.662"/>
<polygon fill="midnightblue" stroke="midnightblue" points="1273.66,-259.018 1282.61,-253.344 1272.07,-252.199 1273.66,-259.018"/>
</g>
<!-- Node3 -->
<g id="node3" class="node"><title>Node3</title>
<g id="a_node3"><a xlink:href="c__runtime__api_8h.html" target="_top" xlink:title="tvm/runtime/c_runtime\l_api.h">
<polygon fill="white" stroke="black" points="799.697,-56.5 799.697,-86.5 926.697,-86.5 926.697,-56.5 799.697,-56.5"/>
<text text-anchor="start" x="807.697" y="-74.5" font-family="Helvetica,sans-Serif" font-size="10.00">tvm/runtime/c_runtime</text>
<text text-anchor="middle" x="863.197" y="-63.5" font-family="Helvetica,sans-Serif" font-size="10.00">_api.h</text>
</a>
</g>
</g>
<!-- Node2&#45;&gt;Node3 -->
<g id="edge2" class="edge"><title>Node2&#45;&gt;Node3</title>
<path fill="none" stroke="midnightblue" d="M150.265,-128.127C268.25,-121.221 518.344,-105.734 729.197,-87 748.748,-85.263 769.872,-83.1076 789.441,-80.9945"/>
<polygon fill="midnightblue" stroke="midnightblue" points="789.954,-84.4594 799.515,-79.8957 789.195,-77.5006 789.954,-84.4594"/>
</g>
<!-- Node7 -->
<g id="node7" class="node"><title>Node7</title>
<polygon fill="white" stroke="#bfbfbf" points="87.1973,-62 87.1973,-81 173.197,-81 173.197,-62 87.1973,-62"/>
<text text-anchor="middle" x="130.197" y="-69" font-family="Helvetica,sans-Serif" font-size="10.00">dmlc/logging.h</text>
</g>
<!-- Node2&#45;&gt;Node7 -->
<g id="edge6" class="edge"><title>Node2&#45;&gt;Node7</title>
<path fill="none" stroke="midnightblue" d="M89.0746,-123.475C96.3459,-114.462 107.993,-100.025 117.038,-88.8118"/>
<polygon fill="midnightblue" stroke="midnightblue" points="119.778,-90.9898 123.333,-81.0091 114.33,-86.5946 119.778,-90.9898"/>
</g>
<!-- Node8 -->
<g id="node8" class="node"><title>Node8</title>
<polygon fill="white" stroke="#bfbfbf" points="239.197,-62 239.197,-81 307.197,-81 307.197,-62 239.197,-62"/>
<text text-anchor="middle" x="273.197" y="-69" font-family="Helvetica,sans-Serif" font-size="10.00">type_traits</text>
</g>
<!-- Node2&#45;&gt;Node8 -->
<g id="edge7" class="edge"><title>Node2&#45;&gt;Node8</title>
<path fill="none" stroke="midnightblue" d="M109.563,-123.475C142.752,-113.136 198.848,-95.6611 235.955,-84.1017"/>
<polygon fill="midnightblue" stroke="midnightblue" points="237.376,-87.325 245.882,-81.0091 235.294,-80.6417 237.376,-87.325"/>
</g>
<!-- Node4 -->
<g id="node4" class="node"><title>Node4</title>
<polygon fill="white" stroke="#bfbfbf" points="728.197,-0.5 728.197,-19.5 818.197,-19.5 818.197,-0.5 728.197,-0.5"/>
<text text-anchor="middle" x="773.197" y="-7.5" font-family="Helvetica,sans-Serif" font-size="10.00">dlpack/dlpack.h</text>
</g>
<!-- Node3&#45;&gt;Node4 -->
<g id="edge3" class="edge"><title>Node3&#45;&gt;Node4</title>
<path fill="none" stroke="midnightblue" d="M841.869,-56.3993C827.712,-47.0402 809.186,-34.7924 794.944,-25.3771"/>
<polygon fill="midnightblue" stroke="midnightblue" points="796.565,-22.2531 786.293,-19.6578 792.705,-28.0923 796.565,-22.2531"/>
</g>
<!-- Node5 -->
<g id="node5" class="node"><title>Node5</title>
<polygon fill="white" stroke="#bfbfbf" points="836.697,-0.5 836.697,-19.5 889.697,-19.5 889.697,-0.5 836.697,-0.5"/>
<text text-anchor="middle" x="863.197" y="-7.5" font-family="Helvetica,sans-Serif" font-size="10.00">stdint.h</text>
</g>
<!-- Node3&#45;&gt;Node5 -->
<g id="edge4" class="edge"><title>Node3&#45;&gt;Node5</title>
<path fill="none" stroke="midnightblue" d="M863.197,-56.3993C863.197,-48.4664 863.197,-38.458 863.197,-29.8583"/>
<polygon fill="midnightblue" stroke="midnightblue" points="866.697,-29.6577 863.197,-19.6578 859.697,-29.6578 866.697,-29.6577"/>
</g>
<!-- Node6 -->
<g id="node6" class="node"><title>Node6</title>
<polygon fill="white" stroke="#bfbfbf" points="907.697,-0.5 907.697,-19.5 962.697,-19.5 962.697,-0.5 907.697,-0.5"/>
<text text-anchor="middle" x="935.197" y="-7.5" font-family="Helvetica,sans-Serif" font-size="10.00">stddef.h</text>
</g>
<!-- Node3&#45;&gt;Node6 -->
<g id="edge5" class="edge"><title>Node3&#45;&gt;Node6</title>
<path fill="none" stroke="midnightblue" d="M880.26,-56.3993C891.262,-47.3076 905.562,-35.4899 916.815,-26.1909"/>
<polygon fill="midnightblue" stroke="midnightblue" points="919.242,-28.726 924.721,-19.6578 914.783,-23.33 919.242,-28.726"/>
</g>
<!-- Node9&#45;&gt;Node7 -->
<g id="edge9" class="edge"><title>Node9&#45;&gt;Node7</title>
<path fill="none" stroke="midnightblue" d="M218.057,-179.319C202.308,-160.172 164.368,-114.044 143.876,-89.1306"/>
<polygon fill="midnightblue" stroke="midnightblue" points="146.476,-86.7818 137.421,-81.282 141.07,-91.2285 146.476,-86.7818"/>
</g>
<!-- Node9&#45;&gt;Node8 -->
<g id="edge18" class="edge"><title>Node9&#45;&gt;Node8</title>
<path fill="none" stroke="midnightblue" d="M228.805,-179.319C236.589,-160.59 255.1,-116.046 265.595,-90.7924"/>
<polygon fill="midnightblue" stroke="midnightblue" points="268.942,-91.8595 269.548,-81.282 262.478,-89.1731 268.942,-91.8595"/>
</g>
<!-- Node10 -->
<g id="node10" class="node"><title>Node10</title>
<g id="a_node10"><a xlink:href="object_8h.html" target="_top" xlink:title="A managed object in the TVM runtime. ">
<polygon fill="white" stroke="black" points="576.697,-123.5 576.697,-142.5 693.697,-142.5 693.697,-123.5 576.697,-123.5"/>
<text text-anchor="middle" x="635.197" y="-130.5" font-family="Helvetica,sans-Serif" font-size="10.00">tvm/runtime/object.h</text>
</a>
</g>
</g>
<!-- Node9&#45;&gt;Node10 -->
<g id="edge10" class="edge"><title>Node9&#45;&gt;Node10</title>
<path fill="none" stroke="midnightblue" d="M278.798,-180.94C352.59,-171.221 485.516,-153.714 566.515,-143.046"/>
<polygon fill="midnightblue" stroke="midnightblue" points="567.157,-146.492 576.614,-141.716 566.243,-139.552 567.157,-146.492"/>
</g>
<!-- Node12 -->
<g id="node12" class="node"><title>Node12</title>
<polygon fill="white" stroke="#bfbfbf" points="508.197,-62 508.197,-81 550.197,-81 550.197,-62 508.197,-62"/>
<text text-anchor="middle" x="529.197" y="-69" font-family="Helvetica,sans-Serif" font-size="10.00">utility</text>
</g>
<!-- Node9&#45;&gt;Node12 -->
<g id="edge19" class="edge"><title>Node9&#45;&gt;Node12</title>
<path fill="none" stroke="midnightblue" d="M246.767,-179.461C278.541,-166.916 339.829,-142.841 392.197,-123 428.51,-109.242 470.42,-93.8666 498.226,-83.736"/>
<polygon fill="midnightblue" stroke="midnightblue" points="499.595,-86.9623 507.796,-80.2537 497.202,-80.3842 499.595,-86.9623"/>
</g>
<!-- Node14 -->
<g id="node14" class="node"><title>Node14</title>
<polygon fill="white" stroke="#bfbfbf" points="711.697,-123.5 711.697,-142.5 758.697,-142.5 758.697,-123.5 711.697,-123.5"/>
<text text-anchor="middle" x="735.197" y="-130.5" font-family="Helvetica,sans-Serif" font-size="10.00">vector</text>
</g>
<!-- Node9&#45;&gt;Node14 -->
<g id="edge17" class="edge"><title>Node9&#45;&gt;Node14</title>
<path fill="none" stroke="midnightblue" d="M278.715,-184.12C381.843,-176.457 605.633,-158.882 701.553,-142.741"/>
<polygon fill="midnightblue" stroke="midnightblue" points="702.277,-146.167 711.516,-140.983 701.06,-139.274 702.277,-146.167"/>
</g>
<!-- Node10&#45;&gt;Node3 -->
<g id="edge12" class="edge"><title>Node10&#45;&gt;Node3</title>
<path fill="none" stroke="midnightblue" d="M667.864,-123.475C702.135,-114.532 756.866,-100.249 799.688,-89.0738"/>
<polygon fill="midnightblue" stroke="midnightblue" points="800.67,-92.4347 809.462,-86.523 798.902,-85.6615 800.67,-92.4347"/>
</g>
<!-- Node10&#45;&gt;Node7 -->
<g id="edge11" class="edge"><title>Node10&#45;&gt;Node7</title>
<path fill="none" stroke="midnightblue" d="M576.438,-126.092C497.577,-118.021 353.175,-102.743 230.197,-87 215.07,-85.0634 198.684,-82.7698 183.639,-80.5852"/>
<polygon fill="midnightblue" stroke="midnightblue" points="183.871,-77.0819 173.47,-79.0958 182.857,-84.008 183.871,-77.0819"/>
</g>
<!-- Node10&#45;&gt;Node8 -->
<g id="edge13" class="edge"><title>Node10&#45;&gt;Node8</title>
<path fill="none" stroke="midnightblue" d="M583.332,-123.475C512.072,-111.762 385.091,-90.8913 317.842,-79.838"/>
<polygon fill="midnightblue" stroke="midnightblue" points="318.015,-76.3196 307.58,-78.1513 316.88,-83.2269 318.015,-76.3196"/>
</g>
<!-- Node10&#45;&gt;Node11 -->
<g id="edge14" class="edge"><title>Node10&#45;&gt;Node11</title>
<path fill="none" stroke="midnightblue" d="M694.002,-123.923C696.771,-123.599 699.513,-123.289 702.197,-123 898.599,-101.843 948.555,-105.787 1145.2,-87 1179.24,-83.7481 1218.14,-79.3974 1244.84,-76.3125"/>
<polygon fill="midnightblue" stroke="midnightblue" points="1245.27,-79.7871 1254.8,-75.1564 1244.46,-72.8339 1245.27,-79.7871"/>
</g>
<!-- Node10&#45;&gt;Node12 -->
<g id="edge15" class="edge"><title>Node10&#45;&gt;Node12</title>
<path fill="none" stroke="midnightblue" d="M620.01,-123.475C602.536,-113.666 573.619,-97.4346 553.114,-85.925"/>
<polygon fill="midnightblue" stroke="midnightblue" points="554.79,-82.8519 544.356,-81.0091 551.363,-88.956 554.79,-82.8519"/>
</g>
<!-- Node13 -->
<g id="node13" class="node"><title>Node13</title>
<polygon fill="white" stroke="#bfbfbf" points="670.197,-62 670.197,-81 720.197,-81 720.197,-62 670.197,-62"/>
<text text-anchor="middle" x="695.197" y="-69" font-family="Helvetica,sans-Serif" font-size="10.00">atomic</text>
</g>
<!-- Node10&#45;&gt;Node13 -->
<g id="edge16" class="edge"><title>Node10&#45;&gt;Node13</title>
<path fill="none" stroke="midnightblue" d="M643.794,-123.475C653.061,-114.285 668.014,-99.4563 679.41,-88.156"/>
<polygon fill="midnightblue" stroke="midnightblue" points="681.981,-90.5358 686.617,-81.0091 677.052,-85.5653 681.981,-90.5358"/>
</g>
<!-- Node15&#45;&gt;Node8 -->
<g id="edge61" class="edge"><title>Node15&#45;&gt;Node8</title>
<path fill="none" stroke="midnightblue" d="M469.601,-366.871C383.94,-365.418 231.927,-357.709 192.197,-322 143.9,-278.59 136.727,-238.736 162.197,-179 179.984,-137.285 223.011,-104.053 249.969,-86.4031"/>
<polygon fill="midnightblue" stroke="midnightblue" points="251.871,-89.3414 258.436,-81.0253 248.118,-83.4326 251.871,-89.3414"/>
</g>
<!-- Node15&#45;&gt;Node10 -->
<g id="edge21" class="edge"><title>Node15&#45;&gt;Node10</title>
<path fill="none" stroke="midnightblue" d="M533.096,-358.431C548.514,-324.541 605.435,-199.42 626.918,-152.2"/>
<polygon fill="midnightblue" stroke="midnightblue" points="630.195,-153.447 631.15,-142.896 623.823,-150.549 630.195,-153.447"/>
</g>
<!-- Node15&#45;&gt;Node11 -->
<g id="edge66" class="edge"><title>Node15&#45;&gt;Node11</title>
<path fill="none" stroke="midnightblue" d="M588.953,-364.743C781.647,-356.679 1374.2,-325.425 1374.2,-246 1374.2,-246 1374.2,-246 1374.2,-188 1374.2,-142.634 1329.77,-105.772 1301.05,-86.682"/>
<polygon fill="midnightblue" stroke="midnightblue" points="1302.66,-83.5593 1292.35,-81.1201 1298.89,-89.4565 1302.66,-83.5593"/>
</g>
<!-- Node15&#45;&gt;Node12 -->
<g id="edge65" class="edge"><title>Node15&#45;&gt;Node12</title>
<path fill="none" stroke="midnightblue" d="M510.137,-358.372C459.495,-334.12 327.856,-261.695 364.197,-179 388.413,-123.896 457.697,-94.1452 498.375,-80.9854"/>
<polygon fill="midnightblue" stroke="midnightblue" points="499.536,-84.29 508.055,-77.9918 497.467,-77.6024 499.536,-84.29"/>
</g>
<!-- Node15&#45;&gt;Node14 -->
<g id="edge62" class="edge"><title>Node15&#45;&gt;Node14</title>
<path fill="none" stroke="midnightblue" d="M529.746,-358.497C530.999,-343.873 534.978,-313.373 547.197,-291 580.343,-230.311 600.483,-221.287 655.197,-179 671.277,-166.572 691.19,-155.359 707.126,-147.234"/>
<polygon fill="midnightblue" stroke="midnightblue" points="709.068,-150.177 716.465,-142.592 705.952,-143.909 709.068,-150.177"/>
</g>
<!-- Node16 -->
<g id="node16" class="node"><title>Node16</title>
<g id="a_node16"><a xlink:href="runtime_2memory_8h.html" target="_top" xlink:title="Runtime memory management. ">
<polygon fill="white" stroke="black" points="373.697,-179.5 373.697,-198.5 500.697,-198.5 500.697,-179.5 373.697,-179.5"/>
<text text-anchor="middle" x="437.197" y="-186.5" font-family="Helvetica,sans-Serif" font-size="10.00">tvm/runtime/memory.h</text>
</a>
</g>
</g>
<!-- Node15&#45;&gt;Node16 -->
<g id="edge22" class="edge"><title>Node15&#45;&gt;Node16</title>
<path fill="none" stroke="midnightblue" d="M524.76,-358.463C510.587,-331.195 466.192,-245.783 446.622,-208.133"/>
<polygon fill="midnightblue" stroke="midnightblue" points="449.524,-206.127 441.807,-198.868 443.313,-209.356 449.524,-206.127"/>
</g>
<!-- Node18 -->
<g id="node18" class="node"><title>Node18</title>
<g id="a_node18"><a xlink:href="packed__func_8h.html" target="_top" xlink:title="Type&#45;erased function used across TVM API. ">
<polygon fill="white" stroke="black" points="798.697,-291.5 798.697,-321.5 911.697,-321.5 911.697,-291.5 798.697,-291.5"/>
<text text-anchor="start" x="806.697" y="-309.5" font-family="Helvetica,sans-Serif" font-size="10.00">tvm/runtime/packed</text>
<text text-anchor="middle" x="855.197" y="-298.5" font-family="Helvetica,sans-Serif" font-size="10.00">_func.h</text>
</a>
</g>
</g>
<!-- Node15&#45;&gt;Node18 -->
<g id="edge27" class="edge"><title>Node15&#45;&gt;Node18</title>
<path fill="none" stroke="midnightblue" d="M575.905,-358.475C631.639,-348.303 725.222,-331.222 788.545,-319.665"/>
<polygon fill="midnightblue" stroke="midnightblue" points="789.228,-323.098 798.437,-317.86 787.971,-316.212 789.228,-323.098"/>
</g>
<!-- Node22 -->
<g id="node22" class="node"><title>Node22</title>
<polygon fill="white" stroke="#bfbfbf" points="671.697,-179.5 671.697,-198.5 764.697,-198.5 764.697,-179.5 671.697,-179.5"/>
<text text-anchor="middle" x="718.197" y="-186.5" font-family="Helvetica,sans-Serif" font-size="10.00">unordered_map</text>
</g>
<!-- Node15&#45;&gt;Node22 -->
<g id="edge64" class="edge"><title>Node15&#45;&gt;Node22</title>
<path fill="none" stroke="midnightblue" d="M539.7,-358.196C550.306,-349.239 567.092,-334.882 581.197,-322 626.092,-281.001 677.257,-230.714 702.464,-205.694"/>
<polygon fill="midnightblue" stroke="midnightblue" points="705.072,-208.036 709.694,-198.502 700.136,-203.072 705.072,-208.036"/>
</g>
<!-- Node29 -->
<g id="node29" class="node"><title>Node29</title>
<polygon fill="white" stroke="#bfbfbf" points="201.697,-297 201.697,-316 278.697,-316 278.697,-297 201.697,-297"/>
<text text-anchor="middle" x="240.197" y="-304" font-family="Helvetica,sans-Serif" font-size="10.00">initializer_list</text>
</g>
<!-- Node15&#45;&gt;Node29 -->
<g id="edge63" class="edge"><title>Node15&#45;&gt;Node29</title>
<path fill="none" stroke="midnightblue" d="M478.315,-358.49C430.355,-350.187 356.586,-336.69 293.197,-322 288.792,-320.979 284.2,-319.839 279.643,-318.659"/>
<polygon fill="midnightblue" stroke="midnightblue" points="280.37,-315.231 269.806,-316.042 278.57,-321.995 280.37,-315.231"/>
</g>
<!-- Node16&#45;&gt;Node8 -->
<g id="edge26" class="edge"><title>Node16&#45;&gt;Node8</title>
<path fill="none" stroke="midnightblue" d="M424.871,-179.319C396.971,-159.67 328.728,-111.609 294.094,-87.2169"/>
<polygon fill="midnightblue" stroke="midnightblue" points="295.858,-84.1785 285.667,-81.282 291.828,-89.9016 295.858,-84.1785"/>
</g>
<!-- Node16&#45;&gt;Node10 -->
<g id="edge23" class="edge"><title>Node16&#45;&gt;Node10</title>
<path fill="none" stroke="midnightblue" d="M468.571,-179.444C502.46,-170.201 556.6,-155.436 593.921,-145.257"/>
<polygon fill="midnightblue" stroke="midnightblue" points="595.244,-148.524 603.97,-142.516 593.402,-141.771 595.244,-148.524"/>
</g>
<!-- Node16&#45;&gt;Node12 -->
<g id="edge25" class="edge"><title>Node16&#45;&gt;Node12</title>
<path fill="none" stroke="midnightblue" d="M449.68,-179.435C461.197,-171.093 478.268,-157.57 490.197,-143 503.445,-126.82 514.52,-105.495 521.442,-90.5514"/>
<polygon fill="midnightblue" stroke="midnightblue" points="524.662,-91.9253 525.547,-81.3675 518.271,-89.069 524.662,-91.9253"/>
</g>
<!-- Node17 -->
<g id="node17" class="node"><title>Node17</title>
<polygon fill="white" stroke="#bfbfbf" points="434.697,-123.5 434.697,-142.5 481.697,-142.5 481.697,-123.5 434.697,-123.5"/>
<text text-anchor="middle" x="458.197" y="-130.5" font-family="Helvetica,sans-Serif" font-size="10.00">cstdlib</text>
</g>
<!-- Node16&#45;&gt;Node17 -->
<g id="edge24" class="edge"><title>Node16&#45;&gt;Node17</title>
<path fill="none" stroke="midnightblue" d="M440.665,-179.083C443.509,-171.77 447.627,-161.181 451.157,-152.103"/>
<polygon fill="midnightblue" stroke="midnightblue" points="454.432,-153.34 454.794,-142.751 447.908,-150.803 454.432,-153.34"/>
</g>
<!-- Node18&#45;&gt;Node2 -->
<g id="edge51" class="edge"><title>Node18&#45;&gt;Node2</title>
<path fill="none" stroke="midnightblue" d="M798.588,-301.142C654.033,-289.332 274.763,-253.864 162.197,-199 136.952,-186.695 112.594,-165.049 97.5231,-150.139"/>
<polygon fill="midnightblue" stroke="midnightblue" points="99.6664,-147.327 90.1592,-142.651 94.6753,-152.235 99.6664,-147.327"/>
</g>
<!-- Node18&#45;&gt;Node3 -->
<g id="edge29" class="edge"><title>Node18&#45;&gt;Node3</title>
<path fill="none" stroke="midnightblue" d="M911.773,-298.466C982.695,-289.133 1099.86,-271.864 1140.2,-255 1179.9,-238.399 1199.44,-237.232 1219.2,-199 1223.28,-191.104 1224.4,-186.206 1219.2,-179 1202.22,-155.487 1033.44,-112.458 934.492,-88.9319"/>
<polygon fill="midnightblue" stroke="midnightblue" points="935.091,-85.4771 924.554,-86.5786 933.478,-92.2888 935.091,-85.4771"/>
</g>
<!-- Node18&#45;&gt;Node7 -->
<g id="edge28" class="edge"><title>Node18&#45;&gt;Node7</title>
<path fill="none" stroke="midnightblue" d="M798.638,-304.675C622.719,-300.698 91.782,-277.557 5.19733,-143 -15.6284,-110.636 34.1879,-91.6605 76.979,-81.6998"/>
<polygon fill="midnightblue" stroke="midnightblue" points="77.8007,-85.1028 86.814,-79.5341 76.2953,-78.2665 77.8007,-85.1028"/>
</g>
<!-- Node18&#45;&gt;Node8 -->
<g id="edge60" class="edge"><title>Node18&#45;&gt;Node8</title>
<path fill="none" stroke="midnightblue" d="M798.311,-305.975C701.314,-304.166 501.146,-288.801 364.197,-199 322.671,-171.77 293.912,-118.556 280.959,-90.6175"/>
<polygon fill="midnightblue" stroke="midnightblue" points="284.051,-88.9564 276.776,-81.2542 277.66,-91.8121 284.051,-88.9564"/>
</g>
<!-- Node18&#45;&gt;Node10 -->
<g id="edge52" class="edge"><title>Node18&#45;&gt;Node10</title>
<path fill="none" stroke="midnightblue" d="M849.854,-291.477C839.241,-265.47 813.035,-209.628 773.197,-179 751.504,-162.322 723.386,-151.696 698.195,-144.989"/>
<polygon fill="midnightblue" stroke="midnightblue" points="698.891,-141.555 688.341,-142.52 697.19,-148.345 698.891,-141.555"/>
</g>
<!-- Node18&#45;&gt;Node11 -->
<g id="edge56" class="edge"><title>Node18&#45;&gt;Node11</title>
<path fill="none" stroke="midnightblue" d="M911.939,-298.546C998.214,-287.685 1154.87,-266.727 1178.2,-255 1209.93,-239.049 1216.41,-229.138 1235.2,-199 1256.95,-164.103 1268.74,-116.7 1273.92,-90.968"/>
<polygon fill="midnightblue" stroke="midnightblue" points="1277.37,-91.5559 1275.79,-81.079 1270.49,-90.2519 1277.37,-91.5559"/>
</g>
<!-- Node18&#45;&gt;Node12 -->
<g id="edge59" class="edge"><title>Node18&#45;&gt;Node12</title>
<path fill="none" stroke="midnightblue" d="M798.447,-294.47C765.674,-286.56 724.483,-273.91 691.197,-255 626.627,-218.316 613.039,-201.426 567.197,-143 554.489,-126.803 543.77,-105.759 536.989,-90.8923"/>
<polygon fill="midnightblue" stroke="midnightblue" points="540.007,-89.0604 532.776,-81.3166 533.6,-91.8794 540.007,-89.0604"/>
</g>
<!-- Node18&#45;&gt;Node14 -->
<g id="edge55" class="edge"><title>Node18&#45;&gt;Node14</title>
<path fill="none" stroke="midnightblue" d="M798.798,-291.416C753.034,-276.688 691.477,-248.599 662.197,-199 649.117,-176.842 677.141,-158.129 702.167,-146.554"/>
<polygon fill="midnightblue" stroke="midnightblue" points="703.752,-149.681 711.519,-142.475 700.954,-143.264 703.752,-149.681"/>
</g>
<!-- Node19 -->
<g id="node19" class="node"><title>Node19</title>
<g id="a_node19"><a xlink:href="runtime_2module_8h.html" target="_top" xlink:title="Runtime container of the functions generated by TVM, This is used to support dynamically link...">
<polygon fill="white" stroke="black" points="979.197,-235.5 979.197,-254.5 1103.2,-254.5 1103.2,-235.5 979.197,-235.5"/>
<text text-anchor="middle" x="1041.2" y="-242.5" font-family="Helvetica,sans-Serif" font-size="10.00">tvm/runtime/module.h</text>
</a>
</g>
</g>
<!-- Node18&#45;&gt;Node19 -->
<g id="edge30" class="edge"><title>Node18&#45;&gt;Node19</title>
<path fill="none" stroke="midnightblue" d="M893.437,-291.399C924.391,-281.073 967.786,-267.231 999.601,-257.556"/>
<polygon fill="midnightblue" stroke="midnightblue" points="1000.93,-260.811 1009.49,-254.571 998.909,-254.109 1000.93,-260.811"/>
</g>
<!-- Node21 -->
<g id="node21" class="node"><title>Node21</title>
<polygon fill="white" stroke="#bfbfbf" points="1153.7,-179.5 1153.7,-198.5 1210.7,-198.5 1210.7,-179.5 1153.7,-179.5"/>
<text text-anchor="middle" x="1182.2" y="-186.5" font-family="Helvetica,sans-Serif" font-size="10.00">memory</text>
</g>
<!-- Node18&#45;&gt;Node21 -->
<g id="edge58" class="edge"><title>Node18&#45;&gt;Node21</title>
<path fill="none" stroke="midnightblue" d="M911.72,-303.264C965.814,-299.133 1048.38,-287.511 1112.2,-255 1135.17,-243.294 1156.06,-221.83 1168.92,-206.779"/>
<polygon fill="midnightblue" stroke="midnightblue" points="1171.86,-208.722 1175.52,-198.781 1166.46,-204.266 1171.86,-208.722"/>
</g>
<!-- Node23 -->
<g id="node23" class="node"><title>Node23</title>
<g id="a_node23"><a xlink:href="ndarray_8h.html" target="_top" xlink:title="A device&#45;independent managed NDArray abstraction. ">
<polygon fill="white" stroke="black" points="897.697,-179.5 897.697,-198.5 1020.7,-198.5 1020.7,-179.5 897.697,-179.5"/>
<text text-anchor="middle" x="959.197" y="-186.5" font-family="Helvetica,sans-Serif" font-size="10.00">tvm/runtime/ndarray.h</text>
</a>
</g>
</g>
<!-- Node18&#45;&gt;Node23 -->
<g id="edge40" class="edge"><title>Node18&#45;&gt;Node23</title>
<path fill="none" stroke="midnightblue" d="M849.484,-291.487C844.271,-276.25 838.939,-251.827 850.197,-235 861.103,-218.699 879.111,-208.296 897.379,-201.66"/>
<polygon fill="midnightblue" stroke="midnightblue" points="898.513,-204.972 906.919,-198.522 896.326,-198.322 898.513,-204.972"/>
</g>
<!-- Node18&#45;&gt;Node26 -->
<g id="edge53" class="edge"><title>Node18&#45;&gt;Node26</title>
<path fill="none" stroke="midnightblue" d="M911.825,-299.872C991.566,-291.653 1141.39,-275.132 1268.2,-255 1269.65,-254.769 1271.14,-254.525 1272.63,-254.272"/>
<polygon fill="midnightblue" stroke="midnightblue" points="1273.35,-257.699 1282.58,-252.495 1272.12,-250.808 1273.35,-257.699"/>
</g>
<!-- Node27 -->
<g id="node27" class="node"><title>Node27</title>
<polygon fill="white" stroke="#bfbfbf" points="859.697,-235.5 859.697,-254.5 900.697,-254.5 900.697,-235.5 859.697,-235.5"/>
<text text-anchor="middle" x="880.197" y="-242.5" font-family="Helvetica,sans-Serif" font-size="10.00">tuple</text>
</g>
<!-- Node18&#45;&gt;Node27 -->
<g id="edge54" class="edge"><title>Node18&#45;&gt;Node27</title>
<path fill="none" stroke="midnightblue" d="M861.122,-291.399C864.568,-283.199 868.945,-272.781 872.637,-263.994"/>
<polygon fill="midnightblue" stroke="midnightblue" points="875.913,-265.233 876.56,-254.658 869.459,-262.521 875.913,-265.233"/>
</g>
<!-- Node28 -->
<g id="node28" class="node"><title>Node28</title>
<polygon fill="white" stroke="#bfbfbf" points="919.197,-235.5 919.197,-254.5 961.197,-254.5 961.197,-235.5 919.197,-235.5"/>
<text text-anchor="middle" x="940.197" y="-242.5" font-family="Helvetica,sans-Serif" font-size="10.00">limits</text>
</g>
<!-- Node18&#45;&gt;Node28 -->
<g id="edge57" class="edge"><title>Node18&#45;&gt;Node28</title>
<path fill="none" stroke="midnightblue" d="M875.341,-291.399C888.584,-282.129 905.875,-270.025 919.273,-260.647"/>
<polygon fill="midnightblue" stroke="midnightblue" points="921.644,-263.26 927.829,-254.658 917.63,-257.525 921.644,-263.26"/>
</g>
<!-- Node19&#45;&gt;Node3 -->
<g id="edge32" class="edge"><title>Node19&#45;&gt;Node3</title>
<path fill="none" stroke="midnightblue" d="M1043.31,-235.497C1048.14,-213.946 1057.52,-156.517 1030.2,-123 1023.48,-114.76 973.912,-100.372 930.508,-89.0554"/>
<polygon fill="midnightblue" stroke="midnightblue" points="931.345,-85.6567 920.788,-86.5446 929.595,-92.4343 931.345,-85.6567"/>
</g>
<!-- Node19&#45;&gt;Node10 -->
<g id="edge33" class="edge"><title>Node19&#45;&gt;Node10</title>
<path fill="none" stroke="midnightblue" d="M986.865,-235.431C946.902,-228.196 891.681,-216.236 845.197,-199 827.303,-192.365 824.99,-185.905 807.197,-179 768.567,-164.009 723.152,-152.365 688.692,-144.681"/>
<polygon fill="midnightblue" stroke="midnightblue" points="689.342,-141.24 678.825,-142.522 687.845,-148.079 689.342,-141.24"/>
</g>
<!-- Node19&#45;&gt;Node11 -->
<g id="edge37" class="edge"><title>Node19&#45;&gt;Node11</title>
<path fill="none" stroke="midnightblue" d="M1052.9,-235.495C1090.65,-208.065 1209.48,-121.708 1257.14,-87.0776"/>
<polygon fill="midnightblue" stroke="midnightblue" points="1259.39,-89.7661 1265.42,-81.056 1255.28,-84.1034 1259.39,-89.7661"/>
</g>
<!-- Node19&#45;&gt;Node14 -->
<g id="edge36" class="edge"><title>Node19&#45;&gt;Node14</title>
<path fill="none" stroke="midnightblue" d="M1006.69,-235.428C975.356,-227.276 928.092,-214.049 888.197,-199 868.476,-191.561 864.512,-187.437 845.197,-179 818.962,-167.54 788.852,-155.284 766.775,-146.46"/>
<polygon fill="midnightblue" stroke="midnightblue" points="767.824,-143.111 757.239,-142.663 765.235,-149.614 767.824,-143.111"/>
</g>
<!-- Node19&#45;&gt;Node16 -->
<g id="edge34" class="edge"><title>Node19&#45;&gt;Node16</title>
<path fill="none" stroke="midnightblue" d="M978.876,-235.95C975.944,-235.619 973.039,-235.3 970.197,-235 806.418,-217.714 613.766,-202.782 510.843,-195.238"/>
<polygon fill="midnightblue" stroke="midnightblue" points="511.093,-191.747 500.864,-194.509 510.583,-198.729 511.093,-191.747"/>
</g>
<!-- Node19&#45;&gt;Node18 -->
<g id="edge39" class="edge"><title>Node19&#45;&gt;Node18</title>
<path fill="none" stroke="midnightblue" d="M1019.31,-254.571C993.729,-263.367 950.62,-277.292 914.957,-288.36"/>
<polygon fill="midnightblue" stroke="midnightblue" points="913.638,-285.104 905.117,-291.399 915.704,-291.792 913.638,-285.104"/>
</g>
<!-- Node20 -->
<g id="node20" class="node"><title>Node20</title>
<polygon fill="white" stroke="#bfbfbf" points="1076.2,-62 1076.2,-81 1136.2,-81 1136.2,-62 1076.2,-62"/>
<text text-anchor="middle" x="1106.2" y="-69" font-family="Helvetica,sans-Serif" font-size="10.00">dmlc/io.h</text>
</g>
<!-- Node19&#45;&gt;Node20 -->
<g id="edge31" class="edge"><title>Node19&#45;&gt;Node20</title>
<path fill="none" stroke="midnightblue" d="M1045.92,-235.188C1050.62,-226.225 1057.89,-211.863 1063.2,-199 1078.69,-161.437 1093.11,-116.05 1100.68,-91.1347"/>
<polygon fill="midnightblue" stroke="midnightblue" points="1104.13,-91.8132 1103.65,-81.2292 1097.42,-89.8017 1104.13,-91.8132"/>
</g>
<!-- Node19&#45;&gt;Node21 -->
<g id="edge35" class="edge"><title>Node19&#45;&gt;Node21</title>
<path fill="none" stroke="midnightblue" d="M1063.54,-235.444C1086.95,-226.478 1123.93,-212.314 1150.39,-202.183"/>
<polygon fill="midnightblue" stroke="midnightblue" points="1151.87,-205.361 1159.96,-198.516 1149.37,-198.824 1151.87,-205.361"/>
</g>
<!-- Node19&#45;&gt;Node22 -->
<g id="edge38" class="edge"><title>Node19&#45;&gt;Node22</title>
<path fill="none" stroke="midnightblue" d="M990.017,-235.444C931.498,-225.66 835.963,-209.688 775.137,-199.519"/>
<polygon fill="midnightblue" stroke="midnightblue" points="775.383,-196.012 764.943,-197.815 774.229,-202.916 775.383,-196.012"/>
</g>
<!-- Node23&#45;&gt;Node3 -->
<g id="edge41" class="edge"><title>Node23&#45;&gt;Node3</title>
<path fill="none" stroke="midnightblue" d="M934.568,-179.417C917.467,-172.235 895.454,-160.346 882.197,-143 872.076,-129.757 867.34,-111.52 865.126,-96.9125"/>
<polygon fill="midnightblue" stroke="midnightblue" points="868.554,-96.0995 863.878,-86.592 861.604,-96.9399 868.554,-96.0995"/>
</g>
<!-- Node23&#45;&gt;Node10 -->
<g id="edge42" class="edge"><title>Node23&#45;&gt;Node10</title>
<path fill="none" stroke="midnightblue" d="M907.859,-179.444C850.39,-169.865 757.331,-154.356 696.197,-144.167"/>
<polygon fill="midnightblue" stroke="midnightblue" points="696.735,-140.708 686.296,-142.516 695.584,-147.613 696.735,-140.708"/>
</g>
<!-- Node23&#45;&gt;Node12 -->
<g id="edge50" class="edge"><title>Node23&#45;&gt;Node12</title>
<path fill="none" stroke="midnightblue" d="M924.775,-179.47C893.814,-171.392 847.319,-158.252 808.197,-143 789.307,-135.636 786.368,-129.598 767.197,-123 695.128,-98.1964 606.411,-83.2691 560.321,-76.6184"/>
<polygon fill="midnightblue" stroke="midnightblue" points="560.745,-73.1437 550.355,-75.2142 559.768,-80.0752 560.745,-73.1437"/>
</g>
<!-- Node23&#45;&gt;Node13 -->
<g id="edge48" class="edge"><title>Node23&#45;&gt;Node13</title>
<path fill="none" stroke="midnightblue" d="M939.354,-179.319C893.183,-159.119 778.376,-108.891 724.275,-85.2216"/>
<polygon fill="midnightblue" stroke="midnightblue" points="725.475,-81.9261 714.91,-81.1245 722.669,-88.3393 725.475,-81.9261"/>
</g>
<!-- Node23&#45;&gt;Node14 -->
<g id="edge49" class="edge"><title>Node23&#45;&gt;Node14</title>
<path fill="none" stroke="midnightblue" d="M923.704,-179.444C881.171,-169.19 810.439,-152.139 768.775,-142.095"/>
<polygon fill="midnightblue" stroke="midnightblue" points="769.385,-138.641 758.843,-139.7 767.744,-145.447 769.385,-138.641"/>
</g>
<!-- Node24 -->
<g id="node24" class="node"><title>Node24</title>
<g id="a_node24"><a xlink:href="serializer_8h.html" target="_top" xlink:title="Serializer extension to support TVM data types Include this file to enable serialization of DLDataTyp...">
<polygon fill="white" stroke="black" points="891.197,-123.5 891.197,-142.5 1021.2,-142.5 1021.2,-123.5 891.197,-123.5"/>
<text text-anchor="middle" x="956.197" y="-130.5" font-family="Helvetica,sans-Serif" font-size="10.00">tvm/runtime/serializer.h</text>
</a>
</g>
</g>
<!-- Node23&#45;&gt;Node24 -->
<g id="edge43" class="edge"><title>Node23&#45;&gt;Node24</title>
<path fill="none" stroke="midnightblue" d="M953.536,-179.083C951.65,-172.006 950.649,-161.861 950.774,-152.986"/>
<polygon fill="midnightblue" stroke="midnightblue" points="954.284,-152.988 951.552,-142.751 947.304,-152.457 954.284,-152.988"/>
</g>
<!-- Node24&#45;&gt;Node3 -->
<g id="edge46" class="edge"><title>Node24&#45;&gt;Node3</title>
<path fill="none" stroke="midnightblue" d="M942.873,-123.475C930.159,-115.341 910.543,-102.791 893.956,-92.1788"/>
<polygon fill="midnightblue" stroke="midnightblue" points="895.425,-88.964 885.116,-86.523 891.653,-94.8605 895.425,-88.964"/>
</g>
<!-- Node24&#45;&gt;Node20 -->
<g id="edge44" class="edge"><title>Node24&#45;&gt;Node20</title>
<path fill="none" stroke="midnightblue" d="M977.689,-123.475C1003.31,-113.313 1046.31,-96.2564 1075.44,-84.6996"/>
<polygon fill="midnightblue" stroke="midnightblue" points="1076.74,-87.9497 1084.75,-81.0091 1074.16,-81.4429 1076.74,-87.9497"/>
</g>
<!-- Node24&#45;&gt;Node23 -->
<g id="edge47" class="edge"><title>Node24&#45;&gt;Node23</title>
<path fill="none" stroke="midnightblue" d="M961.815,-142.751C963.736,-149.858 964.754,-160.136 964.62,-169.101"/>
<polygon fill="midnightblue" stroke="midnightblue" points="961.129,-168.848 963.868,-179.083 968.109,-169.374 961.129,-168.848"/>
</g>
<!-- Node25 -->
<g id="node25" class="node"><title>Node25</title>
<polygon fill="white" stroke="#bfbfbf" points="945.197,-62 945.197,-81 1039.2,-81 1039.2,-62 945.197,-62"/>
<text text-anchor="middle" x="992.197" y="-69" font-family="Helvetica,sans-Serif" font-size="10.00">dmlc/serializer.h</text>
</g>
<!-- Node24&#45;&gt;Node25 -->
<g id="edge45" class="edge"><title>Node24&#45;&gt;Node25</title>
<path fill="none" stroke="midnightblue" d="M961.355,-123.475C966.648,-114.727 975.033,-100.869 981.724,-89.8093"/>
<polygon fill="midnightblue" stroke="midnightblue" points="984.867,-91.3768 987.049,-81.0091 978.878,-87.7531 984.867,-91.3768"/>
</g>
</g>
</svg>
