<?xml version="1.0" encoding="UTF-8" standalone="no"?>
<!DOCTYPE svg PUBLIC "-//W3C//DTD SVG 1.1//EN"
 "http://www.w3.org/Graphics/SVG/1.1/DTD/svg11.dtd">
<!-- Generated by graphviz version 2.38.0 (20140413.2041)
 -->
<!-- Title: include/tvm/te/tensor_intrin.h Pages: 1 -->
<svg width="2788pt" height="1024pt"
 viewBox="0.00 0.00 2788.00 1024.00" xmlns="http://www.w3.org/2000/svg" xmlns:xlink="http://www.w3.org/1999/xlink">
<g id="graph0" class="graph" transform="scale(1 1) rotate(0) translate(4 1020)">
<title>include/tvm/te/tensor_intrin.h</title>
<polygon fill="white" stroke="none" points="-4,4 -4,-1020 2784,-1020 2784,4 -4,4"/>
<!-- Node1 -->
<g id="node1" class="node"><title>Node1</title>
<polygon fill="#bfbfbf" stroke="black" points="394.5,-985.5 394.5,-1015.5 513.5,-1015.5 513.5,-985.5 394.5,-985.5"/>
<text text-anchor="start" x="402.5" y="-1003.5" font-family="Helvetica,sans-Serif" font-size="10.00">include/tvm/te/tensor</text>
<text text-anchor="middle" x="454" y="-992.5" font-family="Helvetica,sans-Serif" font-size="10.00">_intrin.h</text>
</g>
<!-- Node2 -->
<g id="node2" class="node"><title>Node2</title>
<g id="a_node2"><a xlink:href="tensor_8h.html" target="_top" xlink:title="Dataflow tensor object. ">
<polygon fill="white" stroke="black" points="525,-929.5 525,-948.5 615,-948.5 615,-929.5 525,-929.5"/>
<text text-anchor="middle" x="570" y="-936.5" font-family="Helvetica,sans-Serif" font-size="10.00">tvm/te/tensor.h</text>
</a>
</g>
</g>
<!-- Node1&#45;&gt;Node2 -->
<g id="edge1" class="edge"><title>Node1&#45;&gt;Node2</title>
<path fill="none" stroke="midnightblue" d="M481.49,-985.399C500.432,-975.684 525.442,-962.855 544.044,-953.314"/>
<polygon fill="midnightblue" stroke="midnightblue" points="545.821,-956.336 553.121,-948.658 542.626,-950.108 545.821,-956.336"/>
</g>
<!-- Node11 -->
<g id="node11" class="node"><title>Node11</title>
<polygon fill="white" stroke="#bfbfbf" points="403,-62 403,-81 447,-81 447,-62 403,-62"/>
<text text-anchor="middle" x="425" y="-69" font-family="Helvetica,sans-Serif" font-size="10.00">string</text>
</g>
<!-- Node1&#45;&gt;Node11 -->
<g id="edge162" class="edge"><title>Node1&#45;&gt;Node11</title>
<path fill="none" stroke="midnightblue" d="M394.181,-996.772C270.9,-989.514 0,-964.415 0,-884 0,-884 0,-884 0,-188 0,-153.844 12.2333,-141.415 41,-123 99.1274,-85.7906 310.953,-75.784 392.602,-73.2796"/>
<polygon fill="midnightblue" stroke="midnightblue" points="392.891,-76.7728 402.786,-72.9858 392.69,-69.7757 392.891,-76.7728"/>
</g>
<!-- Node46 -->
<g id="node46" class="node"><title>Node46</title>
<g id="a_node46"><a xlink:href="buffer_8h.html" target="_top" xlink:title="Symbolic n&#45;dimensional array, to represent a memory buffer. ">
<polygon fill="white" stroke="black" points="410.5,-929.5 410.5,-948.5 497.5,-948.5 497.5,-929.5 410.5,-929.5"/>
<text text-anchor="middle" x="454" y="-936.5" font-family="Helvetica,sans-Serif" font-size="10.00">tvm/tir/buffer.h</text>
</a>
</g>
</g>
<!-- Node1&#45;&gt;Node46 -->
<g id="edge157" class="edge"><title>Node1&#45;&gt;Node46</title>
<path fill="none" stroke="midnightblue" d="M454,-985.399C454,-977.466 454,-967.458 454,-958.858"/>
<polygon fill="midnightblue" stroke="midnightblue" points="457.5,-958.658 454,-948.658 450.5,-958.658 457.5,-958.658"/>
</g>
<!-- Node3 -->
<g id="node3" class="node"><title>Node3</title>
<g id="a_node3"><a xlink:href="node_2container_8h.html" target="_top" xlink:title="Array/Map container in the DSL graph. ">
<polygon fill="white" stroke="black" points="2084.5,-358.5 2084.5,-377.5 2203.5,-377.5 2203.5,-358.5 2084.5,-358.5"/>
<text text-anchor="middle" x="2144" y="-365.5" font-family="Helvetica,sans-Serif" font-size="10.00">tvm/node/container.h</text>
</a>
</g>
</g>
<!-- Node2&#45;&gt;Node3 -->
<g id="edge2" class="edge"><title>Node2&#45;&gt;Node3</title>
<path fill="none" stroke="midnightblue" d="M615.166,-937.904C918.024,-937.154 2642.59,-931.211 2680,-893 2738.45,-833.291 2714.33,-781.178 2680,-705 2633.69,-602.232 2590.99,-587.06 2490,-537 2416.51,-500.574 2380.63,-540.948 2309,-501 2262.86,-475.268 2269.85,-446.243 2228,-414 2211.35,-401.17 2190.53,-389.991 2173.79,-381.984"/>
<polygon fill="midnightblue" stroke="midnightblue" points="2175.01,-378.69 2164.46,-377.647 2172.05,-385.037 2175.01,-378.69"/>
</g>
<!-- Node10 -->
<g id="node10" class="node"><title>Node10</title>
<polygon fill="white" stroke="#bfbfbf" points="828,-62 828,-81 896,-81 896,-62 828,-62"/>
<text text-anchor="middle" x="862" y="-69" font-family="Helvetica,sans-Serif" font-size="10.00">type_traits</text>
</g>
<!-- Node2&#45;&gt;Node10 -->
<g id="edge156" class="edge"><title>Node2&#45;&gt;Node10</title>
<path fill="none" stroke="midnightblue" d="M524.61,-929.45C409.27,-907.419 114,-848.97 114,-828 114,-828 114,-828 114,-602 114,-523.929 152,-508.571 152,-430.5 152,-430.5 152,-430.5 152,-367 152,-190.263 295.786,-170.573 466,-123 590.377,-88.2383 743.494,-77.3259 817.617,-73.9611"/>
<polygon fill="midnightblue" stroke="midnightblue" points="818.126,-77.4425 827.967,-73.5174 817.827,-70.449 818.126,-77.4425"/>
</g>
<!-- Node2&#45;&gt;Node11 -->
<g id="edge153" class="edge"><title>Node2&#45;&gt;Node11</title>
<path fill="none" stroke="midnightblue" d="M524.932,-931.367C518.582,-930.518 512.131,-929.702 506,-929 416.012,-918.69 171.954,-948.015 100,-893 75.5361,-874.295 76,-858.795 76,-828 76,-828 76,-828 76,-188 76,-142.188 114.434,-142.262 156,-123 235.695,-86.069 340.553,-76.1416 392.683,-73.4761"/>
<polygon fill="midnightblue" stroke="midnightblue" points="393.147,-76.9588 402.978,-73.0104 392.83,-69.9659 393.147,-76.9588"/>
</g>
<!-- Node12 -->
<g id="node12" class="node"><title>Node12</title>
<polygon fill="white" stroke="#bfbfbf" points="2455,-62 2455,-81 2497,-81 2497,-62 2455,-62"/>
<text text-anchor="middle" x="2476" y="-69" font-family="Helvetica,sans-Serif" font-size="10.00">utility</text>
</g>
<!-- Node2&#45;&gt;Node12 -->
<g id="edge155" class="edge"><title>Node2&#45;&gt;Node12</title>
<path fill="none" stroke="midnightblue" d="M615.148,-937.901C914.306,-937.139 2601.97,-931.154 2703,-893 2744.9,-877.177 2780,-872.785 2780,-828 2780,-828 2780,-828 2780,-188 2780,-130.168 2585.32,-90.9299 2507.54,-77.5618"/>
<polygon fill="midnightblue" stroke="midnightblue" points="2507.82,-74.0591 2497.38,-75.8479 2506.66,-80.9617 2507.82,-74.0591"/>
</g>
<!-- Node20 -->
<g id="node20" class="node"><title>Node20</title>
<polygon fill="white" stroke="#bfbfbf" points="1156.5,-179.5 1156.5,-198.5 1203.5,-198.5 1203.5,-179.5 1156.5,-179.5"/>
<text text-anchor="middle" x="1180" y="-186.5" font-family="Helvetica,sans-Serif" font-size="10.00">vector</text>
</g>
<!-- Node2&#45;&gt;Node20 -->
<g id="edge154" class="edge"><title>Node2&#45;&gt;Node20</title>
<path fill="none" stroke="midnightblue" d="M570,-929.442C570,-910.936 570,-865.812 570,-828 570,-828 570,-828 570,-714 570,-609.712 646,-596.288 646,-492 646,-492 646,-492 646,-428.5 646,-357.895 833.15,-262.919 898,-235 982.101,-198.793 1091.63,-191.407 1146.12,-190.101"/>
<polygon fill="midnightblue" stroke="midnightblue" points="1146.33,-193.598 1156.26,-189.915 1146.2,-186.6 1146.33,-193.598"/>
</g>
<!-- Node30 -->
<g id="node30" class="node"><title>Node30</title>
<g id="a_node30"><a xlink:href="bound_8h.html" target="_top" xlink:title="Bound deducers. ">
<polygon fill="white" stroke="black" points="712,-873.5 712,-892.5 814,-892.5 814,-873.5 712,-873.5"/>
<text text-anchor="middle" x="763" y="-880.5" font-family="Helvetica,sans-Serif" font-size="10.00">tvm/arith/bound.h</text>
</a>
</g>
</g>
<!-- Node2&#45;&gt;Node30 -->
<g id="edge61" class="edge"><title>Node2&#45;&gt;Node30</title>
<path fill="none" stroke="midnightblue" d="M600.581,-929.444C633.615,-920.201 686.388,-905.436 722.766,-895.257"/>
<polygon fill="midnightblue" stroke="midnightblue" points="723.875,-898.582 732.562,-892.516 721.988,-891.84 723.875,-898.582"/>
</g>
<!-- Node43 -->
<g id="node43" class="node"><title>Node43</title>
<g id="a_node43"><a xlink:href="tir_2expr_8h.html" target="_top" xlink:title="TIR expressions. ">
<polygon fill="white" stroke="black" points="649,-761.5 649,-780.5 729,-780.5 729,-761.5 649,-761.5"/>
<text text-anchor="middle" x="689" y="-768.5" font-family="Helvetica,sans-Serif" font-size="10.00">tvm/tir/expr.h</text>
</a>
</g>
</g>
<!-- Node2&#45;&gt;Node43 -->
<g id="edge145" class="edge"><title>Node2&#45;&gt;Node43</title>
<path fill="none" stroke="midnightblue" d="M602.357,-929.418C621.823,-922.63 645.55,-911.194 660,-893 683.767,-863.075 688.534,-816.727 689.212,-790.944"/>
<polygon fill="midnightblue" stroke="midnightblue" points="692.714,-790.704 689.289,-780.678 685.714,-790.651 692.714,-790.704"/>
</g>
<!-- Node45 -->
<g id="node45" class="node"><title>Node45</title>
<g id="a_node45"><a xlink:href="tir_2op_8h.html" target="_top" xlink:title="Common operators defined for Expr. ">
<polygon fill="white" stroke="black" points="410,-873.5 410,-892.5 482,-892.5 482,-873.5 410,-873.5"/>
<text text-anchor="middle" x="446" y="-880.5" font-family="Helvetica,sans-Serif" font-size="10.00">tvm/tir/op.h</text>
</a>
</g>
</g>
<!-- Node2&#45;&gt;Node45 -->
<g id="edge146" class="edge"><title>Node2&#45;&gt;Node45</title>
<path fill="none" stroke="midnightblue" d="M550.352,-929.444C530.035,-920.596 498.097,-906.687 474.902,-896.586"/>
<polygon fill="midnightblue" stroke="midnightblue" points="476.122,-893.3 465.556,-892.516 473.327,-899.718 476.122,-893.3"/>
</g>
<!-- Node4 -->
<g id="node4" class="node"><title>Node4</title>
<g id="a_node4"><a xlink:href="object_8h.html" target="_top" xlink:title="A managed object in the TVM runtime. ">
<polygon fill="white" stroke="black" points="1902.5,-123.5 1902.5,-142.5 2019.5,-142.5 2019.5,-123.5 1902.5,-123.5"/>
<text text-anchor="middle" x="1961" y="-130.5" font-family="Helvetica,sans-Serif" font-size="10.00">tvm/runtime/object.h</text>
</a>
</g>
</g>
<!-- Node3&#45;&gt;Node4 -->
<g id="edge3" class="edge"><title>Node3&#45;&gt;Node4</title>
<path fill="none" stroke="midnightblue" d="M2143.46,-358.173C2141.19,-328.651 2129.95,-232.22 2078,-179 2062.05,-162.665 2039.53,-152.162 2018.5,-145.453"/>
<polygon fill="midnightblue" stroke="midnightblue" points="2019.24,-142.02 2008.66,-142.543 2017.26,-148.733 2019.24,-142.02"/>
</g>
<!-- Node3&#45;&gt;Node10 -->
<g id="edge55" class="edge"><title>Node3&#45;&gt;Node10</title>
<path fill="none" stroke="midnightblue" d="M2084.46,-366.26C1930.77,-363.899 1523.59,-354.657 1393,-322 1323.74,-304.68 1311.7,-285.18 1247,-255 1112.42,-192.226 952.146,-115.672 889.244,-85.5567"/>
<polygon fill="midnightblue" stroke="midnightblue" points="890.534,-82.2941 880.003,-81.1314 887.51,-88.6074 890.534,-82.2941"/>
</g>
<!-- Node3&#45;&gt;Node11 -->
<g id="edge60" class="edge"><title>Node3&#45;&gt;Node11</title>
<path fill="none" stroke="midnightblue" d="M2084.26,-366.011C1919.3,-362.922 1459.92,-351.818 1312,-322 1199.55,-299.331 1178.52,-269.109 1069,-235 884.138,-177.429 836.007,-169.279 648,-123 580.343,-106.346 500.628,-88.7886 457.196,-79.3961"/>
<polygon fill="midnightblue" stroke="midnightblue" points="457.734,-75.9316 447.221,-77.2444 456.258,-82.7742 457.734,-75.9316"/>
</g>
<!-- Node3&#45;&gt;Node12 -->
<g id="edge59" class="edge"><title>Node3&#45;&gt;Node12</title>
<path fill="none" stroke="midnightblue" d="M2203.52,-358.513C2236.04,-352.003 2276.08,-340.82 2308,-322 2399.66,-267.953 2428.75,-242.298 2467,-143 2473.44,-126.283 2475.47,-105.851 2476.02,-91.2958"/>
<polygon fill="midnightblue" stroke="midnightblue" points="2479.52,-91.1258 2476.2,-81.0655 2472.52,-91.002 2479.52,-91.1258"/>
</g>
<!-- Node14 -->
<g id="node14" class="node"><title>Node14</title>
<g id="a_node14"><a xlink:href="runtime_2memory_8h.html" target="_top" xlink:title="Runtime memory management. ">
<polygon fill="white" stroke="black" points="2244.5,-179.5 2244.5,-198.5 2371.5,-198.5 2371.5,-179.5 2244.5,-179.5"/>
<text text-anchor="middle" x="2308" y="-186.5" font-family="Helvetica,sans-Serif" font-size="10.00">tvm/runtime/memory.h</text>
</a>
</g>
</g>
<!-- Node3&#45;&gt;Node14 -->
<g id="edge13" class="edge"><title>Node3&#45;&gt;Node14</title>
<path fill="none" stroke="midnightblue" d="M2184.75,-358.435C2233.36,-345.634 2311.37,-316.151 2338,-255 2345.25,-238.361 2334.47,-219.557 2323.87,-206.47"/>
<polygon fill="midnightblue" stroke="midnightblue" points="2326.34,-203.987 2317.12,-198.777 2321.08,-208.602 2326.34,-203.987"/>
</g>
<!-- Node16 -->
<g id="node16" class="node"><title>Node16</title>
<g id="a_node16"><a xlink:href="packed__func_8h.html" target="_top" xlink:title="Type&#45;erased function used across TVM API. ">
<polygon fill="white" stroke="black" points="1567.5,-291.5 1567.5,-321.5 1680.5,-321.5 1680.5,-291.5 1567.5,-291.5"/>
<text text-anchor="start" x="1575.5" y="-309.5" font-family="Helvetica,sans-Serif" font-size="10.00">tvm/runtime/packed</text>
<text text-anchor="middle" x="1624" y="-298.5" font-family="Helvetica,sans-Serif" font-size="10.00">_func.h</text>
</a>
</g>
</g>
<!-- Node3&#45;&gt;Node16 -->
<g id="edge18" class="edge"><title>Node3&#45;&gt;Node16</title>
<path fill="none" stroke="midnightblue" d="M2084.35,-360.175C1986.6,-348.99 1792.99,-326.836 1690.78,-315.142"/>
<polygon fill="midnightblue" stroke="midnightblue" points="1690.92,-311.634 1680.58,-313.975 1690.12,-318.589 1690.92,-311.634"/>
</g>
<!-- Node3&#45;&gt;Node20 -->
<g id="edge56" class="edge"><title>Node3&#45;&gt;Node20</title>
<path fill="none" stroke="midnightblue" d="M2084.13,-365.758C1977.64,-362.804 1748.58,-353.088 1558,-322 1437.68,-302.373 1404.93,-300.933 1292,-255 1258.29,-241.289 1222.43,-218.928 1200.62,-204.339"/>
<polygon fill="midnightblue" stroke="midnightblue" points="1202.42,-201.33 1192.18,-198.61 1198.48,-207.122 1202.42,-201.33"/>
</g>
<!-- Node21 -->
<g id="node21" class="node"><title>Node21</title>
<polygon fill="white" stroke="#bfbfbf" points="2618.5,-179.5 2618.5,-198.5 2711.5,-198.5 2711.5,-179.5 2618.5,-179.5"/>
<text text-anchor="middle" x="2665" y="-186.5" font-family="Helvetica,sans-Serif" font-size="10.00">unordered_map</text>
</g>
<!-- Node3&#45;&gt;Node21 -->
<g id="edge58" class="edge"><title>Node3&#45;&gt;Node21</title>
<path fill="none" stroke="midnightblue" d="M2203.61,-359.409C2251.05,-352.424 2318.76,-340.337 2376,-322 2478.19,-289.265 2591.95,-230.059 2640.69,-203.514"/>
<polygon fill="midnightblue" stroke="midnightblue" points="2642.46,-206.534 2649.55,-198.658 2639.1,-200.396 2642.46,-206.534"/>
</g>
<!-- Node29 -->
<g id="node29" class="node"><title>Node29</title>
<polygon fill="white" stroke="#bfbfbf" points="2180.5,-297 2180.5,-316 2257.5,-316 2257.5,-297 2180.5,-297"/>
<text text-anchor="middle" x="2219" y="-304" font-family="Helvetica,sans-Serif" font-size="10.00">initializer_list</text>
</g>
<!-- Node3&#45;&gt;Node29 -->
<g id="edge57" class="edge"><title>Node3&#45;&gt;Node29</title>
<path fill="none" stroke="midnightblue" d="M2154.75,-358.475C2166.55,-349.108 2185.74,-333.884 2200.08,-322.508"/>
<polygon fill="midnightblue" stroke="midnightblue" points="2202.62,-324.966 2208.27,-316.009 2198.26,-319.482 2202.62,-324.966"/>
</g>
<!-- Node5 -->
<g id="node5" class="node"><title>Node5</title>
<polygon fill="white" stroke="#bfbfbf" points="1874,-62 1874,-81 1960,-81 1960,-62 1874,-62"/>
<text text-anchor="middle" x="1917" y="-69" font-family="Helvetica,sans-Serif" font-size="10.00">dmlc/logging.h</text>
</g>
<!-- Node4&#45;&gt;Node5 -->
<g id="edge4" class="edge"><title>Node4&#45;&gt;Node5</title>
<path fill="none" stroke="midnightblue" d="M1954.7,-123.475C1948.1,-114.55 1937.56,-100.307 1929.31,-89.1425"/>
<polygon fill="midnightblue" stroke="midnightblue" points="1932.05,-86.9684 1923.29,-81.0091 1926.42,-91.1305 1932.05,-86.9684"/>
</g>
<!-- Node6 -->
<g id="node6" class="node"><title>Node6</title>
<g id="a_node6"><a xlink:href="c__runtime__api_8h.html" target="_top" xlink:title="tvm/runtime/c_runtime\l_api.h">
<polygon fill="white" stroke="black" points="1244.5,-56.5 1244.5,-86.5 1371.5,-86.5 1371.5,-56.5 1244.5,-56.5"/>
<text text-anchor="start" x="1252.5" y="-74.5" font-family="Helvetica,sans-Serif" font-size="10.00">tvm/runtime/c_runtime</text>
<text text-anchor="middle" x="1308" y="-63.5" font-family="Helvetica,sans-Serif" font-size="10.00">_api.h</text>
</a>
</g>
</g>
<!-- Node4&#45;&gt;Node6 -->
<g id="edge5" class="edge"><title>Node4&#45;&gt;Node6</title>
<path fill="none" stroke="midnightblue" d="M1902.48,-126.667C1783.45,-115.822 1513.39,-91.2144 1382.23,-79.2641"/>
<polygon fill="midnightblue" stroke="midnightblue" points="1382.17,-75.7435 1371.89,-78.3216 1381.53,-82.7146 1382.17,-75.7435"/>
</g>
<!-- Node4&#45;&gt;Node10 -->
<g id="edge9" class="edge"><title>Node4&#45;&gt;Node10</title>
<path fill="none" stroke="midnightblue" d="M1902.3,-128.822C1706.57,-118.225 1078.86,-84.241 906.277,-74.8972"/>
<polygon fill="midnightblue" stroke="midnightblue" points="906.218,-71.3889 896.043,-74.3431 905.839,-78.3787 906.218,-71.3889"/>
</g>
<!-- Node4&#45;&gt;Node11 -->
<g id="edge10" class="edge"><title>Node4&#45;&gt;Node11</title>
<path fill="none" stroke="midnightblue" d="M1902.2,-129.722C1648.24,-119.885 649.762,-81.2066 457.227,-73.7484"/>
<polygon fill="midnightblue" stroke="midnightblue" points="457.31,-70.249 447.182,-73.3592 457.039,-77.2438 457.31,-70.249"/>
</g>
<!-- Node4&#45;&gt;Node12 -->
<g id="edge11" class="edge"><title>Node4&#45;&gt;Node12</title>
<path fill="none" stroke="midnightblue" d="M2019.58,-125.233C2128.94,-112.598 2360.69,-85.822 2444.73,-76.1127"/>
<polygon fill="midnightblue" stroke="midnightblue" points="2445.38,-79.5616 2454.91,-74.9369 2444.57,-72.6078 2445.38,-79.5616"/>
</g>
<!-- Node13 -->
<g id="node13" class="node"><title>Node13</title>
<polygon fill="white" stroke="#bfbfbf" points="1677,-62 1677,-81 1727,-81 1727,-62 1677,-62"/>
<text text-anchor="middle" x="1702" y="-69" font-family="Helvetica,sans-Serif" font-size="10.00">atomic</text>
</g>
<!-- Node4&#45;&gt;Node13 -->
<g id="edge12" class="edge"><title>Node4&#45;&gt;Node13</title>
<path fill="none" stroke="midnightblue" d="M1923.89,-123.475C1874.01,-112.015 1785.96,-91.788 1737.12,-80.5673"/>
<polygon fill="midnightblue" stroke="midnightblue" points="1737.85,-77.1439 1727.32,-78.316 1736.28,-83.9662 1737.85,-77.1439"/>
</g>
<!-- Node7 -->
<g id="node7" class="node"><title>Node7</title>
<polygon fill="white" stroke="#bfbfbf" points="1173,-0.5 1173,-19.5 1263,-19.5 1263,-0.5 1173,-0.5"/>
<text text-anchor="middle" x="1218" y="-7.5" font-family="Helvetica,sans-Serif" font-size="10.00">dlpack/dlpack.h</text>
</g>
<!-- Node6&#45;&gt;Node7 -->
<g id="edge6" class="edge"><title>Node6&#45;&gt;Node7</title>
<path fill="none" stroke="midnightblue" d="M1286.67,-56.3993C1272.51,-47.0402 1253.99,-34.7924 1239.75,-25.3771"/>
<polygon fill="midnightblue" stroke="midnightblue" points="1241.37,-22.2531 1231.1,-19.6578 1237.51,-28.0923 1241.37,-22.2531"/>
</g>
<!-- Node8 -->
<g id="node8" class="node"><title>Node8</title>
<polygon fill="white" stroke="#bfbfbf" points="1281.5,-0.5 1281.5,-19.5 1334.5,-19.5 1334.5,-0.5 1281.5,-0.5"/>
<text text-anchor="middle" x="1308" y="-7.5" font-family="Helvetica,sans-Serif" font-size="10.00">stdint.h</text>
</g>
<!-- Node6&#45;&gt;Node8 -->
<g id="edge7" class="edge"><title>Node6&#45;&gt;Node8</title>
<path fill="none" stroke="midnightblue" d="M1308,-56.3993C1308,-48.4664 1308,-38.458 1308,-29.8583"/>
<polygon fill="midnightblue" stroke="midnightblue" points="1311.5,-29.6577 1308,-19.6578 1304.5,-29.6578 1311.5,-29.6577"/>
</g>
<!-- Node9 -->
<g id="node9" class="node"><title>Node9</title>
<polygon fill="white" stroke="#bfbfbf" points="1352.5,-0.5 1352.5,-19.5 1407.5,-19.5 1407.5,-0.5 1352.5,-0.5"/>
<text text-anchor="middle" x="1380" y="-7.5" font-family="Helvetica,sans-Serif" font-size="10.00">stddef.h</text>
</g>
<!-- Node6&#45;&gt;Node9 -->
<g id="edge8" class="edge"><title>Node6&#45;&gt;Node9</title>
<path fill="none" stroke="midnightblue" d="M1325.06,-56.3993C1336.06,-47.3076 1350.37,-35.4899 1361.62,-26.1909"/>
<polygon fill="midnightblue" stroke="midnightblue" points="1364.04,-28.726 1369.52,-19.6578 1359.59,-23.33 1364.04,-28.726"/>
</g>
<!-- Node14&#45;&gt;Node4 -->
<g id="edge14" class="edge"><title>Node14&#45;&gt;Node4</title>
<path fill="none" stroke="midnightblue" d="M2253.02,-179.444C2191.34,-169.846 2091.39,-154.292 2025.93,-144.104"/>
<polygon fill="midnightblue" stroke="midnightblue" points="2026.15,-140.596 2015.73,-142.516 2025.07,-147.513 2026.15,-140.596"/>
</g>
<!-- Node14&#45;&gt;Node10 -->
<g id="edge17" class="edge"><title>Node14&#45;&gt;Node10</title>
<path fill="none" stroke="midnightblue" d="M2296.95,-179.401C2277.21,-164.612 2234,-134.813 2192,-123 2089.57,-94.1896 1341.33,-91.0667 1235,-87 1116.27,-82.4592 976.293,-76.9854 906.396,-74.2439"/>
<polygon fill="midnightblue" stroke="midnightblue" points="906.327,-70.7386 896.198,-73.8438 906.053,-77.7332 906.327,-70.7386"/>
</g>
<!-- Node14&#45;&gt;Node12 -->
<g id="edge16" class="edge"><title>Node14&#45;&gt;Node12</title>
<path fill="none" stroke="midnightblue" d="M2317.16,-179.407C2331.3,-166.372 2359.58,-141.195 2386,-123 2406.48,-108.896 2431.21,-95.2398 2449.56,-85.6927"/>
<polygon fill="midnightblue" stroke="midnightblue" points="2451.22,-88.7748 2458.52,-81.094 2448.03,-82.5474 2451.22,-88.7748"/>
</g>
<!-- Node15 -->
<g id="node15" class="node"><title>Node15</title>
<polygon fill="white" stroke="#bfbfbf" points="2284.5,-123.5 2284.5,-142.5 2331.5,-142.5 2331.5,-123.5 2284.5,-123.5"/>
<text text-anchor="middle" x="2308" y="-130.5" font-family="Helvetica,sans-Serif" font-size="10.00">cstdlib</text>
</g>
<!-- Node14&#45;&gt;Node15 -->
<g id="edge15" class="edge"><title>Node14&#45;&gt;Node15</title>
<path fill="none" stroke="midnightblue" d="M2308,-179.083C2308,-172.006 2308,-161.861 2308,-152.986"/>
<polygon fill="midnightblue" stroke="midnightblue" points="2311.5,-152.751 2308,-142.751 2304.5,-152.751 2311.5,-152.751"/>
</g>
<!-- Node16&#45;&gt;Node4 -->
<g id="edge46" class="edge"><title>Node16&#45;&gt;Node4</title>
<path fill="none" stroke="midnightblue" d="M1680.5,-294.553C1731.09,-284.18 1801.01,-268.259 1826,-255 1877.46,-227.695 1925.07,-176.627 1947.5,-150.428"/>
<polygon fill="midnightblue" stroke="midnightblue" points="1950.36,-152.472 1954.12,-142.566 1945,-147.967 1950.36,-152.472"/>
</g>
<!-- Node16&#45;&gt;Node5 -->
<g id="edge19" class="edge"><title>Node16&#45;&gt;Node5</title>
<path fill="none" stroke="midnightblue" d="M1680.55,-293.958C1733.13,-280.27 1809.82,-252.255 1854,-199 1857.8,-194.422 1892,-124.181 1908.36,-90.3924"/>
<polygon fill="midnightblue" stroke="midnightblue" points="1911.6,-91.716 1912.81,-81.1897 1905.3,-88.6682 1911.6,-91.716"/>
</g>
<!-- Node16&#45;&gt;Node6 -->
<g id="edge20" class="edge"><title>Node16&#45;&gt;Node6</title>
<path fill="none" stroke="midnightblue" d="M1591.85,-291.336C1577.17,-283.034 1561.25,-270.997 1553,-255 1526.1,-202.856 1592.1,-168.454 1555,-123 1533.42,-96.5674 1446.52,-83.6 1381.85,-77.5007"/>
<polygon fill="midnightblue" stroke="midnightblue" points="1381.96,-73.9957 1371.68,-76.5798 1381.32,-80.9672 1381.96,-73.9957"/>
</g>
<!-- Node16&#45;&gt;Node10 -->
<g id="edge54" class="edge"><title>Node16&#45;&gt;Node10</title>
<path fill="none" stroke="midnightblue" d="M1567.16,-298.086C1515.61,-290.423 1437.98,-276.519 1373,-255 1368.31,-253.445 1216.61,-180.78 1212,-179 1104.06,-137.357 972.533,-101.057 905.628,-83.5787"/>
<polygon fill="midnightblue" stroke="midnightblue" points="906.406,-80.1647 895.848,-81.0376 904.646,-86.9398 906.406,-80.1647"/>
</g>
<!-- Node16&#45;&gt;Node11 -->
<g id="edge50" class="edge"><title>Node16&#45;&gt;Node11</title>
<path fill="none" stroke="midnightblue" d="M1567.21,-300.129C1499.91,-293.04 1384.7,-278.614 1288,-255 1186.69,-230.26 1167.49,-202.997 1066,-179 949.901,-151.549 913.632,-179.337 800,-143 781.822,-137.187 780.137,-128.942 762,-123 654.073,-87.6396 518.504,-76.9141 457.442,-73.7609"/>
<polygon fill="midnightblue" stroke="midnightblue" points="457.428,-70.2563 447.272,-73.2712 457.092,-77.2482 457.428,-70.2563"/>
</g>
<!-- Node16&#45;&gt;Node12 -->
<g id="edge53" class="edge"><title>Node16&#45;&gt;Node12</title>
<path fill="none" stroke="midnightblue" d="M1680.96,-303.258C1816.58,-297.558 2155.56,-281.091 2266,-255 2330.42,-239.781 2354.21,-242.617 2404,-199 2438.41,-168.851 2460.16,-118.073 2469.95,-90.9256"/>
<polygon fill="midnightblue" stroke="midnightblue" points="2473.36,-91.7609 2473.31,-81.1662 2466.75,-89.4791 2473.36,-91.7609"/>
</g>
<!-- Node17 -->
<g id="node17" class="node"><title>Node17</title>
<g id="a_node17"><a xlink:href="runtime_2module_8h.html" target="_top" xlink:title="Runtime container of the functions generated by TVM, This is used to support dynamically link...">
<polygon fill="white" stroke="black" points="1562,-235.5 1562,-254.5 1686,-254.5 1686,-235.5 1562,-235.5"/>
<text text-anchor="middle" x="1624" y="-242.5" font-family="Helvetica,sans-Serif" font-size="10.00">tvm/runtime/module.h</text>
</a>
</g>
</g>
<!-- Node16&#45;&gt;Node17 -->
<g id="edge21" class="edge"><title>Node16&#45;&gt;Node17</title>
<path fill="none" stroke="midnightblue" d="M1618.16,-291.399C1617.13,-283.377 1616.97,-273.233 1617.69,-264.569"/>
<polygon fill="midnightblue" stroke="midnightblue" points="1621.16,-265.044 1619.07,-254.658 1614.23,-264.081 1621.16,-265.044"/>
</g>
<!-- Node19 -->
<g id="node19" class="node"><title>Node19</title>
<polygon fill="white" stroke="#bfbfbf" points="1788.5,-179.5 1788.5,-198.5 1845.5,-198.5 1845.5,-179.5 1788.5,-179.5"/>
<text text-anchor="middle" x="1817" y="-186.5" font-family="Helvetica,sans-Serif" font-size="10.00">memory</text>
</g>
<!-- Node16&#45;&gt;Node19 -->
<g id="edge52" class="edge"><title>Node16&#45;&gt;Node19</title>
<path fill="none" stroke="midnightblue" d="M1674.59,-291.486C1699.71,-283.163 1729.79,-271.063 1754,-255 1773.95,-241.761 1792.47,-221.254 1804.2,-206.821"/>
<polygon fill="midnightblue" stroke="midnightblue" points="1807.13,-208.759 1810.57,-198.739 1801.63,-204.424 1807.13,-208.759"/>
</g>
<!-- Node16&#45;&gt;Node20 -->
<g id="edge49" class="edge"><title>Node16&#45;&gt;Node20</title>
<path fill="none" stroke="midnightblue" d="M1567.39,-299.142C1509.46,-291.777 1417.25,-277.663 1340,-255 1317.82,-248.494 1313.39,-243.753 1292,-235 1264.63,-223.801 1233.4,-211.274 1210.89,-202.287"/>
<polygon fill="midnightblue" stroke="midnightblue" points="1212.09,-198.999 1201.5,-198.546 1209.5,-205.501 1212.09,-198.999"/>
</g>
<!-- Node22 -->
<g id="node22" class="node"><title>Node22</title>
<g id="a_node22"><a xlink:href="ndarray_8h.html" target="_top" xlink:title="A device&#45;independent managed NDArray abstraction. ">
<polygon fill="white" stroke="black" points="1382.5,-235.5 1382.5,-254.5 1505.5,-254.5 1505.5,-235.5 1382.5,-235.5"/>
<text text-anchor="middle" x="1444" y="-242.5" font-family="Helvetica,sans-Serif" font-size="10.00">tvm/runtime/ndarray.h</text>
</a>
</g>
</g>
<!-- Node16&#45;&gt;Node22 -->
<g id="edge31" class="edge"><title>Node16&#45;&gt;Node22</title>
<path fill="none" stroke="midnightblue" d="M1581.34,-291.399C1550.37,-281.163 1508.95,-267.47 1479.72,-257.808"/>
<polygon fill="midnightblue" stroke="midnightblue" points="1480.52,-254.386 1469.93,-254.571 1478.33,-261.033 1480.52,-254.386"/>
</g>
<!-- Node25 -->
<g id="node25" class="node"><title>Node25</title>
<g id="a_node25"><a xlink:href="data__type_8h.html" target="_top" xlink:title="tvm/runtime/data_type.h">
<polygon fill="white" stroke="black" points="924,-235.5 924,-254.5 1060,-254.5 1060,-235.5 924,-235.5"/>
<text text-anchor="middle" x="992" y="-242.5" font-family="Helvetica,sans-Serif" font-size="10.00">tvm/runtime/data_type.h</text>
</a>
</g>
</g>
<!-- Node16&#45;&gt;Node25 -->
<g id="edge42" class="edge"><title>Node16&#45;&gt;Node25</title>
<path fill="none" stroke="midnightblue" d="M1567.36,-300.167C1454.08,-289.503 1199.44,-265.53 1070.3,-253.371"/>
<polygon fill="midnightblue" stroke="midnightblue" points="1070.37,-249.863 1060.09,-252.41 1069.71,-256.832 1070.37,-249.863"/>
</g>
<!-- Node26 -->
<g id="node26" class="node"><title>Node26</title>
<polygon fill="white" stroke="#bfbfbf" points="1916.5,-235.5 1916.5,-254.5 1979.5,-254.5 1979.5,-235.5 1916.5,-235.5"/>
<text text-anchor="middle" x="1948" y="-242.5" font-family="Helvetica,sans-Serif" font-size="10.00">functional</text>
</g>
<!-- Node16&#45;&gt;Node26 -->
<g id="edge47" class="edge"><title>Node16&#45;&gt;Node26</title>
<path fill="none" stroke="midnightblue" d="M1680.81,-295.068C1745.22,-283.239 1848.72,-264.232 1906.17,-253.682"/>
<polygon fill="midnightblue" stroke="midnightblue" points="1907.14,-257.063 1916.34,-251.814 1905.87,-250.178 1907.14,-257.063"/>
</g>
<!-- Node27 -->
<g id="node27" class="node"><title>Node27</title>
<polygon fill="white" stroke="#bfbfbf" points="1704.5,-235.5 1704.5,-254.5 1745.5,-254.5 1745.5,-235.5 1704.5,-235.5"/>
<text text-anchor="middle" x="1725" y="-242.5" font-family="Helvetica,sans-Serif" font-size="10.00">tuple</text>
</g>
<!-- Node16&#45;&gt;Node27 -->
<g id="edge48" class="edge"><title>Node16&#45;&gt;Node27</title>
<path fill="none" stroke="midnightblue" d="M1647.94,-291.399C1664.13,-281.862 1685.41,-269.325 1701.5,-259.842"/>
<polygon fill="midnightblue" stroke="midnightblue" points="1703.46,-262.749 1710.3,-254.658 1699.91,-256.718 1703.46,-262.749"/>
</g>
<!-- Node28 -->
<g id="node28" class="node"><title>Node28</title>
<polygon fill="white" stroke="#bfbfbf" points="332,-235.5 332,-254.5 374,-254.5 374,-235.5 332,-235.5"/>
<text text-anchor="middle" x="353" y="-242.5" font-family="Helvetica,sans-Serif" font-size="10.00">limits</text>
</g>
<!-- Node16&#45;&gt;Node28 -->
<g id="edge51" class="edge"><title>Node16&#45;&gt;Node28</title>
<path fill="none" stroke="midnightblue" d="M1567.33,-302.847C1347.2,-292.542 552.696,-255.348 384.443,-247.472"/>
<polygon fill="midnightblue" stroke="midnightblue" points="384.432,-243.968 374.279,-246.996 384.104,-250.96 384.432,-243.968"/>
</g>
<!-- Node17&#45;&gt;Node4 -->
<g id="edge24" class="edge"><title>Node17&#45;&gt;Node4</title>
<path fill="none" stroke="midnightblue" d="M1646.46,-235.383C1669.17,-226.572 1705.23,-212.325 1736,-199 1755.34,-190.624 1759.12,-186.007 1779,-179 1820.81,-164.264 1869.64,-152.471 1906.2,-144.66"/>
<polygon fill="midnightblue" stroke="midnightblue" points="1907.1,-148.047 1916.17,-142.563 1905.66,-141.197 1907.1,-148.047"/>
</g>
<!-- Node17&#45;&gt;Node6 -->
<g id="edge23" class="edge"><title>Node17&#45;&gt;Node6</title>
<path fill="none" stroke="midnightblue" d="M1650.93,-235.356C1667.72,-228.411 1687.98,-216.825 1698,-199 1714.55,-169.557 1720.3,-148.372 1698,-123 1677.51,-99.6813 1489.27,-84.0061 1381.99,-76.8841"/>
<polygon fill="midnightblue" stroke="midnightblue" points="1382.08,-73.3824 1371.87,-76.2216 1381.62,-80.3674 1382.08,-73.3824"/>
</g>
<!-- Node17&#45;&gt;Node11 -->
<g id="edge28" class="edge"><title>Node17&#45;&gt;Node11</title>
<path fill="none" stroke="midnightblue" d="M1572.35,-235.488C1494.36,-222.717 1341.86,-198.066 1212,-179 1029.17,-152.155 983.126,-147.776 800,-123 673.277,-105.855 522.445,-85.5845 457.442,-76.8552"/>
<polygon fill="midnightblue" stroke="midnightblue" points="457.78,-73.3692 447.403,-75.5072 456.849,-80.307 457.78,-73.3692"/>
</g>
<!-- Node17&#45;&gt;Node14 -->
<g id="edge25" class="edge"><title>Node17&#45;&gt;Node14</title>
<path fill="none" stroke="midnightblue" d="M1686.32,-235.912C1689.25,-235.59 1692.16,-235.284 1695,-235 1889.29,-215.569 2119,-200.925 2234.25,-194.152"/>
<polygon fill="midnightblue" stroke="midnightblue" points="2234.59,-197.639 2244.37,-193.561 2234.18,-190.651 2234.59,-197.639"/>
</g>
<!-- Node17&#45;&gt;Node16 -->
<g id="edge30" class="edge"><title>Node17&#45;&gt;Node16</title>
<path fill="none" stroke="midnightblue" d="M1628.93,-254.658C1630.43,-261.655 1631.01,-271.857 1630.64,-281.289"/>
<polygon fill="midnightblue" stroke="midnightblue" points="1627.14,-281.153 1629.84,-291.399 1634.12,-281.709 1627.14,-281.153"/>
</g>
<!-- Node18 -->
<g id="node18" class="node"><title>Node18</title>
<polygon fill="white" stroke="#bfbfbf" points="1486,-123.5 1486,-142.5 1546,-142.5 1546,-123.5 1486,-123.5"/>
<text text-anchor="middle" x="1516" y="-130.5" font-family="Helvetica,sans-Serif" font-size="10.00">dmlc/io.h</text>
</g>
<!-- Node17&#45;&gt;Node18 -->
<g id="edge22" class="edge"><title>Node17&#45;&gt;Node18</title>
<path fill="none" stroke="midnightblue" d="M1615.53,-235.368C1597.39,-216.894 1554.58,-173.293 1531.46,-149.744"/>
<polygon fill="midnightblue" stroke="midnightblue" points="1533.94,-147.275 1524.44,-142.591 1528.94,-152.179 1533.94,-147.275"/>
</g>
<!-- Node17&#45;&gt;Node19 -->
<g id="edge26" class="edge"><title>Node17&#45;&gt;Node19</title>
<path fill="none" stroke="midnightblue" d="M1654.58,-235.444C1688.2,-226.038 1742.26,-210.913 1778.68,-200.723"/>
<polygon fill="midnightblue" stroke="midnightblue" points="1779.76,-204.053 1788.45,-197.988 1777.88,-197.312 1779.76,-204.053"/>
</g>
<!-- Node17&#45;&gt;Node20 -->
<g id="edge27" class="edge"><title>Node17&#45;&gt;Node20</title>
<path fill="none" stroke="midnightblue" d="M1561.8,-236.435C1466.71,-224.87 1288.43,-203.187 1214,-194.135"/>
<polygon fill="midnightblue" stroke="midnightblue" points="1214.14,-190.627 1203.79,-192.894 1213.3,-197.576 1214.14,-190.627"/>
</g>
<!-- Node17&#45;&gt;Node21 -->
<g id="edge29" class="edge"><title>Node17&#45;&gt;Node21</title>
<path fill="none" stroke="midnightblue" d="M1686.31,-235.816C1689.24,-235.521 1692.15,-235.246 1695,-235 1874.28,-219.504 2429.1,-198.559 2608.45,-192.029"/>
<polygon fill="midnightblue" stroke="midnightblue" points="2608.6,-195.526 2618.47,-191.665 2608.34,-188.531 2608.6,-195.526"/>
</g>
<!-- Node22&#45;&gt;Node4 -->
<g id="edge33" class="edge"><title>Node22&#45;&gt;Node4</title>
<path fill="none" stroke="midnightblue" d="M1480.3,-235.465C1534.84,-222.719 1641.22,-198.159 1732,-179 1791.28,-166.489 1859.44,-153.241 1905.88,-144.385"/>
<polygon fill="midnightblue" stroke="midnightblue" points="1906.57,-147.816 1915.74,-142.508 1905.26,-140.94 1906.57,-147.816"/>
</g>
<!-- Node22&#45;&gt;Node6 -->
<g id="edge32" class="edge"><title>Node22&#45;&gt;Node6</title>
<path fill="none" stroke="midnightblue" d="M1423.18,-235.355C1406.2,-227.59 1382.27,-214.966 1365,-199 1342.91,-178.582 1339.53,-170.343 1327,-143 1320.22,-128.215 1315.47,-110.543 1312.41,-96.5903"/>
<polygon fill="midnightblue" stroke="midnightblue" points="1315.83,-95.8498 1310.39,-86.7552 1308.97,-97.2541 1315.83,-95.8498"/>
</g>
<!-- Node22&#45;&gt;Node12 -->
<g id="edge41" class="edge"><title>Node22&#45;&gt;Node12</title>
<path fill="none" stroke="midnightblue" d="M1467.42,-235.426C1504.09,-222.193 1577.46,-196.496 1641,-179 1751.62,-148.543 1779.6,-140.433 1893,-123 2102.42,-90.8062 2357.54,-77.5511 2444.92,-73.7435"/>
<polygon fill="midnightblue" stroke="midnightblue" points="2445.12,-77.2383 2454.97,-73.3157 2444.83,-70.2446 2445.12,-77.2383"/>
</g>
<!-- Node22&#45;&gt;Node13 -->
<g id="edge39" class="edge"><title>Node22&#45;&gt;Node13</title>
<path fill="none" stroke="midnightblue" d="M1458.44,-235.47C1472.7,-226.839 1494.95,-212.829 1513,-199 1553.23,-168.181 1555.91,-151.228 1598,-123 1620.98,-107.584 1649.38,-94.1246 1670.69,-84.9861"/>
<polygon fill="midnightblue" stroke="midnightblue" points="1672.07,-88.2008 1679.94,-81.0998 1669.36,-81.7475 1672.07,-88.2008"/>
</g>
<!-- Node22&#45;&gt;Node20 -->
<g id="edge40" class="edge"><title>Node22&#45;&gt;Node20</title>
<path fill="none" stroke="midnightblue" d="M1402.17,-235.444C1349.88,-224.749 1261.44,-206.659 1213.43,-196.838"/>
<polygon fill="midnightblue" stroke="midnightblue" points="1214.04,-193.391 1203.55,-194.816 1212.64,-200.249 1214.04,-193.391"/>
</g>
<!-- Node23 -->
<g id="node23" class="node"><title>Node23</title>
<g id="a_node23"><a xlink:href="serializer_8h.html" target="_top" xlink:title="Serializer extension to support TVM data types Include this file to enable serialization of DLDataTyp...">
<polygon fill="white" stroke="black" points="1374,-179.5 1374,-198.5 1504,-198.5 1504,-179.5 1374,-179.5"/>
<text text-anchor="middle" x="1439" y="-186.5" font-family="Helvetica,sans-Serif" font-size="10.00">tvm/runtime/serializer.h</text>
</a>
</g>
</g>
<!-- Node22&#45;&gt;Node23 -->
<g id="edge34" class="edge"><title>Node22&#45;&gt;Node23</title>
<path fill="none" stroke="midnightblue" d="M1438.01,-235.083C1435.86,-228.006 1434.48,-217.861 1434.28,-208.986"/>
<polygon fill="midnightblue" stroke="midnightblue" points="1437.79,-208.88 1434.68,-198.751 1430.79,-208.607 1437.79,-208.88"/>
</g>
<!-- Node23&#45;&gt;Node6 -->
<g id="edge37" class="edge"><title>Node23&#45;&gt;Node6</title>
<path fill="none" stroke="midnightblue" d="M1441.91,-179.091C1445.72,-165.643 1450.62,-139.934 1439,-123 1425.66,-103.568 1403.71,-91.6101 1381.56,-84.2534"/>
<polygon fill="midnightblue" stroke="midnightblue" points="1382.32,-80.8277 1371.74,-81.2803 1380.3,-87.5275 1382.32,-80.8277"/>
</g>
<!-- Node23&#45;&gt;Node18 -->
<g id="edge35" class="edge"><title>Node23&#45;&gt;Node18</title>
<path fill="none" stroke="midnightblue" d="M1451.37,-179.324C1463.16,-171.058 1481.13,-158.453 1495.14,-148.632"/>
<polygon fill="midnightblue" stroke="midnightblue" points="1497.48,-151.262 1503.66,-142.655 1493.46,-145.531 1497.48,-151.262"/>
</g>
<!-- Node23&#45;&gt;Node22 -->
<g id="edge38" class="edge"><title>Node23&#45;&gt;Node22</title>
<path fill="none" stroke="midnightblue" d="M1444.94,-198.751C1447.1,-205.78 1448.49,-215.91 1448.72,-224.805"/>
<polygon fill="midnightblue" stroke="midnightblue" points="1445.21,-224.962 1448.34,-235.083 1452.2,-225.217 1445.21,-224.962"/>
</g>
<!-- Node24 -->
<g id="node24" class="node"><title>Node24</title>
<polygon fill="white" stroke="#bfbfbf" points="1336,-123.5 1336,-142.5 1430,-142.5 1430,-123.5 1336,-123.5"/>
<text text-anchor="middle" x="1383" y="-130.5" font-family="Helvetica,sans-Serif" font-size="10.00">dmlc/serializer.h</text>
</g>
<!-- Node23&#45;&gt;Node24 -->
<g id="edge36" class="edge"><title>Node23&#45;&gt;Node24</title>
<path fill="none" stroke="midnightblue" d="M1430,-179.324C1421.81,-171.42 1409.49,-159.548 1399.53,-149.938"/>
<polygon fill="midnightblue" stroke="midnightblue" points="1401.79,-147.256 1392.16,-142.834 1396.93,-152.295 1401.79,-147.256"/>
</g>
<!-- Node25&#45;&gt;Node5 -->
<g id="edge44" class="edge"><title>Node25&#45;&gt;Node5</title>
<path fill="none" stroke="midnightblue" d="M1060.4,-236.848C1104.86,-230.561 1163.38,-219.149 1212,-199 1268.6,-175.546 1269.14,-143.123 1327,-123 1333.31,-120.805 1719.02,-88.8256 1863.31,-76.9214"/>
<polygon fill="midnightblue" stroke="midnightblue" points="1864,-80.3764 1873.68,-76.0662 1863.42,-73.4001 1864,-80.3764"/>
</g>
<!-- Node25&#45;&gt;Node6 -->
<g id="edge43" class="edge"><title>Node25&#45;&gt;Node6</title>
<path fill="none" stroke="midnightblue" d="M990.451,-235.352C988.539,-221.787 986.972,-195.369 1000,-179 1056.25,-108.326 1162.13,-84.3813 1233.86,-76.3686"/>
<polygon fill="midnightblue" stroke="midnightblue" points="1234.6,-79.8108 1244.18,-75.2984 1233.87,-72.8481 1234.6,-79.8108"/>
</g>
<!-- Node25&#45;&gt;Node10 -->
<g id="edge45" class="edge"><title>Node25&#45;&gt;Node10</title>
<path fill="none" stroke="midnightblue" d="M985.375,-235.26C964.769,-208.076 901.574,-124.708 874.512,-89.0059"/>
<polygon fill="midnightblue" stroke="midnightblue" points="877.288,-86.8743 868.458,-81.0194 871.709,-91.1029 877.288,-86.8743"/>
</g>
<!-- Node30&#45;&gt;Node3 -->
<g id="edge62" class="edge"><title>Node30&#45;&gt;Node3</title>
<path fill="none" stroke="midnightblue" d="M814.246,-881.244C1084.78,-876.735 2338.81,-849.203 2452,-725 2457.99,-718.43 2455.83,-713.023 2452,-705 2389.95,-574.943 2286.72,-616.084 2200,-501 2173.01,-465.179 2156.27,-414.394 2148.72,-387.453"/>
<polygon fill="midnightblue" stroke="midnightblue" points="2152.1,-386.526 2146.13,-377.776 2145.34,-388.342 2152.1,-386.526"/>
</g>
<!-- Node30&#45;&gt;Node21 -->
<g id="edge144" class="edge"><title>Node30&#45;&gt;Node21</title>
<path fill="none" stroke="midnightblue" d="M814.126,-882.322C1071.6,-883.464 2227.4,-882.74 2569,-781 2658.93,-754.217 2742,-753.829 2742,-660 2742,-660 2742,-660 2742,-305.5 2742,-263.646 2706.56,-225.423 2683.77,-205.167"/>
<polygon fill="midnightblue" stroke="midnightblue" points="2685.9,-202.388 2676.03,-198.544 2681.35,-207.706 2685.9,-202.388"/>
</g>
<!-- Node31 -->
<g id="node31" class="node"><title>Node31</title>
<g id="a_node31"><a xlink:href="ir_2expr_8h.html" target="_top" xlink:title="Base expr nodes in TVM. ">
<polygon fill="white" stroke="black" points="764.5,-705.5 764.5,-724.5 841.5,-724.5 841.5,-705.5 764.5,-705.5"/>
<text text-anchor="middle" x="803" y="-712.5" font-family="Helvetica,sans-Serif" font-size="10.00">tvm/ir/expr.h</text>
</a>
</g>
</g>
<!-- Node30&#45;&gt;Node31 -->
<g id="edge63" class="edge"><title>Node30&#45;&gt;Node31</title>
<path fill="none" stroke="midnightblue" d="M765.151,-873.075C771.447,-846.945 789.937,-770.211 798.524,-734.577"/>
<polygon fill="midnightblue" stroke="midnightblue" points="801.995,-735.11 800.935,-724.568 795.19,-733.47 801.995,-735.11"/>
</g>
<!-- Node42 -->
<g id="node42" class="node"><title>Node42</title>
<g id="a_node42"><a xlink:href="int__set_8h.html" target="_top" xlink:title="Integer set. ">
<polygon fill="white" stroke="black" points="790,-817.5 790,-836.5 894,-836.5 894,-817.5 790,-817.5"/>
<text text-anchor="middle" x="842" y="-824.5" font-family="Helvetica,sans-Serif" font-size="10.00">tvm/arith/int_set.h</text>
</a>
</g>
</g>
<!-- Node30&#45;&gt;Node42 -->
<g id="edge121" class="edge"><title>Node30&#45;&gt;Node42</title>
<path fill="none" stroke="midnightblue" d="M775.693,-873.324C787.901,-864.979 806.578,-852.212 821.003,-842.352"/>
<polygon fill="midnightblue" stroke="midnightblue" points="823.058,-845.187 829.339,-836.655 819.108,-839.408 823.058,-845.187"/>
</g>
<!-- Node30&#45;&gt;Node43 -->
<g id="edge137" class="edge"><title>Node30&#45;&gt;Node43</title>
<path fill="none" stroke="midnightblue" d="M757.193,-873.368C744.981,-855.215 716.448,-812.802 700.43,-788.99"/>
<polygon fill="midnightblue" stroke="midnightblue" points="703.266,-786.935 694.78,-780.591 697.457,-790.842 703.266,-786.935"/>
</g>
<!-- Node44 -->
<g id="node44" class="node"><title>Node44</title>
<g id="a_node44"><a xlink:href="stmt_8h.html" target="_top" xlink:title="TIR statements. ">
<polygon fill="white" stroke="black" points="458.5,-817.5 458.5,-836.5 541.5,-836.5 541.5,-817.5 458.5,-817.5"/>
<text text-anchor="middle" x="500" y="-824.5" font-family="Helvetica,sans-Serif" font-size="10.00">tvm/tir/stmt.h</text>
</a>
</g>
</g>
<!-- Node30&#45;&gt;Node44 -->
<g id="edge138" class="edge"><title>Node30&#45;&gt;Node44</title>
<path fill="none" stroke="midnightblue" d="M721.327,-873.444C675.255,-863.984 601.004,-848.738 551.369,-838.547"/>
<polygon fill="midnightblue" stroke="midnightblue" points="551.978,-835.099 541.478,-836.516 550.57,-841.956 551.978,-835.099"/>
</g>
<!-- Node31&#45;&gt;Node3 -->
<g id="edge105" class="edge"><title>Node31&#45;&gt;Node3</title>
<path fill="none" stroke="midnightblue" d="M841.712,-713.157C995.757,-709.644 1565.48,-695.13 1744,-669 1846.39,-654.013 1878.63,-661.587 1970,-613 2002.78,-595.566 2008.46,-585.715 2032,-557 2078.5,-500.288 2118.55,-422.212 2135.44,-387.234"/>
<polygon fill="midnightblue" stroke="midnightblue" points="2138.78,-388.367 2139.92,-377.834 2132.46,-385.355 2138.78,-388.367"/>
</g>
<!-- Node31&#45;&gt;Node4 -->
<g id="edge64" class="edge"><title>Node31&#45;&gt;Node4</title>
<path fill="none" stroke="midnightblue" d="M841.509,-713.424C1003.67,-710.825 1631.54,-698.993 1827,-669 2113.43,-625.048 2276.38,-727.608 2457,-501 2526.46,-413.854 2467.93,-249.635 2380,-179 2353.31,-157.562 2141.7,-143.418 2029.82,-137.362"/>
<polygon fill="midnightblue" stroke="midnightblue" points="2029.81,-133.856 2019.64,-136.818 2029.44,-140.846 2029.81,-133.856"/>
</g>
<!-- Node31&#45;&gt;Node10 -->
<g id="edge120" class="edge"><title>Node31&#45;&gt;Node10</title>
<path fill="none" stroke="midnightblue" d="M789.648,-705.309C770.36,-692.776 733.551,-668.942 702,-649 676.354,-632.79 667.511,-632.176 644,-613 609.016,-584.466 495.02,-452.977 492,-445 487.122,-432.115 487.905,-427.155 492,-414 529.704,-292.876 558.648,-262.669 654,-179 706.448,-132.979 782.308,-100.724 826.448,-84.5111"/>
<polygon fill="midnightblue" stroke="midnightblue" points="827.672,-87.7903 835.895,-81.1088 825.3,-81.2044 827.672,-87.7903"/>
</g>
<!-- Node31&#45;&gt;Node11 -->
<g id="edge117" class="edge"><title>Node31&#45;&gt;Node11</title>
<path fill="none" stroke="midnightblue" d="M780.776,-705.447C759.933,-697.114 728.148,-683.597 702,-669 630.809,-629.257 304,-384.33 304,-369 304,-369 304,-369 304,-305.5 304,-215.197 376.469,-125.117 409.24,-88.9988"/>
<polygon fill="midnightblue" stroke="midnightblue" points="412.069,-91.0946 416.298,-81.3802 406.934,-86.3372 412.069,-91.0946"/>
</g>
<!-- Node31&#45;&gt;Node28 -->
<g id="edge119" class="edge"><title>Node31&#45;&gt;Node28</title>
<path fill="none" stroke="midnightblue" d="M796.01,-705.117C785.125,-691.702 762.975,-666.035 740,-649 711.898,-628.163 697.452,-634.686 670,-613 596.047,-554.58 456.41,-361.618 394,-291 385.408,-281.278 375.628,-270.531 367.775,-261.979"/>
<polygon fill="midnightblue" stroke="midnightblue" points="370.287,-259.541 360.938,-254.557 365.139,-264.283 370.287,-259.541"/>
</g>
<!-- Node32 -->
<g id="node32" class="node"><title>Node32</title>
<g id="a_node32"><a xlink:href="node_8h.html" target="_top" xlink:title="Definitions and helper macros for IR/AST nodes. ">
<polygon fill="white" stroke="black" points="1892,-537.5 1892,-556.5 1990,-556.5 1990,-537.5 1892,-537.5"/>
<text text-anchor="middle" x="1941" y="-544.5" font-family="Helvetica,sans-Serif" font-size="10.00">tvm/node/node.h</text>
</a>
</g>
</g>
<!-- Node31&#45;&gt;Node32 -->
<g id="edge65" class="edge"><title>Node31&#45;&gt;Node32</title>
<path fill="none" stroke="midnightblue" d="M841.737,-713.122C1029.37,-708.527 1838.19,-684.657 1922,-613 1935.25,-601.676 1939.52,-581.676 1940.78,-566.842"/>
<polygon fill="midnightblue" stroke="midnightblue" points="1944.28,-566.886 1941.24,-556.735 1937.28,-566.562 1944.28,-566.886"/>
</g>
<!-- Node39 -->
<g id="node39" class="node"><title>Node39</title>
<g id="a_node39"><a xlink:href="span_8h.html" target="_top" xlink:title="Span information for debugging purposes. ">
<polygon fill="white" stroke="black" points="1809,-593.5 1809,-612.5 1889,-612.5 1889,-593.5 1809,-593.5"/>
<text text-anchor="middle" x="1849" y="-600.5" font-family="Helvetica,sans-Serif" font-size="10.00">tvm/ir/span.h</text>
</a>
</g>
</g>
<!-- Node31&#45;&gt;Node39 -->
<g id="edge106" class="edge"><title>Node31&#45;&gt;Node39</title>
<path fill="none" stroke="midnightblue" d="M841.734,-711.883C936.157,-706.541 1185.66,-691.327 1393,-669 1572.36,-649.687 1616.68,-640.275 1795,-613 1796.27,-612.806 1797.55,-612.607 1798.85,-612.405"/>
<polygon fill="midnightblue" stroke="midnightblue" points="1799.59,-615.832 1808.91,-610.803 1798.49,-608.919 1799.59,-615.832"/>
</g>
<!-- Node40 -->
<g id="node40" class="node"><title>Node40</title>
<g id="a_node40"><a xlink:href="ir_2type_8h.html" target="_top" xlink:title="IR/AST nodes for the unified type system in TVM. ">
<polygon fill="white" stroke="black" points="1307.5,-649.5 1307.5,-668.5 1384.5,-668.5 1384.5,-649.5 1307.5,-649.5"/>
<text text-anchor="middle" x="1346" y="-656.5" font-family="Helvetica,sans-Serif" font-size="10.00">tvm/ir/type.h</text>
</a>
</g>
</g>
<!-- Node31&#45;&gt;Node40 -->
<g id="edge110" class="edge"><title>Node31&#45;&gt;Node40</title>
<path fill="none" stroke="midnightblue" d="M841.616,-710.16C938.223,-700.552 1190.25,-675.489 1297.04,-664.869"/>
<polygon fill="midnightblue" stroke="midnightblue" points="1297.61,-668.329 1307.22,-663.857 1296.92,-661.364 1297.61,-668.329"/>
</g>
<!-- Node41 -->
<g id="node41" class="node"><title>Node41</title>
<polygon fill="white" stroke="#bfbfbf" points="598,-649.5 598,-668.5 660,-668.5 660,-649.5 598,-649.5"/>
<text text-anchor="middle" x="629" y="-656.5" font-family="Helvetica,sans-Serif" font-size="10.00">algorithm</text>
</g>
<!-- Node31&#45;&gt;Node41 -->
<g id="edge118" class="edge"><title>Node31&#45;&gt;Node41</title>
<path fill="none" stroke="midnightblue" d="M775.429,-705.444C745.903,-696.28 698.882,-681.688 666.117,-671.519"/>
<polygon fill="midnightblue" stroke="midnightblue" points="667.03,-668.138 656.442,-668.516 664.955,-674.823 667.03,-668.138"/>
</g>
<!-- Node32&#45;&gt;Node3 -->
<g id="edge98" class="edge"><title>Node32&#45;&gt;Node3</title>
<path fill="none" stroke="midnightblue" d="M1944.15,-537.212C1953.83,-510.613 1983.73,-431.713 2004,-414 2023.6,-396.871 2049.79,-386.248 2074.22,-379.666"/>
<polygon fill="midnightblue" stroke="midnightblue" points="2075.34,-382.993 2084.19,-377.169 2073.64,-376.203 2075.34,-382.993"/>
</g>
<!-- Node32&#45;&gt;Node4 -->
<g id="edge67" class="edge"><title>Node32&#45;&gt;Node4</title>
<path fill="none" stroke="midnightblue" d="M1941.13,-537.307C1941.4,-518.063 1942,-470.405 1942,-430.5 1942,-430.5 1942,-430.5 1942,-367 1942,-294.693 2031.46,-321.436 2060,-255 2070.53,-230.493 2041.64,-180.961 2040,-179 2028.07,-164.78 2010.43,-154.129 1994.85,-146.768"/>
<polygon fill="midnightblue" stroke="midnightblue" points="1996.04,-143.467 1985.48,-142.608 1993.19,-149.865 1996.04,-143.467"/>
</g>
<!-- Node32&#45;&gt;Node6 -->
<g id="edge66" class="edge"><title>Node32&#45;&gt;Node6</title>
<path fill="none" stroke="midnightblue" d="M1891.98,-544.966C1716.27,-541.065 1124.11,-526.168 1043,-501 997.644,-486.927 984.38,-479.738 952,-445 886.292,-374.505 848.897,-317.922 898,-235 966.954,-118.555 1136.13,-85.4414 1234.27,-76.0989"/>
<polygon fill="midnightblue" stroke="midnightblue" points="1234.76,-79.5687 1244.41,-75.1937 1234.14,-72.5964 1234.76,-79.5687"/>
</g>
<!-- Node32&#45;&gt;Node10 -->
<g id="edge104" class="edge"><title>Node32&#45;&gt;Node10</title>
<path fill="none" stroke="midnightblue" d="M1891.81,-545.485C1708.92,-543.323 1074.34,-533.527 990,-501 860.343,-450.993 818.952,-392.221 797,-255 787.647,-196.534 785.054,-174.079 815,-123 822.666,-109.923 834.24,-97.4334 843.984,-88.1462"/>
<polygon fill="midnightblue" stroke="midnightblue" points="846.604,-90.4923 851.612,-81.1558 841.875,-85.3315 846.604,-90.4923"/>
</g>
<!-- Node32&#45;&gt;Node11 -->
<g id="edge101" class="edge"><title>Node32&#45;&gt;Node11</title>
<path fill="none" stroke="midnightblue" d="M1891.77,-545.14C1703.29,-541.661 1033.56,-527.534 942,-501 693.389,-428.951 487.123,-159.551 436.761,-89.3256"/>
<polygon fill="midnightblue" stroke="midnightblue" points="439.571,-87.2381 430.93,-81.1072 433.862,-91.2884 439.571,-87.2381"/>
</g>
<!-- Node32&#45;&gt;Node12 -->
<g id="edge103" class="edge"><title>Node32&#45;&gt;Node12</title>
<path fill="none" stroke="midnightblue" d="M1970.11,-537.427C1996.98,-529.179 2037.79,-515.805 2072,-501 2120.9,-479.837 2132.94,-473.437 2178,-445 2319.22,-355.875 2370.5,-338.694 2462,-199 2481.27,-169.584 2486.76,-158.056 2484,-123 2483.16,-112.314 2481.33,-100.474 2479.64,-90.9452"/>
<polygon fill="midnightblue" stroke="midnightblue" points="2483.06,-90.2104 2477.77,-81.0292 2476.18,-91.5037 2483.06,-90.2104"/>
</g>
<!-- Node32&#45;&gt;Node14 -->
<g id="edge68" class="edge"><title>Node32&#45;&gt;Node14</title>
<path fill="none" stroke="midnightblue" d="M1961.27,-537.347C2020.15,-511.484 2194.22,-429.83 2308,-322 2339.75,-291.913 2370.96,-275.317 2354,-235 2348.97,-223.053 2339.06,-212.692 2329.71,-204.934"/>
<polygon fill="midnightblue" stroke="midnightblue" points="2331.84,-202.155 2321.79,-198.811 2327.56,-207.694 2331.84,-202.155"/>
</g>
<!-- Node32&#45;&gt;Node20 -->
<g id="edge102" class="edge"><title>Node32&#45;&gt;Node20</title>
<path fill="none" stroke="midnightblue" d="M1891.68,-545.163C1778.59,-542.723 1492.08,-533.564 1255,-501 1135.31,-484.56 1081.13,-523.148 989,-445 913.533,-380.989 851.151,-310.605 915,-235 944.234,-200.383 1081.6,-192.391 1146.23,-190.549"/>
<polygon fill="midnightblue" stroke="midnightblue" points="1146.4,-194.046 1156.31,-190.295 1146.23,-187.048 1146.4,-194.046"/>
</g>
<!-- Node33 -->
<g id="node33" class="node"><title>Node33</title>
<g id="a_node33"><a xlink:href="reflection_8h.html" target="_top" xlink:title="Reflection and serialization of compiler IR/AST nodes. ">
<polygon fill="white" stroke="black" points="1264.5,-481.5 1264.5,-500.5 1383.5,-500.5 1383.5,-481.5 1264.5,-481.5"/>
<text text-anchor="middle" x="1324" y="-488.5" font-family="Helvetica,sans-Serif" font-size="10.00">tvm/node/reflection.h</text>
</a>
</g>
</g>
<!-- Node32&#45;&gt;Node33 -->
<g id="edge69" class="edge"><title>Node32&#45;&gt;Node33</title>
<path fill="none" stroke="midnightblue" d="M1891.81,-541.695C1782.68,-532.144 1520.01,-509.154 1393.88,-498.116"/>
<polygon fill="midnightblue" stroke="midnightblue" points="1393.85,-494.6 1383.58,-497.214 1393.23,-501.573 1393.85,-494.6"/>
</g>
<!-- Node34 -->
<g id="node34" class="node"><title>Node34</title>
<g id="a_node34"><a xlink:href="structural__equal_8h.html" target="_top" xlink:title="Structural equality comparison. ">
<polygon fill="white" stroke="black" points="1539.5,-414.5 1539.5,-444.5 1650.5,-444.5 1650.5,-414.5 1539.5,-414.5"/>
<text text-anchor="start" x="1547.5" y="-432.5" font-family="Helvetica,sans-Serif" font-size="10.00">tvm/node/structural</text>
<text text-anchor="middle" x="1595" y="-421.5" font-family="Helvetica,sans-Serif" font-size="10.00">_equal.h</text>
</a>
</g>
</g>
<!-- Node32&#45;&gt;Node34 -->
<g id="edge99" class="edge"><title>Node32&#45;&gt;Node34</title>
<path fill="none" stroke="midnightblue" d="M1915.28,-537.413C1858.62,-518.5 1722.14,-472.94 1646.91,-447.83"/>
<polygon fill="midnightblue" stroke="midnightblue" points="1647.76,-444.422 1637.17,-444.575 1645.54,-451.062 1647.76,-444.422"/>
</g>
<!-- Node36 -->
<g id="node36" class="node"><title>Node36</title>
<g id="a_node36"><a xlink:href="structural__hash_8h.html" target="_top" xlink:title="tvm/node/structural\l_hash.h">
<polygon fill="white" stroke="black" points="1688.5,-414.5 1688.5,-444.5 1799.5,-444.5 1799.5,-414.5 1688.5,-414.5"/>
<text text-anchor="start" x="1696.5" y="-432.5" font-family="Helvetica,sans-Serif" font-size="10.00">tvm/node/structural</text>
<text text-anchor="middle" x="1744" y="-421.5" font-family="Helvetica,sans-Serif" font-size="10.00">_hash.h</text>
</a>
</g>
</g>
<!-- Node32&#45;&gt;Node36 -->
<g id="edge100" class="edge"><title>Node32&#45;&gt;Node36</title>
<path fill="none" stroke="midnightblue" d="M1926.19,-537.319C1894.62,-518.805 1820.01,-475.066 1776.7,-449.67"/>
<polygon fill="midnightblue" stroke="midnightblue" points="1778.35,-446.584 1767.96,-444.545 1774.81,-452.622 1778.35,-446.584"/>
</g>
<!-- Node37 -->
<g id="node37" class="node"><title>Node37</title>
<g id="a_node37"><a xlink:href="repr__printer_8h.html" target="_top" xlink:title="Printer class to print repr string of each AST/IR nodes. ">
<polygon fill="white" stroke="black" points="2318,-481.5 2318,-500.5 2448,-500.5 2448,-481.5 2318,-481.5"/>
<text text-anchor="middle" x="2383" y="-488.5" font-family="Helvetica,sans-Serif" font-size="10.00">tvm/node/repr_printer.h</text>
</a>
</g>
</g>
<!-- Node32&#45;&gt;Node37 -->
<g id="edge95" class="edge"><title>Node32&#45;&gt;Node37</title>
<path fill="none" stroke="midnightblue" d="M1990.42,-539.963C2067.61,-530.532 2217.31,-512.242 2307.9,-501.175"/>
<polygon fill="midnightblue" stroke="midnightblue" points="2308.33,-504.649 2317.83,-499.962 2307.48,-497.7 2308.33,-504.649"/>
</g>
<!-- Node33&#45;&gt;Node4 -->
<g id="edge71" class="edge"><title>Node33&#45;&gt;Node4</title>
<path fill="none" stroke="midnightblue" d="M1349.17,-481.431C1427.34,-454.283 1671.72,-365.423 1855,-255 1889.42,-234.26 1900.16,-229.779 1926,-199 1937.95,-184.764 1947.6,-165.797 1953.71,-152.027"/>
<polygon fill="midnightblue" stroke="midnightblue" points="1956.99,-153.248 1957.68,-142.676 1950.55,-150.515 1956.99,-153.248"/>
</g>
<!-- Node33&#45;&gt;Node6 -->
<g id="edge70" class="edge"><title>Node33&#45;&gt;Node6</title>
<path fill="none" stroke="midnightblue" d="M1315.78,-481.434C1284.83,-448.463 1175.72,-325.275 1147,-199 1134.6,-144.456 1198.27,-109.171 1249.18,-90.0765"/>
<polygon fill="midnightblue" stroke="midnightblue" points="1250.63,-93.2757 1258.85,-86.5856 1248.25,-86.6922 1250.63,-93.2757"/>
</g>
<!-- Node33&#45;&gt;Node10 -->
<g id="edge94" class="edge"><title>Node33&#45;&gt;Node10</title>
<path fill="none" stroke="midnightblue" d="M1264.37,-486.699C1181.37,-481.312 1035.92,-468.765 989,-445 884.408,-392.023 849.849,-363.735 806,-255 782.083,-195.692 826.033,-122.11 849.132,-89.4635"/>
<polygon fill="midnightblue" stroke="midnightblue" points="852.208,-91.1861 855.277,-81.0456 846.554,-87.0586 852.208,-91.1861"/>
</g>
<!-- Node33&#45;&gt;Node11 -->
<g id="edge93" class="edge"><title>Node33&#45;&gt;Node11</title>
<path fill="none" stroke="midnightblue" d="M1264.26,-490.416C1185.55,-489.35 1043.67,-481.816 929,-445 700.655,-371.691 681.571,-274.918 496,-123 480.158,-110.031 461.22,-96.6588 446.889,-86.9354"/>
<polygon fill="midnightblue" stroke="midnightblue" points="448.469,-83.7806 438.215,-81.1135 444.568,-89.5927 448.469,-83.7806"/>
</g>
<!-- Node33&#45;&gt;Node14 -->
<g id="edge72" class="edge"><title>Node33&#45;&gt;Node14</title>
<path fill="none" stroke="midnightblue" d="M1383.56,-490.207C1508.1,-488.596 1802.96,-474.007 2026,-378 2072.43,-358.013 2082.01,-348.59 2125,-322 2145.97,-309.032 2149.11,-302.332 2171,-291 2211.1,-270.245 2230.88,-283.38 2266,-255 2281.47,-242.496 2293.1,-222.713 2300.15,-208.253"/>
<polygon fill="midnightblue" stroke="midnightblue" points="2303.48,-209.394 2304.46,-198.845 2297.11,-206.475 2303.48,-209.394"/>
</g>
<!-- Node33&#45;&gt;Node16 -->
<g id="edge73" class="edge"><title>Node33&#45;&gt;Node16</title>
<path fill="none" stroke="midnightblue" d="M1330.21,-481.481C1347.65,-458.162 1399.62,-392.724 1458,-358 1488.37,-339.935 1525.76,-327.823 1557.36,-320"/>
<polygon fill="midnightblue" stroke="midnightblue" points="1558.49,-323.331 1567.4,-317.609 1556.87,-316.521 1558.49,-323.331"/>
</g>
<!-- Node33&#45;&gt;Node20 -->
<g id="edge92" class="edge"><title>Node33&#45;&gt;Node20</title>
<path fill="none" stroke="midnightblue" d="M1319.85,-481.345C1300.14,-440.285 1215.88,-264.758 1188.58,-207.872"/>
<polygon fill="midnightblue" stroke="midnightblue" points="1191.65,-206.191 1184.17,-198.69 1185.34,-209.22 1191.65,-206.191"/>
</g>
<!-- Node33&#45;&gt;Node22 -->
<g id="edge74" class="edge"><title>Node33&#45;&gt;Node22</title>
<path fill="none" stroke="midnightblue" d="M1327.32,-481.463C1332.9,-467.292 1344.65,-438.086 1356,-414 1382.36,-358.077 1417.4,-293.806 1434.2,-263.521"/>
<polygon fill="midnightblue" stroke="midnightblue" points="1437.35,-265.054 1439.16,-254.615 1431.23,-261.648 1437.35,-265.054"/>
</g>
<!-- Node33&#45;&gt;Node25 -->
<g id="edge75" class="edge"><title>Node33&#45;&gt;Node25</title>
<path fill="none" stroke="midnightblue" d="M1264.48,-489.816C1183.76,-488.213 1045.74,-480.224 1012,-445 964.461,-395.368 978.477,-303.527 987.282,-264.413"/>
<polygon fill="midnightblue" stroke="midnightblue" points="990.692,-265.2 989.622,-254.66 983.885,-263.567 990.692,-265.2"/>
</g>
<!-- Node33&#45;&gt;Node34 -->
<g id="edge76" class="edge"><title>Node33&#45;&gt;Node34</title>
<path fill="none" stroke="midnightblue" d="M1362.83,-481.475C1406.28,-471.936 1477.39,-456.321 1529.49,-444.884"/>
<polygon fill="midnightblue" stroke="midnightblue" points="1530.29,-448.29 1539.31,-442.727 1528.79,-441.453 1530.29,-448.29"/>
</g>
<!-- Node33&#45;&gt;Node36 -->
<g id="edge86" class="edge"><title>Node33&#45;&gt;Node36</title>
<path fill="none" stroke="midnightblue" d="M1383.7,-482.629C1450.77,-474.197 1562.84,-459.655 1659,-445 1665.22,-444.053 1671.68,-443.026 1678.14,-441.971"/>
<polygon fill="midnightblue" stroke="midnightblue" points="1678.97,-445.382 1688.26,-440.298 1677.83,-438.476 1678.97,-445.382"/>
</g>
<!-- Node34&#45;&gt;Node3 -->
<g id="edge84" class="edge"><title>Node34&#45;&gt;Node3</title>
<path fill="none" stroke="midnightblue" d="M1650.94,-418.247C1660.29,-416.704 1669.91,-415.223 1679,-414 1818.71,-395.209 1983.04,-381.191 2074.18,-374.127"/>
<polygon fill="midnightblue" stroke="midnightblue" points="2074.68,-377.599 2084.38,-373.341 2074.14,-370.619 2074.68,-377.599"/>
</g>
<!-- Node34&#45;&gt;Node11 -->
<g id="edge85" class="edge"><title>Node34&#45;&gt;Node11</title>
<path fill="none" stroke="midnightblue" d="M1539.34,-423.683C1403.21,-410.46 1044.4,-366.85 768,-255 657.313,-210.209 640.256,-177.474 534,-123 507.325,-109.324 476.244,-95.0863 454.113,-85.2282"/>
<polygon fill="midnightblue" stroke="midnightblue" points="455.48,-82.0058 444.919,-81.1555 452.645,-88.4059 455.48,-82.0058"/>
</g>
<!-- Node34&#45;&gt;Node25 -->
<g id="edge77" class="edge"><title>Node34&#45;&gt;Node25</title>
<path fill="none" stroke="midnightblue" d="M1539.3,-421.241C1449.85,-408.404 1269.65,-377.651 1126,-322 1083.58,-305.565 1038.37,-277.414 1012.8,-260.374"/>
<polygon fill="midnightblue" stroke="midnightblue" points="1014.56,-257.339 1004.32,-254.642 1010.64,-263.139 1014.56,-257.339"/>
</g>
<!-- Node35 -->
<g id="node35" class="node"><title>Node35</title>
<g id="a_node35"><a xlink:href="functor_8h.html" target="_top" xlink:title="Defines the Functor data structures. ">
<polygon fill="white" stroke="black" points="2150.5,-235.5 2150.5,-254.5 2257.5,-254.5 2257.5,-235.5 2150.5,-235.5"/>
<text text-anchor="middle" x="2204" y="-242.5" font-family="Helvetica,sans-Serif" font-size="10.00">tvm/node/functor.h</text>
</a>
</g>
</g>
<!-- Node34&#45;&gt;Node35 -->
<g id="edge78" class="edge"><title>Node34&#45;&gt;Node35</title>
<path fill="none" stroke="midnightblue" d="M1641.78,-414.483C1758.2,-379.592 2059.28,-289.368 2165.89,-257.42"/>
<polygon fill="midnightblue" stroke="midnightblue" points="2167.01,-260.738 2175.59,-254.514 2165,-254.032 2167.01,-260.738"/>
</g>
<!-- Node35&#45;&gt;Node4 -->
<g id="edge80" class="edge"><title>Node35&#45;&gt;Node4</title>
<path fill="none" stroke="midnightblue" d="M2194.47,-235.144C2179.08,-221.295 2147.33,-194.495 2116,-179 2084.3,-163.317 2046.17,-152.159 2015.67,-144.877"/>
<polygon fill="midnightblue" stroke="midnightblue" points="2016.17,-141.4 2005.63,-142.555 2014.59,-148.22 2016.17,-141.4"/>
</g>
<!-- Node35&#45;&gt;Node5 -->
<g id="edge79" class="edge"><title>Node35&#45;&gt;Node5</title>
<path fill="none" stroke="midnightblue" d="M2206.25,-235.298C2211.37,-213.278 2221.31,-154.84 2192,-123 2162.78,-91.2573 2041.55,-79.2484 1970.17,-74.8729"/>
<polygon fill="midnightblue" stroke="midnightblue" points="1970.21,-71.3691 1960.02,-74.2813 1969.8,-78.3572 1970.21,-71.3691"/>
</g>
<!-- Node35&#45;&gt;Node10 -->
<g id="edge82" class="edge"><title>Node35&#45;&gt;Node10</title>
<path fill="none" stroke="midnightblue" d="M2198.1,-235.425C2188.49,-221.961 2168.28,-195.679 2146,-179 2099.53,-144.208 2084.34,-136.979 2028,-123 2014.12,-119.557 1117.5,-82.8956 906.236,-74.2973"/>
<polygon fill="midnightblue" stroke="midnightblue" points="906.264,-70.7957 896.13,-73.8862 905.98,-77.7899 906.264,-70.7957"/>
</g>
<!-- Node35&#45;&gt;Node12 -->
<g id="edge83" class="edge"><title>Node35&#45;&gt;Node12</title>
<path fill="none" stroke="midnightblue" d="M2255.04,-235.484C2299.71,-227.227 2360.45,-213.804 2380,-199 2411.11,-175.437 2400,-153.776 2424,-123 2434.02,-110.159 2447.19,-97.3962 2457.78,-87.9137"/>
<polygon fill="midnightblue" stroke="midnightblue" points="2460.37,-90.2911 2465.6,-81.0733 2455.77,-85.0219 2460.37,-90.2911"/>
</g>
<!-- Node35&#45;&gt;Node20 -->
<g id="edge81" class="edge"><title>Node35&#45;&gt;Node20</title>
<path fill="none" stroke="midnightblue" d="M2150.39,-241.173C1966.51,-231.476 1364.53,-199.731 1214.24,-191.805"/>
<polygon fill="midnightblue" stroke="midnightblue" points="1213.99,-188.287 1203.82,-191.256 1213.62,-195.278 1213.99,-188.287"/>
</g>
<!-- Node36&#45;&gt;Node3 -->
<g id="edge89" class="edge"><title>Node36&#45;&gt;Node3</title>
<path fill="none" stroke="midnightblue" d="M1799.62,-420.227C1872.04,-409.455 1998.53,-390.638 2076.4,-379.055"/>
<polygon fill="midnightblue" stroke="midnightblue" points="2077.21,-382.473 2086.59,-377.54 2076.18,-375.549 2077.21,-382.473"/>
</g>
<!-- Node36&#45;&gt;Node11 -->
<g id="edge90" class="edge"><title>Node36&#45;&gt;Node11</title>
<path fill="none" stroke="midnightblue" d="M1688.28,-418.618C1678.53,-416.997 1668.48,-415.394 1659,-414 1530.07,-395.038 1496.49,-399.741 1368,-378 999.214,-315.6 916.997,-252.222 566,-123 528.457,-109.178 485.11,-93.7292 456.497,-83.6015"/>
<polygon fill="midnightblue" stroke="midnightblue" points="457.619,-80.286 447.024,-80.2525 455.286,-86.8857 457.619,-80.286"/>
</g>
<!-- Node36&#45;&gt;Node25 -->
<g id="edge87" class="edge"><title>Node36&#45;&gt;Node25</title>
<path fill="none" stroke="midnightblue" d="M1688.13,-418.646C1569.07,-397.461 1293.71,-347.445 1202,-322 1167.57,-312.448 1073.87,-277.259 1024.09,-258.297"/>
<polygon fill="midnightblue" stroke="midnightblue" points="1025.05,-254.917 1014.46,-254.623 1022.55,-261.458 1025.05,-254.917"/>
</g>
<!-- Node36&#45;&gt;Node26 -->
<g id="edge91" class="edge"><title>Node36&#45;&gt;Node26</title>
<path fill="none" stroke="midnightblue" d="M1752.07,-414.24C1768.04,-387.095 1806.14,-327.457 1852,-291 1869.91,-276.759 1893.07,-265.737 1912.15,-258.166"/>
<polygon fill="midnightblue" stroke="midnightblue" points="1913.61,-261.355 1921.71,-254.522 1911.12,-254.814 1913.61,-261.355"/>
</g>
<!-- Node36&#45;&gt;Node35 -->
<g id="edge88" class="edge"><title>Node36&#45;&gt;Node35</title>
<path fill="none" stroke="midnightblue" d="M1799.78,-416.91C1804.59,-415.922 1809.38,-414.941 1814,-414 1893.94,-397.726 1918.21,-408.207 1994,-378 2014.19,-369.951 2133.19,-292.47 2182.56,-260.1"/>
<polygon fill="midnightblue" stroke="midnightblue" points="2184.48,-263.021 2190.92,-254.608 2180.64,-257.169 2184.48,-263.021"/>
</g>
<!-- Node37&#45;&gt;Node35 -->
<g id="edge96" class="edge"><title>Node37&#45;&gt;Node35</title>
<path fill="none" stroke="midnightblue" d="M2379.42,-481.231C2367.08,-451.796 2323.92,-354.792 2266,-291 2254.92,-278.798 2240.04,-267.865 2227.63,-259.831"/>
<polygon fill="midnightblue" stroke="midnightblue" points="2229.46,-256.847 2219.13,-254.517 2225.75,-262.784 2229.46,-256.847"/>
</g>
<!-- Node38 -->
<g id="node38" class="node"><title>Node38</title>
<polygon fill="white" stroke="#bfbfbf" points="2391.5,-420 2391.5,-439 2450.5,-439 2450.5,-420 2391.5,-420"/>
<text text-anchor="middle" x="2421" y="-427" font-family="Helvetica,sans-Serif" font-size="10.00">iostream</text>
</g>
<!-- Node37&#45;&gt;Node38 -->
<g id="edge97" class="edge"><title>Node37&#45;&gt;Node38</title>
<path fill="none" stroke="midnightblue" d="M2388.44,-481.475C2394.09,-472.638 2403.06,-458.589 2410.16,-447.475"/>
<polygon fill="midnightblue" stroke="midnightblue" points="2413.13,-449.321 2415.57,-439.009 2407.23,-445.553 2413.13,-449.321"/>
</g>
<!-- Node39&#45;&gt;Node4 -->
<g id="edge107" class="edge"><title>Node39&#45;&gt;Node4</title>
<path fill="none" stroke="midnightblue" d="M1851.13,-593.374C1862.43,-548.183 1916.52,-338.973 1961,-291 1982.4,-267.916 2006.39,-282.338 2022,-255 2043.16,-217.947 2003.72,-172.661 1978.92,-149.407"/>
<polygon fill="midnightblue" stroke="midnightblue" points="1981.25,-146.788 1971.48,-142.669 1976.55,-151.976 1981.25,-146.788"/>
</g>
<!-- Node39&#45;&gt;Node11 -->
<g id="edge109" class="edge"><title>Node39&#45;&gt;Node11</title>
<path fill="none" stroke="midnightblue" d="M1808.63,-602.38C1674.52,-602.676 1232.64,-595.9 884,-501 826.043,-485.224 811.986,-476.755 761,-445 627.059,-361.579 606.431,-319.876 505,-199 484.296,-174.327 476.341,-170.143 459,-143 448.168,-126.045 438.492,-105.12 432.259,-90.488"/>
<polygon fill="midnightblue" stroke="midnightblue" points="435.426,-88.9884 428.361,-81.0931 428.961,-91.671 435.426,-88.9884"/>
</g>
<!-- Node39&#45;&gt;Node32 -->
<g id="edge108" class="edge"><title>Node39&#45;&gt;Node32</title>
<path fill="none" stroke="midnightblue" d="M1863.78,-593.324C1878.27,-584.822 1900.57,-571.729 1917.49,-561.797"/>
<polygon fill="midnightblue" stroke="midnightblue" points="1919.4,-564.735 1926.26,-556.655 1915.86,-558.698 1919.4,-564.735"/>
</g>
<!-- Node40&#45;&gt;Node3 -->
<g id="edge114" class="edge"><title>Node40&#45;&gt;Node3</title>
<path fill="none" stroke="midnightblue" d="M1384.68,-657.545C1497.13,-655.819 1822.35,-647.865 1922,-613 1970.64,-595.983 2018,-599.527 2018,-548 2018,-548 2018,-548 2018,-490 2018,-453.686 2023.14,-440.466 2048,-414 2062.49,-398.578 2083.32,-387.932 2101.88,-380.883"/>
<polygon fill="midnightblue" stroke="midnightblue" points="2103.09,-384.169 2111.34,-377.518 2100.74,-377.574 2103.09,-384.169"/>
</g>
<!-- Node40&#45;&gt;Node4 -->
<g id="edge111" class="edge"><title>Node40&#45;&gt;Node4</title>
<path fill="none" stroke="midnightblue" d="M1375.14,-649.498C1451.79,-626.154 1663.08,-555.367 1808,-445 1879.26,-390.732 1872.27,-351.849 1938,-291 1958.09,-272.398 1975.52,-279.372 1988,-255 2005.42,-220.99 1985.69,-175.956 1971.96,-151.547"/>
<polygon fill="midnightblue" stroke="midnightblue" points="1974.84,-149.543 1966.74,-142.715 1968.82,-153.104 1974.84,-149.543"/>
</g>
<!-- Node40&#45;&gt;Node11 -->
<g id="edge116" class="edge"><title>Node40&#45;&gt;Node11</title>
<path fill="none" stroke="midnightblue" d="M1307.3,-656.137C1220.23,-651.546 1011.46,-638.192 946,-613 688.682,-513.979 647.285,-421.162 484,-199 465.886,-174.355 457.076,-170.65 444,-143 436.132,-126.362 431.077,-105.92 428.175,-91.3406"/>
<polygon fill="midnightblue" stroke="midnightblue" points="431.542,-90.2949 426.297,-81.0895 424.657,-91.5565 431.542,-90.2949"/>
</g>
<!-- Node40&#45;&gt;Node25 -->
<g id="edge112" class="edge"><title>Node40&#45;&gt;Node25</title>
<path fill="none" stroke="midnightblue" d="M1307.49,-656.452C1201.27,-651.143 912,-629.228 912,-548 912,-548 912,-548 912,-428.5 912,-362.662 956.212,-293.854 978.902,-262.877"/>
<polygon fill="midnightblue" stroke="midnightblue" points="981.97,-264.62 985.179,-254.523 976.374,-260.415 981.97,-264.62"/>
</g>
<!-- Node40&#45;&gt;Node32 -->
<g id="edge113" class="edge"><title>Node40&#45;&gt;Node32</title>
<path fill="none" stroke="midnightblue" d="M1384.59,-656.795C1502.71,-652.84 1854.03,-638.992 1898,-613 1915.79,-602.483 1927.66,-581.375 1934.34,-566.059"/>
<polygon fill="midnightblue" stroke="midnightblue" points="1937.67,-567.166 1938.15,-556.582 1931.17,-564.558 1937.67,-567.166"/>
</g>
<!-- Node40&#45;&gt;Node39 -->
<g id="edge115" class="edge"><title>Node40&#45;&gt;Node39</title>
<path fill="none" stroke="midnightblue" d="M1384.54,-654.991C1462.32,-648.729 1643.57,-633.185 1795,-613 1796.27,-612.83 1797.56,-612.654 1798.86,-612.471"/>
<polygon fill="midnightblue" stroke="midnightblue" points="1799.56,-615.905 1808.94,-610.976 1798.53,-608.981 1799.56,-615.905"/>
</g>
<!-- Node42&#45;&gt;Node21 -->
<g id="edge136" class="edge"><title>Node42&#45;&gt;Node21</title>
<path fill="none" stroke="midnightblue" d="M894.352,-825.485C1170.58,-822.657 2448.99,-808.139 2528,-781 2632.92,-744.962 2704,-714.938 2704,-604 2704,-604 2704,-604 2704,-367 2704,-307.89 2683,-240.223 2671.82,-208.385"/>
<polygon fill="midnightblue" stroke="midnightblue" points="2675.01,-206.911 2668.33,-198.69 2668.42,-209.285 2675.01,-206.911"/>
</g>
<!-- Node42&#45;&gt;Node31 -->
<g id="edge122" class="edge"><title>Node42&#45;&gt;Node31</title>
<path fill="none" stroke="midnightblue" d="M838.94,-817.368C832.618,-799.537 817.996,-758.295 809.478,-734.272"/>
<polygon fill="midnightblue" stroke="midnightblue" points="812.687,-732.847 806.046,-724.591 806.089,-735.186 812.687,-732.847"/>
</g>
<!-- Node42&#45;&gt;Node43 -->
<g id="edge123" class="edge"><title>Node42&#45;&gt;Node43</title>
<path fill="none" stroke="midnightblue" d="M817.757,-817.444C792.129,-808.399 751.515,-794.064 722.762,-783.916"/>
<polygon fill="midnightblue" stroke="midnightblue" points="723.725,-780.544 713.13,-780.516 721.395,-787.145 723.725,-780.544"/>
</g>
<!-- Node43&#45;&gt;Node3 -->
<g id="edge125" class="edge"><title>Node43&#45;&gt;Node3</title>
<path fill="none" stroke="midnightblue" d="M729.267,-769.107C963.291,-763.659 2138,-732.69 2138,-660 2138,-660 2138,-660 2138,-490 2138,-453.669 2140.73,-411.278 2142.51,-387.545"/>
<polygon fill="midnightblue" stroke="midnightblue" points="2146,-387.742 2143.29,-377.501 2139.02,-387.201 2146,-387.742"/>
</g>
<!-- Node43&#45;&gt;Node6 -->
<g id="edge127" class="edge"><title>Node43&#45;&gt;Node6</title>
<path fill="none" stroke="midnightblue" d="M648.854,-766.75C617.621,-762.191 575.161,-751.25 548,-725 447.012,-627.398 426.44,-538.204 492,-414 636.969,-139.355 1062.08,-85.5184 1234.29,-75.0193"/>
<polygon fill="midnightblue" stroke="midnightblue" points="1234.5,-78.5134 1244.28,-74.442 1234.09,-71.525 1234.5,-78.5134"/>
</g>
<!-- Node43&#45;&gt;Node11 -->
<g id="edge130" class="edge"><title>Node43&#45;&gt;Node11</title>
<path fill="none" stroke="midnightblue" d="M648.606,-766.101C591.023,-759.881 488.976,-746.209 459,-725 390.437,-676.49 383.446,-877.385 252,-322 243.095,-284.373 237.283,-270.756 252,-235 281.319,-163.767 360.068,-109.916 400.423,-86.0455"/>
<polygon fill="midnightblue" stroke="midnightblue" points="402.209,-89.0557 409.113,-81.019 398.704,-82.9964 402.209,-89.0557"/>
</g>
<!-- Node43&#45;&gt;Node12 -->
<g id="edge135" class="edge"><title>Node43&#45;&gt;Node12</title>
<path fill="none" stroke="midnightblue" d="M729.361,-769.916C964.487,-769.287 2152.57,-764.182 2310,-725 2467.1,-685.9 2590,-653.896 2590,-492 2590,-492 2590,-492 2590,-188 2590,-139.198 2537.81,-103.559 2504.05,-85.6129"/>
<polygon fill="midnightblue" stroke="midnightblue" points="2505.58,-82.4611 2495.08,-81.024 2502.39,-88.6934 2505.58,-82.4611"/>
</g>
<!-- Node43&#45;&gt;Node21 -->
<g id="edge132" class="edge"><title>Node43&#45;&gt;Node21</title>
<path fill="none" stroke="midnightblue" d="M729.273,-769.967C988.046,-769.632 2408.78,-765.928 2490,-725 2579.08,-680.111 2628,-647.751 2628,-548 2628,-548 2628,-548 2628,-305.5 2628,-269.509 2644.5,-230.088 2655.46,-207.863"/>
<polygon fill="midnightblue" stroke="midnightblue" points="2658.72,-209.176 2660.16,-198.68 2652.49,-205.984 2658.72,-209.176"/>
</g>
<!-- Node43&#45;&gt;Node25 -->
<g id="edge128" class="edge"><title>Node43&#45;&gt;Node25</title>
<path fill="none" stroke="midnightblue" d="M651.793,-761.424C605.366,-748.259 532,-718.242 532,-660 532,-660 532,-660 532,-602 532,-491.433 868.577,-309.54 965.923,-259.245"/>
<polygon fill="midnightblue" stroke="midnightblue" points="967.789,-262.221 975.083,-254.537 964.589,-255.995 967.789,-262.221"/>
</g>
<!-- Node43&#45;&gt;Node28 -->
<g id="edge134" class="edge"><title>Node43&#45;&gt;Node28</title>
<path fill="none" stroke="midnightblue" d="M648.82,-765.753C595.563,-759.397 505.36,-745.877 480,-725 436.499,-689.189 380,-548.345 380,-492 380,-492 380,-492 380,-367 380,-329.838 367.719,-287.764 359.722,-264.308"/>
<polygon fill="midnightblue" stroke="midnightblue" points="362.943,-262.919 356.311,-254.657 356.344,-265.252 362.943,-262.919"/>
</g>
<!-- Node43&#45;&gt;Node31 -->
<g id="edge129" class="edge"><title>Node43&#45;&gt;Node31</title>
<path fill="none" stroke="midnightblue" d="M707.064,-761.444C725.575,-752.675 754.581,-738.935 775.855,-728.858"/>
<polygon fill="midnightblue" stroke="midnightblue" points="777.482,-731.96 785.021,-724.516 774.485,-725.634 777.482,-731.96"/>
</g>
<!-- Node43&#45;&gt;Node32 -->
<g id="edge124" class="edge"><title>Node43&#45;&gt;Node32</title>
<path fill="none" stroke="midnightblue" d="M729.12,-768.741C869.732,-763.784 1352.89,-742.144 1744,-669 1834.31,-652.11 1887.52,-686.242 1943,-613 1953,-599.804 1950.88,-580.401 1947.26,-566.23"/>
<polygon fill="midnightblue" stroke="midnightblue" points="1950.59,-565.172 1944.36,-556.603 1943.89,-567.187 1950.59,-565.172"/>
</g>
<!-- Node43&#45;&gt;Node35 -->
<g id="edge126" class="edge"><title>Node43&#45;&gt;Node35</title>
<path fill="none" stroke="midnightblue" d="M729.34,-769.889C960.439,-769.114 2111.37,-763.341 2264,-725 2402.49,-690.213 2487.68,-623.032 2473,-481 2469.87,-450.74 2475.4,-439.619 2459,-414 2409.48,-336.671 2371.14,-339.223 2293,-291 2273.48,-278.955 2250.33,-267.326 2232.54,-258.908"/>
<polygon fill="midnightblue" stroke="midnightblue" points="2233.8,-255.635 2223.26,-254.579 2230.84,-261.979 2233.8,-255.635"/>
</g>
<!-- Node43&#45;&gt;Node38 -->
<g id="edge133" class="edge"><title>Node43&#45;&gt;Node38</title>
<path fill="none" stroke="midnightblue" d="M729.097,-770.223C934.159,-771.14 1867.05,-772.583 2152,-725 2248.37,-708.908 2362,-757.702 2362,-660 2362,-660 2362,-660 2362,-602 2362,-540.374 2434.29,-558.289 2457,-501 2464.62,-481.776 2450.85,-460.795 2438.19,-446.763"/>
<polygon fill="midnightblue" stroke="midnightblue" points="2440.51,-444.126 2431.04,-439.371 2435.48,-448.992 2440.51,-444.126"/>
</g>
<!-- Node43&#45;&gt;Node41 -->
<g id="edge131" class="edge"><title>Node43&#45;&gt;Node41</title>
<path fill="none" stroke="midnightblue" d="M684.292,-761.368C674.478,-743.376 651.664,-701.55 638.615,-677.627"/>
<polygon fill="midnightblue" stroke="midnightblue" points="641.547,-675.694 633.686,-668.591 635.402,-679.046 641.547,-675.694"/>
</g>
<!-- Node44&#45;&gt;Node10 -->
<g id="edge140" class="edge"><title>Node44&#45;&gt;Node10</title>
<path fill="none" stroke="midnightblue" d="M458.435,-824.648C391.193,-819.999 266,-800.056 266,-716 266,-716 266,-716 266,-305.5 266,-187.072 679.355,-104.3 817.585,-79.9309"/>
<polygon fill="midnightblue" stroke="midnightblue" points="818.566,-83.3126 827.816,-78.1457 817.363,-76.4168 818.566,-83.3126"/>
</g>
<!-- Node44&#45;&gt;Node11 -->
<g id="edge141" class="edge"><title>Node44&#45;&gt;Node11</title>
<path fill="none" stroke="midnightblue" d="M458.296,-823.289C396.065,-818.455 282.899,-806.378 252,-781 122.625,-674.742 114,-597.917 114,-430.5 114,-430.5 114,-430.5 114,-188 114,-129.02 313.049,-90.4868 392.661,-77.4337"/>
<polygon fill="midnightblue" stroke="midnightblue" points="393.316,-80.8734 402.634,-75.83 392.205,-73.9622 393.316,-80.8734"/>
</g>
<!-- Node44&#45;&gt;Node12 -->
<g id="edge143" class="edge"><title>Node44&#45;&gt;Node12</title>
<path fill="none" stroke="midnightblue" d="M541.882,-824.561C822.895,-814.828 2425.81,-758.006 2523,-725 2618.76,-692.478 2666,-649.132 2666,-548 2666,-548 2666,-548 2666,-367 2666,-280.066 2767.61,-251.735 2720,-179 2672.06,-105.766 2561.52,-82.602 2507.24,-75.5049"/>
<polygon fill="midnightblue" stroke="midnightblue" points="2507.51,-72.0128 2497.16,-74.2897 2506.67,-78.9624 2507.51,-72.0128"/>
</g>
<!-- Node44&#45;&gt;Node20 -->
<g id="edge142" class="edge"><title>Node44&#45;&gt;Node20</title>
<path fill="none" stroke="midnightblue" d="M474.728,-817.5C431.228,-801.211 348.462,-762.078 366,-705 390.806,-624.267 583.909,-399.194 632,-358 714.73,-287.134 740.925,-270.24 844,-235 950.121,-198.718 1084.43,-191.517 1146.16,-190.206"/>
<polygon fill="midnightblue" stroke="midnightblue" points="1146.53,-193.7 1156.47,-190.028 1146.41,-186.701 1146.53,-193.7"/>
</g>
<!-- Node44&#45;&gt;Node43 -->
<g id="edge139" class="edge"><title>Node44&#45;&gt;Node43</title>
<path fill="none" stroke="midnightblue" d="M529.948,-817.444C562.158,-808.241 613.534,-793.562 649.142,-783.388"/>
<polygon fill="midnightblue" stroke="midnightblue" points="650.539,-786.629 659.192,-780.516 648.616,-779.898 650.539,-786.629"/>
</g>
<!-- Node45&#45;&gt;Node10 -->
<g id="edge151" class="edge"><title>Node45&#45;&gt;Node10</title>
<path fill="none" stroke="midnightblue" d="M423.153,-873.484C404.071,-865.717 376.736,-853.021 356,-837 289.676,-785.758 190,-609.561 190,-604 190,-604 190,-604 190,-367 190,-293.13 236.064,-284.384 291,-235 326.599,-202.999 339.767,-199.549 383,-179 450.288,-147.017 468.783,-141.312 541,-123 638.184,-98.3578 755.135,-83.5919 817.573,-76.8657"/>
<polygon fill="midnightblue" stroke="midnightblue" points="818.271,-80.3114 827.847,-75.7787 817.534,-73.3503 818.271,-80.3114"/>
</g>
<!-- Node45&#45;&gt;Node28 -->
<g id="edge152" class="edge"><title>Node45&#45;&gt;Node28</title>
<path fill="none" stroke="midnightblue" d="M431.569,-873.261C398.82,-852.466 319.442,-796.401 290,-725 286.611,-716.782 289.388,-713.868 290,-705 293.119,-659.789 304,-649.318 304,-604 304,-604 304,-604 304,-546 304,-438.254 335.166,-311.555 347.787,-264.665"/>
<polygon fill="midnightblue" stroke="midnightblue" points="351.237,-265.319 350.503,-254.749 344.485,-263.47 351.237,-265.319"/>
</g>
<!-- Node45&#45;&gt;Node40 -->
<g id="edge147" class="edge"><title>Node45&#45;&gt;Node40</title>
<path fill="none" stroke="midnightblue" d="M443.66,-873.444C440.533,-860.006 436.703,-833.759 449,-817 534.676,-700.237 613.463,-735.676 755,-705 952.657,-662.161 1195.17,-658.577 1297.16,-659.222"/>
<polygon fill="midnightblue" stroke="midnightblue" points="1297.42,-662.724 1307.45,-659.305 1297.48,-655.725 1297.42,-662.724"/>
</g>
<!-- Node45&#45;&gt;Node41 -->
<g id="edge150" class="edge"><title>Node45&#45;&gt;Node41</title>
<path fill="none" stroke="midnightblue" d="M437.786,-873.182C430.456,-864.663 420.245,-851.019 416,-837 398.673,-779.772 395.738,-742.883 442,-705 483.473,-671.04 546.462,-661.975 587.677,-659.938"/>
<polygon fill="midnightblue" stroke="midnightblue" points="588.055,-663.426 597.917,-659.554 587.792,-656.431 588.055,-663.426"/>
</g>
<!-- Node45&#45;&gt;Node43 -->
<g id="edge148" class="edge"><title>Node45&#45;&gt;Node43</title>
<path fill="none" stroke="midnightblue" d="M466.403,-873.379C487.428,-864.446 521.116,-849.999 550,-837 589.116,-819.396 634.015,-798.223 661.948,-784.934"/>
<polygon fill="midnightblue" stroke="midnightblue" points="663.561,-788.043 671.084,-780.581 660.55,-781.723 663.561,-788.043"/>
</g>
<!-- Node45&#45;&gt;Node44 -->
<g id="edge149" class="edge"><title>Node45&#45;&gt;Node44</title>
<path fill="none" stroke="midnightblue" d="M454.917,-873.083C462.78,-865.22 474.431,-853.569 483.919,-844.081"/>
<polygon fill="midnightblue" stroke="midnightblue" points="486.653,-846.297 491.249,-836.751 481.703,-841.347 486.653,-846.297"/>
</g>
<!-- Node46&#45;&gt;Node3 -->
<g id="edge158" class="edge"><title>Node46&#45;&gt;Node3</title>
<path fill="none" stroke="midnightblue" d="M497.631,-931.123C503.787,-930.312 510.045,-929.571 516,-929 635.031,-917.592 2666,-947.576 2666,-828 2666,-828 2666,-828 2666,-770 2666,-560.53 2440.45,-634.463 2279,-501 2232.27,-462.366 2182.58,-410.644 2158.61,-384.92"/>
<polygon fill="midnightblue" stroke="midnightblue" points="2161.13,-382.491 2151.77,-377.531 2156,-387.247 2161.13,-382.491"/>
</g>
<!-- Node46&#45;&gt;Node11 -->
<g id="edge161" class="edge"><title>Node46&#45;&gt;Node11</title>
<path fill="none" stroke="midnightblue" d="M410.28,-938.569C319.629,-938.878 115.203,-934.779 62,-893 37.7799,-873.981 38,-858.795 38,-828 38,-828 38,-828 38,-188 38,-157.205 38.0093,-142.308 62,-123 112.537,-82.3273 312.87,-74.4084 392.305,-72.8698"/>
<polygon fill="midnightblue" stroke="midnightblue" points="392.744,-76.3629 402.683,-72.6922 392.624,-69.3639 392.744,-76.3629"/>
</g>
<!-- Node46&#45;&gt;Node43 -->
<g id="edge159" class="edge"><title>Node46&#45;&gt;Node43</title>
<path fill="none" stroke="midnightblue" d="M466.304,-929.309C504.454,-902.36 621.035,-820.01 668.534,-786.457"/>
<polygon fill="midnightblue" stroke="midnightblue" points="670.67,-789.233 676.818,-780.605 666.631,-783.516 670.67,-789.233"/>
</g>
<!-- Node46&#45;&gt;Node45 -->
<g id="edge160" class="edge"><title>Node46&#45;&gt;Node45</title>
<path fill="none" stroke="midnightblue" d="M452.679,-929.083C451.619,-921.927 450.094,-911.635 448.769,-902.691"/>
<polygon fill="midnightblue" stroke="midnightblue" points="452.224,-902.13 447.296,-892.751 445.3,-903.156 452.224,-902.13"/>
</g>
</g>
</svg>
