<?xml version="1.0" encoding="UTF-8" standalone="no"?>
<!DOCTYPE svg PUBLIC "-//W3C//DTD SVG 1.1//EN"
 "http://www.w3.org/Graphics/SVG/1.1/DTD/svg11.dtd">
<!-- Generated by graphviz version 2.38.0 (20140413.2041)
 -->
<!-- Title: include/tvm/tir/op.h Pages: 1 -->
<svg width="2639pt" height="901pt"
 viewBox="0.00 0.00 2639.00 901.00" xmlns="http://www.w3.org/2000/svg" xmlns:xlink="http://www.w3.org/1999/xlink">
<g id="graph0" class="graph" transform="scale(1 1) rotate(0) translate(4 897)">
<title>include/tvm/tir/op.h</title>
<polygon fill="white" stroke="none" points="-4,4 -4,-897 2635,-897 2635,4 -4,4"/>
<!-- Node1 -->
<g id="node1" class="node"><title>Node1</title>
<polygon fill="#bfbfbf" stroke="black" points="2327.5,-873.5 2327.5,-892.5 2436.5,-892.5 2436.5,-873.5 2327.5,-873.5"/>
<text text-anchor="middle" x="2382" y="-880.5" font-family="Helvetica,sans-Serif" font-size="10.00">include/tvm/tir/op.h</text>
</g>
<!-- Node2 -->
<g id="node2" class="node"><title>Node2</title>
<g id="a_node2"><a xlink:href="ir_2type_8h.html" target="_top" xlink:title="IR/AST nodes for the unified type system in TVM. ">
<polygon fill="white" stroke="black" points="1808.5,-649.5 1808.5,-668.5 1885.5,-668.5 1885.5,-649.5 1808.5,-649.5"/>
<text text-anchor="middle" x="1847" y="-656.5" font-family="Helvetica,sans-Serif" font-size="10.00">tvm/ir/type.h</text>
</a>
</g>
</g>
<!-- Node1&#45;&gt;Node2 -->
<g id="edge1" class="edge"><title>Node1&#45;&gt;Node2</title>
<path fill="none" stroke="midnightblue" d="M2353.39,-873.419C2324.96,-864.749 2280.21,-850.71 2242,-837 2178.53,-814.226 2162.8,-807.959 2101,-781 2016.74,-744.248 1919.1,-696.141 1873.29,-673.235"/>
<polygon fill="midnightblue" stroke="midnightblue" points="1874.57,-669.965 1864.07,-668.614 1871.44,-676.223 1874.57,-669.965"/>
</g>
<!-- Node9 -->
<g id="node9" class="node"><title>Node9</title>
<polygon fill="white" stroke="#bfbfbf" points="1642,-62 1642,-81 1710,-81 1710,-62 1642,-62"/>
<text text-anchor="middle" x="1676" y="-69" font-family="Helvetica,sans-Serif" font-size="10.00">type_traits</text>
</g>
<!-- Node1&#45;&gt;Node9 -->
<g id="edge137" class="edge"><title>Node1&#45;&gt;Node9</title>
<path fill="none" stroke="midnightblue" d="M2436.64,-881.054C2509.94,-876.556 2631,-856.358 2631,-772 2631,-772 2631,-772 2631,-428.5 2631,-141.075 2342.92,-179.006 2061,-123 1938.74,-98.7113 1792.24,-83.1636 1720.3,-76.4013"/>
<polygon fill="midnightblue" stroke="midnightblue" points="1720.52,-72.9067 1710.24,-75.4673 1719.87,-79.8767 1720.52,-72.9067"/>
</g>
<!-- Node29 -->
<g id="node29" class="node"><title>Node29</title>
<polygon fill="white" stroke="#bfbfbf" points="2392,-235.5 2392,-254.5 2434,-254.5 2434,-235.5 2392,-235.5"/>
<text text-anchor="middle" x="2413" y="-242.5" font-family="Helvetica,sans-Serif" font-size="10.00">limits</text>
</g>
<!-- Node1&#45;&gt;Node29 -->
<g id="edge138" class="edge"><title>Node1&#45;&gt;Node29</title>
<path fill="none" stroke="midnightblue" d="M2436.61,-876.996C2499.13,-867.916 2593,-842.539 2593,-772 2593,-772 2593,-772 2593,-602 2593,-456.305 2471.45,-309.661 2428.12,-262.013"/>
<polygon fill="midnightblue" stroke="midnightblue" points="2430.56,-259.496 2421.2,-254.523 2425.41,-264.244 2430.56,-259.496"/>
</g>
<!-- Node38 -->
<g id="node38" class="node"><title>Node38</title>
<g id="a_node38"><a xlink:href="tir_2expr_8h.html" target="_top" xlink:title="TIR expressions. ">
<polygon fill="white" stroke="black" points="2110,-761.5 2110,-780.5 2190,-780.5 2190,-761.5 2110,-761.5"/>
<text text-anchor="middle" x="2150" y="-768.5" font-family="Helvetica,sans-Serif" font-size="10.00">tvm/tir/expr.h</text>
</a>
</g>
</g>
<!-- Node1&#45;&gt;Node38 -->
<g id="edge108" class="edge"><title>Node1&#45;&gt;Node38</title>
<path fill="none" stroke="midnightblue" d="M2363.8,-873.368C2323.22,-854.131 2225.18,-807.648 2177.27,-784.931"/>
<polygon fill="midnightblue" stroke="midnightblue" points="2178.66,-781.713 2168.12,-780.591 2175.66,-788.038 2178.66,-781.713"/>
</g>
<!-- Node40 -->
<g id="node40" class="node"><title>Node40</title>
<polygon fill="white" stroke="#bfbfbf" points="2275,-649.5 2275,-668.5 2337,-668.5 2337,-649.5 2275,-649.5"/>
<text text-anchor="middle" x="2306" y="-656.5" font-family="Helvetica,sans-Serif" font-size="10.00">algorithm</text>
</g>
<!-- Node1&#45;&gt;Node40 -->
<g id="edge136" class="edge"><title>Node1&#45;&gt;Node40</title>
<path fill="none" stroke="midnightblue" d="M2379.02,-873.297C2367.79,-840.494 2327.87,-723.884 2312.29,-678.377"/>
<polygon fill="midnightblue" stroke="midnightblue" points="2315.59,-677.211 2309.04,-668.884 2308.97,-679.478 2315.59,-677.211"/>
</g>
<!-- Node41 -->
<g id="node41" class="node"><title>Node41</title>
<g id="a_node41"><a xlink:href="stmt_8h.html" target="_top" xlink:title="TIR statements. ">
<polygon fill="white" stroke="black" points="2396.5,-817.5 2396.5,-836.5 2479.5,-836.5 2479.5,-817.5 2396.5,-817.5"/>
<text text-anchor="middle" x="2438" y="-824.5" font-family="Helvetica,sans-Serif" font-size="10.00">tvm/tir/stmt.h</text>
</a>
</g>
</g>
<!-- Node1&#45;&gt;Node41 -->
<g id="edge130" class="edge"><title>Node1&#45;&gt;Node41</title>
<path fill="none" stroke="midnightblue" d="M2391,-873.324C2399.19,-865.42 2411.51,-853.548 2421.47,-843.938"/>
<polygon fill="midnightblue" stroke="midnightblue" points="2424.07,-846.295 2428.84,-836.834 2419.21,-841.256 2424.07,-846.295"/>
</g>
<!-- Node3 -->
<g id="node3" class="node"><title>Node3</title>
<g id="a_node3"><a xlink:href="object_8h.html" target="_top" xlink:title="A managed object in the TVM runtime. ">
<polygon fill="white" stroke="black" points="724.5,-123.5 724.5,-142.5 841.5,-142.5 841.5,-123.5 724.5,-123.5"/>
<text text-anchor="middle" x="783" y="-130.5" font-family="Helvetica,sans-Serif" font-size="10.00">tvm/runtime/object.h</text>
</a>
</g>
</g>
<!-- Node2&#45;&gt;Node3 -->
<g id="edge2" class="edge"><title>Node2&#45;&gt;Node3</title>
<path fill="none" stroke="midnightblue" d="M1808.32,-657.9C1628.47,-656.684 875.162,-643.061 699,-501 624.77,-441.139 633.05,-383.799 655,-291 667.765,-237.033 671.716,-219.121 710,-179 722.563,-165.835 739.77,-154.983 754.323,-147.237"/>
<polygon fill="midnightblue" stroke="midnightblue" points="756.104,-150.257 763.428,-142.601 752.928,-144.019 756.104,-150.257"/>
</g>
<!-- Node10 -->
<g id="node10" class="node"><title>Node10</title>
<polygon fill="white" stroke="#bfbfbf" points="2132,-62 2132,-81 2176,-81 2176,-62 2132,-62"/>
<text text-anchor="middle" x="2154" y="-69" font-family="Helvetica,sans-Serif" font-size="10.00">string</text>
</g>
<!-- Node2&#45;&gt;Node10 -->
<g id="edge107" class="edge"><title>Node2&#45;&gt;Node10</title>
<path fill="none" stroke="midnightblue" d="M1859.4,-649.192C1870.9,-640.679 1888.14,-627.04 1901,-613 2050.18,-450.089 2103.53,-407.669 2176,-199 2187.18,-166.817 2195.49,-155.719 2186,-123 2182.41,-110.611 2174.76,-98.3494 2167.84,-89.0109"/>
<polygon fill="midnightblue" stroke="midnightblue" points="2170.52,-86.7504 2161.59,-81.0445 2165.01,-91.072 2170.52,-86.7504"/>
</g>
<!-- Node13 -->
<g id="node13" class="node"><title>Node13</title>
<g id="a_node13"><a xlink:href="data__type_8h.html" target="_top" xlink:title="tvm/runtime/data_type.h">
<polygon fill="white" stroke="black" points="207,-235.5 207,-254.5 343,-254.5 343,-235.5 207,-235.5"/>
<text text-anchor="middle" x="275" y="-242.5" font-family="Helvetica,sans-Serif" font-size="10.00">tvm/runtime/data_type.h</text>
</a>
</g>
</g>
<!-- Node2&#45;&gt;Node13 -->
<g id="edge12" class="edge"><title>Node2&#45;&gt;Node13</title>
<path fill="none" stroke="midnightblue" d="M1808.21,-657.486C1602.47,-654.648 646.168,-640.038 590,-613 506.712,-572.907 333.688,-330.315 286.889,-263.197"/>
<polygon fill="midnightblue" stroke="midnightblue" points="289.505,-260.829 280.925,-254.613 283.756,-264.823 289.505,-260.829"/>
</g>
<!-- Node14 -->
<g id="node14" class="node"><title>Node14</title>
<g id="a_node14"><a xlink:href="node_8h.html" target="_top" xlink:title="Definitions and helper macros for IR/AST nodes. ">
<polygon fill="white" stroke="black" points="1602,-537.5 1602,-556.5 1700,-556.5 1700,-537.5 1602,-537.5"/>
<text text-anchor="middle" x="1651" y="-544.5" font-family="Helvetica,sans-Serif" font-size="10.00">tvm/node/node.h</text>
</a>
</g>
</g>
<!-- Node2&#45;&gt;Node14 -->
<g id="edge16" class="edge"><title>Node2&#45;&gt;Node14</title>
<path fill="none" stroke="midnightblue" d="M1831.62,-649.368C1797.63,-630.292 1715.9,-584.422 1675.06,-561.505"/>
<polygon fill="midnightblue" stroke="midnightblue" points="1676.74,-558.433 1666.31,-556.591 1673.32,-564.538 1676.74,-558.433"/>
</g>
<!-- Node32 -->
<g id="node32" class="node"><title>Node32</title>
<g id="a_node32"><a xlink:href="node_2container_8h.html" target="_top" xlink:title="Array/Map container in the DSL graph. ">
<polygon fill="white" stroke="black" points="1664.5,-358.5 1664.5,-377.5 1783.5,-377.5 1783.5,-358.5 1664.5,-358.5"/>
<text text-anchor="middle" x="1724" y="-365.5" font-family="Helvetica,sans-Serif" font-size="10.00">tvm/node/container.h</text>
</a>
</g>
</g>
<!-- Node2&#45;&gt;Node32 -->
<g id="edge102" class="edge"><title>Node2&#45;&gt;Node32</title>
<path fill="none" stroke="midnightblue" d="M1857.99,-649.365C1867.45,-641.171 1880.44,-627.917 1886,-613 1889.11,-604.672 1887.34,-601.787 1886,-593 1873.41,-510.598 1885.98,-475.767 1830,-414 1815.47,-397.969 1794.28,-387.45 1774.66,-380.647"/>
<polygon fill="midnightblue" stroke="midnightblue" points="1775.49,-377.235 1764.89,-377.509 1773.34,-383.9 1775.49,-377.235"/>
</g>
<!-- Node37 -->
<g id="node37" class="node"><title>Node37</title>
<g id="a_node37"><a xlink:href="span_8h.html" target="_top" xlink:title="Span information for debugging purposes. ">
<polygon fill="white" stroke="black" points="1797,-593.5 1797,-612.5 1877,-612.5 1877,-593.5 1797,-593.5"/>
<text text-anchor="middle" x="1837" y="-600.5" font-family="Helvetica,sans-Serif" font-size="10.00">tvm/ir/span.h</text>
</a>
</g>
</g>
<!-- Node2&#45;&gt;Node37 -->
<g id="edge103" class="edge"><title>Node2&#45;&gt;Node37</title>
<path fill="none" stroke="midnightblue" d="M1845.35,-649.083C1844.02,-641.927 1842.12,-631.635 1840.46,-622.691"/>
<polygon fill="midnightblue" stroke="midnightblue" points="1843.88,-621.947 1838.62,-612.751 1837,-623.221 1843.88,-621.947"/>
</g>
<!-- Node4 -->
<g id="node4" class="node"><title>Node4</title>
<polygon fill="white" stroke="#bfbfbf" points="783,-62 783,-81 869,-81 869,-62 783,-62"/>
<text text-anchor="middle" x="826" y="-69" font-family="Helvetica,sans-Serif" font-size="10.00">dmlc/logging.h</text>
</g>
<!-- Node3&#45;&gt;Node4 -->
<g id="edge3" class="edge"><title>Node3&#45;&gt;Node4</title>
<path fill="none" stroke="midnightblue" d="M789.161,-123.475C795.611,-114.55 805.904,-100.307 813.973,-89.1425"/>
<polygon fill="midnightblue" stroke="midnightblue" points="816.83,-91.1642 819.851,-81.0091 811.156,-87.064 816.83,-91.1642"/>
</g>
<!-- Node5 -->
<g id="node5" class="node"><title>Node5</title>
<g id="a_node5"><a xlink:href="c__runtime__api_8h.html" target="_top" xlink:title="tvm/runtime/c_runtime\l_api.h">
<polygon fill="white" stroke="black" points="126.5,-56.5 126.5,-86.5 253.5,-86.5 253.5,-56.5 126.5,-56.5"/>
<text text-anchor="start" x="134.5" y="-74.5" font-family="Helvetica,sans-Serif" font-size="10.00">tvm/runtime/c_runtime</text>
<text text-anchor="middle" x="190" y="-63.5" font-family="Helvetica,sans-Serif" font-size="10.00">_api.h</text>
</a>
</g>
</g>
<!-- Node3&#45;&gt;Node5 -->
<g id="edge4" class="edge"><title>Node3&#45;&gt;Node5</title>
<path fill="none" stroke="midnightblue" d="M724.246,-126.105C615.505,-115.194 383.116,-91.8767 263.896,-79.9145"/>
<polygon fill="midnightblue" stroke="midnightblue" points="264.065,-76.414 253.766,-78.8981 263.366,-83.379 264.065,-76.414"/>
</g>
<!-- Node3&#45;&gt;Node9 -->
<g id="edge8" class="edge"><title>Node3&#45;&gt;Node9</title>
<path fill="none" stroke="midnightblue" d="M841.592,-128.096C1008.51,-116.974 1483.96,-85.2952 1631.67,-75.4538"/>
<polygon fill="midnightblue" stroke="midnightblue" points="1631.98,-78.9407 1641.73,-74.7835 1631.52,-71.9562 1631.98,-78.9407"/>
</g>
<!-- Node3&#45;&gt;Node10 -->
<g id="edge9" class="edge"><title>Node3&#45;&gt;Node10</title>
<path fill="none" stroke="midnightblue" d="M841.91,-129.443C1076.97,-119.242 1943.73,-81.6257 2121.87,-73.8946"/>
<polygon fill="midnightblue" stroke="midnightblue" points="2122.07,-77.3891 2131.91,-73.4587 2121.77,-70.3957 2122.07,-77.3891"/>
</g>
<!-- Node11 -->
<g id="node11" class="node"><title>Node11</title>
<polygon fill="white" stroke="#bfbfbf" points="1001,-62 1001,-81 1043,-81 1043,-62 1001,-62"/>
<text text-anchor="middle" x="1022" y="-69" font-family="Helvetica,sans-Serif" font-size="10.00">utility</text>
</g>
<!-- Node3&#45;&gt;Node11 -->
<g id="edge10" class="edge"><title>Node3&#45;&gt;Node11</title>
<path fill="none" stroke="midnightblue" d="M817.243,-123.475C863.824,-111.879 946.468,-91.304 991.193,-80.1694"/>
<polygon fill="midnightblue" stroke="midnightblue" points="992.061,-83.5602 1000.92,-77.748 990.37,-76.7676 992.061,-83.5602"/>
</g>
<!-- Node12 -->
<g id="node12" class="node"><title>Node12</title>
<polygon fill="white" stroke="#bfbfbf" points="516,-62 516,-81 566,-81 566,-62 516,-62"/>
<text text-anchor="middle" x="541" y="-69" font-family="Helvetica,sans-Serif" font-size="10.00">atomic</text>
</g>
<!-- Node3&#45;&gt;Node12 -->
<g id="edge11" class="edge"><title>Node3&#45;&gt;Node12</title>
<path fill="none" stroke="midnightblue" d="M748.327,-123.475C702.399,-112.183 621.845,-92.3772 575.835,-81.0648"/>
<polygon fill="midnightblue" stroke="midnightblue" points="576.565,-77.6401 566.019,-78.6513 574.894,-84.4377 576.565,-77.6401"/>
</g>
<!-- Node6 -->
<g id="node6" class="node"><title>Node6</title>
<polygon fill="white" stroke="#bfbfbf" points="55,-0.5 55,-19.5 145,-19.5 145,-0.5 55,-0.5"/>
<text text-anchor="middle" x="100" y="-7.5" font-family="Helvetica,sans-Serif" font-size="10.00">dlpack/dlpack.h</text>
</g>
<!-- Node5&#45;&gt;Node6 -->
<g id="edge5" class="edge"><title>Node5&#45;&gt;Node6</title>
<path fill="none" stroke="midnightblue" d="M168.671,-56.3993C154.515,-47.0402 135.989,-34.7924 121.747,-25.3771"/>
<polygon fill="midnightblue" stroke="midnightblue" points="123.368,-22.2531 113.096,-19.6578 119.507,-28.0923 123.368,-22.2531"/>
</g>
<!-- Node7 -->
<g id="node7" class="node"><title>Node7</title>
<polygon fill="white" stroke="#bfbfbf" points="163.5,-0.5 163.5,-19.5 216.5,-19.5 216.5,-0.5 163.5,-0.5"/>
<text text-anchor="middle" x="190" y="-7.5" font-family="Helvetica,sans-Serif" font-size="10.00">stdint.h</text>
</g>
<!-- Node5&#45;&gt;Node7 -->
<g id="edge6" class="edge"><title>Node5&#45;&gt;Node7</title>
<path fill="none" stroke="midnightblue" d="M190,-56.3993C190,-48.4664 190,-38.458 190,-29.8583"/>
<polygon fill="midnightblue" stroke="midnightblue" points="193.5,-29.6577 190,-19.6578 186.5,-29.6578 193.5,-29.6577"/>
</g>
<!-- Node8 -->
<g id="node8" class="node"><title>Node8</title>
<polygon fill="white" stroke="#bfbfbf" points="234.5,-0.5 234.5,-19.5 289.5,-19.5 289.5,-0.5 234.5,-0.5"/>
<text text-anchor="middle" x="262" y="-7.5" font-family="Helvetica,sans-Serif" font-size="10.00">stddef.h</text>
</g>
<!-- Node5&#45;&gt;Node8 -->
<g id="edge7" class="edge"><title>Node5&#45;&gt;Node8</title>
<path fill="none" stroke="midnightblue" d="M207.063,-56.3993C218.065,-47.3076 232.365,-35.4899 243.618,-26.1909"/>
<polygon fill="midnightblue" stroke="midnightblue" points="246.044,-28.726 251.523,-19.6578 241.585,-23.33 246.044,-28.726"/>
</g>
<!-- Node13&#45;&gt;Node4 -->
<g id="edge14" class="edge"><title>Node13&#45;&gt;Node4</title>
<path fill="none" stroke="midnightblue" d="M267.458,-235.482C256.966,-222.544 240.481,-197.492 252,-179 281.846,-131.086 311.795,-138.762 366,-123 441.219,-101.128 668.76,-83.2748 772.915,-76.0093"/>
<polygon fill="midnightblue" stroke="midnightblue" points="773.165,-79.5004 782.9,-75.3189 772.682,-72.5171 773.165,-79.5004"/>
</g>
<!-- Node13&#45;&gt;Node5 -->
<g id="edge13" class="edge"><title>Node13&#45;&gt;Node5</title>
<path fill="none" stroke="midnightblue" d="M230.994,-235.441C210.598,-229.034 188.214,-217.969 176,-199 155.952,-167.866 168.153,-123.282 178.971,-96.2013"/>
<polygon fill="midnightblue" stroke="midnightblue" points="182.299,-97.3169 182.979,-86.7439 175.854,-94.5853 182.299,-97.3169"/>
</g>
<!-- Node13&#45;&gt;Node9 -->
<g id="edge15" class="edge"><title>Node13&#45;&gt;Node9</title>
<path fill="none" stroke="midnightblue" d="M282.685,-235.386C304.222,-211.956 368.112,-147.204 437,-123 494.394,-102.834 1416.55,-78.9049 1631.47,-73.5833"/>
<polygon fill="midnightblue" stroke="midnightblue" points="1631.84,-77.0755 1641.75,-73.3298 1631.66,-70.0776 1631.84,-77.0755"/>
</g>
<!-- Node14&#45;&gt;Node3 -->
<g id="edge18" class="edge"><title>Node14&#45;&gt;Node3</title>
<path fill="none" stroke="midnightblue" d="M1601.69,-545.084C1417.21,-541.46 776.536,-527.041 742,-501 715.572,-481.073 718,-463.599 718,-430.5 718,-430.5 718,-430.5 718,-367 718,-283.019 700.58,-254.673 737,-179 742.638,-167.285 752.656,-156.921 761.907,-149.102"/>
<polygon fill="midnightblue" stroke="midnightblue" points="764.367,-151.619 770.039,-142.67 760.025,-146.128 764.367,-151.619"/>
</g>
<!-- Node14&#45;&gt;Node5 -->
<g id="edge17" class="edge"><title>Node14&#45;&gt;Node5</title>
<path fill="none" stroke="midnightblue" d="M1601.98,-545.37C1435.46,-542.956 892.456,-532.782 721,-501 458.9,-452.416 339.094,-464.286 174,-255 137.291,-208.465 135.805,-179.077 155,-123 158.436,-112.963 164.484,-103.103 170.597,-94.7969"/>
<polygon fill="midnightblue" stroke="midnightblue" points="173.478,-96.7943 176.883,-86.7617 167.965,-92.4809 173.478,-96.7943"/>
</g>
<!-- Node14&#45;&gt;Node9 -->
<g id="edge101" class="edge"><title>Node14&#45;&gt;Node9</title>
<path fill="none" stroke="midnightblue" d="M1683.04,-537.456C1708.82,-529.867 1745.49,-517.431 1775,-501 1890.08,-436.933 1926,-377.713 1926,-246 1926,-246 1926,-246 1926,-188 1926,-98.4553 1792.19,-78.1123 1720.36,-73.6429"/>
<polygon fill="midnightblue" stroke="midnightblue" points="1720.41,-70.1406 1710.24,-73.0923 1720.03,-77.1303 1720.41,-70.1406"/>
</g>
<!-- Node14&#45;&gt;Node10 -->
<g id="edge98" class="edge"><title>Node14&#45;&gt;Node10</title>
<path fill="none" stroke="midnightblue" d="M1694.89,-537.452C1726.75,-530.259 1770.34,-518.339 1806,-501 1855.12,-477.115 2019.58,-343.173 2040,-322 2105.64,-253.937 2131.35,-234.554 2155,-143 2159.4,-125.98 2158.55,-105.87 2156.95,-91.4923"/>
<polygon fill="midnightblue" stroke="midnightblue" points="2160.39,-90.8088 2155.6,-81.3597 2153.45,-91.7348 2160.39,-90.8088"/>
</g>
<!-- Node14&#45;&gt;Node11 -->
<g id="edge100" class="edge"><title>Node14&#45;&gt;Node11</title>
<path fill="none" stroke="midnightblue" d="M1601.85,-545.865C1491.36,-544.885 1226.78,-538.561 1147,-501 1020.52,-441.452 970.253,-393.461 951,-255 948.233,-235.098 953.198,-184.502 955,-179 966.487,-143.918 992.005,-108.744 1008.02,-88.8869"/>
<polygon fill="midnightblue" stroke="midnightblue" points="1010.76,-91.0661 1014.43,-81.1277 1005.37,-86.6073 1010.76,-91.0661"/>
</g>
<!-- Node15 -->
<g id="node15" class="node"><title>Node15</title>
<g id="a_node15"><a xlink:href="runtime_2memory_8h.html" target="_top" xlink:title="Runtime memory management. ">
<polygon fill="white" stroke="black" points="1444.5,-179.5 1444.5,-198.5 1571.5,-198.5 1571.5,-179.5 1444.5,-179.5"/>
<text text-anchor="middle" x="1508" y="-186.5" font-family="Helvetica,sans-Serif" font-size="10.00">tvm/runtime/memory.h</text>
</a>
</g>
</g>
<!-- Node14&#45;&gt;Node15 -->
<g id="edge19" class="edge"><title>Node14&#45;&gt;Node15</title>
<path fill="none" stroke="midnightblue" d="M1667.53,-537.402C1684.54,-528.488 1711.78,-514.055 1735,-501 1777.72,-476.978 1805.69,-487.556 1830,-445 1836.83,-433.037 1833.41,-427.348 1830,-414 1807.52,-326.132 1805.07,-288.732 1732,-235 1708.42,-217.662 1637.6,-205.36 1581.83,-198.049"/>
<polygon fill="midnightblue" stroke="midnightblue" points="1581.97,-194.539 1571.61,-196.742 1581.08,-201.482 1581.97,-194.539"/>
</g>
<!-- Node17 -->
<g id="node17" class="node"><title>Node17</title>
<g id="a_node17"><a xlink:href="reflection_8h.html" target="_top" xlink:title="Reflection and serialization of compiler IR/AST nodes. ">
<polygon fill="white" stroke="black" points="1156.5,-481.5 1156.5,-500.5 1275.5,-500.5 1275.5,-481.5 1156.5,-481.5"/>
<text text-anchor="middle" x="1216" y="-488.5" font-family="Helvetica,sans-Serif" font-size="10.00">tvm/node/reflection.h</text>
</a>
</g>
</g>
<!-- Node14&#45;&gt;Node17 -->
<g id="edge24" class="edge"><title>Node14&#45;&gt;Node17</title>
<path fill="none" stroke="midnightblue" d="M1601.95,-539.91C1524.6,-530.309 1374.04,-511.619 1285.56,-500.635"/>
<polygon fill="midnightblue" stroke="midnightblue" points="1285.97,-497.159 1275.62,-499.401 1285.11,-504.106 1285.97,-497.159"/>
</g>
<!-- Node22 -->
<g id="node22" class="node"><title>Node22</title>
<polygon fill="white" stroke="#bfbfbf" points="1164.5,-179.5 1164.5,-198.5 1211.5,-198.5 1211.5,-179.5 1164.5,-179.5"/>
<text text-anchor="middle" x="1188" y="-186.5" font-family="Helvetica,sans-Serif" font-size="10.00">vector</text>
</g>
<!-- Node14&#45;&gt;Node22 -->
<g id="edge99" class="edge"><title>Node14&#45;&gt;Node22</title>
<path fill="none" stroke="midnightblue" d="M1601.78,-538.438C1513.19,-523.428 1336,-486.418 1336,-430.5 1336,-430.5 1336,-430.5 1336,-367 1336,-306.737 1344.61,-280.419 1305,-235 1299.2,-228.348 1253.77,-212.057 1221.26,-201.014"/>
<polygon fill="midnightblue" stroke="midnightblue" points="1222.24,-197.651 1211.65,-197.772 1220.01,-204.284 1222.24,-197.651"/>
</g>
<!-- Node30 -->
<g id="node30" class="node"><title>Node30</title>
<g id="a_node30"><a xlink:href="structural__equal_8h.html" target="_top" xlink:title="Structural equality comparison. ">
<polygon fill="white" stroke="black" points="1364.5,-414.5 1364.5,-444.5 1475.5,-444.5 1475.5,-414.5 1364.5,-414.5"/>
<text text-anchor="start" x="1372.5" y="-432.5" font-family="Helvetica,sans-Serif" font-size="10.00">tvm/node/structural</text>
<text text-anchor="middle" x="1420" y="-421.5" font-family="Helvetica,sans-Serif" font-size="10.00">_equal.h</text>
</a>
</g>
</g>
<!-- Node14&#45;&gt;Node30 -->
<g id="edge96" class="edge"><title>Node14&#45;&gt;Node30</title>
<path fill="none" stroke="midnightblue" d="M1631.91,-537.483C1612.25,-528.634 1580.79,-514.251 1554,-501 1520.07,-484.215 1481.9,-464.003 1455.01,-449.532"/>
<polygon fill="midnightblue" stroke="midnightblue" points="1456.45,-446.335 1445.99,-444.668 1453.13,-452.496 1456.45,-446.335"/>
</g>
<!-- Node14&#45;&gt;Node32 -->
<g id="edge95" class="edge"><title>Node14&#45;&gt;Node32</title>
<path fill="none" stroke="midnightblue" d="M1672.18,-537.433C1687.22,-530.139 1706.37,-518.102 1716,-501 1736.21,-465.117 1732.02,-414.713 1727.71,-387.754"/>
<polygon fill="midnightblue" stroke="midnightblue" points="1731.13,-386.976 1725.92,-377.746 1724.24,-388.206 1731.13,-386.976"/>
</g>
<!-- Node34 -->
<g id="node34" class="node"><title>Node34</title>
<g id="a_node34"><a xlink:href="structural__hash_8h.html" target="_top" xlink:title="tvm/node/structural\l_hash.h">
<polygon fill="white" stroke="black" points="1493.5,-414.5 1493.5,-444.5 1604.5,-444.5 1604.5,-414.5 1493.5,-414.5"/>
<text text-anchor="start" x="1501.5" y="-432.5" font-family="Helvetica,sans-Serif" font-size="10.00">tvm/node/structural</text>
<text text-anchor="middle" x="1549" y="-421.5" font-family="Helvetica,sans-Serif" font-size="10.00">_hash.h</text>
</a>
</g>
</g>
<!-- Node14&#45;&gt;Node34 -->
<g id="edge97" class="edge"><title>Node14&#45;&gt;Node34</title>
<path fill="none" stroke="midnightblue" d="M1623.29,-537.445C1605.05,-530.439 1582.02,-518.749 1568,-501 1557.67,-487.921 1552.94,-469.68 1550.78,-455.029"/>
<polygon fill="midnightblue" stroke="midnightblue" points="1554.21,-454.201 1549.58,-444.67 1547.25,-455.006 1554.21,-454.201"/>
</g>
<!-- Node35 -->
<g id="node35" class="node"><title>Node35</title>
<g id="a_node35"><a xlink:href="repr__printer_8h.html" target="_top" xlink:title="Printer class to print repr string of each AST/IR nodes. ">
<polygon fill="white" stroke="black" points="1577,-481.5 1577,-500.5 1707,-500.5 1707,-481.5 1577,-481.5"/>
<text text-anchor="middle" x="1642" y="-488.5" font-family="Helvetica,sans-Serif" font-size="10.00">tvm/node/repr_printer.h</text>
</a>
</g>
</g>
<!-- Node14&#45;&gt;Node35 -->
<g id="edge92" class="edge"><title>Node14&#45;&gt;Node35</title>
<path fill="none" stroke="midnightblue" d="M1649.51,-537.083C1648.32,-529.927 1646.61,-519.635 1645.12,-510.691"/>
<polygon fill="midnightblue" stroke="midnightblue" points="1648.55,-510.04 1643.46,-500.751 1641.65,-511.19 1648.55,-510.04"/>
</g>
<!-- Node15&#45;&gt;Node3 -->
<g id="edge20" class="edge"><title>Node15&#45;&gt;Node3</title>
<path fill="none" stroke="midnightblue" d="M1444.3,-183.255C1308.61,-173.149 992.08,-149.573 851.906,-139.132"/>
<polygon fill="midnightblue" stroke="midnightblue" points="851.952,-135.626 841.72,-138.374 851.432,-142.607 851.952,-135.626"/>
</g>
<!-- Node15&#45;&gt;Node9 -->
<g id="edge23" class="edge"><title>Node15&#45;&gt;Node9</title>
<path fill="none" stroke="midnightblue" d="M1508.11,-179.173C1508.76,-165.364 1512.03,-138.617 1527,-123 1554.49,-94.3188 1598.84,-81.927 1632.02,-76.573"/>
<polygon fill="midnightblue" stroke="midnightblue" points="1632.54,-80.0346 1641.93,-75.1271 1631.53,-73.108 1632.54,-80.0346"/>
</g>
<!-- Node15&#45;&gt;Node11 -->
<g id="edge22" class="edge"><title>Node15&#45;&gt;Node11</title>
<path fill="none" stroke="midnightblue" d="M1494.8,-179.43C1472.26,-165.228 1424.46,-136.996 1380,-123 1263.13,-86.2049 1116.33,-76.1612 1053.21,-73.466"/>
<polygon fill="midnightblue" stroke="midnightblue" points="1053.24,-69.9648 1043.11,-73.0683 1052.97,-76.9594 1053.24,-69.9648"/>
</g>
<!-- Node16 -->
<g id="node16" class="node"><title>Node16</title>
<polygon fill="white" stroke="#bfbfbf" points="1536.5,-123.5 1536.5,-142.5 1583.5,-142.5 1583.5,-123.5 1536.5,-123.5"/>
<text text-anchor="middle" x="1560" y="-130.5" font-family="Helvetica,sans-Serif" font-size="10.00">cstdlib</text>
</g>
<!-- Node15&#45;&gt;Node16 -->
<g id="edge21" class="edge"><title>Node15&#45;&gt;Node16</title>
<path fill="none" stroke="midnightblue" d="M1516.59,-179.083C1524.16,-171.22 1535.38,-159.569 1544.51,-150.081"/>
<polygon fill="midnightblue" stroke="midnightblue" points="1547.16,-152.382 1551.57,-142.751 1542.12,-147.527 1547.16,-152.382"/>
</g>
<!-- Node17&#45;&gt;Node3 -->
<g id="edge26" class="edge"><title>Node17&#45;&gt;Node3</title>
<path fill="none" stroke="midnightblue" d="M1159.78,-481.455C1055.68,-462.265 835.088,-405.052 742,-255 720.964,-221.092 749.743,-175.084 768.71,-150.729"/>
<polygon fill="midnightblue" stroke="midnightblue" points="771.562,-152.769 775.144,-142.798 766.126,-148.359 771.562,-152.769"/>
</g>
<!-- Node17&#45;&gt;Node5 -->
<g id="edge25" class="edge"><title>Node17&#45;&gt;Node5</title>
<path fill="none" stroke="midnightblue" d="M1156.39,-489.809C1060.96,-488.368 868.509,-480.782 710,-445 473.239,-391.553 385.159,-409.545 198,-255 151.199,-216.355 148.249,-181.874 163,-123 165.388,-113.471 169.955,-103.774 174.663,-95.459"/>
<polygon fill="midnightblue" stroke="midnightblue" points="177.755,-97.1096 179.93,-86.7405 171.763,-93.4898 177.755,-97.1096"/>
</g>
<!-- Node17&#45;&gt;Node9 -->
<g id="edge91" class="edge"><title>Node17&#45;&gt;Node9</title>
<path fill="none" stroke="midnightblue" d="M1224.43,-481.318C1238.49,-466.938 1267.78,-437.438 1294,-414 1377.11,-339.699 1440.3,-355.762 1488,-255 1491.8,-246.966 1492.16,-242.855 1488,-235 1474.67,-209.836 1448.33,-224.164 1435,-199 1430.84,-191.145 1430.97,-186.921 1435,-179 1471.72,-106.899 1572.75,-83.59 1631.69,-76.0692"/>
<polygon fill="midnightblue" stroke="midnightblue" points="1632.31,-79.5211 1641.83,-74.8781 1631.49,-72.5689 1632.31,-79.5211"/>
</g>
<!-- Node17&#45;&gt;Node10 -->
<g id="edge90" class="edge"><title>Node17&#45;&gt;Node10</title>
<path fill="none" stroke="midnightblue" d="M1275.83,-485.39C1353.8,-478.886 1494.23,-465.476 1613,-445 1629.19,-442.209 1885.59,-383.686 1901,-378 1951.73,-359.284 1967.14,-356.224 2009,-322 2062.27,-278.45 2065.12,-256.439 2103,-199 2119.03,-174.692 2125.9,-169.918 2137,-143 2143.97,-126.101 2148.5,-105.694 2151.12,-91.1936"/>
<polygon fill="midnightblue" stroke="midnightblue" points="2154.62,-91.4505 2152.82,-81.0108 2147.72,-90.2984 2154.62,-91.4505"/>
</g>
<!-- Node17&#45;&gt;Node13 -->
<g id="edge63" class="edge"><title>Node17&#45;&gt;Node13</title>
<path fill="none" stroke="midnightblue" d="M1156.35,-488.26C1077.24,-484.835 933.758,-474.722 815,-445 635.421,-400.056 602.986,-351.404 428,-291 390.965,-278.216 348.126,-265.816 317.214,-257.281"/>
<polygon fill="midnightblue" stroke="midnightblue" points="317.784,-253.808 307.214,-254.54 315.933,-260.559 317.784,-253.808"/>
</g>
<!-- Node17&#45;&gt;Node15 -->
<g id="edge27" class="edge"><title>Node17&#45;&gt;Node15</title>
<path fill="none" stroke="midnightblue" d="M1231.32,-481.369C1256.82,-467.062 1309.65,-437.665 1355,-414 1469.43,-354.295 1552.93,-375.938 1598,-255 1601.1,-246.671 1602.67,-242.561 1598,-235 1588.33,-219.348 1571.38,-208.958 1554.78,-202.15"/>
<polygon fill="midnightblue" stroke="midnightblue" points="1555.69,-198.756 1545.1,-198.542 1553.25,-205.315 1555.69,-198.756"/>
</g>
<!-- Node18 -->
<g id="node18" class="node"><title>Node18</title>
<g id="a_node18"><a xlink:href="packed__func_8h.html" target="_top" xlink:title="Type&#45;erased function used across TVM API. ">
<polygon fill="white" stroke="black" points="979.5,-291.5 979.5,-321.5 1092.5,-321.5 1092.5,-291.5 979.5,-291.5"/>
<text text-anchor="start" x="987.5" y="-309.5" font-family="Helvetica,sans-Serif" font-size="10.00">tvm/runtime/packed</text>
<text text-anchor="middle" x="1036" y="-298.5" font-family="Helvetica,sans-Serif" font-size="10.00">_func.h</text>
</a>
</g>
</g>
<!-- Node17&#45;&gt;Node18 -->
<g id="edge28" class="edge"><title>Node17&#45;&gt;Node18</title>
<path fill="none" stroke="midnightblue" d="M1207.12,-481.435C1197.81,-472.428 1182.79,-457.81 1170,-445 1129.49,-404.417 1082.92,-356.29 1056.72,-329.081"/>
<polygon fill="midnightblue" stroke="midnightblue" points="1059.04,-326.442 1049.59,-321.662 1054,-331.296 1059.04,-326.442"/>
</g>
<!-- Node17&#45;&gt;Node22 -->
<g id="edge89" class="edge"><title>Node17&#45;&gt;Node22</title>
<path fill="none" stroke="midnightblue" d="M1217.53,-481.235C1221.36,-459.891 1232.04,-403.619 1246,-358 1262.82,-303.031 1317.03,-283.391 1286,-235 1278.51,-223.313 1246.8,-210.064 1221.46,-200.985"/>
<polygon fill="midnightblue" stroke="midnightblue" points="1222.36,-197.595 1211.77,-197.603 1220.06,-204.204 1222.36,-197.595"/>
</g>
<!-- Node24 -->
<g id="node24" class="node"><title>Node24</title>
<g id="a_node24"><a xlink:href="ndarray_8h.html" target="_top" xlink:title="A device&#45;independent managed NDArray abstraction. ">
<polygon fill="white" stroke="black" points="414.5,-235.5 414.5,-254.5 537.5,-254.5 537.5,-235.5 414.5,-235.5"/>
<text text-anchor="middle" x="476" y="-242.5" font-family="Helvetica,sans-Serif" font-size="10.00">tvm/runtime/ndarray.h</text>
</a>
</g>
</g>
<!-- Node17&#45;&gt;Node24 -->
<g id="edge62" class="edge"><title>Node17&#45;&gt;Node24</title>
<path fill="none" stroke="midnightblue" d="M1156.23,-486.595C1090.8,-481.733 983.314,-470.394 894,-445 811.891,-421.655 578.257,-300.044 501.083,-259.311"/>
<polygon fill="midnightblue" stroke="midnightblue" points="502.54,-256.122 492.064,-254.542 499.268,-262.31 502.54,-256.122"/>
</g>
<!-- Node17&#45;&gt;Node30 -->
<g id="edge64" class="edge"><title>Node17&#45;&gt;Node30</title>
<path fill="none" stroke="midnightblue" d="M1245.23,-481.475C1275.57,-472.626 1323.83,-458.549 1361.96,-447.428"/>
<polygon fill="midnightblue" stroke="midnightblue" points="1363.3,-450.683 1371.92,-444.523 1361.34,-443.963 1363.3,-450.683"/>
</g>
<!-- Node17&#45;&gt;Node34 -->
<g id="edge83" class="edge"><title>Node17&#45;&gt;Node34</title>
<path fill="none" stroke="midnightblue" d="M1272.11,-481.468C1324.21,-473.344 1404.18,-460.366 1483.24,-445.086"/>
<polygon fill="midnightblue" stroke="midnightblue" points="1484.22,-448.459 1493.37,-443.113 1482.89,-441.588 1484.22,-448.459"/>
</g>
<!-- Node18&#45;&gt;Node3 -->
<g id="edge53" class="edge"><title>Node18&#45;&gt;Node3</title>
<path fill="none" stroke="midnightblue" d="M979.24,-300.497C941.158,-294.688 891.637,-282.133 856,-255 846.665,-247.892 810.519,-183.842 792.844,-151.919"/>
<polygon fill="midnightblue" stroke="midnightblue" points="795.706,-149.862 787.811,-142.797 789.577,-153.243 795.706,-149.862"/>
</g>
<!-- Node18&#45;&gt;Node4 -->
<g id="edge29" class="edge"><title>Node18&#45;&gt;Node4</title>
<path fill="none" stroke="midnightblue" d="M1005.12,-291.312C987.947,-282.455 966.903,-269.91 951,-255 896.432,-203.84 852.54,-124.885 834.666,-90.0448"/>
<polygon fill="midnightblue" stroke="midnightblue" points="837.776,-88.4391 830.148,-81.086 831.526,-91.5909 837.776,-88.4391"/>
</g>
<!-- Node18&#45;&gt;Node5 -->
<g id="edge30" class="edge"><title>Node18&#45;&gt;Node5</title>
<path fill="none" stroke="midnightblue" d="M979.321,-302.563C834.513,-294.833 458.571,-273.261 405,-255 322.495,-226.876 306.013,-204.257 244,-143 229.194,-128.375 214.989,-109.572 204.867,-95.0632"/>
<polygon fill="midnightblue" stroke="midnightblue" points="207.656,-92.941 199.123,-86.6602 201.877,-96.891 207.656,-92.941"/>
</g>
<!-- Node18&#45;&gt;Node9 -->
<g id="edge61" class="edge"><title>Node18&#45;&gt;Node9</title>
<path fill="none" stroke="midnightblue" d="M1092.82,-305.138C1179.63,-303.259 1349.78,-294.325 1488,-255 1574.31,-230.443 1612.77,-221.639 1656,-143 1664.99,-126.653 1670.24,-105.904 1673.09,-91.1586"/>
<polygon fill="midnightblue" stroke="midnightblue" points="1676.55,-91.6775 1674.82,-81.225 1669.65,-90.4754 1676.55,-91.6775"/>
</g>
<!-- Node18&#45;&gt;Node10 -->
<g id="edge57" class="edge"><title>Node18&#45;&gt;Node10</title>
<path fill="none" stroke="midnightblue" d="M1092.7,-303.579C1185.88,-299.574 1376.84,-287.787 1535,-255 1724.52,-215.712 1763.74,-175.616 1950,-123 2010.4,-105.938 2081.74,-89.0029 2122.05,-79.7289"/>
<polygon fill="midnightblue" stroke="midnightblue" points="2122.87,-83.1304 2131.84,-77.4861 2121.31,-76.3071 2122.87,-83.1304"/>
</g>
<!-- Node18&#45;&gt;Node11 -->
<g id="edge60" class="edge"><title>Node18&#45;&gt;Node11</title>
<path fill="none" stroke="midnightblue" d="M1000.01,-291.35C984.448,-283.216 967.812,-271.317 959,-255 951.847,-241.755 953.805,-203.78 965,-179 973.936,-159.22 986.933,-161.672 998,-143 1007.67,-126.692 1014.13,-105.937 1017.89,-91.1798"/>
<polygon fill="midnightblue" stroke="midnightblue" points="1021.35,-91.7743 1020.25,-81.2366 1014.54,-90.1596 1021.35,-91.7743"/>
</g>
<!-- Node18&#45;&gt;Node13 -->
<g id="edge52" class="edge"><title>Node18&#45;&gt;Node13</title>
<path fill="none" stroke="midnightblue" d="M979.162,-301.949C862.461,-294.509 587.417,-276.207 357,-255 355.895,-254.898 354.781,-254.794 353.661,-254.689"/>
<polygon fill="midnightblue" stroke="midnightblue" points="353.731,-251.179 343.439,-253.693 353.052,-258.146 353.731,-251.179"/>
</g>
<!-- Node19 -->
<g id="node19" class="node"><title>Node19</title>
<g id="a_node19"><a xlink:href="runtime_2module_8h.html" target="_top" xlink:title="Runtime container of the functions generated by TVM, This is used to support dynamically link...">
<polygon fill="white" stroke="black" points="974,-235.5 974,-254.5 1098,-254.5 1098,-235.5 974,-235.5"/>
<text text-anchor="middle" x="1036" y="-242.5" font-family="Helvetica,sans-Serif" font-size="10.00">tvm/runtime/module.h</text>
</a>
</g>
</g>
<!-- Node18&#45;&gt;Node19 -->
<g id="edge31" class="edge"><title>Node18&#45;&gt;Node19</title>
<path fill="none" stroke="midnightblue" d="M1030.16,-291.399C1029.13,-283.377 1028.97,-273.233 1029.69,-264.569"/>
<polygon fill="midnightblue" stroke="midnightblue" points="1033.16,-265.044 1031.07,-254.658 1026.23,-264.081 1033.16,-265.044"/>
</g>
<!-- Node21 -->
<g id="node21" class="node"><title>Node21</title>
<polygon fill="white" stroke="#bfbfbf" points="974.5,-179.5 974.5,-198.5 1031.5,-198.5 1031.5,-179.5 974.5,-179.5"/>
<text text-anchor="middle" x="1003" y="-186.5" font-family="Helvetica,sans-Serif" font-size="10.00">memory</text>
</g>
<!-- Node18&#45;&gt;Node21 -->
<g id="edge59" class="edge"><title>Node18&#45;&gt;Node21</title>
<path fill="none" stroke="midnightblue" d="M1003.85,-291.336C989.175,-283.034 973.253,-270.997 965,-255 956.083,-237.714 970.369,-218.563 983.899,-205.555"/>
<polygon fill="midnightblue" stroke="midnightblue" points="986.478,-207.944 991.596,-198.667 981.81,-202.728 986.478,-207.944"/>
</g>
<!-- Node18&#45;&gt;Node22 -->
<g id="edge56" class="edge"><title>Node18&#45;&gt;Node22</title>
<path fill="none" stroke="midnightblue" d="M1092.69,-294.918C1118.07,-287.565 1146.58,-275.294 1166,-255 1177.96,-242.502 1183.43,-223.273 1185.92,-208.968"/>
<polygon fill="midnightblue" stroke="midnightblue" points="1189.43,-209.163 1187.35,-198.774 1182.5,-208.191 1189.43,-209.163"/>
</g>
<!-- Node18&#45;&gt;Node24 -->
<g id="edge41" class="edge"><title>Node18&#45;&gt;Node24</title>
<path fill="none" stroke="midnightblue" d="M979.482,-299.495C877.011,-288.607 660.747,-265.629 547.922,-253.642"/>
<polygon fill="midnightblue" stroke="midnightblue" points="547.979,-250.128 537.665,-252.552 547.239,-257.089 547.979,-250.128"/>
</g>
<!-- Node27 -->
<g id="node27" class="node"><title>Node27</title>
<polygon fill="white" stroke="#bfbfbf" points="1214.5,-235.5 1214.5,-254.5 1277.5,-254.5 1277.5,-235.5 1214.5,-235.5"/>
<text text-anchor="middle" x="1246" y="-242.5" font-family="Helvetica,sans-Serif" font-size="10.00">functional</text>
</g>
<!-- Node18&#45;&gt;Node27 -->
<g id="edge54" class="edge"><title>Node18&#45;&gt;Node27</title>
<path fill="none" stroke="midnightblue" d="M1085.5,-291.475C1122.36,-281.03 1172.03,-266.958 1206.31,-257.247"/>
<polygon fill="midnightblue" stroke="midnightblue" points="1207.31,-260.6 1215.98,-254.506 1205.4,-253.865 1207.31,-260.6"/>
</g>
<!-- Node28 -->
<g id="node28" class="node"><title>Node28</title>
<polygon fill="white" stroke="#bfbfbf" points="1116.5,-235.5 1116.5,-254.5 1157.5,-254.5 1157.5,-235.5 1116.5,-235.5"/>
<text text-anchor="middle" x="1137" y="-242.5" font-family="Helvetica,sans-Serif" font-size="10.00">tuple</text>
</g>
<!-- Node18&#45;&gt;Node28 -->
<g id="edge55" class="edge"><title>Node18&#45;&gt;Node28</title>
<path fill="none" stroke="midnightblue" d="M1059.94,-291.399C1076.13,-281.862 1097.41,-269.325 1113.5,-259.842"/>
<polygon fill="midnightblue" stroke="midnightblue" points="1115.46,-262.749 1122.3,-254.658 1111.91,-256.718 1115.46,-262.749"/>
</g>
<!-- Node18&#45;&gt;Node29 -->
<g id="edge58" class="edge"><title>Node18&#45;&gt;Node29</title>
<path fill="none" stroke="midnightblue" d="M1092.55,-303.057C1325.03,-293.011 2203.33,-255.06 2381.39,-247.366"/>
<polygon fill="midnightblue" stroke="midnightblue" points="2381.81,-250.851 2391.65,-246.923 2381.5,-243.858 2381.81,-250.851"/>
</g>
<!-- Node19&#45;&gt;Node3 -->
<g id="edge34" class="edge"><title>Node19&#45;&gt;Node3</title>
<path fill="none" stroke="midnightblue" d="M1047.57,-235.374C1063.75,-222.295 1089.48,-197.062 1074,-179 1059.7,-162.321 933.399,-147.751 851.956,-139.979"/>
<polygon fill="midnightblue" stroke="midnightblue" points="852.048,-136.472 841.764,-139.019 851.392,-143.441 852.048,-136.472"/>
</g>
<!-- Node19&#45;&gt;Node5 -->
<g id="edge33" class="edge"><title>Node19&#45;&gt;Node5</title>
<path fill="none" stroke="midnightblue" d="M1052.76,-235.313C1074.38,-222.981 1107.37,-199.604 1091,-179 1039.73,-114.45 469.816,-84.2538 263.772,-75.391"/>
<polygon fill="midnightblue" stroke="midnightblue" points="263.792,-71.8888 253.652,-74.9603 263.494,-78.8824 263.792,-71.8888"/>
</g>
<!-- Node19&#45;&gt;Node10 -->
<g id="edge38" class="edge"><title>Node19&#45;&gt;Node10</title>
<path fill="none" stroke="midnightblue" d="M1098.32,-235.921C1101.25,-235.597 1104.16,-235.288 1107,-235 1316.76,-213.737 1373.17,-239.852 1580,-199 1687.28,-177.812 1707.55,-148.008 1814,-123 1925.52,-96.7996 2060.98,-81.496 2121.76,-75.4799"/>
<polygon fill="midnightblue" stroke="midnightblue" points="2122.27,-78.9474 2131.88,-74.4963 2121.59,-71.9802 2122.27,-78.9474"/>
</g>
<!-- Node19&#45;&gt;Node15 -->
<g id="edge35" class="edge"><title>Node19&#45;&gt;Node15</title>
<path fill="none" stroke="midnightblue" d="M1098.33,-236.047C1101.26,-235.69 1104.16,-235.339 1107,-235 1221.24,-221.351 1353.93,-206.695 1434.39,-197.941"/>
<polygon fill="midnightblue" stroke="midnightblue" points="1434.86,-201.411 1444.42,-196.85 1434.1,-194.452 1434.86,-201.411"/>
</g>
<!-- Node19&#45;&gt;Node18 -->
<g id="edge40" class="edge"><title>Node19&#45;&gt;Node18</title>
<path fill="none" stroke="midnightblue" d="M1040.93,-254.658C1042.43,-261.655 1043.01,-271.857 1042.64,-281.289"/>
<polygon fill="midnightblue" stroke="midnightblue" points="1039.14,-281.153 1041.84,-291.399 1046.12,-281.709 1039.14,-281.153"/>
</g>
<!-- Node20 -->
<g id="node20" class="node"><title>Node20</title>
<polygon fill="white" stroke="#bfbfbf" points="621,-123.5 621,-142.5 681,-142.5 681,-123.5 621,-123.5"/>
<text text-anchor="middle" x="651" y="-130.5" font-family="Helvetica,sans-Serif" font-size="10.00">dmlc/io.h</text>
</g>
<!-- Node19&#45;&gt;Node20 -->
<g id="edge32" class="edge"><title>Node19&#45;&gt;Node20</title>
<path fill="none" stroke="midnightblue" d="M1040.06,-235.145C1045.74,-221.297 1053.88,-194.499 1040,-179 991.53,-124.864 787.097,-152.06 715,-143 707.337,-142.037 699.167,-140.941 691.318,-139.853"/>
<polygon fill="midnightblue" stroke="midnightblue" points="691.642,-136.365 681.253,-138.44 690.669,-143.297 691.642,-136.365"/>
</g>
<!-- Node19&#45;&gt;Node21 -->
<g id="edge36" class="edge"><title>Node19&#45;&gt;Node21</title>
<path fill="none" stroke="midnightblue" d="M1030.55,-235.083C1025.99,-227.613 1019.33,-216.724 1013.71,-207.52"/>
<polygon fill="midnightblue" stroke="midnightblue" points="1016.55,-205.459 1008.35,-198.751 1010.58,-209.109 1016.55,-205.459"/>
</g>
<!-- Node19&#45;&gt;Node22 -->
<g id="edge37" class="edge"><title>Node19&#45;&gt;Node22</title>
<path fill="none" stroke="midnightblue" d="M1060.08,-235.444C1085.54,-226.399 1125.89,-212.064 1154.46,-201.916"/>
<polygon fill="midnightblue" stroke="midnightblue" points="1155.78,-205.162 1164.03,-198.516 1153.43,-198.566 1155.78,-205.162"/>
</g>
<!-- Node23 -->
<g id="node23" class="node"><title>Node23</title>
<polygon fill="white" stroke="#bfbfbf" points="1804.5,-179.5 1804.5,-198.5 1897.5,-198.5 1897.5,-179.5 1804.5,-179.5"/>
<text text-anchor="middle" x="1851" y="-186.5" font-family="Helvetica,sans-Serif" font-size="10.00">unordered_map</text>
</g>
<!-- Node19&#45;&gt;Node23 -->
<g id="edge39" class="edge"><title>Node19&#45;&gt;Node23</title>
<path fill="none" stroke="midnightblue" d="M1098.31,-235.866C1101.25,-235.557 1104.15,-235.266 1107,-235 1362.96,-211.062 1669.71,-197.177 1794.28,-192.158"/>
<polygon fill="midnightblue" stroke="midnightblue" points="1794.49,-195.653 1804.34,-191.756 1794.21,-188.658 1794.49,-195.653"/>
</g>
<!-- Node24&#45;&gt;Node3 -->
<g id="edge43" class="edge"><title>Node24&#45;&gt;Node3</title>
<path fill="none" stroke="midnightblue" d="M488.388,-235.324C508.699,-221.478 550.76,-194.384 590,-179 631.166,-162.861 679.64,-151.585 717.709,-144.357"/>
<polygon fill="midnightblue" stroke="midnightblue" points="718.458,-147.778 727.653,-142.516 717.183,-140.895 718.458,-147.778"/>
</g>
<!-- Node24&#45;&gt;Node5 -->
<g id="edge42" class="edge"><title>Node24&#45;&gt;Node5</title>
<path fill="none" stroke="midnightblue" d="M445.048,-235.442C419.69,-227.769 383.337,-215.225 354,-199 299.118,-168.647 242.894,-120.935 212.631,-93.6066"/>
<polygon fill="midnightblue" stroke="midnightblue" points="214.908,-90.9459 205.16,-86.7956 210.192,-96.119 214.908,-90.9459"/>
</g>
<!-- Node24&#45;&gt;Node11 -->
<g id="edge51" class="edge"><title>Node24&#45;&gt;Node11</title>
<path fill="none" stroke="midnightblue" d="M482.434,-235.236C500.07,-211.997 551.892,-148.821 612,-123 629.411,-115.521 897.603,-85.9624 990.563,-75.8859"/>
<polygon fill="midnightblue" stroke="midnightblue" points="991.189,-79.3387 1000.75,-74.7832 990.436,-72.3793 991.189,-79.3387"/>
</g>
<!-- Node24&#45;&gt;Node12 -->
<g id="edge49" class="edge"><title>Node24&#45;&gt;Node12</title>
<path fill="none" stroke="midnightblue" d="M424.823,-235.5C387.354,-226.628 345.537,-209.601 361,-179 389.486,-122.627 462.368,-93.6918 506.16,-80.935"/>
<polygon fill="midnightblue" stroke="midnightblue" points="507.134,-84.2969 515.829,-78.2431 505.257,-77.5533 507.134,-84.2969"/>
</g>
<!-- Node24&#45;&gt;Node22 -->
<g id="edge50" class="edge"><title>Node24&#45;&gt;Node22</title>
<path fill="none" stroke="midnightblue" d="M537.63,-239.326C682.773,-228.318 1042.29,-201.051 1154.2,-192.564"/>
<polygon fill="midnightblue" stroke="midnightblue" points="1154.53,-196.049 1164.24,-191.802 1154,-189.069 1154.53,-196.049"/>
</g>
<!-- Node25 -->
<g id="node25" class="node"><title>Node25</title>
<g id="a_node25"><a xlink:href="serializer_8h.html" target="_top" xlink:title="Serializer extension to support TVM data types Include this file to enable serialization of DLDataTyp...">
<polygon fill="white" stroke="black" points="370,-179.5 370,-198.5 500,-198.5 500,-179.5 370,-179.5"/>
<text text-anchor="middle" x="435" y="-186.5" font-family="Helvetica,sans-Serif" font-size="10.00">tvm/runtime/serializer.h</text>
</a>
</g>
</g>
<!-- Node24&#45;&gt;Node25 -->
<g id="edge44" class="edge"><title>Node24&#45;&gt;Node25</title>
<path fill="none" stroke="midnightblue" d="M464.063,-235.083C456.816,-227.613 448.149,-216.724 441.936,-207.52"/>
<polygon fill="midnightblue" stroke="midnightblue" points="444.75,-205.415 436.513,-198.751 438.797,-209.097 444.75,-205.415"/>
</g>
<!-- Node25&#45;&gt;Node5 -->
<g id="edge47" class="edge"><title>Node25&#45;&gt;Node5</title>
<path fill="none" stroke="midnightblue" d="M416.585,-179.319C376.902,-160.611 282.587,-116.148 228.987,-90.8795"/>
<polygon fill="midnightblue" stroke="midnightblue" points="230.331,-87.6437 219.793,-86.5453 227.346,-93.9754 230.331,-87.6437"/>
</g>
<!-- Node25&#45;&gt;Node20 -->
<g id="edge45" class="edge"><title>Node25&#45;&gt;Node20</title>
<path fill="none" stroke="midnightblue" d="M469.226,-179.444C507.718,-169.821 570.159,-154.21 610.904,-144.024"/>
<polygon fill="midnightblue" stroke="midnightblue" points="611.916,-147.379 620.768,-141.558 610.218,-140.588 611.916,-147.379"/>
</g>
<!-- Node25&#45;&gt;Node24 -->
<g id="edge48" class="edge"><title>Node25&#45;&gt;Node24</title>
<path fill="none" stroke="midnightblue" d="M446.775,-198.751C454.078,-206.248 462.859,-217.275 469.121,-226.566"/>
<polygon fill="midnightblue" stroke="midnightblue" points="466.155,-228.424 474.396,-235.083 472.107,-224.738 466.155,-228.424"/>
</g>
<!-- Node26 -->
<g id="node26" class="node"><title>Node26</title>
<polygon fill="white" stroke="#bfbfbf" points="446,-123.5 446,-142.5 540,-142.5 540,-123.5 446,-123.5"/>
<text text-anchor="middle" x="493" y="-130.5" font-family="Helvetica,sans-Serif" font-size="10.00">dmlc/serializer.h</text>
</g>
<!-- Node25&#45;&gt;Node26 -->
<g id="edge46" class="edge"><title>Node25&#45;&gt;Node26</title>
<path fill="none" stroke="midnightblue" d="M444.319,-179.324C452.893,-171.341 465.812,-159.313 476.188,-149.653"/>
<polygon fill="midnightblue" stroke="midnightblue" points="478.578,-152.21 483.512,-142.834 473.808,-147.086 478.578,-152.21"/>
</g>
<!-- Node30&#45;&gt;Node10 -->
<g id="edge82" class="edge"><title>Node30&#45;&gt;Node10</title>
<path fill="none" stroke="midnightblue" d="M1475.78,-415.495C1478.55,-414.964 1481.3,-414.461 1484,-414 1619.84,-390.74 1665.53,-432.767 1792,-378 1953.22,-308.185 2097.47,-142.132 2140.79,-89.0905"/>
<polygon fill="midnightblue" stroke="midnightblue" points="2143.71,-91.0381 2147.28,-81.0602 2138.27,-86.6384 2143.71,-91.0381"/>
</g>
<!-- Node30&#45;&gt;Node13 -->
<g id="edge65" class="edge"><title>Node30&#45;&gt;Node13</title>
<path fill="none" stroke="midnightblue" d="M1364.04,-421.601C1238.72,-405.932 926.111,-365.619 666,-322 543.055,-301.383 399.375,-272.116 325.127,-256.605"/>
<polygon fill="midnightblue" stroke="midnightblue" points="325.626,-253.133 315.121,-254.509 324.191,-259.985 325.626,-253.133"/>
</g>
<!-- Node31 -->
<g id="node31" class="node"><title>Node31</title>
<g id="a_node31"><a xlink:href="functor_8h.html" target="_top" xlink:title="Defines the Functor data structures. ">
<polygon fill="white" stroke="black" points="1372.5,-235.5 1372.5,-254.5 1479.5,-254.5 1479.5,-235.5 1372.5,-235.5"/>
<text text-anchor="middle" x="1426" y="-242.5" font-family="Helvetica,sans-Serif" font-size="10.00">tvm/node/functor.h</text>
</a>
</g>
</g>
<!-- Node30&#45;&gt;Node31 -->
<g id="edge66" class="edge"><title>Node30&#45;&gt;Node31</title>
<path fill="none" stroke="midnightblue" d="M1413.69,-414.203C1403.42,-388.942 1385.45,-334.933 1398,-291 1400.9,-280.844 1406.83,-270.747 1412.49,-262.699"/>
<polygon fill="midnightblue" stroke="midnightblue" points="1415.38,-264.685 1418.59,-254.589 1409.78,-260.479 1415.38,-264.685"/>
</g>
<!-- Node30&#45;&gt;Node32 -->
<g id="edge72" class="edge"><title>Node30&#45;&gt;Node32</title>
<path fill="none" stroke="midnightblue" d="M1475.82,-415.724C1478.58,-415.132 1481.32,-414.554 1484,-414 1545.82,-401.207 1616.92,-388.071 1665.59,-379.32"/>
<polygon fill="midnightblue" stroke="midnightblue" points="1666.4,-382.731 1675.63,-377.521 1665.17,-375.84 1666.4,-382.731"/>
</g>
<!-- Node31&#45;&gt;Node3 -->
<g id="edge68" class="edge"><title>Node31&#45;&gt;Node3</title>
<path fill="none" stroke="midnightblue" d="M1389.14,-235.499C1355.96,-227.441 1306.11,-214.313 1264,-199 1243.81,-191.659 1240.73,-184.618 1220,-179 1152.41,-160.685 956.927,-145.49 851.812,-138.364"/>
<polygon fill="midnightblue" stroke="midnightblue" points="851.832,-134.857 841.62,-137.679 851.363,-141.842 851.832,-134.857"/>
</g>
<!-- Node31&#45;&gt;Node4 -->
<g id="edge67" class="edge"><title>Node31&#45;&gt;Node4</title>
<path fill="none" stroke="midnightblue" d="M1395.33,-235.448C1367.78,-227.356 1326.46,-214.207 1292,-199 1275.25,-191.611 1273.03,-185.703 1256,-179 1125.13,-127.493 961.806,-95.2279 879.179,-80.9973"/>
<polygon fill="midnightblue" stroke="midnightblue" points="879.715,-77.5382 869.269,-79.3107 878.54,-84.439 879.715,-77.5382"/>
</g>
<!-- Node31&#45;&gt;Node9 -->
<g id="edge70" class="edge"><title>Node31&#45;&gt;Node9</title>
<path fill="none" stroke="midnightblue" d="M1479.52,-236.951C1510.93,-230.818 1550.17,-219.534 1580,-199 1621.68,-170.303 1652.94,-117.726 1667.3,-90.265"/>
<polygon fill="midnightblue" stroke="midnightblue" points="1670.56,-91.5742 1671.96,-81.0723 1664.32,-88.4086 1670.56,-91.5742"/>
</g>
<!-- Node31&#45;&gt;Node11 -->
<g id="edge71" class="edge"><title>Node31&#45;&gt;Node11</title>
<path fill="none" stroke="midnightblue" d="M1409.27,-235.376C1384.09,-222.516 1334.85,-197.812 1292,-179 1206.53,-141.479 1103.38,-102.496 1052.89,-83.8125"/>
<polygon fill="midnightblue" stroke="midnightblue" points="1053.82,-80.4252 1043.23,-80.2471 1051.4,-86.9924 1053.82,-80.4252"/>
</g>
<!-- Node31&#45;&gt;Node22 -->
<g id="edge69" class="edge"><title>Node31&#45;&gt;Node22</title>
<path fill="none" stroke="midnightblue" d="M1387.26,-235.418C1346.94,-226.457 1282,-211.932 1226,-199 1224.55,-198.666 1223.08,-198.324 1221.59,-197.977"/>
<polygon fill="midnightblue" stroke="midnightblue" points="1222.24,-194.535 1211.71,-195.658 1220.64,-201.35 1222.24,-194.535"/>
</g>
<!-- Node32&#45;&gt;Node3 -->
<g id="edge73" class="edge"><title>Node32&#45;&gt;Node3</title>
<path fill="none" stroke="midnightblue" d="M1664.43,-366.57C1510.15,-364.958 1100.53,-357.373 970,-322 906.499,-304.791 885.033,-301.004 838,-255 808.542,-226.187 793.419,-178.694 786.966,-152.603"/>
<polygon fill="midnightblue" stroke="midnightblue" points="790.307,-151.515 784.652,-142.555 783.486,-153.085 790.307,-151.515"/>
</g>
<!-- Node32&#45;&gt;Node9 -->
<g id="edge76" class="edge"><title>Node32&#45;&gt;Node9</title>
<path fill="none" stroke="midnightblue" d="M1730.1,-358.191C1735.75,-349.46 1743.76,-335.478 1747,-322 1750.22,-308.605 1748.8,-304.66 1747,-291 1736.86,-213.976 1701.05,-127.674 1684.5,-90.7991"/>
<polygon fill="midnightblue" stroke="midnightblue" points="1687.54,-89.027 1680.21,-81.3804 1681.17,-91.9312 1687.54,-89.027"/>
</g>
<!-- Node32&#45;&gt;Node10 -->
<g id="edge81" class="edge"><title>Node32&#45;&gt;Node10</title>
<path fill="none" stroke="midnightblue" d="M1744.12,-358.346C1762.62,-350.042 1790.5,-336.631 1813,-322 1932.34,-244.385 1944.39,-200.204 2064,-123 2085.15,-109.348 2110.2,-95.4689 2128.49,-85.7249"/>
<polygon fill="midnightblue" stroke="midnightblue" points="2130.17,-88.7932 2137.38,-81.0294 2126.91,-82.6029 2130.17,-88.7932"/>
</g>
<!-- Node32&#45;&gt;Node11 -->
<g id="edge80" class="edge"><title>Node32&#45;&gt;Node11</title>
<path fill="none" stroke="midnightblue" d="M1698.86,-358.356C1677.36,-350.427 1646.02,-337.568 1621,-322 1608.28,-314.085 1531.02,-242.406 1518,-235 1451.78,-197.339 1266.57,-146.181 1194,-123 1144.97,-107.337 1087.5,-90.8343 1052.96,-81.1144"/>
<polygon fill="midnightblue" stroke="midnightblue" points="1053.59,-77.6549 1043.01,-78.324 1051.7,-84.3947 1053.59,-77.6549"/>
</g>
<!-- Node32&#45;&gt;Node15 -->
<g id="edge74" class="edge"><title>Node32&#45;&gt;Node15</title>
<path fill="none" stroke="midnightblue" d="M1726.31,-358.272C1731.9,-334.987 1743.49,-270.743 1712,-235 1694.81,-215.482 1632.84,-203.709 1581.66,-197.129"/>
<polygon fill="midnightblue" stroke="midnightblue" points="1581.94,-193.637 1571.59,-195.881 1581.08,-200.584 1581.94,-193.637"/>
</g>
<!-- Node32&#45;&gt;Node18 -->
<g id="edge75" class="edge"><title>Node32&#45;&gt;Node18</title>
<path fill="none" stroke="midnightblue" d="M1664.45,-361.85C1536.71,-350.803 1237.14,-324.895 1103.01,-313.295"/>
<polygon fill="midnightblue" stroke="midnightblue" points="1103.13,-309.793 1092.87,-312.418 1102.53,-316.767 1103.13,-309.793"/>
</g>
<!-- Node32&#45;&gt;Node22 -->
<g id="edge77" class="edge"><title>Node32&#45;&gt;Node22</title>
<path fill="none" stroke="midnightblue" d="M1685.07,-358.499C1656.9,-351.329 1618.58,-339.418 1588,-322 1536.81,-292.843 1541.49,-259.689 1488,-235 1441.14,-213.368 1290.16,-198.481 1221.98,-192.691"/>
<polygon fill="midnightblue" stroke="midnightblue" points="1222.03,-189.184 1211.77,-191.841 1221.45,-196.159 1222.03,-189.184"/>
</g>
<!-- Node32&#45;&gt;Node23 -->
<g id="edge79" class="edge"><title>Node32&#45;&gt;Node23</title>
<path fill="none" stroke="midnightblue" d="M1739.96,-358.482C1753.9,-350.457 1774.03,-337.389 1788,-322 1818.9,-287.954 1837.6,-236.04 1845.91,-208.562"/>
<polygon fill="midnightblue" stroke="midnightblue" points="1849.34,-209.285 1848.75,-198.706 1842.62,-207.343 1849.34,-209.285"/>
</g>
<!-- Node33 -->
<g id="node33" class="node"><title>Node33</title>
<polygon fill="white" stroke="#bfbfbf" points="1630.5,-297 1630.5,-316 1707.5,-316 1707.5,-297 1630.5,-297"/>
<text text-anchor="middle" x="1669" y="-304" font-family="Helvetica,sans-Serif" font-size="10.00">initializer_list</text>
</g>
<!-- Node32&#45;&gt;Node33 -->
<g id="edge78" class="edge"><title>Node32&#45;&gt;Node33</title>
<path fill="none" stroke="midnightblue" d="M1716.12,-358.475C1707.71,-349.373 1694.18,-334.741 1683.77,-323.483"/>
<polygon fill="midnightblue" stroke="midnightblue" points="1686.22,-320.977 1676.87,-316.009 1681.08,-325.728 1686.22,-320.977"/>
</g>
<!-- Node34&#45;&gt;Node10 -->
<g id="edge87" class="edge"><title>Node34&#45;&gt;Node10</title>
<path fill="none" stroke="midnightblue" d="M1604.73,-416.651C1609.55,-415.719 1614.36,-414.821 1619,-414 1727.38,-394.83 1758.9,-410.656 1864,-378 1877.48,-373.813 1967.27,-331.162 1978,-322 2060.29,-251.763 2123.24,-134.929 2145.38,-90.4448"/>
<polygon fill="midnightblue" stroke="midnightblue" points="2148.54,-91.9427 2149.8,-81.4227 2142.26,-88.8626 2148.54,-91.9427"/>
</g>
<!-- Node34&#45;&gt;Node13 -->
<g id="edge84" class="edge"><title>Node34&#45;&gt;Node13</title>
<path fill="none" stroke="midnightblue" d="M1493.39,-415.78C1490.22,-415.152 1487.07,-414.554 1484,-414 1189.93,-360.981 1113.96,-363.154 818,-322 728.244,-309.519 471.638,-273.564 346.017,-255.956"/>
<polygon fill="midnightblue" stroke="midnightblue" points="346.129,-252.437 335.739,-254.515 345.157,-259.37 346.129,-252.437"/>
</g>
<!-- Node34&#45;&gt;Node27 -->
<g id="edge88" class="edge"><title>Node34&#45;&gt;Node27</title>
<path fill="none" stroke="midnightblue" d="M1525.15,-414.404C1508.1,-404.305 1484.61,-390.361 1464,-378 1392.52,-335.125 1308.18,-283.866 1268.62,-259.784"/>
<polygon fill="midnightblue" stroke="midnightblue" points="1270.36,-256.746 1260,-254.534 1266.72,-262.725 1270.36,-256.746"/>
</g>
<!-- Node34&#45;&gt;Node31 -->
<g id="edge85" class="edge"><title>Node34&#45;&gt;Node31</title>
<path fill="none" stroke="midnightblue" d="M1531.3,-414.35C1502.48,-390.923 1447.48,-344.439 1436,-322 1426.83,-304.077 1425.01,-280.797 1425.05,-264.75"/>
<polygon fill="midnightblue" stroke="midnightblue" points="1428.55,-264.616 1425.33,-254.524 1421.56,-264.423 1428.55,-264.616"/>
</g>
<!-- Node34&#45;&gt;Node32 -->
<g id="edge86" class="edge"><title>Node34&#45;&gt;Node32</title>
<path fill="none" stroke="midnightblue" d="M1590.47,-414.399C1620.58,-404.163 1660.85,-390.47 1689.27,-380.808"/>
<polygon fill="midnightblue" stroke="midnightblue" points="1690.45,-384.104 1698.79,-377.571 1688.2,-377.476 1690.45,-384.104"/>
</g>
<!-- Node35&#45;&gt;Node31 -->
<g id="edge93" class="edge"><title>Node35&#45;&gt;Node31</title>
<path fill="none" stroke="midnightblue" d="M1640.13,-481.395C1636.62,-466.615 1628.03,-435.887 1613,-414 1566.12,-345.719 1485.97,-286.346 1447.65,-260.2"/>
<polygon fill="midnightblue" stroke="midnightblue" points="1449.53,-257.245 1439.28,-254.565 1445.62,-263.052 1449.53,-257.245"/>
</g>
<!-- Node36 -->
<g id="node36" class="node"><title>Node36</title>
<polygon fill="white" stroke="#bfbfbf" points="1762.5,-420 1762.5,-439 1821.5,-439 1821.5,-420 1762.5,-420"/>
<text text-anchor="middle" x="1792" y="-427" font-family="Helvetica,sans-Serif" font-size="10.00">iostream</text>
</g>
<!-- Node35&#45;&gt;Node36 -->
<g id="edge94" class="edge"><title>Node35&#45;&gt;Node36</title>
<path fill="none" stroke="midnightblue" d="M1663.49,-481.475C1689.11,-471.313 1732.11,-454.256 1761.24,-442.7"/>
<polygon fill="midnightblue" stroke="midnightblue" points="1762.54,-445.95 1770.55,-439.009 1759.96,-439.443 1762.54,-445.95"/>
</g>
<!-- Node37&#45;&gt;Node3 -->
<g id="edge104" class="edge"><title>Node37&#45;&gt;Node3</title>
<path fill="none" stroke="midnightblue" d="M1796.95,-601.271C1606.72,-597.429 800.399,-576.745 721,-501 617.443,-402.208 646.81,-298.876 725,-179 733.323,-166.24 746.518,-155.586 758.221,-147.852"/>
<polygon fill="midnightblue" stroke="midnightblue" points="760.14,-150.78 766.775,-142.521 756.437,-144.84 760.14,-150.78"/>
</g>
<!-- Node37&#45;&gt;Node10 -->
<g id="edge106" class="edge"><title>Node37&#45;&gt;Node10</title>
<path fill="none" stroke="midnightblue" d="M1845.26,-593.409C1881.34,-555.649 2027.54,-399.848 2125,-255 2155.04,-210.353 2163.54,-196.293 2171,-143 2172.23,-134.197 2172.44,-131.772 2171,-123 2169.2,-111.989 2165.32,-100.144 2161.72,-90.6953"/>
<polygon fill="midnightblue" stroke="midnightblue" points="2164.89,-89.1861 2157.91,-81.2171 2158.39,-91.8007 2164.89,-89.1861"/>
</g>
<!-- Node37&#45;&gt;Node14 -->
<g id="edge105" class="edge"><title>Node37&#45;&gt;Node14</title>
<path fill="none" stroke="midnightblue" d="M1807.53,-593.444C1775.83,-584.241 1725.27,-569.562 1690.23,-559.388"/>
<polygon fill="midnightblue" stroke="midnightblue" points="1690.91,-555.943 1680.33,-556.516 1688.96,-562.666 1690.91,-555.943"/>
</g>
<!-- Node38&#45;&gt;Node5 -->
<g id="edge112" class="edge"><title>Node38&#45;&gt;Node5</title>
<path fill="none" stroke="midnightblue" d="M2109.71,-769.604C1852.05,-766.997 439.935,-751.577 250,-725 136.302,-709.091 0,-774.805 0,-660 0,-660 0,-660 0,-188 0,-131.036 63.131,-101.366 116.612,-86.4516"/>
<polygon fill="midnightblue" stroke="midnightblue" points="117.701,-89.7837 126.469,-83.8352 115.905,-83.018 117.701,-89.7837"/>
</g>
<!-- Node38&#45;&gt;Node10 -->
<g id="edge124" class="edge"><title>Node38&#45;&gt;Node10</title>
<path fill="none" stroke="midnightblue" d="M2190.03,-767.132C2250.73,-762.045 2362.26,-749.584 2393,-725 2411.04,-710.573 2534,-449 2534,-307.5 2534,-307.5 2534,-307.5 2534,-188 2534,-115.539 2277.86,-84.2067 2186.16,-75.3119"/>
<polygon fill="midnightblue" stroke="midnightblue" points="2186.36,-71.8146 2176.07,-74.3598 2185.7,-78.7837 2186.36,-71.8146"/>
</g>
<!-- Node38&#45;&gt;Node11 -->
<g id="edge129" class="edge"><title>Node38&#45;&gt;Node11</title>
<path fill="none" stroke="midnightblue" d="M2109.79,-769.999C1824.2,-769.735 114,-763.818 114,-660 114,-660 114,-660 114,-244 114,-38.9064 743.344,-98.7545 878,-87 916.791,-83.6139 961.386,-79.0139 990.543,-75.9104"/>
<polygon fill="midnightblue" stroke="midnightblue" points="990.977,-79.3841 1000.55,-74.8398 990.232,-72.4238 990.977,-79.3841"/>
</g>
<!-- Node38&#45;&gt;Node13 -->
<g id="edge113" class="edge"><title>Node38&#45;&gt;Node13</title>
<path fill="none" stroke="midnightblue" d="M2109.73,-769.798C1838.07,-768.178 284,-754.77 284,-660 284,-660 284,-660 284,-367 284,-330.795 279.943,-288.663 277.277,-264.882"/>
<polygon fill="midnightblue" stroke="midnightblue" points="280.735,-264.318 276.104,-254.789 273.782,-265.126 280.735,-264.318"/>
</g>
<!-- Node38&#45;&gt;Node14 -->
<g id="edge109" class="edge"><title>Node38&#45;&gt;Node14</title>
<path fill="none" stroke="midnightblue" d="M2109.97,-763.692C2042.79,-751.991 1904.36,-723.053 1799,-669 1744.38,-640.977 1691.42,-590.275 1666.24,-564.3"/>
<polygon fill="midnightblue" stroke="midnightblue" points="1668.51,-561.611 1659.07,-556.796 1663.45,-566.445 1668.51,-561.611"/>
</g>
<!-- Node38&#45;&gt;Node23 -->
<g id="edge126" class="edge"><title>Node38&#45;&gt;Node23</title>
<path fill="none" stroke="midnightblue" d="M2166.02,-761.482C2193.57,-745.537 2247,-708.377 2247,-660 2247,-660 2247,-660 2247,-546 2247,-373.82 2158.19,-332.092 2016,-235 1984,-213.15 1941.75,-201.883 1908.01,-196.087"/>
<polygon fill="midnightblue" stroke="midnightblue" points="1908.26,-192.583 1897.84,-194.459 1907.16,-199.495 1908.26,-192.583"/>
</g>
<!-- Node38&#45;&gt;Node29 -->
<g id="edge128" class="edge"><title>Node38&#45;&gt;Node29</title>
<path fill="none" stroke="midnightblue" d="M2190.09,-770.037C2261.43,-767.771 2403,-751.72 2403,-660 2403,-660 2403,-660 2403,-546 2403,-439.604 2409.36,-312.102 2411.94,-264.831"/>
<polygon fill="midnightblue" stroke="midnightblue" points="2415.43,-265.01 2412.49,-254.831 2408.44,-264.622 2415.43,-265.01"/>
</g>
<!-- Node38&#45;&gt;Node31 -->
<g id="edge111" class="edge"><title>Node38&#45;&gt;Node31</title>
<path fill="none" stroke="midnightblue" d="M2109.79,-769.5C1856.28,-766.095 490,-743.85 490,-660 490,-660 490,-660 490,-602 490,-504.9 1202.8,-306.163 1384.33,-257.124"/>
<polygon fill="midnightblue" stroke="midnightblue" points="1385.31,-260.487 1394.05,-254.505 1383.49,-253.728 1385.31,-260.487"/>
</g>
<!-- Node38&#45;&gt;Node32 -->
<g id="edge110" class="edge"><title>Node38&#45;&gt;Node32</title>
<path fill="none" stroke="midnightblue" d="M2150.23,-761.223C2150.63,-734.889 2149.86,-654.573 2128,-593 2094.03,-497.303 2077,-459.061 1986,-414 1925.58,-384.082 1848.8,-373.656 1794.01,-370.218"/>
<polygon fill="midnightblue" stroke="midnightblue" points="1793.88,-366.705 1783.7,-369.637 1793.48,-373.694 1793.88,-366.705"/>
</g>
<!-- Node38&#45;&gt;Node36 -->
<g id="edge127" class="edge"><title>Node38&#45;&gt;Node36</title>
<path fill="none" stroke="midnightblue" d="M2119.16,-761.452C2096.41,-754.167 2065.46,-742.133 2042,-725 1928.27,-641.926 1832.9,-496.973 1802.3,-447.562"/>
<polygon fill="midnightblue" stroke="midnightblue" points="1805.26,-445.701 1797.06,-439.001 1799.29,-449.356 1805.26,-445.701"/>
</g>
<!-- Node39 -->
<g id="node39" class="node"><title>Node39</title>
<g id="a_node39"><a xlink:href="ir_2expr_8h.html" target="_top" xlink:title="Base expr nodes in TVM. ">
<polygon fill="white" stroke="black" points="2051.5,-705.5 2051.5,-724.5 2128.5,-724.5 2128.5,-705.5 2051.5,-705.5"/>
<text text-anchor="middle" x="2090" y="-712.5" font-family="Helvetica,sans-Serif" font-size="10.00">tvm/ir/expr.h</text>
</a>
</g>
</g>
<!-- Node38&#45;&gt;Node39 -->
<g id="edge114" class="edge"><title>Node38&#45;&gt;Node39</title>
<path fill="none" stroke="midnightblue" d="M2140.36,-761.324C2131.49,-753.341 2118.13,-741.313 2107.39,-731.653"/>
<polygon fill="midnightblue" stroke="midnightblue" points="2109.59,-728.922 2099.82,-724.834 2104.91,-734.125 2109.59,-728.922"/>
</g>
<!-- Node38&#45;&gt;Node40 -->
<g id="edge125" class="edge"><title>Node38&#45;&gt;Node40</title>
<path fill="none" stroke="midnightblue" d="M2184.99,-761.488C2208.32,-754.527 2238.68,-742.872 2261,-725 2277.02,-712.174 2289.67,-692.161 2297.43,-677.729"/>
<polygon fill="midnightblue" stroke="midnightblue" points="2300.57,-679.284 2302,-668.787 2294.33,-676.099 2300.57,-679.284"/>
</g>
<!-- Node39&#45;&gt;Node2 -->
<g id="edge119" class="edge"><title>Node39&#45;&gt;Node2</title>
<path fill="none" stroke="midnightblue" d="M2051.5,-705.444C2009.19,-696.043 1941.18,-680.929 1895.33,-670.739"/>
<polygon fill="midnightblue" stroke="midnightblue" points="1895.85,-667.269 1885.32,-668.516 1894.33,-674.102 1895.85,-667.269"/>
</g>
<!-- Node39&#45;&gt;Node3 -->
<g id="edge115" class="edge"><title>Node39&#45;&gt;Node3</title>
<path fill="none" stroke="midnightblue" d="M2051.13,-714.26C1803.08,-715.424 452,-714.14 452,-548 452,-548 452,-548 452,-428.5 452,-271.459 662.531,-177.591 747.786,-146.017"/>
<polygon fill="midnightblue" stroke="midnightblue" points="749.099,-149.264 757.302,-142.559 746.708,-142.685 749.099,-149.264"/>
</g>
<!-- Node39&#45;&gt;Node9 -->
<g id="edge123" class="edge"><title>Node39&#45;&gt;Node9</title>
<path fill="none" stroke="midnightblue" d="M2093.86,-705.416C2118.63,-648.867 2249.44,-327.487 2092,-179 2037.91,-127.982 1815.52,-91.807 1719.97,-78.3207"/>
<polygon fill="midnightblue" stroke="midnightblue" points="1720.43,-74.8513 1710.04,-76.9373 1719.46,-81.7843 1720.43,-74.8513"/>
</g>
<!-- Node39&#45;&gt;Node10 -->
<g id="edge120" class="edge"><title>Node39&#45;&gt;Node10</title>
<path fill="none" stroke="midnightblue" d="M2097.77,-705.388C2126.29,-673.345 2226.5,-557.093 2282,-445 2307.39,-393.726 2311.46,-378.575 2320,-322 2335.72,-217.875 2222.81,-122.437 2174.85,-87.0377"/>
<polygon fill="midnightblue" stroke="midnightblue" points="2176.85,-84.1638 2166.69,-81.138 2172.75,-89.8353 2176.85,-84.1638"/>
</g>
<!-- Node39&#45;&gt;Node14 -->
<g id="edge116" class="edge"><title>Node39&#45;&gt;Node14</title>
<path fill="none" stroke="midnightblue" d="M2078.77,-705.396C2049.08,-683.094 1965.32,-623.063 1886,-593 1828.34,-571.146 1758.54,-559.506 1710.06,-553.583"/>
<polygon fill="midnightblue" stroke="midnightblue" points="1710.39,-550.098 1700.05,-552.404 1709.57,-557.05 1710.39,-550.098"/>
</g>
<!-- Node39&#45;&gt;Node29 -->
<g id="edge122" class="edge"><title>Node39&#45;&gt;Node29</title>
<path fill="none" stroke="midnightblue" d="M2102.47,-705.439C2145.38,-675.284 2288.17,-569.093 2358,-445 2375.75,-413.458 2399.72,-307.838 2409.05,-264.647"/>
<polygon fill="midnightblue" stroke="midnightblue" points="2412.52,-265.172 2411.19,-254.661 2405.68,-263.707 2412.52,-265.172"/>
</g>
<!-- Node39&#45;&gt;Node32 -->
<g id="edge117" class="edge"><title>Node39&#45;&gt;Node32</title>
<path fill="none" stroke="midnightblue" d="M2085.55,-705.424C2076.54,-687.244 2057,-643.278 2057,-604 2057,-604 2057,-604 2057,-546 2057,-427.752 1891.26,-388.254 1793.63,-375.245"/>
<polygon fill="midnightblue" stroke="midnightblue" points="1793.9,-371.75 1783.53,-373.961 1793.01,-378.694 1793.9,-371.75"/>
</g>
<!-- Node39&#45;&gt;Node37 -->
<g id="edge118" class="edge"><title>Node39&#45;&gt;Node37</title>
<path fill="none" stroke="midnightblue" d="M2063.75,-705.359C2038.62,-696.86 1999.78,-683.138 1967,-669 1929.61,-652.873 1887.7,-631.247 1861.82,-617.465"/>
<polygon fill="midnightblue" stroke="midnightblue" points="1863.2,-614.234 1852.74,-612.595 1859.9,-620.403 1863.2,-614.234"/>
</g>
<!-- Node39&#45;&gt;Node40 -->
<g id="edge121" class="edge"><title>Node39&#45;&gt;Node40</title>
<path fill="none" stroke="midnightblue" d="M2124.23,-705.444C2162.39,-695.903 2224.09,-680.477 2264.85,-670.286"/>
<polygon fill="midnightblue" stroke="midnightblue" points="2265.89,-673.636 2274.74,-667.815 2264.19,-666.845 2265.89,-673.636"/>
</g>
<!-- Node41&#45;&gt;Node9 -->
<g id="edge132" class="edge"><title>Node41&#45;&gt;Node9</title>
<path fill="none" stroke="midnightblue" d="M2452.47,-817.314C2464.76,-809.271 2482.11,-796.269 2493,-781 2510.88,-755.925 2517,-746.795 2517,-716 2517,-716 2517,-716 2517,-546 2517,-403.919 2558.9,-317.178 2443,-235 2386.72,-195.096 2358.91,-215.803 2292,-199 2163.6,-166.758 2133.6,-149.999 2004,-123 1903.28,-102.019 1783.49,-85.7377 1720.24,-77.8077"/>
<polygon fill="midnightblue" stroke="midnightblue" points="1720.57,-74.3218 1710.21,-76.5616 1719.7,-81.2683 1720.57,-74.3218"/>
</g>
<!-- Node41&#45;&gt;Node10 -->
<g id="edge133" class="edge"><title>Node41&#45;&gt;Node10</title>
<path fill="none" stroke="midnightblue" d="M2469.78,-817.362C2489.76,-810.465 2514.73,-798.932 2531,-781 2551.69,-758.195 2555,-746.795 2555,-716 2555,-716 2555,-716 2555,-602 2555,-441.901 2610,-406.099 2610,-246 2610,-246 2610,-246 2610,-188 2610,-100.547 2290.84,-78.5819 2186.54,-73.7387"/>
<polygon fill="midnightblue" stroke="midnightblue" points="2186.45,-70.2311 2176.3,-73.2867 2186.14,-77.2243 2186.45,-70.2311"/>
</g>
<!-- Node41&#45;&gt;Node11 -->
<g id="edge135" class="edge"><title>Node41&#45;&gt;Node11</title>
<path fill="none" stroke="midnightblue" d="M2443.7,-817.288C2454.97,-799.205 2479,-755.946 2479,-716 2479,-716 2479,-716 2479,-658 2479,-326.071 2225.03,-270.646 1906,-179 1769.75,-139.86 1732.52,-141.718 1592,-123 1387.31,-95.7336 1139.23,-79.4523 1053.17,-74.2931"/>
<polygon fill="midnightblue" stroke="midnightblue" points="1053.23,-70.7902 1043.04,-73.6922 1052.81,-77.7779 1053.23,-70.7902"/>
</g>
<!-- Node41&#45;&gt;Node22 -->
<g id="edge134" class="edge"><title>Node41&#45;&gt;Node22</title>
<path fill="none" stroke="midnightblue" d="M2435.15,-817.438C2425.81,-790.352 2393.99,-705.021 2346,-649 2231.2,-514.996 2174.96,-508.581 2026,-414 1750.49,-239.072 1340.92,-199.786 1221.69,-191.848"/>
<polygon fill="midnightblue" stroke="midnightblue" points="1221.9,-188.355 1211.7,-191.212 1221.46,-195.34 1221.9,-188.355"/>
</g>
<!-- Node41&#45;&gt;Node38 -->
<g id="edge131" class="edge"><title>Node41&#45;&gt;Node38</title>
<path fill="none" stroke="midnightblue" d="M2396.43,-818.206C2344.52,-808.472 2255.78,-791.834 2200.15,-781.403"/>
<polygon fill="midnightblue" stroke="midnightblue" points="2200.64,-777.934 2190.16,-779.531 2199.35,-784.814 2200.64,-777.934"/>
</g>
</g>
</svg>
