<?xml version="1.0" encoding="UTF-8" standalone="no"?>
<!DOCTYPE svg PUBLIC "-//W3C//DTD SVG 1.1//EN"
 "http://www.w3.org/Graphics/SVG/1.1/DTD/svg11.dtd">
<!-- Generated by graphviz version 2.38.0 (20140413.2041)
 -->
<!-- Title: topi/include/topi/nn.h Pages: 1 -->
<svg width="3272pt" height="1136pt"
 viewBox="0.00 0.00 3272.11 1136.00" xmlns="http://www.w3.org/2000/svg" xmlns:xlink="http://www.w3.org/1999/xlink">
<g id="graph0" class="graph" transform="scale(1 1) rotate(0) translate(4 1132)">
<title>topi/include/topi/nn.h</title>
<polygon fill="white" stroke="none" points="-4,4 -4,-1132 3268.11,-1132 3268.11,4 -4,4"/>
<!-- Node1 -->
<g id="node1" class="node"><title>Node1</title>
<polygon fill="#bfbfbf" stroke="black" points="1098,-1108.5 1098,-1127.5 1214,-1127.5 1214,-1108.5 1098,-1108.5"/>
<text text-anchor="middle" x="1156" y="-1115.5" font-family="Helvetica,sans-Serif" font-size="10.00">topi/include/topi/nn.h</text>
</g>
<!-- Node2 -->
<g id="node2" class="node"><title>Node2</title>
<g id="a_node2"><a xlink:href="tags_8h.html" target="_top" xlink:title="External function interface to rocBLAS libraries. ">
<polygon fill="white" stroke="black" points="28,-593.5 28,-612.5 96,-612.5 96,-593.5 28,-593.5"/>
<text text-anchor="middle" x="62" y="-600.5" font-family="Helvetica,sans-Serif" font-size="10.00">topi/tags.h</text>
</a>
</g>
</g>
<!-- Node1&#45;&gt;Node2 -->
<g id="edge1" class="edge"><title>Node1&#45;&gt;Node2</title>
<path fill="none" stroke="midnightblue" d="M1097.71,-1116.59C874.427,-1114.24 86,-1098.7 86,-996 86,-996 86,-996 86,-714 86,-681.059 75.5991,-643.818 68.4913,-622.214"/>
<polygon fill="midnightblue" stroke="midnightblue" points="71.7849,-621.028 65.2367,-612.699 65.1616,-623.294 71.7849,-621.028"/>
</g>
<!-- Node3 -->
<g id="node3" class="node"><title>Node3</title>
<polygon fill="white" stroke="#bfbfbf" points="501,-62 501,-81 545,-81 545,-62 501,-62"/>
<text text-anchor="middle" x="523" y="-69" font-family="Helvetica,sans-Serif" font-size="10.00">string</text>
</g>
<!-- Node1&#45;&gt;Node3 -->
<g id="edge194" class="edge"><title>Node1&#45;&gt;Node3</title>
<path fill="none" stroke="midnightblue" d="M1097.99,-1117.47C912.574,-1118.49 335.999,-1117.8 156,-1072 81.2579,-1052.98 0,-1073.12 0,-996 0,-996 0,-996 0,-193.5 0,-144.76 39.2299,-142.266 84,-123 157.398,-91.4137 402.023,-77.7942 490.615,-73.8161"/>
<polygon fill="midnightblue" stroke="midnightblue" points="491.025,-77.3016 500.862,-73.3681 490.719,-70.3083 491.025,-77.3016"/>
</g>
<!-- Node4 -->
<g id="node4" class="node"><title>Node4</title>
<g id="a_node4"><a xlink:href="constant__utils_8h.html" target="_top" xlink:title="Utility functions for handling constants in TVM expressions. ">
<polygon fill="white" stroke="black" points="949.5,-1041.5 949.5,-1071.5 1058.5,-1071.5 1058.5,-1041.5 949.5,-1041.5"/>
<text text-anchor="start" x="957.5" y="-1059.5" font-family="Helvetica,sans-Serif" font-size="10.00">topi/detail/constant</text>
<text text-anchor="middle" x="1004" y="-1048.5" font-family="Helvetica,sans-Serif" font-size="10.00">_utils.h</text>
</a>
</g>
</g>
<!-- Node1&#45;&gt;Node4 -->
<g id="edge3" class="edge"><title>Node1&#45;&gt;Node4</title>
<path fill="none" stroke="midnightblue" d="M1134.22,-1108.48C1112.19,-1099.85 1077.48,-1086.26 1049.43,-1075.29"/>
<polygon fill="midnightblue" stroke="midnightblue" points="1050.41,-1071.91 1039.82,-1071.52 1047.86,-1078.43 1050.41,-1071.91"/>
</g>
<!-- Node5 -->
<g id="node5" class="node"><title>Node5</title>
<g id="a_node5"><a xlink:href="tir_2expr_8h.html" target="_top" xlink:title="TIR expressions. ">
<polygon fill="white" stroke="black" points="1536,-649.5 1536,-668.5 1616,-668.5 1616,-649.5 1536,-649.5"/>
<text text-anchor="middle" x="1576" y="-656.5" font-family="Helvetica,sans-Serif" font-size="10.00">tvm/tir/expr.h</text>
</a>
</g>
</g>
<!-- Node1&#45;&gt;Node5 -->
<g id="edge173" class="edge"><title>Node1&#45;&gt;Node5</title>
<path fill="none" stroke="midnightblue" d="M1214.13,-1116.44C1534.66,-1113.01 3072,-1091.54 3072,-996 3072,-996 3072,-996 3072,-770 3072,-732.915 1887,-674.71 1626.32,-662.354"/>
<polygon fill="midnightblue" stroke="midnightblue" points="1626.17,-658.843 1616.01,-661.867 1625.84,-665.835 1626.17,-658.843"/>
</g>
<!-- Node34 -->
<g id="node34" class="node"><title>Node34</title>
<polygon fill="white" stroke="#bfbfbf" points="2984,-537.5 2984,-556.5 3046,-556.5 3046,-537.5 2984,-537.5"/>
<text text-anchor="middle" x="3015" y="-544.5" font-family="Helvetica,sans-Serif" font-size="10.00">algorithm</text>
</g>
<!-- Node1&#45;&gt;Node34 -->
<g id="edge193" class="edge"><title>Node1&#45;&gt;Node34</title>
<path fill="none" stroke="midnightblue" d="M1214.21,-1116.69C1468.29,-1115.16 2481.59,-1106.92 2798,-1072 2973.53,-1052.63 3188,-1172.59 3188,-996 3188,-996 3188,-996 3188,-770 3188,-673.344 3084.71,-593.511 3037.75,-562.213"/>
<polygon fill="midnightblue" stroke="midnightblue" points="3039.45,-559.14 3029.16,-556.61 3035.62,-565.004 3039.45,-559.14"/>
</g>
<!-- Node35 -->
<g id="node35" class="node"><title>Node35</title>
<g id="a_node35"><a xlink:href="ir__pass_8h.html" target="_top" xlink:title="Collection of IR pass functions. ">
<polygon fill="white" stroke="black" points="957,-985.5 957,-1004.5 1051,-1004.5 1051,-985.5 957,-985.5"/>
<text text-anchor="middle" x="1004" y="-992.5" font-family="Helvetica,sans-Serif" font-size="10.00">tvm/tir/ir_pass.h</text>
</a>
</g>
</g>
<!-- Node1&#45;&gt;Node35 -->
<g id="edge174" class="edge"><title>Node1&#45;&gt;Node35</title>
<path fill="none" stroke="midnightblue" d="M1146.35,-1108.28C1130.27,-1093.85 1096.77,-1064.28 1067,-1041 1053.37,-1030.34 1037.51,-1019.02 1025.12,-1010.4"/>
<polygon fill="midnightblue" stroke="midnightblue" points="1027,-1007.45 1016.79,-1004.65 1023.03,-1013.21 1027,-1007.45"/>
</g>
<!-- Node41 -->
<g id="node41" class="node"><title>Node41</title>
<g id="a_node41"><a xlink:href="tir_2op_8h.html" target="_top" xlink:title="Common operators defined for Expr. ">
<polygon fill="white" stroke="black" points="2534,-761.5 2534,-780.5 2606,-780.5 2606,-761.5 2534,-761.5"/>
<text text-anchor="middle" x="2570" y="-768.5" font-family="Helvetica,sans-Serif" font-size="10.00">tvm/tir/op.h</text>
</a>
</g>
</g>
<!-- Node1&#45;&gt;Node41 -->
<g id="edge175" class="edge"><title>Node1&#45;&gt;Node41</title>
<path fill="none" stroke="midnightblue" d="M1214.02,-1116.25C1429.85,-1112.7 2174,-1093.39 2174,-996 2174,-996 2174,-996 2174,-882 2174,-810.17 2418.94,-783.286 2523.54,-775.079"/>
<polygon fill="midnightblue" stroke="midnightblue" points="2524.1,-778.547 2533.81,-774.299 2523.57,-771.567 2524.1,-778.547"/>
</g>
<!-- Node49 -->
<g id="node49" class="node"><title>Node49</title>
<g id="a_node49"><a xlink:href="operation_8h.html" target="_top" xlink:title="Operation node can generate one or multiple Tensors. ">
<polygon fill="white" stroke="black" points="1198,-985.5 1198,-1004.5 1304,-1004.5 1304,-985.5 1198,-985.5"/>
<text text-anchor="middle" x="1251" y="-992.5" font-family="Helvetica,sans-Serif" font-size="10.00">tvm/te/operation.h</text>
</a>
</g>
</g>
<!-- Node1&#45;&gt;Node49 -->
<g id="edge176" class="edge"><title>Node1&#45;&gt;Node49</title>
<path fill="none" stroke="midnightblue" d="M1162.83,-1108.3C1178.51,-1088.33 1217.3,-1038.92 1237.81,-1012.8"/>
<polygon fill="midnightblue" stroke="midnightblue" points="1240.81,-1014.65 1244.23,-1004.62 1235.3,-1010.33 1240.81,-1014.65"/>
</g>
<!-- Node2&#45;&gt;Node3 -->
<g id="edge2" class="edge"><title>Node2&#45;&gt;Node3</title>
<path fill="none" stroke="midnightblue" d="M63.5688,-593.477C66.8215,-575.038 74,-530.037 74,-492 74,-492 74,-492 74,-193.5 74,-158.318 81.1666,-143.16 110,-123 171.385,-80.081 404.339,-73.558 490.61,-72.6284"/>
<polygon fill="midnightblue" stroke="midnightblue" points="490.882,-76.1263 500.85,-72.5375 490.819,-69.1265 490.882,-76.1263"/>
</g>
<!-- Node4&#45;&gt;Node3 -->
<g id="edge171" class="edge"><title>Node4&#45;&gt;Node3</title>
<path fill="none" stroke="midnightblue" d="M949.285,-1054.1C757.027,-1048.49 124,-1023.64 124,-940 124,-940 124,-940 124,-193.5 124,-152.926 146.682,-142.974 182,-123 234.506,-93.3054 415.765,-79.063 490.447,-74.35"/>
<polygon fill="midnightblue" stroke="midnightblue" points="490.898,-77.8291 500.665,-73.7231 490.469,-70.8422 490.898,-77.8291"/>
</g>
<!-- Node4&#45;&gt;Node5 -->
<g id="edge4" class="edge"><title>Node4&#45;&gt;Node5</title>
<path fill="none" stroke="midnightblue" d="M1058.79,-1054.2C1252.86,-1048.88 1896,-1024.86 1896,-940 1896,-940 1896,-940 1896,-770 1896,-713.646 1716.27,-679.977 1626.2,-666.643"/>
<polygon fill="midnightblue" stroke="midnightblue" points="1626.6,-663.165 1616.2,-665.192 1625.6,-670.092 1626.6,-663.165"/>
</g>
<!-- Node20 -->
<g id="node20" class="node"><title>Node20</title>
<polygon fill="white" stroke="#bfbfbf" points="1126.5,-123.5 1126.5,-142.5 1173.5,-142.5 1173.5,-123.5 1126.5,-123.5"/>
<text text-anchor="middle" x="1150" y="-130.5" font-family="Helvetica,sans-Serif" font-size="10.00">vector</text>
</g>
<!-- Node4&#45;&gt;Node20 -->
<g id="edge172" class="edge"><title>Node4&#45;&gt;Node20</title>
<path fill="none" stroke="midnightblue" d="M949.375,-1052.18C779.222,-1041.3 267.208,-1004.19 219,-949 213.152,-942.305 216.017,-937.373 219,-929 221.256,-922.667 825.144,-182.301 831,-179 879.314,-151.768 1044.22,-139.722 1116.07,-135.677"/>
<polygon fill="midnightblue" stroke="midnightblue" points="1116.58,-139.154 1126.37,-135.116 1116.2,-132.165 1116.58,-139.154"/>
</g>
<!-- Node4&#45;&gt;Node35 -->
<g id="edge106" class="edge"><title>Node4&#45;&gt;Node35</title>
<path fill="none" stroke="midnightblue" d="M1004,-1041.4C1004,-1033.47 1004,-1023.46 1004,-1014.86"/>
<polygon fill="midnightblue" stroke="midnightblue" points="1007.5,-1014.66 1004,-1004.66 1000.5,-1014.66 1007.5,-1014.66"/>
</g>
<!-- Node5&#45;&gt;Node3 -->
<g id="edge100" class="edge"><title>Node5&#45;&gt;Node3</title>
<path fill="none" stroke="midnightblue" d="M1535.9,-654.782C1418.47,-643.729 1068.79,-599.039 832,-445 710.017,-365.645 692.222,-325.733 604,-210 573.468,-169.947 545.456,-117.448 531.779,-90.3722"/>
<polygon fill="midnightblue" stroke="midnightblue" points="534.859,-88.7056 527.264,-81.319 528.595,-91.8298 534.859,-88.7056"/>
</g>
<!-- Node6 -->
<g id="node6" class="node"><title>Node6</title>
<g id="a_node6"><a xlink:href="node_8h.html" target="_top" xlink:title="Definitions and helper macros for IR/AST nodes. ">
<polygon fill="white" stroke="black" points="1994,-425.5 1994,-444.5 2092,-444.5 2092,-425.5 1994,-425.5"/>
<text text-anchor="middle" x="2043" y="-432.5" font-family="Helvetica,sans-Serif" font-size="10.00">tvm/node/node.h</text>
</a>
</g>
</g>
<!-- Node5&#45;&gt;Node6 -->
<g id="edge5" class="edge"><title>Node5&#45;&gt;Node6</title>
<path fill="none" stroke="midnightblue" d="M1616.3,-649.659C1648.86,-642.185 1695.43,-629.806 1734,-613 1837.84,-567.751 1852.7,-535.486 1952,-481 1972.96,-469.501 1997.25,-457.556 2015.46,-448.865"/>
<polygon fill="midnightblue" stroke="midnightblue" points="2017.1,-451.961 2024.64,-444.515 2014.1,-445.636 2017.1,-451.961"/>
</g>
<!-- Node7 -->
<g id="node7" class="node"><title>Node7</title>
<g id="a_node7"><a xlink:href="c__runtime__api_8h.html" target="_top" xlink:title="tvm/runtime/c_runtime\l_api.h">
<polygon fill="white" stroke="black" points="2726.5,-56.5 2726.5,-86.5 2853.5,-86.5 2853.5,-56.5 2726.5,-56.5"/>
<text text-anchor="start" x="2734.5" y="-74.5" font-family="Helvetica,sans-Serif" font-size="10.00">tvm/runtime/c_runtime</text>
<text text-anchor="middle" x="2790" y="-63.5" font-family="Helvetica,sans-Serif" font-size="10.00">_api.h</text>
</a>
</g>
</g>
<!-- Node5&#45;&gt;Node7 -->
<g id="edge79" class="edge"><title>Node5&#45;&gt;Node7</title>
<path fill="none" stroke="midnightblue" d="M1616.08,-656.572C1789.49,-650.341 2470.82,-625.288 2566,-613 2683.66,-597.81 2718.03,-603.908 2827,-557 3043.39,-463.855 3264,-492.584 3264,-257 3264,-257 3264,-257 3264,-193.5 3264,-160.401 3265.79,-143.741 3240,-123 3211.35,-99.9639 2984.33,-83.6308 2864.12,-76.5036"/>
<polygon fill="midnightblue" stroke="midnightblue" points="2864.07,-72.9952 2853.88,-75.904 2863.66,-79.9832 2864.07,-72.9952"/>
</g>
<!-- Node14 -->
<g id="node14" class="node"><title>Node14</title>
<polygon fill="white" stroke="#bfbfbf" points="1748,-62 1748,-81 1790,-81 1790,-62 1748,-62"/>
<text text-anchor="middle" x="1769" y="-69" font-family="Helvetica,sans-Serif" font-size="10.00">utility</text>
</g>
<!-- Node5&#45;&gt;Node14 -->
<g id="edge105" class="edge"><title>Node5&#45;&gt;Node14</title>
<path fill="none" stroke="midnightblue" d="M1558.25,-649.398C1542.97,-641.408 1520.93,-628.438 1505,-613 1440.2,-550.201 1419.9,-530.482 1391,-445 1362.64,-361.108 1345.37,-327.071 1381,-246 1442.31,-106.519 1657.13,-79.1691 1737.94,-73.8072"/>
<polygon fill="midnightblue" stroke="midnightblue" points="1738.22,-77.2972 1747.99,-73.2098 1737.8,-70.3095 1738.22,-77.2972"/>
</g>
<!-- Node19 -->
<g id="node19" class="node"><title>Node19</title>
<g id="a_node19"><a xlink:href="data__type_8h.html" target="_top" xlink:title="tvm/runtime/data_type.h">
<polygon fill="white" stroke="black" points="2492,-123.5 2492,-142.5 2628,-142.5 2628,-123.5 2492,-123.5"/>
<text text-anchor="middle" x="2560" y="-130.5" font-family="Helvetica,sans-Serif" font-size="10.00">tvm/runtime/data_type.h</text>
</a>
</g>
</g>
<!-- Node5&#45;&gt;Node19 -->
<g id="edge80" class="edge"><title>Node5&#45;&gt;Node19</title>
<path fill="none" stroke="midnightblue" d="M1616.13,-651.22C1771.06,-624.926 2325.28,-529.733 2400,-501 2532.13,-450.189 2573.8,-401.434 2615,-266 2620.77,-247.021 2624.51,-206.705 2611,-179 2604.93,-166.562 2593.74,-156.082 2583.37,-148.373"/>
<polygon fill="midnightblue" stroke="midnightblue" points="2585.21,-145.388 2575,-142.568 2581.22,-151.141 2585.21,-145.388"/>
</g>
<!-- Node21 -->
<g id="node21" class="node"><title>Node21</title>
<polygon fill="white" stroke="#bfbfbf" points="3015,-123.5 3015,-142.5 3057,-142.5 3057,-123.5 3015,-123.5"/>
<text text-anchor="middle" x="3036" y="-130.5" font-family="Helvetica,sans-Serif" font-size="10.00">limits</text>
</g>
<!-- Node5&#45;&gt;Node21 -->
<g id="edge104" class="edge"><title>Node5&#45;&gt;Node21</title>
<path fill="none" stroke="midnightblue" d="M1616.3,-656.857C1816.5,-650.891 2698.42,-621.119 2801,-557 2877.04,-509.468 2967.98,-290.743 3007,-210 3016.29,-190.784 3024.71,-167.77 3030.06,-152.139"/>
<polygon fill="midnightblue" stroke="midnightblue" points="3033.39,-153.228 3033.24,-142.635 3026.75,-151.006 3033.39,-153.228"/>
</g>
<!-- Node24 -->
<g id="node24" class="node"><title>Node24</title>
<g id="a_node24"><a xlink:href="functor_8h.html" target="_top" xlink:title="Defines the Functor data structures. ">
<polygon fill="white" stroke="black" points="1901.5,-185 1901.5,-204 2008.5,-204 2008.5,-185 1901.5,-185"/>
<text text-anchor="middle" x="1955" y="-192" font-family="Helvetica,sans-Serif" font-size="10.00">tvm/node/functor.h</text>
</a>
</g>
</g>
<!-- Node5&#45;&gt;Node24 -->
<g id="edge78" class="edge"><title>Node5&#45;&gt;Node24</title>
<path fill="none" stroke="midnightblue" d="M1586.94,-649.206C1614.03,-626.377 1682,-562.097 1682,-492 1682,-492 1682,-492 1682,-434 1682,-309.576 1844.82,-235.088 1918.97,-207.615"/>
<polygon fill="midnightblue" stroke="midnightblue" points="1920.61,-210.744 1928.82,-204.05 1918.23,-204.162 1920.61,-210.744"/>
</g>
<!-- Node25 -->
<g id="node25" class="node"><title>Node25</title>
<g id="a_node25"><a xlink:href="node_2container_8h.html" target="_top" xlink:title="Array/Map container in the DSL graph. ">
<polygon fill="white" stroke="black" points="1496.5,-246.5 1496.5,-265.5 1615.5,-265.5 1615.5,-246.5 1496.5,-246.5"/>
<text text-anchor="middle" x="1556" y="-253.5" font-family="Helvetica,sans-Serif" font-size="10.00">tvm/node/container.h</text>
</a>
</g>
</g>
<!-- Node5&#45;&gt;Node25 -->
<g id="edge77" class="edge"><title>Node5&#45;&gt;Node25</title>
<path fill="none" stroke="midnightblue" d="M1562.88,-649.463C1539.25,-632.943 1492,-594.135 1492,-548 1492,-548 1492,-548 1492,-378 1492,-336.461 1521.84,-295.235 1540.77,-273.261"/>
<polygon fill="midnightblue" stroke="midnightblue" points="1543.58,-275.363 1547.63,-265.573 1538.36,-270.7 1543.58,-275.363"/>
</g>
<!-- Node27 -->
<g id="node27" class="node"><title>Node27</title>
<polygon fill="white" stroke="#bfbfbf" points="880.5,-185 880.5,-204 973.5,-204 973.5,-185 880.5,-185"/>
<text text-anchor="middle" x="927" y="-192" font-family="Helvetica,sans-Serif" font-size="10.00">unordered_map</text>
</g>
<!-- Node5&#45;&gt;Node27 -->
<g id="edge102" class="edge"><title>Node5&#45;&gt;Node27</title>
<path fill="none" stroke="midnightblue" d="M1535.81,-652.093C1499.54,-645.734 1445.39,-633.643 1402,-613 1224.61,-528.607 1200.14,-470.663 1060,-333 1016.17,-289.948 966.241,-237.321 941.91,-211.435"/>
<polygon fill="midnightblue" stroke="midnightblue" points="944.344,-208.915 934.949,-204.016 939.239,-213.704 944.344,-208.915"/>
</g>
<!-- Node30 -->
<g id="node30" class="node"><title>Node30</title>
<polygon fill="white" stroke="#bfbfbf" points="1786.5,-308 1786.5,-327 1845.5,-327 1845.5,-308 1786.5,-308"/>
<text text-anchor="middle" x="1816" y="-315" font-family="Helvetica,sans-Serif" font-size="10.00">iostream</text>
</g>
<!-- Node5&#45;&gt;Node30 -->
<g id="edge103" class="edge"><title>Node5&#45;&gt;Node30</title>
<path fill="none" stroke="midnightblue" d="M1597.98,-649.367C1615.59,-641.688 1640.22,-629.174 1658,-613 1747.37,-531.681 1795.9,-387.781 1810.89,-336.928"/>
<polygon fill="midnightblue" stroke="midnightblue" points="1814.33,-337.631 1813.72,-327.054 1807.6,-335.703 1814.33,-337.631"/>
</g>
<!-- Node31 -->
<g id="node31" class="node"><title>Node31</title>
<g id="a_node31"><a xlink:href="ir_2expr_8h.html" target="_top" xlink:title="Base expr nodes in TVM. ">
<polygon fill="white" stroke="black" points="1972.5,-593.5 1972.5,-612.5 2049.5,-612.5 2049.5,-593.5 1972.5,-593.5"/>
<text text-anchor="middle" x="2011" y="-600.5" font-family="Helvetica,sans-Serif" font-size="10.00">tvm/ir/expr.h</text>
</a>
</g>
</g>
<!-- Node5&#45;&gt;Node31 -->
<g id="edge81" class="edge"><title>Node5&#45;&gt;Node31</title>
<path fill="none" stroke="midnightblue" d="M1616.07,-651.067C1620.76,-650.331 1625.48,-649.624 1630,-649 1775.27,-628.937 1812.76,-633.285 1958,-613 1959.3,-612.818 1960.62,-612.63 1961.95,-612.435"/>
<polygon fill="midnightblue" stroke="midnightblue" points="1962.9,-615.829 1972.25,-610.85 1961.84,-608.911 1962.9,-615.829"/>
</g>
<!-- Node5&#45;&gt;Node34 -->
<g id="edge101" class="edge"><title>Node5&#45;&gt;Node34</title>
<path fill="none" stroke="midnightblue" d="M1616.3,-656.7C1826.61,-649.894 2789.7,-618.482 2820,-613 2880.92,-601.979 2948.83,-576.042 2986.28,-560.468"/>
<polygon fill="midnightblue" stroke="midnightblue" points="2987.7,-563.666 2995.56,-556.559 2984.98,-557.215 2987.7,-563.666"/>
</g>
<!-- Node6&#45;&gt;Node3 -->
<g id="edge73" class="edge"><title>Node6&#45;&gt;Node3</title>
<path fill="none" stroke="midnightblue" d="M1993.92,-427.477C1943.88,-420.256 1864.27,-407.185 1797,-389 1641.87,-347.064 1589.1,-357.503 1457,-266 1388.32,-218.429 1409.74,-160.335 1335,-123 1264.42,-87.7418 698.517,-75.5609 555.66,-73.0322"/>
<polygon fill="midnightblue" stroke="midnightblue" points="555.432,-69.5278 545.373,-72.8539 555.311,-76.5267 555.432,-69.5278"/>
</g>
<!-- Node6&#45;&gt;Node7 -->
<g id="edge6" class="edge"><title>Node6&#45;&gt;Node7</title>
<path fill="none" stroke="midnightblue" d="M2092.22,-434.129C2174.71,-433.21 2345.44,-426.437 2484,-389 2611.69,-354.5 2663.03,-361.06 2755,-266 2796.15,-223.469 2794.44,-201.04 2806,-143 2809.11,-127.404 2805.22,-109.976 2800.5,-96.3503"/>
<polygon fill="midnightblue" stroke="midnightblue" points="2803.67,-94.853 2796.83,-86.765 2797.14,-97.3554 2803.67,-94.853"/>
</g>
<!-- Node11 -->
<g id="node11" class="node"><title>Node11</title>
<g id="a_node11"><a xlink:href="object_8h.html" target="_top" xlink:title="A managed object in the TVM runtime. ">
<polygon fill="white" stroke="black" points="2122.5,-123.5 2122.5,-142.5 2239.5,-142.5 2239.5,-123.5 2122.5,-123.5"/>
<text text-anchor="middle" x="2181" y="-130.5" font-family="Helvetica,sans-Serif" font-size="10.00">tvm/runtime/object.h</text>
</a>
</g>
</g>
<!-- Node6&#45;&gt;Node11 -->
<g id="edge10" class="edge"><title>Node6&#45;&gt;Node11</title>
<path fill="none" stroke="midnightblue" d="M2092.29,-431.943C2192.52,-427.254 2412.55,-414.18 2435,-389 2440.92,-382.366 2438.32,-377.247 2435,-369 2423.83,-341.227 2267.25,-197.855 2244,-179 2230.56,-168.1 2214.7,-156.781 2202.26,-148.222"/>
<polygon fill="midnightblue" stroke="midnightblue" points="2204.12,-145.257 2193.89,-142.523 2200.18,-151.043 2204.12,-145.257"/>
</g>
<!-- Node13 -->
<g id="node13" class="node"><title>Node13</title>
<polygon fill="white" stroke="#bfbfbf" points="2622,-62 2622,-81 2690,-81 2690,-62 2622,-62"/>
<text text-anchor="middle" x="2656" y="-69" font-family="Helvetica,sans-Serif" font-size="10.00">type_traits</text>
</g>
<!-- Node6&#45;&gt;Node13 -->
<g id="edge76" class="edge"><title>Node6&#45;&gt;Node13</title>
<path fill="none" stroke="midnightblue" d="M2092.23,-432.603C2186.48,-429.273 2388.62,-418.793 2451,-389 2551.11,-341.181 2564.67,-303.112 2625,-210 2642.74,-182.619 2647.96,-174.857 2655,-143 2658.79,-125.836 2658.65,-105.743 2657.79,-91.4089"/>
<polygon fill="midnightblue" stroke="midnightblue" points="2661.27,-91.0136 2657,-81.3139 2654.29,-91.5544 2661.27,-91.0136"/>
</g>
<!-- Node6&#45;&gt;Node14 -->
<g id="edge75" class="edge"><title>Node6&#45;&gt;Node14</title>
<path fill="none" stroke="midnightblue" d="M2037.8,-425.424C2030.09,-412.832 2015.03,-388.699 2001,-369 1922.61,-258.921 1819.51,-133.249 1782.75,-88.9732"/>
<polygon fill="midnightblue" stroke="midnightblue" points="1785.21,-86.461 1776.13,-81.0131 1779.83,-90.9386 1785.21,-86.461"/>
</g>
<!-- Node16 -->
<g id="node16" class="node"><title>Node16</title>
<g id="a_node16"><a xlink:href="runtime_2memory_8h.html" target="_top" xlink:title="Runtime memory management. ">
<polygon fill="white" stroke="red" points="2026.5,-185 2026.5,-204 2153.5,-204 2153.5,-185 2026.5,-185"/>
<text text-anchor="middle" x="2090" y="-192" font-family="Helvetica,sans-Serif" font-size="10.00">tvm/runtime/memory.h</text>
</a>
</g>
</g>
<!-- Node6&#45;&gt;Node16 -->
<g id="edge17" class="edge"><title>Node6&#45;&gt;Node16</title>
<path fill="none" stroke="midnightblue" d="M2092.4,-427.15C2145.4,-416.875 2227.07,-391.926 2265,-333 2303.91,-272.554 2193.84,-227.344 2130.77,-207.15"/>
<polygon fill="midnightblue" stroke="midnightblue" points="2131.68,-203.764 2121.09,-204.125 2129.59,-210.446 2131.68,-203.764"/>
</g>
<!-- Node17 -->
<g id="node17" class="node"><title>Node17</title>
<g id="a_node17"><a xlink:href="reflection_8h.html" target="_top" xlink:title="Reflection and serialization of compiler IR/AST nodes. ">
<polygon fill="white" stroke="red" points="2307.5,-369.5 2307.5,-388.5 2426.5,-388.5 2426.5,-369.5 2307.5,-369.5"/>
<text text-anchor="middle" x="2367" y="-376.5" font-family="Helvetica,sans-Serif" font-size="10.00">tvm/node/reflection.h</text>
</a>
</g>
</g>
<!-- Node6&#45;&gt;Node17 -->
<g id="edge21" class="edge"><title>Node6&#45;&gt;Node17</title>
<path fill="none" stroke="midnightblue" d="M2092.21,-425.799C2149.48,-416.254 2244.07,-400.488 2305.97,-390.172"/>
<polygon fill="midnightblue" stroke="midnightblue" points="2306.7,-393.598 2315.99,-388.502 2305.55,-386.693 2306.7,-393.598"/>
</g>
<!-- Node6&#45;&gt;Node20 -->
<g id="edge74" class="edge"><title>Node6&#45;&gt;Node20</title>
<path fill="none" stroke="midnightblue" d="M1993.94,-427.399C1943.92,-420.116 1864.32,-406.998 1797,-389 1547.67,-322.341 1263.61,-189.208 1176.66,-147.091"/>
<polygon fill="midnightblue" stroke="midnightblue" points="1178.03,-143.862 1167.5,-142.636 1174.97,-150.157 1178.03,-143.862"/>
</g>
<!-- Node23 -->
<g id="node23" class="node"><title>Node23</title>
<g id="a_node23"><a xlink:href="structural__equal_8h.html" target="_top" xlink:title="Structural equality comparison. ">
<polygon fill="white" stroke="black" points="2145.5,-302.5 2145.5,-332.5 2256.5,-332.5 2256.5,-302.5 2145.5,-302.5"/>
<text text-anchor="start" x="2153.5" y="-320.5" font-family="Helvetica,sans-Serif" font-size="10.00">tvm/node/structural</text>
<text text-anchor="middle" x="2201" y="-309.5" font-family="Helvetica,sans-Serif" font-size="10.00">_equal.h</text>
</a>
</g>
</g>
<!-- Node6&#45;&gt;Node23 -->
<g id="edge71" class="edge"><title>Node6&#45;&gt;Node23</title>
<path fill="none" stroke="midnightblue" d="M2054.88,-425.319C2079.88,-407.037 2138.54,-364.16 2173.46,-338.635"/>
<polygon fill="midnightblue" stroke="midnightblue" points="2175.78,-341.272 2181.79,-332.545 2171.65,-335.621 2175.78,-341.272"/>
</g>
<!-- Node6&#45;&gt;Node25 -->
<g id="edge70" class="edge"><title>Node6&#45;&gt;Node25</title>
<path fill="none" stroke="midnightblue" d="M1996.25,-425.468C1957.36,-417.77 1900.85,-405.181 1853,-389 1763.1,-358.598 1744.75,-340.486 1658,-302 1633.37,-291.072 1605.36,-278.722 1584.94,-269.727"/>
<polygon fill="midnightblue" stroke="midnightblue" points="1586.13,-266.428 1575.56,-265.603 1583.31,-272.835 1586.13,-266.428"/>
</g>
<!-- Node28 -->
<g id="node28" class="node"><title>Node28</title>
<g id="a_node28"><a xlink:href="structural__hash_8h.html" target="_top" xlink:title="tvm/node/structural\l_hash.h">
<polygon fill="white" stroke="red" points="2016.5,-302.5 2016.5,-332.5 2127.5,-332.5 2127.5,-302.5 2016.5,-302.5"/>
<text text-anchor="start" x="2024.5" y="-320.5" font-family="Helvetica,sans-Serif" font-size="10.00">tvm/node/structural</text>
<text text-anchor="middle" x="2072" y="-309.5" font-family="Helvetica,sans-Serif" font-size="10.00">_hash.h</text>
</a>
</g>
</g>
<!-- Node6&#45;&gt;Node28 -->
<g id="edge72" class="edge"><title>Node6&#45;&gt;Node28</title>
<path fill="none" stroke="midnightblue" d="M2045.18,-425.319C2049.56,-407.889 2059.55,-368.104 2066.02,-342.313"/>
<polygon fill="midnightblue" stroke="midnightblue" points="2069.43,-343.097 2068.47,-332.545 2062.64,-341.392 2069.43,-343.097"/>
</g>
<!-- Node29 -->
<g id="node29" class="node"><title>Node29</title>
<g id="a_node29"><a xlink:href="repr__printer_8h.html" target="_top" xlink:title="Printer class to print repr string of each AST/IR nodes. ">
<polygon fill="white" stroke="black" points="1862,-369.5 1862,-388.5 1992,-388.5 1992,-369.5 1862,-369.5"/>
<text text-anchor="middle" x="1927" y="-376.5" font-family="Helvetica,sans-Serif" font-size="10.00">tvm/node/repr_printer.h</text>
</a>
</g>
</g>
<!-- Node6&#45;&gt;Node29 -->
<g id="edge67" class="edge"><title>Node6&#45;&gt;Node29</title>
<path fill="none" stroke="midnightblue" d="M2024.62,-425.444C2005.78,-416.675 1976.27,-402.935 1954.62,-392.858"/>
<polygon fill="midnightblue" stroke="midnightblue" points="1955.84,-389.564 1945.29,-388.516 1952.88,-395.91 1955.84,-389.564"/>
</g>
<!-- Node8 -->
<g id="node8" class="node"><title>Node8</title>
<polygon fill="white" stroke="#bfbfbf" points="2655,-0.5 2655,-19.5 2745,-19.5 2745,-0.5 2655,-0.5"/>
<text text-anchor="middle" x="2700" y="-7.5" font-family="Helvetica,sans-Serif" font-size="10.00">dlpack/dlpack.h</text>
</g>
<!-- Node7&#45;&gt;Node8 -->
<g id="edge7" class="edge"><title>Node7&#45;&gt;Node8</title>
<path fill="none" stroke="midnightblue" d="M2768.67,-56.3993C2754.51,-47.0402 2735.99,-34.7924 2721.75,-25.3771"/>
<polygon fill="midnightblue" stroke="midnightblue" points="2723.37,-22.2531 2713.1,-19.6578 2719.51,-28.0923 2723.37,-22.2531"/>
</g>
<!-- Node9 -->
<g id="node9" class="node"><title>Node9</title>
<polygon fill="white" stroke="#bfbfbf" points="2763.5,-0.5 2763.5,-19.5 2816.5,-19.5 2816.5,-0.5 2763.5,-0.5"/>
<text text-anchor="middle" x="2790" y="-7.5" font-family="Helvetica,sans-Serif" font-size="10.00">stdint.h</text>
</g>
<!-- Node7&#45;&gt;Node9 -->
<g id="edge8" class="edge"><title>Node7&#45;&gt;Node9</title>
<path fill="none" stroke="midnightblue" d="M2790,-56.3993C2790,-48.4664 2790,-38.458 2790,-29.8583"/>
<polygon fill="midnightblue" stroke="midnightblue" points="2793.5,-29.6577 2790,-19.6578 2786.5,-29.6578 2793.5,-29.6577"/>
</g>
<!-- Node10 -->
<g id="node10" class="node"><title>Node10</title>
<polygon fill="white" stroke="#bfbfbf" points="2834.5,-0.5 2834.5,-19.5 2889.5,-19.5 2889.5,-0.5 2834.5,-0.5"/>
<text text-anchor="middle" x="2862" y="-7.5" font-family="Helvetica,sans-Serif" font-size="10.00">stddef.h</text>
</g>
<!-- Node7&#45;&gt;Node10 -->
<g id="edge9" class="edge"><title>Node7&#45;&gt;Node10</title>
<path fill="none" stroke="midnightblue" d="M2807.06,-56.3993C2818.06,-47.3076 2832.37,-35.4899 2843.62,-26.1909"/>
<polygon fill="midnightblue" stroke="midnightblue" points="2846.04,-28.726 2851.52,-19.6578 2841.59,-23.33 2846.04,-28.726"/>
</g>
<!-- Node11&#45;&gt;Node3 -->
<g id="edge14" class="edge"><title>Node11&#45;&gt;Node3</title>
<path fill="none" stroke="midnightblue" d="M2122.48,-129.9C1855.56,-120.321 757.899,-80.9297 555.248,-73.6573"/>
<polygon fill="midnightblue" stroke="midnightblue" points="555.359,-70.1591 545.24,-73.2981 555.108,-77.1546 555.359,-70.1591"/>
</g>
<!-- Node11&#45;&gt;Node7 -->
<g id="edge12" class="edge"><title>Node11&#45;&gt;Node7</title>
<path fill="none" stroke="midnightblue" d="M2239.79,-128.264C2336.01,-121.843 2533.03,-107.406 2699,-87 2704.7,-86.2996 2710.58,-85.5108 2716.5,-84.6721"/>
<polygon fill="midnightblue" stroke="midnightblue" points="2717.05,-88.1283 2726.44,-83.2202 2716.04,-81.2017 2717.05,-88.1283"/>
</g>
<!-- Node12 -->
<g id="node12" class="node"><title>Node12</title>
<polygon fill="white" stroke="#bfbfbf" points="2095,-62 2095,-81 2181,-81 2181,-62 2095,-62"/>
<text text-anchor="middle" x="2138" y="-69" font-family="Helvetica,sans-Serif" font-size="10.00">dmlc/logging.h</text>
</g>
<!-- Node11&#45;&gt;Node12 -->
<g id="edge11" class="edge"><title>Node11&#45;&gt;Node12</title>
<path fill="none" stroke="midnightblue" d="M2174.84,-123.475C2168.39,-114.55 2158.1,-100.307 2150.03,-89.1425"/>
<polygon fill="midnightblue" stroke="midnightblue" points="2152.84,-87.064 2144.15,-81.0091 2147.17,-91.1642 2152.84,-87.064"/>
</g>
<!-- Node11&#45;&gt;Node13 -->
<g id="edge13" class="edge"><title>Node11&#45;&gt;Node13</title>
<path fill="none" stroke="midnightblue" d="M2239.72,-124.644C2336.2,-112.559 2526.11,-88.77 2611.99,-78.0131"/>
<polygon fill="midnightblue" stroke="midnightblue" points="2612.44,-81.4834 2621.93,-76.7676 2611.57,-74.5377 2612.44,-81.4834"/>
</g>
<!-- Node11&#45;&gt;Node14 -->
<g id="edge15" class="edge"><title>Node11&#45;&gt;Node14</title>
<path fill="none" stroke="midnightblue" d="M2122.41,-123.538C2033.84,-110.747 1868.93,-86.9311 1800.26,-77.0146"/>
<polygon fill="midnightblue" stroke="midnightblue" points="1800.49,-73.5116 1790.09,-75.5463 1799.49,-80.4397 1800.49,-73.5116"/>
</g>
<!-- Node15 -->
<g id="node15" class="node"><title>Node15</title>
<polygon fill="white" stroke="#bfbfbf" points="2199,-62 2199,-81 2249,-81 2249,-62 2199,-62"/>
<text text-anchor="middle" x="2224" y="-69" font-family="Helvetica,sans-Serif" font-size="10.00">atomic</text>
</g>
<!-- Node11&#45;&gt;Node15 -->
<g id="edge16" class="edge"><title>Node11&#45;&gt;Node15</title>
<path fill="none" stroke="midnightblue" d="M2187.16,-123.475C2193.61,-114.55 2203.9,-100.307 2211.97,-89.1425"/>
<polygon fill="midnightblue" stroke="midnightblue" points="2214.83,-91.1642 2217.85,-81.0091 2209.16,-87.064 2214.83,-91.1642"/>
</g>
<!-- Node16&#45;&gt;Node11 -->
<g id="edge18" class="edge"><title>Node16&#45;&gt;Node11</title>
<path fill="none" stroke="midnightblue" d="M2103.04,-184.975C2117.77,-175.343 2141.97,-159.517 2159.51,-148.052"/>
<polygon fill="midnightblue" stroke="midnightblue" points="2161.53,-150.911 2167.99,-142.509 2157.7,-145.052 2161.53,-150.911"/>
</g>
<!-- Node16&#45;&gt;Node13 -->
<g id="edge20" class="edge"><title>Node16&#45;&gt;Node13</title>
<path fill="none" stroke="midnightblue" d="M2089.99,-184.903C2090.48,-169.707 2093.89,-138.269 2113,-123 2151.63,-92.1352 2488.82,-78.0148 2611.56,-73.8645"/>
<polygon fill="midnightblue" stroke="midnightblue" points="2611.86,-77.3567 2621.74,-73.5268 2611.63,-70.3606 2611.86,-77.3567"/>
</g>
<!-- Node16&#45;&gt;Node14 -->
<g id="edge19" class="edge"><title>Node16&#45;&gt;Node14</title>
<path fill="none" stroke="midnightblue" d="M2067.43,-184.992C2011.08,-163.75 1864.14,-108.362 1799.86,-84.1323"/>
<polygon fill="midnightblue" stroke="midnightblue" points="1800.87,-80.7733 1790.28,-80.5211 1798.4,-87.3234 1800.87,-80.7733"/>
</g>
<!-- Node17&#45;&gt;Node3 -->
<g id="edge65" class="edge"><title>Node17&#45;&gt;Node3</title>
<path fill="none" stroke="midnightblue" d="M2307.47,-374.407C2228.43,-368.943 2084.74,-356.59 1964,-333 1914.15,-323.26 1903.91,-311.405 1854,-302 1692.94,-271.653 1634.19,-338.076 1487,-266 1456.22,-250.93 1455.67,-236.545 1434,-210 1404.13,-173.419 1414.23,-146.026 1373,-123 1300.6,-82.5662 702.098,-74.2161 555.377,-72.7703"/>
<polygon fill="midnightblue" stroke="midnightblue" points="555.258,-69.2692 545.226,-72.6744 555.192,-76.2688 555.258,-69.2692"/>
</g>
<!-- Node17&#45;&gt;Node7 -->
<g id="edge22" class="edge"><title>Node17&#45;&gt;Node7</title>
<path fill="none" stroke="midnightblue" d="M2396.56,-369.431C2422.38,-361.462 2460.56,-348.505 2492,-333 2632.21,-263.865 2711.11,-279.107 2788,-143 2795.82,-129.153 2796.22,-111.208 2794.72,-96.888"/>
<polygon fill="midnightblue" stroke="midnightblue" points="2798.15,-96.1837 2793.29,-86.7724 2791.22,-97.164 2798.15,-96.1837"/>
</g>
<!-- Node17&#45;&gt;Node11 -->
<g id="edge23" class="edge"><title>Node17&#45;&gt;Node11</title>
<path fill="none" stroke="midnightblue" d="M2365.99,-369.444C2363.95,-354.738 2358.33,-324.118 2345,-302 2313.66,-249.994 2286.83,-253.04 2244,-210 2225.2,-191.112 2206,-167.132 2193.82,-151.213"/>
<polygon fill="midnightblue" stroke="midnightblue" points="2196.33,-148.738 2187.51,-142.871 2190.75,-152.959 2196.33,-148.738"/>
</g>
<!-- Node17&#45;&gt;Node13 -->
<g id="edge66" class="edge"><title>Node17&#45;&gt;Node13</title>
<path fill="none" stroke="midnightblue" d="M2386.48,-369.445C2405.06,-361.008 2433.61,-347.33 2457,-333 2476.78,-320.878 2480.13,-315.493 2499,-302 2521.87,-285.652 2530.75,-285.495 2551,-266 2599.05,-219.737 2609.67,-203.847 2637,-143 2644.54,-126.211 2649.64,-105.79 2652.64,-91.2558"/>
<polygon fill="midnightblue" stroke="midnightblue" points="2656.15,-91.5251 2654.6,-81.0441 2649.28,-90.2032 2656.15,-91.5251"/>
</g>
<!-- Node17&#45;&gt;Node16 -->
<g id="edge24" class="edge"><title>Node17&#45;&gt;Node16</title>
<path fill="none" stroke="midnightblue" d="M2362.57,-369.409C2350.02,-345.908 2311.77,-280.047 2261,-246 2240.9,-232.525 2181.59,-216.676 2138.45,-206.377"/>
<polygon fill="midnightblue" stroke="midnightblue" points="2139.22,-202.964 2128.68,-204.076 2137.61,-209.777 2139.22,-202.964"/>
</g>
<!-- Node18 -->
<g id="node18" class="node"><title>Node18</title>
<g id="a_node18"><a xlink:href="packed__func_8h.html" target="_top" xlink:title="Type&#45;erased function used across TVM API. ">
<polygon fill="white" stroke="red" points="2400.5,-179.5 2400.5,-209.5 2513.5,-209.5 2513.5,-179.5 2400.5,-179.5"/>
<text text-anchor="start" x="2408.5" y="-197.5" font-family="Helvetica,sans-Serif" font-size="10.00">tvm/runtime/packed</text>
<text text-anchor="middle" x="2457" y="-186.5" font-family="Helvetica,sans-Serif" font-size="10.00">_func.h</text>
</a>
</g>
</g>
<!-- Node17&#45;&gt;Node18 -->
<g id="edge25" class="edge"><title>Node17&#45;&gt;Node18</title>
<path fill="none" stroke="midnightblue" d="M2371.34,-369.198C2384.67,-342.163 2425.34,-259.7 2445.47,-218.886"/>
<polygon fill="midnightblue" stroke="midnightblue" points="2448.72,-220.211 2450,-209.695 2442.44,-217.115 2448.72,-220.211"/>
</g>
<!-- Node17&#45;&gt;Node19 -->
<g id="edge39" class="edge"><title>Node17&#45;&gt;Node19</title>
<path fill="none" stroke="midnightblue" d="M2377.7,-369.32C2395.13,-355.186 2430.75,-326.332 2461,-302 2512.01,-260.979 2547.65,-268.994 2576,-210 2584.91,-191.457 2577.52,-168.021 2570.09,-152.111"/>
<polygon fill="midnightblue" stroke="midnightblue" points="2573.03,-150.185 2565.37,-142.869 2566.8,-153.367 2573.03,-150.185"/>
</g>
<!-- Node17&#45;&gt;Node20 -->
<g id="edge64" class="edge"><title>Node17&#45;&gt;Node20</title>
<path fill="none" stroke="midnightblue" d="M2307.16,-374.123C2219.36,-367.828 2060.27,-353.938 2007,-333 1985.07,-324.382 1985.36,-311.942 1964,-302 1904.58,-274.344 1883.8,-284.75 1821,-266 1764.43,-249.111 1627.61,-191.894 1570,-179 1428.76,-147.386 1255.66,-137.771 1183.77,-135.025"/>
<polygon fill="midnightblue" stroke="midnightblue" points="1183.64,-131.518 1173.52,-134.655 1183.39,-138.514 1183.64,-131.518"/>
</g>
<!-- Node17&#45;&gt;Node23 -->
<g id="edge40" class="edge"><title>Node17&#45;&gt;Node23</title>
<path fill="none" stroke="midnightblue" d="M2343.22,-369.475C2318.95,-360.776 2280.59,-347.026 2249.82,-335.998"/>
<polygon fill="midnightblue" stroke="midnightblue" points="2250.72,-332.602 2240.12,-332.523 2248.36,-339.192 2250.72,-332.602"/>
</g>
<!-- Node17&#45;&gt;Node28 -->
<g id="edge59" class="edge"><title>Node17&#45;&gt;Node28</title>
<path fill="none" stroke="midnightblue" d="M2320.9,-369.446C2276.4,-361.094 2206.87,-347.794 2137.98,-333.386"/>
<polygon fill="midnightblue" stroke="midnightblue" points="2138.33,-329.884 2127.83,-331.253 2136.89,-336.734 2138.33,-329.884"/>
</g>
<!-- Node18&#45;&gt;Node3 -->
<g id="edge34" class="edge"><title>Node18&#45;&gt;Node3</title>
<path fill="none" stroke="midnightblue" d="M2400.19,-180.947C2365.33,-172.311 2320.2,-159.435 2282,-143 2265.9,-136.071 2264.85,-127.853 2248,-123 2163.56,-98.6724 784.637,-76.5142 555.229,-72.9875"/>
<polygon fill="midnightblue" stroke="midnightblue" points="555.236,-69.4873 545.184,-72.8337 555.129,-76.4865 555.236,-69.4873"/>
</g>
<!-- Node18&#45;&gt;Node7 -->
<g id="edge27" class="edge"><title>Node18&#45;&gt;Node7</title>
<path fill="none" stroke="midnightblue" d="M2458.08,-179.471C2460.11,-163.266 2466,-137.038 2483,-123 2484.13,-122.064 2625.91,-99.0133 2716.37,-84.3816"/>
<polygon fill="midnightblue" stroke="midnightblue" points="2717.01,-87.8246 2726.32,-82.7732 2715.89,-80.9143 2717.01,-87.8246"/>
</g>
<!-- Node18&#45;&gt;Node11 -->
<g id="edge32" class="edge"><title>Node18&#45;&gt;Node11</title>
<path fill="none" stroke="midnightblue" d="M2400.48,-181.316C2350.42,-170.524 2278.07,-154.927 2230.31,-144.631"/>
<polygon fill="midnightblue" stroke="midnightblue" points="2231.03,-141.204 2220.51,-142.518 2229.55,-148.047 2231.03,-141.204"/>
</g>
<!-- Node18&#45;&gt;Node12 -->
<g id="edge26" class="edge"><title>Node18&#45;&gt;Node12</title>
<path fill="none" stroke="midnightblue" d="M2433.44,-179.481C2406.68,-164.012 2361.36,-139.169 2320,-123 2264.16,-101.169 2247.76,-103.052 2190,-87 2186.2,-85.9433 2182.24,-84.842 2178.28,-83.7392"/>
<polygon fill="midnightblue" stroke="midnightblue" points="2179.09,-80.3323 2168.52,-81.0198 2177.21,-87.0754 2179.09,-80.3323"/>
</g>
<!-- Node18&#45;&gt;Node13 -->
<g id="edge38" class="edge"><title>Node18&#45;&gt;Node13</title>
<path fill="none" stroke="midnightblue" d="M2450.34,-179.443C2444.08,-163.939 2437.4,-139.064 2450,-123 2469.7,-97.8915 2557.16,-83.6331 2611.59,-77.0425"/>
<polygon fill="midnightblue" stroke="midnightblue" points="2612.15,-80.5009 2621.67,-75.8629 2611.34,-73.5483 2612.15,-80.5009"/>
</g>
<!-- Node18&#45;&gt;Node14 -->
<g id="edge37" class="edge"><title>Node18&#45;&gt;Node14</title>
<path fill="none" stroke="midnightblue" d="M2414.46,-179.436C2387.11,-170.003 2351.03,-156.814 2320,-143 2302.56,-135.238 2300.28,-128.481 2282,-123 2190.8,-95.6562 1896.82,-78.8801 1800.14,-73.9944"/>
<polygon fill="midnightblue" stroke="midnightblue" points="1800.28,-70.4972 1790.12,-73.4951 1799.93,-77.4885 1800.28,-70.4972"/>
</g>
<!-- Node18&#45;&gt;Node19 -->
<g id="edge28" class="edge"><title>Node18&#45;&gt;Node19</title>
<path fill="none" stroke="midnightblue" d="M2481.41,-179.399C2497.92,-169.862 2519.62,-157.325 2536.04,-147.842"/>
<polygon fill="midnightblue" stroke="midnightblue" points="2538.1,-150.691 2545.01,-142.658 2534.6,-144.629 2538.1,-150.691"/>
</g>
<!-- Node18&#45;&gt;Node20 -->
<g id="edge33" class="edge"><title>Node18&#45;&gt;Node20</title>
<path fill="none" stroke="midnightblue" d="M2400.45,-190.642C2341.07,-187.659 2244.98,-182.884 2162,-179 1777.92,-161.022 1311.77,-140.93 1183.85,-135.448"/>
<polygon fill="midnightblue" stroke="midnightblue" points="1183.68,-131.937 1173.54,-135.006 1183.38,-138.931 1183.68,-131.937"/>
</g>
<!-- Node18&#45;&gt;Node21 -->
<g id="edge35" class="edge"><title>Node18&#45;&gt;Node21</title>
<path fill="none" stroke="midnightblue" d="M2513.57,-187.687C2633.73,-175.338 2911.06,-146.839 3004.57,-137.23"/>
<polygon fill="midnightblue" stroke="midnightblue" points="3005.2,-140.684 3014.79,-136.18 3004.48,-133.721 3005.2,-140.684"/>
</g>
<!-- Node22 -->
<g id="node22" class="node"><title>Node22</title>
<polygon fill="white" stroke="#bfbfbf" points="2722.5,-123.5 2722.5,-142.5 2779.5,-142.5 2779.5,-123.5 2722.5,-123.5"/>
<text text-anchor="middle" x="2751" y="-130.5" font-family="Helvetica,sans-Serif" font-size="10.00">memory</text>
</g>
<!-- Node18&#45;&gt;Node22 -->
<g id="edge36" class="edge"><title>Node18&#45;&gt;Node22</title>
<path fill="none" stroke="midnightblue" d="M2513.69,-182.028C2572.07,-170.212 2661.49,-152.116 2712.25,-141.841"/>
<polygon fill="midnightblue" stroke="midnightblue" points="2713.07,-145.248 2722.17,-139.834 2711.68,-138.387 2713.07,-145.248"/>
</g>
<!-- Node19&#45;&gt;Node7 -->
<g id="edge29" class="edge"><title>Node19&#45;&gt;Node7</title>
<path fill="none" stroke="midnightblue" d="M2592.95,-123.475C2627.52,-114.532 2682.74,-100.249 2725.93,-89.0738"/>
<polygon fill="midnightblue" stroke="midnightblue" points="2726.99,-92.416 2735.79,-86.523 2725.24,-85.6391 2726.99,-92.416"/>
</g>
<!-- Node19&#45;&gt;Node12 -->
<g id="edge30" class="edge"><title>Node19&#45;&gt;Node12</title>
<path fill="none" stroke="midnightblue" d="M2492,-126.827C2417.4,-120.436 2294.4,-107.781 2190,-87 2185.25,-86.0549 2180.3,-84.9008 2175.43,-83.6605"/>
<polygon fill="midnightblue" stroke="midnightblue" points="2176.17,-80.2375 2165.61,-81.0331 2174.36,-86.9996 2176.17,-80.2375"/>
</g>
<!-- Node19&#45;&gt;Node13 -->
<g id="edge31" class="edge"><title>Node19&#45;&gt;Node13</title>
<path fill="none" stroke="midnightblue" d="M2573.75,-123.475C2589.37,-113.799 2615.06,-97.8721 2633.58,-86.3941"/>
<polygon fill="midnightblue" stroke="midnightblue" points="2635.62,-89.2522 2642.27,-81.0091 2631.93,-83.3023 2635.62,-89.2522"/>
</g>
<!-- Node23&#45;&gt;Node3 -->
<g id="edge58" class="edge"><title>Node23&#45;&gt;Node3</title>
<path fill="none" stroke="midnightblue" d="M2161.29,-302.415C2054.66,-265.305 1752.46,-164.832 1492,-123 1305.4,-93.0294 701.468,-76.8004 555.148,-73.2491"/>
<polygon fill="midnightblue" stroke="midnightblue" points="555.117,-69.7474 545.036,-73.0063 554.949,-76.7454 555.117,-69.7474"/>
</g>
<!-- Node23&#45;&gt;Node19 -->
<g id="edge41" class="edge"><title>Node23&#45;&gt;Node19</title>
<path fill="none" stroke="midnightblue" d="M2256.73,-307.708C2347,-292.235 2518.88,-257.244 2556,-210 2568.6,-193.961 2567.46,-169.629 2564.57,-152.839"/>
<polygon fill="midnightblue" stroke="midnightblue" points="2567.9,-151.687 2562.43,-142.614 2561.05,-153.118 2567.9,-151.687"/>
</g>
<!-- Node23&#45;&gt;Node24 -->
<g id="edge42" class="edge"><title>Node23&#45;&gt;Node24</title>
<path fill="none" stroke="midnightblue" d="M2172.3,-302.383C2124.26,-278.753 2028.26,-231.532 1981.63,-208.6"/>
<polygon fill="midnightblue" stroke="midnightblue" points="1982.99,-205.365 1972.47,-204.092 1979.9,-211.647 1982.99,-205.365"/>
</g>
<!-- Node23&#45;&gt;Node25 -->
<g id="edge48" class="edge"><title>Node23&#45;&gt;Node25</title>
<path fill="none" stroke="midnightblue" d="M2145.43,-303.558C2142.25,-302.987 2139.09,-302.462 2136,-302 1953.11,-274.648 1735.15,-263.402 1625.83,-259.215"/>
<polygon fill="midnightblue" stroke="midnightblue" points="1625.72,-255.709 1615.6,-258.832 1625.46,-262.704 1625.72,-255.709"/>
</g>
<!-- Node24&#45;&gt;Node11 -->
<g id="edge44" class="edge"><title>Node24&#45;&gt;Node11</title>
<path fill="none" stroke="midnightblue" d="M1987.38,-184.975C2027.24,-174.482 2095.02,-156.637 2138.89,-145.087"/>
<polygon fill="midnightblue" stroke="midnightblue" points="2139.9,-148.44 2148.68,-142.509 2138.12,-141.67 2139.9,-148.44"/>
</g>
<!-- Node24&#45;&gt;Node12 -->
<g id="edge43" class="edge"><title>Node24&#45;&gt;Node12</title>
<path fill="none" stroke="midnightblue" d="M1956.06,-184.807C1958.31,-170.024 1964.95,-139.946 1983,-123 2010.68,-97.0183 2051.9,-84.3994 2084.88,-78.273"/>
<polygon fill="midnightblue" stroke="midnightblue" points="2085.55,-81.7078 2094.82,-76.5725 2084.37,-74.808 2085.55,-81.7078"/>
</g>
<!-- Node24&#45;&gt;Node13 -->
<g id="edge46" class="edge"><title>Node24&#45;&gt;Node13</title>
<path fill="none" stroke="midnightblue" d="M1967.83,-184.933C1991.69,-169.491 2045.02,-137.271 2095,-123 2192,-95.3033 2497.01,-79.4498 2611.76,-74.3388"/>
<polygon fill="midnightblue" stroke="midnightblue" points="2612.1,-77.8272 2621.94,-73.8915 2611.79,-70.834 2612.1,-77.8272"/>
</g>
<!-- Node24&#45;&gt;Node14 -->
<g id="edge47" class="edge"><title>Node24&#45;&gt;Node14</title>
<path fill="none" stroke="midnightblue" d="M1941.92,-184.992C1910.38,-164.474 1829.87,-112.096 1790.85,-86.7146"/>
<polygon fill="midnightblue" stroke="midnightblue" points="1792.6,-83.6803 1782.31,-81.161 1788.79,-89.548 1792.6,-83.6803"/>
</g>
<!-- Node24&#45;&gt;Node20 -->
<g id="edge45" class="edge"><title>Node24&#45;&gt;Node20</title>
<path fill="none" stroke="midnightblue" d="M1901.25,-189.527C1747.57,-178.168 1309.39,-145.781 1183.94,-136.508"/>
<polygon fill="midnightblue" stroke="midnightblue" points="1184.01,-133.004 1173.78,-135.758 1183.5,-139.985 1184.01,-133.004"/>
</g>
<!-- Node25&#45;&gt;Node3 -->
<g id="edge57" class="edge"><title>Node25&#45;&gt;Node3</title>
<path fill="none" stroke="midnightblue" d="M1521.83,-246.454C1500.21,-239.596 1472.87,-228.07 1454,-210 1422.84,-180.173 1446.98,-146.792 1411,-123 1338.51,-75.0638 706.841,-72.3836 555.488,-72.4346"/>
<polygon fill="midnightblue" stroke="midnightblue" points="555.041,-68.9349 545.044,-72.4429 555.047,-75.9349 555.041,-68.9349"/>
</g>
<!-- Node25&#45;&gt;Node11 -->
<g id="edge49" class="edge"><title>Node25&#45;&gt;Node11</title>
<path fill="none" stroke="midnightblue" d="M1590.18,-246.459C1650.74,-231.509 1780.97,-200.177 1892,-179 1966.93,-164.709 2053.44,-151.694 2112.14,-143.379"/>
<polygon fill="midnightblue" stroke="midnightblue" points="2112.99,-146.794 2122.4,-141.933 2112.01,-139.862 2112.99,-146.794"/>
</g>
<!-- Node25&#45;&gt;Node13 -->
<g id="edge52" class="edge"><title>Node25&#45;&gt;Node13</title>
<path fill="none" stroke="midnightblue" d="M1615.51,-255.077C1724.79,-254.228 1964.34,-247.75 2162,-210 2289.17,-185.714 2315.11,-157.093 2440,-123 2498.99,-106.898 2567.89,-91.3442 2611.72,-81.8522"/>
<polygon fill="midnightblue" stroke="midnightblue" points="2612.72,-85.2168 2621.76,-79.689 2611.25,-78.3738 2612.72,-85.2168"/>
</g>
<!-- Node25&#45;&gt;Node14 -->
<g id="edge56" class="edge"><title>Node25&#45;&gt;Node14</title>
<path fill="none" stroke="midnightblue" d="M1565.99,-246.442C1599.45,-217.77 1707.93,-124.821 1751.07,-87.8613"/>
<polygon fill="midnightblue" stroke="midnightblue" points="1753.47,-90.4158 1758.79,-81.2514 1748.91,-85.1001 1753.47,-90.4158"/>
</g>
<!-- Node25&#45;&gt;Node16 -->
<g id="edge50" class="edge"><title>Node25&#45;&gt;Node16</title>
<path fill="none" stroke="midnightblue" d="M1615.54,-251.077C1703.6,-244.847 1873.61,-231.187 2017,-210 2024.73,-208.858 2032.88,-207.446 2040.82,-205.956"/>
<polygon fill="midnightblue" stroke="midnightblue" points="2041.57,-209.377 2050.72,-204.042 2040.24,-202.504 2041.57,-209.377"/>
</g>
<!-- Node25&#45;&gt;Node18 -->
<g id="edge51" class="edge"><title>Node25&#45;&gt;Node18</title>
<path fill="none" stroke="midnightblue" d="M1615.81,-251.05C1777.3,-240.386 2221.28,-211.066 2390.39,-199.898"/>
<polygon fill="midnightblue" stroke="midnightblue" points="2390.66,-203.388 2400.41,-199.237 2390.2,-196.404 2390.66,-203.388"/>
</g>
<!-- Node25&#45;&gt;Node20 -->
<g id="edge53" class="edge"><title>Node25&#45;&gt;Node20</title>
<path fill="none" stroke="midnightblue" d="M1558.3,-246.286C1561.89,-230.486 1566.71,-197.078 1549,-179 1523.6,-153.075 1275.48,-139.55 1183.81,-135.407"/>
<polygon fill="midnightblue" stroke="midnightblue" points="1183.83,-131.904 1173.68,-134.958 1183.52,-138.897 1183.83,-131.904"/>
</g>
<!-- Node26 -->
<g id="node26" class="node"><title>Node26</title>
<polygon fill="white" stroke="#bfbfbf" points="1463.5,-185 1463.5,-204 1540.5,-204 1540.5,-185 1463.5,-185"/>
<text text-anchor="middle" x="1502" y="-192" font-family="Helvetica,sans-Serif" font-size="10.00">initializer_list</text>
</g>
<!-- Node25&#45;&gt;Node26 -->
<g id="edge54" class="edge"><title>Node25&#45;&gt;Node26</title>
<path fill="none" stroke="midnightblue" d="M1548.26,-246.475C1540,-237.373 1526.72,-222.741 1516.51,-211.483"/>
<polygon fill="midnightblue" stroke="midnightblue" points="1519.03,-209.062 1509.72,-204.009 1513.85,-213.766 1519.03,-209.062"/>
</g>
<!-- Node25&#45;&gt;Node27 -->
<g id="edge55" class="edge"><title>Node25&#45;&gt;Node27</title>
<path fill="none" stroke="midnightblue" d="M1496.26,-249.349C1375.13,-237.891 1102.1,-212.063 983.628,-200.857"/>
<polygon fill="midnightblue" stroke="midnightblue" points="983.956,-197.372 973.671,-199.915 983.297,-204.341 983.956,-197.372"/>
</g>
<!-- Node28&#45;&gt;Node3 -->
<g id="edge63" class="edge"><title>Node28&#45;&gt;Node3</title>
<path fill="none" stroke="midnightblue" d="M2021.99,-302.453C1987.15,-292.551 1939.64,-278.822 1898,-266 1778.72,-229.268 1750.38,-215.403 1631,-179 1543.93,-152.451 1523.77,-138.056 1434,-123 1259.67,-93.7622 696.886,-77.1211 555.474,-73.3353"/>
<polygon fill="midnightblue" stroke="midnightblue" points="555.383,-69.8318 545.294,-73.0656 555.198,-76.8293 555.383,-69.8318"/>
</g>
<!-- Node28&#45;&gt;Node19 -->
<g id="edge60" class="edge"><title>Node28&#45;&gt;Node19</title>
<path fill="none" stroke="midnightblue" d="M2127.51,-303.681C2246.98,-276.049 2518.08,-213.107 2522,-210 2540.21,-195.576 2550.4,-170.133 2555.54,-152.69"/>
<polygon fill="midnightblue" stroke="midnightblue" points="2559.04,-153.141 2558.23,-142.578 2552.28,-151.345 2559.04,-153.141"/>
</g>
<!-- Node28&#45;&gt;Node24 -->
<g id="edge61" class="edge"><title>Node28&#45;&gt;Node24</title>
<path fill="none" stroke="midnightblue" d="M2058.12,-302.145C2036.14,-279.409 1993.45,-235.269 1970.5,-211.53"/>
<polygon fill="midnightblue" stroke="midnightblue" points="1972.74,-208.808 1963.27,-204.052 1967.7,-213.674 1972.74,-208.808"/>
</g>
<!-- Node28&#45;&gt;Node25 -->
<g id="edge62" class="edge"><title>Node28&#45;&gt;Node25</title>
<path fill="none" stroke="midnightblue" d="M2016.26,-308.76C1999.47,-306.499 1980.99,-304.078 1964,-302 1845.29,-287.486 1706.88,-272.663 1625.62,-264.173"/>
<polygon fill="midnightblue" stroke="midnightblue" points="1625.82,-260.675 1615.51,-263.119 1625.09,-267.637 1625.82,-260.675"/>
</g>
<!-- Node29&#45;&gt;Node24 -->
<g id="edge68" class="edge"><title>Node29&#45;&gt;Node24</title>
<path fill="none" stroke="midnightblue" d="M1928.35,-369.198C1932.67,-341.073 1946.18,-252.958 1952.14,-214.157"/>
<polygon fill="midnightblue" stroke="midnightblue" points="1955.61,-214.629 1953.66,-204.214 1948.69,-213.568 1955.61,-214.629"/>
</g>
<!-- Node29&#45;&gt;Node30 -->
<g id="edge69" class="edge"><title>Node29&#45;&gt;Node30</title>
<path fill="none" stroke="midnightblue" d="M1911.1,-369.475C1892.72,-359.622 1862.24,-343.288 1840.76,-331.77"/>
<polygon fill="midnightblue" stroke="midnightblue" points="1842.34,-328.649 1831.87,-327.009 1839.03,-334.818 1842.34,-328.649"/>
</g>
<!-- Node31&#45;&gt;Node3 -->
<g id="edge96" class="edge"><title>Node31&#45;&gt;Node3</title>
<path fill="none" stroke="midnightblue" d="M1972.33,-598.192C1888.49,-589.032 1684.64,-561.866 1525,-501 1283.31,-408.851 1234.83,-355.539 1021,-210 1002.7,-197.541 1001.94,-188.627 982,-179 962.345,-169.51 656.378,-101.808 555.202,-79.5631"/>
<polygon fill="midnightblue" stroke="midnightblue" points="555.77,-76.1045 545.252,-77.3768 554.268,-82.9414 555.77,-76.1045"/>
</g>
<!-- Node31&#45;&gt;Node6 -->
<g id="edge83" class="edge"><title>Node31&#45;&gt;Node6</title>
<path fill="none" stroke="midnightblue" d="M2002.28,-593.387C1982.71,-572.983 1938.78,-520.458 1962,-481 1970.92,-465.844 1986.99,-455.426 2002.48,-448.464"/>
<polygon fill="midnightblue" stroke="midnightblue" points="2004.06,-451.6 2011.98,-444.564 2001.4,-445.124 2004.06,-451.6"/>
</g>
<!-- Node31&#45;&gt;Node11 -->
<g id="edge82" class="edge"><title>Node31&#45;&gt;Node11</title>
<path fill="none" stroke="midnightblue" d="M2049.7,-597.012C2121.63,-586.664 2279.55,-558.842 2400,-501 2437.5,-482.992 2452.54,-480.017 2475,-445 2509.31,-391.502 2502.53,-359.283 2475,-302 2460.67,-272.192 2449.49,-269.278 2426,-246 2409.77,-229.917 2368.2,-189.682 2348,-179 2316.62,-162.407 2278.62,-151.543 2246.79,-144.655"/>
<polygon fill="midnightblue" stroke="midnightblue" points="2247.2,-141.164 2236.69,-142.556 2245.77,-148.018 2247.2,-141.164"/>
</g>
<!-- Node31&#45;&gt;Node13 -->
<g id="edge99" class="edge"><title>Node31&#45;&gt;Node13</title>
<path fill="none" stroke="midnightblue" d="M2049.84,-602.01C2193,-601.721 2685.76,-597.753 2742,-557 2828.75,-494.144 2810.86,-438.216 2831,-333 2833.59,-319.468 2831.5,-315.769 2831,-302 2829,-247.224 2838.69,-231.211 2822,-179 2813.14,-151.265 2810.36,-141.652 2788,-123 2773.4,-110.821 2728.11,-94.8817 2694.63,-84.1974"/>
<polygon fill="midnightblue" stroke="midnightblue" points="2695.25,-80.7253 2684.67,-81.0603 2693.15,-87.4022 2695.25,-80.7253"/>
</g>
<!-- Node31&#45;&gt;Node21 -->
<g id="edge98" class="edge"><title>Node31&#45;&gt;Node21</title>
<path fill="none" stroke="midnightblue" d="M2049.68,-601.94C2197.06,-601.416 2718.31,-596.743 2780,-557 2789.92,-550.608 2872.96,-379.144 2879,-369 2928.97,-285.041 2996.19,-189.514 3023.59,-151.212"/>
<polygon fill="midnightblue" stroke="midnightblue" points="3026.68,-152.913 3029.67,-142.749 3020.99,-148.832 3026.68,-152.913"/>
</g>
<!-- Node31&#45;&gt;Node25 -->
<g id="edge84" class="edge"><title>Node31&#45;&gt;Node25</title>
<path fill="none" stroke="midnightblue" d="M1993.79,-593.394C1935.12,-563.491 1739.45,-459.015 1610,-333 1591.94,-315.422 1575.88,-291.116 1566.06,-274.766"/>
<polygon fill="midnightblue" stroke="midnightblue" points="1568.86,-272.616 1560.79,-265.745 1562.81,-276.146 1568.86,-272.616"/>
</g>
<!-- Node32 -->
<g id="node32" class="node"><title>Node32</title>
<g id="a_node32"><a xlink:href="span_8h.html" target="_top" xlink:title="Span information for debugging purposes. ">
<polygon fill="white" stroke="black" points="1971,-481.5 1971,-500.5 2051,-500.5 2051,-481.5 1971,-481.5"/>
<text text-anchor="middle" x="2011" y="-488.5" font-family="Helvetica,sans-Serif" font-size="10.00">tvm/ir/span.h</text>
</a>
</g>
</g>
<!-- Node31&#45;&gt;Node32 -->
<g id="edge85" class="edge"><title>Node31&#45;&gt;Node32</title>
<path fill="none" stroke="midnightblue" d="M2011,-593.368C2011,-575.617 2011,-534.666 2011,-510.597"/>
<polygon fill="midnightblue" stroke="midnightblue" points="2014.5,-510.591 2011,-500.591 2007.5,-510.591 2014.5,-510.591"/>
</g>
<!-- Node33 -->
<g id="node33" class="node"><title>Node33</title>
<g id="a_node33"><a xlink:href="ir_2type_8h.html" target="_top" xlink:title="IR/AST nodes for the unified type system in TVM. ">
<polygon fill="white" stroke="black" points="2040.5,-537.5 2040.5,-556.5 2117.5,-556.5 2117.5,-537.5 2040.5,-537.5"/>
<text text-anchor="middle" x="2079" y="-544.5" font-family="Helvetica,sans-Serif" font-size="10.00">tvm/ir/type.h</text>
</a>
</g>
</g>
<!-- Node31&#45;&gt;Node33 -->
<g id="edge89" class="edge"><title>Node31&#45;&gt;Node33</title>
<path fill="none" stroke="midnightblue" d="M2021.93,-593.324C2032.17,-585.185 2047.72,-572.839 2060,-563.087"/>
<polygon fill="midnightblue" stroke="midnightblue" points="2062.22,-565.794 2067.88,-556.834 2057.87,-560.312 2062.22,-565.794"/>
</g>
<!-- Node31&#45;&gt;Node34 -->
<g id="edge97" class="edge"><title>Node31&#45;&gt;Node34</title>
<path fill="none" stroke="midnightblue" d="M2049.74,-599.916C2208.6,-591.372 2809.44,-559.056 2973.43,-550.236"/>
<polygon fill="midnightblue" stroke="midnightblue" points="2973.79,-553.721 2983.59,-549.689 2973.42,-546.731 2973.79,-553.721"/>
</g>
<!-- Node32&#45;&gt;Node3 -->
<g id="edge88" class="edge"><title>Node32&#45;&gt;Node3</title>
<path fill="none" stroke="midnightblue" d="M1970.65,-484.256C1863.35,-468.238 1562.98,-418.548 1326,-333 1183.17,-281.437 1161.76,-235.974 1021,-179 943.338,-147.566 922.584,-142.064 841,-123 737.743,-98.8715 612.908,-82.7731 555.168,-76.0525"/>
<polygon fill="midnightblue" stroke="midnightblue" points="555.521,-72.5702 545.188,-74.907 554.723,-79.5246 555.521,-72.5702"/>
</g>
<!-- Node32&#45;&gt;Node6 -->
<g id="edge87" class="edge"><title>Node32&#45;&gt;Node6</title>
<path fill="none" stroke="midnightblue" d="M2016.28,-481.083C2020.71,-473.613 2027.16,-462.724 2032.62,-453.52"/>
<polygon fill="midnightblue" stroke="midnightblue" points="2035.73,-455.138 2037.81,-444.751 2029.71,-451.57 2035.73,-455.138"/>
</g>
<!-- Node32&#45;&gt;Node11 -->
<g id="edge86" class="edge"><title>Node32&#45;&gt;Node11</title>
<path fill="none" stroke="midnightblue" d="M2051.19,-486.993C2150.14,-478.672 2401.07,-451.686 2451,-389 2499.22,-328.462 2322.95,-211.95 2275,-179 2255.7,-165.736 2231.89,-154.381 2213.06,-146.395"/>
<polygon fill="midnightblue" stroke="midnightblue" points="2214.29,-143.119 2203.71,-142.534 2211.62,-149.588 2214.29,-143.119"/>
</g>
<!-- Node33&#45;&gt;Node3 -->
<g id="edge95" class="edge"><title>Node33&#45;&gt;Node3</title>
<path fill="none" stroke="midnightblue" d="M2042.99,-537.434C2009.7,-529.19 1959.02,-515.819 1916,-501 1732.14,-437.669 1684.45,-422.869 1512,-333 1357.83,-252.659 1346.93,-177.951 1182,-123 1063.75,-83.6033 671.632,-74.7045 555.61,-72.913"/>
<polygon fill="midnightblue" stroke="midnightblue" points="555.313,-69.4084 545.263,-72.761 555.21,-76.4076 555.313,-69.4084"/>
</g>
<!-- Node33&#45;&gt;Node6 -->
<g id="edge92" class="edge"><title>Node33&#45;&gt;Node6</title>
<path fill="none" stroke="midnightblue" d="M2076.63,-537.102C2073.23,-524.519 2066.64,-500.847 2060,-481 2057.02,-472.079 2053.37,-462.296 2050.22,-454.137"/>
<polygon fill="midnightblue" stroke="midnightblue" points="2053.37,-452.588 2046.46,-444.556 2046.85,-455.144 2053.37,-452.588"/>
</g>
<!-- Node33&#45;&gt;Node11 -->
<g id="edge90" class="edge"><title>Node33&#45;&gt;Node11</title>
<path fill="none" stroke="midnightblue" d="M2117.55,-544.982C2201.35,-540.365 2398.29,-515.889 2470,-389 2481.93,-367.89 2469.38,-329.433 2453,-302 2431.6,-266.156 2347.39,-199.459 2311,-179 2284.44,-164.069 2252.07,-152.845 2226.28,-145.34"/>
<polygon fill="midnightblue" stroke="midnightblue" points="2226.96,-141.895 2216.38,-142.548 2225.05,-148.632 2226.96,-141.895"/>
</g>
<!-- Node33&#45;&gt;Node19 -->
<g id="edge91" class="edge"><title>Node33&#45;&gt;Node19</title>
<path fill="none" stroke="midnightblue" d="M2117.55,-545.301C2174,-543.108 2281.6,-534.45 2366,-501 2407.03,-484.739 2413.66,-472.724 2448,-445 2504.26,-399.576 2530.46,-395.971 2566,-333 2600.15,-272.483 2614.62,-245.04 2593,-179 2589.51,-168.34 2582.43,-158.117 2575.71,-150.117"/>
<polygon fill="midnightblue" stroke="midnightblue" points="2578.3,-147.763 2569.02,-142.66 2573.1,-152.439 2578.3,-147.763"/>
</g>
<!-- Node33&#45;&gt;Node25 -->
<g id="edge93" class="edge"><title>Node33&#45;&gt;Node25</title>
<path fill="none" stroke="midnightblue" d="M2053.94,-537.49C2029.96,-529.086 1992.97,-515.43 1962,-501 1822.07,-435.804 1787.75,-416.642 1658,-333 1627.77,-313.509 1594.71,-288.051 1574.66,-272.112"/>
<polygon fill="midnightblue" stroke="midnightblue" points="1576.66,-269.23 1566.67,-265.711 1572.29,-274.694 1576.66,-269.23"/>
</g>
<!-- Node33&#45;&gt;Node32 -->
<g id="edge94" class="edge"><title>Node33&#45;&gt;Node32</title>
<path fill="none" stroke="midnightblue" d="M2068.07,-537.324C2057.83,-529.185 2042.28,-516.839 2030,-507.087"/>
<polygon fill="midnightblue" stroke="midnightblue" points="2032.13,-504.312 2022.12,-500.834 2027.78,-509.794 2032.13,-504.312"/>
</g>
<!-- Node35&#45;&gt;Node3 -->
<g id="edge170" class="edge"><title>Node35&#45;&gt;Node3</title>
<path fill="none" stroke="midnightblue" d="M956.793,-993.408C797.366,-991.118 285.168,-981.296 219,-949 184.47,-932.147 162,-922.423 162,-884 162,-884 162,-884 162,-193.5 162,-154.565 180.78,-143.306 214,-123 260.116,-94.8124 421.043,-79.9444 490.583,-74.7116"/>
<polygon fill="midnightblue" stroke="midnightblue" points="491.21,-78.1751 500.928,-73.9539 490.699,-71.1938 491.21,-78.1751"/>
</g>
<!-- Node35&#45;&gt;Node5 -->
<g id="edge151" class="edge"><title>Node35&#45;&gt;Node5</title>
<path fill="none" stroke="midnightblue" d="M1051.04,-989.02C1165.03,-976.33 1452.78,-940.405 1536,-893 1566.04,-875.886 1577.06,-869.062 1590,-837 1611.97,-782.555 1593.5,-711.145 1582.6,-678.154"/>
<polygon fill="midnightblue" stroke="midnightblue" points="1585.85,-676.823 1579.27,-668.518 1579.23,-679.113 1585.85,-676.823"/>
</g>
<!-- Node35&#45;&gt;Node20 -->
<g id="edge169" class="edge"><title>Node35&#45;&gt;Node20</title>
<path fill="none" stroke="midnightblue" d="M956.552,-993.426C822.384,-991.394 447.165,-982.722 404,-949 359.366,-914.13 364,-884.64 364,-828 364,-828 364,-828 364,-770 364,-454.806 483.479,-337.365 756,-179 816.938,-143.588 1032.42,-136.036 1116.27,-134.431"/>
<polygon fill="midnightblue" stroke="midnightblue" points="1116.35,-137.93 1126.28,-134.256 1116.22,-130.931 1116.35,-137.93"/>
</g>
<!-- Node35&#45;&gt;Node27 -->
<g id="edge167" class="edge"><title>Node35&#45;&gt;Node27</title>
<path fill="none" stroke="midnightblue" d="M956.856,-993.257C817.704,-990.708 415.368,-980.65 366,-949 294.334,-903.054 295.103,-863.472 274,-781 237.996,-640.295 479.318,-388.137 500,-369 581.656,-293.447 614.5,-286.787 718,-246 767.836,-226.361 827.469,-212.872 870.259,-204.808"/>
<polygon fill="midnightblue" stroke="midnightblue" points="871.012,-208.229 880.211,-202.973 869.742,-201.345 871.012,-208.229"/>
</g>
<!-- Node36 -->
<g id="node36" class="node"><title>Node36</title>
<g id="a_node36"><a xlink:href="schedule_8h.html" target="_top" xlink:title="Define a schedule. ">
<polygon fill="white" stroke="black" points="1015.5,-929.5 1015.5,-948.5 1118.5,-948.5 1118.5,-929.5 1015.5,-929.5"/>
<text text-anchor="middle" x="1067" y="-936.5" font-family="Helvetica,sans-Serif" font-size="10.00">tvm/te/schedule.h</text>
</a>
</g>
</g>
<!-- Node35&#45;&gt;Node36 -->
<g id="edge107" class="edge"><title>Node35&#45;&gt;Node36</title>
<path fill="none" stroke="midnightblue" d="M1014.12,-985.324C1023.53,-977.263 1037.74,-965.077 1049.07,-955.369"/>
<polygon fill="midnightblue" stroke="midnightblue" points="1051.38,-957.999 1056.69,-948.834 1046.82,-952.684 1051.38,-957.999"/>
</g>
<!-- Node43 -->
<g id="node43" class="node"><title>Node43</title>
<g id="a_node43"><a xlink:href="buffer_8h.html" target="_top" xlink:title="Symbolic n&#45;dimensional array, to represent a memory buffer. ">
<polygon fill="white" stroke="black" points="1323.5,-817.5 1323.5,-836.5 1410.5,-836.5 1410.5,-817.5 1323.5,-817.5"/>
<text text-anchor="middle" x="1367" y="-824.5" font-family="Helvetica,sans-Serif" font-size="10.00">tvm/tir/buffer.h</text>
</a>
</g>
</g>
<!-- Node35&#45;&gt;Node43 -->
<g id="edge152" class="edge"><title>Node35&#45;&gt;Node43</title>
<path fill="none" stroke="midnightblue" d="M1051.25,-993.879C1125.06,-991.05 1267.59,-974.553 1348,-893 1359.98,-880.845 1364.49,-861.57 1366.14,-847.161"/>
<polygon fill="midnightblue" stroke="midnightblue" points="1369.65,-847.119 1366.94,-836.877 1362.67,-846.575 1369.65,-847.119"/>
</g>
<!-- Node45 -->
<g id="node45" class="node"><title>Node45</title>
<g id="a_node45"><a xlink:href="tir_2function_8h.html" target="_top" xlink:title="TIR Function. ">
<polygon fill="white" stroke="black" points="1241,-873.5 1241,-892.5 1339,-892.5 1339,-873.5 1241,-873.5"/>
<text text-anchor="middle" x="1290" y="-880.5" font-family="Helvetica,sans-Serif" font-size="10.00">tvm/tir/function.h</text>
</a>
</g>
</g>
<!-- Node35&#45;&gt;Node45 -->
<g id="edge153" class="edge"><title>Node35&#45;&gt;Node45</title>
<path fill="none" stroke="midnightblue" d="M1028.12,-985.408C1052.97,-976.499 1092.8,-962.071 1127,-949 1173.55,-931.207 1227.16,-909.614 1259.81,-896.342"/>
<polygon fill="midnightblue" stroke="midnightblue" points="1261.29,-899.516 1269.23,-892.503 1258.65,-893.033 1261.29,-899.516"/>
</g>
<!-- Node47 -->
<g id="node47" class="node"><title>Node47</title>
<g id="a_node47"><a xlink:href="lowered__func_8h.html" target="_top" xlink:title="Information about a lowered TVM function. This data structure is final step toward codegen...">
<polygon fill="white" stroke="black" points="797,-761.5 797,-780.5 919,-780.5 919,-761.5 797,-761.5"/>
<text text-anchor="middle" x="858" y="-768.5" font-family="Helvetica,sans-Serif" font-size="10.00">tvm/tir/lowered_func.h</text>
</a>
</g>
</g>
<!-- Node35&#45;&gt;Node47 -->
<g id="edge162" class="edge"><title>Node35&#45;&gt;Node47</title>
<path fill="none" stroke="midnightblue" d="M998.277,-985.297C976.521,-952.217 898.715,-833.909 869.338,-789.241"/>
<polygon fill="midnightblue" stroke="midnightblue" points="872.262,-787.316 863.842,-780.884 866.413,-791.162 872.262,-787.316"/>
</g>
<!-- Node48 -->
<g id="node48" class="node"><title>Node48</title>
<polygon fill="white" stroke="#bfbfbf" points="228,-929.5 228,-948.5 314,-948.5 314,-929.5 228,-929.5"/>
<text text-anchor="middle" x="271" y="-936.5" font-family="Helvetica,sans-Serif" font-size="10.00">unordered_set</text>
</g>
<!-- Node35&#45;&gt;Node48 -->
<g id="edge168" class="edge"><title>Node35&#45;&gt;Node48</title>
<path fill="none" stroke="midnightblue" d="M956.746,-992.321C846.392,-988.08 563.241,-975.347 328,-949 326.74,-948.859 325.465,-948.71 324.18,-948.554"/>
<polygon fill="midnightblue" stroke="midnightblue" points="324.576,-945.076 314.205,-947.241 323.662,-952.016 324.576,-945.076"/>
</g>
<!-- Node36&#45;&gt;Node3 -->
<g id="edge149" class="edge"><title>Node36&#45;&gt;Node3</title>
<path fill="none" stroke="midnightblue" d="M1015.21,-934.116C947.777,-928.392 826.52,-915.819 725,-893 423.179,-825.159 200,-745.352 200,-436 200,-436 200,-436 200,-193.5 200,-157.028 212.015,-143.764 242,-123 281.952,-95.334 425.559,-80.4222 490.593,-74.9575"/>
<polygon fill="midnightblue" stroke="midnightblue" points="491.01,-78.4352 500.692,-74.1321 490.44,-71.4584 491.01,-78.4352"/>
</g>
<!-- Node36&#45;&gt;Node5 -->
<g id="edge108" class="edge"><title>Node36&#45;&gt;Node5</title>
<path fill="none" stroke="midnightblue" d="M1118.61,-937.692C1248.01,-935.532 1576,-920.894 1576,-828 1576,-828 1576,-828 1576,-770 1576,-737.948 1576,-700.643 1576,-678.749"/>
<polygon fill="midnightblue" stroke="midnightblue" points="1579.5,-678.558 1576,-668.558 1572.5,-678.558 1579.5,-678.558"/>
</g>
<!-- Node36&#45;&gt;Node27 -->
<g id="edge150" class="edge"><title>Node36&#45;&gt;Node27</title>
<path fill="none" stroke="midnightblue" d="M1015.34,-937.851C917.962,-934.428 708.698,-911.424 616,-781 466.288,-570.359 818.408,-278.83 907.261,-210.325"/>
<polygon fill="midnightblue" stroke="midnightblue" points="909.412,-213.086 915.233,-204.234 905.162,-207.524 909.412,-213.086"/>
</g>
<!-- Node37 -->
<g id="node37" class="node"><title>Node37</title>
<g id="a_node37"><a xlink:href="tensor_8h.html" target="_top" xlink:title="Dataflow tensor object. ">
<polygon fill="white" stroke="black" points="1123,-817.5 1123,-836.5 1213,-836.5 1213,-817.5 1123,-817.5"/>
<text text-anchor="middle" x="1168" y="-824.5" font-family="Helvetica,sans-Serif" font-size="10.00">tvm/te/tensor.h</text>
</a>
</g>
</g>
<!-- Node36&#45;&gt;Node37 -->
<g id="edge109" class="edge"><title>Node36&#45;&gt;Node37</title>
<path fill="none" stroke="midnightblue" d="M1093.87,-929.421C1111.91,-922.353 1134.87,-910.599 1149,-893 1159.69,-879.691 1164.36,-860.571 1166.41,-846.512"/>
<polygon fill="midnightblue" stroke="midnightblue" points="1169.89,-846.863 1167.55,-836.53 1162.94,-846.068 1169.89,-846.863"/>
</g>
<!-- Node42 -->
<g id="node42" class="node"><title>Node42</title>
<g id="a_node42"><a xlink:href="tensor__intrin_8h.html" target="_top" xlink:title="Tensor intrinsic operations. ">
<polygon fill="white" stroke="black" points="1020,-873.5 1020,-892.5 1140,-892.5 1140,-873.5 1020,-873.5"/>
<text text-anchor="middle" x="1080" y="-880.5" font-family="Helvetica,sans-Serif" font-size="10.00">tvm/te/tensor_intrin.h</text>
</a>
</g>
</g>
<!-- Node36&#45;&gt;Node42 -->
<g id="edge138" class="edge"><title>Node36&#45;&gt;Node42</title>
<path fill="none" stroke="midnightblue" d="M1069.15,-929.083C1070.87,-921.927 1073.35,-911.635 1075.5,-902.691"/>
<polygon fill="midnightblue" stroke="midnightblue" points="1078.96,-903.293 1077.89,-892.751 1072.15,-901.654 1078.96,-903.293"/>
</g>
<!-- Node44 -->
<g id="node44" class="node"><title>Node44</title>
<g id="a_node44"><a xlink:href="with_8h.html" target="_top" xlink:title="RAII wrapper function to enter and exit a context object similar to python&#39;s with syntax...">
<polygon fill="white" stroke="black" points="1534,-481.5 1534,-500.5 1640,-500.5 1640,-481.5 1534,-481.5"/>
<text text-anchor="middle" x="1587" y="-488.5" font-family="Helvetica,sans-Serif" font-size="10.00">tvm/support/with.h</text>
</a>
</g>
</g>
<!-- Node36&#45;&gt;Node44 -->
<g id="edge146" class="edge"><title>Node36&#45;&gt;Node44</title>
<path fill="none" stroke="midnightblue" d="M1049.5,-929.465C1036.21,-921.917 1018.92,-909.533 1011,-893 1007.16,-884.984 1007.66,-881.238 1011,-873 1050.09,-776.586 1090.45,-766.99 1174,-705 1303.64,-608.815 1482.93,-532.866 1555.06,-504.278"/>
<polygon fill="midnightblue" stroke="midnightblue" points="1556.48,-507.479 1564.51,-500.562 1553.92,-500.964 1556.48,-507.479"/>
</g>
<!-- Node37&#45;&gt;Node3 -->
<g id="edge134" class="edge"><title>Node37&#45;&gt;Node3</title>
<path fill="none" stroke="midnightblue" d="M1122.59,-826.319C992.889,-826.018 630,-816.221 630,-716 630,-716 630,-716 630,-658 630,-587.047 493.891,-450.206 458,-389 443.718,-364.643 440.982,-358.074 428,-333 410.637,-299.463 390,-294.765 390,-257 390,-257 390,-257 390,-193.5 390,-138.967 451.935,-102.514 491.275,-84.8605"/>
<polygon fill="midnightblue" stroke="midnightblue" points="492.943,-87.9527 500.739,-80.7777 490.17,-81.5254 492.943,-87.9527"/>
</g>
<!-- Node37&#45;&gt;Node5 -->
<g id="edge126" class="edge"><title>Node37&#45;&gt;Node5</title>
<path fill="none" stroke="midnightblue" d="M1188.96,-817.443C1205.69,-809.808 1228.91,-797.317 1245,-781 1272.25,-753.366 1256.09,-727.088 1288,-705 1325.58,-678.989 1453.49,-667.281 1525.57,-662.642"/>
<polygon fill="midnightblue" stroke="midnightblue" points="1526.01,-666.121 1535.78,-662.008 1525.58,-659.134 1526.01,-666.121"/>
</g>
<!-- Node37&#45;&gt;Node13 -->
<g id="edge137" class="edge"><title>Node37&#45;&gt;Node13</title>
<path fill="none" stroke="midnightblue" d="M1213.03,-822.829C1241.88,-820.895 1280.13,-818.512 1314,-817 1891.87,-791.201 2037.83,-819.306 2615,-781 2753.11,-771.834 3226,-798.415 3226,-660 3226,-660 3226,-660 3226,-193.5 3226,-142.338 3182.65,-141.621 3135,-123 2961.32,-55.1324 2901.09,-116.642 2717,-87 2710.79,-86.0007 2704.28,-84.7144 2697.92,-83.3213"/>
<polygon fill="midnightblue" stroke="midnightblue" points="2698.64,-79.8958 2688.11,-81.0704 2697.08,-86.7185 2698.64,-79.8958"/>
</g>
<!-- Node37&#45;&gt;Node14 -->
<g id="edge136" class="edge"><title>Node37&#45;&gt;Node14</title>
<path fill="none" stroke="midnightblue" d="M1122.89,-823.853C1027.19,-818.85 810.68,-804.983 788,-781 695.952,-683.665 668.834,-280.73 756,-179 821.517,-102.536 1572.33,-77.8297 1737.14,-73.3103"/>
<polygon fill="midnightblue" stroke="midnightblue" points="1737.66,-76.7978 1747.56,-73.0303 1737.47,-69.8003 1737.66,-76.7978"/>
</g>
<!-- Node37&#45;&gt;Node20 -->
<g id="edge135" class="edge"><title>Node37&#45;&gt;Node20</title>
<path fill="none" stroke="midnightblue" d="M1148.02,-817.378C1131.77,-809.627 1108.99,-797.009 1093,-781 1052.01,-739.958 1041.45,-724.91 1026,-669 970.333,-467.511 1100.97,-218.739 1139.62,-151.458"/>
<polygon fill="midnightblue" stroke="midnightblue" points="1142.8,-152.963 1144.81,-142.562 1136.75,-149.436 1142.8,-152.963"/>
</g>
<!-- Node37&#45;&gt;Node25 -->
<g id="edge110" class="edge"><title>Node37&#45;&gt;Node25</title>
<path fill="none" stroke="midnightblue" d="M1155.5,-817.302C1145.13,-809.251 1131.11,-796.245 1125,-781 1121.69,-772.75 1122.18,-769.429 1125,-761 1206.08,-518.741 1276.58,-467.723 1471,-302 1486.83,-288.509 1507.38,-277.493 1524.3,-269.738"/>
<polygon fill="midnightblue" stroke="midnightblue" points="1526.05,-272.792 1533.79,-265.554 1523.23,-266.387 1526.05,-272.792"/>
</g>
<!-- Node38 -->
<g id="node38" class="node"><title>Node38</title>
<g id="a_node38"><a xlink:href="bound_8h.html" target="_top" xlink:title="Bound deducers. ">
<polygon fill="white" stroke="black" points="1134,-761.5 1134,-780.5 1236,-780.5 1236,-761.5 1134,-761.5"/>
<text text-anchor="middle" x="1185" y="-768.5" font-family="Helvetica,sans-Serif" font-size="10.00">tvm/arith/bound.h</text>
</a>
</g>
</g>
<!-- Node37&#45;&gt;Node38 -->
<g id="edge111" class="edge"><title>Node37&#45;&gt;Node38</title>
<path fill="none" stroke="midnightblue" d="M1170.81,-817.083C1173.08,-809.849 1176.37,-799.409 1179.21,-790.397"/>
<polygon fill="midnightblue" stroke="midnightblue" points="1182.58,-791.341 1182.25,-780.751 1175.9,-789.239 1182.58,-791.341"/>
</g>
<!-- Node37&#45;&gt;Node41 -->
<g id="edge127" class="edge"><title>Node37&#45;&gt;Node41</title>
<path fill="none" stroke="midnightblue" d="M1213.04,-822.923C1241.89,-821.027 1280.14,-818.65 1314,-817 1786.09,-793.996 2358.54,-777.702 2523.49,-773.234"/>
<polygon fill="midnightblue" stroke="midnightblue" points="2523.86,-776.725 2533.76,-772.957 2523.67,-769.728 2523.86,-776.725"/>
</g>
<!-- Node38&#45;&gt;Node5 -->
<g id="edge118" class="edge"><title>Node38&#45;&gt;Node5</title>
<path fill="none" stroke="midnightblue" d="M1190.96,-761.042C1201.15,-746.538 1223.42,-718.212 1250,-705 1297.31,-681.484 1446.41,-668.459 1525.53,-663.041"/>
<polygon fill="midnightblue" stroke="midnightblue" points="1526.01,-666.517 1535.75,-662.357 1525.54,-659.533 1526.01,-666.517"/>
</g>
<!-- Node38&#45;&gt;Node25 -->
<g id="edge112" class="edge"><title>Node38&#45;&gt;Node25</title>
<path fill="none" stroke="midnightblue" d="M1189.24,-761.416C1195.54,-748.815 1207.95,-724.671 1220,-705 1248.45,-658.563 1461.72,-341.699 1499,-302 1509.62,-290.687 1523.21,-279.849 1534.45,-271.645"/>
<polygon fill="midnightblue" stroke="midnightblue" points="1536.74,-274.315 1542.87,-265.672 1532.69,-268.608 1536.74,-274.315"/>
</g>
<!-- Node38&#45;&gt;Node27 -->
<g id="edge125" class="edge"><title>Node38&#45;&gt;Node27</title>
<path fill="none" stroke="midnightblue" d="M1170.49,-761.447C1115.35,-727.744 922,-598.002 922,-436 922,-436 922,-436 922,-316.5 922,-280.183 924.276,-237.786 925.757,-214.049"/>
<polygon fill="midnightblue" stroke="midnightblue" points="929.254,-214.209 926.407,-204.004 922.269,-213.757 929.254,-214.209"/>
</g>
<!-- Node38&#45;&gt;Node31 -->
<g id="edge113" class="edge"><title>Node38&#45;&gt;Node31</title>
<path fill="none" stroke="midnightblue" d="M1236.23,-766.267C1308.32,-760.458 1443.58,-747.514 1557,-725 1680.54,-700.478 1708.21,-681.086 1830,-649 1876.08,-636.86 1928.99,-623.807 1965.66,-614.902"/>
<polygon fill="midnightblue" stroke="midnightblue" points="1966.66,-618.262 1975.55,-612.505 1965.01,-611.459 1966.66,-618.262"/>
</g>
<!-- Node39 -->
<g id="node39" class="node"><title>Node39</title>
<g id="a_node39"><a xlink:href="int__set_8h.html" target="_top" xlink:title="Integer set. ">
<polygon fill="white" stroke="black" points="1444,-705.5 1444,-724.5 1548,-724.5 1548,-705.5 1444,-705.5"/>
<text text-anchor="middle" x="1496" y="-712.5" font-family="Helvetica,sans-Serif" font-size="10.00">tvm/arith/int_set.h</text>
</a>
</g>
</g>
<!-- Node38&#45;&gt;Node39 -->
<g id="edge114" class="edge"><title>Node38&#45;&gt;Node39</title>
<path fill="none" stroke="midnightblue" d="M1234.28,-761.444C1289.33,-751.885 1378.4,-736.419 1437.08,-726.23"/>
<polygon fill="midnightblue" stroke="midnightblue" points="1437.7,-729.676 1446.95,-724.516 1436.5,-722.779 1437.7,-729.676"/>
</g>
<!-- Node40 -->
<g id="node40" class="node"><title>Node40</title>
<g id="a_node40"><a xlink:href="stmt_8h.html" target="_top" xlink:title="TIR statements. ">
<polygon fill="white" stroke="black" points="886.5,-705.5 886.5,-724.5 969.5,-724.5 969.5,-705.5 886.5,-705.5"/>
<text text-anchor="middle" x="928" y="-712.5" font-family="Helvetica,sans-Serif" font-size="10.00">tvm/tir/stmt.h</text>
</a>
</g>
</g>
<!-- Node38&#45;&gt;Node40 -->
<g id="edge119" class="edge"><title>Node38&#45;&gt;Node40</title>
<path fill="none" stroke="midnightblue" d="M1144.28,-761.444C1099.35,-752.004 1027,-736.802 978.501,-726.611"/>
<polygon fill="midnightblue" stroke="midnightblue" points="979.038,-723.148 968.532,-724.516 977.598,-729.998 979.038,-723.148"/>
</g>
<!-- Node39&#45;&gt;Node5 -->
<g id="edge116" class="edge"><title>Node39&#45;&gt;Node5</title>
<path fill="none" stroke="midnightblue" d="M1508.85,-705.324C1521.22,-696.979 1540.13,-684.212 1554.74,-674.352"/>
<polygon fill="midnightblue" stroke="midnightblue" points="1556.85,-677.15 1563.18,-668.655 1552.93,-671.348 1556.85,-677.15"/>
</g>
<!-- Node39&#45;&gt;Node27 -->
<g id="edge117" class="edge"><title>Node39&#45;&gt;Node27</title>
<path fill="none" stroke="midnightblue" d="M1486.36,-705.203C1460.36,-681.444 1386.62,-613.932 1326,-557 1206.39,-444.664 1178.32,-414.65 1059,-302 1032.48,-276.958 1027.33,-268.973 999,-246 982.795,-232.861 963.377,-219.361 948.792,-209.628"/>
<polygon fill="midnightblue" stroke="midnightblue" points="950.681,-206.682 940.407,-204.092 946.824,-212.523 950.681,-206.682"/>
</g>
<!-- Node39&#45;&gt;Node31 -->
<g id="edge115" class="edge"><title>Node39&#45;&gt;Node31</title>
<path fill="none" stroke="midnightblue" d="M1519.29,-705.458C1557.69,-691.678 1636.93,-664.521 1706,-649 1816.38,-624.196 1846.22,-630.472 1958,-613 1959.3,-612.797 1960.61,-612.59 1961.94,-612.378"/>
<polygon fill="midnightblue" stroke="midnightblue" points="1962.92,-615.764 1972.23,-610.704 1961.8,-608.855 1962.92,-615.764"/>
</g>
<!-- Node40&#45;&gt;Node3 -->
<g id="edge122" class="edge"><title>Node40&#45;&gt;Node3</title>
<path fill="none" stroke="midnightblue" d="M909.325,-705.418C891.855,-697.064 865.328,-683.533 844,-669 762.055,-613.16 504,-479.162 504,-380 504,-380 504,-380 504,-193.5 504,-156.786 512.642,-114.556 518.27,-90.9499"/>
<polygon fill="midnightblue" stroke="midnightblue" points="521.67,-91.7793 520.67,-81.2318 514.874,-90.1007 521.67,-91.7793"/>
</g>
<!-- Node40&#45;&gt;Node5 -->
<g id="edge120" class="edge"><title>Node40&#45;&gt;Node5</title>
<path fill="none" stroke="midnightblue" d="M969.521,-710.54C1083.63,-701.03 1401.74,-674.521 1525.67,-664.194"/>
<polygon fill="midnightblue" stroke="midnightblue" points="1525.98,-667.68 1535.66,-663.362 1525.4,-660.705 1525.98,-667.68"/>
</g>
<!-- Node40&#45;&gt;Node13 -->
<g id="edge121" class="edge"><title>Node40&#45;&gt;Node13</title>
<path fill="none" stroke="midnightblue" d="M969.542,-712.67C1241.42,-703.857 2758.46,-653.017 2847,-613 3064.37,-514.76 3239.37,-286.836 3066,-123 3009.33,-69.45 2793.87,-100.043 2717,-87 2711.02,-85.9851 2704.75,-84.7248 2698.6,-83.3741"/>
<polygon fill="midnightblue" stroke="midnightblue" points="2698.98,-79.8685 2688.45,-81.0429 2697.41,-86.6911 2698.98,-79.8685"/>
</g>
<!-- Node40&#45;&gt;Node14 -->
<g id="edge124" class="edge"><title>Node40&#45;&gt;Node14</title>
<path fill="none" stroke="midnightblue" d="M919.048,-705.281C864.578,-652.053 580,-371.432 580,-318.5 580,-318.5 580,-318.5 580,-255 580,-121.027 718.704,-144.129 851,-123 1027.47,-94.8162 1597.55,-77.3004 1737.67,-73.3527"/>
<polygon fill="midnightblue" stroke="midnightblue" points="1737.84,-76.8496 1747.73,-73.0719 1737.64,-69.8524 1737.84,-76.8496"/>
</g>
<!-- Node40&#45;&gt;Node20 -->
<g id="edge123" class="edge"><title>Node40&#45;&gt;Node20</title>
<path fill="none" stroke="midnightblue" d="M923.939,-705.221C913.047,-680.841 884,-610.014 884,-548 884,-548 884,-548 884,-378 884,-289.367 813.533,-246.479 871,-179 902.177,-142.391 1049.18,-135.462 1116.36,-134.224"/>
<polygon fill="midnightblue" stroke="midnightblue" points="1116.48,-137.723 1126.42,-134.071 1116.37,-130.724 1116.48,-137.723"/>
</g>
<!-- Node41&#45;&gt;Node5 -->
<g id="edge129" class="edge"><title>Node41&#45;&gt;Node5</title>
<path fill="none" stroke="midnightblue" d="M2533.74,-765.987C2382.43,-749.242 1801.11,-684.912 1626.12,-665.547"/>
<polygon fill="midnightblue" stroke="midnightblue" points="1626.48,-662.065 1616.16,-664.444 1625.71,-669.023 1626.48,-662.065"/>
</g>
<!-- Node41&#45;&gt;Node13 -->
<g id="edge132" class="edge"><title>Node41&#45;&gt;Node13</title>
<path fill="none" stroke="midnightblue" d="M2606.35,-770.398C2738.82,-769.782 3188,-748.765 3188,-492 3188,-492 3188,-492 3188,-193.5 3188,-139.845 3140.22,-141.897 3090,-123 2934.12,-64.3421 2881.29,-114.322 2717,-87 2710.8,-85.9687 2704.29,-84.6649 2697.93,-83.2638"/>
<polygon fill="midnightblue" stroke="midnightblue" points="2698.65,-79.8386 2688.12,-81.0075 2697.08,-86.6604 2698.65,-79.8386"/>
</g>
<!-- Node41&#45;&gt;Node21 -->
<g id="edge133" class="edge"><title>Node41&#45;&gt;Node21</title>
<path fill="none" stroke="midnightblue" d="M2606.03,-769.677C2723.02,-768.276 3086.86,-761.036 3124,-725 3198.78,-652.437 3150,-596.198 3150,-492 3150,-492 3150,-492 3150,-316.5 3150,-249.464 3128.06,-232.749 3088,-179 3079.42,-167.483 3067.41,-156.852 3057.1,-148.818"/>
<polygon fill="midnightblue" stroke="midnightblue" points="3059.06,-145.908 3048.95,-142.718 3054.86,-151.512 3059.06,-145.908"/>
</g>
<!-- Node41&#45;&gt;Node33 -->
<g id="edge128" class="edge"><title>Node41&#45;&gt;Node33</title>
<path fill="none" stroke="midnightblue" d="M2551.05,-761.433C2475.72,-727.37 2197.12,-601.407 2107.19,-560.745"/>
<polygon fill="midnightblue" stroke="midnightblue" points="2108.44,-557.472 2097.89,-556.541 2105.56,-563.85 2108.44,-557.472"/>
</g>
<!-- Node41&#45;&gt;Node34 -->
<g id="edge131" class="edge"><title>Node41&#45;&gt;Node34</title>
<path fill="none" stroke="midnightblue" d="M2606.26,-767.844C2661.66,-763.775 2770.17,-752.729 2858,-725 2911.83,-708.005 2934.45,-711.147 2972,-669 2998.36,-639.421 3008.84,-592.603 3012.79,-566.732"/>
<polygon fill="midnightblue" stroke="midnightblue" points="3016.27,-567.126 3014.14,-556.746 3009.33,-566.185 3016.27,-567.126"/>
</g>
<!-- Node41&#45;&gt;Node40 -->
<g id="edge130" class="edge"><title>Node41&#45;&gt;Node40</title>
<path fill="none" stroke="midnightblue" d="M2533.79,-768.809C2320.85,-761.806 1232.36,-726.009 980.203,-717.717"/>
<polygon fill="midnightblue" stroke="midnightblue" points="979.969,-714.207 969.86,-717.377 979.739,-721.204 979.969,-714.207"/>
</g>
<!-- Node42&#45;&gt;Node3 -->
<g id="edge145" class="edge"><title>Node42&#45;&gt;Node3</title>
<path fill="none" stroke="midnightblue" d="M1019.77,-882.978C930.041,-882.922 756.725,-876.955 616,-837 362.435,-765.007 238,-643.587 238,-380 238,-380 238,-380 238,-193.5 238,-160.401 237.048,-144.748 262,-123 295.794,-93.5452 428.592,-79.7136 490.678,-74.7554"/>
<polygon fill="midnightblue" stroke="midnightblue" points="491.009,-78.2403 500.711,-73.9826 490.472,-71.261 491.009,-78.2403"/>
</g>
<!-- Node42&#45;&gt;Node37 -->
<g id="edge139" class="edge"><title>Node42&#45;&gt;Node37</title>
<path fill="none" stroke="midnightblue" d="M1094.14,-873.324C1107.87,-864.9 1128.94,-851.971 1145.06,-842.074"/>
<polygon fill="midnightblue" stroke="midnightblue" points="1147.2,-844.868 1153.9,-836.655 1143.54,-838.902 1147.2,-844.868"/>
</g>
<!-- Node42&#45;&gt;Node43 -->
<g id="edge140" class="edge"><title>Node42&#45;&gt;Node43</title>
<path fill="none" stroke="midnightblue" d="M1125.48,-873.444C1176.41,-863.861 1258.9,-848.34 1313.05,-838.151"/>
<polygon fill="midnightblue" stroke="midnightblue" points="1313.97,-841.54 1323.15,-836.251 1312.67,-834.66 1313.97,-841.54"/>
</g>
<!-- Node43&#45;&gt;Node3 -->
<g id="edge144" class="edge"><title>Node43&#45;&gt;Node3</title>
<path fill="none" stroke="midnightblue" d="M1323.35,-823.2C1192.87,-814.754 813.269,-789.581 788,-781 648.648,-733.676 314,-465.668 314,-318.5 314,-318.5 314,-318.5 314,-193.5 314,-160.401 313.885,-145.672 338,-123 379.972,-83.5385 449.726,-74.3509 490.529,-72.5403"/>
<polygon fill="midnightblue" stroke="midnightblue" points="490.85,-76.032 500.734,-72.2153 490.627,-69.0355 490.85,-76.032"/>
</g>
<!-- Node43&#45;&gt;Node5 -->
<g id="edge142" class="edge"><title>Node43&#45;&gt;Node5</title>
<path fill="none" stroke="midnightblue" d="M1369.46,-817.223C1376.14,-795.026 1396.71,-736.21 1435,-705 1460.83,-683.943 1496.69,-672.672 1525.77,-666.676"/>
<polygon fill="midnightblue" stroke="midnightblue" points="1526.59,-670.083 1535.75,-664.767 1525.27,-663.208 1526.59,-670.083"/>
</g>
<!-- Node43&#45;&gt;Node25 -->
<g id="edge141" class="edge"><title>Node43&#45;&gt;Node25</title>
<path fill="none" stroke="midnightblue" d="M1323.48,-824.348C1260.77,-820.95 1149.76,-810.783 1125,-781 1114,-767.765 1051.02,-792.341 1136,-593 1204.71,-431.811 1253.29,-394.671 1402,-302 1428.86,-285.264 1462.2,-274.52 1490.99,-267.746"/>
<polygon fill="midnightblue" stroke="midnightblue" points="1491.97,-271.113 1500.97,-265.512 1490.44,-264.282 1491.97,-271.113"/>
</g>
<!-- Node43&#45;&gt;Node41 -->
<g id="edge143" class="edge"><title>Node43&#45;&gt;Node41</title>
<path fill="none" stroke="midnightblue" d="M1410.53,-824.046C1597.49,-815.654 2331.6,-782.701 2523.76,-774.076"/>
<polygon fill="midnightblue" stroke="midnightblue" points="2523.97,-777.57 2533.81,-773.625 2523.66,-770.577 2523.97,-777.57"/>
</g>
<!-- Node44&#45;&gt;Node12 -->
<g id="edge147" class="edge"><title>Node44&#45;&gt;Node12</title>
<path fill="none" stroke="midnightblue" d="M1593.78,-481.177C1600.59,-472.206 1611.31,-457.837 1620,-445 1678.41,-358.699 1668.52,-317.846 1744,-246 1843.78,-151.025 2004.12,-102.873 2086.09,-83.3532"/>
<polygon fill="midnightblue" stroke="midnightblue" points="2086.98,-86.7387 2095.93,-81.0588 2085.39,-79.9217 2086.98,-86.7387"/>
</g>
<!-- Node44&#45;&gt;Node14 -->
<g id="edge148" class="edge"><title>Node44&#45;&gt;Node14</title>
<path fill="none" stroke="midnightblue" d="M1589.74,-481.384C1596.17,-461.402 1612.97,-410.447 1630,-369 1674.31,-261.187 1736.8,-135.883 1759.93,-90.2595"/>
<polygon fill="midnightblue" stroke="midnightblue" points="1763.18,-91.5945 1764.59,-81.0944 1756.94,-88.4212 1763.18,-91.5945"/>
</g>
<!-- Node45&#45;&gt;Node3 -->
<g id="edge161" class="edge"><title>Node45&#45;&gt;Node3</title>
<path fill="none" stroke="midnightblue" d="M1240.98,-878.915C1142.92,-871.476 916.828,-847.924 740,-781 612.541,-732.761 276,-516.282 276,-380 276,-380 276,-380 276,-193.5 276,-98.9951 423.626,-78.2939 490.62,-73.7652"/>
<polygon fill="midnightblue" stroke="midnightblue" points="490.87,-77.2566 500.645,-73.1684 490.454,-70.269 490.87,-77.2566"/>
</g>
<!-- Node45&#45;&gt;Node5 -->
<g id="edge158" class="edge"><title>Node45&#45;&gt;Node5</title>
<path fill="none" stroke="midnightblue" d="M1292.15,-873.129C1295.54,-860.17 1302.89,-835.585 1314,-817 1348.09,-759.975 1356.65,-740.186 1413,-705 1447.3,-683.583 1491.88,-672.185 1525.75,-666.225"/>
<polygon fill="midnightblue" stroke="midnightblue" points="1526.6,-669.632 1535.89,-664.545 1525.46,-662.726 1526.6,-669.632"/>
</g>
<!-- Node45&#45;&gt;Node40 -->
<g id="edge160" class="edge"><title>Node45&#45;&gt;Node40</title>
<path fill="none" stroke="midnightblue" d="M1242.59,-873.484C1206.52,-866.153 1156.1,-854.045 1114,-837 1067.5,-818.172 1058.03,-808.394 1016,-781 991.475,-765.014 964.582,-744.715 947.063,-731.092"/>
<polygon fill="midnightblue" stroke="midnightblue" points="948.849,-728.045 938.818,-724.634 944.533,-733.556 948.849,-728.045"/>
</g>
<!-- Node45&#45;&gt;Node43 -->
<g id="edge159" class="edge"><title>Node45&#45;&gt;Node43</title>
<path fill="none" stroke="midnightblue" d="M1302.37,-873.324C1314.16,-865.058 1332.13,-852.453 1346.14,-842.632"/>
<polygon fill="midnightblue" stroke="midnightblue" points="1348.48,-845.262 1354.66,-836.655 1344.46,-839.531 1348.48,-845.262"/>
</g>
<!-- Node46 -->
<g id="node46" class="node"><title>Node46</title>
<g id="a_node46"><a xlink:href="ir_2function_8h.html" target="_top" xlink:title="Function nodes. ">
<polygon fill="white" stroke="red" points="1863.5,-649.5 1863.5,-668.5 1958.5,-668.5 1958.5,-649.5 1863.5,-649.5"/>
<text text-anchor="middle" x="1911" y="-656.5" font-family="Helvetica,sans-Serif" font-size="10.00">tvm/ir/function.h</text>
</a>
</g>
</g>
<!-- Node45&#45;&gt;Node46 -->
<g id="edge154" class="edge"><title>Node45&#45;&gt;Node46</title>
<path fill="none" stroke="midnightblue" d="M1339.15,-878.143C1458.15,-868 1757.96,-837.395 1839,-781 1875.33,-755.719 1896.28,-705.674 1905.44,-678.539"/>
<polygon fill="midnightblue" stroke="midnightblue" points="1908.86,-679.343 1908.56,-668.753 1902.19,-677.216 1908.86,-679.343"/>
</g>
<!-- Node46&#45;&gt;Node3 -->
<g id="edge157" class="edge"><title>Node46&#45;&gt;Node3</title>
<path fill="none" stroke="midnightblue" d="M1863.35,-651.495C1709.01,-628.771 1212.65,-542.63 864,-333 730.889,-252.967 588.427,-130.52 540.126,-87.8211"/>
<polygon fill="midnightblue" stroke="midnightblue" points="542.268,-85.0423 532.467,-81.019 537.62,-90.2763 542.268,-85.0423"/>
</g>
<!-- Node46&#45;&gt;Node13 -->
<g id="edge156" class="edge"><title>Node46&#45;&gt;Node13</title>
<path fill="none" stroke="midnightblue" d="M1958.54,-658.419C2135.23,-659.602 2747.64,-660.232 2820,-613 2981.69,-507.454 2895.43,-363.967 2840,-179 2832.01,-152.344 2833.1,-141.141 2812,-123 2794.99,-108.372 2739.77,-92.6106 2699.86,-82.6581"/>
<polygon fill="midnightblue" stroke="midnightblue" points="2700.62,-79.2408 2690.07,-80.2572 2698.95,-86.0392 2700.62,-79.2408"/>
</g>
<!-- Node46&#45;&gt;Node31 -->
<g id="edge155" class="edge"><title>Node46&#45;&gt;Node31</title>
<path fill="none" stroke="midnightblue" d="M1927.07,-649.324C1942.96,-640.743 1967.51,-627.486 1985.96,-617.522"/>
<polygon fill="midnightblue" stroke="midnightblue" points="1987.84,-620.486 1994.97,-612.655 1984.51,-614.326 1987.84,-620.486"/>
</g>
<!-- Node47&#45;&gt;Node3 -->
<g id="edge166" class="edge"><title>Node47&#45;&gt;Node3</title>
<path fill="none" stroke="midnightblue" d="M847.814,-761.411C796.592,-718.06 567.587,-522.34 516,-445 464.807,-368.251 428,-349.256 428,-257 428,-257 428,-257 428,-193.5 428,-146.747 472.421,-107.355 500.513,-87.1189"/>
<polygon fill="midnightblue" stroke="midnightblue" points="502.765,-89.8157 508.982,-81.2367 498.772,-84.0662 502.765,-89.8157"/>
</g>
<!-- Node47&#45;&gt;Node5 -->
<g id="edge164" class="edge"><title>Node47&#45;&gt;Node5</title>
<path fill="none" stroke="midnightblue" d="M857.657,-761.145C857.636,-746.789 859.932,-718.671 877,-705 927.283,-664.724 1373.3,-660.292 1525.42,-659.961"/>
<polygon fill="midnightblue" stroke="midnightblue" points="1525.87,-663.46 1535.86,-659.943 1525.85,-656.46 1525.87,-663.46"/>
</g>
<!-- Node47&#45;&gt;Node25 -->
<g id="edge163" class="edge"><title>Node47&#45;&gt;Node25</title>
<path fill="none" stroke="midnightblue" d="M856.218,-761.115C854.057,-748.137 851.656,-723.53 860,-705 967.281,-466.765 1053.98,-418.19 1288,-302 1350.36,-271.04 1429.87,-260.82 1486.05,-257.717"/>
<polygon fill="midnightblue" stroke="midnightblue" points="1486.44,-261.202 1496.26,-257.217 1486.1,-254.211 1486.44,-261.202"/>
</g>
<!-- Node47&#45;&gt;Node40 -->
<g id="edge165" class="edge"><title>Node47&#45;&gt;Node40</title>
<path fill="none" stroke="midnightblue" d="M869.247,-761.324C879.797,-753.185 895.801,-740.839 908.442,-731.087"/>
<polygon fill="midnightblue" stroke="midnightblue" points="910.769,-733.713 916.549,-724.834 906.493,-728.171 910.769,-733.713"/>
</g>
<!-- Node49&#45;&gt;Node3 -->
<g id="edge190" class="edge"><title>Node49&#45;&gt;Node3</title>
<path fill="none" stroke="midnightblue" d="M1197.87,-991.368C1029.6,-982.958 518.514,-956.835 503,-949 440.471,-917.421 402,-898.05 402,-828 402,-828 402,-828 402,-770 402,-568.107 352,-520.393 352,-318.5 352,-318.5 352,-318.5 352,-193.5 352,-126.103 441.609,-92.8757 491.092,-79.6652"/>
<polygon fill="midnightblue" stroke="midnightblue" points="492.167,-83.0032 500.995,-77.145 490.44,-76.2194 492.167,-83.0032"/>
</g>
<!-- Node49&#45;&gt;Node5 -->
<g id="edge187" class="edge"><title>Node49&#45;&gt;Node5</title>
<path fill="none" stroke="midnightblue" d="M1304.39,-991.815C1421.39,-985.571 1690,-962.67 1690,-884 1690,-884 1690,-884 1690,-770 1690,-739.205 1686.55,-727.939 1666,-705 1652.53,-689.958 1632.87,-679.325 1615.36,-672.187"/>
<polygon fill="midnightblue" stroke="midnightblue" points="1616.5,-668.875 1605.91,-668.574 1614,-675.414 1616.5,-668.875"/>
</g>
<!-- Node49&#45;&gt;Node20 -->
<g id="edge191" class="edge"><title>Node49&#45;&gt;Node20</title>
<path fill="none" stroke="midnightblue" d="M1197.98,-992.976C1054.26,-987.123 668,-949.658 668,-716 668,-716 668,-716 668,-658 668,-601.633 687.087,-590.1 706,-537 709.593,-526.912 840.604,-185.646 849,-179 889.884,-146.637 1046.64,-137.428 1116.3,-134.907"/>
<polygon fill="midnightblue" stroke="midnightblue" points="1116.43,-138.405 1126.31,-134.57 1116.2,-131.409 1116.43,-138.405"/>
</g>
<!-- Node49&#45;&gt;Node27 -->
<g id="edge192" class="edge"><title>Node49&#45;&gt;Node27</title>
<path fill="none" stroke="midnightblue" d="M1197.82,-991.178C1043.94,-982.916 607.25,-958.744 578,-949 527.709,-932.246 478,-937.008 478,-884 478,-884 478,-884 478,-826 478,-696.269 463.764,-654.384 519,-537 601.032,-362.669 820.237,-245.714 898.632,-208.367"/>
<polygon fill="midnightblue" stroke="midnightblue" points="900.334,-211.434 907.896,-204.014 897.357,-205.099 900.334,-211.434"/>
</g>
<!-- Node49&#45;&gt;Node36 -->
<g id="edge186" class="edge"><title>Node49&#45;&gt;Node36</title>
<path fill="none" stroke="midnightblue" d="M1221.84,-985.444C1190.49,-976.241 1140.47,-961.562 1105.8,-951.388"/>
<polygon fill="midnightblue" stroke="midnightblue" points="1106.6,-947.974 1096.02,-948.516 1104.63,-954.691 1106.6,-947.974"/>
</g>
<!-- Node49&#45;&gt;Node37 -->
<g id="edge185" class="edge"><title>Node49&#45;&gt;Node37</title>
<path fill="none" stroke="midnightblue" d="M1246.54,-985.075C1233.36,-958.719 1194.44,-880.878 1176.83,-845.661"/>
<polygon fill="midnightblue" stroke="midnightblue" points="1179.89,-843.947 1172.28,-836.568 1173.63,-847.078 1179.89,-843.947"/>
</g>
<!-- Node49&#45;&gt;Node41 -->
<g id="edge188" class="edge"><title>Node49&#45;&gt;Node41</title>
<path fill="none" stroke="midnightblue" d="M1304.2,-992.516C1393,-989.255 1576.71,-979.162 1729,-949 1925.52,-910.077 1963.79,-857.44 2160,-817 2290.12,-790.183 2446.97,-778.601 2523.47,-774.256"/>
<polygon fill="midnightblue" stroke="midnightblue" points="2523.93,-777.736 2533.72,-773.691 2523.55,-770.747 2523.93,-777.736"/>
</g>
<!-- Node49&#45;&gt;Node43 -->
<g id="edge189" class="edge"><title>Node49&#45;&gt;Node43</title>
<path fill="none" stroke="midnightblue" d="M1271.32,-985.39C1301.77,-971.231 1358.07,-939.85 1381,-893 1388.28,-878.128 1383.01,-859.516 1376.96,-846.023"/>
<polygon fill="midnightblue" stroke="midnightblue" points="1379.98,-844.235 1372.38,-836.85 1373.72,-847.361 1379.98,-844.235"/>
</g>
<!-- Node50 -->
<g id="node50" class="node"><title>Node50</title>
<g id="a_node50"><a xlink:href="analyzer_8h.html" target="_top" xlink:title="Algebra expression simplifications. ">
<polygon fill="white" stroke="black" points="1718,-761.5 1718,-780.5 1830,-780.5 1830,-761.5 1718,-761.5"/>
<text text-anchor="middle" x="1774" y="-768.5" font-family="Helvetica,sans-Serif" font-size="10.00">tvm/arith/analyzer.h</text>
</a>
</g>
</g>
<!-- Node49&#45;&gt;Node50 -->
<g id="edge177" class="edge"><title>Node49&#45;&gt;Node50</title>
<path fill="none" stroke="midnightblue" d="M1304.13,-991.805C1416.94,-986.705 1672.66,-972.659 1704,-949 1755.17,-910.376 1768.98,-828.641 1772.67,-791.318"/>
<polygon fill="midnightblue" stroke="midnightblue" points="1776.2,-791.13 1773.55,-780.872 1769.23,-790.544 1776.2,-791.13"/>
</g>
<!-- Node50&#45;&gt;Node20 -->
<g id="edge181" class="edge"><title>Node50&#45;&gt;Node20</title>
<path fill="none" stroke="midnightblue" d="M1717.9,-770.817C1648.9,-769.988 1529.34,-762.511 1435,-725 1352.76,-692.3 1112,-580.504 1112,-492 1112,-492 1112,-492 1112,-378 1112,-292.963 1134.81,-193.22 1145.09,-152.61"/>
<polygon fill="midnightblue" stroke="midnightblue" points="1148.51,-153.343 1147.62,-142.786 1141.73,-151.594 1148.51,-153.343"/>
</g>
<!-- Node50&#45;&gt;Node21 -->
<g id="edge184" class="edge"><title>Node50&#45;&gt;Node21</title>
<path fill="none" stroke="midnightblue" d="M1830.36,-768.382C2057.37,-761.456 2897.34,-731.76 2997,-669 3076.38,-619.01 3112,-585.813 3112,-492 3112,-492 3112,-492 3112,-434 3112,-323.841 3063.25,-197.703 3043.84,-151.841"/>
<polygon fill="midnightblue" stroke="midnightblue" points="3047.04,-150.432 3039.87,-142.631 3040.61,-153.2 3047.04,-150.432"/>
</g>
<!-- Node50&#45;&gt;Node22 -->
<g id="edge183" class="edge"><title>Node50&#45;&gt;Node22</title>
<path fill="none" stroke="midnightblue" d="M1830.33,-766.649C2060.86,-752.758 2922.58,-699.016 2972,-669 3006.15,-648.262 2995.28,-624.381 3020,-593 3033.81,-575.472 3046.61,-577.676 3055,-557 3058.34,-548.764 3057.82,-545.429 3055,-537 3039.52,-490.777 2821.34,-220.511 2764.47,-150.537"/>
<polygon fill="midnightblue" stroke="midnightblue" points="2767.11,-148.24 2758.09,-142.691 2761.68,-152.657 2767.11,-148.24"/>
</g>
<!-- Node50&#45;&gt;Node27 -->
<g id="edge182" class="edge"><title>Node50&#45;&gt;Node27</title>
<path fill="none" stroke="midnightblue" d="M1717.99,-769.042C1644.14,-766.473 1510.83,-757.297 1402,-725 1254.01,-681.08 1196.12,-676.175 1098,-557 1004.5,-443.438 948.636,-270.231 932.156,-213.896"/>
<polygon fill="midnightblue" stroke="midnightblue" points="935.508,-212.886 929.386,-204.239 928.779,-214.817 935.508,-212.886"/>
</g>
<!-- Node50&#45;&gt;Node31 -->
<g id="edge179" class="edge"><title>Node50&#45;&gt;Node31</title>
<path fill="none" stroke="midnightblue" d="M1777.18,-761.467C1785.86,-739.336 1812.17,-679.684 1854,-649 1871.3,-636.311 1923.01,-622.899 1962.4,-614.053"/>
<polygon fill="midnightblue" stroke="midnightblue" points="1963.36,-617.424 1972.37,-611.85 1961.85,-610.589 1963.36,-617.424"/>
</g>
<!-- Node50&#45;&gt;Node39 -->
<g id="edge180" class="edge"><title>Node50&#45;&gt;Node39</title>
<path fill="none" stroke="midnightblue" d="M1729.95,-761.444C1681.15,-751.964 1602.44,-736.675 1549.97,-726.483"/>
<polygon fill="midnightblue" stroke="midnightblue" points="1550.33,-722.988 1539.84,-724.516 1548.99,-729.859 1550.33,-722.988"/>
</g>
<!-- Node50&#45;&gt;Node44 -->
<g id="edge178" class="edge"><title>Node50&#45;&gt;Node44</title>
<path fill="none" stroke="midnightblue" d="M1768.2,-761.375C1741.97,-722.378 1634.18,-562.143 1598.52,-509.123"/>
<polygon fill="midnightblue" stroke="midnightblue" points="1601.22,-506.868 1592.73,-500.524 1595.41,-510.775 1601.22,-506.868"/>
</g>
</g>
</svg>
