<?xml version="1.0" encoding="UTF-8" standalone="no"?>
<!DOCTYPE svg PUBLIC "-//W3C//DTD SVG 1.1//EN"
 "http://www.w3.org/Graphics/SVG/1.1/DTD/svg11.dtd">
<!-- Generated by graphviz version 2.38.0 (20140413.2041)
 -->
<!-- Title: include/tvm/ir/type_relation.h Pages: 1 -->
<svg width="2710pt" height="968pt"
 viewBox="0.00 0.00 2710.26 968.00" xmlns="http://www.w3.org/2000/svg" xmlns:xlink="http://www.w3.org/1999/xlink">
<g id="graph0" class="graph" transform="scale(1 1) rotate(0) translate(4 964)">
<title>include/tvm/ir/type_relation.h</title>
<polygon fill="white" stroke="none" points="-4,4 -4,-964 2706.26,-964 2706.26,4 -4,4"/>
<!-- Node1 -->
<g id="node1" class="node"><title>Node1</title>
<polygon fill="#bfbfbf" stroke="black" points="1570.76,-929.5 1570.76,-959.5 1675.76,-959.5 1675.76,-929.5 1570.76,-929.5"/>
<text text-anchor="start" x="1578.76" y="-947.5" font-family="Helvetica,sans-Serif" font-size="10.00">include/tvm/ir/type</text>
<text text-anchor="middle" x="1623.26" y="-936.5" font-family="Helvetica,sans-Serif" font-size="10.00">_relation.h</text>
</g>
<!-- Node2 -->
<g id="node2" class="node"><title>Node2</title>
<g id="a_node2"><a xlink:href="ir_2type_8h.html" target="_top" xlink:title="IR/AST nodes for the unified type system in TVM. ">
<polygon fill="white" stroke="black" points="1941.76,-649.5 1941.76,-668.5 2018.76,-668.5 2018.76,-649.5 1941.76,-649.5"/>
<text text-anchor="middle" x="1980.26" y="-656.5" font-family="Helvetica,sans-Serif" font-size="10.00">tvm/ir/type.h</text>
</a>
</g>
</g>
<!-- Node1&#45;&gt;Node2 -->
<g id="edge1" class="edge"><title>Node1&#45;&gt;Node2</title>
<path fill="none" stroke="midnightblue" d="M1675.79,-938.398C1740.01,-928.93 1840.26,-902.259 1840.26,-828 1840.26,-828 1840.26,-828 1840.26,-770 1840.26,-718.347 1899.91,-687.258 1941.34,-671.895"/>
<polygon fill="midnightblue" stroke="midnightblue" points="1942.65,-675.142 1950.91,-668.501 1940.31,-668.544 1942.65,-675.142"/>
</g>
<!-- Node38 -->
<g id="node38" class="node"><title>Node38</title>
<g id="a_node38"><a xlink:href="ir_2module_8h.html" target="_top" xlink:title="IRModule that holds the functions and type definitions. ">
<polygon fill="white" stroke="black" points="1934.26,-873.5 1934.26,-892.5 2026.26,-892.5 2026.26,-873.5 1934.26,-873.5"/>
<text text-anchor="middle" x="1980.26" y="-880.5" font-family="Helvetica,sans-Serif" font-size="10.00">tvm/ir/module.h</text>
</a>
</g>
</g>
<!-- Node1&#45;&gt;Node38 -->
<g id="edge108" class="edge"><title>Node1&#45;&gt;Node38</title>
<path fill="none" stroke="midnightblue" d="M1675.93,-934.721C1742.35,-923.651 1856.05,-904.702 1924.08,-893.363"/>
<polygon fill="midnightblue" stroke="midnightblue" points="1924.89,-896.776 1934.18,-891.68 1923.74,-889.871 1924.89,-896.776"/>
</g>
<!-- Node42 -->
<g id="node42" class="node"><title>Node42</title>
<g id="a_node42"><a xlink:href="ir_2attrs_8h.html" target="_top" xlink:title="Helpers for attribute objects. ">
<polygon fill="white" stroke="black" points="1284.76,-761.5 1284.76,-780.5 1363.76,-780.5 1363.76,-761.5 1284.76,-761.5"/>
<text text-anchor="middle" x="1324.26" y="-768.5" font-family="Helvetica,sans-Serif" font-size="10.00">tvm/ir/attrs.h</text>
</a>
</g>
</g>
<!-- Node1&#45;&gt;Node42 -->
<g id="edge151" class="edge"><title>Node1&#45;&gt;Node42</title>
<path fill="none" stroke="midnightblue" d="M1598.79,-929.465C1542.36,-897.099 1403.68,-817.556 1347.98,-785.608"/>
<polygon fill="midnightblue" stroke="midnightblue" points="1349.6,-782.499 1339.18,-780.56 1346.11,-788.571 1349.6,-782.499"/>
</g>
<!-- Node46 -->
<g id="node46" class="node"><title>Node46</title>
<g id="a_node46"><a xlink:href="env__func_8h.html" target="_top" xlink:title="Serializable global function used in IR. ">
<polygon fill="white" stroke="black" points="841.756,-537.5 841.756,-556.5 940.756,-556.5 940.756,-537.5 841.756,-537.5"/>
<text text-anchor="middle" x="891.256" y="-544.5" font-family="Helvetica,sans-Serif" font-size="10.00">tvm/ir/env_func.h</text>
</a>
</g>
</g>
<!-- Node1&#45;&gt;Node46 -->
<g id="edge147" class="edge"><title>Node1&#45;&gt;Node46</title>
<path fill="none" stroke="midnightblue" d="M1570.59,-942.341C1301.55,-936.081 93.2561,-903.752 93.2561,-828 93.2561,-828 93.2561,-828 93.2561,-658 93.2561,-583.495 646.192,-556.808 831.528,-549.955"/>
<polygon fill="midnightblue" stroke="midnightblue" points="831.773,-553.449 841.639,-549.588 831.519,-546.453 831.773,-553.449"/>
</g>
<!-- Node3 -->
<g id="node3" class="node"><title>Node3</title>
<g id="a_node3"><a xlink:href="object_8h.html" target="_top" xlink:title="A managed object in the TVM runtime. ">
<polygon fill="white" stroke="black" points="1372.76,-123.5 1372.76,-142.5 1489.76,-142.5 1489.76,-123.5 1372.76,-123.5"/>
<text text-anchor="middle" x="1431.26" y="-130.5" font-family="Helvetica,sans-Serif" font-size="10.00">tvm/runtime/object.h</text>
</a>
</g>
</g>
<!-- Node2&#45;&gt;Node3 -->
<g id="edge2" class="edge"><title>Node2&#45;&gt;Node3</title>
<path fill="none" stroke="midnightblue" d="M1991.8,-649.433C2013.06,-632.571 2056.26,-592.799 2056.26,-548 2056.26,-548 2056.26,-548 2056.26,-305.5 2056.26,-183.909 1912.89,-253.61 1804.26,-199 1788.59,-191.126 1786.83,-184.712 1770.26,-179 1680.11,-147.936 1569.65,-138.137 1499.84,-135.148"/>
<polygon fill="midnightblue" stroke="midnightblue" points="1499.98,-131.651 1489.85,-134.755 1499.7,-138.646 1499.98,-131.651"/>
</g>
<!-- Node10 -->
<g id="node10" class="node"><title>Node10</title>
<polygon fill="white" stroke="#bfbfbf" points="2300.26,-62 2300.26,-81 2344.26,-81 2344.26,-62 2300.26,-62"/>
<text text-anchor="middle" x="2322.26" y="-69" font-family="Helvetica,sans-Serif" font-size="10.00">string</text>
</g>
<!-- Node2&#45;&gt;Node10 -->
<g id="edge107" class="edge"><title>Node2&#45;&gt;Node10</title>
<path fill="none" stroke="midnightblue" d="M2018.84,-656.478C2086.92,-653.053 2224.65,-642.576 2261.26,-613 2399.33,-501.436 2395.01,-412.45 2390.26,-235 2388.9,-184.373 2394.87,-166.69 2369.26,-123 2361.59,-109.923 2350.02,-97.4334 2340.27,-88.1462"/>
<polygon fill="midnightblue" stroke="midnightblue" points="2342.38,-85.3315 2332.64,-81.1558 2337.65,-90.4923 2342.38,-85.3315"/>
</g>
<!-- Node13 -->
<g id="node13" class="node"><title>Node13</title>
<g id="a_node13"><a xlink:href="data__type_8h.html" target="_top" xlink:title="tvm/runtime/data_type.h">
<polygon fill="white" stroke="black" points="197.256,-235.5 197.256,-254.5 333.256,-254.5 333.256,-235.5 197.256,-235.5"/>
<text text-anchor="middle" x="265.256" y="-242.5" font-family="Helvetica,sans-Serif" font-size="10.00">tvm/runtime/data_type.h</text>
</a>
</g>
</g>
<!-- Node2&#45;&gt;Node13 -->
<g id="edge12" class="edge"><title>Node2&#45;&gt;Node13</title>
<path fill="none" stroke="midnightblue" d="M1941.65,-655.946C1777.8,-646.406 1124.94,-600.099 615.256,-445 491.42,-407.316 459.539,-392.925 351.256,-322 324.327,-304.362 297.135,-278.716 280.737,-262.196"/>
<polygon fill="midnightblue" stroke="midnightblue" points="283.095,-259.601 273.603,-254.894 278.088,-264.493 283.095,-259.601"/>
</g>
<!-- Node14 -->
<g id="node14" class="node"><title>Node14</title>
<g id="a_node14"><a xlink:href="node_8h.html" target="_top" xlink:title="Definitions and helper macros for IR/AST nodes. ">
<polygon fill="white" stroke="black" points="1817.26,-537.5 1817.26,-556.5 1915.26,-556.5 1915.26,-537.5 1817.26,-537.5"/>
<text text-anchor="middle" x="1866.26" y="-544.5" font-family="Helvetica,sans-Serif" font-size="10.00">tvm/node/node.h</text>
</a>
</g>
</g>
<!-- Node2&#45;&gt;Node14 -->
<g id="edge16" class="edge"><title>Node2&#45;&gt;Node14</title>
<path fill="none" stroke="midnightblue" d="M1972.48,-649.335C1960.98,-636.632 1938.58,-612.363 1918.26,-593 1907.45,-582.706 1894.8,-571.736 1884.68,-563.204"/>
<polygon fill="midnightblue" stroke="midnightblue" points="1886.79,-560.407 1876.87,-556.68 1882.3,-565.778 1886.79,-560.407"/>
</g>
<!-- Node32 -->
<g id="node32" class="node"><title>Node32</title>
<g id="a_node32"><a xlink:href="node_2container_8h.html" target="_top" xlink:title="Array/Map container in the DSL graph. ">
<polygon fill="white" stroke="black" points="1604.76,-358.5 1604.76,-377.5 1723.76,-377.5 1723.76,-358.5 1604.76,-358.5"/>
<text text-anchor="middle" x="1664.26" y="-365.5" font-family="Helvetica,sans-Serif" font-size="10.00">tvm/node/container.h</text>
</a>
</g>
</g>
<!-- Node2&#45;&gt;Node32 -->
<g id="edge102" class="edge"><title>Node2&#45;&gt;Node32</title>
<path fill="none" stroke="midnightblue" d="M1978.97,-649.184C1973.28,-613.491 1946.95,-478.546 1866.26,-414 1845.98,-397.78 1784.2,-385.531 1734.25,-377.939"/>
<polygon fill="midnightblue" stroke="midnightblue" points="1734.52,-374.44 1724.12,-376.436 1733.5,-381.365 1734.52,-374.44"/>
</g>
<!-- Node37 -->
<g id="node37" class="node"><title>Node37</title>
<g id="a_node37"><a xlink:href="span_8h.html" target="_top" xlink:title="Span information for debugging purposes. ">
<polygon fill="white" stroke="black" points="2172.26,-593.5 2172.26,-612.5 2252.26,-612.5 2252.26,-593.5 2172.26,-593.5"/>
<text text-anchor="middle" x="2212.26" y="-600.5" font-family="Helvetica,sans-Serif" font-size="10.00">tvm/ir/span.h</text>
</a>
</g>
</g>
<!-- Node2&#45;&gt;Node37 -->
<g id="edge103" class="edge"><title>Node2&#45;&gt;Node37</title>
<path fill="none" stroke="midnightblue" d="M2017.02,-649.444C2057.32,-640.063 2122.07,-624.993 2165.84,-614.804"/>
<polygon fill="midnightblue" stroke="midnightblue" points="2166.72,-618.192 2175.67,-612.516 2165.13,-611.375 2166.72,-618.192"/>
</g>
<!-- Node4 -->
<g id="node4" class="node"><title>Node4</title>
<polygon fill="white" stroke="#bfbfbf" points="583.256,-62 583.256,-81 669.256,-81 669.256,-62 583.256,-62"/>
<text text-anchor="middle" x="626.256" y="-69" font-family="Helvetica,sans-Serif" font-size="10.00">dmlc/logging.h</text>
</g>
<!-- Node3&#45;&gt;Node4 -->
<g id="edge3" class="edge"><title>Node3&#45;&gt;Node4</title>
<path fill="none" stroke="midnightblue" d="M1372.71,-127.673C1222.35,-116.559 824.261,-87.1351 679.686,-76.4492"/>
<polygon fill="midnightblue" stroke="midnightblue" points="679.547,-72.9294 669.316,-75.6827 679.031,-79.9104 679.547,-72.9294"/>
</g>
<!-- Node5 -->
<g id="node5" class="node"><title>Node5</title>
<g id="a_node5"><a xlink:href="c__runtime__api_8h.html" target="_top" xlink:title="tvm/runtime/c_runtime\l_api.h">
<polygon fill="white" stroke="black" points="235.756,-56.5 235.756,-86.5 362.756,-86.5 362.756,-56.5 235.756,-56.5"/>
<text text-anchor="start" x="243.756" y="-74.5" font-family="Helvetica,sans-Serif" font-size="10.00">tvm/runtime/c_runtime</text>
<text text-anchor="middle" x="299.256" y="-63.5" font-family="Helvetica,sans-Serif" font-size="10.00">_api.h</text>
</a>
</g>
</g>
<!-- Node3&#45;&gt;Node5 -->
<g id="edge4" class="edge"><title>Node3&#45;&gt;Node5</title>
<path fill="none" stroke="midnightblue" d="M1372.55,-128.922C1233.74,-121.643 874.428,-102.794 574.256,-87 506.051,-83.4112 428.331,-79.3123 372.955,-76.3903"/>
<polygon fill="midnightblue" stroke="midnightblue" points="373.053,-72.8907 362.882,-75.8588 372.684,-79.881 373.053,-72.8907"/>
</g>
<!-- Node9 -->
<g id="node9" class="node"><title>Node9</title>
<polygon fill="white" stroke="#bfbfbf" points="1908.26,-62 1908.26,-81 1976.26,-81 1976.26,-62 1908.26,-62"/>
<text text-anchor="middle" x="1942.26" y="-69" font-family="Helvetica,sans-Serif" font-size="10.00">type_traits</text>
</g>
<!-- Node3&#45;&gt;Node9 -->
<g id="edge8" class="edge"><title>Node3&#45;&gt;Node9</title>
<path fill="none" stroke="midnightblue" d="M1489.82,-124.738C1494.7,-124.146 1499.56,-123.56 1504.26,-123 1648.28,-105.819 1819.07,-86.4039 1898.09,-77.4755"/>
<polygon fill="midnightblue" stroke="midnightblue" points="1898.63,-80.9376 1908.17,-76.3375 1897.84,-73.9818 1898.63,-80.9376"/>
</g>
<!-- Node3&#45;&gt;Node10 -->
<g id="edge9" class="edge"><title>Node3&#45;&gt;Node10</title>
<path fill="none" stroke="midnightblue" d="M1490.06,-128.073C1661.74,-116.609 2158.39,-83.4425 2289.96,-74.6568"/>
<polygon fill="midnightblue" stroke="midnightblue" points="2290.43,-78.1333 2300.17,-73.9747 2289.96,-71.1489 2290.43,-78.1333"/>
</g>
<!-- Node11 -->
<g id="node11" class="node"><title>Node11</title>
<polygon fill="white" stroke="#bfbfbf" points="1129.26,-62 1129.26,-81 1171.26,-81 1171.26,-62 1129.26,-62"/>
<text text-anchor="middle" x="1150.26" y="-69" font-family="Helvetica,sans-Serif" font-size="10.00">utility</text>
</g>
<!-- Node3&#45;&gt;Node11 -->
<g id="edge10" class="edge"><title>Node3&#45;&gt;Node11</title>
<path fill="none" stroke="midnightblue" d="M1391,-123.475C1334.35,-111.48 1232.34,-89.8802 1181.22,-79.0564"/>
<polygon fill="midnightblue" stroke="midnightblue" points="1181.92,-75.6269 1171.41,-76.9794 1180.47,-82.4751 1181.92,-75.6269"/>
</g>
<!-- Node12 -->
<g id="node12" class="node"><title>Node12</title>
<polygon fill="white" stroke="#bfbfbf" points="1298.26,-62 1298.26,-81 1348.26,-81 1348.26,-62 1298.26,-62"/>
<text text-anchor="middle" x="1323.26" y="-69" font-family="Helvetica,sans-Serif" font-size="10.00">atomic</text>
</g>
<!-- Node3&#45;&gt;Node12 -->
<g id="edge11" class="edge"><title>Node3&#45;&gt;Node12</title>
<path fill="none" stroke="midnightblue" d="M1415.78,-123.475C1397.98,-113.666 1368.52,-97.4346 1347.62,-85.925"/>
<polygon fill="midnightblue" stroke="midnightblue" points="1349.15,-82.769 1338.7,-81.0091 1345.77,-88.9001 1349.15,-82.769"/>
</g>
<!-- Node6 -->
<g id="node6" class="node"><title>Node6</title>
<polygon fill="white" stroke="#bfbfbf" points="164.256,-0.5 164.256,-19.5 254.256,-19.5 254.256,-0.5 164.256,-0.5"/>
<text text-anchor="middle" x="209.256" y="-7.5" font-family="Helvetica,sans-Serif" font-size="10.00">dlpack/dlpack.h</text>
</g>
<!-- Node5&#45;&gt;Node6 -->
<g id="edge5" class="edge"><title>Node5&#45;&gt;Node6</title>
<path fill="none" stroke="midnightblue" d="M277.927,-56.3993C263.771,-47.0402 245.245,-34.7924 231.003,-25.3771"/>
<polygon fill="midnightblue" stroke="midnightblue" points="232.624,-22.2531 222.352,-19.6578 228.764,-28.0923 232.624,-22.2531"/>
</g>
<!-- Node7 -->
<g id="node7" class="node"><title>Node7</title>
<polygon fill="white" stroke="#bfbfbf" points="272.756,-0.5 272.756,-19.5 325.756,-19.5 325.756,-0.5 272.756,-0.5"/>
<text text-anchor="middle" x="299.256" y="-7.5" font-family="Helvetica,sans-Serif" font-size="10.00">stdint.h</text>
</g>
<!-- Node5&#45;&gt;Node7 -->
<g id="edge6" class="edge"><title>Node5&#45;&gt;Node7</title>
<path fill="none" stroke="midnightblue" d="M299.256,-56.3993C299.256,-48.4664 299.256,-38.458 299.256,-29.8583"/>
<polygon fill="midnightblue" stroke="midnightblue" points="302.756,-29.6577 299.256,-19.6578 295.756,-29.6578 302.756,-29.6577"/>
</g>
<!-- Node8 -->
<g id="node8" class="node"><title>Node8</title>
<polygon fill="white" stroke="#bfbfbf" points="343.756,-0.5 343.756,-19.5 398.756,-19.5 398.756,-0.5 343.756,-0.5"/>
<text text-anchor="middle" x="371.256" y="-7.5" font-family="Helvetica,sans-Serif" font-size="10.00">stddef.h</text>
</g>
<!-- Node5&#45;&gt;Node8 -->
<g id="edge7" class="edge"><title>Node5&#45;&gt;Node8</title>
<path fill="none" stroke="midnightblue" d="M316.319,-56.3993C327.321,-47.3076 341.621,-35.4899 352.874,-26.1909"/>
<polygon fill="midnightblue" stroke="midnightblue" points="355.301,-28.726 360.779,-19.6578 350.841,-23.33 355.301,-28.726"/>
</g>
<!-- Node13&#45;&gt;Node4 -->
<g id="edge14" class="edge"><title>Node13&#45;&gt;Node4</title>
<path fill="none" stroke="midnightblue" d="M270.729,-235.271C285.4,-212.666 328.055,-151.97 380.256,-123 440.834,-89.3815 520.992,-78.0411 573.081,-74.2748"/>
<polygon fill="midnightblue" stroke="midnightblue" points="573.36,-77.7641 583.11,-73.6182 572.903,-70.779 573.36,-77.7641"/>
</g>
<!-- Node13&#45;&gt;Node5 -->
<g id="edge13" class="edge"><title>Node13&#45;&gt;Node5</title>
<path fill="none" stroke="midnightblue" d="M263.683,-235.242C260.39,-214.961 254.039,-163.419 266.256,-123 269.27,-113.03 274.922,-103.184 280.709,-94.8716"/>
<polygon fill="midnightblue" stroke="midnightblue" points="283.533,-96.939 286.682,-86.8229 277.912,-92.7673 283.533,-96.939"/>
</g>
<!-- Node13&#45;&gt;Node9 -->
<g id="edge15" class="edge"><title>Node13&#45;&gt;Node9</title>
<path fill="none" stroke="midnightblue" d="M333.413,-240.879C439.394,-235.499 649.955,-222.707 827.256,-199 917.803,-186.893 1140.66,-134.7 1231.26,-123 1482.12,-90.6038 1785.67,-77.746 1897.83,-73.8792"/>
<polygon fill="midnightblue" stroke="midnightblue" points="1898.2,-77.3687 1908.08,-73.5327 1897.96,-70.3727 1898.2,-77.3687"/>
</g>
<!-- Node14&#45;&gt;Node3 -->
<g id="edge18" class="edge"><title>Node14&#45;&gt;Node3</title>
<path fill="none" stroke="midnightblue" d="M1870.62,-537.307C1874.82,-528.437 1880.86,-514.145 1883.26,-501 1890.33,-462.243 1886.46,-447.826 1866.26,-414 1782.08,-273.046 1728.01,-252.593 1581.26,-179 1550.25,-163.451 1512.89,-152.224 1483.22,-144.873"/>
<polygon fill="midnightblue" stroke="midnightblue" points="1484.01,-141.464 1473.47,-142.528 1482.37,-148.269 1484.01,-141.464"/>
</g>
<!-- Node14&#45;&gt;Node5 -->
<g id="edge17" class="edge"><title>Node14&#45;&gt;Node5</title>
<path fill="none" stroke="midnightblue" d="M1817.05,-543.365C1697.81,-536.905 1383.97,-519.457 1122.26,-501 644.784,-467.327 390.662,-668.331 60.2561,-322 15.7717,-275.371 0.240291,-232.441 36.2561,-179 78.1776,-116.796 163.279,-90.9115 225.36,-80.1479"/>
<polygon fill="midnightblue" stroke="midnightblue" points="226.2,-83.5571 235.503,-78.4871 225.069,-76.6491 226.2,-83.5571"/>
</g>
<!-- Node14&#45;&gt;Node9 -->
<g id="edge101" class="edge"><title>Node14&#45;&gt;Node9</title>
<path fill="none" stroke="midnightblue" d="M1887.99,-537.42C1903.9,-530.055 1924.81,-517.933 1937.26,-501 1952.52,-480.238 1948.89,-470.546 1952.26,-445 1969.99,-310.268 1951.89,-145.842 1944.82,-91.1665"/>
<polygon fill="midnightblue" stroke="midnightblue" points="1948.28,-90.6663 1943.5,-81.2152 1941.35,-91.5894 1948.28,-90.6663"/>
</g>
<!-- Node14&#45;&gt;Node10 -->
<g id="edge98" class="edge"><title>Node14&#45;&gt;Node10</title>
<path fill="none" stroke="midnightblue" d="M1915.68,-544.902C1966.51,-541.973 2046.72,-532.239 2108.26,-501 2159.98,-474.743 2272.73,-374.093 2298.26,-322 2336.74,-243.439 2329.58,-134.402 2324.73,-91.2013"/>
<polygon fill="midnightblue" stroke="midnightblue" points="2328.21,-90.7692 2323.52,-81.2659 2321.26,-91.6158 2328.21,-90.7692"/>
</g>
<!-- Node14&#45;&gt;Node11 -->
<g id="edge100" class="edge"><title>Node14&#45;&gt;Node11</title>
<path fill="none" stroke="midnightblue" d="M1817.13,-544.831C1656.07,-540.76 1152.85,-526.077 1129.26,-501 1115.03,-485.876 1141.53,-171.866 1148.59,-91.2375"/>
<polygon fill="midnightblue" stroke="midnightblue" points="1152.1,-91.367 1149.49,-81.0983 1145.12,-90.7523 1152.1,-91.367"/>
</g>
<!-- Node15 -->
<g id="node15" class="node"><title>Node15</title>
<g id="a_node15"><a xlink:href="runtime_2memory_8h.html" target="_top" xlink:title="Runtime memory management. ">
<polygon fill="white" stroke="black" points="1634.76,-179.5 1634.76,-198.5 1761.76,-198.5 1761.76,-179.5 1634.76,-179.5"/>
<text text-anchor="middle" x="1698.26" y="-186.5" font-family="Helvetica,sans-Serif" font-size="10.00">tvm/runtime/memory.h</text>
</a>
</g>
</g>
<!-- Node14&#45;&gt;Node15 -->
<g id="edge19" class="edge"><title>Node14&#45;&gt;Node15</title>
<path fill="none" stroke="midnightblue" d="M1882.04,-537.467C1894.46,-529.769 1910.86,-517.179 1918.26,-501 1944.68,-443.196 1945.9,-415.228 1918.26,-358 1879.28,-277.304 1780.35,-225.027 1729.49,-202.586"/>
<polygon fill="midnightblue" stroke="midnightblue" points="1730.86,-199.362 1720.29,-198.619 1728.09,-205.791 1730.86,-199.362"/>
</g>
<!-- Node17 -->
<g id="node17" class="node"><title>Node17</title>
<g id="a_node17"><a xlink:href="reflection_8h.html" target="_top" xlink:title="Reflection and serialization of compiler IR/AST nodes. ">
<polygon fill="white" stroke="black" points="1138.76,-481.5 1138.76,-500.5 1257.76,-500.5 1257.76,-481.5 1138.76,-481.5"/>
<text text-anchor="middle" x="1198.26" y="-488.5" font-family="Helvetica,sans-Serif" font-size="10.00">tvm/node/reflection.h</text>
</a>
</g>
</g>
<!-- Node14&#45;&gt;Node17 -->
<g id="edge24" class="edge"><title>Node14&#45;&gt;Node17</title>
<path fill="none" stroke="midnightblue" d="M1817.14,-542.029C1699.97,-532.558 1403.78,-508.614 1268.09,-497.645"/>
<polygon fill="midnightblue" stroke="midnightblue" points="1268.07,-494.132 1257.82,-496.815 1267.5,-501.109 1268.07,-494.132"/>
</g>
<!-- Node22 -->
<g id="node22" class="node"><title>Node22</title>
<polygon fill="white" stroke="#bfbfbf" points="1410.76,-179.5 1410.76,-198.5 1457.76,-198.5 1457.76,-179.5 1410.76,-179.5"/>
<text text-anchor="middle" x="1434.26" y="-186.5" font-family="Helvetica,sans-Serif" font-size="10.00">vector</text>
</g>
<!-- Node14&#45;&gt;Node22 -->
<g id="edge99" class="edge"><title>Node14&#45;&gt;Node22</title>
<path fill="none" stroke="midnightblue" d="M1865.23,-537.194C1861.94,-513.144 1849.32,-446.009 1808.26,-414 1732.53,-354.975 1679.96,-423.199 1595.26,-378 1523.3,-339.604 1533.28,-296.968 1480.26,-235 1471.36,-224.601 1460.44,-213.851 1451.48,-205.466"/>
<polygon fill="midnightblue" stroke="midnightblue" points="1453.64,-202.698 1443.91,-198.508 1448.9,-207.852 1453.64,-202.698"/>
</g>
<!-- Node30 -->
<g id="node30" class="node"><title>Node30</title>
<g id="a_node30"><a xlink:href="structural__equal_8h.html" target="_top" xlink:title="Structural equality comparison. ">
<polygon fill="white" stroke="black" points="1344.76,-414.5 1344.76,-444.5 1455.76,-444.5 1455.76,-414.5 1344.76,-414.5"/>
<text text-anchor="start" x="1352.76" y="-432.5" font-family="Helvetica,sans-Serif" font-size="10.00">tvm/node/structural</text>
<text text-anchor="middle" x="1400.26" y="-421.5" font-family="Helvetica,sans-Serif" font-size="10.00">_equal.h</text>
</a>
</g>
</g>
<!-- Node14&#45;&gt;Node30 -->
<g id="edge96" class="edge"><title>Node14&#45;&gt;Node30</title>
<path fill="none" stroke="midnightblue" d="M1824.5,-537.444C1782.98,-528.793 1717.53,-514.769 1661.26,-501 1591.66,-483.971 1512.25,-462.181 1459.48,-447.364"/>
<polygon fill="midnightblue" stroke="midnightblue" points="1460.2,-443.929 1449.62,-444.59 1458.3,-450.668 1460.2,-443.929"/>
</g>
<!-- Node14&#45;&gt;Node32 -->
<g id="edge95" class="edge"><title>Node14&#45;&gt;Node32</title>
<path fill="none" stroke="midnightblue" d="M1867.57,-537.215C1870.55,-513.791 1875.17,-449.229 1842.26,-414 1827.32,-398.011 1777.2,-386.228 1733.93,-378.739"/>
<polygon fill="midnightblue" stroke="midnightblue" points="1734.41,-375.27 1723.97,-377.067 1733.25,-382.174 1734.41,-375.27"/>
</g>
<!-- Node34 -->
<g id="node34" class="node"><title>Node34</title>
<g id="a_node34"><a xlink:href="structural__hash_8h.html" target="_top" xlink:title="tvm/node/structural\l_hash.h">
<polygon fill="white" stroke="black" points="1176.76,-414.5 1176.76,-444.5 1287.76,-444.5 1287.76,-414.5 1176.76,-414.5"/>
<text text-anchor="start" x="1184.76" y="-432.5" font-family="Helvetica,sans-Serif" font-size="10.00">tvm/node/structural</text>
<text text-anchor="middle" x="1232.26" y="-421.5" font-family="Helvetica,sans-Serif" font-size="10.00">_hash.h</text>
</a>
</g>
</g>
<!-- Node14&#45;&gt;Node34 -->
<g id="edge97" class="edge"><title>Node14&#45;&gt;Node34</title>
<path fill="none" stroke="midnightblue" d="M1817.1,-538.667C1761.11,-530.182 1666.94,-515.512 1586.26,-501 1485.44,-482.866 1369.04,-459.147 1298.06,-444.368"/>
<polygon fill="midnightblue" stroke="midnightblue" points="1298.43,-440.87 1287.93,-442.254 1297,-447.722 1298.43,-440.87"/>
</g>
<!-- Node35 -->
<g id="node35" class="node"><title>Node35</title>
<g id="a_node35"><a xlink:href="repr__printer_8h.html" target="_top" xlink:title="Printer class to print repr string of each AST/IR nodes. ">
<polygon fill="white" stroke="black" points="1670.26,-481.5 1670.26,-500.5 1800.26,-500.5 1800.26,-481.5 1670.26,-481.5"/>
<text text-anchor="middle" x="1735.26" y="-488.5" font-family="Helvetica,sans-Serif" font-size="10.00">tvm/node/repr_printer.h</text>
</a>
</g>
</g>
<!-- Node14&#45;&gt;Node35 -->
<g id="edge92" class="edge"><title>Node14&#45;&gt;Node35</title>
<path fill="none" stroke="midnightblue" d="M1845.5,-537.444C1823.94,-528.557 1789.99,-514.563 1765.46,-504.451"/>
<polygon fill="midnightblue" stroke="midnightblue" points="1766.5,-501.092 1755.92,-500.516 1763.83,-507.563 1766.5,-501.092"/>
</g>
<!-- Node15&#45;&gt;Node3 -->
<g id="edge20" class="edge"><title>Node15&#45;&gt;Node3</title>
<path fill="none" stroke="midnightblue" d="M1655.95,-179.444C1609.18,-169.984 1533.8,-154.738 1483.41,-144.547"/>
<polygon fill="midnightblue" stroke="midnightblue" points="1483.86,-141.068 1473.37,-142.516 1482.47,-147.929 1483.86,-141.068"/>
</g>
<!-- Node15&#45;&gt;Node9 -->
<g id="edge23" class="edge"><title>Node15&#45;&gt;Node9</title>
<path fill="none" stroke="midnightblue" d="M1698.16,-179.434C1698.51,-165.496 1701.31,-137.964 1717.26,-123 1743.01,-98.8372 1840.11,-83.9953 1898,-77.1021"/>
<polygon fill="midnightblue" stroke="midnightblue" points="1898.45,-80.5736 1907.98,-75.9461 1897.64,-73.6201 1898.45,-80.5736"/>
</g>
<!-- Node15&#45;&gt;Node11 -->
<g id="edge22" class="edge"><title>Node15&#45;&gt;Node11</title>
<path fill="none" stroke="midnightblue" d="M1676.11,-179.427C1639.59,-165.603 1564.21,-138.385 1498.26,-123 1383,-96.1143 1242.74,-80.9885 1181.44,-75.2295"/>
<polygon fill="midnightblue" stroke="midnightblue" points="1181.56,-71.7253 1171.28,-74.293 1180.91,-78.6958 1181.56,-71.7253"/>
</g>
<!-- Node16 -->
<g id="node16" class="node"><title>Node16</title>
<polygon fill="white" stroke="#bfbfbf" points="1726.76,-123.5 1726.76,-142.5 1773.76,-142.5 1773.76,-123.5 1726.76,-123.5"/>
<text text-anchor="middle" x="1750.26" y="-130.5" font-family="Helvetica,sans-Serif" font-size="10.00">cstdlib</text>
</g>
<!-- Node15&#45;&gt;Node16 -->
<g id="edge21" class="edge"><title>Node15&#45;&gt;Node16</title>
<path fill="none" stroke="midnightblue" d="M1706.84,-179.083C1714.42,-171.22 1725.63,-159.569 1734.77,-150.081"/>
<polygon fill="midnightblue" stroke="midnightblue" points="1737.41,-152.382 1741.83,-142.751 1732.37,-147.527 1737.41,-152.382"/>
</g>
<!-- Node17&#45;&gt;Node3 -->
<g id="edge26" class="edge"><title>Node17&#45;&gt;Node3</title>
<path fill="none" stroke="midnightblue" d="M1187.54,-481.305C1178.32,-473.069 1165.67,-459.789 1160.26,-445 1136.13,-379.044 1129.41,-327.051 1207.26,-235 1250.25,-184.156 1324.1,-157.765 1375.18,-144.91"/>
<polygon fill="midnightblue" stroke="midnightblue" points="1376.18,-148.269 1385.08,-142.516 1374.54,-141.465 1376.18,-148.269"/>
</g>
<!-- Node17&#45;&gt;Node5 -->
<g id="edge25" class="edge"><title>Node17&#45;&gt;Node5</title>
<path fill="none" stroke="midnightblue" d="M1138.55,-487.77C1010.54,-482.602 713.38,-468.428 615.256,-445 400.106,-393.632 278.239,-438.858 155.256,-255 113.382,-192.399 209.073,-124.089 264.024,-91.6577"/>
<polygon fill="midnightblue" stroke="midnightblue" points="265.891,-94.6212 272.792,-86.5821 262.384,-88.5631 265.891,-94.6212"/>
</g>
<!-- Node17&#45;&gt;Node9 -->
<g id="edge91" class="edge"><title>Node17&#45;&gt;Node9</title>
<path fill="none" stroke="midnightblue" d="M1258,-484.756C1319.45,-478.514 1417.58,-466.175 1500.26,-445 1538.81,-435.127 1546.01,-424.995 1584.26,-414 1659.32,-392.421 1690.93,-420.803 1756.26,-378 1862.79,-308.199 1865.64,-258.059 1920.26,-143 1928.32,-126.016 1934.36,-105.36 1938.05,-90.81"/>
<polygon fill="midnightblue" stroke="midnightblue" points="1941.47,-91.5777 1940.41,-81.0355 1934.67,-89.9345 1941.47,-91.5777"/>
</g>
<!-- Node17&#45;&gt;Node10 -->
<g id="edge90" class="edge"><title>Node17&#45;&gt;Node10</title>
<path fill="none" stroke="midnightblue" d="M1257.94,-485.299C1329.37,-479.03 1452.37,-466.189 1556.26,-445 1751.86,-405.102 1796.51,-377.539 1988.26,-322 2103.08,-288.744 2246.26,-365.538 2246.26,-246 2246.26,-246 2246.26,-246 2246.26,-188 2246.26,-157.205 2253.46,-148.812 2270.26,-123 2279.12,-109.383 2292.26,-96.6579 2303.12,-87.3876"/>
<polygon fill="midnightblue" stroke="midnightblue" points="2305.37,-90.0702 2310.87,-81.0144 2300.92,-84.6642 2305.37,-90.0702"/>
</g>
<!-- Node17&#45;&gt;Node13 -->
<g id="edge63" class="edge"><title>Node17&#45;&gt;Node13</title>
<path fill="none" stroke="midnightblue" d="M1138.49,-489.296C1047.08,-487.122 867.532,-478.518 719.256,-445 634.775,-425.903 615.961,-411.897 536.256,-378 443.894,-338.72 337.822,-284.209 290.42,-259.334"/>
<polygon fill="midnightblue" stroke="midnightblue" points="291.962,-256.191 281.482,-254.63 288.701,-262.385 291.962,-256.191"/>
</g>
<!-- Node17&#45;&gt;Node15 -->
<g id="edge27" class="edge"><title>Node17&#45;&gt;Node15</title>
<path fill="none" stroke="midnightblue" d="M1257.92,-487.463C1313.24,-483.38 1396.91,-472.735 1464.26,-445 1486.38,-435.89 1486.1,-423.019 1508.26,-414 1601.65,-375.985 1655.76,-443.694 1732.26,-378 1780.64,-336.447 1772.09,-292.386 1744.26,-235 1738.58,-223.302 1728.56,-212.94 1719.32,-205.117"/>
<polygon fill="midnightblue" stroke="midnightblue" points="1721.21,-202.148 1711.19,-198.681 1716.86,-207.634 1721.21,-202.148"/>
</g>
<!-- Node18 -->
<g id="node18" class="node"><title>Node18</title>
<g id="a_node18"><a xlink:href="packed__func_8h.html" target="_top" xlink:title="Type&#45;erased function used across TVM API. ">
<polygon fill="white" stroke="black" points="624.756,-291.5 624.756,-321.5 737.756,-321.5 737.756,-291.5 624.756,-291.5"/>
<text text-anchor="start" x="632.756" y="-309.5" font-family="Helvetica,sans-Serif" font-size="10.00">tvm/runtime/packed</text>
<text text-anchor="middle" x="681.256" y="-298.5" font-family="Helvetica,sans-Serif" font-size="10.00">_func.h</text>
</a>
</g>
</g>
<!-- Node17&#45;&gt;Node18 -->
<g id="edge28" class="edge"><title>Node17&#45;&gt;Node18</title>
<path fill="none" stroke="midnightblue" d="M1138.48,-490.855C1031.73,-491.277 813.707,-486.802 752.256,-445 713.139,-418.391 694.242,-363.329 686.257,-331.549"/>
<polygon fill="midnightblue" stroke="midnightblue" points="689.646,-330.673 683.953,-321.738 682.832,-332.273 689.646,-330.673"/>
</g>
<!-- Node17&#45;&gt;Node22 -->
<g id="edge89" class="edge"><title>Node17&#45;&gt;Node22</title>
<path fill="none" stroke="midnightblue" d="M1190.06,-481.448C1177.49,-467.256 1156.05,-438.021 1167.26,-414 1193.9,-356.873 1354.03,-244.357 1412.72,-204.453"/>
<polygon fill="midnightblue" stroke="midnightblue" points="1414.91,-207.196 1421.23,-198.692 1410.99,-201.399 1414.91,-207.196"/>
</g>
<!-- Node24 -->
<g id="node24" class="node"><title>Node24</title>
<g id="a_node24"><a xlink:href="ndarray_8h.html" target="_top" xlink:title="A device&#45;independent managed NDArray abstraction. ">
<polygon fill="white" stroke="black" points="742.756,-235.5 742.756,-254.5 865.756,-254.5 865.756,-235.5 742.756,-235.5"/>
<text text-anchor="middle" x="804.256" y="-242.5" font-family="Helvetica,sans-Serif" font-size="10.00">tvm/runtime/ndarray.h</text>
</a>
</g>
</g>
<!-- Node17&#45;&gt;Node24 -->
<g id="edge62" class="edge"><title>Node17&#45;&gt;Node24</title>
<path fill="none" stroke="midnightblue" d="M1159.36,-481.438C1130.41,-474.147 1090.51,-462.11 1058.26,-445 958.465,-392.056 858.281,-299.042 820.244,-261.938"/>
<polygon fill="midnightblue" stroke="midnightblue" points="822.676,-259.421 813.093,-254.903 817.767,-264.411 822.676,-259.421"/>
</g>
<!-- Node17&#45;&gt;Node30 -->
<g id="edge64" class="edge"><title>Node17&#45;&gt;Node30</title>
<path fill="none" stroke="midnightblue" d="M1227.2,-481.475C1257.24,-472.626 1305.03,-458.549 1342.79,-447.428"/>
<polygon fill="midnightblue" stroke="midnightblue" points="1344.05,-450.706 1352.65,-444.523 1342.07,-443.991 1344.05,-450.706"/>
</g>
<!-- Node17&#45;&gt;Node34 -->
<g id="edge83" class="edge"><title>Node17&#45;&gt;Node34</title>
<path fill="none" stroke="midnightblue" d="M1203.13,-481.475C1207.3,-474.17 1213.51,-463.302 1219.13,-453.475"/>
<polygon fill="midnightblue" stroke="midnightblue" points="1222.32,-454.942 1224.24,-444.523 1216.24,-451.469 1222.32,-454.942"/>
</g>
<!-- Node18&#45;&gt;Node3 -->
<g id="edge53" class="edge"><title>Node18&#45;&gt;Node3</title>
<path fill="none" stroke="midnightblue" d="M737.948,-297.19C784.603,-289.338 851.972,-275.653 908.256,-255 926.173,-248.425 928.412,-241.771 946.256,-235 958.451,-230.373 1161.49,-181.682 1174.26,-179 1239.3,-165.335 1314.2,-152.552 1366.3,-144.129"/>
<polygon fill="midnightblue" stroke="midnightblue" points="1367.09,-147.547 1376.4,-142.504 1365.98,-140.636 1367.09,-147.547"/>
</g>
<!-- Node18&#45;&gt;Node4 -->
<g id="edge29" class="edge"><title>Node18&#45;&gt;Node4</title>
<path fill="none" stroke="midnightblue" d="M624.7,-296.05C563.167,-285.224 472.057,-267.387 461.256,-255 421.513,-209.421 446.857,-160.552 494.256,-123 518.131,-104.085 549.891,-91.6395 576.274,-83.837"/>
<polygon fill="midnightblue" stroke="midnightblue" points="577.419,-87.1509 586.095,-81.0701 575.521,-80.4132 577.419,-87.1509"/>
</g>
<!-- Node18&#45;&gt;Node5 -->
<g id="edge30" class="edge"><title>Node18&#45;&gt;Node5</title>
<path fill="none" stroke="midnightblue" d="M624.707,-295.524C559.566,-283.709 459.5,-264.444 444.256,-255 379.563,-214.919 331.668,-135.238 310.803,-95.7686"/>
<polygon fill="midnightblue" stroke="midnightblue" points="313.79,-93.9239 306.087,-86.649 307.572,-97.1394 313.79,-93.9239"/>
</g>
<!-- Node18&#45;&gt;Node9 -->
<g id="edge61" class="edge"><title>Node18&#45;&gt;Node9</title>
<path fill="none" stroke="midnightblue" d="M737.913,-294.983C777.102,-286.678 829.959,-273.407 874.256,-255 890.446,-248.273 892.224,-242.095 908.256,-235 984.87,-201.092 1007.1,-199.83 1088.26,-179 1209.07,-147.99 1239.82,-140.892 1363.26,-123 1561.73,-94.2313 1801.03,-79.6934 1898.13,-74.6304"/>
<polygon fill="midnightblue" stroke="midnightblue" points="1898.36,-78.1233 1908.16,-74.1145 1898,-71.1325 1898.36,-78.1233"/>
</g>
<!-- Node18&#45;&gt;Node10 -->
<g id="edge57" class="edge"><title>Node18&#45;&gt;Node10</title>
<path fill="none" stroke="midnightblue" d="M737.917,-301.797C851.016,-294.251 1112.77,-276.022 1332.26,-255 1550.89,-234.059 1608.02,-242.752 1823.26,-199 1939.98,-175.273 1964.75,-152.079 2080.26,-123 2154.78,-104.239 2243.44,-87.0175 2290.01,-78.3597"/>
<polygon fill="midnightblue" stroke="midnightblue" points="2290.9,-81.7543 2300.1,-76.4957 2289.63,-74.8708 2290.9,-81.7543"/>
</g>
<!-- Node18&#45;&gt;Node11 -->
<g id="edge60" class="edge"><title>Node18&#45;&gt;Node11</title>
<path fill="none" stroke="midnightblue" d="M624.74,-292.514C585.155,-282.549 536.539,-268.291 520.256,-255 491.996,-231.932 470.19,-210.101 489.256,-179 517.928,-132.229 546.55,-138.221 599.256,-123 698.096,-94.4557 1017.27,-78.324 1118.88,-73.8166"/>
<polygon fill="midnightblue" stroke="midnightblue" points="1119.26,-77.3034 1129.1,-73.3702 1118.96,-70.3101 1119.26,-77.3034"/>
</g>
<!-- Node18&#45;&gt;Node13 -->
<g id="edge52" class="edge"><title>Node18&#45;&gt;Node13</title>
<path fill="none" stroke="midnightblue" d="M624.72,-297.414C549.41,-286.642 416.241,-267.595 334.847,-255.953"/>
<polygon fill="midnightblue" stroke="midnightblue" points="335.091,-252.453 324.696,-254.502 334.1,-259.382 335.091,-252.453"/>
</g>
<!-- Node19 -->
<g id="node19" class="node"><title>Node19</title>
<g id="a_node19"><a xlink:href="runtime_2module_8h.html" target="_top" xlink:title="Runtime container of the functions generated by TVM, This is used to support dynamically link...">
<polygon fill="white" stroke="black" points="541.256,-235.5 541.256,-254.5 665.256,-254.5 665.256,-235.5 541.256,-235.5"/>
<text text-anchor="middle" x="603.256" y="-242.5" font-family="Helvetica,sans-Serif" font-size="10.00">tvm/runtime/module.h</text>
</a>
</g>
</g>
<!-- Node18&#45;&gt;Node19 -->
<g id="edge31" class="edge"><title>Node18&#45;&gt;Node19</title>
<path fill="none" stroke="midnightblue" d="M656.931,-291.399C643.974,-282.397 628.613,-270.721 617.525,-261.465"/>
<polygon fill="midnightblue" stroke="midnightblue" points="619.524,-258.566 609.676,-254.658 614.938,-263.854 619.524,-258.566"/>
</g>
<!-- Node21 -->
<g id="node21" class="node"><title>Node21</title>
<polygon fill="white" stroke="#bfbfbf" points="498.756,-179.5 498.756,-198.5 555.756,-198.5 555.756,-179.5 498.756,-179.5"/>
<text text-anchor="middle" x="527.256" y="-186.5" font-family="Helvetica,sans-Serif" font-size="10.00">memory</text>
</g>
<!-- Node18&#45;&gt;Node21 -->
<g id="edge59" class="edge"><title>Node18&#45;&gt;Node21</title>
<path fill="none" stroke="midnightblue" d="M624.426,-293.091C587.447,-283.787 543.985,-270.1 532.256,-255 522.176,-242.023 521.921,-222.858 523.589,-208.699"/>
<polygon fill="midnightblue" stroke="midnightblue" points="527.077,-209.055 525.189,-198.63 520.163,-207.957 527.077,-209.055"/>
</g>
<!-- Node18&#45;&gt;Node22 -->
<g id="edge56" class="edge"><title>Node18&#45;&gt;Node22</title>
<path fill="none" stroke="midnightblue" d="M737.839,-298.841C792.19,-291.486 876.16,-277.595 946.256,-255 966.317,-248.533 968.932,-240.583 989.256,-235 1138.41,-194.029 1324.89,-189.573 1400.29,-189.612"/>
<polygon fill="midnightblue" stroke="midnightblue" points="1400.58,-193.113 1410.59,-189.647 1400.6,-186.113 1400.58,-193.113"/>
</g>
<!-- Node18&#45;&gt;Node24 -->
<g id="edge41" class="edge"><title>Node18&#45;&gt;Node24</title>
<path fill="none" stroke="midnightblue" d="M710.405,-291.399C730.674,-281.595 757.497,-268.619 777.275,-259.052"/>
<polygon fill="midnightblue" stroke="midnightblue" points="778.881,-262.163 786.359,-254.658 775.832,-255.862 778.881,-262.163"/>
</g>
<!-- Node27 -->
<g id="node27" class="node"><title>Node27</title>
<polygon fill="white" stroke="#bfbfbf" points="1058.76,-235.5 1058.76,-254.5 1121.76,-254.5 1121.76,-235.5 1058.76,-235.5"/>
<text text-anchor="middle" x="1090.26" y="-242.5" font-family="Helvetica,sans-Serif" font-size="10.00">functional</text>
</g>
<!-- Node18&#45;&gt;Node27 -->
<g id="edge54" class="edge"><title>Node18&#45;&gt;Node27</title>
<path fill="none" stroke="midnightblue" d="M737.897,-297.981C826.932,-286.126 994.312,-263.685 1048.5,-254.925"/>
<polygon fill="midnightblue" stroke="midnightblue" points="1049.25,-258.349 1058.52,-253.228 1048.08,-251.447 1049.25,-258.349"/>
</g>
<!-- Node28 -->
<g id="node28" class="node"><title>Node28</title>
<polygon fill="white" stroke="#bfbfbf" points="683.756,-235.5 683.756,-254.5 724.756,-254.5 724.756,-235.5 683.756,-235.5"/>
<text text-anchor="middle" x="704.256" y="-242.5" font-family="Helvetica,sans-Serif" font-size="10.00">tuple</text>
</g>
<!-- Node18&#45;&gt;Node28 -->
<g id="edge55" class="edge"><title>Node18&#45;&gt;Node28</title>
<path fill="none" stroke="midnightblue" d="M686.707,-291.399C689.877,-283.199 693.904,-272.781 697.301,-263.994"/>
<polygon fill="midnightblue" stroke="midnightblue" points="700.568,-265.247 700.909,-254.658 694.039,-262.723 700.568,-265.247"/>
</g>
<!-- Node29 -->
<g id="node29" class="node"><title>Node29</title>
<polygon fill="white" stroke="#bfbfbf" points="998.256,-235.5 998.256,-254.5 1040.26,-254.5 1040.26,-235.5 998.256,-235.5"/>
<text text-anchor="middle" x="1019.26" y="-242.5" font-family="Helvetica,sans-Serif" font-size="10.00">limits</text>
</g>
<!-- Node18&#45;&gt;Node29 -->
<g id="edge58" class="edge"><title>Node18&#45;&gt;Node29</title>
<path fill="none" stroke="midnightblue" d="M737.933,-297.552C799.014,-288.637 898.949,-273.042 984.256,-255 985.534,-254.73 986.835,-254.444 988.147,-254.147"/>
<polygon fill="midnightblue" stroke="midnightblue" points="989.323,-257.464 998.226,-251.722 987.685,-250.658 989.323,-257.464"/>
</g>
<!-- Node19&#45;&gt;Node3 -->
<g id="edge34" class="edge"><title>Node19&#45;&gt;Node3</title>
<path fill="none" stroke="midnightblue" d="M658.59,-235.466C742.978,-222.561 908.948,-197.616 1050.26,-179 1159.27,-164.638 1286.13,-150.086 1362.48,-141.561"/>
<polygon fill="midnightblue" stroke="midnightblue" points="1362.9,-145.036 1372.45,-140.45 1362.13,-138.079 1362.9,-145.036"/>
</g>
<!-- Node19&#45;&gt;Node5 -->
<g id="edge33" class="edge"><title>Node19&#45;&gt;Node5</title>
<path fill="none" stroke="midnightblue" d="M600.108,-235.197C594.766,-221.419 582.679,-194.715 564.256,-179 508.894,-131.774 429.916,-103.694 372.593,-88.3293"/>
<polygon fill="midnightblue" stroke="midnightblue" points="373.431,-84.9307 362.871,-85.789 371.661,-91.7034 373.431,-84.9307"/>
</g>
<!-- Node19&#45;&gt;Node10 -->
<g id="edge38" class="edge"><title>Node19&#45;&gt;Node10</title>
<path fill="none" stroke="midnightblue" d="M665.56,-235.769C668.497,-235.486 671.407,-235.227 674.256,-235 917.174,-215.657 1530.23,-241.053 1770.26,-199 1877.96,-180.13 1897.93,-148.542 2004.26,-123 2107.36,-98.2308 2232.27,-82.4412 2290.06,-75.9236"/>
<polygon fill="midnightblue" stroke="midnightblue" points="2290.49,-79.3967 2300.05,-74.8144 2289.72,-72.4395 2290.49,-79.3967"/>
</g>
<!-- Node19&#45;&gt;Node15 -->
<g id="edge35" class="edge"><title>Node19&#45;&gt;Node15</title>
<path fill="none" stroke="midnightblue" d="M665.563,-235.808C668.5,-235.514 671.409,-235.243 674.256,-235 767.96,-227.016 1405.15,-201.533 1624.36,-192.895"/>
<polygon fill="midnightblue" stroke="midnightblue" points="1624.62,-196.388 1634.48,-192.497 1624.35,-189.393 1624.62,-196.388"/>
</g>
<!-- Node19&#45;&gt;Node18 -->
<g id="edge40" class="edge"><title>Node19&#45;&gt;Node18</title>
<path fill="none" stroke="midnightblue" d="M619.535,-254.658C631.591,-262.558 647.813,-274.543 660.701,-284.893"/>
<polygon fill="midnightblue" stroke="midnightblue" points="658.664,-287.75 668.611,-291.399 663.111,-282.344 658.664,-287.75"/>
</g>
<!-- Node20 -->
<g id="node20" class="node"><title>Node20</title>
<polygon fill="white" stroke="#bfbfbf" points="608.256,-123.5 608.256,-142.5 668.256,-142.5 668.256,-123.5 608.256,-123.5"/>
<text text-anchor="middle" x="638.256" y="-130.5" font-family="Helvetica,sans-Serif" font-size="10.00">dmlc/io.h</text>
</g>
<!-- Node19&#45;&gt;Node20 -->
<g id="edge32" class="edge"><title>Node19&#45;&gt;Node20</title>
<path fill="none" stroke="midnightblue" d="M606.003,-235.368C611.676,-217.537 624.799,-176.295 632.442,-152.272"/>
<polygon fill="midnightblue" stroke="midnightblue" points="635.826,-153.182 635.522,-142.591 629.155,-151.059 635.826,-153.182"/>
</g>
<!-- Node19&#45;&gt;Node21 -->
<g id="edge36" class="edge"><title>Node19&#45;&gt;Node21</title>
<path fill="none" stroke="midnightblue" d="M591.045,-235.324C579.48,-227.107 561.881,-214.602 548.095,-204.807"/>
<polygon fill="midnightblue" stroke="midnightblue" points="549.868,-201.773 539.689,-198.834 545.814,-207.479 549.868,-201.773"/>
</g>
<!-- Node19&#45;&gt;Node22 -->
<g id="edge37" class="edge"><title>Node19&#45;&gt;Node22</title>
<path fill="none" stroke="midnightblue" d="M665.568,-235.862C668.503,-235.554 671.411,-235.264 674.256,-235 954.182,-209 1293.59,-195.14 1400.4,-191.195"/>
<polygon fill="midnightblue" stroke="midnightblue" points="1400.71,-194.687 1410.57,-190.824 1400.45,-187.691 1400.71,-194.687"/>
</g>
<!-- Node23 -->
<g id="node23" class="node"><title>Node23</title>
<polygon fill="white" stroke="#bfbfbf" points="45.7561,-179.5 45.7561,-198.5 138.756,-198.5 138.756,-179.5 45.7561,-179.5"/>
<text text-anchor="middle" x="92.2561" y="-186.5" font-family="Helvetica,sans-Serif" font-size="10.00">unordered_map</text>
</g>
<!-- Node19&#45;&gt;Node23 -->
<g id="edge39" class="edge"><title>Node19&#45;&gt;Node23</title>
<path fill="none" stroke="midnightblue" d="M541.108,-237.433C441.023,-226.856 245.609,-206.206 149.049,-196.002"/>
<polygon fill="midnightblue" stroke="midnightblue" points="149.209,-192.499 138.897,-194.929 148.473,-199.46 149.209,-192.499"/>
</g>
<!-- Node24&#45;&gt;Node3 -->
<g id="edge43" class="edge"><title>Node24&#45;&gt;Node3</title>
<path fill="none" stroke="midnightblue" d="M865.765,-236.471C916.05,-229.432 988.643,-217.243 1050.26,-199 1072.42,-192.439 1075.95,-185.043 1098.26,-179 1187.7,-154.769 1294.35,-143.283 1362.42,-138.055"/>
<polygon fill="midnightblue" stroke="midnightblue" points="1362.88,-141.53 1372.59,-137.298 1362.36,-134.55 1362.88,-141.53"/>
</g>
<!-- Node24&#45;&gt;Node5 -->
<g id="edge42" class="edge"><title>Node24&#45;&gt;Node5</title>
<path fill="none" stroke="midnightblue" d="M778.687,-235.369C753.287,-226.661 713.317,-212.594 679.256,-199 601.258,-167.87 585.798,-149.944 506.256,-123 462.814,-108.285 412.894,-95.9771 372.962,-87.197"/>
<polygon fill="midnightblue" stroke="midnightblue" points="373.55,-83.7432 363.035,-85.0415 372.064,-90.5838 373.55,-83.7432"/>
</g>
<!-- Node24&#45;&gt;Node11 -->
<g id="edge51" class="edge"><title>Node24&#45;&gt;Node11</title>
<path fill="none" stroke="midnightblue" d="M811.598,-235.442C831.121,-213.251 886.897,-153.467 946.256,-123 1003.14,-93.8038 1077.74,-80.9154 1119.15,-75.6893"/>
<polygon fill="midnightblue" stroke="midnightblue" points="1119.66,-79.1534 1129.17,-74.4931 1118.83,-72.2028 1119.66,-79.1534"/>
</g>
<!-- Node24&#45;&gt;Node12 -->
<g id="edge49" class="edge"><title>Node24&#45;&gt;Node12</title>
<path fill="none" stroke="midnightblue" d="M820.951,-235.334C847.135,-221.979 899.687,-196.12 946.256,-179 1069.26,-133.779 1220.69,-96.2952 1288.06,-80.5214"/>
<polygon fill="midnightblue" stroke="midnightblue" points="1289.19,-83.8529 1298.13,-78.1784 1287.6,-77.0348 1289.19,-83.8529"/>
</g>
<!-- Node24&#45;&gt;Node22 -->
<g id="edge50" class="edge"><title>Node24&#45;&gt;Node22</title>
<path fill="none" stroke="midnightblue" d="M865.81,-238.724C996.788,-227.497 1299.38,-201.561 1400.59,-192.886"/>
<polygon fill="midnightblue" stroke="midnightblue" points="1400.9,-196.372 1410.56,-192.031 1400.3,-189.398 1400.9,-196.372"/>
</g>
<!-- Node25 -->
<g id="node25" class="node"><title>Node25</title>
<g id="a_node25"><a xlink:href="serializer_8h.html" target="_top" xlink:title="Serializer extension to support TVM data types Include this file to enable serialization of DLDataTyp...">
<polygon fill="white" stroke="black" points="688.256,-179.5 688.256,-198.5 818.256,-198.5 818.256,-179.5 688.256,-179.5"/>
<text text-anchor="middle" x="753.256" y="-186.5" font-family="Helvetica,sans-Serif" font-size="10.00">tvm/runtime/serializer.h</text>
</a>
</g>
</g>
<!-- Node24&#45;&gt;Node25 -->
<g id="edge44" class="edge"><title>Node24&#45;&gt;Node25</title>
<path fill="none" stroke="midnightblue" d="M790.947,-235.324C782.043,-227.654 770.877,-216.25 762.82,-206.8"/>
<polygon fill="midnightblue" stroke="midnightblue" points="765.429,-204.458 756.451,-198.834 759.962,-208.83 765.429,-204.458"/>
</g>
<!-- Node25&#45;&gt;Node5 -->
<g id="edge47" class="edge"><title>Node25&#45;&gt;Node5</title>
<path fill="none" stroke="midnightblue" d="M746.326,-179.496C734.075,-165.128 707.057,-136.315 677.256,-123 624.4,-99.3847 467.365,-84.4677 373.148,-77.3851"/>
<polygon fill="midnightblue" stroke="midnightblue" points="373.339,-73.8897 363.108,-76.642 372.822,-80.8706 373.339,-73.8897"/>
</g>
<!-- Node25&#45;&gt;Node20 -->
<g id="edge45" class="edge"><title>Node25&#45;&gt;Node20</title>
<path fill="none" stroke="midnightblue" d="M735.034,-179.444C716.36,-170.675 687.1,-156.935 665.639,-146.858"/>
<polygon fill="midnightblue" stroke="midnightblue" points="666.932,-143.599 656.393,-142.516 663.957,-149.935 666.932,-143.599"/>
</g>
<!-- Node25&#45;&gt;Node24 -->
<g id="edge48" class="edge"><title>Node25&#45;&gt;Node24</title>
<path fill="none" stroke="midnightblue" d="M766.652,-198.751C775.524,-206.405 786.618,-217.736 794.644,-227.144"/>
<polygon fill="midnightblue" stroke="midnightblue" points="792.018,-229.465 801.001,-235.083 797.483,-225.089 792.018,-229.465"/>
</g>
<!-- Node26 -->
<g id="node26" class="node"><title>Node26</title>
<polygon fill="white" stroke="#bfbfbf" points="724.256,-123.5 724.256,-142.5 818.256,-142.5 818.256,-123.5 724.256,-123.5"/>
<text text-anchor="middle" x="771.256" y="-130.5" font-family="Helvetica,sans-Serif" font-size="10.00">dmlc/serializer.h</text>
</g>
<!-- Node25&#45;&gt;Node26 -->
<g id="edge46" class="edge"><title>Node25&#45;&gt;Node26</title>
<path fill="none" stroke="midnightblue" d="M756.228,-179.083C758.64,-171.849 762.12,-161.409 765.124,-152.397"/>
<polygon fill="midnightblue" stroke="midnightblue" points="768.497,-153.345 768.339,-142.751 761.856,-151.131 768.497,-153.345"/>
</g>
<!-- Node30&#45;&gt;Node10 -->
<g id="edge82" class="edge"><title>Node30&#45;&gt;Node10</title>
<path fill="none" stroke="midnightblue" d="M1455.84,-424.584C1528.18,-418.637 1658.14,-405.038 1766.26,-378 1947.37,-332.708 1993.16,-305.831 2146.26,-199 2188.09,-169.811 2190.67,-152.536 2232.26,-123 2252.41,-108.688 2276.98,-95.1364 2295.35,-85.6814"/>
<polygon fill="midnightblue" stroke="midnightblue" points="2297,-88.7699 2304.34,-81.1282 2293.83,-82.5256 2297,-88.7699"/>
</g>
<!-- Node30&#45;&gt;Node13 -->
<g id="edge65" class="edge"><title>Node30&#45;&gt;Node13</title>
<path fill="none" stroke="midnightblue" d="M1344.68,-420.642C1329.02,-418.459 1311.98,-416.109 1296.26,-414 979.139,-371.464 894.889,-390.067 582.256,-322 536.79,-312.101 527.311,-302.626 482.256,-291 428.684,-277.176 366.828,-264.684 322.898,-256.389"/>
<polygon fill="midnightblue" stroke="midnightblue" points="323.444,-252.93 312.97,-254.528 322.154,-259.811 323.444,-252.93"/>
</g>
<!-- Node31 -->
<g id="node31" class="node"><title>Node31</title>
<g id="a_node31"><a xlink:href="functor_8h.html" target="_top" xlink:title="Defines the Functor data structures. ">
<polygon fill="white" stroke="black" points="1216.76,-235.5 1216.76,-254.5 1323.76,-254.5 1323.76,-235.5 1216.76,-235.5"/>
<text text-anchor="middle" x="1270.26" y="-242.5" font-family="Helvetica,sans-Serif" font-size="10.00">tvm/node/functor.h</text>
</a>
</g>
</g>
<!-- Node30&#45;&gt;Node31 -->
<g id="edge66" class="edge"><title>Node30&#45;&gt;Node31</title>
<path fill="none" stroke="midnightblue" d="M1360.14,-414.382C1342.28,-406.255 1322.37,-394.354 1309.26,-378 1282.32,-344.392 1273.98,-292.671 1271.4,-265.005"/>
<polygon fill="midnightblue" stroke="midnightblue" points="1274.87,-264.446 1270.61,-254.744 1267.89,-264.982 1274.87,-264.446"/>
</g>
<!-- Node30&#45;&gt;Node32 -->
<g id="edge72" class="edge"><title>Node30&#45;&gt;Node32</title>
<path fill="none" stroke="midnightblue" d="M1455.92,-415.954C1503.6,-405.209 1571.52,-389.901 1616.7,-379.719"/>
<polygon fill="midnightblue" stroke="midnightblue" points="1617.55,-383.114 1626.54,-377.501 1616.01,-376.285 1617.55,-383.114"/>
</g>
<!-- Node31&#45;&gt;Node3 -->
<g id="edge68" class="edge"><title>Node31&#45;&gt;Node3</title>
<path fill="none" stroke="midnightblue" d="M1282.89,-235.368C1310.52,-216.492 1376.54,-171.385 1410.42,-148.237"/>
<polygon fill="midnightblue" stroke="midnightblue" points="1412.4,-151.123 1418.68,-142.591 1408.45,-145.343 1412.4,-151.123"/>
</g>
<!-- Node31&#45;&gt;Node4 -->
<g id="edge67" class="edge"><title>Node31&#45;&gt;Node4</title>
<path fill="none" stroke="midnightblue" d="M1239.97,-235.497C1168.34,-215.439 982.847,-163.79 827.256,-123 773.674,-108.953 711.845,-93.5373 671.067,-83.4795"/>
<polygon fill="midnightblue" stroke="midnightblue" points="671.718,-80.0353 661.171,-81.042 670.043,-86.8322 671.718,-80.0353"/>
</g>
<!-- Node31&#45;&gt;Node9 -->
<g id="edge70" class="edge"><title>Node31&#45;&gt;Node9</title>
<path fill="none" stroke="midnightblue" d="M1289.36,-235.393C1308.67,-226.589 1339.29,-212.347 1365.26,-199 1381.54,-190.633 1384.07,-185.289 1401.26,-179 1578.67,-114.09 1804.06,-85.9666 1898.02,-76.4874"/>
<polygon fill="midnightblue" stroke="midnightblue" points="1898.41,-79.9654 1908.02,-75.499 1897.73,-72.9993 1898.41,-79.9654"/>
</g>
<!-- Node31&#45;&gt;Node11 -->
<g id="edge71" class="edge"><title>Node31&#45;&gt;Node11</title>
<path fill="none" stroke="midnightblue" d="M1264.14,-235.26C1245.2,-208.191 1187.28,-125.413 1162.12,-89.4622"/>
<polygon fill="midnightblue" stroke="midnightblue" points="1164.82,-87.2063 1156.22,-81.0194 1159.08,-91.2194 1164.82,-87.2063"/>
</g>
<!-- Node31&#45;&gt;Node22 -->
<g id="edge69" class="edge"><title>Node31&#45;&gt;Node22</title>
<path fill="none" stroke="midnightblue" d="M1296.24,-235.444C1324.48,-226.145 1369.7,-211.257 1400.63,-201.073"/>
<polygon fill="midnightblue" stroke="midnightblue" points="1402.12,-204.267 1410.52,-197.815 1399.93,-197.618 1402.12,-204.267"/>
</g>
<!-- Node32&#45;&gt;Node3 -->
<g id="edge73" class="edge"><title>Node32&#45;&gt;Node3</title>
<path fill="none" stroke="midnightblue" d="M1657.28,-358.313C1650.79,-349.674 1641.5,-335.757 1637.26,-322 1625.85,-284.987 1651.86,-268.402 1632.26,-235 1614.06,-203.991 1518.05,-165.337 1465.58,-146.079"/>
<polygon fill="midnightblue" stroke="midnightblue" points="1466.61,-142.727 1456.01,-142.604 1464.22,-149.307 1466.61,-142.727"/>
</g>
<!-- Node32&#45;&gt;Node9 -->
<g id="edge76" class="edge"><title>Node32&#45;&gt;Node9</title>
<path fill="none" stroke="midnightblue" d="M1686.69,-358.449C1705.05,-350.741 1731.03,-338.146 1750.26,-322 1835.69,-250.262 1906.94,-134.321 1932.32,-90.2598"/>
<polygon fill="midnightblue" stroke="midnightblue" points="1935.5,-91.7496 1937.4,-81.3268 1929.41,-88.289 1935.5,-91.7496"/>
</g>
<!-- Node32&#45;&gt;Node10 -->
<g id="edge81" class="edge"><title>Node32&#45;&gt;Node10</title>
<path fill="none" stroke="midnightblue" d="M1689.65,-358.49C1713.49,-350.187 1749.93,-336.69 1780.26,-322 1937.14,-246.004 1956.85,-188.855 2118.26,-123 2176.68,-99.1623 2249.27,-84.4848 2290.22,-77.4701"/>
<polygon fill="midnightblue" stroke="midnightblue" points="2290.88,-80.909 2300.17,-75.8115 2289.73,-74.0044 2290.88,-80.909"/>
</g>
<!-- Node32&#45;&gt;Node11 -->
<g id="edge80" class="edge"><title>Node32&#45;&gt;Node11</title>
<path fill="none" stroke="midnightblue" d="M1656.89,-358.181C1638.38,-336.242 1587.96,-277.881 1540.26,-235 1509.58,-207.427 1502.72,-198.281 1466.26,-179 1459.67,-175.52 1259.53,-108.832 1181.23,-82.7925"/>
<polygon fill="midnightblue" stroke="midnightblue" points="1182.04,-79.3743 1171.45,-79.5403 1179.83,-86.0167 1182.04,-79.3743"/>
</g>
<!-- Node32&#45;&gt;Node15 -->
<g id="edge74" class="edge"><title>Node32&#45;&gt;Node15</title>
<path fill="none" stroke="midnightblue" d="M1687.71,-358.408C1703.42,-351.28 1722.87,-339.458 1732.26,-322 1752.71,-283.941 1726.69,-233.027 1710.09,-206.954"/>
<polygon fill="midnightblue" stroke="midnightblue" points="1712.95,-204.934 1704.5,-198.541 1707.12,-208.807 1712.95,-204.934"/>
</g>
<!-- Node32&#45;&gt;Node18 -->
<g id="edge75" class="edge"><title>Node32&#45;&gt;Node18</title>
<path fill="none" stroke="midnightblue" d="M1604.61,-363.39C1431.5,-352.911 929.75,-322.541 747.993,-311.54"/>
<polygon fill="midnightblue" stroke="midnightblue" points="747.968,-308.032 737.775,-310.921 747.545,-315.019 747.968,-308.032"/>
</g>
<!-- Node32&#45;&gt;Node22 -->
<g id="edge77" class="edge"><title>Node32&#45;&gt;Node22</title>
<path fill="none" stroke="midnightblue" d="M1633.5,-358.491C1612.58,-351.456 1585.32,-339.711 1566.26,-322 1533.9,-291.945 1549.68,-266.033 1518.26,-235 1503.89,-220.811 1484.13,-209.923 1467.38,-202.414"/>
<polygon fill="midnightblue" stroke="midnightblue" points="1468.51,-199.088 1457.94,-198.383 1465.76,-205.527 1468.51,-199.088"/>
</g>
<!-- Node32&#45;&gt;Node23 -->
<g id="edge79" class="edge"><title>Node32&#45;&gt;Node23</title>
<path fill="none" stroke="midnightblue" d="M1604.48,-367.392C1411.27,-368.197 805.162,-366.979 615.256,-322 582.542,-314.252 578.157,-301.611 546.256,-291 476.682,-267.857 454.678,-278.598 385.256,-255 365.3,-248.217 362.35,-241.364 342.256,-235 277.751,-214.57 200.766,-202.465 149.43,-196.044"/>
<polygon fill="midnightblue" stroke="midnightblue" points="149.548,-192.533 139.198,-194.797 148.701,-199.481 149.548,-192.533"/>
</g>
<!-- Node33 -->
<g id="node33" class="node"><title>Node33</title>
<polygon fill="white" stroke="#bfbfbf" points="1646.76,-297 1646.76,-316 1723.76,-316 1723.76,-297 1646.76,-297"/>
<text text-anchor="middle" x="1685.26" y="-304" font-family="Helvetica,sans-Serif" font-size="10.00">initializer_list</text>
</g>
<!-- Node32&#45;&gt;Node33 -->
<g id="edge78" class="edge"><title>Node32&#45;&gt;Node33</title>
<path fill="none" stroke="midnightblue" d="M1667.26,-358.475C1670.29,-349.904 1675.05,-336.427 1678.91,-325.483"/>
<polygon fill="midnightblue" stroke="midnightblue" points="1682.23,-326.604 1682.25,-316.009 1675.62,-324.274 1682.23,-326.604"/>
</g>
<!-- Node34&#45;&gt;Node10 -->
<g id="edge87" class="edge"><title>Node34&#45;&gt;Node10</title>
<path fill="none" stroke="midnightblue" d="M1287.78,-420.17C1303.14,-418.006 1319.83,-415.784 1335.26,-414 1511.25,-393.645 1563.59,-432.229 1732.26,-378 1748.95,-372.634 1750.97,-366.59 1766.26,-358 1958.83,-249.753 2005.18,-218.775 2204.26,-123 2233.38,-108.99 2267.37,-94.6475 2291.37,-84.8448"/>
<polygon fill="midnightblue" stroke="midnightblue" points="2292.74,-88.0687 2300.69,-81.0643 2290.1,-81.5827 2292.74,-88.0687"/>
</g>
<!-- Node34&#45;&gt;Node13 -->
<g id="edge84" class="edge"><title>Node34&#45;&gt;Node13</title>
<path fill="none" stroke="midnightblue" d="M1176.27,-427.547C1039.58,-424.678 691.963,-413.964 582.256,-378 512.643,-355.179 509.66,-319.696 442.256,-291 404.951,-275.118 360.75,-263.874 325.851,-256.598"/>
<polygon fill="midnightblue" stroke="midnightblue" points="326.3,-253.118 315.803,-254.558 324.907,-259.978 326.3,-253.118"/>
</g>
<!-- Node34&#45;&gt;Node27 -->
<g id="edge88" class="edge"><title>Node34&#45;&gt;Node27</title>
<path fill="none" stroke="midnightblue" d="M1221.35,-414.483C1195.61,-381.396 1131.14,-298.549 1103.35,-262.826"/>
<polygon fill="midnightblue" stroke="midnightblue" points="1106.02,-260.562 1097.12,-254.819 1100.5,-264.86 1106.02,-260.562"/>
</g>
<!-- Node34&#45;&gt;Node31 -->
<g id="edge85" class="edge"><title>Node34&#45;&gt;Node31</title>
<path fill="none" stroke="midnightblue" d="M1235.04,-414.429C1239.98,-389.518 1250.67,-336.034 1260.26,-291 1262.11,-282.282 1264.25,-272.632 1266.06,-264.512"/>
<polygon fill="midnightblue" stroke="midnightblue" points="1269.51,-265.142 1268.29,-254.617 1262.68,-263.603 1269.51,-265.142"/>
</g>
<!-- Node34&#45;&gt;Node32 -->
<g id="edge86" class="edge"><title>Node34&#45;&gt;Node32</title>
<path fill="none" stroke="midnightblue" d="M1287.84,-420.634C1303.2,-418.472 1319.87,-416.135 1335.26,-414 1424.74,-401.582 1527.95,-387.505 1594.55,-378.453"/>
<polygon fill="midnightblue" stroke="midnightblue" points="1595.07,-381.915 1604.51,-377.1 1594.13,-374.978 1595.07,-381.915"/>
</g>
<!-- Node35&#45;&gt;Node31 -->
<g id="edge93" class="edge"><title>Node35&#45;&gt;Node31</title>
<path fill="none" stroke="midnightblue" d="M1718.88,-481.453C1671.61,-456.783 1530.9,-383.306 1414.26,-322 1372.67,-300.141 1324.38,-274.63 1295.62,-259.423"/>
<polygon fill="midnightblue" stroke="midnightblue" points="1297.14,-256.262 1286.66,-254.681 1293.86,-262.45 1297.14,-256.262"/>
</g>
<!-- Node36 -->
<g id="node36" class="node"><title>Node36</title>
<polygon fill="white" stroke="#bfbfbf" points="1740.76,-420 1740.76,-439 1799.76,-439 1799.76,-420 1740.76,-420"/>
<text text-anchor="middle" x="1770.26" y="-427" font-family="Helvetica,sans-Serif" font-size="10.00">iostream</text>
</g>
<!-- Node35&#45;&gt;Node36 -->
<g id="edge94" class="edge"><title>Node35&#45;&gt;Node36</title>
<path fill="none" stroke="midnightblue" d="M1740.27,-481.475C1745.42,-472.727 1753.57,-458.869 1760.07,-447.809"/>
<polygon fill="midnightblue" stroke="midnightblue" points="1763.2,-449.403 1765.25,-439.009 1757.16,-445.854 1763.2,-449.403"/>
</g>
<!-- Node37&#45;&gt;Node3 -->
<g id="edge104" class="edge"><title>Node37&#45;&gt;Node3</title>
<path fill="none" stroke="midnightblue" d="M2211.87,-593.316C2209.33,-547.604 2191.12,-333.264 2070.26,-235 1994.06,-173.051 1946.65,-226.065 1852.26,-199 1830.04,-192.63 1826.61,-184.884 1804.26,-179 1700.49,-151.681 1576.05,-140.89 1500.36,-136.667"/>
<polygon fill="midnightblue" stroke="midnightblue" points="1500.19,-133.152 1490.01,-136.113 1499.81,-140.142 1500.19,-133.152"/>
</g>
<!-- Node37&#45;&gt;Node10 -->
<g id="edge106" class="edge"><title>Node37&#45;&gt;Node10</title>
<path fill="none" stroke="midnightblue" d="M2218.04,-593.404C2243.05,-555.621 2342.13,-399.74 2374.26,-255 2387.91,-193.499 2352.15,-122.052 2333.18,-89.8301"/>
<polygon fill="midnightblue" stroke="midnightblue" points="2336.09,-87.8747 2327.91,-81.144 2330.11,-91.5082 2336.09,-87.8747"/>
</g>
<!-- Node37&#45;&gt;Node14 -->
<g id="edge105" class="edge"><title>Node37&#45;&gt;Node14</title>
<path fill="none" stroke="midnightblue" d="M2172.23,-595.753C2111.53,-586.28 1995.84,-568.224 1925.41,-557.233"/>
<polygon fill="midnightblue" stroke="midnightblue" points="1925.78,-553.748 1915.36,-555.664 1924.7,-560.664 1925.78,-553.748"/>
</g>
<!-- Node38&#45;&gt;Node2 -->
<g id="edge109" class="edge"><title>Node38&#45;&gt;Node2</title>
<path fill="none" stroke="midnightblue" d="M1980.26,-873.297C1980.26,-840.633 1980.26,-724.866 1980.26,-678.957"/>
<polygon fill="midnightblue" stroke="midnightblue" points="1983.76,-678.884 1980.26,-668.884 1976.76,-678.884 1983.76,-678.884"/>
</g>
<!-- Node38&#45;&gt;Node10 -->
<g id="edge143" class="edge"><title>Node38&#45;&gt;Node10</title>
<path fill="none" stroke="midnightblue" d="M2026.52,-879.853C2185.87,-871.851 2702.26,-840.627 2702.26,-772 2702.26,-772 2702.26,-772 2702.26,-188 2702.26,-151.28 2682.96,-141.528 2651.26,-123 2601.19,-93.7396 2427.42,-79.3199 2354.67,-74.4554"/>
<polygon fill="midnightblue" stroke="midnightblue" points="2354.51,-70.9372 2344.3,-73.781 2354.05,-77.9224 2354.51,-70.9372"/>
</g>
<!-- Node38&#45;&gt;Node22 -->
<g id="edge144" class="edge"><title>Node38&#45;&gt;Node22</title>
<path fill="none" stroke="midnightblue" d="M1934.01,-880.517C1818.81,-875.571 1528.26,-854.883 1528.26,-772 1528.26,-772 1528.26,-772 1528.26,-546 1528.26,-412.319 1465.53,-259.48 1442.56,-207.99"/>
<polygon fill="midnightblue" stroke="midnightblue" points="1445.61,-206.249 1438.3,-198.585 1439.23,-209.138 1445.61,-206.249"/>
</g>
<!-- Node38&#45;&gt;Node23 -->
<g id="edge145" class="edge"><title>Node38&#45;&gt;Node23</title>
<path fill="none" stroke="midnightblue" d="M1934.1,-881.67C1641.35,-878.988 55.2561,-855.437 55.2561,-660 55.2561,-660 55.2561,-660 55.2561,-546 55.2561,-416.308 79.8501,-261.456 88.9355,-208.676"/>
<polygon fill="midnightblue" stroke="midnightblue" points="92.4387,-208.961 90.7134,-198.507 85.5433,-207.755 92.4387,-208.961"/>
</g>
<!-- Node39 -->
<g id="node39" class="node"><title>Node39</title>
<g id="a_node39"><a xlink:href="ir_2expr_8h.html" target="_top" xlink:title="Base expr nodes in TVM. ">
<polygon fill="white" stroke="black" points="2055.76,-705.5 2055.76,-724.5 2132.76,-724.5 2132.76,-705.5 2055.76,-705.5"/>
<text text-anchor="middle" x="2094.26" y="-712.5" font-family="Helvetica,sans-Serif" font-size="10.00">tvm/ir/expr.h</text>
</a>
</g>
</g>
<!-- Node38&#45;&gt;Node39 -->
<g id="edge110" class="edge"><title>Node38&#45;&gt;Node39</title>
<path fill="none" stroke="midnightblue" d="M1986.39,-873.075C2004.56,-846.606 2058.4,-768.209 2082.44,-733.21"/>
<polygon fill="midnightblue" stroke="midnightblue" points="2085.6,-734.793 2088.37,-724.568 2079.83,-730.83 2085.6,-734.793"/>
</g>
<!-- Node41 -->
<g id="node41" class="node"><title>Node41</title>
<g id="a_node41"><a xlink:href="ir_2function_8h.html" target="_top" xlink:title="Function nodes. ">
<polygon fill="white" stroke="black" points="2046.76,-817.5 2046.76,-836.5 2141.76,-836.5 2141.76,-817.5 2046.76,-817.5"/>
<text text-anchor="middle" x="2094.26" y="-824.5" font-family="Helvetica,sans-Serif" font-size="10.00">tvm/ir/function.h</text>
</a>
</g>
</g>
<!-- Node38&#45;&gt;Node41 -->
<g id="edge120" class="edge"><title>Node38&#45;&gt;Node41</title>
<path fill="none" stroke="midnightblue" d="M1998.32,-873.444C2016.83,-864.675 2045.84,-850.935 2067.11,-840.858"/>
<polygon fill="midnightblue" stroke="midnightblue" points="2068.74,-843.96 2076.28,-836.516 2065.74,-837.634 2068.74,-843.96"/>
</g>
<!-- Node44 -->
<g id="node44" class="node"><title>Node44</title>
<g id="a_node44"><a xlink:href="ir_2adt_8h.html" target="_top" xlink:title="Algebraic data type definitions. ">
<polygon fill="white" stroke="black" points="1880.26,-761.5 1880.26,-780.5 1952.26,-780.5 1952.26,-761.5 1880.26,-761.5"/>
<text text-anchor="middle" x="1916.26" y="-768.5" font-family="Helvetica,sans-Serif" font-size="10.00">tvm/ir/adt.h</text>
</a>
</g>
</g>
<!-- Node38&#45;&gt;Node44 -->
<g id="edge136" class="edge"><title>Node38&#45;&gt;Node44</title>
<path fill="none" stroke="midnightblue" d="M1975.23,-873.368C1964.72,-855.296 1940.21,-813.176 1926.33,-789.307"/>
<polygon fill="midnightblue" stroke="midnightblue" points="1929.31,-787.475 1921.25,-780.591 1923.26,-790.995 1929.31,-787.475"/>
</g>
<!-- Node45 -->
<g id="node45" class="node"><title>Node45</title>
<polygon fill="white" stroke="#bfbfbf" points="2160.26,-817.5 2160.26,-836.5 2246.26,-836.5 2246.26,-817.5 2160.26,-817.5"/>
<text text-anchor="middle" x="2203.26" y="-824.5" font-family="Helvetica,sans-Serif" font-size="10.00">unordered_set</text>
</g>
<!-- Node38&#45;&gt;Node45 -->
<g id="edge146" class="edge"><title>Node38&#45;&gt;Node45</title>
<path fill="none" stroke="midnightblue" d="M2015.59,-873.444C2054.17,-864.102 2116.04,-849.119 2158.11,-838.933"/>
<polygon fill="midnightblue" stroke="midnightblue" points="2159.19,-842.272 2168.09,-836.516 2157.54,-835.468 2159.19,-842.272"/>
</g>
<!-- Node39&#45;&gt;Node2 -->
<g id="edge115" class="edge"><title>Node39&#45;&gt;Node2</title>
<path fill="none" stroke="midnightblue" d="M2076.19,-705.444C2057.68,-696.675 2028.68,-682.935 2007.4,-672.858"/>
<polygon fill="midnightblue" stroke="midnightblue" points="2008.77,-669.634 1998.24,-668.516 2005.77,-675.96 2008.77,-669.634"/>
</g>
<!-- Node39&#45;&gt;Node3 -->
<g id="edge111" class="edge"><title>Node39&#45;&gt;Node3</title>
<path fill="none" stroke="midnightblue" d="M2132.93,-708.193C2206.71,-694.693 2360.26,-653.877 2360.26,-548 2360.26,-548 2360.26,-548 2360.26,-305.5 2360.26,-218.059 1715.58,-157.289 1500.3,-139.433"/>
<polygon fill="midnightblue" stroke="midnightblue" points="1500.33,-135.924 1490.07,-138.591 1499.75,-142.9 1500.33,-135.924"/>
</g>
<!-- Node39&#45;&gt;Node9 -->
<g id="edge119" class="edge"><title>Node39&#45;&gt;Node9</title>
<path fill="none" stroke="midnightblue" d="M2132.86,-714.359C2215.81,-714.331 2407.4,-709.734 2455.26,-669 2478.17,-649.491 2474.26,-634.098 2474.26,-604 2474.26,-604 2474.26,-604 2474.26,-367 2474.26,-144.694 2114.29,-88.8471 1986.55,-76.0281"/>
<polygon fill="midnightblue" stroke="midnightblue" points="1986.63,-72.5198 1976.34,-75.0463 1985.96,-79.4876 1986.63,-72.5198"/>
</g>
<!-- Node39&#45;&gt;Node10 -->
<g id="edge116" class="edge"><title>Node39&#45;&gt;Node10</title>
<path fill="none" stroke="midnightblue" d="M2132.82,-713.693C2218.36,-712.35 2420.91,-705.312 2477.26,-669 2530.05,-634.978 2550.26,-610.807 2550.26,-548 2550.26,-548 2550.26,-548 2550.26,-188 2550.26,-101.382 2417.69,-79.7038 2354.72,-74.2927"/>
<polygon fill="midnightblue" stroke="midnightblue" points="2354.77,-70.7862 2344.53,-73.5074 2354.23,-77.7655 2354.77,-70.7862"/>
</g>
<!-- Node39&#45;&gt;Node14 -->
<g id="edge112" class="edge"><title>Node39&#45;&gt;Node14</title>
<path fill="none" stroke="midnightblue" d="M2055.73,-711.729C2020.27,-707.835 1967.91,-697.32 1932.26,-669 1898.48,-642.175 1879.55,-593.138 1871.3,-566.467"/>
<polygon fill="midnightblue" stroke="midnightblue" points="1874.56,-565.158 1868.41,-556.536 1867.84,-567.116 1874.56,-565.158"/>
</g>
<!-- Node39&#45;&gt;Node29 -->
<g id="edge118" class="edge"><title>Node39&#45;&gt;Node29</title>
<path fill="none" stroke="midnightblue" d="M2055.55,-710.736C1892.94,-696.259 1267.13,-632.676 1129.26,-501 1105.79,-478.587 1110.26,-462.951 1110.26,-430.5 1110.26,-430.5 1110.26,-430.5 1110.26,-367 1110.26,-320.75 1067.27,-280.915 1040.38,-260.526"/>
<polygon fill="midnightblue" stroke="midnightblue" points="1042.43,-257.688 1032.29,-254.606 1038.3,-263.337 1042.43,-257.688"/>
</g>
<!-- Node39&#45;&gt;Node32 -->
<g id="edge113" class="edge"><title>Node39&#45;&gt;Node32</title>
<path fill="none" stroke="midnightblue" d="M2095.35,-705.477C2098.38,-678.506 2104.51,-593.479 2070.26,-537 1999.75,-420.73 1830.58,-384.926 1734.34,-373.902"/>
<polygon fill="midnightblue" stroke="midnightblue" points="1734.44,-370.392 1724.12,-372.793 1733.68,-377.351 1734.44,-370.392"/>
</g>
<!-- Node39&#45;&gt;Node37 -->
<g id="edge114" class="edge"><title>Node39&#45;&gt;Node37</title>
<path fill="none" stroke="midnightblue" d="M2108.79,-705.343C2122.32,-696.936 2142.68,-683.369 2158.26,-669 2174.35,-654.147 2190.04,-634.511 2200.32,-620.723"/>
<polygon fill="midnightblue" stroke="midnightblue" points="2203.17,-622.754 2206.25,-612.615 2197.52,-618.624 2203.17,-622.754"/>
</g>
<!-- Node40 -->
<g id="node40" class="node"><title>Node40</title>
<polygon fill="white" stroke="#bfbfbf" points="2384.26,-649.5 2384.26,-668.5 2446.26,-668.5 2446.26,-649.5 2384.26,-649.5"/>
<text text-anchor="middle" x="2415.26" y="-656.5" font-family="Helvetica,sans-Serif" font-size="10.00">algorithm</text>
</g>
<!-- Node39&#45;&gt;Node40 -->
<g id="edge117" class="edge"><title>Node39&#45;&gt;Node40</title>
<path fill="none" stroke="midnightblue" d="M2133.18,-708.103C2186.69,-699.893 2285.94,-684.3 2370.26,-669 2371.35,-668.801 2372.47,-668.597 2373.59,-668.388"/>
<polygon fill="midnightblue" stroke="midnightblue" points="2374.65,-671.75 2383.81,-666.438 2373.33,-664.874 2374.65,-671.75"/>
</g>
<!-- Node41&#45;&gt;Node9 -->
<g id="edge134" class="edge"><title>Node41&#45;&gt;Node9</title>
<path fill="none" stroke="midnightblue" d="M2124.04,-817.462C2205.16,-793.664 2427.26,-724.676 2477.26,-669 2514.66,-627.346 2512.26,-603.982 2512.26,-548 2512.26,-548 2512.26,-548 2512.26,-305.5 2512.26,-223.921 2447.24,-224.09 2379.26,-179 2332.55,-148.019 2319.68,-139.958 2266.26,-123 2169.37,-92.2456 2050.01,-79.8251 1986.67,-75.1248"/>
<polygon fill="midnightblue" stroke="midnightblue" points="1986.84,-71.6287 1976.62,-74.4098 1986.35,-78.6111 1986.84,-71.6287"/>
</g>
<!-- Node41&#45;&gt;Node10 -->
<g id="edge135" class="edge"><title>Node41&#45;&gt;Node10</title>
<path fill="none" stroke="midnightblue" d="M2141.87,-818.067C2278.87,-795.087 2664.26,-729.259 2664.26,-716 2664.26,-716 2664.26,-716 2664.26,-188 2664.26,-154.31 2653.1,-141.961 2625.26,-123 2581.53,-93.2284 2423.61,-79.2722 2354.74,-74.4983"/>
<polygon fill="midnightblue" stroke="midnightblue" points="2354.7,-70.9875 2344.49,-73.81 2354.23,-77.9718 2354.7,-70.9875"/>
</g>
<!-- Node41&#45;&gt;Node39 -->
<g id="edge121" class="edge"><title>Node41&#45;&gt;Node39</title>
<path fill="none" stroke="midnightblue" d="M2094.26,-817.368C2094.26,-799.617 2094.26,-758.666 2094.26,-734.597"/>
<polygon fill="midnightblue" stroke="midnightblue" points="2097.76,-734.591 2094.26,-724.591 2090.76,-734.591 2097.76,-734.591"/>
</g>
<!-- Node41&#45;&gt;Node42 -->
<g id="edge122" class="edge"><title>Node41&#45;&gt;Node42</title>
<path fill="none" stroke="midnightblue" d="M2046.67,-822.663C1909.44,-813.039 1513.85,-785.296 1373.98,-775.487"/>
<polygon fill="midnightblue" stroke="midnightblue" points="1374.19,-771.993 1363.97,-774.785 1373.7,-778.976 1374.19,-771.993"/>
</g>
<!-- Node42&#45;&gt;Node9 -->
<g id="edge131" class="edge"><title>Node42&#45;&gt;Node9</title>
<path fill="none" stroke="midnightblue" d="M1363.79,-766.446C1534.66,-750.687 2203.63,-684.722 2261.26,-613 2414.16,-422.704 2055.11,-151.518 1963.08,-86.7717"/>
<polygon fill="midnightblue" stroke="midnightblue" points="1965.01,-83.8491 1954.8,-81.001 1961,-89.5913 1965.01,-83.8491"/>
</g>
<!-- Node42&#45;&gt;Node10 -->
<g id="edge132" class="edge"><title>Node42&#45;&gt;Node10</title>
<path fill="none" stroke="midnightblue" d="M1363.87,-769.957C1544.84,-769.255 2293.27,-760.76 2505.26,-669 2548.26,-650.387 2588.26,-650.855 2588.26,-604 2588.26,-604 2588.26,-604 2588.26,-188 2588.26,-87.1962 2425.54,-73.4209 2354.64,-72.2036"/>
<polygon fill="midnightblue" stroke="midnightblue" points="2354.51,-68.7024 2344.48,-72.1054 2354.44,-75.702 2354.51,-68.7024"/>
</g>
<!-- Node42&#45;&gt;Node11 -->
<g id="edge133" class="edge"><title>Node42&#45;&gt;Node11</title>
<path fill="none" stroke="midnightblue" d="M1284.57,-769.421C1105.55,-766.657 377.82,-753.734 280.256,-725 225.416,-708.849 169.256,-717.169 169.256,-660 169.256,-660 169.256,-660 169.256,-602 169.256,-404.926 -93.4914,-327.336 36.2561,-179 109.591,-95.1581 945.527,-76.065 1118.89,-72.9969"/>
<polygon fill="midnightblue" stroke="midnightblue" points="1119.18,-76.4925 1129.12,-72.8211 1119.06,-69.4936 1119.18,-76.4925"/>
</g>
<!-- Node42&#45;&gt;Node18 -->
<g id="edge127" class="edge"><title>Node42&#45;&gt;Node18</title>
<path fill="none" stroke="midnightblue" d="M1284.5,-770.342C1085.52,-771.544 207.256,-770.584 207.256,-660 207.256,-660 207.256,-660 207.256,-428.5 207.256,-345.499 483.568,-318.706 614.262,-310.675"/>
<polygon fill="midnightblue" stroke="midnightblue" points="614.777,-314.151 624.551,-310.063 614.361,-307.163 614.777,-314.151"/>
</g>
<!-- Node42&#45;&gt;Node22 -->
<g id="edge129" class="edge"><title>Node42&#45;&gt;Node22</title>
<path fill="none" stroke="midnightblue" d="M1324.26,-761.442C1324.26,-742.936 1324.26,-697.812 1324.26,-660 1324.26,-660 1324.26,-660 1324.26,-546 1324.26,-487.13 1320.71,-471.045 1335.26,-414 1355.9,-333.033 1403.19,-244.371 1424.05,-207.543"/>
<polygon fill="midnightblue" stroke="midnightblue" points="1427.25,-208.996 1429.19,-198.58 1421.18,-205.515 1427.25,-208.996"/>
</g>
<!-- Node42&#45;&gt;Node23 -->
<g id="edge128" class="edge"><title>Node42&#45;&gt;Node23</title>
<path fill="none" stroke="midnightblue" d="M1284.45,-769.702C1084.97,-768.051 201.898,-758.849 155.256,-725 130.333,-706.912 131.256,-690.795 131.256,-660 131.256,-660 131.256,-660 131.256,-546 131.256,-416.231 105.333,-261.428 95.7563,-208.668"/>
<polygon fill="midnightblue" stroke="midnightblue" points="99.1374,-207.703 93.8822,-198.504 92.2535,-208.972 99.1374,-207.703"/>
</g>
<!-- Node42&#45;&gt;Node27 -->
<g id="edge130" class="edge"><title>Node42&#45;&gt;Node27</title>
<path fill="none" stroke="midnightblue" d="M1284.49,-769.047C1117.59,-764.531 482.256,-741.958 482.256,-660 482.256,-660 482.256,-660 482.256,-428.5 482.256,-398.865 911.567,-290.171 1048.69,-256.209"/>
<polygon fill="midnightblue" stroke="midnightblue" points="1049.56,-259.601 1058.42,-253.803 1047.88,-252.805 1049.56,-259.601"/>
</g>
<!-- Node42&#45;&gt;Node30 -->
<g id="edge125" class="edge"><title>Node42&#45;&gt;Node30</title>
<path fill="none" stroke="midnightblue" d="M1335.8,-761.433C1357.06,-744.571 1400.26,-704.799 1400.26,-660 1400.26,-660 1400.26,-660 1400.26,-546 1400.26,-514.495 1400.26,-478.155 1400.26,-454.783"/>
<polygon fill="midnightblue" stroke="midnightblue" points="1403.76,-454.725 1400.26,-444.725 1396.76,-454.725 1403.76,-454.725"/>
</g>
<!-- Node42&#45;&gt;Node34 -->
<g id="edge126" class="edge"><title>Node42&#45;&gt;Node34</title>
<path fill="none" stroke="midnightblue" d="M1318.97,-761.231C1308.53,-743.043 1286.26,-699.601 1286.26,-660 1286.26,-660 1286.26,-660 1286.26,-546 1286.26,-511.021 1265.68,-475.216 1249.93,-452.933"/>
<polygon fill="midnightblue" stroke="midnightblue" points="1252.71,-450.803 1243.97,-444.808 1247.06,-454.942 1252.71,-450.803"/>
</g>
<!-- Node42&#45;&gt;Node39 -->
<g id="edge124" class="edge"><title>Node42&#45;&gt;Node39</title>
<path fill="none" stroke="midnightblue" d="M1363.77,-767.229C1493.09,-758.16 1903.57,-729.373 2045.45,-719.423"/>
<polygon fill="midnightblue" stroke="midnightblue" points="2045.86,-722.903 2055.59,-718.712 2045.37,-715.92 2045.86,-722.903"/>
</g>
<!-- Node43 -->
<g id="node43" class="node"><title>Node43</title>
<polygon fill="white" stroke="#bfbfbf" points="1162.76,-705.5 1162.76,-724.5 1257.76,-724.5 1257.76,-705.5 1162.76,-705.5"/>
<text text-anchor="middle" x="1210.26" y="-712.5" font-family="Helvetica,sans-Serif" font-size="10.00">dmlc/common.h</text>
</g>
<!-- Node42&#45;&gt;Node43 -->
<g id="edge123" class="edge"><title>Node42&#45;&gt;Node43</title>
<path fill="none" stroke="midnightblue" d="M1306.19,-761.444C1287.68,-752.675 1258.68,-738.935 1237.4,-728.858"/>
<polygon fill="midnightblue" stroke="midnightblue" points="1238.77,-725.634 1228.24,-724.516 1235.77,-731.96 1238.77,-725.634"/>
</g>
<!-- Node44&#45;&gt;Node2 -->
<g id="edge141" class="edge"><title>Node44&#45;&gt;Node2</title>
<path fill="none" stroke="midnightblue" d="M1921.28,-761.368C1931.79,-743.296 1956.3,-701.176 1970.19,-677.307"/>
<polygon fill="midnightblue" stroke="midnightblue" points="1973.25,-678.995 1975.26,-668.591 1967.2,-675.475 1973.25,-678.995"/>
</g>
<!-- Node44&#45;&gt;Node3 -->
<g id="edge137" class="edge"><title>Node44&#45;&gt;Node3</title>
<path fill="none" stroke="midnightblue" d="M1880.21,-770.383C1832.19,-769.328 1746.11,-761.857 1684.26,-725 1656.59,-708.513 1651.75,-698.248 1638.26,-669 1627.67,-646.042 1630.49,-638.184 1628.26,-613 1625.28,-579.354 1624.3,-570.545 1628.26,-537 1633.18,-495.247 1645.33,-486.753 1650.26,-445 1651.87,-431.317 1656.81,-426.12 1650.26,-414 1636.36,-388.3 1615.87,-398.704 1595.26,-378 1520.89,-303.305 1527.33,-264.901 1466.26,-179 1459.45,-169.421 1451.42,-159.046 1444.78,-150.675"/>
<polygon fill="midnightblue" stroke="midnightblue" points="1447.44,-148.407 1438.46,-142.794 1441.98,-152.785 1447.44,-148.407"/>
</g>
<!-- Node44&#45;&gt;Node10 -->
<g id="edge142" class="edge"><title>Node44&#45;&gt;Node10</title>
<path fill="none" stroke="midnightblue" d="M1952.63,-769.679C2067.14,-768.301 2418.96,-761.155 2526.26,-725 2576.49,-708.074 2626.26,-713.008 2626.26,-660 2626.26,-660 2626.26,-660 2626.26,-188 2626.26,-157.205 2625.85,-142.786 2602.26,-123 2565.06,-91.8093 2419.91,-78.7444 2354.52,-74.3588"/>
<polygon fill="midnightblue" stroke="midnightblue" points="2354.57,-70.8552 2344.37,-73.7054 2354.12,-77.8408 2354.57,-70.8552"/>
</g>
<!-- Node44&#45;&gt;Node14 -->
<g id="edge138" class="edge"><title>Node44&#45;&gt;Node14</title>
<path fill="none" stroke="midnightblue" d="M1914.27,-761.5C1908.76,-737.937 1892.88,-669.779 1880.26,-613 1876.81,-597.487 1873.02,-579.86 1870.25,-566.88"/>
<polygon fill="midnightblue" stroke="midnightblue" points="1873.62,-565.894 1868.12,-556.839 1866.77,-567.348 1873.62,-565.894"/>
</g>
<!-- Node44&#45;&gt;Node32 -->
<g id="edge139" class="edge"><title>Node44&#45;&gt;Node32</title>
<path fill="none" stroke="midnightblue" d="M1880.15,-763.378C1805.75,-748.701 1642.26,-710.683 1642.26,-660 1642.26,-660 1642.26,-660 1642.26,-546 1642.26,-515.902 1647.79,-507.916 1661.26,-481 1670.21,-463.114 1681.93,-463.974 1688.26,-445 1692.61,-431.929 1691.6,-427.366 1688.26,-414 1685.82,-404.245 1680.82,-394.29 1676.01,-386.231"/>
<polygon fill="midnightblue" stroke="midnightblue" points="1678.95,-384.322 1670.62,-377.768 1673.04,-388.083 1678.95,-384.322"/>
</g>
<!-- Node44&#45;&gt;Node39 -->
<g id="edge140" class="edge"><title>Node44&#45;&gt;Node39</title>
<path fill="none" stroke="midnightblue" d="M1944.46,-761.444C1974.67,-752.28 2022.77,-737.688 2056.29,-727.519"/>
<polygon fill="midnightblue" stroke="midnightblue" points="2057.63,-730.769 2066.18,-724.516 2055.6,-724.07 2057.63,-730.769"/>
</g>
<!-- Node46&#45;&gt;Node10 -->
<g id="edge149" class="edge"><title>Node46&#45;&gt;Node10</title>
<path fill="none" stroke="midnightblue" d="M940.967,-546.105C1107.21,-546.059 1642.64,-542.603 1809.26,-501 1933.67,-469.934 1957.51,-439.091 2070.26,-378 2168.51,-324.764 2284.26,-357.749 2284.26,-246 2284.26,-246 2284.26,-246 2284.26,-188 2284.26,-151.754 2301.35,-112.171 2312.61,-90.0327"/>
<polygon fill="midnightblue" stroke="midnightblue" points="2315.72,-91.641 2317.29,-81.1633 2309.53,-88.3745 2315.72,-91.641"/>
</g>
<!-- Node46&#45;&gt;Node11 -->
<g id="edge150" class="edge"><title>Node46&#45;&gt;Node11</title>
<path fill="none" stroke="midnightblue" d="M841.701,-543.314C655.542,-531.36 17.1744,-472.587 188.256,-235 199.723,-219.075 504.029,-126.928 523.256,-123 748.398,-77.0081 1027.03,-72.5044 1119.11,-72.3586"/>
<polygon fill="midnightblue" stroke="midnightblue" points="1119.16,-75.8585 1129.16,-72.3595 1119.16,-68.8585 1119.16,-75.8585"/>
</g>
<!-- Node46&#45;&gt;Node17 -->
<g id="edge148" class="edge"><title>Node46&#45;&gt;Node17</title>
<path fill="none" stroke="midnightblue" d="M939.901,-537.444C994.13,-527.905 1081.8,-512.483 1139.74,-502.293"/>
<polygon fill="midnightblue" stroke="midnightblue" points="1140.6,-505.696 1149.84,-500.516 1139.38,-498.802 1140.6,-505.696"/>
</g>
</g>
</svg>
